<svg xmlns="http://www.w3.org/2000/svg" viewBox="0 0 2994.91 3000">
  <title>142Icon_neon 1</title>
  <g>
    <path d="M274.24,1855.21c101.94,35.21,208.57,56.74,311.68,77.56q19.19,3.87,38.35,7.77l3.33.68.26-3.38c25.24-322.49,128.26-896.21,534.64-1115.29l12-6.46-13.58.82C1038.54,824.31,915.09,854.63,794,907c-118.37,51.21-229.07,121.09-329,207.68C256.18,1295.6,116.62,1531.19,72,1778.07l-.44,2.45,2.32.88C154.71,1812.37,216.5,1835.13,274.24,1855.21Zm487.21-556c-39,95.09-70.93,202.08-95,318-20.63,99.56-35.55,206.11-44.34,316.75q-17.1-3.48-34.18-6.92l-.87-.17c-102.91-20.78-209.34-42.27-310.89-77.35-57.14-19.87-118.24-42.37-197.87-72.85,90-490.68,567.83-915.57,1069.45-952.88C982.54,917,852.6,1076.86,761.45,1299.23Z"/>
    <path d="M2416.13,2002c-235.25,61.82-505.28,106.37-740.86,122.23-102,6.87-204.77,10.35-305.32,10.35-480.12,0-940-80-1329.81-231.3l-3.7-1.43-4.22,45.59,1.89.9c69.05,32.83,220.92,96.49,462.22,153.84,104.25,24.78,212.06,45.07,320.42,60.32a3499,3499,0,0,0,361.56,32c44.31,1.58,89.59,2.38,134.56,2.38,184,0,373.42-13.24,563-39.35,179.43-24.7,357.5-60.18,544.39-108.45l2.4-.62-3-47.35ZM827.2,2105.46c177.17,23.24,360.88,35,546,35,99.84,0,201.59-3.44,302.43-10.23,234.73-15.81,503.69-60.06,738.46-121.5l2.23,35.13c-378.34,97.53-749.85,147-1104.22,147-44.61,0-89.56-.8-133.61-2.37C681,2170.78,254,2045.81,38.58,1943.85l3.1-33.51C280.92,2002.83,545.18,2068.47,827.2,2105.46Z"/>
    <path d="M1397.56,830.74l-1-.24c-12.68-2.86-22.56-4.42-32.11-5.92-7.51-1.19-15.27-2.41-24.27-4.26l-1-.21-.92.45c-104.91,51.77-196.51,120.85-272.25,205.33-69,76.94-127.24,169.39-173.1,274.77-41.25,94.77-73,199.5-97,320.15-20.25,101.53-34.71,213.31-44.22,341.7l-.2,2.7,2.67.47c27.33,4.85,30.83,5.42,30.85,5.42l3,.48.43-3c11.85-82.82,66.47-149.1,158-191.67,81.7-38,186.88-54.46,296.16-46.32,103.61,7.72,198.91,37,268.32,82.38,77.34,50.58,118,118,117.44,195l0,3.11,3.11-.09c.08,0,9.08-.26,40.36-2.11l8.76-.62,0-2.83c-.53-45.56-.44-92.71-.36-138.31v-.22c.29-153.66.59-312.56-21.46-464.71-11.91-82.21-29.15-155-52.69-222.57-26.54-76.16-60.26-143.49-103.09-205.83-29.94-47.84-66.56-94.57-104.6-142.21Zm276.82,1171.91-3.08.22c-21.36,1.26-32.24,1.78-37.06,2-.58-77.81-42.07-145.86-120.14-196.92-70.26-46-166.56-75.55-271.16-83.34-18.28-1.36-36.73-2-54.84-2-91,0-175.53,16.91-244.3,48.91-92.29,43-147.87,109.72-160.91,193.21-3.44-.59-10.57-1.84-25.09-4.41C788.37,1550.77,882.53,1052.7,1340,826.4c8.7,1.76,16.24,3,23.54,4.1,9.19,1.45,18.7,3,30.7,5.63,37.68,47.21,74,93.53,103.58,140.89l.06.09c177.42,258.21,176.82,579.27,176.23,889.76C1674,1911.62,1673.89,1957.86,1674.38,2002.65Z"/>
    <path d="M1563.41,903.47c228.77,276.75,231.39,647.39,233.93,1005.82.2,27.93.4,56.8.72,84.9l0,3.38,3.36-.44c171-22.85,344.06-58.75,511.38-93.47q36.38-7.54,72.67-15.05l2.74-.56-.37-2.77a1262,1262,0,0,0-97.65-343.51A1290.17,1290.17,0,0,0,2105,1242.46c-75.19-90.88-161.25-169.29-255.78-233.07-97.15-65.54-201.26-114.23-309.44-144.7l-9-2.52,5.79,7.28C1546.2,881.45,1554.93,892.56,1563.41,903.47ZM1804,1990.73c-.29-26.81-.49-54.31-.68-80.94v-.55c-1.25-176.19-2.54-358.37-32.24-531.94-16.07-93.92-38.8-176.25-69.49-251.7-34.19-84.07-79.13-160.09-133.52-225.88-6.71-8.65-13.6-17.43-20.93-26.68,427.55,124.84,769.83,538.89,834.4,1010.26q-34.95,7.2-69.94,14.48C2145.51,1932.25,1973.76,1967.89,1804,1990.73Z"/>
    <path d="M2960.11,1536.68c-2.58-40-14.62-76.74-34.84-106.28-32.73-47.84-84.77-73.83-146.34-72.9l-.25,0a1572.31,1572.31,0,0,0-211.1,35.4c-75.12,18.08-142.91,40.75-201.49,67.37l-2.94,1.34,1.55,2.83c79.39,145,129.72,315.7,153.88,521.83l.48,4.12,3.76-1.75c75.24-34.87,162.33-77.68,237.9-130.85,85.67-60.28,143.88-124.35,178-195.88l.06-.14C2955.35,1620.81,2962.75,1577.55,2960.11,1536.68Zm-26.9,122.76c-70.71,148.37-238.14,242.54-409.16,322-24.27-203.73-74.19-372.93-152.54-517,110.27-49.57,258.64-86.32,407.63-100.93,59.42-.79,109.6,24.14,141.18,70.29C2960.75,1492.86,2965.68,1579.32,2933.21,1659.44Z"/>
    <path d="M1427.62,774c0-.41-.09-10-7.77-19.53-6.89-8.55-21.52-18.76-52.07-18.76-47.93,0-62.68,32-62.82,32.36l-1.79,4,124.45,5Zm-114.78-7.5c5.57-8.1,21.16-24.79,54.94-24.79,28.13,0,41.28,9,47.36,16.48a29.81,29.81,0,0,1,6.07,12.67Z"/>
  </g>
</svg>
