<svg xmlns="http://www.w3.org/2000/svg" viewBox="0 0 2994.91 3000">
  <title>140Icon_neon 1</title>
  <g>
    <path d="M1459,1180l13.92-5.77h-15.07c-.84,0-84.84.11-178,10.08-83.07,8.89-101.93,14.26-130.5,22.41-8.49,2.42-18.12,5.16-30.51,8.3-83.56,19.74-158.62,54.27-231.2,87.66l-4,1.83-.12.06c-86.3,45.12-177.32,107.71-263.21,181A1748.69,1748.69,0,0,0,371.2,1747.3c-117.93,153-262.31,395.34-280.45,681.37l-.11,1.75,1.47,1c112.08,72.89,265.43,140.2,431.78,189.53l.12,0,235.57,45.25,3.09.59.45-3.11c13.57-95.28,27.84-198.36,41.64-298,13.83-99.91,28.13-203.23,41.79-299.07,6.23-30.54,11.75-62.62,17.09-93.68,12.59-73.15,25.6-148.79,49.18-212.74C1004.92,1510.38,1224.41,1277.26,1459,1180ZM525.43,2615.11c-165-48.94-317.13-115.6-428.58-187.8,31-473.86,429.56-929.23,789.35-1117.35l3.91-1.8c72.32-33.27,147.1-67.67,230.12-87.29,12.53-3.16,22.2-5.92,30.76-8.36,28.25-8,46.91-13.37,129.46-22.2,69.58-7.44,134-9.37,162.3-9.88-53,23.27-106.07,53.84-157.83,91a1084.9,1084.9,0,0,0-156.21,137.29,1124.37,1124.37,0,0,0-129.61,166c-38.27,60-69.19,121.68-91.91,183.29-23.77,64.46-36.83,140.37-49.46,213.8-5.33,31-10.85,63.05-17.08,93.6l0,.14c-13.64,95.68-28,199.14-41.82,299.28-13.66,98.63-27.77,200.59-41.19,294.82Z"/>
    <path d="M1026.37,304.53c20.26,7.35,37.75,13.71,49.44,19.2l.12.06c94.75,38.5,198.33,63.86,316.65,77.51,96.89,11.18,204.1,15.28,358,13.68-37.44,211.86-118.37,652.76-119.18,657.18l-.55,3,97.81,16.07.57-2.94c4-20.91,98.43-510.4,124.8-660.91,146.5,67.77,290.52,112.19,480.89,148.37,9.67,1.68,21.76,4.14,35.82,7,53.79,11,135.09,27.52,183.22,19.25l.22,0c121.63-32.47,125.62-34.21,151.57-45.53l9.26-4L879.31,210.71l-4.26-.79.76,4.26C882.55,252.29,965.68,282.48,1026.37,304.53ZM2694.64,554.69c-18.94,8-34.39,12.73-141.85,41.43-47,8-127.54-8.39-180.86-19.25-14.06-2.86-26.21-5.33-35.94-7-191.3-36.36-335.74-81.08-483-149.55l-3.55-1.65-.67,3.85c-24.63,141.44-116.65,619-124.91,661.86l-86-14.13c7.33-40,83.62-455.89,119.26-657.77l.63-3.56-3.62,0c-272.16,3-480.15-11.16-675.85-90.67-11.91-5.6-29.5-12-49.86-19.38-56.77-20.62-133.75-48.58-145.54-81.41Z"/>
    <path d="M1859.05,348.75q1.21-2.14,2.44-4.29l.75-1.31-.6-1.38c-.88-2-1.67-3.93-2.41-5.73-6.66-16.1-10.33-25-40.23-29-34.8-4.71-47.61,11.49-53.07,18.41l-.65.82v8.49L1858,350.58ZM1818.2,313c26.47,3.59,29.3,10.41,35.48,25.38.59,1.41,1.2,2.89,1.86,4.43l-.67,1.19-83.59-14.28v-1.35C1776.37,322,1787.9,308.86,1818.2,313Z"/>
    <path d="M1825.62,1361.56l-.08-.11c-11.17-13.28-22.1-28-33.67-43.55-36.46-49.07-77.79-104.68-138.55-127.05l-.84-.3-.87.2c-54.84,12.7-122.56,52.32-162.21,83.7-128,94.82-227.2,193.59-294.81,293.58-39.68,58.68-77.85,153-113.47,280.49-28.46,101.8-55.37,224.87-80,365.79-42,240.53-63,451.18-63.18,453.27l-.21,2.12,1.93.9c91.74,43,336.1,70.44,534.19,81.84,87.28,5,170.81,7.56,248.25,7.56,136.77,0,241.48-8.05,294.85-22.68l2.17-.59,0-2.25s4.21-264,6.33-396.06c0-230.35-12-406.23-37.75-553.53C1956,1603.16,1902.94,1464.69,1825.62,1361.56ZM1474.19,2746.45c-196.07-11.28-437.63-38.3-530.07-80.4,2.27-22.37,23.26-223.93,62.9-450.72,38.64-221,103.4-512.1,192.54-643.93,67.23-99.43,166-197.72,293.49-292.18,39-30.85,105.25-69.71,159-82.42,58.63,22,99.18,76.52,135,124.73,11.59,15.6,22.54,30.34,33.78,43.71,175,233.47,198.59,623,198.6,973.14-2,124.83-5.88,367.78-6.3,393.74C1927.41,2754.75,1716.4,2760.38,1474.19,2746.45Z"/>
    <path d="M2784.38,2038.42l-4.07-10.92-.09-.2c-80.95-170.62-169.9-302.46-279.94-414.92-100.61-102.83-221.33-192.61-391.42-291.11l-.18-.09c-10.54-5-21.11-10.16-32.29-15.62l-.12-.06c-59.1-28.86-126.09-61.56-196-72.55l-9.32-1.47,6.76,6.58q6.83,6.64,13.73,13.31c17.42,16.87,35.44,34.32,51.11,50.79,65.34,68.68,110.9,121.62,147.51,227.55,109.84,317.83,113,725.26,106,1186.23l-.05,3.43,3.4-.4c1.59-.19,161.78-19.43,385.32-75C2825.67,2584,2900.27,2564,2901,2563.85l2.06-.55.16-2.12C2916.23,2391.41,2833.69,2170.44,2784.38,2038.42Zm-582.24,674.17c3.17-209.85,5.07-431.66-8.57-636.12-14.79-221.61-46.77-401.1-97.79-548.72-37-107.07-83-160.48-148.83-229.73-15.77-16.57-33.84-34.06-51.31-51l-.36-.35-6.39-6.19c65.58,12.2,128.75,43,184.75,70.39,11.21,5.47,21.8,10.64,32.33,15.64,292.64,169.48,495.9,338.88,668.77,703.2l4,10.81c48.92,131,130.68,349.89,118.61,518.05-14.51,3.84-96.09,25.27-314.08,79.51C2378.27,2689.11,2225.36,2709.62,2202.14,2712.59Z"/>
  </g>
</svg>
