<svg xmlns="http://www.w3.org/2000/svg" viewBox="0 0 2994.91 3000">
  <title>76Icon_neon 1</title>
  <path d="M2862,446.88c-20.85-72.81-57.11-135.39-107.76-186C2690.48,197.2,2619.7,152.83,2543.86,129c-60.7-19.06-124.73-25.06-190.31-17.83-111.55,12.3-190.18,59.4-191,59.9l-.26.16L188.11,2140.18l-.39.48c-.54.84-54.89,84.89-73.94,202.27-11.2,69-8.23,135.88,8.85,198.78C144,2620.34,187.51,2692.88,252,2757.33c58.7,58.63,127.7,98.5,205.09,118.49A494.07,494.07,0,0,0,580.57,2891a591.3,591.3,0,0,0,76.6-5.13c120.39-15.83,211-63.69,211.92-64.18l.58-.39,1974-1968.8.19-.2.42-.65.09-.27c.33-.92,33-93.46,38.12-212C2885.56,569.83,2878.65,505.05,2862,446.88Zm14.54,192.25c-4.89,112.5-34.64,201.15-37.56,209.6L865.88,2816.6c-7,3.64-93.85,48.12-209.53,63.32a571.19,571.19,0,0,1-74.44,5c-100.61,0-221.79-28.05-325.65-131.8C111.91,2608.88,102.32,2451,119.69,2343.93,138,2230.85,188.85,2150,192.58,2144.2L2166,176c5.84-3.46,81.23-47.07,188.21-58.86,101.75-11.22,253,5.35,395.79,148C2863.11,378.13,2881.25,530.89,2876.54,639.13Z"/>
</svg>
