<svg xmlns="http://www.w3.org/2000/svg" viewBox="0 0 2994.91 3000">
  <title>134Icon_neon 1</title>
  <path d="M2778.06,960.09a1391.18,1391.18,0,0,0-738.15-738.15c-171-72.33-352.66-109-539.91-109s-368.9,36.67-539.91,109A1391.18,1391.18,0,0,0,221.94,960.09c-72.33,171-109,352.66-109,539.91s36.68,368.9,109,539.91a1391,1391,0,0,0,738.15,738.15c171,72.33,352.66,109,539.91,109s368.9-36.68,539.91-109a1391.18,1391.18,0,0,0,738.15-738.15c72.33-171,109-352.66,109-539.91S2850.39,1131.1,2778.06,960.09Zm103,539.91c0,761.52-619.55,1381.07-1381.07,1381.07S118.93,2261.52,118.93,1500,738.48,118.94,1500,118.94,2881.07,738.48,2881.07,1500Z"/>
</svg>
