<svg xmlns="http://www.w3.org/2000/svg" viewBox="0 0 2994.91 3000">
  <title>148Icon_neon 1</title>
  <path d="M2853.4,2192.47c-13.27-52.61-34-100.71-54-147.24l-.4-.92c-6.09-14.15-12-28.08-17.79-41.55-48.68-114-90.71-212.5-154.62-288.53a439.23,439.23,0,0,0-116.92-98.51c-48.63-28.35-105.45-50-173.7-66.13l-1.83-.44-1.19,1.47c-8,9.84-72.52,67.19-167.06,120.54-82.67,46.65-206.71,99.74-328.2,87.81l-101.62-24.3,137.83-26.91.14,0c1-.25,98.59-25.43,130.5-44.14,55.62-32.63,104.39-70.75,145-113.29,45.66-47.89,79.94-100.53,101.91-156.46,11.39-29,16.88-59.65,22.7-92.16,2.73-15.27,5.56-31.06,9.08-47,22.33-100.67,13.6-215.15-22.78-298.74-32.88-75.55-76.9-149.65-124-208.65-15.68-19.65-33.73-38.67-52.86-58.82-35.11-37-71.42-75.21-94.16-119.51C1965,521.52,1945.61,465.43,1925,406c-30.45-87.92-61.94-178.83-112.44-248.13-27.43-37.63-57.7-65.27-92.56-84.49-38.82-21.42-84-32.08-134.23-31.66l-.47,0c-9,1.5-19.44,2.91-29.57,4.27s-20.57,2.77-29.7,4.3l-.24.05c-30,8.18-56.69,15.93-79.42,28-26.17,13.94-43.66,32.24-53.49,56-7.4,17.86-9.1,27.71-12.82,49.3l-.3,1.78c-3.85,22.28-2.27,29.77,9.37,44.47l2.07,2.61,2.38-2.32c6.64-6.48,11-11.34,14.86-15.66,7.71-8.6,12.8-14.29,29.56-24.5,32-19.48,76.29-22.9,118.45-9.14,35.35,11.54,62.75,33.63,73.3,59.08l.08.18c60.8,119.76-29.23,260.32-109.6,318.16l-.81-.06-.52,1c-2,1.19-10.25,5.24-15.31,7.73-17,8.36-17.05,8.49-17.68,9.76l-.27.52-6.66,3.6,5-.4-.52,1,60.51-4.83,211.35,33c-63.35,9.46-266.91,40-305.66,47.78-149.66,29.93-283.06,78.18-396.47,143.39C930.9,871.25,836.51,959,772.73,1061.64c-27.14,43.67-41.19,100.58-40.64,164.57.49,57.1,12.7,117.37,34.39,169.72,16.64,40.16,44.53,81,82.91,121.44,35.39,37.27,78.73,73.25,128.83,106.94,94.79,63.75,205.39,113.5,303.43,136.49l60.47,8.34-106.59,22.68c-80.1-1.67-203.21-34.46-321.38-85.62-121.34-52.53-213-113.12-245.11-162.08L668,1542.5l-1.91.3c-50.55,8.07-129.61,79-193.15,136-35.9,32.23-66.92,60.05-87.34,72.28l-.18.11-.57.54Q362.56,1778.27,345,1799l-.35.41c-100,118.3-100,118.3-148.21,242.27-6.28,16.13-13.38,34.4-21.68,55.44-23,58.25-35.95,118-38.53,177.58-2.81,65.23,7.11,127.4,29.48,184.8,24.45,62.73,51.68,114.22,83.25,157.41,35.27,48.29,79.79,89.29,136.09,125.36,50,32.06,108.27,59.43,178,83.68,129.31,44.94,279.06,71.84,423.88,97.85l9.74,1.75c49,8.81,101.13,10.3,151.52,11.75,48.88,1.41,99.42,2.86,148.45,10.87l253.59,0h0l171.75-4.52q35.41-.75,70.9-1.52l.35,0c36.11-6,73.06-7.81,108.79-9.58,40.93-2,79.59-3.93,117.32-11.54,175.4-35.36,326.26-81.51,448.37-137.16,154.69-70.5,265.06-157.14,328.05-257.53,25.87-41.23,46.49-93.67,58.07-147.66C2867.82,2313.48,2867.67,2249.09,2853.4,2192.47ZM665.13,1549.06c33.69,49.59,125.65,110.27,246.63,162.64,56.92,24.65,116.28,45.62,171.67,60.65,58.4,15.85,111.08,24.66,152.39,25.47h.29l140.78-30-94-12.95c-97.31-22.84-207.11-72.25-301.29-135.59-103.74-69.76-178.16-149.91-209.55-225.7-39.52-95.41-53.06-234.09,5.8-328.83,122.07-196.47,361.12-339,673.1-401.43,45-9,313.36-48.92,324.81-50.62l19.5-2.9-250.67-39.1-.29,0L1503.12,574l3.17-1.56c13.29-6.55,15.8-7.88,16.83-8.73,33.55-24,79.58-71.75,108.27-134,22-47.74,40.55-119.82,3.89-192.11-11.23-27-40-50.3-76.93-62.36-43.81-14.3-89.95-10.67-123.43,9.72-17.52,10.66-22.84,16.61-30.91,25.62-3.3,3.68-7,7.8-12.18,13-8.7-11.58-9.48-17.6-6.12-37.08l.3-1.78c3.64-21.14,5.3-30.78,12.45-48,21.18-51.08,75.86-66,128.78-80.45,8.94-1.48,19.3-2.88,29.38-4.24s20.44-2.75,29.47-4.25c92.9-.73,165.39,36.48,221.66,113.69,50,68.56,81.31,159,111.63,246.57,20.64,59.59,40.13,115.87,64.7,163.72,23.14,45.07,59.75,83.62,95.17,120.93,19,20,37,39,52.5,58.4,46.74,58.6,90.48,132.22,123.15,207.31,35.9,82.49,44.49,195.54,22.43,295.05-3.55,16-6.39,31.85-9.14,47.22-5.76,32.16-11.2,62.53-22.38,91-52.06,132.57-161.59,218.24-244.32,266.77-30.7,18-125.75,42.69-128.85,43.49l-164.86,32.18,128.74,30.79.34.05c53.92,5.32,112.83-1.45,175.08-20.14,50.63-15.2,103.41-38.21,156.89-68.39,91.75-51.77,155.42-107.34,167.51-120.54,275.63,65.82,340.8,218.45,439.35,449.28l.27.65c5.67,13.28,11.54,27,17.52,40.91l.4.93c19.94,46.3,40.55,94.18,53.7,146.32,29.63,117.56-7.22,250.07-56.89,329.23-112.62,179.47-372.53,311.36-772.53,392-37.29,7.52-75.73,9.42-116.42,11.43-35.85,1.77-72.91,3.6-109.24,9.61l-70.65,1.51-171.69,4.52H1297.3c-49.27-8-100-9.49-149-10.9-50.16-1.45-102-2.94-150.62-11.67l-9.75-1.75c-289.56-52-589-105.78-734.2-304.52-31.25-42.77-58.24-93.81-82.5-156.05-42.37-108.71-39.17-235.85,9-358,8.28-21,15.41-39.31,21.69-55.47,47.84-123,47.84-123,147.2-240.56l.31-.37q17.49-20.68,39.6-47c20.91-12.65,51.93-40.48,87.83-72.7C539.06,1627.55,616.21,1558.31,665.13,1549.06Z"/>
</svg>
