<svg xmlns="http://www.w3.org/2000/svg" viewBox="0 0 2994.91 3000">
  <title>156Icon_neon 1</title>
  <g>
    <path d="M193,2157.37c26.92,26.65,54.75,54.21,77.79,84.93l.11.16,220,215.46.16.15c22.39,18.32,42.69,39.61,64.19,62.14,42.35,44.42,86.15,90.35,147,111.72,32.19,11.31,74.08,18.06,112,18.06,40.4,0,74-7.63,97-22.08l.51-.4,66.06-65.08.13-.13c304.51-300,814.17-802,1080.56-1078.39,57.39-59.54,97.93-113.36,123.93-164.55,24.51-48.25,35.49-93,33.56-136.88-2.53-57.58-27.21-112.63-77.67-173.25-45.19-54.3-106.9-108-172.25-164.84-28.25-24.58-57.45-50-86.67-76.57-17.27-16.84-34.12-34.23-50.42-51-41.74-43.07-81.18-83.75-129.08-118.5-54.39-39.45-109.9-64-174.78-77.32l-.38-.06-.32,0c-40.74,2.28-78.48,15-115.4,38.83-32.8,21.2-62,49.1-90.25,76.1-14.15,13.52-28.78,27.5-43.75,40.53l-.09.08C1072.1,870,857.46,1079.68,649.84,1282.54c-88.67,86.63-180.36,176.21-268,261.4-9.32,9.08-20.6,19.83-33.65,32.28l-.17.16c-91.19,86.94-260.94,248.77-278.8,339.22l0,.28c-4.15,50.13,6.47,93.74,33.39,137.25C126.28,2091.35,158.67,2123.42,193,2157.37ZM814.33,2644h0c-36.76,0-78.94-6.8-110.08-17.74-59.5-20.9-102.79-66.29-144.67-110.2-20.64-21.65-42-44-64.6-62.54l-219.59-215c-23.23-30.95-51.17-58.62-78.2-85.38-67.24-66.58-130.76-129.47-122-236.54,17.62-88.55,186.35-249.41,277-335.85l.18-.16c13.06-12.46,24.35-23.22,33.68-32.32,87.26-84.87,178.83-174.34,267.39-260.85l.71-.7c207.52-202.75,422.1-412.4,624.93-605.84,15-13.1,29.71-27.11,43.91-40.68,58.21-55.62,113.19-108.16,201.44-113.24,140.22,28.87,218,109.08,300.3,194,16.34,16.85,33.23,34.28,50.61,51.23,29.37,26.72,58.59,52.14,86.85,76.72,130.1,113.19,242.46,210.94,247.86,333.83,3.83,87.11-47.13,184.26-155.81,297-266.4,276.4-776.06,778.44-1080.58,1078.4l-4.87,4.8-61,60.05C885.73,2636.75,853.41,2644,814.33,2644Z"/>
    <path d="M2235.51,1495c9-26.87,18.23-63.57,14.63-78.57-1-4.12-3-6.64-5.85-7.5-3.38-1-7.23.47-12,4.6l-.05,0-3.61,3.45h0c-15.92,15.49-31.22,34.41-47.39,54.41-23.31,28.84-47.42,58.65-75.2,80l-.24.21c-138,137.23-279.6,284.13-416.58,426.2C1441.14,2235,1184.64,2501,940.08,2719.84c-70.29,62.89-153.84,64.88-255.44,6.09-89.48-51.78-181.67-144.1-263.07-225.6-19.95-20-38.8-38.85-57.49-57.06C294.82,2375.75,92.22,2162.4,83.6,2153.32l-15-15.81,10.17,19.27c40.28,76.32,92.27,150.16,158.94,225.75,57.44,65.12,115.72,120.3,167.14,169,39,36.91,72.67,68.8,98,97.52,58,65.61,102.88,114.58,153,147.24,52.86,34.46,110.41,49.82,186.59,49.82h1.84c34.36-.11,81.26-17.85,96.11-29.75,82.07-65.79,82.6-66.36,110.4-96.32,26.36-28.42,75.43-81.32,238.72-238.5,38.7-37.25,153.81-153.92,287.09-289l.16-.16c221.06-224.06,496.17-502.92,619.42-619.62C2208.36,1561.25,2223,1532.17,2235.51,1495ZM359.9,2447.56c18.69,18.22,37.53,37.09,57.48,57.07C499,2586.34,591.48,2679,681.64,2731.12c104.13,60.26,190,58,262.44-6.81,244.72-219,501.3-485.09,749.45-742.46l.07-.08c136.89-142,278.44-288.79,416.25-425.86,28.25-21.71,52.54-51.76,76-80.83,16.65-20.59,32.37-40,48.66-55.57,5.53-5.27,7.67-5,8-4.87s1.21,1,1.71,3.14c2.64,11-3.37,42-14.61,75.45-9.43,28-24.26,62.53-37.58,75.15-123.32,116.76-398.48,395.66-619.57,619.76l-.15.15c-133.26,135.07-248.35,251.72-287,288.92-163.39,157.28-212.55,210.26-239,238.74-27.5,29.64-28,30.21-109.76,95.72-12.42,10-56.93,28.32-92.37,28.43h-1.88c-155.79,0-218.65-63.31-335-195-25.56-28.93-59.32-60.9-98.41-97.91-95-90-224-212.12-314.07-373.23C144.28,2225.81,300.87,2390,359.9,2447.56Z"/>
    <path d="M2851.07,926.59a316.09,316.09,0,1,0,92.58,223.51A314,314,0,0,0,2851.07,926.59Zm-223.51,533.6c-171,0-310.1-139.1-310.1-310.09S2456.57,840,2627.56,840s310.09,139.11,310.09,310.1S2798.54,1460.19,2627.56,1460.19Z"/>
    <path d="M2441.2,1483.62l-1.68-.62c-21.42-7.9-50.91-31.74-66.59-45.25-18.28-15.75-32.26-29.87-36.61-35.64a6.77,6.77,0,0,0-.67-2.36,3.61,3.61,0,0,0-3.11-2h-.71l-.34-.43v.43H2331l-.92,1.19a3.52,3.52,0,0,0-.53,3.23,7.87,7.87,0,0,0,.88,1.84c.5,17.91-24.85,127-71.72,201.07-40.55,64.1-184.93,186.23-186.38,187.45l-3.9,3.29,4.77,1.81c29.2,11.1,54,15.23,91.39,15.23a280.72,280.72,0,0,0,280.71-280.71c0-19-3.73-45.64-3.89-46.78Zm-276.57,323.26c-34.63,0-58-3.57-84.48-13.07,25.26-21.6,146.42-126.62,183.67-185.5,28.63-45.26,47.65-101,56.44-130.15s14.18-54.08,15.71-67.28c17.3,19.12,67.76,64.36,99.78,77.1.83,6.22,3.59,28.09,3.59,44.19C2439.34,1683.64,2316.1,1806.88,2164.63,1806.88Z"/>
    <path d="M2041.06,803.53l-6.25,1L2092,856.07l94.06,90.56,79.22,97.6,2.85,3.5,54.09-101.33-.76-1.41c-48.21-90-139.82-143.68-245-143.68C2062,801.31,2055.44,801.31,2041.06,803.53Zm35.39,3.78c102.41,0,191.65,52,239,139.11l-48.32,90.52-76.51-94.26-.09-.12-94.4-90.88-47.83-43.11C2058.19,807.31,2064.55,807.31,2076.45,807.31Z"/>
    <path d="M2035.56,542.27c109.26,0,198.15-88.89,198.15-198.15S2144.82,146,2035.56,146s-198.15,88.89-198.15,198.15S1926.3,542.27,2035.56,542.27Zm0-390.3c106,0,192.15,86.2,192.15,192.15s-86.2,192.15-192.15,192.15-192.15-86.2-192.15-192.15S1929.61,152,2035.56,152Z"/>
  </g>
</svg>
