<svg xmlns="http://www.w3.org/2000/svg" viewBox="0 0 2994.91 3000">
  <title>172Icon_neon 1</title>
  <g>
    <path d="M636,548.79l-2.13-2.66-70.54,72.73-.06.07-103.48,124-.11.14C374,862.12,309.16,999.34,255.47,1174.85c-26.06,85.18-40.92,196.3-41.86,312.9-.94,117.6,12.46,229.57,37.75,315.29,5.06,17.14,9.84,34.33,14.48,51,13.2,47.49,25.67,92.34,44,135.58,105.92,249.92,274.48,452.5,487.46,585.87,71.69,44.9,141.36,81.3,213,111.3A1313.42,1313.42,0,0,0,1259,2763.25c72,14.63,148.66,22.05,228,22.05a1332.24,1332.24,0,0,0,207.24-16.47c131.91-20.85,261.64-61.46,365.3-114.35,4.45-2.27,9.17-4.67,14.11-7.17,50.58-25.65,119.85-60.78,156.13-92.81l2.13-1.88-1.77-2.23C2186.5,2495.52,1157.13,1199,636,548.79ZM2070.87,2642c-4.95,2.5-9.67,4.9-14.12,7.17-159.94,81.61-373.22,130.32-570.54,130.32h0c-77.91,0-154-7.43-226-22.08-162.87-33.12-308.94-92.52-459.7-186.93-211.93-132.71-379.68-334.34-485.11-583.12-18.17-42.87-30.59-87.55-43.74-134.85-4.63-16.66-9.42-33.89-14.5-51.13-51.49-174.52-49.7-448.93,4.09-624.73,53.48-174.84,118.06-311.46,203.22-430L567.68,622.94l65.71-67.75C1148,1197.29,2177.91,2494.34,2223.58,2551.87,2187.32,2582.9,2120.14,2617,2070.87,2642Z"/>
    <path d="M2773.83,1356.44c-1.73-29.44-3.37-57.25-9.48-85.13-16.43-75.07-37.44-162.53-68.72-242-77.74-197.55-197.16-365.78-355-500-158-134.41-349.61-230.6-569.51-285.9C1694.29,224,1600,214.63,1482.75,214.61l-98.52,6.16-.25,0c-23.44,3.93-46.79,6.83-69.37,9.65-40.8,5.08-79.34,9.89-116.24,20.1-89.12,24.66-170.89,53.3-243,85.11C892,363.59,820.43,405.72,759.07,451.25l-2.56,1.9,2,2.44c121,144,609.46,755,1081.83,1346l1.82,2.28c188.17,235.4,365.9,457.74,516.78,646l1.84,2.29,2.33-1.79c46.76-35.9,115.45-117.52,160.07-176.51,61.8-81.69,111.08-166.18,150.65-258.29,41.16-95.79,71.76-199.55,93.57-317.23,9.12-49.25,28.69-174,13.32-268.2C2776.69,1405.15,2775.24,1380.4,2773.83,1356.44Zm-12.28,340.79c-42.13,227.37-119.38,409.44-243.1,573-43.6,57.64-110.39,137.14-156.63,173.57-151.62-189.22-329-411.11-516.74-646C1375.32,1210.12,889.64,602.52,765.2,454.17c60.44-44.54,130.47-85.66,192.55-113,71.89-31.7,153.38-60.23,242.22-84.82,36.48-10.1,74.81-14.87,115.39-19.93,22.6-2.81,46-5.73,69.43-9.66l98-6.13c116.65,0,210.49,9.37,286.85,28.57,438.37,110.24,765.22,388.06,920.36,782.29,31.12,79.11,52.06,166.29,68.44,241.12,6,27.44,7.63,55,9.35,84.24,1.42,24.09,2.88,49,7,74.27C2790.06,1524.39,2770.62,1648.3,2761.55,1697.23Z"/>
    <path d="M2948.14,1387.2l-8.85-96.26,0-.24c-23.16-122.9-46.42-224.67-84.68-321.87-72-182.88-175.31-344-307.11-479C2417.29,356.6,2259.86,249.4,2079.55,171.23c-94-40.72-182.15-70.36-269.62-90.59-106.89-24.73-213.58-36-326.27-34.45l-48.18,2L1302.64,60l-.23,0C1198,79,1104.19,97.44,1014,129.89,805.09,205,624,318.37,475.73,466.78c-145,145.17-259.8,325-341.15,534.49-30.58,78.78-48,162.59-66.49,251.32l-3.46,16.61-9.82,90.41c-9.72,56.2-16.37,139.82-5.91,206.14l10.81,132.62,0,.25q2.23,11.85,4.4,23.53C76.06,1786,87.31,1846.34,105,1903.35c66,212.39,166.18,397.92,297.78,551.43C534,2607.78,697.19,2730,887.94,2818.07c86.42,39.89,188.17,74.34,311.08,105.33,27.46,6.92,54.91,9.78,84,12.81,20,2.09,40.75,4.25,61.69,7.87,38.94,6.73,84.6,9.87,143.67,9.87h47.75l166.14-13.76,1.5-.27c89.81-16.43,174.65-31.95,254.71-59.82C2165,2808.16,2345.18,2701.7,2494,2563.67c148.25-137.56,265.61-306.73,348.81-502.81,32.83-77.37,59.25-165.11,85.67-284.51,4.83-21.84,6.85-43.11,9-65.66,1.7-17.93,3.46-36.47,6.77-55.34C2958.7,1572.59,2960.33,1462.35,2948.14,1387.2Zm-9.87,267.11c-3.36,19.12-5.12,37.78-6.83,55.83-2.12,22.34-4.12,43.43-8.87,64.92-26.34,119-52.65,206.44-85.33,283.45-165.87,390.9-470.43,673-880.75,815.91-79.63,27.72-164.24,43.2-253.83,59.59l-1.08.2L1535.76,2948h-47.4c-58.72,0-104-3.11-142.65-9.78-21.13-3.66-41.94-5.83-62.09-7.93-28.85-3-56.09-5.84-83.13-12.66-122.55-30.89-224-65.23-310-105-384.71-177.6-647-484.12-779.7-911C93.15,1844.89,81.92,1784.74,70,1721.05l-.2-1.08q-2.07-11.09-4.17-22.28l-10.8-132.55,0-.19c-10.37-65.67-3.75-148.66,5.9-204.43l9.83-90.39L74,1253.8c18.41-88.48,35.8-172,66.21-250.36C305.77,577,600.44,285,1016,135.54c89.74-32.28,183.22-50.63,287.32-69.62L1435.8,54.15l48-2c265.82-3.66,465.94,69.33,593.32,124.55C2439.37,333.75,2706.27,608.41,2849,971c38.07,96.71,61.25,198.12,84.33,320.62q4.43,48.07,8.84,96.22l0,.17C2954.31,1462.62,2952.7,1572.12,2938.27,1654.31Z"/>
  </g>
</svg>
