<svg xmlns="http://www.w3.org/2000/svg" viewBox="0 0 2994.91 3000">
  <title>26Icon_neon 1</title>
  <path d="M2842.81,1097.67l-.45-1.15-590.47-264.1L2210,601.07l-.23-1.25-1.06-.71c-.57-.38-57.27-38.21-82.81-58.29L2103.69,527c-30.43-18.88-61.9-38.41-92.84-57.78l-.72-.33c-46-14-95-21.52-142.38-28.81-30.32-4.67-61.67-9.5-91.9-16l-.23,0c-30.19-3.48-60.94-10-90.68-16.35-58.65-12.48-119.28-25.39-179.62-15.86q-64.62,7.37-129.24,14.78l-1.15.14c-60.46,6.93-123,14.09-184.42,21.06l-15.64,1.48c-73.65,6.91-91.15,8.55-162.13,55.64-65.88,44.36-207.17,129-208.58,129.89l-1,.59-78.3,255.59-258.22,54.3-.41.08-295,176.5-.62.37L69.16,1302.41l-.62,1.21L168.71,1554l.42,1.06,250.28,125.14L237.55,1525.89l134-258.52,321.19-96.49c-2,21.63-10.42,111.11-13.65,141.11l0,.32,0,.26c4.83,48.28,18.88,85.21,33.75,124.31,13.12,34.48,26.68,70.12,34,115.21-8.11,75.35-12.37,151.41-16.5,225-4.1,73.27-8.35,149-16.4,224l-.14,1.31.88,1c54.09,61.19,105.21,123.61,154.69,184,50.74,61.95,103.2,126,158.92,188.76l.25.25c18.22,15.4,39.24,27.33,59.62,38.89,12.35,7,25.12,14.26,37.06,22.18l51.54,31c72.56,43.64,147.6,88.76,222.16,133.72l.38.18c20.16,7.94,42.44,7.3,64,6.67,12.31-.35,25-.72,37.08.57l.19,0h.18c13.86-.58,28.27.11,42.23.78,10.28.48,20.91,1,31.43,1a200.17,200.17,0,0,0,35.69-2.74l.25,0,.85-.39q32.79-21.08,65.56-42.2l.42-.27c59.36-38.23,120.73-77.77,181.45-116.43l.38-.3c80.12-76.17,237.57-282.78,313.24-382.08l.25-.33c18.47-24.23,31.81-41.74,38.32-49.87,1.11-1.39,2.27-2.84-6-68.22-4.39-34.74-10.92-83.12-19.41-143.77-14.72-105.27-31-216.37-34.39-239.64L2258.81,1348l.28-.56,9.53-175,347.64,75.66L2682,1560.37l-154.08,173.9L2836,1588.15l1.13-.53L2931,1325.53l.37-1Zm-290.93,618.59,135.6-153,1-1.14L2621.73,1245l-.4-1.9-358.31-78-9.85,180.77-108,217.43-.41.84.13.92c25.37,172.84,62.25,433.22,60.82,448.4-6.72,8.42-20,25.87-38.29,49.86-75.51,99.09-232.59,305.22-312.35,381.14-60.49,38.51-121.79,78-181.08,116.19l-1.1.7q-32.23,20.76-64.48,41.51c-21,3.65-43.47,2.59-65.23,1.55-10.31-.49-21-1-31.45-1-3.92,0-7.53.07-11,.22-12.31-1.32-25.18-.94-37.63-.58-20.87.6-42.44,1.23-61.34-6.15-73.13-44.1-147.55-88.85-219.51-132.13l-53.79-32.34c-12.09-8-25-15.32-37.39-22.38-20-11.38-40.77-23.14-58.48-38.06-55.53-62.58-107.91-126.53-158.62-188.45-49.22-60.08-100.1-122.21-153.93-183.15,8-74.73,12.2-150.11,16.29-223.07,4.12-73.6,8.39-149.71,16.51-225.07l0-.41-.05-.34c-7.39-45.88-21.1-81.92-34.36-116.79-14.7-38.63-28.58-75.13-33.36-122.46,3.71-34.49,13.94-144.17,14-145.27l.41-4.43L368.58,1262l-1.22.37L231.12,1525.25l-1.1,2.12L377.6,1652.63,173.86,1550.75,75.12,1303.91l100-197.34L468.38,931.13,729.57,876.2l78.66-256.77c12.83-7.69,144.12-86.54,207.84-129.45,69.71-46.25,85.15-47.7,159.37-54.66l.23,0c4.88-.46,10-.94,15.47-1.47,62-7,124.61-14.2,185.11-21.14q64.9-7.44,129.82-14.85l.11,0c59.27-9.37,119.38,3.43,177.51,15.8,29.84,6.35,60.69,12.91,91.07,16.42,30.32,6.48,61.72,11.32,92.08,16,47,7.24,95.65,14.73,141.16,28.51,31.06,19.43,62.31,38.83,92.52,57.58l21.79,13.52c23.94,18.81,74.4,52.68,82,57.74l42,231.66.28,1.56L2837.66,1101,2925,1324.58l-92.64,258.68Z"/>
</svg>
