<svg xmlns="http://www.w3.org/2000/svg" viewBox="0 0 2994.91 3000">
  <title>28Icon_neon 1</title>
  <g>
    <path d="M2394.78,693.84l-.08-.28c-4.75-14.71-8.8-33.51-13.09-53.44-13.36-62-30-139.18-82.06-157.39l-.11,0c-33.65-10.08-68.41-6-102-2.09-18.8,2.2-38.26,4.47-57.2,4.2H2140c-34.24,2.41-67.7,11.76-100.06,20.8-17.77,5-36.14,10.1-54.39,14l-.17,0c-60.28,17.26-112.74,6.73-155.93-31.29-34.08-30-63.27-77.13-89.24-144.1-5.92-15-13-29.75-19.82-44-11.83-24.72-24.06-50.29-30.49-77.49-2.12-7.79-3.94-15.9-5.7-23.73-4.75-21.19-9.67-43.11-21.24-62.43-17.36-27.05-53.5-39.74-110.56-38.79-47.82.8-101.74,11.11-145.06,19.38-20.36,3.89-37.95,7.25-51.92,9.09l-.12,0c-111,20.1-206.33,51.79-291.38,96.88-91.27,48.4-169.43,111.41-239,192.63-94.66,98-170.86,206.58-226.49,322.77-58.86,123-92.88,251-101.12,380.69-13.48,118.9-20.52,223.71-21.52,320.43-1.19,114.92,5.94,219.68,21.8,320.26,21.44,196,53.86,347.59,102,477.06,29.86,80.27,66.47,152.79,108.8,215.55C755.33,2522,811,2582.2,873.88,2631.46c63.72,50,190,122.83,307.08,177.08,75.58,35,215.7,93.75,305.09,93.75a168.8,168.8,0,0,0,22.07-1.36c208.63-15.43,408.64-103.9,578.45-255.86,79.06-70.75,149.53-153.44,209.46-245.75a1279,1279,0,0,0,140.45-291.05c61.6-158,63.55-329.44,65.45-495.24l.1-9.36C2509.5,1299,2455.56,999.43,2394.78,693.84ZM829.47,419.78c132.76-155.16,300.15-246.54,526.82-287.58,14.11-1.86,31.75-5.23,52.19-9.14,44.89-8.57,100.74-19.24,149.64-19.24,51.61,0,84.25,11.77,99.75,35.92,11,18.42,15.84,39.85,20.49,60.58,1.77,7.89,3.6,16.05,5.74,23.9,6.55,27.72,18.92,53.59,30.89,78.6,6.79,14.19,13.81,28.86,19.64,43.64,26.32,67.87,56,115.77,90.86,146.42,21.34,18.78,45,31.25,70.28,37,27.84,6.38,58.51,4.88,91.16-4.46,18.38-3.93,36.81-9.09,54.63-14.07,32-8.95,65.16-18.21,98.72-20.58,19.21.27,38.81-2,57.73-4.23h.11c33-3.86,67.11-7.84,99.53,1.85,48.83,17.13,65,92.44,78.09,153,4.31,20,8.38,38.89,13.2,53.82,60.69,305.17,114.55,604.3,107.09,908.34l-.1,9.41c-1.89,165.29-3.84,336.2-65.07,493.21l0,.12C2308,2474,1974.94,2860.44,1507.57,2895l-.14,0a162,162,0,0,1-21.39,1.32h0c-88.24,0-227.44-58.39-302.55-93.19C1066.77,2749,941,2676.5,877.58,2626.74c-270.54-211.89-342-574.93-374-867.53v-.12c-29.27-185.56-29.34-382.71-.24-639.26v-.12C519.23,869.57,635,621,829.37,419.89Z"/>
    <path d="M1888.57,1601.79l40.78-27.64,14.83-32.1-23.76-49.31-.54-1.14-43.51-14.71L1837.09,1498l-13.08,44.8-.38,1.29,26.1,42.06Zm27-105.31,22,45.62-12.94,28L1887.85,1595l-34-13.74-23.66-38.11,12-41.12,34.77-18.65Z"/>
    <path d="M963.74,1618.1,996,1598.42l1-.63,8.59-32.49-10.35-45.71-38.69-15-1.16-.45L911,1523.69l-1.39.62-10.16,46.61-.28,1.25,26.31,39.15Zm-34.68-12.25L905.6,1571l9.24-42.39,40.68-18L990.08,1524l9.32,41.17-7.61,28.74-29.24,17.87Z"/>
  </g>
</svg>
