<svg xmlns="http://www.w3.org/2000/svg" viewBox="0 0 2994.91 3000">
  <title>24Icon_neon 1</title>
  <path d="M2736.37,508.37c-16.06-213.54-34.22-386.32-43.17-410.79-2-5.66-8-22.89-23.1-21-.8.08-3.38.8-23.07,6.37-303.83,86.09-858.49,230.49-1159.45,230.49-401.41,0-961.19-141.15-1201.15-215.81-8.43-3.09-12.44-1.57-16.5,6.22-4.31,8.28-7.78,92.13-13,229.32-3.31,87.17-6.74,177.31-10.32,219.22-17.33,241.27-18.72,500.47-4.26,792.42,11.61,180.39,24.1,330.27,69.63,479.88,54.62,179.14,128.92,356.33,220.83,526.65a3066,3066,0,0,0,317.47,475.47l.15.17c30,30.8,68.65,54.88,114.88,71.56,39.2,14.14,84.16,23.1,133.56,26.63,91,9,183.93,8.4,273.76,7.8h.29c36.36-.24,73.92-.5,110.88-.1l0,.63,3-.08c33-.84,66.54-1.41,99-2,86.22-1.47,175.38-3,262.9-9.76,27.5-2.1,52.47-7.46,76.33-16.37l.13-.05q7.33-3.2,15-6.48c56.14-24.2,119.77-51.63,157.63-97.14,112.52-146.68,252.55-329.22,365.84-517.51,123-204.41,202-394.51,241.51-581.25,35.7-198.9,54-411,56-648.27C2763.62,951.93,2754.36,747.71,2736.37,508.37Zm-1246.66,2419V2927l-2.91,0c-13.85-.16-28.61-.24-45.1-.24-23.1,0-46.32.16-68.77.31h-.32c-89.67.61-182.39,1.23-273.21-7.78-107.47-7.68-189.75-40.07-244.54-96.28-243.29-299.67-429-645.47-537.12-1000-45.34-149-57.8-298.53-69.38-478.48-14.45-291.67-13-550.62,4.25-791.61,3.59-42,7-132.22,10.33-219.46,3.71-97.61,8.32-219.09,12.33-226.78,2.59-5,3.63-5.37,9.17-3.33l.12,0C385.5,134.79,575.62,186.8,779.18,230c125.77,26.7,245.32,47.79,355.33,62.67,131.48,17.79,250.27,26.8,353.07,26.8,146.39,0,368.79-34.08,661-101.31,230.27-53,433.32-110.49,500.08-129.41,11.83-3.35,21.17-6,22.11-6.18,7.15-.93,12.32,4.31,16.76,17,18.42,50.37,73.2,723.36,67.57,955-2,237-20.25,448.73-55.87,647.21-89.48,422.64-364,780.5-606.14,1096.17-36.88,44.31-99.81,71.44-155.33,95.37l-.63.27q-7.28,3.15-14.28,6.18c-23.3,8.69-47.7,13.92-74.62,16-87.33,6.76-176.38,8.27-262.53,9.74C1554.25,2926,1521.74,2926.59,1489.71,2927.4Z"/>
</svg>
