<svg xmlns="http://www.w3.org/2000/svg" viewBox="0 0 2994.91 3000">
  <title>22Icon_neon 1</title>
  <g>
    <circle cx="1091.05" cy="1922.63" r="6.07"/>
    <circle cx="1971.9" cy="1950.15" r="6.07"/>
    <path d="M2918.73,1839.38c-7.41-68.68-35.94-134.38-80.33-185-47.61-54.28-111.55-89.83-185.14-103,46.87-50.4,77.21-112.33,87.84-179.42,10.16-64.16,1.44-131.25-24.57-188.9-23.34-51.72-59.59-94.52-104.84-123.77-48.27-31.2-104.28-46.16-166.52-44.5a365.23,365.23,0,0,0,43.18-147.53c3.84-52.89-4.08-105.17-22.89-151.17-15.39-37.61-37.43-70-65.53-96.29-29.86-27.94-65.74-48.11-106.64-60a258.46,258.46,0,0,0-97.93-45.3,275.11,275.11,0,0,0-104.88-2.89c-41.88,6.73-83.81,22.88-121.26,46.72a348.16,348.16,0,0,0-92.85,87c-13.69-117.9-60.3-218.29-135-290.65-69-66.85-159.14-106.33-253.76-111.17a377.94,377.94,0,0,0-253.71,80.58C1155.54,386,1101.1,478.9,1076.26,593c-26.91-28.64-55.92-51.8-86.3-68.91-30-16.89-61.42-27.92-93.33-32.77-60-9.12-119.89,3.51-173.18,36.55-59.39,36.81-104.7,95.63-127.59,165.62-24.39,74.54-21.77,155.77,7.52,235.24C540.9,906.61,476.56,902.93,417,918.09a294.81,294.81,0,0,0-147.69,89.68,289.82,289.82,0,0,0-71.21,151.79c-8.58,59.28,1.86,120.54,30.2,177.31C171.5,1382.93,132.1,1449,117.22,1523c-14.81,73.71-4.25,149.6,29.73,213.9a313.76,313.76,0,0,0-79.1,148.59,321,321,0,0,0,6.59,161.7c15.56,51.22,43.63,97.43,81.18,133.64,39.74,38.32,87.92,64.18,143.22,76.89a352.08,352.08,0,0,0-22.63,135.37c1.49,46.29,12.45,92,31.69,132.2A288.34,288.34,0,0,0,375.24,2616a280.19,280.19,0,0,0,184.3,70.91,256.82,256.82,0,0,0,39.58-3.07,253.28,253.28,0,0,0,106.08-42.67c34.71-24.08,64.12-57.14,85-95.59,22-40.36,34.39-85.22,37-133.34l.19-3.46-3.45.32c-90.29,8.11-165.08-27.25-210.63-99.58-56.67-90-57.76-222.65-2.6-315.43C656,1918,731.72,1879.33,824,1885.26l1.42.09,1-1c32.71-35,55.46-77.83,67.62-127.42,10.87-44.3,12.77-93.61,5.51-142.77,58.83-8.31,118.42-37.73,168.1-83,48.83-44.53,84.77-101.09,101.38-159.47a217.91,217.91,0,0,0,25.16,1.47c55.71,0,112.76-21.78,165-63,41.92-33.05,79.16-77.23,107.67-127.76,24.7-43.76,41.39-89.67,48.71-133.69,9.74,43.61,30.79,88.51,61.41,130.75,34.12,47.06,77.67,87.73,126,117.61,53.48,33.1,109.31,50.59,161.44,50.59a218.23,218.23,0,0,0,63.73-9.29c13.31,56.79,44.29,113.19,87.42,159.1,44.19,47,98.85,80.24,154.18,93.73-14.5,47.72-19.12,100.45-13,148.78,6.82,54,26.48,101,56.86,135.82l1,1.11,1.48-.09c153.94-9.75,240.58,113,255.94,231.26,15.24,117.27-36.1,256.86-184.81,286.24l-2.48.49.06,2.53c1.08,40.92,9.55,78.85,25.16,112.73a238.82,238.82,0,0,0,63.69,83.79c46.71,39.18,107.34,59.89,175.34,59.89a355.31,355.31,0,0,0,52.22-4c100-13.52,173-67.1,205.64-150.89,40.6-104.37,11.86-238.47-73.17-342.54,65.71-26.89,117.45-72.15,149.75-131.05C2913.65,1970,2925.89,1905.72,2918.73,1839.38ZM2727.55,2152.3l-3.86,1.52,2.66,3.19c85.7,102.87,115.06,236.21,74.81,339.7-31.76,81.66-103.1,133.9-200.9,147.12-86.36,12.91-165.51-6.48-222.85-54.59-53.26-44.68-84-111.93-86.63-189.56,67.54-14,120.75-51.79,154-109.38,30-52,41.73-116.94,33.14-183-8.65-66.55-37-126.81-79.76-169.67-47.8-47.88-110.36-71-181-66.89-65.21-75.92-67.5-195.6-40.74-280.82l1-3.09-3.16-.73c-112.85-26-214.19-132.06-241-252.22l-.72-3.22-3.13,1c-67.44,21.77-146.74,7.67-223.29-39.71-97.88-60.57-173.44-166-188-262.43l-3.47-22.94-2.48,23.07c-10.68,99.5-73.63,210.33-156.64,275.78-60.07,47.37-125.16,68.09-188.26,59.94l-2.59-.33-.69,2.52c-33.54,122-148.84,225.64-268.19,241l-3.06.39.48,3c16.17,104.2-9.4,201.49-70.17,267.16-94-5.58-171.22,34.09-217.42,111.8-27.28,45.88-42,103.34-41.59,161.8s16.19,115.31,44.27,159.9c22.18,35.21,51,62,85.73,79.71,37.16,18.92,79.88,26.63,127,22.93-5.84,91.9-49.19,172.28-119.23,220.88-65.2,45.25-144.2,56.63-222.46,32.05-73.11-23-132.07-74.65-166-145.56-39.11-81.7-41.89-178.67-7.63-266.05l1.29-3.28-3.44-.75c-107.61-23.55-191.1-101-223.35-207.17-33.3-109.64-6.16-224,72.6-306l1.52-1.58-1-1.92c-71.11-132.26-36.44-302.48,80.65-396l1.91-1.52-1.11-2.19c-56.12-110.4-41.16-234.76,39-324.55,55.77-62.43,133-96.81,217.39-96.81,38.83,0,78,7.27,116.3,21.59l6.26,2.34-2.41-6.23C541,750.69,621.8,597.89,726.61,532.93c88.4-54.8,226.56-65.62,349.17,68.33l4,4.33,1.19-5.74c56.34-271,254.12-358.07,406.36-350.29,171.27,8.76,356.42,137.16,384,404.27l.83,8,4.61-6.61c51.55-73.84,129.82-124,214.73-137.66,71.91-11.54,142.48,5.29,198.7,47.4l.19.14.78.34c77.66,22.33,137.61,76.63,168.8,152.91,37.8,92.41,29.16,206.65-22.54,298.14l-2.65,4.7,5.39-.23c120.9-5,222.2,56.47,271,164.55,54.52,120.87,28,267.87-66,365.79l-4,4.13,5.64.91c165.52,26.93,252.87,161.87,266,283.66C2927.8,1979.32,2855.1,2101.9,2727.55,2152.3Z"/>
    <path d="M1514.23,2347.56h2.11a235.52,235.52,0,0,0,90.38-18,238.11,238.11,0,0,0,77.15-51.31c45.36-45,70.3-105.72,70.21-170.91a235.26,235.26,0,0,0-70.32-168.26c-45-44.5-105-69.13-168.8-69.35h-.81a234.18,234.18,0,0,0-88.5,17.38,239.47,239.47,0,0,0-75.78,49.11c-46.55,44.58-72.75,105.48-73.78,171.51a241,241,0,0,0,67.2,167C1387.89,2321.12,1448.6,2347,1514.23,2347.56Zm-232.14-239.78c2-130.11,104-232,232-232h.83c128.39.44,233,104.34,233.14,231.62.08,63.58-24.22,122.76-68.43,166.65-43.25,42.92-102.81,67.54-163.4,67.54h-2C1384,2340.42,1282,2237.73,1282.09,2107.78Z"/>
    <path d="M1871.9,2411.17c-55.08,4.18-88,43.66-122.75,85.46-37.82,45.41-76.93,92.38-148.52,99.19-88.31,7.16-164.51,2.17-226.42-14.83-30.93-9.17-74.16-51.8-112.3-89.42-20.11-19.82-39.09-38.55-54.13-50.18-51.81-40-99.88-45-131.89-13.51-17.42,17.13-26.1,42-23.82,68.21,2.54,29.12,19.8,73.66,87.67,120.4,35.34,24.34,94.46,56.3,138,78.11,66.54,33.31,140.86,49.75,227.14,50.25,6,.16,11.94.25,17.75.25h0c70.24,0,131.14-11.67,191.66-36.71s116.76-61.57,182-103.92l.43-.28q10.7-6.93,21.75-14.09c26-16.79,45-37.48,55-59.84,9.28-20.71,10.72-42,4.14-61.49C1964.66,2429.9,1923.12,2407.28,1871.9,2411.17Zm43.42,173.89c-7.54,4.87-14.93,9.66-22.24,14.41-125,81.06-215.24,139.63-370.56,139.62-5.74,0-11.62-.08-17.54-.24-85.39-.5-158.84-16.73-224.54-49.62-43.37-21.71-102.21-53.52-137.3-77.69-65.94-45.41-82.67-88.13-85.09-116-2.13-24.44,5.91-47.55,22-63.41a63.28,63.28,0,0,1,45.8-18.73c23.48,0,50.53,11.31,78.22,32.71,14.75,11.4,33.61,30,53.59,49.7,38.64,38.11,82.43,81.3,114.86,90.92,62.65,17.2,139.55,22.26,228.59,15,74.1-7,114-55,152.61-101.33,34-40.79,66-79.32,118.6-83.31,48.38-3.67,87.51,17.34,99.7,53.54C1982.45,2501.54,1973,2547.79,1915.32,2585.06Z"/>
  </g>
</svg>
