<svg xmlns="http://www.w3.org/2000/svg" viewBox="0 0 2994.91 3000">
  <title>1666Icon_neon 1</title>
  <g>
    <path d="M2769.32,1007.11C2682.51,894,2562.5,801.17,2391.63,715,2138.42,587.36,1840.8,522.7,1506.58,522.7c-7.72,0-15.51,0-23.27.1L1307,532.45l-.24,0c-30.87,4.74-61.2,8.89-90.53,12.91-79.4,10.88-154.39,21.15-227.77,41.16C790.74,640.48,631.61,704.54,502,782.4c-72.75,43.71-137.89,93-193.64,146.5a912.52,912.52,0,0,0-151.3,189.4c-39.49,66-67.8,147.26-79.7,229-13.6,93.25-5.74,185,22.7,265.39,24.37,68.85,60,135.15,103.17,191.75,44.06,57.84,96.05,111.43,154.51,159.28,55.6,45.51,119,87.44,188.54,124.63,127,67.93,277.73,122.74,460.86,167.54,56.18,13.74,112.6,20.43,172.33,27.51,32.4,3.84,65.91,7.81,100,13.05l.12,0,144.77,7.71c33.34,4.93,102.71,2.24,131.65-1.92l52.73-1.93,166.49-15.44,105.88-18.25,77.66,34,5.39,2.36c30.78,13.48,61.67,27,88.48,38.73l23.09,9.48c90.43,37.19,175.85,72.32,282.35,97.18,20.77,4,38.31,8.77,55.27,13.38s34.69,9.44,55.61,13.46c3.78.8,8.38,2.08,13.26,3.44,11.13,3.09,23.75,6.6,34,6.6,8.31,0,14.18-2.4,17.44-7.14,9.76-14.17-9.81-48.92-32.41-84.35l-.09-.15c-2.33-3.65-4.17-6.53-5.39-8.59-29.55-49.62-58.05-116.76-78.88-165.84-4.69-13.06-9.4-25.95-13.55-37.33-4.34-11.89-9.26-25.36-14.12-38.93-1.82-6.16-4.28-13.28-6.67-20.17-2.08-6-4.22-12.17-5.92-17.68,9.08-4.82,19.75-10.29,30.09-15.59l.24-.13c11.32-5.8,23-11.8,32.7-17l102.89-63.74.11-.08c78.8-55.14,143.16-111.75,196.78-173,61.45-70.25,107.51-145,140.84-228.51,13-32.63,20.3-68.28,28-106l1.49-7.31C2942.35,1334.72,2895.09,1171,2769.32,1007.11ZM2383.49,2144.69l0,.14q7.26,20.22,14.17,39.05l.18.49q6.51,17.84,13.4,36.92l0,.13c20.9,49.22,49.51,116.64,79.28,166.65,1.3,2.18,3.19,5.14,5.58,8.89,12.38,19.42,41.37,64.88,32.53,77.73-6.16,8.93-28.56,2.71-44.92-1.85-5-1.38-9.66-2.68-13.67-3.53-20.75-4-38.27-8.76-55.23-13.37s-34.72-9.44-55.59-13.46c-105.92-24.72-191.12-59.76-281.32-96.86l-.79-.32q-11.1-4.56-22.24-9.13l-88.55-38.76-8.64-3.79L1892,2264.84c93.45-16.06,259.66-70.23,341.56-103.5,29.18-11.87,111.65-44.75,137.21-54.93,1.74,5.7,3.95,12.08,6.09,18.27l1-.33v0l0,0-.93.36C2379.27,2131.59,2381.71,2138.65,2383.49,2144.69Zm20.62-60.64c-8.59,4.41-17.46,9-25.45,13.15l-.13-.33-2.32.92c-1,.4-110.35,43.95-144.9,58-84.82,34.46-258.51,90.82-349.46,104.63h0l-107.29,18.5-166.12,15.41-52.82,1.93-.27,0c-28.57,4.12-97.38,6.81-130.27,1.92l-.11,0-144.75-7.7c-34-5.24-67.57-9.21-100-13.06-59.54-7.06-115.77-13.72-171.6-27.38C624.3,2156,369.92,2013.26,208,1800.78c-42.75-56.11-78.12-121.86-102.28-190.13-64.85-183.2-10.1-378.07,56.48-489.27,148.08-247.3,411.14-415.41,827.85-529,73-19.91,147.81-30.15,227-41,29.29-4,59.58-8.17,90.45-12.91l175.9-9.63c7.7-.07,15.48-.11,23.13-.11,333.22,0,630.09,64.5,882.36,191.69,170,85.73,289.39,178,375.63,290.38,124.66,162.48,171.54,324.53,139.34,481.68l-1.49,7.32c-7.65,37.47-14.88,72.87-27.71,105-62,155.28-168.54,282-335.4,398.8l-102.57,63.55c-9.57,5.12-21.19,11.08-32.42,16.84Z"/>
    <rect x="943.89" y="740.85" width="6" height="1081.4"/>
    <rect x="942.89" y="1964.81" width="11" height="10.83"/>
    <rect x="1478.66" y="740.86" width="6" height="1081.4"/>
    <rect x="1477.66" y="1964.82" width="11" height="10.83"/>
    <rect x="2015.95" y="737.26" width="6" height="1081.4"/>
    <rect x="2014.96" y="1961.22" width="11" height="10.83"/>
  </g>
</svg>
