<svg xmlns="http://www.w3.org/2000/svg" viewBox="0 0 2994.91 3000">
  <title>108Icon_neon 1</title>
  <g>
    <path d="M2142.36,1171c82.8-31.54,147.85-68.3,193.35-109.27,47.47-42.74,71.54-88.27,71.54-135.32s-24.07-92.58-71.54-135.33c-45.5-41-110.55-77.73-193.35-109.26-82.64-31.48-178.86-56.19-286-73.44-110.84-17.86-228.58-26.91-349.94-26.91s-239.1,9-350,26.91c-107.11,17.25-203.32,42-286,73.44-82.81,31.53-147.86,68.29-193.35,109.26-47.48,42.75-71.55,88.28-71.55,135.33s24.07,92.58,71.55,135.32c45.49,41,110.54,77.73,193.35,109.27,82.64,31.47,178.85,56.18,286,73.44,110.85,17.85,228.59,26.9,350,26.9s239.1-9,349.94-26.9C1963.5,1227.19,2059.72,1202.48,2142.36,1171Zm189.33-113.72c-44.94,40.46-109.36,76.84-191.47,108.11-169.24,64.46-394.32,99.95-633.77,99.95s-464.54-35.49-633.78-99.95c-82.1-31.27-146.52-67.65-191.47-108.11-46.15-41.57-69.56-85.6-69.56-130.87s23.41-89.31,69.56-130.87c44.95-40.47,109.37-76.84,191.47-108.12C1041.91,623,1267,587.48,1506.45,587.48S1971,623,2140.22,687.43c82.11,31.28,146.53,67.65,191.47,108.12,46.16,41.56,69.56,85.59,69.56,130.87S2377.85,1015.72,2331.69,1057.29Z"/>
    <path d="M2948,1453.49A704.94,704.94,0,0,0,2877.18,1257c-31.64-58.58-71.19-110.72-114.39-150.79-26.19-24.29-93.6-68.23-94.28-68.67l-3-2-1.38,3.35c-48.12,116.83-111.44,251-165.24,350.22-42.27,77.94-90.18,166.28-148.47,230.55-77.15,85.09-172.09,164.16-263.92,240.65-46.95,39.1-95.48,79.52-139.83,119.37-14.42,13-29.12,25.78-43.35,38.18-52.27,45.55-101.64,88.57-144.41,143.37-54.23,69.47-130.66,216.84-131.43,218.32l-5.71,11.05,10.12-7.23c.29-.21,29.25-20.89,51.73-35.48,2.87-1.2,36.29-12,58.32-19l.29-.11c2.71-1.26,14.06-.06,24.08,1,21,2.22,47.21,5,61.93-2.62,33.21-17.18,64.68-39.79,99-71.19l53.26-49.86v-1.32c-.28-27.75,3.24-87.59,6.71-125.4,3.83,17.7,9.26,43.61,14.2,67.2l.17.78c5.39,25.72,10.48,50,12.3,57.86l.08.3c1.44,3.9,2.66,7.51,3.83,11,6.15,18.25,10.59,31.43,34.55,52.44,34.32,30.07,99.43,35.16,145.13,11.33,32.74-17.07,66.52-50.58,92.68-91.94,27.8-43.94,44.63-92.65,47.4-137.15l.07-1-.57-.84c-10.53-15.61-21.54-50.56-28.74-91.22-6.44-36.41-8.48-69.74-5.86-93.76,4.48,14.14,11.68,35,18.23,54,3.44,10,6.7,19.4,9.27,27,8.63,29.26,29,81.39,68.24,101.77,30.83,15.81,62.67,21.68,94.64,17.43,52.79-7,91.89-30,119.53-70.12,26.82-39,38.75-89.06,46.14-128.35,6-21.77,11.16-117.83,2.55-146.34l-.34-.74a119.3,119.3,0,0,1-7.35-14.71,124.55,124.55,0,0,0-7.65-15.29c-16.33-32.41-34.89-121.64-36.52-171.29,2.6,6.38,5.53,13.74,8.73,21.75l.05.13c14.25,35.71,33.76,84.62,52.6,120.59a271,271,0,0,0,56.78,71c26.82,23.61,55.38,38,82.61,41.49,35.84,4.67,69-8.77,98.37-39.92,24.43-25.87,40.75-67.78,47.19-121.2C2961.38,1563,2958.69,1506.89,2948,1453.49Zm-137.23,313.16c-56-7.28-108.13-60.18-134.87-109.33-18.67-35.65-38.11-84.39-52.32-120-5.81-14.57-10.83-27.16-14.5-35.57l-5-11.54-.72,12.56c-2.54,44.67,18.64,152.44,37.14,189l.12.21a118,118,0,0,1,7.33,14.67,129.91,129.91,0,0,0,7.54,15.12c8.24,28.28,3.12,121.77-2.74,142.75l-.05.21c-17.27,91.86-48.68,178.91-160.59,193.78-30.74,4.08-61.39-1.57-91.1-16.81-37.27-19.35-56.88-69.8-65.28-98.25-2.64-7.83-6-17.68-9.35-27.27-9-26.15-19.26-55.79-21.81-66.18l-3.06-12.53-2.78,12.59c-5.49,24.86-4.12,64.6,3.74,109.05,7.21,40.68,18.32,76,29.1,92.66-6.48,97.17-75.94,191.41-136.8,223.15-43.7,22.78-105.79,18.06-138.41-10.53-22.74-19.93-27-32.48-32.82-49.86-1.17-3.48-2.38-7.07-3.8-10.93-1.84-8-7-32.43-12.38-58.3-7.2-34.37-15.37-73.31-18.25-85.33l-3.91-16.26-2,16.61c-3.83,32-8.84,109.37-8.65,143.15l-51.31,48c-34,31-65,53.33-97.73,70.26-13.13,6.78-39.38,4-58.55,2-14.51-1.53-23-2.32-27-.57-57.67,18.44-59,19.28-59.41,19.56-14.28,9.26-31.24,21-41.9,28.51,18.56-35.05,79.72-148.31,125-206.35,42.42-54.34,91.58-97.19,143.63-142.54,14.23-12.41,29-25.23,43.41-38.23,44.23-39.75,92.73-80.15,139.65-119.23,92-76.61,187.09-155.82,264.54-241.23,58.76-64.8,106.86-153.48,149.3-231.72,53.36-98.38,116.11-231.24,164.12-347.44,13.67,9,67.88,45.13,90.45,66.06,89.27,82.8,156.11,208.21,183.38,344.05,19.25,95.86,14.93,217.73-38.11,273.89C2876,1758.24,2844.59,1771.05,2810.74,1766.65Z"/>
    <path d="M1237.71,2161.26c-42.77-54.8-92.14-97.82-144.42-143.38-14.22-12.39-28.93-25.21-43.35-38.17-44.34-39.85-92.88-80.27-139.84-119.39-91.81-76.47-186.75-155.54-263.91-240.63-58.28-64.27-106.19-152.61-148.47-230.55-53.8-99.2-117.12-233.4-165.24-350.22l-1.37-3.35-3,2c-.68.44-68.09,44.38-94.28,68.67C190.6,1146.29,151,1198.43,119.41,1257a705,705,0,0,0-70.8,196.48c-10.72,53.4-13.4,109.51-7.56,158,6.45,53.42,22.77,95.33,47.19,121.2,25.63,27.14,54,40.83,84.65,40.83a104.94,104.94,0,0,0,13.73-.91c27.22-3.54,55.79-17.88,82.6-41.49a270.86,270.86,0,0,0,56.81-71c18.82-35.93,38.33-84.84,52.58-120.55l.05-.13c3.19-8,6.13-15.37,8.72-21.75-1.62,49.65-20.17,138.85-36.49,171.25a124,124,0,0,0-7.68,15.34,117.75,117.75,0,0,1-7.35,14.7l-.34.74c-8.61,28.51-3.46,124.54,2.55,146.29,7.39,39.32,19.33,89.42,46.15,128.4,27.64,40.17,66.74,63.1,119.53,70.12,32,4.25,63.8-1.62,94.65-17.44,39.24-20.37,59.59-72.49,68.19-101.65,2.61-7.71,5.86-17.13,9.33-27.17,6.53-18.92,13.73-39.76,18.21-53.9,2.62,24,.58,57.35-5.87,93.76-7.19,40.66-18.2,75.61-28.73,91.21l-.57.85.06,1c2.77,44.51,19.61,93.22,47.41,137.16,26.16,41.36,59.94,74.87,92.67,91.94,45.71,23.83,110.81,18.74,145.14-11.34,24-21,28.4-34.18,34.56-52.47,1.17-3.48,2.38-7.07,3.83-11l.09-.3c1.8-7.81,6.92-32.24,12.34-58.1l.12-.55c4.93-23.56,10.36-49.43,14.19-67.13,3.47,37.82,7,97.66,6.71,125.41v1.32l53.28,49.89c34.35,31.37,65.81,54,99,71.16,14.72,7.61,40.9,4.84,61.94,2.62,10-1.06,21.37-2.26,24.14-1l.28.11c22.69,7.25,55.45,17.85,58.26,19,22.49,14.59,51.45,35.27,51.74,35.48l10.12,7.23-5.72-11.05C1368.37,2378.1,1291.94,2230.73,1237.71,2161.26Zm78.39,181.52c-1.71-1.1-45.68-15.17-59.35-19.53a18.84,18.84,0,0,0-7.22-1c-5,0-11.88.73-19.85,1.57-19.17,2-45.43,4.8-58.55-2-32.73-16.93-63.78-39.25-97.7-70.24l-51.34-48.06c.18-33.77-4.83-111.13-8.66-143.15l-2-16.61-3.91,16.26c-2.88,12-11,50.95-18.25,85.32l0,.15c-5.41,25.81-10.52,50.21-12.34,58.1-1.44,3.95-2.65,7.54-3.82,11-5.85,17.36-10.08,29.91-32.82,49.84-32.62,28.59-94.71,33.31-138.4,10.53-60.87-31.74-130.32-126-136.8-223.15,10.78-16.63,21.89-52,29.09-92.66,7.87-44.45,9.23-84.19,3.75-109.05l-2.78-12.59-3.07,12.53c-2.54,10.39-12.77,40-21.82,66.24-3.29,9.53-6.69,19.38-9.37,27.32-8.37,28.35-28,78.79-65.23,98.13-29.73,15.25-60.38,20.9-91.11,16.82-111.91-14.87-143.33-101.94-160.61-193.82l-.05-.21c-5.86-21-11-114.43-2.73-142.71a128.1,128.1,0,0,0,7.56-15.15,118.3,118.3,0,0,1,7.34-14.69l.12-.21c18.49-36.59,39.65-144.33,37.12-189l-.72-12.56-5,11.53c-3.67,8.42-8.69,21-14.51,35.6-14.2,35.59-33.64,84.33-52.29,119.93-26.76,49.2-78.85,102.1-134.9,109.38-33.85,4.4-65.21-8.41-93.23-38.09-53-56.16-57.36-178-38.11-273.89,27.27-135.84,94.11-261.25,183.38-344.05,22.56-20.93,76.78-57,90.44-66.06,48,116.19,110.77,249,164.13,347.44,42.44,78.24,90.53,166.92,149.3,231.72C719.2,1709.13,814.3,1788.34,906.31,1865c46.9,39.06,95.39,79.46,139.62,119.21,14.47,13,29.19,25.82,43.42,38.23,52.05,45.35,101.21,88.2,143.63,142.54,45.3,58,106.47,171.3,125,206.35C1347.35,2363.81,1330.39,2352.05,1316.1,2342.78Z"/>
  </g>
</svg>
