<svg xmlns="http://www.w3.org/2000/svg" viewBox="0 0 2994.91 3000">
  <title>106Icon_neon 1</title>
  <path d="M2691.2,767.3A882,882,0,0,0,2592,565.45c-41.22-62.13-89.6-117.37-143.78-164.2a714,714,0,0,0-142.11-96.08,651.61,651.61,0,0,0-161.37-57.35c-118.72-25.07-241-15.85-363.33,27.38-64,19.08-138.4,66.95-177,93.79-45.33,31.48-94,71-98.46,83.73l-1.35,1.64-.11.13c-2,2.36-4.91,5.92-5.83,5.89-1.76-.09-6.85-7.69-8.53-10.19l-.25-.31c-33.29-35.59-158.51-128.56-191.74-142.39-82.79-46.27-206.12-74.14-322.59-72.93h0l-5,.07h0c-55.79,1-112.63,10.19-169,27.27-53.49,16.2-106.8,39.58-158.44,69.49-81.33,47.09-153,112.32-213.13,193.87C370.4,606.1,325.44,698.59,296.34,800.16,266.39,904.7,254.83,1013.64,262,1124c7.58,117,36.08,231.55,84.73,340.61,26.71,59.88,62.76,117.6,110.21,176.44,42.29,52.45,89.66,101.09,135.48,148.14,38.14,39.16,77.58,79.66,114.27,122.5l789.06,852.08.53.56,6.13,2,730.94-790.51c43.6-50.93,88.94-98.46,132.83-144.47,155.13-162.61,301.65-316.19,357-597.11A903.91,903.91,0,0,0,2691.2,767.3ZM1499.6,2759.07,711.14,1907.65c-36.72-42.88-76.22-83.44-114.45-122.7-91.18-93.62-185.45-190.42-244.51-322.83C143,993.15,341.88,512.74,646.09,336.58c107.37-62.17,217.39-94.47,327-96,116.21-1.62,239.7,26.06,322.27,72.24l.27.13c32.56,13.43,156.41,105.41,189.64,140.8,5.73,8.55,9,12.41,13,12.61s6.56-3,10.55-7.8l.21-.26,1.83-2.2.48-.56.15-.7c1.6-7,39-41.16,96.26-80.93,38.37-26.65,112.19-74.16,175.43-93l.12,0c233-82.33,473.89-36.8,661,124.91,226.25,195.56,333.37,520.29,272.91,827.28-55,279.2-200.92,432.17-355.49,594.19-43.9,46-89.29,93.6-132.91,144.57L1500.6,2759.41Z"/>
</svg>
