<svg xmlns="http://www.w3.org/2000/svg" viewBox="0 0 2994.91 3000">
  <title>98Icon_neon 1</title>
  <g>
    <path d="M1143.53,1497.28l2.13-2.11L960.87,1309.84,609.51,1659.31,261.27,1319.13l-2.12-2.07-183.5,184,344,346.05L82.33,2187.84l-2.1,2.11,182.66,183.19,2.13,2.13,340.72-341.56,351.74,350,2.13,2.11,182.67-183.19,2.11-2.12L791.8,1847.14ZM265,2366.77,88.69,2189.94l337.36-340.7,2.09-2.12-344-346L259.2,1325.5l348.23,340.17,2.11,2.06,351.31-349.41,176.32,176.83L785.44,1845l-2.14,2.12,352.62,353.35L959.59,2377.3l-351.74-350-2.13-2.11Z"/>
    <path d="M2038.64,1149.45l2.13-2.12-182.68-183.2L1856,962l-351.36,349.46L1156.38,971.3l-2.12-2.07-181.4,181.91-2.1,2.11,344,346L977.44,1840l-2.1,2.12L1158,2025.31l2.13,2.13,340.72-341.57,351.74,350,2.13,2.11,182.67-183.19,2.11-2.12-352.59-353.33Zm-878.51,869.49L983.8,1842.11l337.36-340.7,2.09-2.12-344-346,175.09-175.59,348.23,340.16,2.11,2.07L1856,970.49l176.32,176.83-351.73,349.85-2.14,2.12L2031,1852.64,1854.7,2029.47l-351.74-350-2.13-2.12Z"/>
    <path d="M2925.16,800.33l2.13-2.12L2744.61,615l-2.11-2.12L2391.14,962.35,2042.9,622.18l-2.12-2.08-183.5,184,344,346.05L1864,1490.88l-2.1,2.12,182.66,183.18,2.13,2.13,340.72-341.56,351.75,350,2.12,2.12,182.68-183.2,2.11-2.12-352.6-353.33Zm-878.51,869.48L1870.32,1493l337.36-340.7,2.09-2.11-344-346,175.08-175.59,348.23,340.17,2.12,2.06,351.3-349.41L2918.8,798.19,2567.07,1148l-2.13,2.12,352.61,353.35-176.33,176.84-351.74-350-2.12-2.11Z"/>
  </g>
</svg>
