<svg xmlns="http://www.w3.org/2000/svg" viewBox="0 0 2994.91 3000">
  <title>104Icon_neon 1</title>
  <g>
    <path d="M73.47,1932.23H932.54V1073.16H73.47Zm853.07-853.07v847.07H79.47V1079.16Z"/>
    <path d="M930.32,64.85H71.24V923.93H930.32ZM77.24,917.93V70.85H924.32V917.93Z"/>
    <path d="M1071.23,919.92h859.08V60.84H1071.23ZM1924.31,66.84V913.92H1077.23V66.84Z"/>
    <path d="M2068.51,60.84V919.92h859.07V60.84Zm6,853.08V66.84h847.07V913.92Z"/>
    <path d="M1068.62,1932.23H1927.7V1073.16H1068.62Zm853.08-853.07v847.07H1074.62V1079.16Z"/>
    <path d="M71.24,2932.73H930.32V2073.65H71.24Zm853.08-853.08v847.08H77.24V2079.65Z"/>
    <path d="M1068.62,2932.73H1927.7V2073.65H1068.62Zm853.08-853.08v847.08H1074.62V2079.65Z"/>
    <path d="M2065.88,2932.73H2925V2073.65H2065.88ZM2919,2079.65v847.08H2071.88V2079.65Z"/>
    <path d="M2068.51,1926.32h859.07V1067.25H2068.51Zm853.07-853.07v847.07H2074.51V1073.25Z"/>
  </g>
</svg>
