<svg xmlns="http://www.w3.org/2000/svg" viewBox="0 0 2994.91 3000">
  <title>96Icon_neon 1</title>
  <g>
    <path d="M2503.45,1308v442.57h427.61V1308Zm6,436.57V1314h415.61v430.57Z"/>
    <path d="M57.37,1750.53H485.62V1305.92H57.37Zm422.25-438.61v432.61H63.37V1311.92Z"/>
    <path d="M2374.71,1295.24l-5.87,1.28.54,2.44a914.39,914.39,0,0,1,20.84,194.34c0,497.05-401.23,901.42-894.4,901.42s-894.4-404.37-894.4-901.42,401.22-901.41,894.4-901.41a886.72,886.72,0,0,1,476.24,138.27l2.11,1.34,3.22-5.06-2.11-1.34A894.93,894.93,0,0,0,859.13,851.67a904.92,904.92,0,0,0-193,288.43c-46.95,111.87-70.75,230.71-70.75,353.2s23.8,241.33,70.75,353.2a907.12,907.12,0,0,0,479.16,482.91,895.11,895.11,0,0,0,987.17-194.47,904.85,904.85,0,0,0,193-288.44c46.95-111.87,70.76-230.7,70.76-353.2a919.87,919.87,0,0,0-21-195.62Z"/>
  </g>
</svg>
