<svg xmlns="http://www.w3.org/2000/svg" viewBox="0 0 2994.91 3000">
  <title>90Icon_neon 1</title>
  <g>
    <path d="M689.2,551.52l-1-2.82L159.59,741.09l-2.81,1L954.9,2934.94l1,2.82,528.58-192.39,2.82-1-.85-2.34ZM959.51,2930.07,164.46,745.7,684.59,556.39l795,2184.37Z"/>
    <path d="M1059.42,856.45,2175.69,450.16l2.82-1L2037.2,60.89l-1-2.82L919.9,464.36l-2.82,1,141.31,388.25ZM2032.59,65.76l138.23,379.79L1063,848.76,924.77,469Z"/>
    <path d="M1258.8,1404.24l122.6,336.85,1,2.83,966.05-351.62,2.82-1L2227.67,1051.6l-966.05,351.62Zm965.29-345,119.52,328.4L1386,1736.22l-119.53-328.39Z"/>
    <path d="M2718.7,1902.54,1591.23,2312.9l-2.82,1,135.86,373.27,1127.47-410.36,2.82-1Zm-990.85,777-131.75-362,1119-407.29,131.76,362Z"/>
  </g>
</svg>
