<svg xmlns="http://www.w3.org/2000/svg" viewBox="0 0 2994.91 3000">
  <title>84Icon_neon 1</title>
  <g>
    <path d="M731.58,2898.18l-.07-.62L434.86,395.19l0-.39.37-.14,869-316.28.21.33L2670.28,2183l.34.53-.59.21-480.36,178.81-.22-.33-281.66-433.11-512.3,186.47-.1-.59-74.7-425.43,329.61-120L991.39,524.91l230.05,2199-.37.14ZM435.9,395.47,732.43,2896.82l487.93-173.63L990,520.75l1.15,1.81,660.7,1047.52-.58.21-329.4,119.89,74.45,424,511.92-186.33.22.34,281.66,433.1,479-178.32L1303.77,79.59Z"/>
    <path d="M729.47,2901.58l-.44-3.73L432.33,395.09l-.22-2,2.22-.81,870.87-317,1.29,2L2672.37,2181.61l2,3.14-3.51,1.31-482.24,179.5-1.31-2-280.57-431.44-513.24,186.81-.61-3.53-75.06-427.49,328.66-119.62L995,535.3l228.93,2188.3.2,2-2.22.79ZM438.62,397.14,734.54,2893.41l483.13-171.92L986.35,510.35l6.86,10.88,662.36,1050.14-3.49,1.27-327.43,119.18,73.57,419,511-186,1.3,2,280.57,431.42,474.23-176.52L1302.76,82.62Z"/>
  </g>
</svg>
