<svg xmlns="http://www.w3.org/2000/svg" viewBox="0 0 2994.91 3000">
  <title>70Icon_neon 1</title>
  <g>
    <path d="M2401,2447.17H586.08L377.81,2935.62H2588l-186.43-486.84ZM386.89,2929.62,590,2453.17H2396.86l182.46,476.45Z"/>
    <path d="M2672.34,847.75a1268,1268,0,0,0-272.1-402.36,1271.81,1271.81,0,0,0-403.57-271.28c-156.53-66-322.81-99.48-494.21-99.48s-337.67,33.47-494.2,99.48A1270.77,1270.77,0,0,0,332.59,847.75c-66.21,156.07-99.78,321.85-99.78,492.74a1270.41,1270.41,0,0,0,27.5,263.25,1257.3,1257.3,0,0,0,203.08,464.34A1275.61,1275.61,0,0,0,627.7,2257.94l.87.83H2376.36l.86-.83a1268.61,1268.61,0,0,0,288.66-409.8,1256.08,1256.08,0,0,0,78.74-244.4,1270.41,1270.41,0,0,0,27.5-263.25C2772.12,1169.6,2738.55,1003.82,2672.34,847.75ZM631,2252.77c-252.88-240.2-392.16-564.15-392.16-912.28C238.81,645.8,805.69,80.63,1502.46,80.63S2766.12,645.8,2766.12,1340.49c0,348.13-139.28,672.09-392.16,912.28Z"/>
  </g>
</svg>
