<svg xmlns="http://www.w3.org/2000/svg" viewBox="0 0 2994.91 3000">
  <title>64Icon_neon 1</title>
  <g>
    <path d="M939.52,801.1C842.84,800,765,814.05,764.27,814.2l-2.17.39-.27,2.19c-.08.66-7.8,66.91,15.55,142.27,13.73,44.3,35.35,83.07,64.27,115.23,36.13,40.19,83.77,70.07,141.61,88.8,22,7.14,58.91,10.76,109.57,10.76,108.08,0,242-16.29,243.3-16.45l2.85-.35-.22-2.86A790.26,790.26,0,0,0,1320,1042.3c-13.54-55-39.11-127.8-84.09-162.12-36.81-28.09-84.55-49-141.91-62.23C1048.21,807.41,996.25,801.74,939.52,801.1ZM767.57,819.71c14.21-2.41,85-13.59,171.9-12.61,88.35,1,210.85,15.32,292.78,77.85,43.58,33.26,68.59,104.7,81.9,158.77a785.23,785.23,0,0,1,18.37,108.06c-19.73,2.31-141.16,16.09-239.85,16.09-44.08,0-83.64-2.75-107.56-10.5-128.59-41.65-180.82-131.79-202-200.06C762.52,890.84,766.4,832.29,767.57,819.71Z"/>
    <path d="M1418.43,1257.89c.11-.66,11.4-66.23,20-85.75,9.47-21.4,31.78-58.1,46.36-73.34,8.45-8.84,38.31-38.78,67.49-52.92,8-3.9,40.38-15.73,41.79-16.24l2.34-.86-2-5.64-2.35.86c-.34.12-33.86,12.36-42.35,16.48-30.08,14.58-60.58,45.15-69.21,54.17-15,15.67-37.84,53.21-47.5,75.06-9,20.23-20,84.45-20.47,87.17l-.42,2.47,5.91,1Z"/>
    <path d="M669.28,2257.62l-.91-2.32-6.83,2.65,2.33,2.34,1.22,3.1c0,.09.08.19.14.33l1,2.24,5.5-2.2-.91-2.31Z"/>
    <path d="M2888.12,1962.54c-56.84,14.28-86.15,26.85-101.15,43.39-14.85,16.36-14.68,35.65-14.44,62.34.34,39.53.82,93.67-42.93,180.93-13.21,26.36-54.44,60.68-116.07,96.63-49.85,29.08-107.65,55.84-143.82,66.59-29.34,8.71-75,2.09-119.16-4.32-40.39-5.86-78.55-11.4-106.05-6.27-29.52,5.5-115.29,38.66-170.23,62.17,9.11-17.19,26.4-52,38.36-76.14l.06-.1c4.65-9.38,8.71-17.56,10.7-21.48,28.51-13.39,56.1-34.06,77.76-58.3,23.86-26.7,38.2-55,41.48-81.7,3.91-32-7.82-59.55-34.89-82,7-27,24.14-93.26,29.1-125.09,49.62-17.81,88.75-40.88,116.32-68.59,25.47-25.59,40.48-54.35,44.63-85.5,3.84-28.86-2.13-59.05-17.28-87.29-14.67-27.35-37.55-52.29-66.18-72.11-39.45-27.31-86.86-43.39-137.1-46.49-55.62-3.43-113.05,9.69-166.1,38-52.71-3.68-113.18-47.54-144-104.58-21-38.93-23.7-76.08-7.46-104.62l1.55-2.74-2.8-1.42c-31.84-16.2-56.47-48.28-65.88-85.82-8.63-34.42-3.16-69.12,15-95.18l1.36-1.95-1.58-1.77c-2.59-2.88-6-6.2-9.64-9.74-8-7.8-17.1-16.63-20.61-23.85l-.69-1.41-1.54-.24c-88.83-14-156.53,12-228.21,39.58-42.6,16.37-86.65,33.29-136.58,41.89-44.07-7.25-93.28-22.76-140.9-37.77-57.85-18.23-117.68-37.09-172.1-42.76-84.08-6.3-174.79,12.33-255.42,52.48a485.32,485.32,0,0,0-109.36,74.06c-32.56,29.44-59.45,62.41-80,98-279.89-179.8-350.81-449.43-216.75-824.2L789,720.91,652.56,538.17l496,25.51,6.63.34-4.12-5.2c-87.1-110.08-179.62-193.94-275-249.24S680.29,226.2,577.56,226.2c-79.43,0-161.91,16.8-245.15,49.92-40.9,16.28-80.75,50-118.43,100.16C180.41,421,148.86,479,122.75,544.05c-50.41,125.54-77,265.62-69.53,365.6,16.49,219.05,60.8,375.45,143.7,507.11,77.36,122.86,182,215.68,314.57,333.21l.22.2c17.25,15.3,35.08,31.11,53.28,47.37.18,10.29,1.43,83.34,3,109.58-68.9,22.9-118.66,75.05-136.64,143.34-20.5,77.83,3.61,163.71,64.45,229.68,53.44,60.66,161.11,49.41,180.57,46.8,1.88,4.18,4.44,10,7.36,16.71,8.14,18.57,19.16,43.72,25.54,55.83a193.55,193.55,0,0,0-45.94,118.11c-1.27,40.15,52.58,68.64,95.88,91.55,12.49,6.6,24.28,12.84,33.41,18.67,71.1,45.36,191.79,65.56,201.33,67.1,42.81,23.46,105.92,52.29,143.79,60.37,31,6.63,95.89,4.23,128.85,0,16.46-2.09,38.82-9.45,62.5-17.24,29.76-9.8,60.53-19.92,81-19.92s51.2,10.13,81,19.92c23.67,7.79,46,15.15,62.38,17.23a389.69,389.69,0,0,0,64,5.32c57.14,0,114.8-12.78,171.38-38,67.06-29.86,132.29-76.68,193.87-139.16l12-2.61c90.41-19.66,214.24-46.58,267.06-50.67,16-1.24,32.88,1,52.44,3.54,38.11,5,85.53,11.2,149.85-6.82,79.62-25,160.42-64.87,227.51-112.34,76.53-54.14,134.4-117.29,167.36-182.62l.13-.29c8.34-23.57-4.22-59.82-16.36-94.87-11.8-34.08-24-69.31-16.36-90.91,10.36-29.27,64.07-77.73,64.61-78.22l9-8.09ZM2837,2138.77c11.77,34,23.94,69.15,16.44,90.7-74.89,148.25-257.52,249.8-391.13,291.71-63.05,17.67-109.8,11.54-147.36,6.62-19.87-2.61-37-4.85-53.68-3.57-53.23,4.12-177.28,31.09-267.87,50.79l-13.79,3-.62.64c-93.12,94.67-242.38,201.14-424.69,170.72-15.89-2-38-9.29-61.37-17-30.22-9.94-61.46-20.22-82.84-20.22s-52.62,10.28-82.84,20.22c-23.39,7.7-45.49,15-61.37,17-32.56,4.14-96.46,6.53-126.85,0-37.41-8-100.15-36.71-142.61-60l-.2-.11-.78-.22c-5.19-.82-127.93-20.62-199.56-66.32-9.34-6-21.25-12.26-33.85-18.93-41.8-22.11-93.82-49.63-92.66-86a187.17,187.17,0,0,1,45.82-115.91l1.39-1.58-1-1.85c-6.06-11-17.76-37.7-26.31-57.23-3.43-7.82-6.39-14.57-8.32-18.8l-.93-2-2.24.33c-12.5,1.86-123.73,16.44-177.48-44.57-59.48-64.5-83.07-148.29-63.1-224.13C454.79,1985,504,1934,572,1912.1l2.24-.72-.16-2.34c-1.74-25.54-3.13-112-3.15-112.91l0-1.31-1-.87q-28.05-25.08-54.5-48.47C252.65,1512.42,94,1371.74,59.21,909.2c-7.46-99.12,19-238.18,69.1-362.91,25.93-64.57,57.21-122.11,90.47-166.41,37-49.28,76-82.32,115.85-98.18,295.82-117.73,567.53-25,807.64,275.65L640.11,531.52,775.38,712.69,434,658.85l-2.45-.39-.84,2.34C407,726.9,390.09,786.62,379.15,843.35c-15,77.61-19,151.36-11.93,219.2a562.88,562.88,0,0,0,27.25,124.93,513,513,0,0,0,43.29,94.64q2.26,3.89,4.6,7.73c47.81,78.8,118.25,148.2,209.36,206.27l2.67,1.7,1.56-2.76c80.71-143,266-237.37,440.54-224.27,53.72,5.59,113.25,24.36,170.83,42.51,48,15.12,97.6,30.76,142.31,38.06l.5.05.41-.07c50.72-8.67,95.2-25.76,138.22-42.29,70.5-27.09,137.11-52.68,223.62-39.49,4.33,7.8,13.21,16.44,21.11,24.13,2.83,2.75,5.52,5.37,7.74,7.71-18.07,27.24-23.37,62.85-14.54,98.07,9.55,38.08,34.22,70.89,66.25,88.27-15.64,30-12.53,68.14,8.89,107.73,31.94,59,94.93,104.37,149.78,107.76l.85,0,.75-.4c119.06-63.8,231.85-37.81,297.7,7.79,57.26,39.64,88.27,98.52,80.93,153.67-8.43,63.3-64.79,116.51-158.69,149.83l-1.71.6-.26,1.79c-4.62,31.37-22.86,101.63-29.73,128.09l-.49,1.88,1.51,1.22c26.41,21.25,37.92,47.43,34.2,77.8-7,56.81-64,111.28-116.76,135.73l-.92.43-.48.92c-1.79,3.49-6.15,12.28-11.24,22.54-14.31,28.83-35.93,72.4-42.41,83.53l-4.6,7.91,8.39-3.65c53.06-23.07,146.6-59.58,176.95-65.24,26.52-4.94,64.2.53,104.11,6.32,44.79,6.5,91.1,13.22,121.7,4.13,36.59-10.88,94.92-37.86,145.14-67.16,36.27-21.16,99.89-62.17,118.42-99.12,44.39-88.55,43.89-145.79,43.56-183.67-.23-25.43-.39-43.81,13-58.45,13.13-14.39,38.55-25.74,86.75-38.49-16,15.4-49.41,49.35-57.65,72.62C2812.25,2067.48,2824.81,2103.72,2837,2138.77Z"/>
    <path d="M924.89,2620.78l-2.77-2.25-3.8,4.49,1.88,1.66c2.13,1.83,3.9,3.33,5.61,4.69l1.94,1.54,3.75-4.62-1.91-1.58C928,2623.42,926.46,2622.1,924.89,2620.78Z"/>
  </g>
</svg>
