<svg xmlns="http://www.w3.org/2000/svg" viewBox="0 0 2994.91 3000">
  <title>30Icon_neon 1</title>
  <path d="M2875.55,1776.73a644.79,644.79,0,0,0-259.47-405.15A630.45,630.45,0,0,0,2396.35,1272L2390,1100.52c63.33-25.64,96.65-96.26,75.95-161.61l-13.84-43.66A131.71,131.71,0,0,0,2300.84,806L2223.4,682.54c52.44-53.47,52.12-139.63-1-192.71l-24.72-24.72a137,137,0,0,0-175.49-15.32l-121.57-34.64V415A140.93,140.93,0,0,0,1766.59,267.5l-27-1.28a141.2,141.2,0,0,0-141.95,101.13l-119.25,29.47-2.62-4.82c-34.62-63.58-114.51-87.14-178.09-52.53L1257,361.61a131.29,131.29,0,0,0-52.53,178.09l7.14,13.12c-7.3-4.4-14.67-8.64-22-12.67l-57.83-31.75a621.79,621.79,0,0,0-238.18-74.1A635.6,635.6,0,0,0,438.19,566.9,621.63,621.63,0,0,0,277,757.26L193.46,909.43a621.61,621.61,0,0,0-74.09,238.18A635.65,635.65,0,0,0,252,1603.05a621.87,621.87,0,0,0,190.36,161.18L500.15,1796a621.5,621.5,0,0,0,238.18,74.1c21,2.12,42.39,3.2,63.42,3.2a636.5,636.5,0,0,0,392-135.79A621.76,621.76,0,0,0,1355,1547.13L1438.5,1395a621.79,621.79,0,0,0,74.1-238.18,633.07,633.07,0,0,0-176-505l104.29-49.05.14-.07a131.41,131.41,0,0,0,65.3-144.16l85.47-20.57A141,141,0,0,0,1725.38,565.5l27,1.28c2.27.11,4.58.16,6.85.16a141.21,141.21,0,0,0,129.7-86l79.83,23.15A137,137,0,0,0,1985.86,677l24.72,24.72a137.37,137.37,0,0,0,161.44,24l63.12,101.67a131.51,131.51,0,0,0-68.67,158.41l13.83,43.66a131.07,131.07,0,0,0,143.91,90.52l4.47,137.16a630.34,630.34,0,0,0-243.86-1.95,644.61,644.61,0,0,0-405.15,259.47A630.44,630.44,0,0,0,1577.37,1746L1544,1898a630.79,630.79,0,0,0-3.87,253,644.72,644.72,0,0,0,259.47,405.15A630.44,630.44,0,0,0,2031,2658.43l46.91,10.28a639.35,639.35,0,0,0,760.41-487l33.33-152A630.66,630.66,0,0,0,2875.55,1776.73Zm-8.76,251.9h0l-1-.22-33.33,152c-36,164.35-134.44,305.18-277.14,396.57-102.76,65.81-220.53,100.59-340.58,100.59h0a633.73,633.73,0,0,1-135.52-14.75l-46.9-10.28c-164.35-36-305.19-134.45-396.57-277.14s-121.87-311.78-85.85-476.13l33.33-152c36-164.34,134.45-305.18,277.14-396.56,102.76-65.81,220.54-100.6,340.61-100.6a633.87,633.87,0,0,1,135.52,14.75l46.91,10.28c164.34,36,305.18,134.45,396.56,277.14s121.87,311.79,85.85,476.13Zm-967-1595.93.54-11.39,115.81,33a137,137,0,0,0-12.15,10.8l-18.17,18.17a140.08,140.08,0,0,0-13.46,15.62l-81.27-23.57A141,141,0,0,0,1899.83,432.7Zm75,73.15.91.26.76-2.62a132.07,132.07,0,0,1,13.62-16l18.18-18.18a130.93,130.93,0,0,1,185.19,0l24.73,24.72c51.06,51.06,51.06,134.14,0,185.2L2200,697.45c-51.06,51.06-134.14,51.06-185.2,0l-24.72-24.73a131,131,0,0,1-15.29-166.87Zm244.24,181,75.59,120.51c-2.61.66-5.18,1.38-7.67,2.17l-34.83,11c-3.85,1.22-7.7,2.64-11.48,4.23l-63.41-102.14a136.89,136.89,0,0,0,27-21ZM2254,826.34l34.83-11a125.51,125.51,0,0,1,157.59,81.76l13.84,43.66a125.69,125.69,0,0,1-81.76,157.59l-34.84,11A125.53,125.53,0,0,1,2186,1027.59l-13.83-43.66A125.67,125.67,0,0,1,2254,826.34Zm91.47,288.73,34.84-11c1.24-.39,2.52-.82,3.8-1.27l6.23,167.78q-2.79-.64-5.6-1.26L2337.78,1259l-3.06-.66-4.54-139.43A131.12,131.12,0,0,0,2345.42,1115.07Zm-912.18,277-83.54,152.17c-79.82,145.39-212.11,251.17-372.49,297.86S648.43,1870.55,503,1790.73L445.21,1759c-301.38-165.46-412-545.27-246.49-846.65l83.55-152.17C391.77,560.7,601.61,436.8,829.89,436.8a623.19,623.19,0,0,1,299,76.86l57.83,31.75c10.24,5.62,20.55,11.68,30.67,18l1,1.66.91-.49C1497.86,740,1591.86,1103.17,1433.24,1392.07ZM1332.09,647.2a622,622,0,0,0-110.17-88.06l-12.14-22.31a125.3,125.3,0,0,1,50.12-170l40.67-22.14a125.3,125.3,0,0,1,169.94,50.12l2.51,4.61,1.13,4.58,1.21-.3,12.87,23.65c33,60.65,10.58,136.85-50,169.89Zm260.05-246.9L1591.3,418c-.22,4.54-.21,9.16,0,13.78l-86.49,20.82a131.33,131.33,0,0,0-11.33-28.1l-12.12-22.26L1595.9,374A141.62,141.62,0,0,0,1592.14,400.3Zm50-93.1a133.94,133.94,0,0,1,90.61-35.14c2.17,0,4.36.05,6.54.15l27,1.28a134.95,134.95,0,0,1,128.38,141.19l-.85,17.73a134.93,134.93,0,0,1-141.18,128.38l-27-1.28c-74.32-3.54-131.91-66.87-128.38-141.19l.84-17.73A134.06,134.06,0,0,1,1642.17,307.2Z"/>
</svg>
