<svg xmlns="http://www.w3.org/2000/svg" viewBox="0 0 2994.91 3000">
  <title>46Icon_neon 1</title>
  <g>
    <path d="M2303.66,2794.27c-7.76-26.79-15.63-54-23.46-81.16h0l-21-73-26.66-89.7-39.62-133-49.13-161L2035,1912.78l-28.88-88.58L1945,1640.35c-.11-.8-.32-2.25-.58-4.12l-15.26-111,0-.23a20.36,20.36,0,0,1-.09-6.78l.07-.37c11-92.91,99-865.91,114.09-998.56l95.47,268.53,1,2.84,2.83-1C2210.75,765,2286.6,731,2367.91,688.54l2.11-1.1-.6-2.31c-6.63-25.76-13.15-52.1-19.45-77.56-26.75-108.09-54.41-219.86-99.55-322.68-19.88-45-69.22-65.55-112.84-83.7-6.11-2.54-11.93-5-17.61-7.42l15.85-15.59-4.92-1.43c-36.54-10.61-75.77-16.44-113.7-22.08-77.9-11.57-158.44-23.53-221-77.45l-3.62-3.12-1.24,4.61c-53.18,196.94-129.79,380.45-227.7,545.44l-.83,1.4.53,1.06-2.65,4.47,3.78-2.12a69,69,0,0,1,6.35,32.29l-.12,2.4,2.32.64c95.15,26.32,170.92,86.8,207.91,165.94,29.75,92,39,188.93,47.86,282.66,1.71,17.93,3.46,36.44,5.36,54.85-129-45.6-303-108.49-331.25-264l-3-16.24-3,16.24c-28.27,155.44-202.28,218.35-331.25,264,1.88-18.26,3.63-36.72,5.33-54.62l0-.3c8.9-93.68,18.11-190.56,47.83-282.54,37-79.17,112.79-139.67,207.94-166l2.32-.64-.12-2.4a69.09,69.09,0,0,1,6.36-32.31l3.72,2.06-2.6-4.39.53-1.06-.83-1.4c-97.91-165-174.52-348.5-227.7-545.44l-1.24-4.61-3.62,3.12c-62.53,53.92-143,65.88-220.93,77.45-37.94,5.64-77.17,11.47-113.72,22.08l-4.92,1.43,15.63,15.37c-84.63,31.08-132.06,63.94-155.31,152.83C687.77,452.62,660.37,564,633.88,671.71L630,687.45l2.08,1.09C713.39,731,789.24,765,857.53,789.61l3,1.08.9-3.05c12.71-43,31.43-93,49.54-141.34,16-42.77,32.54-86.86,44.8-126,11.07,97.24,62.49,541.28,93.82,811.79,10.57,91.26,18.55,160.19,21.36,184.48l0,.13a20.91,20.91,0,0,1,0,7l-.06.3c0,.11-2.1,15.15-4.75,34.37-4.5,32.51-10.64,77-11.23,81.21-119.11,323.4-220,674-317.66,1013.07l-.21.71c-13.31,46.23-27.07,94-40.51,140.46l-4.65,20.39,3.34.37c197.8,22,376.31,41.34,557.74,54.65l2.49.19.44-6-2.49-.18C1073,2850,895.58,2830.87,699.2,2809l3.11-13.6q4-13.87,8.07-27.91c29.27,3.05,311.27,32.23,541.48,49.34l2.5.19.44-6-2.49-.19c-227-16.87-506.54-45.71-540.24-49.22,10.14-35.1,20.35-70.59,30.32-105.23l.62-2.14c97.61-339,198.54-689.63,317.63-1012.91l.09-.25,15.39-111.29c.35-2.5.53-3.79.6-4.58l0,0a25.65,25.65,0,0,0,.15-9.36c-2.81-24.32-10.79-93.22-21.35-184.4-33.47-289-89.48-772.62-95.44-826.17l-1.65-14.78-4.21,14.26c-12.45,42.16-31,91.62-48.93,139.53-17.71,47.26-36,96.1-48.74,138.61C789.91,758.7,716.05,725.54,637,684.31l2.75-11.17c26.46-107.61,53.83-218.88,90.5-324.93l.06-.19c22.8-87.26,69.89-119.13,154.26-149.81,17.29,17.4,192.4,193.31,256.74,248.8,63.12,54.44,264.51,166.62,288.54,179.93a75.39,75.39,0,0,0-6.76,32.21c-45.24,12.82-87.59,33.91-122.56,61.08-38.26,29.73-67.54,66-87,107.72l-.12.28c-30,92.71-39.23,190-48.16,284l0,.23c-1.85,19.46-3.76,39.58-5.83,59.36l-.49,4.72,4.48-1.59c67.74-24,144.53-51.09,209.08-92.66,70-45.06,111.82-98.65,127.59-163.54,15.76,64.87,57.6,118.47,127.59,163.54C1692.2,1123.92,1769,1151,1836.68,1175l4.47,1.58-.49-4.73c-2.06-19.66-4-39.67-5.8-59l0-.49c-8.94-94.09-18.18-191.39-48.2-284.14l-.11-.29c-19.47-41.71-48.74-77.93-87-107.66-35-27.16-77.31-48.26-122.56-61.08a75.52,75.52,0,0,0-6.77-32.23c28.42-16,298.43-168.55,379.72-243.09,43-39.48,152.19-169.38,165.65-185.44,6.45,2.81,13,5.52,19.81,8.37,42.5,17.68,90.66,37.73,109.56,80.54,44.93,102.34,72.53,213.86,99.22,321.71l.1.38c6.09,24.6,12.38,50,18.78,74.93C2283.88,725.59,2210,758.76,2143.27,783L2040.13,492.84l-1.47,12.88c-1,9.07-103.62,910.9-115.51,1011.15a26.37,26.37,0,0,0,.06,9.31c.54,3.9,14.83,108,15.83,115.39l0,.27.59,1.58,60.74,182.66,28.86,88.53,108.84,343.59,49.12,160.92,39.61,133,26.65,89.68,19.39,67.43h0l.69,2.39c4.81,16.67,9.63,33.38,14.44,50-34,3.51-316.95,32.51-545.62,49.36l-2.5.18.45,6,2.49-.19c231.46-17.05,517.39-46.43,546.88-49.48q4.1,14.17,8.17,28.24l2.49,15.31c-172.47,20.19-367.68,43-559.33,52.21l-2.5.12.29,6,2.5-.12c192.82-9.29,389.41-32.31,562.85-52.62l3.11-.36-3.52-21.71ZM2109.83,195.87C2093,216,1987.57,341.14,1945.85,379.4c-76.12,69.81-317.14,207.56-371.34,238.19C1669.25,455.9,1743.72,276.73,1796,84.82c63.28,52.45,143.11,64.31,220.36,75.79,36,5.35,73.22,10.88,108,20.5l-14.84,14.59ZM875.72,181.11c34.76-9.63,72-15.15,108-20.5,77.23-11.48,157-23.34,220.34-75.79,52.24,192,126.74,371.17,221.51,532.89C1381.19,593,1203.72,493,1145.19,442.46h0c-62.16-53.6-230-222-254.48-246.54l.06,0Z"/>
    <path d="M1698.43,2919.56c-1.59.17-160.16,16.46-198.44,16.55h-.35c-41.23,0-196.78-16.38-198.35-16.55l-2.48-.26-.64,6,2.49.26c1.57.17,157.08,16.58,199,16.58h.37c38.2-.09,197.43-16.41,199-16.58l2.48-.25-.61-6Z"/>
    <path d="M1495,2897.28c35.73-.09,183.7-13.38,185.19-13.52l2.49-.22-.54-6-2.49.23c-1.49.13-149.1,13.4-184.67,13.49h-.4c-38.71,0-182.78-13.36-184.24-13.49l-2.49-.24-.55,6,2.49.23c6,.55,146.31,13.52,184.79,13.52Z"/>
    <path d="M2425.53,724l-2.2,1.18c-1,.54-100.81,54-137.69,70.74-38.49,17.42-153.7,60.35-154.86,60.78l-2.35.87,2.1,5.62,2.34-.87c1.16-.43,116.56-43.43,155.24-60.94,36.73-16.63,137-70.37,138-70.91l2.21-1.18Z"/>
    <path d="M868,863.19l2.36.84,2-5.64-2.35-.85c-1.26-.45-126.68-45.58-166.3-64-32-14.91-123.07-67.21-126.94-69.44l-2.17-1.25-3,5.2,2.17,1.25c.94.54,94.78,54.49,127.4,69.68C741.35,817.67,866.7,862.74,868,863.19Z"/>
  </g>
</svg>
