<svg xmlns="http://www.w3.org/2000/svg" viewBox="0 0 2994.91 3000">
  <title>100Icon_neon 1</title>
  <g>
    <path d="M1727.37,2798.93l-1.89.75v56.76L2243.94,2660l2.23-.85-8.86-63.92Zm4.11,48.82v-44l500.94-200.1,7.15,51.6Z"/>
    <path d="M1357.72,2800,1108.13,2691.3v254.36l248.55-105.12,260.5,107.78-4-258.3Zm.1,34.53-1.16-.48-242.53,102.57V2700.45L1356.52,2806l1.19.52,249.57-107.45,3.76,240.2Z"/>
    <path d="M2259,1249.23l.14-.21c118.59-201.67,180.73-475,184.69-812.5-.54-50.46-.27-106.26,0-160.23.26-53.78.53-109.38,0-159.69l-.09-8-5.2,6.15c-49.83,58.82-98.76,110-146.1,159.49-155.58,162.68-289.94,303.18-350.86,612l0,.37c-6.81,152.57-33.37,511.12-37.41,565.23-31-38.88-71.63-89.49-110.94-138.5l-.37-.46c-42.33-52.77-86.09-107.34-118.5-148-131.52-193.46-244.49-351.88-400-483.1C1056.81,498.16,819.21,309.27,556,171.45l-5.2-2.72,32.66,227.68,0,.15c23.21,111.38,67.1,217.79,130.46,316.29,56.26,87.47,129.85,171.69,218.72,250.3,174.32,154.2,385.71,268.41,550.39,350.68l.18.08c34.39,14,87.21,37,138.31,59.37,45.8,20,93,40.64,127.09,54.76-61.71,6.57-210.34,23.74-264.73,32.54-107.81,17.46-207.16,51.81-295.26,102.11-86,49.12-159,112-216.87,187-46,59.65-74.35,121.24-84.12,183.06-9,56.75-2.37,113.64,19.6,169.09,17.29,43.62,43.95,86,79.26,125.92,33.26,37.61,73.57,72.42,119.82,103.48,88,59.12,192.24,100.91,293.79,117.89-25.8,42.17-42.39,82.08-49.33,118.7-9.41,49.57-1,92.8,25,128.48l1.44,2,339-154.09,6.2,142.71.19,4.26,3.94-1.61c3.13-1.27,324-131.75,501.15-204.18l1.29-.52.42-1.32c57.23-174,78.29-370.06,57.78-537.78-16.54-135.25-68-317.63-219-420.32,34.47-47.17,65-92.78,94.55-136.92C2192.77,1343.63,2223.84,1297.22,2259,1249.23Zm-197.54,275.18-1.85,2.53,2.61,1.74c151.09,101.07,202.46,283,218.94,417.8,20.36,166.45-.45,361-57.08,533.87-166.5,68.07-459.62,187.29-495.92,202.05l-6.41-147.34L1379.21,2690.8c-53.74-76.31-14.37-173.76,28.34-242.31l2.38-3.84-4.45-.71c-189-30.28-419-158.27-492.68-344.3-45.18-114-23.16-233.78,63.69-346.27,116.39-150.76,296.93-252.64,508.34-286.87,56.58-9.16,219.62-27.92,276.22-33.73l12-1.23-11.16-4.53c-34.34-14-87-37-138-59.26s-103.84-45.36-138.25-59.34c-389.66-194.68-800.82-455.38-896.24-913l-31-215.95c260.7,137.32,496.29,324.7,712.12,506.85,154.92,130.74,267.67,288.86,399,482l.11.16c32.4,40.6,76.21,95.23,118.59,148.06,41.47,51.71,84.35,105.19,116.07,144.93l4.76,6,.58-7.61c1.25-16.63,30.65-408.93,38-572.77,60.59-306.89,194.37-446.76,349.27-608.73,45.73-47.82,93-97.22,141.13-153.64.42,48.1.16,100.66-.08,151.56-.27,54-.54,109.82,0,160.26-3.95,336.3-65.78,608.59-183.77,809.31-35.21,48-66.29,94.46-96.35,139.36S2096.65,1476.44,2061.48,1524.41Z"/>
  </g>
</svg>
