<svg xmlns="http://www.w3.org/2000/svg" viewBox="0 0 2994.91 3000">
  <title>112Icon_neon 1</title>
  <g>
    <path d="M2859.54,137.37l-.78-5.94L1097.19,1853.73l-972.47,897.1L122.4,2753l145.78,142.6,1.61,1.57,2-1.11c4.22-2.39,422.4-240.16,541.46-345.18,124.35-109.68,416.54-498,444.36-535.13l433.65,426.08,2.17,2.13,2.1-2.19c8.68-9.06,213.28-222.69,277.76-298.86,132.84-157,377.8-464.41,481.69-625.87,35.52-55.19,128.09-201.59,220.55-368.66,92.31-166.82,153-297.25,180.44-387.68,22.48-74.15,32.81-234.21,33-324.18C2889,362.52,2859.84,139.62,2859.54,137.37Zm-5.17,6.74c4.4,34.19,28.63,225.37,28.52,292.37-.15,89.6-10.4,248.88-32.71,322.45-74,244-367.1,703.26-400.28,754.83C2346.16,1675,2101.41,1982.17,1968.67,2139c-61.63,72.81-253.55,273.55-275.41,296.39L1103.51,1856ZM1253.25,2011.48c-25.24,33.69-319.29,424.87-444,534.87C694.57,2647.5,303.59,2871,270.76,2889.69L131.11,2753.1l968.05-893Z"/>
    <path d="M2102.07,1512.65c9.14,5,24.38,8.31,38.85,8.31,5.29,0,12.7-.44,18-2.59,15.36-6.2,33.66-37.78,34.47-54.5.74-15.14-9.86-54.12-24.42-65.38-4-3.13-7.9-4.06-11.77-2.86l-.39.12c-11,3.44-10,20.56-9.1,37.12l0,.47c.63,11,1.33,23.52-2,28.79s-14.66,9.88-24.75,14c-15.42,6.37-31.36,13-29.34,24.35C2092.51,1505.21,2096,1509.29,2102.07,1512.65Zm48.77-47.33c4.32-6.89,3.59-19.82,2.88-32.32-.78-13.82-1.66-29.48,5-31.55a5.38,5.38,0,0,1,1.63-.25,8.26,8.26,0,0,1,5,2c12.72,9.83,22.76,47,22.11,60.34-.69,14.27-18,44.08-30.73,49.23-10.36,4.18-37.81,2.27-51.69-5.41-4.41-2.44-6.9-5.11-7.4-7.92-1.18-6.64,13.11-12.54,25.73-17.76C2134.75,1477,2146.58,1472.1,2150.84,1465.32Z"/>
  </g>
</svg>
