<svg xmlns="http://www.w3.org/2000/svg" viewBox="0 0 2994.91 3000">
  <title>78Icon_neon 1</title>
  <path d="M2857.15,907.31,2259.69,448.55l-.08-.07-658.49-420L1598.77,27,1472.05,197.78l-66.32,21.87,1.29,65.81L958.33,910.37,717.76,1240.51l0,0-392,586-191.71,196,211.36-.35L1140.47,2708l200.44,266.31L1453.23,2721l277.71-404.75,318.22-368.21,48.7-55.07,0-.06,556.57-713.58,77-6.6.33-86.46,65.21-98Zm-745.39-278-634-429.13,70.73-95.33,625.67,423.58L2787.4,992l-59.3,89.13ZM1472.61,203.91,2108.3,634.18l617.55,452.73-.31,80.35-71.82,6.15L2027.89,749.72,1413,284.92l-1.2-61Zm-61.95,86.76,613.68,463.89.05,0,624.19,422.58-555.29,711.94-48.65,55-318.36,368.39-.1.1-278.07,405.29-.13.19-108.41,244.46L1145,2704.1l-.16-.22L348.49,2016.94l-.85-.73-199.3.34,181.94-186,.16-.17L722.65,1244l240.54-330.1ZM2790.73,987l-613-463.43,0,0L1552.07,100,1600.25,35,2256.16,453.4l592.65,455.07-56.62,76.31Z"/>
</svg>
