<svg xmlns="http://www.w3.org/2000/svg" viewBox="0 0 2994.91 3000">
  <title>102Icon_neon 1</title>
  <g>
    <path d="M2949.75,305c-8.33-38.32-29.72-99-53-135.9-16.6-26.36-48.4-59-105.64-64.47-70.44-6.79-108.48,21-136.41,49.15-18.94,19.06-54.41,57.9-79.24,103.85-20.73,38.33-45.23,87.2-71.2,139-35.31,70.42-71.82,143.24-101.59,194.92-51,88.52-173.47,292.43-239,385.31-68.25,96.65-305,377.25-307.4,380.08l-5,5.87,128.4-16.17-.75-6L1865.78,1355c33-39.16,240-285.68,302.77-374.62,65.68-93,188.3-297.16,239.35-385.78,29.85-51.82,66.4-124.72,101.75-195.22,25.93-51.72,50.43-100.57,71.11-138.84,24.49-45.29,59.52-83.64,78.22-102.47,26.94-27.12,63.64-54,131.58-47.41,54.82,5.28,85.26,36.47,101.15,61.7,22.88,36.34,44,96.15,52.18,134,8.28,38.11,5.51,115.11,0,151.37-10.12,66.19-54.49,194-81.3,259.56-83.43,204-311.53,583.61-356.41,657.63-25.85,42.64-119.52,166.12-135.61,187.27l-36.32-59.42-57.1-65.31-4.51,3.95,56.66,64.74,40.72,66.64,2.66-3.48c4.5-5.88,110.32-144.59,138.63-191.28,44.92-74.09,273.24-454,356.84-658.47,26.91-65.81,71.48-194.26,81.68-260.92C2955.4,421.89,2958.18,343.81,2949.75,305Z"/>
    <polygon points="2219.17 1397.83 2222.39 1392.77 2171.9 1360.59 2171.55 1360.37 2083.21 1338.62 2081.78 1344.44 2169.16 1365.95 2219.17 1397.83"/>
    <path d="M944.94,964.3a5.55,5.55,0,0,0,.77.1l2.43.19.38-3.73c15.38-6.6,93.66-25.21,189.4-31.81,14.23-1,89.83-5.43,180.57,3.49,54,5.31,107.92,36.25,160.3,92,98.61,104.89,130.84,161.91,143.7,254.22,12.09,86.79,1.86,159.66,1.76,160.39l-1.09,7.56L1757,1338.46l1.19-1-.08-1.51c0-1-4.71-96.44-23-139.48-56.4-132.65-128.45-208.14-177.74-253.39-18.43-16.93-56.25-42.64-107.08-64-37.58-15.82-94-34-149.17-30.71-102.74,6.09-159.53,23.75-205.17,37.94l-5.89,1.83a686.49,686.49,0,0,0-102.57,41.61c-17.3,8.73-39,21-44.33,27.29A4.64,4.64,0,0,0,941,960l-7.23,6.42,8.08-3.55A5.16,5.16,0,0,0,944.94,964.3Zm686.13,468.25c2.16-20.29,7.31-83.3-2.63-154.67-6.77-48.54-18.51-85.14-39.28-122.36-21.26-38.1-54-79.78-106-135.14-53.4-56.79-108.61-88.36-164.08-93.81-37.11-3.65-75.83-5.5-115.09-5.5-35,0-59.72,1.52-66.48,2a1109.12,1109.12,0,0,0-135.62,18c-12.73,2.53-27.42,5.79-39.07,9,24.73-15,74.8-39.35,129-56.15l5.9-1.83c45.33-14.09,101.74-31.63,203.74-37.68,99.82-5.91,213.28,57.77,251.85,93.18,48.87,44.87,120.32,119.74,176.26,251.32,16.57,39,21.81,124,22.47,135.9Z"/>
    <path d="M2256.91,1527c-30.22-36.62-114.62-94.68-162.84-106.16-46.46-11.06-189.18,20.7-190.62,21l-6.49,1.46,5.38,3.9c.6.43,59.41,43.2,72.92,62.39,41.46,58.9,86.75,194.4,98.51,258.18,12.5,67.75,12.49,208.72,0,279.32-14.13,79.82-70.5,242.21-116.15,317.93-27.06,44.86-142.07,157.28-143.23,158.41l-19.62,19.12,23.29-14.42c2.57-1.59,257.45-159.73,327.81-229.53,52.75-52.35,140.71-165.43,164.13-230.7,13.66-38.1,24.11-101.4,28.67-173.68,4.28-68,2.79-134-4-176.54C2327,1669.53,2290.94,1568.23,2256.91,1527Zm-419.15,981.72c34.3-34.39,104.34-106.33,125-140.59,46-76.23,102.71-239.66,116.93-320,12.59-71.13,12.58-213.18,0-281.46-11.85-64.29-57.59-201-99.51-260.55-11.58-16.44-53.11-48.08-68.93-59.83,28.81-6.14,141.88-29,181.45-19.64,47.22,11.24,129.94,68.19,159.6,104.14,33.43,40.51,68.88,140.31,76.46,187.83,13.6,85.17,4.84,265.75-24.39,347.24-23.13,64.48-110.35,176.52-162.71,228.47C2084.33,2351.21,1900.73,2469,1837.76,2508.71Z"/>
    <path d="M2425.43,1689.63l-5.52-4.09,19.33,175.19,0,.24.32.86c.65,1.2,65.28,120.39,74.93,168.86,8.63,43.28,19,127.83,16.05,174-2.66,41.41-9.2,76.76-16.15,114.23-3.34,18-6.79,36.68-9.91,56.63-7.3,46.59-18.12,106.21-23.31,134.87-1,5.34-1.75,9.62-2.28,12.59-.42,2.33-.63,3.52-.72,4.3l-.67,2.08,1.09.43a3.06,3.06,0,0,0,1.91,1.22,3.56,3.56,0,0,0,.68.07c1.95,0,2.56-1.33,3-3.32,9.12-3.54,52-21.55,88.86-60.61,64.58-68.39,69.67-306.51,70-353.55.48-61.62-13-174-44.63-230.91C2537.83,1773.39,2426.55,1690.45,2425.43,1689.63Zm60,831.23c.47-2.62,1.05-5.8,1.69-9.34l0-.11c5.2-28.67,16-88.32,23.31-134.9,3.11-19.87,6.56-38.47,9.9-56.52,7-37.6,13.55-73.11,16.22-114.89,3-46.7-7.45-132-16.14-175.58-9.49-47.62-70.31-160.86-75.27-170l-17.74-160.78c23.43,18.39,113.59,92.74,165.87,187,31,55.95,44.34,167,43.87,227.94-.36,46.65-5.37,282.73-68.4,349.48C2536.22,2497.52,2498.34,2515.41,2485.41,2520.86Z"/>
    <path d="M1688.88,950.76c30.3,36.08,77.74,117.31,96.82,160.51,15.31,34.67,43.26,146.35,43.54,147.48l1.18,4.76,24.94-21.81-.55-1.85c-1.3-4.37-32-107.29-47-139-20-42.32-68-122-107.57-158.64-27.24-25.25-105.79-74.54-106.58-75l-2.08-1.31-3.23,5,2,1.37C1591.13,872.75,1665.82,923.3,1688.88,950.76Zm7.27-4.11c38.94,36.11,86.41,114.91,106.23,156.81,13.8,29.17,42,122.57,46.13,136.26l-14.65,12.82c-5.68-22.33-29-112.79-42.67-143.69-19.24-43.56-67.11-125.5-97.71-161.94A152.35,152.35,0,0,0,1681,934C1686.91,938.62,1692.12,942.92,1696.15,946.65Z"/>
    <path d="M55.19,2611.84l39.46,123.58.93,2.89,159-52.61-44.17-125.13Zm44.26,118.87-36.74-115,144-47.57,40.17,113.81Z"/>
    <path d="M1954.8,2017.92l.26-.86c17.62-58.11,24.18-138.9,17.57-216.11-3.64-42.43-11-82.06-21.88-117.81-12-39.5-28.09-73.24-47.76-100.28-36.79-50.59-85.08-76.79-143.54-77.89h-.3c-69.24,6.25-136.7,65.86-190.9,113.76-7.73,6.83-15,13.29-22,19.26l-196,144.1c-212.7,140.61-477.63,286.56-732.24,423.34l-1.41.75-.16,1.6C600.59,2373,485,2551.66,301.94,2557.33l-4.56.14,1.93,4.13a682.09,682.09,0,0,1,25.51,65.17l1.53,4.6,3.43-3.43c190.57-190.65,380.91-166.68,629-112l.79.17.77-.24c33.93-10.88,78.76-25.89,122.1-40.41l.27-.09c43-14.42,87.55-29.33,121.2-40.11C1338.84,2393,1472.7,2334.73,1601.77,2262c121.75-68.57,240.3-150.51,352.34-243.55Zm-56.66-431.53c83.2,114.39,83.33,321.75,51.44,428.07-232.47,192.9-484,332.56-747.48,415.08-33.71,10.8-78.24,25.72-121.3,40.14l-.26.09c-43,14.4-87.44,29.29-121.26,40.13-110.86-24.41-228.1-47.22-336.37-35.68-111.57,11.9-205.07,58.34-293.95,146.09-9.32-27.17-18.49-48.5-22.35-57.16,183.21-8.49,299.11-187.4,315.66-353.18,254.3-136.62,518.81-282.38,731.38-422.92l196.27-144.29.15-.12c7-6,14.28-12.45,22-19.28l.15-.13c53.5-47.28,120.07-106.11,187.3-112.25C1815.91,1512.08,1862.54,1537.45,1898.14,1586.39Z"/>
  </g>
</svg>
