<svg xmlns="http://www.w3.org/2000/svg" viewBox="0 0 2994.91 3000">
  <title>50Icon_neon 1</title>
  <g>
    <path d="M2245.61,2311.53c-14.4-210.45-42.62-393.19-86.28-558.66l-.07-.21c-42.52-117-100.67-269.45-173.58-410.54-80-154.87-164.12-271.42-257-356.27-.42-3.75-1.65-12.14-3.06-21.75-2.63-18-6.24-42.5-6-47.41,1.54-14.84,5.32-53.12,10.1-101.57,14.17-143.43,37.25-377,45.39-442.87,33.81,111.43,66.35,227.38,97.85,339.62,41.82,149,85.06,303.13,132,449.46l.95,3,2.94-1.07c3.38-1.24,12.71-5.82,20.23-9.51l3.42-1.68q2.05,9.09,4.08,18.28c6.58,29.66,13.39,60.33,22.13,89.22l1.08,3.54,3.24-1.78c19.09-10.51,42.41-14.12,60.59-16.08l3.27-.36-.65-3.21c-5.52-27.69-12.76-56-19.76-83.39l-.24-.92q-1.82-7.14-3.64-14.27l3.54-1.35c7.65-2.9,17.16-6.5,23.21-10l2-1.14-.57-2.21c-20.84-81-48.38-162.25-75-240.85-20.9-61.69-42.52-125.48-60.72-188.66-17.41-53.1-29.65-109.74-41.49-164.52-19.16-88.67-39-180.36-81.31-260.54l-.1-.19-.52-.62c-28.47-26.16-67.51-32.27-105.28-38.18-14.09-2.21-28.65-4.49-41.94-7.77-27.95-7.75-63.68-19-92.15-37.15-31.92-20.36-49-45.28-52.36-76.19l-.47-4.45-3.93,2.13c-5.55,3-16.32,8.82-25.83,14l-14.86,8-.2.12c-11.3,7.54-22.68,8.62-30.44,2.89l-.82-.61-6.63.12-.76.56c-7.76,5.7-19.14,4.6-30.45-2.94l-.2-.11L1442,120.87l-21.35-11.56-.48,4.45c-3.34,30.92-20.46,55.85-52.37,76.2-28.46,18.16-64.18,29.39-92,37.12-13.36,3.3-27.91,5.57-42,7.78-37.79,5.91-76.87,12-105.32,38.19l-.16.15-.46.66c-42.34,80.18-62.15,171.85-81.31,260.51C1034.69,589.15,1022.44,645.79,1005,699c-18.16,63.05-39.78,126.85-60.7,188.6-26.63,78.6-54.17,159.88-75,240.81l-.57,2.2,2,1.14c6,3.48,15.6,7.11,23.29,10l.11,0,3.46,1.31-3.3,12.37c-7.6,28.47-15.47,57.9-21.22,86.79l-.63,3.19,3.22.38c20.08,2.38,43.12,6.18,61.73,16.37l3.23,1.78,1.08-3.54c9.16-30.19,15.94-62.33,22.51-93.46l.11-.54q1.55-7.29,3.07-14.52l3.43,1.68c7.15,3.52,16.94,8.35,20.41,9.62l2.93,1.08,1-3c46.94-146.3,90.19-300.41,132-449.44,31.51-112.28,64.06-228.26,97.87-339.7,8.23,66.54,31.87,312.24,45,448.5l.11,1.15c4.46,46.36,8,83,9.38,96.78.2,5-3.57,30.74-6.07,47.8l0,.11c-1.38,9.4-2.58,17.64-3,21.33-212.55,203-328.8,489.11-429.66,764.83l-.07.22c-43.67,165.77-71.89,348.5-86.28,558.63-13,189.4-13.57,383.43-13.07,565.93v2.53l2.5.42c202.91,33.92,369,54.92,522.77,66.1,86.22,6.28,169.89,9.45,248.67,9.45,96.9,0,187.65-4.56,277.33-13.94,115.27-8,233.34-26.32,347.54-44l.18,0c38.09-5.9,77.48-12,115.9-17.57l2.56-.38v-2.58C2259.2,2694.78,2258.55,2500.56,2245.61,2311.53ZM1279.32,967.31c3.61-24.66,6.36-43.94,6.12-49v-.14c-1.39-13.74-4.93-50.45-9.4-96.93l-.1-1.07c-14.38-149.51-41.15-427.82-46.88-462.39L1227,345.15l-3.74,12.24C1188,472.9,1154.09,593.6,1121.33,710.32c-41.51,147.92-84.42,300.85-130.94,446.11-4.37-2-11.48-5.46-16.94-8.15-2.94-1.45-5.48-2.7-6.93-3.38l-3.42-1.61-.79,3.69c-1.33,6.18-2.64,12.41-4,18.65l0,.19c-6.28,29.77-12.77,60.53-21.34,89.47-17.89-8.93-38.78-12.65-57.39-15,5.65-27.71,13.19-55.93,20.49-83.25l.16-.6q1.92-7.18,3.82-14.36l.69-2.58-2.49-1c-1.8-.71-3.85-1.49-6-2.31l-.11,0c-6.65-2.52-14.77-5.6-20.42-8.52,20.7-80,47.93-160.36,74.28-238.12,20.93-61.78,42.57-125.66,60.74-188.76,17.52-53.41,29.8-110.21,41.67-165.16,19-88.08,38.72-179.16,80.51-258.51,27.1-24.65,65.07-30.59,101.81-36.34,14.2-2.22,28.88-4.52,42.57-7.89,28.35-7.87,64.63-19.28,93.76-37.87,32-20.44,49.91-45.4,54.54-76.22l14.05,7.6,22.61,12.23c13.07,8.67,26.6,9.87,36.39,3.25l2.74,0c9.81,6.61,23.31,5.42,36.35-3.24l18.41-10,18.3-9.9c4.62,30.45,23,56.08,54.52,76.22,29.15,18.59,65.43,30,93.85,37.9,13.63,3.36,28.32,5.66,42.55,7.89,36.7,5.74,74.65,11.68,101.76,36.32,41.78,79.34,61.46,170.43,80.51,258.54,11.87,54.93,24.14,111.73,41.62,165,18.2,63.17,39.83,127,60.76,188.81,26.36,77.78,53.6,158.17,74.31,238.17-5.67,2.93-13.74,6-20.35,8.49-2.18.83-4.24,1.61-6.07,2.33l-2.46,1,.65,2.56q2.24,8.86,4.53,17.81c6.71,26.24,13.63,53.34,19,79.85-17.05,2-38,5.54-56.29,14.7-8.18-27.64-14.68-56.92-21-85.31l0-.11q-2.43-11-4.89-21.86l-.82-3.64-3.38,1.59c-1.39.65-3.91,1.88-6.89,3.35-5.4,2.65-12.43,6.1-16.75,8-46.53-145.28-89.45-298.2-131-446.13l0-.12c-32.75-116.69-66.61-237.36-101.85-352.79L1773,344.89l-2,12.86c-5.73,36.36-31.73,299.54-47.26,456.78-4.79,48.55-8.58,86.89-10.11,101.65v.13c-.25,5,2.49,24.15,6.09,48.69l0,.25c1.54,10.55,2.88,19.66,3.08,22.27l.09,1.19.88.8c199.94,182,329.48,488.86,429.83,765.05,93.2,353.33,100.14,716.5,99.19,1120.35-37.63,5.48-76.12,11.44-113.37,17.2l-.23,0c-114.06,17.66-232,35.92-347,43.95h-.1c-88.46,9.25-182.11,13.94-278.37,13.94h-.07C1235,2950,970,2912.15,747.28,2875c-1.07-403.18,5.78-765.91,99.12-1120.32,100.73-275.36,216.83-561.09,428.91-763.17l.83-.79.09-1.14c.22-2.65,1.54-11.67,3.07-22.11Z"/>
    <path d="M944.54,1262.25l-.34,2.9,2.4.35a2.73,2.73,0,0,0,.53,0,3.08,3.08,0,0,0,1.38-.33l.7.07.08-.65.23-.27,1.08-1.42-.72-1.62a2,2,0,0,0-.17-.32l.08-.68-.72-.08a3.13,3.13,0,0,0-1.77-.7l-2.42-.21-.34,2.9,2.1.25h0Zm1.88,2.17a2.05,2.05,0,0,1-1-.8l1.11-.5Zm-.68-3.31a2.07,2.07,0,0,1,1.11-.54l-.14,1.28Z"/>
    <path d="M1609.59,63.13l-15.12-30.25-88,49.45,12.37,29.86ZM1591.92,41.2l9.7,19.41-79.74,43.14L1514.1,85Z"/>
    <path d="M1494.12,82.49l-3.48-1.86c-2.94-1.58-5.87-3.16-8.8-4.77l-5.1-2.79c-4.09-2.23-8.32-4.55-12.49-6.87l-17.54-9.73-40.26-22.68L1391.7,63l90.06,49.06Zm-94.44-22L1409,42.1l34.81,19.6,17.54,9.74c4.17,2.33,8.41,4.64,12.54,6.9l5.09,2.78q3.75,2.05,7.52,4.08l-7.69,18.43Z"/>
  </g>
</svg>
