<svg xmlns="http://www.w3.org/2000/svg" viewBox="0 0 2994.91 3000">
  <title>166Icon_neon 1</title>
  <g>
    <path d="M2921.58,626.55l4.16-4.32L2373.1,90l-1.8-1.74-4.16,4.32,268.71,258.79L2363,626.44,2131.87,407.5l-2.11-2L1025.12,1497.87l-.58.58-159,604.3-1.31,5,607.55-160.45.77-.21L2593.93,849.52l2.23-2.18L2367.34,630.57l272.83-275.05ZM872.6,2099.3l157.33-597.74L2129.85,413.86l457.66,433.55L1469.43,1941.68Z"/>
    <g>
      <polygon points="163.97 2797.27 339.8 2623.56 515.84 2450.05 868.1 2103.22 868.68 2103.8 516.51 2450.74 340.34 2624.11 163.97 2797.27"/>
      <polygon points="165.72 2799.06 162.21 2795.5 338.05 2621.78 514.09 2448.27 868.13 2099.69 872.21 2103.83 870.43 2105.58 518.27 2452.52 342.09 2625.89 165.72 2799.06"/>
    </g>
  </g>
</svg>
