<svg xmlns="http://www.w3.org/2000/svg" viewBox="0 0 2994.91 3000">
  <title>94Icon_neon 1</title>
  <path d="M2921.61,2748.06l-.12-.95-.08-.84-58.89-542.71-.27-2.48-6,.64,58.49,538.92-976.54-828a1049.19,1049.19,0,0,0,147.7-251.74c53.47-129.37,80.58-266.79,80.58-408.44S2139.4,973.4,2085.93,844a1047.48,1047.48,0,0,0-219.77-333.55c-94.18-96.38-203.86-172-326-224.9a1007.37,1007.37,0,0,0-798.43,0c-122.12,52.86-231.8,128.52-326,224.9A1047.48,1047.48,0,0,0,196,844c-53.47,129.37-80.58,266.79-80.58,408.44s27.11,279.07,80.58,408.44a1047.7,1047.7,0,0,0,219.77,333.55c94.18,96.37,203.86,172,326,224.9a1007.48,1007.48,0,0,0,798.43,0c122.12-52.86,231.8-128.53,326-224.9q36.18-37,68.33-77.12l976.52,828-531.76,38.11.44,6,537.87-38.54.76,0,1-.08,2.54-.18ZM1141,2295.83c-562.17,0-1019.54-468-1019.54-1043.36S578.79,209.1,1141,209.1,2160.51,677.16,2160.51,1252.47,1703.14,2295.83,1141,2295.83Z"/>
</svg>
