<svg xmlns="http://www.w3.org/2000/svg" viewBox="0 0 2994.91 3000">
  <title>54Icon_neon 1</title>
  <g>
    <path d="M2157.87,1134.62l.16,0,4,.93L2303,1179.05l1.77-5.74-137.89-42.52,7.5-18.36c6-14.71,10.82-26.92,15.09-38.42,5.91-15.9,9.76-27.47,12.49-37.52l.25-1c.28-1.06.6-2.25.8-3.21.34-1.38.59-2.61.77-3.67.17-.72.3-1.77.47-3,.06-.53.13-1.06.21-1.56l.63-4.75c.81-5.22,1.29-10.54,1.76-15.75.12-1.26.23-2.52.35-3.83,1.07-14,1.46-27,1.18-39.51-.33-24.41-2.79-50.55-7.52-79.93-2.11-12.69-4.6-25.84-7.63-40.21l-4.43-20.25-2.34-10.33-2.25-8.76c-7.59-26-19.64-53.37-29.29-74.34-11.32-24.35-23.86-49.11-37.29-73.62l-10-17.89-5.13-8.77-2.61-4.4-2.36-3.77c-7.17-11-15.82-22.67-23.34-32.63C2061,568,2047.51,551,2036,536.65L2020.4,441l-38.94-232.22L1956,47.78l-5.93.94,25.43,161L2014.48,442l15.59,95.71c-6.53,21.44-11.69,38-16.7,53.54-5.38,16.63-9.71,29.54-14,41.85-2.71,7.72-5.27,14.66-7.81,21.22a227.84,227.84,0,0,1-9.77,22.08c-7.69,15.17-15.81,28.65-22.75,39.85-7.3,11.84-15.17,24-24,37.28-16.22,24.34-33.17,48.63-50.38,72.2-20,27.3-37.1,49.55-54,70-9.37,11.53-19.18,22.73-29.93,34.19-11.78,11.87-22.37,20.06-33.59,28.74l-2.66,2.07c-25,19-50.34,36.38-72.15,51.14-15.39,10.38-32.11,21.38-52.53,34.56l-71-3.83-.08-.05h-.88l-2.41-.13v.13h-6.07l-12.49,41-8.41,8.21,11.22,89.5,20.88,111c.08.4,8,40.61,12.64,53.62,7.31,20.47,26.38,58.42,37.3,76.18,10.18,16.59,34.56,47.82,48.24,64,8,9.45,32.73,36.83,33,37.1l1.68,1.85,4.45-4-1.67-1.86c-.25-.27-25-27.73-32.85-37-13.56-16-37.68-46.93-47.71-63.26-10.77-17.52-29.56-54.91-36.76-75-4.46-12.47-12.32-52.36-12.39-52.74l-20.85-110.72L1544.73,1094l2.63-2.56c4,26.74,21.34,138.31,36.35,175.83,12,30,23.36,47.89,33.76,53.19,3.13,1.6,7.62,2.41,13.32,2.41,10.25,0,23.35-2.66,31.18-5.13,12.46-3.92,35.89-16.3,44.26-26.76,8.56-10.7,16.22-36.21,16.25-48.81,0-12.93-10.1-35.9-15.54-48.25l-.31-.68c-6.38-14.49-30.85-54.6-31.08-55l-.11-.18L1642.76,1102l-37.11-32.89-27.82-19.92,62.49,3.37,252.52,28.84c2.66.34,5.28.62,7.83.9,4.55.49,9.25,1,14.18,1.82l5.08.78.21,0c5.74.88,11.69,1.79,17.27,2.86,13.24,2.3,26.46,4.9,39.3,7.42l4.49.88c59.44,12.06,117.94,25.18,172.3,37.56ZM1889.41,829.26c17.26-23.64,34.26-48,50.52-72.41,8.92-13.29,16.82-25.54,24.17-37.45,7-11.3,15.21-24.93,23-40.28a232.35,232.35,0,0,0,10-22.64c2.56-6.61,5.14-13.6,7.88-21.39,4.36-12.39,8.7-25.34,14.09-42,4.64-14.4,9.4-29.62,15.28-48.86,10.71,13.36,23,28.81,35,44.72,7.45,9.88,16,21.44,23.06,32.24l2.29,3.65,7.66,13,10,17.82c13.34,24.36,25.82,49,37.08,73.23,9.56,20.77,21.5,47.91,28.95,73.41l2.21,8.58,2.31,10.22,4.42,20.21c3,14.3,5.49,27.36,7.57,39.91,4.69,29.08,7.13,54.94,7.46,79.08.27,12.37-.12,25.1-1.16,38.89-.12,1.26-.24,2.52-.35,3.81-.46,5.07-.93,10.32-1.72,15.42l-.65,4.78c-.07.5-.14,1.06-.21,1.62-.12.87-.27,2.06-.38,2.49l0,.21c-.16,1-.39,2.09-.72,3.44-.19.88-.47,2-.75,3l-.24.94c-2.68,9.85-6.48,21.26-12.32,37-4.24,11.42-9,23.57-15,38.24l-7.78,19-1.8-.41-.31-.08-4.09-.94c-54.4-12.39-112.94-25.52-172.46-37.59l-4.52-.89c-12.82-2.52-26.09-5.13-39.37-7.44-5.64-1.08-11.64-2-17.43-2.88l-.1,0-5.15-.79c-5.08-.85-9.87-1.37-14.51-1.87-2.51-.27-5.1-.55-7.74-.88l-244.32-27.91c17.67-11.45,32.54-21.26,46.41-30.61,21.88-14.81,47.34-32.21,72.45-51.36l2.68-2.07c11.37-8.8,22.11-17.12,34.22-29.33,10.91-11.61,20.81-22.92,30.26-34.55C1852.17,879,1869.38,856.66,1889.41,829.26ZM1552.69,1085l11.07-36.36h3l35,25.08,36.63,32.44,32.19,35.63c1.87,3.08,24.61,40.55,30.51,54l.31.69c4.89,11.08,15.06,34.14,15,45.81,0,11.32-7.41,35.67-14.93,45.07-7.3,9.11-29.78,21.14-41.38,24.79s-32.11,7.1-40,3.09c-8.81-4.49-19.78-22.27-30.91-50.07-15.9-39.73-34.37-163.42-36.62-178.77l.69-.67Z"/>
    <path d="M1849.05,2283c-25.32,3.21-47.67,5.91-68.3,8.24l-2,.21c-22.75,2.47-44.25,4.8-68.15,6-23.17,1-47.45,2.71-71,4.38l-15.31,1.07-6.47.46c-26.51,1.87-53.93,3.8-81.34,5.15-17.37.85-31.74,1.16-45.24,1-14.55-.21-28.45-.82-44.84-1.69-26.56-1.47-53.22-3.35-79-5.18l-8.61-.61-43.36-2.94-43.67-2.39c-29.87-2.15-58.91-5.57-87-8.87l-1.4-.16c-31.93-3.85-65.8-8.24-109.83-14.25l-6.2-.85,3.23,5.37c24.45,40.66,48.2,80.93,70.6,119.7,28,48.53,64.49,112.73,98.53,179,6.08,11.58,12,23.67,17.68,35.36,1.76,3.6,3.51,7.2,5.24,10.72l21.55,46.85,121.48,264.89.56,1.23,1.29.4c3.48,1.06,7.17,2,11,2.83a232.71,232.71,0,0,0,25.09,3.86,510,510,0,0,0,53.67,2.41h0a512.39,512.39,0,0,0,53.67-2.43,233.32,233.32,0,0,0,25.09-3.87c3.85-.83,7.55-1.78,11-2.84l1.29-.39,122-266.11,21.51-46.78q2.64-5.37,5.26-10.75c5.7-11.68,11.59-23.75,17.71-35.42,34-66.28,70.53-130.45,98.51-178.94,22.42-38.82,46.16-79.08,70.56-119.65l3.22-5.36-6.19.84C1895.48,2276.89,1872,2280,1849.05,2283Zm-351.72,656.17a506.46,506.46,0,0,1-53-2.37,228.73,228.73,0,0,1-24.45-3.76c-3.18-.69-6.27-1.47-9.21-2.32L1289.71,2667l-21.58-46.92c-1.76-3.58-3.51-7.18-5.26-10.77-5.73-11.72-11.64-23.84-17.76-35.5-34.09-66.37-70.63-130.64-98.66-179.22-21.4-37-44.07-75.52-67.43-114.43,41.06,5.58,73.23,9.74,103.73,13.42l1.41.16c28.14,3.31,57.24,6.73,87.3,8.89l43.68,2.4,43.31,2.94,8.46.6c25.85,1.83,52.59,3.72,79.26,5.19,16.47.87,30.44,1.49,45.08,1.7,13.63.17,28.12-.14,45.61-1,27.5-1.35,55-3.29,81.56-5.16l6.38-.45,13.7-1,1.63-.12c23.44-1.66,47.68-3.37,70.79-4.37,24.11-1.21,45.68-3.55,68.51-6l2-.22c20.64-2.33,43-5,68.4-8.25,21.08-2.71,42.63-5.56,65.71-8.69-23.31,38.83-46,77.28-67.4,114.38-28,48.56-64.54,112.81-98.64,179.18-6.13,11.68-12,23.82-17.78,35.55-1.74,3.58-3.49,7.16-5.28,10.8L1704.88,2667,1584,2930.63c-2.91.85-6,1.63-9.21,2.33a229.53,229.53,0,0,1-24.45,3.76A503.23,503.23,0,0,1,1497.33,2939.12Z"/>
    <path d="M1353.44,1053.17l81.28,3.63c-14.22,13.1-66.46,61.49-83.64,81.12-3.2,3.66-7.3,8.09-11.63,12.79-20.44,22.13-48.43,52.44-52.64,74.76-1.44,7.64,1,26.9,5.09,33.43,11.57,18.65,48.42,42.27,66.29,52.15,20,11.07,37.23,16.93,54.19,18.43.07,0,6.77.57,14.3.57,14.94,0,18.9-2.19,20.58-3.83a35.92,35.92,0,0,0,6.22-8.63c2.94,14.08,8.55,40.68,11.2,51.53.87,3.58,1.87,7.78,3,12.39,5.51,23.26,13.07,55.11,20.12,72,6.55,15.71,22.86,44,47.18,81.82,8.38,13,33.14,50.93,35.94,55.21l1.42,2.18,5-3.28-1.37-2.09c-.23-.35-27.13-41.51-36-55.26-24.13-37.53-40.28-65.5-46.69-80.89-6.86-16.45-14.36-48-19.83-71.09-1.1-4.62-2.1-8.84-3-12.43-3.25-13.26-11-50.38-12.86-59.49,7.34-19.77,9.67-45.49,9.8-47,3.52-40.24,6.66-159.4,6.79-164.45l0-1.33-1-.93c-3.65-3.5-10.38-10.12-12.49-12.74-4.69-5.85-16.24-24.71-17.8-27.28l.15-3.32-88.88-4c-20.82-13.38-37.82-24.51-53.44-35-22-14.8-47.46-32.17-72.28-51l-2-1.56c-11.45-8.8-22.27-17.12-34.26-29.11-10.88-11.52-20.74-22.73-30.14-34.28-16.48-20-33.15-41.58-54.07-70-18.18-24.8-34.71-48.41-50.55-72.16-9.13-13.68-17-25.89-24-37.34-6.85-11.08-14.91-24.49-22.73-39.89a229.6,229.6,0,0,1-9.78-22.12c-2.5-6.45-5-13.21-7.8-21.26-4.32-12.33-8.64-25.25-14-41.9-5-15.52-10.13-32.14-16.69-53.8L976,453.1l25-158.28,37.55-220,4.92-29.93-5.92-1-4.92,29.92-37.56,220-25,158.31L956.6,536.7c-11.52,14.34-25,31.27-38.11,48.63-7.51,9.94-16.15,21.59-23.37,32.66l-2.38,3.8L885,634.93l-10,17.88c-13.43,24.51-26,49.27-37.27,73.59-9.65,21-21.69,48.37-29.31,74.44l-2.25,8.75-2.32,10.26L799.4,840.1c-3,14.33-5.52,27.47-7.63,40.2-4.73,29.37-7.19,55.52-7.52,79.9-.28,12.57.11,25.5,1.18,39.58.12,1.28.24,2.56.35,3.84.47,5.14,1,10.46,1.75,15.63l.65,4.85c.06.41.12.86.18,1.33l0,.15c.18,1.43.31,2.38.46,3,.18,1.09.45,2.33.76,3.6.21,1,.52,2.19.81,3.31l.26,1c2.74,10.06,6.59,21.63,12.49,37.5,4.24,11.42,9,23.62,15.09,38.43l7.49,18.33-143.13,41.44,1.67,5.77,146.25-42.35,20.1-4.64c62-14,122.79-27.63,184.19-39.52,12.73-2.41,29.65-5.5,47.58-8.12Zm98,254.45c-2.39,6.12-5.17,11.21-8.34,14.31-2.27,2.22-17.8,2.66-30.16,1.57-16.1-1.42-32.56-7-51.82-17.7-20.22-11.18-54-33.73-64.09-50.06-3.17-5.11-5.46-23-4.29-29.15,3.89-20.64,31.2-50.21,51.14-71.81,4.36-4.71,8.47-9.17,11.75-12.91,17.34-19.82,71-69.44,84-81.42,3.87,6.28,12.46,20,16.52,25.09,2.44,3,9.38,9.8,12.07,12.4-.35,13.12-3.39,124.5-6.74,162.77-1.11,12.71-4.28,31.21-9.4,45.15l-1,.2ZM831.59,1129.23l-7.79-19.06c-6-14.74-10.8-26.89-15-38.25-5.83-15.7-9.63-27.1-12.31-37l-.27-1c-.27-1-.55-2.06-.75-3-.31-1.25-.54-2.39-.71-3.4l0-.2c-.1-.39-.26-1.59-.37-2.48l0-.16c-.07-.49-.13-1-.19-1.38l-.65-4.88c-.79-5-1.26-10.26-1.71-15.31-.12-1.29-.24-2.57-.35-3.8-1.06-13.84-1.44-26.58-1.16-39,.32-24.11,2.76-50,7.44-79,2.1-12.64,4.58-25.7,7.58-39.91l4.41-20.21L812,811l2.2-8.57c7.48-25.6,19.42-52.74,29-73.51,11.25-24.19,23.72-48.83,37.08-73.2l10-17.8,5.1-8.74,2.53-4.27,2.31-3.69c7.08-10.86,15.65-22.41,23.09-32.28,12-15.9,24.26-31.32,35-44.67,5.88,19.35,10.64,34.65,15.27,49.11,5.36,16.69,9.69,29.66,14,42.06,2.84,8.1,5.34,14.91,7.86,21.42a236.72,236.72,0,0,0,10,22.7c7.92,15.59,16.06,29.13,23,40.31,7.06,11.5,15,23.77,24.14,37.52,15.89,23.83,32.47,47.5,50.7,72.38,21,28.54,37.73,50.21,54.27,70.27,9.49,11.66,19.44,23,30.47,34.66,12.34,12.33,23.3,20.76,34.91,29.69l2,1.57c25,18.95,50.56,36.37,72.58,51.22,14,9.42,29.13,19.33,47.12,30.93l-216.17,24.06-46.82,5.23c-18.13,2.65-35.14,5.76-47.94,8.18-61.5,11.9-122.31,25.5-184.4,39.56Z"/>
    <path d="M1498,1054.15h0a4,4,0,0,0,2.82-1.16,4.11,4.11,0,0,0,1.21-3,4,4,0,0,0-4-3.93h-.14a4,4,0,0,0,.12,8.09Z"/>
    <path d="M2287.24,2200.56a6,6,0,1,0,6-6A6,6,0,0,0,2287.24,2200.56Z"/>
    <path d="M705.38,2198a7.87,7.87,0,1,0,7.87,7.87A7.88,7.88,0,0,0,705.38,2198Z"/>
    <polygon points="752.86 2207.25 751.63 2213.12 853.22 2234.48 965.71 2255.78 966.83 2249.88 854.39 2228.59 752.86 2207.25"/>
    <path d="M2247.24,2212.46l-1.38-5.84-2.43.58c-.77.19-78.37,18.54-102.12,22.92-28.15,5.2-106.86,17.59-107.65,17.71l-2.47.39.93,5.93,2.6-.41c8.19-1.29,80.71-12.74,107.68-17.72,23.86-4.4,101.63-22.8,102.41-23Z"/>
    <path d="M2422.6,2325.74c-6.61-11-23.72-26-36.23-37-2.55-2.24-4.88-4.29-6.83-6.05-12.53-11.32-52.5-42.92-52.9-43.23l-1.49-1.19L2305.6,2248l-15.45,4.57-20.56-4.75-.9,2.51c-.2.56-20.17,56.23-27.36,74.47-3.68,9.31-9.46,21.89-15.59,35.2-10.79,23.45-23,50-27.63,67.34-.58,2.18-1.44,5-2.35,7.9-4.83,15.64-11.45,37.07-3.25,46.32,2.08,2.35,5.83,3.54,11.15,3.54a58.38,58.38,0,0,0,16.36-2.68c11.88-3.9,33-19.46,41.1-30.26,6.86-9.14,12.37-28.58,16.39-42.78.79-2.81,1.52-5.37,2.16-7.52,2.88-9.6,7.8-28.9,9.14-38.7,1.52-11,2.54-31.28,3.22-51.24.45,4.79.87,9,1.23,12,.89,7.64,2.62,18.29,4.45,29.55,2.58,15.88,5.24,32.3,6,42.83,1.16,16.1,2.46,47.4,0,62.59-1.4,8.71-6.83,23.4-11.19,35.2-2,5.39-3.88,10.49-5.16,14.41-4.63,14.18-18.64,57.43-18.73,57.72l-.77,2.38,5.71,1.84,1.21-3.74c9.09-28.07,15.59-48.08,18.29-56.34,1.24-3.8,3.1-8.85,5.09-14.21,4.68-12.67,10-27,11.47-36.31,2.52-15.72,1.21-47.61,0-64-.77-10.79-3.46-27.33-6.07-43.42-1.81-11.18-3.53-21.73-4.4-29.22-1.7-14.65-5-55-5.79-65.42l11-3.24c2.62,13.36,12.44,63.64,15.34,82.18,2.75,17.54,7.11,53.3,9,71.22,2.16,20.18,6.48,72.33,8.86,101.61.08.92.13,1.56.16,1.88l-5.94,66.95,6,.53,6-67.46,0-.21c-.06-.77-6.3-78.23-9-103.94-1.92-18-6.3-53.87-9.06-71.51-1.75-11.17-6-33.85-9.69-53.07,7.17,17.82,15.92,38.52,21.52,48.1,7.57,13,25.32,40,38.26,49.57,5.67,4.19,18.94,10.27,26.85,10.27q.49,0,1,0c5.54-.37,14.9-5.78,18.69-9.94,4.44-4.89,9.49-16.93,9.83-23.42C2432.53,2348.6,2426.67,2332.54,2422.6,2325.74Zm-43.28,49.9c-12.16-9-29.29-35.19-36.65-47.78-9.28-15.89-27.69-63.74-32.2-75.59l14-7c7.64,6,40.08,31.84,51.1,41.8,2,1.77,4.31,3.83,6.89,6.1,12.2,10.73,28.92,25.42,35,35.63,3.66,6.09,9,21,8.64,28.2-.26,5-4.83,15.89-8.29,19.7-2.79,3.08-10.84,7.73-14.65,8C2397.33,2385.11,2384.55,2379.5,2379.32,2375.64Zm-92.1-117.59c-.17,14.39-1.13,80.82-4.35,104.29-1.31,9.5-6.12,28.38-8.94,37.79-.66,2.18-1.39,4.78-2.2,7.63-3.67,13-9.22,32.55-15.41,40.8-7.26,9.68-27.59,24.68-38.17,28.16-7.48,2.46-18.94,3.35-21.15.86-6-6.72.58-27.91,4.5-40.57l0-.13c.95-3.09,1.77-5.75,2.37-8,4.47-16.8,16.59-43.14,27.3-66.4,6.16-13.39,12-26,15.7-35.48,6.38-16.17,22.76-61.67,26.53-72.13Z"/>
    <path d="M698.24,2255.45v-.11l-.22.06-.67-.14-.22-.17h-.54l-12.66-2.74-16.76-3h0l-2.4-.43-.18,1c-3.92,2.11-13.39,10.7-45.09,42.38l-.16.16c-3.82,3.81-6.84,6.82-8.32,8.26-13.68,13.19-34.3,44.53-44.58,62.56-9.57,16.8-21,39.61-21.25,52.89-.16,9.56,6.43,27.53,12.6,34.34,5.76,6.36,20.88,14.43,29.66,14.43h.47c6.66-.23,17.38-6.69,23.31-12-1.63,12.79-2.27,32.25-2.67,44.49l-.2,6.07c-.79,23.23-2.25,66.45.12,88.27,1.47,13.47,11.42,52.31,11.84,54l1-.25h0l-1,.25.63,2.42,5.81-1.5-.62-2.42c-.11-.4-10.26-39.94-11.69-53.12-2.33-21.41-.87-64.36-.09-87.44l.16-5c2.39,7.83,5.39,16,8.08,23.27,2.3,6.24,4.48,12.13,5.84,16.67.88,2.91,2.06,6.46,3.39,10.34l-.4,1.27.94.3c.66,1.91,1.35,3.88,2,5.9,4.72,13.59,10.08,29,11.63,38.31,4.08,24.4,8.27,99.06,8.31,99.81l.14,2.49,6-.33-.14-2.5c0-.75-4.25-75.71-8.38-100.45-1.64-9.82-7.08-25.47-11.89-39.31l-.5-1.45.06,0c4,1.49,7.55,2.78,10.79,2.78,4.54,0,7.72-2.54,9.73-7.77,10.45-27.24,13.61-73.14,16.14-110v-.18c.19-2.71.37-5.37.56-8,1.18-16.89,7.53-61.08,13.14-100.07,7.06-49.07,9.87-69.35,9.22-72.35l-.12-.56.26-1.22Zm-64.07,281.49c-1.42-4.73-3.63-10.72-6-17.07-5.38-14.58-12.06-32.71-12.11-43.69,1.41-13.68,17.68-65.68,37.16-118.7,20.82-56.67,33.42-82.56,39.55-92-1.38,12.28-5.11,38.22-8.74,63.48-5.62,39.1-12,83.41-13.19,100.51-.18,2.62-.37,5.29-.55,8l0,.19c-2.5,36.48-5.62,81.88-15.75,108.28-1.94,5.06-3.72,4.87-12.85,1.51-1.48-.55-3-1.11-4.64-1.66C635.93,2542.48,634.93,2539.45,634.17,2536.94Zm51.22-278.12,4.3.93c-2.76,3.53-6.36,9.63-11.35,20Zm-20.09,40.9.36-1.91c3.88-20.42,6.36-34.15,5.81-41.56l8,1.41Zm.27-43.31c.59,6.62-3.35,27.35-5.8,40.28-2.74,14.42-5.32,28-5.43,35.42s-7.59,23.62-13.06,35.4c-3.35,7.22-6.24,13.45-7.66,17.77-1,2.91-2,6.46-3.21,10.27-.87,2.86-1.8,5.89-2.78,9H627v2c-4.87,15.3-10.91,32.11-17.8,40-4.4,5-16.05,12.24-21.49,12.42h-.28c-6.65,0-20.55-7.31-25.21-12.46-5.19-5.73-11.18-22.11-11-30.21.16-9.51,7.24-26.81,20.47-50,10.09-17.72,30.27-48.43,43.52-61.21,1.57-1.52,4.81-4.75,8.59-8.53C632.63,2287.7,658,2262.34,665.57,2256.41Zm-43.18,388.86.28-.07h.06Z"/>
  </g>
</svg>
