<svg xmlns="http://www.w3.org/2000/svg" viewBox="0 0 2994.91 3000">
  <title>72Icon_neon 1</title>
  <g>
    <g>
      <polygon points="428.41 2945.87 462.65 2901.7 463.44 2902.32 428.45 2945.91 428.41 2945.87"/>
      <polygon points="428.85 2949.4 424.95 2946.34 426.43 2944.34 462.22 2898.18 466.97 2901.92 428.85 2949.4"/>
    </g>
    <polygon points="2395.4 346.41 2396.33 347.14 2397.49 345.66 2799.06 200.78 2797.19 195.6 2404.13 337.16 2588.58 101.19 2584.33 97.85 2393.53 340.98 1966.43 494.79 1964.7 492.72 1963.89 495.7 1960.43 496.95 1962.78 499.78 1961.97 502.78 1964.51 501.86 2135.39 706.68 2135.28 706.83 2135.84 707.23 2344.83 957.75 1829.83 1086.36 2077.97 788.98 2079.57 787.06 2074.96 783.21 1819.96 1088.83 1347.72 1206.76 1346.34 1204.38 1345.06 1207.43 1341.66 1208.28 1343.42 1211.3 1342.14 1214.34 1344.81 1213.67 1537.08 1543.43 1536.73 1543.95 1537.8 1544.66 1749.36 1907.52 1204.28 1972.43 1471.15 1631.9 1466.42 1628.2 1195.88 1973.43 766.53 2024.56 765.07 2022.37 763.92 2024.87 759.85 2025.35 762.1 2028.74 762.12 2028.77 760.97 2031.26 763.58 2030.95 942.37 2299.41 942.17 2299.66 942.93 2300.26 1229.5 2730.56 519.26 2845.89 882.04 2382.8 877.32 2379.11 510.52 2847.31 201.43 2897.5 198.96 2897.91 199.92 2903.83 512.02 2853.15 512.98 2853.9 513.8 2852.86 1233.16 2736.05 1234.63 2738.26 1235.77 2735.62 1239.66 2734.99 1237.48 2731.72 1238.63 2729.08 1236.01 2729.51 949.79 2299.74 1145.02 2056.04 1140.33 2052.29 946.3 2294.5 770.25 2030.16 1197.3 1979.3 1198.29 1980.08 1199.06 1979.09 1752.66 1913.17 1754 1915.47 1755.31 1912.85 1759.15 1912.4 1757.2 1909.04 1758.5 1906.43 1755.86 1906.75 1544.15 1543.65 1787.41 1180.66 1788.8 1178.58 1783.82 1175.24 1540.79 1537.89 1350.87 1212.16 1821.49 1094.63 1822.34 1095.34 1823.31 1094.17 2349.1 962.86 2350.79 964.89 2351.66 962.23 2355.56 961.25 2352.98 958.16 2353.85 955.49 2351.29 956.13 2142.96 706.4 2347.6 420.18 2342.72 416.69 2138.99 701.64 1970.52 499.69 2395.4 346.41"/>
  </g>
</svg>
