<svg xmlns="http://www.w3.org/2000/svg" viewBox="0 0 2994.91 3000">
  <title>86Icon_neon 1</title>
  <g>
    <path d="M2219.28,194.59,2172.13,65,1783.29,206.57l-1.4.51-295.11,966.41,227.39,624.77,3,8.35L2219,195.55ZM2168.54,72.73l44.41,122L1716.77,1787.85,1493.1,1173.32,1786.75,211.7Z"/>
    <path d="M2323.38,520.07l-3-8.16L2122,1118.36l-.32,1,439.14,1181.47,362.64-132Zm241,1773.07L2128.07,1119.22l192.65-588.94,595.08,1635Z"/>
    <path d="M1300.19,1240.52l-839-551.46-1.26-.83-387.48,141-2.82,1,45.08,123.84.28.79,1405.27,906,7.5,4.83-227.23-624.3ZM119.94,951,77.32,833.88l381.83-139,836.08,549.54L1516,1851.05Z"/>
    <path d="M784,1624.13,239.12,1266.47,840.27,2918.12l1,2.82,366.2-133.29L784.34,1625.06Zm60.88,1289.12L250.94,1281.4,779,1628.05l420.76,1156Z"/>
  </g>
</svg>
