<svg xmlns="http://www.w3.org/2000/svg" viewBox="0 0 2994.91 3000">
  <title>124Icon_neon 1</title>
  <g>
    <path d="M2189,1600.29c6.38-5.07,25.24-14.39,78.81-30,9.66-2.82,29.26-6,50-9.29,21.61-3.47,44-7.06,54.58-10.34,21.31-6.6,44.6-28.49,44.83-28.71l2.51-2.37-2.79-2.23c-3.54-2.82-34.9-27.78-45.5-36.39-4.14-3.37-9.58-7.61-15.35-12.09-15.49-12-34.77-27-44.3-37.16-16.42-17.44-43.92-57.8-55.52-81.48-14.07-28.71-29.44-92.38-34.26-125.4s-6.15-97.93-6.93-136.7l-.21-10.18c-.21-10.08-.2-23.09-.18-36.86,0-40.18.1-90.19-5.08-118.68-4.56-25.11-19-75.32-28.19-97.68-5.76-14.1-16.51-32.48-27.9-52-12-20.46-24.36-41.62-30.06-56.79-4.2-11.18-8.11-31-11.89-50.23-3.59-18.21-7-35.41-10.67-46.12-9.56-27.81-29.61-76.87-44.21-98.85-18.86-28.4-67-69.12-95.85-93.46l-3.74-3.17c-21.81-18.45-70.43-54.16-97-68.12-35.48-18.67-106.11-46.61-143.19-58.2-23.36-7.3-99.29-21-100-21.12l-4.65-.83,1.22,4.56c.25.93,25.07,93.45,41.37,120.82,21.76,36.57,82.76,109.91,116.55,140.14,31.62,28.28,96.1,66.74,143.19,94.82l.2.12c10.67,6.36,20.74,12.37,29.06,17.45,23.37,14.27,73.16,38.52,98.81,49.08,13.46,5.55,65,14.91,75.83,16.83,6.1,15.47,18.18,36.11,29.89,56.13,11.27,19.26,21.92,37.45,27.52,51.15,8.85,21.66,23.42,72.16,27.84,96.49,5.08,27.95,5,77.66,5,117.6,0,13.81,0,26.85.18,37,.07,3.13.14,6.54.21,10.19.79,38.87,2.1,103.93,7,137.43s20.48,97.94,34.81,127.17c11.8,24.09,39.81,65.18,56.54,83,9.85,10.47,29.33,25.61,45,37.83,5.72,4.45,11.13,8.65,15.2,12,9.26,7.53,33.91,27.17,42.86,34.3-6.31,5.52-24,20.08-39.9,25-10.21,3.16-32.34,6.72-53.77,10.15-20.94,3.36-40.72,6.53-50.74,9.46-30.08,8.78-68.53,21.3-80.86,31.08-10,7.94-24.3,27.69-28.33,39.14-6.73,19.13-7.86,60.54-4,79.77,2.35,11.79,16.75,38.24,22.73,48.88-15.54,1-65.79,4.35-78.22,3.82-30-1.28-67.2-12.08-97.08-20.76l-5.24-1.52c-20.52-5.94-54.94-20.14-82.6-31.55l-.22-.09c-10.34-4.26-20.11-8.29-27.68-11.28-16.93-6.67-66-26.4-71.66-28.66l-11-4.44,7.62,9.14c.31.38,32.33,38.78,42.31,48.85,25.82,26,79.75,63.61,114.89,83.46,29.8,16.84,98.49,44.6,128,56.28-20.6.82-59.42,1.89-79.23-.62-54.17-6.85-158.89-23.58-207.78-42.82-69.07-27.18-196.38-87.83-244-134.86-39.26-38.81-96.62-131-117.93-181.47-20.78-49.24-46.27-155.24-55.4-209.57-4.58-27.27-8.36-109.93-8.64-116,.65-4.52,10.46-72.82,16-96,5.44-22.79,27.53-89.16,29.73-95.75,5.5-6.75,86.32-105.65,107.39-122.95,85.83-70.46,187.56-102.08,188.58-102.4l8.41-2.57-8.23-3.1c-.31-.12-31.3-12-68.72-41.28a358.16,358.16,0,0,1-112-149.88c-48.23-121.41-62-272.61-62.13-274.12l-.29-3.27-3.23.58c-1.42.26-143.33,25.89-230.78,60.1C1157.64,385.43,1011,529.39,1008,532.41c-1.1,1-15.41,14.36-32.66,46.11-18.39,33.87-27.06,59.39-27.68,61.25-2.14,5.34-98.78,246.28-120,338.51-14.1,61.33-23.95,182.15-33.48,299-8,98.49-15.61,191.53-25.19,243.2C749.72,1624.44,705.3,1761.24,655.83,1869c-35.14,76.6-193.55,290.52-195.14,292.67l-1.42,1.9,1.53,1.82c.93,1.1,93,110.06,111,126.67,89.06,82,225.94,194.53,331,261,96.58,61.07,312.33,144,432.34,187.93,116.71,42.76,346.8,94.56,484.28,125.5l29.52,6.66c62.49,14.11,298.34,56.93,300.72,57.36l7.48,1.36-4.54-6.1c-.65-.88-65.15-87.65-74.34-110.53-11.2-27.89-36.15-110.13-36.4-111l-.4-1.32-1.26-.55c-1.57-.68-157.64-69.19-245-124.45-92-58.17-194.51-126.06-257.51-188.55-6.09-6-12.69-12.56-19.69-19.47l-.79-.78c-87.2-86.06-233.15-230.1-276.44-325.49-45-99.2-80.79-301-86.61-402-5.39-93.56,59.22-382.85,59.87-385.76l.68-3-3-.6c-.6-.12-61.15-13-136.85-73.49-58.69-46.89-86.38-129.93-99.28-191.33-17.47-83.18-21.79-328.77-22-344.25a385.63,385.63,0,0,1,27.1-61.83c12.91-23.77,24.09-36.9,28.93-42,6.41,10,27.35,42.62,41.82,64.24,61,91,101.24,126.5,144,164.08,7.84,6.89,16,14,24.18,21.51,50.09,45.54,187.23,184.8,201.88,199.69-3.54,10.65-24.24,73.15-29.46,95-5.4,22.63-14.7,86.88-16.05,96.25-4.13,7.43-50.74,91.35-61.94,115.5-17.14,36.95-27.7,90.28-31.54,124.72-9.18,82.49-7.72,246,7.86,325.39,17.13,87.28,72.7,255.85,124.25,332.1,30.15,44.59,84,106.8,151.7,175.18,62.25,62.9,126.6,121.08,172.15,155.65,101.31,76.89,326.78,197.28,440.3,241.91,54.32,21.36,221.26,52.95,222.94,53.27l5.57,1-2.26-5.19c-1.75-4-175.13-403.37-221.42-550.18-16.89-53.57-65-253.85-71-278.74l5.91-.29-6.6-2.58-.06-.26-1.12-1.28-.57-.22c-1-.39-102.68-39.78-140.35-61.06-34.79-19.66-88.12-56.78-113.58-82.47-6.78-6.84-24.26-27.41-34.27-39.29,17.49,7,48.08,19.29,60.58,24.22,7.62,3,17.43,7.05,27.81,11.33,27.79,11.46,62.38,25.73,83.22,31.76l5.24,1.52c30.19,8.77,67.76,19.68,98.5,21,15.12.65,83-4.11,83.65-4.15l4.79-.34-2.4-4.16c-.22-.37-21.75-37.81-24.42-51.21-3.69-18.52-2.64-58.3,3.8-76.6C2166.12,1626.69,2180.18,1607.28,2189,1600.29Zm-144.07-903c-25.45-10.48-74.83-34.52-98-48.65-8.46-5.17-18.6-11.21-29.33-17.61-46.87-27.95-111.06-66.24-142.25-94.13C1741.92,507,1681.52,434.37,1660,398.18c-13.81-23.2-34.21-95.55-39.48-114.72,16.85,3.09,75,14,94.65,20.08,36.84,11.52,107,39.27,142.19,57.79,26.2,13.77,74.29,49.12,95.89,67.39l3.75,3.17c28.55,24.13,76.33,64.5,94.73,92.2,14.3,21.54,34.07,70,43.53,97.48,3.55,10.32,6.9,27.32,10.45,45.33,3.34,16.93,6.77,34.37,10.49,46.28C2101.46,710.51,2056.73,702.18,2044.92,697.31ZM2180.84,2645c-113.18-44.5-337.92-164.49-438.87-241.11-92.25-70-259.19-235.77-322.51-329.42-51.13-75.62-106.3-243.11-123.33-329.89-15.49-78.86-16.92-241.49-7.79-323.56,3.79-34,14.18-86.57,31-122.87,9.32-20.09,43.28-81.76,56.89-106.35,1.23,24.83,4.42,83.74,8.23,106.45,9.18,54.62,34.84,161.28,55.8,210.91,21.51,51,79.5,144.14,119.24,183.41,48.23,47.66,176.48,108.82,246,136.18,49.45,19.46,154.78,36.3,209.23,43.19,25.24,3.19,79.19.77,91.86.14,5.72,23.89,54,225,71.15,279.26,43.71,138.62,199.4,499.4,219.38,545.55C2366.23,2691,2229,2664,2180.84,2645Zm-705.72-2348c2.22,21.74,17.71,160.5,62.22,272.52A364.09,364.09,0,0,0,1651.24,722a328.64,328.64,0,0,0,62.92,39c-24.83,8.63-109.94,40.92-183.11,101-20.44,16.79-92,103.88-106.46,121.63-18.56-18.86-151.81-154.07-201.06-198.85-8.27-7.52-16.4-14.67-24.32-21.63-42.36-37.26-82.36-72.45-142.88-162.86-15-22.43-36.85-56.48-42.44-65.23,16.42-16,151.64-146.24,234.78-178.77C1328.07,325.18,1454.57,300.89,1475.12,297.06Zm-267.6,960.39c-6.66,30.06-64.54,294.87-59.37,384.53,5.85,101.49,41.83,304.34,87.14,404.17,43.75,96.4,190.19,240.93,277.69,327.28l.51.51c7.1,7,13.79,13.61,20,19.73,63.4,62.9,166.27,131,258.53,189.36,83.66,52.9,229.5,117.68,244.55,124.32,3.15,10.33,25.62,83.84,36.18,110.13,8,20,55.79,85.66,70.58,105.77-42.9-7.81-236.86-43.27-293-55.95l-29.53-6.66c-137.33-30.91-367.18-82.66-483.53-125.28-119.79-43.9-335.1-126.6-431.2-187.37-104.73-66.23-241.27-178.46-330.13-260.3-16.38-15.08-97.31-110.54-109-124.32,15.76-21.35,160.69-218.43,194.37-291.83C711,1763.33,755.53,1626,774.88,1521.6c9.64-51.95,17.23-145.13,25.28-243.83,9.5-116.63,19.33-237.23,33.34-298.14,17-74.16,81.45-239.7,112.35-317.26,1.58,60.91,8.77,254.62,23.83,326.33,13.1,62.36,41.32,146.78,101.4,194.78h0C1138.7,1237.51,1194.25,1254.07,1207.52,1257.45Z"/>
    <path d="M1534.72,175.93l-2.78,45.77,19.7-.86Zm4.29,28.4,4.09,10.88-4.77.2Z"/>
    <path d="M1737.19,93.77l-13.7,137.32L1764,249Zm19,145.22-26.33-11.63,8.9-89.16Z"/>
    <path d="M1699,1127.77l.39,6.44c2.12,35.68,19.05,72.77,47.67,104.42,29.69,32.85,70.43,57.66,114.76,69.87,31.85,8.18,59.18,12.32,81.24,12.32,23.85,0,41.33-5,52-14.72,7.88-7.24,11.24-15.71,9.73-24.48-1.88-10.92-11.49-21.29-25.08-27.07l-.65-.19c-13.86-2.47-27.88-2.91-42.72-3.38-26.46-.83-53.82-1.7-79.66-15.12l-.36-.15c-47.86-15.88-80.81-44.26-112.7-71.73-12.62-10.87-25.66-22.11-39.4-32.36Zm292,173.92c-23.74,21.81-82.51,12.58-127.6,1-84.33-23.24-149.56-90.86-157.42-162.21,11.65,9,22.85,18.66,33.73,28h0c32.26,27.8,65.63,56.54,114.44,72.77,26.92,13.93,54.91,14.81,82,15.67,14.49.45,28.18.89,41.51,3.22,11.57,5,19.68,13.59,21.21,22.44C2000,1289.3,1997.24,1295.89,1990.94,1301.69Z"/>
  </g>
</svg>
