<svg xmlns="http://www.w3.org/2000/svg" viewBox="0 0 2994.91 3000">
  <title>80Icon_neon 1</title>
  <g>
    <path d="M2496.1,310.21c-10.46-8.15-116.8-78.91-225.39-139.54-118.95-66.42-224.56-114-237-118.68-37.87-14.1-48.13-11.38-92.15,54-17.79,26.45-41.37,113.49-41.61,114.36l-.61,2.26L2396.75,500.4l24.57,13.72,1.6-1.7c.62-.67,62.35-66.41,75.53-95.43C2531,345.21,2528,335.05,2496.1,310.21ZM2031.57,57.62c12.41,4.62,117.56,52,236.21,118.29,108.33,60.48,214.23,130.93,224.63,139,29,22.61,32.9,28.38.58,99.57-11.53,25.38-63.57,82.08-72.85,92.08L1906.32,219.68c3.65-13.13,24.63-87.21,40.18-110.32C1990.15,44.5,1997.11,44.78,2031.57,57.62Z"/>
    <path d="M1852.22,346.72l-1.55,2.25c-12.7,18.51-22,31.34-27.77,38.11-30.44,36.05-83.32,84.69-134.45,131.73-53.69,49.37-109.19,100.43-140.74,138.57-37.65,45.52-109,147.17-135.23,202.83-18.39,39.09-34.61,103.27-50.31,165.35-14.31,56.63-27.83,110.11-42.66,145.14-38.3,90.55-136.49,262.78-190,340.26-27.82,40.28-77.75,95.6-126,149.11-51.8,57.39-105.37,116.74-134.41,160.26-41.66,62.45-98.3,179.61-143.81,273.75-14.31,29.61-27.83,57.58-38.81,79.47-49.72,99.12-190.63,394.41-192,397.37l-.66,1.39.73,1.34c.1.17,9.82,17.54,52.87,53.12,39.45,32.61,116.13,88,257.35,166.88s228.63,115.06,277.09,131.55c48,16.32,68.64,17.15,72.29,17.15h.66l1.54-.09.83-1.29c1.77-2.77,178-277.56,236.62-372.48,12.87-20.82,29.59-47,47.3-74.75,56.26-88.13,126.29-197.8,157.59-266,21.82-47.55,44.24-124.29,65.94-198.56,20.21-69.16,41.1-140.67,60.8-185.48,37.88-86.2,133-260.14,190-340.26,22-31,60.49-70.58,101.19-112.47,44.61-45.92,90.74-93.41,114.37-129.57,33.65-51.49,82.73-165.6,101.73-221.54,15.92-46.85,30.27-120.88,44.15-192.51,13.21-68.21,26.88-138.73,41.6-183.57,2.76-8.44,8.78-23.12,17.87-43.64l1.11-2.5L1854.21,347.83ZM1083.5,2919.45c-48.21-16.41-135.21-52.47-275.9-131s-217-133.71-256.3-166.14c-35.58-29.39-47.8-45.78-50.79-50.26,10.08-21.13,143-299.63,191.28-395.78,11-21.93,24.53-49.92,38.85-79.55,45.43-94,102-210.93,143.4-273,28.8-43.16,82.22-102.34,133.89-159.59,48.42-53.64,98.48-109.1,126.52-149.7,54-78.19,151-247.87,190.59-341.33,15-35.46,28.58-89.16,43-146,15.63-61.79,31.78-125.69,49.92-164.26,26-55.24,97-156.27,134.43-201.55,31.28-37.83,86.64-88.75,140.17-138,51.27-47.16,104.29-95.93,135-132.27,5.61-6.64,14.55-18.86,26.58-36.33l475.57,265.56c-8.56,19.4-14.27,33.42-17,41.69-14.84,45.19-28.54,115.91-41.79,184.3-13.84,71.4-28.15,145.24-43.94,191.72-18.9,55.65-67.67,169.08-101.07,220.19-23.31,35.67-69.23,82.94-113.65,128.67-40.86,42.06-79.46,81.79-101.78,113.17-58.81,82.68-152.36,254.33-190.6,341.32-19.85,45.18-40.8,116.9-61.08,186.31-21.62,74-44,150.51-65.61,197.65-31.13,67.86-101,177.34-157.2,265.3-17.73,27.78-34.49,54-47.35,74.82-56.32,91.14-221.4,348.74-235.68,371C1147.58,2936.15,1127.4,2934.4,1083.5,2919.45Z"/>
  </g>
</svg>
