<svg xmlns="http://www.w3.org/2000/svg" viewBox="0 0 2994.91 3000">
  <title>146Icon_neon 1</title>
  <g>
    <path d="M702.33,1724.85c41.19,5.78,82,12.5,121.47,19,56.9,9.38,115.74,19.07,175.64,25.89,144,16.37,329.42,31.38,522.22,42.27,211.67,11.94,419.05,18.26,599.73,18.26,72.75,0,141.43-1,204.12-3.07l3.59-.12-73.47-339,64.62-480.66.21-1.54-144-134.56,223,80.13.42.15,473.56-4L1667.35,565.22l-1.59-.5L902.31,1217.33l-3.48,3,196.37,95.34-376.94-14.12-2.28-.08L590.31,1700.52l-1,3.23,112.93,21.08Zm421.16-402.13L909.7,1218.91l757.43-647.47L2835.69,941.92l-434.77,3.68-249.83-89.76,163,152.32-64.5,479.74,0,.44,72.16,333c-61.64,2-129,3-200.33,3-405,0-865.13-31.36-1121.26-60.5-59.78-6.8-118.55-16.48-175.39-25.85-39.48-6.5-80.29-13.23-121.49-19l-106.19-19.83,123.27-391.48Z"/>
    <path d="M2694.91,2028.49l-.1-.12c-79.38-86.55-160.68-122.92-282.94-159.75l-4.7-1.41,36.76,200.1c-30.86,12.85-146.47,22.12-318.62,25.5-180.38,3.54-399.16.48-616-8.64-246.32-10.35-470.07-27.7-647-50.17-207.49-26.35-346.07-58.75-412-96.33L527.54,1707l-4.66.51c-51.65,5.61-161.08,26.2-194.73,38-8,2.82-16.67,5.73-25.83,8.82-83,28-208.5,70.41-253.71,160.6l-.07.17c-12,29.14-11.78,59.11.72,89.09,19.17,46,67.17,92.5,142.65,138.29,67.82,41.13,141.12,71.22,165.21,81.11,200.19,82.18,428,123.47,669.2,167.17l2.39.44q28.07,5.09,56.44,10.25l.22,0,312,27.9c61.75,9.75,129,11.07,186.56,11.07,22.19,0,44.69-.23,66.45-.44,22-.23,44.82-.45,67.27-.46l180.58-2.53h.09l222-17.78.23,0c25.84-4.49,52.54-8.82,80.86-13.42,95.94-15.57,204.68-33.22,298.58-61.21,108.05-32.21,180.35-73.34,221-125.75,25.72-33.13,33.91-66.34,25-101.54C2737.8,2084.7,2715.57,2054.11,2694.91,2028.49ZM1398.18,2423.38l-312.11-27.92q-28.58-5.22-56.88-10.33l-1.8-.33c-240.87-43.65-468.39-84.88-668-166.82-24-9.85-96.95-39.8-164.36-80.69-74.38-45.12-121.56-90.69-140.23-135.47C43,1973.4,42.69,1945,54,1917.44c44.13-87.9,168.14-129.77,250.24-157.49,9.19-3.1,17.86-6,25.87-8.84,32.11-11.24,135.93-30.94,188.73-37.16L443,1940.4l2.1,1.23c65.72,38.5,205.8,71.58,416.34,98.32,177.15,22.5,401.07,39.86,647.56,50.22,217,9.12,435.93,12.19,616.41,8.64,177.23-3.48,295-13.33,323.19-27l2.05-1-35.82-195c118.58,36,198,72.1,275.46,156.55,41.36,51.31,80.86,112,25.92,182.75-39.89,51.39-111.21,91.84-218,123.68-93.52,27.88-202.06,45.5-297.83,61-28.24,4.58-54.92,8.91-80.76,13.4L1898,2431l-180.43,2.53c-22.33,0-45.14.23-67.28.46C1564.66,2434.8,1476.09,2435.69,1398.18,2423.38Z"/>
  </g>
</svg>
