<svg xmlns="http://www.w3.org/2000/svg" viewBox="0 0 2994.91 3000">
  <title>150Icon_neon 1</title>
  <path d="M2180.37,1953.41c-40.7-139.76-102.33-246.12-167.58-358.74-9.89-17.06-20.11-34.7-30.3-52.54-91.53-160.34-174.58-343.44-269.26-593.71C1650,781.21,1602.54,593.83,1559.37,416.25q-31.44-132.84-62.87-265.63l-2.78-11.78-74.88,288.8c-16.25,55.63-32,112.39-47.34,167.28-42.6,153-86.65,311.2-143.75,456.12-69,175-148.67,351.21-243.69,538.7-13.67,27-27.87,53.58-41.62,79.33-56.86,106.51-110.57,207.11-137,344.93-18,93.85-19.31,186.9-3.88,276.57a747.45,747.45,0,0,0,82.26,233.76,818.36,818.36,0,0,0,139,184.33c50.91,50.88,106.91,94.11,166.43,128.49,41.13,23.75,96.7,46.79,148.64,61.62,50.06,14.29,97.23,21.53,140.2,21.53a324.42,324.42,0,0,0,46.71-3.22c99.75-14.59,176.33-27.56,253.56-61.82,63.76-28.29,128.35-73.85,186.8-131.76,60.44-59.89,113.62-132.48,153.77-209.91,44-84.83,72.28-173.84,84.06-264.56A719.68,719.68,0,0,0,2180.37,1953.41ZM1493.45,163.77q30,126.92,60.09,253.87c43.21,177.78,90.71,365.36,154.08,532.9,94.8,250.58,178,434,269.66,594.57,10.18,17.81,20.41,35.48,30.32,52.57,65.06,112.29,126.51,218.35,167,357.41,52.69,180.93,31,378.29-61,555.74-79.78,153.82-206,280.53-337.68,338.94-76.54,33.95-152.73,46.85-252,61.37a319.28,319.28,0,0,1-46,3.2c-112.94,0-232.72-51.79-285.7-82.39-223.26-129-457-420.27-380.93-816.82C837.59,1878.2,891.1,1778,947.74,1671.88c13.75-25.76,28-52.4,41.68-79.43,95.09-187.65,174.88-364,243.91-539.21,57.22-145.21,101.31-303.57,144-456.71,15.28-54.87,31.08-111.62,47.34-167.29Z"/>
</svg>
