<svg xmlns="http://www.w3.org/2000/svg" viewBox="0 0 2994.91 3000">
  <title>126Icon_neon 1</title>
  <path d="M2910.05,1782.07c-12.59-56.49-35.89-110.26-69.25-159.82-71.64-106.41-182.3-180.69-303.63-203.8l-.17,0c-87.18-10.37-182.74-5.23-276.34,14.85-91.74,19.69-180.1,53.32-255.52,97.26l-.16.1c-46.37,31.73-65.52,54.11-87.7,80-15.32,17.9-32.69,38.19-62,64.4l-1.14,1,.16,1.53c9.29,90.36,23.33,226.91,11.35,351.2-14,144.8-60.57,232.45-138.54,260.65,18.72-53.81,31.09-135.12,34.92-229.91,3.59-89.1-1-182.16-12.19-248.88-13.35-94.16-27.37-186.17-40.93-275.14l0-.1c-20.59-135.13-41.88-274.85-60.36-419.65-2-15.33-4.14-30-6.25-44.28-14.65-98.8-26.22-176.85,64-287.27,82.81-101.31,174-151.93,250.21-138.88,47.26,8.09,88.12,39.65,121.45,93.81,5.41,9.78,10.71,19.58,15.85,29.05l2.81,5.2c7.23,14.93,14.12,31.33,20.51,48.79-115.08,47.53-141.37,162.9-107.65,252.92,16.73,44.68,47,80.62,85.3,101.19a163.68,163.68,0,0,0,78.35,19.41c22.21,0,45.29-4.14,68.6-12.31l.14-.05c52.64-22.29,90-58.9,108.2-105.88,16.06-41.56,16.2-89.32.39-134.49-15.6-44.61-44.94-81.91-82.6-105-41.31-25.36-89.24-31.73-138.73-18.48-9.26-15.86-18.09-32.06-27.81-50-5.32-10.85-10.95-21.19-16.74-30.75-27.51-50-61-107-109.89-151-62.55-56.24-141.34-82.38-240.9-79.9h-.1c-149.77,8-247.61,46-317.24,123.13-30.68,34-57,76.38-82.7,133.37-23.92,53-45.7,115.07-67.76,179.38-67,197.86-109.54,424.12-123.08,654.33-14,237.85,4.32,467.89,52.92,666-71.2-71.59-132.1-200-172-363.17-35.74-146.15-50.88-309.4-39.51-426l.16-1.65-1.32-1c-111.85-86.43-221.82-141.24-326.87-162.92-94.14-19.43-182.46-12.14-262.49,21.66-75.74,32-141.93,87.65-191.39,161C155.6,1561.34,125.7,1643,116,1728.12c-8.84,77.39-.17,153.89,25.07,221.25a396.26,396.26,0,0,0,53,97.7,380.24,380.24,0,0,0,79.34,78.86c-37.13,43.51-55.64,92.64-53.56,142.24,1.89,44.91,20.69,88.1,52.93,121.59,31.27,32.5,72.14,52.74,115.08,57,5.69.57,11.45.85,17.12.85,41.61,0,82.59-15.34,118.5-44.37,40.73-29,65.88-68.56,72.74-114.31,6.13-40.88-2.81-84.8-25.18-123.67-23-39.92-57.72-70.65-97.86-86.53-44.55-17.63-92.74-15.95-139.43,4.86-49.36-21.58-82.59-95.66-80.93-180.75,1.28-65.56,26.19-144.4,92.23-169,102.66-36,278.31-17.7,421.35,107.67,98.47,86.3,116.11,239.65,133.16,388,4.92,42.7,10,86.86,17,127.71l.47,2.77,2.8-.29c41.79-4.38,81.05-8.84,119.09-13.16,140.88-16,262.55-29.82,418.29-28.39,137.47,3.23,258.09,22.06,385.79,42,37.63,5.87,76.54,12,116.54,17.72l2,.28,1-1.72c120.45-202.23,260.22-376.63,439.84-548.82,59-56.53,170-57.94,253.84-34.27,86.42,24.39,146.84,72.61,161.61,129,6.37,24.32,2.13,69.49-11.08,117.87-12.84,47-31.31,86.47-48.48,103.74-50.11-25.27-102.47-30.8-151.54-16-44.31,13.37-83.06,42.54-109.11,82.13-23.66,36-34.49,77.56-30.5,117.12,4.45,44,26.77,83.71,64.61,114.84,36.17,27.72,76.16,42.38,115.62,42.38a162.14,162.14,0,0,0,19.33-1.16c40.74-4.89,79.81-25.45,110-57.88,31.86-34.24,51.08-78,54.12-123.32,3.31-49.31-12.77-95.91-46.5-134.92,40.63-43.43,100.54-134.44,128-208.23l.11-.38C2924,1900.46,2923.21,1841.11,2910.05,1782.07Zm-132,382.86-1.91,2L2778,2169c73.38,82.73,52.67,189.51-5.71,252.23-49.51,53.19-141.26,89.29-236.83,16.05-80.76-66.44-74.68-160.36-32.82-224,35.54-54,96.56-87.59,159.22-87.59,31.91,0,64.07,8.23,95.58,24.46l1.88,1,1.54-1.44c18.37-17.15,38.17-58.53,51.67-108s17.73-95.69,11.1-121c-7.86-30-28.39-58.41-59.37-82.14-28.49-21.83-65.29-39.5-106.41-51.11-47.37-13.37-98.2-17.88-143.13-12.69-49.09,5.67-89.37,22.41-116.49,48.41-89.37,85.68-167.94,171-240.19,260.91a2492.35,2492.35,0,0,0-199.63,287.45c-39.28-5.68-77.5-11.65-114.48-17.42-127.9-20-248.71-38.83-386.63-42.07-156.14-1.45-278,12.4-419.13,28.43-37.08,4.22-75.41,8.57-116.17,12.86-6.71-39.94-11.66-83-16.45-124.62-17.18-149.43-35-303.94-135.17-391.77-67.21-58.92-147.34-99.09-231.73-116.19-70.33-14.25-141.62-11.56-195.61,7.39-30.27,11.28-55.15,34.87-72,68.21-15.07,29.9-23.45,66.67-24.22,106.33-.8,40.69,6.65,81.38,21,114.6,15.56,36.09,38,61.09,64.82,72.31l1.21.51,1.19-.54c101.13-45.81,190.54,8.66,230.82,78.65,40.11,69.71,41.47,167.91-45.93,230.17l-.12.09c-89,71.95-188.16,43.75-242.69-12.91-58.1-60.36-79.71-163.61,3-258.19l2.17-2.48-2.66-1.93c-117.2-84.94-176.12-232.3-157.62-394.2,20.18-176.53,127.83-330.55,274.26-392.38,118.25-49.94,315.15-66.22,582.05,139.46-5.4,56.83-4.77,125.41,1.85,198.47a1572,1572,0,0,0,38,227.93c41.59,170.06,106,302.67,181.23,373.42l7.47,7-2.51-9.93c-99-392.72-72.5-913.65,67.48-1327.11C1320.28,804.09,1356.91,706,1421,635c68.48-75.89,165-113.26,313-121.15,177.42-4.41,260.2,85.91,318.45,181q-1.56-1.73-3.13-3.39c-27.14-28.78-58-46.3-91.72-52.07-78.39-13.43-171.66,38-255.88,141-92,112.48-80.2,191.68-65.33,292,2.11,14.19,4.28,28.87,6.23,44.1,18.5,145,39.8,284.72,60.41,419.93,13.56,89,27.58,181,40.92,275.12,22.74,135.19,18.26,366.25-24.53,481.66l-2.14,5.76,5.86-1.86c45.52-14.45,81.36-47.72,106.54-98.87,21.2-43.06,35.33-99.89,42-168.9,12-124.31-1.89-260.37-11.2-350.87,28.9-26,46.15-46.13,61.4-64,21.89-25.57,40.79-47.66,86.42-78.9,155.37-90.49,352.71-132.09,527.91-111.29,119.71,22.82,228.92,96.16,299.65,201.23,68.1,101.17,93.22,218.85,70.74,331.41C2878.84,2031.28,2818.29,2122.73,2778,2164.93ZM2015.15,1073c-33-88-6.83-200.92,106.95-246.33l2.69-1.07-1-2.73c-.23-.62-.45-1.23-.67-1.85l2,3.47,1.17,2,2.23-.62c109.29-30.56,188.73,40.32,216.29,119.1,28.55,81.61,7.1,185.24-105.16,232.81C2126.53,1217.4,2045.38,1153.71,2015.15,1073Z"/>
</svg>
