<svg xmlns="http://www.w3.org/2000/svg" viewBox="0 0 2994.91 3000">
  <title>128Icon_neon 1</title>
  <g>
    <path d="M877.23,1383.76c79,83.59,169.22,149.22,275.93,200.64,98.91,47.67,213.38,83.63,350,109.95l.66.09.48-.09c133.25-26,244.6-60.39,340.43-105,107.15-49.86,197.82-113.53,277.18-194.64,84.53-86.39,155.74-191.85,217.72-322.42,64.2-135.25,117.35-294.92,162.49-488.13l.86-3.68-1994.74.41h-3.81l.9,3.71C595.82,957,714,1211,877.23,1383.76ZM2495.4,586.49c-185.91,792.08-517.33,1009-991.69,1101.86C950.92,1581.67,681.89,1283,512.05,586.9Z"/>
    <path d="M1833.71,2120.41V1730.82l-4.37,2.25c-101,52-196.24,73.19-327.91,102.5-116.35-17.69-188.51-45.9-279.83-81.61-17.3-6.77-35.19-13.77-54.25-21l-4.08-1.55,1.39,390.35L239.19,2430.15h18.53c6.8,0,700.09-.52,1422.8-.52,422,0,768.38.18,1029.62.52l17.9,0Zm-153.19,303.21c-654.92,0-1280.46.42-1404.27.5l892.37-297.38,2.06-.69-1.38-386c17.51,6.69,34.07,13.17,50.12,19.45,91.8,35.9,164.32,64.25,281.66,82l.67.06.45-.1c130.55-29,225.3-50.14,325.51-100.91v384l864.54,299.43C2433.18,2423.79,2092.93,2423.62,1680.52,2423.62Z"/>
  </g>
</svg>
