<svg xmlns="http://www.w3.org/2000/svg" viewBox="0 0 2994.91 3000">
  <title>114Icon_neon 1</title>
  <g>
    <path d="M868.78,475.75c37.76,21,81.36,37.21,122.8,52,63.34,22.66,139.08,40.43,225.11,52.83,82.53,11.89,170.65,18.31,261.92,19.09,6.25.06,12.56.08,18.76.08,84.35,0,166.81-4.89,245.11-14.54,87.18-10.74,164.89-26.88,231-48,44.23-14.1,99.28-31.66,145.8-55.75,52.59-27.24,86.33-58.61,103.17-95.91,17.52-38.82,11.06-76.27-19.2-111.3-24.61-28.49-60.61-50.39-89.23-66.28-77.32-42.94-176.28-74.73-294.13-94.48-107.25-18-230.92-26.17-367.59-24.35L1255,103.45l-.25,0c-69.75,12-148.81,25.65-219.07,44.66-76.71,20.75-134.88,45.34-183.05,77.4-82.58,55-108.59,113.15-75.23,168.31C796.52,425.4,826.4,452.19,868.78,475.75ZM856,230.54c105.87-70.45,255.2-96.22,399.65-121.12l196.81-14.2c289-3.84,510.64,35.88,658.65,118.07,28.18,15.65,63.61,37.18,87.6,65,28.6,33.11,34.75,68.41,18.27,104.91-16.26,36-49.12,66.46-100.45,93-46.08,23.86-100.85,41.33-144.87,55.36-126.4,40.31-294.8,62.5-474.19,62.5-192.39,0-376-26.22-503.86-71.94-91.84-32.85-171.11-65.41-211-131.39C742.88,325.12,800.58,267.4,856,230.54Z"/>
    <path d="M2312.65,2163.57c-7.76-13.12-21.19-20.4-38-20.68l.71-589.24c26.42-9.23,34-30.72,32.13-48-2.06-19.46-15.12-34.53-32.13-37.45L2275,881.57c24.59-3.47,39.88-26.75,40-47.12.13-17.32-10.37-36.87-40-40.71l-.29-225.13-1,.38v-2.36l-1.42,2.9-1,.38c-1.1.42-1.44,1.22-2.05,2.68-5.71,13.58-17,27.77-33.6,42.16-30.74,26.34-96.61,66.87-235.92,110.42-277.46,86.73-741.22,81.91-1033.79-10.75-152.12-48.18-220.79-94.84-233-103.7l-4.71-3.41-1.74,186.63c-35.94,6.62-46.37,29-44.06,48,2.41,19.72,19.37,40.11,43.59,40.11h.45l1.7,581.41c-17.77.21-31.87,7.69-39.87,21.21a45.84,45.84,0,0,0,.1,46.18c8.07,13.55,22.13,21,39.78,21.16l.31,586.78c-24.63,4.65-34.12,23.28-34.73,39.51-.72,19.14,11,41.38,34.72,47.84-.13,24.65-1,54.6-1.93,86.25-1.91,65.29-4.08,139.29-1.12,204.52,3.47,76.13,13.39,124.71,30.33,148.52,51.79,72.77,142.74,108,223,139.09,66.46,25.74,146.2,45.68,237,59.25,86.49,12.93,179.13,19.55,275.36,19.69h3c192.36,0,379.6-26.8,513.7-73.53,89.94-31.33,182.08-67.74,233.86-137.27,43.51-58.44,38.78-220.59,35-350.87-1-32.62-1.86-63.49-2-90.43,16.73-.29,30.13-7.62,37.93-20.79C2320.93,2196.5,2321,2177.6,2312.65,2163.57Zm-40.9,61.8-3.1-.09v3.09c0,27.74,1,59.74,2,93.63,3.77,129.36,8.47,290.34-33.8,347.1-50.76,68.17-141.95,104.17-231,135.19-136.64,47.61-317.7,73.84-509.84,73.84-197.49,0-385.23-28.86-515.1-79.18-79.46-30.78-169.52-65.67-220.26-137-36.82-51.73-31.78-223.76-28.1-349.38,1-32.7,1.86-63.59,1.94-88.77v-2.41l-2.36-.53c-22.11-4.88-33-25-32.37-42.34.54-14.39,9.27-30.94,32.15-34.22l2.58-.36-.31-595v-3.12L731,1546c-16.82.63-30.15-5.82-37.51-18.18a39.73,39.73,0,0,1-.1-40c7.31-12.36,20.7-18.83,37.62-18.24l3.11.11-1.73-590.71v-3.26l-3.24.28c-22.37,1.91-38.6-16.52-40.82-34.7-2-16.7,7.81-36.45,41.54-41.81l2.51-.39,1.69-180.17c19.85,13.48,90.36,57,230,101.27,69,21.84,149.67,39.27,239.84,51.78,88.28,12.26,181.09,19.2,275.87,20.64,199.52,3,384.78-18.87,521.68-61.66,140.79-44,207.27-85.08,238.25-111.78,16.13-13.91,23.92-23.53,28.95-31.8l.27,209.11v2.72l2.72.26c27.7,2.59,37.44,19.78,37.32,35-.15,18.57-14.44,39.71-37.28,41.49l-2.76.22.43,594.7v2.74l2.72.25c15.46,1.44,27.56,14.79,29.44,32.46,1.63,15.42-5.41,34.64-30.06,42.36l-2.1.66-.73,596.63v3.1l3.1-.1c16-.53,28.67,5.77,35.74,17.72a41.24,41.24,0,0,1-.06,40.91C2300.32,2219.56,2287.63,2225.9,2271.75,2225.37Z"/>
  </g>
</svg>
