<svg xmlns="http://www.w3.org/2000/svg" viewBox="0 0 2994.91 3000">
  <title>144Icon_neon 1</title>
  <g>
    <path d="M1366,1226.83l-5-2.66L856.81,957.86l-1.18-.62-1.26.46L134.79,1221.37l-1.23.45-4,9.38,728.25,262.56,1.17-.61L1361,1229.47Zm-12.88,0L857.4,1487.22,137.59,1227.71l.49-1.15,717.1-262.77Z"/>
    <path d="M1499.32,1157.83l2,1.13,310.52-331.14,3.07-3.27-327.42-123.7-1.06.4L1016.61,880.63l-.75.29-5,6.11,3.14,1.74ZM1804.43,827l-304.25,324.46L1480,1140.23,1020.57,885.54l467-178.27Z"/>
    <path d="M1708,1058.09l308.68-158.45,1.63-.84v-6l-119.5-44.94-206.4,218.25Zm302.27-161.91-289.41,148.57,179.57-189.89Z"/>
    <path d="M2417.58,1503.55l-1.37-1.56-40.09,15.13v2.06c-.13,36.12,18.66,144.92,45.69,264.58,22.64,100.24,53.11,215.73,70.73,239.23l1.21,1.62,2-.52c.91-.24,22.2-5.94,26.07-7.46,10.95-4.28,11.13-4.4,19.5-12.15l1.17-1.08.18-1c4.94-25.44-23.15-150.31-51.08-258.69C2468.66,1655,2430.08,1517.77,2417.58,1503.55Zm78.6,514.2c-14.58-22.27-40.7-111.85-68.63-235.59-26.35-116.78-44.88-223.26-45.43-260.9l32.11-12.11c10.51,17.06,40.67,116.5,71.5,236.09,27.4,106.32,55.06,228.53,51.16,255.11-7.31,6.78-7.44,6.83-17.38,10.72C2517,2012,2504.4,2015.53,2496.18,2017.75Z"/>
    <path d="M2866.08,1221.59,2137.14,957.7l-1.25-.46-491.6,261.84-3.53,1.89,2.79,2.86c15.68,16.05,143.62,87.73,258.24,147.76,53.69,28.11,231.25,119.86,261.7,119.86a11.9,11.9,0,0,0,2.27-.2l.2,0,700.48-261.41,1.62-.61v-6.88Zm-961.51,144.68c-122.39-64.09-230.6-125.57-253.64-143.93l485.42-258.55q361.8,131,723.68,262l-695.69,259.63C2149.4,1487.84,2047.59,1441.17,1904.57,1366.27Z"/>
    <path d="M1027.93,1557l-1.52.86v9.32l1.92.74,478,185.08,1.1.42,464.14-185.51,1.21-.49,3.53-9.15-476-269.23-1.48-.84Zm4.48,6.06v-1.72l466.45-266.23,470,265.83-.72,1.88L1507.38,1747Z"/>
    <path d="M2087.68,1663.86l-2.14,1.19c-46.48,25.91-550,201.74-573.18,209.85-25-8-397.43-127.49-576.68-188.55l-3.15-1.08-.74,3.24c-15.95,69.56-17.69,181-4.54,290.83,6.49,54.13,16.24,103.4,28.19,142.47,13.34,43.6,28.92,73.44,46.28,88.7,24.25,21.31,63.17,39.31,115.67,53.53,48.66,13.17,107.82,22.82,175.83,28.68,48.71,4.2,101,6.32,155.47,6.32,88.68,0,180-5.7,264.21-16.5,191.38-24.55,323.37-71.48,362.12-128.76,10.62-15.7,23.7-120.65,29.78-238.91,3.37-65.63,8.6-221.29-15.53-249.16Zm-576.2,217.06,1,.3,1-.33c5.17-1.8,512.45-178.73,572.75-209.37,5,7.68,11.16,27.4,14.05,76.73,2.49,42.63,2,100.14-1.39,166.31-5.82,113.42-19,221.43-28.75,235.86-37.79,55.85-168.24,101.84-357.92,126.17-136.91,17.56-289.41,21.26-418.4,10.15-67.65-5.83-126.45-15.41-174.77-28.5-51.61-14-89.72-31.54-113.28-52.24-31.66-27.82-58.75-112.82-72.47-227.38-12.66-105.75-11.19-217.32,3.7-285.52C1121.66,1756,1507.59,1879.67,1511.48,1880.92Z"/>
  </g>
</svg>
