<svg xmlns="http://www.w3.org/2000/svg" viewBox="0 0 2994.91 3000">
  <title>82Icon_neon 1</title>
  <g>
    <path d="M578.73,614.91l-1-2.82L172.88,759.44l-2.81,1L957.15,2925.54,1362,2778.2l2.82-1-.85-2.35Zm382,2302.94-783-2153.8L574.12,619.78l783,2153.8Z"/>
    <path d="M937.29,771.08l915.89-333.6,191,498.69-913,332.54-2.83,1,86.89,238,1,2.81,1187.83-432.42,2.82-1L2041.32,72.38l-1-2.82L844.41,504.82l-2.81,1,94.67,262.42ZM2036.7,77.25l362.6,996.23L1219.92,1502.83l-83.8-229.51,913-332.55,2.86-1-195.33-509.9L940.89,763.39,849.27,509.44Z"/>
    <path d="M2733.56,2017.12l-.48-1.35-1215-417-1-.35-230.17,84.23-2.81,1,84.71,230.94.5,1.34,1215,417,1,.35,232.55-84.64Zm76.59,228-224.92,81.86-1211.31-415.7-82.16-224,225.34-82.46,1211.31,415.7Z"/>
  </g>
</svg>
