<svg xmlns="http://www.w3.org/2000/svg" viewBox="0 0 2994.91 3000">
  <title>66Icon_neon 1</title>
  <g>
    <path d="M2164.2,992.76,1755,854.29l-1-.34-415,155.63-63.22-30.83L935.42,967l-1.63,0-404.55,579.5-1.2,1.72,194.73,195.24a106.51,106.51,0,1,0,5.62-2.87l-192.56-193,401-574.43,337.4,11.63,60.48,29.49-252,562.23-.88,1.95,1.56,1.47c6.11,5.73,60.37,56,86.08,59.21a61.94,61.94,0,0,0,7.63.44c22.67,0,54.36-10.61,90.49-30.43,32.79-18,66.6-42.22,86.12-61.74,50.41-50.42,126-248.88,130.39-260.42L1541,1198l653.88,673.59,2.08,2.16.71-.69,105.94,105.77a109.62,109.62,0,0,1,10,42c.84,22.77-5.49,56.41-40.38,87.35-36.8,32.63-91.46,18.75-98.11,16.9l-287-282.67-.87-.86H1778.14l18.22,75.5.19.78,290.22,304c-5.36,10.48-35.25,67.64-58.07,82.43-23.58,15.27-100.41,22.52-111.3,23.48l-331-339.11-.76-.78-114.73-12.29,35.42,96.71.23.62,264,264.77c-11.41,8.64-54.63,41.14-70.88,49.64-34.31,17.93-67.73,19.94-74.88,20.16L1431.66,2215.8l-.91-.89-73.85,1.59a119.71,119.71,0,0,0-174-34.09l47-51.81c15.68-17.28,24.91-40.58,26-65.61,1.09-25.3-6.32-50-20.86-69.63-8.09-10.9-28.45-28.8-39.44-35.81-20.28-12.92-45.42-18-70.79-14.17-23,3.44-44,13.71-59.47,29.07a105.29,105.29,0,0,0,6.69-33.19A106.42,106.42,0,0,0,1050,1872.2c-7-9-25-26.36-36.3-31.86-39.22-19.15-93-7.93-122.46,25.55l-78.62,89.39c-14.17,16.1-22.17,37.5-22.54,60.25s7,43.91,20.7,59.4c8.06,9.11,26.14,25,35.81,31.5a97.39,97.39,0,0,0,65.4,15.94,93.75,93.75,0,0,0,24.69-6.26L915.9,2139c-32.59,35.92-33.09,94.05-1.12,129.58,8.48,9.43,28.2,27.66,39.12,35.5a98.7,98.7,0,0,0,57.9,18.39c3.37,0,6.8-.17,10.18-.5,24.34-2.41,46.36-13.23,62-30.47l67.77-74.69a119.78,119.78,0,0,0,187.11,146.71L1380.7,2399l57-30.95-65.56-66.94a119.73,119.73,0,0,0-11.84-78.68l68.07-1.47,193.15,191.72.88.87h1.23c.39,0,39.39-.24,78.87-20.88,19-9.91,72.21-50.53,74.47-52.26l2.72-2.08-268-268.68-31.88-87,103,11L1914.09,2333l1,1,1.4-.11c.89-.07,88.84-7.28,115.48-24.55s60.79-86,61.13-86.67l.93-1.88-292-305.93-16.24-67.3h99l286.67,282.33.53.52.7.22c.62.19,62.92,19,104.54-17.95,36.66-32.51,43.29-68,42.39-92.1a114.43,114.43,0,0,0-11-45l-.18-.33L2202,1868.86l264.94-257.17,1.57-1.52L2164.75,993.88ZM1011,1845.73c10.51,5.14,27.53,21.54,34.18,30.14,29.54,38.22,24.72,85.5,4.79,115.32L948.24,2103.32c-28.51,18.32-68.11,18.43-98.35-1.87-9.37-6.28-26.86-21.67-34.67-30.49-26.21-29.62-25.37-80.78,1.85-111.72l78.62-89.39C923.45,1838.3,974.1,1827.71,1011,1845.73Zm-41.74,247.4,78.63-89.39a90.87,90.87,0,0,0,6.9-8.94l11.51-12.68c18-19.89,46.08-31.77,75-31.77,18.8,0,36.47,4.93,51.11,14.26,10.57,6.74,30.11,23.9,37.85,34.32,28,37.76,25.93,93.83-4.75,127.63l-146,160.87c-16.8,18.52-41.4,29.14-67.49,29.14h0a93.08,93.08,0,0,1-54.64-17.41c-10.64-7.63-29.87-25.42-38.16-34.63-30-33.31-29.48-87.83,1.11-121.54l31.75-35A85.27,85.27,0,0,0,969.28,2093.13Zm1224.93-232-651.58-670.07-2.62-2.7-3,4.75-.38.36.09.09-57.83,90.37-.28.56c-.78,2.08-78.93,208.38-129.13,258.58-35.2,35.19-130,96.1-179.27,90-18.46-2.27-59-35.8-81.13-56.18l251.76-561.62,413.26-155,405.84,137.33,301.25,611.26-263.45,255.71ZM727.41,1748.07l.68-.68a102.15,102.15,0,1,1-.89.47Zm625.4,474.52.7,0a113.89,113.89,0,0,1,12.42,78.91l-1,.92.61.62a113.9,113.9,0,1,1-12.81-81.71Zm28.64,169.18L1343,2359.14a119.7,119.7,0,0,0,27.54-51l57.26,58.47Z"/>
    <path d="M2527.61,672.12l-1.28-2.58-2.63,1.18c-1.66.74-167,74.88-215.31,110.89-19.1,14.23-34.35,38.64-41.84,67-7.38,27.92-6.3,55.59,3,75.92,10.26,22.51,21.93,48.56,34.28,76.16,77.44,172.91,194.46,434.22,288,548.87,17.86,21.88,45.41,28.66,65.38,30.49,4.6.42,9.33.63,14,.63,20.06,0,37.27-3.87,46.68-7.5,53-20.42,203.09-103.07,204.6-103.9l2.52-1.39Zm-4.08,5.26,393.57,788c-19.18,10.52-152.48,83.36-201.34,102.17-11.42,4.4-33.47,8.74-58,6.49-18.83-1.72-44.73-8-61.28-28.31-93.08-114-209.9-374.91-287.21-547.54-12.35-27.6-24-53.67-34.29-76.18-18.54-40.69-.21-107.85,37-135.59C2356.32,753.38,2502.94,686.68,2523.53,677.38Z"/>
    <path d="M762.07,960.47c15.88-25.68,30.87-49.94,44-70.79,11.87-18.92,16.6-46.21,13-74.86-3.67-29.07-15.55-55.28-32.6-71.92-43.07-42-197.2-137.44-198.75-138.4L585.2,603,85.71,1339.54l-1.34,2,2.31,1.7c1.39,1,138.82,102.61,189.05,130.07,11.31,6.18,33.62,13.78,59.28,14.84,1.93.08,3.87.12,5.77.12,18.22,0,44-3.77,63.07-21.7C511.77,1365.31,662.34,1121.77,762,960.62Zm38.87-74c-13.1,20.89-28.12,45.18-44,70.89l-.06.09c-99.47,160.88-249.78,404-357.12,504.72-19.09,17.91-45.61,20.74-64.49,20-24.63-1-45.91-8.23-56.65-14.11-46-25.12-168.43-115-186-127.91l494.37-729c19.18,11.94,155.67,97.45,195.27,136.08C815.43,779.61,824.71,848.61,800.94,886.49Z"/>
  </g>
</svg>
