<svg xmlns="http://www.w3.org/2000/svg" viewBox="0 0 2994.91 3000">
  <title>68Icon_neon 1</title>
  <g>
    <path d="M732.31,1774.49c-16.47,54.88-33.51,111.64-49.55,168.23l-.19.68.13.68c16.36,88.63,70.21,382.47,75.84,442.3,5.27,56.09,33.18,123.46,82,138.86a71.87,71.87,0,0,0,21.65,3.3c13.23,0,27.22-3.51,41.59-10.44,25-12,51.69-34.67,79.39-67.25,93.11-109.45,176.65-194.1,248.31-251.6,59.26-47.55,109.54-75.52,145.4-80.9,17.23-2.58,47.26-4.12,82-5.9,98.35-5,247-12.62,314.44-53.8,32.36-19.75,93.79-61.11,141.61-116.26l2-2.28L1279.13,1392.8l-1.89-1.62-1.94,1.55c-21.13,16.87-49.09,42.43-83.11,76-8.41-7.38-41.08-37.18-77.06-85.13-38.38-51.14-88.41-133.89-108.82-237.71l-.2-1L796.9,965.13l1.36,8.16c20.76,124.76,55.5,333.57,17.52,500.76C795,1565.8,764.52,1667.17,732.31,1774.49Zm73.22-794,195.09,167.6c20.76,104.47,71.1,187.69,109.72,239.15,41.93,55.86,79.69,87.58,80.07,87.9l2.09,1.74,1.94-1.91c33.72-33.35,61.52-58.89,82.67-76l631.32,541.76c-47,53.41-106.63,93.52-138.22,112.8-66.16,40.38-213.87,47.93-311.65,52.93-34.91,1.79-65.06,3.33-82.57,6-36.91,5.53-88.18,33.94-148.26,82.15-72,57.74-155.78,142.66-249.13,252.4-27.16,31.93-53.21,54-77.43,65.72-21.11,10.18-40.9,12.48-58.83,6.83-46.2-14.58-72.73-79.52-77.83-133.7-5.65-60-59.29-352.8-75.79-442.14,15.95-56.24,32.89-112.68,49.28-167.27l.06-.2c32.24-107.42,62.69-208.89,83.57-300.83C859.18,1310.07,826.37,1105.83,805.53,980.46Z"/>
    <path d="M2075.88,2073.13c-29.78,42.29-98.1,96.78-105.79,102.86-154.27,121.84-348,126.48-463.76,129.26-24.57.59-45.79,1.1-62.71,2.6-72.22,6.4-181.32,118.41-379.39,321.77l-.19.19c-25.34,26-51.55,52.93-79.52,81.5-29.11,29.75-94.89,34.55-171.66,12.53-81.58-23.41-170.71-78.1-185.94-147.52-10.11-46.08-28.13-140.93-35.29-258.37l-1.33-21.9-4.59,21.45c-18.1,84.56-15,113.94-9.41,167.28,1.53,14.59,3.27,31.13,4.8,51.15,4.22,54.89,34.08,135.07,77.92,209.24C707.2,2826.68,764.54,2888,816.34,2913.4c41.87,20.54,115.17,33.21,201.09,34.77,5.74.11,11.57.16,17.33.16,74.26,0,144.71-8.51,188.46-22.76,57-18.55,119.25-57,190.35-117.49,61.76-52.55,121.72-114.53,174.63-169.2,35.34-36.54,68.73-71.05,98.54-98.56,72.87-67.27,142.32-112.13,215.85-159.63C1990.33,2324,2081,2265.42,2183,2164l2.32-2.31-107.51-91.28Zm100.53,88.94c-100.53,99.55-190.27,157.51-277.08,213.59-73.75,47.64-143.41,92.63-216.66,160.25-29.92,27.62-63.36,62.19-98.79,98.79-105.18,108.71-236.08,244-362.51,285.17-46.65,15.19-124.75,23.74-203.83,22.31-85.08-1.55-157.45-14-198.56-34.16-50.77-24.91-107.19-85.37-154.79-165.9-43.41-73.43-73-152.62-77.1-206.65-1.54-20.06-3.29-36.66-4.83-51.32-5-48.07-8-76.25,4.88-143.61,8,107.67,24.46,194,33.92,237.07,15.75,71.83,106.85,128.1,190.15,152,32.34,9.28,62.86,13.85,89.74,13.85,38.66,0,69.77-9.46,87.86-27.94,28.17-28.78,54.38-55.69,79.73-81.71,97.4-100,174.33-179,235.28-233.24,64.11-57.07,107.39-83.82,140.33-86.73,16.74-1.49,37.89-2,62.38-2.58,116-2.78,309.8-7.44,465.31-129h0l1.67-1.31.29-.24,2-1.54h0c13.39-10.69,73.8-59.86,103.11-99.89Z"/>
    <path d="M2315.18,1959l28.12-36.6.07-.1c151.36-218.48,237.22-469.72,255.21-746.74,7.52-115.65-5.3-243.36-36.09-359.59-40.26-152-109.4-284.78-205.49-394.73-56.58-64.72-115.85-120.38-176.19-165.43-54.4-40.62-111.6-74-170-99.32-122.09-52.86-235.59-63.95-310.34-67.68-87.53-4.38-207,18.54-327.7,62.88-129.1,47.43-251.27,115.93-344,192.88-32.85,27.26-70.66,76.58-109.35,142.65-35.22,60.14-67.45,128-91,191.64L132.54,79.69l-2.28-2L54.94,165.21,2851.83,2573.39l2.27,2,75.33-87.48ZM827.09,685.63,2921,2488.5l-67.5,78.39L63.4,164.58l67.5-78.39L826.18,684.84l-.15.4Zm6.16-2.62c43.47-118,127.76-274.41,199.37-333.84,204.71-169.9,500.16-262.76,667.55-254.39,177,8.85,411.08,54.4,652.31,330.39,249.49,285.46,246.86,646.22,240.11,750-17.91,275.89-103.39,526.07-254.1,743.63l-27.87,36.27Z"/>
  </g>
</svg>
