<svg xmlns="http://www.w3.org/2000/svg" viewBox="0 0 2994.91 3000">
  <title>132Icon_neon 1</title>
  <g>
    <path d="M2189.88,2173.3a921.93,921.93,0,0,0,195.73-293.78c47.62-114,71.77-235,71.77-359.76S2433.23,1274,2385.61,1160a921.86,921.86,0,0,0-195.73-293.79,909.85,909.85,0,0,0-290.32-198.09,906.35,906.35,0,0,0-711,0A909.74,909.74,0,0,0,898.19,866.22,921.81,921.81,0,0,0,702.46,1160c-47.62,113.94-71.77,235-71.77,359.75s24.15,245.81,71.77,359.76A921.77,921.77,0,0,0,898.19,2173.3a909.74,909.74,0,0,0,290.32,198.09,906.35,906.35,0,0,0,711.05,0A909.85,909.85,0,0,0,2189.88,2173.3Zm261.5-653.54c0,506.33-407,918.27-907.35,918.27s-907.34-411.94-907.34-918.27,407-918.27,907.34-918.27S2451.38,1013.43,2451.38,1519.76Z"/>
    <path d="M1868.41,1196.11A463,463,0,1,0,1968,1343.76,462.73,462.73,0,0,0,1868.41,1196.11Zm130,328.46c0,252.82-205.68,458.5-458.5,458.5s-458.51-205.68-458.51-458.5,205.69-458.51,458.51-458.51S1998.46,1271.75,1998.46,1524.57Z"/>
    <path d="M1308.25,459.27l1.84-.28c.7-.11,70.83-10.67,159.48-16.42,81.46-5.28,195.23-7.42,274.63,12.43,152.22,38.05,357.83,145.08,359.89,146.15l1.64.86,321.64-232.46-38.44,16.9L2134.81,539.16l5.13-255.49.12-5.63L1923.39,417.43l-98.31-251.81-1.43-3.68-235.91,176-148.06-52L1321.3,442.7,1210.13,312l8.12,18.45Zm512.67-287.81L1919.13,423l1.34,3.41,213.36-137.26-5.13,255.28-.1,5.41,219.65-131.12L2105.22,595c-19.81-10.23-213.67-109.33-359.57-145.8-43.08-10.77-100.46-16.24-170.53-16.24-33.08,0-68.72,1.23-105.94,3.64-65.8,4.27-122.28,11.31-146.77,14.62l119.41-158.13,146.94,51.59ZM1311,452.78,1259.45,379l59.7,70.43,1.68,2C1316.19,452,1312.86,452.52,1311,452.78Z"/>
    <path d="M438.46,1603.53l2.27-.55,0-2.33c0-1.14,1.54-114.14,7.84-159.58C473,1265.14,557.89,1023.15,630.3,923.22c61.93-85.48,151.57-176.54,152.46-177.45l1.68-1.69L561.72,390.92l99,336.11L375.93,788.84l90.7,220.26L234.51,935.69l225.06,148.17-299.29,171.3-3,1.73,197.54,250L111.59,1682.5ZM471,1084.22,273.9,954.44l203.17,64.25L384.21,793.18l281-61,3.16-.68L579.68,430.65,776.83,743.26c-12.05,12.35-93.78,96.93-151.39,176.44-72.88,100.58-158.29,343.83-182.79,520.55-5.88,42.42-7.62,142.29-7.86,158L139.85,1669.5l221-159.55,2.54-1.83-197.1-249.49Z"/>
    <path d="M2903.35,1176.66l-330.4-94.8,155.94-97.31L2531,1028l60.79-136.64L2602,863.31l-112.23,169.08,1.68,1.73c.49.51,49.44,51.4,73.64,115.23,20.45,53.91,48.73,184.28,49.63,243.72.8,52.55-1.64,167.22-1.75,172.08l0,2.85,224.69,16.44h23.64l-104-25.3,120.63-125.66-225.45-42.26,246.72-210.92Zm-264.41,218.15,226.87,42.53-116.56,121.42-3.63,3.78,55.34,13.21-182-13.32c.36-17.48,2.43-120.85,1.69-169.45-.91-60-29.41-191.42-50-245.76-22.16-58.44-64-105.55-73.28-115.52L2575,914.25l-54.35,122.16L2695.52,998l-137.37,85.9,332.78,95.47Z"/>
    <path d="M2512.08,2021.4l-2.54-1.23-1.38,2.46c-1,1.74-98.19,174.86-150.4,224.81-50.48,48.29-264,189.66-266.17,191.08l-1.19.78-15.92,155.95-.84,27.95,34.56-132.5,176.55,117.15,3.86,2.56,39.68-238.92,257.09.88-38.47-233.47,199.57-4.58ZM2083.3,2565l12.78-122.22c17.77-11.79,216.65-143.93,265.83-191S2500.28,2048.71,2512,2028l209.38,100.87-181.53,4.17,38.45,233.28-255.11-.87-39,234.82L2104.48,2481Z"/>
    <path d="M1084.31,2518c-73.45-42-174.53-120.31-200.55-143-48.28-42.1-224.39-233-226.15-234.9l-1.52-1.64L337.24,2295.11l283.82-69.05-93.28,191,232.63-93.93-73.74,202.57-1.26,3.45,250.26,37.27-41.2,202.5-1.15,5.69,234.09-103.5,120.92,146,3.54,4.28L1325.28,2583l-3.24-.66C1320.09,2581.91,1126.61,2542.13,1084.31,2518Zm-142.13,46.52.63-3.1-249.24-37.12,77.09-211.78L540,2405.6,629.25,2223l2.81-5.74-243,59.11,265.66-130.54c17.28,18.71,178.5,193.07,225.09,233.7,26.15,22.8,127.72,101.52,201.52,143.69,40,22.84,211.62,59.2,236.27,64.35l-68.19,221.42L1130.58,2665.5l-1.44-1.75L901.51,2764.38Z"/>
  </g>
</svg>
