<svg xmlns="http://www.w3.org/2000/svg" viewBox="0 0 2994.91 3000">
  <title>136Icon_neon 1</title>
  <g>
    <path d="M2698.55,1484.77c-.69-1.74-4.38-10.77-8.58-14.72l-.62-.45c-154.5-84.17-220.94-120.55-223.74-122.09l-1.51-.82-572.37,340.15,320.41-570.74.83-1.48-.85-1.49c-2.77-4.85-68.56-120-126.59-225l-.12-.2-.6-.67c-.35-.28-11.69-9.81-11.79-9.9l-.61-.4c-93.46-45.76-207.07-83.72-347.34-116.06-135.87-31.33-286.89-33.44-448.88-6.28-159.36,26.72-292.87,75.69-376.81,112.06-211.24,91.53-386.13,224.62-519.84,395.6-136.21,174.17-229.83,388-278.28,635.45-25.14,128.45-13.35,282.78-2.94,419q1.49,19.49,2.89,38.32l.21,2.78H2842.87l.13-2.87c8.12-188.2,2.62-344.64-16.81-478.25C2803.44,1720.31,2761.69,1592.1,2698.55,1484.77ZM107,2351.8q-1.29-17.51-2.69-35.62c-10.38-135.78-22.14-289.68,2.85-417.33C202.64,1411.05,477.41,1056,901.76,872.16c133.59-57.89,481.11-184,822-105.45,139.65,32.2,252.74,70,345.72,115.45l2.31,1.94,8.79,7.39c55.57,100.52,117.84,209.68,125.54,223.16l-325.08,579-5.48,9.77,588.71-349.86c9.73,5.33,76.65,42,221.88,121.08,2.41,2.48,5.22,8.22,6.93,12.48l.2.41c116.47,197.91,160.87,464.54,143.88,864.24Z"/>
    <path d="M2865.11,1456.36c-20.84-37.79-50.18-88.24-87.2-149.95-62-103.34-125.46-204.86-136-221.75,19-27.66,246.25-359.36,257.23-412.56l1.39-6.73-5.88,3.56c-124.33,75.21-384.38,240.66-407.5,255.38-13.11-7.53-121.88-70-229.85-131.68-99.54-56.9-168.09-95.85-203.73-115.79-30.35-17-30.6-16.91-32.18-16.41l-.08,0-4.23-2.09,2.35,4-.53,1.07.82,1.4c18.84,32,34.33,57.74,49.32,82.69s30.67,51,49.53,83l.49.83.87.39c1,.44,5.76,2.31,8.51,3.39l5.13,2-.05.18,2.39.69c90.86,26.44,224.44,125.11,366.48,270.71,128.38,131.6,235.54,273.62,273,361.81l.23.43c.38.55.38.55,5.48,3.74l.4.25,1.94,1.22,119.79,68,.35-4.73C2903.91,1534.33,2900.34,1520.2,2865.11,1456.36Zm-78.47,14.78-2.4-1.5-3.78-2.37c-38-88.82-145.37-231.06-273.82-362.72-142.7-146.28-277.2-245.51-369.06-272.27-1.06-.39-11.08-4.27-14.38-5.62-18.62-31.58-34-57.27-49-82.12l-.09-.15c-13.58-22.59-27.58-45.9-44-73.71,64.41,35.15,451.46,257.36,455.59,259.73l1.58.91,1.53-1c2.73-1.74,270.86-172.47,402.23-252.23-26.88,72.76-252.88,401.35-255.23,404.77l-1.12,1.62,1,1.67c69.44,110.75,245.49,397.27,260.77,447.28Z"/>
  </g>
</svg>
