<svg xmlns="http://www.w3.org/2000/svg" viewBox="0 0 2994.91 3000">
  <title>92Icon_neon 1</title>
  <path d="M2408.46,2423.29l-4.29-4.19-228.52,234.57L1741,2201a723.19,723.19,0,0,0,221.12-291.66,737.45,737.45,0,0,0,0-562.12,720.44,720.44,0,0,0-151.79-229.53A705.38,705.38,0,0,0,1585.2,962.91a698.45,698.45,0,0,0-512.5-15.43L794.93,140,1106.37,294.7l2.68-5.37L792.16,132h0l-1.6-.79-2-1-1.22,2.13-.86,1.5h0L616.18,431.2l5.21,3L789,141.33l278,808.21q-16.79,6.24-33.33,13.37a705.49,705.49,0,0,0-225.15,154.77,720.72,720.72,0,0,0-151.79,229.53,737.57,737.57,0,0,0,0,562.12,721,721,0,0,0,151.79,229.53,705.3,705.3,0,0,0,225.15,154.76,698.13,698.13,0,0,0,551.47,0,701.42,701.42,0,0,0,151.06-88.93L2171.46,2658l-223.55,229.47-1.75,1.79,4.3,4.19,225.16-231.12,216.05,225,1.73,1.81,4.33-4.16-217.92-227,226.91-232.92Zm-1099-78.91c-387.27,0-702.33-321.25-702.33-716.11S922.2,912.15,1309.47,912.15s702.33,321.25,702.33,716.12S1696.74,2344.38,1309.47,2344.38Z"/>
</svg>
