<svg xmlns="http://www.w3.org/2000/svg" viewBox="0 0 2994.91 3000">
  <title>110Icon_neon 1</title>
  <g>
    <path d="M1441.9,2168.26c-59.37-104.17-132.06-203.68-216.05-295.76-83.77-91.84-176.83-172.32-276.58-239.2-94.56-63.41-190.67-111.73-285.66-143.65-191.32-64.27-354.57-52.79-447.88,31.49-54,48.8-83.81,136.3-83.83,246.37,0,55,7.37,113.76,21.93,174.57,15.26,63.7,38.08,128.18,67.83,191.63a1161.91,1161.91,0,0,0,116.7,195.44A1255.25,1255.25,0,0,0,507,2515.1a2353.25,2353.25,0,0,0,238.8,189.44c79.88,55.23,160.2,103.12,238.73,142.31,77.91,38.9,152.08,68.26,220.43,87.27,59.45,16.54,113.5,24.92,160.65,24.92,8,0,15.87-.24,23.45-.72,63.56-4,111.78-24.69,143.33-61.43,2-2.29,4-4.73,6-7.3l0,0,4-5.34,0,0c32.82-44.47,51.66-103.86,56-176.56,4.42-73.56-6.24-156.72-31.67-247.19C1539.79,2364.66,1497.79,2266.33,1441.9,2168.26Zm-53.24,784.07c-102.66,6.5-245.26-32.87-401.47-110.85-161-80.35-325.64-194.75-476.19-330.83-80.36-72.64-149.88-153.46-206.66-240.28L564.51,2189c14.93,31.08,60.49,55.29,96.49,70.25,41.54,17.25,92,30.92,128.48,34.8l3.4.37c20.16,2.15,47.76,5.11,74.45,5.11,34.65,0,57.77-5,70.54-15.16l596.3,600.79c-2.14,2.75-4.27,5.36-6.36,7.79h0C1497.36,2928.45,1450.54,2948.41,1388.66,2952.33ZM436.73,1454.51c68.62,0,144.32,13.74,225,40.83,143.37,48.16,289.14,133.64,421.66,247.23L934.26,1975.8c-9.92-7.64-26.3-3-46.62,2.74-17.68,5-37.71,10.68-57.17,9-50.64-4.32-92.35,4.65-127.5,27.42-33.17,21.49-57,53.29-76,81.56-4.85,7.23-14.81,14.75-25.36,22.71-22.84,17.23-48.63,36.69-39.42,64.21L301,2265.15c-103.67-160.41-163.08-341.69-163-497.64,0-108.35,29.09-194.27,81.85-241.92C271.24,1479.09,346.27,1454.51,436.73,1454.51ZM936,2278.12c-24.41,23-101.2,14.77-142.46,10.36l-3.4-.36c-36-3.83-85.76-17.33-126.81-34.38-36-14.95-81.56-39.14-94.4-69.53-10.49-24.83,14.4-43.61,36.35-60.17,11-8.28,21.32-16.09,26.73-24.16,36.43-54.33,79.89-107.38,174.37-107.38,7.6,0,15.54.35,23.61,1,20.54,1.74,41.13-4.08,59.32-9.22,20.3-5.75,36.33-10.28,43.23-1.92,17.56,21.27,23.25,63.12,28.26,100,3,22.14,5.86,43.06,10.94,58,5.91,17.38,5.51,43.83-1.06,70.74C963.73,2239.49,951.09,2263.88,936,2278.12Zm40.5-65.5c6.84-28,7.18-55.67.92-74.09-4.9-14.41-7.7-35.05-10.67-56.91-5-36.75-10.65-78.32-28.22-101.31L1088,1746.53a1577.54,1577.54,0,0,1,133.47,130c163,178.75,283.63,386.72,339.54,585.6,49.94,177.63,41.57,329.66-22.86,417.82L942.28,2280.33C957.24,2265.1,969.63,2240.61,976.47,2212.62Z"/>
    <path d="M2884.31,412.71l-.23-.71L2843,372.45l-.27-.26-70.89-36.32L2710,310.23l-57.89-19.87.75-7,0-.29L2644,213.48l0-.37-28.41-62.56-.08-.18-29.23-44.27-.13-.2-43.32-44.21-.27-.27-52.2-27.93h-55.94l-52.59,21.39-.4.17-55.06,49.72-.36.33-38.12,78-.27.55-4.45,81.72,0,.5,26.95,76.51L2076.71,640.1q-7-5-14-10.51c-25.07-19.84-45.76-27.17-63.24-22.42-31.06,8.43-48.49,53.25-70.56,110-30.19,77.63-67.77,174.24-157.36,230.46-111.42,69.93-274.87,49.14-383,35.37-34.08-4.33-63.52-8.08-84.23-8.08-99.59-4.54-208.54,10.37-323.79,44.3C888.34,1046.35,792,1085.64,694,1136c-167,85.85-281.73,175.07-282.87,176l-12.4,9.68,15.09-4.44c100-29.46,216.66-18.39,346.7,32.9,117.17,46.21,244.64,126,368.61,230.79,370.27,312.9,635,769.7,602.72,1040l-1.5,12.56,7-10.55c.45-.67,45.19-68.39,97.64-161.13,48.34-85.49,113.17-210.15,147.51-318.57,52.58-170.58,81.5-362.56,109.47-548.22,14.2-94.27,28.89-191.74,46.32-283.18,24.48-49.69,73.69-93.48,125.79-139.83,50.91-45.3,103.56-92.13,135.05-147.23,17.11-29.93,26.47-59.43,28.61-90.2,2-28.81-2.3-57.75-13.17-88.41l168.06-221.15,35.32,15,.23.09,86.64,17.69.43.08,77.16-11.93,51.06-33.14,40.71-52.18.24-.3,18.65-49.75.1-.27,6.32-50.38Zm-176.54-96.89,61.44,25.45,70,35.86,39.65,38.14,14.54,45.1-6,48.31-18.21,48.55-39.76,51-49,31.87-74.92,11.59L2620,634.23l-51.42-21.77-34.45-23.28-3.36,5,34.74,23.46,11.46,4.91L2412.11,839.4c-1.61-4.23-3.3-8.4-5.07-12.48l-.05-.09c-33.7-65.94-96.56-87.3-169.35-112-49.18-16.71-104.22-35.42-156-71.25l231.87-295.8,38.84,47.47,4.64-3.8-40.88-50L2289.16,265l4.34-79.82,37.35-76.43,53.78-48.57,50.92-20.72h53.27l50,26.73,42.6,43.46,28.79,43.6,27.91,61.49,8.71,68.33-5.22,48.63-6.87,19.64,5.66,2,7.09-20.24,3.93-36.64Zm-447.68,851.62c-52.68,46.86-102.43,91.13-127.36,142l-.25.76c-17.49,91.64-32.2,189.29-46.44,283.82-27.94,185.44-56.83,377.19-109.26,547.31-34.18,107.9-98.81,232.16-147,317.4-40.36,71.36-76.12,127.85-90.67,150.4,5.8-67.15-5-144.89-32.16-231.27-27.3-86.8-70.22-179.8-127.59-276.42-55.91-94.17-123-187.62-199.49-277.75-77.23-91-160.28-174.28-246.83-247.43-61-51.52-122.78-97.13-183.71-135.56-63.54-40.08-126.32-72.45-186.58-96.22-83.1-32.78-161.58-49.39-233.26-49.39a420.86,420.86,0,0,0-102.23,12.21c35-26,134.73-96.7,269.53-166,153.32-78.83,383.16-170.64,607.32-160.42h.11c20.36,0,49.65,3.72,83.56,8,109,13.87,273.74,34.82,387-36.24,40.58-25.47,74.26-61.28,103-109.5,24.74-41.51,41.76-85.26,56.77-123.87,21.46-55.17,38.41-98.74,66.54-106.38,15.52-4.22,34.47,2.76,58,21.34,57.93,45.84,121,67.28,176.72,86.19,71.52,24.3,133.28,45.27,165.88,109C2467.85,982.57,2362.24,1076.56,2260.09,1167.44Z"/>
  </g>
</svg>
