<svg xmlns="http://www.w3.org/2000/svg" viewBox="0 0 2994.91 3000">
  <title>170Icon_neon 1</title>
  <g>
    <path d="M2354.41,321.86,1851,56.6,1748.36,251.4l-1.4,2.66,61.69,32.5L1454,958.45,589.11,1558.84l-.6.42L218,2262.35l-1.4,2.66L1467.9,2924.35l2.64,1.39,378.9-708.1.37-.68L1830.11,1156l351-673.17,69.21,36.47L2353,324.51Zm-530,832.07-.35.68,19.7,1060.9-375.72,702.14L224.72,2262.49l368.41-699.14L1458,963l.6-.42L1814,289.36l361.89,190.7Zm521.88-829.56-98.45,186.85-492.8-259.68L1853.52,64.7Z"/>
    <path d="M2392.78,991.8h-.25l-35.91,7.82-.37.11c-40.33,15.62-69.65,44.1-84.8,82.36-18.13,45.79-9,99.7,23.73,140.69,26.36,33,63.82,51.92,102.78,51.92a122.2,122.2,0,0,0,18.7-1.45c30.1-4.69,55.56-14.66,75.66-29.61,19.89-14.8,35.11-34.91,45.23-59.76,18-44.2,14-88.88-11.19-125.82C2498,1016.44,2446.74,991.05,2392.78,991.8Zm5.18,276.9h0c-37.12,0-72.88-18.1-98.09-49.66-31.43-39.32-40.18-91-22.84-134.74,14.5-36.6,42.55-63.88,81.13-78.89l35-7.62h1.91c51.12,0,99.53,24.39,126.33,63.66,24,35.23,27.8,77.91,10.59,120.18-19.5,47.88-58.61,76.71-116.27,85.7A116.39,116.39,0,0,1,2398,1268.7Z"/>
    <path d="M2788.46,96.52c-22.58-32.77-62.37-52.95-104.19-52.95h-2.05L2653.5,50l-.37.12c-32.3,12.83-55.79,36.22-67.92,67.64-14.84,38.44-7,83.37,20.4,117.26,21,26,50.58,40.87,81.1,40.87a94.37,94.37,0,0,0,14.91-1.19c48-7.66,80.53-32.36,96.82-73.39C2813.11,164.35,2809.57,127.14,2788.46,96.52ZM2686.71,269.88h0c-28.7,0-56.56-14.09-76.43-38.65-26.08-32.22-33.54-74.88-19.47-111.32,11.49-29.75,33.71-51.92,64.27-64.13l27.79-6.2h1.39c39.87,0,77.79,19.19,99.26,50.35,19.93,28.92,23.25,64.14,9.34,99.16-15.45,38.93-46.47,62.38-92.19,69.68A88.29,88.29,0,0,1,2686.71,269.88Z"/>
    <path d="M620.73,662.08c15.44,18.86,34.55,33.61,55.26,42.62a123.71,123.71,0,0,0,49.64,10.53,125.65,125.65,0,0,0,20.2-1.65c31.9-5.22,58.88-16.28,80.17-32.89,21-16.42,37.15-38.73,47.86-66.3,19.69-50.7,14.58-101.58-14.39-143.25-30.46-43.83-83.71-70.57-138.94-69.78h-.26l-38.07,8.68-.38.13c-42.7,17.34-73.74,48.95-89.77,91.39a156.17,156.17,0,0,0-6.68,85.4A171.22,171.22,0,0,0,620.73,662.08ZM723,407.35c52.42,0,102.66,25.61,131.58,67.21,27.79,40,32.66,88.87,13.71,137.66-20.7,53.33-62.22,85.44-123.4,95.43C700.54,714.9,657,696.9,625.37,658.28c-36.33-44.4-47-103.63-27.71-154.59,15.4-40.77,45.19-71.15,86.15-87.86l37.12-8.47Z"/>
  </g>
</svg>
