<svg xmlns="http://www.w3.org/2000/svg" viewBox="0 0 2994.91 3000">
  <title>32Icon_neon 1</title>
  <path d="M2862.39,118.9l-.47-3.15-3.12.66c-1.81.39-184.42,39.18-442.18,78.67-238,36.46-590.66,81-919.12,86.22-328.55-5.21-681.22-49.76-919.21-86.22C320.52,155.59,137.91,116.8,136.1,116.41l-3.12-.66-.47,3.15C97.07,354.07,104.3,635,154,953.73,201.76,1260,279.2,1538.21,335.75,1717.65c39.25,124.53,78.33,245.77,124.92,360,52.24,128.12,107.92,231.72,170.22,316.71,36.67,50,83.26,96.11,142.45,140.94C829,2577.5,891.24,2615,945.2,2646.91c35.41,20.91,148.87,76.45,263.92,129.18,64.93,29.76,221.64,100.32,274.33,112.84l14,3.41,14-3.41c52.72-12.52,209.42-83.08,274.35-112.84,115-52.73,228.52-108.27,263.92-129.18,54-31.87,116.19-69.41,171.86-111.57,59.19-44.83,105.78-90.93,142.45-140.94,62.3-85,118-188.59,170.22-316.71,46.59-114.28,85.68-235.51,124.92-360,56.55-179.44,134-457.63,181.75-763.92C2890.6,635,2897.83,354.07,2862.39,118.9ZM1497.45,2886.17l-12.59-3.08c-52.2-12.39-208.48-82.77-273.24-112.46-114.89-52.65-228.11-108.07-263.37-128.89-119.52-70.6-233.35-142.91-312.52-250.89-143-195.07-226.87-461.18-294.26-675C229.63,1361,54.68,682.58,138,122.94,162.14,128,338,164.33,577.37,201c238.18,36.49,591.15,81.08,920.13,86.29,328.89-5.21,681.85-49.8,920-86.29,239.37-36.68,415.23-73,439.4-78.07,83.29,559.65-91.66,1238-203.5,1592.91-67.39,213.83-151.26,479.94-294.26,675-79.16,108-193,180.29-312.52,250.89-35.25,20.82-148.48,76.24-263.37,128.89-64.76,29.69-221,100.07-273.26,112.47Z"/>
</svg>
