<svg xmlns="http://www.w3.org/2000/svg" viewBox="0 0 2994.91 3000">
  <title>138Icon_neon 1</title>
  <path d="M2374.67,2596.33c-24.32-98.43-55.22-210.74-73.68-277.86-6.9-25.08-12.35-44.89-15-54.89l-415.6-1577c-4.81-17.49-12.6-49.87-22.46-90.87-21.28-88.41-50.41-209.48-80.54-312-16.52-56.22-31.5-100.34-44.53-131.13-15.79-37.33-29.11-56.21-40.71-57.74l-1-.14-.89.52C1654.71,110.13,1619,172.77,1571,286.7c-40.54,96.29-82.09,210.86-115.49,302.92-21,57.81-39.08,107.74-50.47,135L604,2685l-.55,1.35.72,1.27c29.62,51.93,129.62,86.68,183.35,105.35,204.29,71,445.86,113.63,698.6,123.32,36.6,1.4,73.82,2.11,110.64,2.11,219.92,0,442.24-25.44,642.94-73.58l.14,0q83.6-25.17,167.16-50.34l1.05-.31.61-.93C2413.24,2786.21,2414.66,2758.17,2374.67,2596.33ZM1762,286.18c29.94,102.19,59,222.84,80.17,310.93l.06.23c9.85,40.95,17.64,73.29,22.44,90.8l415.6,1577c2.59,10,8,29.59,14.83,54.45l.15.53c18.38,66.83,49.15,178.68,73.44,276.78,13.43,54.21,23.27,97.78,29.24,129.49,8.47,45,7.74,58.66,6.19,62.75L2238.25,2839c-474.41,113.76-1029.53,93.95-1448.72-51.71-52.52-18.25-149.95-52.11-179.37-101.4l800.43-1959c11.44-27.33,29.57-77.32,50.59-135.26C1527.06,410,1626.45,136,1682.37,101,1695.06,104.2,1719,139.63,1762,286.18Z"/>
</svg>
