<svg xmlns="http://www.w3.org/2000/svg" viewBox="0 0 2994.91 3000">
  <title>154Icon_neon 1</title>
  <path d="M2852.17,2026.34l-.1,0c-45.78-22.72-91.58-17.71-140.08-12.41-38.42,4.2-78.15,8.55-118.6-1.91l-.32-.06c-34.51-4.21-70.39-13-105.08-21.56-23.16-5.7-45-11.08-66.56-15.2-256-49-433.89-233.29-475.72-492.94-45.63-283.19,87.4-572.91,323.5-704.55,6.62-3.69,12.82-7.19,18.7-10.5l.16-.09c51.81-29.2,77.81-43.86,136.72-49.83l.22,0,.77-.25c49.6-23.67,78.32-65.23,78.79-114,.46-48.28-27.63-94.94-69.91-116.12-27.45-13.75-84.49-28.42-158.22,27.82l-.23.2c-26.08,25.49-29.12,62.6-32.34,101.89-2.24,27.23-4.55,55.4-15.24,79.31C2127.12,923.1,1978.4,970.58,1898.79,978.68c-110.42,11.22-220.53-39.56-287.34-132.54-83.23-115.84-89.09-274.55-16.08-435.45,10.62-23.39-1.46-35.34-9.61-40.38-12.49-7.72-33-10.55-54.87-7.57s-40.18,11.14-48.85,21.81c-5.31,6.55-11.71,20.19,5.2,37.94,52.08,54.69,66.9,122.9,41.73,192.06C1499.6,695.24,1422.41,758,1341.25,767.06c-70.67,7.93-134.4-26.16-179.4-96-8.08-12.53-15.67-25.37-22.55-38.17A334.34,334.34,0,0,0,1123,599.61c-20.23-46.29-24.27-80.74-11.35-97,17.69-22.29,28.68-43.52,32.67-63.12,3.55-17.44,1.61-33.65-5.75-48.18-19.11-37.73-72-56.2-102.85-55l-.6.09c-56.51,13.73-88.49,37.83-92.47,69.66-4.76,38.17,32.41,82.16,99.45,117.66,29.5,15.62,54.93,42.1,75.58,78.68,4.65,10.55,10,21.59,16.06,32.8a460.15,460.15,0,0,1,23.62,73.59c18.55,78.54,22.77,171.87,11.9,262.79-10.82,90.44-35,165.75-68,212.07-55.29,77.47-159.37,139.47-293.07,174.59-116.4,30.58-238.95,35.8-319.82,13.64-59-16.17-109.69-48.48-154.43-77-46.61-29.71-86.86-55.36-127.61-59.16-45.13-4.21-84.85,19.85-125,75.72a98,98,0,0,0-18.15,63.14c1.12,20.94,8.3,42.53,20.75,62.43,13.32,21.28,32.09,39.44,52.86,51.14,22.5,12.66,46.16,17.33,68.4,13.51,44.14-7.6,61.94-22.4,88.89-44.81,4.46-3.72,9.08-7.55,14.16-11.65,47.22-28.46,148-46,269.58-46.89,115.73-.86,226.06,13.11,287.82,36.46,134,53.94,229,185.1,260.62,359.84,25.53,140.93,4.59,291.28-57.46,412.54-6.22,10.3-12.17,21-17.67,31.94-25.62,42.91-56.17,80.75-90.81,112.45-36.66,33.54-60.9,40.07-86.56,47-27.08,7.29-55.08,14.83-100.18,51.9l-.11.1c-25.5,23.69-37.74,53.55-35.38,86.37,2.89,40.22,27.72,81.14,64.8,106.79l.11.08A142.52,142.52,0,0,0,877.65,2665c4,0,8.11-.17,12.15-.51a151.17,151.17,0,0,0,78.2-30.29c20.41-15.63,35.67-35.78,44.11-58.26,9.12-24.28,9.91-50.74,2.29-76.52l-.06-.19-.35-.66c-17.4-25.22-13.86-71.83-7.83-106.5,7.54-43.29,23.27-92.67,43.15-135.48,1.94-4.16,4-8.34,6-12.42,7.16-11.85,14-24.22,20.34-36.77,124.56-203.51,333.69-211.07,394.84-208.54,159.91,6.63,294.29,95.44,342.36,226.25l.72,2h6.78l.07-2.92c3-118.12,85-204.12,225.21-235.94,181.59-41.22,434.37,25.59,526.51,205.36,1.42,45.28,23.75,92.92,55.74,118.75,36.26,27.92,74.48,44.39,113.58,49a186.9,186.9,0,0,0,101.68-16.69,197.06,197.06,0,0,0,78.24-66.8c19.87-29,30.93-61.59,32-94.3C2955.37,2119.36,2919.45,2063.55,2852.17,2026.34ZM2347,2002.6a573.4,573.4,0,0,0-189.9-32.45,510.68,510.68,0,0,0-112.86,12.2c-66,15-121.81,43.3-161.29,81.88-41.52,40.56-64.41,90.8-68.13,149.46-25.69-63.66-71.37-117.66-132.62-156.62-61-38.8-134.16-61-211.52-64.22-85.62-3.55-169.41,16.41-242.26,57.73a432.54,432.54,0,0,0-104.22,82.61,446.61,446.61,0,0,0-32.47,39.46,620.54,620.54,0,0,0,26.39-75.4,682.19,682.19,0,0,0,14-303.71c-15-83-45.68-159.44-88.62-221.08-46.6-66.89-105.7-115.09-175.72-143.28-62.43-23.6-173.55-37.72-290-36.87-57.54.43-112.17,4.63-158,12.15-50.82,8.34-89.47,20.37-114.88,35.73l-.27.19c-5.16,4.15-9.84,8-14.42,11.86-26.2,21.78-43.51,36.18-86.07,43.5-47.64,8.2-92.17-25.19-115.16-61.92-25.71-41.08-26.76-85.53-2.8-118.88,38.75-54,76.72-77.24,119.53-73.25,39.28,3.66,79,29,125,58.25,45.09,28.73,96.19,61.3,156.06,77.71,81.83,22.42,205.57,17.2,322.94-13.63,135-35.47,240.31-98.29,296.43-176.9,33.64-47.13,58.18-123.43,69.12-214.85,11-91.6,6.68-185.67-12-264.88-3.38-14.28-7.21-28-11.46-41q2.51,4,5,8c24.32,37.74,53.65,65.28,87.18,81.86,30.45,15.06,63.4,20.73,97.94,16.85,40.5-4.54,82-22.8,117-51.42,34.47-28.24,61.36-65.53,75.73-105q2.58-7.12,4.63-14.24a438,438,0,0,0,.16,54.6c4.72,71.46,27.95,138.08,67.17,192.68,33.48,46.59,78.08,83.7,129,107.31a314.14,314.14,0,0,0,163.85,27.7c64.38-6.55,127.46-33.44,182.41-77.78,61.38-49.52,112.62-119.64,152.3-208.39,11.11-24.85,13.46-53.53,15.73-81.27,3.13-38.08,6.08-74.06,30.41-98,71-54.12,125.54-40.2,151.72-27.09,40.28,20.18,67,64.67,66.6,110.7-.45,46.27-27.74,85.77-74.9,108.45-59.8,6.14-86.16,21-138.54,50.52-5.92,3.34-12.17,6.86-18.84,10.58-122.23,68.15-217.59,175-275.77,309-54.31,125.08-72.32,267.76-50.74,401.76,19.63,121.83,70.64,231.23,147.5,316.36a558.69,558.69,0,0,0,143,113.68c57,31.8,121,54.63,190,67.84,21.37,4.09,43.17,9.45,66.25,15.13,34.82,8.56,70.81,17.42,105.56,21.67,41.39,10.66,81.63,6.26,120.54,2,47.58-5.2,92.52-10.12,136.68,11.79,65.17,36,100,89.91,98,151.66-2,64-44.95,126.67-106.77,155.88-66.15,31.26-142.34,19.73-209-31.58-30.81-24.88-52.31-71.05-53.48-114.87v-.28l-.2-.76-.12-.25c-22.3-43.73-54.6-82.58-96-115.46C2443.28,2045.38,2398,2020.7,2347,2002.6Zm-815.32-1634a117.87,117.87,0,0,1,16-1.11c14.12,0,26.57,2.74,34.91,7.91,11.5,7.11,14,18.14,7.31,32.79-20.53,45.25-35,90-43.2,133.92a179.9,179.9,0,0,0-2.86-25.31c-6.67-35.93-24.25-69.05-52.26-98.46-10.48-11-12.13-21.11-4.89-30C1494.36,378.9,1511.61,371.35,1531.72,368.62ZM1133.24,394c14.72,29.07,5.89,64.35-26.27,104.86-11.78,14.83-11.87,40.09-.31,75.11-17.91-24.69-38.61-43.35-61.74-55.6-64.74-34.28-100.74-76-96.29-111.61,3.63-29.09,33.93-51.39,87.63-64.5C1065.51,341.3,1115.34,358.68,1133.24,394ZM1008.78,2501.56c13.79,47.34-3.21,96.3-44.43,127.87-46.83,35.86-108.89,39.49-158.12,9.26-35.58-24.64-59.4-63.81-62.16-102.24-2.22-30.92,9.33-59.09,33.4-81.47,44-36.19,71.4-43.55,97.85-50.67s51.32-13.81,89-48.34a495.17,495.17,0,0,0,69.57-79.18c-15.37,37.43-27.37,77.94-33.69,114.24C994.06,2426.61,990.54,2474.6,1008.78,2501.56Z"/>
</svg>
