<svg xmlns="http://www.w3.org/2000/svg" viewBox="0 0 2994.91 3000">
  <title>130Icon_neon 1</title>
  <g>
    <path d="M1904.57,529.27c-41.62-54-95.89-102.49-165.93-148.29-64.42-42.13-165-96-294.25-77.72a546.66,546.66,0,0,0-160.16,48.05c-41.58,19.74-82.19,45-127.8,79.45-54.22,41-95.78,84.62-127,133.46-29.08,45.41-49.54,95.89-62.55,154.33-24.75,111.26-20.65,239.15-15.45,401.08,1.23,38.18,2.5,77.66,3.45,119.28l.07,2.92H2034l0-2.94c4.41-235.57-.56-397.58-39-528.58C1974.66,641,1945.08,581.82,1904.57,529.27Zm123.55,706.56H960.76c-.94-40.42-2.18-78.94-3.38-116.21v-.18C947,796.29,940.74,601.25,1160.05,435.55c69.22-52.31,157.23-108.22,285.18-126.35,127.24-18,226.52,35.2,290.13,76.8C2010.92,566.2,2036.46,783.58,2028.12,1235.83Z"/>
    <path d="M2563.4,2411.17c-1.2-41.1-2.45-83.6-2.45-125.61q-.66-432.87-1.35-865.74l0-.41a228.33,228.33,0,0,0-49.11-107.6c-26.83-32.5-61-53-107.59-64.68-38.08-9.52-84.9-13.36-156.08-12.82,11-63.68,10.39-157-2-277.3q-1.85-18.07-3.61-35.72l-.08-.83c-11.06-110.33-20.6-205.61-51.71-293.33C2138.11,482.46,2044.91,349.78,1927,253.54,1793.77,144.81,1636.51,88.41,1472.33,90.4l-.7.09c-25.29,6.39-49.84,9.76-73.59,13-29.3,4-57,7.83-84.28,16.83A821.71,821.71,0,0,0,989.27,320.78a782.53,782.53,0,0,0-119.62,155,755.67,755.67,0,0,0-78,185.88c-43,159.63-39.25,370.17-28.56,574.2-73.48-.44-122,4.68-161.87,17-44.87,13.93-78.71,37.83-106.49,75.2-46.39,62.38-44.11,178.68-41.9,291.2.45,23.06.92,46.91.92,69.49v758.11c0,22.7-.74,46.9-1.52,72.59-2.54,83.35-5.42,177.82,19.28,233.75,28.28,64.05,76.58,102.08,152,119.69,38.56,9,85.08,13,150.81,13,29.21,0,58.91-.74,90.34-1.52,33.52-.83,68.17-1.69,103.59-1.69H2356.1l.31,0c53-6.47,94.33-23.59,126.21-52.36,28.66-25.85,49.11-60.71,62.53-106.55C2570.07,2638.63,2566.83,2528.19,2563.4,2411.17Zm-24,310.9c-27.37,93.52-85.68,142.66-183.5,154.62H968.23c-35.49,0-70.18.86-103.73,1.7-88.81,2.2-172.69,4.28-239.65-11.35C551.41,2849.9,504.42,2813,477,2750.78c-24.15-54.69-21.29-148.44-18.76-231.2.78-25.68,1.52-49.93,1.52-72.72V1688.75c0-22.64-.47-46.52-.92-69.65-2.19-111.46-4.45-226.72,40.71-287.46,55.88-75.15,135.47-89.86,254-89.86,4.15,0,8.38,0,12.64,0l3.19,0-.17-3.18c-10.79-204.6-14.84-415.93,28.2-575.51,66.89-248,265.46-453.85,518.22-537.13,26.78-8.83,54.19-12.6,83.22-16.58,23.8-3.27,48.41-6.65,73.9-13.07,2.77,0,5.5,0,8.26,0,354.92,0,608.69,267.6,702.75,532.8,30.87,87,40.38,182,51.4,291.94q1.82,18,3.7,36.54c12.51,122.07,13,216,1.38,279.18l-.67,3.58,3.65,0c128.94-1.26,209,10.37,262.61,75.28a222.36,222.36,0,0,1,47.77,104.49q.67,432.68,1.34,865.44c0,42.14,1.25,84.71,2.46,125.88C2560.82,2527.88,2564,2637.86,2539.39,2722.07Z"/>
  </g>
</svg>
