<svg xmlns="http://www.w3.org/2000/svg" viewBox="0 0 2994.91 3000">
  <title>52Icon_neon 1</title>
  <g>
    <path d="M2058.29,1049c-39.17,5-73.7,9.14-105.55,12.73l-3.08.34c-35.17,3.81-68.39,7.41-105.37,9.27-35.76,1.54-73.26,4.19-109.54,6.76l-.5,0q-11.6.83-23.19,1.63l-9.8.69c-41,2.9-83.47,5.89-125.92,8-26.85,1.32-49.1,1.81-70,1.54-22.49-.32-44-1.28-69.34-2.61-41.1-2.27-82.36-5.19-122.31-8l-13.1-.92-67-4.55-67.5-3.7c-46.18-3.33-91.06-8.6-134.47-13.7l-2.16-.25c-49.35-6-101.69-12.75-169.73-22l-6.2-.85,3.22,5.36c37.87,63,74.58,125.22,109.1,185,43.27,75,99.67,174.2,152.28,276.62,9.41,17.94,18.54,36.63,27.37,54.73l.1.2c2.67,5.48,5.34,11,8,16.35l33.3,72.39,65.23,142.24,122.48,267.06.56,1.23,1.29.4c5.3,1.62,11,3.08,16.82,4.34a360.78,360.78,0,0,0,38.59,5.94c24.12,2.53,50.42,3.71,82.76,3.71h0c32.34,0,58.64-1.21,82.76-3.75a359.26,359.26,0,0,0,38.59-5.95c5.91-1.27,11.57-2.73,16.83-4.35l1.29-.39,188.16-410.52,33.26-72.32q3.82-7.8,7.65-15.64l.48-1c8.82-18.06,17.93-36.73,27.37-54.72,52.62-102.44,109-201.61,152.24-276.56,34.63-60,71.32-122.17,109-184.91l3.23-5.36-6.2.84C2130,1039.62,2093.68,1044.44,2058.29,1049ZM1514.63,2062.87c-32.13,0-58.23-1.17-82.13-3.68a354.46,354.46,0,0,1-38-5.83c-5.22-1.12-10.28-2.41-15-3.83l-121.92-265.85-65.23-142.24L1159,1569q-4.07-8.3-8.12-16.6c-8.84-18.13-18-36.87-27.44-54.86-52.66-102.53-109.11-201.81-152.4-276.86-33.56-58.1-69.18-118.53-105.93-179.71,65.07,8.86,115.72,15.42,163.63,21.19l2.18.26c43.46,5.11,88.41,10.39,134.78,13.73l67.51,3.7,66.93,4.54,13.09.93c39.94,2.82,81.24,5.75,122.41,8,25.42,1.34,47,2.3,69.59,2.62,21,.27,43.39-.22,70.39-1.55,42.5-2.08,85-5.07,126-8l9.79-.69,23.19-1.63.52,0c36.22-2.56,73.68-5.21,109.38-6.75,37.18-1.87,70.47-5.48,105.73-9.3l3.09-.33c31.91-3.6,66.47-7.77,105.66-12.75,33.57-4.31,67.94-8.86,104.9-13.89-36.58,60.89-72.19,121.3-105.88,179.64-43.28,75-99.71,174.26-152.38,276.79-9.45,18-18.59,36.74-27.43,54.85l-.11.23c-2.67,5.47-5.34,10.94-8.05,16.47l-33.29,72.39-187,408.07c-4.73,1.41-9.79,2.69-15.06,3.83a352.94,352.94,0,0,1-38,5.84C1572.85,2061.67,1546.76,2062.85,1514.63,2062.87Z"/>
    <path d="M2744.43,927.68a7.63,7.63,0,1,0-7.64-7.63A7.64,7.64,0,0,0,2744.43,927.68Z"/>
    <path d="M291,917.68a10.52,10.52,0,1,0,10.53,10.52A10.53,10.53,0,0,0,291,917.68Z"/>
    <polygon points="365.31 932.27 364.08 938.14 519.69 970.86 692.17 1003.51 693.28 997.62 520.86 964.97 365.31 932.27"/>
    <path d="M2671.65,937.17l-1.38-5.84-2.44.58c-1.2.28-121.13,28.65-157.86,35.43-43.48,8-165.16,27.19-166.38,27.38l-2.47.39.93,5.92,2.47-.39c1.23-.19,122.83-19.34,166.54-27.4,36.44-6.73,156.94-35.21,158.16-35.49Z"/>
    <path d="M2942.9,1114.32c-10.08-16.8-36.42-40-55.66-56.86l-.13-.11c-3.84-3.38-7.46-6.57-10.43-9.25-19.53-17.65-81-66.25-81.66-66.74l-1.5-1.18-29.4,14.7-24.42,7.22-30.77-7.1-.9,2.51c-.31.86-31.2,87-42.29,115.11-5.69,14.41-14.64,33.86-24.13,54.49-16.65,36.17-35.52,77.18-42.6,103.77-.9,3.39-2.17,7.51-3.64,12.27-6.94,22.46-17.42,56.4-5.37,70,2.86,3.23,8.21,4.87,15.88,4.87a91.56,91.56,0,0,0,24.9-4c17.77-5.84,50.58-30,62.71-46.17,10.42-13.89,18.87-43.75,25.05-65.56,1.21-4.28,2.36-8.33,3.36-11.66,4.43-14.78,12-44.48,14.06-59.55,3-22,4.77-68.35,5.74-106.48,1.58,18.11,3.21,35.89,4.38,45.94,1.37,11.79,4,28.21,6.86,45.59,4,24.57,8.12,50,9.29,66.33,1.79,24.94,3.81,73.46,0,97.08-2.18,13.62-10.6,36.39-17.37,54.7-3.08,8.32-6,16.17-7.95,22.2-6.35,19.43-23.61,72.74-28.76,88.61l-.95,3,5.71,1.85.95-2.93c5.14-15.88,22.4-69.18,28.75-88.62,1.93-5.9,4.82-13.71,7.88-22,7.22-19.51,15.39-41.62,17.67-55.82,3.86-24.15,1.83-73.26,0-98.46-1.2-16.61-5.34-42.14-9.36-66.87-2.81-17.32-5.47-33.68-6.82-45.31-2.7-23.2-8.05-89.7-9.06-102.45l19.93-5.9c3.22,16.38,19.45,99.4,24.06,128.81,4.25,27.14,11,82.43,14,110.12,3.53,33,10.81,121.6,13.78,158.15.08,1,.13,1.64.16,2l-9.06,102.2,6,.53,9.1-102.71,0-.21c-.1-1.19-9.72-120.73-14-160.56-3-27.74-9.72-83.17-14-110.41-3.23-20.62-12.06-67-18.24-99,11.76,29.85,29.23,72.54,39.55,90.2,11.64,19.93,38.89,61.49,58.67,76.11,8.58,6.34,28.63,15.56,40.5,15.56.48,0,.94,0,1.39,0,8.06-.55,22.25-8.75,27.77-14.83,6.68-7.34,14.27-25.42,14.78-35.17C2958,1149,2949.09,1124.65,2942.9,1114.32ZM2792.79,987.25c9.11,7.21,62.37,49.49,79.87,65.3,3,2.73,6.69,6,10.62,9.42,18.94,16.64,44.87,39.44,54.47,55.44,5.75,9.59,14.17,33,13.57,44.5-.42,8.21-7.59,25.25-13.22,31.44-4.56,5-17.37,12.45-23.74,12.88-9.68.66-29.67-8.25-37.91-14.34-19-14.05-45.63-54.75-57.07-74.31-14.74-25.24-45-104.13-50.39-118.43Zm-198.3,361.92c-9.81-11.07.47-44.36,6.63-64.3,1.49-4.82,2.77-9,3.69-12.44,7-26.11,25.71-66.87,42.26-102.83l0-.1c9.5-20.64,18.47-40.13,24.21-54.68,10.1-25.63,36.54-99.09,41.46-112.77l24,5.53c-.2,16.75-1.65,125.55-6.75,162.67-2,14.77-9.49,44-13.87,58.64-1,3.33-2.13,7.33-3.33,11.57l-.06.19c-5.7,20.14-14.32,50.58-24.07,63.59-11.59,15.45-42.87,38.52-59.78,44.07C2618.06,1351.88,2598.8,1354,2594.49,1349.17Z"/>
    <path d="M279.42,1006.44l-.12-.52-2.11,0-19.67-4.25-28.29-5-.17,1c-5.72,2.78-20.74,16.46-69.72,65.41-6,6-10.75,10.74-13.09,13-21,20.28-52.75,68.52-68.58,96.3C63,1198.18,45.39,1233.16,45,1253.34c-.24,14.46,9.72,41.64,19,51.93,8.43,9.31,32.05,21.77,44.66,21.77h.64c11.4-.38,30.88-13.12,38.38-21.44-3,19.25-4.13,52.83-4.8,73.3l-.31,9.36c-1.21,35.85-3.47,102.59.18,136.22,2.3,21.12,18.1,82.53,18.26,83.15l.62,2.42,5.81-1.5-.62-2.42c-.16-.61-15.87-61.78-18.1-82.3-3.61-33.19-1.36-99.65-.15-135.37l.31-9.37c.09-2.71.18-5.66.29-8.78,3.88,14.87,10,31.42,15.29,45.8,3.57,9.69,7,18.84,9.08,25.91,1.35,4.5,3.18,10,5.24,16l-.4,1.27.94.29c1.09,3.19,2.24,6.5,3.42,9.88,7.32,21.07,15.62,44.94,18.05,59.48,6.23,37.3,12.59,149.63,12.86,154.39l.14,2.5,6-.34-.14-2.49c-.06-1.16-6.6-117.15-12.93-155-2.51-15-10.9-39.17-18.31-60.48-.64-1.85-1.28-3.67-1.9-5.47l3.33,1.22c6.09,2.24,11.34,4.18,16.05,4.18,6.31,0,10.74-3.58,13.57-10.94,16.06-41.86,20.92-112.65,24.83-169.54l.07-1q.4-5.91.81-11.64c1.82-26.13,11.65-94.46,20.33-154.81,9.76-67.91,15.24-106.56,14.26-111.14l-.12-.55.26-1.22ZM179.36,1440.28c-2.18-7.25-5.58-16.48-9.2-26.28-8.37-22.67-18.76-50.85-18.82-68.12,2.1-21.07,27.32-101.74,57.52-183.93,36.39-99,56.64-137.41,64.86-147.26-1.37,15.46-7.82,60.35-14.1,104-8.68,60.38-18.53,128.81-20.37,155.17q-.44,6.21-.87,12.65c-3.88,56.48-8.71,126.77-24.46,167.79-3.64,9.5-8.17,8.35-22,3.27-2.5-.92-5.08-1.87-7.86-2.78C182.24,1449.35,180.59,1444.38,179.36,1440.28Zm43.91-344.74c1.37-7.92,3-16.62,4.71-25.52,6.27-33,10.24-55.51,8.71-65.9L253,1007Zm-63,191.15c-2.79,9.19-5.26,17.65-7.35,25.22.37-3,.77-5.7,1.21-8.11C154.87,1299.8,157.28,1293.66,160.28,1286.69Zm78.19-216.37-1.89,4.46,22.4-66.62,10.62,2.3C264,1016.86,254.73,1032.42,238.47,1070.32Zm-7.92-66.79c2.61,7.06-4,42-8.46,65.37-4.22,22.21-8.2,43.19-8.36,54.44-.18,12-11.34,36-20.33,55.38-5.16,11.1-9.61,20.68-11.76,27.26-1.48,4.51-3.17,10-5,15.84-1.43,4.69-3,9.67-4.57,14.79h-.65v2.05c-7.58,23.86-17,50.16-27.9,62.63-6.46,7.39-24.81,19.42-34.37,19.74-10.68.34-33-11.31-40.66-19.78-8.22-9.09-17.7-35-17.49-47.81.33-18.91,17.5-52.89,31.84-78.07,15.65-27.47,47-75.09,67.54-94.95,2.36-2.28,7.07-7,13-12.94l.16-.16C178.36,1052.59,221.93,1009,230.55,1003.53Z"/>
  </g>
</svg>
