<svg xmlns="http://www.w3.org/2000/svg" viewBox="0 0 2994.91 3000">
  <title>58Icon_neon 1</title>
  <g>
    <path d="M1559.62,2256.09l-2.77.14a1527.09,1527.09,0,0,1-202.09-3.19l-3.4-.28.16,3.4c7.69,171.41,18.33,353.65,28.63,529.89l.11,2c2.63,45,5.23,89.56,7.75,133.42l.14,2.4,2.37.39c28.8,4.76,66.82,10.22,105.45,10.22,36.18,0,67.4-4.66,95.43-14.26l1-.36,18.63-31.62,29.22-4.8,2.87-.47L1560,2258.83ZM1393.86,2918.7c-2.48-43.23-5-87.15-7.64-131.48l-.08-1.52c-10.23-175.06-20.8-356-28.47-526.41a1532.61,1532.61,0,0,0,196.73,3.07l82.06,615.6-29.12,4.78-18.93,32.13C1526,2935.88,1455.23,2928.73,1393.86,2918.7Z"/>
    <path d="M2427.49,2602.83l-6.25-11.8-1-1.84c-2.84-5.35-5.67-10.71-8.5-16-62.41-119.92-122.73-244.33-184.41-380.31l-1-2.15-2.32.44c-26.8,5.14-51.37,9.26-75.11,12.57l-3.5.49,1.05,3.37c16.44,53.08,31.6,107.95,46.29,161.08,29.81,107.85,60.63,219.36,104.14,323.43l1.43,3.42,128.18-88.8,2.19-1.52Zm-126.44,83.51c-42.62-102.74-73-212.81-102.49-319.37-14.37-52-29.21-105.69-45.28-157.81,22.06-3.14,44.88-7,69.59-11.68,61.39,135.25,121.44,259.06,183.59,378.47q4.26,8,8.5,16.05l.32.6,5.66,10.69Z"/>
    <path d="M2156.78,2530.44c-30.82-105.45-62.69-214.5-93.08-314.19l-.71-2.32-2.41.2c-52.55,4.39-102.65,4.47-155.7,4.55H1901l1,3.76c45.3,173.17,98,377.87,145.25,583.18l.91,4,160.29-93.52,2-1.18L2177,2599.72C2170.41,2577.07,2163.64,2553.91,2156.78,2530.44ZM2052.16,2800.3c-46.75-202.72-98.64-404.48-143.39-575.63,50.84-.08,99.07-.23,149.89-4.36,30.14,98.93,61.76,207.12,92.36,311.81l1.21,4.13c6.44,22.06,12.81,43.83,19.05,65.15l32.11,110.67Z"/>
    <path d="M1825.46,2237l-2.59.18c-61,4.24-119.7,4.63-184.58,4.69h-3.59l.64,3.53c31.55,175.95,72.29,407.54,107.54,638.58l.57,3.69L1946,2810.05l2.4-.92L1826,2239.58Zm-77.21,642.4c-34.93-228.54-75.11-457.12-106.38-631.53,62.61-.07,119.54-.51,178.83-4.53l120.75,562Z"/>
    <path d="M845.51,2208.45l-3.72-.32c-27.64-2.35-53.78-5.75-79.92-10.38l-2.36-.42-.93,2.21c-60.09,142.92-122.08,284.29-184.24,420.21l-1.09,2.37L693.43,2699l1.16-3.76c36.7-119,112.3-362.85,149.82-483.27ZM580.88,2619.87c61.51-134.55,122.83-274.41,182.3-415.8,24.37,4.25,48.76,7.44,74.39,9.72-37.28,119.67-110.79,356.8-147.55,475.95Z"/>
    <path d="M926.63,2208.63l-2.72-.54-.75,2.68c-57.2,205.71-159.09,551.3-160.11,554.77l-.67,2.26,207.41,74.67,3.7,1.34.31-3.92q2.18-27.61,4.35-55.22c14.37-182.4,29.23-371,49.83-555.93l.33-2.93-2.93-.38C993.79,2221.41,964.17,2216,926.63,2208.63ZM796.72,2773.79h0l-27-9.72c8.89-30.19,103.68-352.18,158.46-549,35.24,6.92,63.53,12,93.5,15.95-20.45,184-35.23,371.65-49.53,553.2l-.6,7.62q-1.71,21.84-3.44,43.67Z"/>
    <path d="M1279.24,2753.9c-1.68-46-3.55-92.46-5.53-141.65l0-1.26c-4.91-121.6-10-247.35-11.89-362.91l0-2.69-2.68-.25c-48.55-4.49-94.48-11.91-145.21-20.42l-3.37-.57-.12,3.41c-9.89,267-19.49,470.64-31.16,660.17l-.19,3,206.53,10.5-1.14-25.3C1282.58,2836,1280.72,2794.59,1279.24,2753.9Zm-23.42-503c2,114.79,7,239.51,11.83,360.15v.22c2,49.57,3.88,96.39,5.58,142.89,1.48,40.71,3.35,82.08,5.16,122.12l.84,18.69-193.87-9.86c11.53-188,21.06-389.91,30.84-653.87C1164.75,2239.34,1209,2246.42,1255.82,2250.86Z"/>
    <path d="M834.55,1170.47c24.81,25.45,56.39,46.83,93.86,63.55,2.76,24.3,11.73,99.9,21.72,148.65l.53,2.63,2.67-.24,38.1-3.4,1.08-.1c162.61-14.56,330.74-29.61,495.83-30.62,160.84.9,324.66,15.41,483.1,29.45l48.33,4.26,2.85.25.38-2.82c1.52-11,2.88-20.81,4.11-29.73,7.12-51.46,10.12-73.09,14.5-115,119.79-57,177.25-144.72,175.63-268-1.42-107.55-47.88-228.71-88.88-335.6-12.67-33-24.64-64.24-35.21-94.53-8.51-177.61-1-332.51,23-473.55l.55-3.25-108.85-8.07-.4,2.78c-25.06,174.36-37.15,338.54-35.94,488C1897.57,597,1814.3,659,1758.73,739.27c-84.84,65.24-169.38,124.93-270.34,139.22-101.56-14.17-186-74-270.69-139.49-54.73-79.48-134.88-139.38-212.44-193.89,1.28-151-10.47-310.66-35.92-488l-.4-2.77L860.11,62.39l.52,3.23c23,142.65,31.2,283.2,24.41,417.75-.41,3.47-.49,12.16-.57,22.22-.14,16.6-.4,47.48-3.09,51.64l-.17.32c-35.48,77.82-74.93,169.76-98.51,261.64-12.92,50.37-20.05,97.08-21.18,138.82-1.29,47.89,5.24,91,19.41,128.22A244.71,244.71,0,0,0,834.55,1170.47Zm55.92-664.93c.08-9.51.16-18.5.53-21.55l0-.21c6.77-134-1.29-273.89-23.95-415.89l96.73-7.17c25.22,176.55,36.81,335.52,35.45,485.91l0,1.58,1.29.9c77.67,54.55,158.06,114.44,212.51,193.68l.11.16.52.51c85.6,66.17,171,126.75,274.39,141l.41,0,.34,0c47.79-6.7,95.6-23.86,146.16-52.47,45.46-25.73,88.06-57.72,127.8-88.28l.15-.12.49-.55c55.3-80.08,138.85-142.1,212.82-194l1.29-.91v-1.58c-1.31-148.79,10.62-312.26,35.47-485.91l96.68,7.16c-23.62,140.72-31,295.17-22.47,472v.18l.15.66c10.62,30.47,22.65,61.82,35.37,95l0,.11c40.82,106.42,87.09,227,88.49,333.53,1.6,121.18-55.23,207.28-173.73,263.2l-1.52.72-.18,1.68c-4.46,43-7.44,64.47-14.64,116.53l-.25,1.8c-1.06,7.65-2.21,16-3.47,25.1l-45.5-4c-158.55-14.05-322.49-28.57-483.61-29.47C1323,1346,1154.71,1361,992,1375.58l-36.51,3.26c-10-49.71-18.79-125-21.29-147.2l-.2-1.72-1.57-.69c-72.24-31.84-121.31-80.67-145.87-145.13-26.38-69.26-25.74-155.43,2-263.42,23.44-91.34,62.71-182.9,98-260.43C889.81,554.79,890.23,534.13,890.47,505.54Z"/>
    <path d="M2003,2137.54c59.6-6.45,121.24-13.12,181.81-18.87l3.78-.36-31.78-93.39-.82-2.39-2.5.4c-436.8,70.19-884.31,70.18-1330.11,0l-2.49-.39-31.38,92.2-1.2,3.54,3.71.41c191.22,20.91,351.72,37.26,513.51,49.06,56.49,4.87,114.39,7.23,177,7.23C1657.34,2175,1833,2155.93,2003,2137.54ZM796.34,2113.1l28.55-83.88a4316.59,4316.59,0,0,0,666.87,52.34h.09a4189.79,4189.79,0,0,0,660-52.3l28.52,83.8c-59.43,5.67-119.75,12.2-178.16,18.52C1832.52,2150,1657,2169,1482.47,2169c-62.43,0-120.16-2.36-176.51-7.21C1145.18,2150,985.81,2133.81,796.34,2113.1Z"/>
  </g>
</svg>
