<svg xmlns="http://www.w3.org/2000/svg" viewBox="0 0 2994.91 3000">
  <title>56Icon_neon 1</title>
  <g>
    <path d="M2263,2307.85c-10.94-31.4-19.65-62.44-27.43-91.31l-.73-2.72-2.76.55c-601.78,120-861.14,120.24-1460.63,1.14l-2.51-.5-35.61,95.7,2.73,1.08c323.57,128.08,536.6,407,658.33,618.37l.62,1.07,1.2.33a397.19,397.19,0,0,0,204.56,0l1.17-.32.62-1c5.81-9.72,11.76-19.77,17-28.65,23.52-39.74,45.74-77.28,72-115.18,185.57-246.57,366.59-397.41,569.67-474.71l2.73-1Zm-172.84,82.85c-50.73,31.84-101.27,69.75-150.23,112.68-84.92,74.47-167.73,165.86-253.16,279.37l-.07.1c-26.45,38.17-48.72,75.8-72.34,115.73-5.33,9-10.83,18.28-16.33,27.49a391.18,391.18,0,0,1-199.06,0c-81.34-141-175.17-264-278.88-365.59C1003.52,2446.37,876,2361.2,741,2307.3l31.78-85.41c157.94,31.34,283.31,52.42,394.38,66.3,121.16,15.15,227.42,22.13,334.56,22,202.32-.21,406.82-25.29,728.79-89.42,7.37,27.29,15.62,56.52,25.87,86.27A965.22,965.22,0,0,0,2090.15,2390.7Z"/>
    <path d="M1082.62,1262.72c93.32,0,202.89-23.44,316.85-67.77l2.36-.91-.5-2.48c-34.45-171.31-82.36-300.43-150.79-406.34C1172,663.63,1064.92,572.11,923.25,505.42l-2.74-1.29-1.26,2.75c-34,73.61-69.61,152.24-98.7,233C747,941.83,755.64,1095,845.46,1182.9,898.84,1235.12,980.84,1262.72,1082.62,1262.72ZM826.19,741.93c28.7-79.67,63.72-157.17,97.24-229.79C1182.5,635,1323.67,838.1,1395,1190.27c-114.75,44.37-221.28,66.49-312.38,66.49-99,0-179.74-26.12-232.91-78.15C761.65,1092.5,753.53,941.5,826.19,741.93Z"/>
    <path d="M1918.42,1261.62c8.28,0,16.52-.19,24.5-.56,136.69-6.37,227.31-66.62,269.36-179.09l.09-.29c18.79-77.85,15.27-162.86-10.75-259.88-22.91-85.38-59.71-168.68-95.3-249.25l-.11-.25c-10-22.55-19.37-43.86-28.55-65.35l-1.2-2.8-2.78,1.24c-59.24,26.32-119.07,64.9-182.92,118-81.47,62.31-146,146.1-197.26,256.16-39.42,84.64-70.49,183.58-97.77,311.39l-.54,2.53,2.42.9C1679.92,1225,1802.39,1261.62,1918.42,1261.62Zm-24-633.54.1-.08c62.44-51.88,121-89.82,178.79-115.89,8.87,20.71,17.93,41.21,27.49,62.86,69,156.17,147.18,333.18,105.76,505.1-41.14,109.87-129.94,168.75-263.94,175-120.18,5.61-251.13-32.31-340.51-65.46C1642.6,1000.89,1712.54,767.17,1894.45,628.08Z"/>
  </g>
</svg>
