<svg xmlns="http://www.w3.org/2000/svg" viewBox="0 0 2994.91 3000">
  <title>48Icon_neon 1</title>
  <g>
    <path d="M2272.78,991.22c-.53-2-53.8-201.16-76.35-291-7.09-28.53-13.75-57.23-20.19-85l-.09-.36c-3.92-16.91-8-34.4-12.08-51.58-12.53-53.06-23.16-96.29-33.44-136.06-10.51-40.45-23.25-88-38.07-134.22-1.25-3.66-2.48-7.43-3.67-11.08l-.06-.2c-2.31-7.09-4.7-14.42-7.4-21.35l-5.94-16.06c-1.31-3.33-2.73-6.59-4.13-9.79-.81-1.86-1.62-3.72-2.43-5.64-.39-.9-.78-1.81-1.19-2.78-.69-1.62-1.4-3.28-2.15-4.9l-3.74-6.89-3.69-6.91a35.61,35.61,0,0,0-2.63-3.78c-.5-.66-1-1.34-1.51-2.05l-.11-.16a98.8,98.8,0,0,0-22-20.45c-15.5-10.93-34.71-20.21-58.75-28.37-6.11-2-11.18-3.57-15.93-4.87-2.88-.81-5.66-1.52-8-2.11l-3-.69-39-6.17-.6-.1c-22.55-3.73-45.85-7.57-69.3-12.45-21.58-4.64-41.62-11.45-60.08-18.12l-1.42-.51-1.26.84c-11.51,7.68-26.71,17.77-42.22,27.64-7.7,4.88-16.7,10.54-26.06,16-3.81,2.22-8.85,5.09-14.09,7.63-4.78,2.36-9.41,4.39-13.92,6.37l-.44.19c-17,7.24-34.87,14.31-56.34,22.27-18,6.68-36.54,13.36-56.66,20.42l-14.61,5.13-27.21-67-1.85-4.54L1500,167l-21-24.39-29.07,71.63-14.6-5.17c-20-7.09-38.54-13.82-56.53-20.56-17-6.39-36.8-13.91-56.35-22.25l-.56-.24c-4.46-2-9.08-4-13.85-6.32-5.19-2.5-10.25-5.38-14.09-7.6-9.42-5.46-18.4-11.09-26.07-15.94-15.6-9.89-30.78-19.94-42.27-27.59l-1.26-.84-1.42.51c-18.41,6.66-38.42,13.47-60,18.11-23.4,4.87-46.65,8.71-69.13,12.43l-35.61,5.64L1054,145l-3.18.73c-3.12.77-5.66,1.44-8,2.09-4.76,1.3-9.83,2.85-16,4.88-24,8.14-43.22,17.41-58.69,28.31a99.63,99.63,0,0,0-22.11,20.52l-.11.16c-.49.71-1,1.42-1.51,2a38,38,0,0,0-2.61,3.75l-3.67,6.88-3.7,6.8-.07.13c-.73,1.56-1.43,3.21-2.11,4.79l0,.12c-.39.92-.78,1.84-1.19,2.78-.8,1.89-1.61,3.76-2.43,5.63-1.37,3.16-2.8,6.43-4.14,9.83l-5.9,16c-2.72,7-5.11,14.32-7.43,21.43-1.14,3.51-2.43,7.49-3.74,11.3-14.81,46.15-27.54,93.73-38,134.19-10.28,39.72-20.9,83-33.45,136-4.14,17.38-8.21,34.94-12.16,51.93-6.45,27.8-13.12,56.55-20.19,85-22.63,90.13-73,298.35-73.5,300.41l-23.57,94.53-.66,2.65L766,1119.16c1.46.51,2.93,1,4.39,1.56,2.6.92,5.28,1.88,8,2.78l12.24,3.47c29.88,8,60.94,15.5,90.2,22.49l2.66.63,7.1-21,.17-.5c3.28-10,6.68-20.42,9.18-29.75l13.16-54.81-9.58-3.26,85.52-305.33,10.17-36.27,74.5-253.12,17.23-39,14.58,41.78,74,693,.25,2.08-12.53,90.67-.89,2.07c-7.88,18.3-14.5,37.74-20.91,56.57-5.23,15.34-10.63,31.2-16.65,46.22-4.89,12.27-8.73,23-12.82,34.51l-.13.37c-1.45,4.08-2.94,8.24-4.52,12.61-1,2.85-2.18,5.88-3.33,8.87-2.18,5.69-4.44,11.59-6,16.89-1.36,4.58-2.52,9.59-3.65,14.43-.92,3.91-1.86,7.95-2.92,11.82-14.29,55.88-24.24,113.18-33.87,168.62l0,.24c-2.38,13.69-4.84,27.85-7.34,41.85-6.23,35.1-11.94,71.12-17,107-4.06,29.46-9,68.25-11.58,107.12-3.76,68-1,138.54,1.74,206.83l.36,9.27c2,44.86,4.4,90.48,6.73,134.62,1.43,27.18,2.91,55.29,4.28,83,2,40.63,3.54,74.76,4.43,109.27,1.11,38,.66,76.53.16,109.63-2.39,138.22-6.78,276.23-11.45,417.24l-.09,2.93,223.19,12.6c9.42.63,19.24,1,30,1.25l209.32,5.83,3.73.1,216.89-6c10.88-.21,20.7-.62,30-1.24l220.3-12.44,2.92-.17-.09-2.93c-4.67-141-9-278.94-11.45-417.24-.5-33.1-1-71.6.16-109.64.89-34.53,2.42-68.65,4.43-109.26,1.39-28,2.93-57.28,4.29-83.09,2.33-44.09,4.73-89.69,6.72-134.51l.36-9.29c2.71-68.26,5.5-138.85,1.74-206.83-2.53-38.82-7.51-77.62-11.58-107.09-5-36-10.73-72-17-107q-1.5-8.35-3-16.73l-.49-2.74c-11.38-64-23.16-130.27-39.37-193.63-.89-3.26-1.7-6.38-2.5-9.43-1.31-5-2.54-9.77-4-14.86-2.38-8.17-5.22-17.66-8.23-26.05-2.66-7.36-5-15.16-7.18-22.74-2.81-9.54-5.71-19.4-9.46-28.82-12.27-30.62-23.58-61.37-36.65-99.7l-1-2.25-12.53-90.67.25-2.13,72.82-691.09,11.37-34.23,20.49,31.71,74.44,252.87,95.7,341.64-9.58,3.26,13.15,54.77c2.46,9.21,5.84,19.56,9.12,29.58l7.33,21.65,2.66-.64c29-7,59.82-14.45,90.07-22.58l12.18-3.43.1,0c2.64-.84,5.34-1.81,8-2.74,1.45-.52,2.91-1,4.38-1.54l60.19-21.18-21.22-106.44Zm-152.36,151.63L2115,1127l-.18-.54c-3.25-9.92-6.6-20.17-9-29.16L2094,1047.88l9.77-3.33-87.06-310.8-10.18-36.35L1932,444.07l-.1-.34-27.76-43-15.45,46.47-.08.25-72.88,691.69-.34,2.85,12.69,91.85,0,.32,1.16,2.76c13.09,38.35,24.41,69.15,36.71,99.87,3.65,9.13,6.51,18.85,9.28,28.29,2.25,7.64,4.57,15.54,7.3,23.07,3,8.23,5.75,17.61,8.12,25.71,1.47,5,2.7,9.7,4,14.68.8,3.08,1.62,6.21,2.5,9.45,16.15,63.11,27.9,129.24,39.27,193.18l.47,2.64q1.49,8.4,3,16.8c6.22,35,11.92,71,16.93,106.82,4,29.37,9,68,11.53,106.63,3.75,67.67,1,138.11-1.74,206.25l-.37,9.26c-2,44.67-4.37,90.15-6.69,134.13l0,.32c-1.44,27.22-2.92,55.36-4.3,83.11-2,40.64-3.53,74.8-4.43,109.39-1.11,38.15-.66,76.73-.16,109.9,2.38,137.48,6.73,274.5,11.35,414.41l-217.4,12.28c-9.23.61-19,1-29.77,1.24l-216.75,6-212.91-5.93c-10.68-.21-20.41-.61-29.78-1.23L1038,2930.93c4.63-139.93,9-276.95,11.35-414.42.5-33.16,1-71.75-.16-109.88-.9-34.6-2.42-68.76-4.43-109.4-1.39-28-2.93-57.23-4.29-83l0-.64c-2.31-43.91-4.71-89.32-6.68-133.9l-.37-9.29c-2.7-68.12-5.49-138.56-1.74-206.2,2.51-38.63,7.48-77.29,11.53-106.65,5-35.89,10.71-71.83,16.93-106.83,2.54-14.22,5-28.4,7.39-42.15,10-57.85,19.53-112.48,33.75-168.08,1.07-3.9,2-8,3-12,1.11-4.76,2.26-9.67,3.57-14.1,1.48-5.11,3.7-10.89,5.85-16.49l.07-.18c1.11-2.91,2.26-5.92,3.28-8.75,1.56-4.3,3-8.43,4.46-12.46l.19-.53c4-11.37,7.87-22.1,12.74-34.3,6.07-15.16,11.5-31.09,16.77-46.58,6.37-18.68,12.95-38,20.73-56.07l1.21-2.81,12.35-89.4.4-2.84-.34-2.81-74-693.32,0-.28-19.82-56.86-23.46,53.17-.07.15L993.45,697.55l-10.17,36.31-81.37,290.47-5.69,20.32L906,1048l-11.86,49.42c-2.44,9.11-5.81,19.41-9.06,29.34l-5.5,16.24c-28.36-6.78-58.37-14-87.33-21.8l-12.09-3.42c-2.54-.83-5.18-1.77-7.77-2.69-1.48-.54-3-1.07-4.43-1.57l-55-19.44,22.92-91.9c2.07-8.57,51.05-211,73.49-300.39,7.08-28.5,13.76-57.26,20.22-85.1,3.74-16.12,8-34.39,12.15-51.9,12.54-53.08,23.16-96.28,33.41-135.93,10.49-40.37,23.2-87.85,38-133.8,1.28-3.75,2.53-7.59,3.76-11.37,2.29-7,4.65-14.26,7.32-21.12l5.89-15.93c1.28-3.24,2.68-6.45,4-9.56l0-.1c.81-1.86,1.62-3.73,2.4-5.58.41-.92.8-1.86,1.2-2.8.66-1.55,1.34-3.15,2-4.61l3.66-6.73,3.59-6.74a33.93,33.93,0,0,1,2.22-3.16c.53-.69,1.07-1.4,1.58-2.15A93.41,93.41,0,0,1,971.6,186c15-10.61,33.77-19.63,57.19-27.57,6-2,11-3.51,15.68-4.79,2.25-.63,4.73-1.28,7.75-2l2.83-.65,38.86-6.13.8-.13c22.54-3.73,45.86-7.58,69.39-12.48,21.45-4.61,41.2-11.26,59.39-17.82,11.33,7.55,26,17.27,41.12,26.83,7.72,4.88,16.75,10.54,26.27,16.06,3.92,2.28,9.12,5.22,14.47,7.8,4.88,2.41,9.56,4.46,14.09,6.43l.57.25c19.71,8.41,39.56,15.95,56.62,22.36,18,6.75,36.55,13.49,56.64,20.6l20,7.08,27.53-67.84L1500,176.16l19.24-22.33,27.51,67.79,20.09-7.05c20.08-7,38.62-13.74,56.67-20.44,21.56-8,39.55-15.09,56.64-22.38l.48-.21c4.55-2,9.26-4.06,14.14-6.47,5.4-2.62,10.57-5.57,14.47-7.84,9.46-5.49,18.51-11.18,26.25-16.09,15.07-9.58,29.76-19.31,41.08-26.87,18.23,6.56,38,13.23,59.45,17.83,23.58,4.9,47,8.76,69.57,12.5l35.48,5.62,3.92.6,2.82.66c2.29.57,5,1.26,7.83,2.05,4.67,1.28,9.65,2.8,15.63,4.78,23.47,8,42.18,17,57.26,27.62a93.09,93.09,0,0,1,20.65,19.15c.55.8,1.12,1.56,1.63,2.23a30.68,30.68,0,0,1,2.15,3.05l3.64,6.83,3.64,6.67c.69,1.49,1.37,3.09,2.05,4.68.39.93.79,1.86,1.17,2.73.81,1.92,1.63,3.81,2.45,5.7,1.36,3.11,2.76,6.32,4,9.51l5.93,16c2.66,6.8,5,14,7.3,21.08,1.15,3.54,2.45,7.54,3.75,11.31,14.75,46,27.47,93.47,38,133.84,10.28,39.74,20.9,82.93,33.42,135.93,4.13,17.34,8.21,34.92,12.15,51.92l.05.18c6.44,27.75,13.1,56.45,20.16,84.9,22.46,89.44,75,286,76.35,291l20.17,101.23-55.25,19.44c-1.45.5-2.91,1-4.43,1.56-2.56.91-5.2,1.85-7.67,2.64l-12.15,3.42C2178.3,1128.83,2148.51,1136.09,2120.42,1142.85Z"/>
    <polygon points="679.28 1028.12 658.4 1081.28 663.98 1083.47 684.83 1030.4 705.79 981.63 700.28 979.26 679.28 1028.12"/>
    <polygon points="2313.7 1014.69 2292.19 970.11 2286.79 972.71 2308.14 1016.94 2335.48 1089.97 2341.1 1087.87 2313.7 1014.69"/>
    <path d="M1286.81,93.25c8.25,5.21,16.34,10.2,24.1,14.86,7.54,4.49,16.1,9.59,23.57,13.09,15.18,6.92,32.94,13.41,50.14,19.69L1413,151l14.82,5.12.86-3.06c2.33-8.25,5.16-17.94,8.46-27.26,1.52-4.35,3.24-8.67,4.87-12.72l1.2-3-3.07-1c-7-2.22-14-4.54-21.6-7.09-12.75-4.29-27.21-9.16-42-15.35-2.8-1.19-7-3.06-11.1-5.27-3.64-1.92-7-3.81-10.06-5.56-6.8-3.9-13.21-7.77-19.14-11.38-9.83-6-19.17-11.93-27-17l-1.59-1L1260,76l4,2.57C1272.06,83.86,1279.55,88.66,1286.81,93.25ZM1415,145.31l-26.76-9.49-1.58-.57c-17.07-6.24-34.71-12.69-49.65-19.5-7.19-3.36-15.61-8.38-23-12.8-7.67-4.61-15.72-9.58-23.94-14.78-6-3.81-12.23-7.77-18.85-12l36.36-22.6c7.5,4.81,16.29,10.4,25.55,16,6,3.63,12.43,7.54,19.27,11.45,3.12,1.78,6.52,3.7,10.22,5.66,4.25,2.28,8.59,4.23,11.51,5.46l.09,0c15,6.28,29.6,11.18,42.46,15.51,6.51,2.18,12.63,4.2,18.62,6.13-1.24,3.1-2.56,6.52-3.77,10-3,8.43-5.55,17-7.7,24.58Z"/>
    <path d="M1583.78,155c10.45-3.77,21.27-7.66,31.84-11.66,9.38-3.55,18.41-7.06,26.84-10.45,8.08-3.26,17.43-7.12,25.46-11.1,7.66-4,16.37-9.31,23.1-13.49,7.48-4.68,15.37-9.72,23.45-15,7-4.58,14.22-9.35,22-14.56l3.88-2.59-48-29.86-1.59,1c-10.81,6.81-19.17,12-27.08,16.77-6,3.62-12.47,7.5-19.16,11.3-2.87,1.62-6.32,3.56-10.09,5.53-4.11,2.2-8.28,4-11,5.2-14.48,5.92-28.48,10.75-42,15.43-5.1,1.74-10.26,3.42-15.25,5l-.16,0-6.63,2.17-3,1,19.51,48.08Zm145.51-78.66c-6.33,4.21-12.28,8.14-18.1,12-8,5.24-15.89,10.26-23.35,14.91-6.63,4.13-15.2,9.37-22.64,13.24-7.79,3.86-17,7.67-25,10.89-8.41,3.37-17.4,6.87-26.72,10.4-10.53,4-21.32,7.86-31.76,11.62l-2.59.94-14.93-36.79,3.74-1.22c5-1.64,10.21-3.33,15.32-5.08,13.62-4.69,27.71-9.55,42.38-15.56,2.9-1.21,7.26-3.14,11.55-5.43,3.83-2,7.33-4,10.25-5.63,6.74-3.82,13.26-7.73,19.31-11.37,7.59-4.6,15.53-9.51,25.58-15.83Z"/>
  </g>
</svg>
