<svg xmlns="http://www.w3.org/2000/svg" viewBox="0 0 2994.91 3000">
  <title>60Icon_neon 1</title>
  <g>
    <path d="M1175.21,706c46.21-9.1,117.06,6.67,164,17.11l4.84,1.08c44.47,9.87,56.48,14.09,60.42,15.47a7,7,0,0,0,2.85.66l2.13-.12,61.91-215c2.56-1.44,14.11-4.27,28.69-6.55,11.58,1.78,22.6,4.38,24.92,5.81L1588,738.2l.6,2,2.13.12c.82,0,1.49-.16,3.72-.82,5.45-1.61,19.92-5.88,62.39-15.31,39.24-8.72,107.59-18,171.1-15.39,69.27,2.82,152.17,31.07,153,31.36l11.92,4.1-8.8-9c-1-1-99.85-102.07-174.26-145.67-28.36-16.61-77.31-30-120.51-41.88-43.89-12-93.64-25.68-95.44-37.76-3.58-24,24.6-39.38,57.22-57.21,22.15-12.11,45.06-24.63,61.9-41.72,16.49-16.74,45.08-52.33,47.68-79.54,3.43-35.89-15.59-84.23-29.49-119.57-3.39-8.63-6.59-16.78-9-23.64-10.87-30.64-33.5-73.45-54-92.42-42.71-39.54-86-56.43-114.81-63.65-29.06-7.27-49.93-6.43-52.82-6.26-2.15-.14-22.91-1.27-53,6.26-28.8,7.22-72.09,24.11-114.81,63.64-20.51,19-43.13,61.8-54,92.44-2.42,6.82-5.61,14.94-9,23.53l-.06.14c-13.88,35.3-32.89,83.64-29.47,119.53,2.6,27.21,31.2,62.8,47.68,79.54,18.31,18.58,44.31,32.52,67.25,44.82,29.84,16,55.6,29.81,54.69,47.74-1.12,22-52.25,33.14-101.71,43.93-39.48,8.61-80.32,17.52-106.21,32.69-74.38,43.58-184,153.93-185.09,155l-7.39,7.47,10.21-2.44C1020.49,740.06,1106.78,719.5,1175.21,706ZM1415.8,503.88c1.11-21.72-26.21-36.37-57.84-53.33-22.57-12.1-48.15-25.81-65.81-43.74-15.93-16.18-43.54-50.36-46-75.9-3.28-34.45,15.42-82,29.09-116.76,3.41-8.68,6.63-16.88,9.12-23.87,10.63-30,32.61-71.7,52.42-90,41.76-38.65,84-55.17,112.15-62.22,29.12-7.3,49.14-6.24,51.37-6.09h.34c.21,0,21.08-1.47,51.25,6.09,28.11,7,70.38,23.57,112.14,62.22,19.8,18.32,41.79,60.06,52.43,90,2.47,7,5.7,15.17,9.11,23.86,13.67,34.74,32.38,82.31,29.08,116.77-2.43,25.54-30,59.72-46,75.9-16.21,16.46-38.72,28.76-60.5,40.67-34.59,18.9-64.47,35.23-60.27,63.35,2.26,15.19,39.39,26.11,99.79,42.67,42.83,11.74,91.39,25,119,41.26,60.83,35.65,139.07,111,164.28,135.94-25.91-8-88.29-25.65-142.85-27.86-64.1-2.61-133.07,6.73-172.65,15.52-42.18,9.37-57,13.69-62.6,15.36L1530.45,522l-.06-.2-.4-.72c-2.7-3.67-17.55-6.6-29.54-8.41l-.53-.05-.38.05c-24.81,3.84-31.79,7-33.32,9.13l-.28.37-60.86,211.38c-5.22-1.79-19.07-6.17-59.77-15.21l-4.85-1.08c-47.37-10.54-119-26.48-166.41-17.14C1119.47,710.88,1054.26,726,1028.59,732c25.76-25.33,113.83-110,176.33-146.61,25.07-14.69,65.43-23.5,104.46-32C1363.41,541.58,1414.45,530.45,1415.8,503.88Z"/>
    <path d="M2185.46,1838l-3.13-4.27c-.23-.31-23.48-32.36-56.27-102-30.4-64.56-75.46-175.55-117.52-337.67-42-161.72-60.28-309.71-68.27-405.39-8.69-104.22-7.36-169.84-7.35-170.49l.06-2.41-2.34-.57c-.91-.22-91.3-22.26-118.2-24.9-48.45-4.74-93.1,6-129,14.58-15.28,3.67-28.48,6.83-39.45,8.18-20.74,2.56-84.72,16.24-90,17.38H1461.1c-5.31-1.14-69.29-14.82-90-17.38-11-1.35-24.18-4.51-39.46-8.18-35.87-8.61-80.5-19.32-129-14.58-26.9,2.64-117.28,24.68-118.19,24.9l-2.34.57.05,2.41c0,.65,1.35,66.27-7.35,170.49-8,95.67-26.31,243.66-68.26,405.39-42,162.09-87.11,273.07-117.5,337.63-32.77,69.59-56.06,101.72-56.29,102l-3.13,4.27,5.26.49c1.06.1,102.09,9.55,224.76,15.94l-142,1084.09-.36,2.74,2.72.58c.88.18,89.11,18.7,123.16,18.75h1c115.64,0,229.64-27.75,230.77-28l2.36-.58-31.7-1072.77,63.17,1.47h14.87c14.48,0,29,0,43.18-.11l154.83,981.92.32,2,2,.44c.92.2,93.41,20.39,213.9,63.86,39.93,14.42,125.3,23.7,126.16,23.8l3.51.37-57.78-1073.39,9.79,0c8.06-.18,16.63-.4,26.21-.67l35.5-1.55L2003.55,2865l.49,4,3.68-1.6c.55-.24,54.89-23.6,92.06-18.75,46.09,6,63.29,3.77,64,3.67l3.05-.44L1996.29,1852.2c103.73-6.14,183.08-13.59,183.9-13.67ZM2100.55,2842.7c-33.08-4.32-78.54,12.49-91.52,17.67L1887.3,1857.15l95.2-4.15,7.76-.45,169.59,994.08C2153.13,2847,2135.16,2847.22,2100.55,2842.7ZM1982.21,1847l-95.63,4.17-.29-2.38-6,.72.23,1.92-35,1.53c-9.53.27-18.07.49-26.06.67l-450.13,1c-20.16.11-40.55.15-60.52.11l-232.57-5.42c-114.57-5.6-212.37-14.15-235.73-16.27,7.43-11,27.54-42.74,53.88-98.69,30.51-64.79,75.73-176.15,117.91-338.73,42.06-162.14,60.43-310.5,68.43-406.4,7.77-93.05,7.56-155.43,7.41-168.69,13.63-3.3,91.08-21.85,115-24.2,47.46-4.64,91.56,5.94,127,14.44,15.46,3.71,28.81,6.92,40.12,8.31,21,2.58,89.14,17.21,89.88,17.37l.25,0h93.84l.63-.07c.68-.14,68.5-14.73,89.81-17.35,11.32-1.39,24.67-4.6,40.14-8.31,35.43-8.5,79.52-19.09,127-14.44,24,2.35,101.4,20.9,115,24.2-.15,13.26-.36,75.64,7.4,168.69,8,95.9,26.38,244.27,68.44,406.4,42.18,162.58,87.4,273.94,117.9,338.73,26.35,56,46.45,87.64,53.89,98.69C2154.48,1834.84,2077.27,1841.6,1982.21,1847ZM1739.93,2903.23c-110.88-40-199.15-60.58-212.65-63.64l-154.37-979,430.88-.94,57.4,1066.64C1844.32,2924.35,1774.6,2915.74,1739.93,2903.23ZM1076.07,1855.3l163.55,3.81,31.56,1068.22c-16.16,3.76-121.58,27.3-227.26,27.3h-.77c-30,0-104.86-15.12-119.18-18.06l141.68-1081.79Z"/>
  </g>
</svg>
