<svg xmlns="http://www.w3.org/2000/svg" viewBox="0 0 2994.91 3000">
  <title>44Icon_neon 1</title>
  <g>
    <path d="M2545.23,1120.55a771.91,771.91,0,0,0-86.81-176.68c-36.08-54.38-78.42-102.73-125.85-143.73A626,626,0,0,0,2208.17,716a570.77,570.77,0,0,0-141.27-50.2C1963,643.89,1856,652,1748.84,689.79c-56,16.71-121.16,58.61-155,82.11-39.07,27.13-82,61.7-86.25,73.38-.39.46-.76.91-1.11,1.34l-.13.15c-1.69,2-4,4.84-4.77,5-1.52-.29-5.79-6.67-7.19-8.76l-.25-.31C1465,811.57,1355.4,730.19,1326.29,718.07c-71-39.67-176-63.88-276-63.88-2,0-4,0-6,0h0l-2.48,0h0l-2.49,0h0c-48.74.92-98.4,8.94-147.65,23.86-46.82,14.19-93.48,34.66-138.69,60.84-71.19,41.22-134,98.32-186.57,169.71-52.14,70.76-91.49,151.72-117,240.62a830.76,830.76,0,0,0-30.08,283.4c6.63,102.37,31.58,202.67,74.15,298.12,52.08,116.76,134.92,201.82,215,284.07,33.36,34.26,67.86,69.68,100,107.17l690.32,745.45.53.56,5.68,1.9,639.66-691.78c38.15-44.58,77.83-86.16,116.2-126.38,135.75-142.3,264-276.71,312.4-522.58A791.3,791.3,0,0,0,2545.23,1120.55ZM1502.59,2862.89l-689.72-744.8c-32.15-37.55-66.72-73-100.16-107.38-79.73-81.87-162.18-166.54-213.83-282.32-182.91-410.09-9-830.18,257-984.21,93.87-54.36,190.06-82.6,285.91-83.93,101.59-1.41,209.58,22.78,281.76,63.15l.27.13c28.45,11.74,136.68,92.12,165.76,123.07,5.07,7.58,8,11,11.68,11.18s6-2.7,9.64-7.08l.16-.2,1.53-1.83.47-.56.16-.71c1.38-6,34-35.83,84.06-70.57,33.55-23.3,98.09-64.85,153.37-81.32l.12,0c203.69-72,414.32-32.18,577.89,109.2,197.84,171,291.51,455,238.64,723.41-48.09,244.16-175.73,378-310.86,519.6-38.42,40.27-78.15,81.92-116.33,126.53l-636.95,688.85Z"/>
    <path d="M832.35,303c2.9,1.33,292.05,133.74,468.38,223l.11.05c76.14,34.29,167.35,79.21,197,122.61l.9,1.31,8.4,0,.85-.75c72.22-63.7,162.37-120.37,268-168.45,75.15-35.19,139.94-61.94,233.3-99l202.43-88.27-308.89,4.58,76.08-216,2.93-8.3L1632.55,300,1505.81,72.72l-2.69-4.83-123,232.92-353.56-224,92.28,226.58L819.15,297Zm1062,1.19,287.62-4.26L2007,376.22c-93.37,37.09-158.25,63.87-233.5,99.11C1667.78,523.46,1577.42,580.2,1504.9,644h-3c-31.41-44.2-122.47-89.09-198.54-123.35C1148.47,442.2,907.66,331,848,303.58l279.86,6L1039.2,92l343.2,217.41L1503.26,80.47l125.61,225.28,1.56,2.8,339.9-220.23Z"/>
  </g>
</svg>
