<svg xmlns="http://www.w3.org/2000/svg" viewBox="0 0 2994.91 3000">
  <title>62Icon_neon 1</title>
  <g>
    <path d="M2859,1454.33l-1.22-2a228.28,228.28,0,0,0-87.71-83.1c34.11-54,51-114,48.75-173.58-2-52.51-18.9-100.92-49-140l-2.08-2.71-2,2L1003.35,2821.8l-3,3,3.77,1.85c33.77,16.5,70.87,24.87,110.29,24.87a288.07,288.07,0,0,0,50.42-4.54c69.74-12.44,110.76-50.54,156.56-99.22,58.93,52.33,114.64,78.85,165.6,78.85h2l1.22,0,.71-.72L2857.34,1456ZM2767.11,1062c28.06,37.61,43.86,83.82,45.71,133.84,2.2,59.37-14.93,119.15-49.56,172.87l-1.78,2.77,2.93,1.52a222.49,222.49,0,0,1,87,80.41L1487.71,2820.58c-50.26.25-105.62-26.44-164.47-79.27l-2.18-2-2,2.14c-45.87,48.9-86.43,87.28-155.25,99.56-54.31,9.68-107.2,3.45-153.22-18Z"/>
    <path d="M2647.75,930l0-1.29c-.29-9.41-22.24-54.74-57.24-100.56-30.53-40-77.48-88.37-127.74-91.89l-2.29-.15-.2,1.26c-.9.81-2.37,2.28-5.11,5l-15.34,15.34L2381.61,816c-50.11,50.18-121.69,121.87-207.57,207.9-171.77,172.06-400.77,401.49-629.76,630.92-458,458.85-915.93,917.72-915.93,917.72l-2.15,2.16,2.19,2.12c44.85,43.31,107.29,64.29,176.06,59.21,7.77,34.92,22.93,65.84,45.08,91.94l2.11,2.49,2.3-2.31L2646.84,930.91Zm-62-98.21c32.5,42.56,53.82,85.68,55.85,95.92L852,2721.56c-20.89-25.45-35.1-55.51-42.24-89.38l-.55-2.59-2.64.22c-66.9,5.59-127.8-14-171.81-55.23,66-66.12,1782.42-1786,1828.89-1832.23C2511.2,746.49,2556.21,793.18,2585.71,831.79Z"/>
    <path d="M2373,561l-.85-1.89c-20.25-44.93-54.67-79.6-99.54-100.29-45.18-20.82-98-25.89-152.86-14.71h0l-4.89,1h0a321.82,321.82,0,0,0-70.71,24.72l-.67.43L234.93,2283.12l-2.57,2.58,3,2c30.1,20.32,75.13,41.49,132.21,41.48a242.75,242.75,0,0,0,50.41-5.39c4.5-1,9.21-1.92,14.16-2.94,29.24-6,65.12-13.32,91.64-26.76-5.84,17.76-7.45,40.29-7.43,51.82v5.27c0,25.69,0,31.79,9.12,55.68l1.66,4.33L2371.51,562.46ZM529.47,2400.4c-7.09-19.36-7.09-25.9-7.1-49.19v-5.27c0-17.47,3-41.92,9.9-57.15l3.92-8.68L528,2285c-26.07,15.5-65.42,23.55-97,30l-.21,0c-4.83,1-9.52,1.94-14,2.9-77.15,16.38-137.36-8.55-175-33.18L2047.19,475.05a315.5,315.5,0,0,1,71.33-24.56c109-23.15,205.86,19.7,247.27,109.21Z"/>
    <path d="M2943.18,1633.73c0-6.54-.31-13.34-.88-20.19l-.54-6.46L1793.11,2760l-3.23,3.25,5.37,1.15A313.7,313.7,0,0,0,1861,2772a212.82,212.82,0,0,0,44.08-4.38c38.39-8.15,75.39-23.91,110-46.85l.2-.11c2.41-1.44,242.56-144.76,342.59-212,38.26-25.72,95.32-57.58,155.77-91.32,80.49-44.94,163.73-91.4,212.83-129.08,28-21.51,80.62-81.89,119.85-128.79,14.9-15.36,30.38-34.22,37.67-45.89,21-33.67,56.6-107.73,56.48-171.74-.08-44.29-30.8-121.86-51.64-155.27C2917.23,1741.93,2943.28,1692.56,2943.18,1633.73Zm-6.4-13.15c.26,4.46.39,8.87.4,13.16.1,57.93-26.1,106.88-54.44,151.14l-1,1.62,1,1.62c20.54,32,51.64,109.58,51.72,153.67.12,62.65-34.87,135.43-55.57,168.55-7.1,11.37-22.3,29.87-37,45l-.12.13c-39.05,46.69-91.39,106.79-119,128-48.75,37.41-131.78,83.77-212.11,128.6-60.53,33.79-117.71,65.71-156.18,91.58-96.61,65-323.85,200.82-341.41,211.3h-.1l-1,.63c-34,22.62-70.45,38.15-108.2,46.17h-.07c-29.57,6.27-63.83,5.58-101.86-2Z"/>
    <path d="M1329.35,247l-4.15-1.71c-43-17.73-92.22-22-142.64-12.35h0l-4.9,1h0c-40.37,8.42-79,25-114.92,49.37l-.59.39c-2.52,1.7-253.78,171.11-425.87,322.74C468.45,754.28,262.21,958.57,260.15,960.62l0,0c-37.24,34-62.54,64.43-79.64,95.68-19.61,35.85-28.84,74-28.22,116.58.14,9.63,5.81,64.21,7.16,76-62,56.11-118.85,121-117.47,214.87a245.17,245.17,0,0,0,8,59.36l1.34,5,1274.89-1278ZM164.58,1252.32l1.16-1-.2-1.55c-1-8-7.15-67.63-7.29-76.89-1.14-77.79,29.58-138,106.08-207.9l.93-.89v0c15.78-15.62,211.89-209.38,375-353.1C805.58,465.23,1042.73,304,1064.06,289.61h0l1.45-1c36.12-24.61,75.07-41.22,115.77-49.36,48.45-9.69,95.88-6.28,137.43,9.86L54.46,1516.5a241.06,241.06,0,0,1-6.52-52.82C46.59,1371.71,103.2,1307.74,164.58,1252.32Z"/>
    <path d="M1793.35,467.88l-1.14-2c-22-38.55-54.68-65.7-100-83-37.62-14.38-83.28-22.26-148.07-25.57-11.56-.59-32.78.36-49.86,1.13-12.61.57-23.51,1.06-27.62.83l-1.35-.07-.94.95L151.09,1676.7l-1.93,1.93,1.75,2.1c23.67,28.53,83.14,77.56,126.4,93.78-59.37,31.18-107.17,66.69-142.14,105.61-44.21,49.2-66,102.24-64.8,157.64.95,43.23,12.55,84.2,33.56,118.48l2,3.25,1685.81-1690Zm-1686.27,1682c-19.21-32.7-29.82-71.42-30.71-112.2-2.89-131.92,130.28-220.16,209.92-261l6.59-3.38-7.09-2.16c-41.46-12.63-102.8-62.21-128.5-92.08L1467.71,365.31c5.07.11,15.23-.35,26.86-.88,16.93-.76,38-1.71,49.28-1.13,97.09,5,193.54,21,242,103.59Z"/>
  </g>
</svg>
