<svg xmlns="http://www.w3.org/2000/svg" viewBox="0 0 2994.91 3000">
  <title>168Icon_neon 1</title>
  <g>
    <path d="M2102.5,49.15l-.63-.32h-6.72L1948.83,346l-.45.92.2,1c.46,2.4,1.25,6.42,147.78,78.45,74.95,36.85,154.24,74.83,169.37,82.07l1.62.78,1.45-1.07c10.11-7.43,67.67-123.18,79.11-146.31,25.34-51.23,68.59-141.35,70-154.14l.24-2.09ZM2411.56,209c-3.89,14.26-31.67,74.71-69.25,150.51-36.83,74.3-67.91,132.59-75.93,142.57-114.47-54.79-295-142.87-311.27-155.26l143.77-292h1.58Z"/>
    <path d="M1955.74,479.92l-1.39,2.52c-35.49,64.76-108.65,173.3-177.92,263.94-42.91,56.16-85.41,110.18-133.6,153.78-43.61,39.46-90.52,68.55-135.89,96.69-68.59,42.53-139.51,86.5-202,167.47-44.61,57.8-71.82,103.86-93.91,159l-25.56,47.46-40,85.67-77,156.45q-75.09,152.52-150.42,305.57l-8.77,17.83c-104.6,212.53-212.77,432.3-318.55,646.92l-1.32,2.67,2.66,1.34Q707,2644.94,822,2702.69l505.18,247.56L1400.87,2805l146.74-300.27,334.06-678.5L1936.08,1720l20.63-46.3c40.82-58,58.14-126.9,70.77-192.69,17.14-72.93,9.44-143.43,1.28-218.08-6.43-58.8-13.08-119.6-8.38-186.72,4.73-57.44,17.22-123.56,38.19-202.14,26.13-98,100.06-288.9,100.8-290.81l1-2.57-202.06-99.48Zm58.65,595.81c-4.73,67.69,1.95,128.77,8.41,187.86,8.1,74.12,15.75,144.13-1.18,216.1l0,.1c-12.52,65.22-29.67,133.47-70,190.72l-.14.2-20.78,46.62-54.4,106.24-334.08,678.55L1395.5,2802.35l-71,139.9L824.63,2697.32,597.44,2583.17C703,2369,810.76,2150.05,915,1938.33q79.53-161.6,158.9-322.81l77.05-156.5,39.91-85.52,25.6-47.54.12-.26c21.9-54.65,48.89-100.34,93.17-157.71,61.81-80.11,132.26-123.8,200.39-166,45.6-28.28,92.74-57.51,136.76-97.34,48.56-43.94,91.25-98.2,134.34-154.59,68.48-89.61,140.93-196.94,177-262.18l194.56,95.79c-8.64,22.41-75.4,196.55-100,288.87C2031.71,951.43,2019.16,1017.9,2014.39,1075.73Z"/>
  </g>
</svg>
