<svg xmlns="http://www.w3.org/2000/svg" viewBox="0 0 2994.91 3000">
  <title>122Icon_neon 1</title>
  <g>
    <path d="M2889.81,2336.77l0-3h-2771l-1.18,179.65,0,3,2769.22.87h1L2891,2515Zm-2765.06,3H2883.83l1.13,171.54-2761.34-.87Z"/>
    <path d="M2692.69,786.34l2.95.59.58-3q12.51-64.46,25-128.91l.57-2.92-800-160.7-3-.59-.58,3-25,128.11-.57,2.92,2.92.59Zm22.07-129.49-23.85,123L1899.67,620.14q12-61.11,23.9-122.22Z"/>
    <path d="M1765.92,1842.73l-.6,3,564.12,112.06,2.93.58L2549.9,891.21l.59-3-566-113.43-2.94-.59-72,357.62L141,777.33l-2.94-.59-68.68,346-.58,2.93,1769.14,360.89ZM2543.41,893,2327.68,1951.29,1772.4,1841l72-356.21.59-2.93L75.85,1120.94l66.92-337.13,1768.54,354.53,2.94.59,72-357.63Z"/>
    <path d="M1626.26,1942.32l-.6,2.94q-13.53,66.93-27.06,133.84L1598,2082l809.32,162.64,2.47.5.58-3q13-67,26-133.9l.56-2.92L1629.2,1942.92Zm-21.19,135q12.93-64,25.88-128l798.94,160.7q-12.41,64-24.83,128Z"/>
  </g>
</svg>
