<svg xmlns="http://www.w3.org/2000/svg" viewBox="0 0 2994.91 3000">
  <title>118Icon_neon 1</title>
  <path d="M2179.22,275.93c18,23.63,44.93,41.16,75.83,49.37s63.44,6.46,91.27-5c30.95-12.76,54.34-36.54,67.64-68.78,20.48-49.62,8.59-100.63-31.79-136.46a149.1,149.1,0,0,0-78-35.54,141.79,141.79,0,0,0-89.29,16.77c-16.89,9.47-36.88,30-45.66,46.61-13.77-5.1-87.64-32.54-101.14-39.22-47.87-23.67-84.59-31-151.23-30.25l-.54.06-2.17.3c-48.19,6.49-165.18,26-210.62,66.73-104.79,93.92-146.44,190.74-180.12,281.85-12.83,34.7-16,53.46-20.73,81.84l-.43,2.56-65.79-1.17-.22,0c-18.49,3-37.12,5.32-55.14,7.59-38,4.76-73.81,9.26-107.38,19.26-170.28,50.73-309.5,133.73-413.79,246.69C752.55,895.5,681.17,1044.79,647.79,1222.9c-8.39,44.8-7.74,100.46-7.11,154.29.61,52.28,1.24,106.35-6.23,151.63l0,.18-5.5,219.74-2.75,164.64-5.5,218.22-4.12,164.65q-1.37,54.73-2.74,109.46c-13.21,54.25-13.53,135.37-.87,217.07,12.3,79.32,34.8,144.5,58.72,170.1,44,47.12,95,79.32,147.43,93.11a244.94,244.94,0,0,0,62.23,8.08c44,0,89.23-12,134.36-35.61,50.88-26.64,91.64-77.42,121.15-150.92,19.9-49.6,34.78-109.8,44.29-179.15,5.48,26.25,19.09,83,44.81,143.68,20.11,47.46,43.58,88,69.77,120.41,32.66,40.45,69.65,68.38,110,83,36.68,13.33,72.87,20.09,107.56,20.09a259.39,259.39,0,0,0,45.37-4c43.89-7.81,84.54-27,120.81-56.92,47.14-38.92,84.37-93.81,107.69-158.75,15-41.81,23.17-85.28,24-127.13,17.41,72.55,72.45,248.35,207.57,314.84A254.07,254.07,0,0,0,2140.58,2890a267.57,267.57,0,0,0,114.91-30.61,260.3,260.3,0,0,0,86.83-73.56,231.33,231.33,0,0,0,44.46-106.31c5.93-40.74,17.53-148.93-2.63-273.69q-1.38-54.81-2.75-109.58-2.05-82.34-4.12-164.66-2.76-109.11-5.49-218.18-1.38-82.34-2.75-164.69-1.38-54.9-2.76-109.78t-2.74-109.77l-2.76-109.85,0-.35c-5.25-31.33-5.45-69-5.65-105.55-.21-39.61-.43-80.56-7.15-113.33-14.45-70.42-35.28-136.45-61.94-196.25A794.1,794.1,0,0,0,2190.47,843c-70.69-91.88-162.59-169.29-280.94-236.65-93.79-53.37-246.08-92.79-371.39-96.24,3.66-24.32,10.26-57.74,21.39-84.28,4.51-10.74,8.93-21.64,13.23-32.23,34-83.77,66.12-162.9,158.8-229.83,20.86-15.08,58.63-30.68,101-41.75,46.56-12.16,92.43-17.44,129.16-14.86,46.92,3.28,125.12,39.19,153.59,55.06,10.24,5.71,33.14,17.22,39.81,20.56C2151.12,217.79,2159.44,250,2179.22,275.93Zm-647.51,236.7-.48,3.35,3.38.08c125.08,2.8,278,42.08,372,95.54,243,138.27,381.36,325.65,435.51,589.7,6.6,32.18,6.82,72.83,7,112.15.2,36.66.41,74.56,5.7,106.27q1.36,54.79,2.74,109.6t2.75,109.78q1.38,54.87,2.75,109.74,1.36,82.34,2.75,164.7,2.73,109.08,5.49,218.21,2.07,82.32,4.13,164.65,1.37,54.88,2.74,109.78l0,.4c20.08,124,8.54,231.59,2.65,272.08-10.65,73.21-58.56,138.79-128.15,175.42-37.59,19.78-79.21,30.24-120.37,30.24h0a249.39,249.39,0,0,1-111-26c-160.7-79.08-206.41-315.78-211.19-343.12-.65-8.17-1.61-16.29-2.86-24.11l-3.78-23.67-2.17,23.87c-.3,3.3.8,12.72,2.87,24.6,9.22,114.89-43.65,244.09-128.59,314.23-36.46,30.11-90.49,59.61-162.23,59.6-31.74,0-67-5.78-105.65-19.83-89.35-32.48-145.16-126.77-176.25-200.15-33.45-78.94-47.22-153.87-47.87-161.12l-2.56-28.52-3.41,28.43c-9.24,76.94-24.84,143.15-46.36,196.78-29,72.14-68.78,121.88-118.37,147.85-161.68,84.65-280.44-4-336.85-64.36-23.14-24.77-45-88.73-57.17-166.93-12.57-81.12-12.26-161.51.85-215l.08-.64q1.37-54.88,2.75-109.78l4.12-164.65,5.5-218.24,2.75-164.64,5.48-219.31c7.52-45.7,6.89-100,6.28-152.45-.63-53.53-1.27-108.89,7-153.1,65.93-351.79,275.12-582.51,621.75-685.78,33.1-9.85,68.72-14.33,106.44-19.06,18-2.26,36.59-4.6,55-7.58l67.84,1.22,2.58.05,1.29-7.66c4.7-28.05,7.8-46.59,20.43-80.76C1562.46,334,1603.77,238,1707.55,145c44.2-39.61,159.78-58.83,207.42-65.25l2.2-.3c65.4-.74,101.43,6.47,148.27,29.63,15.29,7.56,103.35,40.07,104.24,40.4l2.58,1,1.17-2.48c7.59-16.12,27.5-36.93,44.4-46.41,59.28-33.22,123.25-14.88,160.36,18,38.38,34.05,49.68,82.53,30.23,129.68-28.26,68.48-98.52,84.44-151.84,70.28-54.37-14.45-104.91-62.73-95.23-138l.27-2.11-1.93-1c-1.21-.6-29.79-14.86-41.44-21.36-28.83-16.08-108.17-52.45-156.09-55.81-37.36-2.62-83.92,2.73-131.1,15-43.06,11.25-81.58,27.21-103,42.69a381.14,381.14,0,0,0-103.15,110.76c-24.23,39.26-41.24,81.16-57.71,121.73-4.27,10.53-8.69,21.41-13.18,32.12C1542.13,451.85,1535.33,487.61,1531.71,512.63Z"/>
</svg>
