<svg xmlns="http://www.w3.org/2000/svg" viewBox="0 0 2994.91 3000">
  <title>120Icon_neon 1</title>
  <path d="M2801.24,947.85A1406.8,1406.8,0,0,0,2054.8,201.4c-172.93-73.14-356.62-110.22-546-110.22s-373,37.08-546,110.22A1406.7,1406.7,0,0,0,216.4,947.85c-73.14,172.93-110.23,356.62-110.23,546s37.09,373,110.23,546a1406.75,1406.75,0,0,0,746.45,746.45c172.92,73.14,356.62,110.22,546,110.22s373-37.08,546-110.22a1406.72,1406.72,0,0,0,746.44-746.45c73.15-172.93,110.23-356.62,110.23-546S2874.39,1120.78,2801.24,947.85ZM1505.82,1525.22,508.34,2467.39c-245-251.75-396.17-595.34-396.17-973.57,0-769.11,624.91-1395,1393.65-1396.64Zm0,8.25v1357c-388.54-.82-740.34-161.11-993.28-418.78Zm6-.07,1000.65,930.73c-253.46,262.08-608.32,425.51-1000.65,426.33Zm0-8.2V97.18c768.74,1.63,1393.65,627.53,1393.65,1396.64,0,374.45-148.12,714.94-388.84,966Z"/>
</svg>
