<svg xmlns="http://www.w3.org/2000/svg" viewBox="0 0 2994.91 3000">
  <title>116Icon_neon 1</title>
  <g>
    <path d="M813,768,748.84,963.81l169.4-120.14,168.6,120.16-2.82-8.66q-30.66-94-61.31-188l140.48-101.31,9.28-7H984.75l-69-200.47L850.1,658.84H662.72l8.77,6.88Zm166.8-105.15.69,2h173.89l-136.93,98.75-1.79,1.28.68,2.09q29.58,90.69,59.17,181.41L920,837.55l-1.73-1.24-158,112.08,59.17-180.63.67-2.08L680.53,664.84H854.45l61.48-187.62Z"/>
    <path d="M864.72,1921.1,751.53,1582l249.58-180,8.82-7h-321L571.36,1046.52,456.25,1391.78l-310.5,3.15h-.45l-9.33-.08,7.87,6.94.18.15c68.34,49.51,154.34,110.93,205.72,147.63,19.71,14.08,35.52,25.37,43.95,31.43l-111.24,338.5L572.18,1711,856,1914.92ZM399.8,1581.63l1-2.82-1.5-1.08c-.88-.63-1.78-1.29-2.79-2-1.68-1.23-3.68-2.7-6.44-4.68-8.75-6.27-21.3-15.23-36.49-26.08l-.45-.32c-50.06-35.76-133-95-200.35-143.75l305.7-3.11,2.14,0L571.4,1065.39l112.48,333.5.69,2H992.28l-246,177.48-1.79,1.29,108.93,325.94-281.19-202L293.91,1903.87Z"/>
    <path d="M1622.92,1123.87l-2.9,8.73,304-216.43,294.91,212.68.35.25,7.11,3.84-2-8.18L2109.69,781.6l268.18-193.9H2044.68c-40.42-120.24-82.38-244.7-119.42-354.57l-2.86-8.49-3.24,9.75c-38.23,115.2-77.75,234.3-116.63,354.09h-334l268.18,193.91Zm481.17-345.63-1.49,1.08.7,2.09q56.49,169,113,338.13Q2071,1014.81,1925.78,910l-1.75-1.26L1631.52,1117,1743.14,782.2l.7-2.09L1487.11,594.48h319.78l.68-2.07c38.35-118.19,77.22-235.39,114.87-348.86,38.42,114,78.1,231.68,117.24,348.11l.69,2h319Z"/>
    <path d="M2891.25,1509.54H2648q-24.67-72.32-49.36-144.75l-4.6-13.49c-11.15-32.71-22-64.69-33.27-97.58l-3.3-9.73L2537,1306.71c-21.84,66.61-44.41,135.46-66.62,203.61h-244.1l7.51,5.43c62.66,45.3,126.24,91.06,187.72,135.31l.59.42q-40.62,124.62-81.24,249.22l-2.84,8.72L2558.42,1751c67.61,48,209.79,143.46,211.22,144.43l7.2,4.83-2.67-8.25c-.53-1.64-54.17-167.21-78.6-240.58,61.74-44.44,125.56-90.37,188.31-136.51Zm-200.63,138.1-2.14,1.54.69,2.09c20.79,62.34,63.62,194.29,76.62,234.38-30.37-20.42-146.86-98.89-205.64-140.74l-1.75-1.25-209,150.19q39.54-121.29,79.08-242.6l.68-2.08-4.14-3c-58.92-42.41-119.77-86.2-180.2-129.87H2474.7l.67-2.07c22.36-68.61,45.1-138,67.08-205l15.17-46.27q15.93,46.72,31.85,93.44l2.59,7.6q25.52,74.82,51,149.54l.69,2H2873C2812,1560.26,2750.35,1604.65,2690.62,1647.64Z"/>
    <path d="M2032.47,1933l-3.85-11.35-2.82,8.49c-35.64,107.69-105.55,319.58-113.11,343.61h-322l7.5,5.43c85.32,61.81,170,122.86,251.92,181.93q-54.93,166-109.85,331.93l-2.9,8.76,7.5-5.38,285.35-204.73,285.37,204.73,7.46,5.36-2.86-8.73q-54.55-166-109.07-332c82.12-59.65,167-121.32,251.16-183.49l7.32-5.42H2147.71C2109.14,2158.84,2070.17,2044.05,2032.47,1933Zm173.37,524.53-1.76,1.29.68,2.08q53.43,162.63,106.88,325.29L2032,2585.58l-1.74-1.25-281.37,201.86q53.82-162.61,107.65-325.27l.69-2.09-2.64-1.9c-79.85-57.57-162.35-117-245.34-177.16H1917.4l.45-2.35c1.24-5,71.18-217,110.84-336.87,37.31,109.91,75.85,223.4,114,335.63l.7,2h308C2369.18,2338.91,2286.18,2399.2,2205.84,2457.55Z"/>
    <path d="M1069.88,2133.12l-2.88-8.51-84,254.62-238.47,1.65,8.83,6.8,182.94,131.68L857.4,2759l-2,9.21,7.42-5.05q102.53-74.11,205-148.25l207.41,148.26,7.49,5.35-2.89-8.73q-39.82-120.24-79.63-240.48l181.93-131.52,7.43-5.37-236.08-1.64Q1111.7,2257,1069.88,2133.12Zm125,382.66-1.78,1.29.69,2.08q38.7,116.91,77.43,233.83l-201.69-144.16-1.75-1.25-1.75,1.26q-100.32,72.54-200.67,145.09l77.23-234.77.7-2.09-181-130.3,225-1.56,79.77-241.64,81.43,241.21.68,2,222,1.54Z"/>
  </g>
</svg>
