<svg xmlns="http://www.w3.org/2000/svg" viewBox="0 0 2994.91 3000">
  <title>22icon 1</title>
  <g>
    <path d="M559.54,2684.37a277.77,277.77,0,0,1-182.63-70.27,285.74,285.74,0,0,1-66.76-89.9c-19.09-39.88-30-85.25-31.44-131.2a349.33,349.33,0,0,1,23.5-137.09c-56-12.37-104.77-38.24-144.85-76.89-37.25-35.91-65.1-81.75-80.53-132.56A318.61,318.61,0,0,1,70.29,1886,311.42,311.42,0,0,1,150,1737.31c-34.38-64.14-45.15-140.06-30.33-213.83,14.9-74.16,54.58-140.18,111.74-185.93-28.79-56.81-39.46-118.23-30.87-177.63a287.3,287.3,0,0,1,70.6-150.48,292.35,292.35,0,0,1,146.45-88.93c60.74-15.45,126.43-11.17,190,12.38-30.87-80.56-34.12-163.07-9.39-238.67C620.94,624.79,665.88,566.45,724.76,530c52.79-32.72,112.09-45.24,171.49-36.21,31.62,4.81,62.73,15.74,92.48,32.48,31.39,17.67,61.32,41.88,89,71.95,24.23-115.64,78.76-209.7,157.73-272.07a375.42,375.42,0,0,1,252-80c94,4.8,183.55,44,252.14,110.46,75.68,73.29,122.34,175.48,135,295.61a345.13,345.13,0,0,1,96-91.65c37.16-23.66,78.76-39.69,120.31-46.36A272.39,272.39,0,0,1,2194.81,517a255.88,255.88,0,0,1,97.35,45.14c40.7,11.71,76.39,31.73,106.07,59.5,27.83,26,49.67,58.14,64.91,95.41,18.67,45.66,26.53,97.54,22.71,150.05a362.52,362.52,0,0,1-45,150.36c63.49-2.49,120.52,12.29,169.48,44,44.85,29,80.78,71.42,103.92,122.7,25.81,57.21,34.47,123.8,24.38,187.48-10.79,68.12-42,130.85-90.38,181.48,75,12.4,140,48,188.27,103,44.05,50.22,72.37,115.43,79.73,183.61,7.1,65.82-5,129.6-35.11,184.44-32.55,59.34-85,104.7-151.66,131.21,86.16,103.76,115.58,238.2,74.94,342.68-32.24,82.9-104.57,135.92-203.65,149.31a351.61,351.61,0,0,1-51.88,3.94c-66.93,0-127.33-20.38-173.73-59.31a236.41,236.41,0,0,1-63-82.91c-15.47-33.57-23.86-71.17-24.93-111.76v-.42l.42-.08c150.29-29.69,202.18-170.63,186.8-289-15.51-119.35-103-243.29-258.58-233.43h-.25l-.16-.18c-30.05-34.47-49.5-81-56.26-134.49-6.18-48.87-1.31-102.22,13.7-150.28-55.75-13-111-46.2-155.53-93.63-43.51-46.32-74.54-103.32-87.41-160.58a214.85,214.85,0,0,1-65.56,10c-51.49,0-106.49-17-160.12-50.21-48-29.72-91.33-70.16-125.25-117s-55.89-96.53-63.82-144.29c-5.75,48.13-23.17,99-50.51,147.47-28.35,50.25-65.37,94.17-107,127-52.17,41.14-108.16,62.43-163.45,62.43a213.9,213.9,0,0,1-27-1.71c-16.22,58.67-52.16,115.6-101.24,160.36-50,45.62-110.11,75-169.26,82.73,7.65,49.67,5.89,99.57-5.08,144.31-12.06,49.17-34.61,91.66-67,126.31l-.16.17h-.24c-93.29-6-169.87,33.07-215.61,110-55.61,93.54-54.51,227.3,2.64,318,46.07,73.16,121.71,108.94,213,100.73l.58-.05,0,.58c-2.55,47.75-14.88,92.25-36.66,132.27-20.74,38.11-49.88,70.87-84.27,94.74a251.7,251.7,0,0,1-144.24,45.29ZM491.14,912.46c-83.72,0-162.19,33.76-219.25,97.65-80.9,90.57-96,216-39.4,327.35l.18.36-.32.25c-118,94.21-153,265.78-81.29,399.09l.17.32-.25.26c-79.4,82.61-106.76,197.91-73.19,308.43,32.51,107,116.7,185.14,225.2,208.88l.58.13-.22.54c-34.51,88-31.7,185.73,7.7,268.05,34.25,71.54,93.74,123.7,167.52,146.87,79,24.81,158.79,13.31,224.64-32.38,71.42-49.57,115.31-131.79,120.47-225.67-47.83,4.21-91.08-3.33-128.57-22.43-34.31-17.47-62.82-44-84.76-78.82-27.83-44.19-43.41-100.51-43.88-158.58s14.18-115,41.24-160.5c45.9-77.2,122.71-116.44,216.29-110.51,61.88-66.25,88-164.68,71.62-270.11l-.08-.51.51-.06c120.29-15.51,236.49-119.91,270.28-242.85l.12-.42.43,0c63.77,8.24,129.52-12.67,190.13-60.46,83.5-65.84,146.83-177.35,157.58-277.47l.41-3.85.58,3.82c14.69,97.09,90.72,203.25,189.18,264.19,77.19,47.76,157.23,62,225.38,40l.52-.17.12.53c27,121.06,129.09,227.93,242.83,254.12l.53.12-.16.51c-27.1,86.27-24.59,207.54,42,284.14,70.43-4.41,132.78,18.44,180.34,66.08,42.4,42.48,70.48,102.22,79.05,168.24,8.52,65.53-3.14,130-32.82,181.44-33.19,57.55-86.56,95.09-154.37,108.6,2.2,79.24,33.29,147.95,87.59,193.51,57.9,48.57,137.74,68.16,224.83,55.14,98.71-13.34,170.75-66.14,202.86-148.69,40.58-104.32,11.05-238.64-75.22-342.2l-.44-.54.64-.25c128.63-50.82,201.94-174.42,186.78-314.87C2902,1717,2814,1581,2647.15,1553.9l-.94-.16.66-.68c94.7-98.66,121.41-246.76,66.46-368.55-49.19-109-151.37-171.11-273.33-166l-.9,0,.44-.78c52.07-92.14,60.75-207.22,22.68-300.32-31.49-77-92-131.81-170.43-154.36l-.16-.08c-56.77-42.52-128-59.52-200.59-47.86-85.58,13.74-164.45,64.29-216.39,138.69l-.77,1.1-.13-1.34c-27.7-268.58-214-397.69-386.33-406.51-153.25-7.83-352.28,79.72-408.94,352.28l-.2,1-.66-.72C954,464.49,814.55,475.48,725.29,530.81,619.63,596.29,538.16,750.26,609,933.56l.41,1-1.05-.39C569.2,919.6,529.61,912.46,491.14,912.46Z"/>
    <path d="M1516.34,2345.07h-2.09c-65-.57-125-26.16-169.16-72.07a238.42,238.42,0,0,1-66.5-165.24h0c1-65.31,27-125.58,73-169.7a236.72,236.72,0,0,1,75-48.59,231.69,231.69,0,0,1,87.56-17.2h.81c63.15.21,122.47,24.59,167,68.63a232.77,232.77,0,0,1,69.58,166.49c.09,64.51-24.58,124.58-69.47,169.13a235.49,235.49,0,0,1-76.35,50.77A232.92,232.92,0,0,1,1516.34,2345.07Zm-236.75-237.32c-.08,131.36,103,235.16,234.67,236.31h2a236.05,236.05,0,0,0,165.16-68.27c44.69-44.36,69.26-104.17,69.17-168.42-.17-128.65-105.87-233.68-235.63-234.12h-.84c-129.53,0-232.47,102.85-234.52,234.51Z"/>
    <g>
      <path d="M1958.1,1950.1a13.8,13.8,0,1,1,13.75,13.84A13.82,13.82,0,0,1,1958.1,1950.1Z"/>
      <path d="M1972,1964.44h-.12a14.23,14.23,0,0,1-14.25-14.34h0a14.4,14.4,0,0,1,14.25-14.23h0a14.29,14.29,0,1,1,.08,28.58Zm-13.37-14.34a13.3,13.3,0,1,0,13.29-13.24A13.23,13.23,0,0,0,1958.6,1950.1Z"/>
    </g>
    <g>
      <path d="M1077.26,1922.58a13.8,13.8,0,1,1,13.74,13.84A13.8,13.8,0,0,1,1077.26,1922.58Z"/>
      <path d="M1091.12,1936.92H1091a14.22,14.22,0,0,1-14.24-14.34h0a14.39,14.39,0,0,1,14.24-14.23h0a14.29,14.29,0,1,1,.07,28.58Zm-13.36-14.34a13.22,13.22,0,0,0,13.25,13.34h.11a13.29,13.29,0,0,0-.08-26.58h0A13.22,13.22,0,0,0,1077.76,1922.58Z"/>
    </g>
    <path d="M1522.69,2742.6c-5.85,0-11.75-.08-17.73-.25-85.94-.5-159.9-16.85-226.09-50-43.47-21.76-102.48-53.66-137.71-77.93-67.07-46.19-84.11-90-86.6-118.56-2.22-25.48,6.19-49.61,23.08-66.21,31-30.49,77.9-25.49,128.61,13.71,14.91,11.53,33.85,30.21,53.9,50,38.35,37.82,81.82,80.68,113.35,90,62.24,17.08,138.73,22.1,227.33,14.92,72.65-6.91,112.09-54.28,150.24-100.09,34.45-41.37,67-80.46,121-84.56,50-3.79,90.57,18.15,103.28,55.91,6.37,18.91,5,39.54-4,59.67-9.83,21.92-28.54,42.24-54.11,58.76q-11.3,7.29-22.18,14.37c-65.18,42.29-121.47,78.8-181.64,103.71C1653.49,2730.87,1592.47,2742.6,1522.69,2742.6Zm-396.8-331.67a65.86,65.86,0,0,0-47.55,19.45c-16.67,16.39-25,40.23-22.78,65.4,2.47,28.38,19.42,71.86,86.16,117.82,35.2,24.24,94.15,56.12,137.6,77.87,66,33.06,139.86,49.38,225.65,49.88h0c5.93.16,11.79.24,17.54.24,156.08,0,247.34-59.21,372-140.06q10.89-7.07,22.18-14.37c58.88-38,68.44-85.53,57.76-117.27-12.57-37.32-52.7-59-102.26-55.23-53.61,4.07-86,43-120.33,84.2-38.28,46-77.85,93.5-150.92,100.44-88.72,7.2-165.33,2.17-227.7-15-31.78-9.43-75.34-52.39-113.77-90.29-20-19.75-38.94-38.4-53.81-49.9C1177.08,2422.09,1149.76,2410.93,1125.89,2410.93Z"/>
  </g>
</svg>
