<svg xmlns="http://www.w3.org/2000/svg" viewBox="0 0 2994.91 3000">
  <title>164icon 1</title>
  <g>
    <path d="M2518,2488.86c-9.93,0-22.44-3.48-33.36-6.51-4.91-1.37-9.55-2.66-13.4-3.47-20.87-4-38.46-8.8-55.47-13.43s-34.6-9.41-55.46-13.43c-106.21-24.79-191.54-59.88-281.87-97l-23.09-9.48c-26.78-11.71-57.69-25.25-88.5-38.74l-83.67-36.62-106.42,18.35-166.35,15.44-52.86,1.92c-28.73,4.16-98,6.85-131.19,1.93l-144.75-7.71c-34.07-5.24-67.61-9.22-100-13.06-59.65-7.07-116-13.75-172-27.46-182.92-44.75-333.48-99.48-460.27-167.32-69.37-37.11-132.67-78.95-188.14-124.36A950.12,950.12,0,0,1,207,1809c-43-56.4-78.51-122.47-102.8-191.08-28.3-80-36.11-171.34-22.58-264.2,11.86-81.38,40.05-162.37,79.37-228A910.24,910.24,0,0,1,311.86,936.83c55.61-53.37,120.61-102.55,193.19-146.15C634.44,712.94,793.36,649,990.9,595.09c73.22-20,148.14-30.23,227.45-41.09,29.34-4,59.67-8.18,90.56-12.92l176.16-9.65c343.28-3.06,648.48,61.52,907.17,192,170.52,86,290.26,178.56,376.84,291.37h0c125.3,163.31,172.4,326.33,140,484.51l-1.49,7.31c-7.69,37.63-14.95,73.18-27.89,105.61-33.21,83.24-79.14,157.75-140.4,227.78-53.48,61.14-117.7,117.61-196.32,172.64l-102.75,63.67c-9.69,5.18-21.42,11.19-32.76,17-11.1,5.69-22.56,11.57-32.08,16.65,1.79,6,4.2,13,6.54,19.74s4.86,14,6.66,20.12q7.23,20.16,14.15,39,6.6,18.08,13.57,37.4c20.85,49.1,49.41,116.4,79,166.2,1.26,2.11,3.15,5.06,5.53,8.8,13.83,21.69,42.62,66.83,32.46,81.59C2530.28,2487.25,2524.71,2488.86,2518,2488.86Zm-633-219c25,10.95,53.58,23.45,82.22,36l88.49,38.73q11.6,4.74,23.08,9.47c90.3,37.14,175.59,72.22,281.69,97,20.89,4,38.5,8.81,55.53,13.44s34.56,9.39,55.39,13.41c3.89.82,8.55,2.11,13.48,3.48,18,5,40.48,11.26,47.65.86,9.78-14.22-18.77-59-32.49-80.5-2.38-3.74-4.27-6.69-5.53-8.82-29.69-49.86-58.26-117.19-79.13-166.35q-7-19.37-13.58-37.41-6.89-18.87-14.17-39c-1.79-6.11-4.26-13.23-6.64-20.1s-4.87-14.06-6.67-20.18l-.11-.39.35-.19,1.55-.83c-18.24,7.27-110.55,44-141.73,56.73C2149.61,2199.59,1976.42,2255.8,1885,2269.86ZM1508.31,532.32c-7.73,0-15.44,0-23.21.11L1309,542.07c-30.85,4.74-61.19,8.9-90.54,12.92-79.28,10.86-154.16,21.12-227.32,41.07-417.37,113.81-680.9,282.27-829.33,530.16C95,1237.89,40,1433.59,105.13,1617.62c24.24,68.51,59.74,134.48,102.65,190.8,162.25,213,417.08,356,802,450.17,56,13.69,112.29,20.37,171.91,27.43,32.44,3.85,66,7.83,100,13.07l144.75,7.7c33.11,4.92,102.28,2.23,131-1.92l52.88-1.93,166.29-15.43,106.68-18.4h0c90.94-13.65,265.52-70.27,350.72-104.89,34.49-14,143.78-57.54,144.88-58l.24.59c8.59-4.53,18.38-9.55,27.89-14.43,11.34-5.82,23.06-11.83,32.72-17l102.7-63.63c167.3-117.1,274.19-244.19,336.34-400,12.91-32.35,20.16-67.85,27.84-105.44l1.49-7.31c32.35-157.89-14.68-320.63-139.81-483.7-86.48-112.69-206.11-205.19-376.49-291.09C2139.1,596.87,1841.94,532.32,1508.31,532.32Z"/>
    <rect x="507.45" y="993.99" width="1" height="782.28"/>
    <rect x="790.73" y="991.16" width="1" height="782.28"/>
    <rect x="504.05" y="1356.06" width="287.18" height="1"/>
    <polygon points="1188.87 1746.25 1005.07 1745.6 1005.07 1745.11 1003.19 1015.59 1199.92 1015.59 1199.92 1016.59 1004.2 1016.59 1006.07 1744.61 1188.87 1745.25 1188.87 1746.25"/>
    <polygon points="1594.74 1746.25 1407.98 1746.25 1407.98 997.9 1408.98 997.9 1408.98 1745.25 1594.74 1745.25 1594.74 1746.25"/>
    <polygon points="2019.24 1746.25 1817.97 1746.25 1817.97 992.7 1818.97 992.7 1818.97 1745.25 2019.24 1745.25 2019.24 1746.25"/>
    <path d="M2329.81,1762.49c-45.68,0-88.59-39.37-120.83-110.86s-49.9-166.23-49.9-267.13,17.72-195.78,49.9-267.14,75.15-110.86,120.83-110.86,88.59,39.37,120.83,110.86,49.9,166.23,49.9,267.14-17.72,195.77-49.9,267.13S2375.49,1762.49,2329.81,1762.49Zm0-755c-93.59,0-169.73,169.12-169.73,377s76.14,377,169.73,377,169.73-169.12,169.73-377S2423.4,1007.5,2329.81,1007.5Z"/>
    <rect x="1004.34" y="1356.06" width="180.63" height="1"/>
  </g>
</svg>
