<svg xmlns="http://www.w3.org/2000/svg" viewBox="0 0 2994.91 3000">
  <defs>
    <style>
      .a {
        fill-rule: evenodd;
      }
    </style>
  </defs>
  <title>160icon 1</title>
  <g>
    <path d="M2516.22,2482.73c-9.93,0-22.44-3.48-33.36-6.51-4.91-1.37-9.55-2.66-13.4-3.47-20.87-4-38.46-8.8-55.47-13.43s-34.59-9.41-55.46-13.42c-106.21-24.8-191.53-59.89-281.87-97l-23.09-9.48c-26.8-11.72-57.74-25.27-88.56-38.77L1881.4,2264,1775,2282.37l-166.35,15.44-52.86,1.92c-28.73,4.16-98,6.85-131.18,1.93L1279.83,2294c-34.07-5.24-67.61-9.22-100-13.06-59.65-7.07-116-13.75-172-27.46-182.92-44.75-333.48-99.48-460.27-167.31-69.37-37.12-132.66-79-188.14-124.36C301,1914,249.19,1860.58,205.25,1802.9c-43-56.4-78.52-122.47-102.8-191.08-28.31-80-36.12-171.34-22.59-264.19,11.86-81.39,40.05-162.38,79.37-228.05A910.24,910.24,0,0,1,310.12,930.7c55.62-53.37,120.61-102.54,193.19-146.15C632.7,706.81,791.62,642.83,989.16,589c73.22-20,148.14-30.23,227.45-41.09,29.34-4,59.68-8.18,90.57-12.92l176.15-9.65c343.29-3.06,648.48,61.52,907.17,192,170.52,86,290.26,178.56,376.84,291.37,125.31,163.32,172.41,326.33,140,484.51l-1.49,7.31c-7.68,37.63-14.94,73.18-27.88,105.61-33.22,83.24-79.15,157.75-140.4,227.78-53.49,61.14-117.7,117.62-196.33,172.64l-102.75,63.67c-9.69,5.18-21.41,11.19-32.75,17-11.1,5.7-22.57,11.58-32.08,16.66,1.78,6,4.2,13,6.54,19.74s4.85,14,6.65,20.12q7.23,20.16,14.15,39,6.6,18.08,13.57,37.4c20.85,49.1,49.41,116.4,79.06,166.2,1.26,2.12,3.14,5.07,5.52,8.8,13.84,21.69,42.62,66.83,32.47,81.59C2528.54,2481.12,2523,2482.73,2516.22,2482.73Zm-633-219,82.16,36,88.55,38.76q11.6,4.74,23.08,9.48c90.3,37.13,175.59,72.21,281.7,97,20.88,4,38.49,8.81,55.51,13.44s34.57,9.39,55.41,13.41c3.89.82,8.54,2.11,13.47,3.48,18,5,40.48,11.26,47.65.86,9.78-14.22-18.76-59-32.48-80.49-2.39-3.74-4.27-6.7-5.54-8.83-29.68-49.86-58.26-117.19-79.13-166.35q-6.95-19.36-13.58-37.41-6.89-18.86-14.16-39.05c-1.8-6.11-4.27-13.22-6.65-20.1s-4.87-14.05-6.67-20.18l-.11-.39.36-.19,1.55-.83c-18.23,7.26-110.56,44.05-141.74,56.73C2147.87,2193.46,1974.69,2249.67,1883.25,2263.73ZM1506.57,526.19c-7.73,0-15.44,0-23.21.11l-176.08,9.64c-30.85,4.74-61.19,8.9-90.53,12.92-79.28,10.86-154.17,21.12-227.33,41.07-417.37,113.81-680.9,282.28-829.33,530.16-66.86,111.67-121.83,307.37-56.7,491.4C127.64,1680,163.13,1746,206,1802.29c162.25,213,417.08,356,802,450.17,56,13.69,112.29,20.37,171.91,27.44,32.44,3.84,66,7.82,100,13.06l144.76,7.7c33.1,4.92,102.27,2.23,131-1.92l52.88-1.93,166.29-15.43,106.68-18.4h0c90.94-13.65,265.52-70.27,350.72-104.89,34.49-14,143.77-57.54,144.87-58l.24.59c8.6-4.53,18.39-9.55,27.91-14.44,11.33-5.81,23-11.82,32.7-17l102.7-63.63c167.31-117.1,274.19-244.19,336.35-400,12.91-32.35,20.15-67.85,27.83-105.44l1.49-7.31c32.36-157.89-14.68-320.63-139.8-483.7-86.48-112.69-206.12-205.19-376.5-291.09C2137.36,590.74,1840.21,526.19,1506.57,526.19Z"/>
    <rect x="1448.14" y="1262.42" width="1" height="595.16"/>
    <rect x="1301.45" y="1414.17" width="599.06" height="1"/>
    <rect x="1306.65" y="1724.96" width="588.66" height="1"/>
    <rect x="1755.69" y="1262.42" width="1" height="595.16"/>
    <path d="M786.86,1892.24c-1.29,0-2.55,0-3.78,0-31.53-.85-90.34-11.83-121.84-25.27-28.27-12.05-65.15-30.88-83.91-47.56-29.69-26.41-66.53-114.27-75.19-151.8-10-43.35-5.46-129.64,5-172.19,9.22-37.58,42-101.45,78.75-139.09,23.36-23.9,86.06-66.9,124.24-85.22,38.7-18.56,124.29-28.2,157.46-28,27.39.21,100.07,9.5,149.92,36.93,24.94,13.72,57.52,49.09,72.69,69.81,16.43,22.46,39.58,90.76,44.85,120.13,5.6,31.2.39,83-4.48,110.27-4.61,25.78-22,70.74-34.49,93.71-8.74,16.09-36.35,39.72-51.51,48.92s-53.41,15.74-70.4,12c-17.79-3.95-39.88-30.26-47.27-46.63-8.26-18.31-2.5-59.85,0-77.59,7.84-56.46,54.77-213.78,55.25-215.36l1,.29c-.48,1.58-47.39,158.82-55.22,215.2-2.45,17.66-8.18,59,0,77,7.14,15.8,29.35,42.24,46.57,46.06,16.81,3.73,54.58-2.69,69.67-11.85s42.49-32.59,51.15-48.54c12.44-22.9,29.79-67.71,34.38-93.41,4.86-27.16,10.06-78.84,4.49-109.91-5.26-29.29-28.32-97.36-44.68-119.71-15.12-20.66-47.56-55.88-72.36-69.53-49.68-27.35-122.14-36.61-149.45-36.81-33-.23-118.45,9.38-157,27.87-38.1,18.28-100.66,61.18-124,85-36.68,37.52-69.3,101.17-78.49,138.63-10.41,42.44-14.95,128.5-5,171.72,8.64,37.43,45.33,125,74.89,151.28,18.66,16.6,55.44,35.37,83.63,47.39,31.4,13.39,90,24.34,121.48,25.19,38.66,1,113.42-14.7,154.15-26.21,22.22-6.28,60.76-20.16,88.4-33.51l.44.9c-27.7,13.38-66.3,27.28-88.57,33.57C898,1877.1,826.55,1892.24,786.86,1892.24Z"/>
    <path d="M756.48,1736.42c-1,0-2,0-3.06,0-25.49-.5-45-7.27-54.86-19.09-1.57-1.88-3.07-3.64-4.49-5.33-10.16-12-16.87-19.93-24-35.78-16.16-35.8-29.49-81.13-5.89-145.83,18.27-50.08,32.32-76.22,72.06-108.51,30.81-25,77.74-29.74,111.39-25.8,24.93,2.92,44.44,10.68,52.19,20.76,12,15.62,44.4,68.84,50,96.67l-1,.19C943.25,1486,911,1433,899,1417.43c-7.58-9.87-26.84-17.49-51.51-20.38-33.44-3.91-80.07.75-110.64,25.59-39.56,32.13-53.55,58.17-71.75,108.07-23.48,64.36-10.22,109.46,5.86,145.08,7.09,15.72,13.77,23.6,23.87,35.54l4.5,5.34c9.7,11.59,28.91,18.24,54.11,18.73,39.94.77,82.62-13.75,101.41-34.53l.39-.33c12-10,72-60.89,70.25-79.67l1-.09c1.76,19.28-58.51,70.46-70.62,80.53l-.33.28C837.1,1722,795.81,1736.42,756.48,1736.42Z"/>
    <g>
      <rect x="2147.72" y="1887.75" width="13.86" height="13.86"/>
      <path d="M2162.09,1902.12h-14.87v-14.87h14.87Zm-13.87-1h12.87v-12.87h-12.87Z"/>
    </g>
    <g>
      <path class="a" d="M2156.7,1735.86l-7.77.86c0-.28-.1-.58-.16-.86q-.78-378.94-1.56-758,0-35.5-.08-71-.09-32-.16-64.1c0-59.11.78-89.43,5.57-97,3-4.79,5.32,24.13,6,46.78.52,17.87.08,44,.08,64.1q-.12,65-.23,129.93Q2157.53,1361.19,2156.7,1735.86Z"/>
      <path d="M2148.52,1737.27l-.24-1.32-.75-358.76-.82-399.29-.08-71-.16-64.1c0-59.8.81-89.61,5.65-97.29.48-.77,1-.82,1.33-.72,4.17,1.14,5.5,45.85,5.55,47.75.36,12.4.26,28.62.16,44.3,0,6.9-.08,13.64-.08,19.82l-.23,129.93-1.65,749.74-.45,0-7.76.87Zm4.67-991.55a3.45,3.45,0,0,0-.23.3c-4.7,7.46-5.52,37.14-5.49,96.75l.16,64.1.08,71,1.56,757.95.07.32,6.86-.76,1.65-748.85.23-129.93c0-6.18,0-12.93.08-19.82.1-15.68.2-31.89-.16-44.27C2157.3,767.92,2155.1,746.51,2153.19,745.72Z"/>
    </g>
  </g>
</svg>
