<svg xmlns="http://www.w3.org/2000/svg" viewBox="0 0 2994.91 3000">
  <defs>
    <style>
      .a {
        fill-rule: evenodd;
      }
    </style>
  </defs>
  <title>162icon 1</title>
  <g>
    <path d="M2515.55,2476.15c-9.93,0-22.44-3.48-33.36-6.52-4.91-1.36-9.55-2.65-13.4-3.47-20.87-4-38.46-8.8-55.47-13.42s-34.59-9.41-55.46-13.43c-106.2-24.79-191.53-59.88-281.87-97q-11.49-4.72-23.09-9.49c-26.9-11.76-58-25.37-88.94-38.93l-83.22-36.43-106.42,18.36L1608,2291.22l-52.86,1.93c-28.72,4.15-98,6.85-131.18,1.92l-144.76-7.7c-34.07-5.25-67.6-9.22-100-13.07-59.65-7.07-116-13.75-172-27.46-182.93-44.75-333.48-99.48-460.28-167.31-69.36-37.11-132.66-79-188.14-124.36a950.49,950.49,0,0,1-154.1-158.86c-43-56.39-78.52-122.46-102.8-191.07-28.31-80-36.12-171.34-22.59-264.2,11.86-81.38,40.05-162.37,79.37-228a910.23,910.23,0,0,1,150.9-188.87C365.07,870.74,430.07,821.57,502.65,778,632,700.22,791,636.25,988.49,582.38c73.23-20,148.14-30.23,227.45-41.1,29.34-4,59.68-8.17,90.57-12.92l176.15-9.65c7.75-.07,15.52-.1,23.23-.1,333.84,0,631.09,64.58,883.94,192.06,170.53,86,290.27,178.56,376.84,291.38,125.31,163.31,172.41,326.32,140,484.5l-1.5,7.31c-7.68,37.64-14.94,73.18-27.88,105.61-33.22,83.24-79.14,157.75-140.4,227.79-53.48,61.14-117.7,117.61-196.33,172.64l-102.75,63.66c-9.68,5.18-21.41,11.19-32.74,17-11.1,5.69-22.58,11.58-32.09,16.65,1.78,6,4.2,13,6.54,19.74s4.85,14,6.65,20.13q7.24,20.19,14.17,39.06,6.59,18,13.56,37.34c20.84,49.11,49.4,116.41,79,166.2,1.26,2.12,3.14,5.07,5.52,8.8,13.84,21.7,42.63,66.84,32.47,81.6C2527.87,2474.54,2522.31,2476.15,2515.55,2476.15Zm-633-219c24.91,10.89,53.29,23.32,81.79,35.8l88.92,38.92,23.08,9.48c90.3,37.14,175.59,72.21,281.7,97,20.88,4,38.49,8.81,55.51,13.44s34.57,9.4,55.41,13.41c3.89.82,8.54,2.12,13.47,3.49,18,5,40.49,11.26,47.65.85,9.79-14.21-18.76-59-32.48-80.49-2.39-3.74-4.27-6.69-5.54-8.83-29.68-49.85-58.26-117.18-79.12-166.34q-7-19.35-13.57-37.37-6.89-18.88-14.18-39.09c-1.8-6.12-4.26-13.23-6.65-20.11s-4.86-14.05-6.66-20.18l-.12-.39.36-.19,1.55-.82c-18.23,7.26-110.55,44.05-141.73,56.73C2147.2,2186.87,1974,2243.08,1882.58,2257.15ZM1505.91,519.61c-7.73,0-15.45,0-23.22.1l-176.08,9.65c-30.85,4.74-61.19,8.89-90.53,12.91-79.28,10.87-154.16,21.12-227.32,41.07C571.38,697.16,307.85,865.62,159.42,1113.51c-66.86,111.67-121.83,307.37-56.7,491.39,24.25,68.52,59.75,134.49,102.65,190.81,162.25,213,417.08,356,802,450.16,56,13.7,112.29,20.37,171.91,27.44,32.44,3.85,66,7.82,100,13.06l144.75,7.71c33.11,4.92,102.27,2.22,131-1.92l52.89-1.94,166.29-15.42,106.67-18.4h0c90.94-13.65,265.52-70.27,350.72-104.89,34.49-14,143.78-57.54,144.88-58l.23.59c8.6-4.54,18.39-9.56,27.91-14.44,11.33-5.81,23-11.82,32.7-17l102.7-63.63c167.31-117.1,274.19-244.2,336.35-400,12.91-32.34,20.16-67.85,27.83-105.44l1.5-7.31c32.35-157.88-14.69-320.62-139.81-483.69-86.48-112.69-206.11-205.19-376.5-291.1C2136.69,584.16,1839.54,519.61,1505.91,519.61Z"/>
    <g>
      <rect x="2012.02" y="1964.32" width="13.86" height="13.86"/>
      <path d="M2026.38,1978.68h-14.86v-14.86h14.86Zm-13.86-1h12.86v-12.86h-12.86Z"/>
    </g>
    <g>
      <path class="a" d="M2022.79,1815.67h-7.93c0-.31-1-548.76-1.57-823.19q0-38.57-.07-77.14-.09-34.8-.16-69.62c0-64.19.78-97.12,5.57-105.37,3-5.2,5.32,26.21,6,50.8.51,19.42.08,47.76.08,69.62q-.12,70.56-.23,141.12Q2023.62,1408.75,2022.79,1815.67Z"/>
      <path d="M2023.29,1816.17h-8.85l-.07-.42c0-.2-.21-90.37-.94-482.43-.23-123.75-.46-248-.64-340.84l-.08-77.14-.15-69.62c0-64.94.81-97.3,5.64-105.62.47-.81,1-.88,1.31-.79,4.2,1.07,5.53,49.76,5.58,51.83.36,13.46.26,31.06.16,48.09,0,7.5-.08,14.82-.08,21.54l-.23,141.12Zm-7.93-1h6.93l1.65-813.28.23-141.12c0-6.72,0-14,.08-21.54.1-17,.2-34.62-.16-48.06-.7-26.62-2.9-49.85-4.81-50.89,0,0-.09.11-.22.32-4.71,8.12-5.53,40.37-5.5,105.12l.15,69.62.08,77.14c.18,92.86.41,217.09.64,340.84C2014.86,1564.31,2015.3,1803,2015.36,1815.17Z"/>
    </g>
    <g>
      <rect x="1476.24" y="1962.79" width="13.86" height="13.86"/>
      <path d="M1490.6,1977.15h-14.86v-14.86h14.86Zm-13.86-1h12.86v-12.86h-12.86Z"/>
    </g>
    <g>
      <path class="a" d="M1485.19,1819.24l-7.78,0c-.05-.31-1.19-548.81-1.72-823.23q0-38.58-.08-77.15l-.15-69.62c0-64.19.78-97.12,5.57-105.37,3-5.2,5.31,26.21,6,50.81.51,19.41.08,47.76.08,69.61l-.24,141.12Q1486,1412.32,1485.19,1819.24Z"/>
      <path d="M1477,1819.8l-.07-.42c-.07-.42-1.31-603.16-1.73-823.32l-.08-77.15L1475,849.3c0-64.94.81-97.31,5.64-105.63.47-.81,1-.88,1.31-.79,4.2,1.07,5.53,49.76,5.58,51.83.36,13.46.26,31.08.16,48.11,0,7.49-.08,14.81-.08,21.52l-.24,141.12-1.64,814.28Zm4.69-1075.94a1.94,1.94,0,0,0-.22.31c-4.71,8.13-5.53,40.37-5.5,105.12l.15,69.62.08,77.15c.52,270.64,1.63,804.32,1.72,822.73l6.78,0,1.64-813.28.24-141.12c0-6.71,0-14,.08-21.52.1-17,.2-34.64-.16-48.08C1485.79,768.13,1483.59,744.89,1481.68,743.86Z"/>
    </g>
    <g>
      <rect x="941.46" y="1963.29" width="13.86" height="13.86"/>
      <path d="M955.82,1977.65H941v-14.86h14.86Zm-13.86-1h12.86v-12.86H942Z"/>
    </g>
    <g>
      <path class="a" d="M950.72,1819.24H943c-.05-.31-1.2-548.77-1.72-823.19q0-38.58-.08-77.15-.07-34.8-.16-69.62c0-64.19.79-97.12,5.58-105.37,3-5.2,5.31,26.21,6,50.81.51,19.41.08,47.76.08,69.61l-.24,141.12Q951.55,1412.32,950.72,1819.24Z"/>
      <path d="M942.53,1819.75l-.07-.41c-.07-.42-1.3-597.15-1.73-823.28l-.08-77.15-.16-69.61c0-64.94.81-97.31,5.64-105.63.48-.81,1-.88,1.32-.79,4.19,1.07,5.52,49.76,5.58,51.83.35,13.46.25,31.07.16,48.1,0,7.49-.08,14.82-.08,21.53l-.24,141.12-1.65,814.28Zm4.68-1075.89s-.09.1-.21.31c-4.71,8.13-5.53,40.37-5.51,105.12l.16,69.62.08,77.15c.53,278.18,1.63,804.45,1.72,822.69h6.77l1.65-813.28.24-141.12c0-6.71,0-14,.08-21.54.09-17,.19-34.62-.16-48.06C951.33,768.13,949.13,744.9,947.21,743.86Z"/>
    </g>
  </g>
</svg>
