<svg xmlns="http://www.w3.org/2000/svg" viewBox="0 0 2994.91 3000">
  <title>158icon 1</title>
  <g>
    <path d="M2512.94,2472.74c-9.85,0-22.26-3.45-33.09-6.46-4.88-1.36-9.48-2.64-13.3-3.45-20.7-4-38.15-8.73-55-13.32s-34.32-9.34-55-13.33c-105.36-24.6-190-59.43-279.63-96.3q-11.4-4.7-22.9-9.41l-88.22-38.63c-28.82-12.63-57.52-25.2-82.58-36.16l-105.57,18.21-165,15.32q-26.25,1-52.44,1.92c-28.5,4.11-97.27,6.79-130.14,1.9l-143.61-7.64c-33.79-5.21-67.06-9.15-99.24-13-59.17-7-115.07-13.65-170.66-27.25-181.47-44.42-330.83-98.73-456.61-166.05-68.82-36.84-131.61-78.36-186.65-123.43A943.21,943.21,0,0,1,220.34,1798c-42.62-56-77.89-121.54-102-189.63C90.28,1529,82.53,1438.35,96,1346.19c11.76-80.77,39.72-161.15,78.74-226.33A902.92,902.92,0,0,1,324.39,932.41C379.56,879.44,444,830.63,516,787.35c128.36-77.15,286-140.65,482-194.11,72.64-19.81,147-30,225.64-40.78,29.1-4,59.2-8.12,89.84-12.82l174.76-9.58c340.55-3,643.32,61.06,899.95,190.51,169.17,85.33,288,177.22,373.84,289.18,124.31,162.08,171,323.87,138.89,480.86l-1.49,7.26c-7.62,37.35-14.82,72.62-27.66,104.81-33,82.61-78.51,156.55-139.28,226.06-53.06,60.68-116.77,116.73-194.77,171.34l-101.93,63.19c-9.61,5.14-21.23,11.1-32.48,16.87-11,5.65-22.39,11.49-31.83,16.53,1.76,6,4.16,12.9,6.48,19.6s4.82,13.9,6.6,20c4.78,13.33,9.49,26.23,14,38.71q6.54,17.94,13.47,37.11c20.67,48.74,49,115.52,78.42,165,1.25,2.1,3.12,5,5.48,8.73,13.72,21.53,42.29,66.34,32.21,81C2525.16,2471.15,2519.64,2472.74,2512.94,2472.74ZM1885,2255.39l81.13,35.53c30.7,13.45,61.53,27,88.21,38.63l22.89,9.4c89.58,36.86,174.2,71.67,279.46,96.26,20.72,4,38.19,8.74,55.08,13.33s34.29,9.33,55,13.31c3.86.82,8.48,2.1,13.36,3.46,17.9,5,40.16,11.18,47.27.85,9.71-14.11-18.61-58.53-32.22-79.88-2.37-3.71-4.24-6.64-5.5-8.76-29.45-49.48-57.79-116.3-78.5-165.09q-6.9-19.23-13.47-37.14-6.83-18.72-14.05-38.74c-1.78-6.07-4.23-13.13-6.59-20s-4.83-13.95-6.62-20l-.11-.39.36-.19,1.47-.78c-18.24,7.27-109.65,43.71-140.54,56.27C2147.53,2185.65,1975.73,2241.43,1885,2255.39ZM1511.33,531c-7.67,0-15.33,0-23,.1l-174.68,9.57c-30.61,4.7-60.71,8.83-89.82,12.82-78.65,10.78-152.93,21-225.51,40.76C584.23,707.16,322.8,874.36,175.55,1120.37c-66.33,110.83-120.86,305.06-56.25,487.69,24.06,68,59.27,133.48,101.84,189.37,161,211.35,413.76,353.32,795.58,446.77,55.53,13.59,111.4,20.21,170.54,27.23,32.18,3.81,65.46,7.76,99.23,13l143.6,7.65c32.84,4.88,101.46,2.21,130-1.91l52.46-1.92,165-15.31,105.83-18.26h0c90.22-13.54,263.41-69.74,347.93-104.1,34.22-13.91,142.64-57.1,143.73-57.54l.23.58c8.54-4.5,18.25-9.48,27.7-14.33,11.24-5.77,22.86-11.73,32.43-16.85l101.88-63.15c166-116.21,272-242.35,333.67-396.94,12.81-32.1,20-67.34,27.61-104.64l1.49-7.26c32.09-156.7-14.57-318.21-138.7-480.05-85.79-111.84-204.47-203.64-373.5-288.9C2137.09,595,1842.3,531,1511.33,531Z"/>
    <path d="M1258,1695.4l.22-.83,80.89-305.72.1-.09L1893.06,841l.36.34,233.87,221.55-.37.37-562.17,550.19-.12,0Zm82-306L1259.39,1694l304.85-81.41,561.61-549.65-232.77-220.5Z"/>
    <rect x="1983.15" y="884.13" width="197.68" height="1" transform="translate(-22.67 1713.88) rotate(-44.53)"/>
    <rect x="2151.95" y="620.82" width="1" height="388.97" transform="translate(78.14 1812.82) rotate(-46.43)"/>
    <path d="M899.59,2048.36q44.64-44.46,89.5-88.69l44.81-44.29,44.88-44.21,179.62-176.76.57.58-179.48,176.9-44.89,44.2-45,44.12Q944.65,2004.32,899.59,2048.36Z"/>
  </g>
</svg>
