<svg id="V3" xmlns="http://www.w3.org/2000/svg" width="3000" height="3000" viewBox="0 0 3000 3000">
  <defs>
    <style>
      .cls-1 {
        fill-rule: evenodd;
      }
    </style>
  </defs>
  <path id="_149" data-name="149" class="cls-1" d="M1487,217c82.01,0.2,96.79,66.031,127,118Q1716.5,510.983,1819,687q435.96,743.925,872,1488c89.89,150.13,170.36,307.46,266,453,29.2,44.44,45.46,114.61-12,144-38.21,19.54-135.95,10-192,10H700q-254.974.495-510,1c-58.533,9.24-137.415,2.55-158-31-38.847-63.32,13.842-128.74,43-175,87.306-138.53,166.354-284.38,251-426q412.458-704.925,825-1410,104.985-179.982,210-360c28.75-48.037,51.42-118.606,96-151C1465.82,223.588,1476.35,222.082,1487,217Zm-55,2028q66.99-1.005,134-2,14.505-595.44,29-1191,1.005-74.49,2-149,1.005-42.5,2-85c4.96-81.371-14.75-135.529-86-148-17.67-3.093-34.53,3.634-46,8-60.72,23.118-80.68,76.942-67,166q1.005,36.5,2,73,0.495,51.995,1,104Q1417.505,1632.94,1432,2245Zm122,88q-15,.495-30,1c-33.45,0-92.89-7.86-114,7q-0.495,59.49-1,119c0,13.84-5.2,36.56,1,47,5.27,8.88,29.05,6,43,6,41.1,0,92.75,6.1,130-2,10.27-15.56,8.77-152.28,2-174C1576.53,2334.01,1566.77,2332.87,1554,2333Z"/>
</svg>
