<svg id="group" data-name="group 5" xmlns="http://www.w3.org/2000/svg" width="3000" height="3000" viewBox="0 0 3000 3000">
  <defs>
    <style>
      .cls-1 {
        fill-rule: evenodd;
      }
    </style>
  </defs>
  <path id="_211" data-name="211" class="cls-1" d="M1197.9,1091.62H2565.94q157.89-.81,315.82-1.63c42.85-.01,97.69-8.6,106.37,26.17q-0.81,296.085-1.64,592.22c0.01,44.92,9.91,170.12-14.72,186.5-18.07,12.01-100.61,4.91-130.92,4.91H2495.57q-646.305.81-1292.76,1.63-0.81,219.21-1.63,438.44c0,38.72,11.83,129.55-11.46,147.24-30.3,23.03-63.37-17.72-80.18-31.08q-99-85.065-198.006-170.14-333.793-287.91-667.653-575.86-81.811-70.35-163.64-140.7c-20.239-16.1-62.257-39.29-68.729-67.07-7.444-31.95,65.34-78.86,83.457-93.25q132.535-112.875,265.1-225.76Q669.315,919.87,978.627,656.458q71.989-61.344,144-122.7c13.81-10.973,36.09-40,63.82-21.267,24.76,16.732,13.09,105.915,13.09,145.6Q1198.73,874.837,1197.9,1091.62Z"/>
</svg>
