<svg id="V1" xmlns="http://www.w3.org/2000/svg" width="3000" height="3000" viewBox="0 0 3000 3000">
  <defs>
    <style>
      .cls-1 {
        fill-rule: evenodd;
      }
    </style>
  </defs>
  <g id="symbol">
    <path id="_68" data-name="68" class="cls-1" d="M986.183,1042.45c-80.908-.15-161.68-1.92-238.857,3.13-1.6-200.029,1.024-402.146,58.41-549.494,58-148.924,164.491-269.439,292.054-349.3,62.02-38.831,132.72-65.36,210.69-88.628,40.9-12.2,85.06-15.025,130.38-22.939,83.27-14.54,197.77.656,261.81,19.811,217.98,65.2,357.03,186.965,441.21,384.75,26.44,62.134,40.74,130.414,56.32,204.366,16.63,78.936,15.76,192.016-3.13,266.927-46.68,185.136-165.05,392.186-293.09,495.276l-100.14,89.67c-49.33,39.57-102.54,86.37-136.64,140.76-40.46,64.57-66.44,137.87-85.52,224.18q-7.83,60.465-15.65,120.95v88.63q4.17,55.26,8.34,110.52,5.745,64.65,11.48,129.3,15.645,123.015,31.29,246.07-120.465.525-240.94,1.04-16.7-137.1-33.38-274.22-4.695-58.9-9.39-117.83c-6.42-39.56.54-82.44-6.26-125.12l1.05-81.33c8.69-52.07,9.25-104.98,20.86-154.32,29.07-123.58,69.17-230.84,132.46-320.1,41.09-57.94,95.18-111.16,150.2-155.36q35.985-32.835,71.97-65.69,41.2-38.055,82.4-76.11,25.035-29.715,50.07-59.44c26.14-37.03,44.49-78.88,67.8-118.86,51.81-88.872,86.6-212.957,56.32-350.345-40.57-184.124-121.47-305.71-287.88-363.9-52.53-18.369-136.42-34.709-209.65-21.9l-92.83,16.683c-53.89,15.13-103.46,34.766-146.03,61.518-72.2,45.378-149.39,127.125-184.62,208.537C983,685.153,985.842,868.541,986.183,1042.45Zm384.887,1653.7h191.92c21.22,0,60.36-5.38,74.05,4.17,12.99,9.06,8.33,43.17,8.35,64.65v161.61c0,19.36,3.89,49.76-7.3,58.39-11.74,9.05-42.76,5.22-62.59,5.22H1418c-23.53,0-56.91,4.63-64.67-11.47-7.16-14.88-2.08-47.65-2.08-66.74q1.035-101.13,2.08-202.28C1356.62,2701.86,1363.79,2700.17,1371.07,2696.15Z"/>
  </g>
</svg>
