<svg id="V1" xmlns="http://www.w3.org/2000/svg" width="3000" height="3000" viewBox="0 0 3000 3000">
  <defs>
    <style>
      .cls-1 {
        fill-rule: evenodd;
      }
    </style>
  </defs>
  <path id="_31" data-name="31" class="cls-1" d="M2218.65,458.616h484.6c72.76,0,167.53-9.655,213.91,18.25,85.32,51.328,98.64,181.271,13.18,243.337-42.83,31.11-116.23,26.365-191.61,26.362H2342.34L782.093,747.579H325.881c-167.9.009-287.516,20.874-313.265-127.752-7.159-41.324,10.9-75.73,25.345-97.335,16.632-24.867,40.409-45.152,70.966-55.765,35.7-12.4,93.543-7.1,139.9-7.1H523.573ZM146.438,1355.92H2338.28l412.62,1.02h58.8c61.28-.01,95.61,7.56,128.75,33.45,27.09,21.17,59.25,70.48,49.68,125.73-25.78,148.75-144.43,127.76-311.24,127.75H205.238c-23.535,0-51.63,2.85-71.98-2.03-77.634-18.6-152.066-113.14-99.352-208.86,17.774-32.28,44.885-56.12,81.1-69.96Q130.723,1359.465,146.438,1355.92Zm0,897.31H2740.76c78.39-.01,151.51-4.51,193.64,30.41,28.6,23.71,64.19,70.66,53.73,130.8-25.38,145.97-141.9,126.74-307.18,126.74H207.266c-23.854,0-52.36,2.71-72.994-2.03C55.88,2521.12-18.884,2426.12,33.906,2330.28c17.7-32.13,45.036-56.17,81.1-69.96Q130.723,2256.78,146.438,2253.23Z"/>
</svg>
