<?xml version="1.0" encoding="utf-8"?>
<!-- Generator: Adobe Illustrator 24.0.2, SVG Export Plug-In . SVG Version: 6.00 Build 0)  -->
<svg version="1.1" xmlns="http://www.w3.org/2000/svg" xmlns:xlink="http://www.w3.org/1999/xlink" x="0px" y="0px"
	 viewBox="0 0 3000 3000" style="enable-background:new 0 0 3000 3000;" xml:space="preserve">
<style type="text/css">
	.st0{display:none;}
</style>
<g id="Layer_3" class="st0">
	
		<image style="display:inline;overflow:visible;" width="462" height="153" xlink:href="../erte.PNG"  transform="matrix(2.6509 0 0 2.6509 552.1085 1377.1156)">
	</image>
</g>
<g id="Layer_2">
</g>
<g id="Layer_4">
	<path d="M2713.3,451.3V145.4H45.9v305.9v1922.6v174.8v182.1c0,68.4,48.2,123.8,107.7,123.8h2692.7c59.5,0,107.7-55.4,107.7-123.8
		v-182.1v-174.8V451.3H2713.3z M1104,2672.5H204.3v-983.2H1104V2672.5z M2397.8,2619.7H1338.4v-142h1059.3V2619.7z M2713.3,2217.7
		H1338.4v-127.4h1374.9V2217.7z M2713.3,1810.2H1338.4v-120.8h1374.9V1810.2z M2713.3,1355.7h-2509V1159h2509V1355.7z M2713.3,825.3
		h-2509V628.7h2509V825.3z"/>
</g>
</svg>
