<svg id="group" data-name="group 5" xmlns="http://www.w3.org/2000/svg" width="3000" height="3000" viewBox="0 0 3000 3000">
  <defs>
    <style>
      .cls-1 {
        fill-rule: evenodd;
      }
    </style>
  </defs>
  <path id="_210" data-name="210" class="cls-1" d="M1802.4,1908.34H434.719q-157.857.825-315.745,1.64c-42.831,0-97.658,8.59-106.338-26.18q0.818-296.07,1.636-592.2c0-44.92-9.907-170.12,14.724-186.5,18.061-12,100.58-4.91,130.879-4.9H505.066q646.149-.825,1292.424-1.64,0.825-219.19,1.64-438.426c0-38.717-11.83-129.54,11.45-147.233,30.3-23.026,63.35,17.719,80.16,31.083L2088.7,714.12q333.705,287.892,667.48,575.84,81.8,70.335,163.6,140.69c20.23,16.1,62.24,39.29,68.71,67.07,7.44,31.96-65.32,78.86-83.44,93.25q-132.5,112.875-265.03,225.76-309.165,263.355-618.4,526.77l-143.96,122.69c-13.81,10.97-36.09,40-63.81,21.27-24.75-16.74-13.09-105.92-13.09-145.6Q1801.585,2125.125,1802.4,1908.34Z"/>
</svg>
