<svg xmlns="http://www.w3.org/2000/svg" viewBox="0 0 2994.91 3000">
  <defs>
    <style>
      .a {
        fill-rule: evenodd;
      }
    </style>
  </defs>
  <title>8icon 1</title>
  <g>
    <polygon class="a" points="1500 1351.06 829.05 680.12 680.12 680.12 680.12 829.05 1351.06 1500 680.12 2170.95 680.12 2319.89 829.05 2319.89 1500 1648.94 2170.95 2319.89 2319.88 2319.89 2319.88 2170.95 1648.94 1500 2319.88 829.05 2319.88 680.12 2170.95 680.12 1500 1351.06"/>
    <polygon class="a" points="2769.65 379.29 3000 148.94 2851.06 0 2620.71 230.35 2769.65 230.35 2769.65 379.29"/>
    <path class="a" d="M2687.05,2538.11V313H313v2374.1h2374.1Zm-114.93,34H427.88V427.89H2572.12V2572.12Z"/>
    <polygon class="a" points="2769.65 2769.65 2620.71 2769.65 2851.06 3000 3000 2851.06 2769.65 2620.71 2769.65 2769.65"/>
    <polygon class="a" points="230.35 2620.71 0 2851.06 148.94 3000 379.29 2769.65 230.35 2769.65 230.35 2620.71"/>
    <polygon class="a" points="230.35 230.35 379.29 230.35 148.94 0 0 148.94 230.35 379.29 230.35 230.35"/>
  </g>
</svg>
