<svg id="V3" xmlns="http://www.w3.org/2000/svg" width="3000" height="3000" viewBox="0 0 3000 3000">
  <defs>
    <style>
      .cls-1 {
        fill-rule: evenodd;
      }
    </style>
  </defs>
  <path id="_136" data-name="136" class="cls-1" d="M337.637,15.407c1509.913,0,2332.123-3.855,2352.063,11.566,37.82,29.256,20.24,558.6,20.23,660.724,1.26,1460.573,8.38,2253.173-17.34,2275.663-44.42,38.85-1647.04,15.9-1860.544,15.91-96.808,0-503.408,18.79-532-26.03-11.565-18.13-8.674-380.42-8.674-1603.37C291.375,1153.07,262.71,46.653,337.637,15.407Zm63.608,109.879v2744.1H2601.51q-0.72-1371.915-1.44-2744.1H401.245Zm146.01,128.675L2475.74,261.19c10.07,7.559,28.66,424.861,13.01,469.881-12.15,34.963-508.76,24.313-1953.061,18.795C501.279,727.012,511.909,271.025,547.255,253.961ZM550.146,1013l961.354,1.44c14.73,3.78,30.08,16.18,26.02,37.6q-9.39,11.565-18.79,23.13-487.14,1.44-974.367,2.89C508.462,1065.07,523.835,1024.55,550.146,1013Zm1259.154,1.44c445.18,3.89,626.76.89,645.92,4.12,14.54,7.16,24.73,12.1,28.53,31.33,0.21,41.22,5.67,605.45,3.56,699.01q-7.95,22.41-15.91,44.82c-72.4,1.42-516.8,3.44-643.42,2.61-25.86,1.39-43.44-10.63-44.15-28.66-0.88-11.48-2-478.67-3.44-725.76ZM550.146,1374.45q484.241,2.16,968.584,4.33c13.96,5.03,22.36,25.28,18.79,33.26s-4.15,13.99-23.74,24.99c-42.69,0-937.418,1.65-972.308,1.03C520.289,1433.08,525.248,1385.08,550.146,1374.45Zm0,364.33q484.964,2.175,970.024,4.34a31.917,31.917,0,0,1,15.9,27.47c1.05,16.38-8.89,28.47-28.99,32.14-7.95-.18-638-1.52-965.608-0.33C508.358,1787.49,526.377,1749.78,550.146,1738.78ZM548.7,2094.45c3.712-.93,626.75,2.6,642.62,4.29s28.09,19.95,29.78,37.17,1.99,458.82-2.07,572.76c-3.66,12.52-7.18,18.71-22.07,22-25.59,3.03-639.529,2.92-649.938,2.65-9.98-.79-23.679-16.68-24.074-30.11-0.623-7.26.149-566.02,0.476-578.12C522.213,2109.63,538.071,2095.29,548.7,2094.45Zm957.01,0q479.91,1.44,959.91,2.89c12.63,4.62,20.81,13.75,20.7,33.47-5.78,20.3-4.46,21.53-24.36,26.25-12.3,1.25-900.92,24.23-962.03,2.45C1464.25,2146.79,1480.28,2106.05,1505.71,2094.45Zm2.9,575.42q478.455,0.72,957.01,1.45c13.62,4.1,27.92,16.19,24.58,36.14-4.66,27.75-30.57,27.47-63.61,27.47q-461.115-.72-922.32-1.45C1467.75,2720.46,1482.04,2682.4,1508.61,2669.87Z"/>
</svg>
