<svg id="V1" xmlns="http://www.w3.org/2000/svg" width="3000" height="3000" viewBox="0 0 3000 3000">
  <defs>
    <style>
      .cls-1 {
        fill-rule: evenodd;
      }
    </style>
  </defs>
  <g id="symbol">
    <path id="_67" data-name="67" class="cls-1" d="M1609.92,2555.39q-111.075,1.035-222.16,2.08-22.425-970.125-44.86-1940.433-2.085-112.6-4.17-225.219-1.56-56.3-3.13-112.61-1.035-58.907-2.08-117.824c15.2-90.111,66.16-135.439,157.5-150.146,39.88-6.422,76.08,13.171,98.04,27.11,53,33.635,88.78,96.228,75.1,188.726q-1.035,43.788-2.08,87.585-1.575,67.767-3.13,135.549-1.05,64.639-2.09,129.293Q1633.4,1567.34,1609.92,2555.39Zm-238.85,140.76h191.92c21.22,0,60.36-5.38,74.05,4.17,12.99,9.06,8.33,43.17,8.35,64.65v161.61c0,19.36,3.89,49.76-7.3,58.39-11.74,9.05-42.76,5.22-62.59,5.22H1418c-23.53,0-56.91,4.63-64.67-11.47-7.16-14.88-2.08-47.65-2.08-66.74q1.035-101.13,2.08-202.28C1356.62,2701.86,1363.79,2700.17,1371.07,2696.15Z"/>
  </g>
</svg>
