<svg id="V1" xmlns="http://www.w3.org/2000/svg" width="3000" height="3000" viewBox="0 0 3000 3000">
  <defs>
    <style>
      .cls-1 {
        fill-rule: evenodd;
      }
    </style>
  </defs>
  <path id="_32" data-name="32" class="cls-1" d="M1225.08,12.127c207.86-3.232,376.26,51.236,515.53,118.732C2013.43,263.08,2201.86,476.707,2315,769.172c65.68,169.792,96.37,433.308,43.64,640.348-39.3,154.31-94.24,289.45-174.55,402.87q-45.165,57.33-90.32,114.68-21.825,22.83-43.64,45.66v2.03q350.58,360.735,701.24,721.53,45.675,47.685,91.34,95.39c19.95,22.51,48.9,41.17,62.92,69.01,18.68,37.09,3.68,86.8-21.31,106.55-25.87,20.45-72.06,28.09-104.53,8.12-24.05-14.78-47.38-43.18-64.95-64.95q-52.77-54.285-105.54-108.58-347.04-356.67-694.14-713.41c-66.36,44.13-135.15,90.06-212.1,123.81-57.1,25.04-119.91,43.66-182.67,62.91-207.56,63.69-487.94,31.66-666.738-31.45C551.5,2137.03,312.8,1916.13,187.926,1632.77c-18.384-41.71-30.917-84.27-46.682-129.89C94.111,1366.47,67,1153.04,101.666,980.252c16.906-84.265,34.947-163.541,63.934-236.45C297.15,412.923,537.283,202.939,870.9,73.015c70.153-27.32,146.666-36.633,230.366-51.755ZM1203.77,188.7l-101.49,9.133c-62.47,11.763-118.605,21.544-172.517,40.593C638.165,341.458,433.636,540.7,322.9,824.987c-21.229,54.5-34.2,113.913-46.682,175.563-28.641,141.43-9.1,317.52,27.4,433.32C390.579,1709.8,565,1924.12,814.073,2036.67c66.337,29.97,138.691,58.15,218.187,77.12,27.09,6.47,52.78,7.01,82.2,12.18,29.38,5.15,98.35,14.37,130.91,9.13q31.47-1.515,62.92-3.04c56.14-9.47,113.43-10.03,163.39-25.37q67.98-22.335,135.99-44.65c245.18-100.8,426.37-287.75,529.74-530.75,95.63-224.82,89.96-518.4-2.03-740.807C1996.96,455.849,1678.93,188.33,1203.77,188.7Z"/>
</svg>
