<svg id="V1" xmlns="http://www.w3.org/2000/svg" width="3000" height="3000" viewBox="0 0 3000 3000">
  <defs>
    <style>
      .cls-1 {
        fill-rule: evenodd;
      }
    </style>
  </defs>
  <path id="_15" data-name="15" class="cls-1" d="M16.057,1466.64V1201.93c0-27.61-6.688-79.37,10.223-90.96,16.207-11.1,103.781-4.09,131.88-4.08H509.844q652.693-1.02,1305.516-2.05,0.51-222.265,1.02-444.58c0-33.067-7.16-136.479,10.23-148.194,22.86-15.4,60.59,31.826,74.63,42.925q102.225,87.887,204.46,175.789,441.615,379.134,883.3,758.34c-210.84.07-421.05,7.14-629.76-2.04q-178.38-2.04-356.79-4.09-282.645-2.04-565.35-4.09-382.83-2.55-765.728-5.11Q343.748,1470.22,16.057,1466.64ZM1818.43,1901l-1294.274,1.02H146.916c-28.686.01-116.447,6.1-127.792-8.17-13.159-16.55-4.091-67.64-4.089-93.01V1547.38q1057.5-9.2,2115.205-18.4,303.6-2.55,607.27-5.11h247.4Q2545.86,1897.9,2106.73,2272q-101.715,86.865-203.45,173.74c-12.9,11.31-54,58.06-76.67,41.91-16.02-11.42-9.21-115.56-9.2-147.18Q1817.92,2120.765,1818.43,1901Z"/>
</svg>
