<svg id="V1" xmlns="http://www.w3.org/2000/svg" width="3000" height="3000" viewBox="0 0 3000 3000">
  <defs>
    <style>
      .cls-1 {
        fill-rule: evenodd;
      }
    </style>
  </defs>
  <path id="_15" data-name="15" class="cls-1" d="M300.053,2586.46S155.125,2446.61,90.277,2377.38C66,2353.11,14.613,2313.48,19.3,2288.43c4.488-24.01,87.645-94.83,112.351-119.53q154.578-154.56,309.188-309.16Q1013.763,1285.06,1586.81,710.274q-194.97-195.843-389.97-391.727c-29.07-29.065-126.29-113.676-121.3-139.263,6.56-33.636,81.25-25.285,103.35-27.872L1513.2,126.2C1990.74,89.669,2933.51,18.008,2933.51,18.008ZM2289.46,1407.47q-568.44,569.295-1136.98,1138.69-165.81,165.8-331.661,331.63c-25.218,25.22-97.018,107.72-119.538,105.15-26.121-2.98-63.062-55.86-85.362-78.17-76.781-67.49-202.751-202.38-202.751-202.38L2980.99,68.995s-81.85,955.655-111.9,1411.175q-13.05,165.78-26.11,331.59c-1.41,21.28,3.56,98.51-30.57,104.24-24.12,4.04-109.68-93.49-137.48-121.29Z"/>
</svg>
