<svg id="V1" xmlns="http://www.w3.org/2000/svg" width="3000" height="3000" viewBox="0 0 3000 3000">
  <defs>
    <style>
      .cls-1 {
        fill-rule: evenodd;
      }
    </style>
  </defs>
  <path id="_15" data-name="15" class="cls-1" d="M414.538,301.053S554.387,156.125,623.62,91.277C647.891,67,687.519,15.613,712.57,20.3,736.577,24.783,807.4,107.941,832.1,132.647Q986.664,287.225,1141.26,441.835q574.68,572.928,1149.47,1145.975,195.84-194.97,391.72-389.97c29.07-29.07,113.68-126.29,139.27-121.3,33.63,6.56,25.28,81.25,27.87,103.35q12.6,167.145,25.21,334.31c36.53,477.54,108.19,1420.31,108.19,1420.31ZM1593.53,2290.46Q1024.235,1722.02,454.843,1153.48q-165.8-165.81-331.629-331.661C97.994,796.6,15.489,724.8,18.061,702.281c2.983-26.121,55.863-63.062,78.165-85.362,67.494-76.781,202.381-202.751,202.381-202.751L2932.01,2981.99s-955.66-81.85-1411.18-111.9q-165.78-13.05-331.59-26.11c-21.28-1.41-98.51,3.56-104.24-30.57-4.04-24.12,93.49-109.68,121.29-137.48Z"/>
</svg>
