<svg id="V1" xmlns="http://www.w3.org/2000/svg" width="3000" height="3000" viewBox="0 0 3000 3000">
  <defs>
    <style>
      .cls-1 {
        fill-rule: evenodd;
      }
    </style>
  </defs>
  <g id="show">
    <path id="_60" data-name="60" class="cls-1" d="M2375.54,10.759h438.18c54.03,0,133.54-10.689,157.67,20.473,23.77,30.707,13.31,137.993,13.31,192.446V2299.63q-0.51,228.765-1.03,457.57v138.19c0,18.7,2.63,43.35-3.07,57.33-20.19,49.49-101.44,36.85-169.95,36.85H203.05c-52.132,0-137.271,10.8-167.9-13.31C5.519,2952.94,15.693,2875.47,15.7,2823.74V185.8c0-67.69-12.444-146.184,35.833-166.854,25.22-10.8,120.677-5.12,156.641-5.118H563.425ZM128.313,127.455V2876.97H2871.06q0.51-694.485,1.02-1389.09H1502.24q-0.51-681.165-1.02-1362.472ZM1207.39,1499.14c21.46,0.82,51.14,40.9,64.5,54.25q79.86,79.86,159.71,159.69c13.67,13.73,58.55,46.37,59.38,67.56-9.83,18.58-30.15,28.46-43,44.02-34.67,41.98-78.28,77.25-116.71,115.67q-232.38,229.785-464.8,459.62,6.143,6.135,12.285,12.28,71.659,74.2,143.327,148.43c12.46,15.43,43.04,29.41,45.05,53.23-1.36,2.39-2.73,4.78-4.09,7.17-40.17,11.05-89.9,3.31-134.121,10.23q-172.491,11.265-345.018,22.52-86.5,5.64-173.021,11.26c-27.7,4.3-68.426,10.08-96.237,5.12q-3.07-3.585-6.143-7.16c-3.61-13.61.9-36.35,3.072-50.16q5.118-62.445,10.238-124.89,16.378-199.59,32.761-399.22,5.118-62.43,10.238-124.88c2.843-18.11-2.723-42.19,11.262-49.14,15.023-3.21,46.273,37.05,56.308,47.09q76.266,77.79,152.546,155.59,239.031-237.975,478.115-475.99,46.575-46.065,93.16-92.13C1173.08,1532.22,1187.65,1513.4,1207.39,1499.14Z"/>
  </g>
</svg>
