<svg id="V1" xmlns="http://www.w3.org/2000/svg" width="3000" height="3000" viewBox="0 0 3000 3000">
  <defs>
    <style>
      .cls-1 {
        fill-rule: evenodd;
      }
    </style>
  </defs>
  <g id="show">
    <path id="_61" data-name="61" class="cls-1" d="M2375.54,10.759h438.18c54.03,0,133.54-10.689,157.67,20.473,23.77,30.707,13.31,137.993,13.31,192.446V2299.63q-0.51,228.765-1.03,457.57v138.19c0,18.7,2.63,43.35-3.07,57.33-20.19,49.49-101.44,36.85-169.95,36.85H203.05c-52.132,0-137.271,10.8-167.9-13.31C5.519,2952.94,15.693,2875.47,15.7,2823.74V185.8c0-67.69-12.444-146.184,35.833-166.854,25.22-10.8,120.677-5.12,156.641-5.118H563.425ZM128.313,1493V2876.97H2871.06q0.51-691.92,1.02-1383.97H128.313ZM1653.76,2216.72l144.36,2.04c25.24,3.78,55.59-3.31,77.81,2.05,2.81,4.09,4.48,5.46,5.12,12.28-8.75,17.1-25.29,28.59-36.86,43q-29.685,33.78-59.38,67.56-94.695,107.985-189.4,215.99-35.835,40.935-71.67,81.89c-5.64,7.06-15.99,25.84-26.62,26.61-11.89.87-21.16-18.64-26.61-25.59q-33.795-39.915-67.57-79.84-100.845-118.74-201.69-237.49c-22.64-28.83-68.12-67.16-82.93-99.29q2.055-5.115,4.1-10.24c21.86-5.25,62.35-4.56,85.99-1.02l136.17,1.02V1717.18c0-35.89-5.67-165.58,7.17-182.21q109.02-.51,218.06-1.03c25.42,0,69.15-5.93,87.03,4.1,4.59,19.19,1.94,49.71,1.02,70.63q-0.51,69.6-1.02,139.22Q1655.3,1982.28,1653.76,2216.72Z"/>
  </g>
</svg>
