<svg id="V1" xmlns="http://www.w3.org/2000/svg" width="3000" height="3000" viewBox="0 0 3000 3000">
  <defs>
    <style>
      .cls-1 {
        fill-rule: evenodd;
      }
    </style>
  </defs>
  <g id="enter">
    <path id="_40" data-name="40" class="cls-1" d="M2722,31l32,2c32.81,11.967,43.9,65.254,13,88-18.68,13.752-53.74,12.214-80,18-63.44,13.977-181.43,35.172-193,97-14.89,79.527-4.82,167.454-18,251q-1.5,37-3,74-1.995,59.994-4,120-1.995,78.492-4,157-1.995,111.988-4,224-1.005,145.98-2,292v507q1.995,188.985,4,378,1.005,43.5,2,87,1.005,35.49,2,71c12.37,79.66-.3,165.66,12,243,5.88,36.98-.12,98.03,13,127,18.25,40.28,152.72,77.37,207,91,23.11,5.81,55.77,5.17,74,17,36.62,23.77,24.15,84.23-18,93-16.67,3.47-34.68-2.99-47-6-40.58-9.92-78.87-16.31-115-29-74.38-26.14-153.5-53.47-190-117-25.84-44.97-15.5-117.23-25-178q-5.505-114.99-11-230-1.005-35.49-2-71-1.005-42.99-2-86-0.495-54.99-1-110-1.5-114.99-3-230-0.495-206.475-1-413,1.5-184.98,3-370,1.005-70.995,2-142,3-140.485,6-281,1.005-50,2-100,1.5-41.5,3-83,6.495-109.989,13-220c7.64-47.345,1.29-102.373,22-137,39.83-66.586,132.28-93.378,216-116ZM931,1180h836q96.495-.495,193-1c26.24,0,59.68-5.31,65,16q-0.495,180.975-1,362c0,27.46,6.06,103.99-9,114-11.04,7.34-61.48,3-80,3H1724q-394.965.495-790,1-0.5,133.485-1,267c0,23.81,7.324,80.11-7,91-18.52,14.08-38.725-10.83-49-19q-60.493-51.99-121-104-203.979-175.98-408-352-54-46.5-108-93c-10.741-8.58-30.5-18.98-34-34-4.566-19.59,39.91-48.19,51-57q80.993-69,162-138,188.98-160.98,378-322l88-75c8.457-6.691,22.043-24.462,39-13,15.13,10.228,8,64.742,8,89Q931.5,1047.48,931,1180Z"/>
  </g>
</svg>
