<svg id="V1" xmlns="http://www.w3.org/2000/svg" width="3000" height="3000" viewBox="0 0 3000 3000">
  <defs>
    <style>
      .cls-1 {
        fill-rule: evenodd;
      }
    </style>
  </defs>
  <g id="enter">
    <path id="_39" data-name="39" class="cls-1" d="M2722,31l32,2c32.81,11.967,43.9,65.254,13,88-18.68,13.752-53.74,12.214-80,18-63.44,13.977-181.43,35.172-193,97-14.89,79.527-4.82,167.454-18,251q-1.5,37-3,74-1.995,59.994-4,120-1.995,78.492-4,157-1.995,111.988-4,224-1.005,145.98-2,292v507q1.995,188.985,4,378,1.005,43.5,2,87,1.005,35.49,2,71c12.37,79.66-.3,165.66,12,243,5.88,36.98-.12,98.03,13,127,18.25,40.28,152.72,77.37,207,91,23.11,5.81,55.77,5.17,74,17,36.62,23.77,24.15,84.23-18,93-16.67,3.47-34.68-2.99-47-6-40.58-9.92-78.87-16.31-115-29-74.38-26.14-153.5-53.47-190-117-25.84-44.97-15.5-117.23-25-178q-5.505-114.99-11-230-1.005-35.49-2-71-1.005-42.99-2-86-0.495-54.99-1-110-1.5-114.99-3-230-0.495-206.475-1-413,1.5-184.98,3-370,1.005-70.995,2-142,3-140.485,6-281,1.005-50,2-100,1.5-41.5,3-83,6.495-109.989,13-220c7.64-47.345,1.29-102.373,22-137,39.83-66.586,132.28-93.378,216-116ZM1299,1678H463q-96.49.495-193,1c-26.181,0-59.694,5.26-65-16q0.5-180.975,1-362c0-27.46-6.056-103.99,9-114,11.04-7.34,61.479-3,80-3H506q394.961-.495,790-1,0.495-133.98,1-268c0-23.667-7.23-79.185,7-90,18.52-14.076,38.72,10.831,49,19l121,104q203.985,175.98,408,352,49.995,42.99,100,86c12.37,9.84,38.05,24.02,42,41,4.55,19.53-39.93,48.2-51,57q-80.985,69-162,138-188.985,160.98-378,322-43.995,37.5-88,75c-8.44,6.71-22.06,24.45-39,13-15.13-10.23-8-64.74-8-89Q1298.495,1810.52,1299,1678Z"/>
  </g>
</svg>
