<?xml version="1.0" encoding="utf-8"?>
<!-- Generator: Adobe Illustrator 24.2.3, SVG Export Plug-In . SVG Version: 6.00 Build 0)  -->
<svg version="1.1" id="f" xmlns="http://www.w3.org/2000/svg" xmlns:xlink="http://www.w3.org/1999/xlink" x="0px" y="0px"
	 viewBox="0 0 3000 3000" style="enable-background:new 0 0 3000 3000;" xml:space="preserve">
<g id="v">
	<path id="b" d="M1382.7,1476.6h234.6c47.4,0,86-38.6,86-86V99.7c0-47.4-38.6-86-86-86h-234.6c-47.4,0-86,38.6-86,86v1290.8
		C1296.7,1438,1335.3,1476.6,1382.7,1476.6z"/>
	<path id="v_1_" d="M1774.3,537.9V905c354.8,115.6,611.7,448,611.7,841.4c0,489.3-396.7,886-886,886c-489.3,0-886-396.7-886-886
		c0-393.4,256.9-725.8,611.7-841.4V537.9c-552.6,125-965.5,618.2-965.5,1208.6c0,684.8,555.1,1239.9,1239.9,1239.9
		c684.8,0,1239.9-555.1,1239.9-1239.9C2739.9,1156,2326.9,662.8,1774.3,537.9z"/>
</g>
</svg>
