<svg id="V3" xmlns="http://www.w3.org/2000/svg" width="3000" height="3000" viewBox="0 0 3000 3000">
  <defs>
    <style>
      .cls-1 {
        fill-rule: evenodd;
      }
    </style>
  </defs>
  <path id="_134" data-name="134" class="cls-1" d="M651.673,523.452c83.079-1.052,171.856,3.793,248.585,17.172l141.472,16.162c96.31,17.918,187.39,33.207,270.82,59.6,52.29,16.542,111.23,28.426,157.63,53.536q3.045,825.678,6.07,1651.522h-1.01q-51.03-17.67-102.06-35.35-97.515-30.3-195.03-60.61c-145.28-43.72-301.655-64.45-458.773-95.96-74.315-14.9-152.16-14.4-230.4-27.27q-54.057-3.54-108.124-7.07-89.421-4.035-178.86-8.08v-1.01q139.941-777.705,279.91-1555.567ZM2799,2088.11q-88.9,4.035-177.85,8.08-83.355,5.55-166.73,11.11c-114.24,18.71-225.46,28.47-331.45,51.52-98.55,21.43-195.04,36.09-287.99,63.63q-100.035,30.3-200.08,60.61-54.57,19.185-109.14,38.38l-1.01-1.01q2.535-584.28,5.05-1168.69,0.51-170.7,1.02-341.417,0.5-50,1.01-100c-0.01-12.939-2.45-33.021,2.02-42.425q44.955-15.654,89.93-31.313c60.56-21.092,123-38.446,187.96-54.546,100.21-24.839,210.43-27.234,318.31-45.455l103.07-8.08c34.13-5.332,83.9-9.268,117.22-4.041l81.85,2.02,88.92,5.051Q2660.04,1309.744,2799,2088.11ZM1494.44,2477c-23.78.41-45.22-6.58-65.69-11.11q-54.045-10.095-108.12-20.2-164.7-30.81-329.426-61.62-490.048-91.41-980.193-182.83c-0.337-.67-0.674-1.35-1.011-2.02q116.2-578.235,232.417-1156.57,30.817-154.031,61.641-308.085c4.659-19.951,15.391-104.181,24.252-113.133l86.9,14.142Q313.163,1201.683,211.091,1767.9q-24.249,135.345-48.5,270.71c-4.795,21.67-19.324,78.22-2.021,90.91,20.049,14.72,94.6,3.12,126.313,8.08q41.933,2.025,83.873,4.04,113.164,9.09,226.353,18.19c80.515,14.2,160.737,20.26,238.48,37.37,103.921,22.87,209.235,38.24,308.2,67.68,54.3,16.15,109.23,32.94,161.68,49.49q60.12,20.205,120.25,40.41,34.35,12.12,68.72,24.24V2477Zm13.13,0c-0.23-23.91-5.95-82.46,2.02-100q53.565-18.69,107.12-37.37,113.16-35.355,226.35-70.71c149.78-44.84,310.51-64.77,472.92-96.97q67.7-8.6,135.41-17.17,109.62-7.575,219.28-15.16l69.72-3.03c31.4-5,90.71,8.94,106.11-12.12,10.24-14-4.95-79-9.1-97.98q-24.24-134.835-48.5-269.7-101.04-560.55-202.1-1121.216c0.67-.337,1.34-0.673,2.02-1.01,16.94-3.332,76.34-15.984,87.91-11.111Q2833.855,1412.269,2991,2201.24h-2.02q-264.735,49.485-529.51,98.99-310.695,58.08-621.46,116.16l-216.25,40.41C1585.9,2464.65,1547.11,2476.71,1507.57,2477ZM554.664,632.544c-5.345,3.429-8.726,4.562-11.116,11.111-9.653,25.871,22.753,23.927,40.421,27.273L735.545,693.15l495.145,73.738c30.47,5.789,154.57,27.371,171.79,16.162,1.66-5.232,3-8.306,3.03-16.162-9.19-17.734-30.07-13.768-52.54-18.182q-78.825-11.615-157.64-23.232L789.1,665.877l-137.429-20.2C620.938,639.665,588.861,632.793,554.664,632.544Zm1877.526,0-618.43,91.919-151.58,22.223c-21.76,4.153-47.29,2.9-62.65,13.131-1.66,5.232-3,8.306-3.03,16.162l6.06,10.1c19.24,5.936,45.82-1.233,65.68-5.051l130.36-19.192,460.79-67.677,144.5-21.212c19.8-3.779,48.05-.069,54.57-17.172,4.58-9.459-1.96-18.623-8.08-21.212C2446.32,632.227,2439,632.322,2432.19,632.544ZM517.275,880.02c-9.547,5.627-15.658,10.615-12.126,26.263,19.8,19.8,145.186,27.457,184.923,35.354q248.055,38.885,496.158,77.773,75.285,11.625,150.57,23.24c13.53,2.69,44.44,10.91,54.57,3.03,5.92-2.97,6.74-5.36,8.08-13.13,3.36-19.47-20.21-19.98-36.38-23.24q-94.98-14.135-189.97-28.279c-131.21-27.107-266.5-35.359-399.156-61.617Zm1958.365,0q-326.355,51.006-652.79,102.021-75.27,11.614-150.56,23.229c-23.84,4.69-51.38,3.42-67.71,15.15-4.28,13.48-.91,18.98,7.08,27.28,24.09,2.53,50.44-4.67,72.75-9.09q75.285-11.625,150.57-23.24,225.315-34.839,450.69-69.693l157.63-24.243c18.9-3.8,47.26-.666,53.56-17.171,4.02-8.754-1.67-16.615-5.05-21.213C2486.53,881.448,2483.3,880.1,2475.64,880.02ZM474.834,1128.51l-9.1,6.06c-3.872,11.52-2.21,17.96,4.042,26.26l701.289,115.15q84.375,13.635,168.76,27.28c18.9,3.8,44.89,10.33,51.54-7.08,10.01-27.14-27.26-24.69-45.48-28.28q-84.36-13.635-168.75-27.27-215.73-34.845-431.49-69.7-81.337-13.125-162.692-26.26C548.489,1137.88,513.075,1128.86,474.834,1128.51Zm2037.186,0q-340.515,55.545-681.08,111.11-81.345,13.125-162.7,26.26c-19.73,4.07-50.98.91-57.59,18.18-13.12,30.75,34.35,22.68,51.53,19.2L1837,1274.97q250.08-40.9,500.2-81.82,71.745-11.61,143.49-23.23c20.22-4.19,41.72-3.29,55.58-13.13,3.57-10.58,2.66-17.17-3.03-25.25C2527.38,1129.45,2521.27,1128.37,2512.02,1128.51ZM438.456,1375.98c-6.968,3.62-11.357,4.19-14.148,12.12-10.532,28.14,32.047,25.47,50.526,29.3q83.864,14.13,167.744,28.28,273.821,46.455,547.692,92.93,69.225,11.61,138.44,23.23c19.98,4.12,40.73,8.62,54.57-1.01,9.53-34.84-26.54-29.56-54.57-35.35q-81.33-13.635-162.69-27.27Zm2120.044,0-704.32,119.2q-81.345,13.635-162.69,27.27c-24.56,5.09-55.12,4.14-72.76,16.16-3.76,11.49-2.16,17.96,4.04,26.26,19.63,5.92,48.18-2.78,68.72-7.07q72.24-12.12,144.5-24.24l523.44-87.88q80.835-13.635,161.68-27.27c19.37-4.04,50.12-1.2,56.59-18.18C2584.57,1385.69,2570.63,1376.15,2558.5,1375.98ZM397.025,1624.47c-5.768,3.55-9.378,4.39-12.126,11.11-2.965,9.56,1.131,15.83,5.052,21.21,66.351,18.39,139.707,22.21,209.175,37.38q261.191,45.945,522.434,91.92,93.465,16.155,186.94,32.32c21.77,4.87,53.21,13.11,69.73,3.03,1.71-5.39,3.04-8.99,3.03-17.17-9.87-18.36-38.56-15.2-61.64-20.2q-89.925-15.66-179.87-31.32Q768.423,1688.625,397.025,1624.47Zm2197.855,0q-366.27,64.14-732.62,128.28-89.925,15.66-179.87,31.32c-19.99,4.3-54.04,1.48-60.63,19.19-3.59,7.8,1.12,15.7,4.04,20.2,19.03,7.07,47.05-1.55,67.71-6.06q72.75-12.63,145.51-25.25,276.345-47.985,552.75-95.96,84.36-14.655,168.75-29.3c19.15-4.23,49.6-1.7,56.59-18.18,2.97-9.56-1.13-15.83-5.05-21.21C2606.6,1625.84,2602.91,1624.5,2594.88,1624.47ZM358.625,1872.96c-12.88,7.44-17.121,18.67-7.073,32.32q389.007,70.7,778.088,141.41,92.97,16.665,185.94,33.34c19.92,4.25,51.91,13.98,59.62-5.05,10.5-28.73-34.69-26.25-53.56-30.31q-87.405-15.645-174.82-31.31-248.052-44.445-496.158-88.89-92.956-16.665-185.933-33.33C431.25,1883.94,395.26,1873.76,358.625,1872.96Zm2274.655,0-755.86,136.36q-92.955,16.665-185.93,33.33c-20.46,4.44-57.8,2.18-64.68,20.21-12.85,29.99,31.96,22.85,48.51,19.19q92.955-16.665,185.93-33.34,298.575-54.03,597.21-108.08,73.26-13.125,146.53-26.26c18.24-3.99,43.89-1.5,50.52-17.17C2660.94,1880.44,2649.49,1872.07,2633.28,1872.96Z"/>
</svg>
