<svg id="end" xmlns="http://www.w3.org/2000/svg" width="3000" height="3000" viewBox="0 0 3000 3000">
  <defs>
    <style>
      .cls-1 {
        fill-rule: evenodd;
      }
    </style>
  </defs>
  <path id="_188" data-name="188" class="cls-1" d="M38.427,783.748H915.6c58.963,0,284.267-15,314.247,8.327,22.91,17.834,12.48,225.505,12.48,276.845v833.67c0,55.23,10.87,289.08-13.52,307.03-27.56,20.26-206,7.28-257.018,7.28q-340.223.525-680.514,1.04c-54.164,0-257.149,11.27-275.743-14.57-19.223-26.71-6.245-114.88-6.243-155.07V812.89C12.648,795.364,23.684,790.179,38.427,783.748Zm1751.233,0h877.17c58.96,0,284.27-15,314.24,8.327,22.92,17.834,12.49,225.505,12.49,276.845v833.67c0,55.23,10.87,289.08-13.53,307.03-27.55,20.26-206,7.28-257.01,7.28q-340.215.525-680.51,1.04c-54.17,0-257.15,11.27-275.75-14.57-19.22-26.71-6.24-114.88-6.24-155.07V812.89C1763.88,795.364,1774.91,790.179,1789.66,783.748Zm39.54,68.692V2149.25q547.785-.525,1095.69-1.04V852.44H1829.2Zm-271.58,639.04q-133.695-1.05-267.42-2.08,0.51-60.36,1.04-120.73h266.38q0.51-43.2,1.04-86.39c1.04-.35,2.08-0.69,3.12-1.04q87.39,72.855,174.81,145.71c-5.29,20.11-148.63,138.83-172.73,152.99q-3.12-1.035-6.24-2.08v-86.38Zm-132.15,143.63h266.38v121.77q-133.185.51-266.38,1.04-0.525,43.71-1.04,87.42-3.645.525-7.29,1.04-85.305-74.4-170.65-148.83c0.35-1.73.7-3.47,1.04-5.2q87.93-72.33,175.86-144.67c0.69,0.69,1.38,1.39,2.08,2.08v85.35Z"/>
</svg>
