<svg id="end" xmlns="http://www.w3.org/2000/svg" width="3000" height="3000" viewBox="0 0 3000 3000">
  <defs>
    <style>
      .cls-1 {
        fill-rule: evenodd;
      }
    </style>
  </defs>
  <path id="_190" data-name="190" class="cls-1" d="M43.624,491.608c23.049,1.138,1477.046,0,2215.456,0,71.99,0,571.54,1.484,607.44.78,73.22,3.166,106.63-6.391,119.5,22.792,15.28,28.625,3.73,221.586,4.57,250.082,0.85,28.818,2.79,461.7,2.24,507.488-7.37,14.87-21.67,31.65-62.58,29.97-79.12-.7-245.17-4.09-602.7,1.02-62.32-3.72-1131.69,0-1697.444,0-82.984,0-511.481.39-551.6,0-57.705.83-70.964-28.7-72.507-59.33,2.7-38.5.735-700.438,0.166-716.65C7.869,512.118,25.7,493.315,43.624,491.608ZM43.215,1704.89c10.849-.41,1477.455-2.18,2215.865-2.18,78.68-.01,646.04,2.43,656.14,1.31s55.11-1.52,68.57,14.18,9.31,84.21,9.31,84.21c-0.38.59-.18,628.18-0.18,628.18s4.62,36.81-8.54,64.92c-19.15,26.02-119.93,18.2-119.93,18.2s-458.36,1.13-536.9,1.13H630.106c-80.927.46-557.695-.3-572.016-0.58-38.382,1.14-48.22-25.33-50.813-51.96C7.549,2438.53,7.5,1755.98,7.7,1739,7.7,1723.04,29.3,1706.33,43.215,1704.89Z"/>
</svg>
