<svg id="V1" xmlns="http://www.w3.org/2000/svg" width="3000" height="3000" viewBox="0 0 3000 3000">
  <defs>
    <style>
      .cls-1 {
        fill-rule: evenodd;
      }
    </style>
  </defs>
  <path id="_28" data-name="28" class="cls-1" d="M53.588,588l2319.292,2.011c21.57,5.713,35.28,27.229,49.28,41.229q50.3,50.274,100.58,100.558,164.925,164.4,329.89,328.822,45.765,45.75,91.52,91.51c13.17,13.16,32.68,26.1,39.23,45.25,9.06,26.51,2.01,105.6,2.01,139.78v847.7c0,43.24,7.75,183.56-5.03,204.14-5.14,8.27-16.07,16.92-26.15,20.11-15.8,5-41.17,2.01-60.34,2.01H2750.04q-340.41-.51-680.9-1.01H652.018c-11.155.28-21.406,3.65-32.185,0-26.414-8.93-81.757-75.7-103.594-97.54q-120.177-120.15-240.377-240.33Q173.284,1969.685,70.686,1867.1c-23.517-23.51-66.556-46.61-56.323-93.52q0.5-442.92,1.006-885.917V695.6c0-27.234-9.123-57.133-1.006-77.43C21.863,599.416,35.369,596.48,53.588,588Zm56.323,96.536q-0.5,542.961-1.006,1086.024,272.535,271.485,545.124,543.02,1117.292,0.495,2234.811,1v-1082Q2614.3,959.085,2339.69,685.541ZM631.9,1164.2q241.863,0.495,483.778,1c58.06,0,156.66-12.41,143.82,55.31-10.3,54.3-82.74,41.23-145.84,41.23q-170.958-.51-341.956-1.01c-35.8.01-126.1,7.28-151.871-3.01-24.4-9.75-40.983-47.5-21.121-74.42C607,1172.07,618.18,1170.5,631.9,1164.2Zm1149.588,0h483.77c58.32-.01,155.94-13.43,142.82,55.31-10.3,53.97-81.02,41.23-143.82,41.22H1914.25c-35.22.01-123.85,6.74-147.85-4.02-29.88-13.4-35.73-63.16-8.04-83.46Q1769.925,1168.72,1781.49,1164.2ZM630.9,1739.39q241.359,0.51,482.763,1.01c58.79-.01,158.26-15.15,144.83,55.3-10.29,54.03-81.94,41.24-144.83,41.23q-173.472-.5-346.985-1c-35.621,0-125.576,6.83-149.859-4.03-26.127-11.68-36.115-52.74-15.087-77.42C608.963,1745.98,619.96,1744.51,630.9,1739.39Zm1153.613,0h482.77c57.96,0,156.38-13.46,143.82,54.3-10.2,55.03-80.18,42.24-143.82,42.24H1921.29c-35.41,0-124.37,7.17-149.86-3.02-30.58-12.23-40.88-61.43-12.07-83.46C1766.56,1743.94,1775.27,1743.38,1784.51,1739.39Z"/>
</svg>
