<svg id="V1" xmlns="http://www.w3.org/2000/svg" width="3000" height="3000" viewBox="0 0 3000 3000">
  <defs>
    <style>
      .cls-1 {
        fill-rule: evenodd;
      }
    </style>
  </defs>
  <path id="_30" data-name="30" class="cls-1" d="M533.394,492.72H2415.28c18.06,0,41.24-2.614,56.08,2,33,10.263,41.48,52.4,56.09,81.157,35.04,68.954,71.19,136.374,115.18,196.38,50.81,69.327,130.91,115.826,210.32,156.3,27.97,14.259,112.01,43.819,126.19,65.126,14.91,22.4,8.02,77.89,8.01,113.22v725.4c0,40.17,7.2,152.4-7.01,175.34-11.3,18.26-37.29,24.16-56.08,35.07q-58.59,34.065-117.18,68.13c-97.15,61.16-166.41,139.2-227.35,236.46q-33.045,56.1-66.1,112.22c-12.12,20.73-15.15,41.08-41.07,48.09q-708.51.51-1417.17,1H573.455c-16.864,0-37.514,1.99-50.076-3-23.371-9.28-31.458-37.01-42.065-59.12q-34.049-61.605-68.1-123.23c-55.777-89.5-115.357-158.99-206.316-213.42q-61.087-32.55-122.187-65.12c-21.733-9.59-52.1-17.67-64.1-37.08-15.54-25.13-7.013-88.84-7.011-126.24V1156c0-40.75-8.841-137.33,6.009-161.308,13.1-21.151,86.072-53.523,111.17-69.134,75.263-46.813,160.774-97.512,214.329-166.322,43.048-55.31,82.542-114.53,119.182-176.341,11.934-20.133,26.066-62.748,42.065-77.15C514,498.866,523.259,497.558,533.394,492.72Zm37.057,96.186c-62.034,121.72-141.882,241.565-246.378,321.623-46.867,35.907-97.419,68.49-148.227,100.191q-33.047,19.545-66.1,39.08v901.75l38.058,18.03c32.091,16.39,63.226,32.31,93.143,50.1a1113.023,1113.023,0,0,1,125.192,86.16c61.014,48.44,103.56,126.68,144.221,195.38,20.292,34.29,47.1,71.89,60.092,111.22H2430.3c17.57-37.29,41.72-72.14,63.1-106.21,77.8-123.99,143.14-200.38,267.41-278.54,37.66-23.69,86.52-61.06,130.2-75.14V1052.8c-129.6-59.97-252.46-122.978-332.51-232.445-34.88-47.69-62.66-101.136-93.15-153.3q-19.515-39.072-39.06-78.152H570.451ZM1015.13,972.649h923.42c18.83,0,43.91-2.766,58.09,3.006,15.66,6.379,34.97,26.025,30.04,52.105-3.32,17.59-15.14,32.04-30.04,38.07-16.49,6.67-46.66,3.01-68.11,3.01h-849.3c-22.67,0-55.19,4.5-74.11-2.01-29.8-10.24-43.185-53.66-19.032-80.153C993.483,978.563,1004.26,977.657,1015.13,972.649ZM537.4,1452.58H2401.26c50.6-.01,117.77-3.76,107.16,54.1-9.35,51.02-64.73,42.09-124.19,42.09H853.885q-160.73-.51-321.492-1.01c-28.51-7.48-50.049-46.31-28.044-76.14C512.607,1460.42,523.735,1458.86,537.4,1452.58Zm478.73,480.93h921.42c21.19,0,47.73-2.54,63.09,4.01,14.34,6.11,32.48,26.09,28.04,50.1-3.37,18.26-14.6,32.95-30.04,39.07-15.26,6.05-42.11,3.01-62.1,3.01H1782.31q-385.56-.51-771.18-1.01c-28.73-7.26-50.047-46.31-28.047-76.14C991.341,1941.35,1002.47,1939.79,1016.13,1933.51Z"/>
</svg>
