<svg id="V1" xmlns="http://www.w3.org/2000/svg" width="3000" height="3000" viewBox="0 0 3000 3000">
  <defs>
    <style>
      .cls-1 {
        fill-rule: evenodd;
      }
    </style>
  </defs>
  <g id="shadow">
    <path id="_35" data-name="35" class="cls-1" d="M2020.31,21.157c14.53-.225,98.95-0.985,104.61,4.023q1.005,119.664,2.01,239.353c0,21.687-4.7,56.164,3.01,73.415l312.82,4.023c0.17,50.2,7.18,101.822,0,149.847q-0.5,20.615-1,41.233l-311.82,3.017c-0.33,1.006-.67,2.012-1,3.018q-2.01,155.865-4.02,311.762c-50.52.168-102.52,7.227-150.88,0l-41.24-1q-1.515-156.369-3.02-312.769c-1-.335-2.01-0.67-3.02-1.006l-78.45-2.011H1688.38l-73.43-2.011c-0.4-50.107-7.2-101.928,0-149.848,1.68-11.148-4.18-33.119,2.01-40.227l240.4-2.011c21.69,0,56.17,4.693,73.43-3.017q1.5-156.871,3.01-313.774ZM1327.28,282.635c114.94-1.773,187.26,27.356,265.54,58.33V491.818c0,24.143-2.9,49.159,11.07,59.336,11.28,8.218,38.46,5.028,57.33,5.028h139.81c19.51,41.326,37.48,84.469,48.28,134.762,5.79,26.946,11.56,65.275,8.05,96.546q-1,22.626-2.01,45.256c5.72,45.635-3.97,104.679-12.07,147.836-21.21,113-45.19,214.188-82.48,310.758-25.63,66.38-48.45,129.71-86.5,183.03-27.9,39.1-66.56,65.42-108.63,90.52-45.88,27.36-95.49,48.54-148.87,69.39-12.52,4.89-49.62,23.8-63.37,22.12q-13.575-5.025-27.16-10.05c-31.75-11.11-61.42-22.74-90.52-35.2-62.09-26.6-142.8-63.89-182.06-112.64-91.2-113.26-125.8-272.86-172-432.44C842.857,931.929,832.5,722.685,883.7,597.415,940.641,458.1,1046.62,364.592,1188.47,309.789c27.46-10.607,57.89-16.408,89.52-22.125ZM2152.07,3000H556.8q-1-348.945-2.011-697.95,1-141.285,2.011-282.59,309.77-102.57,619.6-205.16-1.5-106.1-3.01-212.2h1a1291.037,1291.037,0,0,0,133.78,56.31c13.13,4.65,34.45,18.96,52.3,15.09,44.93-9.73,91.09-32.46,131.77-50.28q20.61-9.555,41.24-19.11c0.38,37.59,5.97,90.57,0,130.74-3.53,23.73-4.06,58.82,0,80.45q309.765,102.57,619.6,205.16C2153.08,2343.36,2149.3,2673.87,2152.07,3000Z"/>
  </g>
</svg>
