<svg id="V3" xmlns="http://www.w3.org/2000/svg" width="3000" height="3000" viewBox="0 0 3000 3000">
  <defs>
    <style>
      .cls-1 {
        fill-rule: evenodd;
      }
    </style>
  </defs>
  <path id="_148" data-name="148" class="cls-1" d="M23.438,20C368.325,92.4,1165.6,144.769,1391.07,140.6,2051,148.808,2852.01,40.679,2818.54,43.449l162.41-20.1c1.89,2.233,3.77,1.034,5.69,6.7s-4.26,233.885-17.09,328.289q-12.825,147.381-25.64,294.79c-28.51,176.853-56.94,343.965-96.88,502.481-120.46,478.09-225.56,935.72-458.73,1276.31-112.15,163.83-339.21,291.65-515.71,381.89-102.91,52.61-245.21,141.8-361.85,164.14-43.46,8.33-97.64-32.99-131.07-46.9-119.54-49.72-232.19-101.8-339.05-164.14-156.822-91.49-331.188-188.69-435.938-341.69-253.461-370.2-364.716-890.68-487.219-1417C84.921,868.4,68.689,710.7,46.232,552.633L31.986,314.79C23.73,252.371,1.408,78.881,23.438,20ZM1599.07,2334.77q-48.435-3.345-96.88-6.7v-50.24c-42.78,13.83-119.27,11.73-165.25,3.35-220.06-40.11-306.98-57.52-401.746-244.55q2.849-3.345,5.7-6.7c139.058,42.32,381.768,133.03,561.3,56.95-0.88-19.48-1.04-40.14,5.7-50.25q64.095,60.3,128.22,120.6,229.335,1.68,458.72,3.35,153.855-251.22,307.72-502.48-186.6,155.745-373.25,311.54-132.48-1.68-264.98-3.35-91.17-92.115-182.35-184.25-39.885-1.665-79.78-3.35v-1551c-224.88,1.909-451.96,3.647-658.172-33.5L493.562,164.045,77.574,113.8c19.659,206.435,12.848,411.521,45.587,602.98C226.121,1318.87,372.42,1978.2,647.421,2381.67c113.889,167.1,346.556,290.82,527.109,381.89,99.94,50.41,212.37,119.56,327.66,144.05V2736.76q47.01-56.94,94.03-113.9Q1597.645,2478.83,1599.07,2334.77ZM2129.02,421.987l-119.66,26.8c-92,33.771-162.28,90.476-230.79,150.745-37.55,33.027-99.14,80.119-54.14,150.745,29.82,46.8,131.82,66.136,182.35,30.149,80.6-57.4,128.99-160.1,222.24-207.693,192.54-98.275,383.41,52.682,524.26,107.2C2543.25,509.45,2387.79,421.133,2129.02,421.987ZM764.24,519.134c187.046-4.412,290.29,55.459,401.74,134,26.27,18.51,57.84,30.249,76.93,56.948-2.88,16.623-1.99,12.556-11.4,20.1-171.18-96.817-403.668-215.594-641.074-107.2A990.919,990.919,0,0,0,413.783,726.827c-27.81,20.561-53.49,61.077-91.175,67q-2.849-5.025-5.7-10.05v-10.05C393.093,707.9,459.759,629.315,553.4,582.782L687.31,532.533Zm14.246,264.641c173.005-4.142,323.544,68.548,396.044,184.244v23.449q-49.86,46.893-99.72,93.8c-135.38,93.96-375.393,104.98-512.866,6.69-35.224-25.18-103.5-58.99-108.271-117.241,41.306-80.707,150.592-137.134,233.637-167.495ZM2148.97,834.023c-107.25,52.8-212.2,64.988-293.47,144.046l5.7,3.35c30.94,35.981,85.94,55.661,128.21,77.051,246.74,124.84,336.75,4.72,538.51-73.7C2460.92,907.023,2283.15,833.839,2148.97,834.023ZM784.184,844.073L664.516,880.922c-56.755,26.187-102.81,62.407-148.16,100.5q1.425,3.35,2.849,6.7c41.457,22.922,73.122,62.412,119.668,83.752,150.438,68.94,391.687,23.21,470.127-93.8C1048.41,889.691,918.951,843.533,784.184,844.073Z"/>
</svg>
