<svg id="V3" xmlns="http://www.w3.org/2000/svg" width="3000" height="3000" viewBox="0 0 3000 3000">
  <defs>
    <style>
      .cls-1 {
        fill-rule: evenodd;
      }
    </style>
  </defs>
  <g id="group" data-name="group 3">
    <path id="_137" data-name="137" class="cls-1" d="M647,234H2344.65Q2653.5,853.838,2962.4,1473.8H33.9v-2.32Q340.423,852.805,647,234ZM1496.99,410.451l-508.6,2.322c-63.561,0-141.514-7.544-178.821,18.573-8.871,25.321-8.254,52.012,16.256,62.687C861.143,513.606,1079.99,501,1141.67,501h743.15c87.62,0,242.1,20.371,297.26-18.574,8.64-26.414,4.98-41.274-9.28-60.364-42.66-12.951-110.69-9.288-167.21-9.287Zm-4.65,394.693-671.159,2.322c-74.056,0-185.116-13.136-229.913,18.573-8.633,26.415-4.973,41.275,9.289,60.365,40.844,12.485,105.688,9.288,160.243,9.287H1942.88c98.96,0,403.57,17.812,455.18-18.574,29.88-97.621-120.78-69.668-206.69-69.651ZM437.992,1199.84q-25.543,4.635-51.092,9.28c-19.63,24.51-22.121,45.81-2.322,71.98,46.8,14.29,122.43,9.28,183.466,9.28H2446.83c61.69,0.01,133.92,6.75,169.54-18.57,8.63-26.41,4.97-41.27-9.29-60.36-61.93-18.79-156.35-11.61-234.56-11.61H437.992ZM13,1538.81q499.257,1.155,998.61,2.32c37.17,306.64,338.72,557.28,685.1,408.62,118.16-50.71,210.18-150.17,257.78-271.64,16.61-42.38,16.32-93.01,32.52-139.3h738.51c40.19,0,240.94-9.91,257.78,4.64q1.155,468.945,2.32,937.98V2692.7c0,22,5.9,64.02-6.97,74.3H13V1538.81Zm1065.96,0q420.315,1.155,840.7,2.32c-1.11,205.09-184.59,350.45-364.61,383.08-208.4,37.79-359.32-102.64-427.32-218.24C1106.78,1670.36,1064.9,1595.09,1078.96,1538.81Zm418.03,510.78q-44.13,132.315-88.25,264.67l-246.17,4.65h4.64q96.375,70.8,192.76,141.62-42.96,128.85-85.93,257.71,111.465-80.085,222.95-160.2,111.465,80.1,222.94,160.2-42.945-128.835-85.92-257.71,98.685-70.8,197.4-141.62v-2.32q-123.075-1.17-246.17-2.33Q1541.11,2181.945,1496.99,2049.59Z"/>
  </g>
</svg>
