<svg id="V1" xmlns="http://www.w3.org/2000/svg" width="3000" height="3000" viewBox="0 0 3000 3000">
  <defs>
    <style>
      .cls-1 {
        fill-rule: evenodd;
      }
    </style>
  </defs>
  <g id="shadow">
    <path id="_203" data-name="203" class="cls-1" d="M1742.52,65q132.27,130.253,264.56,260.533h2Q2139.85,195.279,2270.64,65q84.675,84.665,169.36,169.346c-0.34,1.336-.67,2.672-1,4.008q-129.27,130.254-258.55,260.533v2Q2310.71,631.145,2441,761.424c-0.33.668-.67,1.336-1,2q-84.675,84.664-169.36,169.346c-176.83-175.017-260.77-259.205-266.57-260.533Q1873.81,802.5,1743.52,932.774c-130.7-131.669-168.27-168.612-169.36-173.354,163.26-163.243,257.97-256.616,259.55-263.539-175.62-174.709-258.96-256.507-259.55-261.535Q1658.325,149.681,1742.52,65ZM1323.63,292.465c172.2-2.632,275.61,56.7,367.78,133.272,30.62,25.442,48.61,62.882,77.16,90.185Q1677.9,607.6,1587.19,699.3c-14.09,14.087-42.61,32.277-47.1,54.11-6.91,33.567,129.31,152.34,153.32,176.361,11.95,11.944,29.21,41.373,56.12,36.073,24.09-4.743,83.73-70.647,99.21-90.184q-2.505,32.063-5.01,64.131c-14.64,94.232-30.12,171.5-54.11,251.512-65.21,217.51-106.93,331.32-306.65,418.86-20.98,9.19-111.97,53.52-133.28,51.1q-27.57-10.02-55.12-20.04c-69.04-26.7-135.24-53.62-191.41-93.19C956.314,1444.56,891.176,1161.05,855.638,943.8,835.42,820.2,848.81,680.22,888.708,590.073c58.416-131.987,169.6-231.531,314.672-276.565C1239.62,302.258,1282.68,304.638,1323.63,292.465ZM2145.37,3000H556q-0.5-488.445-1-977,228.462-75.645,456.97-151.31c23.06-7.95,153-44.8,160.34-55.11q-1-104.7-2.01-209.43c31.46,11.12,153.61,78.14,186.4,71.15,62.47-13.33,116.87-50.09,173.37-70.15q-0.51,105.7-1,211.44,308.61,102.2,617.31,204.41Q2145.87,2511.95,2145.37,3000Z"/>
  </g>
</svg>
