<svg id="end" xmlns="http://www.w3.org/2000/svg" width="3000" height="3000" viewBox="0 0 3000 3000">
  <defs>
    <style>
      .cls-1 {
        fill-rule: evenodd;
      }
    </style>
  </defs>
  <path id="_196" data-name="196" class="cls-1" d="M1723.75,468.007h416c-1.1-151.393-28.78-358.079,65.92-417.073,42.06-26.2,117.7-20.455,186.4-20.456,262,0,206.21,190.62,204.59,437.529,322.74-2.827,263.7,249.742,263.69,555.723V2394.27c0.01,286.82,61.03,565.53-218.22,585.27H779.239c-236.374,0-552.531,49.18-620.584-123.88-40.159-102.12-17.051-379.24-17.049-519.35V790.756c0-65.795-6.5-145.238,12.5-193.195C193.284,498.715,276.051,467.056,417.8,468.007c-1.075-152.683-30.612-367.323,67.06-425.028,42.524-25.124,118.471-19.319,186.4-19.32,261.114,0,205.035,197.944,203.451,444.347H1266.84c-1.06-154.079-31.61-375.823,67.06-434.119,42.52-25.124,118.56-19.319,186.4-19.319C1783.39,14.565,1725.31,219.875,1723.75,468.007ZM1398.69,146.4V856.669l192.08,1.136,1.14-1.136q-0.57-354.532-1.14-709.137l-1.14-1.137H1398.69ZM551.919,154.35q-1.137,355.67-2.273,711.411L741.731,866.9l1.136-1.136q-0.567-355.1-1.136-710.274Zm1721.951,6.819q-0.57,355.67-1.14,711.41l1.14,1.137,190.95-1.137c0.37-.378.75-0.757,1.13-1.136q-0.57-353.965-1.13-708ZM528.05,1057.82c-41.259,9.06-192.575-12.9-211.407,9.09-22.544,26.32-6.822,348.32-6.82,411.39V2668.15c1.255,22.95-8.038,133.36,13.639,146.6q243.777,2.28,487.6,4.55h1298l367.12-1.14c40.48,0,203.48,8.17,217.09-10.23,19.84-26.81,5.69-643.64,5.69-734.14V1314.65c0-45.47,8.89-235.23-11.37-250.01-24.66-17.99-495.39-5.69-571.71-5.68Zm498.97,65.91c102.42,17.04,172.27,262.14,50.01,334.12-12.55,7.38-40.99,19.35-63.65,13.63-89.836-20.66-124.663-121.6-92.066-167.05,30.023-40.32,53.8-57.59,80.7-86.37C1020.6,1196.22,1015.68,1152.89,1027.02,1123.73Zm445.54,0c109.8,15.44,194.53,343.46-14.77,347.75-99.51-32.59-123.57-119.8-84.11-180.69,45.46-56.61,60.71-46.1,76.15-79.55S1459.7,1142.6,1472.56,1123.73Zm444.41,0c141.54,42.89,171.37,351.18-14.77,347.75-71.2-14.58-137.57-108.37-85.25-179.55,28.31-25.74,58.12-46.64,79.57-85.24S1889.52,1145.17,1916.97,1123.73Zm-766.06,784.14h200.04l9.09-390.93,229.59,2.27s2.28,259.12,3.41,388.66h202.32q4.545-195.435,9.09-390.93c67.34-.7,229.59,3.41,229.59,3.41s3.04,258.36,4.55,387.52c173.92-2.24,218.23,62.51,218.23,232.97q-1.14,64.215-2.28,128.42c-80.14-18.82-104.91-56.42-163.67-90.91-30.91-18.15-63.49-13.15-103.43-26.14-91.67-29.81-158.53,126.98-271.64,111.37-63.73-8.79-93.65-49.19-136.4-81.82-22.89-17.49-58.26-17.4-92.06-29.55-84.59-30.42-184.82,100.49-247.78,110.23-91.92,14.23-116.02-40.66-162.53-72.73-29.19-20.12-65.36-23.88-102.3-37.5-119.192-43.96-196.992,145.27-281.877,110.23-1.742-233.62-24.094-356.6,214.818-354.57,1.894-129.16,5.682-387.52,5.682-387.52l230.733-1.14S1148.63,1778.33,1150.91,1907.87Zm-208,307.98c118.241-.9,134.341,94.52,246.641,111.37,155.87,23.39,161.44-127.87,295.52-110.23,105.25,13.84,125.71,126.45,255.73,112.5,104.46-11.2,182.58-131.24,263.69-111.37,103.24,25.3,130.96,111.4,251.19,114.78q-0.57,176.13-1.14,352.3-238.08,3.4-476.23,6.82-542.1-2.28-1084.316-4.55V2329.49C817.174,2313.91,841.79,2245.8,942.909,2215.85Z"/>
</svg>
