<svg id="end" xmlns="http://www.w3.org/2000/svg" width="3000" height="3000" viewBox="0 0 3000 3000">
  <defs>
    <style>
      .cls-1 {
        fill-rule: evenodd;
      }
    </style>
  </defs>
  <path id="_209" data-name="209" class="cls-1" d="M970.215,12.707l281.485-1.1,4.84,435.747,208.21-2.534L1461.62,8h286.69l-2.15,444.35c565.26,27.046,935.75,503.237,460.85,931.59C2829.32,1569.08,2684.28,2564.5,1745.16,2536l2.53,454.24-285.38-.87-0.69-447.34H1255.2l-4.03,447.11-278.677,1.98-3.077-459.1s-550.925-5.41-551.076-3.74c0,0,41.384-306.56,60.645-328.38,163.081-15.41,283.731,33.59,296.572-79.39,0-38.52,4.071-1217.578,4.071-1217.578-2-123.166-43.258-163.283-359.882-148.859-0.158-75.469-2.871-299.831-2.871-299.831l556.651-.7ZM1257.15,775.325l-4,549.065c3.76-17.75,663.36,100.72,649.97-273.97S1257.15,775.325,1257.15,775.325ZM1254,1602.64l1.89,605.21s812.46,46.97,763.36-327.73C2028.18,1532.2,1256.42,1568.99,1254,1602.64Z"/>
</svg>
