<svg id="end" xmlns="http://www.w3.org/2000/svg" width="3000" height="3000" viewBox="0 0 3000 3000">
  <defs>
    <style>
      .cls-1 {
        fill-rule: evenodd;
      }
    </style>
  </defs>
  <path id="_175" data-name="175" class="cls-1" d="M1951,50c337.78,2.2,476.88,808.471,436,648,15.45,34.856,40.02,232.133,45,272-284.05,144.52-707.18,190.98-1061,186S581,966,581,966s19.325-186.915,80-402q19.5-70.993,39-142C837.989,39.408,1000.69,38.146,1055,55c33.71,14.981,73.34,33.335,110,50,78.89,43.133,147.13,45.23,246,66l85,6-13-2C1640.84,173.408,1831.96,101.676,1951,50ZM1245,1255c278.4,42.79,752.52.42,946-80,66.36-27.58,136.87-59.52,203-83l84-39s526.97-27.67,509,83c-5.26,32.42-38.58,60.11-62,73-36.94,20.35-70.89,67.34-123,90-115.56,65.71-374.56,171.98-691.02,249.6-94.87,23.27-209.84,34.37-328.57,52.8-103.62,15.06-350.59,14.2-602.41-.4-321.168-36.5-989.143-240.99-1166-496,18.131-41.04,477-62,477-62S764.425,1196.34,1245,1255Zm905.81,422.9c276.23-16.69,402.51,216.34,425.19,341.1-1.44,64.43-12.72,133.05-13,159,28,24.02,49.64,28.47,49.64,72.08s-13.13,56.64-18.64,68.92v365c0,72.66-.12,224.13-0.12,224.13L2559,2908s1.27-566.63,0-566c-16.16,0-18.06,6.9-48.52-1.2,3.17,1.59-21.66-7.26-31.48-9.8-4.44,1.9-59.38,56.98-93,76-161.67,91.47-351.14,69.62-493.2-70.25-150.46-148.14-143.41-441.71,73.2-599.75C2001.38,1718.38,2082.09,1680.25,2150.81,1677.9Zm33.63,84.02c-184.25-7.78-295.46,131.67-308.44,286.08-5.79,189.57,105.7,336.32,340,326,48.01,3.89,180.21-50.48,208.75-106.28,69.16-88.54,121.5-330.41-54.78-442.6C2302.2,1776.15,2287.99,1767.21,2184.44,1761.92ZM1786,2063h0Zm764,153q-23.505,43.5-47,87C2572.91,2340.12,2616.54,2245.65,2550,2216ZM1296.05,2591.09c129.84-18.81,214.42,57.53,214.23,56.98,51.06-46.85,139.57-65.16,212.83-58.73,51.11,14.19,105.74,42.64,105.59,36.9,66.97,44.62,217.54,133.96,339.35,92.09,37.42-10.36,77.42-46.75,77.42-46.75,2.64,74.85-101.21,163.79-118.29,173.87-56.6,33.44-194.6,95.92-310.83,98.42-162.09,7.42-210.24-29.4-244.33-50.48,0,0-56.38-54.39-63.02-54.39s-219.14,276.53-666-42c-43.712-40.77-72-129-72-129s22.209,27.04,80.32,50.39C1075.46,2763.53,1053.48,2660.17,1296.05,2591.09Z"/>
</svg>
