<svg xmlns="http://www.w3.org/2000/svg" width="3000" height="3000" viewBox="0 0 3000 3000">
  <defs>
    <style>
      .cls-1 {
        fill-rule: evenodd;
      }
    </style>
  </defs>
  <path id="_152" data-name="152" class="cls-1" d="M1553,14c252.27-1.614,504.16,28.5,684,100,131.1,52.127,241.74,107.736,323,189s197.73,192.707,314.91,396.96c104.62,172.828,105.13,419.47,79.93,737.16C2889.74,1884.6,2772.27,2117.19,2476,2264c-97.62,48.37-210.73,63.34-311.87,49.49-65.6-8.98-123.15-16.72-197.03-70.44-56.9-73.33-60.52-281.4-60.52-281.4S1693.92,2177.61,1567,2245c-167.31,88.83-334.92,98.23-494,49-251.29-77.77-471.833-534.79-351-946,84.823-288.66,221.071-509.84,483-624,101.52-44.248,282.71-95.023,436-70,101.6,16.586,199.1,58.527,271.46,105.261S2001.68,895.654,2042,945q37.5-129.987,75-260c206.88-2.117,260.16,2.97,260.16,2.97C2377.94,679.3,2222.81,1384.73,2146,1729c-29.31,116.18-61.87,296.35,35,364,97.23,67.9,231.86-17.17,291-64,40.19-31.82,70-73.87,98-118,84.32-132.9,156.63-275.39,175.09-465.19S2775.44,1044.03,2687,835c-74.49-176.072-429.03-538.982-727-583s-620.47-3.4-783,44S706.347,524.427,565,711c-71.623,94.539-136.726,199.268-183,318-82.667,212.11-102,464.89-102,577-3.985,10.32-36.948,279.48,186,683.53,137.881,249.88,387.968,383.88,679.747,448.99,300.54,52.1,632.4,3.42,1021.51-151.35C2242.23,2553.2,2396,2488,2396,2488l85.16,192.72c24.47-4.39-181.97,82.42-272.16,121.28-69.44,24.62-241.89,78.16-357.27,108.38S1499.81,2994.87,1372,2987c-155.89-9.6-405.779-62.03-507.46-92.15,19.1,5.66-539.521-48.21-723.061-823.15-32.886-138.85-98.849-352.94-65.733-675.74,30.926-301.45,74.391-389.02,100.927-462.727S268.511,762.551,316,690c169.662-259.2,402.916-446.956,712-570,114.03-45.394,257.79-64.5,389-93ZM1345,904c-77.7,35.152-322.97,91.4-406.523,628.57C932.86,1647.37,941.533,1804.13,983,1899c45.8,104.78,137.37,165.73,261,193,107.31,23.67,231.66-18.76,296-57,190.61-113.29,331.8-339.8,360.72-574.85,24.49-198.99,28.36-390.74-59.72-499.15C1682.24,765.6,1380.77,887.816,1345,904Z"/>
</svg>
