<svg id="V3" xmlns="http://www.w3.org/2000/svg" width="3000" height="3000" viewBox="0 0 3000 3000">
  <defs>
    <style>
      .cls-1 {
        fill-rule: evenodd;
      }
    </style>
  </defs>
  <g id="group" data-name="group 1">
    <path id="_132" data-name="132" class="cls-1" d="M1495.71,773.106c31.62,3.532,63.96,2.363,92.21,9.578,153.89,39.3,267.38,136.517,313.75,282.556,34.68,109.19,21.72,270.33-8.38,377.13-36.85,130.77-66.11,270.05-146.1,357.98-32.5,35.73-84.68,60.79-131.73,81.41-26.17,11.48-85.08,43.12-113.76,45.5q-18.57-6.585-37.13-13.17c-49.12-19.13-94.49-36.29-136.52-61.06-27.47-16.19-59.53-32.18-79.03-56.27-87.88-108.56-129.31-276.2-160.47-439.39-15.19-79.54-23.86-192.2,0-270.58,43.95-144.41,135.13-236.973,270.64-289.738,27.05-10.532,56.91-14.78,88.62-20.354ZM820.3,3000H-6V2340.31l335.31-110.14q-1.2-76.62-2.395-153.25l-25.148-14.37c-25.044-15.64-51.3-36.05-68.26-59.86-52.734-74.03-76.874-175.17-104.185-274.17-9.991-36.22-25.579-92.54-21.556-134.1q-2.4-37.11-4.79-74.23,4.79-40.1,9.58-80.21c22.275-87.07,67.3-152.45,129.334-199.94,45.31-34.7,145.567-91.5,237.112-76.63,37.42,6.08,70.853,8.41,101.791,20.35,106.378,41.08,184.491,119.61,220.346,231.07,20.9,64.97,19.1,167.19,4.79,240.65-33.8,173.51-73.806,353.59-214.359,421.44q0.6,77.2,1.2,154.44,112.557,36.51,225.137,73.04Q819.1,2652.16,820.3,3000Zm2186.7,0H2178.31q1.185-260.97,2.39-522l-1.2-132.9c-1.58-10.58-2.08-34.96,3.6-39.51q113.145-37.71,226.33-75.42V2076.92c-124.7-43.87-159.48-202.74-196.4-335.23-10.95-39.31-30.63-100.81-25.14-147.27q-2.4-36.51-4.79-73.03c-3.55-37.27,8.1-82.4,17.96-111.34,36.6-107.48,112.12-184.41,215.55-225.09,31.93-12.55,66.48-15.06,105.39-21.55,76.87-12.82,162.49,27.89,204.78,53.88,76.61,47.08,132.4,117.73,159.27,214.31,17.36,62.42,12.75,157.76,0,223.88-33.41,173.25-74.22,353.77-214.36,421.44q0.6,77.2,1.2,154.44,167.04,55.065,334.11,110.15V3000Zm-845.46,0H838.263q-1.2-380.685-2.395-761.45,167.637-55.68,335.312-111.35,63.465-20.955,126.94-41.9c19.42-6.8,41.09-10.47,57.48-20.36,4.16-23.76,2.29-54.29,1.2-79.01v-99.38c21.84,10.66,122.52,58.95,146.1,56.27,47.63-5.39,97.69-43.18,141.3-56.27q-1.185,64.05-2.39,128.11,1.2,25.14,2.39,50.28,259.845,86.8,519.73,173.61Q2162.745,2619.235,2161.54,3000Z"/>
  </g>
</svg>
