<svg id="V3" xmlns="http://www.w3.org/2000/svg" width="3000" height="3000" viewBox="0 0 3000 3000">
  <defs>
    <style>
      .cls-1 {
        fill-rule: evenodd;
      }
    </style>
  </defs>
  <path id="_139" data-name="139" class="cls-1" d="M1987.41-11h10.04l102.4,310.133H2394l-2.01,3.011q-117.45,84.3-234.91,168.616,51.18,155.553,102.39,311.137C2069.71,646.119,1993.12,590.144,1989.42,592.2Q1856.415,687.04,1723.38,781.9v-1q51.7-155.553,103.41-311.137L1591.87,300.137h2.01c192.93-.893,288.27-0.446,291.13-4.015ZM1343.9,288.093c169.43-.85,263.56,67.213,356.39,142.52,14.28,11.581,70.44,73.609,74.29,90.33q-34.635,104.872-69.27,209.767c-6.98,20.031-25.26,61.186-4.01,78.286,14.65,11.793,35.57,5.743,48.18-3.011q50.19-36.129,100.4-72.264c4.24,30.745,2.67,57.489,1,99.363-4.06,39.488.68,78.9-17.07,190.7-33.97,160.88-90.27,362.14-176.69,470.72-35.29,44.34-91.79,72.52-144.56,99.36-36.2,18.41-74.42,32.56-114.45,48.18q-23.58,8.025-47.18,16.06l-41.16-15.06c-48.06-18.75-96.11-33.48-138.54-58.21-45.26-26.38-94.99-52.19-126.5-92.34-38.78-49.41-63.3-109.01-88.343-172.63-36.226-92.01-64.214-194.2-87.341-298.09Q862.523,973.6,856,925.421c-8.572-49.515-15.4-141.2-6.023-194.711,13.523-77.207,33.6-140.421,67.263-196.719,63.241-105.775,161.9-184.362,290.135-224.821,28.57-9.015,59.67-12.347,92.36-18.066ZM2148.04,3000H555.824q-1-348.24-2.008-696.54,0.5-97.35,1-194.72c0-21.82-5.209-71.21,2.007-87.31l617.413-203.75q-1.005-105.87-2.01-211.77a1276.486,1276.486,0,0,0,133.52,56.2c13.05,4.62,33.87,18.27,51.2,15.06q25.1-9.03,50.2-18.07c42.56-16.6,82.4-32.1,121.47-51.19,0.67,0.34,1.34.67,2.01,1.01-0.05,34.5,5.75,72.59,0,110.4-4.34,28.54-5.13,73.22,0,99.36q309.18,102.375,618.41,204.75C2149.06,2346.56,2147.61,2671.98,2148.04,3000Z"/>
</svg>
