<svg id="V3" xmlns="http://www.w3.org/2000/svg" width="3000" height="3000" viewBox="0 0 3000 3000">
  <defs>
    <style>
      .cls-1 {
        fill-rule: evenodd;
      }
    </style>
  </defs>
  <path id="_140" data-name="140" class="cls-1" d="M739.842,18q198.88,97.863,397.8,195.746-24.63,51.085-49.26,102.181L858.074,202.666Q971.369,539.34,1084.69,876.08c571.5-163.484,1113.15,344.37,980.34,924.56-43.99,192.18-142.63,308.01-257.4,427.19q192.72,193.275,385.48,386.57c4.93-1.64,25.74-23.09,217.99-214.21q36.945,36.315,73.9,72.63c-182.29,178.06-192.89,192.47-215.53,217.91l214.3,215.44-75.13,73.87q-106.515-107.1-213.06-214.21c-4.93,1.64-41.82,37.77-216.76,215.44-4.93-1.64,20.11,23.8-75.13-76.33l215.53-214.21q-198.27-199.425-396.57-398.88c-87.45,31.92-162.52,84.53-269.72,108.34-384.45,85.37-696.329-146.21-828.858-365.64-261.35-432.73-18.145-988.32,360.855-1122.768L757.084,235.906,642.546,466.122,540.325,415.647ZM1300.21,963.488c-62.17,14.788-123.11,8.493-176.11,23.391C928.559,1041.84,796.794,1161.22,706.589,1321.74c-47.942,85.31-88.317,215.47-72.664,350.86,42.782,370.05,262.044,582.11,633.035,624.17,131.88,14.96,249.37-31.36,331.3-72.63C2187.57,1927.31,2031.53,973.111,1300.21,963.488Z"/>
</svg>
