<svg id="end" xmlns="http://www.w3.org/2000/svg" width="3000" height="3000" viewBox="0 0 3000 3000">
  <defs>
    <style>
      .cls-1 {
        fill-rule: evenodd;
      }
    </style>
  </defs>
  <path id="_185" data-name="185" class="cls-1" d="M1446.24,9.2C2307.97-2.643,2856.9,568.121,2975.55,1303.85c44.23,274.25-12.11,571.1-98.13,764.55-192.76,433.49-513.79,730.63-999.15,871.59-99.25,28.83-207.23,33.66-323.71,47.15-156.63,18.15-319.06-18.06-435.85-50.97C520.216,2767.55,121.489,2342.12,22.7,1673.38c-35.93-243.24,9.032-504.05,76.465-684.276,168.3-449.8,511.792-780.75,987.68-922.563,76.41-22.769,160.34-35.4,247.24-48.422Zm14.02,114.683c-114.33,27.535-226.33,20.337-326.26,49.7C678.221,307.493,328.819,630.315,190.928,1080.85-23.061,1780.03,323.5,2348.35,732.559,2635.45c122.715,86.12,260.571,145.79,425.661,191.14q45.24,10.185,90.48,20.38c-519.291-174.79-564-919.91-113.42-1210.54,79.8-51.48,175.36-87.55,291.84-101.94l177.15-5.1c247.13-40.25,409.78-163.11,527.61-332.58,178.21-256.318,144.62-639.637-30.59-869.046q-49.065-54.151-98.13-108.312C1896.16,153.556,1635.36,123.33,1460.26,123.882ZM1483.2,583.89c273.8-4.821,284.32,365.671,39.5,398.843-205.55,27.847-288.62-242.755-152.93-350.421C1402.92,606.011,1434.14,596.931,1483.2,583.89Zm0,1433.54c-49.59,13.35-81.8,22.13-114.7,49.7-132.46,110.96-43.95,371.65,154.2,344.05C1764.67,2377.47,1754.63,2013.36,1483.2,2017.43Z"/>
</svg>
