<svg id="end" xmlns="http://www.w3.org/2000/svg" width="3000" height="3000" viewBox="0 0 3000 3000">
  <defs>
    <style>
      .cls-1 {
        fill-rule: evenodd;
      }
    </style>
  </defs>
  <path id="_187" data-name="187" class="cls-1" d="M1299.79,41.056C1680.87,94.15,1838.12,189.468,1993.08,301c277,199.382,492.09,479.419,582.41,863.946,202.61,862.62-365.46,1519.42-955.82,1721.53-142.82,48.89-345.25,105.24-545.45,81.55-450.04-53.27-845.251-506.25-633.391-1030.88,44.313-109.73,110.424-220.92,198.811-286.71,90.186-67.12,183.2-129.51,307.136-163.1,87.644-23.75,203.774-15.39,302.034-34.41,246.01-47.59,417.65-182.76,509.77-383.55,131.25-286.049,33.76-624.945-151.65-783.667-52.37-44.833-109.92-89.151-177.15-118.506-41.65-18.185-127.36-29.759-152.93-64.987C1257.01,74.889,1274.8,47.3,1299.79,41.056ZM1125.2,2017.43c-49.59,13.35-81.8,22.13-114.7,49.7-132.462,110.96-43.955,371.65,154.2,344.05C1406.67,2377.47,1396.63,2013.36,1125.2,2017.43Z"/>
</svg>
