<svg id="end" xmlns="http://www.w3.org/2000/svg" width="3000" height="3000" viewBox="0 0 3000 3000">
  <defs>
    <style>
      .cls-1 {
        fill-rule: evenodd;
      }
    </style>
  </defs>
  <path id="_207" data-name="207" class="cls-1" d="M1700.9,312.948c121.24-.272,708.05-22.19,745.32,25.6,30.92,39.645,14.33,518.077,14.33,617.414V2791.82c0,44.69,9.74,114.39-5.12,149.49-28.03,66.22-333.08,40.96-438.18,40.95l-1428.189-1.02c-76-19.51-51.193-171.1-51.19-264.17V754.25c0-77.054-13.428-380.837,13.31-415.7,36.28-47.313,630.389-25.851,751.459-25.6-0.31-51.236-9.45-271.221,5.12-294.884,42.56-9.828,389.33.521,392.12,6.143Q1700.39,168.563,1700.9,312.948ZM1502.36,121.111c-90.48,8.418-105.61,139.368,2.99,151.905C1587.71,273.392,1624.41,124.478,1502.36,121.111Zm-831.4,324.944V2850.18l1656.5-1.02V446.055H1700.9c0.4,24.136,4.21,133.311-6.14,140.275l-371.64,2.048q-9.21-3.072-18.43-6.144-1.02-68.082-2.05-136.179H670.964ZM1476.53,611.147c381.17-5.6,489.92,346.8,377.94,693.963-30.56,94.73-55.16,189.39-109.92,259.23-39.98,52.15-163.1,113.19-245.72,136.07-7.11-.1-53.54-19.53-81.52-29.77-56.08-25.33-113.41-47.98-153.57-89.08-83.24-85.16-207.78-473.06-158.69-661.437,39.26-150.636,135.33-243.361,279.5-294.885C1418.76,614.009,1442.81,612.671,1476.53,611.147ZM2132.94,2348.47H863.437q0.511-180.195,1.024-360.42,245.683-80.88,491.419-161.77c-0.68-56.31-1.36-112.64-2.18-168.62,45.62,23.33,104.71,46.3,146.07,56.28,39.75-5.66,143.19-56.57,142.77-56.61,0,0-.68,112.64-1.02,168.95q245.685,80.88,491.42,161.77v360.42Zm-1115.93,75.77h713.58q130.515,2.04,261.07,4.09c13.69,9.37,19.93,149.7,12.28,182.26-8.45,36.01-173.85,22.53-225.23,22.52l-766.82-2.04C982.98,2616.88,987.508,2438.13,1017.01,2424.24Zm31.73,53.24v102.39H1950.7V2477.48H1048.74Z"/>
</svg>
