<svg id="end" xmlns="http://www.w3.org/2000/svg" width="3000" height="3000" viewBox="0 0 3000 3000">
  <defs>
    <style>
      .cls-1 {
        fill-rule: evenodd;
      }
    </style>
  </defs>
  <path id="_206" data-name="206" class="cls-1" d="M1700.9,312.948c121.24-.272,708.05-22.19,745.32,25.6,30.92,39.645,14.33,518.077,14.33,617.414V2791.82c0,44.69,9.74,114.39-5.12,149.49-28.03,66.22-333.08,40.96-438.18,40.95l-1428.189-1.02c-76-19.51-51.193-171.1-51.19-264.17V754.25c0-77.054-13.428-380.837,13.31-415.7,36.28-47.313,630.389-25.851,751.459-25.6-0.31-51.236-9.45-271.221,5.12-294.884,42.56-9.828,389.33.521,392.12,6.143Q1700.39,168.563,1700.9,312.948ZM1504.33,120.454c-94.09,5.848-107.56,140.02,1.02,152.562C1585.19,282.236,1621.28,126.833,1504.33,120.454Zm-833.366,325.6V2850.18l1656.5-1.02V446.055H1700.9c0.4,24.136,4.21,133.311-6.14,140.275l-371.64,2.048q-9.21-3.072-18.43-6.144-1.02-68.082-2.05-136.179H670.964ZM1111.19,733.772h618.38l167.9,4.1c14.23,9.728,19.48,149.034,12.28,182.255-8.38,38.732-132.11,22.527-179.16,22.526-78.6,0-608.28,11.362-630.66-6.144C1075.28,917.213,1086.09,745.635,1111.19,733.772Zm31.74,53.243V889.406h713.59V787.015H1142.93Zm332.73,250.855c380.13,2.34,489.72,346.51,378.81,695.23-29.34,92.24-62.3,196.74-102.69,250.4-28.95,52.73-159.16,117.42-249.5,145.85q-42.48-15.36-84.97-30.71c-56.28-24.98-113.65-47.89-153.57-89.08-77.6-80.06-207.69-464.68-161.76-647.11,38.87-154.4,144.06-268.7,272.33-306.15C1430.08,1041.16,1441.88,1044.01,1475.66,1037.87Zm657.28,1738.59H863.437q0.511-180.2,1.024-360.41,245.683-81.4,491.419-162.8-1.02-83.955-2.05-167.93c46.83,22.39,131.32,58.49,145.19,57.88s95.41-33.25,143.52-57.88c0.28,56.55-3.73,106.81-2.1,168.86,166.92,54.69,329.73,108.29,492.5,161.87v360.41Z"/>
</svg>
