<svg id="end" xmlns="http://www.w3.org/2000/svg" width="3000" height="3000" viewBox="0 0 3000 3000">
  <defs>
    <style>
      .cls-1 {
        fill-rule: evenodd;
      }
    </style>
  </defs>
  <path id="_176" data-name="176" class="cls-1" d="M2611.62,506.659C2854.32,757.863,2995.64,1151.73,2991,1511c-6.42,251.08-64.81,741.4-468,1066-164.01,87.13-326.85-46.88-249.97-241.64,90.54-107.63,214.98-283.14,214.98-283.14,97.79-195.24,142.81-439.4,140.65-490.64-5.38-127.13,6.6-398.9-136.22-590.661-59.79-141.8-156.57-215.608-210.42-268.26C2272.45,678.726,2172.78,546.465,2318,432,2480.86,354.1,2534.18,424.806,2611.62,506.659ZM489.925,428.045C744.761,314.5,824.458,587.287,736.985,681.176,667.2,740.32,566.979,893.388,549.317,921.143S441.177,1059.58,391.491,1417.27c-11.839,355.17,99.012,687.48,345.263,905.31,21.31,21.31,88.825,130.07-39.037,243.73-151.539,97.73-236.085-22.82-286.547-60.67S-5.753,2047.97,22,1432.33c35.324-461.736,217.251-706.125,272.76-789.388S449.555,455.8,489.925,428.045ZM958,836c264.77-113.786,345.23,203.78,203,311-54.7,63.46-163.44,178.81-156.88,366.99S1117.56,1820.01,1122,1821c0,0,134.84,103.93,104.2,211.15-10.94,45.95,4.52,115.7-150.84,157.28-137.853,13.13-233.162-115.62-298.808-220.66S638.435,1720.65,645,1434,852.967,921.339,958,836Zm1194.66,84.089c22.69,25.112,218.38,252.191,221.53,580.141-0.29,305.39-158.34,556.11-318.02,666.79-166.15,115.18-354.51-69.82-257.82-245.45,120.35-123.42,185.09-195.21,205.9-349.42,5.91-92.27,18.1-209.35-86.68-360.36-86.28-89.32-226.31-213.672-62.11-362.856C1978.97,749.844,2131.55,896.717,2152.66,920.089ZM1497.64,1283.46c283.41-1.51,322.43,404.9,19.42,439.57C1198.97,1717,1220.25,1304.57,1497.64,1283.46Z"/>
</svg>
