<?xml version="1.0" encoding="utf-8"?>
<!-- Generator: Adobe Illustrator 24.0.2, SVG Export Plug-In . SVG Version: 6.00 Build 0)  -->
<svg version="1.1" id="Layer_3" xmlns="http://www.w3.org/2000/svg" xmlns:xlink="http://www.w3.org/1999/xlink" x="0px" y="0px"
	 viewBox="0 0 3000 3000" style="enable-background:new 0 0 3000 3000;" xml:space="preserve">
<style type="text/css">
	.st0{fill-rule:evenodd;clip-rule:evenodd;}
</style>
<path class="st0" d="M2668.3,1500c0-194.7,105.8-364.8,263-455.7l-321.6-557.1c-77.8,45.5-168.4,71.6-265.1,71.6
	c-290.6,0-526.2-235.6-526.2-526.2h-640.5c0,290.6-235.6,526.2-526.2,526.2c-95.5,0-185.1-25.5-262.3-70L68.7,1044.3
	c157.2,91,263,261,263,455.7c0,194.7-105.8,364.8-263,455.7l320.7,555.5c77.2-44.5,166.8-70,262.3-70
	c290.6,0,526.2,235.6,526.2,526.2h640.5c0-290.6,235.6-526.2,526.2-526.2c96.7,0,187.2,26.1,265.1,71.6l321.6-557.1
	C2774.1,1864.8,2668.3,1694.7,2668.3,1500z M1500,2209.9c-392.1,0-709.9-317.8-709.9-709.9s317.8-709.9,709.9-709.9
	s709.9,317.8,709.9,709.9S1892.1,2209.9,1500,2209.9z"/>
</svg>
