<svg id="V3" xmlns="http://www.w3.org/2000/svg" width="3000" height="3000" viewBox="0 0 3000 3000">
  <defs>
    <style>
      .cls-1 {
        fill-rule: evenodd;
      }
    </style>
  </defs>
  <path id="_142" data-name="142" class="cls-1" d="M2818.16,1263.7c-247.06,252.75-619.05,307-861.04,115.31Q1209.745,2124.945,462.23,2871.02q-106.019-104.8-212.057-209.65Q996.959,1913.7,1743.89,1165.87C1427.88,709.347,1844.24,74.755,2391.72,131.591c454.83,47.216,673.51,507.3,576.75,865.39C2942.26,1093.97,2881.54,1160.94,2818.16,1263.7ZM2687.67,713.953c134.6-194.2-129.36-407.591-285.47-215.474C2245.4,701,2539.88,899.134,2687.67,713.953ZM1052.96,1807.63q-414.168,414.015-828.42,828.12L8.987,2420.27c63.394-67.32,163.207-161.58,163.207-161.58s70.679-13.28,115.264-11.96c3.287-52.06,2.258-106.62,2.258-106.62l40.892-41.23s97.13-6.55,104.824-7.06c0.513-4.61,15.15-113.01,15.15-113.01l40.441-41.96s68.575-5.04,106.364.06c3.5-55.24,8.916-115.78,8.916-115.78l44.442-42.11s51.892-4.91,108.032-6.46c1.688-42.5,2.111-102.6,2.111-102.6s42.533-44.75,76.52-77.8Q945.174,1699.875,1052.96,1807.63Z"/>
</svg>
