<svg id="V3" xmlns="http://www.w3.org/2000/svg" width="3000" height="3000" viewBox="0 0 3000 3000">
  <defs>
    <style>
      .cls-1 {
        fill-rule: evenodd;
      }
    </style>
  </defs>
  <path id="_141" data-name="141" class="cls-1" d="M804.074,155.987C861.525,123.022,1017.99-6.4,1105,15.408c89.34,39.946,433.66,719.272,451.26,745.861,3.35,26.024-2.85,76.709-44.81,104.736s-156.26,94.332-178.72,108.762c-40.92,24.354-108.85,32.063-132.46,17.836-34-30.949-286.043-480.579-429.044-720.833C754.025,219.832,765.636,185.028,804.074,155.987ZM645.466,318.87c26.329-15.2,51.187-26.145,76.777-39.216Q931.412,641.837,1140.62,1004.09q-48.525,48.4-97.06,96.8-18.615,60.45-37.25,120.9c-68.395,331.58,347.39,944.46,591.36,956.49,48.55,28.72,141.84-5.03,204.19-29.23q206.82,355.9,413.67,711.87c-44.47,60-186.54,91.56-270.05,115.09q-66.915,5.49-133.86,11-83.37-29.61-166.76-59.22-136.98-106.965-273.98-213.96-99.585-101.79-199.18-203.61c-56.36-71.11-101.57-137.32-169.09-213.34-351.132-453.56-508.866-997.96-598.243-1265.42-50.5-151.117-25.65-401.427,29.99-521.93C503.761,407.358,619.136,334.067,645.466,318.87Zm-12.28,9.637h0ZM1191.46,120.971h0ZM540,1478.19h0Zm522.445,909.04h0Zm1011.48-517.54c47.55-8.27,80.94-19.65,130.92,5.99,45.41,23.3,364.46,637.16,418.35,730.14,9.75,45.66-73.75,117.03-148.38,162.02s-133.56,92.76-196.68,52.45c-60.86-91.13-458.97-668.44-441.14-778.16,8.92-54.95,150.96-122.48,190.23-142.93Q2050.575,1884.44,2073.92,1869.69ZM1422.6,2768.08h0Z"/>
</svg>
