<svg id="V3" xmlns="http://www.w3.org/2000/svg" width="3000" height="3000" viewBox="0 0 3000 3000">
  <defs>
    <style>
      .cls-1 {
        fill-rule: evenodd;
      }
    </style>
  </defs>
  <path id="_135" data-name="135" class="cls-1" d="M2427.04,14c65.05,8.731,150.07,9.373,200.74,37.642q-189.225,189.235-378.47,378.507c0.7,2.091,1.39,4.182,2.09,6.273L2565.05,750.1q191.295-190.279,382.64-380.6c1.4,0.7,2.79,1.394,4.19,2.091,113.43,381.544-106.22,708.936-441.2,759.106-94.77,14.19-220.95,4.02-299.01-35.55L1101.37,2205.57c54.83,187.62,43.9,373.38-56.46,529.07-32.31,50.13-74.483,90.67-121.277,131.75q-4.182,2.085-8.364,4.18c-26.878,20.31-152.613,97.35-171.46,85.74-93.666,38.66-303.788,42.48-368.011-14.64l378.466-380.59q-157.853-158.925-315.737-317.87h-2.091Q247.222,2432.45,57.97,2621.72c-30.038-48.57-51.5-156.34-35.546-232.12,57.843-274.75,144.46-430.06,416.1-514.44,123.943-38.5,255.507,7.29,355.466,23.01q556.135-556.2,1112.4-1112.519c-129.57-321.609,60.49-592.465,271.83-715.189C2257.82,24.238,2333.47,49.4,2427.04,14ZM1849.93,982.223q-395.145,394.151-790.38,788.377,6.27,8.37,12.54,16.73c53.76-15.24,108.65-100.29,146.37-138.02q234.165-234.18,468.38-468.42c34.01-34.01,174.96-154.75,175.64-190.3Q1856.21,986.406,1849.93,982.223Zm150.55,156.837c-496.46,493.31-749.35,744.92-762.84,758.88-10.2,11.52-32.03,28.76-19.18,39.96,14.99,12.92,29.97-9.99,36.04-14.07,52.94-46.79,221.28-224,764.8-774.31Q2009.9,1144.285,2000.48,1139.06Z"/>
</svg>
