<svg id="end" xmlns="http://www.w3.org/2000/svg" width="3000" height="3000" viewBox="0 0 3000 3000">
  <defs>
    <style>
      .cls-1 {
        fill-rule: evenodd;
      }
    </style>
  </defs>
  <path id="_208" data-name="208" class="cls-1" d="M1700.9,312.948c121.24-.272,708.05-22.19,745.32,25.6,30.92,39.645,14.33,518.077,14.33,617.414V2791.82c0,44.69,9.74,114.39-5.12,149.49-28.03,66.22-333.08,40.96-438.18,40.95l-1428.189-1.02c-76-19.51-51.193-171.1-51.19-264.17V754.25c0-77.054-13.428-380.837,13.31-415.7,36.28-47.313,630.389-25.851,751.459-25.6-0.31-51.236-9.45-271.221,5.12-294.884,42.56-9.828,389.33.521,392.12,6.143Q1700.39,168.563,1700.9,312.948ZM1504.33,120.454c-89.17,5.405-109.77,142.292,1.02,152.562C1590.75,274.637,1619.45,123.7,1504.33,120.454Zm-833.366,325.6V2850.18l1656.5-1.02V446.055H1700.9c0.4,24.136,4.21,133.311-6.14,140.275l-371.64,2.048q-9.21-3.072-18.43-6.144-1.02-68.082-2.05-136.179H670.964ZM1476.69,609.88c381.01-4.329,489.59,348.016,377.78,695.23-30.51,94.74-52.45,190.35-107.5,260.07-36.78,46.58-174.61,115.8-248.14,134.74-25.55-8.8-53.54-19.04-81.52-29.28-56.08-25.33-113.41-47.98-153.57-89.08-83.24-85.16-207.78-473.06-158.69-661.437,39.26-150.636,137.45-246.9,279.5-294.885Zm656.25,1738.59H863.437q0.511-180.195,1.024-360.42,245.683-80.88,491.419-161.77c-0.68-56.31-2.05-168.95-2.05-168.95s113.66,53.53,144.48,58.73c30.42-4,144.23-58.73,144.23-58.73s-0.68,112.64-1.02,168.95q245.685,80.88,491.42,161.77v360.42ZM888.008,2424.24H1804.3c51.05-.01,297.46-12.68,319.43,6.14,16.99,14.56,17.18,130.29,9.21,162.8-8,32.61-230.6,20.48-284.61,20.48q-482.67-1.02-965.441-2.05C850.691,2595.79,861.093,2437.18,888.008,2424.24Zm32.761,53.24v82.94H2079.7v-82.94H920.769Z"/>
</svg>
