<svg id="end" xmlns="http://www.w3.org/2000/svg" width="3000" height="3000" viewBox="0 0 3000 3000">
  <defs>
    <style>
      .cls-1 {
        fill-rule: evenodd;
      }
    </style>
  </defs>
  <path id="_192" data-name="192" class="cls-1" d="M1177.74,214c202.01,13.962,338.46,72.685,435.49,189.587,27.36,32.965,64.94,66.405,79.92,110.677,42.26-19.781,75.43-59.416,123.99-80.958,188.23-83.517,357.98,59.971,418.07,174.215,23.04,43.811,13.16,88.969,29.71,143.471,63.93-43.606,210.29-106.794,327.9-67.637l94.27,23.571c124.94,54.5,214.08,140.561,268.46,268.5,133.22,313.409-131.32,634.889-422.16,638.449,19.28,74.4,91.11,196.16,60.45,318.71-22.82,91.22-35.14,160.6-75.82,230.58-130.83,225-483.73,379.57-780.81,196.76-93.8-57.72-149.43-134.13-210.06-225.46h-1.02c-57.33,103.61-122.78,171.61-223.38,231.61q-64.035,22.53-128.08,45.09c-271.575,64.95-467.552-112.02-552.305-275.67-10.209-19.71-38.669-68.21-33.815-93.26-48.726,9.04-100.434-8.2-131.158-23.57-142.446-71.25-221.018-204.09-155.751-398.64C148.517,1547.29,80.7,1441.83,22.929,1271.59c-18.1-53.36-12.259-152.69,5.123-200.86C99.795,871.921,170.411,784.8,365.171,710l89.147-14.347c46.546-11.189,124.667-3.7,160.874,11.273h1.025C640.3,480.132,800.527,336.39,971.779,256.016q62.506-17.42,125.011-34.843ZM914.4,1128.12c-277.773,19.94-270.95,439.93,15.371,424.26S1192.17,1108.17,914.4,1128.12Zm525.663,1.02c-270.65,25.64-268.9,410.02,17.42,424.26C1763.74,1553.4,1710.71,1103.5,1440.06,1129.14Zm532.83,0c-272.08,18.52-267.88,417.14,18.44,424.26C2266.26,1557.68,2259.21,1112.04,1972.89,1129.14ZM659.253,1634.36h0Zm-174.2,625.13C247,2280.19,234.1,2669.87,532.193,2661.21,746.254,2631.54,774.865,2256.53,485.058,2259.49ZM103.878,2565.9c140.468-16.27,169.765,165.59,43.037,216.23C8.971,2822.03-58.768,2605.83,103.878,2565.9Z"/>
</svg>
