<svg id="V3" xmlns="http://www.w3.org/2000/svg" width="3000" height="3000" viewBox="0 0 3000 3000">
  <defs>
    <style>
      .cls-1 {
        fill-rule: evenodd;
      }
    </style>
  </defs>
  <g id="wallet">
    <path id="_151" data-name="151" class="cls-1" d="M1877.5,286.987l102.73,189.952c0.05,0.122-975.03,322.853-975.03,322.853s-84.054,4.528-108.5.841ZM2371.78,475q56.2,162.8,112.42,325.632c-1.29.646-2.58,1.292-3.88,1.938l-1083.53-1.938c0.65-1.292,1.29-2.585,1.94-3.877ZM10.873,920.806L2807.9,922.745V1364.67c-131.07,14.44-1005.6.87-1005.6,0.87s-62.4,0-63.65,58.04c3.15,113.69,1.56,287.5,1.23,435.36q5.8,185.085,11.63,370.21c44.4,59.76,898.41,9,1056.39,27.13v511.71H7Q8.934,1844.485,10.873,920.806ZM1861.99,1484.85q565.95,0.96,1132,1.94v647.38H1858.12Q1860.055,1809.54,1861.99,1484.85Zm302.38,228.71c-148.32,8.94-137.15,229.46,11.63,215.15C2308.75,1915.95,2312.7,1704.63,2164.37,1713.56Z"/>
  </g>
</svg>
