<svg id="end" xmlns="http://www.w3.org/2000/svg" width="3000" height="3000" viewBox="0 0 3000 3000">
  <defs>
    <style>
      .cls-1 {
        fill-rule: evenodd;
      }
    </style>
  </defs>
  <path id="_179" data-name="179" class="cls-1" d="M21.383,527L2987,529.46v723.26l-2.46,2.46H2155.15q87.36,439.08,174.74,878.25c11.12,54.4,69.16,275.56,46.76,312.43-25.44,41.88-315.16,24.6-396.24,24.6l-1368.365-7.38c-53.562-36.58,10.938-237.24,24.611-300.13q88.592-452.61,177.2-905.31v-2.46H16.461L14,1252.72Q17.691,889.9,21.383,527ZM1500.5,723.806l-883.532,4.921q-1.231,2.459-2.461,4.92,1.23,166.038,2.461,332.113c78.747,0,181.728,9.91,236.265,0,33.713-119.934,13.56-139.977,44.3-174.668,114.028-3.965,787.588,3.28,1181.328,4.92q19.68,87.324,39.37,174.668l270.72-4.92q-2.46-169.732-4.92-339.494ZM1210.09,940.293l-130.44,2.461c39.49,87.1-106.82,136.326-159.968,78.726L732.639,2153.11c92.856-4.13,156.649,48.83,169.815,130.39q-4.921,44.28-9.844,88.56H2083.78c-37.02-121.92,37.86-229.54,157.51-218.95L2056.71,1023.94c-62.31,43.51-196.67,12.24-159.97-81.186Zm239.48,103.5c119.47-1.41,160.45,20.79,176.45,58.87,16.93,85.56-185.27,111.16-275.65,34.44C1326.51,1079.39,1397.37,1051.31,1449.57,1043.79Zm-5.68,260.6c255.42-7.27,542.94,112.6,425.77,319.81-139.22,189.99-666.35,195.43-785.08-31.99C1031.05,1370.15,1325.73,1320.74,1443.89,1304.39Zm29.54,632.24c102.84-5.95,247.33,76.84,145.2,179.58-78.59,60.84-266.3,45.98-300.25-54.12C1319.33,1966.27,1412.79,1947.92,1473.43,1936.63Z"/>
</svg>
