<svg id="V1" xmlns="http://www.w3.org/2000/svg" width="3000" height="3000" viewBox="0 0 3000 3000">
  <defs>
    <style>
      .cls-1 {
        fill-rule: evenodd;
      }
    </style>
  </defs>
  <path id="_64" data-name="64" class="cls-1" d="M1893.3,315.18c148.5-2.5,267.75,22.618,373.78,64.387,338.14,133.195,556.96,403.518,665.91,766.893,43.58,145.36,70.56,362.46,36.81,541.54-13.84,73.4-27.4,141.82-48.31,208.11-111.31,352.9-369.86,634-723.41,745.05-88.89,27.92-191.18,44.9-304.78,44.84V2553.78c84.88-6.12,160.46-10.49,231.17-29.9,339.17-93.08,544.15-332.73,663.61-646.17,77.83-204.22,76.27-506.67,10.35-719.75C2683.58,786.71,2378.71,446.775,1893.3,447.4V315.18ZM1755.29,445.1c61.59-.634,49.46,60.5,49.45,119.576V915.358q-0.57,785.208-1.15,1570.582c-4.93,21.36-31.1,38.58-57.5,27.59l-100.06-72.43q-225.975-168.42-451.99-336.88H107.188c-31.262,0-67.824,3.78-81.657-13.8-12.815-16.29-10.353-47.82-10.351-77.03V972.847c0-32.144-2.529-65.939,12.651-82.784,15.078-16.731,52.291-12.65,83.957-12.647l204.719-1.15,854.523-1.15q74.76-56.332,149.52-112.677,135.69-100.02,271.42-200.06C1645.34,523.254,1694.57,475.909,1755.29,445.1Zm138.01,198.91c404.35-5.954,661.25,258.126,757.92,558.787,58.27,181.25,61.81,433.74-8.05,608.23-116.94,292.03-343.61,531.26-749.87,533.49V2211.15c340.39,4.72,554.33-223.27,633.71-480.61,43.99-142.62,48.87-351-3.45-490.95-95.7-255.938-279.31-460.893-630.26-462.2V644.013Zm0,319.635c56.69-.711,109.83-0.114,152.96,12.648,176.97,52.364,291.58,175.884,345.03,351.824,20.3,66.8,35.14,170.99,18.41,256.4-7.9,40.31-16.81,80.84-31.06,116.13-61.36,151.96-174.99,272.2-347.33,312.74-41.41,9.74-89.35,10.3-138.01,12.64V1891.51c205.81,3.03,306.67-106.55,363.43-252.95,33.34-85.97,30.78-221.22-3.45-304.69-57.69-140.67-158.85-237.57-359.98-236.85V963.648Z"/>
</svg>
