<?xml version="1.0" encoding="utf-8"?>
<!-- Generator: Adobe Illustrator 24.0.2, SVG Export Plug-In . SVG Version: 6.00 Build 0)  -->
<svg version="1.1" id="Layer_2" xmlns="http://www.w3.org/2000/svg" xmlns:xlink="http://www.w3.org/1999/xlink" x="0px" y="0px"
	 viewBox="0 0 3000 3000" style="enable-background:new 0 0 3000 3000;" xml:space="preserve">
<g>
	<polygon points="1229.7,1049.8 418.2,238.3 1229.7,238.3 1229.7,106.1 106.1,106.1 106.1,1229.7 238.3,1229.7 238.3,418.2 
		1049.8,1229.7 	"/>
	<polygon points="1950.2,1229.7 2761.7,418.2 2761.7,1229.7 2893.9,1229.7 2893.9,106.1 1770.3,106.1 1770.3,238.3 2581.8,238.3 
		1770.3,1049.8 	"/>
	<polygon points="1770.3,1950.2 2581.8,2761.7 1770.3,2761.7 1770.3,2893.9 2893.9,2893.9 2893.9,1770.3 2761.7,1770.3 
		2761.7,2581.8 1950.2,1770.3 	"/>
	<polygon points="1049.8,1770.3 238.3,2581.8 238.3,1770.3 106.1,1770.3 106.1,2893.9 1229.7,2893.9 1229.7,2761.7 418.2,2761.7 
		1229.7,1950.2 	"/>
</g>
</svg>
