<?xml version="1.0" encoding="UTF-8" standalone="no"?>
<!-- Creator: CorelDRAW -->

<svg
   xmlns:dc="http://purl.org/dc/elements/1.1/"
   xmlns:cc="http://creativecommons.org/ns#"
   xmlns:rdf="http://www.w3.org/1999/02/22-rdf-syntax-ns#"
   xmlns:svg="http://www.w3.org/2000/svg"
   xmlns="http://www.w3.org/2000/svg"
   xmlns:sodipodi="http://sodipodi.sourceforge.net/DTD/sodipodi-0.dtd"
   xmlns:inkscape="http://www.inkscape.org/namespaces/inkscape"
   id="svg1707"
   xml:space="preserve"
   height="3000"
   width="4000"
   version="1.0"
   viewBox="-2002 0 17795.556 10020"
   sodipodi:docname="ar_v1.svg"
   inkscape:version="0.92.4 (5da689c313, 2019-01-14)"><defs
     id="defs4105" /><sodipodi:namedview
     pagecolor="#ffffff"
     bordercolor="#666666"
     borderopacity="1"
     objecttolerance="10"
     gridtolerance="10"
     guidetolerance="10"
     inkscape:pageopacity="0"
     inkscape:pageshadow="2"
     inkscape:window-width="1600"
     inkscape:window-height="877"
     id="namedview4103"
     showgrid="true"
     inkscape:zoom="0.1475"
     inkscape:cx="2080.5071"
     inkscape:cy="1344.9931"
     inkscape:window-x="-8"
     inkscape:window-y="-8"
     inkscape:window-maximized="1"
     inkscape:current-layer="layer7"><inkscape:grid
       type="xygrid"
       id="grid4802" /></sodipodi:namedview><metadata
     id="metadata1863"><rdf:RDF><cc:Work
         rdf:about=""><dc:format>image/svg+xml</dc:format><dc:type
           rdf:resource="http://purl.org/dc/dcmitype/StillImage" /><dc:title></dc:title></cc:Work></rdf:RDF></metadata><g
     inkscape:groupmode="layer"
     id="layer3"
     inkscape:label="back"
     style="display:inline"
     transform="translate(0,10677.334)"
     sodipodi:insensitive="true"><path
       inkscape:connector-curvature="0"
       style="fill:#006233;fill-opacity:1;stroke-width:4.71395111"
       id="21399192"
       d="M 15793.556,1005.7995 V -12340.667 l -17795.556,0.2 V 1005.9995 h 17795.556 z"
       class="fil0 str0" /><path
       style="fill:#006233;fill-opacity:1;stroke-width:1.69491529"
       d="m 2127.6443,1682.3298 c 2.3305,-0.7828 21.0169,-6.1192 41.5254,-11.8586 121.6677,-34.0496 203.8484,-69.691 262.1437,-113.6905 30.4859,-23.0097 59.6467,-57.24 75.3826,-88.4872 7.9633,-15.813 16.7291,-42.689 20.2997,-62.2389 4.4393,-24.3065 4.0353,-68.9992 -0.8784,-97.1748 -8.1266,-46.5984 -23.7833,-92.3321 -49.4176,-144.3507 -16.1836,-32.8406 -45.8391,-84.2251 -46.8532,-81.183 -0.3409,1.0228 1.2582,11.3175 3.5536,22.8772 15.555,78.3357 22.8988,151.9707 24.2402,243.0516 1.2393,84.1539 -2.5097,138.6761 -10.4891,152.5424 -8.4924,14.7577 -35.2937,35.7407 -57.9107,45.3387 -23.148,9.8234 -48.5353,10.6255 -66.1263,2.0894 -21.4131,-10.3909 -39.6606,-36.2638 -48.2745,-68.4477 -2.0342,-7.6001 -4.2528,-13.607 -4.9302,-13.3486 -0.6774,0.2584 -6.0073,6.9529 -11.8442,14.8766 -78.1951,106.1511 -171.3105,150.3918 -216.0142,102.632 l -8.4746,-9.0539 -16.9492,5.6609 c -9.322,3.1136 -24.0826,7.0948 -32.8012,8.8472 l -15.8521,3.1862 -9.8398,11.9236 c -25.4289,30.8139 -60.0942,52.6436 -101.9903,64.2263 -19.6932,5.4444 -56.8103,7.4373 -77.2225,4.1463 -31.9934,-5.1583 -57.9218,-18.1475 -79.2682,-39.7107 -20.1127,-20.3169 -31.3459,-44.3541 -34.3166,-73.4318 l -1.2516,-12.2518 -10.7115,7.4635 c -14.5579,10.1436 -34.0452,20.0884 -50.3292,25.6843 -10.9041,3.747 -16.666,4.6697 -29.6373,4.7457 -19.2828,0.1131 -30.0969,-2.3152 -48.7496,-10.9465 -23.2574,-10.7622 -39.6028,-29.2077 -45.4963,-51.3419 -5.5007,-20.659 -1.3147,-49.2539 10.9542,-74.8302 6.2344,-12.9964 17.19,-31.585 17.19,-29.1666 0,0.637 -1.9373,8.6041 -4.305,17.7047 -12.8988,49.5774 -3.385,83.7475 27.6727,99.3898 32.5423,16.3901 91.0768,4.9907 129.5904,-25.2373 8.3713,-6.5704 9.151,-7.825 11.8492,-19.0673 3.5282,-14.7009 12.8362,-38.6638 22.6269,-58.2514 5.6355,-11.2746 6.6883,-14.5773 4.5924,-14.4068 -4.3584,0.3547 -27.4772,-34.0615 -27.5559,-41.0217 -0.055,-4.8335 7.1431,-25.7983 11.5782,-33.7234 1.0558,-1.8866 4.8211,2.3124 15.004,16.7324 7.477,10.588 15.19,20.6783 17.1401,22.4229 3.2721,2.9272 3.3544,3.5417 1.0662,7.9666 -5.1794,10.0157 -2.0867,6.6517 8.8053,-9.5778 12.2878,-18.3093 22.1939,-31.6655 34.9519,-47.1247 4.5257,-5.4839 7.6052,-10.554 6.8434,-11.2669 -0.7619,-0.7128 -6.2878,-4.4364 -12.2799,-8.2746 -18.9131,-12.1145 -39.9882,-16.3523 -59.2443,-11.9129 -4.0849,0.9417 -7.8516,1.2877 -8.3705,0.7688 -1.6903,-1.6903 5.903,-15.0836 13.2739,-23.4129 23.4336,-26.4803 71.0748,-43.5343 121.663,-43.5514 39.7883,-0.014 68.4336,11.1263 78.2896,30.4458 3.0439,5.9665 3.0497,6.4463 0.156,12.9099 -5.9053,13.1898 -20.1153,23.9485 -50.8917,38.5312 -16.6121,7.8712 -17.5191,8.5487 -12.7948,9.557 11.0076,2.3495 40.0961,-1.0141 56.5818,-6.5427 15.2182,-5.1034 33.3622,-14.0759 41.0457,-20.2977 l 3.6091,-2.9224 -2.7803,-58.3862 c -5.0104,-105.219 -9.0062,-148.4151 -14.8584,-160.6276 -5.4165,-11.3031 -3.745,-27.8829 5.5311,-54.8642 l 7.396,-21.5124 5.6072,11.343 c 3.084,6.2386 10.2518,17.3359 15.9284,24.6607 18.1436,23.411 18.8377,30.9434 4.5672,49.5621 l -8.5751,11.1879 3.547,32.4576 c 4.1059,37.5729 6.3425,73.185 7.8982,125.7574 l 1.1057,37.3676 -12.5694,16.8697 c -25.3143,33.9749 -44.1095,47.6384 -79.4909,57.7875 -13.9026,3.9879 -16.3765,4.2404 -24.2602,2.4762 -11.0616,-2.4755 -26.7379,-9.8495 -39.8084,-18.7255 -5.5656,-3.7795 -10.9657,-6.8719 -12.0002,-6.8719 -5.0713,0 -43.6352,29.7093 -54.2362,41.7831 -6.485,7.3861 -6.258,7.5944 12.7108,11.6642 10.4036,2.232 24.2099,3.0424 59.322,3.4818 25.1695,0.315 57.5459,0.9988 71.9475,1.5195 68.5375,2.4782 99.8303,19.9613 109.5521,61.2061 3.783,16.0497 2.4496,52.0463 -2.6227,70.8049 -1.9841,7.3376 -3.2104,13.738 -2.7251,14.2233 0.4852,0.4852 8.4159,-1.5059 17.6236,-4.4248 l 16.7414,-5.3071 0.9812,-15.6958 c 1.194,-19.0973 7.1984,-40.4963 17.4382,-62.1469 4.1471,-8.7684 7.8197,-15.6328 8.1614,-15.2542 0.3416,0.3785 -0.9004,7.5527 -2.76,15.9425 -3.7958,17.1246 -5.1408,58.8092 -2.0646,63.9871 1.615,2.7184 3.051,2.3095 16.9491,-4.8265 20.7796,-10.6692 47.2861,-26.7672 68.5745,-41.6469 l 17.7966,-12.4391 0.4713,-23.2558 0.4713,-23.2557 -4.7086,-0.9582 c -2.5897,-0.527 -9.2821,-2.1278 -14.872,-3.5573 -31.1958,-7.9777 -54.6356,-32.2221 -62.9054,-65.0645 -2.105,-8.3598 -2.5753,-15.9224 -1.9498,-31.3559 0.8747,-21.5808 4.7285,-36.6605 14.2108,-55.6054 5.5736,-11.1358 22.7648,-37.2399 23.826,-36.1787 0.4393,0.4393 -1.4677,7.923 -4.2379,16.6304 -9.1687,28.82 -11.3161,41.2156 -11.2574,64.9842 0.047,19.0928 0.5878,23.3779 4.051,32.1032 7.6298,19.2231 24.9899,31.4626 48.554,34.232 l 9.3798,1.1025 -0.9049,-12.5324 c -0.4976,-6.8929 -1.3381,-26.6426 -1.8678,-43.8884 -1.6571,-53.9616 -6.658,-129.7033 -13.5966,-205.9322 -2.0868,-22.926 -3.3731,-30.1988 -6.2951,-35.5932 -6.9223,-12.7797 -3.9529,-34.6812 9.9961,-73.7288 0.5869,-1.6429 2.6481,0.8711 5.8258,7.1057 2.7046,5.3064 10.6445,16.7471 17.6443,25.4237 6.9997,8.6766 13.4773,18.4211 14.3946,21.6544 2.3686,8.3489 -0.2788,16.4576 -9.4333,28.8932 l -7.7325,10.5038 2.6502,29.9045 c 5.1232,57.8106 8.1187,116.3662 10.4387,204.0571 0.9863,37.2796 1.4188,41.9478 3.8854,41.9372 9.1369,-0.039 60.6945,-16.0914 65.1978,-20.2992 1.5511,-1.4492 -13.0074,-40.4013 -25.9911,-69.5408 l -8.3141,-18.6594 9.6636,-16.0833 c 5.3149,-8.8459 10.1874,-16.0834 10.8276,-16.0834 3.3271,0 29.9432,55.1423 41.9928,86.999 l 6.3015,16.6601 21.0403,-14.0453 c 26.8703,-17.9371 52.5688,-42.9955 60.6149,-59.1053 l 5.5025,-11.0169 -35.2505,-1.0667 c -44.6718,-1.3518 -57.5176,-4.453 -69.1487,-16.6939 -10.6853,-11.2455 -5.2086,-31.6326 15.117,-56.2743 33.6985,-40.8543 69.9754,-32.3761 92.4482,21.6058 7.7609,18.6425 14.2233,48.4271 12.9307,59.5966 -3.4678,29.9672 -32.2998,65.6356 -80.3729,99.4304 -11.7185,8.238 -13.9601,10.5363 -13.2062,13.5401 3.2661,13.0133 6.6027,39.0733 7.6105,59.4407 1.086,21.9486 1.6009,24.7128 6.5824,35.3393 22.9018,48.8535 86.7721,58.168 129.0771,18.8238 l 9.2805,-8.631 -2.0378,-45.6063 c -3.4605,-77.4424 -8.787,-133.6557 -25.0391,-264.2503 -5.1044,-41.0169 -11.1396,-90.083 -13.4115,-109.0358 l -4.1308,-34.4595 12.237,-16.7655 c 6.7303,-9.2211 12.7826,-16.78634 13.4496,-16.81171 0.6669,-0.0254 9.2545,10.71301 19.0834,23.86311 63.2027,84.5582 103.1926,179.0746 112.6624,266.2782 2.574,23.7029 2.1984,70.9318 -0.7413,93.2003 -15.4781,117.2515 -86.7257,211.6362 -197.6195,261.7952 -50.6424,22.9063 -108.3613,36.5357 -174.4282,41.1884 -29.902,2.1058 -55.3163,2.1438 -49.1525,0.073 z m -282.2034,-43.9609 c 28.4165,-6.0006 53.6101,-17.0079 76.9917,-33.6382 11.9795,-8.5205 11.5709,-10.1784 -2.568,-10.4214 -10.6944,-0.1838 -32.4619,-6.2668 -45.7637,-12.7888 -20.8845,-10.2399 -37.1929,-29.291 -44.2887,-51.7371 -4.157,-13.1498 -3.766,-46.9451 0.7477,-64.6278 l 3.3012,-12.9328 -23.8711,-1.1569 c -32.7887,-1.5891 -65.0876,-6.4803 -79.3796,-12.0208 -2.5088,-0.9725 -2.97,-0.1418 -2.9912,5.3874 -0.094,24.5404 -15.8496,56.4652 -40.8622,82.7969 -12.999,13.6846 -13.5795,15.7262 -8.9511,31.4836 4.7622,16.2128 12.6664,28.8629 26.933,43.1043 35.244,35.1816 85.4392,48.2213 140.702,36.5516 z m 270.373,-76.5025 c 23.5,-6.5067 50.2429,-20.8602 78.7795,-42.2828 18.3011,-13.7388 53.477,-45.5265 62.2004,-56.2093 l 6.2683,-7.6761 -2.4532,-17.6185 c -2.3151,-16.6268 -7.2077,-41.678 -8.6295,-44.1854 -0.3566,-0.6289 -8.4785,2.5501 -18.0487,7.0643 -16.053,7.5722 -46.4994,18.7389 -57.5576,21.1102 l -4.661,0.9995 v 29.4008 29.4009 l -19.1301,18.532 c -20.3159,19.6808 -38.5856,33.5353 -64.249,48.722 -8.6754,5.1338 -16.9175,10.0412 -18.3158,10.9053 -1.989,1.229 -1.2511,1.9488 3.3898,3.3063 10.1034,2.9554 28.7613,2.309 42.4069,-1.4692 z m -146.8463,-13.8627 c 6.4738,-15.5275 9.5263,-29.246 9.5076,-42.729 -0.052,-37.5284 -29.936,-53.4089 -101.6784,-54.0324 l -31.3559,-0.2725 -0.4912,12.9207 c -1.257,33.0678 12.9064,63.9762 35.9924,78.5452 18.1864,11.477 35.55,15.8329 63.8844,16.0265 l 19.7245,0.1347 z m -273.6996,-67.7966 c 8.7275,-11.5622 10.3731,-16.2303 10.1967,-28.9239 l -0.1456,-10.4829 -5.7113,11.8644 c -7.1535,14.8602 -14.6034,36.4407 -12.5799,36.4407 0.838,0 4.5461,-4.0042 8.2402,-8.8983 z m 31.1984,-68.5725 c 3.5471,-4.9334 5.8352,-8.9574 5.0847,-8.9422 -1.6445,0.033 -19.1837,24.3004 -19.1074,26.4366 0.055,1.5415 2.7841,-1.8631 14.0227,-17.4944 z m 596.4843,-195.4428 c 13.6156,-6.4045 1.8943,-20.6863 -19.0094,-23.162 -11.4306,-1.3538 -16.1309,0.2419 -20.2248,6.866 -5.497,8.8943 -4.6786,12.5657 3.6735,16.4804 5.6736,2.6591 9.7232,3.2293 19.0678,2.6845 6.5255,-0.3805 13.9472,-1.6715 16.4929,-2.8689 z"
       id="path4804"
       inkscape:connector-curvature="0"
       transform="matrix(4.448889,0,0,4.448889,-2002,-12340.667)" /><path
       style="fill:#006233;fill-opacity:1;stroke-width:1.69491529"
       d="m 2127.6443,1682.3298 c 2.3305,-0.7828 21.0169,-6.1192 41.5254,-11.8586 121.6677,-34.0496 203.8484,-69.691 262.1437,-113.6905 30.4859,-23.0097 59.6467,-57.24 75.3826,-88.4872 7.9633,-15.813 16.7291,-42.689 20.2997,-62.2389 4.4393,-24.3065 4.0353,-68.9992 -0.8784,-97.1748 -8.1266,-46.5984 -23.7833,-92.3321 -49.4176,-144.3507 -16.1836,-32.8406 -45.8391,-84.2251 -46.8532,-81.183 -0.3409,1.0228 1.2582,11.3175 3.5536,22.8772 15.555,78.3357 22.8988,151.9707 24.2402,243.0516 1.2393,84.1539 -2.5097,138.6761 -10.4891,152.5424 -8.4924,14.7577 -35.2937,35.7407 -57.9107,45.3387 -23.148,9.8234 -48.5353,10.6255 -66.1263,2.0894 -21.4131,-10.3909 -39.6606,-36.2638 -48.2745,-68.4477 -2.0342,-7.6001 -4.2528,-13.607 -4.9302,-13.3486 -0.6774,0.2584 -6.0073,6.9529 -11.8442,14.8766 -78.1951,106.1511 -171.3105,150.3918 -216.0142,102.632 l -8.4746,-9.0539 -16.9492,5.6609 c -9.322,3.1136 -24.0826,7.0948 -32.8012,8.8472 l -15.8521,3.1862 -9.8398,11.9236 c -25.4289,30.8139 -60.0942,52.6436 -101.9903,64.2263 -19.6932,5.4444 -56.8103,7.4373 -77.2225,4.1463 -31.9934,-5.1583 -57.9218,-18.1475 -79.2682,-39.7107 -20.1127,-20.3169 -31.3459,-44.3541 -34.3166,-73.4318 l -1.2516,-12.2518 -10.7115,7.4635 c -14.5579,10.1436 -34.0452,20.0884 -50.3292,25.6843 -10.9041,3.747 -16.666,4.6697 -29.6373,4.7457 -19.2828,0.1131 -30.0969,-2.3152 -48.7496,-10.9465 -23.2574,-10.7622 -39.6028,-29.2077 -45.4963,-51.3419 -5.5007,-20.659 -1.3147,-49.2539 10.9542,-74.8302 6.2344,-12.9964 17.19,-31.585 17.19,-29.1666 0,0.637 -1.9373,8.6041 -4.305,17.7047 -12.8988,49.5774 -3.385,83.7475 27.6727,99.3898 32.5423,16.3901 91.0768,4.9907 129.5904,-25.2373 8.3713,-6.5704 9.151,-7.825 11.8492,-19.0673 3.5282,-14.7009 12.8362,-38.6638 22.6269,-58.2514 5.6355,-11.2746 6.6883,-14.5773 4.5924,-14.4068 -4.3584,0.3547 -27.4772,-34.0615 -27.5559,-41.0217 -0.055,-4.8335 7.1431,-25.7983 11.5782,-33.7234 1.0558,-1.8866 4.8211,2.3124 15.004,16.7324 7.477,10.588 15.19,20.6783 17.1401,22.4229 3.2721,2.9272 3.3544,3.5417 1.0662,7.9666 -5.1794,10.0157 -2.0867,6.6517 8.8053,-9.5778 12.2878,-18.3093 22.1939,-31.6655 34.9519,-47.1247 4.5257,-5.4839 7.6052,-10.554 6.8434,-11.2669 -0.7619,-0.7128 -6.2878,-4.4364 -12.2799,-8.2746 -18.9131,-12.1145 -39.9882,-16.3523 -59.2443,-11.9129 -4.0849,0.9417 -7.8516,1.2877 -8.3705,0.7688 -1.6903,-1.6903 5.903,-15.0836 13.2739,-23.4129 23.4336,-26.4803 71.0748,-43.5343 121.663,-43.5514 39.7883,-0.014 68.4336,11.1263 78.2896,30.4458 3.0439,5.9665 3.0497,6.4463 0.156,12.9099 -5.9053,13.1898 -20.1153,23.9485 -50.8917,38.5312 -16.6121,7.8712 -17.5191,8.5487 -12.7948,9.557 11.0076,2.3495 40.0961,-1.0141 56.5818,-6.5427 15.2182,-5.1034 33.3622,-14.0759 41.0457,-20.2977 l 3.6091,-2.9224 -2.7803,-58.3862 c -5.0104,-105.219 -9.0062,-148.4151 -14.8584,-160.6276 -5.4165,-11.3031 -3.745,-27.8829 5.5311,-54.8642 l 7.396,-21.5124 5.6072,11.343 c 3.084,6.2386 10.2518,17.3359 15.9284,24.6607 18.1436,23.411 18.8377,30.9434 4.5672,49.5621 l -8.5751,11.1879 3.547,32.4576 c 4.1059,37.5729 6.3425,73.185 7.8982,125.7574 l 1.1057,37.3676 -12.5694,16.8697 c -25.3143,33.9749 -44.1095,47.6384 -79.4909,57.7875 -13.9026,3.9879 -16.3765,4.2404 -24.2602,2.4762 -11.0616,-2.4755 -26.7379,-9.8495 -39.8084,-18.7255 -5.5656,-3.7795 -10.9657,-6.8719 -12.0002,-6.8719 -5.0713,0 -43.6352,29.7093 -54.2362,41.7831 -6.485,7.3861 -6.258,7.5944 12.7108,11.6642 10.4036,2.232 24.2099,3.0424 59.322,3.4818 25.1695,0.315 57.5459,0.9988 71.9475,1.5195 68.5375,2.4782 99.8303,19.9613 109.5521,61.2061 3.783,16.0497 2.4496,52.0463 -2.6227,70.8049 -1.9841,7.3376 -3.2104,13.738 -2.7251,14.2233 0.4852,0.4852 8.4159,-1.5059 17.6236,-4.4248 l 16.7414,-5.3071 0.9812,-15.6958 c 1.194,-19.0973 7.1984,-40.4963 17.4382,-62.1469 4.1471,-8.7684 7.8197,-15.6328 8.1614,-15.2542 0.3416,0.3785 -0.9004,7.5527 -2.76,15.9425 -3.7958,17.1246 -5.1408,58.8092 -2.0646,63.9871 1.615,2.7184 3.051,2.3095 16.9491,-4.8265 20.7796,-10.6692 47.2861,-26.7672 68.5745,-41.6469 l 17.7966,-12.4391 0.4713,-23.2558 0.4713,-23.2557 -4.7086,-0.9582 c -2.5897,-0.527 -9.2821,-2.1278 -14.872,-3.5573 -31.1958,-7.9777 -54.6356,-32.2221 -62.9054,-65.0645 -2.105,-8.3598 -2.5753,-15.9224 -1.9498,-31.3559 0.8747,-21.5808 4.7285,-36.6605 14.2108,-55.6054 5.5736,-11.1358 22.7648,-37.2399 23.826,-36.1787 0.4393,0.4393 -1.4677,7.923 -4.2379,16.6304 -9.1687,28.82 -11.3161,41.2156 -11.2574,64.9842 0.047,19.0928 0.5878,23.3779 4.051,32.1032 7.6298,19.2231 24.9899,31.4626 48.554,34.232 l 9.3798,1.1025 -0.9049,-12.5324 c -0.4976,-6.8929 -1.3381,-26.6426 -1.8678,-43.8884 -1.6571,-53.9616 -6.658,-129.7033 -13.5966,-205.9322 -2.0868,-22.926 -3.3731,-30.1988 -6.2951,-35.5932 -6.9223,-12.7797 -3.9529,-34.6812 9.9961,-73.7288 0.5869,-1.6429 2.6481,0.8711 5.8258,7.1057 2.7046,5.3064 10.6445,16.7471 17.6443,25.4237 6.9997,8.6766 13.4773,18.4211 14.3946,21.6544 2.3686,8.3489 -0.2788,16.4576 -9.4333,28.8932 l -7.7325,10.5038 2.6502,29.9045 c 5.1232,57.8106 8.1187,116.3662 10.4387,204.0571 0.9863,37.2796 1.4188,41.9478 3.8854,41.9372 9.1369,-0.039 60.6945,-16.0914 65.1978,-20.2992 1.5511,-1.4492 -13.0074,-40.4013 -25.9911,-69.5408 l -8.3141,-18.6594 9.6636,-16.0833 c 5.3149,-8.8459 10.1874,-16.0834 10.8276,-16.0834 3.3271,0 29.9432,55.1423 41.9928,86.999 l 6.3015,16.6601 21.0403,-14.0453 c 26.8703,-17.9371 52.5688,-42.9955 60.6149,-59.1053 l 5.5025,-11.0169 -35.2505,-1.0667 c -44.6718,-1.3518 -57.5176,-4.453 -69.1487,-16.6939 -10.6853,-11.2455 -5.2086,-31.6326 15.117,-56.2743 33.6985,-40.8543 69.9754,-32.3761 92.4482,21.6058 7.7609,18.6425 14.2233,48.4271 12.9307,59.5966 -3.4678,29.9672 -32.2998,65.6356 -80.3729,99.4304 -11.7185,8.238 -13.9601,10.5363 -13.2062,13.5401 3.2661,13.0133 6.6027,39.0733 7.6105,59.4407 1.086,21.9486 1.6009,24.7128 6.5824,35.3393 22.9018,48.8535 86.7721,58.168 129.0771,18.8238 l 9.2805,-8.631 -2.0378,-45.6063 c -3.4605,-77.4424 -8.787,-133.6557 -25.0391,-264.2503 -5.1044,-41.0169 -11.1396,-90.083 -13.4115,-109.0358 l -4.1308,-34.4595 12.237,-16.7655 c 6.7303,-9.2211 12.7826,-16.78634 13.4496,-16.81171 0.6669,-0.0254 9.2545,10.71301 19.0834,23.86311 63.2027,84.5582 103.1926,179.0746 112.6624,266.2782 2.574,23.7029 2.1984,70.9318 -0.7413,93.2003 -15.4781,117.2515 -86.7257,211.6362 -197.6195,261.7952 -50.6424,22.9063 -108.3613,36.5357 -174.4282,41.1884 -29.902,2.1058 -55.3163,2.1438 -49.1525,0.073 z m -282.2034,-43.9609 c 28.4165,-6.0006 53.6101,-17.0079 76.9917,-33.6382 11.9795,-8.5205 11.5709,-10.1784 -2.568,-10.4214 -10.6944,-0.1838 -32.4619,-6.2668 -45.7637,-12.7888 -20.8845,-10.2399 -37.1929,-29.291 -44.2887,-51.7371 -4.157,-13.1498 -3.766,-46.9451 0.7477,-64.6278 l 3.3012,-12.9328 -23.8711,-1.1569 c -32.7887,-1.5891 -65.0876,-6.4803 -79.3796,-12.0208 -2.5088,-0.9725 -2.97,-0.1418 -2.9912,5.3874 -0.094,24.5404 -15.8496,56.4652 -40.8622,82.7969 -12.999,13.6846 -13.5795,15.7262 -8.9511,31.4836 4.7622,16.2128 12.6664,28.8629 26.933,43.1043 35.244,35.1816 85.4392,48.2213 140.702,36.5516 z m 270.373,-76.5025 c 23.5,-6.5067 50.2429,-20.8602 78.7795,-42.2828 18.3011,-13.7388 53.477,-45.5265 62.2004,-56.2093 l 6.2683,-7.6761 -2.4532,-17.6185 c -2.3151,-16.6268 -7.2077,-41.678 -8.6295,-44.1854 -0.3566,-0.6289 -8.4785,2.5501 -18.0487,7.0643 -16.053,7.5722 -46.4994,18.7389 -57.5576,21.1102 l -4.661,0.9995 v 29.4008 29.4009 l -19.1301,18.532 c -20.3159,19.6808 -38.5856,33.5353 -64.249,48.722 -8.6754,5.1338 -16.9175,10.0412 -18.3158,10.9053 -1.989,1.229 -1.2511,1.9488 3.3898,3.3063 10.1034,2.9554 28.7613,2.309 42.4069,-1.4692 z m -146.8463,-13.8627 c 6.4738,-15.5275 9.5263,-29.246 9.5076,-42.729 -0.052,-37.5284 -29.936,-53.4089 -101.6784,-54.0324 l -31.3559,-0.2725 -0.4912,12.9207 c -1.257,33.0678 12.9064,63.9762 35.9924,78.5452 18.1864,11.477 35.55,15.8329 63.8844,16.0265 l 19.7245,0.1347 z m -273.6996,-67.7966 c 8.7275,-11.5622 10.3731,-16.2303 10.1967,-28.9239 l -0.1456,-10.4829 -5.7113,11.8644 c -7.1535,14.8602 -14.6034,36.4407 -12.5799,36.4407 0.838,0 4.5461,-4.0042 8.2402,-8.8983 z m 31.1984,-68.5725 c 3.5471,-4.9334 5.8352,-8.9574 5.0847,-8.9422 -1.6445,0.033 -19.1837,24.3004 -19.1074,26.4366 0.055,1.5415 2.7841,-1.8631 14.0227,-17.4944 z m 596.4843,-195.4428 c 13.6156,-6.4045 1.8943,-20.6863 -19.0094,-23.162 -11.4306,-1.3538 -16.1309,0.2419 -20.2248,6.866 -5.497,8.8943 -4.6786,12.5657 3.6735,16.4804 5.6736,2.6591 9.7232,3.2293 19.0678,2.6845 6.5255,-0.3805 13.9472,-1.6715 16.4929,-2.8689 z"
       id="path4806"
       inkscape:connector-curvature="0"
       transform="matrix(4.448889,0,0,4.448889,-2002,-12340.667)" /><path
       style="fill:#006233;fill-opacity:1;stroke-width:1.69491529"
       d="m 2127.6443,1682.3298 c 2.3305,-0.7828 21.0169,-6.1192 41.5254,-11.8586 121.6677,-34.0496 203.8484,-69.691 262.1437,-113.6905 30.4859,-23.0097 59.6467,-57.24 75.3826,-88.4872 7.9633,-15.813 16.7291,-42.689 20.2997,-62.2389 4.4393,-24.3065 4.0353,-68.9992 -0.8784,-97.1748 -8.1266,-46.5984 -23.7833,-92.3321 -49.4176,-144.3507 -16.1836,-32.8406 -45.8391,-84.2251 -46.8532,-81.183 -0.3409,1.0228 1.2582,11.3175 3.5536,22.8772 15.555,78.3357 22.8988,151.9707 24.2402,243.0516 1.2393,84.1539 -2.5097,138.6761 -10.4891,152.5424 -8.4924,14.7577 -35.2937,35.7407 -57.9107,45.3387 -23.148,9.8234 -48.5353,10.6255 -66.1263,2.0894 -21.4131,-10.3909 -39.6606,-36.2638 -48.2745,-68.4477 -2.0342,-7.6001 -4.2528,-13.607 -4.9302,-13.3486 -0.6774,0.2584 -6.0073,6.9529 -11.8442,14.8766 -78.1951,106.1511 -171.3105,150.3918 -216.0142,102.632 l -8.4746,-9.0539 -16.9492,5.6609 c -9.322,3.1136 -24.0826,7.0948 -32.8012,8.8472 l -15.8521,3.1862 -9.8398,11.9236 c -25.4289,30.8139 -60.0942,52.6436 -101.9903,64.2263 -19.6932,5.4444 -56.8103,7.4373 -77.2225,4.1463 -31.9934,-5.1583 -57.9218,-18.1475 -79.2682,-39.7107 -20.1127,-20.3169 -31.3459,-44.3541 -34.3166,-73.4318 l -1.2516,-12.2518 -10.7115,7.4635 c -14.5579,10.1436 -34.0452,20.0884 -50.3292,25.6843 -10.9041,3.747 -16.666,4.6697 -29.6373,4.7457 -19.2828,0.1131 -30.0969,-2.3152 -48.7496,-10.9465 -23.2574,-10.7622 -39.6028,-29.2077 -45.4963,-51.3419 -5.5007,-20.659 -1.3147,-49.2539 10.9542,-74.8302 6.2344,-12.9964 17.19,-31.585 17.19,-29.1666 0,0.637 -1.9373,8.6041 -4.305,17.7047 -12.8988,49.5774 -3.385,83.7475 27.6727,99.3898 32.5423,16.3901 91.0768,4.9907 129.5904,-25.2373 8.3713,-6.5704 9.151,-7.825 11.8492,-19.0673 3.5282,-14.7009 12.8362,-38.6638 22.6269,-58.2514 5.6355,-11.2746 6.6883,-14.5773 4.5924,-14.4068 -4.3584,0.3547 -27.4772,-34.0615 -27.5559,-41.0217 -0.055,-4.8335 7.1431,-25.7983 11.5782,-33.7234 1.0558,-1.8866 4.8211,2.3124 15.004,16.7324 7.477,10.588 15.19,20.6783 17.1401,22.4229 3.2721,2.9272 3.3544,3.5417 1.0662,7.9666 -5.1794,10.0157 -2.0867,6.6517 8.8053,-9.5778 12.2878,-18.3093 22.1939,-31.6655 34.9519,-47.1247 4.5257,-5.4839 7.6052,-10.554 6.8434,-11.2669 -0.7619,-0.7128 -6.2878,-4.4364 -12.2799,-8.2746 -18.9131,-12.1145 -39.9882,-16.3523 -59.2443,-11.9129 -4.0849,0.9417 -7.8516,1.2877 -8.3705,0.7688 -1.6903,-1.6903 5.903,-15.0836 13.2739,-23.4129 23.4336,-26.4803 71.0748,-43.5343 121.663,-43.5514 39.7883,-0.014 68.4336,11.1263 78.2896,30.4458 3.0439,5.9665 3.0497,6.4463 0.156,12.9099 -5.9053,13.1898 -20.1153,23.9485 -50.8917,38.5312 -16.6121,7.8712 -17.5191,8.5487 -12.7948,9.557 11.0076,2.3495 40.0961,-1.0141 56.5818,-6.5427 15.2182,-5.1034 33.3622,-14.0759 41.0457,-20.2977 l 3.6091,-2.9224 -2.7803,-58.3862 c -5.0104,-105.219 -9.0062,-148.4151 -14.8584,-160.6276 -5.4165,-11.3031 -3.745,-27.8829 5.5311,-54.8642 l 7.396,-21.5124 5.6072,11.343 c 3.084,6.2386 10.2518,17.3359 15.9284,24.6607 18.1436,23.411 18.8377,30.9434 4.5672,49.5621 l -8.5751,11.1879 3.547,32.4576 c 4.1059,37.5729 6.3425,73.185 7.8982,125.7574 l 1.1057,37.3676 -12.5694,16.8697 c -25.3143,33.9749 -44.1095,47.6384 -79.4909,57.7875 -13.9026,3.9879 -16.3765,4.2404 -24.2602,2.4762 -11.0616,-2.4755 -26.7379,-9.8495 -39.8084,-18.7255 -5.5656,-3.7795 -10.9657,-6.8719 -12.0002,-6.8719 -5.0713,0 -43.6352,29.7093 -54.2362,41.7831 -6.485,7.3861 -6.258,7.5944 12.7108,11.6642 10.4036,2.232 24.2099,3.0424 59.322,3.4818 25.1695,0.315 57.5459,0.9988 71.9475,1.5195 68.5375,2.4782 99.8303,19.9613 109.5521,61.2061 3.783,16.0497 2.4496,52.0463 -2.6227,70.8049 -1.9841,7.3376 -3.2104,13.738 -2.7251,14.2233 0.4852,0.4852 8.4159,-1.5059 17.6236,-4.4248 l 16.7414,-5.3071 0.9812,-15.6958 c 1.194,-19.0973 7.1984,-40.4963 17.4382,-62.1469 4.1471,-8.7684 7.8197,-15.6328 8.1614,-15.2542 0.3416,0.3785 -0.9004,7.5527 -2.76,15.9425 -3.7958,17.1246 -5.1408,58.8092 -2.0646,63.9871 1.615,2.7184 3.051,2.3095 16.9491,-4.8265 20.7796,-10.6692 47.2861,-26.7672 68.5745,-41.6469 l 17.7966,-12.4391 0.4713,-23.2558 0.4713,-23.2557 -4.7086,-0.9582 c -2.5897,-0.527 -9.2821,-2.1278 -14.872,-3.5573 -31.1958,-7.9777 -54.6356,-32.2221 -62.9054,-65.0645 -2.105,-8.3598 -2.5753,-15.9224 -1.9498,-31.3559 0.8747,-21.5808 4.7285,-36.6605 14.2108,-55.6054 5.5736,-11.1358 22.7648,-37.2399 23.826,-36.1787 0.4393,0.4393 -1.4677,7.923 -4.2379,16.6304 -9.1687,28.82 -11.3161,41.2156 -11.2574,64.9842 0.047,19.0928 0.5878,23.3779 4.051,32.1032 7.6298,19.2231 24.9899,31.4626 48.554,34.232 l 9.3798,1.1025 -0.9049,-12.5324 c -0.4976,-6.8929 -1.3381,-26.6426 -1.8678,-43.8884 -1.6571,-53.9616 -6.658,-129.7033 -13.5966,-205.9322 -2.0868,-22.926 -3.3731,-30.1988 -6.2951,-35.5932 -6.9223,-12.7797 -3.9529,-34.6812 9.9961,-73.7288 0.5869,-1.6429 2.6481,0.8711 5.8258,7.1057 2.7046,5.3064 10.6445,16.7471 17.6443,25.4237 6.9997,8.6766 13.4773,18.4211 14.3946,21.6544 2.3686,8.3489 -0.2788,16.4576 -9.4333,28.8932 l -7.7325,10.5038 2.6502,29.9045 c 5.1232,57.8106 8.1187,116.3662 10.4387,204.0571 0.9863,37.2796 1.4188,41.9478 3.8854,41.9372 9.1369,-0.039 60.6945,-16.0914 65.1978,-20.2992 1.5511,-1.4492 -13.0074,-40.4013 -25.9911,-69.5408 l -8.3141,-18.6594 9.6636,-16.0833 c 5.3149,-8.8459 10.1874,-16.0834 10.8276,-16.0834 3.3271,0 29.9432,55.1423 41.9928,86.999 l 6.3015,16.6601 21.0403,-14.0453 c 26.8703,-17.9371 52.5688,-42.9955 60.6149,-59.1053 l 5.5025,-11.0169 -35.2505,-1.0667 c -44.6718,-1.3518 -57.5176,-4.453 -69.1487,-16.6939 -10.6853,-11.2455 -5.2086,-31.6326 15.117,-56.2743 33.6985,-40.8543 69.9754,-32.3761 92.4482,21.6058 7.7609,18.6425 14.2233,48.4271 12.9307,59.5966 -3.4678,29.9672 -32.2998,65.6356 -80.3729,99.4304 -11.7185,8.238 -13.9601,10.5363 -13.2062,13.5401 3.2661,13.0133 6.6027,39.0733 7.6105,59.4407 1.086,21.9486 1.6009,24.7128 6.5824,35.3393 22.9018,48.8535 86.7721,58.168 129.0771,18.8238 l 9.2805,-8.631 -2.0378,-45.6063 c -3.4605,-77.4424 -8.787,-133.6557 -25.0391,-264.2503 -5.1044,-41.0169 -11.1396,-90.083 -13.4115,-109.0358 l -4.1308,-34.4595 12.237,-16.7655 c 6.7303,-9.2211 12.7826,-16.78634 13.4496,-16.81171 0.6669,-0.0254 9.2545,10.71301 19.0834,23.86311 63.2027,84.5582 103.1926,179.0746 112.6624,266.2782 2.574,23.7029 2.1984,70.9318 -0.7413,93.2003 -15.4781,117.2515 -86.7257,211.6362 -197.6195,261.7952 -50.6424,22.9063 -108.3613,36.5357 -174.4282,41.1884 -29.902,2.1058 -55.3163,2.1438 -49.1525,0.073 z m -282.2034,-43.9609 c 28.4165,-6.0006 53.6101,-17.0079 76.9917,-33.6382 11.9795,-8.5205 11.5709,-10.1784 -2.568,-10.4214 -10.6944,-0.1838 -32.4619,-6.2668 -45.7637,-12.7888 -20.8845,-10.2399 -37.1929,-29.291 -44.2887,-51.7371 -4.157,-13.1498 -3.766,-46.9451 0.7477,-64.6278 l 3.3012,-12.9328 -23.8711,-1.1569 c -32.7887,-1.5891 -65.0876,-6.4803 -79.3796,-12.0208 -2.5088,-0.9725 -2.97,-0.1418 -2.9912,5.3874 -0.094,24.5404 -15.8496,56.4652 -40.8622,82.7969 -12.999,13.6846 -13.5795,15.7262 -8.9511,31.4836 4.7622,16.2128 12.6664,28.8629 26.933,43.1043 35.244,35.1816 85.4392,48.2213 140.702,36.5516 z m 270.373,-76.5025 c 23.5,-6.5067 50.2429,-20.8602 78.7795,-42.2828 18.3011,-13.7388 53.477,-45.5265 62.2004,-56.2093 l 6.2683,-7.6761 -2.4532,-17.6185 c -2.3151,-16.6268 -7.2077,-41.678 -8.6295,-44.1854 -0.3566,-0.6289 -8.4785,2.5501 -18.0487,7.0643 -16.053,7.5722 -46.4994,18.7389 -57.5576,21.1102 l -4.661,0.9995 v 29.4008 29.4009 l -19.1301,18.532 c -20.3159,19.6808 -38.5856,33.5353 -64.249,48.722 -8.6754,5.1338 -16.9175,10.0412 -18.3158,10.9053 -1.989,1.229 -1.2511,1.9488 3.3898,3.3063 10.1034,2.9554 28.7613,2.309 42.4069,-1.4692 z m -146.8463,-13.8627 c 6.4738,-15.5275 9.5263,-29.246 9.5076,-42.729 -0.052,-37.5284 -29.936,-53.4089 -101.6784,-54.0324 l -31.3559,-0.2725 -0.4912,12.9207 c -1.257,33.0678 12.9064,63.9762 35.9924,78.5452 18.1864,11.477 35.55,15.8329 63.8844,16.0265 l 19.7245,0.1347 z m -273.6996,-67.7966 c 8.7275,-11.5622 10.3731,-16.2303 10.1967,-28.9239 l -0.1456,-10.4829 -5.7113,11.8644 c -7.1535,14.8602 -14.6034,36.4407 -12.5799,36.4407 0.838,0 4.5461,-4.0042 8.2402,-8.8983 z m 31.1984,-68.5725 c 3.5471,-4.9334 5.8352,-8.9574 5.0847,-8.9422 -1.6445,0.033 -19.1837,24.3004 -19.1074,26.4366 0.055,1.5415 2.7841,-1.8631 14.0227,-17.4944 z m 596.4843,-195.4428 c 13.6156,-6.4045 1.8943,-20.6863 -19.0094,-23.162 -11.4306,-1.3538 -16.1309,0.2419 -20.2248,6.866 -5.497,8.8943 -4.6786,12.5657 3.6735,16.4804 5.6736,2.6591 9.7232,3.2293 19.0678,2.6845 6.5255,-0.3805 13.9472,-1.6715 16.4929,-2.8689 z"
       id="path4808"
       inkscape:connector-curvature="0"
       transform="matrix(4.448889,0,0,4.448889,-2002,-12340.667)" /></g><g
     inkscape:groupmode="layer"
     id="layer7"
     inkscape:label="all"
     style="display:inline"><g
       inkscape:groupmode="layer"
       id="layer1"
       inkscape:label="string"
       style="display:inline"
       transform="translate(0,10677.334)"><path
         inkscape:connector-curvature="0"
         style="fill:none;stroke:#f7c608;stroke-width:58.44980621;stroke-linecap:round;stroke-linejoin:round"
         id="path12826"
         d="m 10494.185,-5855.4449 c 0,1807.2097 -1610.0239,3272.2293 -3596.1084,3272.2293 -1986.0843,0 -3596.1086,-1465.0196 -3596.1086,-3272.2293 0,-1807.2103 1610.0243,-3272.2294 3596.1086,-3272.2294 1986.0845,0 3596.1084,1465.0191 3596.1084,3272.2294 z" /><path
         inkscape:connector-curvature="0"
         style="fill:#f7c608;stroke-width:7.29168129"
         id="path12861"
         d="m 6192.4951,-2581.4454 -12.9184,40.0437 c -8.6125,26.6954 -37.0904,40.8358 -68.5966,39.6692 -73.3819,-19.601 -170.9281,-38.4085 -258.9862,-61.9297 l 81.8171,-253.6108 c 95.3933,25.481 192.9467,44.2901 261.1398,55.2564 29.3525,7.8404 44.9114,33.7439 36.299,60.4392 l -10.766,33.37 m -618.5615,-157.9785 12.9189,-40.0432 c 8.6125,-26.696 37.0829,-40.8382 66.436,-32.9977 71.2283,26.2755 157.134,56.4708 252.5338,81.9538 l -81.8218,253.6096 c -88.0581,-23.522 -176.1163,-47.0439 -254.6874,-75.2805 -27.1996,-14.5143 -34.1384,-67.1113 -25.5258,-93.8073" /><path
         inkscape:connector-curvature="0"
         style="fill:#006233;stroke-width:7.29168129"
         id="path12865"
         d="m 6142.3218,-2603.5464 -9.2584,28.6977 c -6.244,19.3543 -29.0799,28.4779 -54.9968,26.6294 -61.0306,-16.3021 -141.8824,-32.8245 -215.1176,-52.3868 l 58.5625,-181.5322 c 79.3372,21.1923 160.1897,37.7147 216.6252,47.7152 24.4094,6.5201 38.2022,25.4276 31.9578,44.7819 l -7.751,24.0261 m -514.1765,-132.27 9.2584,-28.6977 c 6.244,-19.3544 29.0729,-28.4798 53.4893,-21.9579 59.5236,20.9739 131.2519,45.2077 210.5968,66.4024 l -58.5691,181.5304 c -73.2375,-19.5628 -146.4774,-39.1268 -212.103,-61.7307 -22.9095,-11.1936 -30.4508,-49.4535 -24.2069,-68.808" /><path
         inkscape:connector-curvature="0"
         style="fill:#f7c608;stroke-width:7.2917695"
         id="path12880"
         d="m 5208.8163,-2898.602 -24.7922,35.1112 c -16.5278,23.4077 -48.2305,29.677 -78.1,20.4822 -64.3448,-37.6158 -152.1208,-80.6635 -229.3339,-125.8024 l 157.0132,-222.3727 c 83.6444,48.8989 171.4275,91.95 233.4662,119.9505 25.7373,15.0466 32.648,43.8887 16.1202,67.2963 l -20.6599,29.2594 m -544.6244,-310.1234 24.7917,-35.1112 c 16.5282,-23.4077 48.224,-29.6805 73.9619,-14.6338 60.2126,43.4681 133.2934,94.4592 216.9443,143.3622 l -157.0174,222.3704 c -77.2131,-45.1393 -154.4263,-90.2789 -221.076,-137.5106 -21.6062,-20.8983 -11.9822,-73.1444 4.5456,-96.5516" /><path
         inkscape:connector-curvature="0"
         style="fill:#006233;stroke-width:7.2917695"
         id="path12882"
         d="m 5167.5147,-2932.6679 -17.7674,25.1631 c -11.9832,16.9706 -36.7189,19.8714 -61.0146,11.4557 -53.5139,-31.2853 -125.9795,-67.8618 -190.1947,-105.4027 l 112.3874,-159.1728 c 69.5664,40.6692 142.0313,77.2456 193.0873,101.3064 21.4032,12.5121 28.7849,34.189 16.8021,51.1596 l -14.8752,21.0669 m -452.4217,-258.7013 17.7674,-25.1632 c 11.9827,-16.9705 36.7124,-19.8755 58.122,-7.3593 50.6219,35.381 111.9451,77.0183 181.5181,117.6909 l -112.3928,159.1704 c -64.2181,-37.5427 -128.4381,-75.086 -184.4106,-113.5951 -18.5171,-16.6126 -13.9096,-55.256 -1.9263,-72.2265" /><path
         inkscape:connector-curvature="0"
         style="fill:#f7c608;stroke-width:7.29175091"
         id="path12886"
         d="m 4363.2975,-3455.0954 -34.6565,27.3356 c -23.105,18.2237 -55.4644,16.1137 -81.279,-0.3651 -50.0949,-52.5841 -120.9922,-116.3842 -181.1063,-179.4853 l 219.4924,-173.1258 c 65.1215,68.3563 136.0235,132.1622 186.8829,174.929 20.0381,21.0339 17.7408,50.4795 -5.3636,68.7026 l -28.8808,22.7799 m -426.576,-437.1488 34.6572,-27.3356 c 23.1044,-18.2237 55.4591,-16.1191 75.4972,4.9143 44.3191,57.1403 98.6568,124.797 163.7831,193.1586 l -219.4955,173.1229 c -60.1141,-63.1005 -120.2284,-126.2015 -169.5595,-188.6024 -14.2616,-25.5895 11.1453,-73.2536 34.2497,-91.4772" /><path
         inkscape:connector-curvature="0"
         style="fill:#006233;stroke-width:7.29175091"
         id="path12888"
         d="m 4334.2136,-3498.3668 -24.8375,19.5905 c -16.751,13.2116 -41.3829,9.6553 -62.09,-4.6464 -41.6632,-43.7331 -99.8723,-97.4013 -149.8671,-149.88 l 157.1093,-123.9225 c 54.1612,56.8517 112.3703,110.5193 153.911,146.6907 16.6632,17.491 17.0359,40.1821 0.2826,53.3944 l -20.7941,16.401 m -354.0238,-364.1779 24.8375,-19.5906 c 16.7508,-13.2123 41.3787,-9.6613 58.0466,7.8351 37.6205,46.922 83.5719,102.5902 137.7378,159.4473 l -157.1134,123.9183 c -49.9972,-52.481 -99.9955,-104.9627 -141.7811,-156.2578 -12.6252,-20.6857 3.7583,-56.5832 20.5091,-69.7954" /><path
         inkscape:connector-curvature="0"
         style="fill:#f7c608;stroke-width:7.29177666"
         id="path12892"
         d="m 3724.0124,-4205.7067 -41.7155,17.3463 c -27.8108,11.564 -58.2068,1.2473 -77.8752,-21.1811 -31.7886,-63.2942 -80.065,-142.6828 -118.2114,-218.6363 l 264.1997,-109.8611 c 41.324,82.28 89.6033,161.6744 125.1644,215.7455 12.7153,25.3174 1.3957,52.9823 -26.415,64.5462 l -34.7633,14.4554 m -273.9781,-528.7821 41.7161,-17.3457 c 27.8103,-11.5646 58.2033,-1.2526 70.9192,24.0655 24.8357,66.1857 56.0297,145.0294 97.3567,227.3152 l -264.2014,109.8576 c -38.147,-75.9535 -76.2934,-151.9065 -104.3097,-224.425 -5.7629,-28.2083 33.3705,-67.4306 61.1813,-78.9945" /><path
         inkscape:connector-curvature="0"
         style="fill:#006233;stroke-width:7.29177666"
         id="path12894"
         d="m 3709.5017,-4254.6809 -29.8966,12.4314 c -20.1624,8.384 -42.6967,-1.3409 -58.1374,-20.3714 -26.4387,-52.6412 -65.6774,-119.0548 -97.4025,-182.223 l 189.1111,-78.6382 c 34.3687,68.4311 73.6075,134.8452 102.2685,180.199 10.5742,21.0538 3.9073,42.9216 -16.255,51.3056 l -25.0294,10.4073 m -226.9532,-440.1698 29.8966,-12.4313 c 20.1624,-8.384 42.6939,1.3362 53.2708,22.3954 21.5715,54.6646 48.4296,119.8562 82.8017,188.2938 l -189.1135,78.633 c -31.7263,-63.17 -63.4538,-126.3417 -87.6683,-186.2699 -5.7104,-23.0838 21.1223,-53.3296 41.2852,-61.7136" /><path
         inkscape:connector-curvature="0"
         style="fill:#f7c608;stroke-width:7.29193926"
         id="path12898"
         d="m 3343.146,-5089.7251 -45.3973,5.9524 c -30.2647,3.968 -56.2364,-13.7234 -68.1661,-40.284 -10.9081,-68.8803 -32.6545,-157.4302 -45.7442,-240.0876 l 287.516,-37.7 c 14.1799,89.5421 35.9275,178.0984 53.3102,239.096 4.3638,27.5523 -15.0618,51.1961 -45.3265,55.164 l -37.8314,4.9602 m -99.1958,-577.6074 45.3973,-5.9524 c 30.2653,-3.968 56.2358,13.7163 60.599,41.2687 3.3419,69.8732 8.8657,153.5222 23.0472,243.0709 l -287.5166,37.6959 c -13.0904,-82.6569 -26.1802,-165.3144 -30.6134,-242.0787 3.203,-28.5441 52.8945,-56.1499 83.1592,-60.1178" /><path
         inkscape:connector-curvature="0"
         style="fill:#006233;stroke-width:7.29193926"
         id="path12900"
         d="m 3344.3832,-5140.4366 -32.5349,4.2654 c -21.9419,2.8772 -40.5531,-12.2307 -49.4783,-34.4483 -9.0724,-57.2868 -26.163,-131.0709 -37.0492,-199.8141 l 205.8003,-26.9864 c 11.7936,74.4713 28.8849,148.2548 42.3462,199.1193 3.6282,22.9125 -9.5382,42.1868 -31.4801,45.0635 l -27.2384,3.5716 m -81.505,-480.5292 32.5349,-4.2654 c 21.9419,-2.8772 40.5526,12.2235 44.1818,35.1425 3.7759,57.9819 9.3664,127.4193 21.1606,201.8977 l -205.8016,26.9811 c -10.8867,-68.7462 -21.774,-137.4935 -26.4568,-201.2035 1.6671,-23.6131 36.7765,-45.7577 58.7185,-48.6344" /><path
         inkscape:connector-curvature="0"
         style="fill:#f7c608;stroke-width:7.29189444"
         id="path12904"
         d="m 3251.5421,-6035.8005 -45.4014,-5.9237 c -30.2676,-3.949 -49.7109,-27.5805 -52.9357,-56.1233 10.8555,-68.8874 17.4004,-159.4254 30.4273,-242.0904 l 287.5425,37.5138 c -14.112,89.551 -20.6581,180.0954 -22.8606,243.0782 -4.3425,27.5551 -30.3001,45.2629 -60.5677,41.3139 l -37.8348,-4.9361 m 83.6209,-579.6437 45.4014,5.9237 c 30.2676,3.949 49.7121,27.5734 45.3696,55.1287 -18.4221,67.9004 -39.0161,149.578 -53.1288,239.1353 l -287.542,-37.518 c 13.0274,-82.6651 26.0542,-165.3307 45.5629,-240.1229 11.909,-26.5677 68.1331,-40.32 98.4007,-36.3709" /><path
         inkscape:connector-curvature="0"
         style="fill:#006233;stroke-width:7.29189444"
         id="path12906"
         d="m 3268.4268,-6084.1423 -32.5378,-4.2453 c -21.9438,-2.8626 -35.1248,-22.1287 -36.8109,-45.7342 9.0283,-57.2929 15.4696,-132.469 26.3033,-201.2193 l 205.8203,26.8509 c -11.7371,74.4784 -18.1778,149.6551 -21.0068,201.9101 -3.611,22.9148 -22.2104,38.0339 -44.1548,35.1707 l -27.2408,-3.5539 m 70.5441,-481.9614 32.5378,4.2453 c 21.9443,2.8625 35.1265,22.1221 31.5143,45.0434 -14.3253,56.6014 -30.4561,124.6605 -42.1938,199.1458 l -205.8191,-26.8562 c 10.8344,-68.7531 21.6687,-137.507 36.8967,-199.8371 8.9093,-22.23 49.4518,-34.4801 71.3956,-31.6169" /><path
         inkscape:connector-curvature="0"
         style="fill:#f7c608;stroke-width:7.29170275"
         id="path12910"
         d="m 3456.4108,-6966.4218 -41.728,-17.3197 c -27.8184,-11.5464 -39.1592,-39.204 -33.4176,-67.4165 31.7405,-63.3148 66.0461,-148.5074 104.1348,-224.4844 l 264.2786,109.6903 c -41.261,82.3058 -75.5702,167.5049 -97.1801,227.3712 -12.6963,25.3263 -43.0842,35.6636 -70.9025,24.1172 l -34.7733,-14.4336 m 259.6629,-534.7293 41.7285,17.3199 c 27.8186,11.5468 39.1622,39.198 26.4658,64.5237 -38.6946,60.4282 -83.738,133.5191 -125.0013,215.8309 l -264.2769,-109.6945 c 38.0881,-75.9777 76.1768,-151.9547 118.0473,-218.7176 19.6505,-22.4389 77.8538,-21.224 105.6723,-9.6771" /><path
         inkscape:connector-curvature="0"
         style="fill:#006233;stroke-width:7.29170275"
         id="path12912"
         d="m 3487.5759,-7008.4772 -29.9048,-12.4125 c -20.1689,-8.3712 -26.8521,-30.2347 -21.1624,-53.3161 26.3975,-52.6577 55.8491,-123.1382 87.5258,-186.3258 l 189.1683,78.514 c -34.3162,68.4534 -63.7677,138.9333 -82.6574,188.3469 -10.5582,21.0603 -33.0843,30.7999 -53.253,22.4288 l -25.0366,-10.3921 m 216.8784,-444.3556 29.9049,12.4126 c 20.1688,8.3711 26.8551,30.2288 16.2939,51.2956 -31.2658,50.6367 -67.8109,111.8044 -102.1302,180.2638 l -189.1659,-78.5193 c 31.6781,-63.1906 63.3567,-126.3824 97.2624,-182.2848 15.4294,-19.0459 58.1208,-20.4085 78.2896,-12.0369" /><path
         inkscape:connector-curvature="0"
         style="fill:#f7c608;stroke-width:7.29175758"
         id="path12916"
         d="m 3941.0235,-7807.8218 -34.6779,-27.3139 c -23.1185,-18.209 -25.4388,-47.6527 -11.1965,-73.2516 50.0548,-52.6154 109.3434,-125.5655 169.4093,-188.7043 l 219.6286,172.985 c -65.0685,68.3976 -124.3625,141.3525 -163.6295,193.2564 -20.0221,21.0463 -52.3798,23.1769 -75.4984,4.9679 l -28.8983,-22.7617 m 414.6797,-446.5233 34.6786,27.3137 c 23.1184,18.2091 25.4433,47.6482 5.4212,68.6944 -55.8342,48.0632 -121.6795,106.6492 -186.7533,175.0526 l -219.6256,-172.988 c 60.0659,-63.1387 120.1313,-126.2775 180.974,-179.6047 25.8015,-16.4942 81.2729,-0.4122 104.3915,17.7984" /><path
         inkscape:connector-curvature="0"
         style="fill:#006233;stroke-width:7.29175758"
         id="path12918"
         d="m 3983.9457,-7840.1865 -24.8529,-19.5746 c -16.7609,-13.2017 -16.4058,-35.8933 -3.8018,-56.5816 41.6302,-43.7596 91.7062,-103.8372 141.661,-156.3478 l 157.2087,123.8201 c -54.1168,56.8859 -104.1936,116.9637 -137.6147,159.5343 -16.6502,17.5017 -41.2799,21.0734 -58.0407,7.8717 l -20.8071,-16.3882 m 345.6521,-370.7753 24.8529,19.5747 c 16.7609,13.2016 16.4105,35.8879 -0.2414,53.3944 -45.6759,40.5731 -99.6764,89.8972 -153.7981,146.7884 l -157.2053,-123.8241 c 49.9572,-52.5124 99.9148,-105.0258 149.7524,-149.9745 20.7006,-14.3205 62.0864,-4.6851 78.8479,8.516" /><path
         inkscape:connector-curvature="0"
         style="fill:#f7c608;stroke-width:7.2917695"
         id="path12922"
         d="m 4666.3837,-8490.4973 -24.8186,-35.0959 c -16.5459,-23.3972 -9.6572,-52.2439 11.9332,-73.1552 64.3159,-37.657 143.7869,-92.4576 220.9666,-137.6454 l 157.1864,222.2703 c -83.6079,48.9519 -163.0853,103.7567 -216.8301,143.4949 -25.7269,15.0625 -57.4337,8.8138 -73.9797,-14.5833 l -20.6822,-29.2465 m 536.1184,-322.1645 24.8186,35.0953 c 16.5453,23.3972 9.6631,52.2403 -16.0631,67.3028 -68.4523,31.8076 -149.7681,71.1459 -233.3819,120.1013 l -157.1829,-222.2726 c 77.1796,-45.1883 154.3586,-90.3761 229.2456,-125.9507 29.8632,-9.2138 78.1094,20.4362 94.6554,43.8333" /><path
         inkscape:connector-curvature="0"
         style="fill:#006233;stroke-width:7.2917695"
         id="path12924"
         d="m 4717.587,-8510.5513 -17.7868,-25.152 c -11.9956,-16.9628 -4.6305,-38.6439 13.8677,-55.2647 53.4904,-31.3182 120.1372,-76.129 184.3247,-113.7106 l 112.514,159.0985 c -69.5363,40.7128 -136.1831,85.5235 -181.4297,117.8052 -21.3937,12.5256 -46.1317,9.6406 -58.1274,-7.3223 l -14.8911,-21.0574 m 446.4362,-267.1747 17.7862,25.1514 c 11.9956,16.9628 4.6369,38.641 -16.7628,51.1702 -56.3865,27.2243 -123.469,60.7108 -193.0114,101.4276 l -112.5086,-159.1015 c 64.1899,-37.5828 128.3815,-75.1662 190.1158,-105.5216 24.2957,-8.4352 61.0229,11.4169 73.0185,28.3797" /><path
         inkscape:connector-curvature="0"
         style="fill:#f7c608;stroke-width:7.2917304"
         id="path12928"
         d="m 5573.6775,-8959.3707 -12.9498,-40.035 c -8.633,-26.6901 6.9065,-52.6026 34.0955,-67.1346 73.3683,-19.6478 166.5857,-51.8621 254.6279,-75.439 l 82.0161,253.5548 c -95.3751,25.5412 -188.6,57.7574 -252.4696,82.1121 -29.3472,7.8593 -57.8364,-6.2634 -66.4695,-32.9529 l -10.7913,-33.3629 m 614.1372,-171.7156 12.9495,40.035 c 8.6332,26.6902 -6.8987,52.6013 -36.2466,60.4606 -75.5265,12.9748 -165.727,29.8801 -261.1097,55.4237 l -82.0114,-253.5566 c 88.0417,-23.5778 176.0838,-47.1547 258.9509,-62.096 31.5061,-1.1865 68.6208,39.6275 77.2538,66.3178" /><path
         inkscape:connector-curvature="0"
         style="fill:#006233;stroke-width:7.2917304"
         id="path12930"
         d="m 5629.0146,-8965.4892 -9.2803,-28.6918 c -6.2592,-19.3502 7.5195,-38.267 30.4137,-49.4726 61.0193,-16.3405 138.8391,-42.2563 212.0608,-61.8654 l 58.7079,181.4921 c -79.3231,21.243 -157.1429,47.1581 -210.5502,66.5361 -24.4048,6.5355 -47.2483,-2.5735 -53.5069,-21.9237 l -7.7698,-24.0213 m 511.0636,-141.9365 9.2809,28.6911 c 6.2587,19.3503 -7.5124,38.2641 -31.9242,44.802 -62.5305,11.6699 -137.2632,26.6076 -216.5934,47.8523 l -58.7021,-181.493 c 73.2247,-19.61 146.4511,-39.2192 215.0823,-52.5235 25.9234,-1.8667 55.018,26.5943 61.2773,45.9441" /><path
         inkscape:connector-curvature="0"
         style="fill:#f7c608;stroke-width:7.2917552"
         id="path12934"
         d="m 6589.4294,-9176.2524 v -41.7322 c 0,-27.822 22.9113,-48.7029 53.4987,-55.6772 76.4812,-0.063 175.8983,-7.0677 267.6764,-7.126 l 0.2003,264.3062 c -99.4219,0.066 -198.8467,7.0814 -267.6712,14.0809 -30.5926,0 -53.5569,-20.8325 -53.5782,-48.6535 v -34.7776 m 642.441,-7.3629 v 41.7321 c 0,27.8213 -22.903,48.702 -53.4957,48.7216 -76.4871,-6.9065 -168.2705,-13.8036 -267.7001,-13.7406 l -0.212,-264.3062 c 91.7782,-0.063 183.5557,-0.1176 267.6947,6.7858 30.598,6.9358 53.5759,55.6091 53.5976,83.4311" /><path
         inkscape:connector-curvature="0"
         style="fill:#006233;stroke-width:7.2917552"
         id="path12936"
         d="m 6644.4215,-9167.9408 v -29.9078 c 0,-20.171 19.0611,-34.7901 44.4976,-39.6742 63.6086,-0.063 146.302,-4.9613 222.6306,-5.0107 l 0.159,189.188 c -82.6893,0.063 -165.382,4.9738 -222.6266,9.8795 -25.4399,0 -44.5393,-14.5788 -44.5552,-34.7497 v -25.0389 m 534.3206,-5.2081 v 29.9077 c 0,20.171 -19.0535,34.7892 -44.5016,34.8054 -63.6123,-4.8285 -139.945,-9.6489 -222.6413,-9.5959 l -0.1296,-189.188 c 76.3322,-0.054 152.6656,-0.1 222.6378,4.728 25.4517,4.8518 44.5587,39.6167 44.5746,59.7886" /><path
         inkscape:connector-curvature="0"
         style="fill:#f7c608;stroke-width:7.29191446"
         id="path12940"
         d="m 7562.6148,-9129.612 12.5375,-40.1435 c 8.3581,-26.763 36.7018,-41.1273 68.2196,-40.2082 73.571,19.023 171.2986,37.0607 259.5834,59.8882 l -79.4014,254.2451 c -95.6383,-24.7284 -193.373,-42.7685 -261.6728,-53.1976 -29.4285,-7.6092 -45.2342,-33.3888 -36.8762,-60.1514 l 10.4481,-33.4529 m 620.0826,153.1007 -12.5367,40.1438 c -8.3587,26.7627 -36.6948,41.1291 -66.1233,33.5195 -71.4809,-25.7131 -157.6764,-55.2312 -253.3217,-79.9621 l 79.4055,-254.2442 c 88.2849,22.8275 176.5697,45.655 255.4117,73.2715 27.3385,14.2996 34.7792,66.8399 26.4211,93.6031" /><path
         inkscape:connector-curvature="0"
         style="fill:#006233;stroke-width:7.29191446"
         id="path12942"
         d="m 7613.0001,-9107.9063 8.9852,-28.7698 c 6.0602,-19.4036 28.8095,-28.706 54.7441,-27.0618 61.1872,15.8208 142.1993,31.7063 215.623,50.6908 l -56.8335,181.9865 c -79.5417,-20.5668 -160.5531,-36.452 -217.0852,-46.0074 -24.4723,-6.3276 -38.4455,-25.1255 -32.3858,-44.5287 l 7.5224,-24.0861 m 515.4497,128.2156 -8.9846,28.7701 c -6.0603,19.4027 -28.8025,28.7077 -53.2814,22.3777 -59.7249,-20.5045 -131.6859,-44.1724 -211.2351,-64.7412 l 56.8394,-181.9847 c 73.4266,18.9854 146.8545,37.9717 212.6973,60.0579 23.0166,11.013 30.9231,49.2116 24.8629,68.6143" /><path
         inkscape:connector-curvature="0"
         style="fill:#f7c608;stroke-width:7.29175758"
         id="path12946"
         d="m 8549.2445,-8820.1459 24.4563,-35.305 c 16.3048,-23.5366 47.9471,-30.0551 77.903,-21.0963 64.7001,37.1076 152.8832,79.4615 230.5231,123.9908 l -154.8921,223.6 c -84.106,-48.2381 -172.2959,-90.5962 -234.5988,-118.1067 -25.8804,-14.8429 -33.0648,-43.63 -16.7602,-67.1667 l 20.3807,-29.4208 m 547.5569,305.8198 -24.4573,35.305 c -16.3039,23.5373 -47.9393,30.0591 -73.82,15.2163 -60.6229,-42.9924 -134.1875,-93.4052 -218.3013,-141.6469 l 154.896,-223.5976 c 77.64,44.5293 155.2798,89.058 222.3787,135.7626 21.8035,20.7272 12.677,73.0468 -3.6276,96.5835" /><path
         inkscape:connector-curvature="0"
         style="fill:#006233;stroke-width:7.29175758"
         id="path12948"
         d="m 8590.8688,-8786.4068 17.5275,-25.3015 c 11.8205,-17.0643 36.5281,-20.16 60.9035,-11.9357 53.8091,30.8618 126.6207,66.8659 191.1912,103.8993 l -110.8682,160.0513 c -69.9523,-40.1197 -142.7629,-76.1237 -194.0457,-99.7805 -21.5219,-12.3437 -29.1095,-33.9611 -17.2879,-51.0253 l 14.6739,-21.1829 m 454.8678,255.1262 -17.5275,25.302 c -11.8205,17.0643 -36.5213,20.1635 -58.0491,7.8164 -50.9574,-34.9805 -112.6745,-76.1332 -182.6315,-116.2559 l 110.8731,-160.0483 c 64.5735,37.0351 129.1479,74.0707 185.4852,112.1371 18.6751,16.4658 14.4352,55.1445 2.6148,72.2081" /><path
         inkscape:connector-curvature="0"
         style="fill:#f7c608;stroke-width:7.29174471"
         id="path12952"
         d="m 9400.018,-8270.5089 34.3952,-27.6077 c 22.9307,-18.4051 55.3083,-16.5501 81.2789,-0.2768 50.593,52.1872 122.0932,115.4267 182.8052,178.0518 l -217.8359,174.8497 c -65.7685,-67.8411 -137.2747,-131.0858 -188.539,-173.4504 -20.2374,-20.8755 -18.2207,-50.3381 4.7109,-68.7426 l 28.662,-23.0067 m 430.7156,433.7728 -34.3961,27.6077 c -22.9307,18.405 -55.3039,16.5553 -75.5411,-4.3195 -44.859,-56.7888 -99.8383,-124.0151 -165.6123,-191.8613 L 9698.5,-8120.3386 c 60.713,62.6247 121.4242,125.25 171.3468,187.2598 14.5051,25.4764 -10.4485,73.3388 -33.3783,91.744" /><path
         inkscape:connector-curvature="0"
         style="fill:#006233;stroke-width:7.29174471"
         id="path12954"
         d="m 9429.512,-8227.4684 24.6503,-19.7854 c 16.6241,-13.3437 41.2888,-9.9817 62.132,4.1569 42.0776,43.4034 100.7932,96.6105 151.2846,148.6935 l -155.9228,125.1569 c -54.699,-56.4231 -113.4169,-109.6303 -155.2999,-145.4729 -16.8287,-17.3593 -17.4156,-40.0467 -0.7933,-53.3902 l 20.6376,-16.5644 m 357.4719,361.3762 -24.6503,19.7854 c -16.6259,13.3436 -41.2852,9.987 -58.1192,-7.3776 -38.0632,-46.6245 -84.5434,-101.9282 -139.2477,-158.3565 l 155.9273,-125.1527 c 50.4952,52.0852 100.9895,104.1718 143.2619,155.1359 12.8223,20.5852 -3.2202,56.6109 -19.8443,69.9545" /><path
         inkscape:connector-curvature="0"
         style="fill:#f7c608;stroke-width:7.29184008"
         id="path12958"
         d="m 10046.197,-7524.9274 41.55,-17.6743 c 27.701,-11.7824 58.194,-1.7042 78.075,20.5669 32.39,63.0416 81.421,142.0467 120.288,217.6964 l -263.151,111.9382 c -42.1041,-81.9508 -91.1373,-160.9624 -127.2126,-214.7509 -12.9552,-25.2161 -1.8991,-52.9692 25.8009,-64.7517 l 34.6249,-14.7286 m 278.9998,526.6025 -41.551,17.6743 c -27.7,11.7831 -58.19,1.7108 -71.145,-23.506 -25.466,-65.9871 -57.408,-144.5825 -99.517,-226.5396 l 263.153,-111.9346 c 38.868,75.6502 77.735,151.2999 106.44,223.5941 6.032,28.1624 -32.728,67.6914 -60.428,79.4745" /><path
         inkscape:connector-curvature="0"
         style="fill:#006233;stroke-width:7.29184008"
         id="path12960"
         d="m 10061.172,-7476.0691 29.778,-12.667 c 20.083,-8.5424 42.71,1.0053 58.331,19.9133 26.938,52.4303 66.808,118.5324 99.134,181.4479 l -188.361,80.1258 c -35.019,-68.1585 -74.8885,-134.2604 -103.9805,-179.3863 -10.7734,-20.9696 -4.3142,-42.8893 15.7688,-51.4322 l 24.9294,-10.6041 m 231.1323,438.3648 -29.777,12.6664 c -20.083,8.543 -42.705,-0.9982 -53.482,-21.9743 -22.092,-54.4927 -49.569,-119.4706 -84.591,-187.6343 l 188.362,-80.1205 c 32.327,62.9179 64.653,125.837 89.438,185.572 5.929,23.0385 -20.615,53.4939 -40.698,62.0364" /><path
         inkscape:connector-curvature="0"
         style="fill:#f7c608;stroke-width:7.29180574"
         id="path12964"
         d="m 10435.336,-6644.1072 45.336,-6.3099 c 30.224,-4.2064 56.362,13.2801 68.544,39.7458 11.563,68.7933 34.15,157.17 48.026,239.7213 l -287.132,39.9643 c -15.032,-89.4279 -37.62,-177.8104 -55.583,-238.6696 -4.625,-27.5169 14.574,-51.3133 44.798,-55.5203 l 37.781,-5.2582 m 104.687,576.8117 -45.336,6.31 c -30.225,4.2069 -56.362,-13.2729 -60.987,-40.7904 -4.007,-69.8451 -10.327,-153.4482 -25.36,-242.8832 l 287.133,-39.96 c 13.876,82.5518 27.752,165.1039 32.916,241.8318 -2.932,28.5687 -52.356,56.5644 -82.58,60.7709" /><path
         inkscape:connector-curvature="0"
         style="fill:#006233;stroke-width:7.29180574"
         id="path12966"
         d="m 10434.581,-6593.3868 32.491,-4.5222 c 21.913,-3.0498 40.667,11.9109 49.803,34.0578 9.616,57.2146 27.409,130.862 38.949,199.5174 l -205.527,28.607 c -12.501,-74.3766 -30.293,-148.0233 -44.238,-198.7807 -3.846,-22.883 9.136,-42.2604 31.048,-45.3103 l 27.203,-3.7859 m 86.073,479.875 -32.491,4.5215 c -21.914,3.0498 -40.666,-11.9039 -44.513,-34.7932 -4.328,-57.9508 -10.579,-127.3428 -23.082,-201.7264 l 205.527,-28.6017 c 11.541,68.6589 23.082,137.3185 28.37,200.9897 -1.44,23.6261 -36.337,46.0462 -58.249,49.0961" /><path
         inkscape:connector-curvature="0"
         style="fill:#f7c608;stroke-width:7.29161835"
         id="path12970"
         d="m 10536.1,-5698.8857 45.454,5.5656 c 30.302,3.7106 49.969,27.1872 53.464,55.7024 -10.198,68.9687 -15.882,159.5519 -28.12,242.3141 l -287.875,-35.2472 c 13.258,-89.6558 18.943,-180.2461 20.546,-243.2417 4.079,-27.5876 29.866,-45.4987 60.169,-41.7882 l 37.878,4.6382 m -78.098,580.2638 -45.455,-5.5662 c -30.303,-3.71 -49.97,-27.1801 -45.89,-54.7677 17.774,-68.0406 37.59,-149.8755 50.85,-239.5382 l 287.874,35.2514 c -12.239,82.7621 -24.479,165.5245 -43.275,240.4663 -11.655,26.6595 -67.743,40.8535 -98.046,37.143" /><path
         inkscape:connector-curvature="0"
         style="fill:#006233;stroke-width:7.29161835"
         id="path12972"
         d="m 10519.677,-5650.4142 32.575,3.9885 c 21.969,2.6899 35.333,21.8506 37.243,45.4414 -8.483,57.36 -14.209,132.5822 -24.387,201.413 l -206.059,-25.2284 c 11.028,-74.5661 16.753,-149.7883 19.085,-202.0621 3.393,-22.9412 21.846,-38.2064 43.816,-35.5163 l 27.272,3.3395 m -65.952,482.485 -32.575,-3.9885 c -21.969,-2.6901 -35.335,-21.8443 -31.941,-44.7927 13.785,-56.7103 29.268,-124.8918 40.295,-199.4649 l 206.058,25.2338 c -10.18,68.8339 -20.359,137.6684 -34.993,200.1146 -8.696,22.2987 -49.119,34.8668 -71.088,32.1768" /><path
         inkscape:connector-curvature="0"
         style="fill:#f7c608;stroke-width:7.29186106"
         id="path12976"
         d="m 10340.633,-4766.3117 41.894,16.99 c 27.929,11.3273 39.534,38.8937 34.061,67.1503 -31.136,63.5622 -64.63,149.0215 -101.994,225.296 l -265.328,-107.6033 c 40.476,-82.6274 73.973,-168.0932 95.012,-228.1273 12.455,-25.4247 42.744,-36.0017 70.673,-24.6751 l 34.912,14.1587 m -254.564,536.7538 -41.8946,-16.9905 c -27.9279,-11.3267 -39.536,-38.8872 -27.0816,-64.3125 38.1189,-60.7302 82.4642,-134.1732 122.9432,-216.8071 l 265.326,107.6074 c -37.364,76.2745 -74.728,152.5489 -115.961,219.6386 -19.438,22.5932 -77.653,21.8365 -105.582,10.5098" /><path
         inkscape:connector-curvature="0"
         style="fill:#006233;stroke-width:7.29186106"
         id="path12978"
         d="m 10309.869,-4724.0125 30.024,12.1758 c 20.248,8.2121 27.14,30.0227 21.671,53.1477 -25.896,52.8634 -54.675,123.5728 -85.749,187.0078 l -189.919,-77.02 c 33.663,-68.7208 62.443,-139.4303 80.861,-188.99 10.357,-21.1428 32.791,-31.0602 53.04,-22.8482 l 25.135,10.1942 m -212.641,446.047 -30.024,-12.1764 c -20.2481,-8.2121 -27.1426,-30.0156 -16.7829,-51.1649 30.7829,-50.8817 66.7449,-112.3344 100.4119,-181.0617 l 189.917,77.0253 c -31.076,63.4372 -62.152,126.8763 -95.524,183.0433 -15.249,19.1671 -57.927,20.866 -78.177,12.654" /><path
         inkscape:connector-curvature="0"
         style="fill:#f7c608;stroke-width:7.29176092"
         id="path12982"
         d="m 9863.734,-3921.5437 34.9355,27.0399 c 23.2915,18.0258 25.8915,47.4509 11.8935,73.1605 -49.551,53.0081 -108.1442,126.4223 -167.6061,190.0322 l -221.267,-171.248 c 64.4147,-68.9079 123.0123,-142.3276 161.7826,-194.5389 19.8209,-21.2029 52.1591,-23.5885 75.4497,-5.5621 l 29.1135,22.5326 m -410.4145,449.7752 -34.9363,-27.0399 c -23.2907,-18.0265 -25.8961,-47.4455 -6.0751,-68.649 55.3748,-48.5013 120.6605,-107.6044 185.0801,-176.5179 l 221.2625,171.2516 c -59.462,63.6092 -118.9246,127.219 -179.2566,181.0239 -25.6429,16.6967 -81.2663,1.0505 -104.5569,-16.9758" /><path
         inkscape:connector-curvature="0"
         style="fill:#006233;stroke-width:7.29176092"
         id="path12984"
         d="m 9821.1206,-3888.8416 25.0389,19.3786 c 16.8853,13.0684 16.7462,35.7618 4.3402,56.5489 -41.2125,44.086 -90.715,104.5558 -140.1682,157.458 l -158.3811,-122.5763 c 53.5739,-57.31 103.0754,-117.7805 136.0903,-160.6132 16.4832,-17.6319 41.0787,-21.3978 57.964,-8.3286 l 20.9626,16.2237 m -342.1096,373.4855 -25.0381,-19.3786 c -16.8861,-13.069 -16.7515,-35.7572 -0.2656,-53.3943 45.2888,-40.9313 98.8175,-90.6793 152.3955,-147.9945 l 158.3775,122.5805 c -49.4559,52.9044 -98.9107,105.8101 -148.3185,151.1491 -20.564,14.4831 -62.0404,5.1745 -78.9256,-7.8946" /><path
         inkscape:connector-curvature="0"
         style="fill:#f7c608;stroke-width:7.29173613"
         id="path12988"
         d="m 9144.8945,-3233.2479 25.1529,34.8986 c 16.7668,23.2658 10.1533,52.1655 -11.2374,73.2464 -63.9547,38.1622 -142.9008,93.5867 -219.6464,139.3809 l -159.2956,-221.0237 c 83.1385,-49.6078 162.0908,-105.0368 215.4556,-145.1966 25.5815,-15.2645 57.3465,-9.2661 74.1151,13.9996 l 20.9597,29.0828 m -533.0297,326.3744 -25.1509,-34.8987 c -16.7676,-23.2657 -10.1604,-52.1618 15.4212,-67.4264 68.1469,-32.3452 149.0846,-72.3225 232.229,-121.9351 l 159.2918,221.026 c -76.7456,45.7937 -153.4912,91.588 -228.0369,127.7509 -29.7747,9.4481 -78.3015,-19.8201 -95.0691,-43.0859" /><path
         inkscape:connector-curvature="0"
         style="fill:#006233;stroke-width:7.29173613"
         id="path12990"
         d="m 9093.8851,-3212.7912 18.0242,25.0101 c 12.1573,16.8681 4.999,38.6069 -13.3402,55.3719 -53.1902,31.7386 -119.4081,77.0725 -183.2353,115.1581 l -114.0228,-158.2051 c 69.1455,-41.2593 135.3635,-86.5936 180.3002,-119.2298 21.2745,-12.694 46.0386,-10.0033 58.1951,6.8641 l 15.0909,20.9391 m -443.8734,270.681 -18.0253,-25.0107 c -12.1565,-16.8681 -5.0047,-38.6028 16.2746,-51.3004 56.1259,-27.667 122.8865,-61.6806 192.0379,-102.9433 l 114.0189,158.2081 c -63.8301,38.0869 -127.6602,76.175 -189.1044,107.0151 -24.2137,8.6259 -61.1286,-10.9358 -73.2851,-27.8033" /><path
         inkscape:connector-curvature="0"
         style="fill:#f7c608;stroke-width:7.29177999"
         id="path12994"
         d="m 8242.1686,-2757.0953 13.3307,39.9313 c 8.8863,26.6212 -6.4059,52.656 -33.4558,67.4011 -73.1799,20.2253 -166.0881,53.1724 -253.9042,77.4428 l -84.4271,-252.9 c 95.1301,-26.2915 188.0459,-59.241 251.6824,-84.0979 29.2717,-8.0902 57.8946,5.807 66.7815,32.4283 l 11.1082,33.2763 m -612.4889,176.5472 -13.3301,-39.9312 c -8.8869,-26.6213 6.3983,-52.6537 35.6701,-60.7437 75.4018,-13.5698 165.4391,-31.1852 260.5768,-57.479 l 84.4229,252.9012 c -87.816,24.2704 -175.6321,48.5402 -258.3549,64.134 -31.4937,1.4357 -68.9958,-39.0857 -77.8827,-65.7063" /><path
         inkscape:connector-curvature="0"
         style="fill:#006233;stroke-width:7.29177999"
         id="path12996"
         d="m 8186.891,-2750.541 9.5529,28.6176 c 6.4436,19.3001 -7.155,38.3242 -29.9421,49.7103 -60.8621,16.821 -138.4332,43.3486 -211.467,63.5334 l -60.4335,-181.0223 c 79.1195,-21.8671 156.6906,-48.3941 209.912,-68.192 24.3422,-6.728 47.2717,2.2007 53.7147,21.501 l 7.9984,23.9587 m -509.7017,145.9588 -9.5534,-28.6177 c -6.4431,-19.3007 7.1478,-38.3224 31.4972,-45.0521 62.4179,-12.1622 137.0064,-27.6883 216.1328,-49.5567 l 60.4275,181.024 c -73.0361,20.1852 -146.074,40.3717 -214.5776,54.216 -25.9045,2.0723 -55.2694,-26.1595 -61.7125,-45.4598" /><path
         inkscape:connector-curvature="0"
         style="fill:#f7c608;stroke-width:7.29175091"
         id="path13000"
         d="m 7228.433,-2531.2368 0.4299,41.7325 c 0.2886,27.8214 -22.4455,48.8831 -52.9639,56.0987 -76.4747,0.6524 -175.8171,8.4529 -267.587,9.2344 l -2.7201,-264.3064 c 99.4137,-0.8462 198.7638,-8.6477 267.5156,-16.1897 30.5899,-0.259 53.7508,20.4109 54.0371,48.2323 l 0.3591,34.7774 m -642.3178,12.4243 -0.4299,-41.7321 c -0.2885,-27.822 22.4384,-48.8835 53.0281,-49.1438 76.5465,6.304 168.3883,12.4785 267.809,11.6316 l 2.7154,264.3064 c -91.7699,0.7808 -183.5398,1.5617 -267.7377,-4.6764 -30.6617,-6.695 -54.1006,-55.1877 -54.3867,-83.0097" /><path
         inkscape:connector-curvature="0"
         style="fill:#006233;stroke-width:7.29175091"
         id="path13002"
         d="m 7173.3661,-2539.1157 0.3062,29.9085 c 0.212,20.1705 -18.7283,34.9398 -44.1164,40.0249 -63.6029,0.5418 -146.2426,6.1144 -222.5642,6.764 l -1.9492,-189.1872 c 82.6815,-0.705 165.3207,-6.277 222.5141,-11.6329 25.4381,-0.212 44.6747,14.2269 44.8821,34.3981 l 0.2591,25.0395 m -534.2276,9.4174 -0.3062,-29.9084 c -0.212,-20.1705 18.7207,-34.9399 44.1665,-35.1565 63.6535,4.3277 140.0251,8.5464 222.7149,7.8428 l 1.9409,189.1872 c -76.325,0.65 -152.6519,1.2997 -222.6642,-2.9733 -25.4958,-4.6522 -44.9321,-39.2671 -45.1394,-59.4376" /></g><g
       inkscape:groupmode="layer"
       id="layer6"
       inkscape:label="flag"
       style="display:inline"><g
         inkscape:groupmode="layer"
         id="layer5"
         inkscape:label="flag 1"
         style="display:inline"><g
           inkscape:groupmode="layer"
           id="layer2"
           inkscape:label="main"
           style="display:inline;opacity:1"
           transform="translate(0,10677.334)"><path
             inkscape:connector-curvature="0"
             style="fill:#ffffff;stroke-width:4.49552202"
             id="path3159"
             d="m 4917.4371,-5566.2324 c -304.546,416.1991 -84.6613,686.889 229.2914,706.1479 206.9507,13.9086 637.3131,-266.4105 636.1371,-595.9462 l -117.5852,-59.9154 c 65.8476,169.047 -2.3521,222.543 -142.2784,338.0952 -276.326,227.8926 -840.7357,243.9417 -605.5649,-388.3815 z" /><path
             inkscape:connector-curvature="0"
             style="fill:#ffffff;stroke-width:11.21637249px"
             id="path3115"
             d="m 7331.465,-4474.9134 c 1714.3948,43.8668 2259.9907,-1465.7912 1201.7222,-2758.2558 l -104.651,142.3 c 68.1996,602.3647 166.9714,1196.1708 176.3787,1813.5152 -206.9508,221.4739 -507.9694,139.0899 -567.9377,-106.992 3.5272,-333.8157 -116.4095,-616.2741 -268.0952,-885.8943 l -84.6609,142.2995 c 98.7714,221.4733 205.7744,470.7649 228.1154,743.5948 -489.1551,533.8906 -1030.0476,641.9524 -828.9765,-59.9161 -386.856,615.205 198.7189,1048.5229 861.9007,101.643 142.2785,646.2324 692.5775,245.0121 725.5018,105.9223 59.9683,-423.6887 29.3961,-1106.2984 -91.7166,-1645.5385 477.3963,752.1546 493.858,1294.604 239.8742,1657.3076 -282.2057,403.3603 -896.0012,591.6662 -1487.4551,750.0143 z" /><path
             inkscape:connector-curvature="0"
             style="fill:#ffffff;stroke-width:11.21637249px"
             id="path3117"
             d="m 8303.8964,-6181.4369 c -366.867,24.6082 -555.0042,-43.8669 -356.2846,-291.0183 196.3676,-241.8026 379.8015,-49.2167 429.1865,273.8995 45.8587,302.7876 -644.3668,689.0284 -883.0657,689.0284 -360.9872,0 -527.9584,-422.6179 -195.1915,-802.4399 -428.0108,1108.4379 924.2211,465.4152 1005.3553,130.5303 z m -253.9847,-256.7812 c -44.6827,-2.1395 -77.607,69.5451 -55.2652,83.4537 64.6716,40.6572 166.9706,16.0492 177.5539,-4.2794 22.3409,-44.9366 -59.9692,-77.0344 -122.2887,-79.1743 z" /><path
             inkscape:connector-curvature="0"
             style="fill:#ffffff;stroke-width:11.21637249px"
             id="path3140"
             d="m 6311.9994,-5658.2456 c -352.7561,631.2529 -1.1754,892.3137 451.5283,819.5593 263.3911,-43.8668 597.3335,-213.984 790.1735,-446.1574 3.5276,-511.422 -4.7035,-1018.564 -54.0895,-1513.9377 176.3783,-191.5149 -15.2862,-190.4453 -82.3093,-395.8705 -30.5724,119.8311 -104.6511,249.2914 -32.9244,342.3744 50.562,499.6531 78.7823,1005.7255 77.6067,1521.4275 -355.1081,259.9911 -622.0268,356.2836 -812.5148,354.1437 -393.9109,-3.2097 -478.5729,-304.9277 -337.4705,-681.5393 z" /><path
             inkscape:connector-curvature="0"
             style="fill:#ffffff;stroke-width:11.21637249px"
             id="path3150"
             d="m 7032.7979,-5491.3381 c -5.8791,-476.1145 -14.1102,-1016.4246 -61.1441,-1349.1702 183.4328,-185.0956 -9.4071,-189.3758 -69.3752,-396.9401 -35.2759,117.691 -112.8822,246.0816 -44.683,341.3047 30.5723,509.2822 59.9686,1018.5642 65.8482,1527.8463 42.3304,-24.608 90.5404,-34.2372 109.3541,-123.0407 z" /><path
             inkscape:connector-curvature="0"
             style="fill:#ffffff;stroke-width:4.49552202"
             id="path3152"
             d="m 5664.1043,-5513.8067 c -44.6823,-51.356 -76.4302,-109.132 -112.8822,-159.4177 -5.879,-71.6847 47.0346,-138.0201 54.0897,-174.3973 59.9686,84.5234 95.2439,148.7189 143.4539,190.4458 m 63.4962,33.1675 c 88.1888,32.0977 196.3674,32.0977 296.315,34.2377 385.6799,6.4194 791.3496,-51.3566 747.8432,423.6888 -37.6274,421.5489 -422.1319,665.4907 -766.6569,662.2804 -490.331,-4.2794 -908.9348,-496.4426 -152.8611,-1402.666 72.9033,-10.6989 168.1473,7.4897 246.9296,13.9092 135.2229,9.6291 273.9738,-2.1401 432.7145,-117.6916 -18.8143,-298.5076 -18.8143,-580.9665 -58.7932,-850.5871 -68.1992,-95.2222 9.4071,-222.5432 44.6825,-341.3048 59.9685,207.5653 251.6326,211.8455 69.3752,398.0106 43.507,299.5782 48.2105,604.5059 48.2105,786.3922 -91.717,127.3206 -163.4437,262.1304 -431.5385,313.4866 -273.9738,-36.3772 -397.4385,-385.1712 -683.1709,-269.6197 78.7823,-314.5568 804.2837,-386.2414 877.1865,-138.02 -48.2101,258.9207 -725.5015,155.1383 -905.4074,991.8165 -55.2651,257.8511 243.4021,495.3735 550.2997,476.1146 299.8425,-18.1885 619.6749,-207.5647 651.4232,-526.4009 24.6927,-266.4104 -388.032,-235.383 -560.8822,-232.1727 -251.6326,5.3492 -410.3734,-29.9583 -505.6172,-80.2441"
             sodipodi:nodetypes="ccccccccccccccccccccccc" /><path
             inkscape:connector-curvature="0"
             style="fill:#ffffff;stroke-width:11.21637249px"
             id="path3161"
             d="m 6353.1544,-6944.2901 c 42.3309,85.5932 59.9687,142.2991 62.3207,224.6834 -25.8694,111.2714 -130.5199,215.0537 -238.6986,218.2634 -67.0236,2.14 -142.2784,-14.9788 -195.192,-110.2018 -5.879,-11.7692 -34.0992,-39.5869 -61.1441,-26.7479 -118.7611,177.6069 -206.95,252.5012 -313.9532,251.4315 -214.0051,-3.2097 -150.509,-176.5373 -348.0525,-230.0332 -82.3099,-2.1401 -217.5328,73.8245 -286.9085,222.5435 -263.3912,679.3992 -503.2651,-2.1401 -400.9656,-318.8361 15.2856,302.7875 95.244,482.5339 177.5539,477.1842 59.9686,-5.3491 112.8816,-131.6001 189.3124,-264.2704 58.7926,-101.6424 199.895,-284.5986 349.2285,-284.5986 136.399,3.2097 50.5616,231.1025 323.3593,227.8928 131.6959,-2.1395 252.8087,-94.1527 375.0974,-278.1793 27.0448,-4.2802 34.0999,39.5869 39.9794,54.5658 18.8138,63.1253 138.7504,236.4529 301.0186,78.1042 -8.2311,-34.2371 -4.7035,-90.9429 -45.8585,-102.7121 z" /><path
             inkscape:connector-curvature="0"
             style="fill:#ffffff;stroke-width:4.49552202"
             id="path3163"
             d="m 7210.3517,-7507.0684 c -144.6294,65.2653 -250.4566,5.3488 -310.4252,-52.4266 104.6511,-19.2582 185.7849,-53.4961 209.3021,-128.3897 -47.0339,-96.2936 -158.7406,-138.0206 -316.3046,-139.0903 -210.4783,5.3499 -318.6563,82.3844 -331.591,188.3063 97.596,3.2097 185.7849,-21.3984 223.4123,64.1948 -172.8508,77.0345 -376.2733,104.8522 -597.3336,103.7826 -362.1633,17.119 -415.0763,-131.6003 -510.3208,-262.1301 -7.055,-8.5595 -38.8028,-22.4688 -55.2651,-20.3286 -111.706,0 -194.0154,355.2131 -319.8322,354.1435 -125.8163,-14.9789 -97.5955,-228.9636 -134.0468,-350.9339 -30.5723,191.515 38.8029,904.0823 428.0103,130.5298 11.7587,-25.6776 28.2208,-18.1886 38.8034,3.2097 104.6511,216.1248 317.4803,291.0192 546.7722,301.7179 191.6639,9.6291 436.2415,-66.3349 698.4566,-201.1449 69.3758,69.5446 124.6408,148.7193 270.4462,163.6981 170.4988,7.489 352.7562,-104.8522 393.9111,-243.9424 21.1657,-71.6847 24.6933,-212.9142 -58.7926,-215.0542 -116.4091,-3.2097 -201.0711,253.5715 -174.0263,484.6742 2.352,-3.2097 15.2862,-57.7754 15.2862,-57.7754 m -515.0238,-308.1373 c 76.4303,-32.097 150.5091,-47.0759 209.3016,23.5383 -45.8585,14.979 -74.0788,24.6081 -98.7715,42.7967 -32.9238,-23.5384 -77.6062,-35.3076 -110.5301,-66.335 z m 562.0578,159.4179 c 18.8136,-75.9639 29.3962,-136.9491 97.5959,-176.536 14.1102,80.2433 16.4617,125.18 -97.5959,176.536 z" /><path
             inkscape:connector-curvature="0"
             style="fill:#ffffff;stroke-width:4.49552202"
             id="path3169"
             d="m 7732.4315,-7415.055 c -22.3418,-65.2654 -44.6828,-121.9713 -51.738,-192.5864 -16.4622,-143.3686 118.7616,-224.6833 241.0503,-212.9141 125.8158,11.7691 209.302,54.5667 329.2386,92.0134 94.0686,28.8881 221.0605,51.356 342.1731,82.3834 68.2005,27.8177 0,100.573 -17.6376,110.2021 -303.3706,108.0619 -518.5518,279.249 -711.3913,286.739 -115.2344,5.3489 -217.533,-63.1253 -310.4254,-203.2851 -5.8796,-271.7592 -16.4622,-590.596 -45.8584,-790.6715 44.6824,-40.6573 54.0895,-70.6151 75.2547,-103.7825 23.5173,264.2711 32.9239,542.4505 38.8035,822.7692 24.6926,48.1464 55.265,88.8038 110.5305,109.1325 z"
             sodipodi:nodetypes="cccccccccccc" /><path
             inkscape:connector-curvature="0"
             style="fill:#ffffff;stroke-width:4.49552202"
             id="path3173"
             d="m 7767.706,-7260.9869 22.3417,99.5025 h 17.6378 l -7.0553,-93.083" /><path
             inkscape:connector-curvature="0"
             style="fill:#ffffff;stroke-width:44.95521927;stroke-linecap:round;stroke-linejoin:round"
             id="path5196"
             d="m 5179.6523,-6221.0243 82.3098,-77.0337 95.2447,73.824 -88.1895,71.6846 z" /><path
             inkscape:connector-curvature="0"
             style="fill:#ffffff;stroke-width:44.95521927;stroke-linecap:round;stroke-linejoin:round"
             id="path6168"
             d="m 5388.9545,-6246.702 83.4859,-77.0343 95.2439,73.8246 -88.1889,71.6847 z" /><path
             inkscape:connector-curvature="0"
             style="fill:#ffffff;stroke-width:44.95521927;stroke-linecap:round;stroke-linejoin:round"
             id="path6170"
             d="m 4806.9071,-7044.863 83.4852,-77.0345 95.2446,73.8248 -88.1895,71.6848 z" /><path
             inkscape:connector-curvature="0"
             style="fill:#ffffff;stroke-width:44.95521927;stroke-linecap:round;stroke-linejoin:round"
             id="path6172"
             d="m 4844.5345,-6818.0396 83.4852,-77.0345 94.0685,73.8239 -88.1889,71.6857 z" /><path
             inkscape:connector-curvature="0"
             style="fill:#ffffff;stroke-width:44.95521927;stroke-linecap:round;stroke-linejoin:round"
             id="path6174"
             d="m 6355.5065,-6438.2181 76.4303,-56.7057 70.5511,69.5452 -79.9578,51.3559 z" /><path
             inkscape:connector-curvature="0"
             style="fill:#ffffff;stroke-width:44.95521927;stroke-linecap:round;stroke-linejoin:round"
             id="path6176"
             d="m 5346.6236,-7890.1002 54.0896,-50.2865 62.32,48.1464 -57.6165,47.0768 z" /><path
             inkscape:connector-curvature="0"
             style="fill:#ffffff;stroke-width:44.95521927;stroke-linecap:round;stroke-linejoin:round"
             id="path6178"
             d="m 5484.1985,-7906.1495 54.0896,-51.3561 62.3201,49.2168 -57.6166,46.0063 z" /><path
             inkscape:connector-curvature="0"
             style="fill:#ffffff;stroke-width:44.95521927;stroke-linecap:round;stroke-linejoin:round"
             id="path6180"
             d="m 8372.0951,-7331.601 -51.738,39.5868 -49.3849,-46.0072 54.089,-36.3772 z" /><path
             inkscape:connector-curvature="0"
             style="fill:#ffffff;stroke-width:4.49552202"
             id="path9240"
             d="m 5938.0781,-5911.8172 -5.879,84.5241 148.1575,12.8388 118.7612,-81.3138 z" /><path
             inkscape:connector-curvature="0"
             style="fill:#ffffff;stroke-width:11.21637249px"
             id="path9242"
             d="m 7190.3625,-7491.0199 43.5065,-8.5595 -4.7036,110.202 -27.0442,9.63 z" /><path
             inkscape:connector-curvature="0"
             style="fill:#ffffff;stroke-width:6.68437481"
             id="path2722"
             d="m 6865.8073,-3054.7278 c 1669.2339,0 3027.3651,-1235.7584 3027.3651,-2754.3773 0,-835.608 -409.724,-1581.2087 -1054.6462,-2085.2082 386.9399,414.2594 622.1377,959.6523 622.1377,1553.3909 0,1318.8781 -1160.8867,2388.7988 -2594.8566,2388.7988 -1434.0363,0 -2594.9227,-1069.9207 -2594.9227,-2388.7988 0,-593.7386 235.1973,-1139.1315 622.1374,-1553.3909 -644.922,503.9995 -1054.6468,1249.6002 -1054.6468,2085.2082 0,1518.6189 1358.1986,2754.3773 3027.4321,2754.3773 z"
             class="fil2" /></g><path
           style="fill:#006233;fill-opacity:1;stroke:#006233;stroke-width:3.99280882px;stroke-linecap:butt;stroke-linejoin:miter;stroke-opacity:1"
           d="m 7864.0095,3290.4085 c 199.6405,0 468.3011,-160.9811 482.2166,-185.4083 -150.448,-35.2828 -342.4682,-173.9445 -522.1446,-153.9805 -78.8039,23.589 -39.9281,299.4607 39.928,339.3888 z"
           id="path4821"
           inkscape:connector-curvature="0"
           sodipodi:nodetypes="cccc" /></g><g
         style="display:inline"
         inkscape:label="1"
         id="g4825"
         inkscape:groupmode="layer"><path
           sodipodi:nodetypes="cccc"
           inkscape:connector-curvature="0"
           id="path4823"
           d="m 5969.8266,4617.8681 c 59.8922,39.9281 80.0341,63.4898 139.9263,83.4538 29.7972,-40.5723 77.2769,-67.1161 117.5852,-86.6635 -60.2724,-66.5151 -226.1088,-36.7183 -257.5115,3.2097 z"
           style="fill:#006233;fill-opacity:1;stroke:#006233;stroke-width:3.99280882px;stroke-linecap:butt;stroke-linejoin:miter;stroke-opacity:1" /></g></g><g
       inkscape:groupmode="layer"
       id="layer4"
       inkscape:label="tree"
       style="display:inline"
       transform="translate(0,10677.334)"><g
         id="g13237"
         transform="matrix(5.8155281,0,0,5.8155281,6883.7209,-11748.275)"><g
           id="g13004"
           transform="matrix(1.1437,0,0,1.1446,-0.39167,-145.67)"><g
             id="g9244"
             transform="matrix(1.7598,0,0,1.6,-2175.2,-3398.1)"
             style="fill:#ffffff;fill-rule:evenodd;stroke:#ffffff" /><g
             id="g2908"
             transform="matrix(1.1355,0,0,1.0324,2.7256,-21.429)"
             style="fill:#ffffff;stroke:#000000;stroke-width:8.01200008"><path
               id="path2910"
               d="m -54,1623 c -88,44 -198,32 -291,-28 -4,-2 -6,1 -2,12 10,29 18,52 -12,95 -13,19 2,22 24,20 112,-11 222,-36 275,-57 z"
               class="fil2 str2"
               inkscape:connector-curvature="0" /><path
               id="path2912"
               d="m -56,1675 c -35,14 -95,31 -162,43 -27,4 -26,21 22,27 49,5 112,-30 150,-61 z"
               class="fil2 str2"
               inkscape:connector-curvature="0" /><path
               id="path2914"
               d="m 0,1579 c 12,0 34,-5 56,-8 41,-7 11,56 -56,56 v 21 c 68,0 139,-74 124,-107 -21,-48 -79,-7 -124,-7 -45,0 -103,-41 -124,7 -15,33 56,107 124,107 v -21 c -67,0 -97,-63 -56,-56 22,3 44,8 56,8 z"
               class="fil2 str2"
               inkscape:connector-curvature="0" /><path
               id="path2916"
               d="m 54,1623 c 88,44 198,32 291,-28 4,-2 6,1 2,12 -10,29 -18,52 12,95 13,19 -2,22 -24,20 -112,-11 -222,-36 -275,-57 z"
               class="fil2 str2"
               inkscape:connector-curvature="0" /><path
               id="path2918"
               d="m 56,1675 c 35,14 94,31 162,43 27,4 26,21 -22,27 -49,5 -112,-30 -150,-61 z"
               class="fil2 str2"
               inkscape:connector-curvature="0" /><path
               id="path2920"
               d="m 3,1665 c 2,17 5,54 28,38 31,-21 38,-37 38,-67 0,-19 -23,-47 -69,-47 -46,0 -69,28 -69,47 0,30 7,46 38,67 23,16 25,-21 28,-38 1,-6 6,-4 6,0 z"
               class="fil2 str2"
               inkscape:connector-curvature="0" /></g><g
             id="g2724"
             transform="matrix(1.1355,0,0,1.0324,2.7256,-21.429)"
             style="fill:#ffffff;stroke:#000000;stroke-width:8.01200008"><path
               id="path2726"
               d="m -29,384 c -13,-74 -122,-79 -139,-91 -20,-13 -17,0 -10,20 20,52 88,73 119,79 25,4 33,6 30,-8 z"
               class="fil2 str2"
               inkscape:connector-curvature="0" /><path
               id="path2728"
               d="m 4,386 c 11,-76 -97,-112 -110,-129 -15,-18 -17,-7 -10,14 13,45 60,98 88,112 23,12 30,17 32,3 z"
               class="fil2 str2"
               inkscape:connector-curvature="0" /><path
               id="path2730"
               d="M 93,430 C 103,339 15,325 -8,296 c -15,-18 -16,-8 -11,13 10,46 54,100 81,117 21,13 30,18 31,4 z"
               class="fil2 str2"
               inkscape:connector-curvature="0" /><path
               id="path2732"
               d="m 66,410 c -91,-59 -155,-26 -181,-29 -25,-3 -33,13 10,37 53,29 127,25 156,14 30,-12 21,-18 15,-22 z"
               class="fil2 str2"
               inkscape:connector-curvature="0" /><path
               id="path2734"
               d="M 203,450 C 175,352 110,368 91,356 72,344 70,347 74,369 c 8,39 75,82 108,95 12,4 27,10 21,-14 z"
               class="fil2 str2"
               inkscape:connector-curvature="0" /><path
               id="path2736"
               d="M 190,467 C 112,404 51,451 27,444 c -18,-5 -10,7 -3,12 50,35 112,54 160,32 19,-8 20,-10 6,-21 z"
               class="fil2 str2"
               inkscape:connector-curvature="0" /><path
               id="path2738"
               d="m 359,531 c 1,-62 -127,-88 -154,-126 -16,-23 -30,-11 -22,26 12,48 100,101 148,111 29,6 28,-4 28,-11 z"
               class="fil2 str2"
               inkscape:connector-curvature="0" /><path
               id="path2740"
               d="m 355,542 c -81,-73 -149,-49 -174,-56 -25,-6 -35,9 4,39 48,36 122,43 153,36 31,-7 23,-14 17,-19 z"
               class="fil2 str2"
               inkscape:connector-curvature="0" /><path
               id="path2742"
               d="M 500,649 C 477,543 404,521 386,501 c -17,-20 -35,-14 -20,34 18,57 77,107 108,119 30,13 28,3 26,-5 z"
               class="fil2 str2"
               inkscape:connector-curvature="0" /><path
               id="path2744"
               d="M 499,663 C 440,568 363,571 339,558 c -23,-14 -39,-2 -8,39 36,50 110,78 144,80 34,2 28,-7 24,-14 z"
               class="fil2 str2"
               inkscape:connector-curvature="0" /><path
               id="path2746"
               d="m 575,776 c 34,-108 -44,-148 -52,-166 -9,-18 -18,-18 -23,1 -22,77 49,152 60,167 11,14 13,7 15,-2 z"
               class="fil2 str2"
               inkscape:connector-curvature="0" /><path
               id="path2748"
               d="M 559,806 C 532,685 461,692 445,675 c -17,-17 -19,-5 -16,17 8,59 79,99 111,119 10,6 22,13 19,-5 z"
               class="fil2 str2"
               inkscape:connector-curvature="0" /><path
               id="path2750"
               d="m 627,948 c 49,-114 -9,-191 -27,-208 -18,-16 -29,-23 -23,0 8,35 -20,125 23,191 14,22 16,43 27,17 z"
               class="fil2 str2"
               inkscape:connector-curvature="0" /><path
               id="path2752"
               d="m 601,971 c 11,-70 -29,-134 -72,-159 -25,-15 -26,-11 -26,10 2,65 63,119 81,149 17,28 16,7 17,0 z"
               class="fil2 str2"
               inkscape:connector-curvature="0" /><path
               id="path2754"
               d="m 590,1153 c -36,-132 39,-208 62,-223 22,-16 36,-22 26,3 -15,37 1,140 -56,205 -18,22 -25,45 -32,15 z"
               class="fil2 str2"
               inkscape:connector-curvature="0" /><path
               id="path2756"
               d="m 598,1124 c 30,-115 -35,-180 -55,-193 -19,-13 -31,-18 -22,3 12,32 -1,122 49,178 16,19 22,38 28,12 z"
               class="fil2 str2"
               inkscape:connector-curvature="0" /><path
               id="path2758"
               d="m 561,1070 c -54,58 -55,143 -31,193 15,29 17,27 31,6 38,-61 15,-149 17,-188 1,-37 -11,-17 -17,-11 z"
               class="fil2 str2"
               inkscape:connector-curvature="0" /><path
               id="path2760"
               d="m 650,1162 c 0,80 -49,145 -101,165 -30,11 -30,8 -26,-16 14,-90 83,-123 108,-152 24,-28 19,-5 19,3 z"
               class="fil2 str2"
               inkscape:connector-curvature="0" /><path
               id="path2762"
               d="m 464,1400 c 88,-80 41,-136 45,-188 2,-28 -9,-21 -19,-11 -56,55 -59,153 -47,191 5,17 13,15 21,8 z"
               class="fil2 str2"
               inkscape:connector-curvature="0" /><path
               id="path2764"
               d="m 582,1348 c -29,88 -106,142 -171,145 -38,2 -37,-1 -24,-27 49,-94 136,-105 175,-129 36,-22 23,2 20,11 z"
               class="fil2 str2"
               inkscape:connector-curvature="0" /><path
               id="path2766"
               d="m 343,1513 c 114,-57 91,-152 112,-176 15,-17 -3,-15 -12,-9 -67,39 -121,101 -122,167 0,25 2,28 22,18 z"
               class="fil2 str2"
               inkscape:connector-curvature="0" /><path
               id="path2768"
               d="m 187,1619 c 144,23 211,-86 253,-96 22,-5 6,-14 -5,-15 -96,-11 -218,34 -255,84 -15,20 -15,24 7,27 z"
               class="fil2 str2"
               inkscape:connector-curvature="0" /><path
               id="path2770"
               d="m 333,1448 c -29,95 -137,173 -218,179 -38,3 -38,-1 -24,-26 65,-118 178,-138 218,-168 34,-26 27,6 24,15 z"
               class="fil2 str2"
               inkscape:connector-curvature="0" /><path
               id="path2772"
               d="m 29,384 c 13,-74 122,-79 139,-91 20,-13 17,0 10,20 -20,52 -88,73 -119,79 -25,4 -33,6 -30,-8 z"
               class="fil2 str2"
               inkscape:connector-curvature="0" /><path
               id="path2774"
               d="m -4,386 c -11,-76 97,-112 110,-129 15,-18 17,-7 10,14 -13,45 -60,98 -88,112 -23,12 -30,17 -32,3 z"
               class="fil2 str2"
               inkscape:connector-curvature="0" /><path
               id="path2776"
               d="m -93,430 c -10,-91 78,-105 101,-134 15,-18 16,-8 11,13 -10,46 -54,100 -81,117 -21,13 -30,18 -31,4 z"
               class="fil2 str2"
               inkscape:connector-curvature="0" /><path
               id="path2778"
               d="m -66,410 c 91,-59 155,-26 181,-29 25,-3 33,13 -10,37 -53,29 -127,25 -156,14 -30,-12 -21,-18 -15,-22 z"
               class="fil2 str2"
               inkscape:connector-curvature="0" /><path
               id="path2780"
               d="m -203,450 c 28,-98 93,-82 112,-94 19,-12 21,-9 17,13 -8,39 -75,82 -108,95 -12,4 -27,10 -21,-14 z"
               class="fil2 str2"
               inkscape:connector-curvature="0" /><path
               id="path2782"
               d="m -190,467 c 78,-63 139,-16 163,-23 18,-5 10,7 3,12 -50,35 -112,54 -160,32 -19,-8 -20,-10 -6,-21 z"
               class="fil2 str2"
               inkscape:connector-curvature="0" /><path
               id="path2784"
               d="m -359,531 c -1,-62 127,-88 154,-126 16,-23 30,-11 22,26 -12,48 -100,101 -148,111 -29,6 -28,-4 -28,-11 z"
               class="fil2 str2"
               inkscape:connector-curvature="0" /><path
               id="path2786"
               d="m -355,542 c 81,-73 149,-49 174,-56 25,-6 35,9 -4,39 -48,36 -122,43 -153,36 -31,-7 -23,-14 -17,-19 z"
               class="fil2 str2"
               inkscape:connector-curvature="0" /><path
               id="path2788"
               d="m -500,649 c 23,-106 96,-128 114,-148 17,-20 35,-14 20,34 -18,57 -77,107 -108,119 -30,13 -28,3 -26,-5 z"
               class="fil2 str2"
               inkscape:connector-curvature="0" /><path
               id="path2790"
               d="m -499,663 c 59,-95 136,-92 160,-105 23,-14 39,-2 8,39 -36,50 -110,78 -144,80 -34,2 -28,-7 -24,-14 z"
               class="fil2 str2"
               inkscape:connector-curvature="0" /><path
               id="path2792"
               d="m -575,776 c -34,-108 44,-148 52,-166 9,-18 18,-18 23,1 22,77 -49,152 -60,167 -11,14 -13,7 -15,-2 z"
               class="fil2 str2"
               inkscape:connector-curvature="0" /><path
               id="path2794"
               d="m -559,806 c 27,-121 98,-114 114,-131 17,-17 19,-5 16,17 -8,59 -79,99 -111,119 -10,6 -22,13 -19,-5 z"
               class="fil2 str2"
               inkscape:connector-curvature="0" /><path
               id="path2796"
               d="m -627,948 c -49,-114 9,-191 27,-208 18,-16 29,-23 23,0 -8,35 20,125 -23,191 -14,22 -16,43 -27,17 z"
               class="fil2 str2"
               inkscape:connector-curvature="0" /><path
               id="path2798"
               d="m -601,971 c -11,-70 29,-134 72,-159 25,-15 26,-11 26,10 -2,65 -63,119 -81,149 -17,28 -16,7 -17,0 z"
               class="fil2 str2"
               inkscape:connector-curvature="0" /><path
               id="path2800"
               d="m -590,1153 c 36,-132 -39,-208 -62,-223 -22,-16 -36,-22 -26,3 15,37 -1,140 56,205 18,22 24,45 32,15 z"
               class="fil2 str2"
               inkscape:connector-curvature="0" /><path
               id="path2802"
               d="m -598,1124 c -30,-115 35,-180 55,-193 19,-13 31,-18 22,3 -12,32 1,122 -49,178 -16,19 -22,38 -28,12 z"
               class="fil2 str2"
               inkscape:connector-curvature="0" /><path
               id="path2804"
               d="m -561,1070 c 54,58 55,143 31,193 -15,29 -17,27 -31,6 -38,-61 -15,-149 -17,-188 -1,-37 11,-17 17,-11 z"
               class="fil2 str2"
               inkscape:connector-curvature="0" /><path
               id="path2806"
               d="m -650,1162 c 0,80 49,145 101,165 30,11 30,8 26,-16 -14,-90 -83,-123 -108,-152 -24,-28 -19,-5 -19,3 z"
               class="fil2 str2"
               inkscape:connector-curvature="0" /><path
               id="path2808"
               d="m -464,1400 c -88,-80 -41,-136 -45,-188 -2,-28 9,-21 19,-11 56,55 59,153 47,191 -5,17 -13,15 -21,8 z"
               class="fil2 str2"
               inkscape:connector-curvature="0" /><path
               id="path2810"
               d="m -582,1348 c 29,88 106,142 171,145 38,2 37,-1 24,-27 -49,-94 -136,-105 -175,-129 -36,-22 -23,2 -20,11 z"
               class="fil2 str2"
               inkscape:connector-curvature="0" /><path
               id="path2812"
               d="m -343,1513 c -114,-57 -91,-152 -112,-176 -15,-17 3,-15 12,-9 67,39 121,101 122,167 0,25 -2,28 -22,18 z"
               class="fil2 str2"
               inkscape:connector-curvature="0" /><path
               id="path2814"
               d="m -187,1619 c -144,23 -211,-86 -253,-96 -22,-5 -6,-14 5,-15 96,-11 218,34 255,84 15,20 15,24 -7,27 z"
               class="fil2 str2"
               inkscape:connector-curvature="0" /><path
               id="path2816"
               d="m -333,1448 c 29,95 137,173 218,179 38,3 38,-1 24,-26 -65,-118 -178,-138 -218,-168 -34,-26 -27,6 -24,15 z"
               class="fil2 str2"
               inkscape:connector-curvature="0" /></g><g
             id="g2818"
             transform="matrix(1.1355,0,0,1.0324,2.7256,-21.429)"
             style="fill:#006233"><path
               id="path2820"
               d="m 169,476 c -19,-14 -89,-6 -102,-15 25,21 81,6 102,15 z"
               class="fil0"
               inkscape:connector-curvature="0" /><path
               id="path2822"
               d="m 338,512 c -15,-27 -104,-45 -117,-69 23,46 92,40 117,69 z"
               class="fil0"
               inkscape:connector-curvature="0" /><path
               id="path2824"
               d="m 325,543 c -33,-32 -110,-19 -133,-38 54,49 84,11 133,38 z"
               class="fil0"
               inkscape:connector-curvature="0" /><path
               id="path2826"
               d="m 132,401 c 21,11 47,22 60,48 -15,-20 -42,-28 -64,-45 1,0 3,-2 4,-3 z"
               class="fil0"
               inkscape:connector-curvature="0" /><path
               id="path2828"
               d="m 460,607 c -13,-30 -59,-63 -63,-74 13,39 51,48 63,74 z"
               class="fil0"
               inkscape:connector-curvature="0" /><path
               id="path2830"
               d="m 472,660 c -40,-63 -103,-56 -128,-80 19,23 91,38 128,80 z"
               class="fil0"
               inkscape:connector-curvature="0" /><path
               id="path2832"
               d="m 565,757 c 3,-67 -47,-92 -49,-130 -1,45 51,106 49,130 z"
               class="fil0"
               inkscape:connector-curvature="0" /><path
               id="path2834"
               d="m 540,793 c -10,-58 -78,-62 -90,-96 0,32 80,65 90,96 z"
               class="fil0"
               inkscape:connector-curvature="0" /><path
               id="path2836"
               d="m 596,760 c 36,44 11,111 26,160 -18,-36 -9,-126 -26,-160 z"
               class="fil0"
               inkscape:connector-curvature="0" /><path
               id="path2838"
               d="m 537,948 c 54,58 32,123 54,151 -27,-39 -23,-115 -54,-151 z"
               class="fil0"
               inkscape:connector-curvature="0" /><path
               id="path2840"
               d="m 649,956 c -46,51 -18,128 -42,164 27,-31 23,-126 42,-164 z"
               class="fil0"
               inkscape:connector-curvature="0" /><path
               id="path2842"
               d="m 591,956 c -6,-59 -61,-90 -66,-122 -6,32 53,82 66,122 z"
               class="fil0"
               inkscape:connector-curvature="0" /><path
               id="path2844"
               d="m 563,1097 c 9,41 -24,129 -14,156 -22,-47 19,-136 14,-156 z"
               class="fil0"
               inkscape:connector-curvature="0" /><path
               id="path2846"
               d="m 634,1191 c -22,73 -66,68 -80,112 10,-42 68,-80 80,-112 z"
               class="fil0"
               inkscape:connector-curvature="0" /><path
               id="path2848"
               d="m 491,1225 c -29,49 -5,105 -29,140 34,-35 16,-100 29,-140 z"
               class="fil0"
               inkscape:connector-curvature="0" /><path
               id="path2850"
               d="m 561,1359 c -35,65 -107,59 -136,106 29,-59 118,-69 136,-106 z"
               class="fil0"
               inkscape:connector-curvature="0" /><path
               id="path2852"
               d="m 434,1351 c -62,43 -43,88 -90,136 59,-48 54,-101 90,-136 z"
               class="fil0"
               inkscape:connector-curvature="0" /><path
               id="path2854"
               d="m 405,1525 c -60,-2 -146,76 -198,70 52,11 148,-59 198,-70 z"
               class="fil0"
               inkscape:connector-curvature="0" /><path
               id="path2856"
               d="m 308,1455 c -4,61 -160,100 -177,141 19,-54 156,-94 177,-141 z"
               class="fil0"
               inkscape:connector-curvature="0" /><path
               id="path2858"
               d="m -45,330 c -20,-17 -44,-31 -51,-48 5,22 25,38 45,53 2,-1 4,-4 6,-5 z"
               class="fil0"
               inkscape:connector-curvature="0" /><path
               id="path2860"
               d="m -79,348 c -31,-15 -67,-14 -83,-35 10,21 44,29 73,40 3,-2 7,-4 10,-5 z"
               class="fil0"
               inkscape:connector-curvature="0" /><path
               id="path2862"
               d="m -169,476 c 19,-14 89,-6 102,-15 -25,21 -81,6 -102,15 z"
               class="fil0"
               inkscape:connector-curvature="0" /><path
               id="path2864"
               d="m -338,512 c 15,-27 104,-45 117,-69 -23,46 -92,40 -117,69 z"
               class="fil0"
               inkscape:connector-curvature="0" /><path
               id="path2866"
               d="m -325,543 c 33,-32 110,-19 133,-38 -54,49 -84,11 -133,38 z"
               class="fil0"
               inkscape:connector-curvature="0" /><path
               id="path2868"
               d="m -192,449 c 19,-40 73,-45 87,-69 -21,36 -67,42 -87,69 z"
               class="fil0"
               inkscape:connector-curvature="0" /><path
               id="path2870"
               d="M -38,414 C 17,388 71,410 97,398 65,415 -11,407 -38,414 Z"
               class="fil0"
               inkscape:connector-curvature="0" /><path
               id="path2872"
               d="m -460,607 c 13,-30 59,-63 63,-74 -13,39 -51,48 -63,74 z"
               class="fil0"
               inkscape:connector-curvature="0" /><path
               id="path2874"
               d="m -472,660 c 40,-63 103,-56 128,-80 -19,23 -91,38 -128,80 z"
               class="fil0"
               inkscape:connector-curvature="0" /><path
               id="path2876"
               d="m -565,757 c -3,-67 47,-92 49,-130 1,45 -51,106 -49,130 z"
               class="fil0"
               inkscape:connector-curvature="0" /><path
               id="path2878"
               d="m -540,793 c 10,-58 78,-62 90,-96 0,32 -80,65 -90,96 z"
               class="fil0"
               inkscape:connector-curvature="0" /><path
               id="path2880"
               d="m -596,760 c -36,44 -11,111 -26,160 18,-36 9,-126 26,-160 z"
               class="fil0"
               inkscape:connector-curvature="0" /><path
               id="path2882"
               d="m -537,948 c -54,58 -32,123 -54,151 27,-39 23,-115 54,-151 z"
               class="fil0"
               inkscape:connector-curvature="0" /><path
               id="path2884"
               d="m -649,956 c 46,51 18,128 42,164 -27,-31 -23,-126 -42,-164 z"
               class="fil0"
               inkscape:connector-curvature="0" /><path
               id="path2886"
               d="m -591,956 c 6,-59 61,-90 66,-122 6,32 -53,82 -66,122 z"
               class="fil0"
               inkscape:connector-curvature="0" /><path
               id="path2888"
               d="m -563,1097 c -9,41 24,129 14,156 22,-47 -19,-136 -14,-156 z"
               class="fil0"
               inkscape:connector-curvature="0" /><path
               id="path2890"
               d="m -634,1191 c 22,73 66,68 80,112 -10,-42 -68,-80 -80,-112 z"
               class="fil0"
               inkscape:connector-curvature="0" /><path
               id="path2892"
               d="m -491,1225 c 29,49 5,105 29,140 -34,-35 -16,-100 -29,-140 z"
               class="fil0"
               inkscape:connector-curvature="0" /><path
               id="path2894"
               d="m -561,1359 c 35,65 107,59 136,106 -29,-59 -118,-69 -136,-106 z"
               class="fil0"
               inkscape:connector-curvature="0" /><path
               id="path2896"
               d="m -434,1351 c 62,43 43,88 90,136 -59,-48 -54,-101 -90,-136 z"
               class="fil0"
               inkscape:connector-curvature="0" /><path
               id="path2898"
               d="m -405,1525 c 60,-2 146,76 198,70 -52,11 -148,-59 -198,-70 z"
               class="fil0"
               inkscape:connector-curvature="0" /><path
               id="path2900"
               d="m -308,1455 c 4,61 160,100 177,141 -19,-54 -156,-94 -177,-141 z"
               class="fil0"
               inkscape:connector-curvature="0" /><path
               id="path2902"
               d="m -81,416 c 12,-54 72,-64 80,-96 -3,34 -74,72 -80,96 z"
               class="fil0"
               inkscape:connector-curvature="0" /><path
               id="path2904"
               d="m 96,282 c -9,41 -74,64 -83,95 3,-42 70,-66 83,-95 z"
               class="fil0"
               inkscape:connector-curvature="0" /><path
               id="path2906"
               d="m 45,379 c 31,-50 95,-37 117,-66 -16,34 -95,35 -117,66 z"
               class="fil0"
               inkscape:connector-curvature="0" /></g><g
             id="g12874"
             transform="matrix(1.089,0.29066,-0.31969,0.99014,322.08,9.1715)" /><g
             id="g12878"
             transform="matrix(0.95488,0.55779,-0.6135,0.86818,618.66,131.41)" /><g
             id="g12884"
             transform="matrix(0.74342,0.77974,-0.85762,0.67591,865.37,324.65)" /><g
             id="g12890"
             transform="matrix(0.47175,0.93856,-1.0323,0.42891,1042.2,573.25)" /><g
             id="g12896"
             transform="matrix(0.16188,1.0214,-1.1234,0.14718,1134.9,857.07)" /><g
             id="g12902"
             transform="matrix(-0.1611,1.0215,-1.1235,-0.14647,1135.9,1153.1)" /><g
             id="g12908"
             transform="matrix(-0.47103,0.93886,-1.0326,-0.42826,1045.1,1437.5)" /><g
             id="g12914"
             transform="matrix(-0.74282,0.78021,-0.85814,-0.67537,869.95,1687)" /><g
             id="g12920"
             transform="matrix(-0.95446,0.55839,-0.61416,-0.86779,624.54,1881.6)" /><g
             id="g12926"
             transform="matrix(-1.0888,0.29135,-0.32045,-0.98993,328.78,2005.5)" /><g
             id="g12932"
             transform="matrix(-1.135,7.2019e-4,-7.9212e-4,-1.0319,6.6183,2048.7)" /><g
             id="g12938"
             transform="matrix(-1.0918,-0.28208,0.31025,-0.99262,-313.06,2009.9)" /><g
             id="g12944"
             transform="matrix(-0.96016,-0.55025,0.60521,-0.87297,-610.8,1890)" /><g
             id="g12950"
             transform="matrix(-0.75081,-0.77386,0.85115,-0.68264,-859.34,1698.7)" /><g
             id="g12956"
             transform="matrix(-0.48067,-0.93481,1.0282,-0.43702,-1038.6,1451.5)" /><g
             id="g12962"
             transform="matrix(-0.1716,-1.0201,1.1219,-0.15602,-1133.9,1168.4)" /><g
             id="g12968"
             transform="matrix(0.15136,-1.0227,1.1248,0.13762,-1137.7,872.37)" /><g
             id="g12974"
             transform="matrix(0.46207,-0.94253,1.0367,0.42011,-1049.7,587.33)" /><g
             id="g12980"
             transform="matrix(0.73536,-0.78603,0.86454,0.66859,-876.89,336.39)" /><g
             id="g12986"
             transform="matrix(0.9491,-0.56588,0.6224,0.86292,-633.34,139.86)" /><g
             id="g12992"
             transform="matrix(1.086,-0.29991,0.32987,0.98737,-338.77,13.655)" /><g
             id="g12998"
             transform="matrix(1.1349,-0.0096543,0.010618,1.0319,-17.033,-32.001)" /></g></g></g></g></svg>