<svg id="end" xmlns="http://www.w3.org/2000/svg" width="3000" height="3000" viewBox="0 0 3000 3000">
  <defs>
    <style>
      .cls-1 {
        fill-rule: evenodd;
      }
    </style>
  </defs>
  <g id="progress">
    <g id="folder">
      <path id="_153" data-name="153" class="cls-1" d="M248,6H2144c216.26,0,616.98-39.638,743,52,146.46,106.507,109,363.939,109,611V2266c0,234.34,37.65,538.18-87,651-127.65,115.53-451.87,77-691,77H634c-315.275.01-568.836,41.89-625-226Q6.5,1740.605,4,713C3.993,334.256-70.017,92.594,248,6ZM1503,932l-97,6-205,39c-291.64,81.3-540.363,204.21-780.673,335.38-35.166,19.2-219.1,126.14-242.633,146.57-37.739,22.64-29.347,55.82-9.812,74.02C185.2,1556.06,543.446,1750.98,616,1789c197.57,103.54,409.94,193.02,654,249,68.94,15.81,158.96,38.41,244,30,385.01-15.84,661.81-162.07,941-306,59.96-30.91,372.73-206.57,390.39-224.62,18.44-13.34,34.7-39.26,10.76-67.9-21.97-23.15-224.13-138.01-272.15-162.48-253.06-140.69-524.33-278.84-846-349C1665.54,942.2,1581.01,944,1503,932Zm-371,154c-0.67,2-64.82,77.1-78.93,115.9-11.76,27.04-28.05,61.09-42.07,124.1-9.96,44.76-12.49,122.11-5,169,40.05,250.71,192.41,393.32,435,442,479.33,75.31,771.05-565.72,445-849q58.995,19.995,118,40c267.05,102.14,640.58,304.68,735.06,371.52C2557.04,1614.79,2072.92,1880.97,1815,1933c-86.27,25.61-165.18,35.9-321,48s-568.021-129.12-811-255c-111-57.51-219.112-112.85-323-176-27-16.67-81-50-81-50s292.928-171.31,443-247l187-85Q1020.489,1127.005,1132,1086Z"/>
    </g>
  </g>
</svg>
