<?xml version="1.0" encoding="utf-8"?>
<!-- Generator: Adobe Illustrator 24.0.2, SVG Export Plug-In . SVG Version: 6.00 Build 0)  -->
<svg version="1.1" xmlns="http://www.w3.org/2000/svg" xmlns:xlink="http://www.w3.org/1999/xlink" x="0px" y="0px"
	 viewBox="0 0 3000 3000" style="enable-background:new 0 0 3000 3000;" xml:space="preserve">
<style type="text/css">
	.st0{fill:#070707;}
</style>
<g id="V1">
</g>
<g id="Layer_2">
	<g>
		<path class="st0" d="M2728.9,1557.1v-138.5c0-681-552.1-1233.1-1233.1-1233.1h0c-681,0-1233.1,552.1-1233.1,1233.1v139.9
			c-118.2,21.5-207.8,125-207.8,249.4v606.8c0,140,113.5,253.5,253.5,253.5h195.4V1554.4h-69.3v-144.1c0-581.5,471.4-1053,1053-1053
			h0c581.5,0,1053,471.4,1053,1053v144.1h-61v1113.9h212c140,0,253.5-113.5,253.5-253.5v-606.8
			C2945.1,1680.6,2851.2,1575.2,2728.9,1557.1z"/>
		<polygon class="st0" points="1911.3,1649.8 1745.6,2188.3 1438.3,1307.3 1315.2,2477.8 1027.4,1757.1 870.1,2051.1 573.1,2051.1 
			573.1,2132.7 919,2132.7 1016.6,1950.2 1361.8,2814.5 1481.3,1678.4 1750.4,2450 1939.4,1835.8 2142.1,2132.7 2407.5,2132.7 
			2407.5,2051.1 2185.2,2051.1 		"/>
	</g>
</g>
</svg>
