<?xml version="1.0" encoding="utf-8"?>
<!-- Generator: Adobe Illustrator 24.0.2, SVG Export Plug-In . SVG Version: 6.00 Build 0)  -->
<svg version="1.1" id="V1" xmlns="http://www.w3.org/2000/svg" xmlns:xlink="http://www.w3.org/1999/xlink" x="0px" y="0px"
	 viewBox="0 0 3000 3000" style="enable-background:new 0 0 3000 3000;" xml:space="preserve">
<style type="text/css">
	.st0{fill-rule:evenodd;clip-rule:evenodd;}
</style>
<path class="st0" d="M109.5,1424.3c95.4-55.6,190.8-111.3,286.2-166.9c301.9-176.3,603.7-352.6,905.5-528.8l258.1-150.8
	c23.7-14.3,75.9-53.8,107.3-54c20,7.9,31.9,9,42.1,26c12.6,21.1,6.3,70.9,6.3,102.4v567.4c280.3-163.7,560.5-327.3,840.8-491
	l258.1-150.8c23.7-14.3,75.9-53.8,107.3-54c20,7.9,31.9,9,42.1,26c12.6,21.1,6.3,70.9,6.3,102.4v1719c0,49.5,5.3,81.8-28.8,98.9
	c-7.2,3.6-19,7.8-31.6,5.6c-21.2-3.8-36-16.4-51.9-26c-26-15.2-51.9-30.4-77.9-45.6c-83.9-49.1-167.9-98.2-251.8-147.3
	c-270.9-158.5-541.8-316.9-812.7-475.4v589.7c0,49.5,5.3,81.8-28.8,98.9c-7.2,3.6-19,7.8-31.6,5.6c-21.2-3.8-36-16.4-51.9-26
	c-26-15.2-51.9-30.4-77.9-45.6c-83.9-49.1-167.9-98.2-251.8-147.3c-290.2-169.7-580.3-339.5-870.5-509.2l-280.6-164.1
	c-31.3-18.8-85.3-35.9-92.6-77.1C21.5,1460.9,84,1439.9,109.5,1424.3z"/>
</svg>
