<?xml version="1.0" encoding="utf-8"?>
<!-- Generator: Adobe Illustrator 24.0.2, SVG Export Plug-In . SVG Version: 6.00 Build 0)  -->
<svg version="1.1" id="Layer_2" xmlns="http://www.w3.org/2000/svg" xmlns:xlink="http://www.w3.org/1999/xlink" x="0px" y="0px"
	 viewBox="0 0 3000 3000" style="enable-background:new 0 0 3000 3000;" xml:space="preserve">
<polygon points="1076.4,1076.6 32.9,1076.6 32.9,1215.5 1058.9,1215.5 1215.5,1215.5 1215.5,1058.9 1215.5,32.9 1076.4,32.9 "/>
<polygon points="1941.1,1215.5 2967.1,1215.5 2967.1,1076.6 1923.4,1076.6 1923.4,32.9 1784.6,32.9 1784.6,1058.9 1784.6,1215.5 "/>
<polygon points="919.8,1923.6 1076.4,1923.6 1076.4,2967.1 1215.5,2967.1 1215.5,1941.1 1215.5,1784.6 1058.9,1784.6 32.9,1784.6 
	32.9,1923.6 919.8,1923.6 "/>
<polygon points="1923.4,2967.1 1923.4,1923.6 2080.2,1923.6 2080.2,1923.6 2967.1,1923.6 2967.1,1784.6 1941.1,1784.6 
	1784.6,1784.6 1784.6,1941.1 1784.6,2967.1 "/>
</svg>
