<?xml version="1.0" encoding="utf-8"?>
<!-- Generator: Adobe Illustrator 24.0.2, SVG Export Plug-In . SVG Version: 6.00 Build 0)  -->
<svg version="1.1" id="V1" xmlns="http://www.w3.org/2000/svg" xmlns:xlink="http://www.w3.org/1999/xlink" x="0px" y="0px"
	 viewBox="0 0 3000 3000" style="enable-background:new 0 0 3000 3000;" xml:space="preserve">
<style type="text/css">
	.st0{fill-rule:evenodd;clip-rule:evenodd;fill:#070707;}
</style>
<g>
	
		<rect x="1672.2" y="775.6" transform="matrix(0.7071 -0.7071 0.7071 0.7071 -74.3791 1758.7446)" class="st0" width="827.1" height="387.2"/>
	
		<rect x="-71" y="1920.4" transform="matrix(0.7071 -0.7071 0.7071 0.7071 -1219.236 1284.5289)" class="st0" width="2023.8" height="387.2"/>
	<polygon class="st0" points="2690.9,1363.8 2791,1450 2798.6,1318.2 2911.5,1249.6 2788.4,1201.7 2758.1,1073.1 2674.5,1175.4 
		2542.9,1164.5 2614.3,1275.6 2563.2,1397.4 	"/>
	<polygon class="st0" points="2382.9,368.8 2511.3,330.6 2615.6,414.7 2618.9,280.7 2731.2,207.5 2604.8,162.9 2569.8,33.6 
		2488.4,140 2354.6,133.3 2430.6,243.6 	"/>
	<polygon class="st0" points="1172.3,586.7 1340.3,480.8 1522.8,559.2 1474,366.7 1605,217.4 1406.8,204.3 1305.2,33.6 1231.5,218 
		1037.8,261.9 1190.4,389 	"/>
	<polygon class="st0" points="2032.6,1862.6 2015.8,1829.8 2000,1863.1 1963.6,1869 1990.4,1894.3 1984.7,1930.7 2017,1913.1 
		2049.9,1929.7 2043.1,1893.5 2069.1,1867.4 	"/>
	<polygon class="st0" points="1793,511.1 1820.8,498.8 1846.7,514.8 1843.6,484.6 1866.8,464.9 1837.1,458.5 1825.6,430.4 
		1810.3,456.6 1780,458.9 1800.2,481.6 	"/>
	<polygon class="st0" points="2776.3,2023.5 2701,1939.6 2680.2,2050.4 2577.1,2096.1 2676.1,2150.2 2687.6,2262.4 2769.6,2184.9 
		2879.9,2208.6 2831.6,2106.7 2888.2,2009.1 	"/>
	<polygon class="st0" points="1217.3,1054.6 1301.1,1142.7 1320,1022.6 1429.7,970.2 1321.3,915.1 1305.3,794.6 1219.4,880.6 
		1099.9,858.6 1155.1,966.8 1097.3,1073.7 	"/>
</g>
</svg>
