<?xml version="1.0" encoding="utf-8"?>
<!-- Generator: Adobe Illustrator 24.0.2, SVG Export Plug-In . SVG Version: 6.00 Build 0)  -->
<svg version="1.1" id="Layer_2" xmlns="http://www.w3.org/2000/svg" xmlns:xlink="http://www.w3.org/1999/xlink" x="0px" y="0px"
	 viewBox="0 0 3000 3000" style="enable-background:new 0 0 3000 3000;" xml:space="preserve">
<polygon points="171.9,171.7 1215.5,171.7 1215.5,32.9 189.4,32.9 32.9,32.9 32.9,189.4 32.9,1215.5 171.9,1215.5 "/>
<polygon points="2810.6,32.9 1784.6,32.9 1784.6,171.7 2828.3,171.7 2828.3,1215.5 2967.1,1215.5 2967.1,189.4 2967.1,32.9 "/>
<polygon points="328.5,2828.1 171.9,2828.1 171.9,1784.6 32.9,1784.6 32.9,2810.6 32.9,2967.1 189.4,2967.1 1215.5,2967.1 
	1215.5,2828.1 328.5,2828.1 "/>
<polygon points="2828.3,1784.6 2828.3,2828.1 2671.5,2828.1 2671.5,2828.1 1784.6,2828.1 1784.6,2967.1 2810.6,2967.1 
	2967.1,2967.1 2967.1,2810.6 2967.1,1784.6 "/>
</svg>
