<?xml version="1.0" encoding="utf-8"?>
<!-- Generator: Adobe Illustrator 24.2.3, SVG Export Plug-In . SVG Version: 6.00 Build 0)  -->
<svg version="1.1" id="V1" xmlns="http://www.w3.org/2000/svg" xmlns:xlink="http://www.w3.org/1999/xlink" x="0px" y="0px"
	 viewBox="0 0 3000 3000" style="enable-background:new 0 0 3000 3000;" xml:space="preserve">
<style type="text/css">
	.st0{fill-rule:evenodd;clip-rule:evenodd;}
</style>
<g>
	<path class="st0" d="M500.3,1425.6c93.9-54.7,187.7-109.5,281.5-164.2c297-173.4,593.9-346.9,890.8-520.2l253.9-148.4
		c23.3-14.1,74.7-52.9,105.6-53.1c19.6,7.7,31.4,8.8,41.4,25.5c12.5,20.7,6.2,69.7,6.2,100.7v368.8
		c167.6-97.9,335.2-195.7,502.7-293.6l253.9-148.4c23.3-14.1,74.7-52.9,105.6-53.1c19.6,7.7,31.4,8.8,41.4,25.5
		c12.5,20.7,6.2,69.7,6.2,100.7v1691c0,48.7,5.2,80.4-28.3,97.3c-7.1,3.6-18.7,7.7-31.1,5.5c-20.9-3.7-35.4-16.2-51.1-25.5
		c-25.5-15-51.1-29.9-76.6-44.9c-82.6-48.3-165.1-96.6-247.7-144.9c-158.4-92.6-316.7-185.2-475-277.9v390.3
		c0,48.7,5.2,80.4-28.3,97.3c-7.1,3.6-18.7,7.7-31.1,5.5c-20.9-3.7-35.4-16.2-51.1-25.5c-25.5-15-51.1-29.9-76.6-44.9
		c-82.6-48.3-165.1-96.6-247.7-144.9c-285.5-167-570.9-333.9-856.3-500.9l-276-161.4c-30.8-18.5-83.9-35.4-91.1-75.9
		C413.7,1461.5,475.2,1440.8,500.3,1425.6z"/>
	<path class="st0" d="M65,539.7h156.5c30.9,0,56,25.1,56,56v1808.6c0,30.9-25.1,56-56,56H65c-30.9,0-56-25.1-56-56V595.7
		C8.9,564.7,34,539.7,65,539.7z"/>
</g>
</svg>
