<?xml version="1.0" encoding="utf-8"?>
<!-- Generator: Adobe Illustrator 24.0.2, SVG Export Plug-In . SVG Version: 6.00 Build 0)  -->
<svg version="1.1" id="V1" xmlns="http://www.w3.org/2000/svg" xmlns:xlink="http://www.w3.org/1999/xlink" x="0px" y="0px"
	 viewBox="0 0 3000 3000" style="enable-background:new 0 0 3000 3000;" xml:space="preserve">
<style type="text/css">
	.st0{fill-rule:evenodd;clip-rule:evenodd;}
</style>
<g>
	<path class="st0" d="M1543.9,265.7c-71,36-128.6,91.4-191,137.2L860.6,791.6l-490,1l-239.4,1.3c-37,0-80.6-4.6-98.2,14.3
		c-17.8,19.1-14.8,57.3-14.8,93.7v1178c0,33.1-2.9,68.8,12.1,87.2c16.2,19.9,58.9,15.6,95.5,15.6l761.7,0.3l645.6,501.7
		c30.9,12.9,61.5-7.3,67.2-32.3c0.5-612.3,0.9-1224.6,1.3-1836.8V405.5C1601.7,336.4,1615.9,264.9,1543.9,265.7z"/>
	<path class="st0" d="M2879.6,1323.5h-379.2V944.3c0-19.7-15.9-35.6-35.6-35.6h-281.8c-19.7,0-35.6,15.9-35.6,35.6v379.2h-379.2
		c-19.7,0-35.6,15.9-35.6,35.6v281.8c0,19.7,15.9,35.6,35.6,35.6h379.2v379.2c0,19.7,15.9,35.6,35.6,35.6h281.8
		c19.7,0,35.6-15.9,35.6-35.6v-379.2h379.2c19.7,0,35.6-15.9,35.6-35.6v-281.8C2915.2,1339.4,2899.3,1323.5,2879.6,1323.5z"/>
</g>
</svg>
