<?xml version="1.0" encoding="utf-8"?>
<!-- Generator: Adobe Illustrator 24.0.2, SVG Export Plug-In . SVG Version: 6.00 Build 0)  -->
<svg version="1.1" id="V1" xmlns="http://www.w3.org/2000/svg" xmlns:xlink="http://www.w3.org/1999/xlink" x="0px" y="0px"
	 viewBox="0 0 3000 3000" style="enable-background:new 0 0 3000 3000;" xml:space="preserve">
<style type="text/css">
	.st0{fill-rule:evenodd;clip-rule:evenodd;}
</style>
<g>
	<path class="st0" d="M2373.9,1349c-139.3-81.2-278.6-162.5-417.8-243.7C1515.3,847.9,1074.6,590.5,634,333.2L257.1,113
		c-34.6-20.9-110.8-78.5-156.7-78.8C71.3,45.7,53.8,47.3,39,72c-18.5,30.7-9.2,103.5-9.2,149.5v2509.8c0,72.3-7.7,119.4,42,144.4
		c10.5,5.3,27.7,11.4,46.1,8.2c31-5.5,52.6-24,75.8-37.9c37.9-22.2,75.8-44.4,113.7-66.6c122.6-71.7,245.1-143.4,367.7-215
		c423.7-247.8,847.3-495.6,1270.9-743.4l409.6-239.6c45.7-27.5,124.5-52.5,135.2-112.6C2502.4,1402.4,2411.1,1371.7,2373.9,1349z"/>
	<path class="st0" d="M2889.4,33.7h-232.3c-45.9,0-83.1,37.2-83.1,83.1v2684.4c0,45.9,37.2,83.1,83.1,83.1h232.3
		c45.9,0,83.1-37.2,83.1-83.1V116.8C2972.6,70.9,2935.3,33.7,2889.4,33.7z"/>
</g>
</svg>
