<svg id="V1" xmlns="http://www.w3.org/2000/svg" width="3000" height="3000" viewBox="0 0 3000 3000">
  <defs>
    <style>
      .cls-1 {
        fill-rule: evenodd;
      }
    </style>
  </defs>
  <path id="_63" data-name="63" class="cls-1" d="M524.981,12.86H913.843c44.18,0,117.457-10.033,136.627,16.343,14.8,20.364,7.01,110.261,7.01,145.921V2765.5q-0.585,99.81-1.17,199.62c-4.57,13.02-18.45,25.88-32.7,29.19l-380.686-1.17c-34.055,0-116.041,7.25-135.459-7-25.927-19.04-16.351-89.39-16.348-133.08V239.329c0-40.061-7.545-187.086,5.838-207.791C503.39,21.584,514.313,18.773,524.981,12.86Zm1451.519,0h388.86c44.3,0,117.32-10.017,136.63,16.343,14.74,20.135,7,109.355,7,144.753V2765.5q-0.585,99.81-1.16,199.62c-4.6,13.12-18.39,25.87-32.7,29.19l-381.86-1.17c-36.1,0-115.06,7.32-135.46-8.17-23.99-18.23-14.01-92.43-14.01-133.08V2470.16q-0.585-784.395-1.17-1568.936V93.408c0-17.14-3.08-41.651,2.34-54.866C1950.85,24.211,1963.73,20.536,1976.5,12.86Z"/>
</svg>
