<svg id="V1" xmlns="http://www.w3.org/2000/svg" width="3000" height="3000" viewBox="0 0 3000 3000">
  <defs>
    <style>
      .cls-1 {
        fill-rule: evenodd;
      }
    </style>
  </defs>
  <path id="_62" data-name="62" class="cls-1" d="M291.1,14C339,14.352,418.415,74.389,454.511,96.231L847.554,325.837Q1536.918,728.409,2226.41,1131.06q217.86,127.08,435.76,254.17c38.83,23.71,134.01,55.76,121.76,124.95-11.11,62.74-93.33,88.81-140.98,117.47l-427.22,249.9q-662.67,387.615-1325.454,775.32Q698.579,2765,506.845,2877.14q-59.271,34.7-118.554,69.41c-24.178,14.48-46.7,33.79-79.035,39.52-19.139,3.38-37.073-3.03-48.063-8.55-51.851-26.04-43.795-75.19-43.79-150.58V209.432c0-47.952-9.634-123.851,9.613-155.918C242.5,27.708,260.706,26.045,291.1,14Z"/>
</svg>
