<?xml version="1.0" encoding="utf-8"?>
<!-- Generator: Adobe Illustrator 24.0.2, SVG Export Plug-In . SVG Version: 6.00 Build 0)  -->
<svg version="1.1" id="V1" xmlns="http://www.w3.org/2000/svg" xmlns:xlink="http://www.w3.org/1999/xlink" x="0px" y="0px"
	 viewBox="0 0 3000 3000" style="enable-background:new 0 0 3000 3000;" xml:space="preserve">
<style type="text/css">
	.st0{fill-rule:evenodd;clip-rule:evenodd;}
</style>
<g>
	<path class="st0" d="M626.1,1569.5c139.3,81.2,278.6,162.5,417.8,243.7c440.7,257.4,881.4,514.7,1322.1,772.1l376.9,220.2
		c34.6,20.9,110.8,78.5,156.7,78.8c29.1-11.5,46.6-13.1,61.4-37.9c18.5-30.7,9.2-103.5,9.2-149.5V187.2c0-72.3,7.7-119.4-42-144.4
		c-10.5-5.3-27.7-11.4-46.1-8.2c-31,5.5-52.6,24-75.8,37.9c-37.9,22.2-75.8,44.4-113.7,66.6c-122.6,71.7-245.1,143.4-367.7,215
		c-423.7,247.8-847.3,495.6-1270.9,743.4l-409.6,239.6c-45.7,27.5-124.5,52.5-135.2,112.6C497.6,1516.1,588.9,1546.8,626.1,1569.5z"
		/>
	<path class="st0" d="M110.6,2884.8h232.3c45.9,0,83.1-37.2,83.1-83.1V117.3c0-45.9-37.2-83.1-83.1-83.1H110.6
		c-45.9,0-83.1,37.2-83.1,83.1v2684.4C27.4,2847.6,64.7,2884.8,110.6,2884.8z"/>
</g>
</svg>
