<?xml version="1.0" encoding="utf-8"?>
<!-- Generator: Adobe Illustrator 24.0.2, SVG Export Plug-In . SVG Version: 6.00 Build 0)  -->
<svg version="1.1" id="V1" xmlns="http://www.w3.org/2000/svg" xmlns:xlink="http://www.w3.org/1999/xlink" x="0px" y="0px"
	 viewBox="0 0 3000 3000" style="enable-background:new 0 0 3000 3000;" xml:space="preserve">
<style type="text/css">
	.st0{fill-rule:evenodd;clip-rule:evenodd;}
</style>
<path id="_64" class="st0" d="M1705.3,113.7c173.7-2.9,313.1,26.5,437.1,75.3c395.5,155.8,651.4,471.9,778.8,896.9
	c51,170,82.5,423.9,43.1,633.3c-16.2,85.8-32,165.9-56.5,243.4c-130.2,412.7-432.6,741.5-846.1,871.4
	c-104,32.7-223.6,52.5-356.5,52.4v-154.6c99.3-7.2,187.7-12.3,270.4-35c396.7-108.9,636.4-389.1,776.1-755.7
	c91-238.8,89.2-592.6,12.1-841.8c-134.3-434.2-490.9-831.8-1058.6-831V113.7z M887.5,2183.1l-761.7-0.3c-36.6,0-79.3,4.3-95.5-15.6
	c-15-18.4-12.1-54.1-12.1-87.2V902c0-36.4-3-74.6,14.8-93.7c17.6-18.9,61.2-14.3,98.2-14.3l239.4-1.3l490-1l492.3-388.8
	c62.4-45.8,120-101.1,191-137.2c72-0.7,57.8,70.8,57.8,139.8v410.1c-0.4,612.2-0.9,1224.5-1.3,1836.8c-5.8,25-36.4,45.1-67.2,32.3
	L887.5,2183.1z M1705.3,498.3c472.9-7,773.4,301.9,886.4,653.5c68.1,212,72.3,507.3-9.4,711.3c-136.8,341.5-401.9,621.3-877,623.9
	v-156c398.1,5.5,648.3-261.1,741.1-562.1c51.4-166.8,57.2-410.5-4-574.2c-111.9-299.3-326.7-539-737.1-540.6V498.3L1705.3,498.3z
	 M1705.3,872.1c66.3-0.8,128.4-0.1,178.9,14.8c207,61.2,341,205.7,403.5,411.5c23.7,78.1,41.1,200,21.5,299.9
	c-9.2,47.1-19.7,94.5-36.3,135.8c-71.8,177.7-204.7,318.3-406.2,365.8c-48.4,11.4-104.5,12-161.4,14.8v-157.3
	c240.7,3.5,358.7-124.6,425-295.8c39-100.5,36-258.7-4-356.3c-67.5-164.5-185.8-277.8-421-277V872.1L1705.3,872.1z"/>
</svg>
