<?xml version="1.0" encoding="utf-8"?>
<!-- Generator: Adobe Illustrator 24.0.2, SVG Export Plug-In . SVG Version: 6.00 Build 0)  -->
<svg version="1.1" id="V1" xmlns="http://www.w3.org/2000/svg" xmlns:xlink="http://www.w3.org/1999/xlink" x="0px" y="0px"
	 viewBox="0 0 3000 3000" style="enable-background:new 0 0 3000 3000;" xml:space="preserve">
<style type="text/css">
	.st0{fill-rule:evenodd;clip-rule:evenodd;}
</style>
<path id="_64" class="st0" d="M887.5,2183.1l-761.7-0.3c-36.6,0-79.3,4.3-95.5-15.6c-15-18.4-12.1-54.1-12.1-87.2V902
	c0-36.4-3-74.6,14.8-93.7c17.6-18.9,61.2-14.3,98.2-14.3l239.4-1.3l490-1l492.3-388.8c62.4-45.8,120-101.1,191-137.2
	c72-0.7,57.8,70.8,57.8,139.8v410.1c-0.4,612.2-0.9,1224.5-1.3,1836.8c-5.8,25-36.4,45.1-67.2,32.3L887.5,2183.1z"/>
</svg>
