<?xml version="1.0" encoding="utf-8"?>
<!-- Generator: Adobe Illustrator 24.0.2, SVG Export Plug-In . SVG Version: 6.00 Build 0)  -->
<svg version="1.1" id="e22f" xmlns="http://www.w3.org/2000/svg" xmlns:xlink="http://www.w3.org/1999/xlink" x="0px" y="0px"
	 viewBox="0 0 3000 3000" style="enable-background:new 0 0 3000 3000;" xml:space="preserve">
<style type="text/css">
	.st0{fill-rule:evenodd;clip-rule:evenodd;}
</style>
<g id="sdf">
	<path id="cxcva" class="st0" d="M2436.3,2134.7c-0.2-9.2-0.7-18.3-2-26.9c-0.8-7.7-1.9-16.6-3.5-27.2
		c-8.1-53.1-39.8-153.6-77.1-215.2c-3-4.9-6-9.7-9-14.5c-18-30.3-38.2-59.2-60.4-86.7c-2.1-2.7-4.2-5.4-6.3-8.1
		c-1.4-1.5-2.7-3-4.1-4.5c-14.3-17-29.5-33.5-45.3-49.3c-19.7,18.6-39.4,37.2-59.1,55.8c0.7,0.7,1.4,1.4,2.1,2.1
		c-0.1,0-0.1,0.1-0.2,0.1c3.2,10.6,18,17.8,24.5,25.9c15,18.5,29.9,36.9,44.8,55.4c8.2,11.7,16.3,23.4,24.1,35.3
		c30.2,48.1,54.5,101,71.9,158.9c1.4,4.6,2.6,9.2,3.8,13.9c0.4,1.9,0.8,3.8,1.1,5.7c0.7,2.9,1.4,5.6,2,8.2
		c7.9,38.4,10.2,79.8,14.8,122.8h82v-0.7c-0.7-2.8-1.2-5.6-1.7-8.4h1.7C2437.3,2160.1,2437,2149,2436.3,2134.7z"/>
	<path id="xcvs" class="st0" d="M1493.5,1498.5c16.7,0.1,32.8,1,45.9,3.2c22.9,1.8,45.9,3.7,68.8,5.5c9.9,0.9,19.8,1.8,29.7,2.6
		c55.3,9.9,106.5,18.9,155.2,33.9c69,21.2,134.9,48.2,195.8,81.5c24.3-17.9,48.5-35.7,72.7-53.6c-20.1-12.2-40.6-23.7-61.6-34.5
		c-3.4-1.7-6.8-3.5-10.2-5.1c-34.9-17.4-71.1-32.9-108-46.2c-68.5-26.6-144-45.3-227.4-56c-0.5-0.1-1-0.2-1.5-0.3l-2.4-0.2
		c-32.7-4.1-66.6-7-101.7-8.7l-19.3-1.6c-12.2-0.1-24.2-0.1-36.1,0c-11.9-0.1-23.9-0.2-36.1,0l-19.3,1.6c-35.1,1.7-69,4.6-101.7,8.7
		l-2.4,0.2c-0.5,0.1-1,0.2-1.5,0.3c-83.4,10.7-158.9,29.4-227.4,56c-37,13.3-73.1,28.7-108,46.2c-3.4,1.7-6.8,3.4-10.2,5.1
		c-105.5,54.1-199.8,126.6-273.9,214.5c-1.4,1.5-2.7,3-4.1,4.5c-2.1,2.7-4.2,5.4-6.3,8.1c-22.2,27.5-42.4,56.4-60.4,86.7
		c-3,4.8-6,9.7-9,14.5c-37.3,61.6-69,162.1-77.1,215.2c-1.6,10.6-2.7,19.5-3.5,27.2c-1.4,8.6-1.8,17.7-2,26.9
		c-0.7,14.3-1.1,25.4-4.3,42.6h1.7c-0.5,2.8-1,5.6-1.7,8.4v0.7h82c4.6-43,6.9-84.4,14.8-122.8c0.6-2.6,1.3-5.4,2-8.2
		c0.4-1.9,0.7-3.8,1.1-5.7c1.2-4.7,2.4-9.3,3.8-13.9c17.4-57.9,41.7-110.8,71.9-158.9c7.8-11.8,15.9-23.5,24.1-35.2
		c14.9-18.5,29.9-36.9,44.8-55.4c6.6-8.1,21.4-15.3,24.5-25.9c-0.1,0-0.1-0.1-0.2-0.1c100.5-100.5,232.5-171.6,378.5-216.4
		c48.7-15,99.9-24,155.2-33.9c9.9-0.9,19.8-1.8,29.7-2.6c22.9-1.8,45.9-3.7,68.8-5.5C1460.7,1499.5,1476.8,1498.5,1493.5,1498.5z"/>
	<path id="dsf" class="st0" d="M2619.9,1248.6l-2.1-2.8l-6.3-0.7c-319.6,235.5-639.1,471-958.6,706.5
		c-54.2,40-108.4,79.9-162.6,119.9c-23.5,17.2-56.9,33.8-72.2,58.9c-22.5,37-15,84,8.4,113.5c21.7,27.5,79.2,45.3,119.1,21.7
		c22.9-13.5,38.5-37.6,58.9-54c47.4-44.2,94.8-88.3,142.2-132.5c198.3-187.2,396.6-374.3,594.9-561.4
		c63.5-59.8,127.1-119.6,190.6-179.4c19.6-18.5,39.2-36.9,58.9-55.4c9.8-7.9,24.1-18.1,30.1-29.4
		C2620.9,1251.9,2620.4,1250.2,2619.9,1248.6z"/>
</g>
</svg>
