<?xml version="1.0" encoding="utf-8"?>
<!-- Generator: Adobe Illustrator 24.0.2, SVG Export Plug-In . SVG Version: 6.00 Build 0)  -->
<svg version="1.1" id="e322" xmlns="http://www.w3.org/2000/svg" xmlns:xlink="http://www.w3.org/1999/xlink" x="0px" y="0px"
	 viewBox="0 0 3000 3000" style="enable-background:new 0 0 3000 3000;" xml:space="preserve">
<style type="text/css">
	.st0{fill-rule:evenodd;clip-rule:evenodd;}
</style>
<g id="asdcz">
	<path id="asdz" class="st0" d="M2440.5,2177.3c-3.2-17.2-3.5-28.3-4.3-42.6c-0.2-9.2-0.7-18.3-2-26.9c-0.8-7.7-1.9-16.6-3.5-27.2
		c-8.1-53.1-39.8-153.6-77.1-215.2c-3-4.9-6-9.7-9-14.5c-18-30.3-38.2-59.2-60.4-86.7c-2.1-2.7-4.2-5.4-6.3-8.1
		c-1.4-1.5-2.7-3-4.1-4.5c-74.1-87.9-168.4-160.4-273.9-214.5c-3.4-1.7-6.8-3.5-10.2-5.1c-34.9-17.4-71.1-32.9-108-46.2
		c-68.5-26.6-144-45.3-227.4-56c-0.5-0.1-1-0.2-1.5-0.3l-2.4-0.2c-8.4-1.1-17-2-25.6-2.9c1,27.5,2.1,55.1,3.1,82.6
		c3.3,0.3,6.5,0.6,9.8,0.9c55.3,9.9,106.5,18.9,155.2,33.9c146,44.8,278,115.9,378.5,216.4c-0.1,0-0.1,0.1-0.2,0.1
		c3.2,10.6,18,17.8,24.5,25.9c15,18.5,29.9,36.9,44.8,55.4c8.2,11.7,16.3,23.4,24.1,35.3c30.2,48.1,54.5,101,71.9,158.9
		c1.4,4.6,2.6,9.2,3.8,13.9c0.4,1.9,0.8,3.8,1.1,5.7c0.7,2.9,1.4,5.6,2,8.2c7.9,38.4,10.2,79.8,14.8,122.8h82v-0.7
		c-0.7-2.8-1.2-5.6-1.7-8.4H2440.5z"/>
	<path id="asdzx" class="st0" d="M1336.4,1429.2l-2.4,0.2c-0.5,0.1-1,0.2-1.5,0.3c-83.4,10.7-158.9,29.4-227.4,56
		c-37,13.3-73.1,28.7-108,46.2c-3.4,1.7-6.8,3.4-10.2,5.1c-105.5,54.1-199.8,126.6-273.9,214.5c-1.4,1.5-2.7,3-4.1,4.5
		c-2.1,2.7-4.2,5.4-6.3,8.1c-22.2,27.5-42.4,56.4-60.4,86.7c-3,4.8-6,9.7-9,14.5c-37.3,61.6-69,162.1-77.1,215.2
		c-1.6,10.6-2.7,19.5-3.5,27.2c-1.4,8.6-1.8,17.7-2,26.9c-0.7,14.3-1.1,25.4-4.3,42.6h1.7c-0.5,2.8-1,5.6-1.7,8.4v0.7h82
		c4.6-43,6.9-84.4,14.8-122.8c0.6-2.6,1.3-5.4,2-8.2c0.4-1.9,0.7-3.8,1.1-5.7c1.2-4.7,2.4-9.3,3.8-13.9
		c17.4-57.9,41.7-110.8,71.9-158.9c7.8-11.8,15.9-23.5,24.1-35.2c14.9-18.5,29.9-36.9,44.8-55.4c6.6-8.1,21.4-15.3,24.5-25.9
		c-0.1,0-0.1-0.1-0.2-0.1c100.5-100.5,232.5-171.6,378.5-216.4c48.7-15,99.9-24,155.2-33.9c9.9-0.9,19.8-1.8,29.7-2.6
		c7-0.6,14.1-1.1,21.1-1.7c2.3-27.7,4.6-55.4,7-83C1382.8,1424.1,1359.3,1426.3,1336.4,1429.2z"/>
	<path id="asdzz" class="st0" d="M1593.3,2121.3c-2-64.8-4-129.5-6-194.3c-10.3-272.5-20.5-545-30.8-817.4
		c-3.2-87.2-6.4-174.4-9.5-261.6c-1-26.9-1.9-53.8-2.9-80.8c0.5-12.6,2.3-30-2.3-42.1c-1.5-0.7-3.1-1.5-4.6-2.2l-3.5-0.3l-4.7,4.3
		c-33.2,395.6-66.3,791.1-99.5,1186.7c-5.6,67.1-11.2,134.2-16.8,201.3c-2.5,29-12,65.1-3.2,93.1c13,41.3,53.4,66.6,91,68.4
		c35,1.8,86.3-29.8,94.8-75.3C1600,2175,1592.3,2147.4,1593.3,2121.3z"/>
</g>
</svg>
