<?xml version="1.0" encoding="utf-8"?>
<!-- Generator: Adobe Illustrator 24.0.2, SVG Export Plug-In . SVG Version: 6.00 Build 0)  -->
<svg version="1.1" id="e3" xmlns="http://www.w3.org/2000/svg" xmlns:xlink="http://www.w3.org/1999/xlink" x="0px" y="0px"
	 viewBox="0 0 3000 3000" style="enable-background:new 0 0 3000 3000;" xml:space="preserve">
<style type="text/css">
	.st0{fill-rule:evenodd;clip-rule:evenodd;}
</style>
<g id="asad">
	<path id="sad" class="st0" d="M2440.5,2177.3c-3.2-17.2-3.5-28.3-4.3-42.6c-0.2-9.2-0.7-18.3-2-26.9c-0.8-7.7-1.9-16.6-3.5-27.2
		c-8.1-53.1-39.8-153.6-77.1-215.2c-3-4.9-6-9.7-9-14.5c-18-30.3-38.2-59.2-60.4-86.7c-2.1-2.7-4.2-5.4-6.3-8.1
		c-1.4-1.5-2.7-3-4.1-4.5c-74.1-87.9-168.4-160.4-273.9-214.5c-3.4-1.7-6.8-3.5-10.2-5.1c-34.9-17.4-71.1-32.9-108-46.2
		c-68.5-26.6-144-45.3-227.4-56c-0.5-0.1-1-0.2-1.5-0.3l-2.4-0.2c-32.7-4.1-66.6-7-101.7-8.7l-19.3-1.6c-12.2-0.1-24.2-0.1-36.1,0
		c-11.9-0.1-23.9-0.2-36.1,0l-19.3,1.6c-35.1,1.7-69,4.6-101.7,8.7l-2.4,0.2c-0.5,0.1-1,0.2-1.5,0.3c-83.4,10.7-158.9,29.4-227.4,56
		c-37,13.3-73.1,28.7-108,46.2c-3.4,1.7-6.8,3.4-10.2,5.1c-105.5,54.1-199.8,126.6-273.9,214.5c-1.4,1.5-2.7,3-4.1,4.5
		c-2.1,2.7-4.2,5.4-6.3,8.1c-22.2,27.5-42.4,56.4-60.4,86.7c-3,4.8-6,9.7-9,14.5c-37.3,61.6-69,162.1-77.1,215.2
		c-1.3,8.7-2.3,16.3-3.1,23.1c28.2-2.2,56.4-4.4,84.5-6.7c1.5-11.3,3.3-22.5,5.5-33.4c0.6-2.6,1.3-5.4,2-8.2
		c0.4-1.9,0.7-3.8,1.1-5.7c1.2-4.7,2.4-9.3,3.8-13.9c17.4-57.9,41.7-110.8,71.9-158.9c7.8-11.8,15.9-23.5,24.1-35.2
		c14.9-18.5,29.9-36.9,44.8-55.4c6.6-8.1,21.4-15.3,24.5-25.9c-0.1,0-0.1-0.1-0.2-0.1c100.5-100.5,232.5-171.6,378.5-216.4
		c48.7-15,99.9-24,155.2-33.9c9.9-0.9,19.8-1.8,29.7-2.6c22.9-1.8,45.9-3.7,68.8-5.5c13.1-2.1,29.2-3.1,45.9-3.2
		c16.7,0.1,32.8,1,45.9,3.2c22.9,1.8,45.9,3.7,68.8,5.5c9.9,0.9,19.8,1.8,29.7,2.6c55.3,9.9,106.5,18.9,155.2,33.9
		c146,44.8,278,115.9,378.5,216.4c-0.1,0-0.1,0.1-0.2,0.1c3.2,10.6,18,17.8,24.5,25.9c15,18.5,29.9,36.9,44.8,55.4
		c8.2,11.7,16.3,23.4,24.1,35.3c30.2,48.1,54.5,101,71.9,158.9c1.4,4.6,2.6,9.2,3.8,13.9c0.4,1.9,0.8,3.8,1.1,5.7
		c0.7,2.9,1.4,5.6,2,8.2c7.9,38.4,10.2,79.8,14.8,122.8h82v-0.7c-0.7-2.8-1.2-5.6-1.7-8.4H2440.5z"/>
	<path id="asdv_1_" class="st0" d="M1516.2,2087c-26.3-3.8-53.6,5.1-79.7,5.1c-64.6,4.7-129.3,9.3-193.9,14
		c-271.9,21.4-543.7,42.8-815.5,64.2c-87,6.7-174,13.5-261,20.2c-26.9,2.1-53.7,4.1-80.6,6.2c-12.6,0-30.1-1-41.9,4
		c-0.7,1.6-1.3,3.1-2,4.7l-0.1,3.5l4.5,4.5c396.6,17,793.2,33.9,1189.7,50.9c67.3,2.9,134.5,5.7,201.8,8.6
		c29.1,1.4,65.5,9.4,93.1-0.6c40.7-14.7,64.3-56,64.7-93.7C1595.7,2143.5,1562.1,2093.6,1516.2,2087z"/>
</g>
</svg>
