<svg id="V1" xmlns="http://www.w3.org/2000/svg" width="3000" height="3000" viewBox="0 0 3000 3000">
  <defs>
    <style>
      .cls-1 {
        fill-rule: evenodd;
      }
    </style>
  </defs>
  <path id="_66" data-name="66" class="cls-1" d="M59.188,689.8H2757.68c50.18,0,178.38-10.952,206.06,10.4,30.2,23.293,17.69,172.692,17.69,229.861V2098.08c0,41.28,7.75,167.7-6.24,191.38-19.9,33.66-93.31,22.88-145.7,22.88H2412.18q-876.18-.51-1752.517-1.04H181.989c-58.625.01-142.713,13.48-160.265-29.12-10.666-25.89-3.124-77.08-3.122-109.21v-1349c0-29.308-5.162-83.364,4.163-105.049C29.925,702.266,43.319,698.091,59.188,689.8Zm80.133,912.165V1792.3l828.385-1.05q0.52-94.635,1.041-189.29C690.409,1602.06,417.659,1601.94,139.321,1601.96Zm929.329,0V1792.3l1036.52-1.05V1601.96C1757.81,1602.04,1416.02,1601.93,1068.65,1601.96Zm1153.08,0V1792.3l620.25-1.05V1601.96C2633.38,1602.04,2430.33,1601.96,2221.73,1601.96ZM139.321,1887.98v190.34q620.706-.525,1241.539-1.04v-189.3C965.158,1888.08,555.021,1887.96,139.321,1887.98Zm1839.929,0v190.34q414.15-.525,828.39-1.04v-189.3C2529.66,1888.08,2257.23,1887.98,1979.25,1887.98Zm-516.18,0v190.34q206.565-.525,413.15-1.04v-189.3H1463.07Z"/>
</svg>
