<?xml version="1.0" encoding="utf-8"?>
<!-- Generator: Adobe Illustrator 24.0.2, SVG Export Plug-In . SVG Version: 6.00 Build 0)  -->
<svg version="1.1" id="V1" xmlns="http://www.w3.org/2000/svg" xmlns:xlink="http://www.w3.org/1999/xlink" x="0px" y="0px"
	 viewBox="0 0 3000 3000" style="enable-background:new 0 0 3000 3000;" xml:space="preserve">
<style type="text/css">
	.st0{fill-rule:evenodd;clip-rule:evenodd;fill:#070707;}
</style>
<g>
	<path class="st0" d="M2802,376H198c-93.7,0-170,76.3-170,170v1908c0,93.7,76.3,170,170,170H2802c93.7,0,170-76.3,170-170V546
		C2972,452.3,2895.7,376,2802,376z M2833.5,2454c0,17.4-14.1,31.5-31.5,31.5H198c-17.4,0-31.5-14.1-31.5-31.5V546
		c0-17.4,14.1-31.5,31.5-31.5H2802c17.4,0,31.5,14.1,31.5,31.5V2454z"/>
	<path class="st0" d="M2674.9,1600.8h-877.9c-55.7,0-100.8,45.1-100.8,100.8v639.6c0,55.7,45.1,100.8,100.8,100.8h877.9
		c55.7,0,100.8-45.1,100.8-100.8v-639.6C2775.6,1645.9,2730.5,1600.8,2674.9,1600.8z"/>
</g>
</svg>
