<svg xmlns="http://www.w3.org/2000/svg" viewBox="0 0 2994.91 3000">
  <title>1819 icon 1</title>
  <g>
    <path d="M38.51,837.44q-.24,1031.7-.47,2063.4l2127.56.49q.24-1031.71.47-2063.41Zm1119,1658.88-.64,82.56c-.08,9.89,1.76,25.35-3.91,30-5.94,4.86-21.54,3.54-31.52,3.94l-79.29,3.2c-11.84.47-28.67,3.52-32.51-4.55-3.54-7.46-.86-24.3-.78-34q.91-51.69,1.85-103.38c1.69-4.08,5.3-5.09,9-7.29l96.61-3.89c10.69-.43,30.41-4,37.26.62C1160,2467.83,1157.54,2485.35,1157.46,2496.32Zm284.06-958.25c-24.24,95.52-84.64,203.7-149.51,259l-50.76,47.84c-25,21.22-52,46.2-69.34,74.68-20.63,33.81-34,71.79-43.94,116.27q-4.18,31-8.36,62.1l-.35,45.28q1.88,28.15,3.76,56.29,2.64,32.91,5.26,65.83,7.4,62.52,14.78,125.07l-121.29,5.42-15.72-139.41-4.26-60c-3.07-20.08.6-42.12-2.65-63.79L1000,2091c4.58-26.78,5.07-53.82,11.11-79.26,15.13-63.72,35.74-119.33,67.95-166.22,20.91-30.43,48.36-58.72,76.23-82.42l36.49-35,41.78-40.56,25.44-31.38c13.3-19.45,22.71-41.2,34.6-62.1,26.43-46.45,44.44-110.55,29.74-180.12-19.69-93.24-59.93-153.72-143.47-180.07-26.37-8.31-68.54-15-105.45-6.93l-46.8,10.41c-27.19,8.82-52.22,19.86-73.75,34.39-36.53,24.65-75.71,68-93.77,110.28-27.82,65.21-27.12,158.84-27.64,247.67-40.72,1.57-81.38,2.3-120.25,6.45,0-102.16,2.11-205.46,31.58-281.9,29.79-77.26,83.88-141,148.41-184.38,31.37-21.1,67.07-36.08,106.41-49.55,20.64-7.07,42.88-9.41,65.72-14.37,42-9.12,99.55-3.68,131.72,4.81,109.47,28.88,179,88.26,220.57,187.6,13.06,31.2,20,65.79,27.54,103.26C1452.21,1441.63,1451.32,1499.41,1441.52,1538.07Z"/>
    <path d="M2249.45,820.28q-.24,1029.38-.47,2058.76l707.43-671.84q.23-1019.85.46-2039.7Zm419,1275.07-.62,81.33c-.07,9.75.69,23.73-1.89,31.86-2.7,8.54-9.76,17.13-14.27,23.85l-35.88,53.39c-5.35,8-13,21.62-14.68,16.15-1.57-5.06-.29-23.28-.22-32.88l1.26-102.5c.78-5.07,2.42-8.35,4.09-12.84l43.71-65.06c4.83-7.19,13.77-23.17,16.85-23C2669.7,2065.81,2668.5,2084.55,2668.42,2095.35Zm132.34-1119.3c-11.35,109-39.1,253.32-68.67,348.6l-23.15,79.07c-11.39,36.64-23.69,78.23-31.66,117.16-9.47,46.21-15.67,91.91-20.34,141.81q-2,33.07-4,66.17l-.34,44.6,1.47,52.8q1.07,30.59,2.12,61.17l6.18,113.23-54.89,82.2-6.54-126.68q-.84-28-1.69-56.12c-1.31-17.73.44-41.67-.94-60.84l.55-41.29c2.18-29.15,2.51-56,5.35-84.73,7.09-72,16.64-139.62,31.4-206,9.58-43.09,22.1-88.21,34.81-129.1q8.31-28.72,16.64-57.46,9.53-33.12,19.06-66.23,5.82-23.45,11.63-46.89c6.1-27.49,10.44-54.78,15.9-82.8,12.15-62.29,20.55-136.52,14.18-195.4-8.53-78.91-26.49-112.67-64.17-85.54-11.89,8.56-30.93,28.77-47.66,60l-21.21,39.87a815.15,815.15,0,0,0-33.5,80.46c-16.62,47.31-34.51,114.62-42.85,167.53-12.85,81.55-12.91,172.87-13.5,260.28-18.43,27.35-36.82,53.84-54.41,82.54.4-100.12,1.78-202.73,15.42-296.33,13.78-94.61,38.5-191.36,67.86-274.79,14.28-40.56,30.48-77.88,48.33-116,9.36-20,19.43-36.4,29.78-55.74,19-35.55,45-66.71,59.56-78.78,49.39-41.08,80.59-26.94,99,44.06,5.78,22.3,8.77,51.82,12,83.75C2806,874.75,2805.35,932,2800.76,976.05Z"/>
    <path d="M723.78,98.68l-647,646.75,2122.77.48L2890.16,99.17Zm557,508.49-28.92,25.94c-3.46,3.11-7.27,8-13.52,9.36-6.55,1.41-18.9.69-27.24.63l-66.2-.51c-9.89-.08-24.75.55-25.13-2.06-.35-2.41,7.65-7.65,11.07-10.72l37.06-32.47c2.79-1.25,6.11-1.5,9.89-2.12l80.66.63c8.92.07,26.34-.67,30.38.91C1292.63,598.26,1284.57,603.72,1280.74,607.17Zm611.8-338.72c-7.13,12.73-27.73,30.88-49.07,42.85-52.74,29.57-139.54,62.43-211.8,78.56l-58.14,14.07c-27.81,6.19-58.55,13.54-82.62,22.16a437.55,437.55,0,0,0-76.05,35.71l-28.22,19.37-15.86,14.23q-8.13,8.89-16.27,17.77l-18.3,20.8q-15.43,19.8-30.88,39.61L1203.87,573q17.52-22.07,35-44.13l17.13-19c4.38-6.38,15-13.24,19.76-20.11l15-13.06c13-8.33,22.67-16.82,36.38-24.71a602.23,602.23,0,0,1,112.94-51c27.64-9.17,59.9-17.54,90.93-24.46l42-10.31,48.25-11.95,31.68-9.38c17.61-5.86,32.81-12.52,49.76-18.86,37.68-14.1,74.5-33.91,86.36-56.07,15.89-29.7,3.64-49.48-55.9-59.37-18.79-3.12-51.13-6-84.2-4.2l-42,2.38c-25.36,2.25-49.71,5.24-72.39,9.4-38.46,7.05-85.53,19.92-114.91,32.88-45.27,20-76.88,49.42-107.86,77.35-34-.29-67.61-.84-100.95-.28,35.12-32.12,72.38-64.57,122.86-88,51-23.72,117.35-42.72,185.26-55.13,33-6,67.48-10.06,104.41-13.54,19.38-1.83,38.44-2.14,58.91-3.26,37.6-2.06,83,.75,106.5,4,80,11.18,116.61,31.18,116.61,63.21C1905.43,245.51,1899.23,256.52,1892.54,268.45Z"/>
  </g>
</svg>
