<?xml version="1.0" encoding="utf-8"?>
<!-- Generator: Adobe Illustrator 24.2.3, SVG Export Plug-In . SVG Version: 6.00 Build 0)  -->
<svg version="1.1" id="layer" xmlns="http://www.w3.org/2000/svg" xmlns:xlink="http://www.w3.org/1999/xlink" x="0px" y="0px"
	 viewBox="0 0 2994.9 3000" style="enable-background:new 0 0 2994.9 3000;" xml:space="preserve">
<g>
	<path d="M1247.5,2320.2l-4.1-112.8l-0.6-38.9c0,0-90.3,61-118.9,83.8c-23.1,18.4-88.3,76.1-88.3,76.1s79.9,95.2,100.3,117.1
		c40.6,43.6,148.3,139.7,148.3,139.7s64.9-68.3,107.3-67.9c51.6,0.4,100.1,127.7,100.1,127.7s-20.3-86.9-26.7-95.1
		C1416.1,2488.2,1242.3,2324.1,1247.5,2320.2z"/>
	<path d="M1907.7,2299.8l-5,11.5c-8-6.3-66.5-52.9-86.9-68.2c-24.6-18.4-104.4-73.7-104.4-73.7l-7.5,12.2l-5.4,146.7
		c-9.8,29.9-180,188.5-197,216c-7.1,11.4-10,100.5-10,100.5s24.2-116.1,72.5-129.1c30.1-8.1,95.8,61.1,96.5,62.5
		c0.9-0.6,106.8-74.4,135.8-105.9c28.2-30.6,86.2-125.4,102.8-152.8L1601,3000h869.8c0,0-8.6-137.1,1.3-217.2
		c9.4-76.5,56.1-282.7,56.1-282.7L1907.7,2299.8z"/>
	<path d="M468.4,2487.9c0,0,54.1,254.1,58.4,340.4c5.1,104.6-8.9,171.7-8.9,171.7h819.2l-305.4-679.8L468.4,2487.9z"/>
	<path d="M1733.6,1262.4l-202.2-9.4l2.1,73c-27.1-1.1-50.9-1.7-70-1.5c-16.7,0.1-37.3,0.8-60.6,1.8l-2.5-68.7l-133.9,2.2
		l-50.9,179.1l191.1-10.2l-3.1-85.2c23.2-1.2,43.5-1.9,60-1.9c19.2-0.1,43.2,0.5,70.5,1.7l2.7,94l124.3,4.2L1733.6,1262.4z"/>
	<path d="M1320.6,2056.9c0,0-0.1,0-0.1-0.1L1320.6,2056.9L1320.6,2056.9z"/>
	<polygon points="1632.9,2042.2 1634.6,1891.6 1634.9,1891.6 1634.9,1890.8 1634.7,1890.8 1634.7,1890.3 1634.1,1890.1 
		1634.1,1890.9 1309,1884.1 1308.1,1884 1308.1,1884.1 1306.5,1884 1306.9,1886.1 1305.6,2047.8 1305.7,2047.9 1309.3,2050 
		1308.4,1886.1 1634,1891.7 1631.2,2043.6 	"/>
	<path d="M827.7,2153.1l167.1,32.6c0,0-5.9-25.2-14.9-65.3c64.3-16.1,165.5-37.5,267.6-52.2l3.5-55.2
		c-73.6-48.5-149.9-106.2-199.1-163.6c-67.8-78.8-135.5-193.3-172.1-258.8c-4.4-53.6-9-128.5-12.9-199.8c21.1-2.3,54.1-5.7,94.1-9.8
		l4.2,71l103.1-5.5l77.4-185l-191.7,3.1l5.6,93.6c-40.8,3.5-73.9,6.4-94.1,8.3c-5.4-100.5-9.3-187.6-9.3-187.6
		s472.2,52.3,623.5,50.9c145.4-1.3,578.7-59.1,578.7-59.1l-14.4,194.8c-17.4-1.7-38.7-3.7-62.9-5.9V1274l-140.8-6.6l-36.9,178.8
		l177.7,6v-75.6c24.3,2.2,45.2,4.2,61.6,5.7l-19.6,265.1c-37.1,60.2-84.8,132.1-133.7,191.1c-47.1,56.8-122,115.3-196,165.4
		l6.4,72.9c88,12.5,178.4,27.2,244.3,38.3l-12.3,70.8l179.3-32.6c0,0,114.7-701.2,122.3-960.5c3.5-121.6,16.5-292.9-27.2-502.6
		c-27.2-130.4-103.2-293.4-222.8-410.3c-124.4-121.6-324.2-186.7-490.2-186.7c-230,0-417.2,73.6-517.4,168.2
		c-144.1,136-212.7,290.4-239.5,388c-47.5,173.2-74.5,418.1-67.9,570.6C693.2,1790.4,827.7,2153.1,827.7,2153.1z"/>
</g>
</svg>
