<?xml version="1.0" encoding="utf-8"?>
<!-- Generator: Adobe Illustrator 24.2.3, SVG Export Plug-In . SVG Version: 6.00 Build 0)  -->
<svg version="1.1" id="layer" xmlns="http://www.w3.org/2000/svg" xmlns:xlink="http://www.w3.org/1999/xlink" x="0px" y="0px"
	 viewBox="0 0 2994.9 3000" style="enable-background:new 0 0 2994.9 3000;" xml:space="preserve">
<style type="text/css">
	.st0{fill-rule:evenodd;clip-rule:evenodd;}
</style>
<path class="st0" d="M2631.5,1561.2L2631.5,1561.2l-167-121.2h206.4l71.3-219.5l-184.7-134.2l-167.4,120.5l55.1-202l-178.5-129.7
	l-183.1,133l55.1,198.7L1973,1088.5l-181.6,131.9l69-212.3l-174.5-128.9h216.3l70.7-217.7l-178.9-130l0,0l-166.9,110.1l54.2-191.9
	l-183.9-133.6L1310,452.3l74.6,195.8l-176.7-121.7l-186,135.1l70.7,217.7h210L1135.8,1012l67.7,208.4l-177.5-129l-170.7,125.9
	l56-209.2l-183.1-133l-176.2,128l65.1,206.7l-176.7-125.6l-187.7,136.3l71.2,219.1h214.5L367.2,1573l0,0l67.1,206.5h230.2l69-195.6
	l67.9,195.6H1022l0,0l0,0l-181.6,132l71,203.8l-172.5-130.1L546.6,2125l70.8,218h207.7l-164.3,133.5l67.4,207.3h239.2l61.5-207.3
	l62.5,207.3h224.5l70.9-218.2L1224,2342.9h202.7l70.8-217.9l70.8,217.9h208.2l-168.3,122.7l70.9,218.2h238.1l55.8-207.4l63.9,207.3
	h230l70.9-218.2l-168.3-122.7h208.1l70.9-218l-186.5-135.5l0.1,0.1l-165.3,130.9l59.8-207.6l-183.6-133.3h232l61.7-202.4l64.4,202.4
	h229.5L2631.5,1561.2z M934,1439.6h198.3l170.3,121.5h-209.8L934,1439.6z M1325.4,1999.9l-176.3,115.3l56.6-202.5l169.9-113.4
	L1325.4,1999.9z M1497.5,1417.8l-67.6-197.3l67.5-203.7l67.2,203.7L1497.5,1417.8z M1680.8,1991.8l-57.9-203.7l166.5,124.7
	l66.3,202.5L1680.8,1991.8z M1901.4,1561.2H1698l160.9-129.5h206.2L1901.4,1561.2z"/>
</svg>
