<svg xmlns="http://www.w3.org/2000/svg" viewBox="0 0 2994.91 3000">
  <defs>
    <style>
      .a {
        fill-rule: evenodd;
      }
    </style>
  </defs>
  <title>179icon 1</title>
  <path class="a" d="M2502.35,3000l18.45-41.24-18.45-21.7,18.45-42.33-18.45-23.87H2491.5l-19.54-29.3h-22.79l-5.42,10.85-27.13,1.09-15.2-31.48h-13l-18.45-21.7,17.36-41.24L2370,2736.29l16.28-13-6.51-9.77,11.94-15.19-5.43-10.85h-5.43l-5.42-13h-18.45l-5.43-14.1-9.77-14.11,9.77-13-3.25-6.52,11.93-17.36-6.51-13h-6.51l-5.43-14.11,14.11-10.85-3.25-7.6,9.76-13h22.79l7.6-13h25l13.57-30.39h25.5l6.51-14.11h28.22l15.19-33.64-11.94-11.94-5.42-13,13-13-6.51-11.94,10.85-7.6h28.22v-9.76h31.47v-19.54l9.76-15.19h29.3v-8.68h30.39l11.94-13-7.6-5.42,7.6-19.54-8.68-23.87,21.7-33.64-7.6-16.28-8.68,7.59-5.42-20.61-14.11,5.42-18.45-28.21,8.68-14.11-3.25-11.94,15.19-15.19-19.53-19.54,13-16.28-6.51-10.85,15.19-9.76h22.79l8.68-9.77h25l8.68-13-9.76-8.69,18.44-13h18.45l7.6-7.6H2752l9.77-17.36h-6.51l16.27-18.45-15.19-20.62,9.77-14.11-5.43-13,10.85-9.76h26.05l5.43-14.11h21.7l10.85-10.85v-10.86l8.68-8.68h25v-9.77h29.31l10.85-15.19-5.43-8.68,13-11.94L2900.63,1841l16.27-13-6.51-9.77,15.2-11.94-23.88-27.13-8.68,5.43-22.79-28.22,11.94-17.36-6.51-8.68,16.27-16.28-19.53-20.62,14.11-13-5.43-11.94,14.11-11.94-21.7-29.3-11.94,6.51-21.71-35.81h-19.53l-3.26,14.11h-25l-20.62-28.22h-14.1l-22.79-29.3,15.19-8.68-7.6-10.85,17.37-14.11-15.2-22.79,11.94-16.28-6.51-10.85,14.11-13-14.11-26.05h-18.45l-20.62-21.7,15.19-15.2-8.68-8.68,14.11-20.62L2714,1344l15.19-15.2-6.51-8.68,9.77-14.11-16.28-23.87h-15.2l-21.7-28.22h-22.79v10.86l-22.79-2.17-22.79-27.13h-15.19l-20.62-28.22h-20.62l-1.09,7.6-31.47,2.17,2.17,10.85-7.59,4.34,5.42,11.94-14.11,7.59h-18.44l-7.06,9.23H2458.4l-19-29.3-15.74,3.8L2399.79,1204h-19.53l-1.63,8.14-25,2.72-19-28.22h-14.11l-18.45-23.87,11.94-14.66-6-11.93,13.57-13.57L2302.12,1096l17.37-11.93-7.6-8.14,11.4-13.57-18.45-29.3-10.85,4.88-21.71-28.21,14.11-12.48-6-12.48,13.57-13-21.71-22.79,20.08-12.48-7.06-9.77,8.69-13-2.72-15.2h-6.51l-4.34-14.65-18.45,6-19-32h-21.16l-4.34,9.76h-22.79L2173,837.69h-14.65l-19-25,14.11-14.65-6-9.22,15.91-14.66-24-22.24,19.53-16.82-9.22-9.23L2163.39,714l-18.08-29.3-14.11,3.8-19.53-25,13-15.19L2119.26,638l14.11-15.19-16.82-20.62,13.57-14.11-7.06-10.85,15.2-13-21.17-29.84-12.48,7-23.33-34.18L2058,510V520.8l-25.5-2.17-16.28-28.75h-17.91l-20.08-27.68h-22.24v11.4l-30.93.54-3.26,25-6.87,8.5-26.05.36-6.51,8.68-23.15,1.09-17.36-29.66-21,.72-15.2-26.59-22.79-1.63v9.05l-26.58.45L1740,442.4H1719.9l-19-27.95h-19.53l-4.89,10.31-25.23-.81-11.39,12.48,4.07,8.95L1636.07,456l-27.22-.09-2.9,10.49-30-.72-5.43,17,3.26,5.43-14.11,14.47,17,21s-11.94,17.36-10.85,17.72,6.87,9,6.87,9L1562.18,564l-27.85-.72-2.9,8-30.38,1.08-5.79,12.3,3.26,10.85-7.6,10.13h-26.77l-4.7,9-22.79-.37-22.07-28.93-15.19.36-18.81-28.94-21,.36-2.9,11.94-26.4.36L1311.86,542l-17.37-.73-17-27.85h-23.87v9.77l-28.22-.73-9,12.3,4.34,10.13-7.24,11.94h-28.94v9h-27.85L1140,539.07l-19.17-.72-17-27.86-24.23,1.09v10.85l-27.86-.72-18.08-27.49-15.92-1.09-16.28-25-24.6.36v7.24l-31.83-2.17-7.6,14.11,5.79,6.51L935.64,508l-27.49-.36-5.06,10.49-27.49-2.17-9.77,15.56,6.51,5.42-12.66,14.83L874.87,572l-11.94,18.45,5.79,9.41-9,10.49-27.49,2.17-1.81,9.76-31.47-.72-8.32,11.58,6.87,11.21-6.87,10.49-29.67,1.45L758,665l-29.66.72-8.68,13,6.14,8-13.74,14.83L728,721.75l-10.5,18.81,4.35,7.6-9.77,15.19,14.47,22.07,8.68.72-.72-4,9.4-.36,16.64,27.49-11.94,21.35,4.35,5.78L743.2,852.7l15.55,18.45-14.1,19.54,5.06,9.76-8.32,10.85-29.3-.36V921.8l-28.94-1.45L673,933.73l4,6.88-6.15,12.66-27.13.72v8.68l-31.47.73L605,974.61H601.4V980l4,.36-10.85,19.17,16.28,17.36-11.94,20.62,5.07,8-9.41,12.3-27.49-.36-4.7,9.77-27.86-.37-5.06,11.58,2.53,9.4-7.23,15.56-27.5-.72-1.8,7.23L464.66,1111l-9.41,13.74,5.43,6.51L448,1147.16l17.72,22.43-13,17.72,5.43,6.15-13,14.47L461,1232.17l18.81-.72,16.64,24.23-11.58,19.54,3.62,8.32-12.3,16.28L492.51,1319l-11.94,17.72,4.71,7.6L473.34,1361l15.55,23.87,9.77,1.09-.36-5.43h10.13l15.91,30h22.79v-8.68l28.22.36,21.34,28.21L613,1430l2.9,14.47,7.23.36,2.53,16.64-11.21,10.86,6.51,4.34-.72,7.23-13.39,11.58,15.92,16.64-.73,12.3-10.85,9.4,6.15,5.79-.36,5.06L603.2,1557l18.45,23.16h18.81l12.3,18.08,1.45,12.3-11.58,13,5.43,4.71-.36,9-13.39,11.94,15.56,12.3v11.21l-11.22,11.58,8.33,6.15-.37,5.78-14.1,11,17,27,9-.36v-5.43l10.13.36,16.64,29.66,19.9.73,5.06-8.68,26.05,1.08,15.19,27.85,7.23-.36-.36-4.7,11.22-.36,18.08,29.66,22.43,2.17,4.7-8.68h27.86l7.23-11.21.36-18.45,5.07-5.79,26-.36.37-9.05h28.93l16.64,28.94,9.77-.36-1.45-5.06,9.41.36,17.73,33.64,7.23.36.72-3.61,15.56,1.08-.36-8.32,29.66-.72,18.81,31.83,15.19,1.09,18.09,25,24.6.36-.36-11.58,29.3.36.36-21.34,10.85-12.3,28.22,1.45V1803l31.83-.36-.72-8,6.15.72-.73-10.13-4-.36-.37-5.43,12.66-9.76-13.38-20.26v-10.13l12.3-10.13-6.51-4,.72-8.68,12.3-9.31h23.51l.73-11,30-.72,4.7-9.4,5.07-.37-.36-5.78-4-2.17v-4.71l8-7.59h28.21l.73-10.86h30.74l.37-10.85,6.51.36-.37-5.78-6.51-.73,1.81-7.23,10.85-8.68.73-8.32-11.22-7.6-.36-13.75,10.85-8.32.37-6.51-6.88-.72-.36-6.15,13-10.85L1339,1531.69l-13,1.45-17-17.73-2.17-10.85,9.77-10.85-1.45-13.39,10.49-11.57-1.81-10.13-12.66-5.79-.72-11.21,9.4-9.41-5.06-6.87v-6.87l12.3-11.22-14.83-27.49-8.68-1.45.36,8.32-9.41-2.53-18.81-31.83-21-1.81-3.62,11.94-25.32,1.08-16.64-26.77-18.45-.36L1174,1307.41l-24.23-.36-.37,11.58-31.83-2.9-5.43,9.77,1.09,24.6-34.37.36-.36,9.77-30.38.72-7.24,11.21,1.09,12.66-10.86,12.3,14.47,14.84.73,10.85-10.49,11.93-.73,3.26,6.88.72v8l-11.58,10.13,13.39,24.6,21.34.36,14.11,25.69,25,1.8,4.7-8.68,25.68-1.08,4-7.24,4.7-1.45v-7.23h-6.51v-8l12.66-9.4.37-7.24-10.49-7.23L1131,1438l-19.9,1.09-9,11.93,8.68,13.75,7.59.36,4.35-8-5.79-.72-3.62,2.53-.72-6.87,3.25-2.17h10.49l2.17,2.89.73,13-6.88,10.86-22.06.72-9.77-15.55-6.15-.73-1.81-15.19,10.13-11.58-4.7-5.06v-6.51l5.06.72.36-9.4,5.07-4.35,26.77-.72.72-8.32,26-.72,18.08,29.3h19.18l16.27,22.07.73,8.32-12.66,12.66-1.09,5.78,6.15,1.81-.72,4.34-11.22,11.22L1186,1502l14.11,10.49-.73,10.13-10.12,10.85-.73,4.7,5.07,2.17-1.09,6.51-5.79,8.69-28.94.72-1.08,9-30,.73-8.32,11.57,4.35,7.24v5.79l-8.32,9-27.5-.36V1608l-26.4,1.08-19.54-28.57h-19.53l-3.62-14.11h-7.23l-5.43-14.11-18.45-1.08-7.6,10.85H955.54l-15.92-28.94-9.76.36-.73,4-10.49-1.09-2.53-14.47-9-.36-4-14.1L915,1493.71l-4.35-3.26-.72-9,12.3-10.85-3.62-11.22-7.59-.36-3.62-15.55,8.32-11.58-3.26-9.77,13.75-11.21-5.06-12.25-5.57.67-6.78-15.46-15.6.14-20.75-25.91,13.7-12.62-4.89-11.12,13-11.94L878,1297.15l13.43-14.79-8.55-9.49,12.62-13.3,27.13.14.27-9.63,33-.14.14-7,5-.14L960,1235l-5-.41-.13-6.37,11.26-12.76,26.72-.31.72-8.32,32.92-.18,6-9.23-1.27-6.51-4.7-.36-.54-6.87,10.31-7.42-.36-9.59-10.67-9.76-.18-12.3,11.75-10-4.52-4.7v-8.68l7-9.41,28-1.08,6.33-9.41,28.58-.18-.18-21.16,10.12-13,27.68-.18-.73-8.5,28.76-1.26,17,29.48,8.33.54L1193,1083l10.31,1.09,17,28.57,20.61-.9,5.61-6.15,25-.54,16.46,27.31,22.07,1.63,4.16,13.74,5.6.18,4.35,11,24,.18-.54-7.6,30.57-1.45,6.87-7.77.36-7.42H1379l-.36-7.78,12.3-10.31,27.67,1.27.18-10.67,28-1.27,17.18,28.76,13.74-1.81,10.68,16.46h6.33l4.88,14.83,6.69.91.36-5.07,10.49-.36.73,5.61,5.06-.54-1.08-10.68,27.31-.54,17.91,26,18.62.9,14.29,22.79.37,6.87-11.76,13,.36,5.24,4.52-.72-.18,6.51-7.78,11.39.37,7.24,11.21,7.78.36,11-10.85,11,.36,7.42,4.52-.18.55,6.51-11.4,11.58.9,7h7.06l8.5,17.18,7.05.18-.36-4.7,9.59.36,14.47,21.53.18,11.57-10.31,11.76.18,5.06h4.52l.18,7.24-9.4,9.4.36,9,13,8.86.18,11-11.57,9.77.18,6.15,4.52-.91.36,8.51-11.94,10.3.18,6.7,15,20.8,7.59-.18-.54-4.16h12.66l15.38,29.66H1681v-9.59l29.3-.18,4.71,16.1h6.87l5.06,13.38,9.23.91-.18-5.25,10.85,1.09,4.34,18.27,6.87.36.37,12.84-10.49,11.94.54,4.52,6,.54v7.42l-11.58,8.86-.36,8,11,6.69.55,14.29-9,9.4-.36,6,4.7-.36-.18,8-9.76,10.85-.19,7.42-.36,5.42,13.93.18-.36,12.48,8.32.73-.36-4,15.73.9,3.44,15.2,6.69-.18,1.45,17.72-10.49,10.13.36,5.06,6.87-.18-.72,8.69-11,9.76-.73,7.42,13.21,9.22.36,11.76-9.77,8.86-.18,5.79,3.25-.18.19,9.58-7.24.19-.18,7.23-28.4-.18-.18,9-32.37.18-7.42,9.77-.36,7.78h4.52l-.9,8.86-6.7,8.14-28.21.18-.36,8.14-30.39,1.09-9,10.67-.36,7,4.88-.18v7.78l-11.76,10.67.73,7.6,15.19,12.48.9,5.6-13.74,10.67-.55,6.15,4.71-.18-.18,8.68-8,7.24-28.58,1.08.36,9.05-30.75,1.26-8.32,9.77-.36,6.15,4.89,2-.37,7.78-7.23,7.41-27.67-1.08-1.09,10-30.75.36-8.5,10.31.36,7.41h4.89l-.73,6.7-11.39,10.85-.54,7.59,15.37,11.94-.36,8.86-10,8.51.9,6.33h5.43l-.72,5.78-12.48,13.75,2.53,10.67,6.87.36,3.26,14.29,10.85.18.36-4.16,8.5.18,4.71,17.37,6.69-.18-.18,6.87,5.78,1.63-.18,6.69-11.75,9.95-.55,5.42h5.25l-.18,6-11.21,11.58v8.32l4.16.36,6.69,5.43.36,6.51,3.25.72.37,6.33-9.05,8.68-3.43-.18v9l5.78-.37-.18,8.51-8.86,6.33-27.67,1.8-4.71,9.59h-28l-7.6,10.67-.9,6.87,5.61.19-.55,8.68-6.87,6.51-29.12,1.26.36,9.77-29.48.54-10.85,10,.9,5.25h4.52l-.18,9-11,9.41-.18,7.23,14.29,10.67.18,9.95L1363.77,2380l.36,4.16,4.7-.37-.72,6-10.49,10.49-27.68-.36-3.79,8.68-26.77-.36-6.52,10.67v6.88l5.25.54-.72,6-8.69,10.13-29.48.72.55,7.78h-28L1212,2424.11l-14.84.72-17.72-28.58-21.34.19-6.88,8.86-21.7.9L1123,2391l-6.51.18-6-13.38-7.78-.73.72,3.62-9.94.72-9.59-17-4.7-.36-1.27-13-24.06-.18-5.78,6.51-28.58.36-4.7,10.67-4.16-.36.9,9.22,8.32-.18-.18,6.69-9.59,10.31-25.14-.9-7.59,11.58-24.6-.37-4.16-15-7.42.36-4.52-14.47-17,.73-5.07-14.47-7,.36-5.79-14.65-22.06.54-5.07,10.49H850.82l-5.07-15.55-7.59.72-7.24-15-14.83.72-6-14.47-7-.54-.91-9-5.24-.19v-5.06H776.3l-4.52,10.31-28-.72L736,2321.19l-.18,5.07,6.33,2v9.4l-8.68,5.79-28.4.72-.18,9.77-32.37-.9-7.6,11.93.36,5.79,4.71.18-.37,6.51-10.67,10.68-.36,7.23,12.12,10.13-.18,10.31-8.5,10.13-.18,5.6,3.25.73v8.14l-7.41,9.94-29.85-1.62v8.68l-28.94,2.17-8.14,7.6-.18,7.41,4.34.18.37,7.78-11.76,10.31L559.61,2491l-5.42,9.23-25.5-.19-4-12.48-6.15.73L511,2472.4l-5.61-.54.18,5.24L492,2476l-3.26-15.74-7,.73-4.88-16.1-22.25.18-.18,9.4H426.13l-4.7-13.56-6.69-.54L408.41,2427l-7.78-.18V2431H390.14l-3.62-16.1h-8.68L375.31,2401l-22.79.36v11.21l-34.19-2.35-6.87,11.76v3.43l4-.54-.36,9.41-6.88,10.67-26.76-1.63-5.25,10.49-24.6-.54-6.33-14.47h-4.88l-5.25-13.57-17.36.55-6.69-14.47-6.52.72-4.16-14.65L176,2396.8l-3.62,13.74-24.42-.9-3.25-16.82-8.32-.36-5.07-11.58-17.72.72-5.25-17.18-8.86-.54-3.26-6.69v-6.52l10-10.67-.18-4.7-3.8.18-.18-9,10.49-11.22-1.08-9.76h-5.61l-5.43-8.32-.18-7.24,10-10.67-1.27-13.2,9.41-11-.72-5.42-2.17-6.51-6.33-.36-7.6-13.93-6.33-.73v4.35l-10.85-.91-6.15-16.82H70l.72-7-4-.55v-5.6l13.75-13.39-.91-4.52-3.07-.54.54-8.14,8.32-9.77L83,2152.62l-6.15.54L70,2141.41l10.31-11.58L79.76,2115l8.87-9.41L73.8,2075.93l-7.06.18v4.16l-11.39-.9-16.82-30.75-19.36.18-4,9.77L0,2059.11V0H2990.92V3000Z"/>
</svg>
