<?xml version="1.0" encoding="utf-8"?>
<!-- Generator: Adobe Illustrator 24.2.3, SVG Export Plug-In . SVG Version: 6.00 Build 0)  -->
<svg version="1.1" id="layer" xmlns="http://www.w3.org/2000/svg" xmlns:xlink="http://www.w3.org/1999/xlink" x="0px" y="0px"
	 viewBox="0 0 2994.9 3000" style="enable-background:new 0 0 2994.9 3000;" xml:space="preserve">
<style type="text/css">
	.st0{fill-rule:evenodd;clip-rule:evenodd;}
</style>
<g>
	<polygon class="st0" points="2524,187.7 2524,187.7 2429.9,0.2 2335.8,187.7 2335.8,187.7 	"/>
	<path class="st0" d="M169.7,371.4c0.4,2,0.7,4,0.9,6c0.7-0.1,1.3-0.1,2-0.2L169.7,371.4z"/>
	<path class="st0" d="M74.2,190.8c1.9,0.4,3.8,1,5.7,1.6l-4,0.5C75.4,195.1,74.9,188.7,74.2,190.8z"/>
	<polygon class="st0" points="1018.7,187.7 924.6,0.2 924.5,0.2 830.4,187.7 	"/>
	<path class="st0" d="M265.7,1687.4l-93.6-186.5c-0.3-0.2-0.5-0.4-0.8-0.5l-93.9,187l0,0H265.7z"/>
	<polygon class="st0" points="77.4,1687.4 77.4,1687.4 77.4,1687.4 0,1533.1 0,2249.8 171.6,2249.8 359.6,2249.8 	"/>
	<path class="st0" d="M2434.9,1499.7h175.7l-94.3-188.7l-94.3,188.7h8.3c-0.1,0.1-0.2,0.2-0.3,0.3h0.3h5.1
		C2435.2,1499.9,2435,1499.8,2434.9,1499.7z"/>
	<path class="st0" d="M2917.8,0H1555.1c0,0.1,0,0.2,0,0.3l686.6-0.1l-0.1-0.1h564.7L2917.8,0C2917.8,0.1,2917.8,0,2917.8,0z"/>
	<polygon class="st0" points="1771.6,937.5 1677.5,1125 1865.7,1125 	"/>
	<polygon class="st0" points="1583.4,1312.6 1771.6,1312.6 1677.5,1125.1 	"/>
	<polygon class="st0" points="2148,1687.4 2053.9,1874.9 2242.1,1874.9 	"/>
	<polygon class="st0" points="1959.7,2062.5 2147.9,2062.5 2053.9,1875 	"/>
	<polygon class="st0" points="2524.3,2437.2 2430.2,2624.7 2618.4,2624.7 	"/>
	<polygon class="st0" points="2430.2,2624.8 2336.1,2812.3 2524.3,2812.3 	"/>
	<polygon class="st0" points="1960.1,2812.4 1960.1,2812.4 1960.1,2812.4 	"/>
	<polygon class="st0" points="1866.2,2250 2053.8,2250 1959.7,2062.5 1865.6,2250 1866,2250 1771.9,2437.3 1960.1,2437.3 
		1866,2624.9 2054.3,2624.9 1960.1,2812.4 2148.4,2812.4 	"/>
	<polygon class="st0" points="2336.2,2062.4 2336.2,2062.4 2336.2,2062.4 	"/>
	<polygon class="st0" points="2147.9,2062.5 2053.8,2250 2242,2250 	"/>
	<polygon class="st0" points="1489.5,3000 1677.8,3000 1583.7,2812.5 	"/>
	<polygon class="st0" points="924.8,1500.1 1113,1500.1 1018.9,1312.6 	"/>
	<polygon class="st0" points="1489.4,1499.8 1395.4,1312.6 1301.3,1500.1 1677.5,1500.1 1583.4,1312.6 	"/>
	<polygon class="st0" points="1395.5,1312.5 1395.4,1312.5 1395.4,1312.6 	"/>
	<polygon class="st0" points="2053.8,2250 2053.8,2250 2053.8,2250 	"/>
	<polygon class="st0" points="1865.7,1500.1 2053.9,1500.1 1959.8,1312.6 	"/>
	<polygon class="st0" points="1959.8,1312.6 1959.8,1312.5 1959.8,1312.5 	"/>
	<polygon class="st0" points="1395.4,562.7 1301.3,750.2 1489.5,750.2 	"/>
	<polygon class="st0" points="1677.5,1500.1 1865.7,1500.1 1771.6,1312.6 	"/>
	<polygon class="st0" points="2148.4,2812.4 2148.4,2812.4 2148.4,2812.4 	"/>
	<polygon class="st0" points="2336.2,2062.4 2242.1,2250 2430.3,2250 	"/>
	<polygon class="st0" points="2242.1,2250 2242,2250 2242,2250 	"/>
	<polygon class="st0" points="1771.9,2437.4 1677.8,2624.8 1866,2624.8 	"/>
	<polygon class="st0" points="1583.7,2812.4 1771.9,2812.4 1677.8,2624.9 	"/>
	<polygon class="st0" points="548.3,2250.1 736.5,2250.1 642.4,2062.5 	"/>
	<polygon class="st0" points="1018.8,2437.2 924.7,2624.7 1112.9,2624.7 	"/>
	<polygon class="st0" points="830.6,2812.3 1018.8,2812.3 924.7,2624.8 	"/>
	<polygon class="st0" points="171.8,2999.8 360,2999.8 266,2812.3 	"/>
	<polygon class="st0" points="548.3,2999.8 548.3,2999.8 548.3,2999.8 	"/>
	<polygon class="st0" points="924.7,2999.8 1112.9,2999.8 1018.8,2812.3 	"/>
	<path class="st0" d="M2994.6,745.3c0.4-5.5,0.8-10.9,1.4-16.4l-8.2,16.4H2994.6z"/>
	<path class="st0" d="M2987.8,367.8"/>
	<path class="st0" d="M3116.8,492.1c-0.5-0.6-1.1-1.1-1.7-1.7l-5.5,11c2.7-2.8,5.3-5.7,7.9-8.6
		C3117.3,492.5,3117,492.3,3116.8,492.1z"/>
	<path d="M0,187.6h81.9l-4.3,0.1H85l-88.2,180c0,0.1,0,0.1,0,0.2h178.7l-3.7,7.4h6.4L89.2,556.5l173.3,0c-0.3,2.1-0.7,4.1-1.2,6.1
		c1.7,0.4,3.4,0.7,5.1,1.2l-3.7-7.4h6.4l-3.1,6.3h5.3l-89.4,182.5h174.5c-0.6,2.1-1.3,4.3-2.1,6.3c2.6,0.5,5.1,1.2,7.6,2l-1.7-3.4
		l-0.1,0.2l-2.6-5.1h5.1l-2.3,4.7h4.1l-90,183.7h181.7l-1.9,3.8h3.2l-1.6,3.3l-3.5-7c-1.4,2.9-3,5.6-4.9,8.2
		c0.1,0.1,0.2,0.3,0.2,0.4c2.7-0.7,5.4-1.1,8.1-1.5l-89,181.5h178.3c-0.2,0.7-0.5,1.3-0.8,2c0.4,1.6,0.8,3.2,1.1,4.8
		c1.1-0.2,2.2-0.4,3.3-0.6l-182,371.2c0,0,0,0,0,0L274,1311.1l-92.5,188.7l-92.5-188.7L0,1491.5c0,3.1,0.4,4.5,0,7.5l157.1,0.8
		c0,0,0,0,0,0h13.5c0,0,0,0-0.1-0.1l187.9,0c0,0-0.1,0-0.1,0.1h8.5c0,0-0.1,0-0.1-0.1l179.9,0c0,0-0.1,0.1-0.1,0.1h4.6
		c0,0-0.1-0.1-0.1-0.1l180.5,0c0,0,0,0.1-0.1,0.1h4.9l-0.1-0.1h0.3l-0.2,0.3l-0.8,1.6c0.1,0,0.2,0,0.3,0l-92.2,183.7
		c0-0.2-0.1-0.4-0.1-0.5l-1.3,2.6l-94.1-187.5l-94.1,187.5l-94.1-187.5L171.6,1875h188.3l-94.1,187.5h188.2l-1.8,3.5
		c0.1-0.1,0.3-0.1,0.4-0.2l-91.3,182c0-0.2,0-0.5,0-0.7l-1.5,2.9l-1.3,2.6c0.1,0,0.2,0,0.3,0l-90.1,179.7c0-0.2-0.1-0.3-0.1-0.5
		l-2.8,5.6l-94.1-187.5l-94.1,187.5L0,2283v341.9h171.5l-0.4,0.8c0.1,0,0.2,0,0.3,0l-93.2,185.7c0-0.1-0.1-0.2-0.1-0.3l-0.7,1.4
		L0,2658.1v154.3h77.4l-0.2,0.5c0.1,0,0.2-0.1,0.3-0.1l-93.9,187h188.2l-93.9-187.1c0.2-0.1,0.5-0.1,0.7-0.2c0-0.1,0-0.1-0.1-0.2
		h187.4l-93.7-186.7c0.5-0.1,1-0.2,1.6-0.2c-0.1-0.2-0.1-0.4-0.2-0.6h186.5l-93.3-186.1c1-0.2,2-0.5,2.9-0.7
		c-0.1-0.3-0.1-0.6-0.2-0.8h184.7l-94.1,187.5h188.3L360,2999.8h188.3l-94.1-187.5h188.2l-94.1,187.5h376.3l-94.1-187.5l-94,187.4
		l-375.1-747.5c-0.1-0.7-0.1-1.4-0.1-2.1h187l-92.9-185.2c1.5-0.5,3-1,4.4-1.4c-0.3-0.3-0.5-0.7-0.8-1h183.4L551,1880.3
		c0.8,0,1.6,0,2.4,0.1c0.5,0,0.9,0.1,1.4,0.1c0.5,0,0.9,0.1,1.4,0.1c-0.8-1.8-1.5-3.7-2.1-5.6h182.5l-93.8-186.9
		c0.1-0.2,0.2-0.5,0.3-0.7h187.6L736.6,1875h188.3l-188.3,375.1h188.3l-94.1-187.5h188.2l-94.1,187.5h188l-93.9,187.1H1207
		l-94.1,187.5h188.3l-188.3,375.1h188.3l-94.1-187.5h188.2l-94.1,187.5h188.3L1113,2249.6l-0.1,0.2l-375.5-748.3
		c0.4,0,0.8-0.1,1.1-0.1c-0.1-0.4-0.2-0.9-0.2-1.3h186.4l-93.6-186.6c0.2-0.3,0.3-0.6,0.5-1h187.2l-93.3-185.9
		c-0.1-0.5-0.2-1.1-0.3-1.6H1113l-93-185.4c0.2,0,0.3,0,0.5,0c-0.2-0.7-0.3-1.4-0.5-2.1h187.1L1113,1125h188.3L1113,1500.1h188.3
		l-94.1-187.5h188.3l-282.2-562.4h188l-93.6-186.5c0-0.3,0-0.7-0.1-1h187.8l-94-187.3c0-0.1,0-0.2,0-0.2h372.1
		c1.1,0.7,2.1,1.5,3.1,2.2l-187.1,372.8h188.3l-94.1-187.5h183c-0.1,0.3-0.3,0.6-0.4,0.9c1.3,0.8,2.7,1.5,4,2.4l-92.5,184.2h185.5
		c0,0.7,0,1.3-0.1,2c0.5,0,1,0,1.5,0l-93.1,185.4h188.1l-0.1,0.1h0l-94.1,187.4H2054l-94.2,187.5h181.8c0,0.1-0.1,0.2-0.1,0.2
		c1.4,1.4,2.9,2.8,4.4,4.1l-91.9,183.2h182.6c-0.2,2.1-0.6,4.5-0.8,6c1,0.1,2.1,0.2,3.1,0.4l-90.8,181h184.6
		c-0.6,2.1-1.3,4.1-2.1,6.1c0.9,0.1,1.7,0.2,2.5,0.3l-90.9,181.1h177c-0.4,0.4-0.7,0.9-1.1,1.3c3.8,0.1,7.5,0.5,11.1,1.1
		l-92.9,185.1l184.6,0c-0.6,1.8-1.3,3.5-2,5.2c1,0,2,0.1,2.9,0.2l-91.4,182.1h181.1c-0.1,0.2-0.2,0.3-0.2,0.5
		c2.1,0.3,4.2,0.8,6.3,1.4l-93,185.4h183c-0.3,1-0.6,2-1,2.9c1.5,0.1,2.9,0.3,4.4,0.5l-92.4,184.1h184.7c-0.1,1.8-0.2,3.6-0.4,5.4
		c0.4,0,0.8,0,1.2,0l-185.5,369.6l-94.1-187.5l-94.1,187.5l-94.1-187.5l-93.9,187l-93.8-187l-94.2,187.5l-94.1-187.5L1866,3000
		l-94-187.5l-94.1,187.5h564.7l-0.1-0.1l752.5-0.1l-94-187.3h99v-176.9l-5.3-10.6l-93.9,187.1l-93.9-187.1H3000v-364.5l-5.3-10.6
		l-188,374.6l-93.9-187.1h187.7l-94.1-187.5l-93.9,187l-93.8-187H3000V1533c-2.8-5.2-5.2-10.7-7.4-16.2c-0.9-2.3-1.8-4.6-2.6-6.9
		l-89.2,177.7l-94.1-187.5l-94.1,187.5l-94.1-187.5l-94.2,187.5l0,0h0l-94,187.3l-94-187.3h188l0,0l-94.1-187.5l-94,187.3l-94-187.3
		h5.9c-0.1-0.1-0.1-0.2-0.2-0.3h174l-93.4-187h7.6l-1.2,2.4c1.5-0.4,3-0.8,4.5-1.1c-0.1-1-0.2-2-0.2-3h177l-87.9-176
		c0.3,0,0.6-0.1,0.9-0.1c-0.2-2-0.4-4.1-0.5-6.1c0-0.3,0-0.5,0-0.8l-2,3.9l-3.4-6.8h5.4c0-0.9,0.1-1.9,0.1-2.8l0-0.1h181.7
		l-89-178.2c2.1-0.5,4.1-1,6.2-1.4c0.7-1.6,1.4-3.1,2.2-4.7c-0.4-1.5-0.8-3-1.1-4.5h176l-94.3,188.7h188.6l-188.6,377.4h4.5
		c-0.1,0.1-0.2,0.2-0.3,0.3h10.9c-0.2-0.1-0.3-0.2-0.4-0.3h166.8c-0.1,0.1-0.2,0.2-0.3,0.3h22.1c-0.1-0.1-0.1-0.2-0.2-0.3h173.3
		c-0.4-1.5-0.8-3-1.2-4.5l-369-738.7c1-2.1,2-4.2,3.2-6.2c1-1.3,2.1-2.7,3.1-4c-0.1-0.3-0.2-0.6-0.4-0.9h176.7l-87.9-176
		c2-0.8,4-1.5,6-2.1c-1.3-2.4-2.5-4.8-3.5-7.4l-1.5,2.9l-3.1-6.2h184.3l-90.6-181.4c1-0.4,1.9-0.9,2.9-1.2l-3-6h7.4l-2.7,5.4
		c2.3-0.9,4.6-1.6,6.9-2.2c0.3-1,0.7-1.9,1.1-2.9c0-0.1-0.1-0.2-0.1-0.3h172.6l-89.4-178.9l-3.1,0.1l2.2-1.9l0-0.1
		c0.7-0.5,1.3-1.1,2-1.6l-2,1.7l0.9,1.8l96.7-2.3l-0.2-186.4l-101,186.1L2806.4,0.1l-94.1,187.5l-94-187.5L2524,187.7l0,0h0
		l-94.1,187.5h188.3L2524,562.7h177.8l-88.8,177.6l-277.3-552.6h0l0,0L2242,0.8l-93.9,187L2054,0.3l-94.1,187.5L1865.8,0.3
		l-188,374.6l-93.9-187.1h187.8L1677.5,0.3l-93.9,187L1489.6,0l-94.1,187.6h185.2c0,0.9-0.1,1.8-0.2,2.7c0.5,0.2,1,0.4,1.5,0.5
		l-92.5,184.3l-94.1-187.5L1301.4,375c0-0.2,0-0.3,0-0.5l-0.4,0.7l-94.1-187.5h186c0.4-0.6,0.9-1.1,1.3-1.7L1301,0.2l-94.1,187.5
		L1112.8,0.2L924.5,375.3H1301l-1.4,2.8c0.1-0.1,0.3-0.2,0.4-0.4l-92.5,184.2c0-0.1,0-0.1,0-0.2c0-0.1,0-0.2,0-0.3l-0.7,1.4
		l-94.1-187.5l-94.1,187.5h188.1l-0.7,1.4c0.1,0,0.2,0,0.3,0.1L1113.2,750l-93.4,186c0-0.2-0.1-0.3-0.1-0.5l-1,2l-94.1-187.5
		l-94.1,187.5l-94.1-187.5l-185.8,370.2L461,937.5h181.2l-94.1-187.5l-90.6,180.4l-88.4-180.4h743.4L736.4,0.3l-94,187.4L548.2,0.2
		h376.3l0,0l0,0h481.6c0-0.1,0-0.1,0-0.2H148.5c0,0.1-0.1,0.1-0.1,0.2H360L178.6,361.5L93.5,187.7h172.4L171.7,0.2L88.8,182.9
		L1.6,0.2 M2800.3,1497.5c-0.8-0.1-1.5-0.1-2.3-0.2l-93.1-186.3h188.6L2800.3,1497.5z M2712.2,562.7l-2.1,4.2l-2.1-4.2H2712.2z
		 M2889.3,187.7L2801,364.4l-88.7-176.7H2889.3z M2618.2,375.2h177.3L2707,552.3L2618.2,375.2z M2615.5,745.3h5.1l-2.4,4.8h0.4
		l-2.7,5.3l-2.6-5.2h4.6L2615.5,745.3z M642.3,187.7l-94.1,187.5l-94.1-187.5H642.3z M548.2,0.2l-94.1,187.5L360,0.2H548.2z
		 M548.1,375.3L454,562.7L360,375.3H548.1z M185.3,375.3H360l-88.4,176L185.3,375.3z M277.2,562.8H454L364.6,741L277.2,562.8z
		 M265.1,2439.1l-92.1,183.6c0-0.1-0.1-0.2-0.1-0.3l-1.3,2.5l-94.1-187.5h188.2l-0.9,1.8C264.9,2439.1,265,2439.1,265.1,2439.1z
		 M545.6,1880.4l-89.5,178.2c-0.1-0.1-0.1-0.2-0.2-0.3l-2,4.1L359.8,1875H548l-2.8,5.5C545.4,1880.5,545.5,1880.5,545.6,1880.4z
		 M640.6,1691.3l-88.6,176.6c0-0.2-0.1-0.3-0.1-0.5l-3.8,7.6L454,1687.4h188.2l-2,4C640.3,1691.3,640.4,1691.3,640.6,1691.3z
		 M546.7,1122.3h2.7l-1.4,2.7h2.2l-1.1,2.2L546.7,1122.3z M551.5,1499.8L459,1311.1h180c0.4,1.1,0.9,2.3,1.3,3.5
		c0.7-0.1,1.5-0.2,2.2-0.3L551.5,1499.8z M642.7,1313.8l-1.3-2.7h1.5l-0.8,1.5h1.1L642.7,1313.8z M552.9,1125h183.4l-92.8,184.9
		L552.9,1125z M830.1,1313.8l-92.2,183.6c0-0.2-0.1-0.3-0.1-0.5l-1.4,2.7l-91.6-187h185.5l-0.6,1.2
		C829.8,1313.8,830,1313.8,830.1,1313.8z M923.8,1127.1l-92.1,183.5c0-0.1-0.1-0.3-0.1-0.4l-1.1,2.3L736.3,1125h188.2l-1.1,2.1
		C923.5,1127.1,923.7,1127.1,923.8,1127.1z M1017.8,939.8l-92.6,184.4c0-0.2-0.1-0.3-0.1-0.5l-0.6,1.3l-94.1-187.5h188.2l-1.2,2.3
		C1017.6,939.8,1017.7,939.8,1017.8,939.8z M1677.6,375.4l-0.1,0.2l-0.2-0.4h0.3l-0.1,0.3H1677.6z M2336.2,1312.6l-0.8-1.6h1.6
		L2336.2,1312.6z M2331.6,1303.4l-89.4-178.3h178.5L2331.6,1303.4z M2425.5,1115.5l-89.2-177.9h178.1L2425.5,1115.5z M2521.4,943.7
		l-3-6.1h6.1L2521.4,943.7z M2524.4,937.6l-2-4h4L2524.4,937.6z M2148.1,187.8L2054,375.3l-94.1-187.5H2148.1z M2053.9,375.4
		l-94.1,187.5l-94.1-187.5H2053.9z M1771.7,563.1l-0.3-0.5h0.3l-0.1,0.3h0.2L1771.7,563.1z M1678,375.4h187.8l-93.9,187.1
		L1678,375.4z M1772.1,562.9h187.7l-93.9,187L1772.1,562.9z M1960,937.6h188l0,0l-94.1-187.5l-94,187.3l-93.9-187.2h0.1l0-0.1h376.1
		l0,0l0,0h188.2l0,0l0,0h177.7l-88.7,177.5l-89.1-177.5h0l-94.1,187.5l-94.1-187.5h0L2148,937.6l0,0h0l-93.2,185.7
		c0.1,0.4,0.3,0.8,0.4,1.2c0.1,0.2,0.2,0.4,0.3,0.6h186.6l-94,187.3L1960,937.6z M2237.7,1491.1l-89.5-178.4h178.7L2237.7,1491.1z
		 M2900.7,2812.3l-0.1,0.3h0.1l-0.1,0.2l-0.2-0.5H2900.7z M2888.8,2812.3c-0.2,0.7-0.5,1.3-0.8,2c1.5,0.2,3.1,0.4,4.6,0.6
		c2,0.5,4,1,6,1.7l-92,183.2l-94.1-187.5H2888.8z M2806.6,2624.7l-0.1,0.3h0.1l-0.1,0.2l-0.2-0.5H2806.6z M2430.4,1875.1h188
		l-94,187.3L2430.4,1875.1z M2618.6,2249.7l-0.1-0.1l-0.1,0.2l-93.9-187.2h188L2618.6,2249.7z M2712.5,2062.5l-94.1-187.5h188.2
		L2712.5,2062.5z M2806.7,1875l-94.1-187.5h188.2L2806.7,1875z"/>
	<path class="st0" d="M2987.9-9.4"/>
	<polygon class="st0" points="2242.2,1499.9 2242.2,1499.8 2242.2,1499.9 2242,1499.7 2242.3,1499.7 	"/>
	<polygon class="st0" points="2799.2,745.3 2987.7,745.3 2893.5,556.6 	"/>
	<polygon class="st0" points="274.1,933.7 181.6,1122.4 366.5,1122.4 	"/>
	<polygon class="st0" points="181.6,1122.4 89.1,1311.1 274,1311.1 	"/>
	<polygon class="st0" points="89.2,556.5 89.2,556.6 89.2,556.5 	"/>
	<polygon class="st0" points="-3.3,745.3 -3.4,745.3 -3.4,745.3 	"/>
	<polygon class="st0" points="89.2,556.6 -3.3,745.3 181.7,745.3 	"/>
	<polygon class="st0" points="-6.8,738.2 -7.8,745.3 -3.4,745.3 	"/>
</g>
</svg>
