<?xml version="1.0" encoding="utf-8"?>
<!-- Generator: Adobe Illustrator 24.2.3, SVG Export Plug-In . SVG Version: 6.00 Build 0)  -->
<svg version="1.1" id="layer" xmlns="http://www.w3.org/2000/svg" xmlns:xlink="http://www.w3.org/1999/xlink" x="0px" y="0px"
	 viewBox="0 0 2994.9 3000" style="enable-background:new 0 0 2994.9 3000;" xml:space="preserve">
<style type="text/css">
	.st0{fill-rule:evenodd;clip-rule:evenodd;}
</style>
<g>
	<polygon class="st0" points="1344.6,579.5 1497.7,579.5 1421.1,426.1 	"/>
	<polygon class="st0" points="1344.5,579.6 1268,733 1421.1,733 	"/>
	<polygon class="st0" points="1650.6,1193.2 1803.7,1193.2 1727.2,1039.8 	"/>
	<polygon class="st0" points="1574,1346.6 1727.1,1346.6 1650.6,1193.2 	"/>
	<polygon class="st0" points="1038.3,1193.2 1191.4,1193.2 1114.8,1039.8 	"/>
	<polygon class="st0" points="1038.3,1193.2 961.7,1346.6 1114.8,1346.6 	"/>
	<polygon class="st0" points="1956.8,1806.8 2109.9,1806.8 2033.4,1653.4 	"/>
	<polygon class="st0" points="1956.8,1806.8 1880.2,1960.2 2033.3,1960.2 	"/>
	<polygon class="st0" points="2263,2420.3 2416.1,2420.3 2339.6,2266.9 	"/>
	<polygon class="st0" points="2263,2420.4 2186.4,2573.8 2339.5,2573.8 	"/>
	<path class="st0" d="M2722.4,2727.2l-306.2-613.8l-0.1,0.1L2110,1499.9v0.1l-306.1-613.5h0.1l-306.2-613.8l-76.6,153.5h153.1
		l-76.6,153.5h153.2l-153.2,306.9L1421.1,733l-76.6,153.4L1268,733l-76.5,153.3l0,0l-76.6,153.4H1268l-76.6,153.5h153.2
		l-153.2,306.9l-76.5-153.4l-76.6,153.4l-76.5-153.4l-76.5,153.3l0,0l-76.6,153.4h153.1l-76.6,153.5h153.2l-153.2,306.9h153.2
		l-76.6-153.5h153.1l-76.6,153.5h153l-76.4,153.1h153.1l-76.6,153.5h153.2l-153.2,306.9h153.2l-76.6-153.5H1421l-76.6,153.5h153.2
		l-306.2-613.8l-0.1,0.1l-306-613.4h1224.6l-76.5,153.3h153.1l-76.6,153.5h153.2l-153.2,306.9l-76.6-153.4l-76.6,153.4l-76.6-153.4
		l-76.6,153.4h0.3l-76.5,153.3h153.1l-76.6,153.5h153.2l-153.2,306.9l-76.5-153.4l-76.6,153.4l-76.6-153.4l-76.6,153.4h612.5l0-0.1
		L2722.4,2727.2z M1727.4,733l-76.6,153.5L1574.3,733H1727.4z M1344.5,1500.1l-76.6-153.5h153.2L1344.5,1500.1z M1727.1,1346.6
		l-76.6,153.4l-76.6-153.4l-76.5,153.2l-306-613.4h612.1l-76.5,153.3h153.1l-76.6,153.5h153.2l-153.2,306.9L1727.1,1346.6z
		 M1956.9,1500.1l-76.6-153.5h153.1L1956.9,1500.1z M2569.2,2727.2l-76.6-153.4h153.1L2569.2,2727.2z M2339.6,1960.2l-76.6,153.5
		l-76.6-153.5L2339.6,1960.2z M1804.1,2113.7H2416l-76.4,153.2h153.1l-76.6,153.5h153.2l-153.2,306.9l-76.6-153.4l-76.6,153.4
		l-76.5-153.4l-76.4,153.1L1804.1,2113.7z M1957.1,2727.3l-76.6-153.5h153.2L1957.1,2727.3z"/>
	<polygon class="st0" points="1650.9,2420.4 1803.9,2420.4 1727.4,2267 	"/>
	<polygon class="st0" points="1650.8,2420.5 1574.3,2573.9 1727.4,2573.9 	"/>
	<polygon class="st0" points="732,1806.8 885.1,1806.8 808.6,1653.4 	"/>
	<polygon class="st0" points="732,1806.9 655.4,1960.3 808.5,1960.3 	"/>
	<polygon class="st0" points="808.5,1960.3 731.9,2113.7 885.1,2113.7 	"/>
	<polygon class="st0" points="425.7,2420.3 578.8,2420.3 502.3,2266.9 	"/>
	<polygon class="st0" points="425.7,2420.4 349.1,2573.8 502.2,2573.8 	"/>
	<polygon class="st0" points="1038.2,2420.3 1191.3,2420.3 1114.7,2266.9 	"/>
	<polygon class="st0" points="961.6,2573.8 1114.7,2573.8 1038.2,2420.4 	"/>
	<path class="st0" d="M885,2727.1l-306-613.4h152.9l-76.6-153.4l-76.5,153.2l0-0.1l-76.6,153.5h153.1l-76.6,153.5H732l-153.2,306.9
		l-76.5-153.4l-76.6,153.4l-76.5-153.4l-76.6,153.4h765.6l-76.5-153.4L885,2727.1z M731.9,2727.2l-76.6-153.5h153.1L731.9,2727.2z"
		/>
	<polygon class="st0" points="1038.1,2727.2 1191.3,2727.2 1114.7,2573.8 	"/>
</g>
</svg>
