<svg xmlns="http://www.w3.org/2000/svg" viewBox="0 0 2994.91 3000">
  <defs>
    <style>
      .a {
        fill-rule: evenodd;
      }
    </style>
  </defs>
  <title>185icon 1</title>
  <g>
    <path class="a" d="M985.46,683.12a29,29,0,0,1-11.13-16.18,242.14,242.14,0,0,1-20.73,28A60.5,60.5,0,0,1,985.46,683.12Z"/>
    <path class="a" d="M1041,827.87a30.48,30.48,0,0,1-7.6-41.61A60.82,60.82,0,0,1,934,768a29,29,0,0,1-20.14,21.77A717.22,717.22,0,0,1,1041,827.87Z"/>
    <path class="a" d="M1011,522.92a481.42,481.42,0,0,1,12.33-99.63,37.47,37.47,0,0,1-40.65.82A239.08,239.08,0,0,1,1011,522.92Z"/>
    <path class="a" d="M1306.31,1013.25a23.61,23.61,0,0,1,20.7-28.5,482.87,482.87,0,0,1-239-190.93,30.53,30.53,0,0,1-29.09,39.86,30.76,30.76,0,0,1-4.83-.42A723.3,723.3,0,0,1,1306.31,1013.25Z"/>
    <path class="a" d="M1036.64,376.86a476.84,476.84,0,0,1,20.68-50.78,104.93,104.93,0,0,1-42.82,30.56A37.64,37.64,0,0,1,1036.64,376.86Z"/>
    <path class="a" d="M1593.86,1922.11a17.23,17.23,0,0,1-9.7-9.54,96.23,96.23,0,0,1-26.9,43.38,16.32,16.32,0,0,1,13.89,4.87,37.19,37.19,0,0,1-.21-5.8A37.76,37.76,0,0,1,1593.86,1922.11Z"/>
    <path class="a" d="M1125,221.38a56.55,56.55,0,0,1-52.06-4.46,104.12,104.12,0,0,1,4.58,71.18A481.62,481.62,0,0,1,1125,221.38Z"/>
    <path class="a" d="M1553.9,1787a17.15,17.15,0,0,1-16.87,13,96.42,96.42,0,0,1,51.09,89.77c-.08,1.54-.31,3-.46,4.55a16.94,16.94,0,0,1,24.41-.41A719.7,719.7,0,0,1,1553.9,1787Z"/>
    <path class="a" d="M1002.36,630.55a29,29,0,0,1,20.37,8.36,481.13,481.13,0,0,1-11.46-88.43,239.34,239.34,0,0,1-18.7,81.8A28.92,28.92,0,0,1,1002.36,630.55Z"/>
    <path class="a" d="M1612.67,1078.77a17.17,17.17,0,0,1,6.66,11.16,721.14,721.14,0,0,1,45.09-59,23.71,23.71,0,0,1-25.53-5.45,37.79,37.79,0,0,1-26.22,53.33Z"/>
    <path class="a" d="M1058.87,772.58a30.43,30.43,0,0,1,21.12,8.51,478.28,478.28,0,0,1-49.79-113.34A29.07,29.07,0,0,1,1011.72,687a60.73,60.73,0,0,1,26.44,93.71A30.41,30.41,0,0,1,1058.87,772.58Z"/>
    <path class="a" d="M1431.1,1789.65A719.63,719.63,0,0,1,1376.7,1890a17,17,0,0,1,19.21,5.65,95.19,95.19,0,0,1,44.36-92A17.1,17.1,0,0,1,1431.1,1789.65Z"/>
    <path class="a" d="M1419.84,1988.22a17.14,17.14,0,0,1-8.55-10.26,37.72,37.72,0,0,1-60,3.5,23.77,23.77,0,0,1-3,22.9A478.61,478.61,0,0,1,1419.84,1988.22Z"/>
    <path class="a" d="M1516.78,1313.21c0,.64-.13,1.25-.19,1.88a715.6,715.6,0,0,1,30.47-91.26,16.87,16.87,0,0,1-21.37-.4,40.43,40.43,0,0,1-32.77,65.78A24,24,0,0,1,1516.78,1313.21Z"/>
    <path class="a" d="M1453.7,1246.81a40.18,40.18,0,0,1,5.52-18.52,17.12,17.12,0,0,1-12.5,4.58,16.65,16.65,0,0,1-4.27-.82,718.12,718.12,0,0,1,26.4,80.46,24,24,0,0,1,23.8-23.29h-.46A40.5,40.5,0,0,1,1453.7,1246.81Z"/>
    <path class="a" d="M1468,1685.46a.5.5,0,0,1,0-.12,716.94,716.94,0,0,1-30.64,89.76,16.88,16.88,0,0,1,21.71.13,40.43,40.43,0,0,1,32.78-65.78A24,24,0,0,1,1468,1685.46Z"/>
    <path class="a" d="M1345.89,1973.23a37.79,37.79,0,0,1,26.22-53.33,17.12,17.12,0,0,1-6.75-13,725,725,0,0,1-48.31,62.47,23.69,23.69,0,0,1,28.84,3.86Z"/>
    <path class="a" d="M1328.61,1032.49a23.39,23.39,0,0,1-6.73-1.42c6.22,7.35,12.32,14.79,18.25,22.39a37.06,37.06,0,0,1,0-23.43A23.74,23.74,0,0,1,1328.61,1032.49Z"/>
    <path class="a" d="M1426.18,1955.94a98.39,98.39,0,0,1-10.5-11.48,37.71,37.71,0,0,1,2.06,14.21c0,.14,0,.27,0,.4A17,17,0,0,1,1426.18,1955.94Z"/>
    <path class="a" d="M1367.64,1091.13a17,17,0,0,1,5.89-11.62,37.51,37.51,0,0,1-18.61-6.4C1359.24,1079.05,1363.5,1085.05,1367.64,1091.13Z"/>
    <path class="a" d="M1383.89,1109.65a17.41,17.41,0,0,1-4.59-.93q13,20.22,24.55,41.37a96.19,96.19,0,0,1-7.19-41.27c.08-1.54.31-3,.45-4.55A17,17,0,0,1,1383.89,1109.65Z"/>
    <path class="a" d="M1391.37,1920.83a37.61,37.61,0,0,1,14.8,8.8,95.74,95.74,0,0,1-7.34-18.53A17.19,17.19,0,0,1,1391.37,1920.83Z"/>
    <path class="a" d="M1531.08,1751.86a40.29,40.29,0,0,1-5.52,18.51,16.87,16.87,0,0,1,20.41-2.11,724.58,724.58,0,0,1-31.39-445.13,23.86,23.86,0,0,1-42.55,1.94,726,726,0,0,1-1.1,349.11,24,24,0,1,1,21.2,35.27h.46A40.49,40.49,0,0,1,1531.08,1751.86Z"/>
    <path class="a" d="M2215.08,2219.09c-249.41,0-469.27-126.52-598.91-318.88a17.08,17.08,0,0,1-4.92,18.94,37.67,37.67,0,0,1,33.34,49.49,23.93,23.93,0,1,1,14.8,45,482.84,482.84,0,0,1,235.74,190.39,30.55,30.55,0,1,1,54.6,7.7,60.83,60.83,0,0,1,99.4,18.23,29,29,0,1,1,56.25,14A240.5,240.5,0,0,1,2348,2261.19a37.55,37.55,0,1,1,69.59-25.73,133.49,133.49,0,0,1,49.15-61.5A720.1,720.1,0,0,1,2215.08,2219.09Z"/>
    <path class="a" d="M2497.41,2411.44a50.29,50.29,0,0,1,6.88.52,133.42,133.42,0,0,1-76-57.74,239,239,0,0,1,23.44,86.05A50.6,50.6,0,0,1,2497.41,2411.44Z"/>
    <path class="a" d="M2380.78,2280.43a37.24,37.24,0,0,1-9.85-1.35,241.63,241.63,0,0,1,49.5,60.4,132.25,132.25,0,0,1-10.93-72.43A37.49,37.49,0,0,1,2380.78,2280.43Z"/>
    <path class="a" d="M2150.66,2692.17a240.7,240.7,0,0,1-132.56-90.43,40.4,40.4,0,0,1,.24,4.15,37.43,37.43,0,0,1-13.15,28.5c.36,0,.7-.06,1-.06a104.77,104.77,0,0,1,103.38,88.11A43.4,43.4,0,0,1,2150.66,2692.17Z"/>
    <path class="a" d="M1924.28,2225.45a30.42,30.42,0,0,1-21.19-8.57,478.25,478.25,0,0,1,49.7,114,29.06,29.06,0,0,1,18.63-19.9,60.73,60.73,0,0,1-26.43-93.71A30.38,30.38,0,0,1,1924.28,2225.45Z"/>
    <path class="a" d="M2538.89,847.05c-3.89,0-7.73-.2-11.54-.53a721.24,721.24,0,0,1,96.07,55.72,78.52,78.52,0,0,1-10.31-77.79A132.47,132.47,0,0,1,2538.89,847.05Z"/>
    <path class="a" d="M485.73,586.6a50.41,50.41,0,0,1-6.88-.52,133.41,133.41,0,0,1,76,57.74,238.88,238.88,0,0,1-23.44-86.05A50.62,50.62,0,0,1,485.73,586.6Z"/>
    <path class="a" d="M2003.63,363.7c-.36,0-.7-.05-1.05-.05a37.14,37.14,0,0,1,12.89,32.65A240.77,240.77,0,0,1,2148,305.86a43.38,43.38,0,0,1-41-30.26A104.76,104.76,0,0,1,2003.63,363.7Z"/>
    <path class="a" d="M2501.67,586.08a50,50,0,0,1-52.53-28.31,239,239,0,0,1-23.44,86A133.41,133.41,0,0,1,2501.67,586.08Z"/>
    <path class="a" d="M2368.32,719a37.35,37.35,0,0,1,38.56,12,132.33,132.33,0,0,1,10.92-72.43A241.32,241.32,0,0,1,2368.32,719Z"/>
    <path class="a" d="M2245.06,776.31A718.86,718.86,0,0,1,2453.44,816,133.38,133.38,0,0,1,2415,762.58a37.55,37.55,0,1,1-69.59-25.73A239,239,0,0,1,2245.06,776.31Z"/>
    <path class="a" d="M2071.58,2264.46a29,29,0,0,1-17.45-11.28c0,.36,0,.71,0,1.08a60.53,60.53,0,0,1-9.76,33A241.57,241.57,0,0,1,2071.58,2264.46Z"/>
    <path class="a" d="M614.83,2279.08a37.29,37.29,0,0,1-38.56-12,132.33,132.33,0,0,1-10.92,72.43A241.55,241.55,0,0,1,614.83,2279.08Z"/>
    <path class="a" d="M481.47,2412A50.06,50.06,0,0,1,534,2440.27a239,239,0,0,1,23.43-86A133.41,133.41,0,0,1,481.47,2412Z"/>
    <path class="a" d="M773.68,2219.09a239.53,239.53,0,0,1,106.71,25,28.54,28.54,0,0,1-1.15-8,29,29,0,0,1,57.4-6,60.83,60.83,0,0,1,99.4-18.23,30.53,30.53,0,1,1,56-17.8,482.88,482.88,0,0,1,230.41-180.81A24,24,0,0,1,1305,1989a23.61,23.61,0,0,1,2-8.25c-132.09,146.35-323.26,238.36-535.93,238.36a720.18,720.18,0,0,1-252.48-45.44,133.49,133.49,0,0,1,49.6,61.81,37.55,37.55,0,1,1,69.59,25.73A239.34,239.34,0,0,1,773.68,2219.09Z"/>
    <path class="a" d="M444.26,2151a134.1,134.1,0,0,1,25.92,2.54C242.81,2049.1,79,1830,53,1570.27a1437.9,1437.9,0,0,0,278.29,784.27,133.16,133.16,0,0,1-.77-139.61A78.73,78.73,0,1,1,370,2173.59,132.51,132.51,0,0,1,444.26,2151Z"/>
    <path class="a" d="M355.45,612.47a132.58,132.58,0,0,1,86.19-31.7,134,134,0,0,1,26.6,2.66,50.55,50.55,0,0,1-27.33-71Q396,560.47,355.45,612.47Z"/>
    <path class="a" d="M1997.69,2314.92a29,29,0,0,1,11.13,16.18,241.29,241.29,0,0,1,20.73-28A60.5,60.5,0,0,1,1997.69,2314.92Z"/>
    <path class="a" d="M979.53,2634.33c.35,0,.69.05,1.05.06a37.3,37.3,0,0,1-12.91-32.65,240.7,240.7,0,0,1-132.56,90.43,43.4,43.4,0,0,1,41,30.27A104.77,104.77,0,0,1,979.53,2634.33Z"/>
    <path class="a" d="M1980.78,2568.33a37.33,37.33,0,0,1,19.66,5.6,241,241,0,0,1-9.86-208.18,28.85,28.85,0,0,1-30.72-7.21,484.68,484.68,0,0,1-1.21,217.06A37.3,37.3,0,0,1,1980.78,2568.33Z"/>
    <path class="a" d="M1855.51,2777.9a56.3,56.3,0,0,1,54.68,3.21,104.05,104.05,0,0,1-3-76.06A482.75,482.75,0,0,1,1855.51,2777.9Z"/>
    <path class="a" d="M1945.93,2619.82a479.29,479.29,0,0,1-23.33,56.35,104.89,104.89,0,0,1,46.05-34.77A37.64,37.64,0,0,1,1945.93,2619.82Z"/>
    <path class="a" d="M911.57,733.58A29,29,0,0,1,929,744.85c0-.36,0-.71,0-1.07a60.5,60.5,0,0,1,9.75-33A241.46,241.46,0,0,1,911.57,733.58Z"/>
    <path class="a" d="M2069,733.58a241.57,241.57,0,0,1-27.16-22.78,60.51,60.51,0,0,1,9.76,33c0,.36,0,.71,0,1.08A28.93,28.93,0,0,1,2069,733.58Z"/>
    <path class="a" d="M2103.91,762a29,29,0,0,1-13.34,24.39,723.09,723.09,0,0,1,86.09-9.72,239,239,0,0,1-73.9-22.67A28.91,28.91,0,0,1,2103.91,762Z"/>
    <path class="a" d="M1631,1989c0-.62.2-1.21.28-1.82a37.78,37.78,0,0,1-55.34-11.45,17.13,17.13,0,0,1-10.62,13.23,477.71,477.71,0,0,1,71.59,17A23.9,23.9,0,0,1,1631,1989Z"/>
    <path class="a" d="M1907.5,776.08a30.39,30.39,0,0,1,34.87,4.65,60.21,60.21,0,0,1-10.86-51.07A480,480,0,0,1,1907.5,776.08Z"/>
    <path class="a" d="M1968.8,687a29.14,29.14,0,0,1-16.15-13.62q-5.87,19.19-13.26,37.67A61,61,0,0,1,1968.8,687Z"/>
    <path class="a" d="M1020.92,2571.92a481.61,481.61,0,0,1-10.58-69.6,238.86,238.86,0,0,1-25,71.61,37.23,37.23,0,0,1,35.59-2Z"/>
    <path class="a" d="M977,2331.1a29,29,0,0,1,11.13-16.18,60.5,60.5,0,0,1-31.86-11.83A241.29,241.29,0,0,1,977,2331.1Z"/>
    <path class="a" d="M1541.94,1972.14a16.7,16.7,0,0,1,1.23-5.39,96,96,0,0,1-98.84,2.39,17.53,17.53,0,0,1,.49,4.66,17.09,17.09,0,0,1-5.76,12,485.47,485.47,0,0,1,109.65.84A17.11,17.11,0,0,1,1541.94,1972.14Z"/>
    <path class="a" d="M1036.67,2626a37.63,37.63,0,0,1-19.55,15.42,104.68,104.68,0,0,1,34.62,21.9Q1043.45,2645,1036.67,2626Z"/>
    <path class="a" d="M1448.41,2944a479.55,479.55,0,0,1-287.53-128.51,56.73,56.73,0,1,1-111.8,13.61,56,56,0,0,1,1.57-13,103.67,103.67,0,0,1-89.79,26.21A1439.53,1439.53,0,0,0,1448.41,2944Z"/>
    <path class="a" d="M1105.84,2772.31a56.72,56.72,0,0,1,16.42,2.44,483.79,483.79,0,0,1-39.65-54.2,103.05,103.05,0,0,1-7,60.56A56.48,56.48,0,0,1,1105.84,2772.31Z"/>
    <path class="a" d="M1962.62,635.09a28.72,28.72,0,0,1,25.34-2.8,239.08,239.08,0,0,1-16.24-57.24A477.85,477.85,0,0,1,1962.62,635.09Z"/>
    <path class="a" d="M1433.2,1010.26a17.17,17.17,0,0,1,9.64,16.26,16.9,16.9,0,0,1-1.23,5.39,96,96,0,0,1,98.84-2.38,16.82,16.82,0,0,1-.49-4.67,17.12,17.12,0,0,1,9.32-14.37,483.8,483.8,0,0,1-116.08-.23Z"/>
    <path class="a" d="M1560.88,1009a17.1,17.1,0,0,1,12.6,11.72,37.71,37.71,0,0,1,60-3.5,23.84,23.84,0,0,1,6.08-26.31A479.41,479.41,0,0,1,1560.88,1009Z"/>
    <path class="a" d="M485.73,485.32a50.62,50.62,0,0,1,46,29.51c11.86-121.75,114.48-216.92,239.35-216.92a241.74,241.74,0,0,1,42.82,3.88,43.31,43.31,0,0,1-12.81-69.5,1450.58,1450.58,0,0,0-341,260.1A50.32,50.32,0,0,1,485.73,485.32Z"/>
    <path class="a" d="M1961.75,425.89a480.7,480.7,0,0,1,10.63,72.24,239,239,0,0,1,25.44-74,37.28,37.28,0,0,1-36.07,1.79Z"/>
    <path class="a" d="M1557.09,55.52a479.7,479.7,0,0,1,265,126.45,56.76,56.76,0,1,1,110.39,0,104.67,104.67,0,0,1,175.28,65.24,43.36,43.36,0,1,1,58.88,54.54,241.55,241.55,0,0,1,42.81-3.88c124.87,0,227.48,95.17,239.35,216.92a50.61,50.61,0,1,1,63.47,68.6A133.25,133.25,0,0,1,2672,713.91a132.57,132.57,0,0,1-19.38,69.2,78.82,78.82,0,1,1,6.63,145.4c168.92,132.1,277.52,337.79,277.52,568.85,0,291.12-172.38,541.94-420.61,656.06a133.2,133.2,0,0,1,99.54,20.16,79.15,79.15,0,1,1,39.54,41.35,133.16,133.16,0,0,1-113.76,202.34,134,134,0,0,1-26.6-2.66,50.61,50.61,0,1,1-63.47,68.6C2439.58,2605,2337,2700.12,2212.09,2700.12a241.55,241.55,0,0,1-42.81-3.87,43.36,43.36,0,1,1-58.88,54.53A104.67,104.67,0,0,1,1935.13,2816a56.74,56.74,0,1,1-112,13,56.46,56.46,0,0,1,4-21,479.67,479.67,0,0,1-301.42,136.39c784.74-15.57,1416.12-656.5,1416.12-1445C2941.93,721.55,2327.26,87.25,1557.09,55.52Z"/>
    <path class="a" d="M875.37,2750.78a43.36,43.36,0,1,1-58.88-54.53,241.55,241.55,0,0,1-42.81,3.87c-124.87,0-227.49-95.16-239.35-216.91a50.61,50.61,0,1,1-63.47-68.6,133.29,133.29,0,0,1-126.42-42.42,1450.28,1450.28,0,0,0,574.7,452.59A104.67,104.67,0,0,1,875.37,2750.78Z"/>
    <path class="a" d="M2006.2,666.93a29,29,0,0,1-11.13,16.19A60.5,60.5,0,0,1,2026.93,695,241.4,241.4,0,0,1,2006.2,666.93Z"/>
    <path class="a" d="M1946.29,372.36A37.6,37.6,0,0,1,1966,356.64a104.89,104.89,0,0,1-34.91-22.16Q1939.49,353,1946.29,372.36Z"/>
    <path class="a" d="M1481.5,1789.33a40.31,40.31,0,0,1-19.18-10.53,16.85,16.85,0,0,1,2.47,13.79A94.8,94.8,0,0,1,1481.5,1789.33Z"/>
    <path class="a" d="M1877.31,225.73a56.75,56.75,0,0,1-16.11-2.36,482.9,482.9,0,0,1,39.34,54.11,105.67,105.67,0,0,1-1.75-18.61,104.4,104.4,0,0,1,8.79-42A56.4,56.4,0,0,1,1877.31,225.73Z"/>
    <path class="a" d="M1679.77,1009.68a23.39,23.39,0,0,1-.66,4.37c101-112,236.62-192.12,390-223.63A29,29,0,0,1,2046.51,768a60.83,60.83,0,0,1-99.4,18.23,30.54,30.54,0,1,1-56,16.87c0-.38.05-.76.06-1.14a482.78,482.78,0,0,1-233.41,182.67A24,24,0,0,1,1679.77,1009.68Z"/>
    <path class="a" d="M1412.9,1167.05q10.33,20,19.42,40.81a17.12,17.12,0,0,1,15.43-9.27A96.79,96.79,0,0,1,1412.9,1167.05Z"/>
    <path class="a" d="M1464.7,1216.54a16.9,16.9,0,0,1-1.5,6.17,40.47,40.47,0,0,1,21.14-13.24,96.26,96.26,0,0,1-24-5.18A17.09,17.09,0,0,1,1464.7,1216.54Z"/>
    <path class="a" d="M1353.75,1009.68c0,.63-.2,1.21-.28,1.83a37.76,37.76,0,0,1,55.34,11.45,17.11,17.11,0,0,1,13.8-14.13,477.54,477.54,0,0,1-76.21-17.49A23.9,23.9,0,0,1,1353.75,1009.68Z"/>
    <path class="a" d="M1503.27,1209.34a40.25,40.25,0,0,1,19.18,10.52,17.09,17.09,0,0,1-3-10.42,17.57,17.57,0,0,1,.51-3.36A96.28,96.28,0,0,1,1503.27,1209.34Z"/>
    <path class="a" d="M1413.63,1037.84a38.64,38.64,0,0,1,.21,5.81,37.8,37.8,0,0,1-22.93,32.91,17.11,17.11,0,0,1,9.7,9.54,96.19,96.19,0,0,1,26.91-43.39,18.16,18.16,0,0,1-2.67.14A17.07,17.07,0,0,1,1413.63,1037.84Z"/>
    <path class="a" d="M976.91,154A104.35,104.35,0,0,1,1048,182a56.75,56.75,0,1,1,108.88,5.23A479.83,479.83,0,0,1,1424.22,56a1438.84,1438.84,0,0,0-458,98.6C969.74,154.22,973.3,154,976.91,154Z"/>
    <path class="a" d="M1520.07,1782.12a17.11,17.11,0,0,1,1.51-6.16,40.59,40.59,0,0,1-21.14,13.23,95.93,95.93,0,0,1,24,5.19A17.14,17.14,0,0,1,1520.07,1782.12Z"/>
    <path class="a" d="M1606.63,1109.05a16.62,16.62,0,0,1-17.76-6,92.71,92.71,0,0,1-6.76,47.39Q1593.71,1129.3,1606.63,1109.05Z"/>
    <path class="a" d="M1578.6,1069a96,96,0,0,1,7.35,18.53,17.17,17.17,0,0,1,7.46-9.73A37.65,37.65,0,0,1,1578.6,1069Z"/>
    <path class="a" d="M1558.6,1042.73a96.8,96.8,0,0,1,10.5,11.48A37.76,37.76,0,0,1,1567,1040c0-.13,0-.26,0-.4A17,17,0,0,1,1558.6,1042.73Z"/>
    <path class="a" d="M1553.64,1208.29q9.24-21.11,19.73-41.49a96.91,96.91,0,0,1-28.86,28.25A17.15,17.15,0,0,1,1553.64,1208.29Z"/>
    <path class="a" d="M53.41,1420.48C75,1216.62,181.46,1038.1,336.79,920.9a78.82,78.82,0,1,1-8.91-137.79,133.18,133.18,0,0,1-8.05-122.94A1437.74,1437.74,0,0,0,53.41,1420.48Z"/>
    <path class="a" d="M562.72,658.55A132.33,132.33,0,0,1,573.65,731a37.34,37.34,0,0,1,38.56-12A241.45,241.45,0,0,1,562.72,658.55Z"/>
    <path class="a" d="M914.19,2264.46a241.46,241.46,0,0,1,27.15,22.78,60.61,60.61,0,0,1-9.75-33c0-.37,0-.72,0-1.08A29,29,0,0,1,914.19,2264.46Z"/>
    <path class="a" d="M1073.82,2222.84a30.42,30.42,0,0,1-33-5.53,59.7,59.7,0,0,1,11.73,46.63Q1062.2,2242.82,1073.82,2222.84Z"/>
    <path class="a" d="M1014.35,2311a29.12,29.12,0,0,1,15.49,12.52q5.12-16.76,11.41-33A60.93,60.93,0,0,1,1014.35,2311Z"/>
    <path class="a" d="M1005,2367.48a28.93,28.93,0,0,1-9.8-1.73,238.81,238.81,0,0,1,15.72,54.36,481.88,481.88,0,0,1,8.57-56.53A28.84,28.84,0,0,1,1005,2367.48Z"/>
    <path class="a" d="M909.86,178.3q-43.62,19.39-85.66,41.58a42.65,42.65,0,0,1,8-.77,43.36,43.36,0,0,1,40.58,28.14A104.65,104.65,0,0,1,909.86,178.3Z"/>
    <path class="a" d="M888.23,785.16A28.92,28.92,0,0,1,876.62,762a28.54,28.54,0,0,1,1.15-8,238.71,238.71,0,0,1-72.41,22.48A726.3,726.3,0,0,1,888.23,785.16Z"/>
    <path class="a" d="M965.05,396.3a38.05,38.05,0,0,1-.24-4.15A37.43,37.43,0,0,1,978,363.65c-.36,0-.7.05-1.05.05a104.77,104.77,0,0,1-103.38-88.1,43.38,43.38,0,0,1-41,30.26A240.77,240.77,0,0,1,965.05,396.3Z"/>
    <path class="a" d="M522.66,819.53a718.92,718.92,0,0,1,214.09-43.06,239.08,239.08,0,0,1-101.6-39.62,37.55,37.55,0,1,1-69.59,25.72A133.5,133.5,0,0,1,522.66,819.53Z"/>
    <path class="a" d="M460.58,845.69a134.46,134.46,0,0,1-18.94,1.36,132.5,132.5,0,0,1-74.22-22.6,78.66,78.66,0,0,1-21.61,89.78A721.17,721.17,0,0,1,460.58,845.69Z"/>
  </g>
</svg>
