<?xml version="1.0" encoding="utf-8"?>
<!-- Generator: Adobe Illustrator 24.2.3, SVG Export Plug-In . SVG Version: 6.00 Build 0)  -->
<svg version="1.1" id="layer" xmlns="http://www.w3.org/2000/svg" xmlns:xlink="http://www.w3.org/1999/xlink" x="0px" y="0px"
	 viewBox="0 0 2994.9 3000" style="enable-background:new 0 0 2994.9 3000;" xml:space="preserve">
<style type="text/css">
	.st0{fill-rule:evenodd;clip-rule:evenodd;}
</style>
<path class="st0" d="M2697.6,204.1H201.3v2591.8h2592.3V204.1H2697.6z M393.3,2699.9h-96v-96h96V2699.9z M393.3,2411.8h-96v-96h96
	V2411.8z M393.3,2123.8h-96v-96h96V2123.8z M393.3,1835.8h-96v-96h96V1835.8z M393.3,1547.7h-96v-96h96V1547.7z M393.3,1259.7h-96
	v-96h96V1259.7z M393.3,972.2h-96v-96h96V972.2z M393.3,684.2h-96v-96h96V684.2z M393.3,396.1h-96v-96h96V396.1z M585.3,300.1h96v96
	h-96V300.1z M681.3,2699.9h-96v-96h96V2699.9z M777.4,2315.8v192h-288v-288h288V2315.8z M681.3,2027.8v96h-96v-96H681.3z
	 M585.3,1835.8v-96h96v96H585.3z M777.4,1451.7v192h-288v-288h288L777.4,1451.7z M681.3,1163.7v96h-96v-96H681.3z M585.3,972.2v-96
	h96v96L585.3,972.2z M777.4,588.2v192.1h-288V492.1h288V588.2z M969.4,2699.9h-96v-96h96V2699.9z M969.4,2411.8h-96v-96h96V2411.8z
	 M969.4,2123.8h-96v-96h96V2123.8z M969.4,1835.8h-96v-96h96V1835.8z M969.4,1547.7h-96v-96h96V1547.7z M969.4,1259.7h-96v-96h96
	V1259.7z M969.4,972.2h-96v-96h96V972.2z M969.4,684.2h-96v-96h96V684.2z M969.4,396.1h-96v-96h96V396.1z M1737.5,300.1h96v96h-96
	V300.1z M1737.5,588.2h96v96h-96V588.2z M1737.5,876.2h96v96h-96V876.2z M1449.4,300.1h96v96h-96V300.1z M1353.4,684.2v-192h288
	v288.1h-288V684.2z M1545.4,876.2v96h-96v-96H1545.4z M1161.4,300.1h96v96h-96V300.1z M1161.4,588.2h96v96h-96V588.2z M1161.4,876.2
	h96v96h-96V876.2z M1257.4,2699.9h-96v-96h96V2699.9z M1257.4,2411.8h-96v-96h96V2411.8z M1257.4,2123.8h-96v-96h96V2123.8z
	 M1545.4,2699.9h-96v-96h96V2699.9z M1641.5,2315.8v192h-288v-288h288V2315.8z M1449.4,2123.8v-96h96v96L1449.4,2123.8z
	 M1833.5,2699.9h-96v-96h96L1833.5,2699.9z M1833.5,2411.8h-96v-96h96L1833.5,2411.8z M1833.5,2123.8h-96v-96h96L1833.5,2123.8z
	 M1929.5,1163.7v768.1h-864.1v-864.1h864.1L1929.5,1163.7z M2121.5,2699.9h-96v-96h96L2121.5,2699.9z M2121.5,2411.8h-96v-96h96
	L2121.5,2411.8z M2121.5,2123.8h-96v-96h96L2121.5,2123.8z M2121.5,1835.8h-96v-96h96L2121.5,1835.8z M2121.5,1547.7h-96v-96h96
	L2121.5,1547.7z M2121.5,1259.7h-96v-96h96L2121.5,1259.7z M2121.5,972.2h-96v-96h96L2121.5,972.2z M2121.5,684.2h-96v-96h96
	L2121.5,684.2z M2121.5,396.1h-96v-96h96L2121.5,396.1z M2313.5,300.1h96v96h-96V300.1z M2409.5,2699.9h-96v-96h96V2699.9z
	 M2505.6,2315.8v192h-288v-288h288L2505.6,2315.8z M2409.5,2027.8v96h-96v-96H2409.5z M2313.5,1835.8v-96.1h96v96L2313.5,1835.8z
	 M2505.6,1451.8v192h-288v-288h288L2505.6,1451.8z M2409.5,1163.7v96h-96v-96.1L2409.5,1163.7z M2313.5,972.3v-96.1h96v96
	L2313.5,972.3z M2505.6,588.2v192h-288V492.1h288L2505.6,588.2z M2697.6,2700h-96v-96.1h96V2700z M2697.6,2411.9h-96v-96.1h96
	V2411.9z M2697.6,2123.9h-96v-96.1h96V2123.9z M2697.6,1835.9h-96v-96.1h96V1835.9z M2697.6,1547.8h-96v-96.1h96V1547.8z
	 M2697.6,1259.8h-96v-96.1h96V1259.8z M2697.6,972.3h-96v-96.1h96V972.3z M2697.6,684.3h-96v-96.1h96V684.3z M2697.6,396.2h-96
	v-96.1h96V396.2z"/>
</svg>
