<svg id="end" xmlns="http://www.w3.org/2000/svg" width="3000" height="3000" viewBox="0 0 3000 3000">
  <defs>
    <style>
      .cls-1 {
        fill-rule: evenodd;
      }
    </style>
  </defs>
  <g id="progress">
    <g id="folder">
      <path id="_205" data-name="205" class="cls-1" d="M2342,0c204.2-.736,490.48-24.064,580,88,64.37,80.58,78,195.713,78,343q-1.005,58.994-2,118-1.005,118.488-2,237V2169q1.995,179.985,4,360c0.01,113.45-1.18,218.78-33,300-45.57,116.31-130.83,140.24-268,164l-99,6q-79.485.495-159,1l-108-3q-55.5-1.005-111-2-113.985-.495-228-1H1146q-325.968,1.005-652,2c-157.516.01-304.85,1.16-395-67-44.852-33.91-76.874-90.98-90-156q-0.5-100.485-1-201-0.5-173.985-1-348Q4.5,1428.085,2,632,1,546.509,0,461V291C24.528,141.576,70.966,71.23,195,22,244.656,2.291,313.366,6,384,6H2096l118-2ZM407,2557V239H2266q1.5,754.425,3,1509c32.56,15.49,56.14,39.21,86,56q0.495-606.435,1-1213V286c0-44.346,7.29-100.026-14-125-15.98-18.747-73.51-18.123-108-14l-287,1H440c-42.553,0-101.133-6.891-118,21-16.634,27.5-6,108.894-6,150V2506c0,54.71-11.465,130.19,35,141q768.923,0.495,1538,1l347-3c47.61-7.31,109.63,15.14,117-33l-43-46c-97.19,56.53-231.5,98.91-377,58-38.33-10.78-75.14-23.7-106-42-8.59-5.1-37.69-27.06-48-26Q1093.065,2556.5,407,2557ZM2102,348l-106,2H624c-33.15,0-88.747-7.274-106,10-17.7,17.723-10,64.754-10,98V657c0,28.4-4.889,59.612,1,85,7.013,30.235,39,36.22,80,30l102-2H2063c33.6,0,78.38,6.71,99-9,14.11-10.749,8-99.885,8-128q0.495-96.99,1-194c0.01-28.363,4.85-64.763-10-81C2151.35,347.446,2120.99,348.435,2102,348ZM535,991l-18,8c-11.558,13.73-2.514,40.35,12,45q329.468,0.495,659,1,79.995-.495,160-1c20.11-6.17,23.66-40.62,4-50-18.23-7.688-52.36-3-75-3H535Zm1528,0-142,2H1592q-7.995,10-16,20c-9.88,23.75-3,100.26-3,135v346c0,37.73-11,142.86,13,153,34.78,14.7,93.03,4,136,4h304c31.5,0,122.55,9.35,135-9,15.73-23.19,6-114.53,6-152V1143c0-48.18,10.21-114.16-11-146C2130.06,990.477,2095.87,991,2063,991ZM535,1296q-8.5,3.495-17,7c-13.683,14.48-3.171,41.3,13,46h816c20.11-6.06,25.43-40.3,5-50-16.84-7.69-50.62-3-72-3H535Zm769,306q-306.465.495-613,1c-45.031,0-193.338-16.6-179,36,7.98,29.27,154.488,19,199,19q233.976-.495,468-1c35.96,0,159.47,6.47,178-6,6.16-4.15,8.23-10.04,10-19C1372.65,1603.34,1331.74,1601.5,1304,1602Zm724,131q-19.5,1.995-39,4-38.49,9.495-77,19c-123.55,48.63-217.12,132.88-266,256-10.92,27.49-17.18,59.49-24,90-14.48,64.8,1.32,144.35,17,194,43.45,137.56,128.81,227.97,259,279,50.22,19.68,130.3,40.87,202,28,55.97-10.04,112.4-22.16,155-47l57-36c15.05,4.98,58.26,58.16,72,72l190,193c14.21,17.6,71.01,93.61,103,62,29.66-29.31-40.57-85.57-56-101l-259-265v-4q24-27.99,48-56c31.15-43.39,53.94-98.23,70-156,23.85-85.77,2.45-199.32-25-263C2386.08,1842.09,2257.46,1732.32,2028,1733Zm14,96q20.505,1.005,41,2c36.07,6.16,69.32,10.81,99,23q24.99,12.495,50,25l33,24v531c-65.31,34.63-145.17,95.68-257,72-26.62-5.64-52.97-12.9-76-22-25.05-9.9-58.3-20.58-74-40v-1h243c29.88,0,78.54,5.08,71-31-6.86-32.79-56.87-24.01-94-24H1796c-10.78-14.34-24.37-25.95-34-42-50.26-83.75-60.32-212.55-19-311,8.47-20.2,31.61-73.64,52-78q139.485,0.495,279,1c36.8,0.01,89.07,9.74,96-23,6.22-29.36-29.77-37.13-56-33q-133.98.495-268,1,4.5-4.995,9-10,15-10.005,30-20c21.57-12.67,48.95-22.14,74-30C1981.75,1835.86,2019.64,1838.45,2042,1829ZM989,1902q-54.5,1.005-109,2H631c-32.026,0-83.475-7.16-108,4-25.232,11.48-14,80.21-14,115v309c0,31.53-8.963,92.18,11,105,22.426,14.4,92.438,5,126,5q164.484,0.495,329,1c35.25,5.3,114.88,4.32,123-19,9.29-26.66,2-84.73,2-119V2038c0-32.14,8.03-108.03-6-126C1083.13,1898.08,1016.34,1901.78,989,1902Zm361,1q-11.505,4.005-23,8c-19.01,14.4-5.85,40.73,13,45q146.49,0.495,293,1,14.505-26.505,29-53Q1506.015,1903.505,1350,1903Zm1007,118c13.57,8.06,17.38,41.17,22,58,16.85,61.48,20.67,200.65-21,236Q2357.505,2168.015,2357,2021ZM1350,2389q-10.995,3.495-22,7c-26.64,19.78,5.2,43.6,26,47q156.99-.495,314-1-15-26.49-30-53H1350Z"/>
    </g>
  </g>
</svg>
