<svg id="end" xmlns="http://www.w3.org/2000/svg" width="3000" height="3000" viewBox="0 0 3000 3000">
  <defs>
    <style>
      .cls-1 {
        fill-rule: evenodd;
      }
    </style>
  </defs>
  <g id="progress">
    <g id="folder">
      <path id="_161" data-name="161" class="cls-1" d="M2750,2992H854c-216.265,0-616.982,39.64-743-52C-35.465,2833.49,2,2576.06,2,2329V732C2,497.663-35.655,193.819,89,81,216.653-34.532,540.871,4,780,4H2364c315.27-.007,568.84-41.888,625,226q2.505,1027.4,5,2055C2994.01,2663.74,3068.02,2905.41,2750,2992ZM1202,2854q62.49-5.505,125-11c74.57-10,145.94-21.4,211-41,365.03-109.97,634.5-334.44,809-635,99.69-171.72,145.24-354.21,173-604,18.93-170.34-17.22-343.49-60-469-171.2-502.321-541.12-865.991-1137-941-44.59-5.613-64.29,44.023-32,64l113,34c86.94,35.1,168.53,87.813,225,154,175.64,205.862,237.86,538.253,56,792-87.7,122.37-205.68,212.78-373,256-65.73,16.98-146.78,5.29-221,15-146.634,19.18-263.954,71.57-356,146C234.02,2019.12,492.264,2856.84,1202,2854Zm-3-69c-497.32,5.99-843.325-501-572-951,94.294-156.39,244.342-264.72,460-300,108.66-17.78,216.6-12.32,304-42,316.73-107.56,589.41-480.63,424-913-36.07-94.293-93.65-163.769-153-234q-36.99-32.5-74-65c63.92-.631,212.94,93.249,264,125,402.43,250.232,765.33,840.61,540,1502-141.58,415.58-459.98,721.36-898,840q-95.985,16.5-192,33Q1250.505,2782.505,1199,2785Zm-27-443c57.05-12.89,88.46-21.75,124-53,113.63-99.91,33.56-329.04-133-314C923.771,1996.6,929.937,2335.89,1172,2342Z"/>
    </g>
  </g>
</svg>
