<svg id="end" xmlns="http://www.w3.org/2000/svg" width="3000" height="3000" viewBox="0 0 3000 3000">
  <defs>
    <style>
      .cls-1 {
        fill-rule: evenodd;
      }
    </style>
  </defs>
  <g id="progress">
    <g id="folder">
      <path id="_167" data-name="167" class="cls-1" d="M248,6H2570c67.03,0,147.89-8.059,208,4a281.008,281.008,0,0,1,109,48c146.46,106.507,109,363.939,109,611V2606c0,59.7,5.38,129.99-8,178-14.34,51.45-43.96,101.29-79,133-31.32,28.35-69,53.71-115,67-54.32,15.69-133.37,10-201,10H634c-316.451.01-568.146,45.18-625-226-13.037-62.18-4-146.74-4-216V2098Q4.5,1405.57,4,713V367c0-62.732-6.076-135.474,14-180C49.884,116.284,86.645,72.655,150,34,178.019,16.9,211.849,15.844,248,6ZM572,240c-143.244,368.238,30.78,655.82,260,828,0.667-.67,1.333-1.33,2-2,25.492-69.6,26.14-141.7,61.661-201.166C919.464,794.007,963.108,746.2,1006,679c-0.67-.667-1.33-1.333-2-2C766.837,723.459,653.682,395.868,572,240Zm1855,0q-22.005,48.995-44,98c-51.89,106.36-108.33,213.479-193,287-26.79,23.257-59.2,39.725-105.04,53.052-34.88,10.138-103.5-2.629-98.42-2.286,3.04,0.206,10.36,13.193,12.31,15.489,4.4,5.179,28.87,34.233,43.41,58.852,21.46,41.6,42.43,73.39,63.59,118.62,30.79,73.389,39.33,131.7,62.15,201.273,157.28-134.77,369.11-339.961,307-659C2463.33,351.032,2456.56,284.263,2427,240ZM1763.9,656.192c-95.87,33.817-182.67,73.467-268.76,71.52C1403.93,725.648,1356.55,712.5,1307,696c-52.04-17.324-152.83-79.228-203.8-58.168C950.562,700.9,907,944.11,864,1106c-15.653,58.94-34.285,127.93-36.653,195.46C1094.28,1450.43,1590.05,1498.08,1938,1395q85.995-27.99,172-56l74-37c0.32-65.45-18.04-130.53-34-186-46.76-162.517-84.66-331.025-189.06-435.9C1931.48,659.858,1872.27,595.888,1763.9,656.192ZM776,1364s-298.729.8-365,47c5.974,78.22,253.194,178.27,327.017,211.8,208.4,94.68,459.563,156.47,718.983,162.2,266.46,5.88,559.39-77.11,757.96-133.11,104.69-32.27,377.49-155.83,378.63-245.93-25.73-15.53-307.05-50.92-371.59-31.96-51.33,23.66-148.08,70.35-272.6,100.76-238.9,70.95-631.39,70.41-902.14,3.81C960.389,1456.85,776,1364,776,1364Zm590,1136q-38.49,10.995-77,22c-92.12,36.53-207.04,145.21-320,41,17.161,160.29,429.24,284.5,534,119h4c33.01,18.16,52.48,49.95,93,64,126.78,43.97,280.61-10.51,361-61,23.02-14.46,100.12-82.69,85-121-109.65,118.94-272.26-36.46-370-59-85.13-19.63-115.04,22.08-169,38C1464.25,2520.97,1434.95,2499.79,1366,2500Z"/>
    </g>
  </g>
</svg>
