<svg id="end" xmlns="http://www.w3.org/2000/svg" width="3000" height="3000" viewBox="0 0 3000 3000">
  <defs>
    <style>
      .cls-1 {
        fill-rule: evenodd;
      }
    </style>
  </defs>
  <g id="progress">
    <g id="folder">
      <path id="_159" data-name="159" class="cls-1" d="M248,6H2144c216.26,0,616.98-39.638,743,52,146.46,106.507,109,363.939,109,611V2266c0,234.34,37.65,538.18-87,651-127.65,115.53-451.87,77-691,77H634c-315.275.01-568.836,41.89-625-226Q6.5,1740.605,4,713C3.993,334.256-70.017,92.594,248,6ZM1842,419c-283.51,148.014-576.67,297.445-858.906,445.277,32.716-.9,59.106,2.027,96.466.221C1331.7,783.5,1885.1,595,1927,581Q1884.505,500.008,1842,419Zm432,164q-421.965,139.486-844,279l938,1ZM208,973V2583H2650V2139c-111.11.23-733.43,11.51-912-14-30.61-140.31-11.52-487.1-15-740,39.87-42.83,793.41-29.24,927-29V973H208Zm1619,493v562h986V1466H1827Zm265,194c129.65-2.59,123.64,171.75,15,192C1997.92,1872.33,1950.03,1702.08,2092,1660Z"/>
    </g>
  </g>
</svg>
