<svg id="end" xmlns="http://www.w3.org/2000/svg" width="3000" height="3000" viewBox="0 0 3000 3000">
  <defs>
    <style>
      .cls-1 {
        fill-rule: evenodd;
      }
    </style>
  </defs>
  <g id="progress">
    <g id="folder">
      <path id="_160" data-name="160" class="cls-1" d="M248,6H2572c66.25,0,146.7-8.253,206,4a284.443,284.443,0,0,1,109,48c44.51,32.3,80.19,83.4,98,142,14.79,48.674,11,116.2,11,178V2608c0,58.98,5.51,128.71-8,176-14.59,51.06-43.61,101.85-79,133-31.95,28.13-68.64,53.45-115,67-53.68,15.68-132.04,10-199,10H366c-45.711,0-99.513,4.58-139-4-110.934-24.1-189.7-104.71-216-213-13.714-56.47-6-137.81-6-204V2152Q4.5,1433.065,4,714V417c0-98.038-6.279-200.958,28-264C67.114,88.423,116.358,49.517,186,19ZM2453,479s68.33,85.709,58.85,92.644C2510.79,572.423,1795,1016,1795,1016L1251,906,232.917,1530.64,291,1624l975-592,547,104,754-465,57.16,90.418c3.9-.16,168.62-292.779,168.62-292.779Zm-64,763q-47.49,1.995-95,4c-66.94,10.37-131.98,15.4-188,33-24.27,7.62-72.93,18.14-74,44,64.38,77.96,427.99,87.16,563,56,34.08-7.87,163.76-32.32,154-62C2720.16,1256.42,2486.36,1251.5,2389,1242Zm360,143c-45.75,28.19-105.27,34.02-168,46-181.13,34.6-413.64,10.22-549-45-0.11,32.97-8.5,145.46,3,159,67.05,78.97,443.71,75.99,574,48,44.64-9.59,111.71-17.41,136-48C2754.42,1533.14,2755.61,1405.77,2749,1385Zm-719,217c-0.09,30.21-7.32,155.88,2,166,71.02,77.15,434.72,76.84,569,49,47.38-9.82,116.71-17.51,142-50,14.65-18.82,6.29-130.28,6-165h-3c-34.64,31.48-106.81,34.49-161,45C2402.26,1682.43,2165.8,1657.54,2030,1602Zm-527,80-83,3c-97.86,15.32-207.6,15.47-265,71,4.26,30.27,81.14,45.98,113,54,131.65,33.15,326.18,34.17,464,6,35.9-7.34,146.67-29.43,140-63C1792.63,1691.69,1640.37,1682.11,1503,1682Zm370,142c-114.92,70.8-421.05,75.4-585,42-48.9-9.96-91.94-26.27-133-41v155c19.42,31.11,102.95,45.03,148,54,128.64,25.61,499.52,27.82,565-49C1877.6,1973.74,1879.49,1845.83,1873,1824Zm155,1c-0.27,30.66-8,144.43,2,163,24.38,34.06,91.54,40.07,139,51,128.96,29.71,505.95,27.56,572-48,14.12-16.15,6.29-132.95,6-166-36.08,11.63-74.4,27.46-116,38C2451.8,1908.39,2166.85,1886.79,2028,1825Zm-875,216v163c13.98,25.29,96.67,42.19,133,50,135.92,29.23,332.19,28.92,465-3,38.43-9.24,93.89-17.06,115-44,15.92-20.32,6.33-130.44,6-166-147.5,64.66-427.18,81.48-615,36C1219.45,2067.91,1185.69,2052.86,1153,2041Zm1592,6c-106.55,65.7-394.31,76.48-552,46-55.67-10.76-126.86-14.1-164-45-5.13,17.67-6.43,153.36,1,165,17.67,27.69,104.3,40.75,145,50,125.47,28.52,506.19,24.82,566-50C2747.25,2205.18,2753.12,2059.69,2745,2047ZM664,2129q-47,1.995-94,4c-97.722,14.6-203.522,16.53-262,70,2.418,30.01,76.28,44.96,106,53,127.791,34.57,331.821,38.77,468,8,32.066-7.25,152.18-32.11,143-60C999.913,2145.62,759.451,2133.27,664,2129Zm488,135c-0.5,26.51-7.98,148.35,1,164,15.37,26.78,99.48,41.69,138,50,128.98,27.82,505.84,29.84,573-47,15.43-17.65,6.32-132.94,6-167C1698.52,2347.21,1323.45,2348.61,1152,2264Zm1596,4c-35.22,27.87-91.34,30.74-142,43-180.02,43.56-435.31,18.57-576-39-0.11,30.16-7.3,153.75,2,164,68.86,75.91,436.83,78.47,569,49,42.35-9.44,131.21-23.22,146-55C2754.42,2414.07,2753.88,2287.66,2748,2268Zm-1722,3c-30.588,24.22-78.311,28.01-122,39-183.78,46.25-449.934,22.34-595-37h-1v155c16.807,28.89,98.047,43.41,139,52,135.484,28.41,325.534,28.2,457-4,38.62-9.46,95.748-16.81,117-44C1030.17,2420.26,1032.47,2292.85,1026,2271Z"/>
    </g>
  </g>
</svg>
