<svg id="end" xmlns="http://www.w3.org/2000/svg" width="3000" height="3000" viewBox="0 0 3000 3000">
  <defs>
    <style>
      .cls-1 {
        fill-rule: evenodd;
      }
    </style>
  </defs>
  <g id="progress">
    <g id="folder">
      <path id="_165" data-name="165" class="cls-1" d="M248,6H2586c137.25-.006,220.28-6.278,301,52,45.84,33.1,84.23,87.474,100,150,12.38,49.082,9,113.974,9,174V2598c0,56.1,6.77,125-5,173-13.94,56.82-43.12,113.38-82,146-35.86,30.09-73.9,56.85-127,70-54.59,13.52-130.65,7-195,7H365c-57.038,0-119.232,3.4-163-10-92.18-28.21-157.562-100.1-187-191-18.838-58.17-10-150.5-10-224V2131Q4.5,1449.07,4,767V378c0-87.189-2.749-169.72,28-225C68.235,87.856,116.015,50.935,186,19,204.331,10.635,228.163,14.194,248,6ZM1765,293c6.24-6.352-112.98,114.443-179,181l24,24q127.485,127.486,255,255c-0.33,1.666-.67,3.333-1,5q-138.99,139.986-278,280l138,138c9.85,9.85,36.5,45.21,47,39-9.75,9.87,173.94-174.48,276-276,5.05,1.941,97.62,94.39,284,279l179-179q-138.99-140.485-278-281v-5c92.66-92.657,278-278,278-278s-92.86-94.251-179-181q-18.495,18.5-37,37-121.995,120.987-244,242h-4Q1905.51,433.014,1765,293ZM1337,536l-56,4c-33.81,6.324-65.96,10.472-96,20-134.81,42.762-239.3,127.665-306,239-31.458,52.513-51.978,112.713-68,181-5.32,22.67-11.3,71.69-7,98l3,57c-5.761,35.84,5.264,90.45,12,126q6.5,40.995,13,82c19.048,75.52,40.391,151.08,63,222,20.253,63.53,42.033,122.23,70,177,33.93,66.44,73.22,112.84,134,152,45.02,29.01,97.57,52.44,149,74l95,34q22.995-7.995,46-16c44.94-16.52,87.69-33.42,128-54,54.2-27.67,106.07-56.2,146-98,33.33-34.89,52.66-80.86,75-127,51.82-107.04,84.06-235.18,116-361q10.005-69,20-138,1.5-20.505,3-41c-27.01,20.76-74.41,89.1-108,94-27.11,3.95-47.11-28.11-60-41l-132-132c-13.49-13.49-41.18-30.41-32-62,6.78-23.33,49.55-52.84,66-71Q1700,865.509,1789,776c-0.67-.667-1.33-1.334-2-2-11.85-29.236-64.37-81.515-89-101C1603.29,598.084,1503.5,541.392,1337,536ZM490,2803H2197c1.08-264.73.25-404.6-4-408q-329.97-109.485-660-219c-8.2-61.86,1-237.69,1-225-42.79,20.72-86.33,37.98-133,56q-27,9.495-54,19c-18.7,2.72-45.3-13.32-60-19-47.4-18.32-92.38-34.83-135-57,2.82,162.82,4.51,223.18,2,226Q822.034,2286,490,2396v407Z"/>
    </g>
  </g>
</svg>
