<svg id="end" xmlns="http://www.w3.org/2000/svg" width="3000" height="3000" viewBox="0 0 3000 3000">
  <defs>
    <style>
      .cls-1 {
        fill-rule: evenodd;
      }
    </style>
  </defs>
  <g id="pregress">
    <g id="folder">
      <path id="_155" data-name="155" class="cls-1" d="M248,6H2144c216.26,0,616.98-39.638,743,52,146.46,106.507,109,363.939,109,611V2266c0,234.34,37.65,538.18-87,651-127.65,115.53-451.87,77-691,77H634c-315.275.01-568.836,41.89-625-226Q6.5,1740.605,4,713C3.993,334.256-70.017,92.594,248,6ZM1509,112q-183.975,555.444-368,1111H125q408.958,294.975,818,590Q765.018,2350.45,587,2888q462.954-332.46,926-665,460.455,332.46,921,665-178.485-537.945-357-1076,408.96-294.465,818-589-507.945-.495-1016-1Q1694.02,667.056,1509,112Z"/>
    </g>
  </g>
</svg>
