<svg id="end" xmlns="http://www.w3.org/2000/svg" width="3000" height="3000" viewBox="0 0 3000 3000">
  <defs>
    <style>
      .cls-1 {
        fill-rule: evenodd;
      }
    </style>
  </defs>
  <g id="progress">
    <g id="folder">
      <path id="_166" data-name="166" class="cls-1" d="M248,6H2586c137.25-.006,220.28-6.278,301,52,45.84,33.1,84.23,87.474,100,150,12.38,49.082,9,113.974,9,174V2598c0,56.1,6.77,125-5,173-13.94,56.82-43.12,113.38-82,146-35.86,30.09-73.9,56.85-127,70-54.59,13.52-130.65,7-195,7H365c-57.038,0-119.232,3.4-163-10-92.18-28.21-157.562-100.1-187-191-18.838-58.17-10-150.5-10-224V2131Q4.5,1449.07,4,767V378c0-87.189-2.749-169.72,28-225C68.235,87.856,116.015,50.935,186,19,204.331,10.635,228.163,14.194,248,6ZM1845,634l-26,3-72,30c-50.25,18.82-100.28,31.821-155,46-41.08,10.644-98.91,25.044-151,15-78.26-15.09-146.44-33.463-212-61-24.36-10.231-66.16-40.126-106-30-142.987,36.339-197.715,241.325-240,383q-9.5,42.99-19,86c-17.2,57.22-35.808,129.12-37,195,47.9,23.9,98.961,46.65,152,67,53.9,20.68,114.88,29.6,173,44q76.995,10.995,154,22,26.49,1.005,53,2c24.54,7.27,55.69.42,85,5,37.44,5.85,87.65,5.97,125,0,13.7-2.19,31.05.94,42-2h40c55.82-11.83,122.49-8.79,180-22,74.64-17.14,148.62-29.21,216-54l96-39q20.505-10.995,41-22c0.54-30.81-4.6-60.51-12-86q-1.005-11.505-2-23c-10.32-37.61-17.67-79.32-30-115q-7.005-29.49-14-59c-45.71-129.4-106.85-327.4-226-377C1882.73,634.81,1863.96,638.984,1845,634ZM776,1364c-23.792,9.09-57.24-1.7-85,3-74.376,12.59-237.821,6.59-280,44,1.132,32.29,49.773,60.51,71,76,64.608,47.14,144.953,88.95,223,121l35,12c123.511,60.2,269.69,92.79,415,130,62.62,16.03,127.97,16.32,194,29l86,3c26.2,4.13,63.24,3.61,93-1,39.62-6.13,79.31-.83,115-7,54.51-9.42,104.73-4.77,156-17l144-27c81.25-21.21,163.28-40.86,238-68,125.62-45.63,231.09-90.32,333-157,16.84-11.02,86.72-61.2,76-89-10.91-23.64-54.03-21.64-84-27-61.05-10.93-132.15-14.84-201-15-18.06-.04-65.35-5.85-83,0q-49.5,24.495-99,49c-45.19,22.01-98.18,35.58-148,51-69.79,21.61-148.72,28.79-223,45h-27c-34.9,7.35-73.38,2.74-113,9-43.02,6.8-116.6,10.43-161,3h-39c-47.09-7.52-99.31-4.79-143-13-49.15-9.23-94.2-7.12-140-19-89.67-23.25-177.718-40.67-255-76-25.482-11.65-48.163-25.77-71-40Q789.5,1373.505,776,1364Zm1208,468q-15.495,1.995-31,4-27.99,7.995-56,16c-70.69,30.27-126.09,83.03-157,153-76.45,173.07,38.22,324.18,158,376,32.65,14.12,88.6,29.69,136,20,60.15-12.29,107.22-29.17,147-61q19.005-18.495,38-37c18.23,15.84,32.54,20.3,65.19,11.44,0.39-.19-1.02,417.86-1.02,417.86l20.03,0.33s-2.38-101.61-2.2-196.63c-0.17-81.56,1.56-246.93,2.11-234.32,9.81-11.72,15.61-23.3,17.04-39.09,0.32-48.37-19.71-49.26-40.31-62.89,4.99-26.85,15.51-66.38,7.16-108.7C2256.5,1936.38,2168.09,1831.52,1984,1832Zm-1,53c150.88-1.78,222.32,80.16,249,204,7,32.5.87,75.61-8,101-29.52,84.5-95.03,140.49-192,158-38.13,6.89-80.29-3-106-13-100.17-38.95-199.41-158.54-140-304,23.89-58.5,70.59-103.87,128-129q18.495-6,37-12Q1967.005,1887.5,1983,1885Zm288,333c58.15,35.58,6.74,102.77-39,69,7.74-5.28,11.33-16,17-24Q2260,2240.5,2271,2218Zm-905,282q-16.995,3.495-34,7-21.495,7.5-43,15c-72.72,28.8-159.49,118.97-273,73-18.616-7.54-32.943-20.01-47-32v6q11,22.5,22,45c47.11,77.64,142.66,113.85,243,139,104.14,26.1,230.7-8.58,269-71h5q22.005,19.995,44,40c18.5,12.5,42.52,21.32,65,29,27.26,9.32,75.36,11.74,104,7,29.44-4.87,54.23.82,80-7,83.88-25.46,154.43-47.47,205-105,18.18-20.68,39.54-44.15,42-80-0.33-.67-0.67-1.33-1-2l-4,4-23,17c-12.98,8-31.03,13.75-47,18-65.52,17.41-127.43-16.08-163-37-49.19-28.92-96.66-50.37-160-66-36.44-8.99-95.05,13.1-114,25-8.94,5.61-17.81,16.34-30,18C1466.89,2517.63,1432.42,2500.05,1366,2500Z"/>
    </g>
  </g>
</svg>
