<svg id="end" xmlns="http://www.w3.org/2000/svg" width="3000" height="3000" viewBox="0 0 3000 3000">
  <defs>
    <style>
      .cls-1 {
        fill-rule: evenodd;
      }
    </style>
  </defs>
  <g id="progress">
    <g id="folder">
      <path id="_162" data-name="162" class="cls-1" d="M2750,2992H854c-216.265,0-616.982,39.64-743-52C-35.465,2833.49,2,2576.06,2,2329V732C2,497.663-35.655,193.819,89,81,216.653-34.532,540.871,4,780,4H2364c315.27-.007,568.84-41.888,625,226q2.505,1027.4,5,2055C2994.01,2663.74,3068.02,2905.41,2750,2992ZM1674,2841c16.73-9.66,33.95-31.7,17-54-24.84-32.69-104.44-44.12-143-62-54.62-25.33-102.52-61.93-146-99-169.01-144.11-271.77-453.55-151-724,76.1-170.41,216.67-298.02,410-351,74.28-20.35,160.07-15.16,249-28,165.78-23.95,281.9-89.07,386-174,73.05-59.6,128.53-146.9,169-239,211.64-481.673-150.49-916.367-573-967-278.41-33.365-573.17,83.544-738,181C323.536,815.008,224.832,1993.41,1030,2591,1175.89,2699.28,1431.08,2839.78,1674,2841Zm156-1820c-245-21.256-245.5-351.6-7-370,194.16-14.975,241.51,241.383,109,337C1903.21,1008.77,1872.08,1011.33,1830,1021Z"/>
    </g>
  </g>
</svg>
