<svg id="end" xmlns="http://www.w3.org/2000/svg" width="3000" height="3000" viewBox="0 0 3000 3000">
  <defs>
    <style>
      .cls-1 {
        fill-rule: evenodd;
      }
    </style>
  </defs>
  <g id="progress">
    <g id="folder">
      <path id="_158" data-name="158" class="cls-1" d="M248,6H2144c216.26,0,616.98-39.638,743,52,146.46,106.507,109,363.939,109,611V2266c0,234.34,37.65,538.18-87,651-127.65,115.53-451.87,77-691,77H634c-315.275.01-568.836,41.89-625-226Q6.5,1740.605,4,713C3.993,334.256-70.017,92.594,248,6ZM1289.32,2726.9a804.306,804.306,0,0,1,.72-90.08c-270.29-.37-543.335,2.11-814.04,2.18-0.333-.33-0.667-0.67-1-1V329l1-1H2328c0.33,0.333.67,0.667,1,1V2252h85V751c0-87.016,17.11-467.193-20-496-36-27.947-245.55-12-313-12H597c-49.618,0-150.64-14.688-184,8-40.4,27.479-23,453.99-23,548V2203c0,78.65-12.98,469.38,11,500C431.828,2742.36,1165.47,2727.74,1289.32,2726.9ZM616.86,439.518c-11.136.372-42.717,2.342-37.892,43.173-0.371,18.931-2.318,310.185-.179,341.42-0.074,34.994,34.956,36.807,45.687,34.947C685.364,859.02,890.661,858.409,939,857c306.97,0,614.03,0,1237.8,1.08,22.49,0.012,59.7,8.842,54.26-43.388,0.66-16.758-.41-239.687.72-330.889-0.17-36.135-17.1-41.8-36.78-41.8s-357.36,1-399,1C1399.19,442.869,628,439.147,616.86,439.518ZM610,1080c-19.4,9.09-30.775,44.37,0,49h758c26.94,0,49.88,2.82,55-19,3.03-12.93-4.76-20.72-11-25-29.92-20.54-130.32-5-173-5H610Zm1049.01,1.35c-26.25,7.81-17.65,28.55-20.36,38.56-1.62,5.97-2.03,493.75-.8,578.25-0.56,12.07,4.16,24.18,8.55,29.32,4.36,5.1,11,8.4,23.97,7.89,72.52,0.13,525.97.58,531.85-.11,14.59-.49,26.04-13.06,25.18-30.54,0.43-6.02-.56-505.01-1.4-582.72-0.2-18.25.23-41.46-31.86-41.28C2128.09,1076.27,1730.81,1079.77,1659.01,1081.35ZM614,1383c-39.93-.91-43.586,40.06-6,49,266.64-.67,790.62,3.39,800.02,3.14s25.4-11.67,23.67-24.77c-1.7-12.87-11.71-27.42-22.09-27.67S627.462,1382.77,614,1383Zm-3,306c-19.742,9.98-31.882,48.19,4,49h757c26.77,0,47.5,2.11,52-20q-4.005-10.5-8-21C1399.64,1681.01,702.521,1688.78,611,1689Zm1389,154c-79.6,1.69-184.06,2.48-249,49v1c99.65,67.64,416.29,73.44,515,0C2222.23,1845.31,2088.04,1842.69,2000,1843Zm-250.5,107.64a1005.426,1005.426,0,0,1,.52,102.25c50.62,64.86,470.93,63.28,519.73-.74-1.85-33.94,2.07-70.73-1.53-101.78C2143.02,2004.57,1880,2002.85,1749.5,1950.64ZM609,1988c-13.3,5.15-23.9,10.06-27,25q0.5,241.98,1,484c3.393,11.15,11.359,17.58,23,21,37.97,11.14,418.96-1.66,535.09,4.16,21.27-3.62,22.93-18.1,24.18-19.28,3.09-56.62,4.09-175.83-.27-215.88-4.94-45.38,4.6-187.6,1.62-253.84-2.08-5.04,13.25-52.9-51.42-47.48C1000.82,1987.97,670.48,1987.74,609,1988Zm1111,49v-49c-47.66-.53-242.49-2.77-312.26-2.56-14.88,6.56-23.49,16.09-22.88,29.6,0.53,11.56,10.5,17.17,22.24,23.15C1485.93,2040.61,1671.84,2037.48,1720,2037Zm548,75c-78.28,32.33-186.91,35.47-272.34,39.28s-210.99-19.95-245.27-41.71c-1.09,4.89.5,101.28,0.98,108.52,42.39,44.66,405.2,81.81,518.74.53C2270.92,2186.66,2268.55,2147.17,2268,2112Zm-700,16c-106.6,2.01-169.58,11.67-208.21,24.33-79.07,27.31-37.52,31.74-28.69,39.16,61.49,32.86,266.38,50.9,387.9,23.51-0.33-25,.94-41.11-1-75C1690.89,2131.28,1619.32,2127.03,1568,2128Zm-255,110c0.33,33.33.67,66.67-2.35,100.14,47.95,51,314,56.4,410.33,39.29,1.96-33.75-1.46-73.69-.14-112.9C1588.32,2283.54,1416.06,2280.81,1313,2238Zm956,39c-134.94,55.95-394.58,45.21-516,1q0.495,51.495,1,103c40.72,65.94,453.43,63.65,516,1Q2269.505,2329.5,2269,2277Zm33,10v93c111.49,18.38,291.31-9.53,327-45C2585.11,2284.99,2390.06,2277.52,2302,2287Zm329.75,104.31c-68.31,30.85-229.72,47.99-331.71,37.51,1.96,38.51,1.96,74.85,1.04,112.19,30.12,4.63,89.39,4.44,138.03,2.06,47.75-6.19,135.65-6.34,192.32-48.2C2623.49,2459.18,2632.49,2427.82,2631.75,2391.31Zm-1319.82,4.03c2.4,37.32-1.63,79.1-.4,105.07,44.53,55.66,301.24,66.2,409.72,40.62-0.13-32.17,4.01-78.9.3-115.78C1590.35,2445.44,1406.51,2437.27,1311.93,2395.34ZM1753,2442q1.005,52.5,2,105c38.51,58.74,484.12,63.38,514,0q0.495-52.5,1-105C2133.14,2506.01,1891.11,2480.97,1753,2442Zm546.05,265.34c115.39,3.21,264.09,2.04,334.35-47.05,2.58-32.22-.93-70.86-1.4-106.29-87.43,28.04-214.4,49.5-333.84,35.11C2301,2629,2301,2667,2299.05,2707.34ZM1314,2560.88c-2.76,27.75,1.08,69.55-.6,105.03,34.6,51.15,320.86,58.27,405.45,40.55-0.85-39.12-.85-76.8.44-116.73C1586.42,2613.05,1419.47,2596.45,1314,2560.88ZM1751,2605q1.005,52.995,2,106c44.91,75.45,455.23,51.83,515,0q0.495-51.99,1-104C2141.32,2663.57,1876.52,2661.58,1751,2605Z"/>
    </g>
  </g>
</svg>
