<svg xmlns="http://www.w3.org/2000/svg" viewBox="0 0 2994.91 3000">
  <defs>
    <style>
      .a {
        fill-rule: evenodd;
      }
    </style>
  </defs>
  <title>177icon 1</title>
  <g>
    <path class="a" d="M964.31,1500c0,294.45,238.7,533.15,533.14,533.15S2030.6,1794.45,2030.6,1500s-238.7-533.15-533.15-533.15S964.31,1205.55,964.31,1500Zm712.71,0a179.57,179.57,0,1,1-179.57-179.56A179.57,179.57,0,0,1,1677,1500Z"/>
    <path class="a" d="M2680.86,27H314.05C154.77,27,24.45,157.32,24.45,316.6V2683.4c0,159.28,130.32,289.6,289.6,289.6H2680.86c159.28,0,289.6-130.32,289.6-289.6V316.6C2970.46,157.32,2840.14,27,2680.86,27ZM1495.55,2204.3,146.12,1563,1497.45,795.7,2848.79,1563Z"/>
  </g>
</svg>
