<svg id="end" xmlns="http://www.w3.org/2000/svg" width="3000" height="3000" viewBox="0 0 3000 3000">
  <defs>
    <style>
      .cls-1 {
        fill-rule: evenodd;
      }
    </style>
  </defs>
  <g id="progress">
    <g id="folder">
      <path id="_156" data-name="156" class="cls-1" d="M248,6H2144c216.26,0,616.98-39.638,743,52,146.46,106.507,109,363.939,109,611V2266c0,234.34,37.65,538.18-87,651-127.65,115.53-451.87,77-691,77H634c-315.275.01-568.836,41.89-625-226Q6.5,1740.605,4,713C3.993,334.256-70.017,92.594,248,6ZM585,114q0.5,1386.36,1,2773l927-921q460.95,460.455,922,921,1.005-1387.86,2-2776Zm926,384,9,4Q1579,682.482,1638,863l329,1q0.495,6.5,1,13-131.49,95.99-263,192,36,109.995,72,220,21,67.995,42,136l-9,3q-148.98-108.495-298-217-140.49,103.485-281,207c-8.68,6.06-15.08,11.93-24,7q56.49-178.485,113-357c-31.12-15.64-258.73-179.472-264-199l333-9Q1449.99,679.018,1511,498Z"/>
    </g>
  </g>
</svg>
