<svg id="end" xmlns="http://www.w3.org/2000/svg" width="3000" height="3000" viewBox="0 0 3000 3000">
  <defs>
    <style>
      .cls-1 {
        fill-rule: evenodd;
      }
    </style>
  </defs>
  <g id="progress">
    <g id="folder">
      <path id="_154" data-name="154" class="cls-1" d="M248,6H2144c216.26,0,616.98-39.638,743,52,146.46,106.507,109,363.939,109,611V2266c0,234.34,37.65,538.18-87,651-127.65,115.53-451.87,77-691,77H634c-315.275.01-568.836,41.89-625-226Q6.5,1740.605,4,713C3.993,334.256-70.017,92.594,248,6ZM1791,341q-4.005,3-8,6,0.495,698.43,1,1397l-1,1H1326c-0.67,2.33-1.33,4.67-2,7q379.455,443.46,759,887,380.955-444.96,762-890c-1-1.33-2-2.67-3-4l-460-3-1-1q-1.995-697.935-4-1396ZM639,1259q2.5,698.43,5,1397,296.471-.495,593-1V1256q229.47-1.005,459-2c0.33-10.13-214.33-257.874-758-892-540.827,628.8-763.173,883.86-760,894Z"/>
    </g>
  </g>
</svg>
