<svg id="end" xmlns="http://www.w3.org/2000/svg" width="3000" height="3000" viewBox="0 0 3000 3000">
  <defs>
    <style>
      .cls-1 {
        fill-rule: evenodd;
      }
    </style>
  </defs>
  <g id="progress">
    <g id="folder">
      <path id="_164" data-name="164" class="cls-1" d="M248,6H2586c137.25-.006,220.28-6.278,301,52,45.84,33.1,84.23,87.474,100,150,12.38,49.082,9,113.974,9,174V2598c0,56.1,6.77,125-5,173-13.94,56.82-43.12,113.38-82,146-35.86,30.09-73.9,56.85-127,70-54.59,13.52-130.65,7-195,7H365c-57.038,0-119.232,3.4-163-10-92.18-28.21-157.562-100.1-187-191-18.838-58.17-10-150.5-10-224V2131Q4.5,1449.07,4,767V378c0-87.189-2.749-169.72,28-225C68.235,87.856,116.015,50.935,186,19,204.331,10.635,228.163,14.194,248,6ZM2027,216c-51.36,152.7-111.31,331.3-112,332l-308,1c152.86,111.478,247.14,179.189,248,184q-54,162.483-108,325h1c171.71-123.129,280.29-201.538,284-202q140.49,100.989,281,202L2204,729q124.98-90.49,250-181H2143q-54.99-165.984-110-332h-6ZM1337,537l-49,3c-35.03,6.74-68.95,10.308-100,20-146.07,45.586-252.661,138.182-321,262-128.283,232.43-27.41,594.61,52,810,25.272,68.55,52.354,133.78,93,187,31.42,41.14,79.31,69.18,125,96,41.03,24.08,86.61,40.66,133,59q35.49,13.005,71,26c13.81,2.65,31.6-9.12,42-13,37.74-14.09,73.9-27.12,108-44,62.3-30.85,127.43-59.56,171-109,90.32-102.48,128.9-263.47,171-413,10.55-37.48,18.95-77.26,28-118q6.495-51.99,13-104,2.505-33,5-66c-0.91-6.12-4.43-12.05-3-21,4.7-29.5,4.53-66.28-1-96l-118,85c-21.64,9.05-42.09-4.16-49-17-13.41-24.94,8.06-63.04,15-81q35.49-108.99,71-218c-24.16-29.473-46.4-59.815-70-89q-25.005-21-50-42C1586.79,588.063,1486.81,541.476,1337,537ZM491,2803H2196c0.03-137.38-.95-269.9-1-407-762.02-252.47-659.98-217.87-662-221-7.54-15.25-2.04-44.56-2-65,0.11-51.61,4-106.69,1-156q-20.505,9.495-41,19c-39.76,17.43-99.32,45.88-143,54-17.85,3.32-41.9-12.35-56-17-49.55-16.36-94.22-37.22-139-58q1.005,79.485,2,159c0.01,21.27,5.68,52.11-2,67L491,2396C491.014,2533.94,490.989,2666.28,491,2803Z"/>
    </g>
  </g>
</svg>
