<svg xmlns="http://www.w3.org/2000/svg" viewBox="0 0 2994.91 3000">
  <defs>
    <style>
      .a {
        fill-rule: evenodd;
      }
    </style>
  </defs>
  <title>178icon 1</title>
  <g>
    <path class="a" d="M1245.7,1333.61v392.54l4.47-.09c2-.06,4,0,6.07-.18l12.16-.71a810.39,810.39,0,0,0,97.62-12.24c32.56-6,65.07-13.61,97.5-22.33,64.81-17.42,129.2-39.16,194.17-61.44V1265.82s-163.11,48.62-219,57.36C1390.93,1330.64,1245.7,1333.61,1245.7,1333.61Z"/>
    <path class="a" d="M2428.28,844.61q-.66-56.9-1.13-113.81-1.11-140.43-1.1-281.44-9.78-2.66-19.6-5.23-24.43-6.39-49.06-12.25c-32.79-7.81-65.73-15-98.72-21.33s-66.06-11.83-99.08-16.14q-24.75-3.17-49.42-5.38c-15.3-1.25-30.57-2.27-45.71-2.77V775.6s133.62,2.52,177.31,10.43C2268.7,790.9,2358.83,820.85,2428.28,844.61Z"/>
    <path class="a" d="M1657.69,851.22V469.87c-60,19.44-120.85,39.12-183.79,54.82-34.19,8.5-69,15.85-104.49,21a737.35,737.35,0,0,1-108.12,8.15l-13.68-.1h-1.91V929.44s96.48-7.77,229.46-23.46C1522.47,900.39,1657.69,851.22,1657.69,851.22Z"/>
    <path class="a" d="M1058,919c-23.13-3.72-94.3-20.93-153.61-35.65v401c60.92,10.75,129.81,22.73,151,25.74,47.46,6.76,190.35,23.47,190.35,23.47V929.44S1104.37,926.48,1058,919Z"/>
    <path class="a" d="M1835,793.85c-46,7.49-177.31,57.37-177.31,57.37v414.6s150.7-59.45,203.38-70.41c49.93-10.38,203.39-15.64,203.39-15.64V775.6S1947.12,775.6,1835,793.85Z"/>
    <path class="a" d="M2680.86,27H314.05C154.77,27,24.45,157.32,24.45,316.6V2683.4c0,159.28,130.32,289.6,289.6,289.6H2680.86c159.28,0,289.6-130.32,289.6-289.6V316.6C2970.46,157.32,2840.14,27,2680.86,27ZM728.64,936.94l-.34,589.63-1,589.63L726.57,2411l-1,294.82H651.77l-1-294.82L650,2116.2l-1-589.63-.34-589.63c-.07-196.54.28-393.09,3.09-589.63h73.78C728.36,543.85,728.71,740.4,728.64,936.94ZM2504.9,749.67q-1.23,165.66-4,331.37-2.76,165.53-6.6,329.92l-7.47,327.09a41.72,41.72,0,0,1-20.91,5.65c-7.33.43-17.12-3.45-18.75-4.53l-.64-.33-1.29-.64-2.68-1.33-5.49-2.68c-3.69-1.78-7.43-3.53-11.18-5.29-7.52-3.48-15.1-6.93-22.74-10.27q-22.91-10.05-46.28-19.26-46.68-18.42-94.57-33.27c-4-1.27-8-2.44-12-3.63s-8-2.4-12-3.53c-8-2.22-16-4.55-24.07-6.59-16.07-4.32-32.23-8-48.39-11.59a880.1,880.1,0,0,0-97.41-15.2c-4.06-.37-8.12-.64-12.18-1s-8.11-.72-12.16-.85c-8.09-.36-16.2-.9-24.26-.91-4-.06-8.1-.17-12.07-.18l-11.44.33c-1.91.07-3.8,0-5.74.19l-5.82.47c-3.88.32-7.74.57-11.64.93-31.3,3.39-63.32,10.09-95.39,18.4s-64.31,18.32-96.61,28.87-64.71,21.75-97.33,32.92c-65.24,22.36-131.37,44.76-199.53,63.09-34.08,9.16-68.67,17.31-103.85,23.77A892.63,892.63,0,0,1,1273.2,1805l-13.62.78c-2.26.17-4.56.14-6.84.21l-6.85.14-13.7.26c-2.21.08-4.78,0-7.22-.05s-5-.07-7.35-.18c-19.16-.82-37.16-2.75-55-5-35.55-4.62-70.05-10.81-104.4-17.45s-68.34-14-102.25-21.67q-25.44-5.76-50.77-11.82l-25.34-6.13L867.2,1741l-12.79-3.22-30.07-7.57V357.45l53.46,19h0l11.79,4.21,12,4.2q12,4.19,24,8.27,24.07,8.17,48.26,16,48.35,15.75,97,29.77,24.32,6.93,48.62,13.32c16.2,4.19,32.39,8.13,48.5,11.68s32.17,6.7,47.79,8.95c3.89.56,7.72,1,11.58,1.52,1.91.22,3.75.37,5.63.56s3.77.39,5.58.51l5.34.29,2.67.16c.93,0,2,0,3,0l12,.11a651,651,0,0,0,96.65-7.2,984,984,0,0,0,96.93-19.51C1519.7,433.21,1584,412,1649.29,390.8s131.58-42.51,200.47-58.52a1006.48,1006.48,0,0,1,105.18-19c8.88-1.27,17.89-2,26.86-2.85l6.74-.64c2.24-.24,4.51-.3,6.76-.46l13.56-.81,6.78-.4c2.26-.13,4.54-.12,6.81-.19l13.63-.29,6.82-.13c2.27,0,4.52,0,6.79,0,4.52.07,9.07.06,13.57.2,18,.46,35.84,1.59,53.57,3s35.28,3.41,52.76,5.6c34.94,4.49,69.52,10.08,103.84,16.54s68.37,13.73,102.26,21.65q25.42,6,50.71,12.43,12.66,3.24,25.31,6.62l12.67,3.44,6.36,1.77,6.54,1.86h0L2506,389v30Q2506,583.89,2504.9,749.67Z"/>
    <path class="a" d="M2482.64,1667.46l.8.4a10.78,10.78,0,0,0-1.52-.76Z"/>
    <path class="a" d="M2437.75,1354.37q-1.35-57.42-2.61-114.6c-41.66-13.77-95.68-29.71-164.68-47-50.06-12.51-206-13-206-13V1545c3.83.3,7.66.58,11.48.93a960.3,960.3,0,0,1,106.64,16.61c17.46,3.85,34.87,7.85,52.07,12.47,8.63,2.19,17.17,4.67,25.74,7,4.28,1.21,8.53,2.51,12.79,3.76s8.53,2.52,12.75,3.87q50.9,15.74,100.3,35.29,24.7,9.74,49.09,20.43c3.14,1.37,6.28,2.78,9.42,4.19Z"/>
  </g>
</svg>
