<svg id="end" xmlns="http://www.w3.org/2000/svg" width="3000" height="3000" viewBox="0 0 3000 3000">
  <defs>
    <style>
      .cls-1 {
        fill-rule: evenodd;
      }
    </style>
  </defs>
  <g id="progress">
    <g id="folder">
      <path id="_157" data-name="157" class="cls-1" d="M248,6H2144c216.26,0,616.98-39.638,743,52,146.46,106.507,109,363.939,109,611V2266c0,234.34,37.65,538.18-87,651-127.65,115.53-451.87,77-691,77H634c-315.275.01-568.836,41.89-625-226Q6.5,1740.605,4,713C3.993,334.256-70.017,92.594,248,6ZM1305,1401c-40.81-.25-309.213-6.19-318,4q262.47,308.475,525,617c1-.33,2-0.67,3-1l527-618c-0.33-.67-0.67-1.33-1-2q-159.99-1.005-320-2l-1-1q-1.995-484.455-4-969l-408-2-3,3v971ZM187,2296s-0.667,183.34-1,275q1322.865,0.495,2646,1,1.005-137.985,2-276C1389.18,2294.72,187,2296,187,2296Z"/>
    </g>
  </g>
</svg>
