<svg id="end" xmlns="http://www.w3.org/2000/svg" width="3000" height="3000" viewBox="0 0 3000 3000">
  <defs>
    <style>
      .cls-1 {
        fill-rule: evenodd;
      }
    </style>
  </defs>
  <g id="progress">
    <g id="folder">
      <path id="_163" data-name="163" class="cls-1" d="M248,6H2586c137.25-.006,220.28-6.278,301,52,45.84,33.1,84.23,87.474,100,150,12.38,49.082,9,113.974,9,174V2598c0,56.1,6.77,125-5,173-13.94,56.82-43.12,113.38-82,146-35.86,30.09-73.9,56.85-127,70-54.59,13.52-130.65,7-195,7H365c-57.038,0-119.232,3.4-163-10-92.18-28.21-157.562-100.1-187-191-18.838-58.17-10-150.5-10-224V2131Q4.5,1449.07,4,767V378c0-87.189-2.749-169.72,28-225C68.235,87.856,116.015,50.935,186,19,204.331,10.635,228.163,14.194,248,6ZM2223,388L2120,699H1836c0.33,0.667.67,1.333,1,2l227,164q-49.5,149.985-99,300c174.65-124.49,258.35-184.509,261-185q128.49,92.985,257,186-49.995-150.99-100-302,114.495-81.991,229-164v-1H2327Q2275.01,543.516,2223,388ZM1493,729l-38,3c-27.95,5.028-54.23,9.35-78,19-113.33,46-192.57,127.189-225,254-16.04,62.7-9.06,151.62,3,213,26.98,137.31,60.17,278.03,134,370,16.58,20.66,43.5,34.17,67,48,32.64,19.2,68.44,35.27,107,49,10.02,3.57,27.54,15.05,40,13,26.11-4.28,54.19-20.05,77-30,46.56-20.3,101.1-42.81,131-80,62.23-77.4,88.69-186.14,119-296,20.68-74.95,39.61-211.93,14-296C1798.4,846.3,1685.77,730.06,1493,729ZM151,2643H926q-1-310.965-2-622-95.991-31.995-192-64V1826c117.169-57.77,153.98-207.35,181-354,9.718-52.75,15.05-129.14,2-181-20.673-82.16-65.2-140.83-127-182-33.788-22.51-113.111-61.5-177-51-34.677,5.7-64.715,7.89-93,19-77.852,30.58-139.369,89.3-171,166-59.3,143.78,16.14,408.2,78,507,15.154,24.2,36.877,44.81,61,60q14.5,8.505,29,17-0.5,49.5-1,99c1.074,9.05,2.4,25.46-1,33q-180.982,60-362,120v564Zm1923,0h776q0.495-203.985,1-408c0-28.85,5.98-142.32-3-158q-180.48-59.49-361-119c-8.01-30.13,5.38-96.52-1-131,25-16.69,54.64-29.8,73-53,49.66-62.75,69.2-149.79,95-237,9.56-32.32,23.19-81.15,19-120q1.995-28.995,4-58c4.99-39.17-9.91-83.9-21-112-32.42-82.12-92.8-132.06-171-169,4.56,24.51,44.61,97.87,18,116-22.88,15.59-45.4-10.08-59-20q-72.99-51.99-146-104c-41.95,6.31-77.08,32.29-105,54-51,39.66-89.56,95.08-107,168-7.01,29.3-9.26,68.24-4,100,6.29,38.02,1.27,70.63,9,104,18.79,81.12,42.51,159.35,74,228,13.96,30.44,36.15,58.17,62,77q21.495,13.005,43,26c1.05,2.96-2,19.38-2,26q0.495,52.5,1,105-96.495,31.5-193,63Q2075,2331.965,2074,2643Zm-1131,0H2057q1.005-255.48,2-511V2009c-0.5-11.55,4.07-39.36-3-45q-160.485-53.49-321-107c-19.11-6.1-109.17-30.18-115-42q-0.495-15-1-30,0.495-57.99,1-116c-16.39,7.91-105.43,50.37-124,46-41.54-9.77-77.8-33.54-116-46,0.23,47.4,8.32,103.65,0,149-33.44,20.81-89.64,30.14-129,44L942,1965Q942.5,2303.97,943,2643Z"/>
    </g>
  </g>
</svg>
