<svg id="V1" xmlns="http://www.w3.org/2000/svg" width="3000" height="3000" viewBox="0 0 3000 3000">
  <defs>
    <style>
      .cls-1 {
        fill-rule: evenodd;
      }
    </style>
  </defs>
  <path id="_1" data-name="1" class="cls-1" d="M1469.71,6.129c186.42-2.449,345.23,29.01,484.6,73.05,446.66,141.145,772.49,462.37,938.32,884.838,34.42,87.683,58.75,180.693,79.22,282.943q9.78,87.96,19.55,175.94c9.52,58.08,2.76,159.85-6.17,212.98-8.01,47.64-6.73,92.62-16.46,136.84-22.09,100.35-46.32,198.64-83.34,286.03-158.09,373.13-425.55,652.82-795.31,813.84-67.21,29.27-141.51,51.02-215.04,73.05-73.71,22.1-155.86,26.76-239.72,41.16L1526.3,2994q-36.525-1.035-73.05-2.06c-41.25-6.69-82.01-2.57-120.38-9.26-45.57-7.95-88.81-8.09-130.66-18.52-118.24-29.45-227.244-64.87-327.181-109.06-384.913-170.2-670.257-501.49-803.542-924.96-21.079-66.98-34.9-137.81-49.385-215.04q-6.687-71.5-13.375-143.01c-8.4-53.13-5.2-159.05,6.173-206.81,7.491-31.45,3.086-67.79,9.26-98.77C44.1,1166.44,63.33,1072.84,97.209,985.623,270.982,538.3,573.534,260.453,1021.13,86.381c85.1-33.1,176.93-47.452,277.79-65.848L1424.44,8.186ZM2236.22,538.06l-71,5.145c-52.79,8.923-105.54,11.268-154.33,23.664-129.41,32.879-199.89,86.514-288.08,157.419-24.1,19.375-49.57,42.858-68.93,66.877-38.98,48.359-82.12,94.026-115.23,148.159-83.37,136.3-141.05,300.276-205.78,452.706-33.39,78.64-59.95,162.77-101.85,234.59-32.6,55.85-69.59,108.54-107.01,159.47-24.69,33.62-51.05,71.78-83.33,97.75-49.431,39.76-109.088,60.36-179.026,81.28q-49.895,9.765-99.8,19.55v337.47c25.1,3.14,63.216-.96,87.454-5.14q43.722-4.635,87.453-9.26c44.43-8.94,86.169-18.37,124.489-31.9,234.17-82.65,341.65-207.52,457.85-406.41q46.8-98.76,93.62-197.54,14.415-33.435,28.81-66.88,210.39-3.09,420.81-6.17V1256.22q-132.72-3.09-265.45-6.17c1.34-17.99,38.44-78.06,49.39-96.72,59.59-101.61,120.77-196.132,235.61-241.786,35.27-14.024,76.72-19.558,118.32-27.78l54.53-7.2c1.02-.686,2.05-1.372,3.08-2.058q-1.545-167.691-3.08-335.415Z"/>
</svg>
