<svg id="V1" xmlns="http://www.w3.org/2000/svg" width="3000" height="3000" viewBox="0 0 3000 3000">
  <defs>
    <style>
      .cls-1 {
        fill-rule: evenodd;
      }
    </style>
  </defs>
  <path id="_12" data-name="12" class="cls-1" d="M701.644,1880.6q729.639-1.38,1459.416-2.75h289.69c30.55,0.01,69.61,3.86,91.99-5.49,27.25-11.38,58.58-45.59,49.42-91.97-5.74-29.05-24.82-52.92-49.42-63.14-30.69-12.74-89-5.5-129.06-5.49H2132.23q-540.2.69-1080.49,1.37H733.222c-44.027,0-109.871-8.72-144.157,5.49-81.462,33.77-56.3,204.68-56.29,318.46v951.28h-395.4Q136.686,1499.82,136,11H619.269q0.687,423.432,1.373,846.947v221c0,30.51-4.958,73.65,8.238,91.97,14.37,19.96,62.354,13.73,96.1,13.73H2221.47c34.36,0,74.58,4.79,89.24-15.1,13.17-17.87,8.24-60.56,8.24-90.6V859.32q0.69-423.431,1.37-846.947h54.92q244.35,245,488.76,490.049-1.38,369.215-2.75,738.508V2986.98l-1500.6,1.38h-598.6c-19.78,0-46.512,2.59-61.781-2.75Q700.958,2433.16,701.644,1880.6ZM1821.95,175.722c119.76-.775,247.89-22.168,284.2,64.516,20.41,48.732,12.35,134.652,12.35,201.785V838.73c0.01,107.54,1.39,196.89-83.75,218.26q-52.155.675-104.34,1.37c-67,0-137.82,6.81-171.61-26.08-14.33-13.94-26.99-37.472-32.95-59.027-9.11-32.9-2.75-82.9-2.75-120.8V605.373c0-97.675-16.4-322.167,19.22-380.234C1763.61,190.433,1781.78,191.339,1821.95,175.722Z"/>
</svg>
