<svg id="V1" xmlns="http://www.w3.org/2000/svg" width="3000" height="3000" viewBox="0 0 3000 3000">
  <defs>
    <style>
      .cls-1 {
        fill-rule: evenodd;
      }
    </style>
  </defs>
  <path id="_13" data-name="13" class="cls-1" d="M1419.68,18q35.31,39.023,70.62,78.053c50.26,62.51,108.47,118.766,158.58,182.123,125.93,159.187,255.91,309.329,361.77,490.618,43.5,74.5,70.1,170.711,96.63,258.936,33.87,112.61,55.63,279.65,27.26,415.04-5.59,26.66-8.37,84.37-22.3,101.6q-40.875-14.25-81.77-28.5,2.475-39.645,4.96-79.29,1.845-46.455,3.71-92.92V1221q-1.86-35.925-3.71-71.85c-9.47-53.35-17.2-104.53-32.22-152.393-69.01-219.972-200.81-386.846-329.55-547.608-54.11-67.578-120.73-123.01-182.12-183.362-10.97-10.79-51.73-57.367-70.62-47.08q-13.62,16.1-27.25,32.212c-36.25,45.427-76.72,87.523-112.75,133.8C1135.84,571.1,1001.95,766.647,935.266,1032.69c-25.234,100.66-33.864,253.83-14.867,371.68,2.859,17.74,9.827,123.47,6.194,126.37q-37.164,13.62-74.335,27.25-1.239-1.845-2.478-3.71-10.529-40.26-21.061-80.53c-35.448-142-28.064-338.36,8.672-473.28C854.44,937.862,865.7,875.7,889.426,819.59c41.739-98.7,96.885-186.45,151.144-272.566,86.07-136.592,179.69-264.445,273.81-392.742Q1367.015,86.149,1419.68,18Zm30.98,1456.99c195.65-2.29,373.52,13.49,524.06,58.23,45.07,13.39,90.54,21.86,130.09,40.88-2.8,25.08-16.16,49.58-24.78,70.62-28.57,69.7-59.73,132.84-96.64,193.27-69.18,113.27-144.19,214.75-224.24,315.93-39.51,49.93-89.13,92.06-128.85,141.24-34.36,42.53-93.97,102.21-137.52,135.04q-3.72-3.7-7.43-7.43-34.08-30.975-68.14-61.95a931.866,931.866,0,0,1-135.05-135.04c-41.03-50.85-90.84-95.5-131.32-147.43-117.83-151.15-213.554-295.15-291.148-489.38,16.61-16.68,76.4-28.88,102.83-37.17,107.648-33.77,220.078-46.9,345.658-68.14Zm-1.24,75.57q-58.23,3.72-116.46,7.43c-96,16.15-186.13,29.23-268.85,54.52-30.49,9.32-74.306,14.01-94.155,34.69-0.85,42.14,66.295,132.87,86.725,163.54,90.43,135.7,180.9,263.9,293.62,376.63,22.82,22.82,115.21,116.66,146.2,118.94,53.59-30.9,112.75-98.26,151.14-146.19,38.77-48.4,83.04-93.31,120.18-143.72,45.44-61.69,85.63-126.53,126.37-193.27,20.91-34.27,98.6-145.76,99.11-185.84-12.2-22.58-88.73-32.57-118.93-40.89C1750.48,1562.27,1608.36,1550.69,1449.42,1550.56Zm685.12,34.69q37.785,17.34,75.57,34.69c71.96,36.79,135.55,77.84,198.23,122.66,202.85,145.04,428.32,375.98,525.3,624.42,51.53,131.98,90.25,381.87,1.24,503-85.78,116.74-334.17,109.87-505.48,71.86-271.71-60.28-504.54-192.3-701.23-330.79-53.63-37.77-104.96-75.93-156.1-115.22q-27.87-22.92-55.75-45.84,30.975-29.115,61.94-58.23l100.36,73.09q103.44,71.235,206.9,142.48,38.4,22.3,76.81,44.6c133.69,81.61,287.99,150.58,450.97,200.71,128.52,39.53,358.11,47.19,431.14-47.08,76.44-98.68,15.25-319.2-19.82-417.52-80.8-226.49-281.14-425.2-459.64-556.28l-172.21-121.42q-42.12-27.87-84.25-55.75Q2121.525,1619.95,2134.54,1585.25ZM829.958,1598.88l35.928,89.2c-284.394,185.15-560.563,358.85-693.795,696.28-46.234,117.1-76.045,368.85,24.779,448.5,87.63,69.22,299.384,35.77,406.365,2.47,239.423-74.51,427.345-176.87,608.3-307.25q95.4-68.76,190.8-137.52,33.45,29.73,66.9,59.47-4.335,4.95-8.67,9.91l-71.86,59.47q-76.185,55.125-152.39,110.26c-208.03,131.62-420.793,247.66-693.792,315.93-131.326,32.84-351.849,69.8-455.922-12.39C-26.324,2844.02,11,2556.89,55.633,2420.29c94.882-290.36,323.628-534.05,550.08-693.8,48.681-34.34,101.16-63.54,153.626-94.16Q794.644,1615.605,829.958,1598.88Z"/>
</svg>
