<svg id="end" xmlns="http://www.w3.org/2000/svg" width="3000" height="3000" viewBox="0 0 3000 3000">
  <defs>
    <style>
      .cls-1 {
        fill-rule: evenodd;
      }
    </style>
  </defs>
  <path id="_180" data-name="180" class="cls-1" d="M184.151,271.658c1354.6,39.075,2609.8,1.488,2636.069-.658,71.85,1.073,166.32,89.651,164.71,165.827-1.61,37.551,1.33,494.58,2.07,1722.523-3.26,176.62-3.12,496.66-3.12,516.54-5.05,29.97-42.77,51.06-71.46,47.28-1446.74,15.56-2806.152-.63-2838.339,1.03-19.978-2.22-41.349-10.23-56.343-47.3-0.284-194.82-2.971-369.32-3.739-560.04V828.593C14.4,718.96,18.871,611.47,17.347,500c4.816-41.315-5.511-63.629,6.7-110.572,25.1-48.308,38.26-52.194,62.029-81.424C133.242,277.5,146.114,276.533,184.151,271.658ZM144.522,1043.13H2855.44V580.889c-0.11-46.493,16.6-131.9-17.57-170.477-19.53-23.676-135.66-10.9-173.03-10.9H306.12c-39.317,0-109.393-9.742-135.7,7.255C133.2,430.82,144.52,515.4,142.465,577.56,136.786,738.469,143.448,888.307,144.522,1043.13Zm984.1-517.171H2506.35c49.83,0,113.77-6.506,156.42,4.145V912.543c-87.29,19.3-253.52,4.145-356.35,4.146H1493.25c-50.7,0-370.42,5.258-381.21-4.146v-381.4Q1120.335,528.551,1128.62,525.959Zm-754.2,70.89C559.414,584.739,577.98,801.923,432.66,843.6,262.113,876.868,212.385,639.139,374.424,596.849ZM779.3,593.911c160.331,1.253,184.39,196.99,44.1,248.372C654.3,879.88,585.144,634.014,779.3,593.911Zm464.3,64.709V784.027c450.65,0,838,.022,1288.64,0V658.62C2079.44,658.6,1696.36,658.663,1243.6,658.62ZM144.522,1175.79V2594.65H2855.44V1175.79C1694.44,1173.12,1202.41,1174.17,144.522,1175.79Zm205.106,190.7h1310.4c31.89,0,82.19-3.99,99.44,5.19q-0.51,222.795-1.03,445.66c-83.15,17.52-220.15,5.18-322.17,5.18H729.8q-140.866-.525-281.762-1.04c-36.431-1.04-90.072,4.53-111.876-5.18V1371.68Zm1609.772,0,699.22,1.04,1.04,1034.35-702.33,1.03ZM467.719,1499.16v189.66c403.283-.03,756.911-0.02,1160.191,0V1499.16C1224.31,1499.17,871.324,1499.16,467.719,1499.16Zm1615.991,0v772.13h448.53V1499.16H2083.71Zm-325.27,453.95v445.66l-1422.279-1.04,1.036-444.62H1758.44ZM467.719,2080.59v190.7H1627.91v-190.7H467.719Z"/>
</svg>
