<svg id="end" xmlns="http://www.w3.org/2000/svg" width="3000" height="3000" viewBox="0 0 3000 3000">
  <defs>
    <style>
      .cls-1 {
        fill-rule: evenodd;
      }
    </style>
  </defs>
  <path id="_182" data-name="182" class="cls-1" d="M1326.74,12c329.06-46.143,89.12,720.061,101.54,928.779,16.55,57.862,169.62,373.3,192.37,427.029,122.07,192.18,303.86,314.92,475.61,432.36,240.43-23.01,913.45-88.83,881.74,218.85-47.51,359.3-766.97,19.79-929.84-48.04-213.73,32.02-506.16,58.87-645.76,98.24-199.38,56.23-348.35,102.68-508.512,147.3C820.48,2395.73,262.039,3266.94,28.181,2899.76c-65.5-188.51,329.089-561.93,542.924-640.23,61.032-20.38,38.314,45.06,75.109,8.59,129.041-148.91,539.056-989.19,602.776-1309.638C1209.19,658.891,1026.91,92.331,1326.74,12Zm21.38,154.8c-56.31,99.136-34.14,276.187,3.12,366.013C1370.51,432.719,1447.95,185.119,1348.12,166.8ZM1367,1277.34c-47.68,168.84-215.59,495.94-357.63,737.62-4.4,10.6-13.724,56.65,77.99,20.7,324.12-125.14,651.08-183.15,688.27-187.45,24.37-1.77,33.98-17.25,26.19-21.32C1598.21,1672.27,1463.21,1428.86,1367,1277.34Zm1130.05,677.63c10.6,51.1,272.1,107.21,363.38,69.39q-5.34-10.68-10.69-21.35C2752.83,1965.37,2644.34,1953.21,2497.05,1954.97Zm-1926,432.53c-21.724-17.13-296.429,229.31-353.315,388.57-11.768,49.57-31.031,51.96,45.577,22.27C342.206,2737.81,592.774,2404.64,571.049,2387.5Z"/>
</svg>
