<svg id="V1" xmlns="http://www.w3.org/2000/svg" width="3000" height="3000" viewBox="0 0 3000 3000">
  <defs>
    <style>
      .cls-1 {
        fill-rule: evenodd;
      }
    </style>
  </defs>
  <path id="_2" data-name="2" class="cls-1" d="M2651,679.99V2990H351.13q-0.524-1116.09-1.049-2232.415V63.429c0-13.481-3.978-42.8,3.147-50.332L1590.73,11l393.28,1.049q-1.05,239.575-2.1,479.2c0,34.577-8.05,161.349,4.19,179.306,15.24,22.345,128.33,11.537,166.75,11.535ZM2043.78,55.04c16.91,5.571,33,30.893,45.1,42.992q54,54.52,108.02,109.051L2608,618.125l-1.05,2.1-566.31,2.1Q2042.215,338.708,2043.78,55.04ZM748.6,632.8Q603.364,819.956,458.1,1007.15v1.04c17.5,0.28,83.858,6.42,92.288-1.04Q652.631,877.133,754.892,747.1c11.868,7.879,20.53,20.484,29.364,31.457l58.73,65.012q79.17,87.023,158.354,174.062c1.75-1.75,3.5-3.49,5.25-5.24q155.715-135.255,311.47-270.534,144.72,141.02,289.45,282.064h2.1q65.01-93.309,130.04-186.643,29.895-42.464,59.78-84.935h2.1l200.3,250.608h94.39q-1.575-1.575-3.15-3.144-50.325-60.812-100.67-121.635-68.16-82.305-136.34-164.626c-18.87-24.01-39.14-58.869-63.97-76.546l-2.1,1.049Q1694.035,775.4,1598.07,912.774q-105.39-101.7-210.79-203.424c-9.76-9.121-62.72-65.465-68.17-62.914q-117.45,102.226-234.92,204.472c-11.24,8.84-70.44,67.325-76.55,63.963Q909.588,807.927,811.524,700.962C798.359,684.641,766.289,640.961,748.6,632.8ZM1829.84,1312.28q-91.23,115.86-182.48,231.74c-16.31,21.54-55.63,83.17-75.51,95.42Q1428.2,1525.68,1284.5,1411.9q-38.79-30.93-77.6-61.87c-9.24-6.99-16.92-18.57-29.37-22.02q-106.965,152.55-213.94,305.13h-4.2L695.114,1325.91h-4.2L440.272,1713.88v1.05h80.753q87.56-133.68,175.138-267.38c21.708,12.96,49.688,51.99,66.07,72.35q104.339,115.335,208.7,230.68h1.049q83.37-119.52,166.75-239.07c7.91-11.21,46.22-73.66,53.48-70.25q195.57,149.925,391.18,299.89,115.35-144.165,230.72-288.36l4.2,3.15q71.82,146.25,143.67,292.55h1.05q133.185-149.94,266.38-299.89c18.58,14.95,30.14,46.58,43,67.1q62.385,99.09,124.8,198.18c29.67,0.08,58.43.33,87.04-1.04q-123.21-194.49-246.45-389.02c-0.7.69-1.4,1.39-2.1,2.09q-126.36,148.89-252.74,297.8c-14.13-12.16-28.29-54.33-36.71-73.4q-38.79-79.695-77.6-159.39C1861.82,1375.48,1841.14,1319.37,1829.84,1312.28ZM1370.5,2076.69Q1199.05,2220.33,1027.56,2364l-5.24-5.24q-132.129-136.83-264.282-273.68-163.062,180.33-326.156,360.71h89.143q118.494-127.92,237.013-255.85c1.4,1.4,2.8,2.79,4.195,4.19q131.079,132.1,262.187,264.24h2.09q147.855-126.33,295.75-252.7c1.04,0.7,2.09,1.39,3.14,2.09q28.32,140.5,56.63,281.02l280.02-288.36c16.35,13.36,23.68,43.21,34.6,61.87q59.25,109.035,118.51,218.1,28.32-28.3,56.63-56.62,120.6-119.52,241.21-239.08,136.845,132.645,273.72,265.29,47.19-.525,94.39-1.04l-12.59-12.59-349.23-351.27q-83.88,83.88-167.79,167.77-58.2,57.15-116.41,114.3l-3.15-2.1q-74.445-143.115-148.92-286.26-126.36,131.58-252.74,263.19-2.1-1.575-4.2-3.14-25.695-131.07-51.39-262.15h-4.19Z"/>
</svg>
