<svg xmlns="http://www.w3.org/2000/svg" width="3000" height="3000" viewBox="0 0 3000 3000">
  <defs>
    <style>
      .cls-1 {
        fill-rule: evenodd;
      }
    </style>
  </defs>
  <path id="_98887" data-name="98887" class="cls-1" d="M1984,12q-1.005,256.974-2,514c-3.38,34.293-13.18,118.522,4,144l3,2c20.12,20.017,572.98,8.268,662,8V2990H351V14Zm56,611q1.5-283.971,3-568h2q280.965,281.972,562,564v2ZM461,909v162h816V909H461Zm891,0v162h462V909H1352Zm510,0v162h655V909H1862ZM461,1264v162h574V1264H461Zm604,0v162H2219V1264H1065Zm1210,0v162h242V1264H2275ZM461,1619v162H998V1619H461Zm574,0v162h312V1619H1035Zm349,0v162h795V1619H1384Zm842,0v162h291V1619H2226ZM461,1974v162h784V1974H461Zm816,0v162h644V1974H1277Zm676,0v162h564V1974H1953ZM461,2329v162h699V2329H461Zm761,0v162H2522V2329H1222Z"/>
</svg>
