<svg xmlns="http://www.w3.org/2000/svg" width="3000" height="3000" viewBox="0 0 3000 3000">
  <defs>
    <style>
      .cls-1 {
        fill-rule: evenodd;
      }
    </style>
  </defs>
  <path id="_98887" data-name="98887" class="cls-1" d="M1984,12q-1.005,256.974-2,514c-3.38,34.293-13.18,118.522,4,144l3,2c20.12,20.017,572.98,8.268,662,8V2990H351V14Zm56,611q1.5-283.971,3-568h2q280.965,281.972,562,564v2ZM466,922v162h816V922H466Zm891,0v162h462V922H1357Zm510,0v162h655V922H1867ZM456,1322v162h574V1322H456Zm604,0v162H2214V1322H1060Zm1210,0v162h242V1322H2270ZM456,1722v162H993V1722H456Zm574,0v162h312V1722H1030Zm349,0v162h795V1722H1379Zm842,0v162h291V1722H2221ZM456,2122v162h784V2122H456Zm816,0v162h644V2122H1272Zm676,0v162h564V2122H1948ZM456,2522v162h699V2522H456Zm761,0v162H2517V2522H1217Z"/>
</svg>
