<svg id="V1" xmlns="http://www.w3.org/2000/svg" width="3000" height="3000" viewBox="0 0 3000 3000">
  <defs>
    <style>
      .cls-1 {
        fill-rule: evenodd;
      }
    </style>
  </defs>
  <path id="_5" data-name="5" class="cls-1" d="M2512.63,263.59c8.1-.08,26.6-2.345,30.15,2.562,2.93,4.067,1.28,16.051,1.28,22.417V670.932c0,9.222,1.56,22.772-2.25,28.5-4.9,1.879-29.78,3.44-33.03-.64-2.91-3.646-1.61-14.015-1.61-20.175V291.771C2507.17,279.6,2504.82,268.617,2512.63,263.59Zm-19.25,304.866V601.12c-23.13-.177-50.17.642-71.53,4.163-17.18,2.833-34.3,2.689-50.35,5.765l-54.85,8.326c-37.02,8.154-74.26,15.736-107.13,28.5-11.6,4.5-23.01,9.885-34,14.731-31.45,13.867-72.04,37.145-78.26,75.576-1.58,9.757,3.66,19.393,7.05,24.978,11.33,18.631,28.24,30.573,46.83,41.951,47.65,29.154,107.29,43.108,170.64,57,18.2,3.991,36.32,4.891,55.49,8.326,19.59,3.51,40.24,2.808,60.94,6.084l29.19,1.6q0.165-27.537.32-55.08l1.92-1.922c6.99-.034,25.44,11.506,31.76,14.731q42.66,21.294,85.32,42.592l30.15-1.922c24.97-4.087,49.66-3.156,73.13-7.685,16.67-3.219,32.47-4.161,48.43-7.686,59.54-13.153,116.17-26.811,161.66-53.8,23.47-13.926,50.36-30.174,57.09-60.525,2.78-12.511-3.01-24.032-7.7-31.383-13.69-21.487-36.02-35.873-59.34-47.715-35.51-18.042-75.93-30.682-118.99-41.631l-59.34-11.529c-18.38-3.838-37.11-3.749-56.45-7.045-30.11-5.13-64.15-6.383-97.51-6.4V568.456c35.28-.336,74.72,1.661,106.17,7.045l40.73,4.8c33.26,6.6,66.88,11.112,97.19,20.175,39.06,11.683,76.24,22.09,108.09,40.67,37.73,22.007,72.13,43.533,80.51,95.11,1.97,12.123-2.8,24.715-6.1,32.665-11.29,27.257-33.36,45.3-57.09,60.2-44.53,27.96-98.28,44.393-156.84,58.924-23.6,5.854-48.12,8.543-72.81,13.129-25.47,4.729-51.98,4.091-78.27,8.327l-34.64,1.6q-42.015,20.973-84.03,41.951c-6.08,3.09-24.6,15.114-31.12,14.09l-1.92-2.241q-0.315-26.9-.64-53.8a317.638,317.638,0,0,1-53.57-3.843c-19.79-3.314-39.72-3.136-58.37-6.725-24.38-4.692-47.78-6.743-70.89-12.489-60.39-15.02-114.86-32.441-160.37-61.486-22.56-14.4-42.83-32.117-53.57-58.283-3.3-8.043-7.79-20.309-5.77-32.664,8.59-52.49,46.82-77.455,87.24-97.993,46.23-23.481,100.07-36.971,157.49-50.277l41.7-6.4C2393.62,572.52,2444.34,568.51,2493.38,568.456Zm27.91,156.916c43.73-.836,45.38,53.835,8.66,60.525-21.79,3.969-40.94-19.021-33.36-40.35C2501.01,733.1,2509.32,730.516,2521.29,725.372ZM1886.66,894.163h290.65c46.4,0,94.88-5.305,114.74,21.238,17.2,23,10.2,81.129,10.2,119.779v299.04q-0.435,501.6-.85,1003.29v266.75c0,35.11,6.46,88.36-7.65,111.29-17.69,28.74-57.83,25.49-104.54,25.49H243c-57.036,0-195.48,10.9-218.417-18.69-21.707-28.01-12.75-149.53-12.748-202.19q0.425-251.445.85-502.92V996.956c0-40.33-1.649-73.129,21.247-90.05,24.893-18.4,90.538-10.2,131.731-10.194l325.5-.85ZM116.367,1000.35q-0.425,674.46-.85,1349.05c0.567-.28,1.133-0.56,1.7-0.85C418.841,1862.63,563.4,1634.68,563.4,1633.25s114.137,184.18,405.391,654.99c0.283-.57.566-1.14,0.85-1.7q280-455.31,560.068-910.7,333.96,542.805,668,1085.7,0.42-731.79.85-1463.735Q1157.575,999.08,116.367,1000.35Z"/>
</svg>
