<svg id="V1" xmlns="http://www.w3.org/2000/svg" width="3000" height="3000" viewBox="0 0 3000 3000">
  <defs>
    <style>
      .cls-1 {
        fill-rule: evenodd;
      }
    </style>
  </defs>
  <path id="_6" data-name="6" class="cls-1" d="M2659.65,2410.71v205c0,39,2.52,73.4-16.9,92.37-25.58,24.98-88.59,18.02-138.61,18.02h-2300c-69.232,0-161.439,13.4-187.065-31.54-16.352-28.67-7.891-94.52-7.888-136.29V2232.74q0.563-569.895,1.127-1139.91V744.769c0-48.363-7.3-111.446,16.9-136.294,20.079-20.613,56.709-18.025,98.04-18.022H340.491V384.323c0-37.968-2.261-72.837,18.031-90.112,29.241-24.894,93.523-18.026,147.624-18.022H861.119l1406.371-2.253h529.64c67.08,0,160-13.164,185.94,29.286,15.96,26.126,7.89,89.135,7.89,128.409V1907.21q-0.57,170.07-1.13,340.17c0,42.63,8.64,111.17-10.14,137.42-19.94,27.87-57.43,25.91-105.93,25.91H2659.65ZM459.943,395.587V590.453L2124.37,588.2h387.66c53.96,0,114.26-7.345,137.48,23.655,18.58,24.82,11.27,86.446,11.27,128.409V1059.03q-0.57,616.08-1.13,1232.28h210.73q0.555-948.9,1.13-1897.976ZM129.761,709.851q-0.562,781.634-1.126,1563.439c0.751-.38,1.5-0.75,2.253-1.13Q388.359,1857.7,645.881,1443.13c0.751,0.38,1.5.76,2.254,1.13Q882.506,1822.7,1116.92,2201.2h2.26Q1442,1673.53,1764.89,1145.77c13.55,4.65,47.2,72,56.35,87.85,44.1,76.41,92.95,151.65,139.73,227.54q290.145,470.775,580.35,941.66V707.6Z"/>
</svg>
