<svg id="V1" xmlns="http://www.w3.org/2000/svg" width="3000" height="3000" viewBox="0 0 3000 3000">
  <defs>
    <style>
      .cls-1 {
        fill-rule: evenodd;
      }
    </style>
  </defs>
  <path id="_8" data-name="8" class="cls-1" d="M2510.2,344.591c8.11-.081,26.63-2.348,30.18,2.564,2.93,4.071,1.28,16.066,1.28,22.439V752.327c0,9.231,1.57,22.795-2.25,28.529-4.91,1.881-29.81,3.444-33.06-.641-2.91-3.65-1.61-14.028-1.61-20.2V372.8C2504.74,360.615,2502.38,349.623,2510.2,344.591Zm-19.26,305.161v32.7c-23.16-.178-50.22.643-71.59,4.167-17.2,2.835-34.34,2.691-50.41,5.77q-27.435,4.167-54.89,8.334c-37.05,8.162-74.33,15.752-107.23,28.529-11.6,4.506-23.03,9.895-34.03,14.745-31.47,13.881-72.1,37.181-78.33,75.649-1.58,9.767,3.66,19.412,7.06,25,11.34,18.648,28.26,30.6,46.87,41.992,47.69,29.181,107.38,43.149,170.79,57.057,18.22,4,36.36,4.9,55.54,8.334,19.61,3.514,40.27,2.811,61,6.091l29.21,1.6q0.165-27.564.32-55.134c0.65-.641,1.29-1.282,1.93-1.923,6.99-.034,25.46,11.517,31.78,14.745q42.69,21.315,85.4,42.633l30.17-1.923c25-4.091,49.71-3.159,73.2-7.693,16.69-3.222,32.5-4.165,48.48-7.693,59.59-13.166,116.26-26.837,161.8-53.853,23.49-13.939,50.4-30.2,57.14-60.583,2.78-12.523-3.02-24.056-7.7-31.414-13.71-21.508-36.06-35.907-59.39-47.761-35.55-18.059-76-30.711-119.11-41.671q-29.685-5.77-59.39-11.54c-18.4-3.842-37.15-3.753-56.5-7.052-30.13-5.135-64.21-6.39-97.6-6.411v-32.7c35.31-.337,74.79,1.663,106.27,7.052l40.77,4.808c33.28,6.607,66.94,11.123,97.27,20.2,39.1,11.694,76.31,22.111,108.19,40.709,37.76,22.029,72.2,43.576,80.58,95.2,1.97,12.135-2.8,24.738-6.1,32.7-11.31,27.283-33.39,45.347-57.15,60.263-44.56,27.987-98.36,44.435-156.98,58.98-23.61,5.86-48.15,8.552-72.88,13.143-25.48,4.733-52.02,4.094-78.33,8.334l-34.67,1.6q-42.045,20.988-84.11,41.992c-6.09,3.09-24.62,15.13-31.14,14.1-0.64-.74-1.28-1.49-1.93-2.24q-0.315-26.925-.64-53.852a317.694,317.694,0,0,1-53.61-3.847c-19.82-3.317-39.76-3.139-58.43-6.731-24.4-4.7-47.82-6.75-70.95-12.5-60.44-15.034-114.96-32.472-160.51-61.545-22.59-14.414-42.87-32.148-53.62-58.339-3.3-8.052-7.8-20.33-5.77-32.7,8.6-52.541,46.85-77.53,87.32-98.088,46.26-23.5,100.15-37.007,157.62-50.326l41.74-6.411C2391.08,653.82,2441.86,649.807,2490.94,649.752Zm27.93,157.068c43.77-.837,45.42,53.887,8.66,60.584-21.8,3.973-40.97-19.04-33.38-40.389C2498.57,814.559,2506.89,811.969,2518.87,806.82ZM2047.62,977.043c60.39-.566,120.38-5.376,146.46,28.237,23.53,30.32,16.74,95.94,16.74,149.55v353.48q264.645-109.275,529.36-218.57c37.78-15.93,153.15-78.29,198.77-60.66a75.636,75.636,0,0,1,44.98,49.15c5.04,17.05,2.09,43.32,2.09,63.8v793.76c0.01,69.09,13.45,209.06-16.73,247.85-43.51,55.92-153.7-7.83-201.91-28.24q-278.25-115.02-556.56-230.07v374.39c0,65.27,6.02,126.19-31.39,153.74-27.02,19.89-86.6,13.59-132.86,13.59H167.663c-64.509.01-118.915,5.23-143.324-34.51-20.431-33.26-10.464-136.48-10.462-189.29V1251.04c0-81.05-16.406-219.77,29.293-255.172,30.184-23.383,95.217-16.736,148.555-16.733H542.189Z"/>
</svg>
