<svg id="V1" xmlns="http://www.w3.org/2000/svg" width="3000" height="3000" viewBox="0 0 3000 3000">
  <defs>
    <style>
      .cls-1 {
        fill-rule: evenodd;
      }
    </style>
  </defs>
  <path id="_9" data-name="9" class="cls-1" d="M1451.71,369.9c26-.259,85.4-7.54,96.77,8.237,9.42,13.075,4.12,51.6,4.11,72.068V1679.48c0.01,29.65,5.03,73.21-7.2,91.63-15.75,6.04-95.59,11.06-106.03-2.06-9.33-11.72-5.15-45.06-5.15-64.86V460.5C1434.21,421.366,1426.65,386.06,1451.71,369.9Zm-61.76,980.122v105.02c-74.24-.57-161.02,2.06-229.56,13.38-55.13,9.11-110.08,8.64-161.613,18.53q-88.005,13.4-176.028,26.77c-118.791,26.22-238.322,50.59-343.819,91.63-37.211,14.48-73.851,31.78-109.117,47.36-100.923,44.58-231.2,119.42-251.174,242.97-5.071,31.37,11.747,62.35,22.647,80.31,36.359,59.89,90.607,98.29,150.293,134.87,152.92,93.72,344.309,138.59,547.641,183.26,58.4,12.83,116.563,15.72,178.09,26.76,62.87,11.29,129.13,9.03,195.58,19.57q46.83,2.565,93.68,5.14,0.51-88.53,1.03-177.08,3.09-3.09,6.17-6.18c22.41-.11,81.64,37,101.91,47.36q136.9,68.46,273.82,136.93,48.39-3.09,96.77-6.17c80.14-13.14,159.39-10.15,234.7-24.71,53.51-10.35,104.22-13.38,155.44-24.71,191.09-42.29,372.82-86.2,518.82-172.97,75.33-44.77,161.63-97,183.23-194.58,8.91-40.22-9.67-77.26-24.7-100.89-43.94-69.08-115.62-115.33-190.44-153.41-113.98-58-243.7-98.64-381.91-133.84q-95.2-18.525-190.44-37.06c-58.99-12.34-119.11-12.06-181.17-22.65-96.62-16.49-205.88-20.52-312.94-20.59V1350.02c113.22-1.08,239.79,5.34,340.73,22.65l130.73,15.45c106.73,21.22,214.65,35.72,311.91,64.86,125.38,37.56,244.68,71.02,346.91,130.75,121.08,70.75,231.51,139.96,258.38,305.78,6.32,38.97-8.98,79.45-19.56,105.01-36.25,87.63-107.07,145.65-183.23,193.55-142.91,89.89-315.42,142.72-503.38,189.44-75.72,18.82-154.41,27.47-233.67,42.21-81.72,15.2-166.81,13.15-251.18,26.77q-55.575,2.565-111.17,5.15-134.835,67.425-269.7,134.87c-19.52,9.93-78.95,48.59-99.86,45.3q-3.09-3.615-6.17-7.21-1.035-86.475-2.06-172.96c-57.45.57-118.97-3.48-171.91-12.36-63.54-10.65-127.5-10.08-187.353-21.62-78.253-15.08-153.344-21.68-227.5-40.15-193.825-48.29-368.642-104.3-514.7-197.67-72.415-46.3-137.458-103.26-171.91-187.38-10.591-25.86-25.021-65.29-18.529-105.01,27.58-168.76,150.247-249.02,280-315.04,148.342-75.49,321.158-118.87,505.436-161.64q66.9-10.3,133.822-20.59C1069.77,1363.09,1232.57,1350.2,1389.95,1350.02Zm89.56,504.48c140.37-2.69,145.66,173.08,27.79,194.58-69.93,12.77-131.37-61.15-107.06-129.72C1414.43,1879.36,1441.09,1871.04,1479.51,1854.5Z"/>
</svg>
