<svg id="V3" xmlns="http://www.w3.org/2000/svg" width="3000" height="3000" viewBox="0 0 3000 3000">
  <defs>
    <style>
      .cls-1 {
        fill-rule: evenodd;
      }
    </style>
  </defs>
  <g id="group" data-name="group 2">
    <path id="_128" data-name="128" class="cls-1" d="M208,221c288.54-4.311,281.228,376.726,13,407C54.051,646.843-13.662,447.5,64,323,98.643,267.463,144.464,248.872,208,221Zm912,2543V231l649-1-34-2c110.97,6.527,115.41,7.937,146,10s268.99,67.325,373,114c508.6,228.228,934.95,896.39,629,1611-146.29,341.68-415.34,590.39-770,723-106.66,26-321.49,78.5-320,78S1648.7,2765.47,1120,2764ZM1771,231h0ZM1509,391q-22.5,51.5-45,103V1740c0,151.19,8.47,318.42-8,457-12.25,103.02-8.33,352.47,46,394,24.09,18.42,84.01,20.92,126,16,477.69-55.94,848.82-247.26,1014-613,94.72-209.73,140.18-495.43,62-761C2559.69,742.826,2145.18,389.04,1509,391ZM398,919V2775c-0.333.33-.667,0.67-1,1q-169.483-.495-339-1c-0.333-.33-0.667-0.67-1-1V920l1-1H398Z"/>
  </g>
</svg>
