<svg id="V3" xmlns="http://www.w3.org/2000/svg" width="3000" height="3000" viewBox="0 0 3000 3000">
  <defs>
    <style>
      .cls-1 {
        fill-rule: evenodd;
      }
    </style>
  </defs>
  <path id="_129" data-name="129" class="cls-1" d="M1724.27,520.188c669.66-8.326,1158.84,287.561,1246.17,862.772,40.57,267.27-70.55,485.64-177.84,632.27-333.44,455.7-940.28,491.89-1748.06,453.12q0.66-30.96,1.32-61.91c104.22,22.3,240.68-33.21,274-96.16,36.17-68.33,31.61-1573.942-2.64-1632.026-44.99-76.319-163.6-87.245-272.68-92.205V528.092ZM21,2467.03v-60.59c120.014-.4,268.844-11.03,294.308-154.66,5.6-78.32,3.317-1428.225-.257-1518.775C290.44,605.553,131.594,575.482,21,584.732V526.775H911.5V580.78c-111.28-15.36-283.582,37.968-290.182,138.231-9.8,124.613-6.374,1489.169-4.074,1536.389,25.093,143.07,175.574,157.23,294.256,156.31l1.317,54-1.317,1.32H21ZM1683.43,649.275q-20.415,40.83-40.83,81.668V2262.86c7.12,34.95,23.86,59.63,42.15,82.99,586.18,6.98,1023.83-238.39,1089.41-750.82,23.87-186.47-38.6-355.33-111.97-468.92-148-229.15-394.69-380.479-706.07-445.222Z"/>
</svg>
