<svg id="V1" xmlns="http://www.w3.org/2000/svg" width="3000" height="3000" viewBox="0 0 3000 3000">
  <defs>
    <style>
      .cls-1 {
        fill-rule: evenodd;
      }
    </style>
  </defs>
  <g id="way">
    <path id="_16" data-name="16" class="cls-1" d="M61.773,358.429H2826.84c26.63,0,126.73-6.025,142.7,2,6.78,3.4,15.63,14.51,12.97,26.953-4.01,18.78-23.29,36.668-32.93,51.91q-35.91,54.9-71.84,109.81-114.255,175.179-228.51,350.393-402.1,616.377-804.28,1232.868Q1716.73,2329,1588.5,2525.67q-29.94,45.915-59.87,91.84c-6.49,9.9-14.25,29.37-33.93,24.96-21.73-4.87-65.67-89.46-79.83-110.81q-110.25-168.69-220.53-337.41Q770.8,1547.435,347.161,900.49L89.713,506.173,23.854,405.348c-6.488-10.423-12.167-27.476-2-38.933C30.856,356.28,47.25,363.839,61.773,358.429Z"/>
  </g>
</svg>
