<svg id="V1" xmlns="http://www.w3.org/2000/svg" width="3000" height="3000" viewBox="0 0 3000 3000">
  <defs>
    <style>
      .cls-1 {
        fill-rule: evenodd;
      }
    </style>
  </defs>
  <g id="way">
    <path id="_17" data-name="17" class="cls-1" d="M1495.7,357.427c32.61,0.709,66.95,75.9,82.83,99.827l212.54,325.437Q2228.59,1450.97,2666.2,2119.37q126.21,193.155,252.45,386.34,30.435,46.9,60.87,93.83c6.97,13.02,3.75,31.39-6.98,37.94-10.17,6.2-34.71,2.99-49.89,2.99H186.511c-34.274.01-153.984,7.24-165.644-9.98-10.329-15.26,2.566-30.51,8.981-40.93q30.93-46.41,61.867-92.84,128.213-197.64,256.45-395.31Q755.252,1478.55,1162.42,855.564q117.24-179.67,234.5-359.377C1421.46,459.211,1460.67,378.644,1495.7,357.427Z"/>
  </g>
</svg>
