<svg id="end" xmlns="http://www.w3.org/2000/svg" width="3000" height="3000" viewBox="0 0 3000 3000">
  <defs>
    <style>
      .cls-1 {
        fill-rule: evenodd;
      }
    </style>
  </defs>
  <path id="_184" data-name="184" class="cls-1" d="M2114.7,33.552c499.05-20.573,1015.62,547.7,842,1044.408-92.38,264.28-344.82,459.07-531.02,650.21-89.63,92.02-291.55,268.6-291.55,268.6s62.72-120.4,79.52-247.39-10.46-229.63-10.46-229.63,97.21-97.43,146.51-146.76c285.8-285.91,500.94-495.106,151.25-875.677-58.56-63.732-142.7-118.024-243.13-145.688-299.78-82.577-534.61,204.539-673.22,342.812C1360.71,917.779,948,1242.83,1207.59,1604.82c71.82,100.14,155.7,182.06,304.56,234.68,49.65,17.54,122.61,34.24,189.07,24.74q38.865-7.065,77.75-14.14c-16.79,39.57-275.65,302.17-275.65,302.17s-74.22-21.21-111.32-31.81c-267.53-106.91-492.2-335.58-559.912-625.6-106.062-454.28,303.862-783.347,519.272-1000.1,127.62-128.422,259.82-272.482,422.31-364.017,68.83-38.778,151.32-64.8,236.77-84.819ZM1489.18,842.87c377.66,59.633,804.59,563.48,668.04,1004.5-86.2,278.41-323.17,460.1-512.54,649.48-128.3,128.3-246.3,263.09-402.87,356.95-105.65,63.33-282.883,129.53-434.681,109.56C381.7,2893.44,113.175,2659.76,20.823,2274.2c-26.908-112.34,1.214-260.89,31.806-348.12,2.945-8.24,17.682-48.66,49.747-108.07,40.551-99.03,255.7-343.01,437.94-524.54,67.1-66.84,325.637-300.306,343.94-311.056,0,0-76.91,153.806-91.262,259.816-31.386,94.72,0,227.95,0,227.95S707,1557.36,664,1600.94c-165.67,173.78-497.354,458.38-275.649,773.98,69.907,105.87,184.622,237.94,376.367,273.9,95.872,33.95,224.991-6.67,303.918-49.48,186.06-100.92,797.59-718.42,796.91-844.66,71.4-236.12-184.84-531.18-363.97-593.67-85.28-29.76-177.78-40.07-270.38-12.44C1257.26,1082.6,1473.89,864.277,1489.18,842.87Z"/>
</svg>
