<svg id="end" xmlns="http://www.w3.org/2000/svg" width="3000" height="3000" viewBox="0 0 3000 3000">
  <defs>
    <style>
      .cls-1 {
        fill-rule: evenodd;
      }
    </style>
  </defs>
  <path id="_195" data-name="195" class="cls-1" d="M1723.75,468.007h416c-1.1-151.393-28.78-358.079,65.92-417.073,42.06-26.2,117.7-20.455,186.4-20.456,262,0,206.21,190.62,204.59,437.529,322.74-2.827,263.7,249.742,263.69,555.723V2394.27c0.01,286.82,61.03,565.53-218.22,585.27H779.239c-236.374,0-552.531,49.18-620.584-123.88-40.159-102.12-17.051-379.24-17.049-519.35V790.756c0-65.795-6.5-145.238,12.5-193.195C193.284,498.715,276.051,467.056,417.8,468.007c-1.075-152.683-30.612-367.323,67.06-425.028,42.524-25.124,118.471-19.319,186.4-19.32,261.114,0,205.035,197.944,203.451,444.347H1266.84c-1.06-154.079-31.61-375.823,67.06-434.119,42.52-25.124,118.56-19.319,186.4-19.319C1783.39,14.565,1725.31,219.875,1723.75,468.007ZM1398.69,146.4V856.669l192.08,1.136,1.14-1.136q-0.57-354.532-1.14-709.137l-1.14-1.137H1398.69ZM551.919,154.35q-1.137,355.67-2.273,711.411L741.731,866.9l1.136-1.136q-0.567-355.1-1.136-710.274Zm1721.951,6.819q-0.57,355.67-1.14,711.41l1.14,1.137,190.95-1.137c0.37-.378.75-0.757,1.13-1.136q-0.57-353.965-1.13-708ZM528.05,1057.82c-41.259,9.06-192.575-12.9-211.407,9.09-22.544,26.32-6.822,348.32-6.82,411.39V2668.15c1.255,22.95-8.038,133.36,13.639,146.6q243.777,2.28,487.6,4.55h1298l367.12-1.14c40.48,0,203.48,8.17,217.09-10.23,19.84-26.81,5.69-643.64,5.69-734.14V1314.65c0-45.47,8.89-235.23-11.37-250.01-24.66-17.99-495.39-5.69-571.71-5.68Zm1663.98,188.65q83.535,0.57,167.08,1.13c-0.38,1.14-.76,2.28-1.13,3.41Q1840.3,1912.36,1322.53,2573.83q-294.345-380.67-588.755-761.42,89.214-.555,178.446-1.13,207.973,271,416,542.08Q1760.085,1799.965,2192.03,1246.47Z"/>
</svg>
