<svg id="end" xmlns="http://www.w3.org/2000/svg" width="3000" height="3000" viewBox="0 0 3000 3000">
  <defs>
    <style>
      .cls-1 {
        fill-rule: evenodd;
      }
    </style>
  </defs>
  <path id="_197" data-name="197" class="cls-1" d="M1723.75,468.007h416c-1.1-151.393-28.78-358.079,65.92-417.073,42.06-26.2,117.7-20.455,186.4-20.456,262,0,206.21,190.62,204.59,437.529,322.74-2.827,263.7,249.742,263.69,555.723V2394.27c0.01,286.82,61.03,565.53-218.22,585.27H779.239c-236.374,0-552.531,49.18-620.584-123.88-40.159-102.12-17.051-379.24-17.049-519.35V790.756c0-65.795-6.5-145.238,12.5-193.195C193.284,498.715,276.051,467.056,417.8,468.007c-1.075-152.683-30.612-367.323,67.06-425.028,42.524-25.124,118.471-19.319,186.4-19.32,261.114,0,205.035,197.944,203.451,444.347H1266.84c-1.06-154.079-31.61-375.823,67.06-434.119,42.52-25.124,118.56-19.319,186.4-19.319C1783.39,14.565,1725.31,219.875,1723.75,468.007ZM1398.69,146.4V856.669l192.08,1.136,1.14-1.136q-0.57-354.532-1.14-709.137l-1.14-1.137H1398.69ZM551.919,154.35q-1.137,355.67-2.273,711.411L741.731,866.9l1.136-1.136q-0.567-355.1-1.136-710.274Zm1721.951,6.819q-0.57,355.67-1.14,711.41l1.14,1.137,190.95-1.137c0.37-.378.75-0.757,1.13-1.136q-0.57-353.965-1.13-708ZM528.05,1057.82c-41.259,9.06-192.575-12.9-211.407,9.09-22.544,26.32-6.822,348.32-6.82,411.39V2668.15c1.255,22.95-8.038,133.36,13.639,146.6q243.777,2.28,487.6,4.55h1298l367.12-1.14c40.48,0,203.48,8.17,217.09-10.23,19.84-26.81,5.69-643.64,5.69-734.14V1314.65c0-45.47,8.89-235.23-11.37-250.01-24.66-17.99-495.39-5.69-571.71-5.68Zm1496.88,711.05c7.35,0.2,385.67.49,396.94,0.49,51.86-.41,48.4,17.99,49.15,41.28,0.25,12.78-.75,272.73-0.42,276.43-0.16,28.83-11.93,34.11-40.73,34.04,0.05,0.05-411.97.44-418.75,0.28-22.7.79-35.32-12.77-33.91-31.69-0.05-6.82-.05-253.51-0.07-268.12C1976.61,1785.15,1975.77,1766.83,2024.93,1768.87Zm0.22,603.94c7.35,0.21,385.69.49,396.97,0.49,51.86-.41,48.4,17.97,49.15,41.24,0.25,12.76-.75,272.42-0.42,276.13-0.16,28.79-11.93,34.07-40.73,34,0.05,0.04-412.01.43-418.78,0.28-22.7.78-35.33-12.76-33.91-31.65-0.06-6.82-.05-253.23-0.08-267.83C1976.82,2389.08,1975.98,2370.78,2025.15,2372.81Zm-744.47,0c7.35,0.21,385.69.49,396.97,0.49,51.86-.41,48.4,17.97,49.15,41.24,0.25,12.76-.76,272.42-0.42,276.13-0.17,28.79-11.94,34.07-40.73,34,0.05,0.04-412.01.43-418.79,0.28-22.7.78-35.32-12.76-33.91-31.65-0.05-6.82-.05-253.23-0.07-267.83C1232.35,2389.08,1231.51,2370.78,1280.68,2372.81Zm2.27-605.72c7.35,0.21,385.69.49,396.97,0.49,51.86-.41,48.4,17.97,49.15,41.24,0.25,12.76-.75,272.42-0.42,276.12-0.16,28.8-11.93,34.08-40.73,34.01,0.05,0.04-412,.43-418.78.27-22.7.79-35.33-12.75-33.91-31.65-0.06-6.81-.05-253.23-0.07-267.82C1234.62,1783.36,1233.78,1765.06,1282.95,1767.09Zm739.93-600.04c7.35,0.21,385.69.49,396.97,0.49,51.86-.41,48.4,17.97,49.15,41.24,0.25,12.76-.76,272.42-0.42,276.13-0.17,28.79-11.94,34.07-40.74,34,0.06,0.04-412,.43-418.78.27-22.7.79-35.32-12.75-33.91-31.65-0.05-6.81-.05-253.23-0.07-267.82C1974.55,1183.32,1973.71,1165.02,2022.88,1167.05Zm-741.07-3.41c7.35,0.21,385.7.49,396.97,0.49,51.87-.41,48.4,17.97,49.16,41.24,0.25,12.76-.76,272.42-0.42,276.13-0.17,28.79-11.94,34.07-40.74,34,0.05,0.04-412,.43-418.78.27-22.7.79-35.33-12.75-33.91-31.65-0.06-6.81-.05-253.22-0.07-267.82C1233.49,1179.91,1232.65,1161.61,1281.81,1163.64ZM539.615,2372.81c7.35,0.21,385.693.49,396.968,0.49,51.864-.41,48.4,17.97,49.153,41.24,0.251,12.76-.754,272.42-0.419,276.13-0.165,28.79-11.937,34.07-40.735,34,0.052,0.04-412,.43-418.781.28-22.7.78-35.328-12.76-33.909-31.65-0.057-6.82-.051-253.23-0.073-267.83C491.289,2389.08,490.449,2370.78,539.615,2372.81Zm0-606.86c7.35,0.21,385.693.49,396.968,0.49,51.864-.4,48.4,17.97,49.153,41.25,0.251,12.76-.754,272.42-0.419,276.12-0.165,28.79-11.937,34.07-40.735,34,0.052,0.05-412,.43-418.781.28-22.7.78-35.328-12.76-33.909-31.65-0.057-6.82-.051-253.23-0.073-267.83C491.289,1782.22,490.449,1763.92,539.615,1765.95Zm-1.137-598.9c7.351,0.21,385.693.49,396.968,0.49,51.865-.41,48.4,17.97,49.154,41.24,0.25,12.76-.755,272.42-0.42,276.13-0.165,28.79-11.937,34.07-40.734,34,0.052,0.04-412,.43-418.782.27-22.7.79-35.327-12.75-33.908-31.65-0.057-6.81-.052-253.23-0.074-267.82C490.152,1183.32,489.312,1165.02,538.478,1167.05Z"/>
</svg>
