<svg id="V1" xmlns="http://www.w3.org/2000/svg" width="3000" height="3000" viewBox="0 0 3000 3000">
  <defs>
    <style>
      .cls-1 {
        fill-rule: evenodd;
      }
    </style>
  </defs>
  <g id="star">
    <path id="_44" data-name="44" class="cls-1" d="M1604.03,329.172L1810.42,955.33s-403.42,220.41-469.47,262.4v1.06c79.61-7.71,535.32-74.35,535.32-74.35l20.95,65.49s720.44,1.42,1080.6,2.12q-435.9,314.715-871.9,629.5,190.68,573.27,381.39,1146.66l-987.37-711.1c-328.03,236.66-984.194,710.04-984.194,710.04s-0.707-.7-1.06-1.06c95.888-287.13,232.987-706.92,232.987-706.92L1179,2202l-389.926-38.28s71.338-215.5,107-323.23q-436.434-314.715-872.956-629.5c-0.353-.35-0.706-0.7-1.059-1.06q542.365-.525,1084.841-1.06c105.58-318.954,144.19-434.006,249.76-752.962C1423.23,421.946,1604.03,329.172,1604.03,329.172Z"/>
  </g>
</svg>
