<svg id="V1" xmlns="http://www.w3.org/2000/svg" width="3000" height="3000" viewBox="0 0 3000 3000">
  <defs>
    <style>
      .cls-1 {
        fill-rule: evenodd;
      }
    </style>
  </defs>
  <g id="star">
    <path id="_47" data-name="47" class="cls-1" d="M1499.94,23c14.06,15.709,31.35,92.305,40.26,117.633,32.13,96.429,24.73,79.3,96.52,294.7L1445,321.705q68.64,119.534,137.28,239.09Q1513.64,676.777,1445,792.782q80.46-47.34,160.95-94.689c24.19-14.768,47.35-37.908,78.1-44.977q15.39,9.468,30.77,18.938-39.045-118.35-78.1-236.722,23.655,11.835,47.33,23.672L1916,319.338v2.367c-46.54,78.111-139.64,234.355-139.64,234.355s93.1,157.823,139.64,236.722h-2.36q-97.035-57.992-194.08-115.994c167.24,500.222,103.86,309.2,178.72,533.142H2981c-0.35.71-.71,1.42-1.06,2.12q-436.44,314.715-872.96,629.5,191.2,572.745,382.45,1145.6c-0.7.71-1.41,1.41-2.12,2.12q-493.095-355.515-986.31-711.1C391.328,3077,518.331,2986.68,514.686,2987.15v-1.06q190.146-572.205,380.33-1144.54Q458.051,1525.245,21,1208.87H1105.84Q1302.865,616,1499.94,23Z"/>
  </g>
</svg>
