<svg id="V1" xmlns="http://www.w3.org/2000/svg" width="3000" height="3000" viewBox="0 0 3000 3000">
  <defs>
    <style>
      .cls-1 {
        fill-rule: evenodd;
      }
    </style>
  </defs>
  <g id="star">
    <path id="_48" data-name="48" class="cls-1" d="M1499.94,23c2.25,2.516-46.06-133.261,133.79,405.652Q1533.68,369.431,1433.6,310.2q71.64,124.614,143.3,249.253Q1505.26,680.361,1433.6,801.3q84-49.352,168.01-98.713c25.26-15.4,49.43-39.52,81.53-46.889q16.065,9.87,32.12,19.742-40.755-123.38-81.53-246.785,24.7,12.339,49.41,24.679,121.065-72.8,242.13-145.6V310.2Q1852.4,432.343,1779.5,554.513q72.885,123.379,145.77,246.784h-2.47q-101.28-60.455-202.6-120.924c174.58,521.487,103.22,305.619,178.08,529.557H2981c-0.35.71-.71,1.42-1.06,2.12q-436.44,314.715-872.96,629.5,191.2,572.745,382.45,1145.6c-0.7.71-1.41,1.41-2.12,2.12q-493.095-355.515-986.31-711.1C391.328,3077,518.331,2986.68,514.686,2987.15v-1.06q190.146-572.205,380.33-1144.54Q458.051,1525.245,21,1208.87H1105.84Q1302.865,616,1499.94,23Zm279.69,714.279c21.84,4.263,44.43,29.359,61.44,41.331q18.54,12.184,37.08,24.374,20.13,54.042,40.26,108.1,38.13,100.137,76.28,200.29h345.36c9.88,3.13,100.09,59.99,104.89,66.77-0.71,1.06-1.42,2.12-2.12,3.18q-179.025.525-358.08,1.06c-30.14,0-127.3,6.82-147.26-2.12q-58.26-162.135-116.54-324.288C1813.41,836.563,1777.07,752.694,1779.63,737.279Zm-548.78,4.239,5.3,1.06q-80.505,222-161.03,444.042-186.973-.54-373.977-1.06c-21.516,0-122.607,4.97-131.367-3.18,5.058-7.04,94.776-63.56,104.882-66.77H1020.03q58.26-154.17,116.53-308.387Q1183.705,774.373,1230.85,741.518ZM2476.72,1592.51q2.64,1.05,5.3,2.12-7.425,48.21-14.84,96.43-122.34,88.485-244.72,176.98,49.785,154.71,99.59,309.45c0.84,7.9-36.27,89.31-41.32,93.26-1.41-1.06-2.83-2.12-4.24-3.18q-68.85-211.92-137.72-423.9Q2307.73,1718.105,2476.72,1592.51Zm-1941.9,4.24c22.71,5.98,75.859,55.53,97.466,71q84.215,61.995,168.447,123.99c25.031,17.89,54,34.29,75.218,56.17L773.183,2160.54c-6.368,20.28-28.532,105.39-39.2,114.45-4.556-3.41-42.25-86.16-41.317-93.26q49.787-154.71,99.584-309.45-92.158-67.29-184.337-134.59c-14.935-10.67-52.036-29.85-60.387-44.51C542.192,1681.24,530.636,1606.4,534.815,1596.75Zm967.245,718.51q153.075,108.09,306.17,216.19v4.24c-0.35.36-.71,0.71-1.06,1.06q-54.555,1.065-109.12,2.12-96.39-68.88-192.81-137.77-107.52,76.83-215.06,153.67c-12.59,4.08-100.15-.05-108.06-4.24,0.35-1.06.7-2.12,1.06-3.18Q1342.6,2431.325,1502.06,2315.26Z"/>
  </g>
</svg>
