<svg id="V1" xmlns="http://www.w3.org/2000/svg" width="3000" height="3000" viewBox="0 0 3000 3000">
  <defs>
    <style>
      .cls-1 {
        fill-rule: evenodd;
      }
    </style>
  </defs>
  <g id="star">
    <path id="_44" data-name="44" class="cls-1" d="M1553.97,99.2q141.945,423.862,283.92,847.809-106.455,41.856-212.94,83.718v1.06q113.355-22.245,226.72-44.507,22.77,67.81,45.55,135.647,540.24,1.065,1080.6,2.12-435.9,314.715-871.9,629.5,190.68,573.27,381.39,1146.66l-987.37-711.1Q1007.9,2545.1,515.746,2900.15c-0.353-.35-0.707-0.7-1.06-1.06q93.748-280.275,187.517-560.61,35.486-108.615,70.98-217.25l50.852-22.26c-0.353-.35-0.706-0.7-1.059-1.06q-16.95-10.59-33.9-21.19,53.5-161.595,107-323.23-436.434-314.715-872.956-629.5c-0.353-.35-0.706-0.7-1.059-1.06q542.365-.525,1084.841-1.06,158.37-478.429,316.76-956.962Q1488.8,132.06,1553.97,99.2Z"/>
  </g>
</svg>
