<svg id="V1" xmlns="http://www.w3.org/2000/svg" width="3000" height="3000" viewBox="0 0 3000 3000">
  <defs>
    <style>
      .cls-1 {
        fill-rule: evenodd;
      }
    </style>
  </defs>
  <g id="star">
    <path id="_47" data-name="47" class="cls-1" d="M1499.94-64c14.06,15.709,31.35,92.305,40.26,117.634l96.4,289.314-85.81-50.868q30.72,53.512,61.45,107.036-30.72,51.923-61.45,103.856l72.04-42.39c10.83-6.612,21.2-16.971,34.96-20.136q6.885,4.239,13.78,8.478-17.49-52.983-34.97-105.976,10.605,5.3,21.19,10.6,51.915-31.26,103.83-62.526v1.06Q1730.36,344.532,1699.11,397q31.245,52.983,62.51,105.976h-1.06q-43.44-25.962-86.88-51.928,112.29,335.91,224.6,671.886H2981c-0.35.71-.71,1.42-1.06,2.12q-436.44,314.715-872.96,629.5,191.2,572.745,382.45,1145.6c-0.7.71-1.41,1.41-2.12,2.12q-493.095-355.515-986.31-711.1C391.328,2990,518.331,2899.68,514.686,2900.15v-1.06q190.146-572.205,380.33-1144.54Q458.051,1438.245,21,1121.87H1105.84Q1302.865,529,1499.94-64Z"/>
  </g>
</svg>
