<svg id="V1" xmlns="http://www.w3.org/2000/svg" width="3000" height="3000" viewBox="0 0 3000 3000">
  <defs>
    <style>
      .cls-1 {
        fill-rule: evenodd;
      }
    </style>
  </defs>
  <g id="star">
    <path id="_48" data-name="48" class="cls-1" d="M1499.94-64c2.25,2.516,59.55,175.524,136.66,406.948l-85.81-50.868q30.72,53.512,61.45,107.036-30.72,51.923-61.45,103.856l72.04-42.39c10.83-6.612,21.2-16.971,34.96-20.136q6.885,4.239,13.78,8.478-17.49-52.983-34.97-105.976,10.605,5.3,21.19,10.6,51.915-31.26,103.83-62.526v1.06Q1730.36,344.532,1699.11,397q31.245,52.983,62.51,105.976h-1.06q-43.44-25.962-86.88-51.928,112.29,335.91,224.6,671.886H2981c-0.35.71-.71,1.42-1.06,2.12q-436.44,314.715-872.96,629.5,191.2,572.745,382.45,1145.6c-0.7.71-1.41,1.41-2.12,2.12q-493.095-355.515-986.31-711.1C391.328,2990,518.331,2899.68,514.686,2900.15v-1.06q190.146-572.205,380.33-1144.54Q458.051,1438.245,21,1121.87H1105.84Q1302.865,529,1499.94-64Zm279.69,714.279c21.84,4.264,44.43,29.359,61.44,41.331l37.08,24.374q20.13,54.042,40.26,108.1,38.13,100.137,76.28,200.29h345.37c9.87,3.13,100.08,59.99,104.88,66.77-0.71,1.06-1.42,2.12-2.12,3.18q-179.025.525-358.08,1.06c-30.14,0-127.3,6.82-147.26-2.12q-58.26-162.129-116.54-324.288C1813.41,749.563,1777.07,665.694,1779.63,650.279Zm-548.78,4.239,5.3,1.06q-80.505,222-161.03,444.042-186.973-.54-373.977-1.06c-21.515,0-122.607,4.97-131.367-3.18,5.058-7.04,94.776-63.56,104.882-66.77H1020.03q58.26-154.174,116.53-308.387Q1183.705,687.374,1230.85,654.518ZM2476.72,1505.51q2.64,1.05,5.3,2.12-7.425,48.21-14.84,96.43-122.34,88.485-244.72,176.98,49.785,154.71,99.59,309.45c0.84,7.9-36.27,89.31-41.32,93.26-1.41-1.06-2.83-2.12-4.24-3.18q-68.85-211.92-137.72-423.9Q2307.73,1631.105,2476.72,1505.51Zm-1941.9,4.24c22.71,5.98,75.859,55.54,97.466,71q84.216,61.995,168.447,123.99c25.032,17.89,54,34.29,75.218,56.17L773.183,2073.54c-6.368,20.28-28.532,105.39-39.2,114.45-4.556-3.41-42.25-86.16-41.317-93.26q49.787-154.71,99.585-309.45-92.16-67.29-184.338-134.59c-14.934-10.67-52.036-29.85-60.387-44.51C542.193,1594.24,530.636,1519.4,534.815,1509.75Zm967.245,718.51q153.075,108.09,306.17,216.19v4.24c-0.35.36-.71,0.71-1.06,1.06q-54.555,1.065-109.12,2.12-96.39-68.88-192.81-137.77-107.52,76.83-215.06,153.67c-12.59,4.08-100.15-.05-108.06-4.24,0.35-1.06.7-2.12,1.06-3.18Q1342.6,2344.325,1502.06,2228.26Z"/>
  </g>
</svg>
