<svg id="V1" xmlns="http://www.w3.org/2000/svg" width="3000" height="3000" viewBox="0 0 3000 3000">
  <defs>
    <style>
      .cls-1 {
        fill-rule: evenodd;
      }
    </style>
  </defs>
  <g id="show">
    <path id="_54" data-name="54" class="cls-1" d="M2932,1449c39.85-.38,77.25,29.14,56,72-11.73,23.66-62.71,49.48-86,64-163.03,101.62-334.06,191.39-510,281-182.38,92.89-381.52,167.66-599,223-50.58,12.87-103.4,19.02-157,29-134.02,24.95-306.6,1.79-417-26-211.95-53.34-393.8-123.87-573-206-67.625-30.99-135.282-61.43-198-98q-49-25.5-98-51c-79.739-46.53-160.646-91.74-238-140-31.411-19.6-103.1-50.11-111-89-8.909-43.87,38.382-69.93,75-53q44,28.5,88,57,78.992,45.99,158,92c263.931,156.44,566.353,301.36,899,386,53.57,13.63,109.52,19.61,167,30l76,6c41.58,6.64,114.32-1.59,149-8,40.22-7.43,77.42-8.67,115-18,71.09-17.64,140.29-36.74,206-57,155.45-47.93,296.65-112.86,434-179,102.93-49.57,203.65-99.87,300-157C2756.53,1554.5,2841.12,1497.61,2932,1449Z"/>
  </g>
</svg>
