<svg id="V1" xmlns="http://www.w3.org/2000/svg" width="3000" height="3000" viewBox="0 0 3000 3000">
  <defs>
    <style>
      .cls-1 {
        fill-rule: evenodd;
      }
    </style>
  </defs>
  <g id="show">
    <path id="_55" data-name="55" class="cls-1" d="M1459,872c244.3-3.684,441.89,56.979,617,126,216.8,85.45,420.46,175.76,610,288,84.41,49.98,168.38,97.82,250,149,24.26,15.21,73.3,35.72,54,83-12.31,30.17-84.01,62.88-113,81-77.98,48.74-159.65,93.99-240,141q-48.99,25.5-98,51c-61.28,35.64-127.53,66.66-194,96-59.64,26.33-120.54,55.65-182,81-126.1,52.01-257.95,92.65-401,128-58.88,14.55-120.55,17.7-185,28q-41.49,1.005-83,2c-108.16.02-201.19-14.98-288-37-187.83-47.64-351-110.23-512-181-75.634-33.25-151.493-66.5-221-107q-61.494-31.995-123-64c-73.565-42.91-147.893-85.65-220-129-28.665-17.24-114.994-61.66-126-89-19.422-48.24,31.241-68.5,56-84,75.864-47.48,153.425-92.81,232-139,240.7-141.5,503.474-267.1,794-356,76.2-23.318,155.38-38.586,239-55l97-11Zm-381,176q-81.99,28.995-164,58c-94,38.77-184.916,80.89-276,121q-71.993,36.99-144,74c-66.894,39.13-136.207,70.68-202,110l-146,88,2,3,121,73,207,115c67.771,39.57,140.974,72.8,214,105,193.034,85.1,373.92,159.93,606,211,204.01,44.9,424.51,2.85,590-48,173.97-53.46,329.69-120.6,482-194,82.93-39.97,164.89-79.2,243-125l141-81q48-29.49,96-59c-0.33-.67-0.67-1.33-1-2q-51.99-31.5-104-63-108.99-60.99-218-122l-138-69q-63-30.495-126-61-100.485-42-201-84-70.995-24.495-142-49,22.5,27.99,45,56c42.01,59.54,70.25,131.41,89,214,20.79,91.59,4.38,204.55-19,278-56.71,178.18-183.43,299.42-357,361-69.57,24.68-178.71,40.28-268,22-222.64-45.57-362.95-170.94-438-364-29.644-76.26-48.826-200.93-25-300,18.112-75.31,43.2-139.78,79-197Q1051,1083.51,1078,1048Z"/>
  </g>
</svg>
