<svg id="V1" xmlns="http://www.w3.org/2000/svg" width="3000" height="3000" viewBox="0 0 3000 3000">
  <defs>
    <style>
      .cls-1 {
        fill-rule: evenodd;
      }
    </style>
  </defs>
  <path id="_59" data-name="59" class="cls-1" d="M1463.56,404.094c424.34-4,751.39,95.131,1011.07,257.1,48.66,30.352,94.03,60.461,138.1,94.773q40.32,35.79,80.65,71.585c29.91,24.13,61.58,55.017,83.66,86.708l153.23-63.519c15.57-6.6,40.16-11.5,51.41,3.025,13.92,17.988-3.19,80.017-9.08,104.856q-30.735,149.712-61.49,299.448c-7.05,29.99-10.84,101.46-34.27,111.91-30.08,13.42-78.54-33.53-97.78-46.38q-128.52-87.195-257.05-174.42c-19.23-13.54-91.59-47.09-84.68-79.65,4.6-21.65,22.82-24.44,41.33-32.27q62.49-26.205,125-52.424-4.53-5.04-9.07-10.082-54.435-47.382-108.87-94.774c-60.25-45.688-127.31-82.849-194.55-122-41.33-24.06-87.63-40.053-134.07-58.477-118.21-46.9-248.11-76.818-391.12-102.84-66.01-12.011-137.8-5.451-207.66-16.132h-55.44c-52.65-.006-103.92.608-151.21,8.066-42.95,6.774-83.55,5.142-123.99,13.107-127.11,25.038-244.322,52.409-353.82,95.782L745.838,755.967q-25.2,13.611-50.4,27.223L642.01,770.083,507.941,744.877l-63.507-12.1h2.016L490.8,701.523c39.7-26.443,80.367-49.771,122.981-74.609C770.383,535.64,953.691,482.17,1156.11,435.35c68.29-15.8,142.87-14.1,216.73-26.214ZM112.788,1576.67c33.507-.58,80.4,40.41,104.836,55.45q122.466,75.105,244.955,150.23c21.627,13.31,99.405,44.92,90.723,81.66-4.812,20.38-27.756,25.54-45.361,33.28q-66.525,31.245-133.062,62.51l2.016,2.01c10,21.78,34.956,41.02,51.41,57.47,44.255,44.26,91.356,85.23,143.142,122,125.887,89.37,270.205,156.75,434.463,208.7,61.43,19.43,128.22,29.56,193.55,44.37,60.04,13.6,125.39,10.62,190.52,22.18q38.3,2.01,76.61,4.03h49.39c42.73,0,85.96,1.72,123.99-5.04q63-5.55,126.01-11.09c86.87-16.74,169.6-28.58,248.98-52.43,44.43-13.35,88.33-27.37,130.04-44.36,11.64-4.75,39.67-21.42,49.4-18.15q81.63,32.265,163.3,64.53c11.4,4.56,55.12,17.46,54.43,24.19q-40.815,21.18-81.65,42.35L2203.47,2474c-116.82,46.64-246.67,73.1-384.07,100.82-44.53,8.98-89.92,6.36-137.09,14.11-52.04,8.56-109.14,8.06-167.34,8.07q-46.365-1.515-92.74-3.02c-42.31-7-85.43-2.21-124.99-9.08q-37.29-4.035-74.6-8.06c-76.6-15.34-153.15-24.97-224.791-46.38-204.67-61.17-379.463-139.17-533.254-249.04-69.711-49.8-141.311-107.06-194.552-173.41-18.075-22.53-46.344-44.34-58.467-71.59q-68.539,31.755-137.093,63.52c-16.034,8.11-42.469,16.45-55.442-1.01C5.9,2081.25,22,2004.41,27.1,1978.95l45.362-287.34C82.459,1641.96,71.625,1597.79,112.788,1576.67Z"/>
</svg>
