<svg xmlns="http://www.w3.org/2000/svg" viewBox="0 0 2994.91 3000">
  <title>142Icon_neon 1</title>
  <g>
    <path d="M271,1864.66c102.57,35.43,209.52,57,313,77.91q19.15,3.87,38.32,7.77l14.42,3,1.14-14.67C662.91,1618.16,765,1048.18,1167.25,831.35l51.9-28-58.85,3.56C1036.77,814.4,912.19,845,790,897.86c-119.31,51.62-230.87,122-331.59,209.3-210.5,182.37-351.23,420-396.27,669.14l-1.9,10.6,10,3.84C151.23,1821.74,213.12,1844.54,271,1864.66Zm481.21-569.22C713,1391.1,680.85,1498.68,656.7,1615.2c-20,96.59-34.68,199.71-43.6,306.74l-23.16-4.68-.86-.17c-102.59-20.72-208.68-42.14-309.59-77-55.15-19.19-114-40.83-189.78-69.77C180,1301.5,626.58,895.09,1105,838,955.68,934.57,837.16,1088.17,752.19,1295.44Z"/>
    <path d="M2413.59,1992.35c-234.66,61.67-504,106.11-739,121.93-101.83,6.86-204.33,10.33-304.65,10.33-478.89,0-937.48-79.74-1326.19-230.62l-16.06-6.23-6.09,65.74,8.2,3.9c69.41,33,222,97,464.21,154.54,104.55,24.85,212.67,45.2,321.34,60.49a3505,3505,0,0,0,362.6,32.05c44.43,1.59,89.82,2.39,134.91,2.39,184.45,0,374.33-13.27,564.37-39.44,179.81-24.76,358.25-60.31,545.51-108.67l10.42-2.68-4.31-67.74ZM50.42,1924.41c236.71,90.27,497.53,154.51,775.48,191,177.59,23.29,361.75,35.1,547.34,35.1,100.06,0,202-3.45,303.11-10.26,231.42-15.58,496-58.75,728.57-118.74l.94,14.77c-374.75,95.95-742.7,144.61-1093.72,144.61-44.49,0-89.33-.8-133.26-2.36C687.68,2161,265.66,2038.78,49.18,1937.78Z"/>
    <path d="M1631.61,2021c.08,0,9.24-.27,40.64-2.13l18.32-1.3-.15-12.25c-.53-45.48-.44-92.61-.36-138.17v-.22c.29-154,.59-313.29-21.56-466.17-12-82.84-29.39-156.25-53.15-224.42-26.81-77-60.89-145-104.17-208-30.2-48.23-67-95.15-105.14-143l-2.85-3.57-4.46-1c-13-2.93-23-4.52-32.75-6-7.39-1.17-15-2.38-23.81-4.18l-4.36-.9-4,2c-106,52.32-198.67,122.18-275.27,207.61C988.81,1097,930,1190.31,883.7,1296.67c-41.53,95.43-73.49,200.82-97.68,322.19-20.32,101.94-34.84,214.1-44.38,342.92l-.86,11.71,11.55,2c27.88,5,30.95,5.43,31,5.44l13,2.09,1.88-13.08c11.35-79.31,64-142.94,152.28-184,80.17-37.3,183.59-53.43,291.2-45.41,102,7.59,195.56,36.28,263.59,80.77,74.35,48.63,113.39,113.14,112.91,186.55l-.11,13.48Zm-863.16-69c31-404.16,126-892,572.9-1115.11,7.49,1.45,14.13,2.49,20.58,3.51,8.14,1.29,16.53,2.61,26.66,4.76,36.7,46,71.93,91.19,100.7,137.18l.3.45c175.66,255.64,175.05,575.12,174.47,884.08-.08,41.63-.16,84.55.23,126.41-8.72.51-15.38.87-20.36,1.12-4-77-46.81-144.1-124.36-194.82-71.64-46.86-169.62-77-275.89-84.94-18.52-1.38-37.22-2.08-55.58-2.08-92.5,0-178.43,17.24-248.52,49.85-91.76,42.7-148.49,108.45-164.8,190.71Z"/>
    <path d="M1555.47,909.55l.23.29c226.51,274,229.12,642.84,231.64,999.53.2,27.93.4,56.81.72,84.94l.18,14.67,14.54-1.94c171.41-22.89,344.6-58.83,512.1-93.59q36.35-7.54,72.65-15l11.88-2.45-1.62-12a1272,1272,0,0,0-98.42-346.23,1300.58,1300.58,0,0,0-186.63-301.63c-75.81-91.61-162.57-170.67-257.89-235-98-66.14-203.12-115.27-312.33-146l-38.78-10.92,25.08,31.53C1538.35,887.64,1547.06,898.72,1555.47,909.55ZM1813.9,1979.29c-.23-23.17-.4-46.69-.56-69.57v-.55c-1.25-176.59-2.54-359.19-32.38-533.56-16.2-94.64-39.12-177.65-70.09-253.78-34.55-84.95-80-161.8-135-228.39l-1.06-1.37c406.85,133.22,730,530.82,795.53,983.33q-30.35,6.27-60.75,12.59C2147.31,1921.67,1979.65,1956.46,1813.9,1979.29Z"/>
    <path d="M2970.09,1536c-2.69-41.78-15.34-80.26-36.56-111.28-34.1-49.83-87.9-77.27-151.48-77.27l-3.27,0-1.07.06a1584.22,1584.22,0,0,0-212.47,35.64c-75.73,18.23-144.13,41.11-203.29,68L2349.2,1457l6.73,12.29c78.76,143.86,128.71,313.36,152.72,518.18l2.08,17.85,16.3-7.57c75.63-35,163.23-78.12,239.45-131.74,87.11-61.29,146.39-126.64,181.22-199.76l.3-.68C2965.18,1623.18,2972.82,1578.4,2970.09,1536Zm-46,119.38c-67.71,141.79-226.92,233.74-391.75,311.17-24.45-194.47-72.59-357.48-146.87-497.37,108.13-46.91,250.83-81.62,394.26-95.72,55.85-.68,102.82,22.75,132.38,65.94C2950.58,1495.71,2955.16,1578.43,2924.05,1655.41Z"/>
    <path d="M1437.62,787.51V774c0-2.24-.48-14-10-25.8-8.26-10.26-25.36-22.49-59.86-22.49-54.37,0-71.27,36.75-72,38.31L1290,777l-1.82,3.47h.28l-.44,1Zm-69.84-35.82c15.2,0,27.28,2.95,34.88,8.39l-63.6-2.56C1346.18,754.18,1355.57,751.69,1367.78,751.69Z"/>
  </g>
</svg>
