<svg xmlns="http://www.w3.org/2000/svg" viewBox="0 0 2994.91 3000">
  <title>136Icon_neon 1</title>
  <g>
    <path d="M2707.55,1480.36c-1.73-4.29-5.59-12.75-10.72-17.59l-.58-.55-1.41-1-.71-.38c-154.48-84.17-220.92-120.54-223.71-122.08l-6.51-3.57-545.17,324L2220.86,1121l3.62-6.44-3.68-6.39c-2.77-4.85-68.52-120-126.52-224.91l-.57-1-1.63-2-.89-.74-11.72-9.85-.6-.51-1.39-.9-.67-.33c-94.16-46.1-208.47-84.32-349.49-116.83-137.16-31.62-289.5-33.78-452.78-6.39-160.36,26.89-294.69,76.15-379.14,112.74-212.78,92.2-389,226.31-523.74,398.62C234.48,1431.51,140.2,1646.74,91.45,1895.78,66,2025.56,77.89,2180.6,88.35,2317.47q1.49,19.47,2.89,38.31l.92,12H2852.43l.56-12.44c8.15-188.83,2.62-345.88-16.91-480.12C2813.19,1717.88,2771.15,1588.7,2707.55,1480.36Zm120,861.44H116.27q-1-13-2-26.38c-10.33-135.15-22-288.32,2.69-414.65,94.83-484.43,367.59-836.94,788.78-1019.44,132.68-57.49,477.78-182.8,815.74-104.87,138.35,31.89,250.39,69.24,342.47,114.15l1.36,1.14,7.38,6.21c51,92.18,107.31,191.15,121.9,216.73l-322.31,574.1-23.75,42.33,615.9-366c19.61,10.73,86.35,47.21,215.15,117.39a50.18,50.18,0,0,1,4.18,8.37l.47,1.1.39.67C2799.13,1687.21,2843.32,1949.43,2827.53,2341.8Z"/>
    <path d="M2914.91,645l-25.47,15.42c-118.3,71.56-359.26,224.68-402.59,252.25-26.07-15-125.68-72.12-224.63-128.67-99.57-56.92-168.14-95.89-203.81-115.84-13-7.29-21.64-12-26.31-14.47-3.11-1.63-5.8-3-8.78-3.32l-31.9-15.71L2008,662.79l-.53,1.07,3.55,6c18.87,32,34.37,57.8,49.37,82.76s30.65,51,49.49,83l2.11,3.56,3.77,1.69c.31.14,1,.47,5.62,2.27l-.28,1,11.93,3.47c89.26,26,221.25,123.69,362.12,268.09,127.59,130.78,233.94,271.6,270.95,358.74l.48,1.13.69,1c1.56,2.3,2.08,2.62,8.45,6.6l.4.25,1.78,1.12,134,76,.08-1.1,1.52.86-.61-13.09.54-7.15c.57-7.84,1.77-24.15-127-238.88-57.13-95.24-115.51-188.93-132.66-216.35,15.91-23.24,69.53-101.85,123.24-184.13,124.38-190.53,130-217.72,131.84-226.66l5.27-25.54.58-2.36-.11.06Zm-123.13,817.61c-.43-.28-1.11-.7-2.24-1.4l-1.14-.72c-39.51-90-146.75-231.82-274.6-362.88-137.92-141.38-268.7-239.3-361.62-271.13l0-.13L2151,826q-5.2-1.75-10.25-3.23c-1.55-.59-6.91-2.67-10.66-4.15-17.87-30.28-32.82-55.16-47.29-79.25l-.09-.15c-8.06-13.41-16.26-27.06-25-41.76,112.72,63.44,419.39,239.5,423.07,241.61l6.82,3.91,6.63-4.22c2.54-1.63,235.43-149.92,373.39-234.62-16.73,31.32-50.13,87.41-115.81,187.81-63,96.34-123.58,184.36-124.19,185.23l-4.85,7,4.55,7.24c.64,1,64.93,103.61,130.23,212.2,70.57,117.33,103,176.47,117.84,206.26Z"/>
  </g>
</svg>
