<svg xmlns="http://www.w3.org/2000/svg" viewBox="0 0 2994.91 3000">
  <title>76Icon_neon 1</title>
  <path d="M2871.61,444.13c-21.32-74.47-58.43-138.5-110.31-190.32-64.9-64.84-137.05-110-214.44-134.33-62-19.48-127.44-25.61-194.41-18.23-113.72,12.54-194.25,60.78-195.09,61.29l-1.29.78L181.05,2133.1l-.48.48-.88,1.09-.33.51c-.56.86-56.06,86.7-75.45,206.15-11.44,70.42-8.38,138.72,9.07,203,21.81,80.33,66.21,154.37,132,220.07,60,59.91,130.5,100.66,209.64,121.1,39.8,10.29,82.19,15.5,126,15.5a600.63,600.63,0,0,0,77.9-5.22c122.17-16.06,214.42-64.78,215.33-65.27l.84-.44,1.59-1.19L2850.77,859.58l1-1,1.61-2.54.47-1.31c.34-.94,33.47-94.91,38.69-214.9C2895.6,569.18,2888.56,503.33,2871.61,444.13Zm-5.06,194.57c-4.56,104.87-30.94,188.58-36.29,204.61L859.91,2808.43c-12.86,6.58-95.77,47.24-204.86,61.58a562.86,562.86,0,0,1-73,4.86c-98.53,0-217.14-27.43-318.68-128.86C122,2604.8,112.57,2450.29,129.56,2345.53c17.19-105.93,64.68-185.06,70.89-195.06L2172.16,184c10.67-6.17,82.5-45.81,183.14-56.9,99.58-11,247.67,5.29,387.63,145.11C2853.47,382.64,2871.17,532.46,2866.55,638.7Z"/>
</svg>
