<svg xmlns="http://www.w3.org/2000/svg" viewBox="0 0 2994.91 3000">
  <title>132Icon_neon 1</title>
  <g>
    <path d="M2197,2180.33a931.75,931.75,0,0,0,197.84-297c48.14-115.17,72.55-237.51,72.55-363.61s-24.41-248.44-72.55-363.61a931.75,931.75,0,0,0-197.84-297A919.82,919.82,0,0,0,1903.5,658.94a916.34,916.34,0,0,0-718.93,0A919.71,919.71,0,0,0,891.08,859.19a931.78,931.78,0,0,0-197.85,297c-48.13,115.17-72.54,237.51-72.54,363.61s24.41,248.44,72.54,363.61a931.78,931.78,0,0,0,197.85,297,919.71,919.71,0,0,0,293.49,200.25,916.34,916.34,0,0,0,718.93,0A919.82,919.82,0,0,0,2197,2180.33Zm244.39-660.57c0,500.82-402.55,908.27-897.35,908.27s-897.34-407.45-897.34-908.27S1049.24,611.49,1544,611.49,2441.38,1018.94,2441.38,1519.76Z"/>
    <path d="M1875.49,1189a473,473,0,1,0,101.68,150.82A473.2,473.2,0,0,0,1875.49,1189Zm113,335.53c0,247.31-201.19,448.5-448.5,448.5s-448.51-201.19-448.51-448.5,201.2-448.51,448.51-448.51S1988.46,1277.26,1988.46,1524.57Z"/>
    <path d="M1303.61,470.08l8-1.21c.15,0,3.57-.53,9.74-1.38l.69.82.77-1c23.21-3.17,80-10.37,147.43-14.74,80.75-5.24,193.41-7.39,271.55,12.15,151.09,37.77,355.64,144.24,357.69,145.32l7.12,3.72,402.89-291.18-125.15,55L2145.17,521.26l4.77-237.39.48-24.39L1928.25,402.4,1834.39,162l-6.2-15.9L1586,326.74,1436.1,274.1,1320.84,426.73,1173.45,253.47l36.14,82.16Zm512.77-282.75,93.44,239.34,5.78,14.79,207.86-133.71-4.76,236.52-.45,23.42L2161,542.15l-56.72,41.13C2066.45,564,1886.15,474,1748.08,439.48c-43.88-11-102.07-16.54-173-16.54-33.29,0-69.15,1.24-106.59,3.67-50.29,3.26-94.47,8-123.8,11.62L1445.4,304.92l145.08,50.94Z"/>
    <path d="M440.8,1613.25l9.83-2.36.13-10.11c0-1.13,1.53-113.51,7.74-158.34,24.21-174.61,108.27-414.5,179.9-513.35C699.89,844.22,789,753.7,789.87,752.8l7.26-7.34L531.78,324.7,648.13,719.54l-286,62.06,87.09,211.51L168.86,904.43l271.62,178.83L155.31,1246.48l-13.09,7.5,198.26,251-276,199.24Zm49.31-528.44L339.55,985.69l154.92,49L398,800.42,667.31,742,681,739,609.62,496.87,764.18,741.94c-22.52,23.4-94.51,99.67-146.84,171.89-73.66,101.66-159.91,347-184.59,525-5.38,38.79-7.3,121.83-7.83,151.47l-238,57.49,179.77-129.77,11-8L181.33,1261.54Z"/>
    <path d="M2776.44,1553.54l121.41-126.47-223.1-41.82,230.84-197.34,18.39-15.73-326.67-93.73,186-116.09L2548.12,1014l52.75-118.56.18-.4,39-107.24-163.13,245.77,7.29,7.5c.47.5,48.14,50.29,71.47,111.82,20.19,53.22,48.1,181.77,49,240.33.8,52.37-1.64,166.86-1.74,171.72l-.26,12.34,234.16,17.14.45,0h107.36Zm-259.65-533.08-5.33,12-1.48-1.69Zm29.9,58.83c-8.42-12.93-16.76-24.16-23.87-33.12l118.4-26Zm323.6,104.58L2630.58,1388.8c-2.06-62.53-30.14-191.27-50.57-245.13a325.32,325.32,0,0,0-24.43-50.09Zm-239.5,219.59,215,40.3L2742,1551.83l-8.6,9-104.26-7.63C2629.75,1524,2631.1,1448.73,2630.79,1403.46Z"/>
    <path d="M2519.74,2006.37l-11-5.3-6,10.66c-1,1.79-100.87,179.67-151.9,228.48-49.83,47.68-262.62,188.56-264.75,190l-5.15,3.39-16.41,160.67-.05.45L2061,2711.25l53.34-204.47,164.89,109.41,16.72,11.08,40.81-245.75,260.41.89-38.59-234.21,230.08-12.27Zm46.78,349.93-251.79-.86-37.86,228-173.41-115.07,2.08-19.88c33.25-22.11,215.94-144.18,263.28-189.47,46.36-44.36,126.85-182.41,150.58-223.93l166.47,80.2-157.67,8.49Z"/>
    <path d="M1089.27,2509.28c-72.86-41.63-173.13-119.35-198.94-141.86-47.87-41.74-223.6-232.22-225.38-234.15l-6.59-7.12L250.87,2326.41l351.85-85.6-95.37,195.24,236-95.28-66.05,181.46-5.46,15,251.95,37.52-39.1,192.17-5,24.64,244.87-108.25,116.09,140.13L1256,2842l82.1-266.59-14-2.87C1270.26,2561.5,1123.23,2528.69,1089.27,2509.28ZM952,2566.46,954.7,2553l-247.55-36.87L785.86,2300c36.13,37.63,69.79,71.73,87.38,87.07,26.35,23,128.73,102.32,203.13,144.83,37.72,21.56,181.05,53.13,228.45,63.2L1245.3,2788.3l-107-129.18-6.28-7.58-216.84,95.87ZM638.24,2227.34l12.16-24.88-175,42.56,177-87c19.18,20.73,77.05,83.11,130.39,138.74l-222.36,89.79Z"/>
  </g>
</svg>
