<svg xmlns="http://www.w3.org/2000/svg" viewBox="0 0 2994.91 3000">
  <title>172Icon_neon 1</title>
  <g>
    <path d="M643.76,542.54,634.54,531l-78.76,81.21L452.06,736.48l-.55.71c-86.25,120-151.58,258.15-205.61,434.74-26.33,86.07-41.35,198.2-42.29,315.74-1,118.56,12.6,231.56,38.16,318.2,5,17.06,9.8,34.22,14.44,50.89,13.29,47.81,25.83,93,44.41,136.8C407.35,2245.38,577.26,2449.54,792,2584c72.16,45.19,142.3,81.85,214.41,112.06a1323.61,1323.61,0,0,0,250.6,77c72.61,14.77,150,22.25,229.94,22.25a1342.38,1342.38,0,0,0,208.8-16.59c132.92-21,263.71-62,368.29-115.32,4.44-2.27,9.15-4.66,14.09-7.16,51-25.9,121-61.36,158.22-94.24l9.23-8.16-7.66-9.66C2194.33,2489.3,1165,1192.77,643.76,542.54Zm-11.08,27.75C1135.06,1197.2,2113.17,2428.9,2209.62,2550.37c-36.66,28.6-97.7,59.56-143.27,82.67-5,2.51-9.69,4.91-14.15,7.19-158.6,80.92-370.17,129.22-566,129.22h0c-77.24,0-152.61-7.36-224-21.88-161.66-32.87-306.68-91.85-456.39-185.61C595.6,2430.35,429.2,2230.3,324.56,1983.42c-17.91-42.28-30.25-86.65-43.3-133.62-4.64-16.7-9.44-34-14.55-51.29-51-172.9-49.23-444.79,4.06-619,53.11-173.61,117.16-309.23,201.56-426.76L575.12,629.64Z"/>
    <path d="M2958.06,1385.94l-8.81-95.92-.05-.59-.11-.58c-23.27-123.46-46.66-225.75-85.2-323.68-72.48-184.13-176.53-346.4-309.27-482.28C2423.54,348.68,2265,240.74,2083.53,162.06c-94.52-41-183.28-70.79-271.35-91.17C1704.5,46,1597,34.63,1483.59,36.19l-48.52,2L1301.18,50.05l-.56.11c-104.88,19.12-199.09,37.62-290,70.32C800.3,196.11,618,310.25,468.65,459.71c-146,146.16-261.53,327.15-343.39,537.94-30.89,79.55-48.41,163.75-67,252.9l-3.55,17.08-9.85,90.59C35.09,1415.1,28.42,1499.6,39,1566.94l10.78,132.24,0,.65.12.64q2.23,11.85,4.4,23.52c12,64.15,23.28,124.76,41.17,182.33,66.4,213.69,167.25,400.41,299.74,555,132.09,154.09,296.46,277.19,488.53,365.86,87,40.15,189.31,74.81,312.83,105.94,28.15,7.1,56,10,85.38,13.07,19.87,2.07,40.42,4.21,61,7.77,39.53,6.84,85.72,10,145.38,10h47.54l1,0,166.14-13.77.61,0,1.87-.34c90.2-16.5,175.41-32.09,256.2-60.22,207.87-72.38,389.21-179.55,539-318.53C2650,2432.47,2768.21,2262.15,2852,2064.76c33.07-78,59.67-166.23,86.22-286.24,5-22.45,7-44,9.18-66.89,1.68-17.73,3.42-36.07,6.66-54.55C2968.7,1573.47,2970.35,1462.06,2958.06,1385.94Zm-29.64,266.64c-3.42,19.51-5.21,38.37-6.94,56.61-2.08,22-4.05,42.83-8.67,63.71-26.2,118.4-52.35,205.28-84.77,281.71-164.75,388.22-467.26,668.44-874.84,810.37-78.9,27.46-163.14,42.88-252.36,59.2l-.59.11L1535.34,2938h-47c-58.14,0-102.92-3.06-140.95-9.64-21.46-3.71-42.44-5.9-62.76-8-28.47-3-55.37-5.77-81.72-12.42C1081,2877.14,980.15,2843,894.65,2803.54c-382-176.36-642.55-480.83-774.34-904.94-17.44-56.12-28.61-116-40.44-179.38l-.2-1.08q-2-10.85-4.08-21.78l-10.76-132-.11-.93c-10.18-64.46-3.64-146.18,5.87-201.16l.07-.39,9.79-90.14,3.31-15.87c18.32-88.06,35.63-171.24,65.74-248.77C314,583.44,606.67,293.38,1019.39,145c88.9-32,181.81-50.23,285.28-69.11l131.79-11.71,47.67-1.94c263.83-3.61,462.54,68.88,589,123.72C2432.9,341.85,2698,614.6,2839.69,974.69c37.74,95.86,60.78,196.62,83.73,318.35q4.39,47.84,8.8,95.74l.11.86C2944.28,1463.24,2942.67,1571.37,2928.42,1652.58Z"/>
    <path d="M2783.81,1355.85c-1.75-29.84-3.41-58-9.69-86.68-16.51-75.45-37.65-163.4-69.18-243.56-78.35-199.09-198.73-368.65-357.79-504s-352.15-232.31-573.56-288c-77.67-19.54-172.81-29-290.84-29.06L1383,210.83l-.64.1c-23.23,3.9-46.47,6.79-69,9.6-41.17,5.13-80.07,10-117.67,20.38-89.58,24.79-171.81,53.59-244.4,85.59-64,28.23-136.26,70.77-198.19,116.71L742,451.44,750.9,462c120.94,143.86,609.35,754.87,1081.68,1345.77l1.82,2.29c188.17,235.4,365.9,457.74,516.79,646l8,9.93,10.1-7.75c47.55-36.51,117-118.93,162-178.41,62.29-82.35,112-167.52,151.86-260.38,41.45-96.48,72.27-200.94,94.21-319.36,9.22-49.77,29-175.86,13.36-271.63C2786.65,1404.05,2785.21,1379.56,2783.81,1355.85Zm-1016.56-1097C2202.4,368.3,2526.82,644,2680.74,1035.13c30.87,78.46,51.69,165.15,68,239.6,5.84,26.67,7.44,53.88,9.14,82.69,1.43,24.34,2.91,49.5,7.12,75.29,15,91.74-4.29,214.28-13.26,262.7-41.84,225.78-118.5,406.51-241.25,568.79-40.87,54-102.17,127.35-147.16,165.47-150.22-187.48-325.28-406.49-510.42-638.11C1391.3,1214.1,914.36,617.43,779.73,456c57.85-41.7,123.54-79.87,182-105.66,71.45-31.5,152.48-59.87,240.86-84.33,35.77-9.9,73.75-14.63,113.95-19.64,22.54-2.81,45.84-5.72,69.34-9.64l97.22-6.08C1598.84,230.65,1691.76,239.9,1767.25,258.88Z"/>
  </g>
</svg>
