<svg xmlns="http://www.w3.org/2000/svg" viewBox="0 0 2994.91 3000">
  <title>94Icon_neon 1</title>
  <path d="M2871.11,2190.06l-25.85,2.8,56.86,523.94L1952,1911.25a1059.26,1059.26,0,0,0,143.13-246.52c54-130.59,81.34-269.29,81.34-412.26s-27.37-281.68-81.34-412.26a1057.47,1057.47,0,0,0-221.86-336.72c-95.09-97.31-205.84-173.71-329.16-227.09a1017.39,1017.39,0,0,0-806.37,0C614.46,329.78,503.71,406.18,408.62,503.49A1057.47,1057.47,0,0,0,186.76,840.21c-54,130.58-81.34,269.29-81.34,412.26s27.37,281.67,81.34,412.26a1057.47,1057.47,0,0,0,221.86,336.72c95.09,97.31,205.84,173.71,329.16,227.09a1017.5,1017.5,0,0,0,806.37,0c123.32-53.38,234.07-129.78,329.16-227.09q32.91-33.67,62.51-69.87l950,805.52-517.29,37.07,1.88,25.93,549-39.35,13.45-1ZM1141,2285.83c-556.66,0-1009.54-463.56-1009.54-1033.36S584.3,219.1,1141,219.1,2150.51,682.67,2150.51,1252.47,1697.63,2285.83,1141,2285.83Z"/>
</svg>
