<svg xmlns="http://www.w3.org/2000/svg" viewBox="0 0 2994.91 3000">
  <title>130Icon_neon 1</title>
  <g>
    <path d="M1912.49,523.17c-42.31-54.89-97.39-104.14-168.37-150.56-65.78-43-168.56-98-301.13-79.25a556.69,556.69,0,0,0-163,48.91c-42.21,20.05-83.37,45.63-129.54,80.51C1095.23,464.47,1052.88,509,1021,558.83c-29.73,46.41-50.62,97.94-63.89,157.55C932,828.87,936.16,957.32,941.39,1120c1.22,38.16,2.49,77.61,3.44,119.19l.31,12.69H2043.83l.23-12.75c4.43-236.55-.61-399.36-39.46-531.59C1983.9,637,1953.77,576.72,1912.49,523.17Zm105.8,702.66H970.52c-.91-36.91-2-72.25-3.14-106.53v-.18c-10.27-319.92-16.47-513,198.71-675.59,68.2-51.54,154.86-106.62,280.56-124.43,123.89-17.55,221,34.55,283.25,75.27C1999.27,570.53,2026,784.08,2018.29,1225.83Z"/>
    <path d="M2573.4,2410.87c-1.21-41-2.45-83.44-2.45-125.33q-.66-432.87-1.35-865.73v-1l-.17-1a238.36,238.36,0,0,0-51.26-112.32c-28.26-34.22-64.13-55.83-112.88-68-36.55-9.14-80.68-13.17-145.58-13.17h-1.21c9.22-64.06,8-154.18-3.72-268.27q-1.84-18.06-3.61-35.7l-.08-.82c-11.12-111-20.73-206.82-52.24-295.68-51.91-146.37-146.22-280.62-265.54-378C1798.25,135.56,1638.79,78.37,1472.21,80.4h-.74l-1.58.2-.71.18c-24.75,6.26-49,9.59-72.5,12.82-29.77,4.08-57.88,8-86,17.23A831.94,831.94,0,0,0,982.17,313.73,793,793,0,0,0,861,470.67,766,766,0,0,0,782,659c-42.68,158.22-39.74,365.22-29.45,566.78-68.73.09-115.38,5.44-154.3,17.52-47,14.59-82.43,39.63-111.55,78.79-48.42,65.12-46.11,183.16-43.87,297.35.45,23,.92,46.82.92,69.3v758.11c0,22.54-.73,46.68-1.52,72.29-2.57,84.41-5.49,180.08,20.13,238.09,14.94,33.85,35,60.38,61.35,81.1,26.16,20.59,58.07,35.07,97.54,44.28s86.55,13.28,153.08,13.28c29.34,0,59.09-.74,90.59-1.52,33.45-.83,68.05-1.69,103.34-1.69H2356.86l.76-.09c55.16-6.73,98.24-24.67,131.7-54.86,30.07-27.13,51.47-63.5,65.43-111.17C2580.11,2639.92,2576.85,2528.71,2573.4,2410.87Zm-43.6,308.39c-26.06,89-81.52,135.88-174.52,147.43H968.23c-35.62,0-70.37.86-104,1.7-88.15,2.19-171.42,4.25-237.12-11.09-70.13-16.36-114.94-51.5-141-110.56-23.23-52.61-20.41-145.16-17.92-226.86.79-25.75,1.53-50.08,1.53-73V1688.75c0-22.74-.47-46.67-.92-69.84-2.16-109.79-4.39-223.31,38.74-281.3,53.64-72.15,127.85-85.83,246-85.83q6.2,0,12.55,0l13.83.12-.74-13.8C768.46,1034.38,764.4,824,807.07,665.78c66-244.83,262.1-448,511.7-530.25,25.91-8.54,52.89-12.24,81.45-16.17,23.71-3.25,48.22-6.62,73.82-13,2.33,0,4.65,0,7,0,350,0,600.44,264.25,693.33,526.14,30.46,85.9,39.92,180.29,50.87,289.59q1.82,18.07,3.7,36.57c12.42,121.12,12.92,214.1,1.49,276.34l-2.87,15.52,15.78-.15c125.9-1.22,203.75,9.83,254.81,71.64a212.42,212.42,0,0,1,45.48,99q.67,432.24,1.34,864.58c0,42.28,1.25,84.93,2.46,126.17C2550.8,2527.36,2554,2636.57,2529.8,2719.26Z"/>
  </g>
</svg>
