<svg xmlns="http://www.w3.org/2000/svg" viewBox="0 0 2994.91 3000">
  <title>24Icon_neon 1</title>
  <path d="M2746.34,507.62c-13.38-178-32.76-383.11-43.72-413.41-8.76-25-23.1-28.8-33.66-27.51-1.62.16-2.34.36-24.65,6.68-303.34,85.94-857,230.11-1156.73,230.11-400.09,0-958.39-140.77-1198-215.29-12.92-4.64-22.25-1-28.55,11.08-1.95,3.76-4.17,8-7.78,80-2.1,41.94-4.15,96.12-6.34,153.57-3.3,87.06-6.72,177.08-10.28,218.71v.17c-17.36,241.69-18.76,501.27-4.28,793.6v.18c11.65,181,24.2,331.51,70.05,482.16,54.81,179.77,129.36,357.58,221.58,528.48a3077.31,3077.31,0,0,0,318.52,477l.35.43.4.41c31.06,31.9,71,56.79,118.65,74,40,14.44,85.81,23.59,136.12,27.2,91.52,9.06,184.61,8.43,274.66,7.83h.28c33.13-.22,67.27-.45,101-.19l0,1,13.09-.33c33-.84,66.48-1.41,98.89-2,86.37-1.47,175.68-3,263.49-9.79,28.45-2.18,54.31-7.73,79.07-17l.62-.25q7.32-3.2,14.94-6.46c57.18-24.65,122-52.58,161.31-99.86l.31-.38c112.67-146.88,252.89-329.67,366.46-518.45,123.57-205.37,203-396.48,242.72-584.25l.07-.38c35.8-199.44,54.16-412,56.14-649.91C2773.62,951.72,2764.35,747.18,2746.34,507.62ZM1499.49,2917.16v-.07l-12.58-.14c-13.9-.16-28.69-.24-45.22-.24-23.14,0-46.37.16-68.83.31h-.33c-89.4.6-181.86,1.22-272.08-7.72l-.34,0c-104.75-7.49-184.75-38.77-237.79-93C620,2517.7,435,2173.22,327.3,1820.08c-45-147.93-57.43-296.86-69-476.16-14.42-291.18-13-549.7,4.25-790.26,3.6-42.28,7-132.54,10.34-219.83,3.18-83.55,7.45-196.08,11-220.16C385.67,145.21,574.77,196.85,777.1,239.8c126,26.76,245.81,47.88,356.07,62.8,131.93,17.84,251.17,26.89,354.41,26.89,147.15,0,370.3-34.17,663.26-101.56,230.52-53,433.75-110.6,500.57-129.53,9.81-2.78,18.4-5.22,21-5.9.31.15,2.61,1.55,5.69,10.36l.06.17c8.31,22.72,26.44,197.51,42.17,406.6,18,239.22,27.27,442.84,24.8,544.67v.2c-2,236.36-20.18,447.48-55.69,645.42-89,420.25-362.68,777-604.17,1091.84-35.36,42.36-97,68.95-151.44,92.4l-.63.27q-7.17,3.09-14.07,6.09c-22.33,8.3-45.76,13.3-71.64,15.27-87,6.75-175.93,8.26-261.93,9.72C1557.34,2916,1528.29,2916.48,1499.49,2917.16Z"/>
</svg>
