<svg xmlns="http://www.w3.org/2000/svg" viewBox="0 0 2994.91 3000">
  <title>169Icon_neon 1</title>
  <g>
    <path d="M2777.26,1001h0C2689.5,886.66,2568.39,793,2396.13,706.1c-260.49-131.35-567.61-196.38-912.91-193.3l-177.34,9.7-.6.09c-30.79,4.73-61.07,8.88-90.37,12.89-79.73,10.93-155,21.24-229,41.42-198.66,54.18-358.61,118.59-489,196.93-73.38,44.09-139.13,93.84-195.41,147.85a922.9,922.9,0,0,0-153,191.48c-40.15,67-68.93,149.68-81,232.66C53.67,1440.68,61.68,1534.1,90.66,1616c24.71,69.82,60.9,137.07,104.64,194.48,44.54,58.46,97.07,112.61,156.13,161,56.1,45.92,120.08,88.21,190.16,125.71,127.73,68.33,279.25,123.43,463.2,168.43,56.78,13.89,113.49,20.61,173.53,27.73,32.32,3.83,65.74,7.79,99.61,13l.61.09,144.8,7.71c34.69,5,103.2,2.37,133.54-1.91l52.2-1.9,167.55-15.53,103.2-17.8c23,10.06,48.83,21.37,74.91,32.8l5.38,2.35c30.79,13.48,61.68,27,88.44,38.71l.27.11,23.08,9.48c90.81,37.35,176.59,72.63,283.78,97.65l.48.1c20.4,3.93,37.76,8.65,54.54,13.21,17.2,4.68,35,9.52,56.27,13.62,3.46.74,7.87,2,12.54,3.26,11.75,3.27,25.06,7,36.7,7,11.8,0,20.44-3.86,25.68-11.47,12.43-18.05-2.4-48.65-32.22-95.4l-.09-.14c-2.28-3.58-4.08-6.41-5.23-8.34-29.14-49-57.44-115.57-78.15-164.36-4.67-13-9.35-25.81-13.48-37.12-4.3-11.8-9.18-25.15-14-38.61-1.86-6.31-4.33-13.44-6.72-20.33-1.1-3.16-2.21-6.36-3.26-9.48,7.18-3.74,15-7.73,22.55-11.63l.24-.12c11.35-5.82,23.09-11.84,32.85-17.06l.35-.19,103.08-63.87.59-.38c79.46-55.62,144.41-112.75,198.56-174.66,62.21-71.12,108.86-146.8,142.6-231.38,13.36-33.46,20.73-69.54,28.53-107.74l1.49-7.3C2952.75,1333.76,2904.87,1167.34,2777.26,1001ZM2509.43,2468.67c-7.14-1.06-15.54-3.4-22.95-5.46-5.12-1.42-10-2.77-14.24-3.67l-.22-.05c-20.38-3.92-37.72-8.64-54.49-13.2-17.18-4.67-35-9.5-56.18-13.6-105-24.54-189.8-59.4-279.56-96.31l-.79-.33-22.15-9.1c-26.76-11.7-57.65-25.23-88.43-38.7l-8.64-3.79-36.53-16c96.46-21.07,238.33-67.9,312.09-97.87,26.06-10.59,94.71-38,127.23-50.95.93,2.76,1.9,5.55,2.85,8.3l.95-.33v0l0,.07-.94.33c2.32,6.72,4.73,13.66,6.44,19.47l.22.69q7.27,20.27,14.19,39.11l.18.49q6.5,17.8,13.38,36.87l.26.65c21,49.5,49.77,117.27,79.89,167.86,1.37,2.31,3.3,5.33,5.74,9.16,6.29,9.86,15.8,24.77,23,39,9.08,17.95,9.66,25.29,9.53,27.5C2519.1,2469.16,2516,2469.64,2509.43,2468.67Zm-109.88-393.52c-7.38,3.79-15,7.67-22,11.35l-5,2c-1,.4-110.4,44-145,58C2144,2180.45,1974,2235.7,1883.1,2250.1l-.12,0L1773.21,2269l-165.45,15.35-52.54,1.92-.67,0-.66.1c-28.11,4.06-96.36,6.54-127.37,1.93l-.58-.09-144.72-7.7c-34-5.23-67.49-9.19-99.86-13-59.22-7-115.16-13.65-170.39-27.16-382-93.45-634.56-235-795-445.6-42.13-55.3-77-120.1-100.81-187.4-63.68-179.93-9.83-371.46,55.64-480.81C317.48,881.57,578.65,714.9,992.71,602c72.38-19.74,146.87-29.94,225.73-40.75,29.18-4,59.35-8.13,90.13-12.85l175.19-9.6c7.59-.06,15.27-.1,22.81-.1,331.64,0,627,64.14,877.85,190.62,168.64,85,286.91,176.4,372.21,287.54,122.82,160.07,169.07,319.4,137.48,473.58l-1.5,7.33c-7.56,37-14.7,72-27.19,103.29-61.18,153.32-166.57,278.58-331.62,394.16l-102.06,63.23c-9.44,5-20.91,10.93-32,16.61Z"/>
    <path d="M1769.19,1249.92h-26v151.75H1461.64V1249.92h-26v151.75H1289v26h146.69v284.79H1294.15v26h141.49v131.62h26V1738.46h281.55v131.62h26V1738.46h138.62v-26H1769.19V1427.67H1913v-26H1769.19Zm-26,177.75v284.79H1461.64V1427.67Z"/>
    <path d="M1100.26,1342.45h0c-14.75-20.16-48.64-57.91-76.74-73.38-51.95-28.59-127.44-38.27-155.87-38.48-35.13-.23-122,9.57-162.95,29.2-39.9,19.14-103.19,62.61-127.77,87.75-38.27,39.15-72.34,105.67-81.95,144.85-11,44.78-15.57,132.27-5,178,8.77,38,46.39,129.27,79.07,158.33,25,22.25,73.15,43.68,87.3,49.72,33.73,14.38,93.69,25.38,126.42,26.26q2,.06,4.11.06c43.22,0,117.44-16.42,154.07-26.77,22.77-6.43,62.27-20.66,90.61-34.35l11.26-5.44-11.32-23.4-11.25,5.43c-27,13-64.65,26.61-86.37,32.74-40,11.29-113,26.75-150.41,25.74-29.71-.79-87.25-11.53-116.91-24.19-26-11.1-62.68-29.61-80.24-45.23-27.33-24.31-62.9-109.6-71-144.75-9.33-40.46-5.08-125.06,4.94-165.93,8.8-35.86,40.09-96.86,75.29-132.87,22.11-22.62,84-65,120.43-82.48,34.91-16.75,116.26-26.65,150.34-26.65h1.18c26.27.2,95.92,9.07,143.51,35.26,22.88,12.59,54.28,46.8,68.3,66,15,20.44,37.41,86.37,42.46,114.54,5.25,29.24,0,80.23-4.48,105.5-4.32,24.17-21.32,68-33.06,89.64-7.3,13.44-32.93,35.5-46.65,43.83-12.33,7.47-46.8,13.37-60.48,10.33-11.39-2.53-31.32-24.48-37.88-39-2.19-4.86-5.21-18.4-1-54.76a26.08,26.08,0,0,0,.81-6.58c.43-3.34.85-6.34,1.19-8.85,7.62-54.89,54.34-211.77,54.81-213.34l3.59-12-24.93-7.44-3.57,12c-.56,1.88-11.13,37.34-23,80.2-12.58-25.62-29.37-52.19-37.43-62.68-9.91-12.88-32-22.2-60.65-25.55-36.17-4.24-86.89,1-120.73,28.51-41.78,33.94-57.18,62.58-75.92,113.92-25.13,68.92-10.95,117.16,6.24,155.26,7.88,17.45,15.43,26.37,25.87,38.71l.23.27c1.35,1.59,2.75,3.25,4.23,5,12.24,14.63,35,23,64.2,23.55,1.1,0,2.19,0,3.3,0,42.62,0,86.71-15.7,107.7-38.26,10.71-8.92,29.92-25.48,46.12-42.5.59,10.55,2.32,18.82,5.19,25.18,8.46,18.75,33.25,48.65,56,53.69,20,4.44,61.67-2.62,79.59-13.49,16.38-9.93,45.76-34.75,56-53.64,13-23.85,30.85-69.75,35.81-97.47,4.33-24.2,10.84-79.29,4.48-114.67C1141.74,1436.58,1117.92,1366.58,1100.26,1342.45ZM846.13,1691.88l-.55.61c-16.32,18-55.81,31.09-91.9,30.41-21.21-.41-37.53-5.6-44.77-14.25-1.58-1.9-3.09-3.68-4.54-5.39-9.76-11.53-15.64-18.49-22-32.61-15-33.33-27.45-75.51-5.51-135.66,18.18-49.82,31.16-72.82,67.89-102.65,21.89-17.79,53.44-24,81-24a176.57,176.57,0,0,1,20.32,1.16c23.59,2.76,38.62,9.82,43.05,15.58,11.61,15.1,40.34,62.78,46.85,88.35-11.59,44.2-18.82,76.32-21.48,95.53-.51,3.62-1.18,8.49-1.84,13.91-4.3,11.69-30.85,39.37-65.38,68.09Z"/>
    <rect x="2139.86" y="735.03" width="26" height="1014.2"/>
    <rect x="2139.16" y="1878.88" width="31" height="31.7"/>
  </g>
</svg>
