<svg xmlns="http://www.w3.org/2000/svg" viewBox="0 0 2994.91 3000">
  <title>108Icon_neon 1</title>
  <g>
    <path d="M2145.92,1180.35c84-32,150.06-69.38,196.48-111.17,49.67-44.73,74.85-92.76,74.85-142.76s-25.18-98-74.85-142.76c-46.42-41.8-112.52-79.2-196.48-111.18-83.28-31.72-180.16-56.6-287.94-74-111.37-17.94-229.64-27-351.53-27s-240.17,9.1-351.54,27c-107.78,17.36-204.65,42.24-287.93,74-84,32-150.07,69.38-196.48,111.18-49.67,44.72-74.86,92.75-74.86,142.76s25.19,98,74.86,142.76C716.91,1111,783,1148.38,867,1180.35c83.27,31.72,180.15,56.61,287.93,74,111.37,17.94,229.65,27,351.54,27s240.16-9.09,351.53-27C1965.76,1237,2062.64,1212.07,2145.92,1180.35ZM2325,1049.85c-44,39.64-107.39,75.38-188.34,106.2-168.13,64-391.94,99.3-630.21,99.3s-462.09-35.26-630.22-99.3c-81-30.83-144.31-66.56-188.33-106.2s-66.26-81.11-66.26-123.43S643.93,842.57,687.9,803s107.38-75.37,188.33-106.2c168.13-64,392-99.3,630.22-99.3s462.08,35.27,630.21,99.3c81,30.83,144.32,66.56,188.34,106.2s66.25,81.12,66.25,123.44S2369,1010.27,2325,1049.85Z"/>
    <path d="M2957.78,1451.52a715.11,715.11,0,0,0-71.8-199.26c-32.15-59.53-72.4-112.57-116.39-153.37-26.81-24.87-94.94-69.28-95.62-69.72l-13.14-8.57-6,14.51c-48,116.53-111.14,250.36-164.79,349.26-42,77.45-89.61,165.22-147.08,228.6-76.69,84.57-171.36,163.42-262.92,239.68-47,39.16-95.63,79.65-140.11,119.62-14.36,12.91-29,25.7-43.24,38.08-52.64,45.87-102.36,89.2-145.73,144.75-54.79,70.2-131.65,218.4-132.42,219.89l-24.75,47.88,43.86-31.34c.28-.2,28.47-20.32,50.44-34.62,5.65-2,32.71-10.79,56.84-18.51l.37-.12c3.19-.33,12.8.69,19.9,1.43,23.52,2.49,50.19,5.3,67.58-3.68,34-17.59,66.16-40.68,101.17-72.66l56.58-53,0-5.72c-.13-12.51.57-32.16,1.69-53.36,5.25,25.06,10.15,48.4,11.94,56.15l.18.76.27.74c1.39,3.78,2.58,7.32,3.74,10.74,6.14,18.24,11.45,34,37.43,56.77,18.27,16,44.63,26.09,74.22,28.37,29.21,2.26,58.38-3.31,82.13-15.69,34.25-17.87,69.42-52.66,96.5-95.46,28.68-45.34,46.06-95.73,48.93-141.87l.28-4.44-2.47-3.65c-9.65-14.3-20.32-48.6-27.18-87.37-1.58-8.93-2.89-17.66-3.93-26.08,2.28,6.6,4.39,12.76,6.19,18.08,9.13,30.83,30.73,85.55,73.21,107.61,32.67,16.76,66.49,23,100.51,18.44,55.76-7.41,97.12-31.73,126.46-74.37,27.79-40.39,40.07-91.57,47.65-131.78,6.51-24.47,11.75-120.41,2.37-151.46l-.24-.82-.77-1.67-.45-.71a114.3,114.3,0,0,1-6.67-13.43,134.59,134.59,0,0,0-8.05-16.12c-8.88-17.87-18.63-54.33-25.64-91.17,10.37,24.85,21.73,50.55,32.89,71.86l.09.17a281.47,281.47,0,0,0,59,73.7c28.32,24.92,58.72,40.1,87.93,43.9,39.22,5.1,75.19-9.36,106.93-43,25.91-27.44,43.15-71.31,49.85-126.87C2971.43,1563.17,2968.7,1505.93,2957.78,1451.52ZM2812,1756.74c-52.51-6.83-101.78-57.21-127.34-104.14-18.42-35.19-37.74-83.6-51.85-119-5.85-14.66-10.9-27.32-14.63-35.87l-21.79-50-3.1,54.46c-2.66,46.81,18.76,155.67,38.2,194.12l.27.54.33.51a113.86,113.86,0,0,1,6.64,13.4,149.64,149.64,0,0,0,7.4,15c7,27.17,2.19,117.15-3.1,136.07l-.24,1c-19.16,101.89-52.36,172.47-152.09,185.72-28.68,3.81-57.35-1.51-85.17-15.78-34-17.64-52.34-65.28-60.27-92.11l-.14-.46c-2.66-7.86-6.06-17.73-9.38-27.33-8.51-24.66-19.11-55.35-21.54-65.3l-13.29-54.29-1.12,5.12-.06-.21-.9,4.55-10,45.12c-5.76,26.08-4.42,67.25,3.67,112.94,7.14,40.31,17.73,74.64,28.73,93.4-7.51,92.59-73.4,181.65-131.21,211.8-39.67,20.68-97.92,16.48-127.19-9.18-20.72-18.16-24.19-28.45-29.94-45.53-1.14-3.36-2.3-6.83-3.67-10.58-1.92-8.46-6.92-32.31-12.21-57.52-7.21-34.43-15.39-73.45-18.31-85.6l-16.94-70.5-8.61,72c-3.7,31-8.49,104-8.72,140l-48.12,45.05c-33.25,30.37-63.61,52.2-95.51,68.7-10.47,5.41-37,2.61-52.91.93-17-1.8-25.25-2.53-31.51,0-58.54,18.72-59.62,19.41-61.41,20.57-2.61,1.69-5.31,3.47-8,5.28,26.9-49,70.34-124.82,104.49-168.58,41.83-53.58,90.64-96.12,142.32-141.15,14.26-12.43,29-25.28,43.53-38.34,44.09-39.62,92.51-79.95,139.37-119,92.24-76.82,187.62-156.27,265.54-242.19,59.57-65.7,108-154.93,150.68-233.67,51.8-95.51,112.42-223.4,159.91-337.16,25.95,17.39,62.61,43.08,79.07,58.34,87.76,81.41,153.51,204.86,180.37,338.69,10.06,50.06,12.84,103,7.85,149.12-5.6,51.7-20.62,91.79-43.42,115.93C2871,1748.91,2842.52,1760.7,2812,1756.74Z"/>
    <path d="M1245.59,2155.1c-43.36-55.55-93.08-98.88-145.73-144.76-14.19-12.37-28.87-25.16-43.23-38.07-44.49-40-93.1-80.46-140.13-119.63C825,1776.39,730.29,1697.54,653.6,1613c-57.47-63.38-105.08-151.15-147.09-228.6-53.64-98.91-116.78-232.74-164.78-349.25l-6-14.52-13.14,8.57c-.68.44-68.81,44.85-95.62,69.72-44,40.8-84.24,93.84-116.39,153.37a714.8,714.8,0,0,0-71.8,199.26c-10.93,54.41-13.65,111.65-7.68,161.16,6.7,55.56,23.93,99.43,49.84,126.87,27.61,29.22,58.4,44,91.75,44a116.92,116.92,0,0,0,15.19-1c29.2-3.8,59.61-19,87.92-43.9a281.35,281.35,0,0,0,59-73.71l.1-.17c11.16-21.31,22.52-47,32.89-71.87-7,36.83-16.75,73.29-25.62,91.15a136.84,136.84,0,0,0-8.08,16.16,112.62,112.62,0,0,1-6.66,13.42l-.46.72-.76,1.67-.25.82c-9.38,31-4.14,127,2.36,151.42,7.59,40.22,19.88,91.43,47.67,131.82,29.33,42.64,70.7,67,126.45,74.37,34,4.52,67.84-1.68,100.58-18.47,42.42-22,64-76.74,73.14-107.56,1.8-5.33,3.91-11.49,6.19-18.1-1,8.42-2.34,17.15-3.92,26.08-6.87,38.77-17.54,73.07-27.16,87.34l-2.5,3.68.28,4.42c2.88,46.16,20.25,96.55,48.93,141.89,27.08,42.8,62.26,77.59,96.51,95.46,23.75,12.38,52.92,18,82.13,15.69,29.59-2.28,55.94-12.36,74.22-28.38,26-22.77,31.29-38.52,37.44-56.8,1.16-3.41,2.35-7,3.75-10.78l.27-.73.17-.76c1.78-7.69,6.67-31,11.92-56.08,1.13,21.2,1.82,40.86,1.7,53.37l-.05,5.71,56.47,52.87.11.1c35,32,67.16,55.07,101.17,72.66,17.38,9,44,6.17,67.58,3.68,7.1-.75,16.72-1.76,19.9-1.42l.43.14c23.84,7.62,51.13,16.47,56.77,18.47,22,14.31,50.16,34.43,50.45,34.63l43.86,31.34L1378,2375C1377.25,2373.5,1300.39,2225.3,1245.59,2155.1Zm75.93,179.28c-1.65-1.07-3-1.91-61.34-20.53a28.6,28.6,0,0,0-10.65-1.62c-5.52,0-12.65.76-20.9,1.63-15.88,1.68-42.45,4.48-52.91-.92-31.91-16.51-62.26-38.34-95.51-68.71l-48.13-45.05c-.22-36-5-109-8.72-140l-8.61-72-16.93,70.5c-2.92,12.13-11.1,51.16-18.32,85.6l0,.15c-5.27,25.14-10.25,48.93-12.15,57.31-1.4,3.83-2.57,7.3-3.7,10.66-5.74,17.06-9.21,27.35-29.93,45.51-29.28,25.66-87.53,29.86-127.19,9.18-57.81-30.15-123.71-119.21-131.21-211.8,11-18.76,21.59-53.09,28.73-93.4,8.09-45.69,9.42-86.86,3.66-112.94l-9.95-45.12-.9-4.55-.06.21-1.13-5.12-13.28,54.29c-2.43,9.95-13,40.64-21.56,65.35-3.3,9.55-6.71,19.42-9.37,27.3l-.14.46c-7.92,26.82-26.28,74.45-60.21,92.06-27.87,14.3-56.55,19.62-85.22,15.81-99.73-13.25-132.93-83.85-152.1-185.76l-.24-1.05c-5.29-18.91-10.1-108.85-3.09-136a150.24,150.24,0,0,0,7.41-15.06,112.62,112.62,0,0,1,6.66-13.42l.32-.51.27-.53c19.43-38.44,40.84-147.27,38.18-194.08l-3.1-54.46-21.79,50c-3.74,8.56-8.79,21.22-14.64,35.89-14.11,35.36-33.42,83.78-51.84,118.95-25.56,46.94-74.83,97.33-127.34,104.16-30.5,4-59-7.83-84.68-35-22.81-24.14-37.82-64.23-43.42-115.93-5-46.11-2.21-99.06,7.84-149.12,26.87-133.83,92.61-257.28,180.38-338.69,16.45-15.26,53.12-41,79.06-58.34,47.49,113.75,108.11,241.64,159.92,337.16,42.71,78.74,91.11,168,150.68,233.67,77.92,85.92,173.3,165.37,265.57,242.22,46.83,39,95.25,79.33,139.34,118.95,14.52,13.06,29.27,25.91,43.53,38.34,51.68,45,100.49,87.57,142.32,141.15,34.15,43.76,77.58,119.56,104.49,168.58C1326.85,2337.86,1324.14,2336.08,1321.52,2334.38Z"/>
  </g>
</svg>
