<svg xmlns="http://www.w3.org/2000/svg" viewBox="0 0 2994.91 3000">
  <title>98Icon_neon 1</title>
  <g>
    <path d="M1150.59,1504.37l9.22-9.18L960.9,1295.71,609.44,1645.27,268.25,1312l-9.2-9L61.53,1501.07,405.6,1847.15,75.23,2180.79l-9.1,9.18,189.69,190.24,9.2,9.21,340.74-341.58,344.67,342.91,9.2,9.17,189.74-190.28,9.14-9.18L806,1847.16ZM265,2352.61,102.79,2189.92l330.37-333.65,9.06-9.16-344-346,161.06-161.53,341.15,333.25,9.17,9,351.21-349.32L1123,1495.12,778.39,1837.91l-9.25,9.18,352.66,353.38-162.24,162.7L614.9,2020.26l-9.2-9.17Z"/>
    <path d="M2045.7,1156.54l9.22-9.18L1865.18,957.07l-9.17-9.2-351.46,349.56L1163.36,964.14l-9.2-9L965.77,1144.09l-9.11,9.16,344.05,346.07L970.33,1833l-9.08,9.18,189.68,190.22,9.2,9.22L1500.87,1700l344.67,342.91,9.2,9.17,189.74-190.28,9.14-9.18-352.56-353.3Zm-885.57,848.24L997.9,1842.08l330.37-333.64,9.06-9.17-344-346,161.07-161.53L1495.55,1325l9.16,9,351.22-349.32,162.2,162.67L1673.5,1490.07l-9.25,9.19,352.66,353.38-162.24,162.7L1510,1672.42l-9.2-9.16Z"/>
    <path d="M2932.22,807.41l9.22-9.18L2751.7,608l-9.17-9.2L2391.08,948.31,2049.89,615l-9.21-9L1843.17,804.12l344.07,346.07-330.38,333.65-9.1,9.18,189.69,190.23,9.2,9.22,340.75-341.59,344.66,342.92,9.2,9.16L2931,1512.69l9.15-9.19-352.57-353.29Zm-885.57,848.24L1884.42,1493l330.37-333.65,9.07-9.16-344-346,161.07-161.53,341.14,333.25,9.17,8.95L2742.45,635.5l162.2,162.66L2560,1141l-9.24,9.18,352.65,353.39L2741.2,1666.21,2396.54,1323.3l-9.21-9.17Z"/>
  </g>
</svg>
