<svg xmlns="http://www.w3.org/2000/svg" viewBox="0 0 2994.91 3000">
  <title>96Icon_neon 1</title>
  <g>
    <path d="M2493.45,1298v462.57h447.61V1298Zm26,436.57V1324h395.61v410.57Z"/>
    <path d="M47.37,1760.53H495.62V1295.92H47.37Zm422.25-438.61v412.61H73.37V1321.92Z"/>
    <path d="M2382.35,1283.34l-25.41,5.54,2.67,12.21a904.19,904.19,0,0,1,20.61,192.21c0,491.53-396.74,891.42-884.4,891.42s-884.4-399.89-884.4-891.42,396.74-891.41,884.4-891.41A876.72,876.72,0,0,1,1966.7,738.6l10.55,6.71,13.94-21.95-10.55-6.7A904.92,904.92,0,0,0,852,844.63,914.77,914.77,0,0,0,657,1136.23c-47.46,113.11-71.53,233.24-71.53,357.07s24.07,244,71.53,357.07a917.07,917.07,0,0,0,484.46,488.23c112.26,47.86,231.5,72.12,354.41,72.12s242.15-24.26,354.4-72.12a917.07,917.07,0,0,0,484.46-488.23c47.47-113.1,71.54-233.23,71.54-357.07A930.08,930.08,0,0,0,2385,1295.55Z"/>
  </g>
</svg>
