<svg xmlns="http://www.w3.org/2000/svg" viewBox="0 0 2994.91 3000">
  <title>104Icon_neon 1</title>
  <g>
    <path d="M63.47,1942.23H942.54V1063.16H63.47Zm853.07-853.07v827.07H89.47V1089.16Z"/>
    <path d="M940.32,54.85H61.24V933.93H940.32ZM87.24,907.93V80.85H914.32V907.93Z"/>
    <path d="M1061.23,929.92h879.08V50.84H1061.23ZM1914.31,76.84V903.92H1087.23V76.84Z"/>
    <path d="M2058.51,50.84V929.92h879.07V50.84Zm26,853.08V76.84h827.07V903.92Z"/>
    <path d="M1058.62,1942.23H1937.7V1063.16H1058.62Zm853.08-853.07v827.07H1084.62V1089.16Z"/>
    <path d="M61.24,2942.73H940.32V2063.65H61.24Zm853.08-853.08v827.08H87.24V2089.65Z"/>
    <path d="M1058.62,2942.73H1937.7V2063.65H1058.62Zm853.08-853.08v827.08H1084.62V2089.65Z"/>
    <path d="M2055.88,2942.73H2935V2063.65H2055.88ZM2909,2089.65v827.08H2081.88V2089.65Z"/>
    <path d="M2058.51,1936.32h879.07V1057.25H2058.51Zm853.07-853.07v827.07H2084.51V1083.25Z"/>
  </g>
</svg>
