<svg xmlns="http://www.w3.org/2000/svg" viewBox="0 0 2994.91 3000">
  <title>102Icon_neon 1</title>
  <g>
    <path d="M2959.52,302.92c-8.51-39.16-30.42-101.22-54.27-139.1-17.8-28.27-51.88-63.2-113.15-69.11-33.82-3.25-63,.78-89.15,12.33-25,11-42.7,27-55.32,39.73-19.31,19.45-55.51,59.09-80.94,106.14-20.8,38.47-45.33,87.41-71.34,139.28-35.25,70.29-71.69,143-101.32,194.41-50.91,88.38-173.16,291.91-238.55,384.53-68,96.3-304.49,376.57-306.87,379.4L1827.14,1376l163.72-20.62-3.25-25.8-97.75,12.31c59.73-71.21,230.65-276.12,286.86-355.74,65.87-93.29,188.71-297.79,239.84-386.55,30-52.07,66.62-125.1,102-195.73,25.9-51.64,50.36-100.43,71-138.56,23.89-44.19,58.19-81.74,76.52-100.18,26.56-26.74,59.91-50.64,123.52-44.51,50.78,4.9,79,33.74,93.64,57.08,22.27,35.37,42.84,93.78,50.88,130.77,7.92,36.44,5.15,113.06-.15,147.74-10,65.39-54,192.18-80.67,257.29-83.15,203.32-310.9,582.31-355.71,656.22-22.53,37.16-97.57,137-126.17,174.74l-29.23-47.82-64.14-73.3-19.56,17.12,62.68,71.62,47.89,78.38,11.53-15.09c4.51-5.9,110.65-145,139.23-192.17,45-74.2,273.66-454.74,357.54-659.86,27.1-66.26,72-195.73,82.31-263.2C2965.54,421.75,2968.32,343.39,2959.52,302.92Z"/>
    <polygon points="2222.23 1411.64 2236.2 1389.72 2177.3 1352.17 2175.55 1351.05 2075.88 1326.52 2069.68 1351.77 2165.17 1375.27 2222.23 1411.64"/>
    <path d="M943.14,974.14a17.9,17.9,0,0,0,1.81.24l12.17.92.72-7.18c21.55-6.83,91.91-23,180.77-29.1,14.09-1,89-5.37,178.9,3.47,51.51,5.07,103.32,35,154,88.85,96.92,103.09,128.57,158.88,141.09,248.75,11.8,84.74,1.86,156.87,1.76,157.59l-4.7,32.75,153.66-124.19,5.15-4.15-.33-6.57c0-1-4.81-98.25-23.8-142.92-57.16-134.44-130.2-211-180.17-256.85-19.06-17.5-58-44-110-65.88-38.55-16.23-96.51-34.87-153.64-31.48-104,6.16-161.39,24-207.55,38.37l-5.88,1.83A696.33,696.33,0,0,0,983,920.82c-14.08,7.11-38,19.9-46.54,28.77a15.25,15.25,0,0,0-3.79,4.37l-53.14,47.19,62.14-27.33C942.14,973.94,942.64,974.05,943.14,974.14ZM1643,1410a673.73,673.73,0,0,0-4.69-133.52c-6.94-49.84-19-87.48-40.45-125.85-21.68-38.85-54.82-81.14-107.45-137.12-55.1-58.61-112.43-91.21-170.39-96.91-37.43-3.68-76.48-5.55-116.06-5.55-35.27,0-60.33,1.54-67.17,2-38.67,2.67-73.46,7.29-100.11,11.59,17.89-7.51,37.63-14.91,58.11-21.25l5.9-1.83c44.81-13.93,100.57-31.27,201.37-37.25,53.51-3.17,108,14.74,144.31,30.32,47.91,20.57,83.9,45.31,100.18,60.24,48.19,44.25,118.64,118.08,173.82,247.87,14.43,33.94,20,105.62,21.38,127.45Z"/>
    <path d="M2264.62,1520.63c-31.44-38.12-117-97.32-168.24-109.53-48.68-11.58-189.16,19.66-195.12,21l-28.1,6.29,23.31,16.91c22.4,16.25,61.37,46.93,70.61,60,40.71,57.83,85.26,191.32,96.86,254.24,12.33,66.88,12.32,206.05,0,275.77-14,79-69.73,239.64-114.87,314.5-26.4,43.78-140.5,155.3-141.64,156.42l-85,82.86,100.93-62.5c2.57-1.59,258.42-160.33,329.58-230.94,53.43-53,142.61-167.83,166.5-234.42,14-38.94,24.62-103.24,29.24-176.42,4.33-68.7,2.79-135.53-4.11-178.75C2336.77,1667.43,2300.93,1564.62,2264.62,1520.63Zm-130,766.62c-41.33,41-149.88,114.52-229.9,166.64,27.8-29.87,54.71-60.85,66.62-80.6,46.48-77.1,103.85-242.26,118.2-323.4,12.75-72,12.74-215.85,0-285-12-65.15-58.49-203.87-101.17-264.5-9.14-13-34-33.52-53.52-48.72,53.67-10.58,127.53-21.93,155.54-15.26,44.7,10.64,126.09,66.7,154.21,100.77,31.89,38.65,67.06,137.68,74.3,183,13.42,84.06,4.84,262.08-23.94,342.3C2272.28,2125.66,2186.28,2236,2134.6,2287.25Z"/>
    <path d="M2431.38,1681.59l-23.92-17.69,22,199.13.79,2.51.58,1.07c17.93,33,66.15,127,73.92,166,8.52,42.74,18.77,126.1,15.87,171.44-2.62,40.82-9.11,75.88-16,113.05-3.35,18.1-6.82,36.82-10,56.9-7.28,46.48-18.08,106-23.27,134.63-1,5.35-1.75,9.64-2.29,12.62-.31,1.74-.51,2.88-.65,3.77l-3.4,10.26,2.41.93-1.44,8.1,10.61-4a15.07,15.07,0,0,0,2.05.56,13.24,13.24,0,0,0,2.56.25,12.6,12.6,0,0,0,10.55-5.58c14.63-6.16,54.19-25,88.61-61.48,28.91-30.62,49.71-94.79,61.83-190.76,9.25-73.24,10.73-143,10.94-169.58.49-62.71-13.43-177.34-45.88-235.84C2545.53,1766.66,2432.5,1682.42,2431.38,1681.59Zm67.35,821.85c5.62-31.06,15-83.47,21.58-125.39,3.09-19.72,6.53-38.26,9.86-56.24,7-37.9,13.65-73.69,16.36-116.07,3-47.56-7.52-134-16.31-178.18-9.37-47-66.16-154-75.35-171.1L2440,1722c35.7,30.32,102.56,93,144.49,168.55,30.17,54.37,43.08,163.14,42.62,223-1,127-18.78,293-65.67,342.69C2539.74,2479.23,2515.57,2494.52,2498.73,2503.44Z"/>
    <path d="M1681.23,957.19c29.78,35.48,76.5,115.51,95.32,158.12,12.42,28.13,35.24,114.83,43,145.86l5.16,20.65,42.07-36.81-2.37-8c-1.31-4.39-32.24-108-47.55-140.38-20.35-43-69.33-124.16-109.81-161.69C1679.11,909,1599.75,859.24,1599,858.74l-10.42-6.52-13.94,21.44,10.19,6.87C1605.37,894.43,1662.83,935.28,1681.23,957.19Z"/>
    <path d="M42.65,2605.45l42.48,133,4,12.49,178.26-59-50.82-144ZM105.9,2718l-30.65-96,125.29-41.39,33.52,95Z"/>
    <path d="M1963.49,2023.69l1.14-3.73c18-59.26,24.68-141.45,18-219.87-3.7-43.12-11.19-83.45-22.27-119.86-12.35-40.57-28.92-75.31-49.24-103.25-38.74-53.26-89.68-80.85-151.45-82h-.71l-.67.06c-72.5,6.54-141.32,67.36-196.62,116.22-7.6,6.72-14.78,13.07-21.6,18.93l-195.48,143.72C1132.21,1914.24,867.61,2060,613.29,2196.63l-6.1,3.28-.69,6.93c-15.46,161-127.56,335-304.87,340.49l-19.76.61,8.39,17.9a681.45,681.45,0,0,1,25.07,64.1l6.66,19.94L336.86,2635c187-187.05,374.81-163.3,619.79-109.3l3.41.75,3.33-1.07c34-10.89,78.85-25.92,122.23-40.45l.26-.09c43-14.41,87.49-29.31,121-40,135.59-42.46,270.1-101,399.78-174.05,122.27-68.86,241.31-151.14,353.84-244.58Zm-73.44-431.42c80.56,110.76,81.24,311.3,50.8,416.43C1710,2199.77,1460.5,2338.14,1199.05,2420c-33.78,10.82-78.33,25.74-121.42,40.18l-.27.09c-41.88,14-85.14,28.52-118.57,39.27-90.2-19.83-184.53-38.43-275.21-38.43a581.47,581.47,0,0,0-61.73,3.15c-46.06,4.91-89.09,15.57-130,32.44a369.65,369.65,0,0,0,42.35-44.15c52.48-64.41,87.8-150.19,97.46-236.3,253.07-136,515.9-281,727.51-420.87l196.68-144.59.74-.59c7-6,14.36-12.51,22.11-19.37l.15-.13c52.26-46.18,117.25-103.62,181-109.74C1812.72,1522.18,1856.51,1546.16,1890.05,1592.27ZM383.93,2559.16a618,618,0,0,0-50.75,43.16c-4.38-11.93-8.51-22.24-11.82-30.19A288.52,288.52,0,0,0,383.93,2559.16Z"/>
  </g>
</svg>
