<svg xmlns="http://www.w3.org/2000/svg" viewBox="0 0 2994.91 3000">
  <title>66Icon_neon 1</title>
  <g>
    <path d="M2171.33,984.62l-413.15-139.8-4.39-1.49L1339.47,998.7l-61.27-29.87L935.77,957l-7.06-.24L515.05,1549.32l191.77,192.27a116.86,116.86,0,0,0,97,208.57c-14.94,17.7-23.38,40.77-23.77,65.21-.42,25.32,7.83,48.82,23.2,66.19,8.65,9.76,27.33,26.2,37.73,33.17a107.25,107.25,0,0,0,67.06,18,101.65,101.65,0,0,0-8.32,10.64l-5.11,9.82-6.29,12.24c-13.81,36.65-7.52,80.25,19,109.76,8.86,9.85,29,28.52,40.72,36.93a108.61,108.61,0,0,0,63.73,20.27c3.7,0,7.46-.18,11.16-.55,26.82-2.65,51.11-14.62,68.42-33.69l34.49-38a129.88,129.88,0,0,0,128.54,148.21,128.54,128.54,0,0,0,84.75-31.53l40.29,34.21,74.63-40.55-71.25-72.75a131.42,131.42,0,0,0,1.42-19.22,129.76,129.76,0,0,0-8.6-46.44l48.66-1,190.15,188.74,3.8,3.76h5.34c1.69,0,41.87-.25,83.5-22,19.7-10.31,73.63-51.43,75.92-53.19l11.77-9-274.45-275.21-25.59-69.87,83.43,8.93L1906.92,2340l4.26,4.38,6.1-.48c9.32-.75,91.86-7.81,120.12-26.12,28.43-18.43,61-83.31,64.65-90.63l4-8.16-295-309-12.63-52.34h82.23L2164.41,2137l2.26,2.25,3,1a152.29,152.29,0,0,0,39.73,5.4c29.71.2,55.47-8.62,74.42-25.42,39.58-35.1,46.72-73.73,45.74-100-1.05-28.32-11.64-48.46-12.09-49.31l-.93-1.72L2216.21,1869l257.66-250.1,6.78-6.59L2173.71,989.45Zm95.29,1116.1c-30.18,26.76-74.61,18.26-86.36,15.38l-285.11-280.79-3.8-3.74H1765.44l21.21,87.9.83,3.36,287.13,300.8c-12.69,24-35.33,61.91-51.35,72.3s-67.61,18.24-102,21.48l-327.69-335.68-3.28-3.38L1456,1964l41,111.83,1,2.67,257.48,258.18c-20.72,15.5-48.83,35.85-60.32,41.85-27.66,14.46-55.25,18-66.37,18.8l-190-188.6-3.91-3.87-72.48,1.56a129.75,129.75,0,0,0-138.62-54l13.68-15.07c17.24-19,27.39-44.54,28.57-71.89h0c1.19-27.59-6.92-54.59-22.82-76-8.93-12-30.34-30.78-42.1-38.28-22.31-14.22-49.89-19.77-77.64-15.63a121,121,0,0,0-41.92,14.37q.45-4.08.61-8.21a116.47,116.47,0,0,0-24.19-75.57c-6.81-8.81-25.94-27.95-39.82-34.73-21-10.24-46.33-13-71.35-7.78-21.84,4.56-41.7,14.84-56.83,29.28a116.86,116.86,0,0,0-115.8-132.56,115.53,115.53,0,0,0-43.42,8.36L548.83,1546.36,941.94,983.25l329.84,11.37,49.86,24.32-248.07,553.37-3.81,8.48,6.77,6.34c1.64,1.54,16.54,15.44,34.55,29.65,25.42,20.06,44.11,30.59,57.14,32.19a74.29,74.29,0,0,0,9,.54c30.6,0,68-16.8,95.12-31.68,33.55-18.4,68.24-43.31,88.38-63.44,50.81-50.82,125.08-244,132.31-263L1542.6,1214l645.07,664.53,9.06,9.35.82-.81,97.74,97.58a101.83,101.83,0,0,1,8.34,36.57C2304.39,2041.84,2298.59,2072.36,2266.62,2100.72ZM1254.41,2382.38a103.84,103.84,0,1,1,103.84-103.84A104,104,0,0,1,1254.41,2382.38Zm-431.7-318.05c-22.65-25.59-21.77-71.61,1.87-98.49l78.62-89.38c24.93-28.34,70.36-37.89,103.43-21.74,8.5,4.15,24.63,19.46,30.66,27.26,26.94,34.86,21.39,77.66,4.76,103.08L941.77,2095.58c-25.81,15.94-60.29,15-86.31-2.43h0C846.79,2087.33,830,2072.52,822.71,2064.33Zm105,85.38,30.92-34.07a94.58,94.58,0,0,0,18.12-15.91l78.63-89.39a100.7,100.7,0,0,0,7.27-9.34l11-12.16c16.19-17.84,41.45-28.49,67.57-28.49,16.89,0,32.71,4.39,45.74,12.7,9.57,6.1,28.35,22.64,35.19,31.84,25.27,34.06,23.46,84.56-4.13,115l-146,160.87c-14.91,16.44-36.81,25.86-60.09,25.86h0A83.17,83.17,0,0,1,963.23,2291c-10-7.17-28.76-24.53-36.56-33.2C900,2228.24,900.52,2179.73,927.75,2149.71Zm-62.83-312.57a90.86,90.86,0,1,1-90.86-90.85A91,91,0,0,1,864.92,1837.14Zm1332.95,13.4-648-666.42-11.43-11.78-68.31,106.75-.63,1.26-.23.61c-21.59,57.24-86.45,214.63-126.86,255-18.08,18.09-51.2,41.75-82.39,58.87-37.07,20.35-69.36,30.66-88.58,28.3-12.35-1.52-44-25.25-70.27-48.78l247.1-551.2,406-152.26,398.54,134.86,296.19,601ZM1382.7,2379.71,1357.07,2358a129.57,129.57,0,0,0,17.85-31.1l36.49,37.25Z"/>
    <path d="M2536.56,667.65,2531,656.5l-11.38,5.09c-1.68.75-168,75.34-217.21,112-20.88,15.56-37.47,42-45.53,72.44-8,30.11-6.67,60.23,3.53,82.62s21.91,48.51,34.26,76.09c77.65,173.4,195,435.44,289.4,551.11,20.06,24.57,50.34,32.12,72.21,34.13,4.91.45,9.94.67,15,.67,18.2,0,37-3.05,50.27-8.17,53.66-20.66,204.32-103.64,205.83-104.47l10.94-6Zm175.61,890.57c-11.24,4.33-32.14,7.82-53.51,5.87-16.91-1.55-40.09-7.09-54.45-24.68-92.23-113-208.73-373.16-285.82-545.3-12.36-27.62-24-53.7-34.32-76.25-16.54-36.3.56-98.59,33.88-123.42,39.48-29.42,163.07-86.7,200.94-104l385,770.76c-35.3,19.26-148,80.19-191.67,97Z"/>
    <path d="M770.57,965.73c15.87-25.67,30.86-49.91,43.93-70.74h0c13.07-20.84,18.33-50.52,14.43-81.42-4-31.27-16.91-59.64-35.55-77.83C749.53,693,594.47,597,592.91,596l-10.6-6.56L70.69,1343.87l10,7.4c1.38,1,139.37,103,190.2,130.8,12.84,7,36.3,14.93,63.66,16.06,2.07.08,4.14.13,6.18.13,28.72,0,52.9-8.44,69.92-24.4,108.88-102.17,259.87-346.38,359.78-508Zm21.9-84.55c-13.12,20.91-28.14,45.21-44.05,70.94l-.06.09c-99.19,160.43-249.08,402.88-355.45,502.68-16.56,15.54-40.27,18-57.23,17.26-21.44-.88-41.7-7.11-52.27-12.89-41.05-22.44-144.71-97.74-177.16-121.5l483.55-713C625.06,646.84,740,720,775.22,754.35,805,783.38,813.67,847.38,792.47,881.18Z"/>
  </g>
</svg>
