<svg xmlns="http://www.w3.org/2000/svg" viewBox="0 0 2994.91 3000">
  <title>90Icon_neon 1</title>
  <g>
    <path d="M694.15,535.88l-538,195.81L144,736.14,945.5,2938.36l4.45,12.22,538-195.81,12.21-4.46L698.6,548.1ZM965.49,2917.25,177.28,751.68,678.61,569.21l788.21,2165.57Z"/>
    <path d="M1053.44,869.27,2179.11,459.55l12.21-4.44L2046.6,57.47l-4.45-12.22L916.49,455l-12.22,4.45L1049,857.05ZM2026.61,78.58l131.39,361L1069,835.94,937.59,475Z"/>
    <path d="M1246,1398.26l126,346.25,4.44,12.22,975.45-355,12.22-4.45-130.47-358.47-975.45,355Zm972.13-326.15,112.69,309.6L1392,1723.41,1279.31,1413.8Z"/>
    <path d="M2724.68,1889.72,1587.81,2303.51l-12.22,4.44L1718.29,2700l1136.87-413.78,12.21-4.45Zm-990.85,777-124.92-343.21L2709.13,1923l124.92,343.21Z"/>
  </g>
</svg>
