<svg xmlns="http://www.w3.org/2000/svg" viewBox="0 0 2994.91 3000">
  <title>48Icon_neon 1</title>
  <g>
    <polygon points="718.92 976.39 695.04 966.12 670.13 1024.1 645.43 1086.93 669.64 1096.43 694.1 1034.16 718.92 976.39"/>
    <path d="M2329.62,1102.85l24.35-9.12-30.91-82.55-.2-.54-26-53.89-20.31,9.8c-14.56-54.62-52.35-196.81-70.41-268.72-7.06-28.46-13.72-57.12-20.15-84.84l-.08-.36c-3.93-16.93-8-34.43-12.09-51.62-12.55-53.13-23.2-96.42-33.5-136.27C2129.77,384.15,2117,336.41,2102.1,290l-.08-.24c-1.23-3.58-2.44-7.31-3.62-10.92l-.07-.2c-2.33-7.19-4.75-14.63-7.56-21.83l-5.88-15.91-.1-.26c-1.38-3.48-2.83-6.82-4.26-10.1-.79-1.82-1.59-3.65-2.37-5.5l-.07-.16c-.37-.87-.75-1.74-1.15-2.69-.72-1.69-1.46-3.44-2.3-5.23l-4-7.35-3.64-6.82-.25-.43a46.32,46.32,0,0,0-3.3-4.8c-.44-.57-.85-1.11-1.18-1.6l-.58-.78a109,109,0,0,0-24.18-22.47c-16.28-11.45-36.29-21.13-61.17-29.58l-.1,0c-6.27-2.07-11.49-3.67-16.35-5-3-.84-5.88-1.57-8.29-2.17l-3.65-.84-39.23-6.2-.6-.1c-22.45-3.71-45.65-7.54-68.83-12.36-21-4.51-40.65-11.19-58.78-17.75l-6.18-2.23-5.45,3.65c-11.47,7.66-26.61,17.71-42,27.51-7.63,4.83-16.53,10.43-25.74,15.78-3.66,2.13-8.48,4.88-13.4,7.26l-.1.05c-4.56,2.26-9.09,4.24-13.49,6.17l-.4.17c-16.8,7.17-34.55,14.18-55.86,22.07-17.94,6.67-36.42,13.33-56.48,20.37l-5.62,2-23.63-58.22-8-19.68L1500,151.65l-24.13-28-31.63,77.93-5.59-2c-20-7.08-38.43-13.79-56.35-20.5-16.91-6.35-36.56-13.82-55.94-22.08l-.49-.21c-4.36-1.91-8.86-3.87-13.4-6.12l-.11-.05c-4.88-2.35-9.73-5.1-13.41-7.25-9.28-5.37-18.16-10.93-25.74-15.72-15.51-9.84-30.63-19.85-42.07-27.47l-5.47-3.65-6.16,2.24c-18.08,6.54-37.71,13.21-58.64,17.72-23.2,4.83-46.35,8.65-68.66,12.34l-35.56,5.64-4.12.63-4.07.9c-3.22.8-5.85,1.49-8.19,2.15-4.94,1.35-10.17,2.95-16.55,5.06-24.87,8.43-44.89,18.1-61.18,29.57a109.26,109.26,0,0,0-24.22,22.49l-.57.78c-.34.48-.77,1-1.2,1.62a47.41,47.41,0,0,0-3.26,4.71l-3.85,7.19-3.7,6.81-.32.63c-.82,1.74-1.56,3.48-2.27,5.15l-.05.13c-.38.88-.75,1.75-1.13,2.62l-.08.18c-.78,1.85-1.57,3.68-2.38,5.52-1.4,3.24-2.86,6.58-4.25,10.09l-6,16.16c-2.81,7.21-5.23,14.65-7.57,21.86-1.19,3.64-2.41,7.41-3.68,11.1l-.08.24c-14.88,46.38-27.67,94.13-38.22,134.73-10.29,39.79-20.93,83.09-33.48,136.23-4.15,17.41-8.23,35-12.18,52-6.44,27.76-13.11,56.47-20.15,84.83-22.64,90.18-73,298.44-73.51,300.43l-23.57,94.55L694,1104.31l68.73,24.3c1.43.49,2.87,1,4.31,1.52,2.54.91,5.42,1.94,8.23,2.85l12.65,3.6.18.05c30,8,61.13,15.55,90.46,22.55l11.53,2.76,10-29.58.2-.62c3.33-10.16,6.77-20.68,9.32-30.21l15.37-64-9.25-3.15,83-296.22L1008.83,702l74.3-252.41,6.74-15.25,5.84,16.75,73.87,691.83.11,1-12.17,88.06-.35.82c-8,18.66-14.71,38.28-21.19,57.29-5.18,15.22-10.54,31-16.47,45.75-5,12.43-8.83,23.28-13,34.86l-.13.37c-1.45,4.06-2.93,8.2-4.51,12.58-1,2.75-2.13,5.73-3.26,8.67-2.25,5.89-4.58,12-6.23,17.63-1.44,4.87-2.64,10-3.8,15-.89,3.82-1.81,7.77-2.81,11.41l0,.2c-14.4,56.26-24.38,113.76-34,169.39l0,.24c-2.37,13.68-4.83,27.83-7.32,41.81-6.26,35.22-12,71.36-17,107.44-4.08,29.62-9.1,68.64-11.65,107.8v.12c-3.79,68.43-1,139.26,1.72,207.78l.37,9.33c2,44.89,4.4,90.54,6.73,134.69,1.43,27.18,2.91,55.28,4.29,82.95,2,40.55,3.52,74.61,4.42,109.06,1.1,37.82.65,76.19.15,109.16-2.39,138.15-6.78,276.13-11.44,417.1l-.41,12.68,232.92,13.16c9.53.63,19.46,1,30.35,1.26l209.29,5.83,4,.11,217.09-6.05c11-.22,20.95-.63,30.4-1.26l220.27-12.44,12.66-.72-.41-12.69c-4.66-140.92-9-278.86-11.44-417.06-.5-33-1-71.37.15-109.23.9-34.43,2.42-68.48,4.42-109,1.39-28,2.94-57.26,4.3-83.06,2.32-44.11,4.73-89.73,6.72-134.64l.37-9.3c2.71-68.49,5.51-139.32,1.72-207.75V1863c-2.55-39.13-7.57-78.17-11.65-107.83-5.05-36.08-10.78-72.22-17-107.42q-1.48-8.36-3-16.72l-.48-2.74c-11.42-64.23-23.23-130.64-39.52-194.32l-.05-.2c-.88-3.22-1.68-6.3-2.47-9.32-1.33-5.1-2.59-9.92-4.13-15.12-2.42-8.32-5.31-18-8.42-26.66-2.56-7.08-4.81-14.73-7-22.16-2.87-9.76-5.84-19.85-9.77-29.72-12.2-30.45-23.45-61-36.47-99.21l-.7-1.73-12.17-88.05.1-.81,72.72-690.2,4.46-13.42,8.39,13,74,251.44,93.13,332.44-9.25,3.15L2090.3,1101l.08.31c2.53,9.48,6,20,9.27,30.09l10.3,30.42,11.54-2.78c29.06-7,60-14.48,90.29-22.64l12.34-3.47.42-.12c2.79-.9,5.58-1.89,8.27-2.85l4.35-1.53,68.37-24.06-22.91-114.95-.19-.79-1.15-4.33,17.65,36.57ZM2127,1131l-2.45-7.2-.15-.47c-3.18-9.73-6.48-19.79-8.82-28.54l-9.68-40.37L2116,1051l-89.61-319.91-10.18-36.32-75.12-255.21-39.86-61.75-22,66.2-.45,1.39-73,692.67-.49,4,13.1,94.76,1.54,3.64c13.1,38.37,24.45,69.24,36.78,100,3.47,8.7,6.26,18.2,9,27.41,2.29,7.79,4.65,15.84,7.48,23.63,2.85,8,5.61,17.17,7.94,25.17,1.43,4.84,2.63,9.46,3.91,14.36.8,3.08,1.62,6.22,2.52,9.5,16,62.72,27.75,128.63,39.08,192.36l.47,2.64q1.5,8.42,3,16.8c6.2,34.9,11.88,70.72,16.87,106.44,4,29.2,9,67.62,11.46,105.91,3.71,67.16.93,137.33-1.75,205.21l-.37,9.21c-2,44.62-4.37,90.08-6.69,134l0,.32c-1.43,27.23-2.92,55.38-4.29,83.14-2,40.72-3.55,74.94-4.45,109.6-1.11,38.35-.66,77.06-.15,110.36,2.32,134.36,6.52,268.24,11,404.81l-207.63,11.72h-.13c-9.07.61-18.65,1-29.38,1.22l-216.47,6-212.61-5.92h-.1c-10.53-.2-20.11-.6-29.29-1.21l-207.75-11.73c4.51-136.58,8.71-270.47,11-404.83.51-33.28,1-72-.15-110.3-.9-34.7-2.43-68.92-4.45-109.64-1.38-28-2.93-57.25-4.29-83l0-.64c-2.32-43.89-4.71-89.28-6.68-133.76l-.37-9.29c-2.68-67.87-5.46-138.06-1.75-205.23,2.5-38.29,7.43-76.69,11.45-105.85,5-35.76,10.68-71.58,16.88-106.46,2.54-14.24,5-28.43,7.39-42.19,10-57.62,19.46-112,33.58-167.26,1.1-4,2.08-8.21,3-12.25,1.07-4.61,2.19-9.39,3.43-13.58,1.37-4.7,3.51-10.29,5.58-15.7l.08-.19c1.13-3,2.3-6,3.34-8.91,1.56-4.33,3-8.46,4.48-12.51l.19-.54c4-11.27,7.81-21.92,12.6-33.93,6.17-15.4,11.64-31.46,17-47.07,6.3-18.5,12.82-37.63,20.44-55.34l1.75-4.06,13.11-94.86-.49-4.07-74-693.21-.16-1.43-28.55-81.89-34,77.11-74.8,254.11L884,1051.07l10.1,3.44L884.43,1095c-2.36,8.8-5.66,18.88-8.85,28.64l-2.55,7.52c-25.61-6.14-52.29-12.67-78.14-19.59L783,1108.17c-2.34-.76-4.83-1.65-7.27-2.52l-4.47-1.58-46.39-16.4,20.73-83.15c2.08-8.58,51-211,73.49-300.34,7.09-28.57,13.78-57.37,20.25-85.25,3.74-16.1,8-34.36,12.14-51.86,12.53-53,23.13-96.14,33.36-135.71,10.45-40.21,23.1-87.46,37.76-133.18,1.3-3.79,2.55-7.63,3.78-11.42,2.24-6.87,4.56-14,7.11-20.53l5.94-16.06c1.21-3,2.55-6.13,3.85-9.12l.05-.1c.81-1.87,1.63-3.75,2.43-5.64.4-.93.81-1.87,1.21-2.82.58-1.37,1.18-2.78,1.75-4l3.5-6.44,3.51-6.57c.37-.59.87-1.25,1.49-2.06s1.07-1.4,1.64-2.23a83.27,83.27,0,0,1,18.26-16.87l.22-.15c14.26-10,32.14-18.64,54.57-26.25,5.85-1.93,10.67-3.4,15.25-4.65,2.12-.6,4.48-1.22,7.39-1.94l2.39-.56,38.59-6.09.79-.13c22.64-3.74,46.06-7.61,69.87-12.56,20.14-4.34,38.72-10.38,55.92-16.49,10.7,7.1,23.76,15.7,37.14,24.18,7.8,4.92,16.93,10.65,26.59,16.24,4.06,2.36,9.44,5.42,15.09,8.15,5.08,2.5,9.86,4.59,14.49,6.61l.65.28c19.89,8.49,39.87,16.07,57,22.52,18.09,6.78,36.67,13.54,56.81,20.67l29,10.27,25-61.54,16,18.61,16.13-18.71L1541,234.21,1570.11,224c20.14-7.07,38.74-13.77,56.84-20.49,21.71-8,39.84-15.21,57.06-22.56l.6-.25c4.62-2,9.41-4.13,14.48-6.63,5.71-2.77,11.09-5.84,15.13-8.19,9.61-5.58,18.76-11.33,26.6-16.3,13.35-8.49,26.39-17.09,37.08-24.2,17.23,6.12,35.84,12.17,56,16.51,23.78,5,47.26,8.82,70,12.59l35.53,5.63,3.54.54,2.39.55c2.2.55,4.79,1.21,7.51,2,4.48,1.23,9.27,2.7,15.08,4.61,22.53,7.65,40.41,16.25,54.64,26.29l.23.16a82.62,82.62,0,0,1,18.21,16.84c.61.88,1.21,1.66,1.7,2.3s1.07,1.41,1.42,2l3.54,6.62,3.48,6.4c.58,1.27,1.18,2.68,1.78,4.09l1.2,2.79c.81,1.92,1.64,3.82,2.46,5.72,1.31,3,2.65,6.08,3.86,9.12l5.86,15.88.09.21c2.55,6.53,4.86,13.63,7.1,20.53,1.15,3.54,2.45,7.53,3.77,11.38,14.67,45.74,27.32,93,37.76,133.18,10.26,39.67,20.86,82.8,33.37,135.75,4.12,17.31,8.2,34.87,12.14,51.86l0,.18c6.45,27.79,13.12,56.53,20.21,85.07,22.15,88.26,73.59,280.72,76.3,290.81l18.41,92.4-47,16.55c-1.48.51-3,1-4.52,1.59-2.42.86-4.91,1.75-7.24,2.5l-11.89,3.34C2178.84,1118.33,2152.32,1124.86,2127,1131Z"/>
    <path d="M1281.47,101.7c8.31,5.25,16.47,10.29,24.32,15s16.53,9.84,24.43,13.54l.11.06c15.54,7.08,33.48,13.64,50.83,20l28.48,10.11,24.91,8.61,3.76-13.25c2.28-8.1,5-17.59,8.26-26.67,1.46-4.15,3.13-8.35,4.72-12.3l5.2-13-13.3-4.27c-6.91-2.21-13.93-4.52-21.46-7-12.6-4.25-26.88-9.06-41.35-15.1-2.6-1.1-6.49-2.83-10.23-4.84l-.09,0c-3.51-1.85-6.77-3.7-9.76-5.4-6.7-3.84-13-7.67-18.92-11.25-9.73-5.91-19-11.82-26.79-16.83l-6.91-4.44-66.37,41.25L1258.5,87C1266.66,92.28,1274.17,97.09,1281.47,101.7Zm140.58,18.74c-1.79,5-3.42,10.13-4.91,15l-25.53-9.05-1.53-.56c-16.86-6.16-34.3-12.53-48.9-19.18-6.72-3.16-14.9-8-22.07-12.3-7.6-4.56-15.59-9.49-23.75-14.65l-5.46-3.46,17.56-10.91c6.26,4,13.19,8.35,20.41,12.74,6,3.67,12.57,7.62,19.52,11.6,3.18,1.81,6.65,3.77,10.49,5.8,4.43,2.38,8.91,4.4,12,5.72l.43.18c15.37,6.41,30.11,11.38,43.13,15.76l8.73,2.91C1422.14,120.18,1422.09,120.31,1422.05,120.44Z"/>
    <path d="M1587.16,164.38c10.5-3.78,21.35-7.69,32-11.72,9.44-3.57,18.53-7.11,27-10.52,8.26-3.33,17.82-7.29,26.11-11.39l.23-.12c8-4.15,16.88-9.59,23.77-13.88,7.55-4.71,15.49-9.79,23.63-15.1,7-4.6,14.27-9.38,22.11-14.62l16.78-11.2-66.54-41.36-6.88,4.34c-10.76,6.78-19.07,11.92-26.92,16.67-5.94,3.59-12.34,7.42-18.93,11.16-2.8,1.59-6.15,3.47-9.77,5.36l-.1,0c-3.73,2-7.57,3.7-10.15,4.78-14.21,5.81-28.06,10.59-41.44,15.21-5,1.72-10.16,3.39-15.12,5l-.16.06-6.65,2.17L1543,103.62l27.15,66.91Zm123.61-87.81-5,3.31c-8,5.21-15.77,10.19-23.16,14.8-6.45,4-14.75,9.09-21.91,12.83-7.47,3.69-16.41,7.38-24.16,10.51-8.34,3.35-17.27,6.82-26.52,10.32-8.31,3.14-16.81,6.23-25.17,9.25l-7.28-18c3-1,6-2,9-3,13.75-4.75,28-9.65,42.89-15.76l.1,0c3.08-1.3,7.73-3.35,12.37-5.83,3.94-2.06,7.52-4.07,10.49-5.76,6.85-3.88,13.44-7.83,19.55-11.52s12.75-7.78,20.43-12.59Z"/>
  </g>
</svg>
