<svg xmlns="http://www.w3.org/2000/svg" viewBox="0 0 2994.91 3000">
  <title>146Icon_neon 1</title>
  <g>
    <path d="M700.94,1734.75c41.08,5.77,81.81,12.48,121.24,19,57,9.39,116,19.11,176.13,26,144.14,16.4,329.81,31.43,522.79,42.32,211.85,12,419.43,18.28,600.29,18.28,72.86,0,141.64-1,204.44-3.08l15.59-.5-75.64-349,64.37-478.9.92-6.67-112.34-105L2396,960.84l2.2.79,538.2-4.57-1266-401.38-6.88-2.17L895.81,1209.73l-15.08,12.91,167.33,81.24-329.43-12.34-9.9-.37-128,406.33-4.43,14,124,23.16Zm469.69-400.26L927.8,1216.59l741.6-633.94,1103.34,349.8-370.12,3.14L2108.82,830l194.68,181.91-63.81,474.62-.29,2.18,70,323c-58.26,1.71-121.42,2.58-188,2.58-404.61,0-864.27-31.33-1120.13-60.43-59.53-6.77-118.17-16.44-174.9-25.78-39.45-6.51-80.25-13.23-121.49-19L610,1691.33l117.59-373.44Z"/>
    <path d="M2702.7,2022.21l-.52-.6c-80.94-88.25-163.46-125.22-287.43-162.56l-20.37-6.13,38.15,207.64c-23.33,6.42-94.47,18.07-307.42,22.26-180.18,3.53-398.74.47-615.42-8.64-246-10.34-469.5-27.66-646.21-50.1-198.88-25.26-333.69-55.91-401.08-91.17L542,1695.32l-20.18,2.2C469.68,1703.18,359,1724,324.85,1736c-8,2.8-16.6,5.71-25.73,8.79-84.58,28.56-212.39,71.72-259.45,165.59l-.38.84c-13.07,31.68-12.82,64.23.74,96.75,20,48,69.36,96.08,146.7,143,68.48,41.54,142.32,71.85,166.59,81.81,201.17,82.58,429.49,124,671.22,167.76l2.39.44q28,5.08,56.43,10.25l.56.1.56.05,311.66,27.87c62.34,9.81,129.89,11.14,187.78,11.14,22.24,0,44.77-.23,66.55-.45,22-.22,44.77-.44,67.13-.45h.18l180.59-2.53,223.26-17.86.57-.1c25.78-4.48,52.46-8.8,80.75-13.4,96.24-15.62,205.32-33.32,299.84-61.49,110.11-32.83,184.07-75.09,226.08-129.2,27.73-35.73,36.51-71.75,26.83-110.12C2747,2080.38,2724,2048.68,2702.7,2022.21Zm-1303,391.29-312.33-28q-28.35-5.17-56.43-10.25l-1.81-.33c-240.34-43.55-467.34-84.69-666-166.23-23.8-9.77-96.23-39.5-163-80-72.53-44-118.34-88-136.18-130.77-10.75-25.76-11-51.46-.89-76.38,42.44-84,163.89-125,244.33-152.17,9.21-3.11,17.92-6.05,26-8.87,28.68-10,115.9-27,170.87-34.63l-73.35,219,9.11,5.34c66.89,39.19,208.25,72.7,420.13,99.61,177.42,22.53,401.63,39.92,648.4,50.29,217.21,9.13,436.35,12.2,617,8.65,105-2.06,287.1-8.45,327.37-28l8.89-4.32-34.22-186.24c108.18,34,182.67,69.83,255.07,148.65,40.66,50.48,76,105.21,25.6,170.1-38.57,49.68-108.23,89-213,120.23-92.91,27.69-201.11,45.26-296.58,60.75-28.1,4.56-54.66,8.87-80.42,13.34L1897.55,2421q-90,1.26-180,2.52c-22.36,0-45.18.23-67.32.46C1565,2424.8,1476.83,2425.68,1399.74,2413.5Z"/>
  </g>
</svg>
