<svg xmlns="http://www.w3.org/2000/svg" viewBox="0 0 2994.91 3000">
  <title>165Icon_neon 1</title>
  <g>
    <path d="M2777.26,1001h0C2689.5,886.66,2568.39,793,2396.13,706.1c-260.49-131.35-567.61-196.38-912.91-193.3l-177.34,9.7-.6.09c-30.79,4.73-61.07,8.88-90.37,12.89-79.73,10.93-155,21.24-229,41.42-198.66,54.18-358.61,118.59-489,196.93-73.38,44.09-139.13,93.84-195.41,147.85a922.9,922.9,0,0,0-153,191.48c-40.15,67-68.93,149.68-81,232.66C53.67,1440.68,61.68,1534.1,90.66,1616c24.71,69.82,60.9,137.07,104.64,194.48,44.54,58.46,97.07,112.61,156.13,161,56.1,45.92,120.08,88.21,190.16,125.71,127.73,68.33,279.25,123.43,463.2,168.43,56.78,13.89,113.49,20.61,173.53,27.73,32.32,3.83,65.74,7.79,99.61,13l.61.09,144.8,7.71c34.69,5,103.2,2.37,133.54-1.91l52.2-1.9,167.55-15.53,103.2-17.8c23,10.06,48.83,21.37,74.91,32.8l5.38,2.35c30.79,13.48,61.68,27,88.44,38.71l.27.11,23.08,9.48c90.81,37.35,176.59,72.63,283.78,97.65l.48.1c20.4,3.93,37.76,8.65,54.54,13.21,17.2,4.68,35,9.52,56.27,13.62,3.46.74,7.87,2,12.54,3.26,11.75,3.27,25.06,7,36.7,7,11.8,0,20.44-3.86,25.68-11.47,12.43-18.05-2.4-48.65-32.22-95.4l-.09-.14c-2.28-3.58-4.08-6.41-5.23-8.34-29.14-49-57.44-115.57-78.15-164.36-4.67-13-9.35-25.81-13.48-37.12-4.3-11.8-9.18-25.15-14-38.61-1.86-6.31-4.33-13.44-6.72-20.33-1.1-3.16-2.21-6.36-3.26-9.48,7.18-3.74,15-7.73,22.55-11.63l.24-.12c11.35-5.82,23.09-11.84,32.85-17.06l.35-.19,103.08-63.87.59-.38c79.46-55.62,144.41-112.75,198.56-174.66,62.21-71.12,108.86-146.8,142.6-231.38,13.36-33.46,20.73-69.54,28.53-107.74l1.49-7.3C2952.75,1333.76,2904.87,1167.34,2777.26,1001ZM2509.43,2468.67c-7.14-1.06-15.54-3.4-22.95-5.46-5.12-1.42-10-2.77-14.24-3.67l-.22-.05c-20.38-3.92-37.72-8.64-54.49-13.2-17.18-4.67-35-9.5-56.18-13.6-105-24.54-189.8-59.4-279.56-96.31l-.79-.33-22.15-9.1c-26.76-11.7-57.65-25.23-88.43-38.7l-8.64-3.79-36.53-16c96.46-21.07,238.33-67.9,312.09-97.87,26.06-10.59,94.71-38,127.23-50.95.93,2.76,1.9,5.55,2.85,8.3l.95-.33v0l0,.07-.94.33c2.32,6.72,4.73,13.66,6.44,19.47l.22.69q7.27,20.27,14.19,39.11l.18.49q6.5,17.8,13.38,36.87l.26.65c21,49.5,49.77,117.27,79.89,167.86,1.37,2.31,3.3,5.33,5.74,9.16,6.29,9.86,15.8,24.77,23,39,9.08,17.95,9.66,25.29,9.53,27.5C2519.1,2469.16,2516,2469.64,2509.43,2468.67Zm-109.88-393.52c-7.38,3.79-15,7.67-22,11.35l-5,2c-1,.4-110.4,44-145,58C2144,2180.45,1974,2235.7,1883.1,2250.1l-.12,0L1773.21,2269l-165.45,15.35-52.54,1.92-.67,0-.66.1c-28.11,4.06-96.36,6.54-127.37,1.93l-.58-.09-144.72-7.7c-34-5.23-67.49-9.19-99.86-13-59.22-7-115.16-13.65-170.39-27.16-382-93.45-634.56-235-795-445.6-42.13-55.3-77-120.1-100.81-187.4-63.68-179.93-9.83-371.46,55.64-480.81C317.48,881.57,578.65,714.9,992.71,602c72.38-19.74,146.87-29.94,225.73-40.75,29.18-4,59.35-8.13,90.13-12.85l175.19-9.6c7.59-.06,15.27-.1,22.81-.1,331.64,0,627,64.14,877.85,190.62,168.64,85,286.91,176.4,372.21,287.54,122.82,160.07,169.07,319.4,137.48,473.58l-1.5,7.33c-7.56,37-14.7,72-27.19,103.29-61.18,153.32-166.57,278.58-331.62,394.16l-102.06,63.23c-9.44,5-20.91,10.93-32,16.61Z"/>
    <polygon points="778.23 1343.56 520.95 1343.56 520.95 981.49 494.94 981.49 494.94 1343.56 491.55 1343.56 491.55 1369.56 494.94 1369.56 494.94 1788.77 520.95 1788.77 520.95 1369.56 778.23 1369.56 778.23 1785.94 804.23 1785.94 804.23 978.65 778.23 978.65 778.23 1343.56"/>
    <polygon points="992.57 1745.14 992.59 1758.06 1201.32 1758.79 1201.42 1732.79 1018.53 1732.15 1017.6 1369.56 1197.47 1369.56 1197.47 1343.56 1017.54 1343.56 1016.73 1029.09 1212.42 1029.09 1212.42 1003.09 990.66 1003.09 992.57 1745.14"/>
    <polygon points="1421.48 985.4 1395.48 985.4 1395.48 1758.75 1607.24 1758.75 1607.24 1732.75 1421.48 1732.75 1421.48 985.4"/>
    <polygon points="1831.47 980.2 1805.47 980.2 1805.47 1758.75 2031.74 1758.75 2031.74 1732.75 1831.47 1732.75 1831.47 980.2"/>
    <path d="M2513,1384.5c0-102.64-18.11-199.34-51-272.28C2427.65,1036,2380.7,994,2329.81,994s-97.84,42-132.22,118.22c-32.9,72.94-51,169.64-51,272.28s18.11,199.33,51,272.27C2232,1733,2278.92,1775,2329.81,1775s97.84-42,132.22-118.22C2494.93,1583.83,2513,1487.13,2513,1384.5Zm-125.79,338.22c-18.53,17.43-37.85,26.27-57.44,26.27s-38.91-8.84-57.44-26.27c-19-17.89-36.2-43.76-51.12-76.9-31.39-69.71-48.67-162.52-48.67-261.32s17.28-191.62,48.67-261.33c14.92-33.14,32.12-59,51.12-76.9,18.53-17.43,37.86-26.27,57.44-26.27s38.91,8.84,57.44,26.27c19,17.89,36.2,43.76,51.12,76.9,31.39,69.71,48.67,162.52,48.67,261.33s-17.28,191.61-48.67,261.32C2423.45,1679,2406.25,1704.83,2387.25,1722.72Z"/>
  </g>
</svg>
