<svg xmlns="http://www.w3.org/2000/svg" viewBox="0 0 2994.91 3000">
  <title>84Icon_neon 1</title>
  <path d="M2681.11,2176.7,1314.89,71.92l-5.62-8.7L430.92,382.91l-9.66,3.52,1.19,10.23L719.1,2899l1.9,16.19,504.26-179.44,9.64-3.43L1009.4,576.89l622.05,986.23-324.88,118.25,76.51,435.74,2.66,15.29,517-188.17L2179,2369l5.67,8.74,489.77-182.3,15.17-5.66Zm-486,169.4-276.21-424.71-5.63-8.66L1406,2097.35l-70-399L1655.49,1582l15.16-5.51-669-1060.63-29.73-47.16,235,2246L743,2879.79l-293.52-2476L1298.7,94.73l1351.42,2082Z"/>
</svg>
