<svg xmlns="http://www.w3.org/2000/svg" viewBox="0 0 2994.91 3000">
  <title>82Icon_neon 1</title>
  <g>
    <path d="M583.69,599.27,169.47,750l-12.22,4.44L946.73,2926.14l4.44,12.22,414.22-150.77,12.22-4.44L588.13,611.5ZM966.72,2905,190.57,770,568.14,632.6l776.15,2135Z"/>
    <path d="M931.3,783.91l916.06-333.67,183.88,480-903.41,329.06-12.24,4.44,90.33,247.38,4.47,12.19L2407.6,1087.49l12.21-4.45L2050.71,69l-4.44-12.22L841,495.42l-12.18,4.44,98.05,271.8ZM2030.73,90.06l355.76,977.45L1225.89,1490,1149,1279.3l903.61-329.14,12.42-4.52L1867.06,429l-4.57-11.94-915.6,333.5L862.06,515.42Z"/>
    <path d="M2743,2013.73l-2.12-5.86L1521.31,1589.35l-4.37-1.51-233.51,85.45-12.2,4.48,88.16,240.33,2.13,5.81L2581,2342.41l4.36,1.51,245.27-89.28Zm54.36,225.37-212.2,77.24-1203.47-413-77.07-210.1,212.62-77.8,1203.44,413Z"/>
  </g>
</svg>
