<svg xmlns="http://www.w3.org/2000/svg" viewBox="0 0 2994.91 3000">
  <title>50Icon_neon 1</title>
  <g>
    <path d="M2255.59,2310.85c-14.44-211.09-42.77-394.44-86.59-560.53l-.34-1.08c-42.62-117.3-100.92-270.11-174.09-411.71-79.8-154.43-163.73-271.13-256.46-356.56-.56-4.16-1.45-10.25-2.63-18.32-2.08-14.14-5.92-40.31-5.94-45.34,1.56-15.15,5.32-53.18,10.07-101.2,11.69-118.41,29.46-298.32,39.87-394.32,28.78,96.81,56.67,196.18,83.78,292.79,41.84,149.11,85.11,303.3,132.11,449.79l4.13,12.91,12.73-4.66c2.55-.94,7.21-3.11,13.22-6q.65,2.94,1.31,5.88c6.62,29.85,13.47,60.71,22.32,90l4.65,15.37,14.06-7.74c17.54-9.65,39.59-13,56.85-14.9l14.14-1.53-2.79-13.94c-5.58-27.94-12.85-56.39-19.88-83.91l-.24-.91q-.72-2.82-1.43-5.63c6.88-2.65,14.4-5.71,19.85-8.85l8.56-4.93-2.47-9.57c-20.93-81.33-48.53-162.79-75.22-241.57-20.87-61.58-42.44-125.26-60.55-188.13l-.14-.43c-17.25-52.61-29.43-109-41.22-163.53C1944,442.9,1924,350.53,1881,269.14l-.49-.94-1.41-1.83-.8-.74c-30.69-28.2-71.26-34.55-110.49-40.69-13.82-2.16-28.1-4.4-41-7.57-27.24-7.57-62-18.49-89.26-35.9-29.19-18.62-44.82-41.14-47.79-68.83l-2.06-19.25-17,9.2c-5.55,3-16.32,8.83-25.83,14l-15.37,8.32-.48.32c-7.53,5-14.79,6.23-19,3.17l-3.54-2.62-13.22.22-3.32,2.46c-4.15,3-11.43,1.83-19-3.21l-.48-.32-.51-.27-23.21-12.56-34.45-18.64-2.09,19.26c-3,27.71-18.62,50.23-47.8,68.84-27.28,17.41-62,28.32-89.24,35.89-12.89,3.16-27.15,5.4-41,7.56-39.26,6.14-79.86,12.49-110.54,40.71l-.79.73-1.41,1.83-.49.94c-43,81.4-62.94,173.75-82.25,263.06-11.78,54.53-24,110.92-41.24,163.57l-.13.44c-18.09,62.83-39.67,126.52-60.56,188.16-26.69,78.78-54.29,160.24-75.2,241.52l-2.47,9.57,8.56,4.93c5.41,3.13,12.95,6.19,19.87,8.86-.32,1.22-.65,2.43-1,3.65-7.65,28.62-15.55,58.21-21.36,87.42l-2.75,13.79,14,1.66c19.13,2.27,41,5.85,58.09,15.21l14,7.69,4.65-15.31c9.28-30.61,16.11-63,22.72-94.31l.11-.54.42-2c6,2.92,10.66,5.11,13.26,6.06l12.72,4.67,4.14-12.9c47-146.48,90.27-300.68,132.12-449.8,27.11-96.6,55-195.94,83.76-292.73,10.55,98.78,28.64,286.89,39.5,399.79l.11,1.15c4.42,45.89,7.92,82.26,9.35,96.4,0,5.32-3.9,31.56-6,45.77v.11q-1.76,11.91-2.59,18c-212.46,204.29-328.71,490.45-429.56,766.16l-.2.55-.15.56c-43.83,166.39-72.15,349.73-86.59,560.5-13,189.72-13.59,384-13.09,566.63l0,11,10.84,1.81c203.21,34,369.62,55,523.69,66.22,86.46,6.29,170.37,9.47,249.39,9.47,97.18,0,188.2-4.57,278.25-14,115.61-8.08,233.81-26.38,348.15-44.08l.18,0c38.07-5.89,77.43-12,115.82-17.56l11.09-1.62,0-11.21C2269.2,2694.63,2268.55,2500.2,2255.59,2310.85ZM1282.2,998.73l3.62-3.44.38-4.93c.19-2.33,1.61-12.06,3-21.47l0-.13c4.51-30.76,6.48-45.42,6.22-50.93l0-.67c-1.39-13.71-4.92-50.41-9.39-96.87l-.11-1.08c-14.39-149.63-41.18-428.16-47-463.06l-9.06-54.72-16.2,53c-35.3,115.62-69.18,236.37-102,353.15-40.45,144.14-82.24,293-127.37,434.87l-6.47-3.18c-3-1.47-5.56-2.74-7.08-3.46l-14.81-7-3.45,16q-2,9.28-4,18.67l0,.2c-5.46,25.85-11.07,52.44-18,77.8-12.7-4.83-26.11-7.7-38.9-9.67,5.27-24.08,11.8-48.5,18.14-72.24l.16-.6,3.83-14.37,3-11.19-10.77-4.25c-1.84-.72-3.93-1.51-6.14-2.35l-.11-.05c-3.84-1.45-8.2-3.11-12.17-4.76,20.33-77,46.55-154.36,72-229.32C980.39,831,1002.05,767,1020.3,703.69c17.64-53.84,30-110.82,41.87-165.94,18.76-86.84,38.16-176.6,78.75-254.37,24.83-21.68,60.66-27.29,95.33-32.72,14.41-2.25,29.31-4.58,43.35-8l.35-.09c29-8.05,66.22-19.77,96.47-39.07,29.85-19,48.34-41.9,56.13-69.51l2.32,1.26,22.23,12c14.8,9.67,30.4,11.53,43,5.37,12.54,6.11,28.09,4.24,42.82-5.4l18-9.75,6.61-3.59c7.89,27.46,26.69,50.79,56.07,69.54,30.27,19.31,67.47,31,96.49,39.08l.35.09c14,3.47,28.95,5.81,43.39,8.07,34.65,5.42,70.45,11,95.3,32.69,40.56,77.77,60,167.54,78.74,254.41,11.91,55.1,24.22,112.08,41.85,165.9,18.25,63.32,39.9,127.21,60.84,189,25.41,75,51.64,152.39,72,229.36-4,1.65-8.28,3.29-12.1,4.74-2.22.84-4.32,1.64-6.17,2.37l-10.68,4.18,2.82,11.11q2.25,8.86,4.54,17.83c5.79,22.65,11.75,46,16.72,68.87a181.22,181.22,0,0,0-37.82,9.45c-6.66-24.08-12.24-49.23-17.68-73.73l0-.1q-2.43-11-4.9-21.92l-3.57-15.76-14.63,6.87c-1.49.71-4.06,2-7,3.43l-6.31,3.08c-45.14-141.85-86.92-290.74-127.37-434.89l0-.12c-32.77-116.75-66.64-237.47-101.92-353l-16.49-54-8.78,55.73c-5.78,36.65-31.8,300-47.34,457.36-4.79,48.53-8.58,86.86-10.1,101.6l-.05.66c-.28,5.48,1.59,19.41,6.17,50.64l0,.25c1.33,9.06,2.84,19.32,3,21.56l.38,5.16,3.83,3.49c198.22,180.44,327.1,485.71,427,760.64,92.13,349.52,99.58,709.18,98.76,1108.72-34.94,5.13-70.46,10.63-104.92,16l-.23,0c-113.85,17.62-231.59,35.85-346.18,43.85l-.45,0c-88.11,9.21-181.42,13.89-277.33,13.89h-.07c-274.39,0-535.77-36.89-756.34-73.56-.94-398.92,6.42-758.21,98.69-1108.85C956.24,1483.53,1071.8,1199.2,1282.2,998.73Z"/>
    <path d="M1405.1,26.24,1385,66.13l97.44,50.27L1500,82.54l19.53,32.95,95.17-51.41-19.42-38.9-93.64,52.27L1500,81.36l-1.48-3.66Zm15.35,32.44,23.54,12,7.42,3.72L1420.25,59Zm104,27.87-.14-.29L1580,58l.62,1.12Z"/>
  </g>
</svg>
