<svg xmlns="http://www.w3.org/2000/svg" viewBox="0 0 2994.91 3000">
  <title>60Icon_neon 1</title>
  <g>
    <path d="M1177.14,715.84c44.16-8.69,113.78,6.8,159.85,17.06l4.85,1.08c43.88,9.75,55.46,13.81,59.27,15.15a16.33,16.33,0,0,0,6.72,1.2l.66,0,6.81,2,.68-2.36,1.06-.06,63.8-225.78a171,171,0,0,1,19.09-4.34c6.2,1,12.74,2.35,16.77,3.43L1578.4,741l2.59,8.84,1.08.06.48,1.64,5.87-1.31,1.78.09a19.35,19.35,0,0,0,7.07-1.21c5.36-1.58,19.6-5.78,61.73-15.14,38.65-8.58,106-17.7,168.53-15.16,67.57,2.75,149.68,29.79,150.49,30.07l41.1,9.85-27.91-30.46c-1-1-100.81-103-176.37-147.32-29.49-17.28-79.12-30.89-122.92-42.9-22.4-6.14-43.56-11.94-60.41-17.77-20.5-7.08-26.39-11.56-27.92-13.06-4.07-15.67,14.46-30.31,50.88-48,23.36-11.37,47.74-23,65.61-41.16,4.8-4.87,47-48.66,50.51-85.6,3.66-38.27-15.86-87.9-30.13-124.18-3.36-8.55-6.54-16.62-8.91-23.32-11.56-32.57-34.73-76.15-56.64-96.42-44.26-41-89.24-58.51-119.17-66-28.71-7.19-49.31-6.86-55.15-6.57-4.41-.23-25.85-.85-55.5,6.57-29.93,7.5-74.9,25-119.17,66-21.92,20.28-45.08,63.86-56.63,96.42-2.37,6.67-5.53,14.71-8.88,23.22l-.05.14c-14.26,36.24-33.77,85.87-30.12,124.14,3.53,36.95,45.71,80.73,50.51,85.6,19.37,19.66,46.21,33.24,70.44,44.55s50.28,27.21,48.63,40.49c-.22,1.81-2.12,8.4-24.41,16.69-18.35,6.83-43.16,12.25-69.44,18-40.25,8.78-81.87,17.86-109.14,33.83-75.5,44.24-186,155.51-187.14,156.64l-29.71,31L1022.66,749C1023.52,748.79,1108.91,729.27,1177.14,715.84ZM1210,594c23.7-13.89,63.27-22.52,101.53-30.87,60.39-13.17,112.54-24.55,114.28-58.75.68-13.44-6.21-25.65-21.07-37.31-11.25-8.83-26.2-16.85-42-25.34-21.94-11.76-46.8-25.1-63.41-41.95C1283,383.3,1258.14,351.1,1256.12,330c-3.06-32.07,15.14-78.35,28.43-112.15,3.45-8.76,6.7-17,9.24-24.19,10.37-29.24,31.83-69.41,49.79-86,40.21-37.22,80.81-53.09,107.79-59.86,28.12-7,47.43-5.87,48.24-5.81l.9.06.86-.07c.19,0,19.8-1.27,48.09,5.82,27,6.77,67.58,22.64,107.79,59.86,18,16.61,39.41,56.79,49.79,86,2.53,7.12,5.79,15.4,9.24,24.17,13.29,33.8,31.49,80.08,28.43,112.16-2,21.14-26.91,53.34-43.15,69.83-15.18,15.41-37,27.35-58.18,38.91-17.38,9.5-33.81,18.48-45.85,29-15.59,13.57-22,28.17-19.52,44.64,3.2,21.45,37,31.64,107,50.84,42.24,11.58,90.12,24.71,116.65,40.25,44.45,26.05,98.6,73.89,133.76,106.92-30.52-7.78-70.36-16-106.88-17.47-65.07-2.64-135,6.84-175.22,15.76-28.22,6.27-44.32,10.31-53.64,12.82l-70.08-194.09-.23-.78-.77-1.58-.49-.67c-1.7-2.34-6.21-7.21-26.1-12.86l-2-.29-1.89.29c-22.6,5.32-27.86,10.89-29.67,13.36l-1,1.38L1398.29,721c-9-2.58-24.37-6.54-50.81-12.41l-4.84-1.08c-48.19-10.73-121-26.94-170.52-17.19-37.19,7.32-79.28,16.64-110.52,23.76C1099.54,678.28,1162.44,621.86,1210,594Z"/>
    <path d="M2203.94,1846.33l-13.53-18.45c-.23-.32-23.17-32.13-55.3-100.36-30.22-64.17-75-174.55-116.89-335.92-41.78-161-60-308.42-68-403.71-8.59-102.94-7.33-168.79-7.32-169.44l.23-10.44L1933,805.54c-3.74-.92-92-22.44-119.6-25.14-50.12-4.91-95.67,6-132.28,14.81-15,3.59-27.93,6.7-38.34,8-20.23,2.49-80,15.19-89.87,17.3h-90.76c-9.89-2.11-69.63-14.81-89.87-17.3-10.42-1.28-23.36-4.39-38.35-8-36.59-8.78-82.14-19.71-132.28-14.8-27.6,2.7-115.85,24.22-119.59,25.13L1071.93,808l.22,10.44c0,.65,1.28,66.5-7.31,169.44-8,95.28-26.21,242.67-68,403.71C955,1552.94,910.2,1663.31,880,1727.48c-32.13,68.23-55.1,100.09-55.31,100.38l-13.55,18.47,22.82,2.16c1,.09,96.44,9,214.37,15.39L907.75,2937.27l-1.55,11.9,11.76,2.49c3.66.78,90.13,18.92,125.21,19h1c116.85,0,232-28,233.15-28.32l10.22-2.5-31.63-1070.32,52.57,1.23h15.16c11.59,0,23.2,0,34.64-.07l153.49,973.45,1.4,8.79,8.7,1.88c.91.2,93.09,20.37,212.61,63.5,41.06,14.82,127.62,24.24,128.49,24.33l15.19,1.63-57.84-1074.63c7.93-.17,16.34-.39,25.7-.66l26.44-1.15,121.14,998.42,2.11,17.31,16-7c.52-.22,52.52-22.47,86.78-18,46.62,6.09,64.76,3.92,66.75,3.64l13.19-1.91L2008,1861.51c98.4-6,172.32-13,173.11-13Zm-943,1073.05c-30.12,6.61-123.48,25.25-217,25.25h-.77c-22.48,0-74.12-9.2-108.06-16l139.27-1063.4,1.15,0h.16l154.22,3.6Zm589.63-4.44c-33.12-4.21-81.88-12-107.24-21.12-99.81-36-181.48-56.38-207.22-62.45l-151.51-960.8,409.71-.89ZM2148,2836.75a438.53,438.53,0,0,1-46.17-4c-28.44-3.72-63.85,6.47-84.43,13.74l-118.89-979.86,83.37-3.64ZM1981.68,1837l-86.29,3.76-26.05,1.13L1845.2,1843c-9.43.27-17.88.48-25.84.66l-438.85.95-3.51.15-5.36-.13h-2.31c-20.1.11-40.41.15-60.37.11l-232.34-5.41-18.71-1-6.14-.81-.06.48c-85.7-4.59-159-10.51-193.84-13.51,10.27-16.73,26.33-45,45.62-85.92,30.69-65.18,76.17-177.16,118.54-340.48,42.23-162.82,60.68-311.79,68.72-408.08,6.75-80.94,7.5-138.88,7.48-161.66,34.66-8.29,87.76-20.32,106-22.1,45.79-4.49,89,5.88,123.69,14.21,15.75,3.78,29.36,7,41.23,8.5,17.33,2.14,70.07,13.15,89,17.23l1.29.27H1555l1.42-.15.65-.14c18.87-4.06,71.61-15.07,88.93-17.21,11.88-1.46,25.49-4.72,41.25-8.51,34.7-8.32,77.88-18.69,123.67-14.2,18.21,1.78,71.31,13.81,106,22.1,0,22.78.72,80.72,7.48,161.66,8,96.29,26.48,245.26,68.72,408.09,42.37,163.32,87.85,275.29,118.54,340.47,19.29,41,35.34,69.18,45.62,85.92-29.2,2.51-85.67,7.09-153.59,11.21Z"/>
  </g>
</svg>
