<svg xmlns="http://www.w3.org/2000/svg" viewBox="0 0 2994.91 3000">
  <title>32Icon_neon 1</title>
  <path d="M2872.28,117.41l-2.06-13.66-13.51,2.88c-1.81.39-184.13,39.12-441.61,78.56-237.64,36.41-589.72,80.9-917.64,86.11-327.94-5.21-680-49.7-917.66-86.11C322.32,145.75,140,107,138.19,106.64l-13.51-2.89-2.06,13.66C87,353.59,94.26,635.49,144.12,955.27c47.86,306.91,125.44,585.62,182.09,765.39,39.31,124.73,78.47,246.19,125.2,360.81C504,2210.35,560,2314.65,622.83,2400.31c37.24,50.81,84.5,97.58,144.47,143,56.1,42.48,118.62,80.19,172.81,112.21,35.67,21.06,149.52,76.81,264.84,129.66,65.2,29.88,222.63,100.76,276.13,113.46l16.37,4,16.29-4c53.58-12.72,211-83.6,276.21-113.48,115.32-52.86,229.18-108.6,264.84-129.66,54.19-32,116.71-69.73,172.81-112.21,60-45.42,107.23-92.2,144.47-143,62.8-85.66,118.87-189.95,171.42-318.84,46.73-114.63,85.89-236.08,125.2-360.81,56.65-179.77,134.23-458.48,182.09-765.39C2900.64,635.49,2907.87,353.59,2872.28,117.41ZM1497.45,2875.87l-10.28-2.51c-51.34-12.19-206.89-82.26-271.38-111.82C1101.17,2709,988.34,2653.8,953.34,2633.13c-118.59-70.05-231.5-141.74-309.54-248.19-142-193.74-225.62-459-292.79-672.1C240.12,1361,67,690.52,146.33,134.89c46.63,9.58,211.88,42.66,429.53,76,238.49,36.54,591.93,81.19,921.4,86.41h.4c329.45-5.22,682.89-49.87,921.38-86.41,217.65-33.34,382.9-66.42,429.53-76,79.29,555.64-93.79,1226.11-204.68,1577.95-67.17,213.13-150.77,478.37-292.78,672.1-78.05,106.45-191,178.14-309.54,248.19-35,20.67-147.83,75.88-262.45,128.41-64.5,29.56-220.06,99.64-271.47,111.84Z"/>
</svg>
