<svg xmlns="http://www.w3.org/2000/svg" viewBox="0 0 2994.91 3000">
  <title>124Icon_neon 1</title>
  <g>
    <path d="M2195.21,1608.12c3.74-3,18.59-11.68,75.39-28.25,9.06-2.65,29.26-5.89,48.8-9,23-3.69,44.67-7.17,56-10.66,23.51-7.28,47.73-30,48.75-31L2435,1518.9l-11.79-9.39c-3.54-2.82-34.86-27.75-45.42-36.33-4.23-3.44-9.71-7.71-15.52-12.22-15.22-11.83-34.16-26.56-43.16-36.12-15.6-16.58-42.77-56.46-53.82-79-13.44-27.43-28.73-90.84-33.35-122.44-4.75-32.51-6-96.93-6.82-135.46l-.21-10.19c-.21-10-.2-22.92-.18-36.64.05-40.59.1-91.1-5.24-120.48-4.65-25.61-19.44-76.84-28.77-99.68-6-14.75-17-33.43-28.53-53.21-11.77-20.1-23.93-40.88-29.33-55.25-3.91-10.42-7.74-29.86-11.44-48.66-3.66-18.55-7.11-36.07-11-47.43C2101.3,590,2081,539.23,2065,515.24c-19.65-29.59-68.51-70.88-97.72-95.57l-3.74-3.16c-22.16-18.74-71.65-55.07-98.78-69.34-35.94-18.9-107.38-47.18-144.87-58.9-24-7.48-98.12-20.84-101.26-21.41l-20.14-3.62L1603.8,283c1,3.86,25.44,94.8,42.43,123.36,22.14,37.19,84.15,111.76,118.49,142.47,32.33,28.93,97.28,67.67,144.72,96l.21.12c10.64,6.35,20.7,12.35,29,17.4,23.74,14.49,74.23,39.09,100.21,49.79,12.78,5.26,54.37,13.16,72.52,16.46,6.76,15.35,17.72,34.08,28.38,52.3,11.09,19,21.56,36.84,26.89,49.89,8.49,20.78,23,71.11,27.26,94.49,4.92,27.06,4.86,76.27,4.82,115.8,0,13.87,0,27,.19,37.22.06,3.13.13,6.53.2,10.18.79,39.1,2.11,104.55,7.1,138.68,4.87,33.32,20.39,98.84,35.72,130.12,12.36,25.23,40.67,66.74,58.24,85.41,10.38,11,30.2,26.44,46.18,38.87,5.68,4.41,11,8.58,15,11.82,6.87,5.59,22.13,17.77,33.24,26.64-8.19,6.2-18.27,12.68-26.93,15.36-9.53,3-32.29,6.6-52.39,9.83-21.26,3.41-41.34,6.63-52,9.73-67.83,19.79-80.21,29.62-84.28,32.85-11.33,9-27,30.62-31.54,43.66-7.34,20.85-8.56,64.19-4.4,85,1.84,9.25,9.36,24.89,16.26,38-24.23,1.54-53.11,3.13-61.51,2.78-28.82-1.23-65.36-11.84-94.72-20.38l-5.25-1.52c-20-5.79-54.13-19.87-81.57-31.18l-.22-.09c-10.38-4.28-20.18-8.32-27.83-11.34-16.89-6.66-66-26.38-71.59-28.63l-47.85-19.25,33,39.61c.32.39,32.47,39,42.91,49.5,26.43,26.66,81.35,64.94,117.07,85.13,19.09,10.78,53.59,25.87,84,38.5a273.16,273.16,0,0,1-29-1.47c-53.7-6.79-157.4-23.32-205.37-42.2C1743,1787,1617.3,1727.2,1570.76,1681.21c-38.48-38-94.79-128.6-115.74-178.24-20.51-48.57-45.71-153.49-54.76-207.34-4.32-25.73-8-103-8.47-113.86,3-20.85,11.14-75.09,15.68-94.15,5-20.79,24.86-81,28.91-93.18,29.91-36.67,88.34-106.58,104.83-120.11,83.86-68.84,184.16-100.26,185.15-100.56l36.44-11.14-35.61-13.44c-.3-.12-30.21-11.75-66.13-39.82a348.11,348.11,0,0,1-108.85-145.7c-47.6-119.78-61.34-269.8-61.47-271.29l-1.24-14.17-14,2.51c-1.43.25-144.31,26.06-232.66,60.63-89.92,35.18-236.25,178.4-241.78,183.84-2.27,2.11-17.24,16.72-34.52,48.56-18.11,33.34-27.08,59-28.28,62.55C934.05,646.78,839.05,884.09,817.91,976c-14.27,62-24.15,183.23-33.7,300.45-8,98.24-15.57,191-25.06,242.2-19.13,103.18-63.25,239.07-112.4,346.18-34.72,75.66-192.51,288.74-194.09,290.87l-6.15,8.27,6.65,7.87c.93,1.11,93.39,110.54,111.89,127.58,89.39,82.33,226.85,195.29,332.42,262.05,97.36,61.57,313.86,144.76,434.24,188.87,117.32,43,347.81,94.87,485.52,125.87l29.52,6.65c62.69,14.16,298.75,57,301.13,57.45l32.43,5.88-19.68-26.43c-24.84-33.38-66.66-92.3-73.08-108.29-11-27.48-35.86-109.3-36.11-110.15l-1.75-5.71-5.47-2.4c-1.56-.68-156.94-68.88-243.69-123.74-91.53-57.88-193.5-125.38-255.81-187.2-6.1-6-12.71-12.57-19.72-19.49l-.78-.77c-86.71-85.58-231.84-228.81-274.37-322.51-44.54-98.15-79.95-298.24-85.73-398.48-5.31-92.17,59-380.1,59.65-383l2.92-13-13-2.61c-.59-.13-59.44-13-132.65-71.51-56.37-45-83.17-125.77-95.73-185.57C968.72,906.27,964,669.57,963.53,644.73a381.27,381.27,0,0,1,25.85-58.58,233.39,233.39,0,0,1,19.09-29.95c9.29,14.45,23.73,36.76,34.57,52.95,61.67,92.14,102.44,128,145.67,166,7.8,6.86,15.88,14,24.06,21.4C1259.44,839,1382.34,963.5,1410,991.53c-6.49,19.63-23,70.2-27.77,90.06-5.22,21.9-13.93,81.33-16,95.33-7.71,13.87-50.59,91.24-61.38,114.53-17.65,38-28.49,92.64-32.41,127.83-9.26,83.17-7.76,248.22,8,328.42,17.3,88.11,73.52,258.47,125.78,335.77,30.49,45.09,84.78,107.81,152.88,176.62,62.56,63.21,127.31,121.74,173.2,156.58C1834.2,2494,2060.88,2615.06,2175,2659.92c55.19,21.7,223.06,53.47,224.75,53.79l24.14,4.54-9.81-22.5c-1.74-4-174.92-402.88-221-549.2-15.18-48.14-55.93-216.17-68-266.34l-2.41-9.21-1.38-5.88-1.57-5.24-6.33-3.14c-28.52-11-108.09-43-138.72-60.32-34.21-19.33-86.54-55.72-111.4-80.8-1.69-1.7-4.16-4.39-7.16-7.76,9.19,3.67,17.5,7,22.7,9,7.55,3,17.32,7,27.67,11.27,28,11.56,62.89,25.94,84.24,32.12l5.24,1.52c30.7,8.92,68.91,20,100.86,21.38,16,.69,84.1-4.12,84.77-4.17l20.77-1.45-10.41-18c-8.68-15-21.63-39.94-23.27-48.17-3.35-16.81-2.27-55.15,3.42-71.34C2175,1631.63,2187.77,1614,2195.21,1608.12Zm-243-968c-8.51-5.2-18.66-11.25-29.42-17.67-46.52-27.74-110.23-65.74-140.7-93-32.92-29.45-92.31-100.83-113.47-136.39-9.72-16.32-24.23-62.33-34.11-96.84,28.19,5.34,64,12.58,77.7,16.86,36.44,11.39,105.76,38.81,140.52,57.09,25.6,13.46,72.82,48.19,94.08,66.18l3.76,3.17c28.14,23.78,75.24,63.58,92.85,90.09,13.66,20.57,33.38,69,42.4,95.21,3.33,9.67,6.62,26.34,10.1,44,2.13,10.82,4.3,21.84,6.59,31.63-23.72-4.53-46.87-9.56-53.74-12.39h0C2023.61,677.72,1974.93,654,1952.17,640.13ZM2184.5,2635.72c-112.6-44.26-336.13-163.6-436.49-239.77-91.65-69.56-257.44-234.14-320.26-327-50.43-74.58-104.94-240.26-121.81-326.21-15.32-78-16.72-239.16-7.66-320.54,3.71-33.24,13.82-84.55,30.15-119.76,6.31-13.61,24.73-47.72,39.75-75.15,1.6,26.5,3.88,57.43,6.44,72.7,9.26,55.1,35.21,162.84,56.44,213.14,21.87,51.79,80.91,146.59,121.43,186.63,49.3,48.71,179.12,110.73,249.36,138.37,50.36,19.82,156.72,36.86,211.63,43.81,22.17,2.8,65.11,1.45,85.32.59,10.76,44.73,53.46,221.32,69.41,271.89,40.26,127.68,174.9,442.51,212.21,529.07C2332.56,2673.92,2224.79,2651.56,2184.5,2635.72ZM1466.36,308.91c4.72,40.66,21.49,163.2,61.68,264.36a374.19,374.19,0,0,0,117,156.61,356.3,356.3,0,0,0,44.34,29.66c-37.4,14.8-105,45.65-164.71,94.69-18.76,15.4-77.51,86.09-100.8,114.42-34.45-34.93-148.73-150.46-193.65-191.31-8.34-7.57-16.49-14.75-24.45-21.74C1164,718.78,1124.43,684,1064.64,594.69c-12.28-18.36-29.17-44.55-37.91-58.17,30.9-29.65,150.57-141.61,225.58-171C1322.1,338.25,1429,316.17,1466.36,308.91Zm-328.2,1333.65c5.9,102.26,42.23,306.84,88,407.72,44.52,98.09,191.78,243.43,279.77,330.27l.52.51c7.09,7,13.77,13.59,19.94,19.71,64.08,63.57,167.51,132.08,260.22,190.71,79.12,50,213.07,110.44,241.67,123.16,6.11,20,25.31,82.13,35.13,106.56,6.6,16.43,35.81,58.31,57,87.72-67.64-12.38-219.51-40.43-268-51.38l-29.54-6.66C1685.85,2820,1456.4,2768.37,1340.66,2726c-119.42-43.76-334-126.16-429.29-186.44-104.21-65.89-240.17-177.66-328.7-259.19-12.62-11.63-69.61-78-103-117.4,29.67-40.39,158.86-217.78,190.73-287.23,50-108.89,94.85-247.17,114.34-352.28,9.72-52.46,17.34-145.88,25.4-244.85,9.48-116.28,19.28-236.51,33.12-296.71,14.11-61.33,61.13-186.33,94.21-271,2.94,80.34,9.66,219,22.44,279.86,13.44,64,42.55,150.69,104.95,200.54,58.44,46.69,108.46,66.14,130.9,73.18C1183.53,1320.53,1133.27,1557.7,1138.16,1642.56Z"/>
    <polygon points="1531.9 140.06 1521.28 232.17 1562.04 230.4 1531.9 140.06"/>
    <path d="M1735.3,46.21l-22.48,191.1,64.26,28.38Zm6.15,166,1.74,10.06-2.63-1.16Z"/>
    <path d="M1687.71,1106.89l1.68,27.91c2.26,38,20.1,77.2,50.23,110.54,31,34.24,73.38,60.09,119.48,72.79l.22.06c32.66,8.38,60.82,12.63,83.72,12.63,26.43,0,46.19-5.84,58.72-17.35,10.36-9.53,14.91-21.44,12.83-33.54-2.49-14.45-14.09-27.38-31-34.58l-.65-.28-1.46-.43-.7-.13c-14.58-2.59-28.94-3-44.15-3.52-26.51-.84-51.55-1.63-75.36-14l-.89-.46-.94-.32c-46-15.25-78.17-43-109.32-69.81-12.75-11-25.93-22.33-40-32.79Zm296.46,187.43c-15.7,14.43-58.81,14-118.28-1.29-69.63-19.21-125.57-69.76-144.16-126.69,3.84,3.26,7.64,6.53,11.39,9.76l0,0c32.84,28.29,66.8,57.54,117.08,74.43,28.7,14.63,57.6,15.54,85.57,16.42,13.67.43,26.62.84,38.89,2.88,8.84,4.12,13.54,10.17,14.28,14.49C1989.51,1287.53,1987.9,1290.89,1984.17,1294.32Z"/>
  </g>
</svg>
