<svg xmlns="http://www.w3.org/2000/svg" viewBox="0 0 2994.91 3000">
  <title>68Icon_neon 1</title>
  <g>
    <path d="M722.73,1771.61c-16.48,54.92-33.53,111.72-49.61,168.43l-.81,2.91.55,2.94c16.35,88.53,70.13,382,75.72,441.43,2.94,31.23,12,62.53,25.58,88.12,16.38,30.91,38.29,51.43,63.37,59.34a82.14,82.14,0,0,0,24.66,3.76c14.75,0,30.2-3.85,45.93-11.44,26.24-12.65,54.06-36.13,82.67-69.77,92.69-109,175.78-193.17,247-250.28,73.13-58.67,116.83-75.24,140.62-78.81,16.75-2.51,46.55-4,81.05-5.8,99.36-5.08,249.51-12.76,319.14-55.25,32.85-20.06,95.25-62.08,144-118.25l8.55-9.87-645.41-553.85-8.17-7-8.41,6.72c-20,15.95-45.92,39.5-77.16,70.07-13.27-12.37-39.89-38.89-68.79-77.4-37.75-50.3-86.95-131.67-107-233.61l-.86-4.43-232.76-200,5.9,35.35c20.63,124,55.17,331.63,17.63,496.9C785.27,1563.25,754.89,1664.46,722.73,1771.61ZM819.87,1006,991.5,1153.41c21.53,104.72,72,188.07,110.85,239.8,42.61,56.78,81.27,89.26,81.67,89.59l9.08,7.55,8.37-8.3c30.16-29.83,55.5-53.33,75.5-70l617.17,529.62c-45,48.67-99.54,85.28-129.14,103.34-64,39.07-210.18,46.54-307,51.49-35.17,1.79-65.54,3.35-83.55,6.05-38.65,5.8-91.57,34.93-153,84.24-72.45,58.14-156.73,143.5-250.48,253.72-26.26,30.86-51.21,52.12-74.16,63.2-18.74,9-36.06,11.15-51.48,6.29-40-12.61-65.93-72.48-70.88-125.1C768.83,2325,716,2036.23,699,1944.16c15.74-55.42,32.44-111.05,48.6-164.88l0-.19c32.3-107.59,62.8-209.22,83.75-301.5C866.75,1321.91,840.57,1133,819.87,1006Z"/>
    <path d="M2067.7,2067.37c-29,41.13-96.24,94.78-103.81,100.77-151.65,119.77-343.26,124.37-457.8,127.11-24.74.6-46.11,1.11-63.35,2.64-37.09,3.28-81.57,30.17-148.73,89.89-61.17,54.39-138.73,134-236.94,234.86l-.19.19c-25.34,26-51.55,52.93-79.5,81.49-26.15,26.71-89.64,30.6-161.76,9.9-42.34-12.14-83.16-31.74-115-55.18-35.41-26.11-57.53-55.45-64-84.86-10.05-45.8-28-140.07-35.08-256.84l-5.78-94.91-19.9,93c-18.43,86.11-15.29,116.06-9.58,170.42,1.53,14.52,3.26,31,4.78,50.86,4.33,56.33,34.71,138.16,79.28,213.57,49.15,83.14,108,145.88,161.53,172.12,43.14,21.16,118,34.21,205.31,35.79,5.8.11,11.69.16,17.51.16,75.26,0,146.86-8.69,191.56-23.25,58.25-19,121.62-58,193.73-119.38,62.12-52.87,122.27-115,175.33-169.87,35.25-36.43,68.54-70.84,98.14-98.16,72.24-66.69,141.34-111.32,214.5-158.58,88.17-57,179.33-115.84,282-218l10-10-124.14-105.4Zm93.9,95.24c-96.68,94.18-183.56,150.31-267.7,204.65-74.12,47.88-144.13,93.1-218,161.3-30.13,27.81-63.67,62.48-99.19,99.19-104.41,107.91-234.36,242.21-358.43,282.61-45.66,14.87-122.51,23.23-200.55,21.82-83.66-1.52-154.5-13.6-194.34-33.14-49.06-24.07-104-83.12-150.58-162-42.68-72.2-71.7-149.72-75.74-202.32-1.55-20.21-3.3-36.88-4.85-51.61-.93-8.81-1.78-16.94-2.47-24.77,7.46,53.11,15.8,95.2,21.55,121.42,7.81,35.6,33.34,70.22,73.84,100.12,34.24,25.28,78,46.36,123.32,59.35,39.69,11.38,77.71,16.09,110,13.62,33.85-2.6,60.67-13.09,77.55-30.34,28.18-28.78,54.39-55.7,79.74-81.72C1173,2540.92,1249.78,2462,1310.47,2408c61.56-54.8,104.32-81.56,134.56-84.24,16.42-1.46,37.42-2,61.74-2.54,115.29-2.77,306.63-7.36,463.32-125.07l.09.11,9.82-7.75.1-.08,9.7-7.66-.07-.1c19.86-16.28,63.51-53.44,90.65-87Z"/>
    <path d="M2328.87,1957.58l22.36-29.11.36-.49c152.41-220,238.87-472.94,257-751.79,7.59-116.7-5.34-245.55-36.4-362.81-40.66-153.47-110.52-287.62-207.63-398.74-57-65.25-116.84-121.39-177.74-166.86-55-41.09-112.89-74.9-172-100.49C1891.2,93.78,1776.5,82.57,1701,78.8c-88.84-4.45-209.72,18.69-331.65,63.49C1239.18,190.1,1116,259.19,1022.4,336.85c-33.73,28-72.32,78.24-111.59,145.29A1269.62,1269.62,0,0,0,824.11,662l-685-589.84-9.85-8.48L40.84,166.27l9.47,8.15L2845.31,2581l9.85,8.48,88.37-102.64ZM1039,356.86c202.83-168.34,495.2-260.37,660.66-252.09,175,8.75,406.52,53.82,645.28,327,247,282.57,244.35,640,237.66,742.76-17.78,274-102.63,522.39-252.2,738.39l-21.27,27.69L845.05,680C888.7,564.07,970,414.11,1039,356.86ZM2852.42,2552.79,77.5,163.53,132,100.3,814.41,687.91l-1.21,3.29,8.74,3.19L2293.27,1961.24l-.12.16,2.9,2.23,610.81,525.92Z"/>
  </g>
</svg>
