<svg xmlns="http://www.w3.org/2000/svg" viewBox="0 0 2994.91 3000">
  <title>100Icon_neon 1</title>
  <g>
    <path d="M1723.66,2789.64l-8.18,3.26v78l532-201.56,9.68-3.68-11.71-84.47Zm17.82,43.62v-22.74l482.79-192.84,4.3,31Z"/>
    <path d="M1357.75,2789.09,1116.32,2684l-18.19-7.93v284.72l258.6-109.37,270.69,112-4.52-288.45Zm3.9,36.19-5-2.08-232.49,98.32v-205.8l228.39,99.46,5.16,2.25,239.83-103.26,3.29,210.06Z"/>
    <path d="M2453.85,276.34c.26-53.82.53-109.46,0-159.85l-.38-34.87-22.54,26.61c-49.63,58.6-98.46,109.65-145.7,159-156.66,163.81-292,305.29-353.44,617l-.18.92,0,.94c-6.12,136.94-28.16,440.11-35.51,539.55-28.35-35.45-62.15-77.6-95-118.63l-.37-.46c-42.22-52.64-85.87-107.06-118.24-147.63-131.87-194-245.21-352.83-401.59-484.8-218-184-456.11-373.26-720.21-511.52l-22.51-11.79,35.43,247,.14.78c23.46,112.58,67.82,220.12,131.84,319.65,56.76,88.24,131,173.16,220.51,252.38,175.19,155,387.31,269.59,552.54,352.14l.88.4c34.27,13.93,87,37,138.08,59.27,31.49,13.75,63.65,27.8,91.78,39.84-71.54,8-181.75,21.09-227,28.42-109,17.65-209.48,52.4-298.62,103.3-87.18,49.77-161.14,113.55-219.83,189.58-47.09,61-76.06,124.12-86.08,187.61-9.25,58.55-2.46,117.2,20.18,174.33,17.71,44.71,45,88.06,81.06,128.86,33.82,38.25,74.78,73.63,121.74,105.16,85.07,57.12,185,98.28,283.4,116.9-22.21,38.62-36.72,75.39-43.2,109.52-9.94,52.4-.93,98.24,26.77,136.24l6.24,8.56,332.88-151.34,5.56,127.91.79,18.45,17.1-7c3.13-1.27,324-131.76,501.16-204.19l5.58-2.28,1.85-5.69c57.67-175.4,78.89-373,58.21-542.13-16.48-134.75-67.26-315.72-214.82-421.46,32.15-44.4,60.9-87.35,88.78-129,30-44.8,61-91.12,96-138.94l.38-.51.32-.54c119.49-203.19,182.09-478.2,186.07-817.4v-.28C2453.31,386,2453.58,330.27,2453.85,276.34Zm-26,160.21c-3.94,334.23-65.22,604.64-182.14,803.77-35.21,48.06-66.26,94.44-96.29,139.31s-61,91.07-96,138.87l-8,10.94,11.28,7.55c147.95,99,198.36,278,214.59,410.71,20,163.63-.13,354.7-55.24,525.15-153.92,62.91-410.62,167.35-478.46,194.94l-6.44-148-348.27,158.34c-43.62-70.85-6.61-160.5,33.19-224.39l10.33-16.61-19.31-3.09c-186.24-29.84-412.63-155.56-485-338.11-43.81-110.58-22.27-226.93,62.31-336.48,114.83-148.75,293.12-249.29,502-283.1,56.4-9.13,219.13-27.86,275.64-33.66l51.9-5.33-48.33-19.65c-34.23-13.91-86.84-36.89-137.81-59.16s-103.58-45.24-138.12-59.29C1102.39,1105.75,693.85,846.77,599.2,393.72L571.07,197.58c253,136,482.38,318.68,693,496.41,154,129.92,266.29,287.49,397.15,480l.57.76c32.4,40.61,76.22,95.25,118.6,148.09,41.46,51.71,84.34,105.17,116.05,144.91l20.64,25.85,2.49-33c1.25-16.61,30.57-407.89,38-572.32,60.09-303.49,192.85-442.32,346.53-603,40.31-42.14,81.78-85.51,124.07-133.87.17,40.47,0,83.2-.24,124.83C2427.58,330.19,2427.31,386,2427.85,436.55Z"/>
  </g>
</svg>
