<svg xmlns="http://www.w3.org/2000/svg" viewBox="0 0 2994.91 3000">
  <title>62Icon_neon 1</title>
  <g>
    <path d="M2871.6,1455.86l-5.26-8.71A238.06,238.06,0,0,0,2784,1365.6c31.51-53.4,47-112,44.81-170.33-2-54.6-19.69-105-51.1-145.74l-9-11.73-10.05,10.08L996.27,2814.74l-12.85,12.87,16.34,8c35.14,17.18,73.73,25.89,114.68,25.89a298.23,298.23,0,0,0,52.17-4.69c69.33-12.37,111-48.54,155.47-95.22,58.16,49.78,113.6,75,164.94,75l2.14,0,5.26-.07,3.58-3.57L2864.42,1463.06Zm-1388,1354.67c-46.67-1.22-98.35-27-153.69-76.66l-9.47-8.49-8.69,9.27c-44.59,47.53-83.92,84.82-149.71,96.55-47.11,8.4-93,4.4-134-11.55l1737.7-1742.14c22.66,34.14,35.41,74.89,37,118.72,2.13,57.31-14.46,115.09-48,167.09l-7.74,12,12.69,6.58a212.45,212.45,0,0,1,78.84,70.16Z"/>
    <path d="M2657.86,934l-.15-5.6c-.28-9-9.5-27.67-17.19-41.74a522.47,522.47,0,0,0-42.1-64.58c-31.79-41.62-81-92-135-95.79l-11.48-.8-1.08,7c-.83.81-1.75,1.74-2.81,2.79l-15.35,15.35-58.18,58.24L2167,1016.8c-171.76,172.07-400.76,401.49-629.75,630.92-458,458.86-915.93,917.73-915.93,917.73l-9.33,9.34,9.5,9.19c45.06,43.52,106.95,65.51,175.24,62.49a220,220,0,0,0,45.21,88l9.15,10.77,10-10L2654,938ZM853,2706.44c-16.19-22.24-27.41-47.86-33.41-76.31l-2.36-11.24-11.44,1c-60.19,5-115.21-11.14-156.41-45.7,137.18-137.46,1724.17-1727.62,1818-1821.29,42.31,6.33,83.17,49.27,110.47,85,28,36.71,47,73.24,52.45,87.07Z"/>
    <path d="M2384.92,563.19l-3.68-8.19c-21.26-47.15-57.38-83.55-104.48-105.26-44.43-20.47-95.8-26.37-149.28-17.25l-.05-.25-24.45,5.2.05.24a334.56,334.56,0,0,0-63.27,23.18l-.93.46-1.86,1.31L227.85,2276.06l-11.12,11.15,13.05,8.81c40.07,27.06,105.62,55.56,190.28,37.58,4.48-.95,9.17-1.91,14.09-2.92,23.43-4.79,51-10.44,75.23-19.45a221.77,221.77,0,0,0-3,34.72v5.26c0,25.84,0,33.63,9.78,59.26l7.18,18.74L2378.58,569.54ZM534.12,2381.57c-1.74-8.16-1.75-15.58-1.75-30.37v-5.28c0-15.86,2.78-39.22,9-53l17-37.61-35.47,21.09c-24.62,14.64-63.05,22.5-93.94,28.82l-.2,0c-4.86,1-9.57,2-14.08,2.92-67,14.22-120.64-4.13-156.91-25.27L2053.05,483.32a305.44,305.44,0,0,1,67.55-23.05c101.67-21.59,192.15,16.55,233.1,97.39Z"/>
    <path d="M2953.18,1633.71c0-6.81-.32-13.88-.91-21l-2.34-28L1769.86,2769.19l23.28,5c23.9,5.15,46.73,7.76,67.87,7.76a223.2,223.2,0,0,0,46.16-4.6c39.55-8.4,77.65-24.6,113.24-48.16,3.28-2,243-145,343-212.3,37.91-25.49,94.8-57.25,155.06-90.89,80.81-45.11,164.37-91.76,214.05-129.88,28.68-22,81.67-82.78,121.19-130,15.5-16,31-35,38.72-47.29,21.6-34.58,58.12-110.78,58-177.06-.08-44.44-28.25-117.81-49.89-155.12C2928.48,1742.15,2953.29,1692.78,2953.18,1633.71Zm-28.72,308.1c.11,60.38-33.92,131-54.05,163.23-6.66,10.67-21.66,28.89-35.67,43.32l-.62.69c-55.53,66.4-96.13,110.12-117.4,126.45-48.18,37-130.89,83.15-210.9,127.81-60.72,33.9-118.07,65.91-156.89,92-92.61,62.27-305.78,190-337.94,209.21l-.37-.06-4.1,2.73c-32.93,21.87-68.09,36.9-104.53,44.67l-.22,0c-23.37,5-49.92,5.34-79.18,1.17L2926.87,1644.7c-3,50.69-26.87,94.67-52.55,134.79l-4.49,7,4.5,7C2894.47,1824.88,2924.39,1901,2924.46,1941.81Z"/>
    <path d="M1347,243.45,1329,236c-42-17.33-89.62-22.33-138.55-14.64l0-.25-12.26,2.45-.16,0L1165.9,226l0,.25a331.07,331.07,0,0,0-103.06,44.87h0l-2.25,1.51q-1.72,1.14-3.45,2.31l-.59.4c-2.53,1.69-254.33,171.47-426.9,323.53-166.8,147-371.45,349.55-376.48,354.54-38,34.73-63.87,65.91-81.49,98.1-20.47,37.41-30.1,77.16-29.45,121.53.14,9.08,4.7,53.89,6.66,71.87-62.21,56.91-118.38,123.11-117,219a255.6,255.6,0,0,0,8.34,61.78l5.81,21.84L1333.26,257.22ZM60.64,1496.14a236.29,236.29,0,0,1-2.7-32.6c-1.3-88,53.71-150,113.33-203.8l5-4.54-.84-6.71c-1.18-9.5-7.1-67.47-7.22-75.8-1.1-74.6,28.68-132.64,102.78-200.34l4.23-4.05v-.13c29.36-29,215.62-212.33,371.6-349.76,156.54-137.94,377.81-289.92,418-317.23h0l6.3-4.29c35-23.85,72.72-39.94,112.1-47.81,40.92-8.19,81-6.68,117.12,4.29Z"/>
    <path d="M1805.8,469.54l-4.9-8.6c-23.17-40.64-57.55-69.22-105.1-87.4-38.64-14.77-85.25-22.85-151.14-26.22-12-.61-33.51.35-50.81,1.13-11.31.51-23,1-26.63.84l-5.82-.32-4.09,4.12L144,1669.64l-8.36,8.38,7.56,9.1c21.6,26,69.61,66.73,111.58,88.24-52.22,29.35-94.89,62.27-127.06,98.07C81.77,1924.59,59.11,1980,60.38,2038c1,45,13.09,87.69,35,123.49l8.63,14.07,1694.79-1699ZM109.46,2133.29c-14.4-28.67-22.34-61.49-23.09-95.88C83.6,1910.94,213.3,1825.3,290.86,1785.5l28.55-14.65-30.7-9.35c-36.16-11-90.34-53.45-117.63-82.19l1300.79-1304c5.3-.08,12.91-.42,23.15-.88,16.71-.75,37.52-1.69,48.32-1.13,91.61,4.68,182.5,19.28,229.86,92.13Z"/>
  </g>
</svg>
