<svg xmlns="http://www.w3.org/2000/svg" viewBox="0 0 2994.91 3000">
  <title>64Icon_neon 1</title>
  <g>
    <path d="M939.64,791.1C842,790,763.25,804.22,762.48,804.36l-9.43,1.72-1.14,9.49c-.09.68-8.06,69.06,15.92,146.44,14.16,45.69,36.5,85.72,66.38,119,37.32,41.51,86.44,72.34,146,91.62,23,7.47,61,11.25,112.65,11.25,108.69,0,243.18-16.36,244.52-16.53l12.34-1.51-1-12.37a784.61,784.61,0,0,0-19-113.52c-13.92-56.57-40.44-131.59-87.73-167.68-38-29-87-50.5-145.74-64C1049.76,797.51,997.08,791.75,939.64,791.1ZM777,828.34A1049.47,1049.47,0,0,1,939.36,817.1c86.83,1,207.08,14.94,286.82,75.8,41.27,31.49,65.33,100.7,78.26,153.21a783.77,783.77,0,0,1,17.13,96.88c-60.4,6.88-153.29,14.77-228.77,14.77-44.17,0-82.39-2.7-104.61-9.9-124.51-40.33-175.05-127.5-195.51-193.52C775.6,899.26,775.94,848.72,777,828.34Z"/>
    <path d="M1428.29,1259.56c2.85-16.73,12.51-68,19.33-83.38,9-20.23,30.77-56.18,44.43-70.46,8.17-8.54,37-37.43,64.63-50.85,6.08-2.94,29.36-11.64,40.86-15.84l11.72-4.29-8.88-24.41-11.75,4.27c-.34.13-34.07,12.41-43.29,16.88-31.58,15.31-63.15,46.94-72.07,56.26-15.92,16.64-39.23,54.87-49.43,77.92-9.29,21-20,82.58-21.18,89.53l-2.11,12.33,25.65,4.37Z"/>
    <path d="M2885.69,1952.84c-58.93,14.8-89.68,28.24-106.13,46.37-17.47,19.26-17.28,41.27-17,69.15.34,38.51.8,91.26-41.87,176.36-12.17,24.29-53.06,58-112.17,92.47-49.23,28.72-106.15,55.09-141.63,65.64-27.24,8.09-71.79,1.63-114.87-4.62-41.24-6-80.2-11.64-109.32-6.21-25.91,4.82-93.35,30.12-147,52.18,8.48-16.79,18.27-36.51,25.89-51.87l0-.11c3.66-7.37,7-14,9.15-18.38a259.2,259.2,0,0,0,77.81-59.18c25.23-28.23,40.43-58.37,44-87.15,4-33.09-7.54-62.9-33.58-86.66,7.28-28.12,21.2-82.68,26.78-114.22,48.41-18,86.91-41.2,114.5-68.92,27-27.18,43-57.87,47.45-91.24,4.12-31-2.23-63.23-18.38-93.34-15.41-28.74-39.38-54.88-69.3-75.6-40.94-28.35-90.11-45-142.17-48.25-56.57-3.49-114.85,9.55-168.8,37.72-48.87-4.77-104.36-45.9-133.15-99.12-19.35-35.79-22-69.5-7.56-94.93l6.72-11.84-12.13-6.17c-29.3-14.91-52-44.57-60.72-79.34-7.93-31.62-3-63.34,13.51-87l5.89-8.45-6.89-7.67c-2.81-3.13-6.34-6.56-10.1-10.22-7.06-6.87-15.84-15.41-18.59-21.06l-3-6.1-6.7-1c-91.47-14.39-160.38,12.09-233.34,40.12-41.67,16-84.75,32.56-133,41.09-43-7.25-91.18-22.45-137.86-37.16-58.33-18.39-118.65-37.4-174-43.17l-.36,0c-85.85-6.44-178.41,12.56-260.63,53.49a495.44,495.44,0,0,0-111.6,75.6c-30.57,27.64-56.26,58.32-76.52,91.36-266.25-175.64-334-437.19-206.83-799l369.53,58.28L673.32,549.25l474.77,24.42,28.71,1.46L1159,552.62c-87.88-111.07-181.35-195.76-277.8-251.7-96.93-56.21-199.07-84.72-303.59-84.72-80.7,0-164.43,17-248.85,50.63-42.63,17-83.93,51.77-122.72,103.44-34.09,45.4-66.08,104.21-92.52,170.06C62.52,667.19,35.62,809,43.25,910.4c16.61,220.76,61.4,378.57,145.21,511.68,78.11,124.07,183.27,217.32,316.39,335.37l.23.2c16.21,14.38,32.93,29.21,50,44.44.3,17.3,1.3,70.42,2.54,98.06-68.43,25.16-117.71,78.54-135.94,147.76-21.36,81.11,3.58,170.42,66.71,239,25,28.31,63,45.42,113,50.87a331.73,331.73,0,0,0,68.78,0c1.32,3,2.78,6.33,4.36,9.91,7,16.06,16.2,37,22.81,50.49-26.75,33.46-42.71,76.4-44.06,119.13-1.46,46.38,55.45,76.49,101.21,100.7,12.29,6.5,23.91,12.65,32.7,18.26,69.85,44.56,185.57,65.27,203.41,68.26,43.4,23.64,106.6,52.36,145,60.56,32.53,7,97.68,4.57,132.2.18,17.41-2.21,40.22-9.71,64.37-17.66,29-9.55,59-19.42,77.83-19.42s48.82,9.87,77.83,19.42c24,7.91,46.73,15.38,64.09,17.63a400.46,400.46,0,0,0,65.38,5.42h0c58.56,0,117.58-13.07,175.45-38.84,67.44-30,133-76.84,194.82-139.15l9.14-2c90.12-19.6,213.56-46.43,265.71-50.47,15-1.16,31.35,1,50.36,3.48,39,5.11,87.56,11.47,153.77-7.07l.37-.11c80.59-25.28,162.38-65.67,230.3-113.72,77.86-55.09,136.82-119.5,170.51-186.28l.36-.71.26-.75c9.51-26.88-3.62-64.8-16.33-101.49-10.71-30.93-22.85-66-16.38-84.29,7.86-22.23,47.32-61,61.86-74.12l39.07-35.07Zm-58.19,189.21c10.58,30.55,22.55,65.13,16.64,83.55-73.65,145.05-253.15,244.68-384.76,286-61,17-106.56,11.07-143.18,6.27-20.43-2.68-38.06-5-55.75-3.62-53.92,4.17-178.35,31.23-269.23,51l-16.7,3.63-2.71,2.77c-91.46,93-237.83,197.59-415.82,167.88l-.48-.07c-14.94-1.9-36.59-9-59.51-16.57-31-10.19-63-20.72-86-20.72s-55,10.53-86,20.72c-22.92,7.55-44.57,14.67-59.5,16.57-32.56,4.14-95.29,6.21-123.5.18-36.43-7.77-98-36-139.88-59l-1-.56-2.23-.73-1-.16c-5.11-.81-125.84-20.28-195.74-64.87-9.68-6.18-21.76-12.57-34.55-19.34-37.27-19.71-88.3-46.72-87.35-76.88a177.12,177.12,0,0,1,43.34-109.63l6-6.84-4.39-8c-5.84-10.61-17.91-38.16-25.91-56.42-3.45-7.86-6.42-14.65-8.38-18.93l-4.06-8.92-9.68,1.45c-12,1.78-118.25,15.76-168.46-41.24l-.19-.21c-57.16-62-79.89-142.29-60.79-214.81,16.77-63.66,63.52-112.11,128.29-132.92l9.68-3.11-.69-10.15C582.37,1883.07,581,1796.84,581,1796l-.1-5.68-4.23-3.78q-28.08-25.1-54.54-48.49C261.17,1506.61,103.68,1367,69.18,908.45,61.83,810.76,88,673.42,137.59,550,163.2,486.25,194,429.49,226.78,385.88c35.88-47.79,73.41-79.72,111.55-94.89,285.48-113.61,548.47-27.75,782,255.21l-501-25.76L752.66,699,435.57,649,425,647.3l-3.65,10.11c-23.95,66.6-40.95,126.8-52,184.05-15.15,78.57-19.21,153.31-12.06,222.13,8.76,84.29,34.51,162.17,76.54,231.45,48.61,80.12,120.12,150.61,212.53,209.5l11.57,7.39,6.75-12c78.87-139.78,260.1-232,431-219.22,52.67,5.52,111.65,24.11,168.69,42.08,48.31,15.23,98.28,31,143.69,38.4l2,.33,2.18-.36c51.69-8.84,96.64-26.12,140.11-42.82,68-26.12,132.28-50.83,214.05-39.58,5.3,7.64,13.08,15.2,20.13,22.06l2.08,2c-16.13,28.51-20.39,64-11.61,99,9.41,37.52,32.62,70.3,63.12,89.86-12.59,31.48-8.16,69.49,12.92,108.47,16.14,29.84,40.69,57.56,69.12,78,28.83,20.77,60.38,33.17,88.84,34.93l3.68.23,3.26-1.74C2133,1650,2241.8,1675,2305.22,1718.89c54.16,37.5,83.55,92.72,76.71,144.13-7.91,59.4-61.94,109.73-152.12,141.72l-7.38,2.61-1.14,7.75c-4.55,30.83-22.69,100.72-29.51,127l-2.14,8.15,6.56,5.27c23.87,19.21,33.86,41.71,30.55,68.79-6.51,53.19-60.79,104.59-111.06,127.88l-4,1.87-2.06,4c-1.82,3.54-6.19,12.36-11.29,22.64-13.39,27-35.79,72.11-42.1,83l-20,34.29,36.38-15.83c53.77-23.38,146.28-59.26,174.8-64.57,24.88-4.64,61.77.71,100.83,6.38,45.86,6.65,93.28,13.53,126,3.81,37.28-11.08,96.49-38.44,147.33-68.1,45.48-26.53,103.62-66,122.32-103.28,45.47-90.7,45-149.39,44.62-188.24-.24-26.93.1-40.38,10.35-51.62,8-8.79,22.33-16.66,45.49-24.68-14.1,15.81-27.95,33.89-33.2,48.74C2801.66,2067.44,2814.79,2105.37,2827.5,2142.05Z"/>
  </g>
</svg>
