<svg xmlns="http://www.w3.org/2000/svg" viewBox="0 0 2994.91 3000">
  <title>118Icon_neon 1</title>
  <path d="M2171.26,282c19.34,25.38,48.18,44.2,81.22,53s67.81,6.87,97.65-5.43c33.47-13.79,58.74-39.45,73.08-74.21,10.84-26.26,13.4-53.75,7.4-79.48s-20.45-49.33-41.8-68.27a159.21,159.21,0,0,0-83.27-38,151.77,151.77,0,0,0-95.54,18c-16.1,9-34.2,26.59-45.08,43.07-33.39-12.41-82.18-30.87-92.39-35.93-49.49-24.47-87.34-32.07-155.77-31.28h-.65l-1.4.16-.22,0-1.66.23c-26.74,3.6-67,10.11-107.29,20.68-51.18,13.43-87.75,29.75-108.67,48.51C1590.37,228.51,1548.15,326.6,1514,418.89c-12.24,33.1-15.86,52-20.21,77.72l-58.07-1-1.1.18c-18.32,2.95-36.86,5.28-54.79,7.53-38.38,4.82-74.64,9.37-109,19.61-172,51.25-312.75,135.19-418.27,249.49C743.91,890.12,671.7,1041.08,638,1221.06c-8.57,45.77-7.92,101.93-7.28,156.24.6,51.86,1.23,105.47-6.1,149.9l-.14.85-5.52,220.42-2.75,164.73-5.49,218.14L606.56,2296q-1.37,54.2-2.72,108.4c-13.25,55.45-13.55,137.5-.78,219.91s35.7,148,61.29,175.4c45.31,48.5,97.94,81.68,152.2,95.95a254.83,254.83,0,0,0,64.77,8.41c45.66,0,92.43-12.37,139-36.75,53.06-27.78,95.38-80.28,125.8-156.06,15.34-38.23,27.73-82.6,37-132.45a796.1,796.1,0,0,0,33.59,97.17c20.47,48.31,44.43,89.62,71.2,122.78,33.82,41.89,72.28,70.87,114.33,86.15,37.79,13.74,75.12,20.7,111,20.7a269.84,269.84,0,0,0,47.13-4.12c45.6-8.11,87.8-28,125.42-59,48.52-40.06,86.81-96.45,110.73-163.08a425,425,0,0,0,19.55-75.47,670.56,670.56,0,0,0,39.62,97.44c41.72,82.44,95.07,140.09,158.57,171.34A264.06,264.06,0,0,0,2140.92,2900a277.36,277.36,0,0,0,119.23-31.76,270.17,270.17,0,0,0,90.17-76.41c24.89-33.26,40.49-70.56,46.36-110.86,6-41.12,17.69-150.21-2.55-276.06L2391.4,2296q-2.05-82.34-4.12-164.66-2.76-109.08-5.49-218.13-1.38-82.32-2.75-164.64v-.1l-2.76-109.77q-1.37-54.9-2.75-109.78l-2.77-110.73-.15-.87c-5.11-30.54-5.31-67.85-5.51-104-.22-40.09-.44-81.54-7.36-115.27-14.59-71.14-35.65-137.86-62.6-198.32a803.82,803.82,0,0,0-96.75-162.84c-71.51-93-164.38-171.21-283.92-239.24-92.23-52.49-240.14-91.66-364.66-97.14,3.79-22.15,9.8-49,19-70.82,4.52-10.79,9-21.73,13.27-32.34,33.44-82.4,65-160.23,155.38-225.49,19.92-14.39,56.44-29.41,97.69-40.17,45.55-11.89,90.27-17.06,125.94-14.57,42.75,3,118.41,36.53,149.42,53.82,8.23,4.6,24.37,12.8,34.09,17.7C2142.06,223.56,2151.22,255.67,2171.26,282ZM2061,118c15.77,7.8,101.57,39.48,105.21,40.82L2177.4,163l5.08-10.78c6.72-14.27,25.15-33.48,40.24-41.94,55-30.83,114.37-13.78,148.83,16.78,35.06,31.1,45.38,75.35,27.62,118.39-26,62.91-90.78,77.5-140,64.42-50.16-13.32-96.79-57.79-87.88-127.12l1.16-9.16-8.28-4.12c-1.2-.6-29.58-14.77-41-21.15-30.66-17.1-110.19-53.55-160.26-57.06q-9.63-.66-20-.67c-34.38,0-74.19,5.54-114.34,16-44.21,11.54-84,28.08-106.35,44.25a405.91,405.91,0,0,0-44.74,37.38q17-18,36.77-35.78c43.32-38.82,165.63-57.87,202.08-62.79l1.64-.22C1981.08,88.75,2016,95.73,2061,118Zm-539.19,393.2-2.08,14.51,14.66.33c123.59,2.77,274.6,41.52,367.22,94.24,240.29,136.74,377.13,322,430.66,583,6.4,31.21,6.62,71.36,6.83,110.19.2,36.79.41,74.81,5.72,107.17q1.35,54.45,2.72,108.9,1.38,54.89,2.75,109.78t2.75,109.74q1.38,82.29,2.75,164.59v.11q2.74,109.08,5.5,218.21,2.05,82.32,4.12,164.65,1.37,54.88,2.75,109.78v.54l.15,1.21c19.85,122.67,8.45,229,2.63,269-10.2,70.06-56.15,132.87-122.91,168-36.17,19-76.18,29.09-115.72,29.09h0a239.53,239.53,0,0,1-106.58-25c-155.43-76.49-200.59-306.56-205.68-335.42-.67-8.27-1.65-16.48-2.92-24.42l-16.36-102.57-9.42,103.45c-.52,5.67,1.54,18.94,2.9,26.75,8.8,111.72-42.56,237.17-125,305.27-35,28.93-87,57.26-156,57.26-30.65,0-64.68-5.59-102.08-19.18-86-31.25-140.15-123.1-170.47-194.65-32.77-77.34-46.45-151-47.11-158.11l-11.07-123.6-14.79,123.21c-9.13,76.07-24.51,141.42-45.71,194.25-28,69.86-66.31,117.88-113.73,142.71-155.81,81.58-270.44-4-324.9-62.33-21.51-23-42.94-86.47-54.59-161.63-12.39-79.89-12.14-158.82.67-211.13l.15-.63.2-1.44,0-.7q1.37-54.88,2.75-109.78L636.67,2132l5.5-218.22,2.75-164.73,5.46-218.55c7.54-46.41,6.91-100.84,6.29-153.5-.61-53-1.25-107.91,6.85-151.15,65.18-347.8,272-575.93,614.78-678,32.3-9.63,67.52-14.05,104.83-18.73,17.79-2.24,36.17-4.54,54.48-7.48l66.94,1.2,11.21.21,2.71-16.17c4.61-27.49,7.65-45.65,20-78.94,18.23-49.31,38.83-100.31,70.83-151.52-20.94,36.39-36.36,74.38-51.33,111.27-4.26,10.5-8.67,21.36-13.14,32C1532.5,449,1525.51,485.61,1521.81,511.21Z"/>
</svg>
