<svg xmlns="http://www.w3.org/2000/svg" viewBox="0 0 2994.91 3000">
  <title>86Icon_neon 1</title>
  <g>
    <path d="M2229.83,194.33,2178.1,52.23,1779.88,197.17l-6.1,2.22-297.54,974.38,228.54,627.91,13.17,36.19L2228.53,198.51ZM2162.57,85.55,2202.4,195,1716,1756.59l-212.4-583.54,291.22-953.66Z"/>
    <path d="M2332.78,516.64l-12.87-35.35-207.39,634-1.39,4.3,439.3,1181.93,4.5,12.1,381.37-138.8Zm237.53,1763.71L2138.66,1119,2321.22,560.9,2903,2159.27Z"/>
    <path d="M1308.45,1234,466.67,680.7l-5.45-3.58L56.81,824.31l49.94,137.2,1408.09,907.82,32.48,20.94L1309.93,1238ZM128.19,944.39l-38-104.54L457.86,706,1287,1251l209.49,575.56Z"/>
    <path d="M792.27,1617.59l-572.86-376,611.46,1680,4.44,12.23,385-140.13-426.57-1172Zm58.59,1282.84L270.64,1306.3l500.14,328.29L1187,2778.09Z"/>
  </g>
</svg>
