<svg xmlns="http://www.w3.org/2000/svg" viewBox="0 0 2994.91 3000">
  <title>78Icon_neon 1</title>
  <path d="M2265.78,440.62l-.43-.33L1606.51,20.05l-10.22-6.52L1465.9,189.27l-70.32,23.19,1.37,69.87L950.25,904.48,709.68,1234.62l-.15.2L318,1820.22,110.25,2032.61l231.46-.39,791.42,682.66,196.72,261.38,13.31,17.67,118.84-268,276.87-403.52,317.82-367.76,48.66-55,.25-.29L2659.68,1189l81.81-7,.35-92.6L2805.25,994,2871,905.37ZM2085.6,1882.72l-48.43,54.76L1718.71,2306l-.46.53-278.39,405.74-.65.95L1337.32,2943,1153,2698.1l-.81-1.08L355,2009.35l-3.66-3.14-179.19.3,166.09-169.84,392.61-587,240.46-330,441.5-614.89,605.5,457.72.26.2,615.54,416.72Zm630-724.65-59.19,5.08L2033.71,741.59l-610.8-461.72-1-48.73,49.12-16.2,631.5,427.44L2715.83,1092Zm10-91.2L2117.75,621.26l-.19-.14L1492,197.72l58.8-79.26,617.52,418.06,605.53,457.77Zm63-94L2183.73,515.57l-617.41-418,36.41-49.08L2250.42,461.6l584.5,448.81Z"/>
</svg>
