<svg xmlns="http://www.w3.org/2000/svg" viewBox="0 0 2994.91 3000">
  <title>140Icon_neon 1</title>
  <g>
    <path d="M1462.82,1189.27l60.33-25h-65.31c-.84,0-85.38.12-179.09,10.14-83.92,9-103.1,14.45-132.17,22.73-8.41,2.4-17.93,5.11-30.18,8.21-84.48,20-160,54.7-233,88.28l-4,1.84-.57.28c-87,45.46-178.62,108.49-265.07,182.28A1758.36,1758.36,0,0,0,363.28,1741.2C244.5,1895.26,99.07,2139.48,80.77,2428l-.48,7.58,6.37,4.14c112.87,73.41,267.13,141.15,434.39,190.74l.59.17L757.7,2676l13.39,2.56,1.93-13.49c13.58-95.3,27.85-198.39,41.65-298.09s28.09-203,41.74-298.73c6.23-30.61,11.75-62.66,17.09-93.69,12.5-72.71,25.44-147.89,48.7-211C1013.4,1516.3,1230.66,1285.49,1462.82,1189.27Zm-935,1416.12c-161.5-47.95-310.47-112.89-420.56-183.3,33.58-468,427.53-917,783.37-1103.16l3.68-1.69c71.88-33.06,146.2-67.24,228.21-86.63l.18,0c12.68-3.2,22.43-6,31-8.44,27.75-7.91,46.09-13.14,127.79-21.88,42.17-4.51,82.45-7,113.85-8.34a918.14,918.14,0,0,0-116.29,71.41,1095,1095,0,0,0-157.65,138.55A1134.65,1134.65,0,0,0,990.67,1569.4c-38.65,60.62-69.9,122.93-92.86,185.21-24.09,65.32-37.23,141.69-49.94,215.56-5.32,30.93-10.82,62.9-17,93.3l-.12.73c-13.64,95.7-28,199.17-41.83,299.32-13.15,95-26.73,193.1-39.7,284.39Z"/>
    <path d="M926.94,274.66c29.61,15.15,66.43,28.52,96,39.27,20,7.27,37.32,13.55,48.6,18.85l.61.27c95.6,38.85,200,64.43,319.26,78.19,94.78,10.93,199.28,15.13,347.21,13.85-38.27,216-116.28,640.93-117.07,645.27l-2.39,13,117.45,19.29,2.42-12.49c3.93-20.35,93.47-484.69,122.57-648.31C2004.87,507,2147,550.21,2333,585.57l.2,0c9.53,1.66,21.55,4.11,35.54,6.95,44.07,9,106.36,21.67,155,21.67a191.32,191.32,0,0,0,31.88-2.36l.56-.1.55-.14c122.36-32.68,126.44-34.46,153-46l39.13-17.07L881.14,200.88l-18.45-3.43L866,215.93C869.62,236.58,889,255.24,926.94,274.66Zm1447,292.41c-14.09-2.87-26.27-5.35-36.17-7.07-190.39-36.18-334.11-80.68-480.54-148.77l-8-3.72L2655.65,557.6c-19.33,5.71-50,14-105,28.74C2505.44,593.86,2426.34,577.75,2373.93,567.07ZM1649.53,1062c13.84-75.43,83.77-457.11,117.44-647.83l2.71-15.42-15.66.17c-270.79,3-477.66-11-671.73-89.84-12.31-5.76-30-12.18-50.46-19.61-30.11-10.94-64.24-23.34-92.25-37.56-14.53-7.37-24.81-13.94-32-19.69l934,173.83-2.55,14.72c-23.39,134.3-107.61,572.05-123,652.13Z"/>
    <path d="M1867.75,353.67c.8-1.42,1.61-2.83,2.41-4.23l3.25-5.65-2.6-6c-.85-2-1.62-3.81-2.34-5.56-7.77-18.78-14.25-30.53-48.13-35.11-40.46-5.48-56.3,14.58-62.27,22.13l-2.79,3.54v20.39l108,18.45Zm-50.89-30.8c13.4,1.82,18.59,3.51,22.14,8.23l-43.82-7.49C1800.54,322.15,1807.55,321.61,1816.86,322.87Z"/>
    <path d="M1833.63,1355.56l-.44-.54c-11-13.06-21.82-27.64-33.29-43.09-37.3-50.18-79.57-107.07-143.14-130.47l-3.64-1.33-3.77.87c-56.27,13-125.48,53.45-166.06,85.54-128.85,95.45-228.77,195-297,295.89-40.28,59.57-78.91,154.92-114.83,283.4-28.54,102.12-55.53,225.51-80.22,366.75-42.11,240.91-63.07,451.93-63.28,454l-.91,9.16,8.34,3.9c93,43.57,338.84,71.32,537.86,82.77,87.47,5,171.19,7.58,248.82,7.58,137.63,0,243.28-8.18,297.47-23l9.43-2.56.16-9.77s4.21-264,6.33-396v-.2c0-230.94-12-407.37-37.9-555.25C1965.54,1599.85,1911.91,1460,1833.63,1355.56Zm175.85,982.76c-1.87,116.77-5.39,336.7-6.17,385.95-89.1,20.85-293.94,25.69-528.55,12.19-190.67-11-424.28-36.76-519.94-76.65,4.54-43.32,25.23-232.12,62-442.76,38.47-220,102.82-509.68,191-640.05,66.59-98.49,164.53-196,291.1-289.7l.31-.24c37.42-29.62,100.41-66.74,152.17-79.8,54.38,21.63,93.24,73.93,127.65,120.24,11.62,15.64,22.61,30.41,34,44C1986.11,1602.57,2009.46,1989.88,2009.48,2338.32Z"/>
    <path d="M2793.75,2034.92l-4.08-10.92-.41-1c-81.44-171.64-171-304.35-281.83-417.63-101.27-103.5-222.65-193.79-393.56-292.76l-.91-.48c-10.48-5-21-10.12-32.19-15.57l-.11-.06c-59.74-29.16-127.44-62.22-198.79-73.44l-40.38-6.35,29.29,28.51,13.75,13.33c17.35,16.8,35.3,34.17,50.83,50.49,64.43,67.73,109.35,119.91,145.3,223.93,109.3,316.29,112.42,722.8,105.43,1182.81l-.23,14.85,14.75-1.74c1.6-.19,162.42-19.51,386.56-75.27,241-60,315.69-79.93,316.4-80.12l8.9-2.37.71-9.2C2926.37,2390,2843.35,2167.71,2793.75,2034.92Zm-581.43,666.23c3.06-206.62,4.64-424.27-8.78-625.34-14.84-222.51-47-402.85-98.31-551.32-37.66-109-84.25-163.16-151-233.36-10.12-10.64-21.15-21.62-32.36-32.58,51.94,14.71,102.06,39.18,147.43,61.33,11.1,5.42,21.59,10.55,32.06,15.51,290.65,168.37,492.55,336.69,664.2,698.25l3.89,10.41c47.94,128.37,127.61,341.67,118.46,506.72-26.07,6.83-113.59,29.52-307,77.63C2397.78,2674,2256.46,2695.11,2212.32,2701.15Z"/>
  </g>
</svg>
