<svg xmlns="http://www.w3.org/2000/svg" viewBox="0 0 2994.91 3000">
  <title>156Icon_neon 1</title>
  <g>
    <path d="M185.93,2164.48c26.66,26.4,54.22,53.69,76.82,83.82l.57.77,220.57,216,.83.74c21.91,17.93,42,39,63.28,61.31,43.17,45.27,87.81,92.08,150.94,114.25C732.14,2653,775.26,2660,814.3,2660c29.48,0,71.17-4.09,102.32-23.6l.59-.37,1.16-.92.48-.47,66.06-65.08.13-.13c304.54-300,814.26-802.08,1080.75-1078.57,58.08-60.26,99.18-114.88,125.63-167,25.31-49.83,36.64-96.23,34.64-141.85-2.63-59.87-28-116.82-80-179.21-45.7-54.91-107.72-108.86-173.38-166-28.15-24.49-57.26-49.81-86.41-76.33-17.11-16.7-33.86-34-50.06-50.69-42.06-43.39-81.78-84.37-130.39-119.63-55.58-40.32-112.32-65.43-178.65-79l-1.56-.32-1.7.09c-42.52,2.38-81.85,15.6-120.27,40.42-33.59,21.71-63.14,49.95-91.73,77.26-14.07,13.45-28.62,27.35-43.41,40.23l-.42.38c-202.95,193.56-417.62,403.29-625.26,606.16-88.67,86.63-180.35,176.21-267.94,261.4-9.28,9-20.54,19.77-33.58,32.2l-.16.16c-46.82,44.64-110.94,105.77-167.2,168.56-68.84,76.83-106.3,134.39-114.51,176l-.13.69-.06.7C54.94,1967.43,66,2013,94.13,2058.39,118.4,2097.62,151.2,2130.1,185.93,2164.48ZM814.33,2634h0c-35.71,0-76.62-6.58-106.76-17.17-57.24-20.1-99.69-64.62-140.75-107.67-20.75-21.76-42.2-44.25-65.16-63.09l-218.73-214.2c-23.57-31.3-51.59-59-78.7-85.88C138.8,2081.23,77,2020,85.11,1918c7.5-36.37,43.94-91.22,108.32-163,55.55-62,119.21-122.65,165.69-167l.17-.17c13.08-12.48,24.39-23.26,33.75-32.39,87.28-84.87,178.85-174.34,267.41-260.86l.71-.7c207.45-202.68,421.94-412.24,624.68-605.6C1301,675,1315.69,661,1329.92,647.4c56.55-54,110-105.09,193.8-110.41,136.39,28.48,212.88,107.39,293.85,190.93,16.39,16.9,33.33,34.38,50.75,51.37l.31.29c29.45,26.8,58.72,52.26,87,76.88,128.36,111.67,239.22,208.12,244.43,326.72,3.7,84.22-46.35,179-153,289.63C1780.75,1749.12,1271.14,2251.1,966.66,2551l-4.87,4.8-60.14,59.24C881.13,2627.47,851,2634,814.33,2634Z"/>
    <path d="M2245,1498.13c4.79-14.3,20-62.64,14.87-84.08-2.47-10.3-9-13.67-12.75-14.76a18.72,18.72,0,0,0-13.35,1.27l-1.2-1.26-18.09,17.25.2.21c-13.83,14.38-27.21,30.93-41.23,48.27-22.94,28.38-46.67,57.72-73.51,78.33l-.64.49-.57.56c-138,137.31-279.71,284.24-416.72,426.35-247.93,257.14-504.31,523-748.59,741.63-66.65,59.63-146.38,61.23-243.76,4.88-88.34-51.12-180-142.94-261-224-20-20-38.84-38.89-57.58-57.15-69.13-67.39-271.59-280.6-280.2-289.67l-65-68.52,44.08,83.53c40.65,77,93.08,151.5,160.28,227.69C287.94,2454.6,346.4,2510,398,2558.78c38.81,36.75,72.34,68.49,97.42,96.88,58.5,66.21,103.87,115.65,155,149,54.58,35.58,113.81,51.44,192,51.44h1.87c34.75-.11,84.39-17.57,102.33-31.95,81.87-65.63,82.92-66.54,111.48-97.32,26.29-28.35,75.24-81.11,238.33-238.1,38.79-37.33,153.94-154.05,287.27-289.19l.16-.17c221-224,496.05-502.79,619.18-619.38C2222.23,1561.89,2238.77,1516.71,2245,1498.13ZM352.92,2454.72c18.64,18.18,37.46,37,57.39,57,82,82.15,175,175.26,266.32,228.09,54.07,31.29,102.52,45.94,148.15,44.79s88.08-18.91,126-52.81c245-219.22,501.71-485.47,750-743l.07-.08c136.71-141.78,278.06-288.39,415.65-425.26,29-22.4,53.49-52.74,77.22-82.09,13.92-17.22,27.19-33.63,40.54-47.42-1.58,12.49-5.87,31.94-14,56.1-11.19,33.3-25.25,61.86-35,71.07-123.44,116.88-398.66,395.85-619.81,620l-.15.15c-133.21,135-248.26,251.64-286.8,288.74-163.6,157.48-212.88,210.6-239.36,239.14-27,29.12-27.53,29.68-108.68,94.72-9.93,8-52.78,26.13-86.15,26.24h-1.85c-151.47,0-213.17-62.22-327.54-191.66-25.86-29.25-59.77-61.36-99-98.54-77.56-73.44-177.84-168.38-260.67-288.32C222,2321.38,311.43,2414.29,352.92,2454.72Z"/>
    <path d="M2858.14,919.52a326.09,326.09,0,1,0,95.51,230.58A323.93,323.93,0,0,0,2858.14,919.52Zm-230.58,530.67c-165.48,0-300.1-134.62-300.1-300.09S2462.08,850,2627.56,850s300.09,134.63,300.09,300.1S2793,1450.19,2627.56,1450.19Z"/>
    <path d="M2450.26,1476.3l-7.28-2.68c-14.57-5.38-37.72-21.21-63.52-43.44-16.88-14.55-29.18-27-33.89-32.52a15.17,15.17,0,0,0-1.13-2.68,13.85,13.85,0,0,0-6.93-6.21l-15.78-20.49-.21,25.54A13.54,13.54,0,0,0,2320,1405a13.08,13.08,0,0,0,.46,1.33c-.56,8.87-5.71,36.17-17.64,74.1-14.68,46.66-33.32,89-52.51,119.38-39.73,62.8-182.93,183.93-184.37,185.15L2049,1799.15l20.64,7.85c30.46,11.58,56.19,15.88,95,15.88a290.72,290.72,0,0,0,290.71-290.71c0-19.66-3.82-47-4-48.19Zm-285.63,320.58c-25.88,0-45.21-2.06-64.38-7.21,40.88-35.61,138.74-123.4,172-176,29.26-46.27,48.63-103,57.57-132.62,5.3-17.6,9.75-35,12.7-49.24,22,21.12,57.2,50.43,84,63.07,1.1,9.09,2.79,25,2.79,37.3C2429.34,1678.13,2310.59,1796.88,2164.63,1796.88Z"/>
    <path d="M2039.54,793.65l-27.07,4.17,72.77,65.6,93.47,90,78.84,97.13,12.35,15.18,63.7-119.34-3.3-6.11c-50-93.27-144.88-149-253.85-149C2062,791.31,2054.67,791.31,2039.54,793.65Zm36.91,23.66c96.83,0,181.41,48.17,227.6,129.2l-38.66,72.43-67.5-83.16-94.77-91.25-30.19-27.21Z"/>
    <path d="M2035.56,552.27c114.77,0,208.15-93.38,208.15-208.15S2150.33,136,2035.56,136s-208.15,93.37-208.15,208.15S1920.78,552.27,2035.56,552.27Zm0-390.3c100.43,0,182.15,81.71,182.15,182.15S2136,526.27,2035.56,526.27s-182.15-81.72-182.15-182.15S1935.12,162,2035.56,162Z"/>
  </g>
</svg>
