<svg xmlns="http://www.w3.org/2000/svg" viewBox="0 0 2994.91 3000">
  <title>30Icon_neon 1</title>
  <path d="M2885.37,1774.88a654.68,654.68,0,0,0-263.5-411.45A640,640,0,0,0,2406.06,1264L2400.23,1107c63.9-29.67,96.79-103,75.23-171.08l-13.83-43.66A141.74,141.74,0,0,0,2305.74,795L2236,683.73c50.78-57.65,48.63-145.9-6.44-201L2204.79,458a147,147,0,0,0-184.32-19.13l-109.64-31.25a150.94,150.94,0,0,0-143.77-150.14l-27-1.28A151.23,151.23,0,0,0,1589.81,359l-106.32,26.28c-37.81-67-122.8-91.48-190.57-54.58l-40.67,22.14a141.34,141.34,0,0,0-64.25,175l-51.37-28.2a631.93,631.93,0,0,0-242-75.29A645.63,645.63,0,0,0,432,559,631.61,631.61,0,0,0,268.24,752.45L184.7,904.61a631.69,631.69,0,0,0-75.28,242A645.56,645.56,0,0,0,244.1,1609.23,631.73,631.73,0,0,0,437.51,1773l57.83,31.75a631.64,631.64,0,0,0,242,75.28A645.69,645.69,0,0,0,1200,1745.35a632,632,0,0,0,163.77-193.41l83.54-152.17a631.64,631.64,0,0,0,75.28-242,645.65,645.65,0,0,0-134.68-462.62c-10.92-13.87-22.48-27.36-34.52-40.28l91.75-43.15.66-.33A141.47,141.47,0,0,0,1517.87,466l65.42-15.75a151,151,0,0,0,141.62,125.29l27,1.28c2.43.12,4.89.17,7.32.17a151.26,151.26,0,0,0,135.2-84l59,17.12a147.18,147.18,0,0,0,25.34,174l24.73,24.72a147.48,147.48,0,0,0,164.81,29.89L2221,823.49a141.54,141.54,0,0,0-64.05,165.27l13.84,43.66a141.75,141.75,0,0,0,134.78,98.86q4.48,0,9-.3l3.7,113.89a640.1,640.1,0,0,0-235.3.43,654.64,654.64,0,0,0-411.45,263.51,640.43,640.43,0,0,0-103.92,235l-33.32,152a640.36,640.36,0,0,0-3.93,256.95,654.68,654.68,0,0,0,263.5,411.45,640.43,640.43,0,0,0,235,103.92l46.9,10.28a649.34,649.34,0,0,0,772.33-494.61l33.33-152A640.59,640.59,0,0,0,2885.37,1774.88ZM1424.48,1387.26l-83.55,152.17c-78.53,143-208.7,247.12-366.52,293.07s-323.51,28-466.56-50.54L450,1750.21C153.48,1587.39,44.67,1213.68,207.49,917.13L291,765C398.78,568.71,605.26,446.8,829.89,446.8a613,613,0,0,1,294.22,75.63L1182,554.18c9.32,5.12,18.71,10.6,28,16.33l4.46,8.11,4.52-2.45C1489.14,750,1579.61,1104.71,1424.48,1387.26Zm9.19-798.88-99.49,46.79a632.65,632.65,0,0,0-104.72-83.1l-10.9-20a115.29,115.29,0,0,1,46.13-156.38l40.66-22.15a115.29,115.29,0,0,1,156.38,46.13l1.89,3.47,3.2,13,3.43-.84,9.2,16.88A115.41,115.41,0,0,1,1433.67,588.38Zm148.48-188.55-.84,17.73q-.15,3.18-.17,6.41l-69.55,16.74a141.43,141.43,0,0,0-9.31-21l-5.92-10.88,86.9-21.48Q1582.45,393.59,1582.15,399.83Zm302.54,14.38-.84,17.73a124.95,124.95,0,0,1-124.66,119c-2,0-4,0-6.07-.14l-27-1.28a125.08,125.08,0,0,1-118.86-130.73l.84-17.73a125.08,125.08,0,0,1,124.67-119c2,0,4,0,6.06.14l27,1.28a124.95,124.95,0,0,1,118.86,130.73Zm19.2,54.41a151,151,0,0,0,5.86-34.24L1996,459l-17.25,17.24q-5.31,5.32-10.11,11.2Zm118,221.76-24.72-24.73a121.07,121.07,0,0,1-18-148.13l3.38,1,3.06-10.5a123.15,123.15,0,0,1,11.58-13.39l18.18-18.18a120.94,120.94,0,0,1,171.05,0l24.73,24.72a121.1,121.1,0,0,1,0,171.06L2193,690.38A121.1,121.1,0,0,1,2021.89,690.38Zm169,35.42a147.47,147.47,0,0,0,20.4-17l5.91-5.91,61.91,98.71-30,9.52c-1.45.46-2.89.95-4.33,1.45Zm61.55,366.43h0a114.76,114.76,0,0,1-56.94-67.66l-13.83-43.66a115.68,115.68,0,0,1,75.25-145l34.83-11a115.52,115.52,0,0,1,145,75.25l13.83,43.66a115.66,115.66,0,0,1-75.25,145l-34.83,11A114.79,114.79,0,0,1,2252.49,1092.23ZM2379.82,1258l-35.36-7.75-4-123.35q4.07-1,8-2.28l26.11-8.27Zm476.23,768.29-33.32,152C2787.27,2340,2690.4,2478.64,2550,2568.59c-101.15,64.77-217.05,99-335.19,99h0a624.13,624.13,0,0,1-133.38-14.51l-46.9-10.29c-161.74-35.45-300.35-132.32-390.29-272.76s-120-306.86-84.5-468.6l33.33-152c35.45-161.73,132.32-300.34,272.76-390.28,101.15-64.78,217.07-99,335.22-99a624.21,624.21,0,0,1,133.38,14.52l46.9,10.28c161.74,35.45,300.35,132.32,390.29,272.77S2891.5,1864.54,2856.05,2026.27Z"/>
</svg>
