<svg xmlns="http://www.w3.org/2000/svg" viewBox="0 0 2994.91 3000">
  <title>126Icon_neon 1</title>
  <path d="M2919.81,1779.89c-12.86-57.71-36.66-112.63-70.72-163.23C2776,1508.05,2663,1432.23,2539,1408.63l-.86-.13c-88.26-10.5-184.95-5.31-279.62,15-92.76,19.9-182.13,53.92-258.46,98.39l-.76.49c-47.47,32.47-67,55.32-89.66,81.77-15.11,17.66-32.25,37.69-61,63.44l-5,4.43.69,6.61c9.25,90,23.23,225.91,11.34,349.21-12.31,127.72-50.08,209.41-112.38,243.38,15.25-53.76,25.32-127.37,28.71-211.28,3.62-89.67-1-183.42-12.3-250.84C1746.39,1715,1732.37,1623,1718.82,1534l0-.1c-20.58-135.07-41.86-274.73-60.33-419.41-2-15.43-4.16-30.19-6.28-44.47-14.84-100.14-25.57-172.48,61.9-279.48,80.47-98.44,168.23-147.78,240.78-135.35,44.25,7.57,82.77,37.52,114.5,89,5.35,9.68,10.61,19.38,15.69,28.78l2.71,5c5.82,12,11.42,25.07,16.72,38.86-51.11,23.49-87.62,61.86-106,111.58-17.23,46.64-16.62,101.39,1.66,150.22,17.59,46.95,49.53,84.77,89.94,106.48a173.46,173.46,0,0,0,83.08,20.61c23.34,0,47.53-4.33,71.9-12.87l.74-.29c55.19-23.36,94.48-61.91,113.63-111.48,16.91-43.77,17.09-94,.5-141.39-16.36-46.78-47.19-85.93-86.81-110.26-41.62-25.54-89.52-32.9-139.07-21.47-7.83-13.65-15.5-27.72-23.82-43.07-5.38-11-11.09-21.46-17-31.17-27.89-50.65-61.83-108.42-111.86-153.41-64.54-58-145.59-85-247.78-82.46l-.44,0C1580.58,506,1480.62,545,1409.08,624.28c-31.4,34.79-58.21,78-84.39,136-24.1,53.36-46,115.71-68.12,180.3-67.27,198.68-110,425.85-123.59,656.94-13.14,223.62,2.14,440.42,44.23,630.51-58.85-73.56-109.08-188.28-143.62-329.5-35.49-145.12-50.54-307.09-39.27-422.67l.71-7.16-5.7-4.42c-113.07-87.36-224.42-142.8-331-164.79-96.16-19.85-186.46-12.36-268.4,22.24-77.54,32.74-145.24,89.66-195.79,164.61-47.75,70.78-78.23,154-88.13,240.7-9,79-.16,157.06,25.64,225.89A406.21,406.21,0,0,0,186,2053a389.61,389.61,0,0,0,73,74.58c-34.31,43.41-51.29,91.9-49.23,141,2,47.35,21.78,92.85,55.71,128.11,32.92,34.2,76,55.51,121.31,60,6,.6,12.1.9,18.1.9,43.83,0,86.89-16,124.55-46.4,42.85-30.63,69.32-72.39,76.58-120.79,6.47-43.11-2.91-89.33-26.4-130.15-24.09-41.87-60.62-74.13-102.85-90.84-45.75-18.11-95-17-142.93,3.18-19.79-10.13-37.48-30.77-50.2-58.74C269.44,1982.5,262,1943.14,262.8,1903c1.22-62.25,24.36-136.9,85.66-159.83,100-35,271.37-16.87,411.33,105.8,95.56,83.76,113,235.16,129.82,381.57,4.93,42.84,10,87.13,17,128.26l2.06,12,12.11-1.27c41.84-4.38,81.12-8.84,119.18-13.17,140.52-16,261.89-29.76,417-28.32,136.78,3.22,257,22,384.39,41.88,37.65,5.88,76.59,12,116.64,17.73l8.59,1.25,4.44-7.46c120-201.44,259.21-375.17,438.17-546.72,25.43-24.37,63.94-39.74,111.38-44.43,42.19-4.17,89.36.29,132.82,12.56,83,23.42,140.79,69,154.65,121.9,5.87,22.39,1.53,66.63-11,112.71-11.05,40.46-26.72,75.91-41.27,94.07-50.33-23.55-102.69-28.15-152-13.27-46.55,14.06-87.24,44.67-114.57,86.21-24.92,37.88-36.32,81.78-32.1,123.63,4.72,46.69,28.28,88.71,68.14,121.5l.34.26c37.93,29.08,80,44.45,121.7,44.45h0a173.6,173.6,0,0,0,20.52-1.23c43.09-5.18,84.33-26.84,116.13-61,33.42-35.91,53.59-81.89,56.78-129.46,3.29-49.14-11.63-95.69-43.23-135.29,41-46.28,97.54-133.61,124.15-205l.34-.93.2-1C2934.08,1901.05,2933.28,1840.31,2919.81,1779.89Zm-22.9,174.37c-27.4,73-86.67,162.42-126.11,203.76l-8.28,8.65,7.95,8.95c69.42,78.27,49.75,179.37-5.55,238.79-46.63,50.09-133.07,84.05-223.32,15-75.79-62.48-70-150.78-30.66-210.61,26.43-40.16,79.94-83.08,150.87-83.08,30.3,0,60.92,7.86,91,23.35l8.15,4.2,6.67-6.25c19.95-18.62,40.32-60.74,54.5-112.67,14.12-51.71,18.28-98.86,11.12-126.15-8.43-32.18-30.2-62.45-63-87.54-29.48-22.59-67.45-40.84-109.77-52.79-48.6-13.72-100.8-18.34-147-13-51.28,5.92-93.56,23.6-122.27,51.12-89.69,86-168.54,171.63-241.06,261.86a2497.89,2497.89,0,0,0-197,282.87c-36.92-5.39-72.91-11-107.79-16.45-128.23-20-249.36-38.93-387.9-42.19h-.17c-85-.79-159.87,2.93-233.13,9.07l-10.28-40.82c-98.55-391-72.16-909.69,67.24-1321.42,48.16-140.41,84.43-237.65,147.2-307.21,66.54-73.74,160.92-110.09,306-117.86,137.55-3.37,216.66,52.08,271.89,121.8a157.16,157.16,0,0,0-47-16.06c-82-14.05-178.74,38.62-265.3,144.52-43.42,53.12-67.21,102.57-74.85,155.62-6.9,47.9,0,94.64,7.37,144.18,2.1,14.15,4.27,28.78,6.2,43.9,18.52,145.08,39.83,284.91,60.44,420.18,13.56,89,27.57,181,40.9,275l0,.31c22.53,134,18.2,362.6-24,476.53l-9.27,25,25.39-8.07c48.22-15.31,86.07-50.29,112.5-104,21.73-44.15,36.18-102.14,42.95-172.36,11.87-123-1.35-257-10.68-347.82,27.12-24.76,43.75-44.19,58.53-61.46,21.38-25,39.84-46.56,84.17-76.94,153.41-89.25,348.11-130.31,521-109.86,117,22.4,223.7,94.15,292.88,196.92C2894,1729.88,2918.59,1844.58,2896.91,1954.26ZM930.29,2342.43c-5.91-37-10.45-76.52-14.85-114.83C898,2076.29,880,1919.83,776.92,1829.46c-68.52-60.06-150.24-101-236.33-118.47-72.05-14.59-145.26-11.78-200.87,7.73l-.23.09c-32.67,12.18-59.43,37.45-77.39,73.08-15.74,31.23-24.49,69.49-25.29,110.64-.82,42.08,6.91,84.25,21.79,118.75,16.6,38.51,40.86,65.34,70.13,77.57l5.23,2.2,5.16-2.34c95.46-43.24,179.94,8.32,218,74.53,37.86,65.79,39.23,158.41-43.06,217l-.61.46c-84.06,68-177.73,41.4-229.19-12.07-54.94-57.08-75.22-154.87,3.28-244.67l9.4-10.74-11.55-8.35c-114.24-82.8-171.64-226.71-153.55-385,19.77-173,125.05-323.86,268.21-384.31,42.25-17.84,94.78-31.26,157.27-31.26,107.84,0,245.29,40,410.43,166.09-4.91,56.32-4.11,123.48,2.35,194.79a1582.63,1582.63,0,0,0,38.21,229.41c42,171.91,107.42,306.27,184.09,378.32l30.13,28.31c-61.23,5.16-121.42,12-185.57,19.29C1002.79,2334.47,967.53,2338.47,930.29,2342.43ZM2024.51,1069.51c-30.83-82.33-7.19-187.55,96.85-231.71l.24.41,9.65-2.7c103.09-28.82,178.09,38.25,204.16,112.77,27,77.13,6.71,175.08-99.33,220.17C2129.45,1205.62,2053,1145.57,2024.51,1069.51Z"/>
</svg>
