<svg xmlns="http://www.w3.org/2000/svg" viewBox="0 0 2994.91 3000">
  <title>148Icon_neon 1</title>
  <path d="M2863.09,2190c-13.46-53.38-34.33-101.85-54.52-148.74l-.39-.92c-6.09-14.14-12-28.06-17.78-41.53-49-114.75-91.3-213.86-156.17-291a449.09,449.09,0,0,0-119.53-100.72c-49.5-28.85-107.21-50.84-176.42-67.22l-8-1.9-5.16,6.37c-6.69,8.27-70.82,65.43-164.19,118.12-81.26,45.86-202.95,98-321.63,86.63l-56.16-13.43,92.63-18.08.71-.16c4.06-1,100-25.79,133.07-45.21,56.42-33.1,105.93-71.8,147.13-115,46.56-48.83,81.55-102.57,104-159.71,11.75-29.91,17.32-61,23.23-94,2.72-15.17,5.53-30.86,9-46.54,22.75-102.64,13.8-219.47-23.38-304.9-33.22-76.34-77.72-151.23-125.31-210.89-16-20-34.15-39.16-53.43-59.47-34.62-36.47-70.42-74.17-92.52-117.19-24-46.86-43.37-102.63-63.82-161.67-30.69-88.62-62.43-180.25-113.81-250.75-28.31-38.83-59.64-67.41-95.81-87.36-40.34-22.25-87.17-33.33-139.15-32.9h-.57l-1.46.17c-8.84,1.47-19.2,2.87-29.25,4.22s-20.74,2.79-30,4.34l-.62.11-.61.16c-30.59,8.34-57.84,16.27-81.49,28.86-28.3,15.08-47.28,35-58,61-7.83,18.89-9.7,29.77-13.43,51.43l-.31,1.78c-4.32,25.07-2.09,35.35,11.39,52.37l8.94,11.31,10.33-10.06c6.88-6.71,11.36-11.71,15.33-16.15,7.62-8.5,11.81-13.19,27.31-22.63,29.55-18,70.72-21,110.15-8.17,32.61,10.64,57.71,30.61,67.16,53.4l.4.87c57.43,113.11-26.8,246.32-103.59,303.38l-3.79-.3-2.12,4.18c-3.31,1.7-8.85,4.43-12.23,6.09-7.3,3.6-11.07,5.48-13.45,6.72-2.61,1.37-5.11,2.67-7,4.93l-46.11,25,34.48-2.76-.52,1,77.09-6.16,145.63,22.71c-86.06,13-211.79,32.22-241.52,38.16-150.73,30.15-285.14,78.78-399.5,144.53-123.82,71.2-219.38,160.07-284,264.15-28.13,45.28-42.71,104.05-42.14,169.94.5,58.35,13,120,35.15,173.45,17.11,41.3,45.67,83.19,84.9,124.51,35.89,37.79,79.79,74.25,130.5,108.35,95.76,64.4,207.55,114.67,306.73,137.92l.56.14,4.23.58-49.57,10.54c-78.91-1.92-200-34.33-316.47-84.77-59.08-25.58-112.57-53.83-154.68-81.71-41.31-27.35-71.06-53.87-86-76.68l-4.62-7-8.29,1.33c-24.58,3.92-55.24,20.38-96.49,51.79-34.22,26.07-70.1,58.26-101.76,86.67-35.52,31.88-66.2,59.41-85.8,71.14l-.89.54-1.71,1.46-.67.8q-22.26,26.49-39.85,47.25l-.35.41c-100.14,118.46-101.54,120.75-149.89,245.09-6.27,16.12-13.37,34.39-21.66,55.39-23.4,59.3-36.6,120.14-39.22,180.83-2.87,66.62,7.27,130.16,30.15,188.86,24.78,63.55,52.41,115.78,84.49,159.68,36,49.3,81.42,91.13,138.78,127.88,50.7,32.49,109.62,60.19,180.13,84.7,130,45.21,280.19,72.17,425.39,98.25l9.74,1.75c49.77,8.94,102.24,10.45,153,11.91,48.55,1.4,98.76,2.84,147.13,10.74l1,.16H1550.5l171.7-4.52q35.41-.75,70.9-1.52l.9,0,.88-.15c35.54-5.89,72.19-7.7,107.65-9.45,41.31-2,80.33-4,118.8-11.72,176.15-35.52,327.73-81.9,450.53-137.87,156.51-71.33,268.33-159.24,332.38-261.31,26.48-42.2,47.56-95.78,59.38-150.88C2877.92,2314.09,2877.74,2248.12,2863.09,2190Zm-1565,742.22c-49.67-8-100.41-9.49-149.5-10.9-49.79-1.43-101.27-2.91-149.13-11.51l-9.75-1.75c-287.63-51.66-585-105.08-727.89-300.58-30.74-42.06-57.32-92.36-81.26-153.78-41.46-106.36-38.25-230.91,9-350.7,8.3-21,15.42-39.35,21.71-55.51C258.54,1926,258.54,1926,356.83,1809.77l.31-.37q17.08-20.19,38.57-45.73c21.66-13.49,52.42-41.09,87.9-72.93,55.52-49.82,130.49-117.1,177.28-130.41,18,24,47.64,49.8,88.34,76.74,43.35,28.69,98.18,57.67,158.56,83.81,57.35,24.83,117.18,46,173,61.12,59.18,16.06,112.69,25,154.84,25.82l1.43,0,197.78-42.09-150.17-20.68c-96.06-22.62-204.48-71.46-297.54-134C885,1542.36,811.91,1463.79,781.26,1389.8c-38.55-93-51.93-228,5.06-319.72,120.59-194.1,357.32-335,666.56-396.9,44.81-9,312.88-48.84,324.32-50.54l84.5-12.54-315.62-49.23-1.44-.22-1.36.11c32.49-26.93,71.59-71.31,97.19-126.85,22.9-49.68,42.14-124.75,3.89-200.5-12.43-29.49-43.38-54.77-82.91-67.67-46.54-15.19-95.79-11.2-131.73,10.69-18.78,11.43-24.81,18.17-33.16,27.49-.77.86-1.55,1.74-2.38,2.65-.73-4.19-.16-9.43,1.38-18.37l.31-1.77c3.61-21,5.11-29.69,11.83-45.9,19.24-46.42,68.94-60.12,121.67-74.49,8.69-1.44,18.77-2.79,28.58-4.12s20-2.69,29-4.16h1.73c88.23,0,157.27,35.87,211,109.59,49.09,67.35,80.18,157.11,110.26,244,20.76,59.93,40.36,116.54,65.25,165,23.8,46.34,60.91,85.42,96.82,123.24,18.86,19.88,36.68,38.64,51.93,57.76,46.21,57.93,89.47,130.75,121.8,205.06,35.1,80.65,43.46,191.34,21.83,288.89-3.59,16.21-6.45,32.16-9.22,47.63-5.67,31.66-11,61.56-21.83,89.09-51,129.9-158.72,214.07-240.08,261.79-24.67,14.48-99,35.39-126,42.36l-209.78,40.95,174.38,41.7.85.08c55.22,5.45,115.42-1.45,178.93-20.51,51.34-15.42,104.81-38.72,158.93-69.26,84.66-47.77,146.09-99.2,165.72-118.2,266.17,65.36,330.33,215.65,427,442.15l.28.65c5.67,13.29,11.54,27,17.53,40.95l.4.93c19.78,45.94,40.23,93.44,53.18,144.81,28.91,114.7-7.12,244.1-55.66,321.47-111.1,177.05-368.83,307.43-766,387.51-36.56,7.37-74.63,9.25-114.94,11.24-35.9,1.77-73,3.6-109.67,9.62l-70,1.49L1550,2932.23Z"/>
</svg>
