<svg xmlns="http://www.w3.org/2000/svg" viewBox="0 0 2994.91 3000">
  <title>22Icon_neon 1</title>
  <g>
    <path d="M1107.12,1922.63a16.07,16.07,0,1,0-16.07,16.06A16.09,16.09,0,0,0,1107.12,1922.63Z"/>
    <path d="M1988,1950.15a16.07,16.07,0,1,0-16.06,16.07A16.07,16.07,0,0,0,1988,1950.15Z"/>
    <path d="M2928.67,1838.3c-7.63-70.71-37-138.36-82.76-190.51-45.37-51.72-105.07-87-173.68-102.73A350.07,350.07,0,0,0,2751,1373.53c10.47-66.06,1.47-135.16-25.33-194.57-24.12-53.48-61.65-97.76-108.52-128.06-45.63-29.5-97.86-45-155.52-46.15A376.08,376.08,0,0,0,2498.32,868c3.95-54.42-4.21-108.25-23.61-155.68-15.93-38.95-38.79-72.53-67.94-99.81-30.6-28.63-67.25-49.39-109-61.75a268.09,268.09,0,0,0-100.24-45.95c-35.06-7.95-71.62-9-108.67-3-43.22,6.94-86.46,23.59-125.05,48.16a357.51,357.51,0,0,0-80.74,70.74c-17.17-110.06-63.44-204-134.8-273.14-70.76-68.53-163.17-109-260.2-114a387.93,387.93,0,0,0-260.42,82.72c-76,60.05-130,148.46-157,256.66-23.92-23.39-49.34-42.73-75.8-57.62-31.07-17.49-63.61-28.91-96.73-34-62.38-9.48-124.61,3.64-180,37.94-61.39,38-108.2,98.78-131.83,171-23.13,70.72-22.67,147.23,1.11,222.7-58.24-17.08-117.55-18.74-173-4.65a304.84,304.84,0,0,0-152.69,92.72,299.77,299.77,0,0,0-73.65,157c-8.51,58.82,1.06,119.48,27.69,176.06-55.28,47.24-93.65,113.2-108.44,186.83s-5,149.26,27.43,214.21a323.63,323.63,0,0,0-76.77,148.11,331.07,331.07,0,0,0,6.79,166.75c16,52.84,45,100.54,83.81,137.93,38.42,37.05,84.45,62.82,137,76.73a362.33,362.33,0,0,0-19.44,128.65c1.53,47.67,12.83,94.76,32.66,136.2,17.39,36.33,40.83,67.89,69.67,93.8a290.26,290.26,0,0,0,191,73.47,266.94,266.94,0,0,0,41.13-3.19,263.24,263.24,0,0,0,110.23-44.33c36-25,66.46-59.22,88.13-99,22.68-41.68,35.51-88,38.16-137.57l.81-15-15,1.35c-86.34,7.76-157.82-26-201.26-94.95-54.79-87-55.82-215.26-2.47-305,43.22-72.69,115.7-109.59,204.06-103.92l6.14.39,4.19-4.48c33.9-36.23,57.46-80.6,70-131.87,10.44-42.6,12.83-89.65,7-136.83,57.57-10.32,115.22-39.82,163.61-84,48-43.73,83.84-98.81,101.87-156.09,6,.47,12,.71,17.94.71,58,0,117.17-22.52,171.19-65.12,42.94-33.85,81-79,110.19-130.7a444.85,444.85,0,0,0,41.31-98.6c11.8,32.66,29.36,65.38,52,96.62,34.88,48.1,79.41,89.68,128.8,120.25,55.06,34.07,112.71,52.08,166.7,52.08a230.18,230.18,0,0,0,56.54-6.91c14.88,55,45.56,109.12,87.32,153.57,42.84,45.58,95.32,78.58,149,93.93-12.61,46.35-16.35,96.63-10.49,143,7.07,56,27.56,104.79,59.24,141.13l4.21,4.84,6.41-.41c147.49-9.34,230.62,108.82,245.39,222.57,14.66,112.79-34.43,247-176.83,275.14l-10.75,2.13.28,11c1.11,42.29,9.88,81.54,26.07,116.66a248.92,248.92,0,0,0,66.34,87.26c48.53,40.71,111.39,62.23,181.77,62.23a365,365,0,0,0,53.62-4.06c103.76-14,179.6-69.85,213.56-157.16,40.55-104.24,14.33-236.89-66.55-342.16,62.09-28.23,111.18-73,142.58-130.25C2923.41,1973,2936.05,1906.69,2928.67,1838.3ZM2723.88,2143l-16.74,6.6,11.53,13.81c83.4,100.12,112.13,229.52,73.17,329.67-30.38,78.12-98.88,128.13-192.88,140.83l-.18,0c-83.5,12.48-159.83-6.12-215-52.36-49.15-41.24-78.28-102.73-82.66-174,66.45-15.9,118.93-54.56,152.23-112.31,31-53.83,43.26-121.06,34.4-189.29-8.93-68.73-38.27-131-82.6-175.46-48.73-48.81-112.11-73-183.63-70-59.66-73.17-61.17-186.4-35.67-267.59l4.22-13.41-13.7-3.16c-109.29-25.16-207.47-128-233.45-244.66l-3.12-13.92-13.55,4.39c-64.6,20.85-140.94,7.11-215-38.69-95.52-59.12-169.22-161.76-183.4-255.42l-15-99.43-10.74,100c-10.42,97-71.86,205.1-152.89,269-57.91,45.66-120.43,65.67-180.8,57.88l-11.2-1.44-3,10.88c-32.53,118.37-144.24,218.87-259.83,233.77l-13.24,1.71,2.06,13.17c15.41,99.35-8.08,192-64.51,255.4-95.77-4.2-174.38,37.16-221.8,116.92-28.2,47.43-43.47,106.73-43,167s16.75,119,45.81,165.15c23.15,36.76,53.31,64.79,89.66,83.29,35.71,18.19,76.26,26.47,120.67,24.69-8.34,84.09-49.4,157.15-114,202-62.6,43.44-138.52,54.35-213.76,30.72-70.44-22.12-127.26-72-160-140.34-37.91-79.2-40.59-173.27-7.34-258.08l5.57-14.19-14.89-3.26c-104-22.76-184.74-97.64-215.92-200.31-32.24-106.12-6-216.83,70.22-296.11l6.59-6.83-4.49-8.35c-68.86-128.07-35.29-292.9,78.06-383.38l8.31-6.61-4.81-9.46c-54.21-106.64-39.81-226.72,37.58-313.36C335.05,958.16,409.61,925,491.14,925c37.63,0,75.58,7,112.8,21l27.11,10.14-10.44-27c-68.22-176.66,9.85-324.77,111.26-387.63,85-52.69,218-62.86,336.54,66.59l17.15,18.73,5.16-24.87c55-264.81,247.77-349.91,396.06-342.33,167,8.54,347.59,134.09,374.53,395.3l3.58,34.78,20-28.67c50-71.63,125.86-120.29,208.12-133.5,69.21-11.12,137.09,5,191.12,45.53l.9.67,2.2,1.1,1.1.31c74.65,21.47,132.29,73.7,162.31,147.08,36.66,89.65,28.23,200.55-22,289.44l-11.51,20.35,23.37-1c116.66-4.87,214.4,54.45,261.42,158.68,52.86,117.18,27.11,259.74-64.08,354.74l-17.18,17.88,24.47,4c160.32,26.09,244.94,156.85,257.67,274.86C2917.36,1975.79,2847.12,2094.3,2723.88,2143Z"/>
    <path d="M1336.08,2281.66c46.48,48.34,109.72,75.3,178.06,75.9h2.2a245.53,245.53,0,0,0,94.2-18.74,248,248,0,0,0,80.38-53.45c47.27-46.92,73.25-110.14,73.16-178A245.23,245.23,0,0,0,1690.79,1932c-46.92-46.36-109.34-72-175.79-72.24h-.85a244.06,244.06,0,0,0-92.26,18.12A249.27,249.27,0,0,0,1343,1929c-48.49,46.44-75.79,109.85-76.86,178.53v.19a250.94,250.94,0,0,0,70,173.92Zm-44-173.81c2-124.55,99.49-222.1,222-222.1h.8c122.89.42,223,99.84,223.17,221.63.08,60.89-23.17,117.55-65.48,159.54-41.39,41.08-98.37,64.64-156.35,64.64h-1.88C1389.68,2330.47,1292.06,2232.21,1292.09,2107.85Z"/>
    <path d="M1871.15,2401.2h0c-59.29,4.5-95.08,47.47-129.68,89-38.19,45.86-74.26,89.18-141.73,95.63-87,7-162,2.17-222.8-14.49-28.53-8.55-72.59-52-108-86.92-20.32-20-39.52-39-55-51-27.09-20.94-53.34-32.9-78-35.53-25.85-2.75-49,5.13-67,22.8-19.56,19.22-29.32,47-26.77,76.2,2.72,31.27,20.88,78.82,92,127.77,35.77,24.63,95.36,56.87,139.21,78.82,67.92,34,143.63,50.78,231.49,51.31,6,.16,12,.25,17.89.25h0c71.6,0,133.72-11.91,195.48-37.47,61.23-25.35,118-62.15,183.67-104.77l.42-.28q10.68-6.93,21.74-14.08c27.6-17.84,47.9-40,58.72-64.15,10.33-23,11.89-46.82,4.5-68.77C1972.63,2422.23,1927.08,2397,1871.15,2401.2ZM1505,2728.85c-83.83-.49-155.83-16.37-220.13-48.56-43.06-21.56-101.43-53.11-136.1-77-62.73-43.21-78.56-82.91-80.8-108.61-1.87-21.45,5.09-41.64,19.09-55.41a53.57,53.57,0,0,1,38.79-15.86c21.25,0,46.18,10.59,72.1,30.62,14.27,11,32.93,29.43,52.68,48.91,39.48,38.93,84.22,83.06,119,93.37l.24.07c63.78,17.51,141.84,22.68,232,15.36h.17c35.17-3.35,66.24-15.83,95-38.16,24.88-19.33,45-43.42,64.35-66.73,34-40.82,63.34-76.07,111.67-79.74,43.68-3.31,78.79,15,89.47,46.76,9.19,27.29.17,68.62-52.69,102.78-7.54,4.87-14.93,9.67-22.26,14.42-123.51,80.13-212.75,138-365.11,138-5.65,0-11.43-.08-17.2-.23Z"/>
  </g>
</svg>
