<svg xmlns="http://www.w3.org/2000/svg" viewBox="0 0 2994.91 3000">
  <title>154Icon_neon 1</title>
  <path d="M2857,2017.59l-.49-.26c-48.4-24-95.62-18.86-145.61-13.39-37.53,4.1-76.34,8.35-115-1.65l-.8-.2-.81-.1c-33.92-4.14-69.5-12.89-103.9-21.36-23.29-5.72-45.29-11.13-67.07-15.3-251.74-48.19-426.59-229.39-467.73-484.72-45-279.11,86-564.59,318.5-694.21,6.63-3.7,12.85-7.21,18.74-10.53l.16-.09c52.17-29.41,76-42.83,132.82-48.6l1.07-.1,2.24-.63,1-.47c53.18-25.37,84-70.19,84.48-123,.5-52-29.82-102.31-75.43-125.17-29.53-14.79-90.71-30.71-168.76,28.81l-.61.47-.55.54c-28.75,28.1-32.09,68.83-35.32,108.22-2.17,26.4-4.4,53.7-14.4,76.05-99.46,222.47-244.26,268.9-321.72,276.78-106.89,10.86-213.49-38.35-278.21-128.43-81.09-112.85-86.59-267.93-15.09-425.48,9.91-21.85,4.88-41.67-13.46-53-14.4-8.91-37.38-12.26-61.48-9-24.74,3.37-44.88,12.64-55.26,25.42-12.38,15.25-10.25,34.37,5.72,51.14,49.32,51.79,63.38,116.34,39.57,181.74-28.12,77.26-101.91,137.3-179.43,146-66.71,7.48-127.05-25-169.89-91.47-7.85-12.19-15.22-24.66-21.92-37.09A344.77,344.77,0,0,0,1132,595.15c-18.24-41.89-22.79-73.33-12.48-86.33,18.68-23.52,30.33-46.18,34.64-67.34,4-19.7,1.78-38.1-6.63-54.69-22-43.35-79.89-61.72-112.16-60.49l-.61,0-1.34.19-.62.15c-76.94,18.7-96.87,52.82-100,78.14-2.72,21.78,6.08,45.3,25.44,68,18,21.16,45.44,41.81,79.25,59.71,27.68,14.66,51.67,39.67,71.31,74.35,4.65,10.51,10,21.48,16,32.62a449.34,449.34,0,0,1,22.91,71.57c18.29,77.42,22.45,169.51,11.71,259.3-10.62,88.8-34.15,162.48-66.26,207.45-53.94,75.57-156,136.2-287.47,170.73-114.8,30.16-235.36,35.39-314.64,13.66-57.53-15.76-107.56-47.64-151.69-75.77-45.72-29.13-88.91-56.65-132.06-60.68-49-4.57-91.62,20.8-134,79.84a107.91,107.91,0,0,0-20,69.51c1.21,22.64,8.91,45.87,22.26,67.2,14.19,22.67,34.23,42,56.44,54.55,24.52,13.81,50.46,18.88,75,14.65,46.78-8,66.41-24.38,93.58-47,4.28-3.56,8.69-7.23,13.5-11.12,46-27.37,144.53-44.22,263.93-45.11,114.5-.86,223.38,12.86,284.14,35.79,130.64,52.67,223.37,181.07,254.38,352.3,25.12,138.68,4.57,286.6-56.36,405.88-6.23,10.33-12.17,21.08-17.69,32-25.08,42-55,78.94-88.8,109.91-34.86,31.9-56.89,37.83-82.41,44.7-26.79,7.21-57.16,15.38-103.93,53.83l-.57.49c-27.8,25.82-41.13,58.47-38.55,94.41,3.1,43.18,29.58,87,69.09,114.31l.56.37A152.61,152.61,0,0,0,877.65,2675h0c4.31,0,8.68-.19,13-.55a161.28,161.28,0,0,0,83.44-32.31c21.9-16.77,38.29-38.45,47.39-62.69,9.89-26.32,10.76-55,2.52-82.86l-.28-1-.93-1.93-.56-.81c-12.08-17.51-14.28-52.7-6.2-99.11,7.39-42.46,22.83-90.93,42.36-133,1.84-4,3.75-7.93,5.68-11.82,7.14-11.84,14-24.19,20.31-36.72,121.74-198.5,326-205.89,385.69-203.42,155.85,6.46,286.72,92.7,333.39,219.73l3.14,8.49h23.5l.31-12.67c2.83-113.18,82.08-195.71,217.42-226.44,177.29-40.24,423.61,24.2,514.39,198.22,2.18,47.34,25.79,96.8,59.32,123.88l.23.18c37.71,29,77.59,46.19,118.52,51a196.94,196.94,0,0,0,107.11-17.57,207.27,207.27,0,0,0,82.22-70.19c20.95-30.56,32.61-65,33.71-99.64C2965.5,2115.73,2927.74,2056.71,2857,2017.59Zm-506.62-24.41a583.44,583.44,0,0,0-193.25-33,520.48,520.48,0,0,0-115.08,12.45c-67.84,15.4-125.26,44.61-166.06,84.47-34.93,34.13-57.22,74.79-66.6,121.3-27.66-51.92-69.15-96.25-121.79-129.73-62.5-39.75-137.36-62.5-216.48-65.78-87.51-3.62-173.12,16.78-247.6,59a442.33,442.33,0,0,0-102.26,79.87q3.45-10.82,6.52-21.81A692.28,692.28,0,0,0,1142,1791.76c-15.28-84.39-46.5-162.2-90.26-225-47.73-68.51-108.33-117.91-180.13-146.81l-.25-.1c-34-12.86-82.07-22.95-137.45-29.42,26.09-4.32,52.37-9.9,78.32-16.71,137.3-36.07,244.56-100.27,302-180.77,34.59-48.47,59.78-126.41,70.91-219.47,10.62-88.87,7.08-180.1-9.92-258.24,19.24,21.56,40.76,38.28,64.29,49.91,32.2,15.92,67,21.92,103.49,17.83,42.39-4.75,85.79-23.8,122.19-53.62a265,265,0,0,0,63.91-76.64c.09,1.64.19,3.28.29,4.92,4.84,73.32,28.71,141.74,69,197.85,34.48,48,80.43,86.22,132.89,110.55a324,324,0,0,0,169.07,28.57c58.89-6,116.67-28.46,168.41-65.32a685.3,685.3,0,0,0-87.47,148.15c-55.06,126.81-73.33,271.47-51.44,407.33,19.94,123.74,71.79,234.91,150,321.47a568.56,568.56,0,0,0,145.57,115.72c58,32.32,122.9,55.51,193,68.92,21.11,4,42.79,9.38,65.75,15,34.88,8.58,70.95,17.45,106.09,21.8,42.92,10.91,83.87,6.44,123.48,2.11,46-5,89.46-9.79,131,10.7,61.59,34.14,94.49,84.74,92.65,142.49-1.93,60.36-42.54,119.5-101.05,147.15-62.6,29.58-135,18.49-198.55-30.41-28.61-23.17-48.55-66.26-49.65-107.27l0-1.4-.74-2.92-.63-1.24c-23-45-56.16-85-98.68-118.75C2448.63,2036.87,2402.34,2011.65,2350.39,1993.18ZM1494.46,394.64c6-7.42,21.18-13.75,38.61-16.12a108.21,108.21,0,0,1,14.31-1c12.3,0,23.29,2.24,30,6.37,3.44,2.13,9.85,6.09,3.46,20.16a630.26,630.26,0,0,0-32.7,88.59c-9.26-29.3-25.77-56.53-49.27-81.21C1489.1,401.24,1492.59,396.94,1494.46,394.64ZM2175.86,821q37.77-52.23,67.38-118.4c11.8-26.4,14.23-55.95,16.57-84.54,3.08-37.49,5.73-69.9,27-91.19,66.46-50.37,116.64-37.76,140.67-25.72,36.94,18.51,61.49,59.36,61.08,101.67-.4,41.8-25,77.7-67.7,98.78-60.65,6.48-89.25,22.59-140.65,51.57-5.91,3.33-12.15,6.85-18.8,10.56A632,632,0,0,0,2175.86,821ZM97.49,1428.52C74,1391,72.83,1350.71,94.33,1320.77c33.9-47.21,66.61-69.51,102.3-69.51q4.06,0,8.18.38c36.88,3.44,75.63,28.13,120.51,56.73,45.17,28.79,96.29,61.37,156.71,78.34-22.59,2-44,4.63-63.84,7.88-52.08,8.55-91.93,21-118.43,37l-.72.44-.65.52c-5.22,4.21-9.93,8.12-14.55,12C258,1466,242.4,1479,202.48,1485.89,159.4,1493.3,118.71,1462.42,97.49,1428.52Zm990.87-890.8a174.58,174.58,0,0,0-38.76-28.16c-60-31.79-94.9-70.69-91-101.54,3-24.09,31.06-43.87,79-55.77,26.08-.45,71.11,15.47,86.72,46.29,12.8,25.28,4.33,56.94-25.18,94.12C1090.31,503.77,1086.72,518.68,1088.36,537.72Zm-98,1851.59c-9.27,53.29-6.18,92.45,9.18,116.46,11.87,42.84-3.86,87-41.31,115.72-43.44,33.26-100.94,36.71-146.58,8.82-33-23-55.1-59.17-57.64-94.58-2-27.69,8.39-53,30-73.23,42.22-34.64,67.3-41.39,93.85-48.54,26.39-7.1,53.67-14.44,93.2-50.62q17.5-16,33.63-34A525.39,525.39,0,0,0,990.4,2389.31Z"/>
</svg>
