<svg xmlns="http://www.w3.org/2000/svg" viewBox="0 0 2994.91 3000">
  <title>92Icon_neon 1</title>
  <g>
    <g>
      <polygon points="620.46 430.77 619.6 430.27 789.52 133.44 789.94 133.65 1105.69 290.45 1105.25 291.35 789.92 134.76 620.46 430.77"/>
      <polygon points="625.1 447.83 602.54 434.91 784.52 117.01 795.5 122.45 1122.46 284.82 1110.88 308.1 794.91 151.19 625.1 447.83"/>
    </g>
    <path d="M2422.61,2423.11,2404,2405l-228.27,234.32L1755.83,2202a733.24,733.24,0,0,0,215.55-288.8,747.5,747.5,0,0,0,0-569.79,730.74,730.74,0,0,0-153.89-232.7,715.26,715.26,0,0,0-228.33-156.94,708.64,708.64,0,0,0-510.29-19.05L801.37,128l-24.78,7.88,277.86,807.74q-12.4,4.82-24.68,10.1a715.48,715.48,0,0,0-228.33,156.94,730.71,730.71,0,0,0-153.88,232.7,747.5,747.5,0,0,0,0,569.79,730.6,730.6,0,0,0,153.88,232.7,715.51,715.51,0,0,0,228.33,156.95,708.21,708.21,0,0,0,559.39,0,711.63,711.63,0,0,0,146.06-84.76l422.33,439.86L1932,2889.41l18.63,18.15,224.92-230.88,217.54,226.58,18.75-18-218.14-227.2Zm-685.37-240.5-3,2.85c-117.36,93.28-264.83,148.92-424.81,148.92-381.76,0-692.33-316.76-692.33-706.11s310.57-706.12,692.33-706.12,692.33,316.77,692.33,706.12c0,224.69-103.44,425.2-264.29,554.61Z"/>
  </g>
</svg>
