<svg xmlns="http://www.w3.org/2000/svg" viewBox="0 0 2994.91 3000">
  <title>134Icon_neon 1</title>
  <path d="M2787.27,956.2A1401.07,1401.07,0,0,0,2043.8,212.73c-172.24-72.85-355.2-109.79-543.8-109.79s-371.56,36.94-543.8,109.79A1401.07,1401.07,0,0,0,212.73,956.2c-72.86,172.24-109.8,355.2-109.8,543.8s36.94,371.56,109.8,543.81A1401.09,1401.09,0,0,0,956.2,2787.27c172.24,72.86,355.2,109.8,543.8,109.8s371.56-36.94,543.8-109.8a1401.12,1401.12,0,0,0,743.47-743.46c72.86-172.25,109.8-355.21,109.8-543.81S2860.13,1128.44,2787.27,956.2Zm83.8,543.8c0,756-615.06,1371.07-1371.07,1371.07S128.93,2256,128.93,1500,744,128.94,1500,128.94,2871.07,744,2871.07,1500Z"/>
</svg>
