<svg xmlns="http://www.w3.org/2000/svg" viewBox="0 0 2994.91 3000">
  <title>58Icon_neon 1</title>
  <g>
    <path d="M1568.32,2245.62l-12,.62a1517.08,1517.08,0,0,1-200.75-3.17l-14.74-1.21.69,14.75c7.69,171.47,18.34,353.75,28.63,530l.12,2c2.62,45,5.23,89.56,7.75,133.4l.58,10.41,10.28,1.69c29.18,4.82,67.72,10.35,107.08,10.35,37.3,0,69.57-4.84,98.68-14.8l4.54-1.56,18.13-30.77,24.6-4,12.45-2.05-84.48-633.71ZM1403.39,2910.1c-2.35-40.64-4.75-81.87-7.18-123.46l-.09-1.53c-10-171.15-20.32-348-27.95-515a1550.54,1550.54,0,0,0,177.53,2.65l79.56,596.88-24.16,4-19.39,32.9C1524.86,2924.6,1460.46,2919,1403.39,2910.1Z"/>
    <path d="M2436.32,2598.14l-6.25-11.79-1-1.83q-4.23-8-8.49-16c-62.31-119.75-122.55-244-184.13-379.76l-4.23-9.35-10.07,1.93c-26.63,5.11-51,9.2-74.61,12.49l-15.14,2.12,4.52,14.6c16.4,52.93,31.55,107.72,46.21,160.78,29.89,108.15,60.8,220,104.56,324.63l6.19,14.81,138.34-95.83,9.5-6.6ZM2217,2208.76c60.32,132.6,119.41,254.28,180.52,371.7l.1.19,8.5,16,.31.6,1.51,2.84L2305.59,2671c-40-98.89-69.12-204.42-97.39-306.73-13.37-48.35-27.15-98.2-41.95-146.94C2182.53,2214.9,2199.31,2212.05,2217,2208.76Z"/>
    <path d="M2166.38,2527.64c-30.83-105.49-62.71-214.56-93.12-314.32l-3.07-10-10.44.88c-52.14,4.35-102,4.43-154.89,4.51l-16.82,0,4.27,16.27c45.27,173.1,97.93,377.72,145.17,582.89l4,17.22,172-100.37,8.76-5.11-35.59-122.69C2180,2574.26,2173.24,2551.1,2166.38,2527.64Zm-107.54,257.18c-44.83-193.48-94.09-385.42-137.13-550.17,43.7-.11,85.77-.52,129.72-3.75,29.42,96.78,60.19,202.06,90,304l1.21,4.13c6.45,22.06,12.81,43.83,19,65.13l29.93,103.17Z"/>
    <path d="M1833.41,2226.47l-11.23.77c-60.71,4.22-119.2,4.61-183.9,4.67h-15.53l2.74,15.29c31.55,175.89,72.27,407.4,107.51,638.32l2.43,16,214.14-82.1,10.4-4-124.18-577.95Zm-77.15,639.19c-33.72-219.44-72-438-102.44-607.77,55.14-.12,106.2-.69,158.91-4l117.14,545.18Z"/>
    <path d="M858.75,2199.54l-16.11-1.37c-27.34-2.33-53.19-5.69-79-10.27l-10.22-1.81-4,9.58c-60.05,142.81-122,284.1-184.12,419.92l-4.69,10.26,138.57,88.71,5-16.34C740.84,2579.27,816.44,2335.39,854,2215ZM593.58,2616.13c59.28-129.89,118.37-264.66,175.74-400.87,18.11,3,36.29,5.41,55,7.31-36.91,118.56-103.42,333.1-140,451.66Z"/>
    <path d="M928.56,2198.81l-11.81-2.32-3.22,11.6c-57.18,205.63-159,551.15-160.07,554.62l-3.34,11.3,216.28,77.87,16.05,5.78,1.32-17,4.35-55.22c14.36-182.31,29.21-370.83,49.8-555.6l1.43-12.71-12.71-1.63C995.33,2211.52,965.9,2206.17,928.56,2198.81Zm33,592.22q-1.2,15.31-2.41,30.62L782,2757.86c17.71-60.16,101.75-346.27,153.36-531.23,27.62,5.36,51.21,9.58,75.33,13-19.9,181.08-34.42,365.38-48.47,543.81Z"/>
    <path d="M1289.23,2753.53c-1.68-46-3.55-92.49-5.53-141.68l0-1.26c-4.9-121.55-10-247.23-11.88-362.69l-.2-11.64-11.6-1.08c-48.2-4.45-94-11.84-144.47-20.33l-14.59-2.44-.56,14.78c-9.88,266.95-19.48,470.48-31.14,659.92l-.81,13.12L1296,2911.8l-1.63-36.29C1292.58,2835.53,1290.71,2794.18,1289.23,2753.53ZM1246,2259.94c2,112.43,6.94,233.89,11.68,351.47v.23c2,49.55,3.88,96.36,5.58,142.84,1.48,40.75,3.35,82.15,5.16,122.21l.34,7.69L1096,2875.6c11.11-182.51,20.36-378.85,29.83-632.66C1167.14,2249.81,1205.73,2255.82,1246,2259.94Z"/>
    <path d="M827.39,1177.45c24.54,25.17,55.37,46.45,91.73,63.33,3.35,28.92,11.83,98.07,21.21,143.91l2.33,11.36,11.56-1,38.1-3.4,1.09-.1c162.36-14.53,330.26-29.56,494.93-30.58,160.41.9,324,15.39,482.21,29.41l48.35,4.27,12.34,1.08,1.67-12.26c1.51-11,2.87-20.8,4.11-29.72,6.81-49.27,9.86-71.26,13.95-109.84,58.51-28.73,102.88-65.62,132-109.74,30.24-45.89,45.15-101.39,44.31-165-1.44-109.33-48.25-231.38-89.55-339.05-12.44-32.46-24.22-63.15-34.62-92.88-8.36-176.27-.87-330,22.91-469.95l2.38-14.08-129.11-9.57-1.72,12c-24.85,172.83-37,335.71-36.08,484.27-73.15,51.46-154.63,112.89-210,192.35-82.93,63.72-165.55,121.87-263,136.1-98-14.12-180.56-72.44-263.32-136.35C1170.42,653.31,1091.84,593.88,1015.3,540c1-150-10.83-308.47-36.06-484.27l-1.73-12-129,9.56,2.24,14c22.85,141.85,31,281.6,24.3,415.35-.41,3.91-.49,11-.59,22.95-.1,12.29-.34,40.72-2.09,47.3l-.27.59C836.45,631.62,796.79,724.07,773,816.7c-13.12,51.1-20.35,98.55-21.49,141-1.33,49.2,5.42,93.63,20.06,132A254.4,254.4,0,0,0,827.39,1177.45Zm68.1-612.68c3.91-7.23,4.66-21.29,5-59.14.07-8.41.15-17.93.46-20.41l.08-.94c6.63-131.29-.9-268.23-22.38-407.22l76.58-5.67c24.24,172.35,35.37,327.89,34,475.12l-.08,6.86,5.6,3.93c76.93,54,156.51,113.28,210,191.15l.55.8,1.45,1.53.77.59c86.7,67,173.29,128.41,279.14,143l1.78.22,1.72-.24c49.06-6.87,98-24.43,149.69-53.67,46-26,88.95-58.27,129-89.05l.78-.6,1.45-1.53.54-.79C1826,670,1908.7,608.66,1982,557.3l5.57-3.92,0-6.83c-1.28-145.65,10.17-305.46,34-475.17L2098,77.05c-22.33,138.51-29.14,290.27-20.82,463.34l0,.9.38,1.9.29.85c10.67,30.62,22.72,62,35.48,95.3l0,.11c40.52,105.64,86.44,225.39,87.82,330.08,1.54,116.86-53.41,200-168,254l-6.61,3.12-.76,7.28c-4.45,42.79-7.42,64.26-14.61,116.2l-.25,1.8c-.68,4.93-1.4,10.14-2.16,15.67l-36-3.18c-158.75-14.07-322.9-28.61-484.41-29.51h-.14c-165.79,1-334.25,16.1-497.19,30.68l-27.51,2.46c-9.17-49-17.12-116.78-19.47-137.56l-.83-7.44-6.84-3c-69.7-30.72-117-77.67-140.56-139.54-25.62-67.26-24.86-151.45,2.32-257.38C821.41,732.73,860.38,641.83,895.49,564.77Z"/>
    <path d="M2004,2147.48c59.58-6.45,121.18-13.11,181.68-18.85l16.39-1.55-35.87-105.4-3.55-10.36-10.82,1.74c-435.75,70-882.21,70-1327,0l-10.81-1.7L780,2111.5l-5.2,15.33,16.1,1.77c191.28,20.92,351.87,37.28,513.81,49.09,56.76,4.89,114.91,7.26,177.77,7.26C1657.88,2185,1833.85,2165.9,2004,2147.48Zm-1194.19-43,21.82-64.11a4326.16,4326.16,0,0,0,660.11,51.16h.09a4199.17,4199.17,0,0,0,653.29-51.11l21.73,63.86c-55.4,5.39-111.37,11.45-165.7,17.33C1831.7,2140,1656.46,2159,1482.47,2159c-62.14,0-119.59-2.34-175.61-7.17h-.18C1149.57,2140.31,993.77,2124.56,809.83,2104.51Z"/>
  </g>
</svg>
