<svg xmlns="http://www.w3.org/2000/svg" viewBox="0 0 2994.91 3000">
  <title>114Icon_neon 1</title>
  <g>
    <path d="M863.92,484.49c38.42,21.36,82.46,37.75,124.29,52.71,64,22.88,140.36,40.81,227,53.3,83,12,171.55,18.42,263.26,19.2,6.28.06,12.62.08,18.85.08,84.75,0,167.63-4.92,246.33-14.61,87.8-10.82,166.12-27.09,232.8-48.35,44.59-14.22,100.08-31.92,147.36-56.4,54.67-28.32,89.89-61.25,107.68-100.68,9.55-21.16,12.59-42.34,9-62.95-3.53-20.37-13.54-40.22-29.76-59-25.64-29.68-62.6-52.19-92-68.49-78.31-43.49-178.35-75.65-297.33-95.6-107.83-18.07-232.12-26.31-369.37-24.48h-.37L1254.31,93.47l-.62,0-.61.1c-70,12.07-149.27,25.74-220,44.87-77.78,21-136.88,46-186,78.73C804.69,245.45,776.3,275,762.73,305c-14.38,31.85-12.31,63.47,6.15,94C788.89,432.11,820,460.06,863.92,484.49Zm-72.06-179c13.31-22.28,36.74-44.69,69.66-66.6,104-69.2,252-94.8,395.32-119.51l196-14.14c12.64-.16,25.1-.25,37.48-.25,268.81,0,475.91,39.35,615.88,117.07,27.46,15.26,61.93,36.17,84.89,62.76,26.2,30.32,31.67,61.15,16.72,94.26-15.29,33.89-46.67,62.76-95.93,88.28-45.32,23.47-99.65,40.8-143.31,54.72-125.44,40-292.76,62-471.15,62-191.29,0-373.71-26-500.49-71.35-90-32.2-167.63-64-205.84-127.16C775.18,359.21,775.42,333,791.86,305.46Z"/>
    <path d="M2321.26,2158.48c-7.89-13.32-20.85-21.94-36.59-24.67l.7-573.44c26.52-12.41,34.06-37.09,32.08-55.79-2.2-20.77-14.82-37.51-32.08-44L2285,889.52a55.61,55.61,0,0,0,26.33-18,60.3,60.3,0,0,0,13.7-37c.14-18.92-10.51-41.76-40.06-49.09l-.3-231.36-1,.38,0-31-18.91,38.78a14.6,14.6,0,0,0-4.69,6.5c-5.11,12.16-15.53,25.11-30.89,38.45-30,25.72-94.71,65.42-232.4,108.46-275.8,86.22-736.86,81.4-1027.78-10.74-150.65-47.71-218.16-93.55-230.16-102.26l-20.4-14.77-1.85,198.09c-36.23,9.83-46.61,36.24-44,57.24,2.6,21.38,19.37,43.42,44,48l1.64,563.12c-16.65,2.66-30.29,11.5-38.45,25.28a56,56,0,0,0,.12,56.39c8.21,13.78,21.82,22.6,38.37,25.22l.3,569.88c-24.4,8.14-34.06,29.45-34.71,46.85-.8,21.07,10.87,45.23,34.65,55.31-.23,23.09-1,50.28-1.87,78.87-1.92,65.46-4.09,139.66-1.11,205.27,3.61,79.19,13.83,128.08,32.17,153.86,53.53,75.21,146,111,227.52,142.61,67.14,26,147.6,46.14,239.14,59.82,87,13,180.11,19.66,276.83,19.8h3c193.44,0,381.88-27,517-74.09,91.41-31.84,185.12-68.94,238.59-140.74,20.62-27.7,32.8-78.18,37.24-154.33,3.75-64.42,1.6-137.94-.29-202.8-.84-28.94-1.65-56.49-1.88-81.08,15.66-2.77,28.58-11.42,36.48-24.76C2331.34,2198.55,2331.37,2175.56,2321.26,2158.48Zm-49.2,56.9-13.43-.42,0,13.43c0,27.87,1,59.94,2,93.9,1.88,64.28,4,137.13.34,200.36-4.06,70-14.88,117.28-32.16,140.48-49.06,65.9-138.69,101.2-226.28,131.72C1866.9,2842.1,1687,2868.13,1496,2868.13c-196.3,0-382.73-28.62-511.49-78.5-78.15-30.28-166.72-64.59-215.72-133.45-34.88-49-29.69-226.09-26.26-343.29,1-32.77,1.87-63.71,2-89l0-10.47-10.22-2.26c-16.77-3.7-25-19-24.54-32.2.24-6.45,3-21.76,23.58-24.7l11.16-1.6L744.13,1549v-13.51l-13.49.52c-9.18.35-21.62-1.68-28.54-13.3a29.62,29.62,0,0,1-.08-29.85c6.87-11.61,19.37-13.66,28.67-13.33l13.48.45-1.76-601.09,0-14.1L728.31,866c-16.44,1.4-28.39-12.38-30-26-1.94-15.87,10.16-27.07,33.18-30.72l10.86-1.72,1.6-170.51c32.8,20,100.93,55.78,217.16,92.59,69.51,22,150.76,39.57,241.48,52.16,88.69,12.31,181.91,19.28,277.1,20.73,200.54,3,386.93-19,524.81-62.12,142.42-44.52,210.1-86.43,241.79-113.74,4.8-4.14,8.91-7.93,12.46-11.44l.24,181.19,0,11.81,11.77,1.11c25.65,2.4,28.3,18.25,28.25,25-.11,14.22-11.41,30.3-28,31.6l-12,.94.44,603.95v11.86l11.79,1.09c10.66,1,19.06,10.67,20.42,23.56.59,5.57.67,24.32-23.1,31.76l-9.1,2.85-.74,604,0,13.43,13.45-.42c8.62-.28,20.23,1.72,26.8,12.82,5.34,9,5.31,21.65-.06,30.73C2292.2,2213.64,2280.62,2215.65,2272.06,2215.38Z"/>
  </g>
</svg>
