<svg xmlns="http://www.w3.org/2000/svg" viewBox="0 0 2994.91 3000">
  <title>54Icon_neon 1</title>
  <g>
    <path d="M2155.6,1144.36l.17,0,3.69.85,150.14,46.3,7.66-24.84-137-42.25,3.37-8.24c6.06-14.81,10.89-27.12,15.21-38.72,6-16.2,9.95-28,12.76-38.37l.27-1c.29-1.11.63-2.36.89-3.59.35-1.43.62-2.75.83-3.94s.39-2.28.57-3.67c.06-.47.12-1,.18-1.37l.65-4.81c.84-5.48,1.33-10.93,1.81-16.26.12-1.24.23-2.49.35-3.74v-.22c1.1-14.34,1.49-27.57,1.21-40.46-.34-24.89-2.84-51.49-7.66-81.38-2.13-12.83-4.65-26.12-7.72-40.71l-4.45-20.32-2.32-10.25-2.31-9-.11-.39c-7.78-26.6-20-54.44-29.82-75.76-11.41-24.54-24.05-49.5-37.57-74.18l-10.11-18-5.26-9-2.58-4.35-2.5-4-.12-.18c-7.33-11.25-16.1-23.09-23.73-33.2-12.59-16.65-25.49-32.89-36.68-46.85l-15.17-93.08-38.93-232.19-27-170.82-25.69,4,27,170.89,38.95,232.31L2019.83,537c-6.2,20.31-11.16,36.2-16,51.16-5.35,16.54-9.65,29.37-13.95,41.6-2.68,7.62-5.2,14.46-7.71,20.94a217.55,217.55,0,0,1-9.36,21.16c-7.52,14.83-15.51,28.09-22.34,39.13-7.23,11.72-15,23.8-23.87,37-16.13,24.22-33,48.4-50.12,71.85-19.85,27.14-36.88,49.25-53.64,69.64-9.19,11.3-18.8,22.28-29.39,33.57-11.27,11.35-21.58,19.32-32.49,27.77l-2.6,2c-24.76,18.88-50,36.13-71.68,50.81-14.65,9.87-30.5,20.32-49.64,32.69l-64.85-3.5-16.3-.22h-4L1538,1078.24l-10.14,9.89,11.89,94.82,21,111.29c.33,1.68,8.13,41.36,13,55.07,7.64,21.36,26.8,59.5,38.19,78,10.45,17,35.25,48.8,49.14,65.21,8.1,9.58,32.94,37.08,33.19,37.35l8.38,9.27,19.29-17.43-8.39-9.27c-5.17-5.72-25.86-28.71-32.62-36.71-13.36-15.78-37.06-46.12-46.83-62-10.45-17-29-54.14-35.86-73.19-2.53-7.08-6.62-25.37-9.45-38.8,8.09,14.4,16.08,23.53,24.16,27.64,4.61,2.35,10.46,3.5,17.86,3.5,13,0,27.61-3.51,34.19-5.59,11.3-3.56,38.16-16.43,49.06-30.06,10.17-12.71,18.41-40.49,18.44-55,0-13.89-8.44-34.28-16.4-52.32l-.3-.67c-6.75-15.32-31.54-55.9-31.77-56.26l-.57-.91-33.73-37.34-37.91-33.58-.24-.18,27.92,1.51,252.17,28.8c2.73.35,5.37.63,7.95.91,4.4.48,9,1,13.58,1.74l.13,0,5.11.79.2,0c5.66.87,11.51,1.76,16.86,2.79l.21,0c13.14,2.28,26.31,4.87,39.09,7.38l4.43.87c59.34,12,117.77,25.14,172.06,37.5Zm-524.21-31.13,31.19,34.52c6.76,11.12,24.66,41.19,29.41,52l.31.69c3.51,8,14.2,32.2,14.18,41.76,0,9.28-6.74,31.34-12.74,38.84-5.4,6.75-25.5,18-36.58,21.5-11.69,3.69-28.37,5.59-32.43,3.72-1-.53-10.75-6.36-26.16-44.87-12.38-30.93-27.94-122.12-35.28-171.46l.69-7.69,5.82-19.15,25.77,18.44Zm348.4-33.76c-12.84-2.53-26.12-5.14-39.52-7.47-5.79-1.1-11.85-2-17.7-2.93h-.1l-5.08-.79c-5.34-.88-10.26-1.42-15-1.93-2.46-.27-5-.54-7.53-.86l-216.91-24.78c8.23-5.42,15.92-10.54,23.32-15.54,22-14.88,47.59-32.38,73-51.73l2.68-2.07c11.64-9,22.63-17.52,35.15-30.14l.24-.25c11.07-11.79,21.13-23.28,30.7-35.05,17-20.72,34.34-43.2,54.5-70.76,17.34-23.76,34.42-48.24,50.75-72.74,9-13.39,17-25.75,24.36-37.76,7.11-11.48,15.46-25.33,23.38-40.95a246.35,246.35,0,0,0,10.46-23.62c2.6-6.7,5.21-13.79,8-21.69,4.38-12.47,8.75-25.49,14.16-42.25,3.1-9.62,6.25-19.6,9.75-30.88,7.46,9.42,15.29,19.47,23,29.69,7.34,9.72,15.76,21.07,22.64,31.63l2.17,3.46,7.53,12.83,9.94,17.68c13.23,24.14,25.6,48.56,36.74,72.53,9.39,20.42,21.1,47,28.4,71.93l2.13,8.27,2.25,10,4.41,20.14c3,14.16,5.43,27.08,7.48,39.45,4.61,28.59,7,54,7.33,77.59v.11c.26,12-.11,24.39-1.13,37.85-.12,1.23-.23,2.47-.34,3.73-.45,4.92-.91,10-1.64,14.74l-.67,5c-.08.53-.16,1.12-.23,1.71s-.14,1.13-.21,1.56l-.16.8c-.08.48-.24,1.32-.55,2.6l-.09.39c-.13.64-.38,1.59-.63,2.53l-.24.91c-2.59,9.54-6.3,20.67-12,36.07-4.21,11.31-8.94,23.37-14.9,37.94l-4.25,10.39-.58-.18-.26.83c-53.73-12.23-111.43-25.15-170.18-37.07Z"/>
    <path d="M1847.79,2273c-25.28,3.21-47.57,5.9-68.11,8.22l-2,.21c-22.61,2.45-44,4.76-67.5,5.95-23.3,1-47.66,2.72-71.22,4.39l-15.31,1.08-6.47.45c-26.46,1.87-53.82,3.8-81.13,5.14-17.16.84-31.34,1.15-44.61,1-14.39-.2-28.18-.82-44.43-1.67-26.48-1.47-53.11-3.35-78.86-5.17l-8.63-.61-43.33-2.94-43.77-2.41c-29.61-2.13-58.49-5.52-86.42-8.81l-1.37-.16c-31.87-3.84-65.7-8.23-109.67-14.23l-26.87-3.67,14,23.25c24.42,40.61,48.14,80.84,70.5,119.55,28,48.43,64.37,112.49,98.29,178.54l0,.1c6,11.45,11.88,23.47,17.56,35.1,1.73,3.55,3.47,7.11,5.21,10.65l21.47,46.7,121.47,264.87,2.43,5.32,5.6,1.72c3.74,1.15,7.71,2.17,11.78,3a241.81,241.81,0,0,0,26.17,4,519,519,0,0,0,54.71,2.46h0a518.37,518.37,0,0,0,54.71-2.49,243.84,243.84,0,0,0,26.14-4c4.13-.89,8.11-1.92,11.81-3.06l5.58-1.71,123.84-270.18,21.47-46.69q2.61-5.31,5.19-10.62c5.67-11.62,11.53-23.63,17.57-35.14l0-.1c34-66.09,70.36-130.12,98.27-178.51,22.4-38.77,46.11-79,70.49-119.5l14-23.23-26.86,3.65C1894.15,2267,1870.67,2270.09,1847.79,2273Zm-8.33,116.56c-28.07,48.65-64.66,113-98.85,179.57-6.2,11.81-12.14,24-17.89,35.78l-5.24,10.71-21.69,47.16-118.9,259.4c-1.37.34-2.77.67-4.2,1a216.56,216.56,0,0,1-23.37,3.59,580,580,0,0,1-104,0,218.61,218.61,0,0,1-23.41-3.59c-1.41-.3-2.8-.63-4.16-1l-119-259.42L1277.25,2616l-.14-.29q-2.64-5.37-5.26-10.74c-5.74-11.77-11.68-23.94-17.87-35.73-34.18-66.55-70.79-130.94-98.87-179.61-18.15-31.42-37.21-63.87-56.84-96.74,31.63,4.23,58,7.61,83.32,10.66l1.4.17c28.25,3.32,57.47,6.75,87.71,8.93l43.84,2.4,43.21,2.93,8.46.6c25.89,1.83,52.66,3.73,79.43,5.21,16.59.87,30.67,1.5,45.48,1.71,13.83.18,28.52-.15,46.23-1,27.61-1.36,55.12-3.3,81.77-5.18l6.37-.45c4.57-.31,9.14-.64,13.71-1l1.63-.11c23.38-1.66,47.55-3.37,70.59-4.36,24.4-1.23,46.11-3.58,69.09-6.07l2-.22c20.69-2.34,43.11-5,68.55-8.27,14.72-1.89,29.66-3.85,45.19-5.93C1876.68,2325.7,1857.63,2358.13,1839.46,2389.59Z"/>
    <path d="M1353.77,1063.19l56.63,2.54c-21.65,20.21-53.88,50.79-66.84,65.6-3.12,3.56-7.17,8-11.46,12.6-22.44,24.3-50.37,54.55-55.12,79.69-1.68,8.93.57,31.12,6.42,40.55,15.82,25.51,67.74,54.42,69.95,55.64,21.27,11.76,39.75,18,58.17,19.63.07,0,7.21.61,15.16.61,9.32,0,15.94-.78,20.77-2.55,2.71,12.77,5.75,26.78,7.51,34,.87,3.56,1.87,7.74,3,12.33,5.59,23.59,13.26,55.9,20.62,73.55,8.55,20.52,30.82,56.67,48,83.38,8.4,13.06,33.18,51,36,55.27l6.9,10.55,21.78-14.22-6.86-10.47c-.24-.37-27.19-41.62-35.92-55.19-30.09-46.8-41.55-69-45.87-79.33-6.55-15.7-13.93-46.82-19.33-69.55-1.1-4.64-2.11-8.88-3-12.49-3-12.06-9.9-45.32-12.24-56.55,6.89-20,9.11-43,9.43-46.67,3.55-40.54,6.7-160,6.83-165.06l.15-5.77-4.16-4c-4.59-4.41-10.19-10-11.61-11.79-3.16-3.93-10.87-16.13-15.48-23.62l.47-10.27-6.9-.31-3.54-5.81-5.9,5.39-79.85-3.57c-19.72-12.69-36-23.36-51-33.42-21.84-14.73-47.21-32-71.78-50.65l-2-1.56c-11.14-8.57-21.67-16.66-33.21-28.18-10.66-11.29-20.31-22.28-29.56-33.64-16.36-19.84-32.93-41.3-53.72-69.57-18.09-24.68-34.54-48.17-50.3-71.81-9.07-13.57-16.85-25.67-23.83-37-6.75-10.9-14.67-24.08-22.34-39.19a220.05,220.05,0,0,1-9.35-21.17c-2.46-6.35-4.91-13-7.7-21-4.29-12.25-8.57-25.1-13.89-41.65-4.79-14.94-9.75-30.91-16-51.45l13.12-82.39,25-158.23,37.54-220,6.55-39.8-25.65-4.22-6.54,39.72-37.55,220-25,158.46-13.05,81.92c-11.18,13.94-24.06,30.16-36.63,46.79-7.61,10.08-16.38,21.91-23.74,33.2l-2.46,3.92-7.88,13.41-10.15,18.06-.07.11c-13.53,24.71-26.17,49.66-37.59,74.22-9.79,21.28-22,49.11-29.8,75.73L796.48,807l-2.42,10.68L789.62,838c-3.06,14.48-5.58,27.76-7.72,40.68-4.81,29.84-7.31,56.45-7.65,81.33-.28,12.88.11,26.12,1.2,40.46l0,.23c.12,1.26.24,2.53.35,3.79.48,5.26,1,10.69,1.81,16.18l.63,4.7,0,.14c.05.36.11.76.16,1.17l0,.15c.17,1.36.33,2.56.57,3.67s.48,2.53.83,3.94c.26,1.24.59,2.49.88,3.6l.28,1.06c2.82,10.36,6.75,22.2,12.76,38.37,4.28,11.51,9.11,23.82,15.21,38.72l3.29,8-142,41.13,7.22,25,155.61-45.06,19.78-4.57c61.94-14,122.62-27.59,183.84-39.44,12.58-2.38,29.28-5.44,47-8Zm83.78,12.78c3.87,6.07,8.11,12.49,10.79,15.83,2.05,2.54,6.28,6.83,9.75,10.25-.67,24.56-3.5,122.59-6.58,157.79a194.41,194.41,0,0,1-7,37.38l-5.19,1.07,1.74,8.45a32.56,32.56,0,0,1-3.75,6.7c-4.27.77-15,.85-23.47.1-14.66-1.3-29.87-6.54-47.86-16.49-23.55-13-52.53-34-60.38-46.5-1.83-3.57-3.8-18-3-22.11,3.36-17.81,30.63-47.34,48.67-66.87,4.4-4.77,8.56-9.27,11.92-13.12C1376,1133.76,1412,1099.63,1437.55,1076Zm-357.36-8.46c-18.32,2.67-35.46,5.8-48.4,8.25-61.64,11.93-122.54,25.55-184.75,39.64l-8.67,2-.19-.64-.79.23-4.34-10.61c-6-14.63-10.71-26.69-14.89-37.94-5.73-15.41-9.44-26.54-12-36l-.27-1c-.24-.89-.48-1.81-.61-2.43l-.1-.43c-.24-1-.43-1.89-.56-2.65l-.14-.76c-.07-.43-.14-1-.21-1.57l0-.16c-.06-.52-.13-1-.2-1.5l-.64-4.75,0-.26c-.73-4.73-1.19-9.78-1.63-14.68-.12-1.26-.23-2.52-.35-3.78-1-13.46-1.39-25.84-1.13-37.85v-.11c.31-23.61,2.71-49,7.31-77.54,2.07-12.49,4.52-25.41,7.47-39.41l4.41-20.14,2.27-10,2.13-8.27c7.3-24.92,19-51.53,28.38-71.9,11.14-24,23.51-48.4,36.76-72.58l9.94-17.69,5-8.59,2.49-4.19,2.19-3.5c6.9-10.58,15.31-21.92,22.63-31.62,7.72-10.2,15.53-20.22,23-29.62,3.5,11.37,6.66,21.42,9.76,31.09,5.39,16.78,9.74,29.82,14.12,42.31,2.88,8.2,5.41,15.11,8,21.68a244.92,244.92,0,0,0,10.46,23.65c8.08,15.93,16.36,29.69,23.36,41,7.13,11.61,15.09,24,24.34,37.84,16,23.95,32.64,47.74,51,72.76,21.1,28.69,38,50.5,54.56,70.65,9.65,11.86,19.76,23.36,30.91,35.17l.25.25c12.8,12.79,24,21.42,35.89,30.55l2.09,1.6c25.18,19.11,50.89,36.63,73,51.56,7.54,5.06,15.38,10.26,23.81,15.79l-188.39,21-46.73,5.21Z"/>
    <path d="M1497.58,1064.14h.41a13.94,13.94,0,0,0,9.85-4.05A14.13,14.13,0,0,0,1512,1050v-.36a14,14,0,0,0-14-13.6l-.62,0a14,14,0,0,0-13.41,13.61v.31A14,14,0,0,0,1497.58,1064.14Z"/>
    <path d="M2277.24,2200.56a16,16,0,1,0,16-16A16,16,0,0,0,2277.24,2200.56Z"/>
    <path d="M705.38,2188a17.87,17.87,0,1,0,17.87,17.87A17.89,17.89,0,0,0,705.38,2188Z"/>
    <polygon points="745.12 2195.4 739.79 2220.85 851.11 2244.25 973.68 2267.46 978.51 2241.91 856.33 2218.78 745.12 2195.4"/>
    <path d="M2259.28,2219.89l-6-25.3-12.17,2.88c-.77.18-78.5,18.55-101.62,22.81-28,5.18-106.61,17.55-107.39,17.68l-12.36,1.94,4.06,25.69,12.47-2c8.2-1.29,80.84-12.77,107.94-17.77,24.09-4.44,102.12-22.89,102.9-23.08Z"/>
    <path d="M2431.17,2320.6c-7.4-12.35-24.47-27.35-38.2-39.42-2.51-2.21-4.81-4.22-6.72-5.95-13-11.74-53-43.36-53.4-43.66l-6.48-5.14-24.46,12.23-12.08,3.57-26.64-6.15-3.91,10.88c-.2.55-20.12,56.07-27.25,74.17-3.58,9.06-9.31,21.51-15.37,34.69-11,23.82-23.39,50.81-28.21,68.95-.53,2-1.36,4.68-2.24,7.52-5.53,17.91-13.11,42.44-1.19,55.9,4.06,4.59,10.34,6.91,18.64,6.91a68.34,68.34,0,0,0,19.49-3.18c13.58-4.47,36.78-21.5,46-33.76,7.38-9.83,12.52-26.67,18-46.06.78-2.75,1.49-5.26,2.12-7.37,1.12-3.73,2.5-8.74,3.87-14.1.27,2.34.48,4.49.62,6.43,1.45,20.32,2.12,47.86.13,60.29-1.25,7.74-6.71,22.52-10.7,33.31-2,5.49-3.94,10.67-5.28,14.77-4.64,14.19-18.65,57.47-18.75,57.76l-3.83,11.89,24.71,8,4.31-13.25c9.08-28.06,15.58-48.06,18.27-56.32,1.18-3.62,3-8.58,5-13.84,4.84-13.1,10.33-27.95,12-38.2,1.21-7.57,1.59-18,1.57-28.32,2.17,24.16,4.84,56.5,6.54,77.29,0,.4.06.74.08,1l-6.74,76.06,25.9,2.28,6.93-78.24-.09-1.05c-.06-.78-6.31-78.37-9.07-104.21-1.45-13.6-4.31-37.44-6.82-56,8.29,12.61,20.85,30,32,38.17,6.93,5.13,22.19,12.23,32.79,12.23.56,0,1.1,0,1.64-.05,8.42-.57,20.15-7.41,25.41-13.19,6-6.65,12-20.77,12.42-29.63C2442.65,2346.54,2436,2328.64,2431.17,2320.6ZM2273,2361c-1.19,8.66-5.82,27-8.61,36.28-.67,2.22-1.42,4.87-2.24,7.77-3,10.75-8.71,30.76-13.79,37.53-6.12,8.17-24.48,21.76-33.29,24.66a43.74,43.74,0,0,1-10.5,1.84c-.19-7.36,4.75-23.36,6.52-29.1l0-.13c1-3.19,1.84-5.94,2.48-8.38,4.25-16,16.18-41.89,26.72-64.79,6.22-13.52,12.09-26.28,15.92-36,4.58-11.6,14.22-38.05,20.76-56.12C2276.42,2304.88,2275.17,2344.89,2273,2361Zm137.45,9a27.18,27.18,0,0,1-8.12,4.74c-3.29-.21-12.67-3.91-17-7.14-8.91-6.58-24.15-28-34-44.78-6.68-11.43-19.48-43-28.25-65.65l.14-.07c15.35,12.21,37.43,30,45.63,37.43,2,1.79,4.37,3.89,7,6.19,11.05,9.71,27.74,24.39,33.07,33.26,3.39,5.66,7.44,18.3,7.22,22.54C2415.91,2359.4,2412.34,2367.85,2410.41,2370Z"/>
    <path d="M708,2247.33l-.17-5.35-10.22,3.1h0l-11.44-2.47-2.77-.49-8.3-2.79-.41,1.24-5.95-1.05h-.05l-12-2.12-1.19,6.74c-2.93,2.27-6.35,5.38-10.72,9.48-7.07,6.63-16.73,16.1-32.32,31.68l-.16.17c-3.79,3.77-6.77,6.76-8.2,8.13-15.19,14.67-36.47,47.53-46.32,64.81-22.24,39-22.48,53.06-22.56,57.67-.21,12.12,7.32,32.53,15.18,41.22,7.42,8.2,25.24,17.72,37.08,17.72h.81a32.76,32.76,0,0,0,11.34-2.86c-.51,9-.81,18.15-1,25l-.21,6.06c-.79,23.48-2.26,67.16.18,89.69,1.51,13.93,11,51.17,12.1,55.37l1-.25h0l-1,.25,3.11,12.12,25.18-6.49-3.11-12.1c-2.8-10.87-10.31-41.36-11.43-51.7-.88-8.13-1.2-19.62-1.21-32l1.39.44c.13.39.26.77.4,1.16,4.37,12.56,9.8,28.2,11.22,36.68,3.31,19.8,7,78,8.19,98.71l.69,12.48,26-1.44-.69-12.48c0-.76-4.28-76.27-8.5-101.55-1.2-7.18-4.14-16.83-7.43-26.71,4.79-1,11.39-4.15,15.08-13.78,11-28.63,14.21-75.36,16.79-112.92v-.18q.29-4.07.55-8c1.16-16.52,7.49-60.52,13.07-99.34,8.22-57.14,9.72-69,9.36-74l2-9.2Zm-85.58,397.93.15,0,.16,0Zm1.7-263.1c-1,3-2.09,6.6-3.27,10.46l-.59,1.93L617,2405c-4.34,13.46-9.92,28.8-15.34,35-2.79,3.2-11.1,8.39-14.35,9-3.64-.26-14.43-5.57-17.67-9.16-3.5-3.86-8.56-17.81-8.46-23.33,0-2.81,1.57-14.38,19.15-45.24,9.52-16.71,29.39-47,41.79-59,1.63-1.57,4.74-4.68,8.7-8.64q12.57-12.55,21.44-21.22c-.8,4.44-1.62,8.77-2.31,12.39-2.78,14.64-5.19,27.39-5.56,35.71l-2,5.84,1,.32c-2.24,7.39-7.83,19.43-11.16,26.6C628.73,2370.81,625.72,2377.29,624.12,2382.16Zm36.76,46.61q-.27,3.95-.55,8v.2c-2.34,34.07-5.23,76.07-13.77,101.6l-1.4-.52-.16,0c-.46-1.43-.89-2.76-1.24-4-1.52-5-3.78-11.16-6.18-17.65-4.75-12.9-11.22-30.45-11.47-39.79,1.54-12.12,16.31-60.67,36.53-115.7,3.91-10.64,7.52-20.17,10.85-28.69C668,2370.29,662.06,2412,660.88,2428.77Z"/>
  </g>
</svg>
