<svg xmlns="http://www.w3.org/2000/svg" viewBox="0 0 2994.91 3000">
  <title>150Icon_neon 1</title>
  <path d="M2190,1950.62c-41-140.93-103-247.81-168.53-361-9.88-17.05-20.1-34.68-30.26-52.49-91.27-159.86-174.11-342.53-268.59-592.29-63-166.68-110.41-353.72-153.49-530.94q-31.44-132.82-62.87-265.63l-12.07-51-85,327.77c-16.25,55.62-32,112.35-47.32,167.21-42.53,152.75-86.51,310.7-143.43,455.13C1149.6,1222.08,1070,1398,975.14,1585.22c-13.62,26.88-27.8,53.44-41.52,79.14-57.23,107.19-111.29,208.45-138,347.76-18.23,95-19.55,189.29-3.92,280.15a757.33,757.33,0,0,0,83.36,236.87,828.24,828.24,0,0,0,140.7,186.59c51.53,51.5,108.22,95.26,168.5,130.08,41.8,24.14,98.21,47.53,150.9,62.58,50.94,14.54,99,21.91,142.94,21.91a334.39,334.39,0,0,0,48.16-3.33c100.54-14.7,177.77-27.8,256.17-62.57,64.85-28.77,130.47-75,189.78-133.8,61.17-60.61,115-134.06,155.61-212.4,44.53-85.88,73.16-176,85.09-267.88A729.37,729.37,0,0,0,2190,1950.62ZM1434.26,431.93,1493,205.32,1543.82,420c43.29,178.07,90.87,366,154.45,534.07,95,251.08,178.36,434.89,270.33,596,10.19,17.84,20.43,35.52,30.34,52.62,64.75,111.75,125.91,217.3,166.07,355.2,52,178.44,30.56,373.18-60.27,548.34-78.76,151.87-203.19,276.88-332.86,334.4-75.37,33.44-150.91,46.21-249.39,60.62a309.31,309.31,0,0,1-44.53,3.09c-110.82,0-228.58-51-280.7-81.05C976.85,2696,746.09,2408.41,821.15,2017c26-135.44,79.14-235,135.41-340.42,13.78-25.8,28-52.49,41.78-79.62,95.24-187.93,175.15-364.59,244.29-540.07C1300,911.21,1344.2,752.6,1386.91,599.21c15.28-54.84,31.07-111.55,47.29-167.09Z"/>
</svg>
