<svg xmlns="http://www.w3.org/2000/svg" viewBox="0 0 2994.91 3000">
  <title>28Icon_neon 1</title>
  <g>
    <path d="M2404.58,691.89l-.14-.71-.22-.7c-4.6-14.23-8.6-32.79-12.84-52.46-13.88-64.45-31.16-144.66-88.53-164.73l-.54-.17c-35.63-10.67-71.43-6.49-106.06-2.44-18.47,2.16-37.56,4.39-55.88,4.13h-.53l-.53,0c-35.26,2.47-69.21,12-102.06,21.14-17.61,4.93-35.83,10-53.79,13.86l-.82.21c-56.8,16.26-106.11,6.44-146.58-29.18-32.84-28.92-61.14-74.78-86.54-140.27-6-15.31-13.19-30.24-20.1-44.68-11.6-24.25-23.59-49.33-29.75-75.4l-.11-.41c-2.06-7.57-3.85-15.56-5.59-23.29-4.93-22-10-44.67-22.38-65.31l-.21-.33C1652,101,1613.06,86.78,1552.25,87.8c-48.69.81-103.08,11.2-146.78,19.55-20.21,3.86-37.66,7.2-51.35,9l-.59.09c-112,20.29-208.31,52.31-294.28,97.89C966.93,263.28,887.88,327,817.58,409.06c-95.31,98.7-172.06,208.11-228.11,325.18-59.38,124-93.72,253.29-102.06,384.12-13.5,119.15-20.56,224.22-21.56,321.21-1.2,115.4,6,220.63,21.88,321.7,21.54,196.73,54.13,349,102.58,479.22,30.14,81,67.1,154.24,109.88,217.65,47.43,70.32,103.8,131.29,167.52,181.19,64.25,50.44,191.34,123.75,309,178.29,76.32,35.35,218,94.67,309.29,94.67a177.87,177.87,0,0,0,23.09-1.41c210.74-15.65,412.71-105,584.1-258.36,79.72-71.34,150.77-154.7,211.18-247.76a1289.11,1289.11,0,0,0,141.47-293.09c62.17-159.62,64.13-331.91,66-498.53l.11-9.32C2519.51,1298.14,2465.48,998,2404.58,691.89ZM837.07,426.28C968.21,273,1133.69,182.71,1357.85,142.08c14.34-1.9,32-5.28,52.51-9.19,44.47-8.5,99.81-19.07,147.76-19.07,47.15,0,77.85,10.51,91.27,31.23,10.13,17,14.75,37.56,19.21,57.46,1.78,7.93,3.62,16.14,5.82,24.22,6.81,28.69,19.38,55,31.55,80.41,6.71,14,13.65,28.54,19.34,42.93,26.91,69.41,57.52,118.58,93.57,150.31,22.61,19.9,47.73,33.12,74.66,39.29,29.41,6.74,61.64,5.22,95.81-4.5,18.57-4,37-9.15,54.9-14.15,31.43-8.78,63.91-17.86,96.32-20.21,19.76.25,39.5-2.06,58.6-4.29l.11,0c31.9-3.73,64.89-7.58,95.27,1.43,43.38,15.44,58.92,87.57,71.42,145.56,4.31,20,8.38,38.92,13.27,54.23,60.53,304.4,114.22,602.75,106.8,905.55l-.11,9.58c-1.88,164.39-3.82,334.38-64.39,489.69l-.21.58C2299.6,2467.66,1969.62,2850.8,1506.84,2885l-.74.08a152,152,0,0,1-20,1.23h0c-86.32,0-224-57.81-298.35-92.27-116.1-53.78-241.08-125.81-303.94-175.15-267.61-209.59-338.42-570.09-370.21-860.75l-.07-.59c-29.12-184.63-29.18-381-.19-636.57l.06-.62c15.72-247.77,130.51-494.06,323.22-693.5Z"/>
    <path d="M1889.77,1613.06l47.49-32.19,18-38.91-25.79-53.54-2.37-4.94-51.6-17.45-46.8,25.11-14.25,48.79-1.65,5.59,30.19,48.65Zm18.61-108.46,18.11,37.59-9.8,21.22-30,20.35-26.08-10.52L1841,1541.69l9.58-32.8,27.25-14.62Z"/>
    <path d="M960.86,1627.75l4.85.87,35.48-21.68,4.43-2.73,10.25-38.73-12.07-53.29-43.66-17-5-1.94L907,1514.55l-6,2.67-11.24,51.55-1.19,5.43,31.06,46.22Zm-25.87-31-18.71-27.84,7.25-33.25,32.24-14.25,25.73,10,7.6,33.58-6,22.49-22.58,13.8Z"/>
  </g>
</svg>
