<svg xmlns="http://www.w3.org/2000/svg" viewBox="0 0 2994.91 3000">
  <title>144Icon_neon 1</title>
  <g>
    <path d="M1387.47,1226.85l-21.83-11.53L861.48,949l-5.11-2.7-5.44,2L131.34,1212l-5.3,1.94-9.75,23.1,736.92,265.69,5.38,1.94,5.08-2.66,501.94-263.67Zm-55.8-.06-475,249.53L165.53,1227.15,854.45,974.71Z"/>
    <path d="M1494.47,1166.57l8.86,4.91,315.84-336.81,13.3-14.19-345-130.33-4.61,1.76L1013,871.29l-3.24,1.24L995.57,890l13.6,7.54Zm292.44-335.51-288.69,307.86-13.41-7.43L1044.22,887.22,1487.56,718Z"/>
    <path d="M1712.53,1067,2021.2,908.53l7.07-3.62v-19l-132.2-49.72L1645,1101.67Zm273-169.4-217.35,111.58,134.86-142.61Z"/>
    <path d="M2501.22,1741.25c-14.26-55.32-30-112-43.11-155.51-23.57-78-30.2-85.58-33-88.78l-5.94-6.77-53,20,0,9c-.15,43.15,23,165.1,45.93,266.81,11.1,49.14,49.12,211.87,72.49,243l5.27,7,8.48-2.27c6.83-1.83,23.13-6.24,27.13-7.81,12.1-4.73,13.38-5.52,22.65-14.12l3.57-3.31.81-4.17c1.65-8.51,2.07-28.39-13.29-102.56C2530.08,1858,2516.61,1801,2501.22,1741.25Zm-.15,264.8c-14.27-29-39-116.2-63.76-226.09-24.75-109.65-42.55-209.89-44.93-251.88l16.86-6.36c10.3,24.66,34.74,101.61,66.8,226,15.25,59.14,28.59,115.56,37.57,158.86,12.06,58.14,13.85,80.51,13.64,89a26.32,26.32,0,0,1-3.24,2.63,63.75,63.75,0,0,1-8.12,3.48C2514.53,2002.26,2508.7,2004,2501.07,2006.05Z"/>
    <path d="M2869.49,1212.19l-728.94-263.9-5.44-2-495.53,263.94-15.29,8.15,12.11,12.41c19.19,19.64,166.45,100.24,260.75,149.63,61.35,32.12,119.5,61.23,163.73,82,73.89,34.61,93.65,39,102.61,39a21,21,0,0,0,4.23-.4l1-.2,709.35-264.72V1215.3ZM2072.08,1439c-43.91-20.6-101.75-49.56-162.87-81.57-115.56-60.51-204.28-111-239.23-133.88l467.15-248.82q346.92,125.58,693.92,251.22l-668.57,249.51C2158.31,1475,2140.38,1471,2072.08,1439Z"/>
    <path d="M1023,1548.32l-6.57,3.74v22l8.31,3.21,478,185.09,4.77,1.84,467.77-187,5.27-2.1,8.21-21.28-483.47-273.47-6.43-3.64Zm30.85,12.32,445.06-254,448.53,253.71-440.1,175.91Z"/>
    <path d="M2096.84,1659.18l-6.92-8-9.25,5.16c-37,20.63-385.64,144.27-568.44,208-44-14.13-399.56-128.27-573.32-187.47l-13.64-4.66L922,1686.28c-16.19,70.61-18,183.36-4.71,294.25,6.55,54.71,16.42,104.57,28.55,144.2,13.89,45.4,30.46,76.79,49.24,93.29,25.41,22.33,65.67,41.05,119.65,55.67,49.24,13.33,109,23.08,177.59,29,49,4.22,101.59,6.36,156.33,6.36,89.1,0,180.9-5.73,265.48-16.58,95.77-12.29,176.48-29.91,239.89-52.37,65.14-23.09,108.63-50.24,129.24-80.71,2.56-3.78,9.36-13.83,18.33-86.49,5.59-45.23,10.26-101.16,13.15-157.51,1.42-27.56,3.64-81.51,2.61-133.22C2115.59,1691.11,2104.79,1668.36,2096.84,1659.18Zm-588.43,231.25,4.17,1.34,4.1-1.43c20.3-7.08,473.76-165.24,564.59-205.51,7.45,23.05,14.77,88.68,7.55,229.22-2.84,55.19-7.39,110-12.81,154.39-8,65.7-14,76-14.25,76.38-17.22,25.46-57.53,50-116.57,70.85-61.62,21.8-140.46,39-234.33,51-136.24,17.48-288,21.16-416.27,10.11-67.06-5.78-125.27-15.26-173-28.19-50.12-13.57-86.89-30.42-109.29-50.1-29.41-25.84-55.9-110.55-69.14-221-11.88-99.22-11.24-203.4,1.33-271.21C1133.1,1770.12,1504.61,1889.21,1508.41,1890.43Z"/>
  </g>
</svg>
