<svg xmlns="http://www.w3.org/2000/svg" viewBox="0 0 2994.91 3000">
  <title>168Icon_neon 1</title>
  <g>
    <path d="M2107,40.19l-2.72-1.36h-7.15l-8.14,0L1939.88,341.55l-2,4,.33,1.64-.31.62.66,1.16.18.87c1.27,6.5,6.16,9.84,18.8,17,7.68,4.37,18.86,10.36,33.22,17.79,24.34,12.6,58.37,29.66,101.17,50.7,75,36.87,154.32,74.87,169.46,82.11l7,3.37,6.28-4.62c3-2.24,7.21-5.31,32.69-53.07,13.79-25.87,31.36-60.27,49.45-96.87,17.36-35.09,34.44-70.72,46.88-97.75,23.05-50.11,23.79-56.59,24.14-59.71l1-9.05Zm292.3,173.88c-7.67,19.67-30.23,69-64.87,138.92-35,70.69-60.68,118.8-71.46,136.36-127.28-61-261.29-127-294.83-146.23L2103.73,67.61Z"/>
    <path d="M1951.58,466.72l-6,10.91C1910.3,542,1837.48,650,1768.48,740.31c-42.61,55.77-84.8,109.4-132.36,152.44-42.94,38.85-89.46,67.7-134.45,95.6-69.34,43-141.05,87.46-204.63,169.86-45.06,58.4-72.64,105-95.06,160.83l-25.46,47.28-40,85.8-77,156.33Q984.41,1761,909.09,1914l-8.77,17.82c-104.6,212.54-212.77,432.3-318.55,646.92l-5.71,11.57,11.53,5.8q114.95,57.74,229.86,115.48l514.14,251.94,78.18-154,146.81-300.41,334-678.44L1945,1724.53l20.46-45.9c41.46-59.35,59-129,71.81-195.55,17.48-74.53,9.69-145.79,1.44-221.25-6.38-58.34-13-118.66-8.35-184.88,4.69-56.83,17.08-122.36,37.88-200.32,26-97.48,99.72-287.87,100.46-289.77l4.32-11.11L1962.73,472.22Zm52.85,608.16v.15c-4.8,68.59,1.93,130.12,8.43,189.65,8,73.24,15.57,142.42-1,212.72l-.11.5c-12.31,64.13-29.11,131.15-68.34,186.85l-.7,1L1921.68,1713l-54.26,106,0,.08-334.14,678.67-146.7,300.18-66.53,131L829.06,2688.35,610.79,2578.69C715,2367.33,821.18,2151.54,923.94,1942.74q79.53-161.58,158.89-322.8l77-156.46,39.91-85.49,25.79-47.91.26-.66c21.53-53.73,48.13-98.73,91.8-155.32,60.71-78.68,130.38-121.88,197.75-163.66,46-28.5,93.51-58,138.2-98.41,49.19-44.52,92.2-99.17,135.57-155.94,65.91-86.25,135.54-188.93,173.17-255.1l177.87,87.58c-16.14,42.19-74.36,196.19-97.07,281.35C2021.89,949.43,2009.24,1016.47,2004.43,1074.88Z"/>
  </g>
</svg>
