<svg xmlns="http://www.w3.org/2000/svg" viewBox="0 0 2994.91 3000">
  <title>26Icon_neon 1</title>
  <path d="M2852.12,1094l-1.93-5-589.4-263.62-41-226.17-1-5.43-4.59-3.06c-.56-.38-56.93-38-82.17-57.84l-.54-.42-22.54-14c-30.42-18.89-61.88-38.41-92.81-57.77l-.7-.43-1.63-.74-.79-.24c-46.7-14.19-96-21.79-143.76-29.14-30.18-4.65-61.38-9.45-91.32-15.86l-.59-.13-.6-.07c-29.71-3.42-60.22-9.91-89.74-16.19-59.47-12.66-121-25.74-183-16q-64.53,7.35-129,14.76l-1.15.13c-60.43,6.93-122.91,14.09-184.36,21.05-5.44.53-10.59,1-15.49,1.47-73.82,6.93-93.66,8.79-166.78,57.31C941.49,520.91,800.43,605.45,799,606.29l-4.3,2.57L717,862.49,462.55,916,163,1095.21,60.24,1297.88l-2.67,5.25,101.85,254.61,1.83,4.6,327.83,163.91-239-202.83,128.36-247.69,302.92-91c-3.15,33.55-9.54,101-12.25,126.13l-.14,1.29.13,1.42c5,49.59,19.24,87.13,34.35,126.86,12.81,33.67,26,68.47,33.24,111.94-8,75.16-12.28,150.89-16.39,224.14S712,1925.29,704,2000l-.61,5.72,3.8,4.28c54,61,105,123.39,154.45,183.73,50.79,62,103.32,126.15,159.17,189.06l.59.67.69.58c18.92,16,40.36,28.16,61.13,39.95,12.2,6.92,24.83,14.08,36.47,21.82l51.91,31.23c72.57,43.63,147.6,88.76,222.16,133.71l.9.54,1,.38c22.08,8.7,45.39,8,67.94,7.37,12-.35,24.36-.71,35.72.52l.93.1.92,0c13.41-.56,27.6.12,41.35.77,10.39.5,21.14,1,31.9,1a210.44,210.44,0,0,0,37.45-2.89l1.22-.22,2.49-1,1-.67q32.79-21.09,65.57-42.21l.42-.27c59.34-38.22,120.71-77.74,181.4-116.4l1-.65.88-.83c80.7-76.72,238.48-283.77,314.3-383.27l.25-.33c18.43-24.18,31.74-41.65,38.17-49.68,3.71-4.63,3.65-8.83,1.7-28.19-1.12-11.09-3-27.08-5.58-47.53-4.4-34.79-10.93-83.21-19.42-143.91-14.16-101.21-29.74-207.82-34-236.6l106.45-214.26,1.22-2.43,9-165.35,329.84,71.78,63.36,301L2488,1764.28l352.33-167.08,4.88-2.3,95.27-266,1.61-4.56Zm-260.28,592.2L2695,1569.87l4.35-4.9-67.79-322-1.73-8.24-376.12-81.86L2243.3,1343.3l-107.12,215.61-1.78,3.62.58,4c28.8,196.27,59,412.54,60.65,443.55-7.27,9.26-19.71,25.58-36.18,47.19-75.14,98.61-231.19,303.39-310.59,379.3-60.25,38.36-121.28,77.67-180.31,115.69l-1.09.7q-31.37,20.21-62.74,40.39c-19.39,3.08-40.56,2.07-61.08,1.09-10.43-.49-21.21-1-31.93-1-3.79,0-7.3.07-10.69.19-12.75-1.29-25.7-.91-38.26-.55-19.56.57-39.78,1.15-56.64-5.17-72.89-43.95-147-88.54-218.76-131.68L1133.77,2424c-12.32-8.17-25.27-15.52-37.81-22.63-19.44-11-39.53-22.43-56.42-36.55-55.22-62.25-107.38-125.93-157.88-187.59-48.38-59.08-98.37-120.12-151.25-180.14,7.7-73.54,11.84-147.53,15.86-219.18,4.12-73.48,8.38-149.47,16.47-224.48l.19-1.79-.28-1.71c-7.55-46.88-21.44-83.42-34.89-118.75-14.34-37.72-27.9-73.36-32.64-118.89,3.8-35.67,13.84-143.27,13.94-144.37l1.77-19.2L365.71,1252.41l-5.28,1.58L222.25,1520.64l-4.78,9.19,90.47,76.78-126.21-63.1L86.08,1304.4l96.7-190.73,289.3-173.1,265.33-55.8L816.67,626c24.25-14.57,144.67-87.14,204.93-127.72,67.61-44.86,80.92-46.1,154.77-53l.23,0c4.89-.45,10-.94,15.45-1.46l.21,0c62.06-7,124.63-14.2,185.13-21.14q64.89-7.44,129.82-14.86l.53-.07c57.44-9.08,116.63,3.52,173.87,15.7,29.91,6.36,60.83,12.94,91.53,16.52,30.45,6.49,61.83,11.33,92.18,16,46.24,7.12,94,14.49,138.51,27.82,30.7,19.2,61.56,38.36,91.42,56.89l21.32,13.23c21.93,17.17,64.71,46.13,78.62,55.48l41.23,227.49,1.22,6.75,592.2,264.87,84.45,216.28-90,251.27Z"/>
</svg>
