<svg xmlns="http://www.w3.org/2000/svg" viewBox="0 0 2994.91 3000">
  <title>106Icon_neon 1</title>
  <path d="M2700.66,764.06a891.72,891.72,0,0,0-100.3-204.14c-41.72-62.88-90.7-118.81-145.57-166.24a724.58,724.58,0,0,0-144.1-97.42A661.08,661.08,0,0,0,2146.84,238c-120.47-25.44-244.45-16.14-368.49,27.64-65.29,19.53-140.57,67.95-179.67,95.1-25.16,17.47-49.34,35.86-68.07,51.77-20.66,17.54-28.67,26.93-32,32.36l-.19-.28-.56-.85-.7-.73c-34.52-36.91-159-129.3-194.64-144.56-81.85-45.58-202.23-73.54-317.13-74v-.11l-25,.34v.14c-53.5,1.88-107.86,11.09-161.76,27.43-54.23,16.43-108.25,40.11-160.55,70.41-82.52,47.78-155.25,113.92-216.17,196.59-60.27,81.8-105.75,175.36-135.18,278.07-30.27,105.65-42,215.73-34.74,327.2,7.66,118.14,36.45,233.89,85.57,344,27.07,60.69,63.56,119.12,111.57,178.65,42.58,52.81,90.12,101.62,136.1,148.84,38,39.05,77.36,79.43,113.77,122l.32.37,789.09,852.1,2.26,2.42,14.67,4.89,735.26-795.18.32-.35c43.42-50.73,88.67-98.16,132.47-144.08,156.16-163.69,303.66-318.3,359.55-602.07A914,914,0,0,0,2700.66,764.06ZM1290.5,321.55l.65.37.68.28c30.83,12.72,152.94,103.46,185.62,137.82,5.32,7.94,10.94,15.86,20.34,16.34,9,.48,14.19-5.84,18.8-11.42l.21-.25,1.77-2.14,2-2.43.47-2.08c4.52-7.26,36-36.74,92.42-75.91,37.88-26.3,110.68-73.19,172.59-91.63l.59-.19c229.49-81.1,466.81-36.26,651.1,123,223.58,193.26,329.42,514.26,269.64,817.79-54.43,276.34-199.38,428.29-352.91,589.22-43.94,46.06-89.37,93.68-133.18,144.85l-721.09,779.85L718.58,1901c-36.89-43.06-76.44-83.67-114.73-123-90.56-93-184.2-189.14-242.54-319.93C154.4,994.15,350.63,519.22,651.11,345.24,757,283.93,865.36,252.09,973.25,250.59,1087.79,249,1209.38,276.18,1290.5,321.55Z"/>
</svg>
