<svg xmlns="http://www.w3.org/2000/svg" viewBox="0 0 2994.91 3000">
  <title>138Icon_neon 1</title>
  <path d="M2413.73,2724.54c-6-32-15.84-75.95-29.35-130.6-24.36-98.57-55.27-211-73.75-278.12-6.89-25.05-12.33-44.83-14.93-54.79l-415.6-1577,0-.12c-4.76-17.34-12.54-49.66-22.38-90.57-21.3-88.51-50.47-209.72-80.66-312.48-49.33-167.89-74.11-193.41-93.55-196l-4.41-.57-3.82,2.23c-17.56,10.24-48.41,41.72-113.46,196.24-40.63,96.53-82.24,211.22-115.67,303.39-20.92,57.69-39,107.52-50.29,134.5l0,0-801,1960.48-2.38,5.85,3.13,5.5c31.47,55.19,133.78,90.74,188.75,109.84,205.21,71.31,447.79,114.14,701.5,123.87,36.72,1.41,74.08,2.12,111,2.12,220.69,0,443.82-25.54,645.27-73.85l.69-.19,167.17-50.33,4.54-1.37,2.62-4C2421.2,2792.33,2424.33,2781.38,2413.73,2724.54Zm-18.66,56.83-159.43,48c-203.81,48.84-422.46,72.95-638.81,72.95-285.33,0-566.62-42-804-124.46-49.79-17.3-140.92-49-171.43-93L1419.83,730.7c11.53-27.56,29.7-77.64,50.75-135.67,33.28-91.74,74.69-205.91,115-301.71,51.13-121.58,80.72-165.84,97.34-180.28,4.45,4.45,13.67,16.89,27.69,51.19,12.61,30.84,27.12,74.38,43.14,129.43,29.4,101,57.89,219.37,78.68,305.79l.06.23c9.86,41,17.66,73.39,22.51,91.09l415.57,1576.85c2.61,10,8,29.69,14.87,54.58l.14.53c17.9,65.07,47.86,174,71.88,270.47,13.24,53.2,23.13,96.43,29.37,128.48C2394,2758.62,2395.17,2774.63,2395.07,2781.37Z"/>
</svg>
