<svg xmlns="http://www.w3.org/2000/svg" viewBox="0 0 2994.91 3000">
  <title>56Icon_neon 1</title>
  <g>
    <path d="M2272.43,2304.56c-10.83-31.1-19.48-61.94-27.21-90.62l-3.16-11.75-11.94,2.38c-301,60-516,90-731,90-213.79,0-427.63-29.65-725.7-88.87l-10.85-2.15-42,112.86,11.84,4.68c320.89,127,532.41,404,653.35,614.07l2.68,4.64,5.18,1.41a407.13,407.13,0,0,0,209.79,0l5.07-1.37,2.7-4.51c5.82-9.74,11.77-19.8,17-28.68,23.38-39.52,45.47-76.85,71.52-114.46,184.34-244.9,363.89-394.61,565.09-471.19l11.79-4.49Zm-187.6,77.67c-51.18,32.12-102.15,70.35-151.5,113.63-85.45,74.93-168.71,166.81-254.56,280.88l-.3.41c-26.65,38.47-49,76.25-72.73,116.33-4.64,7.85-9.42,15.91-14.21,23.95a381.63,381.63,0,0,1-186,0c-81.31-140.32-175-262.8-278.45-364.11-114.9-112.5-240.45-197.12-373.33-251.67l25.43-68.32c154.26,30.47,277.39,51.09,386.73,64.75,120.65,15.09,226.65,22.12,333.33,22.12h2.48c201.1-.21,404.18-24.87,721.57-87.8,6,22,12.69,45.19,20.55,68.81A979.64,979.64,0,0,0,2084.83,2382.23Z"/>
    <path d="M1082.62,1272.72c94.55,0,205.37-23.67,320.47-68.45l10.2-4-2.16-10.72c-34.7-172.58-83.06-302.79-152.2-409.8-79.59-123.2-188-215.91-331.42-283.42l-11.86-5.58-5.48,11.89c-34.08,73.82-69.8,152.68-99,233.79-75,205.9-65.52,362.75,27.32,453.58C893.75,1244.13,978.18,1272.72,1082.62,1272.72Zm-226-101.26c-85-83.16-92.28-230.5-21-426.14,27.35-75.94,60.54-150,92.65-219.77,248.12,120.86,384.94,318.91,455.2,658.42-108.69,41.17-212.26,62.76-301,62.76q-5.6,0-11.12-.12C979.18,1244.7,904.94,1218.71,856.65,1171.46Z"/>
    <path d="M1918.42,1271.62c8.43,0,16.83-.19,25-.57,69.77-3.25,128.69-20.54,175.12-51.38,46.76-31.06,81.46-76.21,103.14-134.19l.27-.71.17-.74c19.19-79.52,15.66-166.14-10.82-264.83-23.1-86.11-60.05-169.77-95.8-250.69l-.11-.25c-10-22.53-19.35-43.8-28.51-65.24l-5.18-12.12-12.05,5.35c-60,26.68-120.59,65.7-185.1,119.28-82.71,63.3-148.16,148.27-200.08,259.76-39.75,85.34-71,185-98.49,313.52l-2.34,11,10.51,3.92C1677.2,1234.69,1800.9,1271.62,1918.42,1271.62ZM1900.53,636l.41-.33c58.4-48.53,113.26-84.68,167.27-110.2,7.6,17.58,15.35,35.13,23.48,53.52C2160,733.55,2237.32,908.68,2197,1077.14c-39.7,105.4-125.44,161.91-254.83,167.94-114.93,5.36-240.23-29.79-328.43-61.85C1654.13,997.71,1723.91,771.07,1900.53,636Z"/>
  </g>
</svg>
