<svg xmlns="http://www.w3.org/2000/svg" viewBox="0 0 2994.91 3000">
  <title>46Icon_neon 1</title>
  <g>
    <path d="M2313.27,2791.49c-6.85-23.63-13.78-47.62-20.7-71.57h0l-23.74-82.54-26.69-89.82-39.63-133.09-49.13-160.94-108.88-343.74-28.93-88.73-60.86-183c-.11-.81-.26-1.9-.44-3.18L1939,1523.28l-.09-.41a15.59,15.59,0,0,1-.1-2.48l.12-.44.11-.94c10.16-85.57,85.55-747.73,109.21-955.68l81,227.81,4.37,12.31,12.28-4.43c68.71-24.73,145-58.92,226.68-101.61l9.13-4.78-2.56-10c-6.63-25.72-13.14-52-19.44-77.48-26.85-108.49-54.61-220.69-100.11-324.31-21.48-48.68-72.79-70-118.14-88.9l-3.75-1.56,17.35-17-21.33-6.19c-37.19-10.8-76.76-16.68-115-22.37-76.48-11.36-155.56-23.11-215.88-75.13l-15.66-13.51-5.38,20c-52.81,195.55-128.81,377.78-225.89,541.66l-3.84,8.43L1533.15,658l26-14.58a57.87,57.87,0,0,1,1.78,17.28l-.54,10.4,10.05,2.79c92.1,25.48,165.41,83.76,201.26,160,29.26,90.81,38.39,186.94,47.23,279.93,1.22,12.86,2.47,26,3.78,39.21-124.8-44.41-283.72-107-309.88-251L1500,831.65,1487.21,902c-26.19,144-185.1,206.62-309.88,251,1.3-13.1,2.54-26.18,3.76-39l0-.29c8.83-92.95,18-189,47.2-279.81,35.86-76.25,109.18-134.56,201.28-160l10.05-2.79-.54-10.4a57.52,57.52,0,0,1,1.81-17.37l25.64,14.19L1448,626.19l-3.88-8.49c-97-163.85-173-346.07-225.85-541.6l-5.38-20-15.66,13.5c-60.34,52-139.4,63.78-215.87,75.14-38.27,5.69-77.84,11.56-115,22.37L845,173.34l16.7,16.4c-40,15.76-66.93,31.16-88,50.1-28.16,25.33-46.84,58.27-58.77,103.63C678.1,450,650.69,561.5,624.17,669.32l-5.75,23.36,9,4.72c81.7,42.7,158,76.88,226.68,101.62l13,4.67L871,790.47c12.61-42.7,31.27-92.5,49.31-140.66C930.76,622,941.4,593.56,951,566.29c17.17,149.43,60.86,526.68,88.69,767,10.56,91.26,18.55,160.19,21.35,184.48l.09.64a13.35,13.35,0,0,1,.11,3l-.14.53-.1.74c0,.12-2.09,15.16-4.75,34.38-4.24,30.7-10,72-11.08,80.13C926.05,1960.62,825.19,2311,727.62,2649.9l-.21.71c-13.3,46.23-27.07,94-40.5,140.45l-7.3,31.88,14.48,1.6c197.91,22,376.51,41.36,558.12,54.69l12.46.91,1.91-25.93-12.47-.91c-176.82-13-350.81-31.66-542.67-53l.55-2.39q2.82-9.77,5.67-19.61c55.86,5.77,317.44,32.45,533.46,48.51l12.47.92,1.93-25.92-12.47-.93c-209.51-15.57-463.87-41.36-528.06-48,9-31.35,18.13-62.89,27-93.75l.62-2.14c97.56-338.88,198.44-689.29,317.4-1012.22l.47-1.27L1086,1531.19c.27-2,.45-3.28.56-4.2a35.86,35.86,0,0,0,.2-12.53c-2.83-24.52-10.79-93.27-21.32-184.17C1032,1041.33,976,557.7,970,504.16l-7.14-64-18.25,61.79C932.3,543.74,913.83,593,896,640.77c-16.38,43.71-33.26,88.76-45.85,129.09-61.66-23-129.36-53.45-201.55-90.8l.87-3.53c26.41-107.39,53.72-218.44,90.24-324l.29-.93C761.23,269.11,803,239.18,882,209.81c32.67,32.8,191.89,192.26,252.78,244.77,59.37,51.21,238.33,152.17,282.6,176.87a85.4,85.4,0,0,0-4,20.14c-43.83,13.32-84.78,34.21-118.93,60.74-39.53,30.71-69.8,68.19-89.95,111.39l-.33.7-.24.73c-30.33,93.75-39.62,191.56-48.6,286.16l0,.22c-1.84,19.44-3.75,39.54-5.81,59.27l-2.14,20.46,19.4-6.86c68.26-24.13,145.64-51.48,211.17-93.68,60.9-39.22,101.2-84.86,122.17-138.65,21,53.77,61.26,99.42,122.18,138.65,65.59,42.24,142.93,69.57,211.17,93.68l19.39,6.85-2.14-20.45c-2-19.62-3.94-39.61-5.78-58.93l0-.49c-9-94.63-18.28-192.48-48.64-286.28l-.24-.74-.32-.7c-20.14-43.16-50.4-80.62-89.93-111.33-34.15-26.53-75.1-47.42-118.93-60.74a85,85,0,0,0-4.07-20.21c52.49-29.69,296.79-169.36,374-240.18,40.14-36.82,136.49-150.63,161.77-180.69,4.37,1.86,8.77,3.69,13.09,5.49,40.76,17,87,36.18,104.25,75.32,44.58,101.56,72.08,212.65,98.67,320.09l.09.38c5.47,22.1,11.1,44.85,16.83,67.32-72.39,37.45-140.25,68-202.05,91l-114.23-321.3-6.35,55.81c-1,9.05-103.29,908-115.45,1010.62a36.4,36.4,0,0,0,.07,12.63c1,7.24,14.8,107.88,15.79,115.09l.18,1.36,1.78,5.07,1.22,8.52,1.45-.51,57.14,171.81,28.85,88.5,108.81,343.5L2177.64,2422l39.61,133,26.65,89.67,16.61,57.78h0l3.45,12q5.55,19.24,11.12,38.52c-64.68,6.61-322.25,32.55-533.43,48.1l-12.47.92,1.93,25.93,12.45-.92c217.31-16,482.57-42.87,538.86-48.65q2.85,9.85,5.69,19.64l.71,4.39c-169.74,19.87-360.78,41.91-548.27,51l-12.49.6,1.27,26,12.48-.6c193.17-9.31,389.93-32.35,563.53-52.68l13.5-1.57-5.32-32.79ZM1151.72,434.89c-55.87-48.19-198-189.92-243-235l.22-.08L895.37,186.4c29.24-6.91,59.93-11.46,89.8-15.9,73.85-11,150-22.28,213.22-68.59,48.8,175,116.11,339.28,200.42,489.29C1331.1,552.81,1200,476.53,1151.72,434.89Zm941.87-235.25C2063,235.94,1975.81,338.36,1939.09,372c-64.27,58.94-254,170.56-337.6,218.64,84.17-149.86,151.38-314,200.12-488.76,63.19,46.3,139.37,57.62,213.23,68.59,29.87,4.44,60.56,9,89.79,15.9l-12.72,12.5Z"/>
    <path d="M1697.41,2909.62c-44.29,4.56-166.09,16.42-197.44,16.49h-.33c-40.71,0-195.74-16.33-197.3-16.49l-12.42-1.31-2.75,25.85,12.44,1.32c1.57.16,157.61,16.63,200,16.63h.39c38.7-.09,193.47-16,200-16.63l12.43-1.28-2.64-25.87Z"/>
    <path d="M1494.61,2907.28h.44c36.17-.09,184.57-13.42,186.06-13.56l12.45-1.12-2.33-25.9-12.45,1.13c-41.24,3.71-154.63,13.38-183.8,13.45h-.37c-31.75,0-143.09-9.71-183.31-13.45l-12.46-1.16-2.38,25.89,12.44,1.16C1314.87,2894.27,1455.68,2907.28,1494.61,2907.28Z"/>
    <path d="M2429.62,710.41l-11,5.91c-1,.54-101.09,54.14-137.09,70.44-38.18,17.28-153.06,60.09-154.22,60.52l-11.72,4.36,9.09,24.36,11.7-4.36c1.17-.43,116.89-43.55,155.88-61.2,37-16.76,137.64-70.66,138.65-71.2l11-5.91Z"/>
    <path d="M864.58,872.6l11.77,4.23,8.78-24.47-11.76-4.23c-1.25-.45-126.25-45.42-165.46-63.67-31.63-14.72-122.32-66.82-126.18-69l-10.84-6.23L558,731.72,568.77,738c.94.54,95.16,54.71,128.17,70.07C737.54,826.92,863.32,872.15,864.58,872.6Z"/>
  </g>
</svg>
