<svg xmlns="http://www.w3.org/2000/svg" viewBox="0 0 2994.91 3000">
  <title>52Icon_neon 1</title>
  <g>
    <path d="M2057,1039.06c-39.12,5-73.61,9.13-105.37,12.71l-3.08.34c-35,3.79-68.1,7.37-104.72,9.22-35.9,1.54-73.47,4.2-109.81,6.77l-.51,0-23.19,1.63-9.8.69c-41,2.89-83.36,5.88-125.7,8-26.64,1.31-48.7,1.8-69.37,1.53-22.34-.32-43.73-1.27-68.94-2.6-41-2.26-82.24-5.18-122.16-8l-13.13-.93-66.94-4.54-67.6-3.71c-45.93-3.31-90.65-8.57-133.92-13.65l-2.13-.25c-49.29-6-101.59-12.73-169.57-22l-26.86-3.67,14,23.25c37.84,62.92,74.52,125.11,109,184.83,43.21,74.89,99.54,174,152,276.17l0,.1c9.34,17.8,18.43,36.43,27.23,54.46l.1.21q4,8.14,8,16.27l33.23,72.25L1243,1790.35l122.47,267.05,2.42,5.32,5.6,1.72c5.58,1.71,11.52,3.24,17.63,4.55a367.92,367.92,0,0,0,39.67,6.11c24.47,2.57,51.1,3.77,83.79,3.77h0c32.7,0,59.33-1.23,83.8-3.81a367.49,367.49,0,0,0,39.65-6.11c6.19-1.33,12.13-2.87,17.66-4.57l5.58-1.71,190-414.58,33.21-72.23q3.81-7.75,7.6-15.52l.48-1c8.78-18,17.86-36.6,27.22-54.44l.05-.1c52.52-102.24,108.83-201.27,152-276.12,34.6-59.91,71.26-122.07,109-184.76l14-23.24-26.87,3.67C2128.68,1029.71,2092.39,1034.52,2057,1039.06Zm-187.87,509.1q-4,8.21-8,16.39l-33.43,72.69L1642.6,2041.12c-3.21.86-6.56,1.67-10,2.42a343.09,343.09,0,0,1-36.87,5.66c-23.55,2.49-49.32,3.65-81.08,3.67s-57.54-1.15-81.08-3.62a346.08,346.08,0,0,1-36.9-5.67c-3.42-.73-6.76-1.54-10-2.41l-120-261.65-65.24-142.25-33.3-72.41-.13-.29q-4.07-8.28-8.11-16.58c-8.87-18.18-18-37-27.56-55.1-52.75-102.7-109.27-202.1-152.61-277.23-30.32-52.49-62.32-106.88-95.31-162,55.43,7.48,100.38,13.26,143.18,18.42l2.18.26c43.57,5.12,88.63,10.42,135.19,13.77l67.67,3.71,66.83,4.54,13.09.92c40,2.83,81.31,5.76,122.59,8,25.53,1.34,47.2,2.31,70,2.63,21.23.27,43.79-.22,71-1.56,42.61-2.09,85.12-5.09,126.26-8l9.78-.69,23.21-1.64.51,0c36.16-2.56,73.55-5.21,109.18-6.74,37.47-1.89,70.9-5.51,106.31-9.35l3.14-.34c32-3.6,66.56-7.78,105.8-12.76,27.27-3.5,55.07-7.16,84.35-11.11-32.85,54.89-64.84,109.26-95.27,161.94-43.32,75.1-99.82,174.47-152.59,277.2-9.51,18.12-18.67,36.9-27.54,55.06Z"/>
    <path d="M2744.43,937.68a17.63,17.63,0,1,0-17.64-17.63A17.65,17.65,0,0,0,2744.43,937.68Z"/>
    <path d="M291,907.68a20.52,20.52,0,1,0,20.53,20.52A20.54,20.54,0,0,0,291,907.68Z"/>
    <polygon points="357.58 920.42 352.24 945.87 517.58 980.63 700.14 1015.2 704.97 989.65 522.8 955.16 357.58 920.42"/>
    <path d="M2683.69,944.6l-6-25.3-12.16,2.88c-1.2.28-120.88,28.59-157.37,35.32-43.36,8-164.91,27.15-166.12,27.34l-12.36,1.94,4.06,25.68,12.34-1.94c1.22-.19,123-19.36,166.79-27.45,36.69-6.77,153.69-34.42,158.65-35.59Z"/>
    <path d="M2951.47,1109.18c-10.88-18.14-37.9-41.89-57.63-59.23l-.13-.11c-3.81-3.36-7.41-6.52-10.33-9.16-19.77-17.86-81.54-66.68-82.16-67.16l-6.48-5.13-34.31,17.15-21,6.23-36.85-8.51-3.91,10.88c-.31.86-31.15,86.81-42.19,114.81-5.58,14.16-14.47,33.48-23.9,54-16.82,36.54-35.88,78-43.18,105.38-.85,3.2-2.09,7.23-3.54,11.89-8,26.07-19.07,61.77-3.3,79.58,4.92,5.55,12.56,8.24,23.37,8.24a101.74,101.74,0,0,0,28-4.51c19.94-6.55,54-31.62,67.58-49.67,11.53-15.38,19.92-45,26.67-68.83,1.2-4.25,2.34-8.26,3.32-11.52,4.5-15,11.79-43.58,14.19-59.66,3,18.89,5.7,36.93,6.59,49.33,2.28,31.79,3.29,75,.13,94.79-2,12.65-10.61,35.86-16.88,52.81-3.11,8.41-6.05,16.36-8.08,22.56-6.35,19.45-23.62,72.76-28.76,88.64l-4,12.47,24.74,8,4-12.44c5.14-15.87,22.4-69.17,28.75-88.59,1.87-5.72,4.72-13.45,7.75-21.64,7.37-19.94,15.73-42.53,18.16-57.7,4.94-30.85.64-93.69.13-100.76-1.22-17.06-5.41-42.81-9.46-67.75-2.79-17.21-5.43-33.46-6.76-44.86-2.3-19.85-6.59-71.88-8.38-94l1.62-.48c5.51,28.22,18,92.6,21.88,117.65,4.23,27,10.94,82.05,13.89,109.63,3.51,32.9,10.79,121.39,13.76,157.9,0,.43.06.81.09,1.12L2795,1511.81l25.89,2.29,10.06-113.5-.08-1.06c-.1-1.19-9.73-120.87-14-160.82-3-27.85-9.76-83.51-14-110.9-.48-3-1.07-6.59-1.75-10.58,1.61,3.17,3.13,6,4.54,8.41s35,59.62,61.37,79.1c9.68,7.16,31.8,17.52,46.44,17.52.71,0,1.4,0,2.07-.07,10.84-.74,27.45-10.33,34.49-18.09,8.15-8.95,16.74-29.45,17.36-41.37C2968.16,1146.09,2957.62,1119.43,2951.47,1109.18ZM2791.57,999c16.22,12.89,59.17,47.18,74.38,60.93,3.07,2.78,6.77,6,10.73,9.51,17.4,15.29,43.7,38.41,52.49,53.07,5.46,9.1,12.61,30.37,12.17,38.84-.31,5.9-6.57,20.76-10.64,25.24-3.31,3.65-13.72,9.27-17,9.63-5.84.39-23.39-6.57-31.3-12.42-16.41-12.12-41.5-49.29-54.37-71.31-11.18-19.13-32.85-73-46.46-108.48Zm-190.11,324.08c1.89-11.58,5.94-24.7,9.21-35.3,1.52-4.92,2.83-9.16,3.81-12.82,6.72-25.28,25.29-65.63,41.67-101.22l0-.1c9.55-20.77,18.58-40.38,24.42-55.19,8.81-22.34,29.91-80.68,38.56-104.7l7.48,1.72c-.43,30.47-2,120.67-6.55,153.38-1.89,13.73-9.15,42.53-13.54,57.13-1,3.4-2.16,7.44-3.37,11.72l-.06.18c-5.17,18.26-13.82,48.8-22.45,60.32-10.27,13.69-40,35.68-54.9,40.57-8.43,2.77-20,3.85-24.29,2.89C2600.74,1339.94,2599.52,1335,2601.46,1323.12Z"/>
    <path d="M288.21,998.11l-.25-3.68-7.26,1.47-2.52,0-18.46-4-2.75-.48-8.31-2.8-.42,1.25-27.12-4.8L220,991.54c-4.2,3.06-9.93,8.14-18.79,16.49-10.76,10.13-25.84,24.93-48.93,48-6,6-10.68,10.68-13,12.88C116.37,1091.05,84,1141.1,69,1167.45c-22.21,39-33.63,67.82-33.93,85.72-.29,17,10.62,46.67,21.62,58.82,10.21,11.27,36.25,25,52.07,25h0l1,0c7.89-.26,17.25-4.26,25.64-9.27-1.3,17.45-1.94,37-2.39,50.8l-.31,9.36c-1.22,36.1-3.5,103.31.23,137.63,2.37,21.84,18.35,84,18.52,84.58l3.12,12.1,25.18-6.5-3.13-12.1c-4.35-16.85-16-64.22-17.84-80.88-2.5-23-2.11-62.91-1.24-96.81,2.61,7.13,5,13.71,6.54,19,1.16,3.84,2.63,8.33,4.29,13.23l-2.44,7.67,5.7,1.8c.58,1.69,1.18,3.41,1.78,5.15,7.2,20.69,15.35,44.14,17.64,57.84,6.14,36.76,12.67,152.14,12.74,153.3l.7,12.48,26-1.45-.69-12.47c-.07-1.17-6.54-117.1-13.06-156.14-2.13-12.78-8.07-31.16-14.24-49.16a30.1,30.1,0,0,0,3.55.25h0c6.07,0,17.11-2.26,22.9-17.35,16.6-43.27,21.52-114.89,25.48-172.45l.07-1q.41-5.89.8-11.62c1.8-25.77,11.6-93.9,20.26-154.09,12.09-84.1,14.86-105.27,14.38-112.72l2-9.28ZM204.4,1451.19c-2.31-.55-6.05-1.93-9-3l-3.42-1.25c-1.18-3.53-2.22-6.76-3.06-9.54-2.27-7.54-5.73-16.91-9.4-26.87-7.59-20.55-17.93-48.61-18.19-64.2,2.12-18.39,24.23-92,56.9-180.93,15.82-43.06,28.56-74.5,38.43-96.91-2.23,15.87-4.69,33-7,48.77-8.71,60.55-18.58,129.18-20.45,155.91-.28,4.14-.58,8.36-.87,12.65-3.84,55.82-8.61,125.28-23.81,164.9Zm-33.71-376.8q32-31.94,48.69-47.77c-1.89,12.88-4.93,28.88-7.12,40.42-4.36,23-8.13,42.89-8.5,55.12l-1.2,3.55.89.3c-1.8,11.18-12.09,33.35-19.12,48.5-5.29,11.38-9.86,21.22-12.2,28.35-1.51,4.6-3.21,10.15-5,16-.75,2.45-1.54,5-2.37,7.71h-3.29v10.48c-7.07,22.07-16,46.85-25.44,57.62-5.7,6.53-21.7,16.14-27.16,16.33h-.24c-7.22,0-26.53-9.72-32.67-16.51-6.59-7.26-15.08-30.59-14.91-40.92.22-12.92,11.35-39.63,30.53-73.29,14.92-26.17,46.14-73.74,65.79-92.7,2.43-2.34,7.17-7.07,13.16-13.07Z"/>
  </g>
</svg>
