<svg xmlns="http://www.w3.org/2000/svg" viewBox="0 0 2994.91 3000">
  <title>44Icon_neon 1</title>
  <g>
    <path d="M2554.69,1117.31a782,782,0,0,0-87.93-179c-36.59-55.13-79.53-104.17-127.65-145.76a635.47,635.47,0,0,0-126.39-85.45A580.34,580.34,0,0,0,2069,656.05c-105.67-22.32-214.42-14.16-323.22,24.23-57.32,17.16-123.32,59.6-157.6,83.41-22.05,15.3-43.23,31.42-59.67,45.37-16,13.62-23.47,21.68-27.08,26.77-30.33-32.38-139.33-113.25-170.7-126.76-71.48-39.78-176.36-64.26-276.63-64.87v-.12l-12.48.17h0l-12.5.17v.16a558,558,0,0,0-140.4,24c-47.57,14.41-94.94,35.19-140.81,61.75-72.39,41.92-136.18,99.94-189.61,172.44-52.85,71.72-92.72,153.74-118.52,243.79a840.81,840.81,0,0,0-30.45,286.81c6.71,103.55,31.94,205,75,301.54,52.81,118.39,136.27,204.09,217,287,33.26,34.14,67.64,69.45,99.47,106.62l.32.36,690.33,745.46,2.27,2.44,14.24,4.74,644-696.44.32-.36c38-44.37,77.56-85.86,115.83-126,136.79-143.38,266-278.82,315-527.54A801.31,801.31,0,0,0,2554.69,1117.31Zm2.79,408.85c-47.53,241.29-174.19,374.06-308.28,514.62-38.47,40.32-78.24,82-116.61,126.83L1503,2848.56,820.3,2111.4c-32.31-37.72-66.93-73.27-100.42-107.66-79.13-81.25-161-165.27-211.86-279.42-180.66-405-9.41-819.63,252.86-971.49,92.37-53.49,186.93-81.28,281-82.58,99.95-1.4,206,22.32,276.74,61.88l.65.36.68.28c26.84,11.08,133.11,90.06,161.74,120.1,4.66,6.94,10,14.44,19,14.89,8.62.45,13.54-5.47,17.86-10.69l.16-.19c.46-.56,1-1.16,1.46-1.76l2-2.44.44-1.92c4.41-6.61,32-32.18,80.26-65.72,33.06-23,96.58-63.87,150.53-79.94l.59-.2c200.21-70.75,407.24-31.62,568,107.35C2517.28,981,2609.67,1261.18,2557.48,1526.16Z"/>
    <path d="M828.19,312.09c2.9,1.33,291.87,133.66,468,222.86l.51.25c69.11,31.12,164.29,77.33,192.89,119.14l3.88,5.67,17.45,0,3.68-3.25c71.48-63,160.8-119.18,265.48-166.84l.12-.06c74.92-35.07,139.58-61.76,232.67-98.74l248.45-108.34L1917,287.86l71.31-202.52,12.68-36L1636.08,285.83l-121.53-218-11.67-20.93L1376.34,286.57,1005.52,51.67l98.33,241.42L771,285.92Zm314.67,7.85-82.61-202.82,325.94,206.47L1503.5,101.43l116.63,209.18,6.77,12.15,324.26-210.1-71,201.75,252.17-3.74L2003.09,367c-93.42,37.11-158.39,63.94-233.82,99.25-103.58,47.16-192.59,102.57-264.76,164.8-36.76-43.69-123.65-86.48-196.82-119.44-129.27-65.45-318.08-153.59-411.9-197Z"/>
  </g>
</svg>
