<svg xmlns="http://www.w3.org/2000/svg" viewBox="0 0 2994.91 3000">
  <title>80Icon_neon 1</title>
  <g>
    <path d="M2531.51,346.2c-.76-20.11-13.15-31.32-29.26-43.88-10.56-8.23-117.63-79.5-226.67-140.38C2156.15,95.25,2049.76,47.31,2037.16,42.62c-19.15-7.13-35.19-11.8-52.71-1.89-15.08,8.52-29.08,26.79-51.22,59.7-18.72,27.82-42,113.7-43,117.34l-2.64,9.79,535.63,299.09,6.95-7.38c2.59-2.75,63.5-67.63,77.36-98.14C2524,385,2532.16,363.51,2531.51,346.2ZM1997,63.29c6.62-3.78,13-3,31,3.7,12.29,4.57,116.66,51.66,234.83,117.65,107.88,60.24,213.06,130.17,223.35,138.19,15.18,11.83,19.18,16.87,19.43,24.49.39,11.71-7.7,32-21.81,63.06-8.47,18.65-43.59,59.43-65.74,83.64L1918.08,214.79c9-31.56,25.29-82.86,36.72-99.85C1973.85,86.64,1986.87,69.11,1997,63.29Z"/>
    <path d="M1842.43,343.31c-12.52,18.24-21.66,30.8-27.17,37.32-30,35.57-82.68,84-133.59,130.82C1627.75,561.05,1572,612.34,1540,651c-38,45.92-110.07,148.58-136.58,204.94-18.79,40-35.14,104.62-51,167.16-14.22,56.25-27.65,109.37-42.18,143.7-38.09,90-135.77,261.37-189,338.47-27.46,39.74-77.17,94.82-125.25,148.09-52,57.66-105.87,117.29-135.31,161.41-42,63-98.85,180.53-144.49,275-14.3,29.58-27.8,57.51-38.75,79.33-49.76,99.21-190.72,394.59-192.12,397.54l-2.88,6,3.18,5.83c1.05,1.93,11.5,19.87,55.28,56.05,39.77,32.87,117,88.68,258.85,167.91s229.89,115.66,278.74,132.27c48.24,16.41,70,17.69,75.51,17.69.79,0,1.2,0,1.2,0h0l6.67-.36,3.58-5.6c1.78-2.77,178-277.64,236.71-372.63,12.83-20.75,29.54-46.92,47.23-74.62,56.43-88.38,126.66-198.38,158.25-267.24,22.12-48.21,44.65-125.31,66.45-199.93,20.12-68.85,40.92-140,60.35-184.26,37.7-85.77,132.31-258.82,189-338.49,21.61-30.37,59.79-69.68,100.22-111.29,44.93-46.27,91.4-94.1,115.56-131.07,34.08-52.13,83.66-167.36,102.83-223.79,16.14-47.5,30.55-121.87,44.49-193.83,13.16-67.9,26.77-138.11,41.29-182.35,2.66-8.12,8.56-22.49,17.52-42.71l4.79-10.84-501-279.77Zm474.41,281.17c-6.69,15.45-11.28,26.95-13.69,34.27-15,45.79-28.79,116.82-42.1,185.52-13.77,71.07-28,144.57-43.59,190.41-18.73,55.15-67,167.47-100,217.93-22.79,34.86-68.37,81.78-112.45,127.17-41.14,42.35-80,82.34-102.75,114.34-59.15,83.15-153.19,255.68-191.61,343.1-20.12,45.77-41.16,117.81-61.53,187.52-21.48,73.51-43.68,149.51-65,196l-.13.28c-30.84,67.23-100.54,176.38-156.54,264.09-17.75,27.81-34.52,54.07-47.42,75-53.46,86.48-205,323.12-232.33,365.77-9-1.12-28.14-4.65-61-15.86-47.82-16.28-134.21-52.1-274.25-130.3s-215.86-132.95-254.8-165.11c-26.93-22.25-39.92-36.61-45.55-43.66,21.28-44.55,143-299.18,188.61-390.19,11-22,24.58-50,38.92-79.68,45.29-93.69,101.66-210.3,142.71-271.83,28.39-42.55,81.56-101.46,133-158.44,48.63-53.87,98.92-109.58,127.33-150.72,54.26-78.57,151.81-249.14,191.57-343.11,15.3-36.16,29-90.23,43.44-147.47,15.5-61.33,31.54-124.76,49.27-162.45,25.66-54.55,96-154.56,133.08-199.44,30.85-37.3,86-88,139.24-137,51.5-47.37,104.75-96.36,135.85-133.17,5-5.88,12.34-15.83,22-29.63Z"/>
  </g>
</svg>
