<svg xmlns="http://www.w3.org/2000/svg" viewBox="0 0 2994.91 3000">
  <title>170Icon_neon 1</title>
  <g>
    <path d="M2254.55,532.83l107.32-203.67,6-11.49L1846.82,43.09,1739.51,246.74l-6.06,11.5,61.68,32.5L1446.28,951.63l-862.84,599-2.63,1.82L209.16,2257.7l-6,11.5,1260.11,664,11.43,6,383.62-716.91,1.56-3-19.7-1061,345.23-662Zm-439,616.51-1.51,2.92,19.69,1060.83-369.8,691.09L238.23,2258.31l362.61-688.13,862.9-599,2.58-1.8,351.82-666.48,344.24,181.39ZM2332.8,328.56l-89.13,169.15-475.1-250.35L1857.7,78.21Z"/>
    <path d="M2392.65,981.8l-1.26,0-37.85,8.23-.9.35c-43,16.66-74.28,47.09-90.48,88-19.45,49.11-9.79,106.82,25.21,150.62,28.27,35.38,68.58,55.67,110.59,55.67a132.19,132.19,0,0,0,20.24-1.57c31.72-5,58.67-15.53,80.09-31.46s37.71-37.45,48.52-64c19.31-47.4,15-95.43-12.19-135.23C2504.35,1008.07,2450,981,2392.65,981.8Zm5.31,276.9h0c-34.06,0-67-16.73-90.28-45.9-29.19-36.53-37.37-84.36-21.35-124.82,13.35-33.72,39.18-58.93,74.74-73l33.22-7.24h.79c47.87,0,93.1,22.72,118.07,59.3,22.09,32.36,25.49,71.7,9.58,110.77-18.07,44.4-54.59,71.18-108.54,79.59A106.41,106.41,0,0,1,2398,1258.7Z"/>
    <path d="M2796.7,90.84c-24.78-35.95-68.63-57.89-114.36-57.26l-1.29,0-30.69,6.85-.93.37c-34.95,13.89-60.39,39.24-73.55,73.32-16.13,41.77-7.71,90.49,22,127.16,22.93,28.33,55.32,44.58,88.87,44.58a104.77,104.77,0,0,0,16.49-1.32c25.44-4.06,47.2-12.83,64.67-26.06,17.66-13.37,31.07-31.37,39.86-53.51C2823.68,164.84,2819.76,124.3,2796.7,90.84Zm-110,169h0c-25.67,0-50.69-12.74-68.66-34.94-23.84-29.45-30.7-68.32-17.91-101.43,10.37-26.85,30.38-46.94,57.92-58.15l26-5.79h.26c36.62,0,71.39,17.54,91,46,18,26.08,20.92,58,8.28,89.79-14.26,35.92-41.9,56.69-84.48,63.5A79,79,0,0,1,2686.71,259.88Z"/>
    <path d="M613,668.41c16.44,20.09,36.85,35.81,59,45.46a133.65,133.65,0,0,0,53.63,11.36,135.49,135.49,0,0,0,21.82-1.79c33.57-5.48,62.07-17.22,84.7-34.87s39.66-41.29,51-70.56c20.93-53.9,15.43-108.09-15.49-152.58-32.34-46.52-88.74-74.9-147.3-74.07l-1.32,0L679,400.53l-.94.38c-45.34,18.42-78.32,52-95.35,97.13a166.05,166.05,0,0,0-7.14,90.86A181.22,181.22,0,0,0,613,668.41ZM723,417.35c49.18,0,96.29,24,123.36,62.92,25.83,37.16,30.31,82.74,12.6,128.33-19.33,49.79-58.25,79.8-115.69,89.19-40.7,6.65-80.85-10.06-110.14-45.85C599,610.31,589,554.85,607,507.22c14.3-37.86,41.89-66.13,79.83-81.82l35.25-8Z"/>
  </g>
</svg>
