<svg xmlns="http://www.w3.org/2000/svg" viewBox="0 0 2994.91 3000">
  <title>122Icon_neon 1</title>
  <g>
    <path d="M2899.81,2336.71l-.08-12.93H108.86l-1.25,189.6-.08,13.07,2779.28.87h4.31l9.9-7.37ZM134.69,2349.78H2873.9l1,151.54-2741.21-.86Z"/>
    <path d="M2690.71,796.14l12.82,2.59,2.51-12.86q12.51-64.46,25-128.92l2.44-12.66L1923.76,481.64l-12.82-2.57-2.49,12.82q-12.54,64.05-25,128.12l-2.47,12.67,12.66,2.55Zm12.34-131.44-20,103.36L1911.4,612.3q10-51.3,20.06-102.6Z"/>
    <path d="M1756.12,1840.75l-2.59,12.79,574,114,12.69,2.52L2559.7,893.2l2.58-12.77L1986.43,765l-12.74-2.56-72,357.63L143,767.53,130.2,765,59.57,1120.75l-2.51,12.68,1769.1,360.88ZM2531.61,900.8,2319.87,1939.54l-535.68-106.42,70-346.38,2.56-12.72L87.59,1113.13l63-317.55,1758.71,352.56,12.74,2.55,72-357.62Z"/>
    <path d="M1618.45,1930.55l-2.59,12.73q-13.54,66.93-27.07,133.85l-2.56,12.75L2417.68,2257l2.51-12.84q13-67,26-133.92l2.44-12.66-817.44-164.43Zm-1.59,139q11-54.17,21.91-108.35l779.41,156.78q-10.5,54.18-21,108.38Z"/>
  </g>
</svg>
