<svg xmlns="http://www.w3.org/2000/svg" viewBox="0 0 2994.91 3000">
  <title>128Icon_neon 1</title>
  <g>
    <path d="M870,1390.63c79.82,84.49,171,150.82,278.86,202.78,99.69,48,215,84.28,352.48,110.77l2.55.45,2.35-.46c134.06-26.21,246.17-60.8,342.74-105.74,108.26-50.38,199.89-114.73,280.11-196.72,85.31-87.19,157.14-193.54,219.6-325.12,64.51-135.91,117.89-296.23,163.19-490.14l3.74-16-2007.35.41H491.72L495.6,587C586.53,961.16,705.48,1216.53,870,1390.63Zm1612.8-794.14c-185,775.66-512.15,989.85-979.07,1081.67C960.07,1572.68,693.5,1278.81,524.81,596.9Z"/>
    <path d="M1843.71,2113.29V1714.42l-18.94,9.76c-99.43,51.14-193.69,72.29-323.69,101.22-114.17-17.54-185.58-45.46-275.83-80.76-17.33-6.77-35.24-13.78-54.34-21.05l-17.7-6.74,1.43,397.68-977.2,325.66,80.29-.05c6.8,0,700.09-.52,1422.79-.52,422,0,768.37.18,1029.61.52l77.56.1Zm-163.19,300.33c-579.73,0-1136.44.33-1342.51.46l833.78-277.86,8.91-3-1.35-378.57c12.53,4.84,24.62,9.57,36.43,14.19,92.38,36.13,165.35,64.66,283.8,82.61l2.55.33,2.25-.5c125-27.81,217.32-48.36,313.33-94.57V2131.8L2632.62,2414C2381.76,2413.76,2062,2413.62,1680.52,2413.62Z"/>
  </g>
</svg>
