<svg xmlns="http://www.w3.org/2000/svg" viewBox="0 0 2994.91 3000">
  <title>70Icon_neon 1</title>
  <g>
    <path d="M579.47,2437.17l-216.8,508.45H2602.58l-194.71-508.45ZM402,2919.62l194.63-456.45H2390l174.8,456.45Z"/>
    <path d="M2681.54,843.85a1282.11,1282.11,0,0,0-681-679C1842.79,98.36,1675.21,64.63,1502.46,64.63s-340.32,33.73-498.08,100.26a1280.92,1280.92,0,0,0-681,679c-66.73,157.3-100.57,324.4-100.57,496.64a1280.72,1280.72,0,0,0,27.72,265.32,1267.35,1267.35,0,0,0,204.69,468,1286.25,1286.25,0,0,0,165.6,191.35l3.76,3.57H2380.35l3.75-3.57a1278.74,1278.74,0,0,0,290.94-413,1266.46,1266.46,0,0,0,79.36-246.36,1280.72,1280.72,0,0,0,27.72-265.32C2782.12,1168.25,2748.28,1001.16,2681.54,843.85ZM635,2242.77c-249.07-238-386.16-558.23-386.16-902.28C248.81,651.31,811.2,90.63,1502.46,90.63S2756.12,651.31,2756.12,1340.49c0,344-137.09,664.27-386.16,902.28Z"/>
  </g>
</svg>
