<svg xmlns="http://www.w3.org/2000/svg" viewBox="0 0 2994.91 3000">
  <title>112Icon_neon 1</title>
  <g>
    <path d="M2869.46,136.06l-3.4-25.75-17.86,17.46L1090.27,1846.51l-972.34,897-10.05,9.28,153.31,150,7,6.83,8.5-4.82c4.22-2.4,423.3-240.69,543.13-346.38C938.08,2454,1206.2,2100.59,1258.7,2030.86l425.52,418.08,9.38,9.2,9.11-9.49c8.69-9.06,213.5-222.9,278.17-299.31,133-157.16,378.34-465.08,482.47-626.92,35.57-55.27,128.28-201.9,220.88-369.23s153.65-298.52,181.27-389.61c22.77-75.13,33.23-236.49,33.39-327.07C2899,361.87,2870.67,145.26,2869.46,136.06ZM2847,165.32c7.6,60.47,26,213.16,25.91,271.14-.15,89-10.27,247-32.28,319.57-73.56,242.66-366,700.87-399.12,752.32C2338,1669.21,2093.61,1975.91,1961,2132.54c-57.12,67.49-226.9,245.61-268,288.61L1117.8,1856ZM1240,2012.48c-47,62.53-319.19,422.14-437.37,526.37-108.79,96-469.47,303.65-530.27,338.42l-126.73-124,953.32-879.42Z"/>
    <path d="M2097.23,1521.4c12.75,7,30.93,9.56,43.69,9.56,6.17,0,14.95-.57,21.74-3.31,19.42-7.84,39.73-42.87,40.72-63.3.83-17.11-10.54-60-28.29-73.77-8.34-6.45-15.91-6-20.81-4.51l-.45.13c-6.28,2-14.16,7.51-16.11,22.84-.95,7.47-.47,16.08,0,24.4l0,.47c.41,7.3,1.1,19.46-.46,22.88-2.41,2.83-13.46,7.4-20.1,10.15-7.71,3.18-15.69,6.48-22,10.59-13.16,8.53-14.52,18.17-13.35,24.75C2082.78,1507.64,2086.23,1515.31,2097.23,1521.4Zm66.48-89c-.27-4.72-.65-11.42-.47-16.57,7.65,11.64,14.67,37,14.17,47.22-.2,4.14-3.24,13.22-9.43,23.4-6.51,10.67-12.57,16-15.05,17-7.22,2.91-30.95,1.65-42.83-4.74,4.46-2.64,12-5.76,17-7.84,13.49-5.57,26.22-10.84,32.18-20.33S2164.54,1447.15,2163.71,1432.44Z"/>
  </g>
</svg>
