<svg xmlns="http://www.w3.org/2000/svg" viewBox="0 0 2994.91 3000">
  <title>116Icon_neon 1</title>
  <g>
    <path d="M883.89,1946.94,763.34,1585.8,1007,1410.07l31.5-25.14H696.06L571.31,1015.07,449,1381.85l-303.36,3.08h-.38l-36-.29,28.39,25,.49.35c68.36,49.53,154.38,111,205.76,147.67,15.74,11.24,29,20.7,38,27.14L263.36,1945.57l308.82-222.26,278,199.73Zm-474.6-362.13,3.33-9.77-7.5-5.41-2.72-2c-1.7-1.26-3.73-2.75-6.53-4.76-8.77-6.27-21.31-15.24-36.5-26.08l-.46-.33c-44.09-31.49-113.71-81.22-175.67-125.92l275.3-2.8,9.28-.09,103.63-310.82L674.4,1402.07l3,8.86H961.32L740.38,1570.3l-7.76,5.59,101.46,303.57L579.77,1696.75l-7.6-5.46L313,1877.81Z"/>
    <path d="M801.2,771.8,729.91,989.5,918.22,855.94l187.54,133.65-12.23-37.52q-29.54-90.54-59-181.05L1169,674l33.2-25.15H991.89L915.56,427l-72.7,221.88H633.75l31.69,24.84ZM970.32,666.08l3,8.76h150.05l-111.8,80.63-7.72,5.55,3,9q24.87,76.26,49.75,152.55l-130.78-93.2L918.27,824,779.14,922.7l49.73-151.84,2.94-9-120.37-87H861.7l54.46-166.21Z"/>
    <path d="M2041.94,1929.81l-13.44-39.59-12.19,36.8c-34.23,103.42-96.61,292.48-110.91,336.75H1559.85l32.5,23.53c83.26,60.32,165.92,119.92,246,177.65q-53.77,162.5-107.54,325l-12.57,37.94,32.49-23.29L2030.24,2604l279.54,200.54,32.34,23.22-12.41-37.84q-53.41-162.53-106.8-325c80.31-58.34,163.17-118.55,245.33-179.26l31.73-23.46h-345.1C2117.05,2151.05,2078.88,2038.62,2041.94,1929.81Zm158,519.65-7.65,5.57,2.94,9q48.66,148.08,97.32,296.18l-254.74-182.76-7.58-5.43-7.28,5.21L1768,2760.14q49-148,98-296.08l3-9.06-8.59-6.19c-71.83-51.78-145.79-105.1-220.33-159H1915l10.7,0,1.93-10c3.23-10.77,58.52-178.57,101.22-307.73,34.31,101,69.52,204.75,104.45,307.39l3,8.81H2421C2346.83,2342.78,2272.32,2396.91,2200,2449.46Z"/>
    <path d="M1079.35,2129.92l-12.46-36.87L975.7,2369.28l-260.35,1.8,32,24.6,177.15,127.51L847.91,2755.9l-.31.94-7.18,33.7,28-19,.29-.2,199.2-144,201.57,144.08,32.44,23.17-12.54-37.84q-38.67-116.76-77.33-233.52l176-127.23,32.17-23.26-259.48-1.8Q1120,2250.38,1079.35,2129.92Zm109.71,377.76-7.72,5.58,3,9q33.89,102.36,67.78,204.72l-176.74-126.33-7.6-5.43-7.57,5.48-175.67,127,67.59-205.45,3-9.06L793,2396.54l201.52-1.39,72.63-220L1139,2388l3,8.77,198.61,1.38Z"/>
    <path d="M2921.72,1499.54H2655.2q-23.53-68.93-47-138l-4.6-13.49c-11.15-32.71-22.05-64.69-33.27-97.57l-13-38.09-29.88,91.18c-21.09,64.37-42.88,130.83-64.37,196.73H2195.35l32.54,23.53c60.86,44,122.57,88.42,182.4,131.48l-79,242.27L2319,1935.37l239.46-172c69.44,49.06,199.9,136.62,205.61,140.45l31.19,20.93L2783.68,1889c-.51-1.59-50.95-157.28-76.31-233.68,59.91-43.11,121.66-87.59,182.44-132.28Zm-236.95,140-8.1,5.83,3,9.08c17.11,51.31,50.07,152.61,67.64,206.72C2700.83,1829.8,2614,1771,2566,1736.77l-7.58-5.41-190,136.54q34.8-106.76,69.61-213.54l3-9-10.08-7.25c-50.77-36.54-103-74.12-155.12-111.75H2482l2.92-9c22.36-68.6,45.09-138,67.08-205l5.84-17.85q11.11,32.58,22.21,65.14l2.59,7.6q25.5,74.82,51,149.56l3,8.78h205.75C2789.57,1564.11,2736.43,1602.35,2684.77,1639.53Z"/>
    <path d="M1613.43,1120.71l-12.59,37.82L1924,928.47,2213.08,1137l1,.72,6.68,3.59,1.16.83.14-.14,19.46,10.45L2234,1122,2121.5,785.4l287.27-207.7h-356.9c-39.72-118.12-80.79-240-117.13-347.76l-12.41-36.82-11.78,35.46-.88,2.66c-37.5,113-76.24,229.75-114.4,347.24h-357.6L1724.94,786.2Zm477.36-345.19,3,9.06L2197,1093.28q-132.64-95.65-265.32-191.34l-7.56-5.46-273.37,194.63,101.92-305.74,3-9.06L1518,604.48h296.15l2.92-9c35.15-108.34,70.75-215.84,105.44-320.42,35.42,105.08,71.78,213,107.68,319.76l3,8.86h295.26Z"/>
  </g>
</svg>
