<svg xmlns="http://www.w3.org/2000/svg" viewBox="0 0 2994.91 3000">
  <title>110Icon_neon 1</title>
  <g>
    <path d="M1450.59,2163.31c-59.74-104.81-132.87-204.92-217.35-297.54-84.32-92.44-178-173.45-278.4-240.78-95.3-63.9-192.21-112.62-288.05-144.82C472,1414.72,305.1,1426.94,209,1513.72c-56.16,50.72-87.1,140.85-87.12,253.79,0,55.81,7.46,115.33,22.21,176.9,15.41,64.36,38.46,129.48,68.49,193.55a1172.16,1172.16,0,0,0,117.71,197.12,1265.22,1265.22,0,0,0,170,187.44,2364.43,2364.43,0,0,0,239.82,190.25c80.27,55.5,161,103.62,239.95,143,78.49,39.18,153.25,68.77,222.22,87.95,60.32,16.78,115.28,25.29,163.33,25.29,8.19,0,16.29-.25,24.08-.74,65.5-4.15,115.61-25.48,149-63.41l.37.42,16.6-21.93-.2-.21c30.9-45.18,48.7-103.94,53-174.86,4.48-74.68-6.29-158.95-32-250.49C1549.2,2361.17,1506.88,2262.08,1450.59,2163.31ZM226.45,1533c49.62-44.81,122.33-68.5,210.28-68.5,67.54,0,142.16,13.56,221.78,40.31,139.79,47,282,129.76,411.73,239.71l-139.7,218.52c-12.81-3.41-28.88,1.14-45.62,5.87s-36,10.18-53.6,8.67c-52.94-4.51-96.7,5-133.79,29-34.69,22.47-59.32,55.26-78.83,84.38-3.91,5.83-13.66,13.18-23.08,20.3-11.7,8.82-25,18.82-33.94,30.61-8.61,11.3-12.33,22.94-11.12,34.75l-245.31,76.7c-100.11-157.24-157.38-333.81-157.35-485.82C147.92,1662,175.82,1578.74,226.45,1533Zm702.67,737.83c-21.07,19.83-100.58,11.33-134.55,7.7l-3.4-.37c-35.11-3.73-83.79-17-124-33.67-48.41-20.11-80-42.9-89-64.18-6.94-16.42,8.62-29.79,33.16-48.3,11.65-8.79,22.66-17.1,29-26.57,34.92-52.09,76.51-102.95,166.06-102.95,7.31,0,15,.34,22.76,1,22.36,1.91,43.88-4.18,62.89-9.56,10.5-3,30-8.5,32.8-5.18,15.74,19.08,21.23,59.42,26.07,95,3.07,22.63,6,44,11.37,59.88,5.24,15.42,4.74,40.38-1.31,65.14C954.47,2235.29,942.87,2257.89,929.12,2270.84ZM559.74,2201c15.45,24.37,48.14,47,97.42,67.51,42.36,17.6,93.88,31.54,131.25,35.52l3.41.36c20.38,2.18,48.29,5.17,75.51,5.17,31.2,0,54-4,69.17-12.34l584.24,588.64-.51.6c-28.63,33.35-73.11,52.15-132.2,55.89-101,6.39-241.72-32.61-396.38-109.81-160.17-79.95-324-193.82-473.95-329.31C441.4,2434.26,375,2357.86,320,2276Zm426.45,14c7.38-30.2,7.62-59.24.67-79.69-4.59-13.49-7.33-33.67-10.24-55-4.77-35.17-10.13-74.59-26.12-100.17l139.63-218.42a1568,1568,0,0,1,123.9,121.6c162,177.62,281.81,384.16,337.31,581.56,47.3,168.26,41.8,312.59-14.64,399.53L956,2279.93C969.19,2263.51,979.94,2240.56,986.19,2215Z"/>
    <path d="M2893.84,409.69l-1-3.14-42.91-41.28-1.34-1.3-72.65-37.23L2713.79,301l-50.92-17.5.06-.59-9-70.6-.25-2-29.43-64.81-30.33-45.94-45.33-46.26-55.76-29.83h-60.41l-54.31,22.1-2.13.87-56.32,50.86L2317.84,99l-39,79.74-1.18,2.39-4.55,83.72-.15,2.51,25.81,73.24-224,285.75c-2-1.49-3.94-3-5.9-4.55-27.73-22-51.3-29.87-72.06-24.23-35.93,9.75-54.16,56.65-77.26,116-29.66,76.25-66.57,171.15-153.35,225.61-108.39,68-269.71,47.51-376.47,33.92-34.29-4.36-63.93-8.13-85.26-8.16-100.65-4.55-210.61,10.49-326.85,44.71-92.76,27.31-189.73,66.84-288.23,117.48-167.8,86.28-283.3,176.08-284.45,177l-53.7,42,65.38-19.26c97.81-28.81,212.28-17.84,340.2,32.62,116.17,45.81,242.67,125,365.83,229.12,178.28,150.66,338.19,340.2,450.25,533.69,111.42,192.38,164.33,369,149,497.44l-6.5,54.43,30.25-45.7c.45-.68,45.39-68.69,98-161.74,48.58-85.9,113.75-211.23,148.37-320.54,52.8-171.3,81.78-363.66,109.8-549.68,14.12-93.71,28.71-190.59,46-281.45,23.82-47.46,71.95-90.28,122.87-135.58,51.51-45.83,104.78-93.22,137.09-149.74,17.87-31.26,27.65-62.16,29.89-94.46,2-28.59-1.92-57.22-11.95-87.31l160.13-210.71,29.31,12.41,87.53,17.86,2.29.47,81-12.53,54.27-35.22,41.76-53.52,1.17-1.51,19.7-52.54,6.73-53.75ZM2705.64,641.5l-82.7-16.86-49.6-21-41.93-28.33-14.57,21.53,44,29.75.31.13-146.65,193c-16.3-30.73-39.54-54-72.88-73.14-29.85-17.1-64.31-28.81-100.8-41.2-45.73-15.53-96.58-32.82-144.73-64.09l217.52-277.5,37.27,45.55L2371,392.83l-46.1-56.34-25.68-72.91,4.12-75.8L2339,114.91l51-46.1,47.49-19.32h48.8l46.45,24.83L2573.61,116l27.82,42.14,27,59.4,8.37,65.67-1.44,13.37-1.51,4.43,1,.34-3,28.17-9.79,28,24.53,8.6,10.78-30.78L2660,310l44.2,15.17L2765,350.35l68.3,35,36.77,35.37,13.09,40.6-5.62,44.94-17.26,46-37.79,48.44-45.83,29.79Zm-955,1930.81c-.08-59.28-11.51-125.45-34.14-197.42-27.53-87.54-70.77-181.25-128.53-278.52-56.2-94.66-123.65-188.57-200.47-279.12-77.58-91.45-161-175.09-248-248.59-61.32-51.82-123.5-97.71-184.82-136.39-64.07-40.41-127.41-73.07-188.25-97.06-84.27-33.24-164-50.09-236.93-50.09a447.69,447.69,0,0,0-59.29,3.87,2101.12,2101.12,0,0,1,231.16-138.78c152.24-78.27,380.29-169.45,602.29-159.32l.57,0c19.73,0,48.72,3.68,82.3,8,49.67,6.32,110.74,14.09,173.51,14.09,76.77,0,156.08-11.64,220-51.78,42-26.33,76.7-63.24,106.26-112.85,25.17-42.23,42.34-86.4,57.5-125.37,19.63-50.46,36.58-94,59.84-100.35,12.07-3.28,28.6,3.29,49.12,19.53,59.28,46.91,123.26,68.64,179.72,87.82,69.34,23.56,129.25,43.91,160,103.78C2421.15,900,2419,958,2385.65,1016.4c-30,52.67-82,98.88-132.2,143.57-53.44,47.54-103.91,92.44-129.7,145.1l-.37.75-.57,1.72-.16.81c-17.52,91.84-32.24,189.59-46.5,284.21-27.88,185.07-56.71,376.45-108.9,545.78-33.92,107.08-98.22,230.67-146.19,315.5C1793.73,2502.17,1768.52,2543.64,1750.62,2572.31Z"/>
  </g>
</svg>
