<svg xmlns="http://www.w3.org/2000/svg" viewBox="0 0 2994.91 3000">
  <title>120Icon_neon 1</title>
  <path d="M2810.45,944a1416.71,1416.71,0,0,0-751.76-751.76c-174.16-73.66-359.17-111-549.87-111s-375.7,37.35-549.87,111A1416.8,1416.8,0,0,0,207.19,944c-73.67,174.17-111,359.17-111,549.87s37.35,375.71,111,549.88A1416.8,1416.8,0,0,0,959,2795.46c174.17,73.66,359.17,111,549.87,111s375.71-37.35,549.87-111a1416.66,1416.66,0,0,0,751.76-751.76c73.67-174.17,111-359.17,111-549.88S2884.12,1118.12,2810.45,944Zm-1314.63,577L508.66,2453.34c-239.25-249.29-386.49-587.53-386.49-959.52,0-760.26,615-1379.57,1373.65-1386.58Zm0,35.76V2880.41c-378.13-3.49-720.58-159.11-969-408.48Zm26-.32,976.34,908.14c-249,253.71-594.45,412.39-976.34,415.92Zm0-35.5V107.24c758.64,7,1373.65,626.32,1373.65,1386.58,0,368.23-144.28,703.39-379.26,951.94Z"/>
</svg>
