<?xml version="1.0" encoding="utf-8"?>
<!-- Generator: Adobe Illustrator 24.0.2, SVG Export Plug-In . SVG Version: 6.00 Build 0)  -->
<svg version="1.1" xmlns="http://www.w3.org/2000/svg" xmlns:xlink="http://www.w3.org/1999/xlink" x="0px" y="0px"
	 viewBox="0 0 3000 3000" style="enable-background:new 0 0 3000 3000;" xml:space="preserve">
<style type="text/css">
	.st0{fill-rule:evenodd;clip-rule:evenodd;}
</style>
<g id="V1">
</g>
<g id="Layer_2">
	<path class="st0" d="M2721,895l-1462-2c-138.7-139-277.3-278-416-417L7,475c-0.3,695.7-0.7,1391.4-1,2087h2715
		c0.3-555.4,0.7-1110.7,1-1666C2721.7,895.7,2721.3,895.3,2721,895z M2036.5,1882.1c0,8.6-7,15.6-15.6,15.6h-479.6v479.6
		c0,8.6-7,15.6-15.6,15.6h-323.4c-8.6,0-15.6-7-15.6-15.6v-479.6H707.1c-8.6,0-15.6-7-15.6-15.6v-323.4c0-8.6,7-15.6,15.6-15.6
		h479.6v-479.6c0-8.6,7-15.6,15.6-15.6h323.4c8.6,0,15.6,7,15.6,15.6v479.6h479.6c8.6,0,15.6,7,15.6,15.6V1882.1z"/>
</g>
</svg>
