<svg id="V3" xmlns="http://www.w3.org/2000/svg" width="3000" height="3000" viewBox="0 0 3000 3000">
  <defs>
    <style>
      .cls-1 {
        fill-rule: evenodd;
      }
    </style>
  </defs>
  <g id="folder">
    <path id="_145" data-name="145" class="cls-1" d="M49.922,343l897.953,1.552Q1172.733,567.19,1397.63,789.873H2683.3c60.32,0,271.95-12.6,293.11,17.068,26.68,37.4,7.76,309.119,7.76,378.6V2226.69c0,72.34,19.73,375.52-7.76,412.74-20.5,27.77-486.62,15.52-569.17,15.52H659.414c-98.806,0-635.9,16.08-648.264-26.38V873.661c-0.388-81.509.235-390.626-1.866-486.186C13.192,359.276,30.028,344.853,49.922,343Zm31.017,71.375V1092.44q1415.806-.765,2831.891-1.55V861.248L1375.92,859.7Q1150.29,637.058,924.612,414.375H80.939Z"/>
  </g>
</svg>
