<svg id="end" xmlns="http://www.w3.org/2000/svg" width="3000" height="3000" viewBox="0 0 3000 3000">
  <defs>
    <style>
      .cls-1 {
        fill-rule: evenodd;
      }
    </style>
  </defs>
  <path id="_191" data-name="191" class="cls-1" d="M925.427,725.77L2371.59,727l621.18,619.842s0.82,504.9,1.23,757.32L2372.81,2724,7.153,2721.55s622.854-412.44,934.234-618.62H2372.81V1348.07c-482,1.64-1446.155,4.91-1446.155,4.91s8.992,436.55-8.593,451.69c-24.914,21.44-190.3-131.88-217.292-155.88Q354,1346.87,7.153,1044.9c-7.512-25.74,236.926-221.193,272.536-250.4L752.33,390.686C770.9,375.519,888.068,260.409,914.379,277.764,934.461,291.011,925.427,725.77,925.427,725.77Z"/>
</svg>
