<svg xmlns="http://www.w3.org/2000/svg" viewBox="0 0 2994.91 3000">
  <title>142icon 1</title>
  <g>
    <path d="M625.33,1938.21l-.56-.12q-19.17-3.91-38.35-7.77c-103-20.8-209.58-42.32-311.36-77.47-57.71-20.08-119.49-42.83-200.29-73.78l-.39-.15.07-.41C119,1532.19,258.25,1297.12,466.6,1116.6,566.35,1030.18,676.83,960.45,795,909.33c120.85-52.28,244-82.54,366.08-89.92l2.26-.14-2,1.08C753.89,1040,650.65,1614.64,625.37,1937.64ZM75.51,1778.28c80.61,30.88,142.27,53.59,199.88,73.62,101.72,35.14,208.23,56.64,311.23,77.44q18.9,3.81,37.8,7.66c8.75-111.54,23.73-219,44.52-319.26,24-115.77,55.9-222.61,94.82-317.56,92.74-226.24,225.66-387.6,395.09-479.63C651.1,852.42,165.51,1281.53,75.51,1778.28Z"/>
    <path d="M1312.87,2194.37q-67.68,0-134.47-2.38a3496.73,3496.73,0,0,1-361.3-31.93c-108.29-15.24-216-35.52-320.19-60.28-241.08-57.3-392.77-120.88-461.73-153.67l-.31-.15,3.75-40.56.62.24C432.77,2058.39,887.91,2137.11,1370,2137.11q151.15,0,305.49-10.36c235.73-15.87,505.93-60.45,741.32-122.31l.59-.15,2.69,42.26-.4.1c-186.8,48.25-364.78,83.7-544.11,108.4C1685.6,2181.2,1496.91,2194.37,1312.87,2194.37Zm-1276.94-249C251.08,2047.6,679.25,2173.22,1178.44,2191q66.42,2.37,133.7,2.37c355.41,0,727-49.5,1106.85-147.57l-2.56-40.22c-235.31,61.79-505.34,106.32-740.92,122.18q-152,10.23-302.27,10.23c-185.39,0-368-11.69-545.72-35-283-37.12-548.15-103.12-788-196.17Z"/>
    <path d="M1630.74,2008.49V2008c.51-77.88-40.49-146-118.57-197.11-69.76-45.63-165.48-75-269.5-82.78-109.7-8.17-215.33,8.36-297.41,46.55-92.29,42.94-147.4,109.88-159.37,193.58l-.08.5-.5-.08s-3.42-.55-30.8-5.41l-.45-.08,0-.45c9.5-128.29,23.95-240,44.17-341.39,24-120.48,55.71-225,96.88-319.64,45.76-105.14,103.85-197.36,172.67-274.11,75.53-84.24,166.88-153.12,271.49-204.74l.16-.08.17,0c9,1.87,16.84,3.1,24.38,4.29,9.51,1.5,19.35,3.05,32,5.89l.17,0,.11.14c38,47.6,74.59,94.28,104.47,142,42.71,62.16,76.35,129.32,102.82,205.28,23.49,67.4,40.69,140,52.58,222.1,22,152,21.72,310.78,21.43,464.35-.08,45.69-.17,92.92.36,138.57v.47l-6.41.45c-31.14,1.84-40.16,2.11-40.25,2.11ZM1188.1,1725c18,0,36.29.67,54.65,2,104.19,7.77,200.07,37.22,270,82.94,78.21,51.16,119.35,119.41,119,197.43,2.29-.08,12.64-.49,39.7-2.08l5.46-.39c-.52-45.51-.43-92.58-.35-138.11.59-310.87,1.2-632.33-176.67-891.18-29.83-47.67-66.35-94.28-104.3-141.81-12.49-2.81-22.26-4.35-31.71-5.85-7.51-1.18-15.26-2.4-24.27-4.25-459.94,227-554,727.64-584.47,1138.54,21.9,3.88,28.22,5,29.84,5.24,12.17-83.81,67.45-150.83,159.87-193.84C1013.34,1741.85,1098.18,1725,1188.1,1725Z"/>
    <path d="M1800.57,1994.72v-.56c-.32-28.07-.52-57-.72-84.88-2.54-358.88-5.17-730-234.5-1007.4-8.44-10.87-17.19-22-26.74-34l-1-1.21,1.49.42c107.93,30.4,211.8,79,308.72,144.37,94.34,63.64,180.22,141.89,255.26,232.58a1287.68,1287.68,0,0,1,184.83,298.73,1259.37,1259.37,0,0,1,97.46,342.83l.06.46-.45.1q-36.32,7.47-72.67,15c-167.28,34.71-340.25,70.61-511.21,93.44ZM1540.35,868.48c9.18,11.54,17.62,22.28,25.77,32.77,54.27,65.66,99.08,141.46,133.18,225.29,30.61,75.28,53.29,157.44,69.34,251.18,29.66,173.37,30.95,355.46,32.2,531.55.2,27.74.4,56.43.71,84.31,170.75-22.83,343.51-58.68,510.58-93.35q36.13-7.5,72.22-15C2320.07,1409,1973.16,991.14,1540.35,868.48Z"/>
    <path d="M2521.14,1986.68l-.08-.68c-24.19-206.45-74.62-377.44-154.17-522.74l-.26-.47.49-.22c58.44-26.56,126.08-49.17,201-67.22A1571,1571,0,0,1,2778.92,1360h0l3.09,0c59.37,0,109.41,25.43,141.16,71.83,20,29.17,31.86,65.49,34.41,105,2.61,40.49-4.73,83.38-21.21,124-33.88,71.15-91.82,134.89-177.13,194.91-75.4,53.06-162.38,95.81-237.51,130.63ZM2368,1463.26c79.37,145.14,129.73,315.89,153.95,521.94,172.62-80,342.1-174.83,413.52-324.75,32.81-80.9,27.79-168.3-13.12-228.07-32.1-46.92-83-72.25-143.38-71.38C2628.58,1375.74,2478.82,1413,2368,1463.26Z"/>
    <path d="M1425.12,774.5,1307,769.74l.3-.67c.13-.31,14.23-30.88,60.53-30.88,29.56,0,43.57,9.7,50.12,17.83,7.14,8.86,7.22,17.59,7.22,18Zm-116.62-5.7,115.6,4.65a31.33,31.33,0,0,0-7-16.85c-6.42-7.94-20.18-17.41-49.3-17.41C1326,739.19,1310.85,764.34,1308.5,768.8Z"/>
  </g>
</svg>
