<svg xmlns="http://www.w3.org/2000/svg" viewBox="0 0 2994.91 3000">
  <title>144icon 1</title>
  <g>
    <path d="M857.66,1491l-.2-.08L132.93,1229.75l2.52-6,.2-.07L855.23,960.05l.21-.08.2.1,504.16,266.31.84.44-.84.44L857.86,1490.93Zm-723.4-261.88L857.59,1490l500.9-263.13q-251.6-132.91-503.12-265.76L136.2,1224.58Z"/>
    <path d="M1500.87,1155.83l-.34-.19-485.3-269.06-.52-.29,2.67-3.28.12,0,469.86-179.38.18-.07,323,122.05-.51.54ZM1016.24,886l484.43,268.59L1808.81,826,1487.54,704.59,1018,883.85Z"/>
    <path d="M1704.22,1057.2l195.23-206.43,116.32,43.75v2.75l-.28.14-308.67,158.46Zm195.5-205.26L1709,1053.64l305.81-157v-1.45Z"/>
    <path d="M2494.73,2021.76l-.2-.27c-32.62-43.5-116.19-424.48-115.92-502.3v-.34l36.86-13.91.23.26c10.81,12.3,45.9,132.4,73.42,239.17,27.86,108.11,55.9,232.55,51.05,257.59l0,.16-.57.53c-8.1,7.5-8.1,7.5-18.71,11.65-3.71,1.46-24.9,7.13-25.81,7.37Zm-115.12-502.22c0,78.35,82.86,456.42,115.51,501.08,2.76-.74,22-5.91,25.3-7.22,10.51-4.11,10.51-4.11,18.47-11.49l.33-.3c4.67-25.24-23.3-149.21-51.07-257-32.08-124.46-63.32-226.49-73-238.5Z"/>
    <path d="M2163.49,1489c-23.71,0-148.92-61.12-260.54-119.58-114.45-59.93-242.1-131.41-257.61-147.29l-.47-.48.59-.31L2136.08,960l.21.08L2865.23,1224l.33.11v3.4l-700.28,261.33A8.62,8.62,0,0,1,2163.49,1489Zm-517-267.1c15.77,15.07,127.8,79,256.88,146.64,114.66,60,243.61,122.92,261.59,119.34l699.56-261.07v-2l-728.4-263.71Z"/>
    <path d="M1507.4,1750.75l-.19-.07q-239-92.54-478-185.08l-.32-.13v-6.15l.25-.14,469.7-268.09.24.14,474.09,268.16-2.37,6.12-.2.08Zm-477.49-186,477.48,184.88,462.66-184.92,1.89-4.91-473.08-267.6L1029.91,1559.9Z"/>
    <path d="M1448.69,2296.54c-53.72,0-106.19-2.08-155.26-6.31-67.86-5.85-126.87-15.47-175.39-28.61-52.13-14.11-90.71-31.94-114.67-53-17-15-32.33-44.41-45.54-87.56-11.91-38.93-21.63-88-28.09-142-13.12-109.56-11.41-220.67,4.48-290l.13-.54.52.18c182.19,62.07,567.77,185.7,577.52,188.82,11.58-4,526.78-183.77,574.37-210.29l.35-.2.27.31c24.2,28,17.54,196.42,14.92,247.39-6,115.91-19.12,222.51-29.35,237.64-38.35,56.68-169.7,103.22-360.37,127.68C1627.51,2291,1536.43,2296.54,1448.69,2296.54Zm-513.61-606.7c-15.52,68.2-17.23,181.57-4.35,289.08,13.79,115.16,41.19,200.75,73.3,229,23.85,20.95,62.3,38.71,114.27,52.78,48.47,13.12,107.42,22.73,175.22,28.57,129.15,11.13,281.85,7.43,418.93-10.16,190.39-24.42,321.48-70.8,359.67-127.25,10.14-15,23.24-121.38,29.18-237.13,6.94-135.07,1.55-227-14.42-246.38-50.14,27.42-569.07,208.39-574.32,210.22l-.15.06-.16,0C1508.33,1877.28,1118.91,1752.45,935.08,1689.84Z"/>
  </g>
</svg>
