<svg xmlns="http://www.w3.org/2000/svg" viewBox="0 0 2994.91 3000">
  <title>136icon 1</title>
  <g>
    <path d="M2840.48,2355.3H103.74l0-.47q-1.39-18.82-2.9-38.37c-10.4-136-22.18-290.16,2.9-418.28,48.37-247.09,141.84-460.53,277.8-634.39C515,1093.15,689.53,960.3,900.37,868.94c83.81-36.31,217.12-85.2,376.24-111.89,161.65-27.1,312.35-25,447.9,6.25,140.08,32.3,253.52,70.2,346.8,115.88l.1.06,11.81,9.93.12.14c58.9,106.57,125.95,223.9,126.62,225.08l.14.24-.14.25-325,578.88,579.18-344.19.25.13c.64.35,65.51,35.88,223.75,122.09l.1.08c4.09,3.85,7.88,13.58,8,14,63,107.08,104.71,235.06,127.42,391.18,19.41,133.46,24.9,289.74,16.79,477.78Zm-2735.81-1H2839.52c17.28-401.53-27.17-669.27-144.13-868-.07-.18-3.87-9.93-7.78-13.66-153.23-83.49-218.89-119.43-223.44-121.92l-581.9,345.81.92-1.63L2209,1114.64c-3.48-6.1-68.84-120.56-126.44-224.76l-11.69-9.83c-93.21-45.63-206.56-83.5-346.53-115.77-341.57-78.76-689.7,47.6-823.52,105.58C475.63,1054.07,200.35,1409.72,104.7,1898.37c-25.06,128-13.28,282.07-2.9,418Q103.29,2335.65,104.67,2354.3Z"/>
    <path d="M2901,1540l-116.21-65.9-2.39-1.51c-4.66-2.91-4.66-2.91-4.74-3-37.58-88.48-144.92-230.77-273.51-362.58-142.33-145.9-276.31-244.8-367.57-271.36v-.06c-.65-.14-2.34-.81-7.27-2.73-1.71-.67-7.38-2.89-8.4-3.35l-.14-.06-.08-.14c-18.87-32-34.47-58-49.56-83.08s-30.53-50.82-49.3-82.66l-.13-.23.21-.44.22-.07c.57-.18,2-.58,233.89,132,111.91,64,224.92,128.84,231.16,132.43,9.87-6.29,281.11-179,408.73-256.16l1-.6-.23,1.12c-11.12,53.91-249.77,401.37-257.77,413,13.11,20.91,264.53,422.48,262.17,454.64Zm-122.53-71c.54.35,2.87,1.8,4.46,2.8l2.41,1.51,114.73,65.06c-1.73-37.67-259.58-449.3-262.2-453.49l-.18-.27.19-.27c2.45-3.56,243.32-353.8,257.55-411.77-129.75,78.53-405.18,253.94-408,255.7l-.25.16-.26-.15c-4.48-2.56-436.79-250.77-463.5-263.93,18.42,31.26,33.73,56.73,48.54,81.38,15.07,25.07,30.64,51,49.47,82.95,2.17.94,14.59,5.75,15.35,6h0c91.43,26.6,225.57,125.6,368,271.62C2633.46,1238.12,2740.84,1380.45,2778.46,1469Z"/>
  </g>
</svg>
