<svg xmlns="http://www.w3.org/2000/svg" viewBox="0 0 2994.91 3000">
  <title>72icon 1</title>
  <g>
    <polygon points="201.83 2899.97 1234.5 2732.28 1234.17 2733.05 764.63 2028.03 764.18 2027.36 764.99 2027.26 1754.2 1909.46 1753.83 1910.21 1345.84 1210.47 1345.5 1209.89 1346.15 1209.73 2350.07 959.01 2349.81 959.82 1965.09 498.64 1964.63 498.1 1965.3 497.85 2795.69 198.8 2795.86 199.28 1965.64 498.79 1965.86 498 2350.58 959.18 2351.09 959.79 2350.32 959.98 1346.39 1210.7 1346.7 1209.97 1754.69 1909.71 1755.07 1910.36 1754.32 1910.45 765.11 2028.25 765.47 2027.48 1235 2732.5 1235.43 2733.15 1234.66 2733.27 201.99 2900.96 201.83 2899.97"/>
    <polygon points="428.41 2945.87 462.65 2901.7 463.44 2902.32 428.45 2945.91 428.41 2945.87"/>
    <rect x="398.43" y="2616" width="593.45" height="1" transform="translate(-1793.2 1549.99) rotate(-51.92)"/>
    <rect x="887.62" y="2177.35" width="311.95" height="1" transform="translate(-1308.95 1632.27) rotate(-51.34)"/>
    <rect x="1113.68" y="1803.64" width="437.35" height="1" transform="translate(-909.5 1739.37) rotate(-51.9)"/>
    <rect x="1443.35" y="1360.77" width="438.84" height="1" transform="translate(-393.91 1984.11) rotate(-56.15)"/>
    <rect x="1750.4" y="938.78" width="396.5" height="1" transform="translate(-21.09 1833.48) rotate(-50.15)"/>
    <rect x="2065.6" y="563" width="351.67" height="1" transform="translate(478.64 2058.21) rotate(-54.41)"/>
    <polygon points="2585.08 101.61 2395.9 343.63 2395.11 343.01 2584.75 101.36 2585.08 101.61"/>
  </g>
</svg>
