<svg xmlns="http://www.w3.org/2000/svg" viewBox="0 0 2994.91 3000">
  <title>32icon 1</title>
  <path d="M1497.45,2889.77l-13.4-3.27c-52.5-12.47-209-83-273.89-112.68-115-52.7-228.35-108.19-263.69-129.07-53.9-31.83-116.05-69.32-171.62-111.41-59-44.67-105.42-90.61-141.94-140.42C570.73,2308.1,515.14,2204.68,463,2076.75c-46.56-114.2-85.63-235.38-124.86-359.85-56.52-179.36-133.92-457.42-181.65-763.55C106.81,634.82,99.58,354.2,135,119.27l.08-.52.52.11c1.81.39,184.38,39.17,442.33,78.69,238.07,36.47,590.86,81,919.55,86.25,328.68-5.21,681.47-49.78,919.54-86.25,257.95-39.52,440.51-78.3,442.32-78.69l.52-.11.08.52c35.4,234.93,28.17,515.55-21.49,834.08-47.74,306.13-125.14,584.19-181.66,763.55-39.23,124.47-78.3,245.66-124.86,359.85-52.15,127.93-107.74,231.35-169.92,316.17-36.52,49.81-82.95,95.75-141.94,140.42-55.57,42.09-117.72,79.58-171.62,111.41-35.34,20.88-148.71,76.37-263.69,129.07-64.86,29.72-221.38,100.21-273.89,112.68ZM135.89,120C51.57,680.59,227,1360.9,339.08,1716.6c67.45,214,151.39,480.33,294.63,675.73C713.16,2500.7,827.23,2573.16,947,2643.89c35.32,20.86,148.64,76.33,263.6,129,64.83,29.71,221.28,100.17,273.7,112.61l13.17,3.22,13.17-3.21c52.42-12.45,208.87-82.91,273.7-112.62,115-52.69,228.28-108.16,263.6-129,119.75-70.73,233.82-143.19,313.27-251.56,143.24-195.39,227.18-461.73,294.63-675.73C2767.91,1360.9,2943.33,680.6,2859,120c-11,2.32-190.7,40.11-441.86,78.59-238.1,36.47-590.94,81-919.69,86.26-328.77-5.21-681.61-49.79-919.71-86.26C326.59,160.06,146.89,122.27,135.89,120Z"/>
</svg>
