<svg xmlns="http://www.w3.org/2000/svg" viewBox="0 0 2994.91 3000">
  <title>154icon 1</title>
  <path d="M877.65,2662.49a139.39,139.39,0,0,1-73.34-20.87c-36.48-25.24-60.89-65.43-63.73-104.92-2.3-32,9.66-61.21,34.59-84.36,44.68-36.73,72.42-44.19,99.24-51.41,26-7,50.49-13.59,87.59-47.55,35.36-32.36,66-70.59,91.32-113.09q8.29-16.41,17.67-31.93c61.61-120.36,84-269.06,57.73-414.19-31.81-175.61-127.36-307.45-262.14-361.72-62.07-23.46-172.7-37.51-288.78-36.64-122.16.91-223.47,18.61-271,47.34-5.11,4.11-9.79,8-14.32,11.78-26.64,22.15-44.23,36.78-87.71,44.26-21.68,3.73-44.76-.84-66.75-13.22-20.41-11.5-38.87-29.36-52-50.29-12.23-19.54-19.28-40.72-20.38-61.24a95.55,95.55,0,0,1,17.69-61.54c86.08-119.88,158.07-74,249.21-15.91,44.88,28.6,95.75,61,155.1,77.28,81.28,22.27,204.32,17,321.13-13.63,134.25-35.27,238.83-97.61,294.47-175.55,33.3-46.66,57.63-122.39,68.49-213.23,10.91-91.21,6.67-184.85-12-263.67A459.54,459.54,0,0,0,1136,634.1c-6-11.19-11.42-22.27-16.07-32.84-20.78-36.86-46.58-63.85-76.65-79.77-66.08-35-102.77-78-98.13-115.14,3.83-30.72,35.15-54.07,90.57-67.55h.1c30.17-1.15,81.9,16.86,100.53,53.65,7.1,14,9,29.68,5.53,46.55-3.91,19.21-14.74,40.09-32.18,62.06-15.45,19.47-6.93,58.52,11.07,99.68A329.52,329.52,0,0,1,1137.05,634c7.14,13.29,14.87,26.29,22.7,38.44,45.54,70.67,110.1,105.17,181.78,97.12,82.06-9.2,160.1-72.58,189.79-154.13,25.51-70.1,10.5-139.23-42.27-194.64-14.81-15.55-10.93-27.42-5.07-34.64,17.62-21.7,74.89-29.51,100.46-13.69,9.1,5.63,18,16.65,8.66,37.21-73.4,161.74-67.45,321.36,16.32,437.94,67.33,93.71,178.3,144.89,289.63,133.57,80.15-8.15,229.84-55.89,331.87-284.11,10.86-24.3,13.19-52.68,15.44-80.13,3.18-38.81,6.19-75.46,31.6-100.31,72.65-55.41,128.66-41.06,155.58-27.57,41.44,20.76,69,66.52,68.53,113.87-.46,47.8-28.66,88.55-77.36,111.79l-.17,0c-59.44,6-85.59,20.77-137.69,50.14-5.93,3.34-12.19,6.87-18.86,10.59-237,132.13-370.54,422.91-324.75,707.12,42,260.74,220.59,445.78,477.72,495,21.46,4.11,43.3,9.48,66.43,15.17,34.77,8.55,70.72,17.4,105.37,21.62,40.9,10.57,80.86,6.2,119.51,2,48.12-5.27,93.57-10.24,138.69,12.16,66.42,36.73,101.88,91.73,99.87,154.88-1,32.23-11.93,64.38-31.53,93a194.67,194.67,0,0,1-77.25,65.95,184.34,184.34,0,0,1-100.32,16.46c-38.65-4.52-76.45-20.83-112.35-48.47-31.55-25.47-53.55-72.64-54.78-117.4-92.48-181.22-346.85-248.63-529.55-207.16-141.37,32.1-224.16,119-227.15,238.32v.48h-2.6l-.12-.32c-48.41-131.77-183.67-221.22-344.6-227.89-131.2-5.42-298.24,48.21-397.12,209.82q-9.56,18.91-20.35,36.79-3.09,6.2-6,12.57c-20,43-35.78,92.6-43.35,136.1-6.11,35.13-9.65,82.44,8.23,108.35l.07.14c7.47,25.26,6.7,51.17-2.23,74.93-8.28,22-23.25,41.81-43.29,57.16a148.57,148.57,0,0,1-76.9,29.77C885.6,2662.32,881.61,2662.49,877.65,2662.49Zm170.2-411a499.15,499.15,0,0,1-85.17,102.65c-37.28,34.12-61.92,40.75-88,47.77-26.72,7.19-54.35,14.63-98.84,51.2-24.68,22.92-36.53,51.82-34.25,83.54,2.81,39.19,27.06,79.1,63.28,104.15,50.12,30.81,113.33,27.14,161-9.37,42.18-32.3,59.49-82.46,45.19-130.93-18-26.21-14.48-73.74-8.34-109,7.58-43.58,23.41-93.28,43.42-136.35C1046.7,2253.89,1047.27,2252.68,1047.85,2251.47Zm1109.29-278.82A570.1,570.1,0,0,1,2346.2,2005c50.65,18,95.74,42.55,134,73,41.12,32.65,73.19,71.23,95.32,114.64l.06.21c1.18,44.52,23.05,91.44,54.4,116.76,67.46,51.94,144.6,63.56,211.63,31.89,62.65-29.6,106.13-93.12,108.2-158,2-62.76-33.28-117.43-99.33-154-44.84-22.26-90.15-17.31-138.12-12.06-38.74,4.24-78.8,8.62-119.8-2-34.65-4.23-70.63-13.08-105.43-21.64-23.11-5.68-45-11-66.38-15.15-68.77-13.17-132.45-35.9-189.26-67.57a556.24,556.24,0,0,1-142.37-113.17c-76.54-84.78-127.34-193.73-146.89-315.09-21.51-133.53-3.55-275.72,50.57-400.36,58-133.48,152.94-239.92,274.68-307.8,6.68-3.72,12.93-7.24,18.86-10.58,52.2-29.42,78.41-44.2,138-50.26,48.3-23.07,76.26-63.48,76.72-110.86.45-47-26.87-92.37-68-113-26.71-13.38-82.3-27.61-154.48,27.44-25.1,24.54-28.09,61-31.26,99.63-2.25,27.53-4.59,56-15.52,80.46-39.52,88.39-90.52,158.19-151.59,207.46-54.57,44-117.19,70.74-181.09,77.24a311.49,311.49,0,0,1-162.55-27.48c-50.51-23.43-94.77-60.26-128-106.5-38.95-54.22-62-120.4-66.7-191.39-5.23-79.2,11.69-162.49,50.29-247.55,7.14-15.75,4.29-28.18-8.27-35.95-25.25-15.62-81.78-7.94-99.16,13.47-8,9.9-6.31,21.43,5,33.32,27.67,29.05,45,61.75,51.61,97.19,6,32.25,2.91,65.38-9.13,98.48-14.22,39-40.84,76-75,103.92-34.55,28.31-75.63,46.38-115.65,50.87-34.06,3.82-66.54-1.77-96.56-16.61-33.11-16.38-62.1-43.62-86.17-81-6.54-10.14-12.77-20.54-18.55-30.91A473.61,473.61,0,0,1,1160.78,708c18.65,78.94,22.9,172.7,12,264-10.88,91-35.27,166.9-68.67,213.69-55.77,78.13-160.55,140.61-295,175.94-117,30.72-240.21,35.94-321.64,13.63-59.5-16.31-110.43-48.77-155.37-77.41-46.25-29.47-86.18-54.92-126.07-58.63-43.76-4.08-82.48,19.52-121.8,74.28-24.56,34.21-23.54,79.69,2.73,121.67,23.42,37.43,68.9,71.45,117.7,63.06,43.21-7.44,60.73-22,87.24-44,4.53-3.77,9.22-7.67,14.38-11.83,25.16-15.21,63.5-27.11,114-35.4,45.68-7.5,100.17-11.69,157.59-12.12,116.14-.85,227,13.21,289.14,36.71,69.51,28,128.23,75.88,174.55,142.37,42.74,61.35,73.25,137.46,88.21,220.1a679.71,679.71,0,0,1-14,302.59,606.77,606.77,0,0,1-38.06,101,448.71,448.71,0,0,1,48.39-62.7,430,430,0,0,1,103.61-82.14c72.45-41.08,155.75-60.93,240.92-57.4,76.93,3.19,149.64,25.26,210.29,63.83,63.66,40.49,110.37,97.33,135.09,164.38h.92c1.67-62.2,24.49-115.21,67.83-157.55,39.14-38.24,94.5-66.33,160.09-81.22A509.18,509.18,0,0,1,2157.14,1972.65ZM1035.92,339.79c-55,13.37-86,36.43-89.77,66.69-4.58,36.67,31.91,79.33,97.6,114.12,28.31,15,52.85,39.72,73,73.2q-3-7.27-5.47-14.1c-13.48-37.58-14.27-64.25-2.34-79.27,32.82-41.34,41.75-77.52,26.54-107.54C1117,356.5,1065.84,338.68,1035.92,339.79Z"/>
</svg>
