<svg xmlns="http://www.w3.org/2000/svg" viewBox="0 0 2994.91 3000">
  <title>134icon 1</title>
  <path d="M1500,2884.57c-186.92,0-368.24-36.61-538.94-108.81a1388.64,1388.64,0,0,1-736.82-736.82c-72.2-170.7-108.81-352-108.81-538.94S152,1131.76,224.24,961.07A1388.71,1388.71,0,0,1,961.06,224.24c170.7-72.2,352-108.8,538.94-108.8s368.24,36.6,538.94,108.8a1388.68,1388.68,0,0,1,736.82,736.83c72.2,170.69,108.81,352,108.81,538.93s-36.61,368.24-108.81,538.94a1388.73,1388.73,0,0,1-736.82,736.82C1868.24,2848,1686.91,2884.57,1500,2884.57Zm0-2768.13C737.1,116.44,116.43,737.1,116.43,1500S737.1,2883.57,1500,2883.57,2883.57,2262.9,2883.57,1500,2262.9,116.44,1500,116.44Z"/>
</svg>
