<svg xmlns="http://www.w3.org/2000/svg" viewBox="0 0 2994.91 3000">
  <title>132icon 1</title>
  <g>
    <path d="M1544,2441.53a896,896,0,0,1-354.54-72.44A907.42,907.42,0,0,1,900,2171.55a919.42,919.42,0,0,1-195.2-293c-47.5-113.64-71.58-234.35-71.58-358.79s24.08-245.15,71.58-358.79A919.27,919.27,0,0,1,900,868a907.28,907.28,0,0,1,289.52-197.55,903.85,903.85,0,0,1,709.09,0A907.28,907.28,0,0,1,2188.1,868a919.44,919.44,0,0,1,195.2,293c47.49,113.64,71.58,234.35,71.58,358.79s-24.09,245.15-71.58,358.79a919.59,919.59,0,0,1-195.2,293,907.42,907.42,0,0,1-289.52,197.54A896,896,0,0,1,1544,2441.53ZM1544,599c-501.69,0-909.84,413.06-909.84,920.77s408.15,920.77,909.84,920.77,909.85-413.06,909.85-920.77S2045.72,599,1544,599Z"/>
    <path d="M1540,1986.57a460.55,460.55,0,1,1,179.83-36.3A459.17,459.17,0,0,1,1540,1986.57Zm0-923c-254.2,0-461,206.81-461,461s206.81,461,461,461,461-206.8,461-461S1794.16,1063.56,1540,1063.56Z"/>
    <path d="M2105.52,599.08l-.27-.14c-2.06-1.08-207.85-108.22-360.45-146.37-79.7-19.92-193.75-17.79-275.39-12.49-88.48,5.74-159,16.33-159.69,16.44l-.31,0-89.8-128.41.79-.61,101,119.16,119.15-157.78,147.59,51.82,234.35-174.83.24.61,99.42,254.66,215.29-138.5v.94l-5.23,260L2404.15,381.3l.55.83Zm-530.4-163.64c59.3,0,121.05,3.94,169.93,16.16,150.14,37.54,351.7,141.79,360.39,146.31l289.61-210L2131.18,545.41l0-.9,5.23-260L1921.68,422.68l-.22-.57L1822.05,167.5,1588.34,341.86,1440.93,290.1,1321.46,448.3l-.4-.48-94.47-111.44,83.28,119.1c5.17-.77,73.94-10.85,159.47-16.4C1501,437,1537.58,435.44,1575.12,435.44Z"/>
    <path d="M123.36,1677.08l235-169.66L161,1257.61l.51-.29L464.34,1084,250.92,943.5,471,1013.09l-91.6-222.44,284.54-61.74L569.21,407.48l212,336.25L781,744c-.89.91-90.51,91.91-152.71,177.75-72.6,100.2-157.72,342.71-182.15,519-6.37,46-7.85,158.75-7.86,159.89v.39l-.37.09Zm39.17-419.18,197.28,249.72-.42.31-231.32,167,309.19-74.7c.11-7.36,1.68-115,7.87-159.63,24.45-176.39,109.65-419.11,182.33-519.42C688,837.66,774.4,749.28,780,743.59L572.2,414.1l93,315.55-.53.12-283.9,61.6,92,223.32L257.49,946.62l208.76,137.45Z"/>
    <path d="M2837.75,1582l-222.33-16.27v-.48c0-1.18,2.56-118.9,1.75-172.17-.9-59.66-29.27-190.48-49.79-244.57-24.42-64.41-73.69-115.57-74.18-116.08l-.28-.29,99.11-150,.87.48-66.26,148.92,188.62-41.41-168.6,96.39,351.52,91.29-.73.63-250.69,214.31,226.05,42.37-120.44,125.47L2837.9,1581Zm-221.31-17.2,215.21,15.75-81.2-19.37.6-.63,119.77-124.77-226.29-42.41,251.56-215L2544,1086.84l165.05-94.36-184.16,40.43,64.61-145.22L2494.2,1032c4.05,4.26,50.58,54,74.13,116.13,20.54,54.17,49,185.16,49.85,244.91C2619,1444.58,2616.62,1556.49,2616.44,1564.75Z"/>
    <path d="M2076.45,2606.45l-1-.18,17.3-165.53.2-.13c2.15-1.42,215.68-142.73,266.52-191.37,52.35-50.09,149.87-223.64,150.85-225.39l.23-.41.42.21,225,108.41-192.05,4.4,38.46,233.39-256.26-.87-39.39,237.21-.65-.42-179.47-119.09ZM2106,2485.07l180,119.44L2325.32,2368l255.93.87-38.45-233.36,189-4.34L2511,2024.75c-5.35,9.5-99.58,176.21-150.8,225.22-50.22,48-258.85,186.31-266.47,191.34l-16.52,158.12Z"/>
    <path d="M1250.85,2816.16l-.59-.71L1128.13,2668l-231.4,102.3.19-.94,41.73-205.08-249.84-37.21.21-.58,75.66-207.84-231.79,93.59,92.75-189.89-266.81,64.91,296.69-145.8.25.28c1.77,1.92,177.59,192.57,226.34,235.08,26.08,22.74,127.36,101.24,201,143.29,42.6,24.34,236.52,64.23,238.47,64.63l.54.11ZM1128.42,2666.8l.24.29,121.78,147,70.36-228.47c-11.45-2.37-196.61-40.85-238.23-64.63-73.66-42.09-175-120.65-201.11-143.4C833.52,2335.8,663,2151,655.29,2142.71L367.47,2284.15l260-63.25-.46.95-92.08,188.51,231.46-93.46-76.22,209.38,249.67,37.19-.11.51-41.64,204.65Z"/>
  </g>
</svg>
