<svg xmlns="http://www.w3.org/2000/svg" viewBox="0 0 2994.91 3000">
  <title>94icon 1</title>
  <g>
    <path d="M1141,2299.33a996.63,996.63,0,0,1-398.21-82.27c-121.83-52.72-231.24-128.21-325.19-224.35A1045,1045,0,0,1,198.31,1660c-53.34-129.06-80.39-266.16-80.39-407.48S145,974.05,198.31,845A1045,1045,0,0,1,417.56,512.23c93.95-96.15,203.36-171.63,325.19-224.36a1004.88,1004.88,0,0,1,796.43,0C1661,340.6,1770.42,416.08,1864.37,512.23A1045,1045,0,0,1,2083.62,845C2137,974.05,2164,1111.14,2164,1252.47S2137,1530.89,2083.62,1660a1045,1045,0,0,1-219.25,332.76c-93.95,96.14-203.36,171.63-325.19,224.35A996.65,996.65,0,0,1,1141,2299.33Zm0-2092.73c-563.55,0-1022,469.18-1022,1045.87S577.41,2298.33,1141,2298.33,2163,1829.16,2163,1252.47,1704.52,206.6,1141,206.6Z"/>
    <rect x="2425.8" y="1685.02" width="1" height="1290.78" transform="translate(-920.3 2673.93) rotate(-49.71)"/>
    <polygon points="2382 2786.74 2381.93 2785.74 2918.01 2747.32 2859.04 2203.94 2860.03 2203.83 2919.11 2748.25 2918.6 2748.28 2382 2786.74"/>
  </g>
</svg>
