<svg xmlns="http://www.w3.org/2000/svg" viewBox="0 0 2994.91 3000">
  <title>92icon 1</title>
  <g>
    <path d="M1309.47,2347.88a689.94,689.94,0,0,1-274.75-56.55,702.9,702.9,0,0,1-224.35-154.22A718.08,718.08,0,0,1,659.1,1908.37a735.08,735.08,0,0,1,0-560.21,718,718,0,0,1,151.27-228.73,702.74,702.74,0,0,1,224.35-154.22,695.58,695.58,0,0,1,549.49,0,702.78,702.78,0,0,1,224.36,154.22,718.18,718.18,0,0,1,151.26,228.73,735,735,0,0,1,0,560.21,718.22,718.22,0,0,1-151.26,228.74,702.94,702.94,0,0,1-224.36,154.22A689.89,689.89,0,0,1,1309.47,2347.88Zm0-1438.23c-388.65,0-704.83,322.37-704.83,718.62s316.18,718.61,704.83,718.61,704.83-322.37,704.83-718.61S1698.11,909.65,1309.47,909.65Z"/>
    <rect x="929.79" y="110.6" width="1" height="864.25" transform="translate(-125.95 332.14) rotate(-18.98)"/>
    <polygon points="620.46 430.77 619.6 430.27 789.52 133.44 789.94 133.65 1105.69 290.45 1105.25 291.35 789.92 134.76 620.46 430.77"/>
    <rect x="2064.68" y="2068.4" width="1" height="949.07" transform="translate(-1185.7 2138.91) rotate(-43.83)"/>
    <rect x="1851.65" y="2655.76" width="651.34" height="1" transform="translate(-1244.69 2362.44) rotate(-45.75)"/>
  </g>
</svg>
