<svg xmlns="http://www.w3.org/2000/svg" viewBox="0 0 2994.91 3000">
  <title>30icon 1</title>
  <path d="M2873.09,1777.19a642.2,642.2,0,0,0-258.46-403.57A627.85,627.85,0,0,0,2393.92,1274l-6.5-175.1c62.8-24.45,96.76-94,76.12-159.18L2449.71,896c-20.23-63.87-85.85-101-150.07-87.2l-79.41-126.62.44-.44c52.43-52.43,52.43-137.73,0-190.15L2196,466.87a134.5,134.5,0,0,0-173.25-14.34L1898.07,417l.1-2.16A138.43,138.43,0,0,0,1766.47,270l-27-1.28c-65.5-3.12-122.74,40.09-139.83,100.71l-122.52,30.28-3.55-6.52a128.93,128.93,0,0,0-174.69-51.52l-40.67,22.14a128.78,128.78,0,0,0-51.52,174.69l11.6,21.33q-14.64-9.12-29.87-17.49l-57.83-31.75a619.34,619.34,0,0,0-237.23-73.8A633.09,633.09,0,0,0,439.74,568.86,619.28,619.28,0,0,0,279.2,758.46L195.65,910.63a619.51,619.51,0,0,0-73.8,237.23A633.21,633.21,0,0,0,253.92,1601.5,619.2,619.2,0,0,0,443.53,1762l57.83,31.75a619.3,619.3,0,0,0,237.22,73.81,633.22,633.22,0,0,0,453.65-132.07,619.31,619.31,0,0,0,160.54-189.61l83.54-152.16a619.22,619.22,0,0,0,73.8-237.23A630.4,630.4,0,0,0,1332.3,651l107.48-50.55c52.4-28.53,77.09-88.42,63.5-143.82L1594,434.76c5,68.86,60.86,124.88,131.5,128.24l27,1.28q3.38.16,6.73.16a138.7,138.7,0,0,0,128.25-86.53l85.31,24.74a134.53,134.53,0,0,0,14.85,172.55l24.73,24.73a134.63,134.63,0,0,0,190.15,0l17-17L2298.61,809q-5.46,1.22-10.89,2.92l-34.83,11a130.33,130.33,0,0,0-13.21,5l-65.53-105.54-.85.53,65.45,105.42C2180,854.91,2148.91,922,2168.85,985l13.83,43.66A128.56,128.56,0,0,0,2326.62,1117l4.66,143.16a628,628,0,0,0-246-2.58A642.18,642.18,0,0,0,1681.71,1516a628.12,628.12,0,0,0-101.9,230.48l-33.32,152a628.07,628.07,0,0,0-3.86,252,642.14,642.14,0,0,0,258.46,403.57A628,628,0,0,0,2031.57,2656l46.9,10.28a636.86,636.86,0,0,0,757.44-485.08l33.33-152A628.07,628.07,0,0,0,2873.09,1777.19ZM1435.44,1393.28l-83.55,152.16c-80.14,146-213,252.18-374,299.06s-330.1,28.56-476.07-51.58L444,1761.17C141.42,1595,30.4,1213.7,196.53,911.11L280.08,759C393.87,551.67,608.62,434.3,829.89,434.3a622.3,622.3,0,0,1,300.24,77.17L1188,543.22q16,8.81,31.33,18.4l0,.09.06,0C1498.06,736.28,1595.68,1101.41,1435.44,1393.28Zm3.89-793.75-107.77,50.68A617.39,617.39,0,0,0,1220,560.91L1207.59,538a127.78,127.78,0,0,1,51.12-173.33l40.67-22.14a127.78,127.78,0,0,1,173.33,51.12l3.42,6.29-.39.09.24,1,.65-.16,13.8,25.33C1524.12,488.09,1501.19,565.85,1439.33,599.53ZM1503,455.63a128.53,128.53,0,0,0-11.74-29.9l-13.67-25.11,121.74-30.08a137.85,137.85,0,0,0-4.73,29.88l-.84,17.73a137.34,137.34,0,0,0,.14,15.6Zm348.47,72.06a136.53,136.53,0,0,1-99,35.6l-27-1.29c-75.7-3.59-134.35-68.11-130.76-143.8l.85-17.73c3.6-75.7,68.07-134.36,143.8-130.76l27,1.29a137.42,137.42,0,0,1,130.75,143.8l-.84,17.73A136.53,136.53,0,0,1,1851.51,527.69ZM1887.83,477a138.6,138.6,0,0,0,9.5-44.4L1898,418l123.65,35.23a136.76,136.76,0,0,0-15.87,13.6l-18.18,18.18a136.38,136.38,0,0,0-14.23,16.74Zm314,222.24c-52,52-136.7,52-188.74,0l-24.72-24.73A133.5,133.5,0,0,1,1973.79,503l.22.06.19-.63a134.45,134.45,0,0,1,14.13-16.62l18.18-18.18a133.45,133.45,0,0,1,188.73,0L2220,492.31c52,52,52,136.7,0,188.73Zm44.94,404.11a127.18,127.18,0,0,1-63.09-75l-13.84-43.66c-21.32-67.3,16.09-139.4,83.39-160.73l34.84-11a128,128,0,0,1,160.73,83.39L2462.59,940c21.32,67.3-16.09,139.41-83.39,160.73l-34.83,11A127.21,127.21,0,0,1,2246.73,1103.33Zm80.88,13.51a131.62,131.62,0,0,0,17.06-4.15l34.83-11q3.52-1.11,6.93-2.42l6.48,174.48c-2.91-.68-5.83-1.35-8.75-2l-46.91-10.28c-1.65-.36-3.31-.7-5-1ZM2868.26,2029l-33.32,152c-36.17,165-135,306.39-278.24,398.13-104,66.62-222,101-342,101a635.59,635.59,0,0,1-136-14.8L2031.78,2655c-165-36.16-306.39-135-398.13-278.23s-122.36-313-86.19-478l33.33-152c36.16-165,135-306.39,278.23-398.14,104-66.61,222-101,342-101A635,635,0,0,1,2337,1262.42l46.91,10.28c165,36.17,306.39,135,398.14,278.23S2904.43,1864,2868.26,2029Z"/>
</svg>
