<svg xmlns="http://www.w3.org/2000/svg" viewBox="0 0 2994.91 3000">
  <title>172icon 1</title>
  <path d="M1488.36,2951.45c-58.93,0-104.45-3.13-143.24-9.84-21-3.63-41.79-5.79-61.87-7.89-29-3-56.33-5.87-83.62-12.75C1076.87,2890,975.26,2855.62,889,2815.8c-190.43-87.91-353.36-209.92-484.28-362.65-131.37-153.25-231.4-338.48-297.29-550.54-17.67-56.88-28.92-117.13-40.82-180.92q-2.17-11.67-4.4-23.53l-10.82-132.7C41,1499.4,47.59,1416,57.28,1360l9.83-90.37,3.43-16.49c18.44-88.63,35.86-172.34,66.37-250.92C218.14,793,332.73,613.47,477.5,468.55c148-148.15,328.78-261.3,537.33-336.31,90-32.38,183.71-50.76,288-69.79l132.72-11.79,48.18-2c112.41-1.54,218.91,9.7,325.61,34.38,87.32,20.2,175.37,49.79,269.18,90.46,180,78,337.18,185,467.13,318.09,131.57,134.69,234.71,295.56,306.58,478.13,38.18,97,61.41,198.65,84.54,321.42q4.42,48.19,8.85,96.34c12.17,74.89,10.55,184.87-3.93,267.41-3.33,19-5.09,37.56-6.8,55.55-2.12,22.45-4.13,43.65-8.93,65.34-26.39,119.25-52.76,206.86-85.53,284.07-83.06,195.76-200.22,364.64-348.21,501.95-148.51,137.8-328.38,244.09-534.61,315.89-79.88,27.82-164.62,43.32-254.34,59.73l-1.26.23-166.14,13.77h-47.54ZM1483.79,49.69l-48.15,2L1303,63.44c-104.23,19-197.86,37.39-287.83,69.74C598.88,282.9,303.71,575.39,137.85,1002.54,107.36,1081,90,1164.72,71.52,1253.31l-3.43,16.43-9.82,90.36c-9.68,56-16.31,139.27-5.9,205.24L63.19,1698q2.22,11.78,4.39,23.48c11.9,63.76,23.14,124,40.79,180.8C241.25,2330,504,2637,889.41,2814.89c86.21,39.8,187.77,74.18,310.47,105.11,27.21,6.87,54.54,9.71,83.48,12.73,20.09,2.09,40.87,4.26,61.93,7.9,38.73,6.7,84.2,9.82,143.07,9.82h47.5l166.05-13.76,1.21-.22c89.68-16.41,174.38-31.9,254.19-59.69,411-143.11,716.08-425.73,882.23-817.29,32.74-77.16,59.1-164.71,85.47-283.89,4.79-21.63,6.79-42.81,8.92-65.23,1.7-18,3.47-36.62,6.8-55.62,14.47-82.45,16.09-192.29,3.93-267.11q-4.42-48.21-8.85-96.33c-23.11-122.67-46.33-224.26-84.48-321.2-143-363.24-410.34-638.38-773.17-795.67-127.59-55.3-328-128.42-594.38-124.75Zm3.14,2733.11c-78.72,0-155.37-7.34-227.45-22a1311.9,1311.9,0,0,1-248.26-76.27c-71.48-30-141-66.3-212.6-111.12-212.55-133.09-380.77-335.28-486.49-584.72-18.26-43.09-30.7-87.87-43.88-135.28-4.63-16.66-9.42-33.9-14.49-51.08-25.22-85.48-38.59-197.2-37.65-314.56.93-116.37,15.76-227.24,41.75-312.19,53.61-175.24,118.37-312.22,203.8-431.09L565.08,620.6l68.56-70.7.35.45c525.65,655.79,1583.5,1988.21,1594.12,2001.6l.3.37-.36.31c-36,31.81-105.14,66.86-155.6,92.45-4.94,2.5-9.66,4.9-14.11,7.17-103.44,52.78-232.91,93.3-364.56,114.11A1328.42,1328.42,0,0,1,1486.93,2782.8ZM633.57,551.41l-67.75,69.86L462.45,745.1c-85.34,118.75-150.06,255.64-203.64,430.78-53.9,176.2-55.7,451.25-4.09,626.17,5.07,17.19,9.86,34.43,14.49,51.09,13.17,47.38,25.61,92.13,43.84,135.16,105.64,249.25,273.73,451.28,486.1,584.26,151,94.58,297.35,154.08,460.53,187.26,75.89,15.43,152.12,22.13,226.49,22.13,228.48,0,439.65-63.21,571.71-130.59,4.45-2.27,9.18-4.67,14.12-7.17,50.24-25.48,119-60.35,155-92C2204.33,2523.6,1156.26,1203.53,633.57,551.41ZM2361.24,2448.68l-.3-.38c-151.37-188.9-329.75-412.05-518.6-648.31C1370,1209,881.51,598,760.47,454l-.34-.41.43-.31c61.22-45.42,132.57-87.45,195.78-115.32,72-31.76,153.69-60.35,242.69-85,36.73-10.17,75.18-15,115.9-20,22.6-2.82,46-5.73,69.46-9.67l98.36-6.15c117,0,211.13,9.4,287.8,28.68,219.53,55.2,410.8,151.22,568.5,285.38,157.48,134,276.67,301.86,354.25,499,31.22,79.34,52.2,166.68,68.61,241.66,6.07,27.7,7.7,55.42,9.43,84.77,1.41,24,2.87,48.81,7,73.91,15.31,93.84-4.21,218.22-13.31,267.34-21.77,117.49-52.32,221.09-93.4,316.7-39.5,91.92-88.68,176.24-150.35,257.77-44.53,58.87-113,140.29-159.61,176ZM761.58,453.74c121.6,144.7,609.59,755.2,1081.54,1345.62,188.73,236.1,367,459.12,518.29,647.93,46.48-35.84,114.67-116.9,159-175.55,124-163.88,201.37-346.29,243.57-574,9.09-49.07,28.58-173.31,13.3-267-4.1-25.16-5.56-50-7-74-1.73-29.31-3.36-57-9.41-84.62-16.4-74.94-37.37-162.23-68.56-241.5-155.44-395-482.9-673.37-922.07-783.8-76.58-19.26-170.64-28.63-287.54-28.65l-98.26,6.14c-23.45,3.94-46.84,6.85-69.45,9.67-40.68,5.07-79.09,9.86-115.75,20-89,24.62-170.56,53.2-242.56,84.94C893.75,366.63,822.65,408.49,761.58,453.74Z"/>
</svg>
