<svg xmlns="http://www.w3.org/2000/svg" viewBox="0 0 2994.91 3000">
  <title>28icon 1</title>
  <g>
    <path d="M1486.05,2899.79c-88.22,0-225.89-57.31-304-93.52-116.94-54.17-243-126.86-306.6-176.77-62.7-49.11-118.17-109.11-164.87-178.35-42.22-62.59-78.73-134.93-108.53-215-48.1-129.29-80.48-280.7-101.89-476.52-15.85-100.45-23-205.1-21.78-319.91,1-96.65,8-201.4,21.52-320.24,8.2-129.32,42.14-257.12,100.88-379.82,55.51-116,131.58-224.36,226.08-322.16,69.31-81,147.26-143.85,238.27-192.11,84.82-45,179.89-76.58,290.65-96.63,14-1.85,31.67-5.21,52.07-9.11,43.23-8.26,97-18.54,144.63-19.34,56.14-.93,91.56,11.38,108.41,37.64,11.33,18.91,16.2,40.63,20.92,61.63,1.76,7.86,3.59,16,5.72,23.84,6.47,27.37,18.76,53.06,30.65,77.91,6.81,14.24,13.86,29,19.74,43.88C1764,412.53,1793.42,460,1827.8,490.25c43.87,38.62,97.12,49.32,158.28,31.81,18.33-3.92,36.74-9.06,54.54-14,32.24-9,65.58-18.32,99.57-20.71,19.1.27,38.63-2,57.52-4.21,33.36-3.91,67.86-7.94,101,2,50.74,17.75,67.21,94.16,80.43,155.56,4.31,20,8.37,38.84,13.17,53.68,60.76,305.48,114.67,604.85,107.2,909.28l-.1,9.39c-1.89,165.6-3.85,336.84-65.3,494.42A1276.13,1276.13,0,0,1,2293.93,2398c-59.8,92.14-130.13,174.65-209,245.26-169.41,151.6-368.94,239.86-577,255.23A164.24,164.24,0,0,1,1486.05,2899.79Zm72.07-2798.47c-49.14,0-105.57,10.78-150.11,19.29-20.42,3.9-38.06,7.27-52.1,9.12-227.28,41.14-395.17,132.79-528.34,288.42-194.78,201.59-310.8,450.67-326.71,701.4-29.12,256.79-29,454.14.26,639.93,32.06,293.1,103.64,656.76,374.92,869.23,63.53,49.87,189.52,122.51,306.4,176.66,78,36.16,215.57,93.42,303.6,93.42a164.81,164.81,0,0,0,21.72-1.34c468.52-34.61,802.38-421.9,925.43-790.37,61.4-157.43,63.35-328.58,65.24-494.09l.1-9.41c7.47-304.32-46.43-603.63-107.17-909-4.79-14.83-8.86-33.72-13.17-53.72C2365,579.71,2348.62,503.6,2298.42,486c-32.94-9.86-67.33-5.84-100.6-2-18.92,2.21-38.47,4.5-57.61,4.21-33.84,2.39-67.13,11.69-99.32,20.69-17.82,5-36.25,10.12-54.57,14-32.26,9.24-62.55,10.74-90,4.45-24.88-5.69-48.16-18-69.19-36.48-34.51-30.38-64-78-90.18-145.45-5.87-14.87-12.91-29.58-19.71-43.81-11.91-24.89-24.23-50.63-30.72-78.09-2.13-7.85-4-16-5.73-23.88-4.7-20.92-9.55-42.55-20.79-61.31C1642,110.36,1603.11,101.32,1558.12,101.32Z"/>
    <path d="M1888.27,1599l-36.84-14.86-25.08-40.42.06-.21,12.79-43.81,37.4-20.06,41.48,14,.09.19,23.24,48.25-14,30.4Zm-36.16-15.66,36,14.54,38.43-26,13.73-29.72-23-47.64-40.67-13.74L1840,1500.36l-12.61,43.19Z"/>
    <path d="M963.24,1615.48l-.18,0L927,1609l-25.11-37.38,0-.21,9.89-45.37.23-.1,43.4-19.18.2.08,37.45,14.56,9.92,43.81-8.18,30.93-.17.11Zm-35.67-7.35,35.47,6.29L994,1595.54l8-30.31-9.75-43-36.76-14.3-42.79,18.91-9.74,44.67Z"/>
  </g>
</svg>
