<svg xmlns="http://www.w3.org/2000/svg" viewBox="0 0 2994.91 3000">
  <title>130icon 1</title>
  <path d="M774.3,2883.4c-55,0-106.2-2.67-150.24-13-74.6-17.41-122.36-55-150.3-118.26-24.47-55.41-21.6-149.58-19.06-232.67.78-25.67,1.52-49.91,1.52-72.66V1688.75c0-22.61-.47-46.49-.92-69.57-2.2-112.06-4.47-227.93,41.4-289.63,27.46-36.92,60.9-60.53,105.23-74.3,40.05-12.44,89-17.5,163.76-16.92C754.91,1033.6,750.91,822.17,794,662.26A753.63,753.63,0,0,1,871.8,477,780.33,780.33,0,0,1,991,322.54a819.29,819.29,0,0,1,323.5-199.83c27.09-8.92,54.66-12.71,83.84-16.72,23.82-3.27,48.44-6.65,73.86-13.08h.12c163.64-2,320.3,54.23,453.05,162.57,117.57,96,210.5,228.25,261.66,372.5,31,87.43,40.54,182.58,51.59,292.76q1.8,18,3.69,36.54c12.51,122,13,216.06,1.45,279.57,72.67-.68,120.08,3.13,158.46,12.71,46,11.5,79.8,31.79,106.28,63.85a226,226,0,0,1,48.56,106.43q.69,432.9,1.35,865.73c0,42.08,1.25,84.63,2.45,125.78,3.42,116.72,6.65,227-18.15,311.71-13.28,45.39-33.5,79.87-61.8,105.41-31.49,28.41-72.33,45.33-124.85,51.73H968.23c-35.45,0-70.12.86-103.65,1.69C833.74,2882.65,803.47,2883.4,774.3,2883.4ZM753.56,1239.28c-122.37,0-200.18,15.72-256,90.87-45.68,61.42-43.41,177.12-41.21,289,.45,23.09.92,47,.92,69.59v758.11c0,22.77-.74,47-1.52,72.69-2.53,83-5.4,177,19,232.24,27.8,63,75.34,100.35,149.61,117.69,67.26,15.7,151.3,13.61,240.27,11.4,33.53-.83,68.21-1.69,103.67-1.69H2356c99-12.07,158.05-61.77,185.75-156.42,24.76-84.59,21.53-194.76,18.12-311.4-1.21-41.16-2.46-83.71-2.46-125.81q-.66-432.87-1.34-865.65A225,225,0,0,0,2507.77,1314c-54.25-65.67-134.83-77.44-264.57-76.18h-.6l.11-.59c11.64-63.43,11.18-157.59-1.36-279.89q-1.89-18.5-3.69-36.54c-11-110.11-20.56-205.21-51.53-292.53C2091.43,361.31,1837,93.84,1481,93.84c-2.86,0-5.71,0-8.59.06-25.46,6.42-50.09,9.81-73.91,13.08-29.14,4-56.67,7.78-83.67,16.68C1061.31,207.2,862.12,413.68,795,662.52c-43.13,159.92-39.08,371.48-28.28,576.29l0,.53h-.53C762,1239.3,757.72,1239.28,753.56,1239.28Zm1278,0H957.34v-.48c-1-41.55-2.22-81.07-3.45-119.3-5.19-161.75-9.3-289.51,15.4-400.46,12.94-58.15,33.28-108.36,62.2-153.52,31.12-48.59,72.48-92,126.46-132.81,45.47-34.36,85.94-59.52,127.36-79.19a544.06,544.06,0,0,1,159.44-47.83c128.41-18.2,228.45,35.42,292.53,77.33,69.8,45.64,123.88,94,165.32,147.73,40.31,52.3,69.76,111.25,90,180.21,38.4,130.69,43.36,292.51,39,527.83Zm-1073.23-1H2030.57c8.5-454.89-16.8-673.25-293.84-854.42-64-41.83-163.78-95.33-291.85-77.18-128.51,18.21-216.86,74.33-286.34,126.82-220.34,166.48-214.06,362-203.66,686C956.1,1157.6,957.37,1197,958.32,1238.33Z"/>
</svg>
