<svg xmlns="http://www.w3.org/2000/svg" viewBox="0 0 2994.91 3000">
  <title>166Icon_neon 1</title>
  <g>
    <path d="M2767.34,1008.63C2680.76,895.82,2561,803.23,2390.5,717.26c-258.69-130.44-563.88-195-907.17-192L1307.18,535c-30.89,4.74-61.23,8.9-90.57,12.92C1137.3,558.73,1062.38,569,989.16,589,791.62,642.83,632.7,706.81,503.31,784.55c-72.58,43.61-137.57,92.78-193.19,146.15a910.24,910.24,0,0,0-150.89,188.88c-39.32,65.67-67.51,146.66-79.37,228.05-13.53,92.85-5.72,184.21,22.59,264.19,24.28,68.61,59.83,134.68,102.8,191.08,43.94,57.68,95.79,111.13,154.1,158.86,55.48,45.4,118.77,87.24,188.14,124.36,126.79,67.83,277.35,122.56,460.27,167.31,56,13.71,112.38,20.39,172,27.46,32.43,3.84,66,7.82,100,13.06l144.76,7.71c33.14,4.92,102.45,2.23,131.18-1.93l52.86-1.92L1775,2282.37,1881.4,2264l83.61,36.59c30.82,13.5,61.76,27,88.56,38.77l23.09,9.48c90.34,37.15,175.66,72.24,281.87,97,20.87,4,38.45,8.8,55.46,13.42s34.6,9.41,55.47,13.43c3.85.81,8.49,2.1,13.4,3.47,10.92,3,23.43,6.51,33.36,6.51,6.76,0,12.32-1.61,15.39-6.06,10.15-14.76-18.63-59.9-32.47-81.59-2.38-3.73-4.26-6.68-5.52-8.8-29.65-49.8-58.21-117.1-79.06-166.2q-6.95-19.34-13.57-37.4-6.88-18.85-14.15-39c-1.8-6.11-4.27-13.23-6.65-20.12s-4.76-13.73-6.54-19.74c9.51-5.08,21-11,32.08-16.66,11.34-5.81,23.06-11.82,32.75-17l102.75-63.67c78.63-55,142.84-111.5,196.33-172.64,61.25-70,107.18-144.54,140.4-227.78,12.94-32.43,20.2-68,27.88-105.61l1.49-7.31C2939.75,1335,2892.65,1172,2767.34,1008.63ZM2372.82,2103.12l-.36.19.11.39c1.8,6.13,4.28,13.27,6.67,20.18s4.85,14,6.65,20.1q7.24,20.2,14.16,39.05,6.6,18.06,13.58,37.41c20.87,49.16,49.45,116.49,79.13,166.35,1.27,2.13,3.15,5.09,5.54,8.83,13.72,21.51,42.26,66.27,32.48,80.49-7.17,10.4-29.62,4.16-47.65-.86-4.93-1.37-9.58-2.66-13.47-3.48-20.84-4-38.41-8.79-55.41-13.41s-34.63-9.42-55.51-13.44c-106.11-24.77-191.4-59.85-281.7-97q-11.49-4.72-23.08-9.48l-88.55-38.76-82.16-36c91.44-14.06,264.62-70.27,349.38-104.71,31.18-12.68,123.51-49.47,141.74-56.73Zm533.53-610.18-1.49,7.31c-7.68,37.59-14.92,73.09-27.83,105.44-62.16,155.77-169,282.86-336.35,400L2438,2069.28c-9.65,5.16-21.37,11.17-32.7,17-9.52,4.89-19.31,9.91-27.91,14.44l-.24-.59c-1.1.44-110.38,44-144.87,58-85.2,34.62-259.78,91.24-350.72,104.89h0l-106.68,18.4-166.29,15.43-52.88,1.93c-28.72,4.15-97.89,6.84-131,1.92l-144.76-7.7c-34-5.24-67.58-9.22-100-13.06-59.62-7.07-115.93-13.75-171.91-27.44-384.88-94.16-639.71-237.21-802-450.17-42.91-56.31-78.4-122.29-102.65-190.8-65.13-184-10.16-379.73,56.7-491.4,148.43-247.88,412-416.35,829.33-530.16,73.16-19.95,148.05-30.21,227.33-41.07,29.34-4,59.68-8.18,90.53-12.92l176.08-9.64c7.77-.07,15.48-.11,23.21-.11,333.64,0,630.79,64.55,883.48,192,170.38,85.9,290,178.4,376.5,291.09C2891.67,1172.31,2938.71,1335.05,2906.35,1492.94Z"/>
    <rect x="946.39" y="743.35" width="1" height="1076.4"/>
    <g>
      <rect x="947.39" y="1969.31" width="2" height="1.83"/>
      <rect x="945.39" y="1967.31" width="6" height="5.83"/>
    </g>
    <rect x="1481.16" y="743.36" width="1" height="1076.4"/>
    <g>
      <rect x="1482.16" y="1969.32" width="2" height="1.83"/>
      <rect x="1480.16" y="1967.32" width="6" height="5.83"/>
    </g>
    <rect x="2018.45" y="739.76" width="1" height="1076.4"/>
    <g>
      <rect x="2019.46" y="1965.72" width="2" height="1.83"/>
      <rect x="2017.46" y="1963.72" width="6" height="5.83"/>
    </g>
  </g>
</svg>
