<svg xmlns="http://www.w3.org/2000/svg" viewBox="0 0 2994.91 3000">
  <title>104icon 1</title>
  <g>
    <path d="M930,1929.73H76V1075.66H930Zm-853.07-1H929V1076.66H77Z"/>
    <path d="M927.82,921.43H73.74V67.35H927.82Zm-853.08-1H926.82V68.35H74.74Z"/>
    <path d="M1927.81,917.42H1073.73V63.34h854.08Zm-853.08-1h852.08V64.34H1074.73Z"/>
    <path d="M2925.08,917.42H2071V63.34h854.07Zm-853.07-1h852.07V64.34H2072Z"/>
    <path d="M1925.2,1929.73H1071.12V1075.66H1925.2Zm-853.08-1H1924.2V1076.66H1072.12Z"/>
    <path d="M927.82,2930.23H73.74V2076.15H927.82Zm-853.08-1H926.82V2077.15H74.74Z"/>
    <path d="M1925.2,2930.23H1071.12V2076.15H1925.2Zm-853.08-1H1924.2V2077.15H1072.12Z"/>
    <path d="M2922.46,2930.23H2068.38V2076.15h854.08Zm-853.08-1h852.08V2077.15H2069.38Z"/>
    <path d="M2925.08,1923.82H2071V1069.75h854.07Zm-853.07-1h852.07V1070.75H2072Z"/>
  </g>
</svg>
