<svg xmlns="http://www.w3.org/2000/svg" viewBox="0 0 2994.91 3000">
  <title>66icon 1</title>
  <g>
    <path d="M2197,1870.19l-.35-.36L1540.58,1194l-58.74,91.8c-1.58,4.18-79.38,209.24-129.92,259.78-19.37,19.37-53,43.44-85.55,61.32-39.94,21.91-74.24,32.46-96.62,29.7-25.33-3.12-82.25-56.29-84.66-58.55l-.26-.25.14-.32,253.24-564.93L1754,856.6l.17.06L2162.41,994.8l.09.18,302.92,614.66-.26.26Zm-656.58-677.82.44.45,656.16,676,267.18-259.35L2161.7,995.61,1754,857.66,1339,1013.31,1086,1577.53c4.3,4,59.69,55.07,83.84,58,50,6.16,145.85-55.25,181.34-90.74,50.66-50.65,128.93-257.39,129.71-259.47l0-.09Z"/>
    <path d="M774.06,1941.5a104.36,104.36,0,1,1,104.36-104.36A104.48,104.48,0,0,1,774.06,1941.5Zm0-207.71a103.36,103.36,0,1,0,103.36,103.35A103.47,103.47,0,0,0,774.06,1733.79Z"/>
    <path d="M1254.41,2395.88a117.34,117.34,0,1,1,117.34-117.34A117.47,117.47,0,0,1,1254.41,2395.88Zm0-233.68a116.34,116.34,0,1,0,116.34,116.34A116.47,116.47,0,0,0,1254.41,2162.2Z"/>
    <path d="M1011.8,2319.93A96.64,96.64,0,0,1,955.36,2302c-10.8-7.75-30.32-25.8-38.72-35.14-31.14-34.6-30.64-91.23,1.11-126.23l146-160.87c15.4-17,37.23-28.3,61.49-31.92,24.77-3.69,49.3,1.21,69.07,13.81,10.82,6.89,30.84,24.48,38.78,35.19,14.2,19.14,21.44,43.31,20.37,68-1,24.44-10,47.18-25.34,64l-146,160.87c-15.22,16.77-36.66,27.3-60.39,29.65C1018.41,2319.77,1015.09,2319.93,1011.8,2319.93Zm129.49-372.08c-28.59,0-57.53,11.33-76.83,32.59l-146,160.87c-31.43,34.63-31.93,90.66-1.12,124.89,8.37,9.3,27.81,27.28,38.56,35a96.16,96.16,0,0,0,56.1,17.88c25.87,0,51.44-10.22,69.34-30l146-160.87c31.45-34.66,33.61-92.11,4.9-130.8-7.88-10.62-27.76-28.09-38.5-34.93C1178.22,1952.61,1159.83,1947.85,1141.29,1947.85Z"/>
    <path d="M900.92,2120.5a95.09,95.09,0,0,1-53-16.15h0c-9.55-6.4-27.38-22.09-35.34-31.07-13.3-15-20.43-35.52-20.07-57.71s8.14-43,21.91-58.64l78.63-89.39c28.74-32.67,81.23-43.64,119.48-25,11,5.35,28.57,22.28,35.42,31.14a103.9,103.9,0,0,1,21.59,67.43c-.9,23.06-9.25,44.7-23.53,60.93l-78.62,89.39c-13.9,15.79-33.7,25.88-55.76,28.41A94.13,94.13,0,0,1,900.92,2120.5Zm-52.43-17c37.73,25.32,89.63,19.74,118.17-12.7l78.62-89.39c25.84-29.37,35.28-83.9,1.9-127.09-6.79-8.78-24.23-25.57-35.07-30.86-37.87-18.49-89.83-7.63-118.29,24.72l-78.63,89.39c-28,31.84-28.85,84.51-1.84,115,7.91,8.94,25.65,24.54,35.14,30.91Z"/>
    <path d="M2671.24,1578.15c-4.48,0-9.1-.19-13.82-.62-19.48-1.79-46.35-8.37-63.66-29.59-93.37-114.39-210.31-375.52-287.69-548.31-12.37-27.62-24.05-53.71-34.28-76.17h0c-9-19.81-10.06-46.87-2.82-74.24,7.34-27.79,22.26-51.7,40.91-65.61,48-35.77,213.18-109.87,214.84-110.61l.44-.2.21.43,396.36,793.6-.42.23c-1.51.83-151.38,83.39-204.29,103.76C2707.45,1574.51,2690.68,1578.15,2671.24,1578.15ZM2272.7,923.05c10.23,22.46,21.91,48.54,34.28,76.17,77.36,172.74,194.27,433.8,287.55,548.09,17.1,21,43.69,27.45,63,29.22,25,2.29,47.47-2.15,59.14-6.64,51.46-19.82,194.86-98.59,203.75-103.48l-395.72-792.3c-9.53,4.28-167.5,75.5-214.21,110.31C2272.45,812.76,2253.73,881.43,2272.7,923.05Z"/>
    <path d="M340.78,1485.76c-1.95,0-3.84,0-5.66-.12-25.24-1-47.12-8.48-58.19-14.54-49.75-27.19-187.38-128.85-188.76-129.88l-.39-.28L585.93,606.37l.4.25c1.55,1,155.46,96.26,198.32,138.07h0c16.65,16.25,28.27,41.93,31.87,70.44,3.55,28.09-1,54.78-12.61,73.22-13.12,20.9-28.15,45.22-44.06,71-99.57,161-250,404.4-357.71,505.43C384,1481.73,359.73,1485.76,340.78,1485.76Zm-251.63-145c8.16,6,139.88,103.07,188.26,129.52,11,6,32.69,13.38,57.75,14.41,19.36.8,46.58-2.13,66.3-20.63C509,1363.07,659.46,1119.78,759,958.78c15.91-25.74,31-50,44.06-71C827.37,849.07,817.9,778.53,784,745.41h0C742.26,704.73,595.1,613.23,586.22,607.73Z"/>
    <polygon points="727.41 1744.53 531.29 1547.9 935.07 969.5 935.34 969.51 1275.11 981.23 1338.92 1012.35 1338.49 1013.25 1274.87 982.22 935.58 970.52 532.59 1547.78 728.12 1743.82 727.41 1744.53"/>
    <path d="M1623.6,2411.05h-.2l-.15-.14-193.9-192.47-74.09,1.59,0-1,74.52-1.6.15.15,193.91,192.47c3.07-.05,39.79-1,77-20.48,17.92-9.37,68.19-47.54,73.51-51.59l-265.68-266.41,0-.1-34-92.94,109.84,11.77.12.13,331.87,340c5-.42,88.37-7.62,113.62-24,25-16.18,57.21-79.93,59.74-85l-291-304.83,0-.13-17.48-72.41h104.91l.15.14,287.47,283.12c3,.88,61.77,17.59,101.07-17.26,35.62-31.59,42.07-66,41.21-89.31a110.73,110.73,0,0,0-10.48-43.44l-113.93-113.75-651.57-670,.72-.7,651.56,670.05,114,113.85,0,.07a111.28,111.28,0,0,1,10.63,43.89c.88,23.53-5.62,58.27-41.55,90.14-40.56,36-101.53,17.62-102.14,17.43l-.12,0-.08-.08-287.42-283.06H1782.58l17.15,71L2091,2221.26l-.15.31c-.34.68-34.16,68.78-60.25,85.69s-113.44,24.08-114.32,24.15l-.23,0-.16-.17-331.91-340L1476.1,1979.7l33.45,91.32,266.33,267.06-.46.35c-.55.42-55.2,42.14-74.11,52C1662.37,2410.81,1624,2411.05,1623.6,2411.05Z"/>
    <polygon points="1381.01 2395.99 1338.38 2359.79 1339.03 2359.03 1381.14 2394.78 1431.93 2367.18 1368.52 2302.44 1369.23 2301.74 1433.57 2367.43 1381.01 2395.99"/>
  </g>
</svg>
