<svg xmlns="http://www.w3.org/2000/svg" viewBox="0 0 2994.91 3000">
  <title>108icon 1</title>
  <g>
    <path d="M1506.45,1268.85c-121.23,0-238.84-9-349.55-26.87-106.94-17.23-203-41.89-285.47-73.31s-147.3-68-192.57-108.78c-46.92-42.26-70.72-87.16-70.72-133.47S631.94,835.2,678.86,793c45.27-40.76,110-77.36,192.57-108.79s178.53-56.08,285.47-73.3C1267.61,593,1385.22,584,1506.45,584s238.83,9,349.54,26.88c107,17.22,203,41.89,285.48,73.3s147.3,68,192.56,108.79c46.93,42.25,70.72,87.16,70.72,133.47S2381,1017.63,2334,1059.89c-45.26,40.76-110.05,77.36-192.56,108.78S1962.94,1224.75,1856,1242C1745.28,1259.81,1627.68,1268.85,1506.45,1268.85Zm0-683.87c-239.75,0-465.15,35.56-634.67,100.12C789.39,716.48,724.7,753,679.53,793.69c-46.71,42.06-70.39,86.71-70.39,132.73s23.68,90.67,70.39,132.72c45.17,40.68,109.86,77.22,192.25,108.6,169.52,64.56,394.92,100.11,634.67,100.11s465.15-35.55,634.66-100.11c82.4-31.38,147.08-67.92,192.26-108.6,46.7-42.05,70.38-86.71,70.38-132.72s-23.68-90.67-70.38-132.73c-45.18-40.68-109.86-77.21-192.26-108.59C1971.6,620.54,1746.2,585,1506.45,585Z"/>
    <path d="M1628.72,2382.57l1-1.84c.77-1.48,77-148.48,131.18-217.93,42.62-54.61,91.91-97.56,144.09-143,14.23-12.41,29-25.24,43.37-38.2,44.29-39.8,92.82-80.22,139.76-119.31,91.88-76.53,186.89-155.67,264.18-240.89,58.48-64.49,106.47-153,148.81-231,53.84-99.27,117.2-233.55,165.35-350.46l.23-.56.51.33c.68.44,68,44.38,93.94,68.41,43,39.89,82.38,91.81,113.89,150.15A702.5,702.5,0,0,1,2945.52,1454c10.67,53.15,13.35,109,7.53,157.2-6.38,52.89-22.47,94.31-46.53,119.78-28.83,30.54-61.21,43.72-96.23,39.17-26.73-3.48-54.83-17.62-81.28-40.9a268.2,268.2,0,0,1-56.23-70.28c-18.77-35.82-38.25-84.66-52.48-120.33-5.36-13.45-10.05-25.2-13.61-33.5-1.74,45.48,18.83,149.42,36.85,185.08a120.44,120.44,0,0,1,7.55,15.08,123,123,0,0,0,7.52,15l.06.13c8.53,28.25,3.37,123.67-2.6,145-7.34,39-19.18,88.87-45.76,127.5-27.22,39.55-65.75,62.14-117.8,69.06-31.45,4.18-62.8-1.6-93.17-17.18-38.42-19.94-58.46-71.37-67-100.25-2.6-7.71-5.87-17.16-9.32-27.17-8.53-24.69-18.12-52.48-21.38-64.48-4.87,24.54-3.36,62.82,4.21,105.6,7.26,41,18.42,76.3,29.12,92.18l.1.14v.17c-2.75,44.09-19.45,92.38-47,136-25.94,41-59.37,74.19-91.72,91.06-44.87,23.39-108.72,18.46-142.33-11-23.45-20.55-27.81-33.47-33.83-51.35-1.18-3.51-2.4-7.13-3.85-11.07-1.83-7.9-7-32.52-12.45-58.59-6.71-32-14.26-68-17.57-82.44-3.83,34-8.61,109.14-8.29,141.18v.22l-52.46,49.12c-34.18,31.22-65.48,53.72-98.49,70.79-14,7.26-39.82,4.54-60.52,2.35-11.83-1.25-22-2.32-25.39-.78-15.91,5.09-57.35,18.41-58.77,19.23-22.47,14.56-51.68,35.42-52,35.63ZM2667.11,1040.81c-48.14,116.8-111.4,250.86-165.17,350-42.37,78.11-90.39,166.65-149,231.23-77.33,85.27-172.37,164.43-264.28,241-46.93,39.08-95.45,79.5-139.73,119.29-14.42,13-29.15,25.79-43.39,38.2-52.14,45.44-101.39,88.36-143.95,142.89-50.86,65.15-121.11,198.67-130.12,215.93,6.57-4.66,30.94-21.89,50.32-34.45,1.43-.92,53.06-17.44,59-19.32,3.52-1.64,13.38-.6,25.86.72,19.48,2.06,46.16,4.88,59.95-2.25,32.93-17,64.16-39.48,98.27-70.64l52.13-48.81c-.3-33.12,4.76-111.53,8.63-143.93l.33-2.76.66,2.71c2.87,12,11,50.89,18.23,85.25,5.46,26.06,10.62,50.68,12.43,58.51,1.43,3.89,2.66,7.52,3.84,11,6,17.73,10.29,30.54,33.54,50.92,33.33,29.21,96.67,34.08,141.2,10.87,61.67-32.16,132-127.7,138.2-226-10.75-16.06-21.93-51.44-29.18-92.43-7.82-44.13-9.19-83.52-3.77-108.07l.46-2.1.51,2.09c2.58,10.52,12.84,40.24,21.89,66.46,3.46,10,6.72,19.47,9.34,27.2,8.48,28.75,28.4,79.89,66.49,99.67,30.18,15.48,61.33,21.22,92.58,17.07,113.49-15.08,145.27-103,162.72-195.8,6-21.31,11.1-116.24,2.63-144.46a123.57,123.57,0,0,1-7.55-15.1,121.08,121.08,0,0,0-7.51-15c-18.38-36.37-39.39-143.4-36.87-187.77l.12-2.1.83,1.92c3.65,8.37,8.67,21,14.48,35.51,14.22,35.65,33.69,84.46,52.43,120.23,27.06,49.74,79.84,103.25,136.76,110.65,34.68,4.51,66.77-8.56,95.38-38.85,53.65-56.82,58.11-179.61,38.74-276.1-27.37-136.35-94.49-262.24-184.13-345.4C2735.74,1085.91,2673.38,1044.91,2667.11,1040.81Z"/>
    <path d="M1367.87,2382.57l-1.69-1.21c-.29-.21-29.51-21.07-52-35.63-1.41-.82-42.86-14.14-58.7-19.21-3.4-1.57-13.62-.49-25.46.76-20.7,2.19-46.46,4.91-60.52-2.35-33-17.08-64.3-39.57-98.48-70.79L1018.58,2205v-.22c.32-32-4.46-107.19-8.29-141.18-3.32,14.42-10.87,50.45-17.59,82.5-5.45,26-10.61,50.64-12.42,58.47-1.46,4-2.68,7.63-3.86,11.13-6,17.88-10.38,30.8-33.83,51.35-33.61,29.46-97.46,34.39-142.33,11C767.9,2261.2,734.47,2228,708.54,2187c-27.58-43.59-44.28-91.88-47-136v-.17l.09-.14c10.71-15.88,21.87-51.2,29.12-92.18,7.58-42.78,9.09-81.06,4.22-105.6-3.26,12-12.86,39.79-21.38,64.48-3.46,10-6.72,19.46-9.33,27.19-8.52,28.86-28.56,80.29-67,100.23-30.38,15.58-61.73,21.36-93.17,17.18-52.05-6.92-90.59-29.51-117.8-69.06-26.58-38.63-38.43-88.45-45.78-127.54-6-21.33-11.12-116.75-2.58-145l.05-.13a121,121,0,0,0,7.53-15,121.1,121.1,0,0,1,7.57-15.12c18-35.61,38.57-139.55,36.82-185-3.55,8.3-8.24,20.05-13.61,33.5-14.22,35.67-33.71,84.51-52.47,120.32a268.12,268.12,0,0,1-56.24,70.29c-26.44,23.28-54.54,37.42-81.27,40.9-35,4.55-67.4-8.63-96.24-39.17-24.06-25.47-40.15-66.89-46.52-119.78-5.82-48.23-3.15-104,7.53-157.2a702.19,702.19,0,0,1,70.54-195.78c31.5-58.34,70.89-110.26,113.89-150.15,25.91-24,93.26-68,93.94-68.41l.5-.33.23.56c48.15,116.9,111.51,251.19,165.36,350.46,42.34,78.07,90.33,166.55,148.81,231,77.28,85.22,172.3,164.36,264.18,240.89,46.93,39.09,95.46,79.51,139.75,119.31,14.42,13,29.14,25.79,43.38,38.2,52.18,45.47,101.46,88.42,144.09,143,54.22,69.45,130.41,216.45,131.17,217.93Zm-118.34-57.84a16.5,16.5,0,0,1,6.33.86c5.82,1.86,57.46,18.38,58.88,19.3,19.38,12.56,43.76,29.79,50.33,34.45-9-17.26-79.26-150.78-130.12-215.93-42.57-54.53-91.82-97.45-144-142.89-14.24-12.41-29-25.24-43.39-38.2-44.27-39.79-92.79-80.21-139.72-119.29-91.91-76.56-187-155.72-264.28-241-58.56-64.58-106.59-153.12-149-231.23-53.78-99.14-117-233.2-165.17-350-6.27,4.1-68.64,45.1-93.3,68-89.65,83.16-156.76,209-184.13,345.4-19.38,96.49-14.91,219.28,38.74,276.1,28.61,30.29,60.69,43.36,95.38,38.85,56.91-7.4,109.7-60.91,136.76-110.66,18.73-35.76,38.21-84.57,52.42-120.22,5.81-14.56,10.83-27.14,14.48-35.51l.84-1.92.12,2.1c2.52,44.37-18.49,151.4-36.85,187.73a121.75,121.75,0,0,0-7.53,15,122.17,122.17,0,0,1-7.56,15.1c-8.47,28.21-3.32,123.14,2.63,144.42C358.93,1958,390.72,2046,504.21,2061c31.25,4.15,62.39-1.59,92.58-17.08,38.09-19.77,58-70.91,66.48-99.64,2.62-7.75,5.89-17.21,9.34-27.22,9-26.22,19.32-55.94,21.89-66.46l.51-2.09.47,2.1c5.41,24.55,4,63.94-3.77,108.07-7.26,41-18.43,76.37-29.18,92.43,6.19,98.34,76.53,193.88,138.19,226,44.53,23.21,107.88,18.34,141.21-10.87,23.25-20.38,27.56-33.19,33.54-50.92,1.18-3.51,2.4-7.14,3.86-11.09,1.78-7.77,6.94-32.36,12.39-58.4,7.21-34.37,15.37-73.33,18.25-85.3l.65-2.71.33,2.76c3.88,32.4,8.93,110.81,8.63,143.93l52.14,48.82c34.11,31.15,65.33,53.6,98.26,70.63,13.79,7.12,40.48,4.31,60,2.25C1237.82,2325.46,1244.66,2324.73,1249.53,2324.73Z"/>
  </g>
</svg>
