<svg xmlns="http://www.w3.org/2000/svg" viewBox="0 0 2994.91 3000">
  <title>64icon 1</title>
  <g>
    <path d="M1092.83,1171.34c-44.52,0-84.54-2.78-108.8-10.64-57.41-18.59-104.69-48.23-140.53-88.09-28.66-31.89-50.11-70.34-63.73-114.3-23.19-74.83-15.53-140.57-15.45-141.22l0-.37.36-.06c.78-.15,78.49-14.15,174.78-13.06,56.54.64,108.33,6.29,153.92,16.78,57,13.12,104.43,33.91,140.95,61.79,44.4,33.88,69.74,106.11,83.18,160.73a779.25,779.25,0,0,1,18.72,111.47l0,.48-.47.06C1333.93,1155.14,1200.26,1171.34,1092.83,1171.34ZM765.27,817.57c-.59,5.39-6.77,68.74,15.47,140.48,21.34,68.84,74,159.72,203.6,201.7,80.92,26.21,338.08-4.23,350.89-5.78a781.39,781.39,0,0,0-18.66-110.84c-13.4-54.47-38.64-126.47-82.8-160.17C1151.3,820,1028.22,805.61,939.5,804.6,846.71,803.54,771.17,816.53,765.27,817.57Z"/>
    <path d="M1416,1257.47l-1-.17c.12-.66,11.39-66.45,20.29-86.58,9.59-21.66,32.22-58.85,47-74.34,8.56-8.94,38.79-39.25,68.49-53.65,8.4-4.07,41.78-16.26,42.11-16.38l.35.94c-.34.12-33.67,12.29-42,16.34-29.56,14.33-59.68,44.53-68.21,53.44-14.74,15.42-37.28,52.47-46.83,74.06C1427.33,1191.14,1416.08,1256.81,1416,1257.47Z"/>
    <path d="M1617.34,2758.13a385.08,385.08,0,0,1-63.55-5.29c-16.2-2.06-38.45-9.38-62-17.13-30-9.86-60.92-20.05-81.74-20.05s-51.8,10.19-81.75,20.05c-23.55,7.75-45.8,15.07-62,17.13-32.8,4.17-97.26,6.56-128,0-37.74-8.06-100.81-36.91-143.48-60.33-6.35-1-128.93-21-200.82-66.81-9.22-5.88-21.07-12.15-33.61-18.79-42.65-22.57-95.74-50.65-94.52-89.24a190.85,190.85,0,0,1,46.46-117.85c-6.17-11.3-17.77-37.79-26.27-57.17-3.33-7.62-6.22-14.22-8.14-18.44-14.38,2.1-125.78,16.06-180.21-45.72-60.29-65.38-84.18-150.39-63.9-227.39,17.93-68.08,67.79-119.9,136.84-142.21-1.69-25.44-3.05-107.62-3.12-112.48-18.57-16.6-36.75-32.72-54.33-48.31C380.76,1630.71,276.2,1538,199,1415.42c-82.67-131.29-126.87-287.33-143.33-506C48.22,809.84,74.79,670.19,125.07,545c26-64.85,57.47-122.67,90.91-167.2,37.4-49.81,76.88-83.23,117.35-99.33q125.06-49.77,244.23-49.75c205.43,0,396.88,110.87,571.59,331.67l.69.87-1.11-.06L647.37,535.4l136,182.08L433.88,662.37c-135.79,378-64.05,649.7,219.28,830.51,20.52-36.25,47.69-69.78,80.76-99.67a483.22,483.22,0,0,1,108.79-73.69c80.24-39.94,170.49-58.49,254.13-52.22,54.09,5.64,113.79,24.46,171.53,42.66,47.84,15.08,97.3,30.67,141.66,37.92,50.35-8.62,94.64-25.64,137.47-42.1,71.35-27.42,138.75-53.31,226.92-39.44l.25,0,.12.23c3.71,7.61,13,16.61,21.12,24.55,3.59,3.49,7,6.79,9.52,9.62l.26.29-.23.33c-18.58,26.66-24.18,62.09-15.38,97.22,9.59,38.23,34.7,70.91,67.18,87.44l.47.24-.26.45c-16.69,29.32-14,67.34,7.44,107,31.38,58,93.08,102.54,146.77,105.93,52.81-28.27,110-41.41,165.4-38,49.79,3.07,96.75,19,135.83,46,28.3,19.59,50.92,44.23,65.4,71.23,14.89,27.78,20.77,57.44,17,85.78-4.07,30.59-18.85,58.88-43.92,84.07-27.57,27.71-66.86,50.75-116.79,68.5-4.7,31.57-22.76,101.2-29.68,127.86,27.24,22,39.09,49.19,35.23,80.74-3.22,26.24-17.35,54-40.87,80.34-21.64,24.22-49.24,44.83-77.73,58.07-1.79,3.51-5.91,11.8-11.1,22.27-13.84,27.88-34.5,69.51-41.82,82.5,53.44-23.16,146-59.21,176.33-64.87,27.09-5,65.05.46,105.23,6.3,44.43,6.44,90.36,13.11,120.23,4.23,36.35-10.8,94.37-37.65,144.37-66.82,62.05-36.19,103.62-70.88,117.05-97.67,44-87.8,43.54-142.28,43.19-182.07-.46-52.73-.66-74.56,113.7-103.29l2-.49-1.5,1.35c-.55.49-54.72,49.37-65.3,79.25h0c-7.93,22.42,4.42,58.07,16.36,92.56s24.41,70.47,16.36,93.22c-32.79,65-90.38,127.8-166.57,181.7-66.88,47.32-147.44,87.1-226.82,112-63.75,17.86-110.9,11.68-148.78,6.72-19.68-2.58-36.67-4.81-53-3.55-53,4.1-176.92,31-267.4,50.72l-12.76,2.77c-61.52,62.52-126.66,109.34-193.63,139.16C1731.27,2745.5,1674.2,2758.12,1617.34,2758.13ZM1410,2714.66c21,0,52,10.22,82,20.1,23.51,7.73,45.72,15,61.84,17.09,183.28,30.58,333.25-76.35,426.79-171.45l.1-.1,13.06-2.84c90.51-19.68,214.47-46.63,267.53-50.74,16.38-1.26,33.43,1,53.16,3.55,37.79,5,84.82,11.12,148.37-6.68,134.18-42.09,317.56-144.12,392.75-293.13,7.91-22.37-4.44-58-16.38-92.51s-24.41-70.47-16.36-93.21c9.67-27.33,55.29-70.21,64.1-78.32-54.83,13.89-83.12,26-97.4,41.67-14,15.36-13.85,34.15-13.62,60.15.33,37.64.83,94.52-43.3,182.53-18.23,36.38-81.4,77.06-117.44,98.08-50.06,29.21-108.17,56.1-144.59,66.92-30.08,8.94-76.12,2.26-120.65-4.2-40.1-5.82-78-11.32-104.9-6.3-30.54,5.69-124.34,42.28-177.5,65.4l-1.4.6.77-1.31c6.53-11.21,28.19-54.87,42.53-83.76,5.27-10.62,9.43-19,11.19-22.43l.07-.15.16-.08c53.38-24.73,111.12-80,118.18-137.69,3.83-31.29-8-58.22-35.11-80l-.25-.2.08-.31c6.88-26.49,25.14-96.86,29.78-128.37l0-.3.28-.1c94.84-33.64,151.78-87.57,160.34-151.85,7.46-56.08-24-115.88-82-156.06-66.46-46-180.26-72.27-300.31-7.93l-.13.06h-.14c-54-3.34-116.17-48.11-147.73-106.46-21.55-39.83-24.27-78-7.69-107.57-32.5-16.73-57.62-49.53-67.23-87.85-8.84-35.26-3.26-70.85,15.31-97.71-2.49-2.73-5.76-5.91-9.21-9.27-8.14-7.92-17.35-16.88-21.21-24.6-87.77-13.73-155,12.09-226.14,39.43-42.9,16.49-87.26,33.53-137.74,42.17H1410c-44.46-7.26-94-22.87-141.89-38-57.69-18.18-117.35-37-171.32-42.61-175.51-13.16-361.82,81.69-443,225.53l-.26.46-.44-.28c-90.79-57.86-161-127-208.57-205.45-41.07-67.69-66.23-143.82-74.8-226.26-7-67.6-3-141.1,11.9-218.48,10.92-56.6,27.76-116.2,51.48-182.18l.14-.39.41.07,347.43,54.79L645.3,534.29l502.38,25.84c-241.74-305.06-515.58-399.5-814-280.75-40.29,16-79.63,49.34-116.92,99C183.4,422.85,152,480.59,126,545.36c-50.22,125.07-76.76,264.55-69.28,364,34.88,463.56,193.81,604.49,457.1,838,17.63,15.64,35.87,31.81,54.49,48.46l.17.15v.21c0,.88,1.41,87.45,3.15,113l0,.39-.37.12c-68.91,22.15-118.68,73.77-136.56,141.63-20.19,76.67,3.62,161.33,63.69,226.47,54.58,62,167,47.23,179.68,45.34l.37,0,.16.34c1.92,4.22,4.88,11,8.31,18.79,8.56,19.55,20.29,46.32,26.4,57.41l.16.3-.23.27a189.76,189.76,0,0,0-46.44,117.49c-1.2,38,51.58,65.88,94,88.32,12.56,6.64,24.42,12.92,33.68,18.83,72.07,46,195.3,65.85,200.51,66.68l.17.05c42.61,23.39,105.63,52.23,143.29,60.27,30.65,6.55,95,4.15,127.68,0,16.13-2,38.33-9.36,61.84-17.09C1358,2724.88,1389.05,2714.66,1410,2714.66Zm-482.67-87.25c-1.7-1.35-3.44-2.83-5.55-4.63h0l.64-.77h0l.68.56q2.43,2.05,4.85,4.05ZM667.52,2262.73l-.09-.23c-.42-1-.9-2.26-1.41-3.6h0l.93-.36c.5,1.28,1,2.57,1.5,3.83Z"/>
  </g>
</svg>
