<svg xmlns="http://www.w3.org/2000/svg" viewBox="0 0 2994.91 3000">
  <title>90icon 1</title>
  <g>
    <path d="M957.42,2934.55l-.17-.47L160,743.61l.47-.17L686.68,551.91l.17.47,797.27,2190.47-.47.17ZM161.26,744.21,958,2933.27l524.82-191L686.08,553.19Z"/>
    <path d="M1060.91,853.24l-.17-.47L920.29,466.88l.47-.17L2034.68,61.27l.17.47,140.45,385.9-.47.17ZM921.57,467.48,1061.51,852,2174,447,2034.08,62.56Z"/>
    <path d="M1383.92,1740.71l-.17-.47L1262,1405.74l.47-.18,963.71-350.76,121.92,335-.47.17Zm-120.63-334.38,121.23,333.1,962.3-350.25-121.24-333.09Z"/>
    <path d="M1725.76,2684l-.17-.47-134-368.11.47-.17L2717.2,1905.74l.17.47,134,368.11-.47.17Zm-132.87-368,133.47,366.7,1123.71-409L2716.61,1907Z"/>
  </g>
</svg>
