<svg xmlns="http://www.w3.org/2000/svg" viewBox="0 0 2994.91 3000">
  <title>86icon 1</title>
  <g>
    <path d="M1717,1798.8l-.51-1.4-227.11-624L1783.91,209l.24-.08L2170.63,68.25l46,126.41,0,.16Zm-226.56-625.41L1717,1795.67l498.63-1601L2170,69.53,1784.72,209.77Z"/>
    <path d="M2562.33,2297.62l-.18-.46L2124.36,1119.3l0-.17,196.13-599.57.5,1.36,599.24,1646.42ZM2125.42,1119.28l437.5,1177.06L2919,2166.74,2320.59,522.62Z"/>
    <path d="M1522.87,1859.63l-1.25-.8L117.06,953.28,72.84,831.78l.47-.17L459.61,691l.21.14,838.3,551,.06.15Zm-1405-907,1403,904.56L1297.3,1242.81,459.48,692.12,74.12,832.38Z"/>
    <path d="M842.79,2917.73l-.17-.47L244,1272.69l537.9,353.07,0,.16,422.3,1160.24ZM246,1275.18,843.39,2916.45,1203,2785.56,781.11,1626.41Z"/>
  </g>
</svg>
