<svg xmlns="http://www.w3.org/2000/svg" viewBox="0 0 2994.91 3000">
  <title>82icon 1</title>
  <g>
    <path d="M958.65,2922.34l-.17-.47L173.27,762l.47-.17L576.21,615.3l.17.47,785.21,2159.91-.47.17ZM174.55,762.55l784.69,2158.5,401.07-146L575.62,616.58Z"/>
    <path d="M1217.83,1507.31l-.17-.47-86-235.6.47-.18,915.36-333.41L1854.63,434.29,938.79,767.88l-.17-.47L844.8,507.34l.47-.17L2038.8,72.76l.17.47,364.82,1002.34-.47.17Zm-84.92-235.48,85.52,234.2,1184.08-431L2038.2,74,846.08,507.94l93.31,258.65L1855.21,433l.18.46,193.37,504.77-.48.18Z"/>
    <path d="M2585.27,2330.65l-.17-.05L1371.2,1914l-.08-.22-83.85-228.59.47-.17,229.33-83.92.16.05,1213.9,416.59.08.22,83.42,229.2ZM1372,1913.22l1213.28,416.37,228.09-83-83-228L1517.08,1602.17l-228.53,83.62Z"/>
  </g>
</svg>
