<svg xmlns="http://www.w3.org/2000/svg" viewBox="0 0 2994.91 3000">
  <title>96icon 1</title>
  <g>
    <path d="M2928.56,1748H2506V1310.46h422.61ZM2507,1747h420.61V1311.46H2507Z"/>
    <path d="M483.12,1748H59.87V1308.42H483.12Zm-422.25-1H482.12V1309.42H60.87Z"/>
    <path d="M1495.82,2398.22a891.52,891.52,0,0,1-634.91-265,902.27,902.27,0,0,1-192.43-287.63c-46.82-111.57-70.56-230.07-70.56-352.24s23.74-240.67,70.56-352.23A904.65,904.65,0,0,1,1146.31,659.5c110.7-47.19,228.29-71.11,349.51-71.11a890.19,890.19,0,0,1,478.12,138.82l-.54.84a889.24,889.24,0,0,0-477.58-138.66c-494.55,0-896.9,405.49-896.9,903.91s402.35,903.92,896.9,903.92,896.9-405.5,896.9-903.92a916.13,916.13,0,0,0-20.9-194.87l1-.22a917.55,917.55,0,0,1,20.92,195.09c0,122.17-23.74,240.67-70.56,352.24a904.71,904.71,0,0,1-477.84,481.57A886.44,886.44,0,0,1,1495.82,2398.22Z"/>
  </g>
</svg>
