<svg xmlns="http://www.w3.org/2000/svg" viewBox="0 0 2994.91 3000">
  <title>112icon 1</title>
  <g>
    <path d="M270.19,2894l-.27-.26L126,2753l.38-.36,972.48-897.1L2856.94,136.71l.13,1c.29,2.24,29.44,224.57,29.32,298.78-.15,89.82-10.45,249.55-32.86,323.47-27.36,90.25-88,220.53-180.23,387.19-92.43,167-185,313.36-220.46,368.52-103.83,161.36-348.7,468.7-481.5,625.6-65.13,76.95-275.54,296.54-277.66,298.75l-.35.36-.36-.35-435.69-428.09c-12.07,16.13-318.17,424.54-445.73,537.05-118.93,104.91-536.82,342.49-541,344.87Zm-142.71-141L270.35,2892.8c13.84-7.87,423.1-241,540.54-344.57,127.8-112.72,435-522.75,445.67-537l-157.35-154.6Zm972.46-897.11,593.37,583c9.81-10.24,213.41-222.89,277.26-298.33,132.79-156.89,377.63-464.18,481.43-625.5,33.2-51.6,326.52-511.19,400.58-755.46,22.38-73.82,32.66-233.42,32.81-323.18.12-71.6-27.06-281.34-29.19-297.66Z"/>
    <path d="M2140.92,1518.46c-12.68,0-28-2.67-37.64-8-5.37-3-8.45-6.46-9.15-10.37-1.67-9.4,13.33-15.61,27.84-21.6,10.93-4.52,22.24-9.2,25.9-15s3-18.31,2.36-30.26c-.9-15.84-1.82-32.21,7.42-35.09l.14.47-.14-.47c3.18-1,6.48-.2,9.79,2.36,13.73,10.62,24.15,49,23.46,63.28-.77,15.71-18.55,46.5-32.92,52.31C2154,1517.66,2147.86,1518.46,2140.92,1518.46Zm19.4-119.76a8.13,8.13,0,0,0-2.38.36c-8.49,2.65-7.59,18.63-6.71,34.08.68,12.11,1.39,24.64-2.51,30.85s-15.29,10.84-26.37,15.42c-14.14,5.85-28.77,11.89-27.23,20.5.64,3.6,3.55,6.85,8.65,9.67,14.68,8.13,42.78,10,53.84,5.55,13.79-5.57,31.55-36.32,32.29-51.43.69-14.15-9.56-52-23.08-62.44A10.65,10.65,0,0,0,2160.32,1398.7Z"/>
  </g>
</svg>
