<svg xmlns="http://www.w3.org/2000/svg" viewBox="0 0 2994.91 3000">
  <title>24icon 1</title>
  <path d="M1486.28,2931v-.53c-37.86-.44-76.39-.18-113.65.07-89.77.6-182.59,1.23-273.49-7.79-49.23-3.52-94-12.43-133-26.49-45.87-16.55-84.2-40.42-113.94-70.95A3064.77,3064.77,0,0,1,535,2350.21C443.19,2180,369,2003,314.38,1824c-45.45-149.35-57.93-299.09-69.52-479.31-14.46-291.82-13.07-550.91,4.26-792.09,3.58-41.91,7-132.09,10.31-219.29,4.3-113.08,8.36-219.88,12.72-228.27,3.46-6.64,6.22-7.67,13.47-5,240,74.69,800.22,215.94,1202,215.94,301.26,0,856.17-144.46,1160.13-230.58,15.62-4.43,22-6.22,22.64-6.29,13.16-1.69,18.68,14.09,20.49,19.28,8.89,24.31,27,196.81,43,410.16,18,239.26,27.25,443.4,24.75,546.06-2,237.2-20.27,449.13-55.94,647.89-39.47,186.39-118.36,376.24-241.2,580.4-113.21,188.17-253.19,370.65-365.67,517.28-37.42,45-100.76,72.28-156.65,96.37q-7.62,3.29-15,6.48c-23.65,8.83-48.39,14.13-75.65,16.21-87.45,6.78-176.57,8.29-262.75,9.76-32.45.55-66,1.12-99,2Zm-44.59-1.77c15,0,30.11.07,45.08.24h.48v.5c32.83-.84,66.21-1.4,98.5-1.95,86.17-1.47,175.27-3,262.69-9.75,27.17-2.08,51.82-7.36,75.35-16.15q7.32-3.18,15-6.47c55.78-24,119-51.3,156.26-96.08,242.36-315.94,517.07-674,606.67-1097.24,35.66-198.69,54-410.56,55.92-647.71,5.63-231.75-49.26-905.41-67.72-955.87-3-8.68-8.35-20.06-19.44-18.62-.64.07-9.32,2.53-22.47,6.25-66.71,18.9-269.71,76.41-499.95,129.38C1856,282.93,1633.79,317,1487.58,317c-102.68,0-221.36-9-352.74-26.78-109.94-14.87-229.43-35.95-355.14-62.63C576.22,184.38,386.2,132.39,285.3,101c-6.77-2.49-9.05-1.65-12.26,4.51-4.26,8.19-8.5,119.86-12.61,227.85-3.31,87.21-6.73,177.4-10.32,219.33-17.32,241.13-18.71,500.18-4.25,792,11.59,180.15,24.06,329.83,69.48,479.08,108.2,354.85,294.11,701,537.64,1000.9,55.22,56.7,138.08,89.39,246.23,97.12,90.87,9,183.67,8.38,273.41,7.78C1395.32,2929.37,1418.49,2929.21,1441.69,2929.21Z"/>
</svg>
