<svg xmlns="http://www.w3.org/2000/svg" viewBox="0 0 2994.91 3000">
  <title>140icon 1</title>
  <g>
    <path d="M760.57,2663.84l-.52-.09L524.6,2618.52c-166.15-49.27-319.24-116.47-431.12-189.24l-.25-.15,0-.3c18.09-285.4,162.21-527.32,279.93-680a1745.74,1745.74,0,0,1,248.74-261.31c85.74-73.18,176.6-135.67,262.74-180.71l4-1.83c72.48-33.34,147.42-67.81,230.73-87.5,12.49-3.16,22.14-5.91,30.65-8.33,28.42-8.11,47.2-13.46,130-22.32,93.06-10,176.93-10.07,177.76-10.07h2.51l-2.32,1c-235.18,97.48-455.23,331.19-547.56,581.56-23.66,64.16-36.69,139.92-49.29,213.18-5.34,31-10.86,63.14-17.09,93.68-13.61,95.45-27.94,199-41.8,299.15-13.81,99.75-28.09,202.9-41.65,298ZM94.27,2428.61c111.78,72.65,264.68,139.74,430.57,188.93l234.89,45.12c13.53-95,27.78-197.94,41.56-297.51,13.87-100.14,28.2-203.7,41.81-299.19,6.23-30.55,11.75-62.64,17.09-93.67,12.61-73.31,25.65-149.11,49.35-213.36,22.65-61.44,53.5-123,91.67-182.8a1121.82,1121.82,0,0,1,129.32-165.69,1083.24,1083.24,0,0,1,155.84-137c55.4-39.77,112.22-72,168.94-95.7-14.69.1-91.16,1.07-175.12,10-82.77,8.86-101.51,14.2-129.88,22.29-8.52,2.43-18.18,5.18-30.69,8.34-83.22,19.67-158.12,54.12-230.55,87.44l-4,1.82C524.29,1496.34,124.54,1953.25,94.27,2428.61Z"/>
    <path d="M1726.67,1088.37l-92.9-15.26.09-.5c.83-4.48,82.55-449.76,119.71-660.16-155.41,1.68-263.32-2.39-360.7-13.63-118.1-13.63-221.46-38.93-316-77.35-11.79-5.54-29.34-11.91-49.66-19.29-60.12-21.84-142.46-51.75-149-88.43l-.12-.71.71.13L2706.55,553.34l-1.8.79c-25.8,11.25-29.77,13-151.21,45.41-47.68,8.18-128.69-8.32-182.31-19.24-14-2.86-26.17-5.33-35.88-7-191.36-36.37-335.92-81.1-483.23-149.54-25.94,148.8-124.36,659-125.36,664.14Zm-91.73-16.08,90.93,14.94c3.53-18.29,100-518.33,125.38-664.3l.11-.64.6.27C1999.39,491.13,2144,535.91,2335.53,572.3c9.72,1.69,21.85,4.16,35.9,7,53.54,10.91,134.45,27.39,181.89,19.24,119.44-31.89,125.14-34.06,149.84-44.83L879.39,214.29c7.34,35.79,88.68,65.34,148.18,87,20.34,7.38,37.9,13.76,49.71,19.32,196.11,79.7,404.39,93.86,676.88,90.88h.6l-.1.6C1718.11,619,1638.13,1054.91,1634.94,1072.29Z"/>
    <path d="M1856.7,347.82l-88.92-15.19v-5.51l.11-.14c5.2-6.58,17.38-22,50.78-17.49,28.47,3.86,31.74,11.76,38.25,27.51.75,1.81,1.54,3.73,2.43,5.77l.1.23-.13.21-2.45,4.3Zm-87.92-16,87.39,14.94,2.16-3.79c-.85-1.95-1.61-3.8-2.33-5.55-6.37-15.39-9.56-23.12-37.47-26.89-32.61-4.42-44.59,10.45-49.75,17Z"/>
    <path d="M1722.09,2757.5c-75.52,0-159.73-2.48-248.1-7.56-197.86-11.38-441.86-38.8-533.28-81.61l-.32-.15,0-.35c.21-2.1,21.24-213.32,63.16-453.09,24.61-140.84,51.51-263.82,79.94-365.54,35.55-127.19,73.62-221.31,113.14-279.76,67.45-99.76,166.44-198.33,294.23-293,39.49-31.26,106.82-70.66,161.28-83.28l.15,0,.14,0c60.06,22.1,101.15,77.4,137.41,126.19,11.59,15.6,22.53,30.33,33.75,43.67,77.08,102.82,130,240.93,161.65,422.26,25.72,147.15,37.7,322.9,37.71,553.1-2.12,132-6.33,396-6.33,396v.37l-.36.1C1962.17,2749.74,1855.73,2757.5,1722.09,2757.5Zm-780.64-89.92c91.54,42.66,335.06,70,532.59,81.36,244.3,14.06,456.77,8.21,541.61-14.89.18-11.13,4.26-266.54,6.33-395.63,0-350.66-23.68-740.69-199.14-974.74-11.22-13.34-22.18-28.08-33.78-43.69-36.14-48.64-77.1-103.76-136.81-125.8-54.28,12.62-121.37,51.89-160.75,83.07-127.71,94.58-226.63,193.07-294,292.74-89.39,132.2-154.26,423.67-192.93,644.9C963.46,2450,942.44,2657.69,941.45,2667.58Z"/>
    <path d="M2198.58,2716.55V2716c7-461.21,3.85-868.88-106.12-1187.08-36.77-106.41-82.49-159.55-148.06-228.47-15.71-16.51-33.75-34-51.2-50.87l-13.71-13.29-1.13-1.1,1.56.25c69.49,10.93,136.3,43.55,195.24,72.33,11.24,5.48,21.85,10.66,32.43,15.69,169.91,98.39,290.45,188,390.89,290.69C2608.33,1726.39,2697.14,1858,2778,2028.37l4.08,10.92c49.24,131.83,131.65,352.48,118.68,521.7l0,.35-.34.09c-.74.2-76.77,20.51-316.19,80.07-223.56,55.62-383.42,74.8-385,75Zm-317.25-1479.9c4.17,4.06,8.38,8.13,12.58,12.2,17.45,16.89,35.5,34.37,51.23,50.89,65.65,69,111.44,122.23,148.28,228.83,50.94,147.41,82.88,326.68,97.65,548.07,13.69,205.18,11.73,428.05,8.53,638.78,10.66-1.3,167.52-21,384.31-74.89,231.24-57.53,310.06-78.43,315.84-80,12.82-169-69.47-389.25-118.65-520.92l-4.06-10.88c-173.17-365-376.76-534.68-669.9-704.44-10.56-5-21.17-10.19-32.4-15.67C2016.3,1280.11,1950.12,1247.8,1881.33,1236.65Z"/>
  </g>
</svg>
