<svg xmlns="http://www.w3.org/2000/svg" viewBox="0 0 2994.91 3000">
  <title>110icon 1</title>
  <g>
    <path d="M1365.59,2956.54c-46.95,0-100.64-8.32-160-24.83-68.2-19-142.21-48.27-220-87.09-78.41-39.15-158.63-87-238.42-142.13a2353.61,2353.61,0,0,1-238.55-189.24,1252.76,1252.76,0,0,1-168.27-185.58,1159.12,1159.12,0,0,1-116.46-195c-29.67-63.3-52.44-127.61-67.66-191.15-14.51-60.61-21.87-119.15-21.86-174,0-109.36,29.5-196.2,83-244.52,92.63-83.66,255-94.94,445.41-31,94.79,31.84,190.7,80.07,285.07,143.35,99.58,66.77,192.48,147.12,276.12,238.82,83.87,91.94,156.45,191.3,215.73,295.31,55.79,97.89,97.71,196,124.6,291.7,53.11,188.93,40.77,347.14-33.86,434.06l-.38-.33.38.33c-31.09,36.21-78.73,56.59-141.59,60.56Q1377.54,2956.54,1365.59,2956.54ZM436.73,1452c-90.45,0-165.91,24.08-218.66,71.72-53.29,48.13-82.65,134.71-82.67,243.78,0,196.73,98.17,495.76,373.92,745C660,2648.74,824.9,2763.27,986.07,2843.72c156.6,78.17,299.64,117.63,402.75,111.1,62.58-4,110-24.22,140.89-60.21,74.41-86.67,86.68-244.54,33.66-433.14-56-199.24-176.8-407.57-340.1-586.61C1059.15,1695,860,1559.32,662.49,1493,581,1465.59,504.63,1452,436.73,1452Z"/>
    <path d="M867.33,2297.06c-26.56,0-54.41-3-74.19-5.1l-3.4-.36c-36.28-3.87-86.44-17.46-127.79-34.63-36.58-15.2-83-39.92-96.27-71.4-11.55-27.34,14.49-47,37.47-64.33,10.72-8.09,20.85-15.73,25.93-23.31,18.81-28.06,42.46-59.61,75.25-80.85,34.67-22.46,75.86-31.3,125.92-27,19.92,1.7,40.19-4,58.07-9.1,21.53-6.09,38.54-10.9,46.89-.78,18.19,22,23.95,64.41,29,101.79,3,22,5.81,42.74,10.78,57.37,6.12,18,5.75,45.17-1,72.7C967,2241,954,2266,938.37,2280.67,924.89,2293.36,896.91,2297.06,867.33,2297.06Zm-61-307.06c-95.24,0-139.44,53.29-176.44,108.49-5.18,7.72-15.37,15.41-26.16,23.55-22.69,17.12-48.4,36.52-37.15,63.14,13.16,31.17,59.33,55.74,95.74,70.86,41.26,17.14,91.31,30.71,127.51,34.56l3.39.37c41.66,4.45,119.2,12.75,144.45-11,15.46-14.56,28.36-39.4,35.38-68.15,6.69-27.35,7.06-54.32,1-72.13-5-14.73-7.84-35.54-10.83-57.57-5.06-37.24-10.8-79.46-28.81-101.28-7.94-9.62-24.67-4.89-45.85,1.1-18,5.09-38.32,10.85-58.42,9.14Q817.75,1990,806.35,1990Z"/>
    <rect x="869.56" y="1860.8" width="282.93" height="1" transform="translate(-1101.65 1708.96) rotate(-57.37)"/>
    <rect x="293.75" y="2226.47" width="278.74" height="1" transform="translate(-645.81 231.25) rotate(-17.39)"/>
    <rect x="1242.08" y="2154.73" width="1" height="864.16" transform="translate(-1462.16 1627.64) rotate(-44.82)"/>
    <polygon points="2352.68 391.71 2312.99 343.21 2312.97 343.12 2285.63 265.53 2285.64 265.43 2290.05 184.31 2290.09 184.22 2328 106.64 2328.07 106.57 2382.74 57.2 2382.82 57.16 2434.87 35.99 2489.69 35.99 2541 63.44 2584.15 107.47 2613.27 151.58 2641.52 213.8 2641.53 213.88 2650.35 283.07 2650.34 283.13 2645.03 332.56 2638.87 350.17 2637.92 349.84 2644.07 332.28 2649.34 283.08 2640.55 214.08 2612.4 152.06 2583.38 108.1 2540.34 64.2 2489.44 36.99 2435.06 36.99 2383.28 58.06 2328.81 107.25 2291.03 184.57 2286.64 265.39 2313.88 342.71 2353.45 391.08 2352.68 391.71"/>
    <polygon points="2705.31 655.22 2705.23 655.2 2618.92 637.58 2566.87 615.54 2534.2 593.48 2534.76 592.65 2567.34 614.66 2619.22 636.63 2705.34 654.2 2781.24 642.46 2831.07 610.07 2871.33 558.47 2889.77 509.28 2895.92 460.13 2881.02 413.9 2840.65 375.07 2770.26 339 2708.66 313.48 2649.68 293.23 2650.01 292.29 2709.01 312.54 2770.68 338.09 2841.24 374.25 2841.29 374.3 2881.89 413.36 2881.93 413.48 2896.93 460.04 2890.73 509.58 2872.21 558.96 2872.16 559.02 2831.76 610.82 2781.5 643.43 2705.31 655.22"/>
    <rect x="2004.75" y="492.71" width="381.83" height="1" transform="translate(453.26 1917.37) rotate(-51.92)"/>
    <rect x="2355.55" y="732.92" width="281.74" height="1" transform="translate(402.75 2278.27) rotate(-52.79)"/>
    <path d="M1734.1,2623.23l.25-2.09c32.39-271-232.74-728.78-603.58-1042.17-124.19-104.94-251.89-184.89-369.31-231.2-130.58-51.5-247.77-62.6-348.32-33l-2.52.74,2.07-1.61c1.14-.89,116-90.09,282.47-175.7,97.8-50.29,194-89.52,286-116.61,115-33.86,223.71-48.73,323-44.2,20.55,0,49.94,3.73,84,8.06,108.52,13.81,272.5,34.67,384.68-35.73,90.29-56.66,128-153.7,158.36-231.67,21.82-56.09,39-100.39,68.89-108.49,16.66-4.53,36.62,2.66,61,22,57.45,45.47,120.26,66.8,175.67,85.63,72.27,24.55,134.69,45.75,167.93,110.79v0c16.15,37.29,22.85,72.07,20.46,106.32-2.11,30.38-11.36,59.53-28.28,89.13-31.29,54.74-83.78,101.44-134.54,146.6-52.39,46.61-101.88,90.65-126.52,140.9-17.47,91.58-32.18,189.2-46.4,283.61-28,185.57-56.86,377.45-109.38,547.86-34.28,108.19-99,232.68-147.31,318.07-52.31,92.51-97.1,160.31-97.54,161ZM529.48,1297.62c71.49,0,149.21,16.43,232.35,49.22,60.11,23.71,122.75,56,186.16,96,60.83,38.37,122.54,83.91,183.42,135.35,86.46,73.06,169.4,156.21,246.54,247.14,76.37,90,143.41,183.35,199.26,277.41,57.26,96.45,100.11,189.27,127.34,275.89,28.46,90.5,38.9,171.4,31,240.52,7.36-11.24,48.74-75,96.35-159.17,48.26-85.34,113-209.77,147.22-317.87,52.5-170.33,81.4-362.18,109.35-547.71,14.23-94.44,28.94-192.09,46.42-283.71l0-.13c24.72-50.46,74.29-94.57,126.78-141.27,102.83-91.48,209.16-186.1,142.12-340.89-33.06-64.67-95.29-85.81-167.35-110.29-55.49-18.85-118.38-40.21-176-85.78-24.14-19.1-43.82-26.23-60.15-21.8-29.35,8-46.5,52.07-68.22,107.89-15,38.51-32,82.16-56.59,123.5-28.52,47.87-61.94,83.41-102.17,108.66-112.48,70.59-276.68,49.7-385.33,35.88-34-4.33-63.36-8.07-83.88-8.06-224.74-10.26-455,81.72-608.57,160.69-154.11,79.23-263.91,161.53-280.24,174Q469.36,1297.61,529.48,1297.62Z"/>
  </g>
</svg>
