<svg xmlns="http://www.w3.org/2000/svg" viewBox="0 0 2994.91 3000">
  <title>106icon 1</title>
  <path d="M1501.64,2763.44l-4-1.33-.09-.09L708.49,1909.94c-36.67-42.82-76.14-83.35-114.31-122.54-45.77-47-93.1-95.6-135.32-148-47.32-58.68-83.26-116.22-109.88-175.9-48.52-108.78-77-223.09-84.51-339.75-7.13-110,4.4-218.68,34.27-322.95,29-101.28,73.85-193.49,133.24-274.09,59.89-81.28,131.34-146.28,212.36-193.2,51.48-29.81,104.61-53.11,157.91-69.26,57-17.27,114.46-26.42,170.81-27.2v0c116.84-1.62,241,26.22,324,72.66,32.81,13.53,157.8,106.34,191,141.84,4.85,7.24,7.94,11.16,10.47,11.29,2.14.1,4.32-2.49,7.88-6.8l1.78-2.13c2.59-10.14,46.26-47.23,97.64-82.9,38.55-26.77,112.72-74.51,176.41-93.48,121.94-43.09,243.75-52.28,362-27.3A649.37,649.37,0,0,1,2305,307.39a712.27,712.27,0,0,1,141.61,95.75c54,46.68,102.23,101.76,143.32,163.69a879,879,0,0,1,98.89,201.28,901.46,901.46,0,0,1,31.85,465.64c-55.19,280.2-201.47,433.53-356.33,595.87-43.89,46-89.27,93.57-132.93,144.57Zm-3.44-2.2,3.14,1.05,729.34-788.77c43.66-51,89.05-98.58,132.94-144.59,154.76-162.23,300.94-315.46,356.08-595.37C2780.33,925.7,2672.88,600,2446,403.89c-187.78-162.31-429.59-208-663.43-125.37-63.58,18.94-137.65,66.61-176.15,93.35-55.76,38.72-95.31,73.88-97.26,82.42l0,.12-.08.09-1.85,2.22c-3.75,4.55-6,7.3-8.7,7.16-3-.16-6.1-4.05-11.2-11.67-33.11-35.38-157.87-128-190.66-141.57-82.94-46.38-206.87-74.18-323.53-72.55C863,239.62,752.58,272,644.84,334.42c-305.15,176.69-504.69,658.48-295,1128.71,59.25,132.83,153.68,229.79,245,323.57,38.18,39.2,77.66,79.74,114.34,122.58Z"/>
</svg>
