<svg xmlns="http://www.w3.org/2000/svg" viewBox="0 0 2994.91 3000">
  <title>80icon 1</title>
  <g>
    <path d="M2420.83,511,2398,498.22,1902.22,221.4l.11-.38c.23-.87,23.78-87.62,41.27-113.61,43.27-64.31,52.34-66.8,89.19-53.07,12.46,4.63,117.88,52.16,236.7,118.51,108.47,60.57,214.64,131.2,225.07,139.33,31,24.18,33.66,33.2,1.61,103.78-13,28.53-74.45,94.08-75.07,94.74Zm-495.26-277.7,495.07,276.44c4.45-4.75,62.17-66.77,74.62-94.18,31.95-70.38,29.61-78.47-1.31-102.58-10.43-8.12-116.52-78.7-224.95-139.25C2150.23,107.4,2044.89,59.91,2032.45,55.27c-36.75-13.68-44.87-11.43-88,52.69-16.81,25-39.32,106.67-41,113Z"/>
    <path d="M1154.05,2939.85c-3.4,0-23.73-.78-71.49-17-48.35-16.45-135.61-52.59-276.67-131.36s-217.6-134.09-257-166.63c-42.71-35.3-52.17-52.21-52.26-52.38l-.12-.23.11-.23c1.41-3,142-297.56,192-397.33,11-21.84,24.5-49.85,38.83-79.5C773,2001.1,829.56,1884,871.13,1821.72c28.94-43.37,82.45-102.65,134.2-160,48.34-53.55,98.33-108.93,126.24-149.35,53.57-77.57,151.88-250,190.25-340.7,14.89-35.21,28.44-88.79,42.78-145.52,15.66-62,31.86-126,50.14-164.89,26.1-55.48,97.33-156.87,134.9-202.29,31.43-38,86.88-89,140.5-138.33,51.19-47.09,104.13-95.79,134.67-131.95,5.78-6.85,15.18-19.73,27.93-38.31l.25-.38,481.14,268.66-.18.42c-9.13,20.6-15.17,35.36-18,43.87-14.76,45-28.45,115.59-41.68,183.88-13.86,71.52-28.19,145.48-44.05,192.18-19,55.81-67.91,169.64-101.46,221-23.5,36-69.54,83.36-114.07,129.2-40.77,42-79.27,81.6-101.43,112.76-57.08,80.23-152.32,254.4-190.25,340.7-19.76,45-40.69,116.58-60.92,185.84-21.66,74.13-44.06,150.78-65.8,198.17-31.23,68.07-101.2,177.67-157.43,265.73-17.73,27.76-34.47,54-47.32,74.77-58.69,95-234.83,369.69-236.6,372.45l-.14.22h-.78ZM497.66,2572.2c1.23,2.06,12,18.92,52.05,52,39.34,32.5,115.81,87.74,256.67,166.4s228,114.77,276.31,131.22c49.16,16.73,69.15,17.07,71.58,17,5.94-9.26,178.49-278.43,236.45-372.21,12.85-20.79,29.6-47,47.33-74.79,56.21-88,126.16-197.6,157.36-265.61l.46.21-.46-.21c21.71-47.32,44.1-123.94,65.75-198,20.24-69.29,41.17-140.93,61-186,38.19-86.88,131.61-258.31,190.35-340.88,22.2-31.22,60.74-70.89,101.53-112.88,44.5-45.81,90.51-93.17,113.95-129,33.51-51.27,82.4-165,101.35-220.75,15.84-46.64,30.17-120.56,44-192.05,13.24-68.32,26.93-139,41.71-184,2.79-8.49,8.78-23.14,17.82-43.55L1853.3,351.33c-12.64,18.4-22,31.19-27.72,38-30.59,36.22-83.55,84.93-134.76,132-53.6,49.3-109,100.28-140.41,138.23-37.54,45.38-108.7,146.67-134.76,202.09-18.24,38.78-34.43,102.8-50.08,164.71-14.35,56.76-27.91,110.38-42.83,145.66-39.48,93.32-136.41,262.79-190.35,340.88-28,40.47-78,95.87-126.32,149.45C954.34,1719.71,900.86,1779,872,1822.28c-41.53,62.24-98.11,179.28-143.57,273.33-14.33,29.65-27.88,57.66-38.83,79.51C640.13,2273.67,502.37,2562.31,497.66,2572.2Z"/>
  </g>
</svg>
