<svg xmlns="http://www.w3.org/2000/svg" viewBox="0 0 2994.91 3000">
  <title>100icon 1</title>
  <g>
    <path d="M1728,2852.81v-51.44l.32-.12,507-202.51,8.14,58.79-.37.14Zm1-50.76v49.32l513.34-194.49-7.86-56.73Z"/>
    <path d="M1614.62,2944.55l-257.95-106.72-246,104.06V2695.11l.7.31,246.39,107.29,253-108.92Zm-257.95-107.8.19.08,256.74,106.22-3.88-247.75-252,108.5-.2-.08-245.89-107.08v243.74Z"/>
    <path d="M1378,2695.17l-.24-.33c-25.59-35.09-33.86-77.67-24.59-126.54,7.06-37.23,24.21-78,51-121-102.37-16.52-207.64-58.45-296.48-118.11-46.08-30.93-86.23-65.61-119.35-103.06-35.11-39.71-61.62-81.83-78.8-125.18-21.8-55-28.35-111.48-19.46-167.78,9.7-61.4,37.84-122.61,83.63-181.92,57.68-74.71,130.4-137.42,216.13-186.37,87.84-50.15,186.9-84.4,294.42-101.81,56-9.06,216.06-27.52,274.43-33.56-34.38-14-86.12-36.63-136.19-58.5-51.1-22.32-104-45.4-138.37-59.39-164.57-82.22-375.75-196.32-549.85-350.32C845.59,882.82,772.15,798.78,716,711.49c-63.19-98.23-107-204.36-130.12-315.44l-32-222.83.87.45c263,137.7,500.51,326.5,718,510C1428,814.7,1540.9,973,1672.33,1166.35c32.28,40.44,76.14,95.13,118.56,148,41.15,51.31,83.68,104.35,115.28,143.94,1.89-25.21,30.71-411,37.88-571.66,60.78-308.08,194.91-448.33,350.22-610.73,47.35-49.51,96.31-100.71,146.2-159.61l.87-1v1.34c.53,50.28.26,105.88,0,159.65-.27,54-.54,109.8,0,160.27-3.95,337-66,609.92-184.35,811.2-35.21,48-66.3,94.48-96.36,139.38s-61,91.07-96,138.93c151.85,101.87,203.48,284.59,220,420,20.46,167.37-.55,363-57.67,536.7l-.07.22-.22.09c-176,72-497.91,202.86-501.14,204.18l-.66.27,0-.71-6.37-146.42ZM555.2,175l31.68,220.87c95.61,458.7,507.43,719.85,897.67,914.81,34.4,14,87.25,37.06,138.36,59.39s103.68,45.28,138,59.24l1.86.76-2,.2c-56.62,5.81-219.75,24.59-276.36,33.76-212,34.32-393.14,136.53-509.92,287.8-87.42,113.23-109.56,233.82-64,348.72,74,186.9,304.87,315.46,494.6,345.85l.74.12-.39.64c-43.45,69.73-83.36,169.09-27.06,246.76l341.07-155.06,6.4,147.18c16.49-6.7,328-133.41,500.27-203.82,57-173.52,78-368.89,57.56-536-16.55-135.33-68.16-318-220.05-419.58l-.43-.29.31-.42c35.18-48,66.26-94.42,96.31-139.31s61.16-91.37,96.36-139.38c118.25-201.09,180.23-473.85,184.18-810.65-.54-50.47-.27-106.29,0-160.28.26-53.28.52-108.37,0-158.29-49.6,58.49-98.28,109.39-145.37,158.63C2139.79,438.89,2005.75,579.05,1945,886.77c-7.37,165.25-37.66,568.83-38,572.88l-.09,1.27-.8-1c-31.68-39.7-74.58-93.2-116.07-144.93-42.42-52.89-86.28-107.58-118.58-148.06-131.42-193.3-244.26-351.55-399.43-482.5C1055,501.17,817.81,312.63,555.2,175Z"/>
  </g>
</svg>
