<svg xmlns="http://www.w3.org/2000/svg" viewBox="0 0 2994.91 3000">
  <title>60icon 1</title>
  <g>
    <path d="M1983.73,738.51l-2-.69c-.83-.28-84-28.66-153.71-31.49-63.75-2.59-132.36,6.7-171.74,15.44-42.55,9.46-57.09,13.75-62.56,15.37a12.45,12.45,0,0,1-2.88.71l-.36,0-.1-.34L1527.12,523.1c-2.2-2.65-20.21-5.89-27.12-6.93-11.39,1.76-28.85,5.21-30.87,7.6l-61.64,214.06-.35,0a6.13,6.13,0,0,1-1.89-.51c-4-1.4-16.09-5.66-60.7-15.57l-4.85-1.07c-47.09-10.48-118.25-26.32-165-17.13-68.48,13.48-154.82,34.06-155.69,34.27l-1.7.4,1.23-1.24c1.1-1.11,110.41-111.18,184.58-154.64,25.55-15,66.19-23.84,105.48-32.41,52.7-11.49,102.46-22.35,103.68-46.25,1-19.5-25.42-33.66-56-50.06-22.78-12.22-48.61-26.07-66.64-44.38-16.26-16.5-44.45-51.5-47-78-3.37-35.29,15.52-83.31,29.31-118.37,3.41-8.67,6.63-16.85,9.08-23.76,10.77-30.36,33.12-72.72,53.34-91.43,42.33-39.17,85.2-55.91,113.72-63,30.92-7.75,52.12-6.2,52.33-6.18s21.33-1.57,52.24,6.18c28.52,7.14,71.4,23.88,113.72,63.05,20.21,18.7,42.57,61.07,53.35,91.43,2.45,6.9,5.67,15.09,9.07,23.75,13.79,35.07,32.68,83.09,29.31,118.38-2.53,26.52-30.72,61.52-47,78-16.58,16.83-39.32,29.26-61.32,41.29-33.45,18.28-62.33,34.06-58.49,59.76,2,13.7,48.29,26.38,97.25,39.81,43,11.8,91.84,25.18,119.9,41.62C1882.69,635.2,1981.27,736,1982.26,737ZM1500,515.15l.07,0c2.59.39,25.33,3.91,27.9,7.41l.08.15,63.18,214.07c.42-.09,1.17-.31,2.22-.62,5.48-1.62,20-5.92,62.62-15.38,39.44-8.76,108.14-18.06,172-15.47s138.93,26.56,152,30.88c-12.54-12.69-102.95-103.11-172.06-143.6-28-16.38-76.68-29.74-119.67-41.53-51.42-14.1-95.83-26.27-98-40.62-3.94-26.39,25.23-42.33,59-60.79,21.93-12,44.61-24.39,61.09-41.11,16.16-16.41,44.18-51.18,46.68-77.41,3.35-35.06-15.49-82.95-29.24-117.93-3.41-8.67-6.63-16.86-9.08-23.77-10.74-30.26-33-72.44-53.09-91-42.15-39-84.84-55.68-113.24-62.8-30.76-7.71-51.83-6.18-52-6.16s-21.36-1.55-52.13,6.16c-28.39,7.12-71.09,23.79-113.24,62.8-20.1,18.61-42.35,60.79-53.08,91-2.46,6.92-5.68,15.11-9.09,23.78-13.75,35-32.59,82.87-29.25,117.92,2.51,26.23,30.54,61,46.7,77.41,17.93,18.2,43.68,32,66.41,44.2,30.88,16.56,57.55,30.86,56.53,51-1.26,24.67-51.39,35.6-104.46,47.18-39.22,8.55-79.78,17.4-105.19,32.29-69.79,40.89-170.8,140.91-183.13,153.24,12.51-3,90.85-21.44,154-33.87,46.94-9.23,118.22,6.63,165.39,17.13l4.84,1.08c44.67,9.92,56.83,14.19,60.82,15.59l1.17.4,61.47-213.48,0-.07c2.58-3.5,28.68-7.62,31.65-8.07Z"/>
    <path d="M1323.66,1858.23h-14.87l-232.66-5.42c-130.58-6.39-239.92-16.65-241-16.76l-.88-.08.52-.71c.23-.32,23.56-32.4,56.54-102.45,30.44-64.65,75.56-175.78,117.66-338.07,42-161.89,60.34-310,68.33-405.8,8.66-103.77,7.38-170.1,7.36-170.75v-.41l.39-.09c.91-.22,91.2-22.23,117.85-24.84,48-4.7,92.46,6,128.15,14.52,15.35,3.69,28.62,6.87,39.73,8.24,21.08,2.59,87.84,16.91,90.07,17.39h93.41c2.23-.48,69-14.8,90.08-17.39,11.11-1.37,24.37-4.55,39.73-8.24,35.69-8.56,80.1-19.22,128.14-14.52,26.66,2.61,116.94,24.62,117.85,24.84l.39.09v.41c0,.65-1.3,67,7.36,170.75,8,95.77,26.34,243.91,68.34,405.8,42.1,162.32,87.23,273.46,117.68,338.12,33,70,56.28,102.08,56.51,102.4l.52.71-.87.08c-.86.09-87.17,8.19-197.6,14.46h0l-136.68,6c-9.57.27-18.12.49-26.15.67l-450.13,1C1354.32,1858.19,1339,1858.23,1323.66,1858.23Zm-487.58-23.1c10.57,1,115.7,10.58,240.08,16.67l232.65,5.42c20.24,0,40.63,0,60.59-.11l450.12-1c8-.18,16.57-.4,26.12-.67l136.67-6c104.48-5.93,187.38-13.51,196.69-14.37-3.59-5.09-25.78-37.45-56.11-101.86-30.46-64.69-75.61-175.9-117.74-338.28-42-162-60.37-310.18-68.37-406-8.31-99.61-7.46-164.75-7.36-170.44-6.52-1.59-91.63-22.21-117.32-24.72-47.88-4.69-92.2,5.94-127.82,14.49-15.38,3.7-28.67,6.88-39.84,8.26-21.3,2.62-89.35,17.24-90,17.39h-93.73c-.68-.15-68.74-14.77-90-17.39-11.17-1.38-24.46-4.56-39.85-8.26-35.61-8.55-79.94-19.18-127.82-14.49-25.68,2.51-110.8,23.13-117.31,24.72.09,5.69.94,70.83-7.37,170.44-8,95.81-26.35,244-68.36,406-42.13,162.38-87.29,273.59-117.75,338.28C861.85,1797.68,839.67,1830,836.08,1835.13Z"/>
    <path d="M1044.19,2958.13h-1c-33.81-.05-121.72-18.51-122.61-18.7l-.45-.09.06-.46,142.4-1087.31,1,.13L921.19,2938.55c6.9,1.44,89.5,18.53,122,18.58,112,.12,223.1-26,230.59-27.84l-31.66-1071.54,1,0,31.68,1072.35-.39.1C1273.23,2930.45,1159.36,2958.13,1044.19,2958.13Z"/>
    <path d="M1864.91,2930.24l-.58-.06c-.86-.09-86-9.36-125.58-23.66-120.6-43.52-213.3-63.76-214.22-64l-.34-.07,0-.34L1368.9,1857.68l1-.15,155.18,984.13c6.23,1.37,97,21.7,214,63.92,37.77,13.63,117.15,22.69,124.77,23.54l-57.66-1071.36,1,0Z"/>
    <path d="M2006.11,2865.37l-.08-.66-122.92-1013,1-.12,122.83,1012.34c6.19-2.59,57.28-23.44,93.29-18.74,41.55,5.43,59.42,4.06,62.55,3.73l-170.51-999.43,1-.17,170.68,1000.46-.51.07c-.17,0-17.26,2.35-63.33-3.67-37.92-5-92.82,18.69-93.37,18.93Z"/>
  </g>
</svg>
