<svg xmlns="http://www.w3.org/2000/svg" viewBox="0 0 2994.91 3000">
  <title>168Icon_neon 1</title>
  <g>
    <path d="M2767.34,1008.63C2680.76,895.82,2561,803.23,2390.5,717.26c-258.69-130.44-563.88-195-907.17-192L1307.18,535c-30.89,4.74-61.23,8.9-90.57,12.92C1137.3,558.73,1062.38,569,989.16,589,791.62,642.83,632.7,706.81,503.31,784.55c-72.58,43.61-137.57,92.78-193.19,146.15a910.24,910.24,0,0,0-150.89,188.88c-39.32,65.67-67.51,146.66-79.37,228.05-13.53,92.85-5.72,184.21,22.59,264.19,24.28,68.61,59.83,134.68,102.8,191.08,43.94,57.68,95.79,111.13,154.1,158.86,55.48,45.4,118.77,87.24,188.14,124.36,126.79,67.83,277.35,122.56,460.27,167.31,56,13.71,112.38,20.39,172,27.46,32.43,3.84,66,7.82,100,13.06l144.76,7.71c33.14,4.92,102.45,2.23,131.18-1.93l52.86-1.92L1775,2282.37,1881.4,2264l83.61,36.59c30.82,13.5,61.76,27,88.56,38.77l23.09,9.48c90.34,37.15,175.66,72.24,281.87,97,20.87,4,38.45,8.8,55.46,13.42s34.6,9.41,55.47,13.43c3.85.81,8.49,2.1,13.4,3.47,10.92,3,23.43,6.51,33.36,6.51,6.76,0,12.32-1.61,15.39-6.06,10.15-14.76-18.63-59.9-32.47-81.59-2.38-3.73-4.26-6.68-5.52-8.8-29.65-49.8-58.21-117.1-79.06-166.2q-6.95-19.34-13.57-37.4-6.88-18.85-14.15-39c-1.8-6.11-4.27-13.23-6.65-20.12s-4.76-13.73-6.54-19.74c9.51-5.08,21-11,32.08-16.66,11.34-5.81,23.06-11.82,32.75-17l102.75-63.67c78.63-55,142.84-111.5,196.33-172.64,61.25-70,107.18-144.54,140.4-227.78,12.94-32.43,20.2-68,27.88-105.61l1.49-7.31C2939.75,1335,2892.65,1172,2767.34,1008.63ZM2372.82,2103.12l-.36.19.11.39c1.8,6.13,4.28,13.27,6.67,20.18s4.85,14,6.65,20.1q7.24,20.2,14.16,39.05,6.6,18.06,13.58,37.41c20.87,49.16,49.45,116.49,79.13,166.35,1.27,2.13,3.15,5.09,5.54,8.83,13.72,21.51,42.26,66.27,32.48,80.49-7.17,10.4-29.62,4.16-47.65-.86-4.93-1.37-9.58-2.66-13.47-3.48-20.84-4-38.41-8.79-55.41-13.41s-34.63-9.42-55.51-13.44c-106.11-24.77-191.4-59.85-281.7-97q-11.49-4.72-23.08-9.48l-88.55-38.76-82.16-36c91.44-14.06,264.62-70.27,349.38-104.71,31.18-12.68,123.51-49.47,141.74-56.73Zm533.53-610.18-1.49,7.31c-7.68,37.59-14.92,73.09-27.83,105.44-62.16,155.77-169,282.86-336.35,400L2438,2069.28c-9.65,5.16-21.37,11.17-32.7,17-9.52,4.89-19.31,9.91-27.91,14.44l-.24-.59c-1.1.44-110.38,44-144.87,58-85.2,34.62-259.78,91.24-350.72,104.89h0l-106.68,18.4-166.29,15.43-52.88,1.93c-28.72,4.15-97.89,6.84-131,1.92l-144.76-7.7c-34-5.24-67.58-9.22-100-13.06-59.62-7.07-115.93-13.75-171.91-27.44-384.88-94.16-639.71-237.21-802-450.17-42.91-56.31-78.4-122.29-102.65-190.8-65.13-184-10.16-379.73,56.7-491.4,148.43-247.88,412-416.35,829.33-530.16,73.16-19.95,148.05-30.21,227.33-41.07,29.34-4,59.68-8.18,90.53-12.92l176.08-9.64c7.77-.07,15.48-.11,23.21-.11,333.64,0,630.79,64.55,883.48,192,170.38,85.9,290,178.4,376.5,291.09C2891.67,1172.31,2938.71,1335.05,2906.35,1492.94Z"/>
    <path d="M1756.69,1262.42h-1v151.75H1449.14V1262.42h-1v151.75H1301.45v1h146.69V1725H1306.65v1h141.49v131.62h1V1726h306.55v131.62h1V1726h138.62v-1H1756.69V1415.17h143.82v-1H1756.69Zm-1,462.54H1449.14V1415.17h306.55Z"/>
    <path d="M1090.18,1349.83c-15.17-20.72-47.75-56.09-72.69-69.81-49.85-27.43-122.53-36.72-149.92-36.93-33.17-.23-118.76,9.41-157.46,28-38.18,18.32-100.88,61.32-124.24,85.22-36.8,37.64-69.53,101.51-78.75,139.09-10.44,42.55-15,128.84-5,172.19,8.66,37.53,45.5,125.39,75.19,151.8,18.76,16.68,55.64,35.51,83.91,47.56,31.5,13.44,90.31,24.42,121.84,25.27,1.23,0,2.49,0,3.78,0,39.69,0,111.17-15.14,150.67-26.3,22.27-6.29,60.87-20.19,88.57-33.57l-.44-.9c-27.64,13.35-66.18,27.23-88.4,33.51-40.73,11.51-115.49,27.24-154.15,26.21-31.45-.85-90.08-11.8-121.48-25.19-28.19-12-65-30.79-83.63-47.39-29.56-26.29-66.25-113.85-74.89-151.28-10-43.22-5.43-129.28,5-171.72,9.19-37.46,41.81-101.11,78.49-138.63,23.3-23.84,85.86-66.74,124-85,38.57-18.49,124-28.1,157-27.87,27.31.2,99.77,9.46,149.45,36.81,24.8,13.65,57.24,48.87,72.36,69.53,16.36,22.35,39.42,90.42,44.68,119.71,5.57,31.07.37,82.75-4.49,109.91-4.59,25.7-21.94,70.51-34.38,93.41-8.66,16-36.08,39.4-51.15,48.54s-52.86,15.58-69.67,11.85c-17.22-3.82-39.43-30.26-46.57-46.06-6.33-14-4.27-42.14-1.89-62.25a13.15,13.15,0,0,0,.59-4.76h0c.49-3.82,1-7.23,1.35-10,7.83-56.38,54.74-213.62,55.22-215.2l-1-.29c-.29,1-17.43,58.39-32.72,116.27-6.67-28.3-37.84-79.43-49.57-94.7-7.75-10.08-27.26-17.84-52.19-20.76-33.65-3.94-80.58.77-111.39,25.8-39.74,32.29-53.79,58.43-72.06,108.51-23.6,64.7-10.27,110,5.89,145.83,7.15,15.85,13.86,23.78,24,35.78,1.42,1.69,2.92,3.45,4.49,5.33,9.89,11.82,29.37,18.59,54.86,19.09,1,0,2,0,3.06,0,39.33,0,80.62-14.44,99.06-34.83l.33-.28c10.6-8.81,58.08-49.11,68.59-72-2.17,19.82-3.6,45.5,2.42,58.85,7.39,16.37,29.48,42.68,47.27,46.63,17,3.77,55.15-2.72,70.4-12s42.77-32.83,51.51-48.92c12.48-23,29.88-67.93,34.49-93.71,4.87-27.23,10.08-79.07,4.48-110.27C1129.76,1440.59,1106.61,1372.29,1090.18,1349.83ZM855.24,1700.54l-.39.33c-18.79,20.78-61.47,35.3-101.41,34.53-25.2-.49-44.41-7.14-54.11-18.73l-4.5-5.34c-10.1-11.94-16.78-19.82-23.87-35.54-16.08-35.62-29.34-80.72-5.86-145.08,18.2-49.9,32.19-75.94,71.75-108.07,30.57-24.84,77.2-29.5,110.64-25.59,24.67,2.89,43.93,10.51,51.51,20.38,12,15.56,44.19,68.49,49.81,96.18-9.89,37.53-18.91,75-22,97-.55,4-1.26,9.12-2,14.94C918.57,1647,866.38,1691.27,855.24,1700.54Z"/>
    <rect x="2152.36" y="747.53" width="1" height="989.2"/>
    <g>
      <rect x="2153.66" y="1893.38" width="2" height="2.7"/>
      <rect x="2151.66" y="1891.38" width="6" height="6.7"/>
    </g>
  </g>
</svg>
