<svg xmlns="http://www.w3.org/2000/svg" viewBox="0 0 2994.91 3000">
  <title>26icon 1</title>
  <path d="M1574.34,2608.93c-10.47,0-21-.5-31.34-1-14-.67-28.48-1.36-42.42-.78-12.21-1.32-25-.95-37.42-.59-21.29.62-43.3,1.26-63-6.5-74.08-44.66-149.36-89.93-222.17-133.71l-51.45-30.94c-12-8-24.85-15.26-37.25-22.3-20.24-11.48-41.16-23.36-59.19-38.6-55.7-62.74-108.16-126.79-158.89-188.73-49.46-60.39-100.61-122.84-154.72-184l-.14-.17,0-.22c8-75,12.3-150.84,16.41-224.15,4.13-73.64,8.4-149.79,16.52-225.19-7.33-45.48-21-81.35-34.16-116-14.82-38.94-28.81-75.73-33.6-123.67v-.1c3.51-32.6,13.09-135,14-144.8l-325.77,97.86L234.41,1526.5,402,1668.73,171.1,1553.29l-.07-.18L71.28,1303.74l.1-.2L172.5,1104.09,467.17,927.81,726.83,873.2l78.45-256.08.16-.1c1.42-.84,142.24-85.21,208.7-130,70.44-46.73,87.82-48.36,161-55.23q7.41-.69,15.64-1.48c61.7-7,124.43-14.18,185.1-21.13q64.9-7.44,129.81-14.85c59.88-9.47,120.32,3.39,178.76,15.82,29.8,6.34,60.61,12.9,90.91,16.39,30.3,6.49,61.69,11.32,92.05,16,47.28,7.28,96.17,14.81,142,28.74l.12.05c30.9,19.34,62.39,38.88,92.85,57.79l22,13.62c25.81,20.29,82.39,58,83,58.41l.18.12,0,.21,42.16,232.65,590.74,264.21.08.2,88.22,225.94-.06.18-93.5,261.11-.19.08-297,140.87,146.8-165.67-66.33-315-352.08-76.63-9.67,177.39,0,.09-108.22,217.84c6.78,46.24,65.09,444.66,60.43,450.48-6.55,8.18-20,25.83-38.6,50.25-75.63,99.24-233,305.75-313,381.78-60.66,38.63-122.07,78.19-181.45,116.43q-33,21.26-66,42.48l-.19.07A200.84,200.84,0,0,1,1574.34,2608.93Zm-62.63-3c10.43,0,21,.51,31.34,1,22,1,44.86,2.13,66.27-1.67q33-21.2,65.9-42.43c59.38-38.25,120.79-77.8,181.38-116.37,79.85-75.92,237.18-282.39,312.79-381.61,18.61-24.42,32.06-42.07,38.62-50.27,3.29-6.42-38.24-297.07-60.66-449.86l0-.16.07-.14,108.25-217.88,9.71-178.36,353.87,77,.07.32,66.49,315.85-.17.18-143.72,162.2,292.44-138.68,93.31-260.54-88-225.41L2248.77,834.86l0-.26-42.18-232.7c-3.53-2.35-57.73-38.58-82.8-58.3L2101.84,530c-30.44-18.89-61.91-38.43-92.8-57.76-45.76-13.89-94.59-21.41-141.82-28.68-30.37-4.68-61.77-9.52-92-16-30.3-3.49-61.14-10.05-91-16.4-58.35-12.42-118.69-25.26-178.42-15.81q-64.93,7.39-129.83,14.85c-60.66,7-123.4,14.15-185.11,21.14l-15.65,1.48c-74.73,7-90.28,8.47-160.51,55.07-65.44,44.06-203,126.53-208.57,129.88l-78.5,256.28L467.46,928.77l-294.2,176-100.88,199,99.51,248.77L395,1664.13,233.16,1526.75l.18-.35,135.75-262,.2-.06L696.68,1166l-.07.74c-.1,1.11-10.39,111.35-14.06,145.49,4.78,47.79,18.75,84.5,33.53,123.36,13.22,34.75,26.89,70.68,34.23,116.3v.13c-8.12,75.39-12.39,151.56-16.52,225.21-4.11,73.25-8.36,149-16.39,224,54.06,61.17,105.17,123.56,154.59,183.91,50.73,61.93,103.18,126,158.81,188.65,17.91,15.13,38.8,27,59,38.44,12.42,7.05,25.26,14.34,37.3,22.33l51.42,30.92c72.81,43.78,148.1,89.06,222.1,133.68,19.42,7.64,41.33,7,62.52,6.39,12.43-.36,25.28-.73,37.48.59C1504.28,2606,1508,2605.94,1511.71,2605.94Z"/>
</svg>
