<svg xmlns="http://www.w3.org/2000/svg" viewBox="0 0 2994.91 3000">
  <title>58icon 1</title>
  <g>
    <path d="M1392.08,2938.42l-.28-.12c-.28-.13-.3-.37-.31-.69l0-.29,1-.13c.16.8,0,1-.14,1Z"/>
    <path d="M2033,2815.43a.44.44,0,0,1-.24-.07l-.26-.16v-.3c0-.21.06-.37.82-.73l.46.89-.18.1A1.35,1.35,0,0,1,2033,2815.43Z"/>
    <path d="M1496,2932c-36,0-71.91-4.71-105-10.19l-.4-.06,0-.4c-2.56-44.5-5.2-89.74-7.87-135.4-10.29-176.26-20.94-358.52-28.62-529.85l0-.57.57.05a1530.35,1530.35,0,0,0,202.42,3.2l.46,0,.06.46,82.87,621.7-.47.08-30.38,5-18.76,31.84-.17.06C1560.33,2928.18,1528.13,2932,1496,2932Zm-104.49-11.11c62.49,10.31,134.89,17.86,198.61-3.9L1608.9,2885l.23,0,30.12-4.95-82.68-620.28a1530.57,1530.57,0,0,1-201.53-3.18c7.69,171.16,18.32,353.21,28.6,529.27C1386.3,2831.37,1388.93,2876.47,1391.48,2920.84Z"/>
    <path d="M1374.57,2924.54a.41.41,0,0,1-.36-.17l-.18-.22.1-.28c.07-.19.16-.26.41-.32h0l.35-.06h.15l4.08.32-4,.67-.41.07h-.14Z"/>
    <path d="M564.65,2613.64l-.12-.08-.54-.35,0,0h0c-.33-.24-.39-.4-.2-.7s.44-.27.72-.13h0l.3.17.42.29Z"/>
    <path d="M2308.71,2707a.67.67,0,0,1-.45-.23l.34-.37-.26-.24.26.24.34-.37a.58.58,0,0,1,.26.57l-.06.28-.28.09Z"/>
    <path d="M2299.49,2691.68l-.24-.57c-43.45-103.92-74.26-215.36-104-323.14-14.68-53.09-29.85-108-46.32-161.14l-.17-.56.58-.08c23.78-3.32,48.39-7.44,75.24-12.59l.38-.08.17.36c61.69,136,122,260.47,184.46,380.43l8.51,16.05q3.6,6.82,7.22,13.64l.21.39-.36.26ZM2150,2207.1c16.4,53,31.52,107.69,46.15,160.61,29.73,107.54,60.46,218.75,103.76,322.45l124.26-86.08-7-13.25q-4.24-8-8.51-16h0c-62.39-119.89-122.68-244.22-184.32-380.12C2197.85,2199.73,2173.52,2203.8,2150,2207.1Z"/>
    <path d="M2049.82,2805.72l-.16-.66c-47.27-205.33-100-410.06-145.26-583.26l-.16-.62h.64c53.1-.08,103.26-.16,155.91-4.55l.4,0,.12.39c30.35,99.59,62.24,208.67,93.07,314.16,6.86,23.47,13.63,46.63,20.26,69.28h0l32.87,113.29-.34.2Zm-144.29-583.54c45.22,172.87,97.77,377.13,145,582l155.84-90.93-32.65-112.54h0c-6.63-22.65-13.4-45.81-20.26-69.28-30.79-105.35-62.63-214.28-93-313.76C2008.14,2222,1958.28,2222.1,1905.53,2222.18Z"/>
    <path d="M2054.06,2824.08l-.54-2.32,1.19,1.08c.13.12.14.14.31.95h0l0,.06Z"/>
    <path d="M1745.45,2884.26l-.1-.61c-35.26-231.09-76-462.69-107.55-638.65l-.11-.59h.6c64.93-.06,123.66-.45,184.76-4.7l.43,0,.09.43,121.93,567.46-.4.15Zm-106.56-638.85c31.51,175.73,72.16,406.84,107.36,637.47l198.09-75.94-121.66-566.2C1761.89,2244.94,1703.45,2245.35,1638.89,2245.41Z"/>
    <path d="M692,2695.17l-115.58-74,.18-.39c62.19-136,124.18-277.36,184.27-420.28l.16-.37.39.07c26.22,4.65,52.44,8.06,80.15,10.41l.62.06-.18.59c-37.5,120.38-113.11,364.27-149.82,483.27ZM577.7,2620.81l113.74,72.81c36.72-119,111.94-361.68,149.44-482-27.38-2.35-53.31-5.72-79.23-10.3C701.66,2343.93,639.78,2485.08,577.7,2620.81Z"/>
    <path d="M971.26,2840.34l-.62-.22-175.11-63-29.64-10.67-.45-.16.14-.46c49.79-164.91,102.12-346.24,160-554.35l.13-.45.45.09c37.59,7.4,67.25,12.8,98.92,16.83l.48.06,0,.49c-20.61,184.94-35.47,373.58-49.84,556l-4.35,55.22Zm-175.39-64.2L970.36,2839q2.16-27.28,4.31-54.57c14.35-182.28,29.2-370.75,49.78-555.55-31.39-4-60.84-9.37-98-16.69-57.77,207.74-110,388.8-159.74,553.48l29.2,10.51Z"/>
    <path d="M2277.22,2707.89l-.53-1,.27-.32c.5-.42,1-.81,1.67-1.25l.62.78Z"/>
    <path d="M1749,2904.06l-.28-.1c-.29-.1-.33-.32-.37-.66l-.06-.35,1-.21c.24.86.06,1,0,1.12Z"/>
    <path d="M1282.91,2898.62l-201.25-10.23,0-.51c11.66-189.57,21.27-393.19,31.15-660.22l0-.57.56.09c50.78,8.53,96.77,16,145.39,20.45l.45,0v.45c1.92,115.55,7,241.33,11.89,363,2,49.63,3.89,96.5,5.58,142.9h0c1.48,40.7,3.35,82.08,5.15,122.09Zm-200.19-11.18,199.14,10.13-1-21.44c-1.8-40-3.67-81.4-5.15-122.1h0c-1.69-46.4-3.58-93.27-5.58-142.9-4.9-121.49-10-247.1-11.88-362.55-48.31-4.48-94-11.85-144.46-20.32C1104,2494.77,1094.36,2698.14,1082.72,2887.44Z"/>
    <path d="M952.66,1382.61l-.08-.44c-10.16-49.58-19.25-126.86-21.85-149.86-37.75-16.67-69.51-38.06-94.39-63.59a242,242,0,0,1-53.07-83.38c-14.06-36.89-20.53-79.7-19.25-127.26,1.12-41.56,8.22-88.08,21.1-138.27,23.53-91.68,62.92-183.5,98.36-261.22,3.08-4.78,3.32-32.64,3.49-53,.08-10.06.16-18.75.56-22,6.8-134.75-1.42-275.51-24.43-418.36l-.09-.54L966.8,57l.07.46c25.5,177.74,37.24,337.67,35.88,489,77.84,54.68,158.39,114.72,213.12,194.34C1301,806.57,1386,866.83,1488.39,881c101.82-14.29,186.85-74.37,272.17-140,55.57-80.44,139.28-142.63,213.43-194.61-1.29-149.69,10.79-314.2,35.91-488.95L2010,57l103.78,7.69-.09.54c-24,141.31-31.53,296.5-23,474.45,10.61,30.43,22.63,61.77,35.35,94.94,40.93,106.7,87.31,227.64,88.72,334.75,1.61,122.6-55.79,209.71-175.48,266.28-4.45,42.84-7.44,64.41-14.63,116.37-1.23,8.92-2.59,18.74-4.1,29.72l-.07.48-.47,0-48.33-4.26c-158.49-14.05-322.36-28.56-483.31-29.46-165.22,1-333.41,16.07-496.06,30.63l-39.18,3.5ZM864.17,65.6c23,142.74,31.16,283.4,24.36,418.05v0c-.39,3.2-.47,11.87-.55,21.92-.18,21.61-.41,48.5-3.62,53.46-35.38,77.62-74.75,169.38-98.26,261-27.84,108.51-28.46,195.17-1.89,264.93,24.81,65.11,74.33,114.41,147.2,146.53l.26.11,0,.29c2.55,22.55,11.63,99.85,21.78,149.61l38.73-3.46c162.67-14.56,330.88-29.61,496.15-30.63,161,.9,324.89,15.42,483.4,29.46l47.85,4.23c1.49-10.8,2.83-20.47,4-29.26,7.21-52.06,10.19-73.61,14.66-116.61l0-.28.25-.12c119.48-56.39,176.77-143.23,175.16-265.49-1.41-106.93-47.76-227.78-88.65-334.4-12.74-33.21-24.77-64.57-35.39-95l0-.14c-8.55-177.82-1.06-332.94,22.89-474.2l-101.75-7.53c-25.08,174.64-37.14,339-35.82,488.6v.26l-.22.15c-74.15,52-157.91,114.16-213.44,194.58l-.11.11c-39.66,30.51-82.18,62.44-127.5,88.08-50.28,28.45-97.8,45.52-145.27,52.17h-.14c-102.72-14.19-187.81-74.57-273.13-140.53l-.1-.11c-54.69-79.58-135.28-139.62-213.13-194.3l-.22-.15v-.27c1.37-151.17-10.34-311-35.81-488.59Z"/>
    <polygon points="755.36 2762.62 754.75 2762.4 755.09 2761.46 755.75 2761.7 755.36 2762.62"/>
    <path d="M1482.47,2172.45c-59,0-118-2.16-176.77-7.22h0c-161.8-11.8-322.28-28.15-513.45-49.06l-.62-.07.2-.59,30.7-90.2.42.06c446.05,70.25,893.82,70.26,1330.89,0l.41-.07.14.4,30.76,90.39-.63.06c-60.58,5.75-122.23,12.42-181.84,18.88C1832.11,2153.52,1657.2,2172.45,1482.47,2172.45ZM793,2115.25c190.9,20.87,351.2,37.2,512.81,49h0c58.75,5.06,117.72,7.22,176.69,7.22,174.69,0,349.56-18.93,520.1-37.39,59.41-6.43,120.84-13.08,181.23-18.81l-30.22-88.8a4172.36,4172.36,0,0,1-661.73,52.61,4298.32,4298.32,0,0,1-668.64-52.63Z"/>
  </g>
</svg>
