<svg xmlns="http://www.w3.org/2000/svg" viewBox="0 0 2994.91 3000">
  <title>98icon 1</title>
  <g>
    <path d="M959.6,2382.25l-.35-.35L605.73,2030.17,265,2371.73l-.36-.36L83.76,2190l.35-.35,339.1-342.47-344-346,180-180.51.35.34,350,341.9,351.34-349.45,181.26,181.79-.35.35L788.26,1847.13l352.6,353.34-.35.35ZM605.73,2028.76l.35.35L959.6,2380.84l179.85-180.37L786.84,1847.13l.36-.35,353.51-351.62L960.86,1314.79,609.53,1664.22l-.36-.34-350-341.9L80.59,1501.09l344,346-.35.35L85.17,2190,265,2370.31Z"/>
    <path d="M1854.71,2034.42l-.35-.36-353.52-351.72L1160.13,2023.9l-.36-.36-180.9-181.42.35-.36,339.1-342.46-344-346,.35-.35,179.64-180.16.35.35,350,341.89L1856,965.54l.35.35,180.91,181.44-.35.35L1683.37,1499.3,2036,1852.64l-.35.35Zm-353.87-353.49.35.35L1854.71,2033l179.85-180.36L1682,1499.3l.36-.36,353.51-351.61L1856,967l-351.33,349.44-.35-.35-350-341.89L975.7,1153.25l344,346-.35.35-339.1,342.46,179.85,180.37Z"/>
    <path d="M2741.23,1685.29l-.35-.35-353.52-351.72-340.71,341.55-.36-.35L1865.39,1493l.35-.35,339.1-342.47-344-346,180-180.51.36.35,350,341.89,351.34-349.44.35.35L2923.75,798.2l-.35.36-353.51,351.61,352.61,353.34-.36.36ZM2387.36,1331.8l.35.36,353.52,351.72,179.85-180.37-352.6-353.34.35-.35L2922.34,798.2,2742.49,617.83,2391.16,967.26l-.35-.34L2040.81,625l-178.59,179.1,344,346-.35.35L1866.8,1493l179.85,180.36Z"/>
  </g>
</svg>
