<svg xmlns="http://www.w3.org/2000/svg" viewBox="0 0 2994.91 3000">
  <title>118icon 1</title>
  <path d="M1513.23,2893.11c-34.45,0-70.17-6.66-106.71-19.94-39.88-14.5-76.51-42.17-108.88-82.26-26-32.25-49.39-72.56-69.41-119.81-30.47-71.92-44.71-140.71-47.59-158.39-9.33,75.64-24.85,140.86-46.13,193.89-29.28,72.94-69.65,123.29-120,149.65-44.93,23.52-89.52,35.32-133.2,35.32a241.06,241.06,0,0,1-61.59-8c-52-13.67-102.54-45.62-146.24-92.39-23.6-25.26-45.85-89.93-58.08-168.78-12.64-81.53-12.3-162.41.9-216.36q1.37-54.87,2.74-109.73l4.12-164.65,5.5-218.21,2.75-164.66,5.49-219.56c7.51-45.5,6.88-99.68,6.27-152.07-.63-53.71-1.28-109.25,7.07-153.8,33.29-177.64,104.46-326.51,211.53-442.49,104-112.63,242.82-195.39,412.66-246,33.38-9.94,69.13-14.43,107-19.18,18-2.27,36.69-4.61,55.22-7.6l67.72,1.2.79-4.68c4.73-28.25,7.86-46.91,20.6-81.39,33.57-90.82,75.08-187.32,179.45-280.86,44.93-40.27,161.33-59.65,209.29-66.12,1.26-.17,2.17-.29,2.3-.32h.1c66.17-.76,102.64,6.53,150.09,30,14.58,7.21,96.77,37.62,103.47,40.1,8-16.61,28.37-37.85,45.66-47.55A139.31,139.31,0,0,1,2303.85,82a146.5,146.5,0,0,1,76.66,34.93c39.55,35.09,51.2,85.05,31.14,133.64-13,31.6-36,54.92-66.28,67.42-27.33,11.26-59.17,13-89.68,4.9s-56.82-25.28-74.48-48.47c-19.72-25.88-27.8-58.05-23.38-93.05-3.22-1.61-30-15-41.28-21.29-28.62-16-107.3-52.06-154.63-55.38-37-2.59-83.15,2.72-130,14.94-42.67,11.14-80.75,26.89-101.86,42.14-93.26,67.36-125.51,146.81-159.65,230.93-4.28,10.55-8.71,21.46-13.21,32.19-11.64,27.77-18.37,62.9-22,87.68,125.5,2.92,278.81,42.36,373,96,118.06,67.18,209.71,144.38,280.19,236a791.59,791.59,0,0,1,95.25,160.31c26.58,59.63,47.36,125.49,61.77,195.74,6.67,32.51,6.89,73.35,7.1,112.83.2,36.59.4,74.42,5.68,106q1.38,55,2.76,109.84t2.74,109.78q1.39,54.88,2.76,109.77,1.36,82.34,2.75,164.67,2.73,109.08,5.49,218.21,2.07,82.32,4.13,164.65,1.37,54.87,2.74,109.75c20.15,124.5,8.57,232.46,2.66,273.1a228.81,228.81,0,0,1-44,105.17,257.45,257.45,0,0,1-86,72.84,264.84,264.84,0,0,1-113.82,30.33,251.72,251.72,0,0,1-120.73-26.05c-140.69-69.23-196.61-260.26-211.59-337.63,2.58,48.65-5.47,101.27-23.44,151.32-23.16,64.51-60.13,119-106.92,157.67-35.94,29.67-76.2,48.64-119.65,56.38A256.75,256.75,0,0,1,1513.23,2893.11Zm-332.56-389,.43,4.75c.65,7.3,14.49,82.65,48.05,161.88,31.29,73.84,87.51,168.73,177.71,201.52,127.21,46.23,217.22,3.66,270.32-40.2,86.59-71.5,138.77-201.24,129.48-316.47-2.25-12.87-3.1-21.41-2.86-24l.36-4,.63,3.94q1.88,11.81,2.84,24c12.35,70.79,66.92,273.37,212.58,345.05a253.18,253.18,0,0,0,112.1,26.27c41.38,0,82.91-10.19,121.55-30.53,70.29-37,118.69-103.27,129.46-177.27,5.9-40.6,17.47-148.46-2.66-272.84v-.06q-1.38-54.9-2.74-109.78-2.07-82.34-4.13-164.66-2.76-109.11-5.49-218.21-1.38-82.34-2.75-164.67-1.38-54.88-2.76-109.77T2360,1529.26q-1.38-54.9-2.75-109.78c-5.28-31.55-5.49-69.42-5.69-106-.21-39.44-.43-80.22-7.08-112.64C2290.21,936,2151.44,748.08,1907.79,609.43c-94.24-53.64-247.67-93.07-373.12-95.87l-.57,0,.08-.55c3.6-24.87,10.36-60.41,22.13-88.48,4.5-10.74,8.92-21.64,13.21-32.19,16.41-40.43,33.38-82.24,57.49-121.31a378.57,378.57,0,0,1,102.5-110c21.2-15.32,59.4-31.13,102.18-42.3,46.93-12.25,93.21-17.56,130.3-15,47.5,3.33,126.36,39.51,155,55.5,12,6.68,41.26,21.29,41.55,21.43l.32.16,0,.35c-9.88,76.82,41.64,126.06,97.07,140.78,54.35,14.44,125.95-1.86,154.79-71.74,19.88-48.17,8.34-97.71-30.88-132.5-37.77-33.5-102.89-52.16-163.24-18.34-17.28,9.69-37.67,31-45.44,47.52l-.2.42-.43-.16c-.88-.33-88.83-32.8-104-40.31-47.27-23.37-83.61-30.64-149.58-29.88l-2.33.33c-47.87,6.45-164,25.78-208.75,65.86-104.2,93.39-145.65,189.76-179.18,280.46-12.71,34.39-15.83,53-20.56,81.21l-.93,5.54h-.43l-68.06-1.22c-18.46,3-37.12,5.33-55.17,7.6-37.81,4.75-73.53,9.23-106.82,19.15-347.61,103.55-557.38,334.93-623.5,687.71-8.33,44.45-7.68,99.94-7.05,153.6.61,52.43,1.24,106.65-6.27,152.17l-5.49,219.49-2.75,164.66-5.5,218.21-4.12,164.66q-1.38,54.88-2.75,109.78v.1c-13.18,53.84-13.51,134.59-.89,216,12.2,78.66,34.35,143.13,57.82,168.24,56.89,60.9,176.69,150.29,339.83,64.87,50.13-26.25,90.35-76.42,119.53-149.13,21.6-53.83,37.26-120.25,46.53-197.41Z"/>
</svg>
