<svg xmlns="http://www.w3.org/2000/svg" viewBox="0 0 2994.91 3000">
  <title>62icon 1</title>
  <g>
    <path d="M1114.44,2849c-38.71,0-75.79-8.29-109.19-24.62l-.63-.31.5-.49L2767.47,1056.71l.35.45c29.8,38.67,46.57,86.59,48.5,138.57,2.22,59.92-15,120.22-49.82,174.44a225.78,225.78,0,0,1,89.14,83.44l.21.34-.28.28L1489.32,2823.92l-.14.14H1487c-50.86,0-106.61-26.85-165.75-79.83-46.19,49.2-87.14,87.81-156.85,100.24A284.18,284.18,0,0,1,1114.44,2849Zm-108.12-25.21c47.23,22.91,101.82,29.73,157.92,19.73h0c69.58-12.41,110.44-51.07,156.63-100.31l.34-.35.36.32c59.76,53.64,116,80.5,167.19,79.9L2854.59,1453.8a224.76,224.76,0,0,0-89-83l-.48-.25.29-.46c34.91-54.16,52.18-114.44,50-174.32-1.91-51.57-18.49-99.12-48-137.55Z"/>
    <path d="M851.78,2726.74l-.35-.41c-22.33-26.32-37.46-57.61-45-93-68.9,5.65-131.49-15.06-176.3-58.34l-.37-.35.36-.36s457.95-458.87,915.93-917.73c229-229.43,458-458.85,629.76-630.91,85.88-86,157.46-157.72,207.57-207.9l58.17-58.24,15.34-15.34c4.59-4.58,5.36-5.35,5.67-5.4h0c49.33,3.45,95.7,51.34,125.93,90.9,34.15,44.72,56.45,90.24,56.72,99.12V929l-.15.15L852.17,2726.35Zm-44.55-94.48.09.44c7.43,35.21,22.41,66.35,44.52,92.56L2644.2,928.6c-.62-9.48-24-55.77-56.51-98.33-30.05-39.34-76.11-86.94-125-90.5-18.89,18.59-1797.43,1800.7-1831.52,1834.86,44.67,42.92,107,63.4,175.6,57.67Z"/>
    <path d="M528.1,2406.72l-.27-.72c-9-23.46-9-29.48-9-54.79v-5.27c0-13,2-39.23,9.59-57.17-26.56,15.29-65.45,23.25-96.8,29.66-4.9,1-9.64,2-14.18,2.94-80.38,17.07-142.63-10-180.7-35.71l-.5-.34.43-.43L2045.07,472.21l.14-.09a318.87,318.87,0,0,1,72.58-25.05l.11.49-.11-.49c55.22-11.73,108.39-6.88,153.74,14a196.58,196.58,0,0,1,98.31,99l.14.31-.24.25Zm2.53-120.4-.65,1.44c-7,15.57-10.15,40.44-10.12,58.18v5.27c0,24.9,0,31,8.62,53.71L2368.79,560.23c-41.51-91.69-139.9-135.73-250.79-112.18A317.64,317.64,0,0,0,2045.72,473L237.84,2285.17c38,25.5,99.74,52.14,179.42,35.22,4.54-1,9.29-1.93,14.19-2.94,31.8-6.5,71.39-14.6,97.82-30.32Z"/>
    <path d="M1861,2769.46c-20.3,0-42.1-2.49-65.23-7.48l-.9-.19L2939.72,1612.67l.09,1.08c.56,6.78.86,13.51.87,20,.1,58.72-26.26,108.13-54.82,152.77,20.76,32.49,52,110.7,52.1,155.28.12,63.45-35.21,137-56.1,170.42-7.21,11.55-22.6,30.28-37.41,45.54-39.14,46.79-91.67,107.1-119.51,128.47-49,37.57-132.12,84-212.54,128.89-60.47,33.76-117.59,65.64-155.94,91.43-99.73,67.06-340.06,210.5-342.47,211.94l-.15.09h0c-34.37,22.81-71.13,38.48-109.26,46.57A209.38,209.38,0,0,1,1861,2769.46Zm-64.13-8.27c40.22,8.57,76.38,9.57,107.49,3l.1.48-.1-.48c38.06-8.09,74.76-23.74,109.06-46.54l.16-.1h0c7.2-4.3,243.59-145.46,342.27-211.82,38.39-25.81,95.52-57.71,156-91.47,80.39-44.88,163.52-91.28,212.42-128.81,27.77-21.32,80.25-81.57,119.38-128.35,14.79-15.24,30.12-33.9,37.3-45.4,20.84-33.36,56.07-106.67,55.95-169.89-.08-44.52-31.42-122.78-52.11-155l-.18-.27.18-.27c28.54-44.59,54.93-93.92,54.83-152.49,0-6.11-.28-12.44-.78-18.83Z"/>
    <path d="M52.58,1523.33l-.22-.84a243.18,243.18,0,0,1-7.92-58.76c-1.37-93.27,55.68-157.9,117.6-213.84-1.1-9.09-7.15-67.44-7.29-77-.62-42.15,8.51-79.88,27.92-115.34,17-31,42.13-61.23,79.18-95.09l.06-.06c2.06-2,207.63-205.73,376-354.11,172-151.54,423.1-320.85,425.61-322.54l.24-.16h0c36.44-24.78,75.75-41.52,116.82-49.73l.1.49-.1-.49c50.78-10.16,100.46-6.1,143.64,11.73l.7.29-.53.53ZM262.76,963h0l-.16.15c-77.05,70.39-108,131.16-106.85,209.75.14,9.34,6.32,69.13,7.31,77.16l0,.25-.19.18c-61.81,55.82-118.83,120.29-117.46,213.26a242.1,242.1,0,0,0,7.67,57.67L1323.17,248.22c-42.84-17.51-92.06-21.45-142.37-11.39h0c-41,8.21-80.28,24.94-116.68,49.74l-.23.16h0C1055,292.74,808.24,459.54,638.6,609,472.14,755.7,269.33,956.45,262.76,963Z"/>
    <path d="M106.39,2155.48l-.33-.54c-20.78-33.91-32.25-74.45-33.19-117.23C71.67,1983,93.26,1930.5,137,1881.79c35.77-39.82,85.09-76.06,146.57-107.74-43.18-13.73-106.06-65.12-130.77-94.91l-.29-.35.32-.32L1466.16,361.91l.16-.15h.22c4.24.23,15.19-.26,27.87-.83,17-.77,38.17-1.72,49.62-1.14,64.51,3.3,110,11.14,147.3,25.42,44.74,17.1,77,43.89,98.71,81.91l.19.33-.27.27Zm47.5-476.63c25.07,30,88.31,81.55,131.18,94.61l1.18.36-1.1.56C205,1815.51,71,1904.4,73.87,2037.69c.93,42.37,12.24,82.54,32.71,116.18L1789,467.3c-48.74-85.08-146.56-101.47-245-106.5-11.4-.58-32.54.37-49.53,1.14-12.48.56-23.3,1.05-27.74.84Z"/>
  </g>
</svg>
