<svg xmlns="http://www.w3.org/2000/svg" viewBox="0 0 2994.91 3000">
  <title>70icon 1</title>
  <g>
    <path d="M2584.41,2933.12H381.59l206.14-483.45H2399.27Zm-2201.31-1H2583l-184.38-481.45H588.39Z"/>
    <path d="M2375.36,2256.27H629.57l-.14-.14a1266.3,1266.3,0,0,1-288.1-409,1255,1255,0,0,1-78.58-243.92,1268.88,1268.88,0,0,1-27.44-262.73c0-170.56,33.51-336,99.58-491.76A1265.11,1265.11,0,0,1,606.45,447.16a1269.47,1269.47,0,0,1,402.78-270.75c156.22-65.88,322.17-99.28,493.23-99.28s337,33.4,493.24,99.28A1268.27,1268.27,0,0,1,2670,848.73c66.07,155.75,99.58,321.2,99.58,491.76a1268.2,1268.2,0,0,1-27.45,262.73,1254.7,1254.7,0,0,1-202.67,463.42,1273.39,1273.39,0,0,1-164,189.49Zm-1745.39-1H2375c253.86-240.75,393.66-565.61,393.66-914.78,0-696.07-568-1262.36-1266.16-1262.36S236.31,644.42,236.31,1340.49C236.31,1689.66,376.11,2014.52,630,2255.27Z"/>
  </g>
</svg>
