<svg xmlns="http://www.w3.org/2000/svg" viewBox="0 0 2994.91 3000">
  <title>52icon 1</title>
  <g>
    <path d="M1514.63,2066.37c-32.26,0-58.47-1.18-82.5-3.7a355.89,355.89,0,0,1-38.32-5.89c-5.79-1.24-11.38-2.69-16.62-4.29l-.22-.07-.09-.2L1254.4,1785.14l-65.23-142.23-33.3-72.4q-4.06-8.28-8.12-16.6c-8.83-18.1-18-36.82-27.4-54.79-52.62-102.45-109-201.69-152.32-276.71-34.55-59.8-71.26-122.06-109.13-185l-.53-.9,1,.14c68.05,9.29,120.41,16.09,169.77,22l2.16.25c43.43,5.11,88.34,10.38,134.59,13.71l67.54,3.71,67,4.54,13.09.93c39.93,2.82,81.21,5.74,122.35,8,25.38,1.34,46.91,2.3,69.45,2.62,21,.27,43.25-.22,70.16-1.54,42.48-2.09,84.93-5.08,126-8l9.79-.69,23.7-1.67c36.25-2.56,73.74-5.22,109.47-6.75,37.07-1.87,70.32-5.47,105.53-9.29l3.07-.33c31.87-3.6,66.42-7.77,105.6-12.74,35.43-4.55,71.76-9.37,111.07-14.73l1-.14-.54.89c-37.71,62.71-74.41,124.94-109.07,185-43.26,75-99.65,174.16-152.31,276.66-9.42,18-18.55,36.68-27.38,54.77q-4.07,8.33-8.14,16.63L1840,1642.87h0l-187.7,409.5-.21.06c-5.19,1.6-10.79,3-16.63,4.3a356.71,356.71,0,0,1-38.33,5.9C1573.1,2065.16,1546.88,2066.35,1514.63,2066.37Zm-136.93-14.78c5.15,1.58,10.64,3,16.33,4.21a358.35,358.35,0,0,0,38.21,5.88c24,2.51,50.17,3.69,82.39,3.69s58.4-1.21,82.39-3.73a357.44,357.44,0,0,0,38.22-5.89c5.74-1.23,11.23-2.65,16.33-4.21l187.51-409.09,33.29-72.39q4.08-8.32,8.14-16.64c8.83-18.1,18-36.81,27.4-54.79,52.66-102.51,109.06-201.72,152.32-276.7,34.5-59.73,71-121.66,108.55-184.07-38.92,5.31-74.93,10.08-110.05,14.59-39.19,5-73.74,9.15-105.62,12.74l-3.08.34c-35.21,3.81-68.48,7.42-105.59,9.29-35.72,1.53-73.19,4.18-109.44,6.75l-23.7,1.67-9.79.69c-41.06,2.89-83.51,5.88-126,8-26.94,1.32-49.25,1.81-70.23,1.54-22.55-.32-44.09-1.28-69.49-2.62-41.14-2.27-82.43-5.19-122.36-8l-13.09-.92-66.94-4.54-67.54-3.71c-46.28-3.33-91.2-8.61-134.64-13.71l-2.17-.26c-49.12-5.92-101.2-12.68-168.75-21.9,37.68,62.67,74.21,124.63,108.59,184.15,43.29,75,99.72,174.29,152.35,276.75,9.44,18,18.58,36.7,27.41,54.81q4.06,8.31,8.13,16.61l33.3,72.41,65.23,142.24Z"/>
    <g>
      <circle cx="2744.43" cy="920.05" r="4.63"/>
      <path d="M2744.43,925.18a5.13,5.13,0,1,1,5.13-5.13A5.14,5.14,0,0,1,2744.43,925.18Zm0-9.26a4.13,4.13,0,1,0,4.13,4.13A4.14,4.14,0,0,0,2744.43,915.92Z"/>
    </g>
    <g>
      <circle cx="290.95" cy="928.2" r="7.52"/>
      <path d="M291,936.22a8,8,0,1,1,8-8A8,8,0,0,1,291,936.22Zm0-15a7,7,0,1,0,7,7A7,7,0,0,0,291,921.18Z"/>
    </g>
    <polygon points="690.18 1000.59 520.15 968.4 367.04 936.21 367.25 935.23 520.35 967.42 690.36 999.61 690.18 1000.59"/>
    <path d="M2344.13,998.18l-.15-1c1.22-.2,122.8-19.34,166.44-27.4,36.61-6.75,156.78-35.16,158-35.45l.23,1c-1.21.29-121.4,28.71-158,35.47C2467,978.84,2345.36,998,2344.13,998.18Z"/>
    <path d="M108.74,1324.54c-11.92,0-34.7-12-42.8-20.94-8.83-9.75-18.63-36.5-18.4-50.22.34-19.65,17.75-54.21,32.3-79.74C95.6,1146,127.16,1098,148,1077.9c2.36-2.27,7.12-7,13.15-13.06,40.27-40.25,66.08-65.24,70-65.24h.12a2.67,2.67,0,0,1,1.79,1.19c4.37,6.16-1.67,38-7.51,68.76-4.19,22.06-8.15,42.9-8.3,53.84-.19,12.7-11.06,36.11-20.64,56.76-4.9,10.56-9.53,20.53-11.63,26.92-1.47,4.47-3.15,10-4.93,15.77-8.35,27.29-19.8,64.67-33.84,80.75-7,8-26.31,20.58-36.89,20.94ZM231,1000.59c-4.18,0-49.68,45.47-69.18,65-6,6-10.8,10.79-13.16,13.07-20.77,20-52.25,67.91-68,95.51-14.49,25.43-31.84,59.83-32.17,79.27-.23,13.53,9.43,39.91,18.14,49.53,8.1,8.94,31.06,21,42.59,20.6,10.34-.35,29.28-12.71,36.17-20.6,13.9-15.92,25.31-53.18,33.64-80.38,1.78-5.82,3.46-11.31,4.93-15.79,2.11-6.44,6.54-16,11.67-27,9.07-19.54,20.36-43.86,20.55-56.35.16-11,4.12-31.91,8.31-54,5.54-29.15,11.81-62.19,7.69-68a1.68,1.68,0,0,0-1.13-.78Z"/>
    <path d="M163.51,1607c-.16-.62-15.93-62-18.19-82.8-3.63-33.45-1.38-100.07-.17-135.87l.31-9.36c.7-21.46,1.88-57.37,5.24-75.8,1.1-6.08,5.61-16.25,10.37-27,6.34-14.31,12.89-29.11,12.89-37.05h1c0,8.15-6.59,23.05-13,37.45-4.74,10.71-9.22,20.83-10.31,26.79-3.35,18.36-4.52,54.23-5.22,75.65l-.31,9.36c-1.21,35.77-3.46,102.35.16,135.73,2.26,20.77,18,82,18.17,82.66Z"/>
    <path d="M216.23,1683.18c-.07-1.16-6.58-116.84-12.89-154.66-2.47-14.75-10.8-38.73-18.16-59.89-3.6-10.35-7-20.14-9.17-27.34s-5.54-16.34-9.13-26.07c-8.48-23-19-51.6-19-69.48h1c0,17.7,10.52,46.22,19,69.13,3.59,9.75,7,19,9.15,26.13s5.56,17,9.16,27.31c7.37,21.19,15.72,45.21,18.19,60,6.33,37.87,12.84,153.6,12.9,154.77Z"/>
    <path d="M206,1464.89c-4.26,0-9.34-1.88-15.18-4-2.91-1.07-5.91-2.17-9.19-3.21l.31-1c3.3,1,6.31,2.15,9.22,3.22,12.75,4.7,20.44,7.53,25.14-4.72,15.87-41.37,20.72-111.88,24.61-168.53.29-4.28.59-8.5.87-12.63,1.84-26.26,11.68-94.66,20.35-155,7.62-52.92,14.82-103,14.37-109.53-9.51,1.92-36.17,59.66-69.94,151.57-30.34,82.55-55.67,163.69-57.68,184.71l-1-.09c2-21.1,27.38-102.34,57.74-185,13.1-35.67,57-152.06,71.3-152.28h.41l.09.4c.94,4.36-6.12,53.47-14.3,110.32-8.67,60.33-18.5,128.7-20.34,154.93-.29,4.13-.58,8.35-.87,12.63-3.9,56.72-8.75,127.3-24.68,168.82C214.52,1462.53,210.75,1464.89,206,1464.89Z"/>
    <path d="M2605.88,1355.52c-6,0-11.36-1-14-4-11.11-12.54-.88-45.68,5.89-67.6,1.48-4.8,2.76-9,3.67-12.36,7-26.4,25.85-67.3,42.46-103.4,9.49-20.63,18.46-40.11,24.17-54.6,11.13-28.2,42-114.31,42.32-115.18l.15-.41,29.77,6.86v.41c0,1.24-1.23,124.94-6.8,165.52-2.06,14.94-9.58,44.47-14,59.17-1,3.35-2.15,7.41-3.37,11.7-6.12,21.62-14.5,51.22-24.64,64.74-11.9,15.87-44.08,39.58-61.49,45.3A89,89,0,0,1,2605.88,1355.52Zm105.29-356.41c-2.35,6.58-31.45,87.58-42.18,114.79-5.72,14.51-14.69,34-24.19,54.65-16.6,36.06-35.4,76.92-42.4,103.23-.92,3.44-2.2,7.59-3.69,12.41-6.7,21.71-16.83,54.51-6.09,66.64,5.76,6.51,27.34,3.05,37.07-.14,17.26-5.68,49.19-29.2,61-45,10-13.38,18.72-44.09,24.48-64.41,1.22-4.3,2.37-8.36,3.38-11.72,4.4-14.67,11.9-44.13,13.95-59,5.41-39.35,6.71-157.15,6.79-165Z"/>
    <path d="M2913.38,1209.77c-10.88,0-30.48-8.76-39-15.07-19.46-14.38-46.45-55.58-58-75.36-16.46-28.18-51.25-120.55-51.6-121.48l-.16-.42,28.62-14.32.25.2c.62.49,62.22,49.18,81.53,66.64,3,2.72,6.7,6,10.59,9.38,19.11,16.8,45.28,39.8,55.16,56.27,6.11,10.18,14.71,34.19,14.07,46.48-.48,9.14-7.87,26.73-14.13,33.62-5.17,5.7-18.76,13.52-26.09,14C2914.21,1209.75,2913.8,1209.77,2913.38,1209.77ZM2765.85,997.93c2.58,6.84,35.52,93.77,51.38,120.91,11.52,19.71,38.41,60.77,57.73,75.06,8.75,6.46,29.21,15.53,39.57,14.83,7-.48,20.47-8.24,25.42-13.69,6-6.63,13.41-24.21,13.87-33,.63-12.12-7.88-35.84-13.93-45.92-9.79-16.33-35.9-39.28-55-56-3.9-3.43-7.58-6.66-10.6-9.39-18.66-16.87-76.91-63-81.23-66.4Z"/>
    <path d="M2809.51,1500.55l-1-.09,8.86-99.92c-.1-1.12-9.74-120.8-14-160.38-3-27.71-9.71-83.06-14-110.25-4.94-31.55-23-123.67-24.6-131.59l-24.52,7.25c.49,6.14,6.34,79.66,9.24,104.56,1.35,11.69,4,28.08,6.84,45.43,4,24.65,8.14,50.13,9.32,66.64,1.8,25.09,3.83,74,0,97.88-2.24,14-10.37,36-17.55,55.36-3.06,8.29-6,16.13-7.9,22.08-7.2,22-28.72,88.5-28.94,89.17l-.95-.31c.22-.67,21.74-67.15,28.94-89.17,1.95-6,4.85-13.81,7.92-22.12,6.8-18.4,15.27-41.3,17.49-55.17,3.82-23.84,1.79-72.6,0-97.65-1.18-16.46-5.31-41.92-9.31-66.55-2.82-17.36-5.49-33.77-6.85-45.48-3-25.88-9.2-104.21-9.27-105l0-.4,26.35-7.79.1.53c.2,1,19.57,99.34,24.72,132.18,4.26,27.2,11,82.57,14,110.29,4.23,39.59,13.87,159.29,14,160.49Z"/>
    <rect x="178.14" y="1060.84" width="119.59" height="1" transform="translate(-843.86 948.26) rotate(-71.4)"/>
    <polygon points="276.79 1009.45 256.89 1005.15 231.09 1000.59 231.26 999.61 257.08 1004.17 277 1008.47 276.79 1009.45"/>
  </g>
</svg>
