<svg xmlns="http://www.w3.org/2000/svg" viewBox="0 0 2994.91 3000">
  <title>102icon 1</title>
  <g>
    <path d="M2370.21,1568.34l-38.93-63.71-55.15-63,.75-.65,55.2,63.09,38.23,62.53c7.65-10,110.41-144.94,138-190.39,44.89-74.06,273.09-453.8,356.59-658,26.85-65.66,71.3-193.74,81.46-260.13,5.57-36.45,8.34-113.9,0-152.28-8.26-38-29.48-98.2-52.51-134.78-16.18-25.71-47.19-57.48-103-62.86-69-6.65-106.24,20.6-133.59,48.14-18.8,18.92-54,57.47-78.65,103-20.7,38.31-45.2,87.17-71.14,138.91-35.34,70.47-71.87,143.34-101.69,195.09-51,88.58-173.58,292.61-239.22,385.58-66.35,94-291.24,360.94-306.76,379.34l117-14.73.13,1-119.57,15.06.83-1c2.38-2.83,239.17-283.44,307.53-380.25,65.62-93,188.16-296.94,239.17-385.5,29.8-51.74,66.34-124.59,101.66-195,25.95-51.74,50.45-100.62,71.17-138.93,24.68-45.68,60-84.31,78.81-103.28,27.52-27.7,65-55.11,134.4-48.42,56.23,5.42,87.46,37.42,103.77,63.32,23.09,36.67,44.35,97,52.64,135.1,8.36,38.49,5.59,116.11,0,152.64-10.16,66.47-54.65,194.65-81.52,260.36-83.52,204.25-311.75,584.05-356.66,658.11-28.51,47-137.38,189.63-138.47,191.07Z"/>
    <polygon points="2218.4 1394.38 2170.15 1363.63 2084.8 1342.62 2085.04 1341.64 2170.55 1362.69 2170.62 1362.74 2218.94 1393.54 2218.4 1394.38"/>
    <path d="M1626.54,1440.71l.18-1.26c.11-.73,10.36-74.11-1.75-161.08-13-92.93-45.33-150.26-144.36-255.59-52.81-56.16-107.27-87.36-161.88-92.73-91-8.94-166.72-4.48-181-3.5-100.08,6.91-181.87,27-192.21,33a1.7,1.7,0,0,0-.42,1.06c0,.12.18.2.41.26l.47.07-.1,1a3.35,3.35,0,0,1-.5-.07c-.81-.13-2-.45-2-1.36,0-.46.51-1,1.44-1.56,4.14-5.41,24.51-17.23,43.76-26.94a683.57,683.57,0,0,1,102.18-41.45l5.89-1.83c45.51-14.15,102.14-31.76,204.58-37.83,54.73-3.25,110.72,14.8,148,30.52,50.53,21.26,88.08,46.78,106.36,63.57,49.12,45.09,120.92,120.33,177.13,252.53,18.07,42.51,22.77,137.66,22.82,138.61v.26l-.2.16ZM1204,923.57c31.48,0,71.43,1.22,114.84,5.49,54.86,5.39,109.53,36.69,162.51,93,51.9,55.19,84.48,96.72,105.63,134.64,20.61,36.93,32.27,73.27,39,121.49,11.27,80.9,3.21,150.06,1.92,160.12l126.75-102.45c-.28-5.5-5.18-96.75-22.72-138-56.14-132-127.84-207.16-176.88-252.18-38.84-35.66-153.13-99.79-253.68-93.83C1199,857.93,1142.46,875.52,1097,889.65l-5.9,1.83c-69.78,21.61-131.55,55.32-143.8,66.2,9.1-4,32.77-9.73,55.07-14.17a1105.91,1105.91,0,0,1,135.3-18C1145.15,925,1169.47,923.57,1204,923.57Z"/>
    <path d="M1812.87,2528.42l3.26-3.19c1.16-1.13,116.31-113.61,143.63-158.91,45.78-75.94,102.31-238.75,116.47-318.78,12.53-70.82,12.53-212.24,0-280.22-11.8-64-57.27-200-98.93-259.16-13.74-19.53-72.89-62.54-73.49-63l-.9-.65,1.09-.25c1.43-.32,143.6-32,189.49-21,47.81,11.38,131.51,69,161.49,105.32,33.78,40.93,69.57,141.61,77.22,189.51,6.76,42.36,8.25,108.15,4,176-4.54,72.05-14.94,135.1-28.53,173-23.29,64.94-110.95,177.59-163.53,229.77-70.13,69.58-324.8,227.6-327.36,229.18ZM1905.29,1445c7.52,5.51,59.92,44.22,72.83,62.55,41.73,59.28,87.28,195.48,99.09,259.56,12.55,68.07,12.55,209.66,0,280.57-14.17,80.11-70.76,243.1-116.6,319.12-24.78,41.11-121.53,137.22-140.54,155.94,32.36-20.19,258-161.86,323.33-226.65,52.52-52.11,140-164.59,163.3-229.39,29.35-81.82,38.16-263,24.51-348.49-7.63-47.78-43.32-148.21-77-189-29.89-36.23-113.31-93.65-160.95-105C2049.7,1413.88,1918.59,1442.11,1905.29,1445Z"/>
    <path d="M2481.21,2528.64l-.21,0c-.25-.05-.38-.07-.35-.66h0a.31.31,0,0,0,0-.12c.06-.66.29-1.92.72-4.36.53-2.95,1.31-7.23,2.28-12.57,5.2-28.67,16-88.32,23.32-134.92,3.12-19.93,6.57-38.58,9.91-56.62,7-37.5,13.51-72.91,16.17-114.47,3-46.41-7.43-131.27-16.08-174.68-9.7-48.67-74.54-168.36-75.2-169.56l-.05-.19L2423,1691l.91.68c1.12.82,112,83.52,172.39,192.33,31.35,56.51,44.79,168.32,44.31,229.67-.37,46.88-5.42,284.15-69.36,351.85-39,41.31-85.26,59-89.2,60.47C2481.61,2528.27,2481.52,2528.64,2481.21,2528.64Zm-38.5-668.39c2.07,3.83,65.63,121.49,75.25,169.75,8.66,43.47,19.08,128.45,16.1,174.94-2.67,41.62-9.23,77.07-16.18,114.59-3.34,18-6.8,36.67-9.92,56.59-7.3,46.61-18.12,106.28-23.32,135-1.07,5.89-2,10.78-2.49,13.8,6-2.26,50.6-20,88.4-60.06,63.68-67.44,68.72-304.37,69.09-351.18.47-61.23-12.92-172.82-44.19-229.18-57.33-103.32-160.34-183.09-171.18-191.32Z"/>
    <path d="M1831.86,1258.93l-.2-.79c-.28-1.13-28.33-113.14-43.67-147.88-19.15-43.34-66.77-124.87-97.19-161.1-23.32-27.78-98.27-78.48-99-79l.54-.84c.79.5,79.2,49.71,106.21,74.76,39.28,36.41,87.08,115.73,107,157.87,15,31.7,46.56,137.54,46.87,138.6l.09.31Zm-218.6-375c24.21,17.26,62.71,46,78.3,64.56,30.48,36.29,78.17,117.94,97.34,161.35,14.69,33.27,41,137.09,43.53,147.24l18.93-16.56c-1.9-6.37-32.15-107.36-46.72-138.15-19.9-42.07-67.61-121.24-106.79-157.57C1679.8,928.08,1638.67,900.48,1613.26,884Z"/>
    <path d="M97.19,2735.14l-.16-.48L58.32,2613.44l150.55-49.73,42.5,120.42ZM59.58,2614.08l38.25,119.8,152.26-50.38L208.25,2565Z"/>
    <path d="M327.44,2626.75l-.25-.77a688.07,688.07,0,0,0-25.61-65.44l-.32-.69.76,0C486.47,2554.11,603,2374.31,619,2208l0-.26.24-.13c254.68-136.81,519.69-282.81,732.49-423.49L1547.82,1640c7-6,14.31-12.48,22.09-19.35,53.92-47.66,121-107,189.47-113.14h0c57.61,1.08,105.23,26.94,141.54,76.86,19.51,26.82,35.45,60.31,47.39,99.54,10.83,35.58,18.15,75,21.78,117.29,6.59,76.91.06,157.35-17.47,215.17l0,.14-.12.1c-111.93,93-230.34,174.8-352,243.29-128.93,72.6-262.63,130.81-397.39,173-33.75,10.82-78.36,25.76-121.51,40.22-43.35,14.52-88.17,29.53-122.07,40.39l-.13.05-.13,0c-248.88-54.85-439.84-78.88-631.31,112.68ZM302.8,2560.8c2.05,4.46,13.65,30.15,25.08,64.1,89.3-89.14,183.15-136.24,295.3-148.19,108.08-11.53,225.35,11.35,336.22,35.78,33.88-10.86,78.64-25.85,121.93-40.35s87.77-29.4,121.53-40.22c264.05-82.69,516-222.66,748.9-416,32.27-106.65,32.29-315.64-51.6-431-36.11-49.65-83.45-75.37-140.72-76.45-68.09,6.15-135.06,65.34-188.87,112.89-7.78,6.87-15.12,13.36-22.13,19.38L1352.27,1785c-212.78,140.67-477.72,286.64-732.35,423.42C603.83,2374.79,487.3,2554.61,302.8,2560.8Z"/>
  </g>
</svg>
