<svg xmlns="http://www.w3.org/2000/svg" viewBox="0 0 2994.91 3000">
  <title>156icon 1</title>
  <g>
    <path d="M814.3,2647.49c-40.91,0-82.65-7.88-111.22-17.92-60.29-21.17-103.88-66.88-146-111.08-21.55-22.59-41.9-43.94-64.41-62.35L272.75,2240.8c-23.15-30.86-51.05-58.49-78-85.2-34.18-33.85-66.47-65.82-90-103.79-26.63-43-37.13-86.15-33-135.73,17.7-89.66,187.08-251.14,278.07-337.9,13.13-12.51,24.47-23.33,33.83-32.45,87.45-85,179.21-174.7,268-261.41,207.59-202.81,422.25-412.53,625.16-606.06,15-13.07,29.67-27.08,43.85-40.62,28.16-26.9,57.27-54.72,89.87-75.79,36.54-23.61,73.89-36.18,114.18-38.44h.13c64.44,13.22,119.65,37.65,173.74,76.88,47.73,34.63,87.09,75.23,128.76,118.22,16.31,16.84,33.19,34.25,50.46,51.09,29.31,26.66,58.52,52.08,86.78,76.66,65.26,56.78,126.91,110.42,172,164.55,50.09,60.19,74.59,114.77,77.09,171.77,1.91,43.41-9,87.78-33.29,135.64-25.89,51-66.28,104.59-123.49,164-266.42,276.41-776.12,778.48-1080.65,1078.46l-66.07,65.09-.08.06C884.88,2641.52,849.9,2647.49,814.3,2647.49ZM1524.63,524.41c-89.35,5-144.73,57.94-203.35,114-14.18,13.55-28.85,27.57-43.87,40.64-202.89,193.51-417.54,403.23-625.13,606-88.74,86.7-180.5,176.35-267.95,261.4-9.37,9.14-20.71,20-33.84,32.47-90.91,86.67-260.14,248-277.78,337.31-8.94,108.32,55,171.63,122.72,238.67,27,26.74,54.93,54.39,78.07,85.26l219.8,215.24c22.53,18.43,43.85,40.79,64.47,62.41,42.07,44.12,85.57,89.73,145.64,110.83,28.5,10,70.14,17.88,110.91,17.88,35.4,0,70.14-5.93,95.09-21.53l66-65.05c304.53-300,814.22-802,1080.62-1078.45,109.18-113.27,160.37-211,156.51-298.85-5.45-124-118.18-222-248.72-335.6-28.26-24.59-57.48-50-86.8-76.69-17.3-16.87-34.18-34.28-50.5-51.12C1743.89,633.94,1665.82,553.38,1524.63,524.41Z"/>
    <path d="M842.49,2843.6c-75.66,0-132.84-15.26-185.23-49.41-49.85-32.5-94.65-81.34-152.49-146.81-25.45-28.8-59.17-60.72-98.2-97.68-51.39-48.65-109.63-103.79-167-168.83C173,2305.43,121.16,2231.75,81,2155.62l-1.69-3.22,2.5,2.64c2.09,2.21,210.22,221.46,280.55,290,18.69,18.22,37.55,37.1,57.52,57.09,81.45,81.56,173.77,174,263.53,225.94,102.65,59.4,187.16,57.31,258.35-6.39,244.64-218.89,501.18-485,749.27-742.28,137-142.05,278.59-288.94,416.53-426.14,28-21.52,52.23-51.45,75.63-80.4,16.72-20.68,32.51-40.21,49-55.91l.34.37-.34-.37c4.89-4.66,8.62-6.52,11.44-5.69,2,.58,3.36,2.49,4.13,5.68,6.05,25.23-27.18,129.32-53.2,154-123.27,116.71-398.41,395.59-619.48,619.67-133.35,135.17-248.51,251.9-287.2,289.14C1124.5,2637,1075.39,2689.88,1049,2718.33c-27.67,29.83-28.2,30.4-110.13,96.07-14.57,11.68-60.7,29.09-94.55,29.2ZM83.58,2158.38C174,2328.16,308.73,2455.69,407.26,2549c39.05,37,72.78,68.9,98.26,97.74C622.26,2778.84,685.6,2842.6,842.43,2842.6h1.89c36-.12,81.26-18.83,93.93-29,81.87-65.63,82.4-66.2,110-96,26.39-28.45,75.52-81.41,238.87-238.64,38.67-37.23,153.83-154,287.18-289.12,221.08-224.09,496.22-503,619.5-619.7,13.67-12.93,28.72-47.83,38.24-76.16,11.56-34.38,17.45-65.25,14.67-76.83-.67-2.82-1.83-4.49-3.43-5-2.4-.71-5.93,1.13-10.47,5.46-16.41,15.65-32.18,35.15-48.88,55.81-23.44,29-47.68,59-75.75,80.52-137.89,137.15-279.51,284-416.47,426.08-248.11,257.33-504.66,523.42-749.32,742.34-71.55,64-156.44,66.15-259.52,6.51-89.88-52-182.25-144.5-263.74-226.1-20-20-38.82-38.87-57.51-57.09C295.51,2381.31,107.59,2183.65,83.58,2158.38Z"/>
    <path d="M2627.56,1463.69a313.6,313.6,0,1,1,221.74-91.85A311.54,311.54,0,0,1,2627.56,1463.69Zm0-626.19c-172.37,0-312.6,140.23-312.6,312.6s140.23,312.59,312.6,312.59,312.59-140.23,312.59-312.59S2799.92,837.5,2627.56,837.5Z"/>
    <path d="M2164.63,1810.38c-37.09,0-61.62-4.08-90.51-15.07l-.79-.3.65-.54c1.46-1.23,146.15-123.65,186.88-188,46.24-73.1,73.37-185.32,72.07-203.2a6.88,6.88,0,0,1-.93-1.75,1.05,1.05,0,0,1,.1-1l.15-.2h.25a1.09,1.09,0,0,1,.95.65,5.37,5.37,0,0,1,.44,2.09c3.73,5.23,17.62,19.56,37.41,36.62,15.8,13.62,45.57,37.66,67.36,45.69l.28.11,0,.29c0,.27,3.86,27.32,3.86,46.43a278.22,278.22,0,0,1-278.21,278.21Zm-89.36-15.7c28.42,10.71,52.75,14.7,89.36,14.7,152.85,0,277.21-124.36,277.21-277.21,0-18-3.39-43-3.81-46-33.9-12.68-92.58-66.61-104.1-81.57-.08,10.33-5.83,38.89-16.06,72.82-8.76,29.06-27.7,84.54-56.17,129.54C2222.3,1669.27,2085.91,1785.65,2075.27,1794.68Z"/>
    <path d="M2267.73,1043.24l-.48-.59-79.31-97.72-94.18-90.66-53.36-48.11,1-.16c14.19-2.19,20.71-2.19,35-2.19,104.29,0,195.07,53.22,242.84,142.36l.12.24Zm-225.1-236.41,51.82,46.71,94.22,90.72,78.88,97.18,50.73-95c-47.63-88.67-138-141.6-241.83-141.6C2062.56,804.81,2056,804.81,2042.63,806.83Z"/>
    <path d="M2035.56,539.77c-107.88,0-195.65-87.77-195.65-195.65s87.77-195.65,195.65-195.65,195.65,87.77,195.65,195.65S2143.44,539.77,2035.56,539.77Zm0-390.3c-107.33,0-194.65,87.32-194.65,194.65s87.32,194.65,194.65,194.65,194.65-87.32,194.65-194.65S2142.89,149.47,2035.56,149.47Z"/>
  </g>
</svg>
