<svg xmlns="http://www.w3.org/2000/svg" viewBox="0 0 2994.91 3000">
  <title>76icon 1</title>
  <path d="M580.57,2888.5c-42.81,0-83.91-5-122.84-15.1-77-19.88-145.57-59.53-203.94-117.84-64.2-64.14-107.52-136.31-128.75-214.5-17-62.56-19.94-129.08-8.8-197.73,19-116.86,73-200.47,73.58-201.3l.06-.08,1974-1968.72,0,0c.77-.47,78.87-47.28,189.93-59.52,65.24-7.19,128.93-1.23,189.29,17.72,75.45,23.69,145.89,67.85,209.36,131.26,50.35,50.3,86.4,112.51,107.13,184.91,16.58,57.9,23.45,122.42,20.44,191.74-5.14,118-37.65,210.31-38,211.23l-.12.19L868,2819.4l-.12.09c-.89.48-90.94,48.11-211.07,63.9A585.06,585.06,0,0,1,580.57,2888.5Zm-390-745.88c-1.47,2.28-54.63,85.28-73.4,200.91-17.46,107.64-7.82,266.37,137.28,411.32C386.4,2886.62,546,2896.94,656.68,2882.4c118.58-15.58,207.81-62.23,210.7-63.76L2841.16,850.1c1.27-3.63,32.83-94.79,37.88-210.86,4.73-108.75-13.52-262.23-127.28-375.88-143.47-143.32-295.53-160-397.83-148.69-109.7,12.09-187.13,58-189.47,59.36L190.59,2142.66Z"/>
</svg>
