<svg xmlns="http://www.w3.org/2000/svg" viewBox="0 0 2994.91 3000">
  <title>22Icon_neon 1</title>
  <g>
    <circle cx="1091.05" cy="1922.63" r="3.57"/>
    <circle cx="1971.9" cy="1950.15" r="3.57"/>
    <path d="M2916.25,1839.65c-7.36-68.18-35.68-133.39-79.73-183.61-48.23-55-113.31-90.58-188.27-103,48.34-50.63,79.59-113.36,90.38-181.48,10.09-63.68,1.43-130.27-24.38-187.48-23.14-51.28-59.07-93.71-103.92-122.7-49-31.66-106-46.44-169.48-44a362.52,362.52,0,0,0,45-150.36c3.82-52.51-4-104.39-22.71-150.05-15.24-37.27-37.08-69.37-64.91-95.41-29.68-27.77-65.37-47.79-106.07-59.5A255.88,255.88,0,0,0,2194.81,517a272.39,272.39,0,0,0-103.93-2.86c-41.55,6.67-83.15,22.7-120.31,46.36a345.13,345.13,0,0,0-96,91.65c-12.65-120.13-59.31-222.32-135-295.61C1671,290.1,1581.48,250.87,1487.47,246.07a375.42,375.42,0,0,0-252,80c-79,62.37-133.5,156.43-157.73,272.07-27.65-30.07-57.58-54.28-89-71.95-29.75-16.74-60.86-27.67-92.48-32.48-59.4-9-118.7,3.49-171.49,36.21-58.88,36.49-103.82,94.83-126.53,164.26-24.73,75.6-21.48,158.11,9.39,238.67-63.6-23.55-129.29-27.83-190-12.38a292.35,292.35,0,0,0-146.45,88.93,287.3,287.3,0,0,0-70.6,150.48c-8.59,59.4,2.08,120.82,30.87,177.63-57.16,45.75-96.84,111.77-111.74,185.93-14.82,73.77-4,149.69,30.33,213.83A311.42,311.42,0,0,0,70.29,1886a318.61,318.61,0,0,0,6.54,160.45c15.43,50.81,43.28,96.65,80.53,132.56,40.08,38.65,88.82,64.52,144.85,76.89A349.33,349.33,0,0,0,278.71,2393c1.48,45.95,12.35,91.32,31.44,131.2a285.74,285.74,0,0,0,66.76,89.9,277.77,277.77,0,0,0,182.63,70.27,251.7,251.7,0,0,0,144.24-45.29c34.39-23.87,63.53-56.63,84.27-94.74,21.78-40,34.11-84.52,36.66-132.27l0-.58-.58.05c-91.25,8.21-166.89-27.57-213-100.73-57.15-90.74-58.25-224.5-2.64-318,45.74-76.93,122.32-116,215.61-110h.24l.16-.17c32.42-34.65,55-77.14,67-126.31,11-44.74,12.73-94.64,5.08-144.31,59.15-7.74,119.24-37.11,169.26-82.73,49.08-44.76,85-101.69,101.24-160.36a213.9,213.9,0,0,0,27,1.71c55.29,0,111.28-21.29,163.45-62.43,41.67-32.86,78.69-76.78,107-127,27.34-48.44,44.76-99.34,50.51-147.47,7.93,47.76,29.94,97.57,63.82,144.29s77.23,87.24,125.25,117c53.63,33.19,108.63,50.21,160.12,50.21a214.85,214.85,0,0,0,65.56-10c12.87,57.26,43.9,114.26,87.41,160.58,44.57,47.43,99.78,80.66,155.53,93.63-15,48.06-19.88,101.41-13.7,150.28,6.76,53.52,26.21,100,56.26,134.49l.16.18h.25c155.56-9.86,243.07,114.08,258.58,233.43,15.38,118.38-36.51,259.32-186.8,289l-.42.08v.42c1.07,40.59,9.46,78.19,24.93,111.76a236.41,236.41,0,0,0,63,82.91c46.4,38.93,106.8,59.31,173.73,59.31a351.61,351.61,0,0,0,51.88-3.94c99.08-13.39,171.41-66.41,203.65-149.31,40.64-104.48,11.22-238.92-74.94-342.68,66.68-26.51,119.11-71.87,151.66-131.21C2911.21,1969.25,2923.35,1905.47,2916.25,1839.65Zm-187.78,315-.64.25.44.54c86.27,103.56,115.8,237.88,75.22,342.2-32.11,82.55-104.15,135.35-202.86,148.69-87.09,13-166.93-6.57-224.83-55.14-54.3-45.56-85.39-114.27-87.59-193.51,67.81-13.51,121.18-51.05,154.37-108.6,29.68-51.47,41.34-115.91,32.82-181.44-8.57-66-36.65-125.76-79.05-168.24-47.56-47.64-109.91-70.49-180.34-66.08-66.62-76.6-69.13-197.87-42-284.14l.16-.51-.53-.12c-113.74-26.19-215.87-133.06-242.83-254.12l-.12-.53-.52.17c-68.15,22-148.19,7.8-225.38-40-98.46-60.94-174.49-167.1-189.18-264.19l-.58-3.82-.41,3.85c-10.75,100.12-74.08,211.63-157.58,277.47-60.61,47.79-126.36,68.7-190.13,60.46l-.43,0-.12.42c-33.79,122.94-150,227.34-270.28,242.85l-.51.06.08.51C912,1717.07,885.88,1815.5,824,1881.75c-93.58-5.93-170.39,33.31-216.29,110.51-27.06,45.49-41.7,102.49-41.24,160.5s16,114.39,43.88,158.58c21.94,34.83,50.45,61.35,84.76,78.82,37.49,19.1,80.74,26.64,128.57,22.43-5.16,93.88-49,176.1-120.47,225.67-65.85,45.69-145.63,57.19-224.64,32.38-73.78-23.17-133.27-75.33-167.52-146.87-39.4-82.32-42.21-180-7.7-268.05l.22-.54-.58-.13c-108.5-23.74-192.69-101.83-225.2-208.88-33.57-110.52-6.21-225.82,73.19-308.43l.25-.26-.17-.32c-71.67-133.31-36.72-304.88,81.29-399.09l.32-.25-.18-.36c-56.6-111.35-41.5-236.78,39.4-327.35,57.06-63.89,135.53-97.65,219.25-97.65,38.47,0,78.06,7.14,117.17,21.75l1.05.39-.41-1c-70.79-183.3,10.68-337.27,116.34-402.75,89.26-55.33,228.69-66.32,352.33,68.77l.66.72.2-1c56.66-272.56,255.69-360.11,408.94-352.28,172.34,8.82,358.63,137.93,386.33,406.51l.13,1.34.77-1.1c51.94-74.4,130.81-124.95,216.39-138.69,72.59-11.66,143.82,5.34,200.59,47.86l.16.08c78.41,22.55,138.94,77.36,170.43,154.36,38.07,93.1,29.39,208.18-22.68,300.32l-.44.78.9,0c122-5.08,224.14,57,273.33,166,55,121.79,28.24,269.89-66.46,368.55l-.66.68.94.16C2814,1581,2902,1717,2915.25,1839.75,2930.41,1980.2,2857.1,2103.8,2728.47,2154.62Z"/>
    <path d="M1514.25,2345.06h2.09a232.92,232.92,0,0,0,89.42-17.79,235.49,235.49,0,0,0,76.35-50.77c44.89-44.55,69.56-104.62,69.47-169.13A232.77,232.77,0,0,0,1682,1940.89c-44.57-44-103.89-68.42-167-68.63h-.81a231.69,231.69,0,0,0-87.56,17.2,236.72,236.72,0,0,0-75,48.59c-46.06,44.12-72,104.39-73,169.7h0a238.42,238.42,0,0,0,66.5,165.24C1389.22,2318.9,1449.3,2344.49,1514.25,2345.06Zm-234.66-237.31c2.05-131.66,105-234.5,234.52-234.5h.84c129.76.44,235.46,105.47,235.63,234.12.09,64.25-24.48,124.06-69.17,168.42a236.05,236.05,0,0,1-165.16,68.27h-2C1382.59,2342.91,1279.51,2239.11,1279.59,2107.75Z"/>
    <path d="M1872.09,2413.66c-54,4.1-86.57,43.19-121,84.56-38.15,45.81-77.59,93.18-150.24,100.09-88.6,7.18-165.09,2.16-227.33-14.92-31.53-9.36-75-52.22-113.35-90-20.05-19.77-39-38.45-53.9-50-50.71-39.2-97.59-44.2-128.61-13.71-16.89,16.6-25.3,40.73-23.08,66.21,2.49,28.59,19.53,72.37,86.6,118.56,35.23,24.27,94.24,56.17,137.71,77.93,66.19,33.14,140.15,49.49,226.09,50,6,.17,11.88.25,17.73.25,69.78,0,130.8-11.73,190.7-36.52,60.17-24.91,116.46-61.42,181.64-103.71q10.9-7.07,22.18-14.37c25.57-16.52,44.28-36.84,54.11-58.76,9-20.13,10.42-40.76,4-59.67C1962.66,2431.81,1922.13,2409.87,1872.09,2413.66Zm44.58,173.5q-11.3,7.29-22.18,14.37c-124.63,80.85-215.89,140.07-372,140.06-5.75,0-11.61-.08-17.54-.24h0c-85.79-.5-159.6-16.82-225.65-49.88-43.45-21.75-102.4-53.63-137.6-77.87-66.74-46-83.69-89.44-86.16-117.82-2.2-25.17,6.11-49,22.78-65.4a65.86,65.86,0,0,1,47.55-19.45c23.87,0,51.19,11.16,79.75,33.23,14.87,11.5,33.78,30.15,53.81,49.9,38.43,37.9,82,80.86,113.77,90.29,62.37,17.12,139,22.15,227.7,15,73.07-6.94,112.64-54.47,150.92-100.44,34.31-41.21,66.72-80.13,120.33-84.2,49.56-3.77,89.69,17.91,102.26,55.23C1985.11,2501.63,1975.55,2549.11,1916.67,2587.16Z"/>
  </g>
</svg>
