<svg xmlns="http://www.w3.org/2000/svg" viewBox="0 0 2994.91 3000">
  <title>168icon 1</title>
  <path d="M1326,2946.92l-503-246.47Q708.15,2642.7,593.21,2585l-.45-.23.22-.44c105.89-214.82,214.15-434.79,318.84-647.52q79.53-161.58,158.9-322.81l77-156.44,40-85.6,25.62-47.58c22-54.92,49.13-100.85,93.62-158.5,62.2-80.61,132.92-124.47,201.32-166.88,45.46-28.19,92.47-57.34,136.25-97,48.34-43.75,90.92-97.87,133.91-154.12,69.33-90.73,142.58-199.4,178.13-264.26l.23-.42.43.21,200,98.47-.17.43c-.74,1.92-74.65,192.69-100.89,291.07-21,78.73-33.52,145-38.27,202.58-4.71,67.38,1.95,128.31,8.39,187.23,8.14,74.43,15.82,144.73-1.23,217.26-12.6,65.59-29.86,134.26-70.51,192l-20.67,46.4-54.42,106.28-334.07,678.53-146.75,300.28ZM594.1,2584.29l229.41,115.26,502.07,246,72.15-142.09,146.74-300.28,334.08-678.54L1933,1718.41l20.7-46.46c40.59-57.64,57.82-126.19,70.4-191.69,17-72.38,9.35-142.6,1.22-217-6.44-59-13.11-119.93-8.39-187.4,4.75-57.66,17.27-124,38.29-202.76C2080.84,777,2152,592.59,2155.94,582.4l-198.75-97.86c-35.65,64.95-108.77,173.39-178,264-43,56.3-85.63,110.45-134,154.26-43.84,39.67-90.89,68.85-136.4,97.06-68.32,42.37-139,86.17-201,166.64-44.43,57.57-71.52,103.44-93.51,158.31l-25.63,47.61L1148.65,1458l-77,156.46q-79.32,161.1-158.9,322.8C808.09,2149.81,699.91,2369.61,594.1,2584.29Zm1673-2078-.27-.13c-32.15-15.39-314.18-150.53-315.78-158.75l0-.16.07-.16L2096.71,51.32h4.57l.1.05,314.13,155.68,0,.35c-1.23,10.83-37,87.06-69.8,153.31-34,68.67-71.35,140.26-78.35,145.41Zm-315-158.95c4.56,8,228.22,116.31,314.89,157.78,14-12.19,143.78-274,147.47-297.5L2101.05,52.33h-3.72Z"/>
</svg>
