<svg xmlns="http://www.w3.org/2000/svg" viewBox="0 0 2994.91 3000">
  <title>150icon 1</title>
  <path d="M1478.1,2917.8c-42.37,0-89.74-7.23-139.51-21.43-51.76-14.78-107.12-37.73-148.08-61.39-59.33-34.27-115.15-77.37-165.92-128.09A815.83,815.83,0,0,1,886,2523.12c-40.47-73.61-68.06-152-82-233-15.37-89.37-14.07-182.13,3.87-275.68,26.36-137.45,80-237.89,136.76-344.23,13.75-25.75,28-52.38,41.64-79.37,95-187.56,174.79-363.84,243.78-538.92,57.15-145,101.22-303.3,143.84-456.36C1389.19,540.7,1405,484,1421.24,428.35l72.36-279.12.47,2Q1525.5,284,1556.94,416.82c43.19,177.67,90.65,365.13,154,532.48,94.73,250.4,177.82,433.61,269.43,594.07,10.13,17.73,20.38,35.44,30.3,52.56,65.17,112.47,126.73,218.71,167.35,358.18a717.17,717.17,0,0,1,22.55,294.6c-11.74,90.43-39.94,179.16-83.8,263.73-40,77.21-93,149.57-153.31,209.28-58.24,57.71-122.57,103.09-186.05,131.25-76.95,34.13-153.36,47.08-252.91,61.63A320.63,320.63,0,0,1,1478.1,2917.8Zm15.46-2764.42-71.35,275.23C1406,484.22,1390.15,541,1374.87,595.86c-42.62,153.08-86.7,311.38-143.87,456.46-69,175.11-148.75,351.41-243.81,539-13.69,27-27.91,53.63-41.65,79.39-56.74,106.27-110.33,206.65-136.67,344C732.57,2412.5,967,2704.74,1191,2834.12c53.77,31.05,174.7,82.72,287,82.72a321.1,321.1,0,0,0,46.34-3.22c99.47-14.55,175.82-27.48,252.65-61.56,132.18-58.64,258.86-185.77,338.88-340.08,92.33-178,114.05-376,61.18-557.59-40.58-139.35-102.11-245.54-167.25-358-9.92-17.12-20.18-34.83-30.31-52.56-91.63-160.51-174.74-343.77-269.49-594.22-63.32-167.4-110.8-354.9-154-532.6Q1524.76,285.2,1493.56,153.38Z"/>
</svg>
