<svg xmlns="http://www.w3.org/2000/svg" viewBox="0 0 2994.91 3000">
  <title>148icon 1</title>
  <path d="M1550.17,2945.73H1297c-49.18-8-99.81-9.49-148.78-10.9-50.29-1.44-102.29-2.94-151.15-11.71l-9.74-1.75c-144.72-26-294.37-52.87-423.5-97.76-69.57-24.18-127.62-51.46-177.49-83.41-56-35.9-100.33-76.7-135.42-124.73-31.44-43-58.57-94.33-82.94-156.85-22.25-57.07-32.11-118.9-29.31-183.78,2.56-59.3,15.46-118.78,38.35-176.78,8.28-21,15.4-39.28,21.69-55.45C246.78,1919,246.78,1919,346.52,1801.06q17.73-21,40.22-47.69l.13-.11c20.62-12.35,51.72-40.26,87.72-72.57,63.29-56.79,142.05-127.47,191.87-135.42l.32,0,.18.27c32.39,49.35,124.43,110.29,246.19,163,118.61,51.35,242.22,84.24,322.62,85.83l120.84-25.71-74.39-10.25c-97.78-22.92-208.06-72.54-302.61-136.12-49.94-33.59-93.15-69.45-128.41-106.59-38.16-40.2-65.89-80.8-82.41-120.68-21.57-52.06-33.71-112-34.2-168.78-.55-63.52,13.38-120,40.26-163.24,63.56-102.29,157.65-189.74,279.66-259.9,113.18-65.08,246.32-113.23,395.72-143.11,43.16-8.63,290.39-45.5,321.74-50.17l-227.83-35.54-56.36,4.51.4-.8c.27-.53,3.21-2.07,16.56-8.64,6.91-3.4,15.51-7.64,16.14-8.26l0-.11h0c81.26-58,172.77-200.42,111.12-321.86-10.83-26.13-38.8-48.73-74.83-60.5-42.86-14-87.91-10.48-120.53,9.39-17.08,10.4-22.27,16.19-30.12,25-3.83,4.27-8.16,9.1-14.75,15.53l-.39.39-.35-.44c-11.19-14.13-12.6-20.89-8.87-42.5l.31-1.77c3.68-21.41,5.36-31.18,12.66-48.78,9.6-23.15,26.72-41,52.36-54.7,22.5-12,49-19.69,78.9-27.83,9.09-1.52,19.55-2.92,29.66-4.29s20.56-2.76,29.6-4.27h2.88c48.68,0,92.47,10.55,130.21,31.36,34.52,19,64.53,46.45,91.74,83.78,50.28,69,81.71,159.72,112.1,247.47,20.6,59.47,40.06,115.65,64.51,163.29,22.91,44.61,59.34,83,94.57,120.08,19.08,20.1,37.11,39.08,52.73,58.66,46.92,58.83,90.83,132.73,123.62,208.09,36.18,83.13,44.85,197,22.63,297.2-3.53,16-6.37,31.78-9.11,47.09-5.79,32.33-11.26,62.88-22.56,91.64-21.84,55.63-56,108-101.39,155.65-40.41,42.38-89,80.35-144.42,112.86-31.61,18.54-128.87,43.63-129.85,43.88l-149.13,29.12,113,27c122.2,12.06,246.82-41.25,329.84-88.1,94.85-53.53,159.75-111.23,167.77-121.15l.2-.24.3.07c68,16.09,124.61,37.64,173,65.86a436.86,436.86,0,0,1,116.25,98c63.67,75.75,105.64,174.06,154.24,287.9,5.76,13.49,11.72,27.44,17.8,41.56l.39.92c20,46.43,40.66,94.44,53.88,146.86,14.18,56.25,14.33,120.25.42,185.09-11.51,53.71-32,105.86-57.73,146.85-62.73,100-172.74,186.29-327,256.58-121.94,55.58-272.61,101.67-447.82,137-37.55,7.57-76.12,9.48-116.95,11.49-35.8,1.77-72.83,3.6-109.08,9.61q-35.52.78-70.89,1.52ZM387.45,1754.07q-22.45,26.75-40.17,47.63c-99.63,117.86-99.63,117.86-147.62,241.28-6.29,16.16-13.41,34.48-21.69,55.45-48.43,122.74-51.64,250.53-9,359.83,24.34,62.44,51.43,113.67,82.81,156.62,145.8,199.54,445.73,253.41,735.79,305.5l9.74,1.75c48.78,8.77,100.75,10.26,151,11.71,49,1.4,99.66,2.86,148.83,10.9h253.06l171.75-4.52,70.83-1.51c36.24-6,73.29-7.85,109.12-9.62,40.8-2,79.33-3.91,116.8-11.47,400.69-80.78,661.15-213.05,774.15-393.12,50-79.62,87-212.9,57.19-331.17-13.2-52.34-33.85-100.31-53.83-146.71l-.39-.91c-6.08-14.12-12-28.07-17.8-41.57-99-231.91-164.43-385.16-442.52-451.07-8.88,10.62-73.64,68-167.86,121.15-53.31,30.08-105.93,53-156.38,68.17-61.94,18.59-120.52,25.33-174.11,20l-117.55-28.1,153.63-30c1-.25,98.08-25.3,129.57-43.77,83.06-48.73,193.06-134.78,245.38-268,11.27-28.68,16.73-59.17,22.51-91.46,2.74-15.32,5.58-31.15,9.12-47.12,22.17-100,13.52-213.64-22.58-296.59-32.76-75.28-76.61-149.1-123.49-207.86C2118.11,730,2100.1,711,2081,690.92c-35.28-37.15-71.76-75.57-94.74-120.32-24.49-47.7-44-103.91-64.56-163.41-30.37-87.68-61.78-178.35-112-247.21-56.82-78-130-115.49-223.9-114.72-9,1.51-19.49,2.92-29.59,4.28s-20.55,2.76-29.58,4.27c-53.5,14.58-108.88,29.67-130.55,81.94-7.25,17.49-8.93,27.23-12.6,48.56l-.3,1.77c-3.67,21.25-2.44,27.58,8.32,41.28,6.35-6.21,10.57-10.93,14.3-15.1,7.92-8.84,13.15-14.68,30.35-25.16,32.87-20,78.23-23.55,121.36-9.48,36.3,11.86,64.5,34.67,75.42,61,36.27,71.42,17.91,142.75-3.88,190-28.51,61.85-74.25,109.29-107.55,133.06-.75.69-4.29,2.5-16.39,8.46-5.32,2.61-11.63,5.72-14.56,7.31l53.56-4.29h.06l234.38,36.56-3.25.48c-2.79.42-279.1,41.48-324.94,50.65-312.67,62.53-552.29,205.5-674.73,402.56-59.33,95.5-45.76,235.11-6,331.11,31.58,76.23,106.33,156.79,210.46,226.82,94.46,63.52,204.61,113.08,302.23,136l80,11-126.53,26.92h-.06c-41-.8-93.52-9.58-151.73-25.38-55.27-15-114.51-35.94-171.32-60.53C791,1656.72,699,1595.77,666.3,1546.31c-49.55,8.15-128,78.54-191,135.13C439.26,1713.74,408.16,1741.65,387.45,1754.07Z"/>
</svg>
