<svg xmlns="http://www.w3.org/2000/svg" viewBox="0 0 2994.91 3000">
  <title>166icon 1</title>
  <g>
    <path d="M867.69,2104.21l.22-.83,158.88-603.64.09-.09L2129.8,409l.35.34,462.41,438.05-.37.36-1121,1097.09-.13,0Zm160-603.95L869.09,2102.81l601.62-158.89L2591.12,847.38l-461.31-437Z"/>
    <rect x="2304.87" y="490.47" width="393.44" height="1" transform="translate(391.44 1921.45) rotate(-45.24)"/>
    <rect x="2645.94" y="-24.98" width="1" height="764.77" transform="translate(553.21 2015.64) rotate(-46.08)"/>
    <polygon points="163.97 2797.27 339.8 2623.56 515.84 2450.05 868.1 2103.22 868.68 2103.8 516.51 2450.74 340.34 2624.11 163.97 2797.27"/>
  </g>
</svg>
