<svg xmlns="http://www.w3.org/2000/svg" viewBox="0 0 2994.91 3000">
  <title>68icon 1</title>
  <g>
    <g>
      <path d="M862.19,2526a69,69,0,0,1-20.9-3.19c-47.73-15-75.06-81.41-80.26-136.7-5.65-60-59.5-353.88-75.88-442.53l0-.11,0-.11c16-56.55,33.07-113.31,49.54-168.19,32.23-107.37,62.67-208.79,83.52-300.61,38.08-167.66,3.29-376.78-17.49-501.72l-.23-1.36,203.32,174.67,0,.17c20.5,104.28,70.73,187.38,109.27,238.73,39.61,52.78,75.29,83.73,79.17,87,34.7-34.3,63.15-60.36,84.56-77.45l.33-.25.31.27,635.89,545.67-.33.38c-47.6,54.89-108.79,96.09-141,115.77-66.92,40.84-215.17,48.42-313.27,53.44-34.83,1.78-64.91,3.31-82.26,5.92-36.3,5.44-87,33.6-146.59,81.42-71.79,57.6-155.45,142.36-248.65,251.94-27.48,32.3-53.91,54.71-78.58,66.6C888.61,2522.64,875.06,2526,862.19,2526Zm-176-582.48c16.4,88.79,70.22,382.52,75.86,442.49,5.17,55,32.28,120.94,79.57,135.85,18.55,5.85,39,3.51,60.67-7,24.53-11.83,50.86-34.15,78.25-66.35,93.24-109.62,177-194.43,248.78-252.07,59.74-47.93,110.6-76.16,147.07-81.63,17.4-2.61,47.51-4.15,82.36-5.93,98-5,246.09-12.58,312.79-53.3,32.12-19.6,93-60.59,140.46-115.18l-634.81-544.76c-21.41,17.13-49.83,43.18-84.48,77.44l-.32.32-.35-.29c-.38-.31-37.84-31.75-79.67-87.48-38.58-51.41-88.87-134.59-109.43-239l-201-172.66c20.82,125.17,55.24,333.5,17.25,500.75-20.86,91.86-51.3,193.29-83.53,300.67C719.2,1830.34,702.18,1887.05,686.16,1943.56Z"/>
      <path d="M1034.76,2945.83q-8.62,0-17.28-.16c-85.58-1.55-158.49-14.13-200-34.51C766.07,2886,709.11,2825,661.17,2743.9c-43.66-73.87-73.38-153.63-77.57-208.16-1.54-20-3.28-36.59-4.82-51.22-5.57-53.08-8.64-82.33,9.37-166.49l.76-3.58.23,3.65c7.16,117.61,25.21,212.6,35.34,258.76,15.44,70.42,105.4,125.77,187.69,149.38,77.65,22.28,144.38,17.23,174.14-13.18,28-28.64,54.31-55.61,79.71-81.7,197.65-202.92,306.52-314.71,377.82-321,16.85-1.49,38.05-2,62.6-2.59,116-2.78,310.27-7.44,465.2-129.8,7.72-6.1,76.3-60.8,106.28-103.38l.32-.45,103.35,87.75-.39.38c-101.73,101.22-192.34,159.75-280,216.35-73.62,47.55-143.15,92.47-216.19,159.88-29.84,27.55-63.26,62.09-98.64,98.66-52.87,54.64-112.79,116.57-174.45,169-70.84,60.28-132.83,98.56-189.5,117C1178.86,2937.39,1108.15,2945.83,1034.76,2945.83Zm-446.39-624c-17.13,81.27-14.08,110.37-8.59,162.6,1.54,14.63,3.28,31.21,4.81,51.24,4.18,54.39,33.86,134,77.45,207.73,47.84,80.94,104.64,141.76,155.84,166.87,41.43,20.32,114.18,32.86,199.62,34.41,79.32,1.44,157.74-7.15,204.64-22.42,127-41.37,258.17-176.9,363.54-285.81,35.39-36.57,68.82-71.12,98.68-98.69,73.1-67.48,142.67-112.42,216.33-160,87.47-56.5,177.92-114.93,279.42-215.83l-101.69-86.34c-30.22,42.63-98.46,97.06-106.17,103.14l-.3-.39.3.39c-155.18,122.57-349.61,127.23-465.78,130-24.53.59-45.72,1.1-62.54,2.59-33.51,3-77.23,29.9-141.77,87.35-61,54.31-138,133.33-235.42,233.37-25.41,26.08-51.68,53.06-79.71,81.7-30,30.67-97.13,35.82-175.14,13.44-82.58-23.69-172.85-79.3-188.39-150.13C613.48,2531.37,595.68,2437.81,588.37,2321.82Z"/>
      <path d="M2311.47,1959.71l-.8-.61,29.84-38.83c151-217.94,236.63-468.58,254.57-744.95,6.77-104,9.41-465.62-240.72-751.79-241.85-276.7-476.58-322.37-654.06-331.25-167.83-8.39-464.1,84.68-669.28,255-72.34,60-157.47,218.37-200.84,336.86l-.94-.35c23.66-64.64,56.46-134,92.36-195.29,38.54-65.81,76.16-114.91,108.79-142,92.5-76.77,214.4-145.12,343.24-192.45,120.41-44.23,239.49-67.1,326.72-62.74,74.55,3.73,187.75,14.78,309.47,67.48,58.22,25.21,115.25,58.53,169.5,99,60.19,44.95,119.34,100.49,175.8,165.08,95.83,109.65,164.79,242.12,205,393.72,30.73,116,43.52,243.4,36,358.79-17.95,276.56-103.67,527.37-254.77,745.48Z"/>
    </g>
    <path d="M2853.84,2571.82l-.38-.32L58.46,165l72.07-83.69.38.32,2795,2406.55Zm-2794-2407L2853.73,2570.41l70.76-82.18L130.63,82.67Z"/>
  </g>
</svg>
