<svg xmlns="http://www.w3.org/2000/svg" viewBox="0 0 2994.91 3000">
  <title>54icon 1</title>
  <g>
    <g>
      <path d="M2163.15,1133.27l-.41-.09-4.3-1-4.38-1c-54.37-12.38-112.89-25.51-172.36-37.57l-4.51-.89c-12.82-2.51-26.07-5.12-39.35-7.43-5.59-1.07-11.56-2-17.33-2.87l-5.27-.81c-5-.83-9.73-1.34-14.31-1.84-2.53-.27-5.15-.55-7.78-.89l-254-29,1.17-.75c20.8-13.43,37.77-24.58,53.39-35.12,21.85-14.78,47.25-32.15,72.27-51.22l2.67-2.08c11.28-8.73,21.94-17,33.83-29,10.84-11.55,20.69-22.79,30.1-34.37,16.87-20.52,34-42.81,54-70.15h0c17.24-23.6,34.21-47.93,50.45-72.3,8.89-13.26,16.78-25.48,24.09-37.34,7-11.24,15.13-24.79,22.86-40a230.44,230.44,0,0,0,9.87-22.31c2.55-6.58,5.12-13.55,7.84-21.28,4.34-12.34,8.67-25.27,14.06-41.92,5.06-15.71,10.28-32.44,16.92-54.25l.28-.9.59.74c11.63,14.48,25.31,31.66,38.6,49.23,7.49,9.93,16.11,21.55,23.23,32.48l2.34,3.74,2.58,4.34,5.12,8.76,10,17.86c13.39,24.44,25.91,49.14,37.2,73.44,9.61,20.89,21.61,48.18,29.16,74l2.23,8.68,2.32,10.26,4.42,20.23c3,14.34,5.52,27.45,7.61,40.08,4.72,29.26,7.17,55.28,7.49,79.57.28,12.47-.11,25.33-1.17,39.28-.12,1.27-.23,2.53-.35,3.8-.46,5.13-.94,10.43-1.74,15.59l-.64,4.8c-.07.49-.14,1-.21,1.57-.15,1.17-.3,2.27-.44,2.85-.17,1-.42,2.23-.75,3.57-.2,1-.5,2.09-.78,3.17l-.25,1c-2.71,10-6.54,21.46-12.42,37.29-4.26,11.46-9,23.64-15.06,38.35ZM1642,1049.18l251.25,28.7c2.63.33,5.24.61,7.76.89,4.61.49,9.37,1,14.37,1.84l5.26.82c5.78.88,11.76,1.8,17.36,2.87,13.28,2.31,26.54,4.91,39.36,7.43l4.52.89c59.48,12.06,118,25.19,172.39,37.57l4.38,1,3.87.9,8.6-21c6-14.7,10.79-26.87,15-38.31,5.87-15.81,9.69-27.28,12.39-37.2l.25-1c.28-1.08.58-2.19.78-3.14.32-1.33.57-2.52.74-3.55.14-.57.29-1.69.43-2.78.07-.54.14-1.09.21-1.58l.64-4.8c.8-5.14,1.28-10.43,1.74-15.54.11-1.27.23-2.53.35-3.79,1.05-13.92,1.44-26.74,1.16-39.18-.32-24.24-2.77-50.22-7.48-79.42-2.09-12.62-4.57-25.71-7.59-40l-4.43-20.23-2.31-10.23-2.22-8.65c-7.53-25.74-19.51-53-29.1-73.84-11.29-24.27-23.79-49-37.17-73.38l-10-17.84-7.68-13.08-2.33-3.72c-7.1-10.9-15.71-22.5-23.19-32.42-13.05-17.26-26.49-34.15-38-48.47-6.51,21.37-11.66,37.86-16.65,53.36-5.39,16.66-9.72,29.59-14.07,41.94-2.72,7.74-5.29,14.72-7.85,21.31a231.19,231.19,0,0,1-9.91,22.41c-7.75,15.28-15.92,28.85-22.89,40.1-7.33,11.88-15.22,24.11-24.12,37.38-16.25,24.38-33.23,48.71-50.47,72.33h0c-20,27.35-37.18,49.66-54.06,70.19-9.42,11.59-19.29,22.86-30.15,34.43-12,12-22.63,20.31-33.93,29.06l-2.68,2.08c-25,19.09-50.46,36.47-72.32,51.26C1678.91,1025.15,1662.29,1036.09,1642,1049.18Z"/>
      <path d="M1497.33,2942.62a508.14,508.14,0,0,1-53.41-2.39,232.68,232.68,0,0,1-24.82-3.82c-3.74-.8-7.37-1.74-10.77-2.78l-.22-.07-.09-.2-121.49-264.9L1265,2621.6c-1.76-3.57-3.52-7.17-5.27-10.76-5.71-11.71-11.62-23.81-17.72-35.43-34-66.31-70.57-130.53-98.58-179.08-22.37-38.74-46.13-79-70.62-119.74l-.54-.9,1,.14c44,6,77.92,10.41,109.87,14.26l1.4.17c28.11,3.3,57.17,6.72,87.1,8.87l43.71,2.4,43.33,2.94,8.46.6c25.84,1.83,52.57,3.72,79.19,5.19,16.43.86,30.36,1.48,44.94,1.69,13.57.17,28-.14,45.4-1,27.47-1.35,54.93-3.28,81.49-5.15l6.38-.45,15.31-1.08c23.47-1.66,47.74-3.38,70.87-4.37,24-1.21,45.53-3.54,68.32-6l2-.22c20.64-2.33,43-5,68.34-8.24,22.94-2.95,46.46-6.06,71.88-9.53l1-.14-.54.89c-24.43,40.63-48.18,80.9-70.59,119.69-28,48.52-64.49,112.71-98.57,179-6.1,11.63-12,23.75-17.73,35.47l-5.25,10.73-21.54,46.84-121.51,265.1-.21.06c-3.37,1-7,2-10.78,2.79a230.94,230.94,0,0,1-24.82,3.82A507.37,507.37,0,0,1,1497.33,2942.62Zm-88.5-9.88c3.32,1,6.84,1.91,10.48,2.69a230.89,230.89,0,0,0,24.72,3.8,591.82,591.82,0,0,0,106.6,0,229.16,229.16,0,0,0,24.72-3.8c3.68-.79,7.2-1.7,10.48-2.7L1707.15,2668l21.55-46.85c1.76-3.58,3.5-7.16,5.25-10.74,5.72-11.73,11.64-23.85,17.75-35.49,34.08-66.35,70.59-130.56,98.58-179.09,22.25-38.51,45.82-78.48,70.07-118.81-25,3.41-48.23,6.49-70.86,9.39-25.36,3.22-47.72,5.92-68.36,8.25l-2,.21c-22.8,2.47-44.34,4.81-68.37,6-23.12,1-47.38,2.71-70.85,4.37l-15.31,1.08-6.38.44c-26.56,1.88-54,3.81-81.51,5.16-17.44.86-31.88,1.17-45.46,1-14.6-.21-28.54-.83-45-1.69-26.64-1.48-53.36-3.37-79.21-5.2l-8.46-.59-43.32-2.94-43.71-2.4c-30-2.16-59-5.57-87.15-8.88l-1.41-.16c-31.71-3.83-65.31-8.19-108.85-14.13,24.3,40.42,47.88,80.41,70.1,118.87,28,48.56,64.54,112.8,98.6,179.12,6.1,11.63,12,23.74,17.73,35.45,1.75,3.59,3.51,7.19,5.27,10.77l21.55,46.87Z"/>
      <path d="M829.48,1133.31l-8.92-21.82c-6-14.77-10.83-27-15.06-38.35-5.88-15.81-9.7-27.31-12.41-37.28l-.26-1c-.29-1.08-.58-2.2-.78-3.18-.33-1.32-.58-2.53-.76-3.59-.14-.55-.28-1.67-.43-2.85-.07-.53-.14-1.06-.21-1.52l-.64-4.82c-.8-5.13-1.28-10.41-1.74-15.52-.11-1.29-.23-2.57-.35-3.85-1.06-14-1.45-26.81-1.17-39.3.32-24.27,2.78-50.3,7.49-79.55,2.1-12.67,4.59-25.78,7.61-40.09l4.42-20.23,2.32-10.24,2.23-8.68c7.55-25.83,19.55-53.12,29.16-74,11.27-24.27,23.79-49,37.19-73.44l10-17.85,7.69-13.1,2.34-3.74c7.15-11,15.76-22.58,23.24-32.49,13.31-17.59,27-34.73,38.57-49.19l.59-.74.27.91c6.66,22,11.87,38.77,16.91,54.5,5.36,16.67,9.68,29.61,14,42,2.83,8.08,5.32,14.86,7.83,21.33a233.23,233.23,0,0,0,9.88,22.36c7.86,15.49,16,28.94,22.84,40.07,7,11.46,14.91,23.7,24.06,37.41,15.86,23.78,32.41,47.41,50.61,72.25,21,28.48,37.66,50.11,54.16,70.13,9.43,11.59,19.33,22.84,30.25,34.41,12.16,12.15,23,20.52,34.56,29.37l2,1.56c24.9,18.9,50.43,36.29,72.41,51.1,15.81,10.62,33,21.89,54.16,35.47l1.19.76-272.68,30.37c-18,2.63-35,5.73-47.76,8.14h0c-61.45,11.9-122.23,25.49-184.28,39.54ZM959.23,539c-11.47,14.29-24.88,31.14-38,48.43-7.47,9.89-16.07,21.48-23.19,32.42l-2.34,3.72-2.56,4.32-5.11,8.76-10,17.84c-13.39,24.44-25.9,49.13-37.17,73.37-9.59,20.86-21.57,48.1-29.1,73.85l-2.22,8.65-2.31,10.23-4.43,20.22c-3,14.29-5.49,27.38-7.59,40-4.71,29.2-7.16,55.18-7.48,79.41-.28,12.46.11,25.28,1.16,39.2.13,1.27.24,2.55.36,3.84.46,5.09.93,10.36,1.73,15.47l.64,4.82c.07.47.14,1,.21,1.54.14,1.1.29,2.23.42,2.76.18,1.08.43,2.27.75,3.58.2,1,.49,2.08.78,3.15l.25,1c2.7,9.94,6.52,21.41,12.39,37.2,4.23,11.38,9,23.55,15,38.31l8.6,21,19.77-4.56c62-14,122.85-27.65,184.31-39.55h0c12.76-2.41,29.74-5.52,47.83-8.15l46.73-5.22,223.16-24.84c-20.61-13.25-37.48-24.3-53-34.72-22-14.82-47.54-32.22-72.46-51.13l-2-1.56c-11.55-8.88-22.45-17.26-34.67-29.48-11-11.59-20.86-22.86-30.3-34.47-16.52-20-33.23-41.67-54.19-70.17-18.21-24.85-34.78-48.5-50.64-72.29-9.16-13.72-17-26-24.08-37.44-6.89-11.14-15-24.62-22.88-40.13A235.31,235.31,0,0,1,997.72,656c-2.5-6.48-5-13.27-7.84-21.36-4.33-12.36-8.65-25.31-14-42C970.9,577.1,965.76,560.53,959.23,539Z"/>
      <g>
        <path d="M1498,1049.05a1.05,1.05,0,0,0,0,2.1,1.05,1.05,0,1,0,0-2.1Z"/>
        <path d="M1498,1051.65h0a1.57,1.57,0,0,1-1.53-1.58,1.55,1.55,0,0,1,1.52-1.51h0a1.52,1.52,0,0,1,1.54,1.51,1.55,1.55,0,0,1-.46,1.15A1.52,1.52,0,0,1,1498,1051.65Zm0-2.1a.55.55,0,1,0,0,1.1.53.53,0,0,0,.53-.57A.54.54,0,0,0,1498,1049.55Z"/>
      </g>
    </g>
    <g>
      <circle cx="2293.24" cy="2200.56" r="3"/>
      <path d="M2293.24,2204.06a3.5,3.5,0,1,1,3.5-3.5A3.5,3.5,0,0,1,2293.24,2204.06Zm0-6a2.5,2.5,0,1,0,2.5,2.5A2.5,2.5,0,0,0,2293.24,2198.06Z"/>
    </g>
    <g>
      <circle cx="705.38" cy="2205.83" r="4.87"/>
      <path d="M705.38,2211.2a5.37,5.37,0,1,1,5.37-5.37A5.38,5.38,0,0,1,705.38,2211.2Zm0-9.74a4.37,4.37,0,1,0,4.37,4.37A4.37,4.37,0,0,0,705.38,2201.46Z"/>
    </g>
    <polygon points="2032.65 537.99 2016.94 441.59 1978.01 209.34 1952.97 50.8 1953.96 50.64 1978.99 209.18 2017.93 441.42 2033.64 537.83 2032.65 537.99"/>
    <polygon points="959.93 538.03 958.94 537.88 972.53 452.55 997.56 294.24 1035.11 74.28 1039.63 46.81 1040.62 46.98 1036.1 74.44 998.55 294.4 973.52 452.71 959.93 538.03"/>
    <rect x="2231.67" y="1081.53" width="1" height="145.08" transform="matrix(0.29, -0.96, 0.96, 0.29, 471.57, 2947.04)"/>
    <rect x="682.89" y="1153.06" width="149.85" height="1" transform="translate(-290.29 255.52) rotate(-16.11)"/>
    <polygon points="963.72 2252.85 853.68 2232.02 754.58 2211.19 754.79 2210.21 853.88 2231.04 963.9 2251.87 963.72 2252.85"/>
    <path d="M2034.2,2251.29l-.15-1c.79-.12,79.47-12.51,107.72-17.72,23.68-4.38,101.45-22.76,102.23-22.95l.24,1c-.79.18-78.58,18.57-102.29,22.95C2113.69,2238.78,2035,2251.17,2034.2,2251.29Z"/>
    <path d="M587.43,2462.51c-7.89,0-22.43-7.67-27.81-13.61-5.74-6.33-12.1-23.71-12-32.62.22-12.75,11.5-35.15,20.92-51.69,10.21-17.91,30.65-49,44.14-62,1.53-1.47,4.61-4.55,8.51-8.45,27-27,43.21-42.64,45.52-42.27a1.9,1.9,0,0,1,1.28.84c2.87,4-.87,23.76-4.83,44.64-2.71,14.27-5.27,27.74-5.37,34.81-.12,8.26-7.16,23.43-13.38,36.81-3.17,6.83-6.16,13.28-7.51,17.4-1,2.89-2,6.44-3.19,10.2-5.41,17.68-12.83,41.89-21.94,52.33-4.55,5.21-17.11,13.38-24,13.61Zm79.2-209.65c-2.81.14-32.15,29.46-44.68,42-3.91,3.91-7,7-8.52,8.47-13.43,13-33.79,43.92-44,61.77-9.37,16.44-20.58,38.68-20.79,51.22-.15,8.72,6.08,25.73,11.69,31.93,5.22,5.76,20,13.52,27.43,13.28,6.65-.22,18.84-8.19,23.28-13.27,9-10.28,16.35-34.37,21.73-52,1.16-3.76,2.24-7.32,3.2-10.22,1.37-4.18,4.24-10.36,7.56-17.51,5.86-12.64,13.16-28.36,13.28-36.4.1-7.16,2.67-20.68,5.38-35,3.58-18.83,7.63-40.17,5-43.87A1,1,0,0,0,666.63,2252.86Z"/>
    <path d="M622.73,2645.19c-.11-.4-10.32-40.11-11.78-53.62-2.35-21.65-.9-64.77-.11-87.94l.2-6.05c.45-13.89,1.21-37.15,3.39-49.1.72-4,3.64-10.55,6.73-17.53,3.9-8.81,8.33-18.8,8.33-23.9h1c0,5.31-4.28,15-8.42,24.31-3.06,6.92-6,13.46-6.66,17.3-2.16,11.87-2.92,35.09-3.37,49l-.2,6.05c-.79,23.14-2.24,66.21.1,87.79,1.46,13.44,11.65,53.08,11.75,53.48Z"/>
    <path d="M656.84,2694.46c0-.76-4.25-75.61-8.34-100.08-1.59-9.53-7-25-11.74-38.72-2.33-6.71-4.54-13-5.94-17.71s-3.59-10.57-5.91-16.86c-5.49-14.89-12.33-33.42-12.33-45h1c0,11.43,6.8,29.87,12.27,44.68,2.33,6.31,4.53,12.27,5.93,16.92s3.59,11,5.92,17.67c4.77,13.72,10.18,29.27,11.79,38.89,4.09,24.52,8.3,99.43,8.35,100.18Z"/>
    <path d="M650.41,2553.36c-2.79,0-6.11-1.22-9.93-2.63-1.87-.69-3.81-1.41-5.93-2.08l.3-1c2.14.68,4.09,1.4,6,2.09,8.14,3,13.06,4.82,16-2.95,10.27-26.75,13.4-72.37,15.92-109q.29-4.16.56-8.18c1.19-17,7.56-61.27,13.18-100.32,4.85-33.78,9.45-65.76,9.3-70.64-6.22,1.88-23.3,39.06-44.93,97.93-19.63,53.42-36,105.91-37.32,119.5l-1-.1c2.75-28.75,68.93-218.18,83.69-218.41h.41l.09.4c.61,2.86-4,34.66-9.25,71.47-5.62,39-12,83.29-13.17,100.25-.19,2.68-.37,5.41-.56,8.18-2.53,36.72-5.67,82.42-16,109.31C656,2551.8,653.56,2553.36,650.41,2553.36Z"/>
    <path d="M2203.66,2482.6c-4,0-7.51-.7-9.28-2.7-7.26-8.2-.62-29.69,3.77-43.92,1-3.11,1.79-5.79,2.38-8,4.55-17.09,16.73-43.57,27.48-66.94,6.15-13.35,11.95-26,15.65-35.33,7.19-18.25,27.18-74,27.38-74.54l.15-.41,19.56,4.51v.4c0,.81-.79,80.88-4.4,107.15-1.33,9.67-6.2,28.8-9.06,38.32-.65,2.17-1.38,4.74-2.18,7.57-4,14-9.4,33.18-16,41.95-7.72,10.3-28.59,25.67-39.88,29.38A55.79,55.79,0,0,1,2203.66,2482.6Zm68.17-230.67c-1.86,5.19-20.37,56.72-27.25,74.15-3.7,9.4-9.51,22-15.66,35.38-10.73,23.33-22.9,49.77-27.43,66.78-.59,2.23-1.42,4.92-2.38,8-4.33,14-10.87,35.19-4,43,3.68,4.15,17.55,1.91,23.81-.15,11.15-3.66,31.76-18.85,39.39-29,6.47-8.62,12.1-28.48,15.82-41.62.8-2.84,1.53-5.42,2.18-7.59,2.85-9.49,7.7-28.54,9-38.17,3.47-25.25,4.32-100.42,4.39-106.62Z"/>
    <path d="M2402.6,2388.23c-7.08,0-19.82-5.68-25.36-9.78-12.62-9.32-30.11-36-37.59-48.82-10.67-18.26-33.19-78.05-33.42-78.66l-.15-.42,18.76-9.38.25.2c.4.31,40.27,31.83,52.78,43.13,2,1.76,4.29,3.82,6.85,6.07,12.38,10.88,29.33,25.78,35.73,36.46,4,6.61,9.55,22.19,9.13,30.18-.31,5.95-5.11,17.39-9.19,21.87-3.37,3.71-12.22,8.8-17,9.13C2403.13,2388.23,2402.87,2388.23,2402.6,2388.23ZM2307.33,2251c2,5.41,23,60.71,33.18,78.08,7.45,12.75,24.84,39.3,37.32,48.53,5.64,4.16,18.85,10,25.49,9.56,4.49-.3,13.15-5.3,16.33-8.8,3.88-4.27,8.64-15.59,8.93-21.25.41-7.81-5.08-23.11-9-29.62-6.33-10.54-23.21-25.38-35.54-36.22-2.57-2.26-4.91-4.31-6.86-6.08-12-10.81-49.07-40.19-52.48-42.89Z"/>
    <path d="M2335.54,2576.27l-1-.09,5.74-64.67c-.07-.7-6.31-78.15-9-103.76-1.92-17.94-6.28-53.76-9-71.35-3.16-20.19-14.65-78.71-15.88-85l-15.55,4.6c.39,4.85,4.11,51.58,6,67.52.88,7.56,2.6,18.17,4.42,29.4,2.59,16,5.27,32.45,6,43.14,1.17,16.25,2.48,47.89,0,63.39-1.45,9.05-6.72,23.29-11.37,35.86-2,5.37-3.85,10.43-5.11,14.28-4.66,14.26-18.59,57.28-18.73,57.72l-.95-.31c.14-.44,14.07-43.46,18.73-57.72,1.26-3.86,3.14-8.94,5.13-14.32,4.4-11.9,9.87-26.71,11.31-35.67,2.47-15.41,1.16-47,0-63.16-.76-10.64-3.44-27.12-6-43-1.83-11.24-3.56-21.86-4.44-29.44-1.94-16.75-5.95-67.45-6-68l0-.41,17.38-5.14.1.54c.13.64,12.67,64.29,16,85.55,2.76,17.6,7.12,53.44,9,71.39,2.74,25.63,9,103.09,9,103.87Z"/>
    <path d="M1426.68,1327.55c-7.33,0-14-.55-14.08-.57-16.6-1.46-33.5-7.22-53.2-18.11-17.67-9.78-54.08-33.07-65.37-51.29-3.74-6-6.1-24.55-4.76-31.64,4.07-21.62,31.78-51.62,52-73.53,4.35-4.71,8.46-9.16,11.69-12.85,19.7-22.52,86.3-83.54,87-84.16l.45-.41.31.52c.13.22,13,21.44,18.17,27.84,2.8,3.49,12.62,12.89,12.72,13l.16.15v.22c0,1.23-3.24,123.81-6.78,164.31-1.47,16.79-7.42,51.65-19.44,63.41C1443,1326.93,1434.42,1327.55,1426.68,1327.55Zm13.49-271c-5.9,5.41-67.63,62.17-86.45,83.67-3.24,3.7-7.35,8.15-11.7,12.87-20.15,21.81-47.75,51.7-51.77,73-1.29,6.84,1.08,25.23,4.62,30.94,10.38,16.73,44.57,39.62,65,50.93,19.57,10.83,36.35,16.55,52.81,18,7.09.63,28.22,1.55,32.13-2.27,11.81-11.56,17.69-46.13,19.14-62.79,3.47-39.65,6.62-158.11,6.78-164-1.34-1.27-10-9.59-12.65-12.93C1453.37,1078.09,1442.19,1059.87,1440.17,1056.55Z"/>
    <path d="M1630.79,1320.4c-4.83,0-9.17-.6-12.19-2.14-9.7-4.94-21-22.89-32.57-51.89-17-42.43-36.86-179.69-37.06-181.08v-.11l0-.1,12.18-40h6.71l36.12,25.84,36.9,32.69,32.54,36c.3.47,24.65,40.44,30.91,54.63l.3.68c5.37,12.17,15.36,34.83,15.33,47.24,0,12.1-7.65,37.18-15.7,47.25s-31.19,22.2-43.06,25.94C1654.53,1317.5,1641.45,1320.4,1630.79,1320.4ZM1550,1085.26c.66,4.59,20.25,138.93,37,180.74,11.51,28.77,22.61,46.54,32.1,51.37s32.26.09,41.86-2.94c11.76-3.7,34.74-15.81,42.58-25.61s15.45-34.68,15.48-46.62c0-12.2-10.29-35.59-15.25-46.83l-.3-.69c-6.23-14.13-30.55-54-30.79-54.44l-32.44-35.91-36.83-32.62-35.81-25.62h-5.65Z"/>
    <rect x="1396.44" y="1008.47" width="1" height="87.28" transform="translate(283.47 2400.65) rotate(-87.44)"/>
    <rect x="1603.65" y="1011.07" width="1" height="72.96" transform="translate(471.74 2592.96) rotate(-86.91)"/>
    <path d="M1573,1589.28c-.27-.42-27.17-41.57-36-55.29-24.24-37.7-40.48-65.86-47-81.43-7-16.71-14.5-48.45-20-71.63-1.1-4.61-2.1-8.82-3-12.41-3.64-14.87-13-60.06-13.07-60.52l1-.2c.09.46,9.43,45.63,13.06,60.48.87,3.59,1.87,7.8,3,12.42,5.49,23.14,13,54.84,20,71.47,6.47,15.52,22.69,43.63,46.89,81.28,8.82,13.71,35.72,54.86,36,55.28Z"/>
    <path d="M1703.52,1521.54c-.25-.27-25-27.69-32.92-37-13.63-16.11-37.9-47.21-48-63.68-10.86-17.67-29.81-55.39-37.08-75.72-4.55-12.75-12.45-52.86-12.53-53.26L1552.11,1181,1541,1092.74l8.08-7.88.7.72-7.73,7.53,11,87.74,20.86,110.8c.08.4,8,40.43,12.5,53.12,7.24,20.27,26.15,57.89,37,75.52,10.09,16.44,34.32,47.48,47.93,63.57,7.9,9.34,32.65,36.73,32.9,37Z"/>
    <rect x="632.36" y="2291.5" width="77.4" height="1" transform="translate(-1715.3 2197.93) rotate(-71.42)"/>
    <polygon points="696.17 2258.59 683.3 2255.81 666.6 2252.86 666.77 2251.87 683.49 2254.83 696.38 2257.61 696.17 2258.59"/>
  </g>
</svg>
