<svg xmlns="http://www.w3.org/2000/svg" viewBox="0 0 2994.91 3000">
  <title>146icon 1</title>
  <g>
    <path d="M2121.39,1827.78c-384.65,0-840.36-28.52-1121.67-60.52h0c-59.85-6.81-118.67-16.5-175.55-25.87-39.47-6.51-80.29-13.23-121.5-19l-110.14-20.57.17-.54L717.79,1304h.38L1107,1318.6l-203.63-98.87.58-.5,762.39-651.71.27.08L2857.72,945.23l-457.4,3.88-.08,0-234.35-84.2,151.92,142,0,.26-64.67,481.1,72.93,336.5-.6,0C2260.86,1826.81,2192.33,1827.78,2121.39,1827.78ZM999.83,1766.27c281.27,32,737,60.51,1121.55,60.51,70.74,0,139-1,203.41-3l-72.71-335.49v-.09l64.66-480.94L2161.66,862.29l238.83,85.82,450.94-3.83L1666.56,568.64,905.17,1219.49l206.53,100.28L718.51,1305,593.82,1701l109,20.36c41.19,5.78,82,12.51,121.49,19C881.2,1749.77,940,1759.46,999.83,1766.27Z"/>
    <path d="M1583.92,2437.89c-64.23,0-128.15-1.87-186.25-11l-312.07-27.91q-29.61-5.4-58.84-10.69c-241-43.68-468.75-84.94-668.7-167-24-9.86-97.19-39.89-164.85-80.93-75-45.51-122.68-91.64-141.64-137.11-12.24-29.34-12.48-58.67-.72-87.18,44.75-89.27,169.64-131.44,252.28-159.35,9.18-3.1,17.86-6,25.85-8.83,33.51-11.74,142.64-32.27,194.17-37.87l.78-.08-76.69,229c65.46,38.17,205,71,414.66,97.66,177.05,22.48,400.87,39.84,647.27,50.19,216.95,9.12,435.78,12.18,616.19,8.64,176-3.46,293-13.12,321.39-26.52l-36.38-198,.78.24c121.83,36.7,202.83,72.91,281.81,159,20.51,25.43,42.54,55.72,50.62,87.78,8.68,34.4.64,66.91-24.59,99.4-40.35,52-112.24,92.83-219.78,124.89-93.74,27.94-202.4,45.58-298.26,61.14-28.3,4.59-55,8.92-80.89,13.42l-221.87,17.77L1717.6,2437c-22.35,0-45.18.23-67.25.46S1606.1,2437.89,1583.92,2437.89ZM522.48,1711c-51.8,5.71-159.87,26.07-193.17,37.73-8,2.81-16.68,5.74-25.86,8.84C221,1785.44,96.31,1827.53,51.76,1916.41c-11.64,28.21-11.4,57.29.73,86.37,18.88,45.28,66.4,91.25,141.24,136.65,67.59,41,140.69,71,164.72,80.86,199.85,82,427.49,123.3,668.49,167q29.25,5.29,58.79,10.68l312.06,27.91c78.11,12.34,166.79,11.46,252.55,10.6,22.07-.23,44.9-.45,67.25-.46l180.55-2.53,221.79-17.76c25.83-4.49,52.56-8.83,80.86-13.42,95.83-15.56,204.46-33.19,298.14-61.11,107.32-32,179.05-72.73,219.27-124.54,56.09-72.24,16-133.85-26-185.92-78.65-85.75-159.34-121.93-280.56-158.5l36.22,197.15-.34.17c-27.85,13.54-145.27,23.31-322.15,26.78-180.43,3.55-399.28.48-616.25-8.64-246.43-10.35-470.27-27.71-647.35-50.2-210.21-26.69-350-59.66-415.4-98l-.35-.2Z"/>
  </g>
</svg>
