<svg xmlns="http://www.w3.org/2000/svg" viewBox="0 0 2994.91 3000">
  <title>138icon 1</title>
  <path d="M1596.8,2915.92q-55.32,0-110.54-2.11c-252.5-9.68-493.82-52.28-697.88-123.18-53.42-18.57-152.85-53.12-182-104.23l-.12-.21.09-.23,801-1960.42c11.41-27.26,29.53-77.22,50.51-135.07,66.44-183.16,166.85-459.95,223.67-493.09l.15-.09.17,0c45,5.93,122.21,326.66,163.68,499,9.87,41,17.67,73.43,22.47,91l415.6,1577c2.61,10,8.07,29.83,15,54.93,37,134.32,123.48,448.86,108,472.72l-.1.16-.18,0-167.16,50.33C2037.16,2890.86,1817.13,2915.92,1596.8,2915.92ZM607.38,2686.11c29.11,50.68,128.11,85.08,181.33,103.57,419.64,145.82,975.32,165.65,1450.19,51.77l166.95-50.27c14.76-24.68-71.4-337.86-108.23-471.76-6.91-25.11-12.36-44.93-15-55l-415.6-1577c-4.81-17.54-12.61-50-22.49-91C1803.21,424.67,1726.28,105,1681.9,98.33c-56.54,33.35-156.75,309.61-223.09,492.48-21,57.86-39.11,107.83-50.52,135.11Z"/>
</svg>
