<svg xmlns="http://www.w3.org/2000/svg" viewBox="0 0 2994.91 3000">
  <title>48icon 1</title>
  <g>
    <path d="M1498.07,2953.87l-3.66-.1-209.32-5.83c-10.75-.21-20.53-.62-29.91-1.24l-220.78-12.47v-.49c4.67-141,9.06-279,11.45-417.28.5-33.14,1-71.68-.16-109.74-.9-34.55-2.42-68.69-4.43-109.32-1.37-27.69-2.86-55.81-4.29-83-2.33-44.12-4.73-89.75-6.72-134.58l-.37-9.26c-2.7-68.22-5.49-138.75-1.73-206.6,2.52-38.74,7.5-77.48,11.55-106.91,5-35.92,10.73-71.9,17-107,2.52-14.07,5-28.32,7.38-42.09,9.62-55.38,19.56-112.65,33.84-168.43,1-3.85,2-7.93,2.92-11.88,1.12-4.8,2.28-9.77,3.62-14.29,1.52-5.22,3.77-11.08,5.94-16.75,1.13-3,2.3-6,3.32-8.87,1.63-4.49,3.16-8.78,4.65-13,4.07-11.4,7.9-22.17,12.79-34.42,6.05-15.09,11.46-31,16.7-46.38,6.39-18.75,13-38.14,20.83-56.35l1-2.38L1182.3,1144l-.29-2.4-74-693.27-16.76-48-19.86,45L996.82,698.5l-10.17,36.3-86.17,307.61,9.66,3.29-12.62,52.6c-2.47,9.19-5.85,19.55-9.13,29.56l-.16.49-6.36,18.78-.45-.11c-29.23-7-60.27-14.47-90.13-22.47l-12.21-3.46c-2.61-.85-5.29-1.8-7.87-2.73l-4.42-1.56-58-20.5.11-.44,23.57-94.52c.51-2.09,50.85-210.16,73.5-300.41,7.08-28.49,13.75-57.24,20.21-85,3.95-17,8-34.62,12.16-51.92,12.54-53.08,23.16-96.3,33.43-136,10.49-40.41,23.22-87.95,38-134,1.29-3.75,2.54-7.58,3.74-11.29,2.3-7.07,4.68-14.38,7.38-21.3l5.91-16c1.32-3.31,2.73-6.56,4.1-9.71q1.23-2.81,2.43-5.65c.41-.92.8-1.84,1.19-2.77.69-1.61,1.39-3.27,2.12-4.82l3.7-6.8,3.63-6.81a36.41,36.41,0,0,1,2.45-3.51c.53-.69,1.07-1.41,1.58-2.16a97.08,97.08,0,0,1,21.55-20c15.32-10.79,34.33-20,58.1-28,6.08-2,11.11-3.55,15.83-4.84,2.29-.64,4.81-1.3,7.91-2.07l3-.69,4.11-.63,35.62-5.65c22.52-3.72,45.8-7.56,69.25-12.44,21.75-4.68,41.86-11.52,60.35-18.2l.24-.09.21.14c11.5,7.67,26.71,17.74,42.31,27.62,7.69,4.86,16.7,10.51,26.16,16,3.87,2.25,9,5.16,14.25,7.69,4.81,2.38,9.46,4.41,13.95,6.37l.55.23c19.63,8.38,39.44,15.9,56.47,22.3,18,6.75,36.51,13.48,56.58,20.58l16.85,6,28.42-70.05L1500,170.8l20.33-23.59.3.76,28.11,69.24,16.86-5.92c20.14-7.06,38.66-13.74,56.7-20.44,21.5-8,39.44-15.06,56.45-22.31l.46-.2c4.52-2,9.19-4,14-6.42,5.3-2.57,10.4-5.47,14.24-7.71,9.39-5.46,18.42-11.13,26.14-16,15.55-9.89,30.76-20,42.27-27.67l.21-.14.24.08c18.53,6.7,38.67,13.55,60.4,18.22,23.5,4.88,46.84,8.74,69.41,12.46l.61.1,38.88,6.14,3,.7c2.33.58,5.08,1.27,7.92,2.07,4.73,1.3,9.76,2.84,15.82,4.84,23.8,8.08,42.8,17.25,58.1,28A96.54,96.54,0,0,1,2052,203c.53.78,1.07,1.49,1.59,2.18a35.89,35.89,0,0,1,2.45,3.51l3.64,6.83,3.68,6.77c.75,1.6,1.46,3.27,2.15,4.88.39.92.78,1.84,1.17,2.74.81,1.91,1.62,3.78,2.44,5.66,1.37,3.14,2.78,6.39,4.09,9.69l5.91,16c2.7,6.9,5.07,14.2,7.37,21.26,1.21,3.72,2.46,7.57,3.75,11.31,14.78,46.09,27.51,93.62,38,134,10.28,39.76,20.9,83,33.43,136,4.12,17.31,8.21,34.91,12.16,51.93,6.45,27.8,13.13,56.55,20.2,85,22.65,90.23,75.83,289,76.36,291l20.79,104.31L2233,1116.64c-1.46.5-2.93,1-4.39,1.55-2.6.92-5.28,1.88-7.88,2.71h0l-12.19,3.43c-30.2,8.12-61,15.6-90,22.56l-.44.11-6.6-19.49c-3.26-10-6.64-20.29-9.07-29.42l-12.6-52.5,9.66-3.29-96.34-343.92-74.55-253.25-23.51-36.38L1892,448.17l-72.85,691.37-.28,2.41,12.62,91.33,1,2.37c13.1,38.38,24.41,69.16,36.69,99.83,3.71,9.3,6.6,19.11,9.39,28.6,2.23,7.59,4.54,15.44,7.23,22.88,3,8.32,5.81,17.76,8.18,25.9,1.5,5.06,2.73,9.78,4,14.79.8,3.06,1.62,6.18,2.51,9.46,16.18,63.24,28,129.43,39.32,193.44q1.74,9.73,3.46,19.44c6.23,35,11.93,71,17,107,4,29.43,9,68.18,11.55,106.91,3.76,67.85,1,138.38-1.73,206.59l-.37,9.27c-2,44.79-4.39,90.39-6.72,134.48-1.43,27.22-2.92,55.37-4.29,83.1-2,40.63-3.53,74.77-4.43,109.32-1.11,38.06-.66,76.6-.16,109.74,2.4,138.3,6.78,276.3,11.45,417.29v.49l-.48,0-220.3,12.44c-9.28.62-19.07,1-29.91,1.24Zm-462.64-20.58,219.81,12.41c9.37.62,19.14,1,29.87,1.24l213,5.93,216.81-6c10.84-.22,20.61-.63,29.87-1.25l219.82-12.41c-4.66-140.82-9-278.67-11.43-416.81-.5-33.15-1-71.71.16-109.79.9-34.55,2.42-68.7,4.43-109.34,1.38-27.73,2.86-55.88,4.3-83.1,2.32-44.09,4.73-89.68,6.71-134.47l.37-9.27c2.7-68.18,5.49-138.69,1.73-206.49-2.51-38.7-7.49-77.42-11.54-106.83-5-35.91-10.73-71.88-17-106.92q-1.72-9.71-3.46-19.44c-11.37-64-23.14-130.16-39.31-193.36-.89-3.27-1.71-6.39-2.5-9.46-1.31-5-2.54-9.72-4-14.76-2.36-8.12-5.18-17.54-8.16-25.84-2.7-7.47-5-15.33-7.25-22.94-2.78-9.47-5.66-19.26-9.35-28.51-12.3-30.69-23.62-61.48-36.7-99.84l-1.07-2.53L1817.87,1142l.3-2.53L1891,448v0l13.78-41.46,24.75,38.33,74.57,253.33,10.18,36.31,86.41,308.52-9.69,3.3,12.38,51.6c2.43,9.09,5.8,19.4,9.06,29.36l.18.54,6.12,18.07c28.83-6.93,59.47-14.37,89.49-22.44l12.18-3.43c2.58-.82,5.25-1.77,7.83-2.69,1.47-.53,2.94-1,4.4-1.55l57.32-20.17-20.61-103.44c-.53-2-53.7-200.77-76.36-291-7.07-28.49-13.75-57.24-20.2-85-3.95-17-8-34.62-12.16-51.93-12.53-53-23.15-96.23-33.43-136-10.49-40.4-23.22-87.92-38-134-1.29-3.74-2.54-7.59-3.75-11.31-2.29-7-4.66-14.33-7.35-21.22l-5.92-16c-1.29-3.27-2.7-6.51-4.07-9.65-.82-1.88-1.63-3.76-2.44-5.67-.39-.9-.78-1.82-1.17-2.74-.69-1.6-1.39-3.26-2.12-4.82l-3.67-6.75-3.64-6.81a33.13,33.13,0,0,0-2.36-3.39c-.53-.7-1.09-1.42-1.61-2.19a95.32,95.32,0,0,0-21.27-19.74c-15.23-10.75-34.15-19.88-57.84-27.92-6-2-11.06-3.53-15.78-4.82-2.83-.8-5.57-1.49-7.88-2.07l-3-.68-4-.62L1906,142.13c-22.59-3.73-45.94-7.58-69.46-12.48-21.69-4.66-41.8-11.48-60.3-18.16-11.49,7.67-26.61,17.71-42.08,27.54-7.73,4.9-16.76,10.58-26.16,16-3.87,2.25-9,5.16-14.31,7.75-4.86,2.4-9.54,4.45-14.07,6.44l-.46.2c-17,7.26-35,14.36-56.51,22.33-18,6.7-36.57,13.38-56.63,20.42l-17.84,6.26L1520,149.1l-20,23.23L1480,149.21l-28.18,69.42-17.74-6.29c-20.08-7.1-38.59-13.83-56.6-20.58-17-6.4-36.87-13.93-56.52-22.32l-.55-.24c-4.5-2-9.16-4-14-6.38-5.29-2.55-10.43-5.47-14.31-7.72-9.48-5.49-18.49-11.14-26.19-16-15.52-9.83-30.64-19.85-42.13-27.5-18.46,6.67-38.53,13.48-60.24,18.16-23.48,4.88-46.77,8.73-69.29,12.45l-.78.13-38.94,6.15-2.91.67c-3.08.76-5.59,1.42-7.87,2.06-4.71,1.29-9.72,2.82-15.78,4.82-23.68,8-42.6,17.16-57.85,27.9a95.92,95.92,0,0,0-21.31,19.78c-.5.74-1.06,1.46-1.59,2.17a35.4,35.4,0,0,0-2.38,3.39l-3.62,6.79-3.68,6.78c-.72,1.51-1.42,3.16-2.1,4.76-.39.93-.79,1.86-1.19,2.78-.8,1.89-1.62,3.77-2.43,5.65-1.37,3.14-2.78,6.38-4.08,9.67l-5.91,16c-2.7,6.9-5.07,14.2-7.37,21.26-1.21,3.71-2.46,7.55-3.74,11.29-14.78,46.07-27.5,93.58-38,134-10.26,39.7-20.88,82.91-33.42,136-4.12,17.3-8.21,34.9-12.16,51.91-6.45,27.82-13.13,56.58-20.21,85.07-22.65,90.25-73,298.32-73.49,300.41L710,1095.66l57.11,20.19,4.42,1.57c2.58.92,5.25,1.88,7.84,2.71l12.18,3.46c29.69,8,60.56,15.4,89.65,22.36l6.23-18.41c3.27-10,6.66-20.33,9.11-29.49l12.41-51.7-9.7-3.3,5.06-18,81.36-290.47,10.18-36.31,74.57-253.33,20.9-47.37,17.65,50.6,74,693.31.31,2.53-.35,2.52-12.31,89.06-1.08,2.5c-7.82,18.18-14.42,37.55-20.8,56.28-5.24,15.4-10.67,31.31-16.72,46.43-4.88,12.24-8.72,23-12.77,34.39-1.5,4.2-3,8.49-4.66,13-1,2.87-2.2,5.93-3.33,8.89-2.16,5.65-4.4,11.49-5.91,16.68-1.33,4.49-2.49,9.44-3.61,14.23-.92,4-1.87,8-2.93,11.9-14.26,55.74-23.76,110.44-33.81,168.35-2.39,13.77-4.87,28-7.38,42.1-6.23,35-11.93,71-17,106.92-4,29.41-9,68.12-11.55,106.83-3.75,67.8-1,138.31,1.74,206.5l.37,9.26c2,44.82,4.39,90.45,6.72,134.57,1.43,27.19,2.92,55.3,4.29,83,2,40.64,3.53,74.79,4.43,109.34,1.11,38.08.66,76.64.16,109.79C1044.47,2654.6,1040.09,2792.46,1035.43,2933.29Z"/>
    <polygon points="662.57 1080.23 661.64 1079.86 681.61 1029.03 701.59 982.54 702.5 982.94 682.53 1029.41 662.57 1080.23"/>
    <polygon points="2336.94 1086.76 2310.44 1015.96 2290.13 973.88 2291.03 973.44 2311.36 1015.56 2337.88 1086.41 2336.94 1086.76"/>
    <path d="M1426.13,152.87l-12.31-4.26-28.37-10.07c-17.13-6.26-34.84-12.74-49.93-19.62-7.35-3.44-15.85-8.5-23.36-13-7.71-4.63-15.79-9.62-24-14.82-7.26-4.58-14.74-9.37-22.86-14.63l-.66-.43,42.93-26.68.27.17c7.86,5,17.22,11,27.07,17,5.95,3.62,12.39,7.51,19.19,11.4,3.09,1.77,6.46,3.67,10.14,5.61,4.16,2.24,8.43,4.15,11.29,5.36,14.93,6.23,29.43,11.11,42.22,15.42,7.59,2.55,14.67,4.87,21.64,7.11l.51.16-.2.5c-1.64,4.07-3.37,8.42-4.91,12.82-3.32,9.38-6.16,19.12-8.5,27.42ZM1266.5,76.09c7.86,5.09,15.12,9.74,22.18,14.2,8.22,5.19,16.29,10.17,24,14.8,7.48,4.46,16,9.51,23.26,12.93,15,6.86,32.75,13.32,49.86,19.58l1.57.57,26.78,9.49,11.31,3.91c2.32-8.19,5.11-17.74,8.37-27,1.49-4.23,3.15-8.42,4.73-12.36-6.81-2.18-13.73-4.46-21.14-6.94-12.81-4.31-27.33-9.2-42.29-15.45h0c-2.88-1.21-7.18-3.14-11.37-5.4-3.69-1.94-7.07-3.85-10.17-5.62-6.81-3.9-13.26-7.79-19.21-11.42-9.75-5.91-19-11.82-26.83-16.84Z"/>
    <path d="M1577.17,154.69l-17.6-43.38.51-.16q3.39-1.12,6.78-2.22c5-1.64,10.19-3.33,15.28-5.06,13.58-4.69,27.63-9.53,42.18-15.49,2.82-1.18,7.07-3.06,11.26-5.3,3.79-2,7.26-3.93,10.15-5.57,6.7-3.8,13.2-7.69,19.22-11.33,8-4.8,16.31-10,27.12-16.79l.27-.17,43.41,27-.64.43c-7.81,5.22-15,10-22,14.55-8.07,5.27-15.95,10.3-23.41,15-6.68,4.16-15.33,9.45-22.92,13.4-7.92,3.92-17.2,7.76-25.24,11h0c-8.41,3.38-17.43,6.88-26.78,10.42-10.54,4-21.35,7.88-31.81,11.65Zm-16.27-42.76,16.84,41.5,4.85-1.75c10.45-3.77,21.26-7.67,31.79-11.64,9.35-3.54,18.36-7,26.77-10.42,8-3.24,17.29-7.07,25.16-11,7.56-3.93,16.18-9.2,22.85-13.35,7.46-4.65,15.33-9.68,23.39-15,6.81-4.44,13.8-9.07,21.36-14.11L1692.34,50.4c-10.68,6.73-19,11.87-26.87,16.64-6,3.64-12.54,7.53-19.24,11.34-2.9,1.64-6.38,3.59-10.18,5.58-4.22,2.26-8.5,4.15-11.35,5.35-14.58,6-28.64,10.81-42.24,15.5-5.09,1.74-10.28,3.43-15.29,5.07Z"/>
  </g>
</svg>
