<svg xmlns="http://www.w3.org/2000/svg" viewBox="0 0 2994.91 3000">
  <title>46icon 1</title>
  <g>
    <path d="M667.09,2792.85a11.92,11.92,0,0,0,1.37.1l0-1-1.31-.09Z"/>
    <path d="M2261,2655.65c-97.8-339.28-198.94-690.11-318.38-1014.26l-.05,0c0-.64-.21-2-.61-4.89l-15.33-111a22.24,22.24,0,0,1-.07-8c11.6-97.71,109.68-959.82,115.31-1009.27L2141,787l.16.47.47-.17c68.18-24.54,143.92-58.5,225.13-100.93l.35-.19-.1-.38c-6.63-25.76-13.15-52.11-19.46-77.59-26.73-108-54.36-219.66-99.41-322.27-19.47-44.11-68.33-64.44-111.43-82.37-7.35-3.06-14.31-6-21.13-8.95L2131,179.39l-.82-.24c-36.38-10.56-75.53-16.38-113.38-22-78.25-11.63-159.15-23.65-222.22-78l-.6-.52-.21.77c-53.24,197.16-129.94,380.88-228,546.06l-.14.24.12.24a71.72,71.72,0,0,1,7.55,35.48l0,.4.39.1c95.91,26.53,172.31,87.58,209.57,167.43,29.88,92.33,39.1,189.44,48,283.34,1.83,19.26,3.72,39.17,5.77,58.76-130.16-46-307.88-109.08-336.61-267.19l-.49-2.7-.49,2.7c-28.75,158.08-206.46,221.18-336.61,267.19,2-19.61,3.94-39.54,5.77-58.83,8.92-93.87,18.14-190.93,48-283.21,37.3-79.91,113.69-141,209.6-167.49l.39-.1,0-.4a71.61,71.61,0,0,1,7.55-35.48l.12-.24-.14-.24c-98-165.18-174.72-348.9-228-546.06l-.21-.77-.6.52c-63.09,54.4-144,66.41-222.2,78-37.86,5.63-77,11.44-113.4,22l-.82.24,15.42,15.15C798.21,225.75,750.16,258.06,726.9,347.1c-36.72,106.17-64.11,217.52-90.6,325.21l-3.4,13.83.35.19c81.21,42.43,157,76.39,225.12,100.93l.5.18.15-.51c12.74-43.11,31.48-93.13,49.6-141.5,17.61-47,35.8-95.57,48.27-137.32,7.21,64.19,62.16,538.66,95.17,823.73,10.57,91.26,18.55,160.19,21.36,184.49a22.54,22.54,0,0,1-.08,8c0,.32-15.59,112.81-16,115.85-119.12,323.39-220.07,674-317.7,1013.15-13.38,46.47-27.21,94.51-40.71,141.18l-4,17.52.55.06c197.8,22,376.28,41.33,557.65,54.64l.07-1c-181.18-13.29-359.48-32.58-557.05-54.57l3.74-16.4q4.32-14.91,8.67-30c12.76,1.33,306.36,31.93,543.5,49.55l.07-1c-236.13-17.55-528.25-48-543.28-49.53,10.61-36.75,21.32-73.94,31.75-110.18,97.63-339.11,198.58-689.77,317.7-1013.14l15.35-111c.43-3.08.61-4.36.63-4.93h0a23.21,23.21,0,0,0,.09-8.36c-2.8-24.27-10.79-93.2-21.35-184.47-33.48-289-89.5-772.84-95.45-826.17l-.27-2.46-.7,2.37c-12.48,42.24-31,91.74-49,139.62-18.06,48.19-36.73,98-49.47,141.06-67.9-24.48-143.31-58.3-224.15-100.52l3.22-13.07c26.48-107.67,53.86-219,90.57-325.16,23.2-88.8,71.2-120.93,157.33-152.07,7.55,7.6,191.53,192.71,257.72,249.79,65.37,56.38,279.38,174.82,290.17,180.77a72.8,72.8,0,0,0-7.46,35.15C1380,673.7,1337.24,694.85,1302,722.21c-38,29.47-67,65.39-86.3,106.79-29.9,92.44-39.13,189.57-48,283.49-1.86,19.54-3.78,39.74-5.85,59.6l-.08.79.74-.26c67.62-23.91,144.26-51,208.57-92.41C1444.41,1033,1486.62,976.3,1500,907c13.37,69.25,55.57,125.93,128.94,173.18,64.37,41.45,141,68.52,208.57,92.41l.74.26-.08-.79c-2.07-19.83-4-40-5.84-59.53-8.93-94-18.16-191.12-48.09-283.61C1765,787.6,1735.92,751.68,1698,722.21c-35.2-27.35-77.93-48.5-123.58-61.18a72.8,72.8,0,0,0-7.46-35.15c12.52-7,297.62-167.17,381.28-243.9,44.72-41,160.75-179.61,166.63-186.63,6.93,3.05,14,6,21.48,9.1,42.93,17.87,91.59,38.11,110.89,81.85,45,102.53,72.64,214.16,99.36,322.11,6.28,25.36,12.76,51.57,19.37,77.21-80.85,42.23-156.27,76-224.18,100.53l-100.37-282.3-.24,2.15c-1,9.1-103.67,911.33-115.54,1011.34a23.36,23.36,0,0,0,.06,8.39c.16,1.11,14.91,107.87,15.95,115.47l-.1,0,.19.51c119.43,324.11,220.56,674.92,318.36,1014.18,10.23,35.5,20.73,71.92,31.14,107.9-15.11,1.57-310.64,32.14-548.68,49.67l.08,1c239-17.61,536.06-48.36,548.88-49.69q4.41,15.25,8.8,30.39l2.92,18c-173.26,20.28-369.58,43.26-562.09,52.53l0,1c192.74-9.29,389.28-32.3,562.69-52.6l.52-.06-3.11-19.13C2287.91,2748.91,2274.25,2701.5,2261,2655.65ZM886.21,194.94h0l-15.33-15.06c36.1-10.41,74.91-16.17,112.45-21.75,78.11-11.6,158.88-23.6,222.1-77.75,53.09,196.34,129.44,379.34,226.93,544-20.2-11.18-225.16-125.1-288.82-180C1078.14,387.94,897.55,206.35,886.21,194.94ZM1947.54,381.25c-81.76,75-356.23,229.79-379.9,243.09,97.49-164.64,173.84-347.63,226.92-544,63.2,54.14,144,66.15,222.12,77.76,37.54,5.57,76.34,11.34,112.43,21.74l-15.29,15,.07,0C2106,204.34,1991.78,340.67,1947.54,381.25Z"/>
    <path d="M1500,2938.61h-.36c-41.49,0-197-16.39-198.61-16.56l-.11,1c1.58.17,157.19,16.57,198.72,16.57h.36c38.23-.09,197.19-16.4,198.79-16.57l-.1-1C1697.09,2922.21,1538.17,2938.52,1500,2938.61Z"/>
    <path d="M1680,2881.27l-.09-1c-1.49.13-149.38,13.41-184.88,13.5h-.41c-38.68,0-183-13.37-184.47-13.5l-.09,1c1.46.14,145.84,13.51,184.56,13.51h.41C1530.56,2894.69,1678.5,2881.41,1680,2881.27Z"/>
    <path d="M2131.65,859l.35.94c1.16-.43,116.65-43.48,155.08-60.87,36.72-16.63,136.89-70.3,137.9-70.84l-.47-.88c-1,.54-101.15,54.19-137.84,70.8C2248.27,815.53,2132.81,858.56,2131.65,859Z"/>
    <path d="M868.81,860.84l.34-.94c-1.26-.46-126.59-45.53-166.51-64.11-32.6-15.17-126.19-69-127.14-69.53l-.5.86c1,.55,94.58,54.39,127.22,69.58C742.18,815.3,867.55,860.38,868.81,860.84Z"/>
  </g>
</svg>
