<svg xmlns="http://www.w3.org/2000/svg" viewBox="0 0 2994.91 3000">
  <title>50icon 1</title>
  <g>
    <g>
      <path d="M1515.23,2953.52c-79.44,0-162-3.14-248.49-9.44C1113.07,2932.91,947,2911.91,744.21,2878l-.42-.07v-.43c-.5-182.46.1-376.44,13.06-565.75,14.38-210,42.58-392.54,86.21-558.16,100.87-275.76,217.14-561.91,429.7-764.52.27-3,1.58-11.92,3.09-22.24,2.67-18.25,6.34-43.23,6.1-48.34-1.41-13.83-5-51-9.5-98-14.12-146.73-40.17-417.51-46.51-460-35,114.79-68.68,234.74-101.24,350.77-41.81,149-85.06,303.1-132,449.35l-.16.5-.49-.18c-3.34-1.23-13.07-6-20.17-9.52-2.59-1.28-4.84-2.38-6.3-3.08-1.3,6-2.57,12.09-3.86,18.18-6.55,31-13.32,63.16-22.46,93.26l-.17.58-.54-.29c-19-10.39-42.31-14.26-62.63-16.66l-.54-.07.11-.53c5.73-28.82,13.58-58.22,21.18-86.64q1.93-7.28,3.87-14.53c-1.72-.67-3.64-1.4-5.67-2.17-7.61-2.89-17.09-6.48-22.93-9.85l-.33-.19.09-.37C892.52,1048.22,920,967,946.66,888.43c20.92-61.75,42.55-125.59,60.73-188.71,17.47-53.26,29.73-110,41.58-164.83,19.13-88.48,38.9-180,81.08-259.86l.1-.14c27.9-25.65,66.59-31.71,104-37.56,14.13-2.21,28.74-4.5,42.2-7.82,28.1-7.8,64.05-19.1,92.8-37.44,32.58-20.79,50.08-46.32,53.5-78l.08-.74,17.61,9.53L1464,135.63c12.24,8.15,24.68,9.22,33.32,2.87l.13-.1,5-.08.14.1c8.65,6.38,21.11,5.33,33.32-2.82l14.86-8,25.82-14,.66-.36.08.74c3.4,31.72,20.9,57.24,53.49,78,28.76,18.34,64.72,29.65,92.83,37.45,13.46,3.33,28.09,5.61,42.23,7.83,37.39,5.85,76.06,11.9,104,37.55l.1.13c42.17,79.88,62,171.4,81.08,259.91,11.85,54.84,24.1,111.54,41.55,164.77,18.19,63.13,39.82,127,60.73,188.68,26.62,78.57,54.15,159.81,75,240.68l.09.37-.33.19c-5.87,3.38-15.28,7-22.84,9.81-2,.76-3.91,1.48-5.62,2.15q2.19,8.65,4.42,17.34c7,27.36,14.22,55.64,19.73,83.27l.11.53-.55.06c-18.41,2-42,5.66-61.52,16.38l-.54.3-.18-.6c-8.72-28.79-15.52-59.42-22.09-89q-2.39-10.73-4.77-21.35c-1.45.69-3.69,1.79-6.27,3.06-7.06,3.46-16.73,8.21-20,9.4l-.49.18-.16-.49c-46.93-146.28-90.17-300.36-132-449.37-32.55-116-66.21-235.94-101.22-350.73-6.32,43.52-31.66,300-46.9,454.41-4.8,48.57-8.59,86.93-10.11,101.63-.25,5,3.24,28.84,6,48,1.54,10.49,2.88,19.58,3.14,22.57,93,84.68,177.12,201.21,257.21,356.21,72.85,141,131,293.29,173.45,410.24,43.63,165.33,71.82,347.9,86.21,558.19,12.93,188.94,13.58,383.12,13.13,565.81v.43l-.43.06c-38.49,5.59-78,11.7-116.1,17.61-114.14,17.67-232.16,35.94-347.33,44C1703.51,2948.88,1611.63,2953.52,1515.23,2953.52Zm-770.44-76.43c232.53,38.86,496.63,75.45,768.81,75.46,92.29,0,185.45-4.21,278.7-14h0c115.12-8,233.13-26.31,347.24-44,38-5.89,77.33-12,115.69-17.54,1-405-5.84-769.07-99.29-1123.27-100.45-276.48-230.17-583.75-430.53-766.15l-.15-.13,0-.2c-.21-2.72-1.56-12-3.14-22.69-2.81-19.19-6.32-43.07-6.06-48.21,1.52-14.72,5.31-53.08,10.11-101.65,15.53-157.22,41.52-420.36,47.24-456.64l.34-2.14.64,2.07c35.24,115.44,69.11,236.14,101.87,352.86,41.76,148.83,85,302.72,131.81,448.83,3.62-1.43,12.69-5.89,19.41-9.18,3-1.45,5.46-2.68,6.84-3.33l.57-.27.13.61q2.48,10.9,4.91,22c6.53,29.4,13.28,59.79,21.9,88.39,19.33-10.48,42.56-14.15,60.81-16.15-5.49-27.42-12.67-55.5-19.61-82.67q-2.28-8.89-4.53-17.77l-.11-.43.41-.16c1.82-.71,3.87-1.49,6-2.31,7.39-2.8,16.55-6.27,22.38-9.56-20.79-80.71-48.27-161.81-74.85-240.24-20.91-61.73-42.54-125.57-60.73-188.7-17.46-53.26-29.72-110-41.58-164.86-19.11-88.42-38.86-179.83-80.94-259.57-27.68-25.39-66.17-31.42-103.39-37.24-14.16-2.22-28.8-4.51-42.33-7.85-28.19-7.83-64.24-19.17-93.1-37.58-32.16-20.52-50.28-46.77-53.87-78l-25.17,13.61-14.83,8c-12.47,8.33-25.29,9.41-34.29,2.87l-4.32.08c-9,6.5-21.79,5.42-34.29-2.92l-23.65-12.79-16.31-8.82c-3.64,31.71-21.27,57.24-53.88,78-28.85,18.41-64.9,29.75-93.08,37.57-13.52,3.33-28.15,5.62-42.29,7.83-37.25,5.83-75.76,11.86-103.42,37.26-42.09,79.74-61.85,171.14-81,259.54-11.86,54.87-24.13,111.61-41.6,164.9-18.18,63.13-39.82,127-60.74,188.74-26.57,78.42-54.05,159.51-74.82,240.19,5.8,3.28,15,6.78,22.45,9.59,2.2.84,4.27,1.62,6.1,2.34l.41.17-.11.43q-2,7.46-4,15c-7.54,28.23-15.34,57.43-21.06,86,20.1,2.4,43,6.26,61.91,16.42,9-29.89,15.76-61.76,22.26-92.59,1.33-6.29,2.65-12.57,4-18.8l.13-.62.57.27c1.42.67,3.93,1.9,6.89,3.36,6.76,3.33,15.91,7.84,19.59,9.29,46.86-146.08,90-300,131.81-448.81,32.76-116.74,66.63-237.44,101.88-352.88l.62-2,.35,2.11c5.7,34.47,32.47,312.73,46.85,462.22,4.52,47,8.1,84.16,9.5,98,.25,5.24-3.27,29.26-6.1,48.56-1.55,10.54-2.88,19.63-3.1,22.37l0,.19-.13.13C1061.09,1192.14,944.85,1478.23,844,1753.9,750.42,2109.17,743.69,2472.79,744.79,2877.09Z"/>
      <path d="M947.13,1263.05l-.17,0,.06-.5-.38,0,.38,0,.06-.49a.54.54,0,0,1,.51.3l.12.27-.18.24A.48.48,0,0,1,947.13,1263.05Z"/>
    </g>
    <g>
      <path d="M1520.14,108.68l-10.47-25.26,83.74-47.07,12.86,25.73Zm-9.2-24.82,9.7,23.41,84.3-45.61-12-23.93Z"/>
      <path d="M1603,116.64l0,0-.06,0-.05,0h0a.5.5,0,1,1,.48-.87h0l0,0,.09,0-.23.45.27.15-.27-.15Z"/>
      <polygon points="1610.04 114.46 1609.15 114.01 1609.22 113.86 1609.23 113.86 1609.23 113.85 1610.16 114.22 1610.06 114.43 1610.06 114.43 1610.04 114.46"/>
      <path d="M1480.52,108.56,1395,62l12.49-24.72,38,21.38L1463,68.39c4.15,2.32,8.4,4.63,12.5,6.87l5.1,2.79q4.39,2.42,8.82,4.78l1.47.79Zm-84.17-47L1480,107.15l9.64-23.08-.67-.36q-4.42-2.37-8.83-4.78l-5.1-2.79c-4.1-2.24-8.35-4.56-12.51-6.88L1445,59.52l-37.07-20.88Z"/>
    </g>
  </g>
</svg>
