<svg xmlns="http://www.w3.org/2000/svg" viewBox="0 0 2994.91 3000">
  <title>56icon 1</title>
  <g>
    <g>
      <path d="M2248,2215l-.09-.49-.43.08.43-.08-.09-.49.29-.06.43.44-.2.55Zm-.16-1,.08.49Z"/>
      <path d="M1498.47,2942.45a390.26,390.26,0,0,1-101.62-13.31l-.2,0-.1-.18c-121.93-211.75-335.34-491.1-659.58-619.44l-.46-.18,34-91.41.42.08c599.89,119.19,859.43,119,1461.61-1.14l.46-.09.12.45c7.8,28.92,16.52,60,27.49,91.5l.16.46-.46.17c-203.54,77.47-384.91,228.58-570.78,475.55-26.36,38-48.6,75.63-72.15,115.42-5.54,9.36-11.27,19-17,28.63l-.11.17-.19.06A390.41,390.41,0,0,1,1498.47,2942.45Zm-101.16-14.22a393.65,393.65,0,0,0,202.34,0c5.69-9.52,11.39-19.14,16.89-28.45,23.56-39.81,45.81-77.41,72.2-115.5h0c85.33-113.38,168-204.64,252.82-279,48.86-42.85,99.29-80.68,149.91-112.44a962.09,962.09,0,0,1,168.05-84.27c-10.85-31.19-19.5-62-27.23-90.65-323.1,64.43-528,89.62-730.59,89.83-107,.11-213.19-6.89-334.25-22C1056,2271.77,930.05,2250.59,771.17,2219l-33.38,89.69c135.54,53.73,263.57,139,380.54,253.56C1222.11,2663.88,1316,2787,1397.31,2928.23Z"/>
    </g>
    <g>
      <path d="M1082.62,1260.22c-100,0-181.57-26.43-235.41-79.11C758.15,1094,749.74,941.69,822.9,740.75c29.06-80.7,64.65-159.27,98.62-232.83l.21-.45.45.21c141.24,66.49,248,157.72,326.26,278.89,68.25,105.65,116.06,234.5,150.44,405.49l.08.41-.39.15C1282.59,1237.74,1174.8,1260.22,1082.62,1260.22ZM922.21,508.8c-33.89,73.41-69.38,151.79-98.37,232.29h0c-73,200.55-64.69,352.46,24.07,439.31,103.14,100.91,308.69,105.18,549.9,11.44C1326.29,836.5,1184.05,632.21,922.21,508.8Z"/>
      <path d="M1918.42,1259.12c-114.87,0-236.06-35.85-319.93-67.13l-.41-.15.09-.42c27.25-127.61,58.26-226.39,97.6-310.85,51.09-109.71,115.39-193.21,196.55-255.27,63.68-52.91,123.34-91.39,182.38-117.63l.46-.21.2.47c9.22,21.59,18.67,43,28.68,65.63,35.55,80.48,72.31,163.7,95.16,248.88,25.92,96.62,29.43,181.22,10.74,258.66-41.67,111.45-131.54,171.14-267.13,177.46C1934.73,1258.94,1926.58,1259.12,1918.42,1259.12Zm-319.18-67.91c89.74,33.43,222,72,343.52,66.35,135.15-6.3,224.72-65.77,266.23-176.75,41.7-172.8-36.7-350.27-105.87-506.85-9.93-22.49-19.32-43.74-28.48-65.17C2015.83,535,1956.4,573.35,1893,626.08h0C1709.76,766.15,1639.75,1001.6,1599.24,1191.21Z"/>
    </g>
  </g>
</svg>
