<svg xmlns="http://www.w3.org/2000/svg" viewBox="0 0 2994.91 3000">
  <title>40icon 1</title>
  <g>
    <path d="M1504.18,2867.11l-3.55-1.19-.09-.09L810.22,2120.38c-32.08-37.47-66.61-72.93-100-107.21-80-82.1-162.63-167-214.53-283.35-42.45-95.18-67.33-195.19-73.94-297.26a828.37,828.37,0,0,1,30-282.56c25.39-88.61,64.61-169.3,116.57-239.81,52.4-71.12,114.91-128,185.81-169,45-26.08,91.52-46.47,138.16-60.6,49.87-15.11,100.15-23.12,149.46-23.8v0c102.22-1.42,210.81,22.94,283.46,63.57,28.7,11.84,138.06,93,167.12,124.1,4.24,6.33,6.93,9.75,9.12,9.86,1.92.1,3.74-2.17,6.85-5.92l1.54-1.86c2.31-8.9,40.51-41.34,85.44-72.55,33.73-23.42,98.62-65.18,154.35-81.78,106.69-37.71,213.27-45.75,316.77-23.89a567.69,567.69,0,0,1,140.65,50A623.24,623.24,0,0,1,2330.93,802c47.26,40.85,89.45,89,125.41,143.22a769.37,769.37,0,0,1,86.52,176.11,788.73,788.73,0,0,1,27.86,407.41c-48.29,245.15-176.26,379.3-311.76,521.33-38.39,40.25-78.09,81.87-116.28,126.48Zm-3-2.05,2.69.89,638-690c38.19-44.62,77.9-86.25,116.31-126.51,135.39-141.92,263.27-276,311.5-520.83,53-269.32-40.95-554.21-239.46-725.79-164.27-142-375.8-182-580.36-109.67-55.62,16.57-120.41,58.27-154.09,81.65-48.77,33.88-83.36,64.62-85.06,72.08l0,.11-.08.1-1.61,1.94c-3.31,4-5.33,6.4-7.67,6.28-2.63-.13-5.38-3.55-9.85-10.24-29-30.94-138.09-112-166.78-123.82-72.55-40.58-180.94-64.88-283-63.47-96.28,1.33-192.88,29.69-287.13,84.26-266.95,154.58-441.5,576-258,987.4,51.83,116.19,134.45,201,214.34,283.06,33.4,34.3,67.94,69.77,100,107.24Z"/>
    <path d="M1500.14,647.48l-.15-.21c-30-43.91-121.62-89-198.07-123.48C1125.6,434.5,836.35,302,833.45,300.72l-2.2-1L1122.66,306,1031.89,83.13l349.24,221.23L1503.24,73.12l.44.81,128,229.64L1977.1,79.8l-77.76,220.81,300-4.45-191,83.3c-93.33,37.07-158.15,63.83-233.36,99-105.8,48.18-196.16,105-268.57,168.85l-.14.12ZM836.06,300.81c27.19,12.47,298.12,136.92,466.29,222.08,76.42,34.41,168,79.55,198.32,123.59h5.23c72.46-63.88,162.85-120.7,268.67-168.89,75.22-35.21,140.06-62,233.39-99l186.44-81.31-296.48,4.4,77.26-219.4L1631.37,305l-.26-.47L1503.26,75.22,1381.51,305.79,1034,85.64,1124.16,307Z"/>
  </g>
</svg>
