<svg xmlns="http://www.w3.org/2000/svg" viewBox="0 0 2994.91 3000">
  <title>78icon 1</title>
  <g>
    <polygon points="2652.96 1176.99 2652.87 1175.99 2728.03 1169.55 2728.35 1085.4 2729.35 1085.4 2729.03 1170.47 2652.96 1176.99"/>
    <polygon points="1409.54 286.41 1408.26 221.44 1473.74 199.85 1474.06 200.8 1409.28 222.16 1410.54 286.39 1409.54 286.41"/>
    <path d="M2729,1086.11l-.42-.31L2109.78,632.16,1472.77,201l.31-.42,126.3-170.23.4.25,658.39,419.94,595.5,457.26L2795,986.85ZM1474.2,200.75l636.15,430.59,618.38,453.35,65.47-98.42L2852.28,908,2257.6,451.35l-658-419.67Z"/>
    <polygon points="2789.84 990.7 2175.61 526.36 1548.85 102.03 1549.4 101.2 2176.19 525.54 2790.44 989.9 2789.84 990.7"/>
    <path d="M1340.35,2969.42l-.51-.68-197.53-262.45-796-686.57-206.34.34,187.71-191.93L719.78,1242,960.35,911.84l449.56-626.13.41.31,616.11,465.74,627.21,424.62-.33.42L2096,1891.35l-48.69,55.07h0L1729,2314.76l-277.92,405Zm-993.63-950.7.14.12L1143,2705.6l0,0,197.05,261.82,110-248.13,278-405.18,318.36-368.39,48.68-55,557-714.11-626.34-424L1410.13,287.13l-449,625.29L720.6,1242.55,328.5,1828.76l-186.11,190.3Z"/>
  </g>
</svg>
