<svg xmlns="http://www.w3.org/2000/svg" viewBox="0 0 2994.91 3000">
  <title>170icon 1</title>
  <g>
    <path d="M1469.51,2922.37l-.44-.23L220,2264l.23-.44L590.43,1561l.1-.07,865.38-600.74L1812,285.52,1750.33,253l.24-.44L1852.05,60l499,262.94-.24.44L2249.32,515.94l-69.22-36.47-352.5,676,19.69,1060.93-.06.11ZM221.35,2263.54,1469.09,2921l377.2-704.9-19.7-1060.93.06-.11L2179.22,479,1812.91,286,1456.68,960.84l-.1.07L591.2,1561.65Zm1959.22-1785,68.33,36,100.79-191.26-497.22-262L1751.69,252.59Z"/>
    <path d="M2398,1272.2c-38,0-74.7-18.28-100.83-51-32.21-40.3-41.15-93.26-23.35-138.21,14.88-37.59,43.72-65.59,83.37-81l35.67-7.76c53.14-.73,103.54,24.24,131.48,65.17,24.72,36.22,28.61,80.07,10.94,123.47-9.95,24.42-24.89,44.17-44.41,58.7-19.78,14.7-44.86,24.51-74.56,29.14A119.16,119.16,0,0,1,2398,1272.2Zm-5.08-276.9-35.44,7.71c-39.32,15.24-68,43-82.73,80.37-17.67,44.62-8.78,97.2,23.2,137.22,25.94,32.45,62.36,50.6,100.05,50.6a118.47,118.47,0,0,0,18.16-1.41c58.58-9.13,98.34-38.48,118.19-87.23,17.54-43.07,13.69-86.59-10.84-122.53-27.35-40.07-76.39-64.75-128.39-64.75Z"/>
    <path d="M2686.71,273.38c-29.62,0-58.41-14.32-79.15-39.95-26.87-33.19-34.54-77.18-20-114.78,11.88-30.75,34.87-53.65,66.51-66.22l28.46-6.35c41.69-.57,81.45,19.29,103.89,51.85,20.62,29.92,24.07,66.3,9.72,102.44-15.95,40.16-47.87,64.34-94.9,71.85A92.26,92.26,0,0,1,2686.71,273.38Zm-4.13-226.3-28.24,6.31c-31.29,12.44-54.09,35.14-65.86,65.62-14.4,37.27-6.79,80.88,19.85,113.79,20.55,25.39,49.07,39.57,78.38,39.58a90.36,90.36,0,0,0,14.36-1.15c46.64-7.45,78.31-31.42,94.12-71.23,14.22-35.82,10.81-71.87-9.61-101.5C2763.33,66.22,2723.91,46.53,2682.58,47.08Z"/>
    <path d="M725.63,712.73A121,121,0,0,1,677,702.41c-20.35-8.86-39.13-23.35-54.33-41.92a168.62,168.62,0,0,1-34.83-74,153.52,153.52,0,0,1,6.56-84c15.78-41.78,46.33-72.89,88.37-90l37.81-8.63c54.42-.77,106.86,25.55,136.85,68.7,28.48,41,33.49,91,14.11,140.92-10.54,27.15-26.38,49.1-47.07,65.24-21,16.34-47.55,27.24-79,32.39A123.07,123.07,0,0,1,725.63,712.73Zm-5-307.87-37.57,8.58c-41.7,16.95-72.06,47.86-87.73,89.37-19.56,51.79-8.79,112,28.11,157.05,32.19,39.34,76.6,57.66,121.83,50.26,62.11-10.15,104.28-42.79,125.32-97,19.26-49.58,14.29-99.3-14-140C826.8,430.26,774.7,404.09,720.63,404.86Z"/>
  </g>
</svg>
