<svg xmlns="http://www.w3.org/2000/svg" viewBox="0 0 2994.91 3000">
  <title>124icon 1</title>
  <g>
    <path d="M2403,2701.6l-.92-.18c-1.68-.31-168.46-31.89-222.49-53.13-113.38-44.58-338.55-164.81-439.71-241.58-45.46-34.5-109.71-92.6-171.88-155.42-67.56-68.26-121.34-130.35-151.41-174.82-51.38-76-106.77-244.11-123.87-331.18-15.54-79.16-17-242.32-7.82-324.63,3.81-34.25,14.3-87.27,31.32-124,11.59-25,61.62-114.91,62.13-115.82l.86-1.54.07,1.77c0,.87,3.9,88.11,8.68,116.58,9.15,54.45,34.72,160.73,55.57,210.13,21.4,50.67,79,143.28,118.48,182.28,47.86,47.29,175.56,108.16,244.81,135.41,49.13,19.33,154.1,36.11,208.38,43,25.06,3.17,79.5.71,91.41.12-15-5.87-103.92-40.82-138.63-60.43-35-19.78-88.67-57.15-114.35-83-9.95-10-41.84-48.3-42.16-48.68l-1.27-1.53,1.84.74c.54.22,53.92,21.68,71.67,28.67,7.61,3,17.45,7.06,27.87,11.35,27.71,11.43,62.2,25.66,82.85,31.64l5.24,1.52c30,8.72,67.36,19.56,97.68,20.86,14,.59,74.76-3.57,82.46-4.1-3.08-5.38-21.79-38.4-24.42-51.58-3.78-18.94-2.68-59.67,3.93-78.46,3.83-10.9,18-30.44,27.52-38s37.18-18.14,80-30.64c9.87-2.88,29.58-6,50.44-9.39,21.5-3.45,43.73-7,54.11-10.23,19-5.88,39.83-24.56,43-27.51-4.1-3.27-34.66-27.6-45.15-36.13-4.11-3.34-9.54-7.56-15.3-12-15.58-12.12-35-27.21-44.7-37.53-16.6-17.64-44.4-58.42-56.12-82.34-14.22-29-29.72-93.19-34.57-126.43s-6.19-98.32-7-137.14c-.07-3.63-.14-7-.21-10.18-.21-10.11-.2-23.14-.18-36.93,0-40,.1-89.88-5-118.06-4.45-24.45-19.09-75.21-28-97-5.67-13.87-16.36-32.15-27.69-51.5-12-20.47-24.36-41.64-30.2-57.06-4.58-.81-62.64-11.12-76.71-16.92-25.57-10.53-75.19-34.7-98.46-48.9-8.38-5.12-18.53-11.18-29.28-17.59-47-28-111.36-66.41-142.8-94.53C1739.39,509.42,1678.64,436.38,1657,400c-16.1-27-40.86-119.26-41.11-120.19l-.2-.76.77.14c.77.14,76.57,13.8,99.75,21,37,11.56,107.41,39.43,142.78,58,26.4,13.88,74.8,49.44,96.52,67.82l3.75,3.17c28.69,24.25,76.71,64.82,95.38,92.93,14.48,21.8,34.41,70.59,43.93,98.29,3.63,10.54,7,27.66,10.57,45.78,3.81,19.3,7.74,39.25,12,50.63,5.77,15.37,18.21,36.62,30.24,57.18,11.34,19.38,22.05,37.69,27.75,51.62,9.09,22.25,23.5,72.2,28,97.18,5.14,28.27,5.08,78.15,5,118.24,0,13.79,0,26.81.18,36.91.07,3.14.14,6.55.21,10.18.78,38.79,2.09,103.72,6.95,137s20.32,97.21,34.49,126.14c11.69,23.85,39.4,64.51,55.95,82.09,9.67,10.27,29,25.33,44.59,37.43,5.75,4.47,11.19,8.7,15.31,12.05,11.2,9.1,45.26,36.21,45.6,36.48l.45.36-.42.4c-.22.21-23.09,21.7-43.85,28.13-10.44,3.23-32.71,6.8-54.24,10.26-20.83,3.34-40.51,6.49-50.32,9.36-42.71,12.46-70.26,23-79.67,30.46-9.25,7.34-23.48,27-27.2,37.57-6.56,18.64-7.64,59.1-3.89,77.92,2.77,13.91,24.48,51.59,24.7,52l.4.7-.8,0c-.68,0-68.43,4.79-83.36,4.16-30.45-1.3-67.86-12.17-97.91-20.9l-5.25-1.52c-20.7-6-55.22-20.23-82.95-31.67-10.42-4.3-20.25-8.35-27.86-11.35-15.87-6.25-60.23-24.07-69.83-27.93,6.07,7.25,32,38.23,40.83,47.09,25.62,25.84,79.19,63.14,114.14,82.89,37.72,21.31,139.64,60.82,140.67,61.21l.24.1.06.25c.54,2.24,53.56,224,71.66,281.44,46.58,147.71,219.77,546.41,221.52,550.42ZM1378.33,1182.92c-6.69,12.06-50.5,91-61.24,114.21-17,36.57-27.42,89.46-31.23,123.64-9.16,82.24-7.71,245.25,7.81,324.33,17.08,87,72.41,254.92,123.72,330.81,63.45,93.82,230.67,259.88,323.07,330,101.09,76.73,326.14,196.89,439.46,241.45,51.85,20.38,207.84,50.33,221.38,52.9-9.12-21-175.63-405.23-221.17-549.65-17.75-56.28-69-270.32-71.58-281.1-5.65.3-66.51,3.39-93.5,0-54.33-6.88-159.41-23.67-208.62-43-69.33-27.28-197.18-88.23-245.16-135.63-39.54-39.08-97.26-131.85-118.69-182.6-20.88-49.47-46.48-155.85-55.63-210.35C1382.53,1271.59,1378.91,1195.49,1378.33,1182.92ZM1617,280.29c2.43,8.95,25.54,93.55,40.79,119.17,21.64,36.35,82.28,109.26,115.89,139.32,31.36,28.06,95.68,66.42,142.64,94.42,10.75,6.42,20.91,12.48,29.3,17.59,23.23,14.19,72.77,38.32,98.31,48.84,13.54,5.57,68.38,15.42,75.92,16.76-4.18-11.58-8-31.09-11.75-50-3.56-18.09-6.93-35.18-10.54-45.66-9.5-27.64-29.38-76.33-43.81-98-18.59-28-66.55-68.52-95.2-92.73l-3.75-3.17c-21.68-18.35-70-53.84-96.34-67.7-35.32-18.58-105.66-46.41-142.6-57.95C1694,294.33,1625.16,281.76,1617,280.29Z"/>
    <path d="M2151.36,2928.28l-1.25-.23c-2.37-.43-238.1-43.22-300.61-57.34-9.23-2.09-19.1-4.31-29.52-6.65-137.42-30.94-367.41-82.71-484-125.42-119.92-43.94-335.48-126.75-431.86-187.7-104.91-66.34-241.65-178.73-330.63-260.67-17.81-16.41-109.88-125.35-110.81-126.45l-.25-.31.23-.31c1.6-2.16,160.12-216.19,195.42-293.12,49.54-108,94-245,113.33-349.12,9.6-51.78,17.19-144.88,25.22-243.45C806.18,1160.74,816,1040,830.09,978.84,851.37,886.29,949,643.06,950,640.61l.92-2.3,0,2.48c0,2.61,4.27,262.1,22.14,347.19,13,61.8,40.9,145.41,100.17,192.77,76.42,61.06,137.31,73.86,137.91,74l.51.1-.12.5c-.65,2.91-65.36,292.21-59.93,386.45,5.83,101.22,41.69,303.46,86.83,402.92,43.49,95.81,189.64,240.06,277,326.24,7.29,7.2,14.15,14,20.47,20.25,63.17,62.65,165.84,130.64,257.94,188.88,87.56,55.37,243.79,123.95,245.35,124.63l.21.09.07.22c.25.83,25.15,83,36.47,111.16,9.33,23.22,74,110.21,74.65,111.09ZM463.73,2163.47c5.42,6.41,93.17,110.13,110.47,126.06,88.94,81.92,225.62,194.26,330.48,260.57,96.3,60.9,311.8,143.68,431.68,187.6,116.5,42.69,346.45,94.45,483.84,125.38l29.53,6.65c60.12,13.58,280.63,53.71,299.32,57.11-7.31-9.87-65.2-88.33-74-110.29-11.05-27.51-35-106.26-36.44-111-6.62-2.91-159.13-70.13-245.28-124.6-92.14-58.27-194.87-126.3-258.1-189-6.32-6.28-13.18-13-20.48-20.24-87.37-86.24-233.61-230.57-277.17-326.54-45.19-99.57-81.08-302-86.92-403.28-5.33-92.55,56.82-372.66,59.85-386.24-6-1.35-64.89-15.78-137.85-74.07-59.5-47.54-87.5-131.38-100.52-193.35-17-80.7-21.64-318-22.12-344.9-10,25.15-98.78,248.14-118.94,335.79-14,61.09-23.88,181.79-33.4,298.52-8,98.59-15.62,191.72-25.24,243.56-19.31,104.18-63.83,241.31-113.4,349.35C624.31,1946.14,470.74,2154,463.73,2163.47Z"/>
    <path d="M1424.83,988.83l-.39-.4c-1.5-1.53-150.47-153.09-203.27-201.1-8.27-7.52-16.4-14.67-24.27-21.59-42.53-37.42-82.71-72.76-143.47-163.54-17.21-25.71-43.54-66.93-43.81-67.35l-.21-.34.28-.28c1.48-1.46,148.72-146.42,237.7-181.24,87.16-34.1,228.89-59.71,230.31-60l.54-.09,0,.54c.13,1.52,14,153.16,62.3,274.82a360.65,360.65,0,0,0,112.77,150.93c37.87,29.59,69.07,41.53,69.38,41.65l1.37.52-1.4.42c-1,.32-103.21,32.07-189.44,102.86-22.14,18.17-107.23,122.67-108.08,123.72ZM1010.68,534.66c2.58,4,27.21,42.53,43.58,67,60.69,90.68,100.82,126,143.3,163.34,7.87,6.93,16,14.09,24.29,21.61,51.48,46.82,194.34,192,202.91,200.74,6-7.41,86.39-105.8,107.88-123.43,81-66.52,176.1-98.63,188.44-102.62-6.31-2.59-34.69-15-68.3-41.25a361.61,361.61,0,0,1-113.12-151.37c-46.93-118.11-61.36-264.42-62.32-274.56-9.66,1.77-145.23,26.82-229.58,59.82C1160.84,387.93,1018.08,527.4,1010.68,534.66Z"/>
    <path d="M950.94,641l-1-.31c.08-.26,8.64-26.14,27.53-60.93,17.52-32.25,32.05-45.37,32.19-45.5l.67.75c-.15.13-14.56,13.16-32,45.23C959.55,614.89,951,640.7,950.94,641Z"/>
    <path d="M1379.25,1181.21l-1-.14c.1-.73,10.38-72.7,16.08-96.58s29.74-95.85,30-96.57l1,.32c-.24.72-24.27,72.65-30,96.48S1379.35,1180.48,1379.25,1181.21Z"/>
    <path d="M1534.6,219.08l1.91-31.31,11.57,30.72Zm2.62-26.58L1535.67,218l11-.48Z"/>
    <path d="M1760.79,244.83l-34.64-15.29,11.71-117.26Zm-33.57-15.91,32.26,14.24-21.36-123.47Z"/>
    <path d="M1943,1318.32c-25.65,0-55.27-5.73-80.62-12.24-43.84-12.08-84.15-36.62-113.53-69.12-28.23-31.24-44.93-67.78-47-102.9l-.06-1.08.86.65c13.68,10.2,26.7,21.42,39.29,32.26,32,27.61,65.19,56.16,113.52,72.19,26.34,13.68,54,14.56,80.74,15.4,14.74.46,28.67.9,42.35,3.34l.11,0c12.82,5.45,21.86,15.11,23.6,25.2,1.36,7.89-1.74,15.57-9,22.21C1982.14,1314.52,1963.9,1318.32,1943,1318.32Zm-240.11-183.24c5,74.48,72,145.87,159.75,170,45.72,11.73,105.38,21,130-1.59,7-6.4,9.95-13.77,8.65-21.31-1.68-9.75-10.47-19.1-23-24.43-13.6-2.41-27.47-2.85-42.16-3.31-26.85-.85-54.62-1.72-81.09-15.48-48.44-16.07-81.66-44.68-113.78-72.35C1729,1156,1716.27,1145.09,1702.93,1135.08Z"/>
  </g>
</svg>
