<svg xmlns="http://www.w3.org/2000/svg" viewBox="0 0 2994.91 3000">
  <title>122icon 1</title>
  <g>
    <path d="M2887,2514.82h-.17L120.1,2514v-.5l1.17-177.17h2766v.5l1.17,176.92ZM121.11,2513l2765.53.87.84-.62-1.17-175.92h-2764Z"/>
    <g>
      <path d="M2693.67,784l-.49-.09L1896.06,623l-.49-.1.1-.49q12.51-64,25-128.1l.09-.5.5.1L2718.85,654.1l-.09.49q-12.48,64.45-25,128.9ZM1896.74,622.1q398.12,80.37,796.14,160.7,12.42-63.94,24.8-127.91L1921.6,495Q1909.17,558.54,1896.74,622.1Z"/>
      <path d="M2330.42,1955.4l-.49-.1-561.66-111.58.1-.49,72.52-358.67L71.74,1123.67l.09-.49L140,779.69l.49.09,1771,355,72-357.63.49.1,563.57,112.94-.09.49Zm-561-112.46,560.19,111.28L2546.37,891,1984.26,778.36l-72,357.62-.49-.09-1771-355-67.89,342,1769.16,360.89-.1.49Z"/>
      <path d="M2407.83,2242.23,1601,2080.09l.1-.5q13.52-66.9,27.06-133.83l.1-.49.49.1,805.29,162-.09.49q-13,66.93-26,133.89Zm-805.7-162.93L2407,2241.05q12.9-66.47,25.78-132.92L1629,1946.45Q1615.55,2012.89,1602.13,2079.3Z"/>
    </g>
  </g>
</svg>
