<svg xmlns="http://www.w3.org/2000/svg" viewBox="0 0 2994.91 3000">
  <title>126icon 1</title>
  <path d="M2647.3,2481.85c-39,0-78.11-14.28-114.1-41.87-37.26-30.65-59.26-69.75-63.64-113.1-3.94-39,6.75-80,30.1-115.5,25.73-39.1,64-67.9,107.75-81.11,49-14.78,101.26-9,151.27,16.64,17.85-16.87,37.15-57.47,50.43-106.12s17.56-94.44,11.09-119.16c-15-57.25-76.07-106.13-163.35-130.77-84.54-23.86-196.56-22.34-256.25,34.88-179.79,172.35-319.69,346.91-440.25,549.34l-.18.29-.33,0c-39.94-5.76-78.86-11.84-116.5-17.71-127.79-20-248.48-38.8-386.13-42-156-1.45-277.7,12.39-418.69,28.41-38,4.32-77.27,8.78-119,13.15l-.47.05-.08-.46c-7-40.79-12-84.91-16.94-127.58-17.12-148.77-34.81-302.6-134-389.54-143.8-126-320.5-144.41-423.83-108.15-67.25,25.07-92.6,105-93.9,171.33-1.69,86.71,32.62,162.13,83.45,183.53,46.38-21,94.26-22.77,138.49-5.27,39.62,15.68,73.93,46,96.61,85.45,22.09,38.39,30.93,81.74,24.88,122.06-6.76,45.09-31.58,84.05-71.78,112.69-35.7,28.87-75.84,43.86-117,43.86q-8.41,0-16.87-.83c-42.35-4.21-82.67-24.19-113.53-56.25-31.82-33.06-50.36-75.66-52.23-120-2.09-49.74,16.83-99,54.72-142.54a377.94,377.94,0,0,1-81-80,393.61,393.61,0,0,1-52.68-97.08c-25.1-67-33.73-143.09-24.93-220.08,9.68-84.7,39.45-166,86.08-235.13,49.19-72.93,115-128.29,190.3-160.09,79.55-33.6,167.37-40.83,261-21.51,104.67,21.6,214.3,76.26,325.85,162.45l.22.16,0,.28c-11.4,116.91,3.76,280.48,39.57,426.88,41.2,168.47,104.73,299.94,179,370.52-50.14-199.77-69.14-432.69-55-673.77,13.52-230,56-456,123-653.66,22-64.26,43.8-126.3,67.67-179.17,25.63-56.74,51.77-98.91,82.28-132.72,69.15-76.63,166.45-114.35,315.51-122.3h0c98.9-2.46,177.13,23.47,239.18,79.26,47,42.23,79.56,96.16,109.4,150.37q8.67,14.32,16.67,30.64c9.75,18,19.05,35.07,28.85,51.78,49.47-13.73,97.39-7.62,138.61,17.69,37.17,22.82,66.14,59.66,81.55,103.73,15.61,44.61,15.48,91.76-.36,132.75-17.9,46.34-54.85,82.47-106.84,104.48-23.17,8.12-45.93,12.17-67.77,12.17A161.25,161.25,0,0,1,2096,1174.1c-37.73-20.28-67.62-55.74-84.14-99.86-33.53-89.52-7-204.27,108.48-250.63a535.9,535.9,0,0,0-21.46-51.35l-2.84-5.24c-5.21-9.63-10.49-19.37-15.88-29.12-33.78-54.9-75-86.76-123.18-95-77.13-13.21-169.18,37.73-252.58,139.75-91,111.28-79.32,189.81-64.58,289.23,2.11,14.23,4.29,28.94,6.24,44.22,18.49,144.87,39.79,284.64,60.39,419.81,13.56,89,27.59,181,40.92,275.12,11.21,66.62,15.76,159.5,12.17,248.43-3.94,97.53-16.9,180.58-36.52,234.05,81.94-26.6,130.77-115.57,145.13-264.45,12-124.55-2.05-261.24-11.36-351.7l0-.25.19-.17c29.41-26.32,46.84-46.68,62.21-64.65,22.06-25.77,41.11-48,87.22-79.58,75.21-43.82,163.3-77.35,254.78-97,93.34-20,188.62-25.15,275.52-14.82,120.69,23,230.76,96.87,302,202.73,33.19,49.3,56.37,102.79,68.89,159,13.09,58.71,13.87,117.7,2.32,175.36-27.79,74.6-88.52,166.41-129.06,209,34.31,38.85,50.7,85.45,47.39,134.81-3,44.72-22,88-53.46,121.78-29.79,32-68.31,52.29-108.47,57.11A159.58,159.58,0,0,1,2647.3,2481.85Zm14.51-358.63c-70.12,0-128.84,39.36-161.31,88.71-42.47,64.54-48.64,159.85,33.32,227.27,97,74.31,190,37.68,240.25-16.28,59.15-63.55,80.12-171.75,5.75-255.59l-.3-.34.31-.34c40.47-42.41,101.35-134.35,129.14-209,22.68-113.24-2.56-231.7-71.08-333.49-71.11-105.64-180.94-179.38-301.34-202.3-175.76-20.9-373.76,20.84-529.62,111.65-46,31.45-65,53.66-87,79.39-15.36,17.94-32.76,38.28-62.12,64.56,9.31,90.5,23.34,227.12,11.33,351.64-6.62,68.71-20.66,125.25-41.73,168-24.87,50.51-60.21,83.35-105.06,97.59l-1,.31.36-1c42.93-115.78,47.45-347.44,24.66-482.95-13.34-94.07-27.37-186.11-40.93-275.12-20.6-135.17-41.9-275-60.39-419.83-1.95-15.27-4.13-30-6.24-44.2-14.78-99.67-26.45-178.39,64.8-290,83.63-102.31,176-153.38,253.51-140.11,33.18,5.68,63.57,23,90.33,51.32a260.46,260.46,0,0,1,26.12,32.9c-62.2-110.37-143.36-219.65-339.69-214.77-148.76,7.93-245.85,45.55-314.81,122C1354.73,704.66,1318,803,1269.35,944.86c-140.12,413.89-166.63,935.37-67.53,1328.53l.42,1.66-1.25-1.17c-74.92-70.42-139-202.6-180.51-372.19a1570.23,1570.23,0,0,1-37.9-227.57c-6.66-73.5-7.25-142.43-1.72-199.37-268.41-207.31-466.61-190.9-585.65-140.64-147.24,62.18-255.49,217-275.76,394.41-18.61,162.8,40.69,311,158.63,396.51l.45.32-.37.41c-83.72,95.78-61.77,200.39-2.88,261.58,55.29,57.45,155.87,86.06,246.06,13.12C610,2337.28,608.66,2237.69,568,2167c-40.82-70.94-131.47-126.13-234-79.68l-.2.09-.2-.08c-26.24-11-48.2-35.52-63.49-71-14.19-32.89-21.56-73.22-20.78-113.56.77-39.29,9.06-75.69,24-105.26,16.52-32.76,40.93-55.93,70.6-67,53.54-18.79,124.34-21.44,194.25-7.28,83.95,17,163.69,57,230.57,115.62C868.17,1926.05,885.89,2080.08,903,2229c4.89,42.5,9.94,86.44,16.86,127.07,41.55-4.35,80.68-8.8,118.52-13.1,141-16,262.83-29.87,418.83-28.42,137.72,3.23,258.44,22.08,386.26,42,37.54,5.86,76.34,11.92,116.17,17.67a2488.89,2488.89,0,0,1,200.28-288.61c72.18-89.8,150.68-175.06,240-260.66,26.73-25.62,66.51-42.13,115.05-47.73,44.61-5.16,95.1-.68,142.16,12.61,40.82,11.52,77.33,29,105.57,50.68,30.53,23.39,50.75,51.33,58.47,80.79,6.52,24.88,2.27,70.74-11.09,119.68s-32.92,90-51,106.83l-.25.24-.31-.16C2725,2130.67,2692.3,2123.22,2661.81,2123.22ZM2106.18,785.67q8,18,15.28,38.05l.16.46-.45.18c-115.27,46-141.77,160.35-108.36,249.53,30.66,81.86,113,146.46,227.78,106.23,113.81-48.18,135.56-153.24,106.62-236-27.93-79.84-108.48-151.67-219.32-120.68l-.37.1-.2-.33C2120.13,811,2113.21,798.53,2106.18,785.67Z"/>
</svg>
