<svg xmlns="http://www.w3.org/2000/svg" viewBox="0 0 2994.91 3000">
  <title>128icon 1</title>
  <g>
    <path d="M1503.71,1691.92l-.09,0c-136.39-26.28-250.67-62.18-349.37-109.75-106.43-51.29-196.45-116.75-275.2-200.1-162.93-172.46-280.91-426-371.3-798l-.15-.62h.64L2499.82,583l-.15.61c-45.1,193-98.19,352.54-162.31,487.63-61.86,130.32-132.92,235.56-217.24,321.74-79.16,80.9-169.58,144.4-276.45,194.13-95.64,44.5-206.81,78.78-339.86,104.8ZM508.87,584.4C679,1284,948.67,1583.93,1503.71,1690.9c476.18-93.12,808.7-310.79,994.84-1106.91Z"/>
    <path d="M2713.13,2427.64h-3c-295.27-.39-666.34-.52-1029.62-.52-721.27,0-1412.42.51-1422.8.52h-3.09l912.54-304.11L1165.78,1735l.68.26c19,7.24,36.92,14.25,54.23,21,91.58,35.81,163.91,64.1,280.82,81.82,132.1-29.4,227.56-50.65,329-102.82l.73-.37v387.27ZM1166.79,1736.46l1.38,387.79-.34.12-907,302.26c51.73,0,721.68-.51,1419.71-.51,362.15,0,731.79.13,1026.64.51L1830.21,2122.9V1736.55c-101.28,52-196.67,73.2-328.57,102.56l-.09,0-.09,0c-117.08-17.74-189.47-46-281.13-81.89C1203.23,1750.53,1185.54,1743.61,1166.79,1736.46Z"/>
  </g>
</svg>
