<svg xmlns="http://www.w3.org/2000/svg" viewBox="0 0 2994.91 3000">
  <title>120icon 1</title>
  <g>
    <path d="M1508.82,2894c-189,0-372.38-37-545-110A1404.35,1404.35,0,0,1,218.7,2038.83c-73-172.62-110-356-110-545s37-372.38,110-545A1404.18,1404.18,0,0,1,963.82,203.71c172.62-73,356-110,545-110s372.39,37,545,110a1404.21,1404.21,0,0,1,745.12,745.11c73,172.62,110,356,110,545s-37,372.39-110,545a1404.18,1404.18,0,0,1-745.12,745.11C1881.21,2857,1697.84,2894,1508.82,2894Zm0-2799.29c-771.49,0-1399.15,627.65-1399.15,1399.14S737.33,2893,1508.82,2893,2908,2265.32,2908,1493.82,2280.32,94.68,1508.82,94.68Z"/>
    <polygon points="1509.32 2893.47 1508.32 2893.47 1508.32 1527.67 509.12 2471.47 508.43 2470.75 1509.32 1525.35 1509.32 2893.47"/>
    <polygon points="2515.89 2463.9 1508.32 1526.73 1508.32 94.17 1509.32 94.17 1509.32 1526.29 2516.57 2463.17 2515.89 2463.9"/>
  </g>
</svg>
