<svg xmlns="http://www.w3.org/2000/svg" viewBox="0 0 2994.91 3000">
  <title>114icon 1</title>
  <g>
    <path d="M1497.37,597.28q-9.36,0-18.74-.08c-91.15-.78-179.16-7.19-261.58-19.07-85.87-12.37-161.45-30.1-224.63-52.7-41.34-14.79-84.84-31-122.42-51.86-42-23.35-71.57-49.85-90.43-81C747,338.74,772.77,281.71,854,227.63c48-31.91,105.88-56.4,182.32-77.08,70.15-19,149.15-32.59,218.85-44.61l197.1-14.22c136.53-1.82,260,6.36,367.14,24.31,117.57,19.71,216.27,51.4,293.34,94.2,28.43,15.8,64.2,37.54,88.55,65.73,29.57,34.23,35.9,70.79,18.81,108.64-16.59,36.77-50,67.75-102,94.72-46.34,24-101.28,41.51-145.42,55.59-65.94,21-143.5,37.12-230.53,47.85C1663.91,592.41,1581.64,597.28,1497.37,597.28Zm-45-504.56-197,14.21c-144.71,24.95-294.39,50.76-400.73,121.53C798.29,265.93,739.72,324.72,780.43,392c40.33,66.68,120,99.44,212.32,132.46,133.89,47.89,319.22,72.08,504.7,72.08,171.75,0,343.62-20.74,475-62.61,44.1-14.07,99-31.57,145.26-55.53,51.85-26.86,85.08-57.69,101.58-94.24,16.91-37.47,10.63-73.66-18.66-107.57-24.24-28.08-59.91-49.76-88.28-65.51-148.41-82.42-370.45-122.25-660-118.39Z"/>
    <path d="M1494.07,2881h-3c-96.11-.14-188.64-6.76-275-19.66-90.62-13.54-170.18-33.43-236.47-59.12-79.91-30.95-170.49-66-221.84-138.2-16.66-23.4-26.43-71.55-29.87-147.18-3-65.12-.79-139.08,1.12-204.34,1-32.51,1.85-63.23,1.94-88.27-23.73-5.44-35.43-27.11-34.73-45.8.59-15.72,10-33.76,34.73-37.49l-.31-591.42c-17.9.55-32.16-6.52-40.13-19.91a43.29,43.29,0,0,1-.1-43.62c7.92-13.38,22.2-20.45,40.23-20l-1.71-586.54c-1,.07-2,.11-2.95.11-22.64,0-38.81-19.08-41.1-37.91-2.23-18.25,8.19-39.78,44-45.63l1.72-183.87.78.57c12.28,8.91,81.24,55.77,233.73,104.06,293,92.79,757.41,97.62,1035.28,10.76,139.72-43.68,205.89-84.42,236.8-110.91,33.47-28.68,33.92-47.25,33.92-47.44h1l.3,226.76c29.7,3,40.17,21.78,40,38.46-.16,20-15.5,42.73-40,44.91l.43,591c16.92,1.81,30.11,16.35,32.14,35.54,1.77,16.72-5.76,37.53-32.14,45.95l-.73,593.55c17-.43,30.68,6.48,38.35,19.44a44.85,44.85,0,0,1-.06,44.48c-7.71,13-21.29,20-38.29,19.57,0,27.54,1,59.34,2,93,3.79,129.9,8.5,291.57-34.49,349.3-51.35,69-143.1,105.2-232.67,136.41C1873,2854.27,1686.21,2881,1494.07,2881ZM731.63,1548.47v.52l.31,592.81-.43.06c-24.41,3.49-33.72,21.19-34.3,36.6-.69,18.38,10.88,39.7,34.33,44.88l.4.08v.41c-.08,25.12-1,56-1.94,88.69-3.69,126-8.75,298.49,28.56,350.91,51.18,71.91,141.61,106.94,221.39,137.85,136.29,52.8,325.25,79.35,516,79.35,183.62,0,368.89-24.58,510.66-74,89.43-31.15,181-67.32,232.2-136.05,42.78-57.46,38.07-218.93,34.29-348.68-1-33.88-1.93-65.88-2-93.55v-.52l.52,0c16.86.55,30.32-6.22,37.91-19.06a43.82,43.82,0,0,0,.06-43.46c-7.55-12.76-21-19.5-38-18.94l-.52,0v-.52l.73-594.79.35-.11c26.09-8.17,33.53-28.61,31.79-45-2-18.88-15-33.14-31.69-34.69l-.45,0v-.46l-.43-592.39.46,0c24.25-1.89,39.42-24.29,39.58-44,.12-16.32-10.21-34.75-39.59-37.5l-.45,0v-.46l-.29-222c-2.24,7.47-9.5,22.52-33.07,42.77-31,26.59-97.25,67.48-237.36,111.28-136.64,42.71-321.64,64.57-520.89,61.55-94.68-1.44-187.39-8.37-275.57-20.61-90-12.5-170.58-29.89-239.42-51.7-149.66-47.39-219-93.44-233.23-103.63L729.91,796.9l-.42.06c-35.49,5.64-45.81,26.73-43.63,44.59,2.35,19.32,19.67,38.92,43.51,36.88l.54,0v.54L731.63,1467l-.52,0c-17.89-.62-32.05,6.29-39.85,19.47a42.26,42.26,0,0,0,.1,42.6c7.85,13.18,21.95,20.07,39.75,19.4Z"/>
  </g>
</svg>
