<svg xmlns="http://www.w3.org/2000/svg" viewBox="0 0 2994.91 3000">
  <title>116icon 1</title>
  <path d="M1742.18,2795.31l.48-1.46q55.21-166.83,110.43-333.68c-82.44-59.44-167.69-120.9-253.4-183l-1.25-.91h316.1c3.26-11.13,76.06-231.77,113.64-345.32l.47-1.42,1.45,4.3c38,111.8,77.21,227.41,115.82,340.88H2462l-1.22.91c-84.52,62.45-170,124.52-252.61,184.55Q2263,2627,2317.83,2793.85l.48,1.45-1.25-.89-286.82-205.77-286.81,205.77Zm288.06-207.9.29.21L2316.4,2792.7l-109.27-332.57-.11-.34.29-.22c82.34-59.8,167.47-121.64,251.69-183.86H2145.21l-.12-.33c-38.65-113.59-77.94-229.32-115.93-341.23l-.5-1.47c-39.87,120.46-112.67,341.19-113.25,344.19l-.08.4H1601.52c85.4,61.86,170.32,123.09,252.45,182.3l.3.22-.11.35q-55,166.29-110.06,332.56L2030,2587.62ZM1278,2762.07l-1.25-.89-208.88-149.3-206.49,149.3-.34.25-1.32-1.32.1-.29L939.2,2518.4,754.77,2385.65v-2.34l230-1.59L1067,2132.51l.48,1.41q42.09,124.68,84.19,249.39l230.22,1.59-1.23.9-183.42,132.6q40.1,121.11,80.2,242.21Zm-417.14-2.23.28.28,206.44-149.27.29-.21.29.21L1276,2759.47q-39.93-120.55-79.84-241.1l-.11-.35.29-.22q91.26-66,182.48-131.92L1151,2384.3l-.11-.34q-41.92-124.15-83.83-248.3l-81.55,247.05-229.72,1.59v.84L940.38,2518l-.12.34Zm-3-846.7-.35-.25-285.29-205L287.23,1913l109.41-332.94c-8-5.73-24.63-17.63-45.45-32.51-51.4-36.71-137.43-98.16-205.7-147.61l-.21-.15v-2.34h.5l312.28-3.17,113.32-339.88,115.71,343H999.86v2.35l-.21.15L748.57,1581l110.56,330.79ZM572.18,1706.69l.29.21,285.24,204.93.28-.27-110.6-330.9.3-.22,251.17-181.17v-.84H686.37l-.12-.34L571.38,1057.53l-112.6,337.72h-.36l-312.14,3.18v.84c68.23,49.43,154.14,110.79,205.49,147.46,15.33,11,28,20,36.82,26.32,4.41,3.16,7.86,5.63,10.21,7.33,1.91,1.38,2.91,2.1,3.39,2.52l.09.06v0c.44.39.36.5.21.72s-.22.31-.74,0l0,0-.15-.12c-.65-.37-1.83-1.19-4.14-2.79l-108.3,329.54Zm1770.54,196.24.47-1.45q40.91-125.46,81.81-251l-2.07-1.49c-61.52-44.28-125.13-90.06-187.71-135.31l-1.25-.9h238.18c22.5-69,45.37-138.78,67.48-206.24l18.43-56.24v3.05q18.68,54.73,37.32,109.45,25.44,74.65,50.87,149.2h237.38l-1.23.9c-63.23,46.5-127.54,92.78-189.74,137.54l0,0c24.17,72.51,78.63,240.61,79.18,242.3l.45,1.38-1.2-.81c-1.45-1-145.14-97.39-212.63-145.42Zm-105.66-389.11c62.17,45,125.35,90.42,186.46,134.4l2.66,1.91-.11.35-81.45,249.86,213.79-153.6.29.2c64.08,45.63,197.61,135.36,211.69,144.82-5.28-16.32-55.89-172.44-78.84-241.28l-.12-.35.65-.46c61.79-44.47,125.67-90.44,188.5-136.63h-235l-.12-.34q-25.49-74.68-51-149.54-18.42-54-36.86-108.11l-17,51.84c-22.15,67.58-45,137.46-67.59,206.58l-.11.35Zm-16.33-386.75-.35-.25L1924,913.09l-299.21,213,.48-1.46L1739.7,781.44,1476.29,591h328.06c39.11-120.51,78.87-240.33,117.32-356.21l.75-2.25.48,1.41c39.28,116.55,79.91,237.07,120,356.27h327.27L2106.74,780.65q57.6,172.38,115.2,344.81l.1.29ZM1924,911.86l.29.21,296.31,213.69.28-.28Q2163.29,953,2105.67,780.62l-.11-.35,261.5-189.07h-324.9l-.11-.34c-40-118.84-80.45-239-119.62-355.19-38.43,115.8-78.17,235.55-117.24,356l-.11.34h-325.7l261.51,189.08-.12.35-114,342.12Zm-841.91,45.53L918.24,840.6,753.58,957.38,815.92,767,673,663.69v-2.35H851.91l63.94-195.12L983,661.34h179v2.35l-.21.15-142,102.38q30.93,94.86,61.87,189.72ZM674,663.18,817.1,766.63,817,767,755.47,954.81,918.24,839.38l.29.2,161.69,115.23q-30.77-94.32-61.52-188.63l-.11-.34.29-.22,142.06-102.44v-.84H982.26l-.12-.33L915.87,469.36l-63.23,193H674Z"/>
</svg>
