<svg id="end" xmlns="http://www.w3.org/2000/svg" width="3000" height="3000" viewBox="0 0 3000 3000">
  <defs>
    <style>
      .cls-1 {
        fill-rule: evenodd;
      }
    </style>
  </defs>
  <path id="_205" data-name="205" class="cls-1" d="M2174.82,12q6.045,1.009,12.11,2.019c12.62,62.47-16.65,126.922-11.1,181.709h3.02c16.26-20.224,89.39-104.078,117.12-96.911,26.77,89.865,7.07,226.695,7.06,330.1q1.02,46.938,2.02,93.883c8.28,27.783,42.15,39.5,57.55,61.58q49.47,88.825,98.94,177.671c52.22,93.269,95.09,192.346,134.28,297.8q35.835,109.005,71.68,218.05c27.45,63.32,82.91,104.59,112.06,169.59,52.36,116.76,25.28,294.55-66.63,349.29-114.97,68.46-282.6,54.06-343.26-51.49q-21.21-54-42.41-108.01c-20.2-14.32-90.28-21.49-115.09-32.31-88.98-38.78-167.68-96.91-238.26-155.46-33.65-27.91-99.5-143.65-132.26-151.42-60.48-14.36-120.1,69.24-143.36,101.96-47.87,67.31-69.66,147.12-69.66,264.48-0.02,286.15,115.59,436.95,218.07,619.83,24.8,44.27,52.36,84.98,68.65,138.3,51.19,167.53,7.04,384.8,0,566.33C1158.66,2947.5,526.5,2584.53,387.841,1928.02c-51.2-242.43-19.193-434.58,57.547-616.8-0.336-.34-0.673-0.67-1.01-1.01-89.38-30.54-176.839,77.75-249.368,89.85-0.337-.34-0.674-0.68-1.01-1.01-0.775-212.7,367.6-525.713,507.824-626.9,34.255-24.72,233.433-138.53,238.263-165.558l-2.019-2.019c-75.977-40.77-169.431,28.488-238.263,18.171l-1.01-2.019c12.7-37.567,61.645-64.248,90.863-86.816C975.864,390.086,1177.65,300.624,1479.21,267.4c90.46-9.966,191.04-2.54,273.6,8.076l100.96,9.086,74.71-66.627C2006.53,151.185,2080.95,59.82,2174.82,12Z"/>
</svg>
