<svg id="V1" xmlns="http://www.w3.org/2000/svg" width="3000" height="3000" viewBox="0 0 3000 3000">
  <defs>
    <style>
      .cls-1 {
        fill-rule: evenodd;
      }
    </style>
  </defs>
  <g id="late">
    <path id="_21" data-name="21" class="cls-1" d="M2461.78,11q0.525,989.322,1.03,1978.84-1.02,499.515-2.05,999.14c-0.68-.68-1.36-1.37-2.04-2.05q-493.59-492.36-987.26-984.82-3.06.51-6.14,1.03Q970.215,2496.52,475,2990V15.091ZM1467.37,430.289c-16.62,25.381-23.02,64.4-32.74,95.107q-32.22,96.632-64.45,193.283c-6.37,18.056-23.65,93.745-34.79,101.243l-262.92,1.022c-21.73,0-80.706-4.9-90.032,6.136,8.931,18.492,51.952,41.343,69.572,54.2q106.89,79.248,213.82,158.509-44.5,137.025-89.01,274.08c-5.46,17.33-35.41,90.78-32.74,103.28,1.35,3.92,0,2.13,3.07,4.09,9.32,2.68,69.74-47.12,80.82-55.22l242.47-176.92q159.075,116.58,318.17,233.17c2.39-.34,4.78-0.69,7.16-1.03,0.34-1.02.68-2.04,1.03-3.06,4.29-12.3-25.19-84.51-30.7-100.22q-45.51-139.08-91.05-278.17,141.675-104.808,283.39-209.642l-1.02-7.158c-1.03-.341-2.05-0.682-3.07-1.023l-350.91-2.045-91.06-275.1c-10.22-29.453-22.53-93.338-38.87-114.538h-6.14Z"/>
  </g>
</svg>
