<svg xmlns="http://www.w3.org/2000/svg" viewBox="0 0 2994.91 3000">
  <defs>
    <style>
      .a {
        fill-rule: evenodd;
      }
    </style>
  </defs>
  <title>4icon 1</title>
  <g>
    <path class="a" d="M2180.89,1796.09l-17.54-8.45-6-11.57-65.61-127-439.17,56.31-16.48,2.11-8.08-9.15L1424.76,1467.9l228.39,179.87,434.3-120.63.82,4,100.86-196L2138,1576.32l105,114.48,10.74,5.16,660.89-644.19-213.71-31.06c-2,3-4,5.94-6,8.89-27.71,41.3-56.25,82.1-84.84,122.89-7,10.3-14.53,20.26-22.21,30.14l-22.83,29.79c-15.28,19.82-30.27,39.81-45.8,59.49l-46.69,59c-15.94,19.45-31.57,39.08-47.88,58.31,8.59-23.71,17.88-47,26.86-70.51l28-69.84c9.37-23.27,19.3-46.21,28.94-69.34l4.75-11.29L2433,1121.59,2283.35,1164l144.13-83.3,3.73-2.15,11.13,1.69,103.1,15.67q22-45.81,44.48-91.32l-652.78-94.86L1500,24,1251.41,527.7l124.73,72.47,118.76-17.84,122-71-107.55,98.89-2,1.88-4.53,1-115.09,24.35-50,305.39,116,156.82L1300.55,961.94l-6.76-6.08,1.62-11.05,45-308-120.19-46L1062.86,909.73,599.17,977.11l50.43,151.14,336.53,86.3-294.43,9.93,13.11,17.59,12.79,17.17-15.23,7.43-55.2,26.92,13.8,37-43.47-36.1-14.31-11.88L623,1273l37.48-18.23-69.08-26.89-22.38.75-13.67-37.39L483.23,994,372.59,1010l12.78,80,52.79,99.68,26.22,49.52-45.63,21.15-80.85,37.48,454.8,443.32-61.77,360.17,168.62-32.17,248.59-368.63L978.43,2142.37l-8.16,21.24L941.89,2170l-231.73,52.44-84.43,492.24,547.8-288,24-57c18.38-43.51,37.56-86.73,56.74-130l-2.24,9.84,19-82.56c6.42-27.51,12.46-55.06,19.29-82.53l20-82.44c7.06-27.44,13.76-54.92,21.17-82.33,1.36,28.36,2,56.63,3,85l1.92,84.82c.8,28.29.8,56.5,1.18,84.74l.91,84.72v1.44l-2.25,8.39q-11.34,42.24-23,84.38L1500,2255.09l282.61,148.58-51.35-200.21-9.3-36.3L1746,2153l219-128.44-131.73,174.06L1918,2474.82l456.31,239.9-154.34-899.85Z"/>
    <polygon class="a" points="322.47 1200.38 287.66 1131.35 284.34 1124.76 282.64 1116.7 263.54 1025.88 85.4 1051.77 276.29 1237.84 322.47 1200.38"/>
  </g>
</svg>
