<svg xmlns="http://www.w3.org/2000/svg" viewBox="0 0 2994.91 3000">
  <defs>
    <style>
      .a {
        fill-rule: evenodd;
      }
    </style>
  </defs>
  <title>7icon 1</title>
  <g>
    <polygon class="a" points="2914.6 1051.77 1937.14 909.73 1500.01 24 1062.86 909.73 85.41 1051.77 792.7 1741.21 625.73 2714.72 1500.01 2255.09 2374.27 2714.72 2207.3 1741.21 2914.6 1051.77"/>
    <path class="a" d="M2925.65,1369.59l-98.38,95.89q1.32,29.7,1.35,59.74c0,321.33-113.48,616.15-302.54,846.6l20.53,119.66c239.51-256.09,386.14-600.14,386.14-978.44Q2932.75,1440.41,2925.65,1369.59Z"/>
    <path class="a" d="M1492.9,2860.94a1332.75,1332.75,0,0,1-465.05-83.22l-96.53,50.75c174.33,75.47,366.62,117.32,568.68,117.32,196.59,0,383.92-39.61,554.48-111.25l-103.29-54.31A1333.12,1333.12,0,0,1,1492.9,2860.94Z"/>
    <path class="a" d="M158.08,1476.29l-85.82-83.64q-5,59.53-5,120.39c0,366.75,137.82,701.3,364.46,954.73l18.48-107.69c-183.33-228.68-293-519-293-834.86Q157.17,1500.63,158.08,1476.29Z"/>
    <path class="a" d="M1145.56,235.12l61.62-124.87C790.43,196.8,440,464.37,241.86,827.05l123.31-17.92C542.14,531,819.16,322.78,1145.56,235.12Z"/>
    <path class="a" d="M2621.79,811l138.58,20.14c-202.24-373-565.25-646.12-996.06-726.47l62.67,127C2159.86,317.33,2442.49,528.17,2621.79,811Z"/>
    <polygon class="a" points="2483.09 1597.69 2290.81 1785.12 2346.89 2112.07 2544.8 2082.66 2513.88 1902.39 2652.88 1766.9 2483.09 1597.69"/>
    <polygon class="a" points="1669.21 2727.97 1776.77 2505.18 1500.01 2359.67 1223.24 2505.18 1330.79 2727.97 1500.01 2639.02 1669.21 2727.97"/>
    <polygon class="a" points="653.12 2112.07 709.19 1785.12 516.91 1597.69 347.13 1766.9 486.12 1902.39 455.2 2082.66 653.12 2112.07"/>
    <polygon class="a" points="694.34 736.52 721.36 897.59 1011.25 855.46 1136.35 601.98 970.85 513.03 873.38 710.5 694.34 736.52"/>
    <polygon class="a" points="1863.65 601.98 1988.74 855.46 2278.64 897.58 2305.66 736.52 2126.61 710.5 2029.15 513.02 1863.65 601.98"/>
  </g>
</svg>
