<svg xmlns="http://www.w3.org/2000/svg" viewBox="0 0 2994.91 3000">
  <defs>
    <style>
      .a {
        fill-rule: evenodd;
      }
    </style>
  </defs>
  <title>3icon 1</title>
  <g>
    <polygon class="a" points="833.44 1636.63 778.32 1530.52 770.94 1516.31 775.66 1512.71 721.71 1347.93 796.41 1496.88 937.27 1389.38 937.25 1386.3 936.41 1261.11 734.07 1245.8 747.07 1259.64 710.95 1284.19 677.25 1307.1 680.37 1315.63 685.78 1330.4 685.34 1333.22 661.77 1481.76 660.04 1492.64 652.02 1495.35 569.16 1523.31 767.52 1716.65 833.44 1636.63"/>
    <polygon class="a" points="1623.86 482.64 1626.49 483.78 1754.29 539.23 1657.17 342.44 1617.3 409.4 1623.86 482.64"/>
    <path class="a" d="M2712.3,1022.37,2618,1141.22c-2.64,3.75-5.25,7.52-7.87,11.27-.32.47-.68.93-1,1.4l5.57,3.14-159,240,8.18,94.08,450.72-439.34Z"/>
    <polygon class="a" points="992.65 1164.72 1044.18 1174.34 1036.21 1218.84 1010.51 1362.18 1356.93 1429.88 1360.28 1302.91 1143.51 1219.04 1134.47 1215.55 1134.82 1207.82 1138.95 1115.71 1159.22 1196.17 1365.75 1268.7 1408.82 1111.16 1280.52 977.33 1264.07 960.17 1268.91 938.72 1333.93 651.2 1219.58 592.22 1062.87 909.73 619.36 974.18 662.32 1103.07 992.65 1164.72"/>
    <polygon class="a" points="1360.26 1482.69 1355.51 1483.78 1355.56 1481.98 965.37 1422.77 960.59 1422.04 817.53 1525.17 891.32 1625.2 904.83 1643.51 888.02 1659.56 790.8 1752.35 735.56 2074.36 887.62 2053.92 1117.23 1684.16 1128.34 1666.28 1143.9 1665.83 1320.49 1660.76 1394.35 1487.87 1360.26 1482.69"/>
    <path class="a" d="M2393.13,1385.24l5.19-10.93,101.33-213.49-71.53-32.33-131.65,51.56c-7.53,11.5-14.52,23.29-21.43,35.13-7.9,14.24-15.79,28.48-23.18,43q-21.37,41.85-40.1,85.17l-16.08,65.75c-4.85,22.11-10.2,44-14.57,66.32-4.69,22.15-8.86,44.51-12.91,66.9q-2.47,14.73-4.84,29.5l60.42,91.41,39.39,23.49,158.27-154.27-26.74-139.1Z"/>
    <path class="a" d="M986.49,2147.22l-12.94,28.93-36.29,5.8L773.4,2208.17l-63.23,14.31-84.43,492.23,517.57-272.09,1.63-3.86,12.29-29.7,25.55-59.68c16.54-38.79,34-77.35,51.36-115.86l28.49-153.39,15.34-82.42,16-82.34-.26,4.37c3.19-40.27,6-80.53,9.5-120.8,2.83-32.79,5.57-65.58,8.54-98.38l-138.94,30.3Z"/>
    <path class="a" d="M1713.06,2149.93l29.89-19.57,194.77-127.48,46.41-135.83,1.1-3.22,1.48-1.27,126.64-108.71-.79-1.48-41.37-77.77-8.51,3.24-5.19.64-401.15,49.29-28.15,3.46-14.75-16.45-185.07-206.55-78.87,171.63c3.78,39.7,7,79.39,10.39,119.08,3.54,40.27,6.3,80.53,9.5,120.8l-.26,4.37-3.28,83.82-4,83.74-8,167.48-.17,3.87-3.42,10.85q-11.37,36.14-23,72.08L1500,2255.09l274.45,144.29-51.06-207.47Z"/>
    <polygon class="a" points="2137.24 1777.08 2124.64 1769.56 1998.87 1871.95 1997.96 2030.15 1997.91 2038.43 1986.26 2050.35 1847.51 2192.28 1935.59 2484.09 2374.27 2714.71 2222.14 1827.71 2137.24 1777.08"/>
    <polygon class="a" points="1494.69 569.65 1599.54 487.92 1599.9 487.64 1575.99 408.4 1573.58 400.43 1579.09 393.03 1641 309.69 1500.01 24 1256.09 518.24 1372 582.47 1494.69 569.65"/>
    <polygon class="a" points="635.83 1341.56 597.84 1315.11 552.33 1283.43 609.55 1255.31 622.76 1248.81 603.5 1235.91 598.9 1235.56 555.61 1232.28 540.71 1187.58 476.5 994.93 372.6 1010.03 385.37 1090.06 438.16 1189.74 464.39 1239.25 418.75 1260.4 337.91 1297.89 558.11 1512.54 628.45 1470.13 635.83 1341.56"/>
    <path class="a" d="M1520.33,615.28l-3.75,2.63-6.65,2-125.4,37-1.31,8.06-18.73,264.81,119.41,142.89,16.92,20.25-8.94,20.26-79.68,180.61L1478.5,1422l324.56-144.1,105.71-252-69.67,274.59-2.16,8.49-9.29,4.09-360,158,192.75,153,349-75.2,18.28-5.08,34.21-16.68c3.71-6.34,7.44-12.67,11.13-19,11.17-19.83,22.23-39.69,32.75-59.75,10.86-19.94,20.74-40.23,31.1-60.35l29.59-60.89,1.56-3.45q27.63-40.56,52.56-82.6c8.33-14,16.14-28.29,23.94-42.59,7.49-14.46,15-28.88,21.5-43.93l2.13-5,7.17-3.56,142.55-70.66,7-3.49,12,2.52,89,18.66,13.44,2,43.28-91.46-645.59-93.81L1776.09,583.4,1622.74,543Z"/>
    <polygon class="a" points="284.34 1124.76 282.65 1116.7 263.54 1025.88 85.41 1051.77 276.3 1237.84 322.47 1200.38 287.67 1131.35 284.34 1124.76"/>
  </g>
</svg>
