<svg xmlns="http://www.w3.org/2000/svg" viewBox="0 0 2994.91 3000">
  <title>icon 190</title>
  <path d="M611.09,904.86C694.35,1048.28,712.66,1207.5,721.68,1373c314.8-368.91,595.87-833.28,566.83-1336.67,439.38,185.25,672.33,638.78,798.73,1074.86,144.33-131.56,122.14-352.74,67.47-522.42C2948.5,1339.3,3016,2413.07,1969.19,2959.13c277.55-589.79,80.19-1329.44-442.73-1716.9,22,300.09-46.58,567.54-227.68,803.55,14-146.47,1-286.49-86.52-419.57-125.11,566.66-567.67,685.67-273,1337.44-634-338.89-893.64-835.25-534.19-1503.86C496.34,1283.48,581,1103.37,611.09,904.86Z"/>
</svg>
