<svg id="V3" xmlns="http://www.w3.org/2000/svg" width="3000" height="3000" viewBox="0 0 3000 3000">
  <defs>
    <style>
      .cls-1 {
        fill-rule: evenodd;
      }
    </style>
  </defs>
  <g id="group" data-name="group">
    <path id="_127" data-name="127" class="cls-1" d="M1120,2764V231l532-1c193.78,1.8,179.12,6,229,8,136.33,16.626,319.56,80.447,415,135,503.96,288.058,898.59,882.23,572,1624-143.16,325.15-416.11,559.5-755,689q-160.485,39.99-321,80Q1456.03,2765,1120,2764ZM396,237V2779H16V238l1-1H396ZM1509,391q-22.5,51.5-45,103V1740c0,151.19,8.47,318.42-8,457-12.25,103.02-8.33,352.47,46,394,24.09,18.42,84.01,20.92,126,16,477.69-55.94,848.82-247.26,1014-613,94.72-209.73,140.18-495.43,62-761C2559.69,742.826,2145.18,389.04,1509,391Z"/>
  </g>
</svg>
