<svg id="end" xmlns="http://www.w3.org/2000/svg" width="3000" height="3000" viewBox="0 0 3000 3000">
  <defs>
    <style>
      .cls-1 {
        fill-rule: evenodd;
      }
    </style>
  </defs>
  <path id="_183" data-name="183" class="cls-1" d="M2080.24,24.067c409.71-17.075,526.29,189.159,623.71,285.221,111.22,109.665,374.71,300.436,235.4,699.242-224.77,295.96-514.02,743.53-980.64,689.46-88.15-13.59-144.1-71.24-250.05-151.58,0.31-1.6-95.53,84.66-156.88,158.55,209.88,239.71,147.87,396.41,136.49,473.25,22.37,150.14-609.65,847.51-843.744,797.08-297.1,19.76-316.812-95.9-548.368-309.8C146.338,2545.5,13.556,2383.4,21.484,2165.4,6.7,1962.35,284.438,1711.48,412.472,1591.96s201.462-261.93,494.519-290.39c202.009-31.31,412.549,157.19,394.839,154.7,0,0,159.67-158.96,160.75-163.87,0,0-181.31-166.78-155.83-449.292C1252.74,675.56,1812.7,97.9,2080.24,24.067Zm91.82,343.39c-107.01,39.663-426.93,341.219-530.39,525.8-2.93,68.831,40.96,157.931,58.11,160.071,129.14-141.352,231.32-178.359,323.56-84.631s79.43,210.791-69.86,329.091c25.73,47.17,125.39,77.64,191.85,56.19,98.66-77.09,493.17-408.78,493.65-561.087,7.8-79.592-152.28-218.484-189.95-253.874C2411.27,503.539,2283.39,350.22,2172.06,367.457ZM829.03,1673.03c-71.874,53.92-479.019,428.77-460.634,528.69,29.9,128.61,337.27,426.65,447.881,431.14,175.526-45.03,406.633-345.61,510.8-442.32,56.59-102.74,40.57-186.47-26.46-242.06-57.22,35.97-136.03,226.37-330.3,73.22-110.256-156.41,1.923-228.71,85.345-322.93C1018.91,1686.76,941.741,1612.58,829.03,1673.03Z"/>
</svg>
