<svg id="V1" xmlns="http://www.w3.org/2000/svg" width="3000" height="3000" viewBox="0 0 3000 3000">
  <defs>
    <style>
      .cls-1 {
        fill-rule: evenodd;
      }
    </style>
  </defs>
  <path id="_57" data-name="57" class="cls-1" d="M1576.49,124.566c110.41-2.261,230.39,34.21,300.97,75.512,33.11,19.376,67.57,33.44,98.9,54.24,118.96,78.968,211.84,189.813,272.25,327.571,18.92,43.136,36.36,88.889,47.86,140.387q3.72,39.348,7.45,78.7c4.66,28.412,7.72,81.037-1.07,107.418l-183.98-1.064c-23.21,0-63.35,6.206-81.89-2.127,0.68-41.086,5.51-90.466-2.13-128.688-35.21-176.287-173.08-300.737-326.49-360.541-28.9-11.267-61.98-15.168-95.71-21.27l-36.16-3.191q0.525,499.815,1.06,999.725c66.49,8.83,147.04,44.09,204.19,67.01,212.09,85.02,387.85,208.82,475.38,419.03,23.43,56.26,32.49,117.58,44.67,186.12q2.13,40.95,4.25,81.89c5.07,31.15,3.24,75.06-2.12,104.23-10.93,59.45-25.31,110.19-44.67,158.47-100.82,251.38-345.09,469.25-682.76,482.85q-0.54,51.57-1.06,103.16-70.725-.525-141.45-1.06v-102.1c-136.7.29-254.72-42.64-342.44-94.66-26.36-15.63-52.88-27.96-77.64-44.67-128.815-86.96-221.647-214.25-282.883-369.05-27.391-69.24-43.277-166.36-34.032-265.88H963.92c-0.628,44.44-4.313,94.5,5.318,132.94,46.432,185.34,235.652,372.64,464.742,373.3q-0.525-498.21-1.06-996.53-35.625-10.11-71.26-20.21c-59.49-18.48-114.02-36.45-166.96-59.56-211.712-92.42-391.022-219.17-463.683-450.94-30.432-97.069-55.534-258.762-25.524-377.558,15.834-62.681,35.309-124.8,64.873-175.484,20.527-35.195,39.548-71.523,62.745-104.227C924.763,309.1,1068.25,206.255,1236.17,154.345c42.73-13.208,89.31-18.021,137.19-26.588l60.62-4.254q0.54-55.831,1.07-111.672H1538.2c9.93,0,31.44-2.954,37.23,2.127Q1575.955,69.257,1576.49,124.566ZM1433.98,391.515c-78.34-.139-149.2,23.485-199.93,53.177-24.94,14.595-50.49,25.243-73.38,41.478-81.95,58.113-140.07,139.723-179.734,240.36-34.1,86.52-20.466,237.5,12.762,314.81,19.722,45.89,52.332,101.18,89.332,130.81,95.46,76.46,216.39,142.69,350.95,177.62V391.515ZM1576.49,2622.82c69.58,0.95,130.17-22.81,177.6-45.73,154.08-74.46,330.21-251.4,279.7-506.24-6.65-33.55-13.2-66.97-25.52-95.72-74.89-174.69-250.31-238.72-431.78-307.37v955.06Z"/>
</svg>
