<svg id="V1" xmlns="http://www.w3.org/2000/svg" width="3000" height="3000" viewBox="0 0 3000 3000">
  <defs>
    <style>
      .cls-1 {
        fill-rule: evenodd;
      }
    </style>
  </defs>
  <path id="_58" data-name="58" class="cls-1" d="M1505.67,58l15.23,1.016c12.61,7.578,19.3,38.712,25.4,52.82q30.465,69.064,60.95,138.144c-259.93-588.337,797.22,1801.97,1015.8,2296.65,38.27,87.43,78.01,181.05,147.3,236.67,35.25,28.3,78.05,43.23,131.04,54.85,23.84,5.23,63.55,1.42,83.29,13.21,0.28,24.28,6.15,64.35-2.03,84.31-0.68,1.01-1.35,2.03-2.03,3.04l-789.28,1.02-210.28,1.02c-20.55,2.79-67.19,4.41-80.24-4.07-0.31-20.31-3.26-67.83,4.06-81.26,110.14-3.09,222.75-9.42,266.14-80.24,38.37-62.64,3.66-163.91-20.32-220.43q-108.675-265.59-217.38-531.24H810.854L605.66,2530.38q-6.6,31.485-13.2,62.97c-19.237,82.82-11.745,138.88,30.474,190.97,32.583,40.2,100.582,53.7,161.514,65.01q40.628,1.515,81.264,3.04c0.339,1.02.678,2.04,1.016,3.05,4.658,11.52,2.67,72.59,0,82.28-0.677.34-1.354,0.68-2.032,1.01q-318.423-1.005-636.911-2.03H76.424c-18.269,0-46.945,3.55-59.933-3.04-0.312-21.84-8.33-64.17,1.016-80.25,169.722,1.27,235.091-114.29,297.631-221.44C361.4,2604.09,1089.99,861.425,1367.52,214.428q23.355-54.337,46.72-108.687c5.46-12.71,10.11-38.818,21.34-45.709ZM1361.42,665.428Q1125.785,1241.311,890.087,1817.31h944.7v-1.02Q1598.12,1240.92,1361.42,665.428Z"/>
</svg>
