<svg id="V1" xmlns="http://www.w3.org/2000/svg" width="3000" height="3000" viewBox="0 0 3000 3000">
  <defs>
    <style>
      .cls-1 {
        fill-rule: evenodd;
      }
    </style>
  </defs>
  <path id="_43" data-name="43" class="cls-1" d="M2664.11,2664.07c0.52,74.36,16.22,282.8-24.7,309.43-39.95,25.99-456.12,9.1-543.54,9.1H630.409c-89.967,0-556.2,14.79-590.346-11.7-35.183-27.3-22.108-125.23-22.105-185.92V2259.74q-0.65-700.68-1.3-1401.511c0-83.865-14.117-467.448,13-501.84,29.572-37.5,231.386-21.3,305.576-20.8C334.7,260.513,319.217,57.241,358.642,27.464c32.606-24.627,420.563-10.4,503.225-10.4l1396.543,1.3,526.63,1.3c58.69,0,158.2-13.4,184.65,20.8,28.75,37.181,13,502.521,13,596.747V2496.36c0.01,42.2,8.85,110.19-7.8,139.11C2948.12,2681.98,2743.15,2664.6,2664.11,2664.07ZM452.265,132.772V335.588l1647.505,2.6c92.32,0,519.7-17.864,550.04,19.5,29.53,36.369,14.31,480.332,14.3,573.345V2547.06h201.55V136.672ZM134.986,2865.59H2547.08V455.2L133.686,451.3Q134.336,1658.322,134.986,2865.59ZM2071.17,988.239l188.54,2.6Q1675.28,1739.626,1090.72,2488.56c-1.3-.44-2.6-0.87-3.9-1.3q-332.2-429.645-664.462-859.37,100.764-.645,201.55-1.3,232.734,306.795,465.512,613.65h3.9Q1582.2,1614.305,2071.17,988.239Z"/>
</svg>
