<svg id="V1" xmlns="http://www.w3.org/2000/svg" width="3000" height="3000" viewBox="0 0 3000 3000">
  <defs>
    <style>
      .cls-1 {
        fill-rule: evenodd;
      }
    </style>
  </defs>
  <path id="_41" data-name="41" class="cls-1" d="M1045,637l73,87q-475.452,386.961-951,774v4q478.452,392.955,957,786v1l-77,77Q532.052,1935.545,17,1505,530.948,1071.05,1045,637Zm920,8q508.95,424.458,1018,849v2q-515.445,436.455-1031,873-36.495-42-73-84c0.67-1,1.33-2,2-3q477.45-388.965,955-778-474.96-388.965-950-778Zm15,329,145,2q-449.46,575.94-899,1152c-1-.33-2-0.67-3-1q-255.48-330.465-511-661,77.491-.495,155-1,178.982,235.98,358,472h3Q1603.96,1455.545,1980,974Z"/>
</svg>
