<svg id="end" xmlns="http://www.w3.org/2000/svg" width="3000" height="3000" viewBox="0 0 3000 3000">
  <defs>
    <style>
      .cls-1 {
        fill-rule: evenodd;
      }
    </style>
  </defs>
  <path id="_178" data-name="178" class="cls-1" d="M1423.39,16.218c228.54-2.17,407.37-4.964,521.62,71.746,72.1,48.408,105.27,130.122,112.21,257.128h496.55q45.75,52.548,91.52,105.1l116.93,1.695,6.78,8.476q-0.84,123.739-1.69,247.5-4.245,3.39-8.48,6.781l-2520.051-1.7L232,704.483q0.847-123.741,1.695-247.5l8.473-6.781H357.409l84.737-105.1H943.784C953.222,102.729,1063.4,46,1270.86,23Zm-9.12,32.434c-55.81-2.5-95.96,4.3-143.41,6.557-217.18,22.37-283.672,78.2-294.877,289.884H1114.95c1.56-42.588,7.93-100.91,33.9-120.361,70.45-43.619,434.71-45.991,612.55-24,43.5,7.114,76.06,16.275,90.75,27.388,26.13,19.75,31.75,74.279,33.9,116.971h138.97V343.4c-0.07-75.9-17.28-190.217-105.26-237.609C1813.16,26.325,1470.09,51.152,1414.27,48.652Zm0.65,169.3c-114.3,8.553-229.66,8.866-250.69,35.641-9.74,12.4-12.47,37.793-17.08,89.806v1.695h706.7c-5.08-28.816-1.84-51.807-15.25-86.457C1774.16,220.928,1662.34,213.784,1414.92,217.951ZM457.4,379L401.472,448.5,2597.83,450.2v-3.391q-28.8-33.9-57.62-67.809H457.4Zm-191.5,105.1V680.749H2735.11V484.1H265.894ZM482.819,819.758l2035.361,1.7,6.78,8.476V2230.19c-7.41,275.32,24.91,446.62-62.89,592.53-42.44,56.56-84.32,109.83-213.35,148.29-130.08,18.69-308.92,11.87-452.49,11.86-342.18-.03-679.29-1.75-1022.207-1.54-103.2-23.47-195.837-87.16-246.668-167.1-30.157-39.17-42.4-88.87-56.337-163.92,0,0-.06-582.52-0.062-882.92V1067.26C470.954,1013.28,458.751,845.427,482.819,819.758Zm22.031,33.9v1424c13.664,253.04-53.5,450.39,111.852,589.94,41.578,33.78,102.354,69.15,162.693,81.37h869.4c149.13,0,348.9,4.75,498.25,1.73,105.46-7.83,150.29-28.89,203.36-61.06,193.82-128.71,125.39-343.11,140.67-598.42V853.663H504.85Zm888.04,264.457,230.48,3.39c14.21,35.38,7.46,308.45,6.78,374.65q-0.855,526.3-1.7,1052.74-4.23,3.39-8.47,6.78l-230.48-3.39q-2.55-549.21-5.09-1098.51C1384.41,1384.5,1376.38,1165.29,1392.89,1118.12Zm455.88,0,230.48,3.39c12.85,36.06,6.78,310.5,6.78,374.65q-0.855,526.3-1.7,1052.74-4.23,3.39-8.47,6.78l-230.48-3.39q-2.55-549.21-5.09-1098.51C1840.29,1384.5,1832.94,1161.21,1848.77,1118.12Zm-927.018,3.39,230.478,3.39c19.66,31.98,6.78,310.5,6.78,374.65q-0.84,526.305-1.69,1052.74-4.245,3.39-8.47,6.78l-230.487-3.39q-2.543-549.21-5.085-1098.51C913.277,1387.89,895.043,1162.56,921.752,1121.51Zm496.558,30.51V2521.77h177.94V1152.02H1418.31Zm455.88,0V2521.77h177.94V1152.02H1874.19Zm-927.017,3.39V2525.16H1125.12V1155.41H947.173Z"/>
</svg>
