<svg id="end" xmlns="http://www.w3.org/2000/svg" width="3000" height="3000" viewBox="0 0 3000 3000">
  <defs>
    <style>
      .cls-1 {
        fill-rule: evenodd;
      }
    </style>
  </defs>
  <path id="_177" data-name="177" class="cls-1" d="M1423.39,16.218c358.74-4.669,620.6-12.834,633.83,328.875h496.55q45.75,52.548,91.52,105.1l116.93,1.695,6.78,8.476q-0.84,123.739-1.69,247.5-4.245,3.39-8.48,6.781l-2520.051-1.7L232,704.483q0.847-123.741,1.695-247.5l8.473-6.781H357.409l84.737-105.1L943.784,343.4c15-230.1,98.956-294.42,327.066-320.4Q1347.125,19.612,1423.39,16.218Zm-8.47,201.733c-118.1,7.461-227.29,12.417-253.09,35.861-10.73,33.36-8.68,29.759-14.68,89.586,54.15,6.019,0,1.13,0,1.695h705s-1.01-70.141-13.55-86.457C1782.45,206.867,1484.71,216.747,1414.92,217.951Zm-932.1,601.807,2035.361,1.7,6.78,8.476V2196.29c0.01,183.76,26.23,428.6-28.81,567.9-41.72,105.59-130.64,176.05-247.43,206.82-91.29,24.05-228.63,11.87-338.94,11.86H769.227c-102.887-20.45-194.031-90.61-244.04-166.13-99.384-150.08-54.23-785.68-54.231-1049.35C470.955,1651.77,458.172,846.044,482.819,819.758ZM1418.31,1152.02V2521.77h177.94V1152.02H1418.31Zm455.88,0V2521.77h177.94V1152.02H1874.19Zm-927.017,3.39V2525.16H1125.12V1155.41H947.173Z"/>
</svg>
