<svg id="V1" xmlns="http://www.w3.org/2000/svg" width="3000" height="3000" viewBox="0 0 3000 3000">
  <defs>
    <style>
      .cls-1 {
        fill-rule: evenodd;
      }
    </style>
  </defs>
  <path id="_49" data-name="49" class="cls-1" d="M2473.7,1766.82q169.875,0.51,339.79,1.01c51.37,0,127.61-7.18,173.44,2.03q2.025,3.045,4.06,6.09,0.5,2.535,1.01,5.07-322.515,375.84-645.08,751.74-77.085,89.775-154.17,179.56c-10.58,13.3-41.73,58.86-58.83,60.87-30.65-23.75-55.98-61.93-80.13-92.32q-73.02-85.71-146.06-171.45-201.81-236.85-403.68-473.76-79.11-92.82-158.23-185.65c-13.43-16.9-54.64-51.49-57.81-73.05,2.59-3.17,3.06-5.11,7.1-7.1l506.12,1.02q0.51-780.57,1.02-1561.3c5.24-7.946,27.67-5.073,40.57-5.073l117.66,1.015,335.72,1.014h111.57c19.59,0,43.5-1.617,59.85,2.029,10.83,17.33,3.94,92.728,4.05,120.724q0.51,151.652,1.02,303.332Q2473.2,1199.664,2473.7,1766.82ZM1198.75,1230.15V2667.68c0,20.54-4.47,88.82,5.07,97.4-7.24,2.79-2.92,19.66-7.1,25.36-6.43,9.05-27.44,6.12-42.6,6.08q-58.3-.495-116.64-1.01-167.338-.51-334.712-1.01H592.211c-19.589,0-43.5,1.61-59.842-2.03-10.743-17.19-4.058-92.88-4.057-120.73q-0.507-151.65-1.015-303.33-0.507-567.555-1.014-1135.21h-369.2c-30.053,0-129.95,4.71-147.071-5.07Q9.507,1223.045,9,1217.98L859.982,227.84h6.085c20.13,11.217,60.02,66.957,76.071,87.246q81.642,95.861,163.3,191.739,210.435,247,420.92,494.055,64.41,75.57,128.82,151.16c17.46,21.97,44.45,41.99,56.8,67.97-3.51,20.43-93.84,11.16-120.7,11.16Z"/>
</svg>
