<svg id="V1" xmlns="http://www.w3.org/2000/svg" width="3000" height="3000" viewBox="0 0 3000 3000">
  <defs>
    <style>
      .cls-1 {
        fill-rule: evenodd;
      }
    </style>
  </defs>
  <g id="bow">
    <path id="_51" data-name="51" class="cls-1" d="M1887.66,1820.65q197.1,0.585,394.23,1.18c59.6,0,148.05-8.34,201.23,2.35q2.34,3.54,4.7,7.06,0.6,2.94,1.18,5.89-374.175,435.9-748.44,871.9-89.415,104.13-178.87,208.27c-12.27,15.43-48.41,68.28-68.25,70.6-35.56-27.55-64.95-71.82-92.97-107.07q-84.72-99.42-169.45-198.86-234.165-274.725-468.365-549.5-91.781-107.655-183.578-215.33c-15.579-19.6-63.394-59.72-67.077-84.72,3.007-3.68,3.558-5.93,8.237-8.24q293.579,0.585,587.213,1.18,0.6-905.355,1.18-1810.888c6.08-9.216,32.11-5.884,47.07-5.883l136.51,1.177,389.51,1.177h129.45c22.73,0,50.47-1.876,69.43,2.353,12.57,20.1,4.57,107.551,4.71,140.023q0.585,175.893,1.18,351.823Q1887.075,1162.831,1887.66,1820.65Z"/>
  </g>
</svg>
