<svg id="V1" xmlns="http://www.w3.org/2000/svg" width="3000" height="3000" viewBox="0 0 3000 3000">
  <defs>
    <style>
      .cls-1 {
        fill-rule: evenodd;
      }
    </style>
  </defs>
  <g id="bow">
    <path id="_50" data-name="50" class="cls-1" d="M1892.37,1172.31V2867.88c0,21.17,5.45,108.25-2.35,116.49-7.78,8.22-35.29,4.76-50.61,4.71q-68.235-.585-136.5-1.18l-387.17-1.17c-56.62,0-146.85,8.72-196.52-2.36-12.46-19.93-4.71-107.72-4.71-140.02q-0.585-175.89-1.17-351.82-0.585-658.275-1.18-1316.69H683.811c-34.868,0-150.771,5.46-170.634-5.88L512,1158.19Q1005.613,584.035,1499.32,9.765h7.06c23.36,13.01,69.64,77.66,88.26,101.193l189.47,222.39,488.36,573.036q74.715,87.652,149.45,175.326c20.26,25.48,51.58,48.7,65.9,78.83-4.06,23.7-108.87,12.95-140.03,12.95Q2120.105,1172.89,1892.37,1172.31Z"/>
  </g>
</svg>
