<svg xmlns="http://www.w3.org/2000/svg" viewBox="0 0 2994.91 3000">
  <title>176icon 1</title>
  <g>
    <path d="M2593.86,108.91c-3.14-.92-78-22.8-180.36-45-138.6-30-255.75-45.19-348.19-45.19-169.3,0-334.57,53.68-494.39,105.6-164.41,53.4-319.69,103.85-475.9,99.25-101.59-3-358.64-87.47-449.11-119.77L579.1,80V1754.55l37.58,9.63c13.32,3.42,327.67,83.66,457.78,83.74h.52c191.23,0,390.11-68.2,565.58-128.38,143.22-49.11,278.49-95.5,381.88-95.5,132.68,0,270.31,38.32,362.4,70.48,101.25,35.35,171.3,71.26,172,71.62l72.93,37.68V119.45Zm-64.09,564.92c-84-28.7-190.84-64.12-223.11-70-53.22-9.63-215.95-12.7-215.95-12.7v492.23s189.92.64,250.88,15.88c77.36,19.34,139.25,37.33,188.18,53.15v491.15c-29.68-12.73-67.2-27.79-110.32-42.89-63.18-22.13-125.41-39.78-185-52.47a1114.66,1114.66,0,0,0-143.78-21.38V1083.39s-186.9,6.41-247.7,19.06c-64.16,13.34-247.71,85.74-247.71,85.74v441.16c-166,56.91-337.1,114.25-501.75,118.33V1270.76s-174-20.36-231.83-28.58c-25.67-3.66-108.75-18.1-182.62-31.13V722.72c72,17.85,157.79,38.6,185.79,43.1,56.53,9.1,228.66,12.71,228.66,12.71V323.6q10.47.28,20.93.3c163.57,0,324.69-51.61,480.82-102.32V683.25s160-60.74,216-69.86c136.54-22.23,279.45-22.23,279.45-22.23v-472c158.7,5,358.63,54.27,439.06,75.76Z"/>
    <path d="M1373,749.94c-162,19.12-279.46,28.59-279.46,28.59v492.23s176.87-3.62,235-12.71c68.12-10.64,266.76-69.86,266.76-69.86V683.25S1430.63,743.14,1373,749.94Z"/>
    <rect x="365.14" y="69.55" width="100" height="2872.41"/>
  </g>
</svg>
