<svg id="V2" xmlns="http://www.w3.org/2000/svg" width="3000" height="3000" viewBox="0 0 3000 3000">
  <defs>
    <style>
      .cls-1 {
        fill-rule: evenodd;
      }
    </style>
  </defs>
  <g id="horor">
    <path id="Lv_2" data-name="Lv 2" class="cls-1" d="M1702.94,17q231.66,170.774,463.37,341.58-1.14,335.91-2.26,671.89l-506.21,314.52c0.37,0.38.75,0.75,1.13,1.13l512.97-2.25q167.97-171.345,335.97-342.71-1.125-214.739-2.25-429.515h1.13Q2556.38,800.47,2606,1029.34q-192.765,195.57-385.58,391.18-276.2,17.475-552.43,34.95v1.13q277.3,53.535,554.69,107.09,190.515,196.71,381.07,393.44-49.05,228.27-98.09,456.57-2.82-217.56-5.64-435.15-167.4-170.775-334.84-341.58-223.77-23.115-447.59-46.22c0.5,12.37,90.52,78.51,108.23,92.44q168.54,136.965,337.1,273.94-0.555,151.6-1.12,303.25v369.77q-232.23,168.51-464.5,337.07,182.625-182.61,365.28-365.26-0.555-308.3-1.12-616.65-80.04-66.495-160.1-133.02c162.76,386.93-6.12,845.38-392.34,888.33-86.24,9.6-163.22-30.49-213.08-62-215.98-136.46-336.417-486.65-208.58-801.53q-74.955,62-149.943,124.01-0.564,308.3-1.128,616.65,182.627,182.6,365.281,365.25-232.215-168.525-464.494-337.07-1.126-335.355-2.254-670.76,224.334-183.18,448.718-366.38c-0.76-.75-1.51-1.51-2.26-2.26q-223.77,23.115-447.586,46.22-167.4,170.775-334.844,341.58-2.819,217.56-5.637,435.15-48.474-229.38-96.958-458.82,188.823-195.015,377.686-390.06l556.949-108.22v-1.13q-276.2-17.46-552.439-34.94L394,1047.38q49.038-229.956,98.086-459.952h1.127q-1.128,214.734-2.255,429.512,167.969,171.9,335.972,343.83h514.1q-253.08-157.245-506.208-314.52-1.128-336.473-2.255-673.014,231.1-170.21,462.243-340.453c0.37,0.376.75,0.752,1.13,1.127q-178.68,179.79-357.4,359.617V774.564q1.692,120.049,3.383,240.126,216.44,112.71,432.933,225.46c-74.3-70.91-100.45-212.79-1.13-280.7q-24.81-39.453-49.61-78.913,41.715-27.052,83.43-54.112c0.38,0.376.75,0.752,1.13,1.128q-26.49,31-52.99,62,24.24,24.235,48.48,48.475c52.25-25.4,113.76-23.254,167.98-2.255,13.24-15.207,50.32-36.035,52.99-55.239q-26.49-29.871-52.99-59.748c0.38-.376.76-0.752,1.13-1.128l85.69,56.367q-27.63,40.579-55.25,81.168c99.25,74.858,74.57,176.118,18.04,268.308q218.7-113.85,437.44-227.725,0.57-309.984,1.13-620.03Q1881.65,197.391,1702.94,17Z"/>
  </g>
</svg>
