<svg id="V2" xmlns="http://www.w3.org/2000/svg" width="3000" height="3000" viewBox="0 0 3000 3000">
  <defs>
    <style>
      .cls-1 {
        fill-rule: evenodd;
      }
    </style>
  </defs>
  <g id="horor">
    <path id="Lv_3" data-name="Lv 3" class="cls-1" d="M2916.82,48q15.255,2.542,30.5,5.084,20.34,144.884,40.68,289.8-5.085,94.047-10.17,188.113c-24.23,146.91-8.94,298.936-35.59,437.237-107.37,557.24-241.15,1126.55-538.95,1499.82-132.53,166.11-648.03,438.44-899.95,483-96.1,16.99-533.015-213.58-610.139-259.3-130.248-77.2-253.507-155.24-340.659-274.54-149.5-204.64-236.074-468.94-320.322-737.2C85.615,1213.2-46.477,632.506,39.011,63.252L49.18,58.167,516.95,144.6c542.6,112.344,1243.98,119.841,1794.82,10.168C2485.53,120.169,2775.62,115.111,2916.82,48ZM2545.65,617.424q-376.215,353.313-752.5,706.7,2.55,5.085,5.09,10.17h5.08q335.535-71.175,671.15-142.36,43.215-287.22,86.43-574.506h-15.25ZM410.176,637.761Q455.932,927.528,501.7,1217.35c422,82.66,667.773,132.58,676.233,127.11C669.308,872.193,423.911,642.282,410.176,637.761ZM1498.25,1690.18l-259.31,223.7h498.28v-5.08q-17.79-20.34-35.59-40.68Zm-386.42,574.51v10.16c-19.92,48.63-13.74,391.54,5.09,432.16q86.43-2.55,172.87-5.09c1.18-68.62,10.96-418.63-15.25-437.23C1252.29,2263.2,1144.86,2262.74,1111.83,2264.69Zm284.73,0q2.55,221.13,5.09,442.32,86.43-2.55,172.87-5.09V2264.69H1396.56Zm284.73,0q2.55,221.13,5.09,442.32,86.415-2.55,172.87-5.09V2264.69H1681.29Z"/>
  </g>
</svg>
