<svg id="V2" xmlns="http://www.w3.org/2000/svg" width="3000" height="3000" viewBox="0 0 3000 3000">
  <defs>
    <style>
      .cls-1 {
        fill-rule: evenodd;
      }
    </style>
  </defs>
  <g id="horor">
    <path id="Lv_4" data-name="Lv 4" class="cls-1" d="M1449.95,15.09c501.23-7.3,821.05,304.124,895.2,722.248,26.68,150.476-1.54,305.482-23.03,440.252-12.57,78.81,49.6,113.26,34.54,178.41-16.99,73.49-116.51,113.04-158.31,166.89-76.24,98.21-130.41,247.94-169.83,376.95q-34.545,181.26-69.09,362.56c-48.57,195.87-115.68,371.23-213,517.95-55.95,84.34-115.36,186.23-236.04,204.3-108.73,16.28-203.83-125.66-244.66-187.04-101.56-152.62-173.77-330.24-224.52-535.21q-34.545-181.26-69.087-362.56c-39.372-129.02-93.625-278.73-169.829-376.95-41.554-53.56-141.882-93.61-158.315-166.89-11.531-51.43,46.737-120.77,31.663-212.94-14.354-87.76-45.675-217.617-28.785-322.276C706.308,452.391,856.3,215.741,1150.59,87.027l181.34-57.55ZM1164.98,731.583c-92.89,65.023-104.91,285.047-178.465,379.827-52.9,68.16-194.629,91.07-233.155,158.26-21.952,38.29-3.112,95.44,23.028,112.22,41.6,26.72,155.493-24.94,184.221-37.4,156.221-67.8,231.541-215.05,284.971-385.586C1276.42,860.446,1308.27,732.07,1164.98,731.583Zm647.65,0c-125.57,55.949-94.84,118.159-51.81,244.585,53.18,156.252,120.44,289.442,259.06,359.682,28.75,14.57,160.58,74.37,204.37,46.04,50.02-32.34,28.39-102.33,0-138.12-37.35-47.08-161.01-69.15-210.13-132.36-77.86-100.19-95.56-267.476-164.07-374.072ZM1490.25,1286.94q-69.09,96.375-138.17,192.79c1.92,1.92,3.84,3.83,5.76,5.75,56.4-21.84,151.04-31.96,224.52-17.26q33.09,7.185,66.2,14.39l-5.76-5.76q-69.075-94.95-138.16-189.91h-14.39Zm0,440.25q-38.865,8.64-77.72,17.27c-62.02,25.01-116.83,72.31-149.68,126.61-118.79,196.3-50.15,531.61,25.9,719.37,30.22,74.59,118.59,296.4,218.77,281.99,93.52-13.46,144.78-144.53,178.46-221.57,98.79-225.97,193.94-594.72,20.15-817.2C1659.97,1774.57,1592.27,1729.78,1490.25,1727.19Z"/>
  </g>
</svg>
