<svg id="V2" xmlns="http://www.w3.org/2000/svg" width="3000" height="3000" viewBox="0 0 3000 3000">
  <defs>
    <style>
      .cls-1 {
        fill-rule: evenodd;
      }
    </style>
  </defs>
  <g id="horor">
    <path id="Lv_5" data-name="Lv 5" class="cls-1" d="M1444.11,18l109.75,2.554c-21.84,5.418-39,40.575-48.49,58.738Q1556.4,181.435,1607.46,283.6,1493.9,393.4,1380.3,503.228q19.14,61.286,38.28,122.584-59.97,37.027-119.96,74.061c1.7,1.7,3.41,3.4,5.11,5.108l140.38-43.415q99.525,47.241,199.08,94.491,6.39,68.947,12.77,137.907,6.375-80.437,12.76-160.891-95.715-56.178-191.43-112.368-17.865-49.8-35.73-99.6,130.155-116.188,260.34-232.4-66.36-105.974-132.73-211.968c21.48-15.26,42.91-45.647,71.47-51.077,112.96,28.552,212.2,36.025,308.84,74.061,412.02,162.17,689.49,488.82,786.13,967.908,35.6,176.49,12.42,400.48-33.18,546.52q-29.355,79.155-58.7,158.33c-8.82,32.13,6.37,65.01,12.76,91.94,17.69,74.6,46.14,189.59,25.52,278.37-22.87,98.48-115.63,134.69-163.35,209.41-34.52,54.05-106.29,235.34-148.04,263.05-22.47,14.91-90,9.85-114.86,5.11q-1.275,181.29-2.55,362.64H2013.29l-117.41-2.55q-1.275-102.15-2.55-204.31h-17.87q-3.825,2.55-7.66,5.11-1.275,100.86-2.55,201.75l-352.23-2.55c0.98-41.39,8.44-194.45-12.76-206.86q-6.375,2.55-12.76,5.1-1.275,102.15-2.55,204.31l-352.23-2.55c0.69-56.89,15.6-158.93-5.11-204.31h-20.42v5.11q-2.55,100.86-5.1,201.75H747.309q-1.276-181.3-2.553-362.64H742.2c-22.59,5.88-91.511,8.79-112.3-5.11-42.043-28.12-113.373-208.68-148.037-263.05-47.57-74.6-140.883-110.96-163.353-209.41-20.4-89.39,8.06-203.16,25.524-278.37,6.276-27.03,21.6-59.72,12.762-91.94-16.915-61.64-49.31-128.41-68.914-194.09-45.251-151.6-54.253-387.79-15.315-554.18C378.432,571.835,651.135,256.834,1051.04,99.723c76.19-29.933,158.61-49.224,245.03-66.4Zm855.04,1282.02c-40.42,15.06-83.93,8.94-119.96,22.99-133.11,51.89-246.96,141.55-324.15,250.27-43.71,61.57-93.83,158.53-15.31,219.63,203.69,158.52,554.38,70.18,640.64-130.24C2561.28,1474.69,2483.63,1321.7,2299.15,1300.02Zm-1628.412,5.11c-61.47,26.05-105.022,31.82-140.382,81.72-50.843,71.77-46.556,192.39-10.209,275.82C593,1829.88,808.12,1923.98,1043.38,1851.65c55.56-17.08,111.68-38.09,142.94-79.17,51.36-67.49-19.42-165.08-48.5-204.3C1042.77,1439.95,891.622,1303.7,670.738,1305.13Zm775.922,689.54q-94.425,153.21-188.88,306.46c-12.55,20.5-58.34,83.67-45.94,104.7q2.55,5.115,5.11,10.22c68.65,0.76,185.19,22.08,234.82-5.11,17.47-86.01,2.33-208.95,2.55-303.91,0.08-35.15,11.32-90.33-5.11-112.36h-2.55Zm74.02,0c-17.07,56.97-2.48,226.6-2.55,301.35-0.04,43.09-8.46,90.52,7.65,120.03,39.64,8.25,198.78,11.46,234.82-5.11q2.55-5.1,5.11-10.21c-43.73-106.4-113-198.84-171.01-293.7C1576.01,2076.48,1554.15,2008.63,1520.68,1994.67Z"/>
  </g>
</svg>
