<svg id="V2" xmlns="http://www.w3.org/2000/svg" width="3000" height="3000" viewBox="0 0 3000 3000">
  <defs>
    <style>
      .cls-1 {
        fill-rule: evenodd;
      }
    </style>
  </defs>
  <g id="dis">
    <path id="Lv_1" data-name="Lv 1" class="cls-1" d="M2569.99,1070.13v4.02c-14.8,106.23-59.36,212.1-92.69,306.21-143.6,405.4-260.99,605.64-644.82,773.56-49.7,21.74-288.92,139.2-342.56,128.92l-253.89-100.72c-415.614-180.44-514.967-322.22-681.088-749.39C512.524,1323.66,463.4,1197.44,442.1,1074.15h8.061C1043.59,1070.42,2456.69,1069.58,2569.99,1070.13ZM1288.42,1319.92q-66.5,68.49-132.99,136.99v8.05q102.75,102.735,205.53,205.48-102.75,102.735-205.53,205.48v12.09q68.5,66.465,137.02,132.95l209.56-209.5q106.8,104.73,213.6,209.5,70.515-68.49,141.05-136.98v-4.03q-104.76-104.745-209.56-209.51,102.75-102.72,205.53-205.48v-12.08q-68.505-66.48-137.02-132.96-104.775,102.735-209.57,205.48-102.75-102.735-205.53-205.48h-12.09Zm-173.29,838.03c118.81,38.52,233.38,120.87,362.7,145.04,92.14,17.22,326.39-107.32,403.01-145.04q4.035,2.01,8.06,4.03v463.33c25.3,43.4,210.38,79.78,270.02,100.72L2973,2995.97V3000q-1472.85-2.01-2946-4.03,358.643-118.845,717.358-237.71c118.918-40.79,273.483-61.08,370.773-128.93V2157.95Z"/>
  </g>
</svg>
