<svg id="V2" xmlns="http://www.w3.org/2000/svg" width="3000" height="3000" viewBox="0 0 3000 3000">
  <defs>
    <style>
      .cls-1 {
        fill-rule: evenodd;
      }
    </style>
  </defs>
  <g id="dis">
    <path id="Lv2" class="cls-1" d="M1716.21,445.1c214.31-2.934,276.4,74.457,354.31,208.094,18.95,32.5,40.38,72.03,50.93,110.689,28.38-5.235,70.67-12.832,105.18-5.535,127.68,26.994,247.1,166.194,179.37,326.528-25.9,61.31-74.62,108.28-137.29,132.83-170.78,66.9-362.53-92.83-317.77-272.294,18.09-72.531,57.23-122.4,112.93-157.178q19.935-9.408,39.86-18.817c-49.2-87.168-146.09-136.336-257.97-70.841-85.92,50.291-135.45,117.328-162.76,226.912-11.67,46.8-3.85,111.408,4.43,158.288,16,90.67,19,181.38,35.43,268.97q32.1,228.555,64.21,457.14,9.975,78.03,19.93,156.07c3.72,22.46,8.79,54.12,4.43,80.81q-6.09,44.265-12.18,88.55-9.4,41.5-18.82,83.01h1.11q10.515-38.73,21.03-77.48c9.03-35.26,12.48-70.91,18.83-109.58,5.43-33.14-2.72-84.53-7.75-114.01q-13.29-119.535-26.58-239.09,23.25-22.125,46.51-44.27c58.69-47.4,109.23-106.55,173.83-147.22,64.57-40.65,146.76-69.35,230.29-89.65,36.26-8.82,72.5-9.94,111.83-16.61,58.33-9.89,145.19-16.41,205.94-3.32,147.43,31.77,235.76,104.08,310.01,208.1,30.55,42.78,62.42,87.92,84.15,139.46,25.32,60.06,52.3,158.97,27.68,240.2-15.09,49.81-45.1,86.95-73.07,123.97-17.08,22.59-33.91,50.56-56.47,67.52,24.53,41.71,48.04,66.34,58.68,126.18,9.2,51.74-6.22,103.82-23.25,137.26-42.72,83.86-149.48,165.7-283.44,123.97-31.26-9.74-58.67-26.17-81.94-44.28-63.18-49.17-114.03-164.5-70.86-271.18,26.62-65.76,77.38-112.43,143.94-138.36,43.82-17.08,110-15.39,155.01-1.11q21.585,9.4,43.18,18.82c3.7-50.59,30.25-121.4,6.64-172.68-40.75-88.49-243.68-126.64-346.55-66.41-70.21,41.1-123.46,104.88-172.72,167.14-34.06,43.03-72,82.91-104.08,128.4-62.9,89.18-115.38,186.17-172.72,281.15q-98.535-13.845-197.09-27.68c-72.18-13.05-144.97-9.23-220.33-21.03-36.69-5.74-76.82-5.08-117.36-5.53l-36.54-1.11q-40.41,1.11-80.82,2.21-121.785,8.865-243.59,17.72-121.77,13.275-243.581,26.56c-1.425-56.13-14.053-116.48-25.465-168.25-32.576-147.75-43.495-320.87-146.151-398.47-55.577-42.02-120.779-67.59-198.188-88.56-26.867-7.27-71.966-16.47-104.077-6.64-56.007,17.15-99.494,65.54-117.363,120.65-18.681,57.63,12.535,108.01,16.608,157.18,177.537-81.7,382.22,93.79,322.2,285.58-15.962,51-45.88,93.94-84.147,122.86-23.055,17.42-51.216,31.57-81.933,40.96-168.247,51.43-337.571-109.99-297.836-277.83,9.805-41.42,27.85-72.19,48.717-101.84-17.448-6.19-32.3-19.88-46.5-29.88-153.931-108.4-173.864-413.58-57.574-577.8,67.515-95.34,171.029-176.46,294.515-214.73,256.116-79.38,510.169,61.81,659.893,166.03q-4.98,68.07-9.97,136.15,1.665,64.74,3.32,129.5,4.44,57.555,8.86,115.12c12.91,71.58,23.9,137.71,43.18,199.24,10.36,33.06,24.52,99.29,42.08,123.97q-15.51-50.355-31.01-100.73c-15.74-52.25-24.18-106.34-34.32-163.81q-3.87-60.33-7.75-120.66c-6.26-39.07-6.38-96.43,0-135.04q3.87-58.1,7.75-116.22c18.22-100.69,33.87-196.42,57.57-288.9,30.58-119.27,56.15-239.05,99.65-346.45,35.46-87.533,59.95-173.626,106.29-247.943,21.49-34.46,38.73-70.653,69.76-95.192,54.5-43.1,121.64-74.266,199.29-94.085l81.94-13.283ZM1130.51,2170.74v0Zm1.1,3.32v0Zm647.71,45.38v0Zm-2.21,7.75v0Z"/>
  </g>
</svg>
