<svg id="V2" xmlns="http://www.w3.org/2000/svg" width="3000" height="3000" viewBox="0 0 3000 3000">
  <defs>
    <style>
      .cls-1 {
        fill-rule: evenodd;
      }
    </style>
  </defs>
  <g id="dis">
    <path id="Lv_3" data-name="Lv 3" class="cls-1" d="M1800.36,13c31.42,27.879,40.25,154.308,51.47,205.912q4.815,32.171,9.65,64.347c-25.15-10.894-56.99-16.792-82.57-30.028q-3.75-19.839-7.51-39.681c-5.48-34.264,12.08-104.789,18.23-136.2Q1795,45.177,1800.36,13Zm-200.53,98.666q20.37,60.588,40.75,121.188l-1.08,1.072-50.4-1.072C1588.67,199.846,1589.39,137.419,1599.83,111.666Zm-25.74,126.55,10.72,1.073c-0.74,44.375-3.67,90.715,4.29,130.84,21.14,106.45,70.22,194.478,127.61,265.969l86.86,82.58c17.31,13.3,36.24,24.361,49.33,41.826q-64.875,20.91-129.75,41.825c-83.09,35.132-142.23,92.18-186.59,166.231-26.27,43.85-44.97,94.48-58.98,150.14-26.15,103.83.42,228.24,31.1,306.73,31.46,80.51,62.85,145.87,111.52,206.98,94.14,118.22,281.95,176.79,457.89,214.49q-33.24-17.145-66.48-34.31c-43.67-27.33-83.97-68.73-115.82-108.32-8.82-10.97-20.68-19.43-27.88-32.18,4.51-15.09,69.09,20.42,83.65,26.81,63.59,27.94,116.39,52.1,198.38,65.42,17.47,2.84,77.57,8.5,92.22,0-29.85-14.29-26.16-95.9-15.01-130.84,27.25-85.35,180.5-73.42,254.15-112.6q-3.75-4.29-7.51-8.58c-97.74-43.57-171.8-165.33-194.09-285.28-6.27-33.69-3.22-73.77-3.22-111.53v-57.92q0.54-41.28,1.07-82.575-3.75-36.459-7.51-72.927c-12.42-49.448-33.94-92.826-54.69-134.057-7.52-14.958-13.22-34.815-24.66-46.116-34.44-1.491-68.61-6.254-107.23-6.435-28.91-50.245-145.46-87.45-198.39-121.188-55.13-35.14-118.14-77.8-152.27-134.057-23.15-38.143-35.56-83.914-52.55-127.622q-16.62-46.648-33.24-93.3c0.36-.358.71-0.715,1.07-1.073,50.97-.884,103.15,9.762,144.77,22.522,132.37,40.578,305.08,149.384,368.89,257.39,21.1,35.718,31.28,83.412,41.82,128.695q4.29,26.808,8.58,53.623c29.6,65.525,71.14,124.251,87.93,204.839,23.08,110.8-12.46,260.585,18.23,360.345,17.88,58.11,57.54,138.98,99.73,172.67,21.04,16.8,84.9,49.6,92.22,74,15.35,51.12-112.19,63.53-150.13,72.92-66.3,16.42-98.01,15.57-110.45,89.02-2.96,17.48-3.28,47.13,2.14,62.2,4.68,13.01,18.8,19.2,24.67,33.25-0.75,7.22-3.11,10.42-8.58,12.87-17,9.85-85.03,6.06-108.31,2.14q-30.555-3.75-61.12-7.51c-70.29-19.36-128.85-56-191.95-82.58,59.39,77.3,155.11,119.08,254.14,157.66q31.635,11.25,63.27,22.52c74.72,332.62,190.56,626.68,327.07,899.79-0.36.72-.72,1.43-1.07,2.15-35.1.67-71.67-5.66-102.95-11.8-50.45-9.9-96.9-14.84-141.55-28.96-88.01-27.82-167.32-72.78-247.71-108.32-370.15-163.63-699.55-450.97-776.38-907.3-5.34-31.69-3.94-79.32,1.07-109.39q3.225-38.07,6.44-76.14c10.48-55.96,17.88-112.38,31.09-164.09q15.015-59.505,30.03-119.04,23.055-20.91,46.11-41.83c23.11-28.75,34.95-52.39,42.89-98.66,9.07-52.76-5.63-109.73-20.37-144.784-16.1-38.287-43.75-71.108-73.99-95.449q-27.345-26.272-54.69-52.551c-39.63-31.836-79.04-68.328-110.45-108.318-26.62-33.878-52.33-68.445-82.58-98.666-10.47-10.47-25.8-27.4-45.03-16.087-14.29,44.3-10.25,125.542-2.15,174.811,23.05,140.123,16.47,295.694,106.16,367.854a911.327,911.327,0,0,0,110.46,76.14q34.845,18.24,69.7,36.47-19.3,76.14-38.61,152.29c-12.77,50.99-16.2,104.69-25.73,158.72-20.62,116.89,4.51,240.5,34.31,324.95,84.84,240.44,234.24,434.2,424.65,569.48,86.58,61.51,182.29,115.36,279.89,165.16,18.26,9.32,120.47,52.57,126.53,62.2q8.04,26.8,16.09,53.62c13.02,41.4,27.44,87.72,48.25,123.34,18.02,30.82,38.9,59.92,60.06,87.94,9.23,12.24,26.03,24.36,31.09,39.68h-5.36q-144.75-24.66-289.53-49.33c-242.86-52.74-491.02-87.17-713.11-158.73-192.82-62.12-361.929-178.15-512.587-285.27-52.373-37.24-100.632-77.4-150.129-116.9-38.554-30.77-69.61-72.07-104.018-107.24-11.052-11.3-72.43-76.32-67.558-82.58q45.57-58.455,91.15-116.9c75.515-105.51,155.375-215.51,198.384-351.77,25.551-80.95,33.152-170.38,49.328-264.9q8.041-79.35,16.086-158.72,17.155-105.63,34.315-211.27c10.151-54.55,10.826-108.337,23.591-159.8,45.525-183.527,130.747-398.7,256.288-499.766,84.59-68.1,177.84-115.5,295.97-152.289l99.73-25.739Zm132.97,765.734c31.65,24.66,53.19,65.1,78.28,96.52,31.13,38.98,81.89,74.76,125.47,100.81,24.02,14.37,50.71,24.75,83.64,30.03,29.92,4.8,58.62-7.78,80.43,5.37,27.37,16.5,44.18,55.53,19.3,87.94-36.06,46.96-128.42,19.69-173.72,3.21-97.88-35.59-152.29-119.48-189.81-215.56C1720.35,1085.9,1698.43,1041.3,1707.06,1003.95Z"/>
  </g>
</svg>
