<svg id="V2" xmlns="http://www.w3.org/2000/svg" width="3000" height="3000" viewBox="0 0 3000 3000">
  <defs>
    <style>
      .cls-1 {
        fill-rule: evenodd;
      }
    </style>
  </defs>
  <g id="dis">
    <path id="Lv_4" data-name="Lv 4" class="cls-1" d="M1884.47,911q439.725,88.182,879.54,176.38-19.185,98.985-38.39,197.98-439.725-88.77-879.54-177.58Q1865.265,1009.4,1884.47,911Zm62.4,255.58q328.74,65.985,657.56,131.98-118.785,589.1-237.59,1178.29-328.74-65.385-657.55-130.79,36.585-184.155,73.19-368.36l-4.8-1.2Q899.43,1799.53,21,1622.53q44.993-220.755,89.994-441.56,880.053,176.37,1760.276,352.77l1.2-1.2Q1909.67,1349.57,1946.87,1166.58ZM1596.49,2358.06q439.125,88.185,878.34,176.38-19.185,98.985-38.39,197.99L1556.9,2556.04Q1576.685,2457.07,1596.49,2358.06Zm-1459.1,397.16H2978.8q0.6,121.785,1.2,243.58l-1.2,1.2-2842.608-1.2Q136.792,2877.03,137.392,2755.22Z"/>
  </g>
</svg>
