<svg id="V2" xmlns="http://www.w3.org/2000/svg" width="3000" height="3000" viewBox="0 0 3000 3000">
  <defs>
    <style>
      .cls-1 {
        fill-rule: evenodd;
      }
    </style>
  </defs>
  <g id="val">
    <path id="Lv_1" data-name="Lv 1" class="cls-1" d="M1468.51,12.05c414.3-3.8,710.28,126.147,944.12,306.118,801.98,617.212,744.45,1895.852-95.27,2428-206.87,131.09-429.71,200.14-738.4,236.25-189.92,22.21-372.11-25.91-508.14-67.5C377.343,2702.87-224.56,1902.86,116.068,971.325c161.326-441.186,514.423-763.833,976.582-903.3C1205.97,33.827,1443.74,12.67,1468.51,12.05Zm-586.258,308.1C356.194,578.915-17.062,1266.77,270.893,1991.76c57.987,146,142.274,276.59,228.267,377.2,310.28-295.11,618.67-596.27,928.95-891.39,0-436.72,3.38-1279.873,0-1310.284C1390.5,167.173,1114.29,180.853,882.252,320.153ZM1582.93,167.286V1479.56q466.41,443.67,932.92,887.42c139.38-181.3,259.63-373.86,307.67-649.19C2967.18,894.39,2312.93,172.021,1582.93,167.286ZM1426.12,1691.98q-408.855,391.065-817.789,782.2c0.661,1.99,1.323,3.97,1.985,5.96,234.487,179.35,439.074,295.69,817.794,345.44Q1427.12,2258.835,1426.12,1691.98Zm156.81,1.99V2825.58c281.74-2.88,716.49-180.83,823.75-349.41Q1994.84,2085.105,1582.93,1693.97Z"/>
  </g>
</svg>
