<svg id="V2" xmlns="http://www.w3.org/2000/svg" width="3000" height="3000" viewBox="0 0 3000 3000">
  <defs>
    <style>
      .cls-1 {
        fill-rule: evenodd;
      }
    </style>
  </defs>
  <g id="val">
    <path id="Lv_2" data-name="Lv 2" class="cls-1" d="M1927.19,20.047c76.42-.9,125.31,14.091,174.67,39.136,16.79,8.521,55.48,38.043,70.77,33.115,9.33-21.4,30.3-34.921,49.69-46.662,120.71-73.079,284.24,47.009,225.87,189.66-64.32,157.19-323.91,110.988-301.16-66.231-18.82-2.843-32.63-17.127-46.68-25.589-37.47-22.565-81.21-39.391-131-48.167-52.3-9.218-112.85,11.03-149.07,24.083-121.59,43.816-160.12,111.432-209.31,225.786-12.14,28.232-32.91,59.752-37.64,93.324,145.29,3.336,276.31,54.673,373.43,111.388,244.37,142.693,414.37,342.752,478.84,665.31,14.04,70.24,3,150.34,15.06,224.28q1.5,61.71,3.01,123.43t3.01,123.43q1.515,61.71,3.02,123.43,1.5,92.565,3.01,185.15,3,122.655,6.02,245.35,2.265,92.565,4.52,185.14,1.5,61.71,3.01,123.43c18.09,114.67-8.19,225.59-54.21,290.51-60.61,85.5-199.55,176.23-353.86,126.44-51.02-16.46-90.74-40.99-127.99-70.74-46.39-37.05-79.02-98.36-97.88-162.57q-4.515-28.59-9.03-57.2c0.93,203.56-236.71,368.25-448.72,276.97-80.97-34.87-143.83-101.61-176.18-185.15q-9.03-38.37-18.07-76.76-1.5-17.31-3.01-34.62c-7.19,148.38-84.64,247.82-192.741,295.02-156.311,68.26-316.207-4.36-390-102.35-48.645-64.61-81.481-178.2-61.737-299.55q1.5-61.71,3.011-123.43,2.259-92.55,4.518-185.14,3.01-122.67,6.023-245.35,1.506-92.565,3.011-185.15,1.506-61.71,3.012-123.43t3.012-123.43c16.719-103.96-4.434-223.65,13.551-322.12C643.3,833.845,884.543,579.6,1252.6,467.1c54.34-16.61,115.7-19.828,177.68-30.1l64.75-3.01c2.54-41.636,30.29-83.682,45.17-117.408,52.83-119.72,106.62-211.514,228.88-261.912,31.86-13.132,67.73-20.7,103.9-28.6ZM1708.85,817.822q-10.545,5.268-21.08,10.537c-13.18,43.312,34.18,70.585,54.21,100.851,27.47,41.505,38.32,94.33,48.18,153.53,37.62,225.91-232.86,392.67-415.59,270.95-47.05-31.34-83.65-81.94-99.38-144.51-37.51-149.08,69.14-315.59,225.86-285.991,89.17,16.839,134.33,60.876,159.62,141.491,35.67,113.75-46.37,229.13-174.68,198.69-70.65-16.76-136.18-115.42-78.3-188.15,46.04-57.84,174.1.55,134.02,69.24q-12.045,3.765-24.09,7.52c-14.06-14.94-49.35-42.92-63.25-7.52-12.46,39.46,43.21,74.73,84.33,63.22,37.5-10.5,59.92-29.96,66.25-72.25,18.41-123-142.26-177.585-227.37-111.39-44.52,34.62-62.29,119.44-34.63,183.64,35.64,82.73,156.32,159.8,271.04,96.33,33.31-18.43,69.28-46,88.84-78.27,59.42-98.03,2.46-255.924-66.26-308.572-33.28-25.5-81.95-42.713-131-51.178-60.73-10.482-119.77,10.175-155.1,31.61-100.65,61.068-173.91,175.37-127.99,338.68,28.94,102.88,108.93,182.09,218.34,204.71,204.64,42.31,363.15-87.77,400.54-237.83,30.84-123.8-15.74-254.53-66.25-323.623C1758.84,857.288,1741.71,822.729,1708.85,817.822ZM1476.96,1761.61c-41.51,17.19-69.53,22.73-94.86,54.18-30.83,38.27-69.37,100.08-126.49,109.89-32.36,5.55-58.7-21.74-75.29-34.62-56.75-44.08-123.28-161.52-224.361-114.4-30.038,14-51.025,39.16-75.289,58.7-21.444,17.28-65.269,51.06-67.76,84.29q3.765,6.78,7.529,13.55c7.218,2.16,14.05,3.23,22.587,1.51,50.107-37.06,84.026-120.85,159.614-129.45,26.22-2.99,46.07,24.72,60.23,36.12,45.62,36.73,119.42,142.18,204.79,124.94,96.08-19.41,132.01-153.06,209.3-162.57,34.18-4.2,59.45,31.49,73.78,49.67,31.56,40.02,68.41,96.09,126.49,108.38,81.78,17.31,145.07-82.62,188.22-117.41,14.34-11.55,26.89-32.08,49.69-34.62,62.01-6.88,120.25,120.82,165.64,136.98,7.07-2.32,11.33-3.34,15.06-9.03q3-6.03,6.02-12.04c-11.03-30.3-35.24-52.42-55.71-73.76-18.99-19.79-37.22-41.58-60.24-57.2-103.81-70.44-153.09,31.07-215.32,81.28-19.53,15.76-42.86,52.35-82.82,45.16C1603.17,1905.94,1592.68,1772.61,1476.96,1761.61Z"/>
  </g>
</svg>
