<svg id="V2" xmlns="http://www.w3.org/2000/svg" width="3000" height="3000" viewBox="0 0 3000 3000">
  <defs>
    <style>
      .cls-1 {
        fill-rule: evenodd;
      }
    </style>
  </defs>
  <g id="val">
    <path id="Lv_3" data-name="Lv 3" class="cls-1" d="M1926.97,89Q2004,317.51,2081.04,546.067l418.31,1.02L2162.66,789.9q73.965,221.368,147.94,442.786l-1.02,1.02q-190.26-137.2-380.56-274.447-191.3,136.2-382.61,272.407,73.455-220.35,146.92-440.746L1356.64,547.087l419.33-3.061Q1851.465,316.536,1926.97,89ZM909.761,380.788l85.7,248.938H1225.03v2.041L1042.4,763.378q39.78,121.906,79.58,243.832-104.565-74.463-209.158-148.95-105.078,74.469-210.177,148.95Q742.431,885.821,782.226,764.4L598.577,631.767v-2.041H828.139Q868.945,505.27,909.761,380.788ZM561.847,922.535q73.962,219.323,147.94,438.705H1110.75v2.04q-161.175,116.295-322.4,232.61l141.818,424.42-1.02,1.02q-183.121-131.6-366.279-263.22-182.1,131.085-364.238,262.2l139.778-425.44C384.372,1626.85,168.465,1473.76,16,1363.28v-2.04l400.968-4.08Q489.4,1139.87,561.847,922.535Zm2006.883,231.6q56.61,166.275,113.25,332.6l303.02,1.02q-121.9,87.72-243.85,175.48,46.935,140.775,93.87,281.58l-14.28,2.04q5.61,13.785,11.22,27.55-131.1-93.345-262.21-186.7-137.73,98.955-275.48,197.92,52.545-161.175,105.09-322.39-121.905-87.735-243.84-175.48l304.04-1.02Q2514.13,1320.44,2568.73,1154.13ZM2034.1,1805.04q74.985,220.86,149.98,441.76l404.03,1.02q-162.21,117.84-324.44,235.68,70.38,214.23,140.79,428.5-184.14-132.105-368.32-264.24Q1852,2779.865,1667.83,2912q70.89-214.23,141.81-428.5-162.72-117.315-325.46-234.66l404.02-2.04C1888.95,2244.53,1986.13,1949.98,2034.1,1805.04Zm-971.3,238.74q54.075,160.155,108.15,320.35l293.84,2.04q-117.825,85.185-235.68,170.38,51.51,155.58,103.04,311.17-134.145-95.88-268.33-191.8-132.619,95.895-265.269,191.8l-1.021-1.02q51.009-155.055,102.028-310.15-118.34-85.185-236.7-170.38v-2.04l294.86-2.04Q1010.253,2202.955,1062.8,2043.78Z"/>
  </g>
</svg>
