<svg id="V2" xmlns="http://www.w3.org/2000/svg" width="3000" height="3000" viewBox="0 0 3000 3000">
  <defs>
    <style>
      .cls-1 {
        fill-rule: evenodd;
      }
    </style>
  </defs>
  <g id="val">
    <path id="Lv_4" data-name="Lv 4" class="cls-1" d="M1449.6,10.306c294.28-4.289,564.64,35.674,747.41,146.74,60.96,37.049,165.53,107.991,121.3,215.22-42.01,101.867-172.07,148.284-279.78,185.872C1733.26,664.66,1222.54,661.241,929.151,546.4,833.509,508.961,735.67,467.4,688.493,382.049c-50.387-91.165,33.984-166.961,84.133-203.481C891.166,92.245,1052.73,60.71,1226.55,27.914ZM1966.13,364.44c-43.3,16.36-96.97.433-113.48,43.044,13.94,61.674,198.68,40.206,232.83,0v-1.956C2057.86,374.491,2018.95,371.359,1966.13,364.44Zm371.75,410.874c56.48,1.8,55.92,88.117,0,90V1465.97c35.23,14.91,50.64,78.81,0,88.05v604.57c64.36-2.09,63.81,92.07,0,90,0.17,146.75,23.42,433.47-35.22,512.62-55.48,74.89-155.76,114.85-252.4,148.69-302.63,105.99-819.01,109.49-1115.239-5.87-94.41-36.76-186.533-74.21-240.658-150.65-51.041-72.08-29.762-370.52-29.348-504.79-47.579-10.56-53-82.38,0-90V1555.98c-66.394,2.52-66.961-92.36,0-90.01V865.315c-24.037-3.148-49.492-22.959-41.088-56.74,7.31-29.386,28.092-19,41.088-33.261V385.962h1.956v3.913c33.37,41.07,59.04,77.819,103.7,107.61C1040.79,677.677,1650.77,704.578,2017,589.443c111.78-35.141,284.97-98.966,318.92-205.438h1.96V775.314ZM2095.27,1152.93c-202.28,154.08-409.22,287.13-667.19,387.39-118.98,46.24-250.54,72.47-377.62,107.61-54.8,15.16-127.292,16.59-174.136,43.05v1.95q4.89,4.89,9.783,9.79,95.862-18.585,191.743-37.18c116.23-27.34,234.36-52.33,344.36-84.13,26.48-7.66,164.76-53.97,170.22-50.87,43.15,17.73,76.39,50.39,133.04,56.74,91.29,10.24,124.82-169.5,223.05-191.74,0.66,1.3,1.31,2.61,1.96,3.91,4.81,28.98,2.14,70.44,15.65,91.96,23.3,37.11,110.9,80.12,150.66,31.3,58.37-71.66-5.09-131.69-13.7-211.3-5.69-52.61,21.63-107.43,9.79-152.61Q2104.075,1155.86,2095.27,1152.93Z"/>
  </g>
</svg>
