<svg id="V2" xmlns="http://www.w3.org/2000/svg" width="3000" height="3000" viewBox="0 0 3000 3000">
  <defs>
    <style>
      .cls-1 {
        fill-rule: evenodd;
      }
    </style>
  </defs>
  <g id="val">
    <path id="Lv_5" data-name="Lv 5" class="cls-1" d="M2934.64,7c12.66,14.407,20.74,79.34,27.67,110.706,46.63,210.877-2.82,454.106-52.26,611.961-43.07,137.486-111.79,269.956-181.4,410.533q-53.025,99.165-106.07,198.35-51.495,83.79-103,167.6-74.55,100.71-149.11,201.42-29.2,35.37-58.42,70.73c-4.46,9.16-27.67,78.42-27.67,78.42-4.8,7.89-36.76,80.86-35.36,83.03-41.71,66.81-60.73,134.93-104.53,204.5-18.33,29.12-55.35,47.56-79.94,63.04-5.69,3.59-29.34,23.25-33.82,19.99-35.37,26.15-71.32,55.45-106.07,89.18-39.06,37.92-131.78,118.23-149.11,164.52-23,61.43,39.81,156.11-21.52,190.66-13.75,7.75-32.67,1.61-41.51-3.07-60.36-31.96-30.57-66.61-38.43-121.47l-6.15-53.82c-42.99-28.29-96.23-87.17-127.59-127.62q-127.575-126.84-255.19-253.7c-3.76,20.59-34.95,44.34-49.19,64.58-46.34,65.87-110,126.47-162.95,195.27-37.59,48.86-86.477,96.18-135.277,133.77-31.546,24.31-50.585,53.51-84.549,75.35q-51.493,45.345-103,90.71-34.586,21.525-69.177,43.06c-20.307,15.1-32.863,40.84-55.341,55.35-136.2,87.93-259.849,167.86-408.911,222.95q-23.826-21.525-47.655-43.05-55.336-54.585-110.683-109.17C46.156,2828.5,26.914,2816.21,20,2799.26q101.449-97.62,202.918-195.27C353.4,2499.3,460.179,2359.04,591.86,2253.42l104.534-99.94q102.216-99.945,204.455-199.89c50.658-27.71,108.581-110.77,158.341-150.68q132.18-125.31,264.41-250.63c36.9-29.6,64.24-70.09,102.99-98.41q51.5-51.495,103-103.02c39.06-21.36,68.58-72.97,106.07-101.48q157.545-149.13,315.14-298.29,25.35-26.136,50.73-52.278C2112.9,809.5,2202.62,692,2316.66,600.51c36.85-29.557,69.76-72.581,104.54-99.944L2525.73,396.01c43.16-29.265,81.64-74.022,118.37-110.706q17.67-18.45,35.36-36.9c36.18-19.786,72.76-83.918,107.61-103.019,37.6-20.616,67.46-69.908,102.99-98.406Q2912.35,26.991,2934.64,7ZM2745.56,303.755Q1959.335,1079.392,1172.94,1855.18q12.3,12.3,24.6,24.6c1.8,9.48,108.69,105.75,127.59,124.55l370.48,359.8,6.15-4.62c4.2-21.23,43.05-43.83,56.88-63.04,35.69-49.58,85.48-86.19,121.44-136.84,80.6-113.54,205.97-215,282.86-335.2q31.515-37.665,63.03-75.34c3.94-4.4,22.59-24.15,19.98-27.68,23.22-28.87,42.35-55.45,66.1-83.03,3.96-4.59,22.76-25.39,19.99-29.21,4.54-5.81,31.96-32.49,27.67-38.44,66.45-85.91,92.3-163.18,118.37-267.54q5.37-24.6,10.76-49.2,9.225-44.6,18.44-89.18,3.075-29.22,6.15-58.43,11.535-52.275,23.06-104.56,12.3-31.517,24.6-63.04A385.811,385.811,0,0,1,2668.7,831.148c44.97-29.693,114.37-55.551,146.04-104.556,63.39-98.11,8.16-248.729-35.36-345.958C2766.15,351.076,2762.06,327.67,2745.56,303.755ZM2158.33,1366.23c49.94,3.63,90.19-5.46,104.53,55.35q-1.53,20-3.07,39.98c-26.6,61.73-75.75,127.84-162.95,86.11-23.06-11.04-39.85-20.19-53.81-39.98,5.6-35.76,95.07-66.23,76.87-107.63q2.295-12.3,4.61-24.6a52.181,52.181,0,0,1,7.68-7.69Q2145.255,1366.99,2158.33,1366.23Z"/>
  </g>
</svg>
