<svg id="V2" xmlns="http://www.w3.org/2000/svg" width="3000" height="3000" viewBox="0 0 3000 3000">
  <defs>
    <style>
      .cls-1 {
        fill-rule: evenodd;
      }
    </style>
  </defs>
  <g id="val">
    <g id="meat">
      <path id="Lv_6" data-name="Lv 6" class="cls-1" d="M2444.26,11c134.06-1.854,225.34,133.108,223.37,267.486,126.21,19.255,294.71,98.563,234.38,256.473-17.03,44.566-39.86,79.977-75.51,105.421-96.11,68.593-148.85,9.24-240.67,12.588-37.88,45.622-112.54,100.559-127.41,163.638q8.655,39.333,17.3,78.673c9.31,50.531-3.63,102.564-18.87,135.321-59.69,128.21-218.54,169.76-272.13,302.1-24.99,61.71-20.14,146.18-33.04,220.28q-42.465,213.975-84.94,427.98c-65.99,291.08-154,456.14-292.58,664q-51.12,79.44-102.24,158.91,7.86-61.35,15.73-122.73c9.01-78.47-12.88-151.19-29.89-210.84C1519.39,1985.08,1044.45,1413.87,484.3,1357.87c-106.155-10.61-166.947,37.03-245.389,51.93v-3.15c233.758-189.51,465.685-376.25,817.961-450.007,119.02-24.92,288.22-43.383,432.58-25.175,68.24,8.608,171.63,15.584,229.66-6.294,138.26-52.131,141.64-239.667,226.51-344.585,84.45-104.4,112.14,19.8,154.15,6.293l187.19-248.6c-57.13-113.019-.28-249.854,77.08-300.528Zm0,40.91-59.77,23.6c-61.22,42.1-113.43,163.439-58.2,250.179,13.55,21.284,51.27,40.724,40.9,73.952q-2.37,2.359-4.72,4.72c-27.46,6.114-38.25-12.662-51.91-25.175q-88.875,117.21-177.75,234.444c86.67,77.733,228.59,69.191,302.01,158.919h3.15c13.64-56.529,72.34-104.735,110.11-140.037-16.39-9.837-43.01-22.524-31.46-50.351q4.725-3.933,9.44-7.867c39.17,1.743,51.7,25.155,78.65,37.763,54.45,25.478,157.36,23.049,202.92-7.867,25.29-17.165,42.58-51.878,55.05-81.82,54.16-129.969-108.44-175.921-199.77-201.4,0.51,24.819-6.6,35.9-17.3,48.777-16.71.279-19.86-2.72-28.32-9.441q5.505-51.92,11.01-103.848C2614.52,153.638,2550.12,64.717,2444.26,51.91ZM426.1,1389.34c508.273-7.19,973.064,524.46,1129.414,882.71,75.16,172.21,179.17,531.83-6.29,663.99-171.55,122.26-456.88,4.16-596.167-66.08-342.4-172.68-643.28-448.09-800.66-804.03-99.766-225.64-105.328-510.86,97.527-627.81C300.357,1409.04,362.2,1411.7,426.1,1389.34Z"/>
    </g>
  </g>
</svg>
