<svg id="V2" xmlns="http://www.w3.org/2000/svg" width="3000" height="3000" viewBox="0 0 3000 3000">
  <defs>
    <style>
      .cls-1 {
        fill-rule: evenodd;
      }
    </style>
  </defs>
  <g id="val">
    <g id="meat">
      <path id="Lv_7" data-name="Lv 7" class="cls-1" d="M2448.98,11c121.07-.388,219.39,147.3,218.65,267.486,90.14,25.38,194.93,60.842,237.52,135.317,24.25,42.4,6.27,100.629-9.43,136.89-30.8,71.128-108.25,141.147-226.52,121.156l-81.79-22.028q-41.685,45.625-83.37,91.26-23.6,38.546-47.19,77.1,8.64,38.546,17.3,77.1c34.75,221.741-230.44,287.4-289.43,437.421-27.34,69.52-21.88,165.01-39.33,245.46-47.22,217.71-79.61,446.36-143.14,648.26-46.78,148.63-130.33,278.08-212.36,394.93-28.08,40.01-53.57,81.87-80.22,124.31q-18.87,29.1-37.75,58.21h-1.58c2.45-34.03,10.14-71.23,15.73-108.56,13.27-88.58-25.38-218.82-45.61-283.23-37.73-120.09-94.69-228.16-155.73-325.7-168.74-269.62-394.6-515.18-699.989-646.69-97.949-42.18-249.329-102.78-401.116-75.52-55.706,10-98.456,33.05-144.716,45.63q7.077-7.875,14.157-15.74,25.166-22.815,50.336-45.63,71.565-57.42,143.143-114.86C598.987,1126,782.664,1036,979.794,977.1c130.106-38.878,297.176-45.632,460.886-45.63,92.5,0,212.8,22.608,286.29-9.441,138.08-60.213,115.1-186.939,190.34-298.955,16.29-24.255,57.91-89.159,99.1-83.393,38.93,5.451,51.51,39.322,83.36,48.777q31.47-38.546,62.92-77.1,62.925-85.745,125.84-171.506c-60.21-117.036-4.23-250.947,81.8-303.676C2393.82,21.775,2419.67,22.6,2448.98,11Zm-4.72,40.91c-19.57,8.448-38.68,10.087-55.05,20.455-56.19,35.576-114.02,136.742-75.51,229.724,12.01,28.986,36.56,55.121,56.63,77.1q-0.78,8.654-1.57,17.308l-11.01,9.441h-15.73q-15.735-14.16-31.46-28.322-25.17,34.613-50.34,69.231-40.89,55.066-81.8,110.142-23.58,28.32-47.19,56.644c28.01,13.182,44.66,43.825,75.51,56.644,54.76,22.758,126.96,21.014,174.6,50.351,21.78,13.414,36.71,34.9,53.48,53.5l3.15-1.573c19.32-58.721,76.99-96.32,111.68-141.611-15.23-5.214-26.18-17.615-36.18-28.322q0.8-8.654,1.58-17.308l11.01-9.44c25.35-6.081,57.18,26.826,78.65,36.189,58.31,25.426,151.85,26.359,202.92-7.867,18.32-12.281,29.25-31.056,40.89-50.351,95.25-157.774-75.35-191.894-185.61-234.444,0.05,23.433-6.49,39.292-18.88,50.351q-7.86-.788-15.73-1.574-6.285-5.506-12.58-11.014c1.01-36.657,19.03-69.386,11.01-111.715C2611.47,164.886,2543.47,50.77,2444.26,51.91ZM422.95,1390.92c184.132-3.8,317.816,50.42,432.577,118,299.313,176.27,554.953,439.14,699.983,767.85,77.41,175.43,182.38,523.1-9.43,659.27-170.59,121.11-463.08.7-599.319-69.23C611.832,2694.89,337.979,2427.27,166.55,2091.1c-82.861-162.49-136.571-471.6,15.73-602.63,42.661-36.7,89.6-64.88,151.009-83.39C359.722,1397.11,395.013,1401.79,422.95,1390.92Zm26.741,89.68q-34.6,4.725-69.212,9.44c-59.855,18.17-112.846,58.71-143.143,107-39.971,63.7-70.419,191.92-34.607,283.22,21.283,54.26,55.568,98.57,88.089,141.61,28.7,37.98,57.772,73.83,105.391,92.83,34.457,13.75,97.519,31.62,138.425,12.59,31.713-14.75,44.31-56.57,62.92-84.97,23.219-35.43,60.005-65.57,95.953-88.11,77.345-48.5,195.282-31.54,256.4-95.98-18.534-57.58-19.306-117.67-47.19-163.64C841.358,1593.45,614.614,1481.09,449.691,1480.6Zm649.649,365.04q-18.87,6.3-37.75,12.59c-84.634,51.27-50.84,149.52-33.03,239.16v114.87c8.48,47.46,43.39,86.55,66.06,122.73,69.93,111.56,151.93,196.5,242.25,286.36,35.71,35.54,142.6,150.39,218.64,102.28,18.12-11.46,18.95-52.68,14.16-81.82-11.26-68.51-20.12-134.2-42.47-191.96-71.6-185-163.23-340.51-275.28-483.05C1217.28,1922.73,1175.39,1845.52,1099.34,1845.64ZM836.651,2059.63c-30.643,12.03-112.482,36.92-102.246,77.1,9.663,57.95,110.418,46.01,135.279,11.02C893.664,2113.99,891.413,2058.9,836.651,2059.63ZM531.488,2227.99c-123.73,51.38-71.906,169.21-11.011,245.46,43.385,54.32,135.488,101.76,196.625,140.04,137.091,85.83,275.623,180.81,429.428,247.03,36.52,15.72,203.5,60.84,251.68,26.75,11.02-7.8,11.28-21.03,14.16-37.77,11.26-65.52-43.1-104.33-73.93-135.31-90.95-91.4-181.02-191.13-281.57-272.21q-68.415-63.72-136.85-127.45c-99.688,34.29-188.269,6.86-254.827-34.62C626.177,2255.6,595.533,2228.39,531.488,2227.99Z"/>
    </g>
  </g>
</svg>
