<svg id="V2" xmlns="http://www.w3.org/2000/svg" width="3000" height="3000" viewBox="0 0 3000 3000">
  <defs>
    <style>
      .cls-1 {
        fill-rule: evenodd;
      }
    </style>
  </defs>
  <g id="lust">
    <path id="Lv_1" data-name="Lv 1" class="cls-1" d="M1462.2,652.2c329.16-3.649,656.65,47.76,848.71,183.091,72.68,51.208,166.96,139.936,111.15,266.432-48.47,109.85-193.97,170.33-313.22,212.13-368.27,129.08-930.27,107.83-1276.868-21.47-101-37.67-197.5-91.8-248.806-179.3C530.057,1022.5,581.074,920.4,640,873.169,800.26,744.73,972.438,712.835,1217.18,668.612l169.24-13.889Zm5.05,65.66-74.52,2.526-165.45,13.889C1044.26,767.321,877.686,795.9,746.09,876.957,695.081,908.377,586.18,987.792,640,1078.99c51.581,87.4,159.726,134.56,263.962,169.2,317.1,105.38,816.988,117.64,1148.048,13.89,113.23-35.49,276.23-93.8,314.48-199.51,35.34-97.689-79.68-165.7-135.14-198.24C2045.64,755.375,1759.59,718.258,1467.25,717.857ZM329.309,990.6H333.1q40.41,84.585,80.83,169.2c59.035,119.56,125.73,243.13,207.128,342.19,42.254,51.43,94.284,94.75,143.979,138.9,135.02,119.96,281.365,229.84,414.255,352.29,32.4,29.86,66.69,56.73,94.72,90.92,37.75,46.03,61.16,105.66,88.41,161.62,14.13,29.02,40.66,67.2,44.21,102.28h-5.06c-5.47-11.14-17.86-18.29-26.52-26.52-34.6-32.88-62.02-60.8-118.72-69.45-18-2.74-58.82,13.43-82.09,2.53-58.25-27.29-126.52-79.01-166.71-125.01,0.89-29.8,6.62-73.48-3.79-98.49,1.01,73.74-9.825,128.82-49.259,161.63-81.641,67.93-198.6,5.24-242.491-53.04-26.283-34.89-41.692-76.49-56.834-122.48-3.264-9.91-17.062-35.33-12.63-47.98q8.21-12,16.419-23.99c7.813-16.9,31.375-96.4,25.259-116.17-5.279,63.53-37.173,128.1-80.83,155.31-12.441,7.76-26.1,6.33-41.678,11.37-77.374,25.01-140.268-4.1-178.079-50.51-31.635-38.83-54.616-88.97-68.2-145.21q-2.526-37.875-5.052-75.76v-59.35q8.84-13.26,17.682-26.52c18.973-34.74,35.3-84.1,41.678-127.53h-1.263a289.737,289.737,0,0,1-142.716,203.3c-71.8,40.5-152.525,1.13-181.868-49.25-33.8-58.04-41.086-182.44-24-265.17,35.293-170.85,115.731-272.7,227.335-366.18C270.409,1014.1,303.124,1007.13,329.309,990.6Zm2336.5,0c43.89,4.991,95.9,51.17,123.77,75.76,91.5,80.74,160.67,182.17,190.71,324.52,22.24,105.37,6.29,250.89-47.99,305.57-95.32,96.02-230.67-20.73-266.49-93.44q-17.685-46.08-35.36-92.18c7.06,44,22.79,91.98,41.68,127.53q8.835,13.26,17.68,26.52c8.93,28.12-2.23,130.29-8.84,152.79-28.86,98.13-100.3,223.29-242.49,178.04-21.86-6.96-40.29-7.52-55.58-20.21-29.19-24.21-44.16-61.44-56.83-102.27q-5.685-22.1-11.37-44.2c2.54,52.21,19.41,108.23,42.94,141.42-6.22,95.04-82.05,201.65-151.55,236.13-47.97,23.79-124.89,15.71-160.4-13.89-29.69-24.76-40.37-58.34-47.99-106.07q-1.26-27.78-2.53-55.56c-0.33,31.77-2.87,66-2.52,99.76l-49.26,44.19c-31.82,27.65-68.18,56.49-107.35,75.76-23.86,11.73-82.48-3.02-92.2,1.26,0,0-52.81,12.97-54.31,13.89-24.21,14.93-78.76,57.46-90.93,82.08h-5.05v-5.05c39.86-88.07,74.26-187.74,132.61-258.85,58.16-70.88,134.94-124.8,204.6-184.36,137.99-117.97,288.01-227.49,412.99-358.6,62.03-65.07,109.1-142.38,155.35-223.5C2558.36,1213.7,2616.48,1104.53,2665.81,990.6Z"/>
  </g>
</svg>
