<svg id="V2" xmlns="http://www.w3.org/2000/svg" width="3000" height="3000" viewBox="0 0 3000 3000">
  <defs>
    <style>
      .cls-1 {
        fill-rule: evenodd;
      }
    </style>
  </defs>
  <g id="lust">
    <g id="heart">
      <path id="Lv_8" data-name="Lv 8" class="cls-1" d="M968.8,11q196.446,122.1,392.924,244.234Q1430.15,133.129,1498.6,11h2.36q68.43,122.694,136.87,245.413,146.895-92.021,293.81-184.06c16.43-10.661,84.87-62.218,100.3-60.174l-100.3,251.313,358.71-2.36c-0.39,1.18-.78,2.36-1.18,3.54q-125.055,56.037-250.15,112.088-124.47,58.4-248.97,116.807c-103.14,47.053-203.97,88.129-289.09,180.521-1.57-.394,27.04,45.345-4.72-1.18s-129.56-103.447-208.85-139.225c-187.18-94.97-387.616-176.15-580.546-270.191H1066.73c-0.39-1.573-.78-3.147-1.18-4.72Q1017.175,134.9,968.8,11Zm9.439,474.309c216.255-3.76,419.215,108.533,513.285,214.737,10.84,13.551,8.93,9.23,17.7,0,187.43-193.916,489.63-278.884,766.97-156.923,283.44,124.639,525.44,484.157,434.23,929.737-32.54,158.98-89.35,287.3-168.73,398.8l-257.24,271.37Q1893.34,2565.97,1502.14,2989c-1.18-.39-2.36-0.79-3.54-1.18q-391.125-422.355-782.316-844.79c-117.755-140.86-269.334-247.97-349.269-427.11a1152.546,1152.546,0,0,1-76.7-239.52c-95.526-466.24,160.615-814.947,459.006-942.716,43.88-18.789,92.3-30.911,145.135-40.116ZM650.206,934.841q-47.194,92.61-94.4,185.239c-9.451,23.74-25.809,41.21-31.859,71.97-16.96,86.22,51.357,190.04,135.7,178.16,87.563-12.33,150-97.91,118-200.57q-37.755-69.615-75.518-139.23ZM1492.7,938.38c-30.52,87.16-110.51,166.6-126.26,261.93-14.11,85.44,54,184.26,135.7,173.44,88.66-11.73,151.28-98.63,117.99-202.93q-34.215-62.535-68.43-125.07Q1522.2,992.065,1492.7,938.38Zm844.85,0c-31.3,90.34-109.33,161.54-126.25,261.93-13.95,82.69,52.46,184.9,135.69,173.44,88.01-12.11,152.01-98.59,118-202.93q-38.355-70.2-76.7-140.41C2374.77,1006.78,2360.5,951.856,2337.55,938.38Zm-1266.1,628.87c-31.32,89.22-107.069,160.87-126.254,258.39-17.006,86.46,51.011,187.16,133.334,178.17,89.24-9.75,152.73-98.43,120.36-200.58q-38.94-71.97-77.88-143.95Q1096.23,1613.275,1071.45,1567.25Zm844.86,0c-31.59,89.49-106.75,160.24-126.26,258.39-17.15,86.28,51.18,187.56,133.34,178.17,89.6-10.25,151.95-98.06,120.35-200.58q-38.34-70.785-76.7-141.59Q1941.675,1614.45,1916.31,1567.25Zm-422.43,628.88c-31.43,89.74-107.91,160.95-126.26,259.57-15.9,85.47,50.99,188.01,134.52,176.98,88.04-11.63,151.94-97.71,119.17-200.58q-38.34-70.785-76.69-141.59Q1519.255,2243.32,1493.88,2196.13Z"/>
    </g>
  </g>
</svg>
