<svg id="V2" xmlns="http://www.w3.org/2000/svg" width="3000" height="3000" viewBox="0 0 3000 3000">
  <defs>
    <style>
      .cls-1 {
        fill-rule: evenodd;
      }
    </style>
  </defs>
  <g id="lust">
    <g id="heart">
      <path id="Lv_12" data-name="Lv 12" class="cls-1" d="M978.235,485.309c164.905-1.845,286.275,46.292,387.025,109.728,22.52,14.18,88.02,68.794,128.61,107.532,6.89,8.761,7.87,6.157,15.35-2.523,166.21-183.122,487.01-280.69,766.97-156.923,286.22,126.527,522.45,481.807,434.23,929.737-68.49,347.75-239.32,452.17-425.97,670.17Q1893.34,2565.97,1502.14,2989c-1.18-.39-2.36-0.79-3.54-1.18q-383.445-414.09-766.977-828.27c-128.365-149.92-285.572-265.9-371.688-458.97-31.775-71.24-56.171-151.64-71.978-238.34C203.105,996.814,449.818,661.716,749.323,533.684,818.305,504.2,891.563,505.963,978.235,485.309ZM1493.88,985.575c-40.79,5.1-83.12-3.169-189.98,73.155-191.66,172.99-122.12,422.2,59,516.78q-60.765,301.425-121.53,602.92l1.18,1.18q258.975-.6,518-1.18-60.765-299.655-121.54-599.38C1914.6,1437.23,1871.19,998.321,1493.88,985.575Z"/>
    </g>
  </g>
</svg>
