<svg id="V2" xmlns="http://www.w3.org/2000/svg" width="3000" height="3000" viewBox="0 0 3000 3000">
  <defs>
    <style>
      .cls-1 {
        fill-rule: evenodd;
      }
    </style>
  </defs>
  <g id="lust">
    <path id="Lv_3" data-name="Lv 3" class="cls-1" d="M2329,37c77.48-.3,597.05-8.251,612,11,18.21,23.456,6,611.02,6,696,0,45.359,10.09,186.2-15,201l-684,4c-38.71,0-188.23,8.162-203-9-16.33-18.965-7-161.579-7-201V201c0-39.329-12.77-125.726,6-152C2064.3,20.583,2276.31,48.5,2329,37Zm-785,2c56.09-.325,376.8-9.079,397,6,21.18,15.817,12,161.033,12,204,0,82.967,10.58,668.481-7,691-15.41,19.736-159.74,11-201,11H1205c-37.56,0-124.33,13.153-150-5-19.27-13.625-11-156.482-11-196V222c0-36.809-7.81-162.143,10-176C1094.27,14.668,1459.45,57.848,1544,39ZM760,41c42.527-.373,177.866-8.943,193,13,16.049,23.27,5,170.632,5,212q-1,334.467-2,669c-11.678,28.681-480.123,18-561,18-49.136,0-318.352,7.847-336-6C41.137,932.984,49,807.014,49,770V242c0-43.082-9.387-182.131,14-196ZM2094,94V893h797V93Zm-995,2V895h798V95ZM105,98V897H902V97Zm2729,942c33.01,1.06,95.68-8.77,111,14q1.995,107.985,4,216-0.495,330.96-1,662c-12.19,36.77-151.15,20-200,20H2200c-36.53,0-123.48,13.06-148-5-26.52-19.54-12-133.73-12-177V1241c0-44.22-9.7-182.08,15-196Q2444.46,1042.495,2834,1040Zm-1505,3c78.08-.3,593.45-10.98,616,7,18.21,14.52,10,156.96,10,196v525c0,42.51,14.65,156.96-11,177-25.18,19.68-605,7-692,7-39.07,0-185.91,8.12-200-10-18.09-23.26-6-606.6-6-691,0-39.02-9.69-179.96,6-200C1073.39,1026.69,1277.21,1054.27,1329,1043Zm-785,2c57.649-.33,386.241-8.75,406,7,18.263,14.55,10,159.67,10,199,0,83.55,10.141,675.93-7,696-15.94,18.66-160.469,10-201,10H213c-37.665,0-124.2,13.13-150-5-20.765-14.59-12-154.65-12-196V1229c0-42.39-14.6-157.09,11-177C101.886,1020.99,460.571,1063.59,544,1045Zm1552,52v800h797q0.495-400.455,1-801Q2495.045,1096.495,2096,1097Zm-1989,5v799H904q0.5-399.96,1-800Q506.041,1101.495,107,1102Zm2501,942c60,6.23,303.27-18.64,333,9,16.12,14.99,8,162.5,8,200,0,84.31,11.98,668.97-6,692-15.41,19.74-159.74,11-201,11H2202c-37.57,0-124.32,13.15-150-5-26.42-18.68-12-133.47-12-176V2245c0-43.13-9.28-182.02,14-196Q2330.975,2046.5,2608,2044Zm-780,2c36.38-.37,106.63-9.11,122,13,16.31,23.46,5,176.88,5,219q-0.495,329.46-1,659c-10.86,37.9-151.03,21-200,21H1208c-37.75,0-125.19,13.26-151-5-19.04-13.47-11-138.34-11-176V2246c0-44.19-10.11-183.73,16-196Q1444.965,2048.005,1828,2046Zm-1506,3c80.512-.3,601.032-12.96,627,6,19.4,14.17,11,156.08,11,196v527c0,43.39,14.547,157.32-12,177-25.209,18.69-111.631,6-150,6H257c-40.013,0-186.162,8.31-200-11-16.391-22.87-6-159.79-6-201V2213c0-39.41-12.757-125.6,6-152C76.761,2033.19,271.692,2059.94,322,2049Zm1774,52v799h797q0.495-399.96,1-800Q2495.045,2100.5,2096,2101Zm-994,2v800h797V2102Q1500.54,2102.5,1102,2103Zm-995,3v799H904q0.5-399.96,1-800Q506.041,2105.5,107,2106Z"/>
  </g>
</svg>
