<svg id="V2" xmlns="http://www.w3.org/2000/svg" width="3000" height="3000" viewBox="0 0 3000 3000">
  <defs>
    <style>
      .cls-1 {
        fill-rule: evenodd;
      }
    </style>
  </defs>
  <g id="lust">
    <path id="Lv_4" data-name="Lv 4" class="cls-1" d="M2759.8,141c61.38-.861,91.12,28.714,124.07,56.106,103.83,86.294,126.06,258.355,77.69,425.114-34.16,117.76-87.83,223.494-134.87,329.085-84.67,190.045-184.83,367.5-291.31,536.245-47.21,74.82-110.89,138.81-156.45,212.56h-1.08c-30.36-69.15-73.66-132.25-130.55-174.79l63.66-66.9c39.13-48.18,72.13-98.74,104.66-154.29,7.61-13.01,26.51-32.92,24.81-49.63q-3.765-1.62-7.55-3.24-65.265,82.53-130.55,165.08l-80.92,87.4c-39.3-25.02-81.47-43.98-137.02-53.95l-66.9-5.4,1.08-1.08c57.2-46.96,105.55-106.35,152.13-164,140.31-173.66,264.33-359.076,370.07-568.615,16.67-33.033,110.27-270.131,101.42-299.953-1.44-1.079-2.87-2.158-4.31-3.237l-4.32,1.079q-26.43,68.508-52.87,137.029c-34.67,81.756-73.73,159.9-113.28,237.373-82.45,161.491-185.2,311.9-293.47,448.854q-57.72,65.805-115.45,131.63c-22.81,27.6-59.27,67.81-90.63,85.24q-29.67,3.78-59.34,7.55c-38.35,7.75-73.24,19.87-106.81,33.45q-41.535,17.8-83.08,35.61h-1.08l1.08-2.16c73.55-58.33,140.02-135.73,199.6-208.24,57.01-69.38,118.67-135.66,171.55-209.32,110.67-154.161,206.61-323.1,304.26-489.854q65.265-114.359,130.55-228.741C2587.84,280.055,2631.71,184.361,2759.8,141ZM1305.4,884.409c222.54-2.556,350.82,165.881,425.1,312.9,26.2,51.87,73.57,138.53,45.31,223.35-5.85,17.55-32.35,33.32-45.31,45.31-59.19,54.79-125.21,105.81-182.34,162.93l-3.24-1.08v-1.08c56.26-63.55,57.67-221.84,23.74-308.59-59.58-152.32-150.42-250.56-334.47-279.45-34.85-5.47-80.61-8.92-118.68-3.24-126.99,18.97-252.475,58.89-346.339,115.45q-45.849,31.83-91.709,63.66l-1.079-1.08q46.39-51.78,92.788-103.58c81.148-67.71,161.538-125.832,270.809-167.237,57.85-21.917,122.45-35.32,187.74-48.553Zm168.31,10.79c44.65,2.106,84.79,17.446,118.68,31.29,121.58,49.664,188.12,123.181,237.37,244.921,13.07,32.3,45.75,110.13,41,148.9q-35.61,38.835-71.21,77.69h-1.08c-3.98-27.72,2.19-65.71-4.32-92.79-27.25-113.41-113.31-249.04-190.97-313.983q-33.975-29.13-67.97-58.264Q1504.46,914.083,1473.71,895.2Zm534.07,568.621c293.79-3.69,458.15,311.11,371.15,613.93-62.57,217.8-223.91,387.99-393.81,500.64-68.26,45.26-146.59,79.48-227.65,112.21q-37.755,14.565-75.52,29.13h-1.08q65.265-88.455,130.55-176.95c47.63-71.03,96.48-143.95,130.55-227.66,82.49-202.68,127.21-503.4-6.48-684.07-25.12-33.95-54.61-67.97-94.94-86.31-23.58-10.72-45.86-10.38-76.61-17.27v-1.07c46.43-21.89,96.12-41.53,152.13-52.87Q1961.925,1468.67,2007.78,1463.82Zm-250.31,83.08c167.12-1.15,227.01,190.49,247.08,344.19,5.15,39.49-6.05,189.77-19.43,210.4q-36.135,29.655-72.28,59.34c-105.6,82.23-216.19,159.42-335.55,227.66-124.36,71.11-265.24,119.19-406.76,172.64q-111.66,37.215-223.335,74.44-41.535-8.085-83.078-16.18c-92.962-19.29-212.9-47.28-313.968-22.66-73.7,17.96-130.693,53.91-181.26,94.95q-38.838,33.99-77.683,67.98-21.038-65.28-42.078-130.56l1.078-1.08c202.6-6.53,304.954-155.18,322.6-346.35q154.811-85.77,309.653-171.55c157.151-92.18,315.461-179.69,461.781-282.69q107.88-82.53,215.79-165.08,50.7-43.695,101.42-87.4C1688.67,1558.01,1723.88,1557.74,1757.47,1546.9Zm633.33,185.58c179.09,67.97,320.92,255.53,284.84,527.61-11.16,84.18-11.27,159.12-34.53,227.67-25.79,76-57.76,126.14-125.15,160.76-15.75,8.09-60.44,32.35-78.76,11.87-2.73-57.62,17.62-108.53,28.05-159.69,18.44-90.47,36.03-241.57,22.66-346.35-6.85-53.61-14.13-98.21-35.61-135.95q-17.805-28.05-35.6-56.1-0.54-51.255-1.08-102.5C2409.64,1816.79,2391.12,1768.4,2390.8,1732.48ZM225.391,2616.15c13.025,8,53.542,148.85,60.42,173.72q-106.8,35.055-213.628,70.13l-1.079-1.08q-28.05-86.31-56.1-172.63l1.079-1.08Q120.725,2650.68,225.391,2616.15Z"/>
  </g>
</svg>
