<svg id="V2" xmlns="http://www.w3.org/2000/svg" width="3000" height="3000" viewBox="0 0 3000 3000">
  <defs>
    <style>
      .cls-1 {
        fill-rule: evenodd;
      }
    </style>
  </defs>
  <g id="lust">
    <path id="Lv_5" data-name="Lv 5" class="cls-1" d="M2982,878.753H19q0.622-87.746,1.244-175.508L2982,702V878.753ZM20.244,1072.93H2980.76q-0.63,21.165-1.25,42.32c-119.84,57.79-237.73,112.59-349.69,178q-83.355,51.66-166.75,103.31H1778.63q-614.07.63-1228.256,1.25L358.731,1280.8c-107.021-62.03-227.262-106.94-337.242-164.3Zm767.817,519.06h1431.1c-0.41,1.24-.83,2.49-1.24,3.73-88.89,72.84-137.41,190.74-206.58,283.8H992.148l-41.066-67.21C901.056,1732.51,845.453,1663.05,788.061,1591.99Zm312.349,484.2h802.66q-53.5,111.39-107.02,222.81-296.145-.615-592.35-1.24Q1152.07,2186.985,1100.41,2076.19Z"/>
  </g>
</svg>
