<svg id="V2" xmlns="http://www.w3.org/2000/svg" width="3000" height="3000" viewBox="0 0 3000 3000">
  <defs>
    <style>
      .cls-1 {
        fill-rule: evenodd;
      }
    </style>
  </defs>
  <g id="lust">
    <path id="Lv6" class="cls-1" d="M1901.47,2985H1320.45v-2.12h-2.12c0.34-40.94-16.45-83.15-27.56-116.49-21.87-65.64-36.38-131.79-61.5-190.63-60.37-141.44-120.96-282.54-180.24-425.73-10.6-34.59-18.86-59.5-31.81-103.79s-11.35-76.19-31.8-158.85c-1.413-17.65.116-16.32-4.241-52.95a500.614,500.614,0,0,1-1.8-97.19c2.1-26.64,8.124-66.94,10.874-67.99,14.587-41.46,12.487-42.02,21.777-66.91-19.312,33.77-28.62,65.71-34.033,87.65-6.308,25.56-6.145,26.33-8.907,61.2-0.988,41.25.275,119.26,7.844,153.13q2.121,24.36,4.241,48.72c5.22,22,11.53,47.63,12.723,72.01-17.227,13.82-23.98,42.83-46.651,50.84v-2.12c-19.775-22.85-16.89-91.06-25.446-127.09-13.052-54.95-10.458-118.08-23.325-175.8-5.624-25.22.9-53.12-4.241-76.25q-2.121-81.54-4.241-163.09c-6.346-28.99-4.236-68.19-4.241-99.55v-36c-5.079-23.29,3.518-56.69-2.121-82.61-5.82-26.76-1.74-64.81-2.12-95.31-0.562-45.18-2.115-97.64-2.121-146.15,0-48.41-5.033-114.85,4.241-156.74,3.8-17.133-1.095-40.548,2.121-55.067,6.888-31.1-2.019-64.973,4.241-93.2q1.059-31.769,2.12-63.542c12.046-53.455,7.877-109.683,21.2-160.974,23.86-91.82,48.213-179.44,82.7-258.405C1048.78,263.2,1106.98,165.713,1214.43,100.186c51.69-31.526,116.15-49.814,180.24-67.778,85.91-24.081,216.43-22.844,298.99,2.118,33.54,10.14,64.78,12.878,95.42,25.417,123.16,50.4,207.81,102.088,273.55,209.69,54.92,89.9,58.34,238.611,59.37,381.253-14.72,4.963-40.93,2.288-61.91.5-19.14-1.529-97.6-3.612-97.13-2.613,0.43,0.912,36.14,3.486,53.02,4.236-0.76,4.87-3.77,21.515-6.37,29.653-6.5,20.417-19.62,69.581-12.72,97.431,16.6,66.947,64.35,143,108.15,184.272-0.43,36.541-20.33,51.581-44.53,63.541-18.32,9.05-37.45,4.28-38.17,31.77,6.82,9.64,6.78,92.49,2.12,99.55-9.65,14.62-27.79,14.62-29.69,38.13,8.85,10.82.48,33.71-4.24,44.48-14.41,9.13-31.93,12.07-38.17,29.65-7.63,21.51,8.11,37.4,2.12,59.31-6.15,22.47-22.32,52.6-42.41,61.42-43.6,19.15-123.96-21.44-152.67-36.01-73.42-37.23-141.18-73.32-205.69-118.61-19.37-13.6-36.5-32.56-55.13-46.6-32.11-24.19-71.24-51.74-91.19-86.84-11.92-20.99-10.67-99.63-10.67-99.63,1.36-7.437,4.36-25.326.07-35.925-12.17,6.842-21.23,20.746-29.69,27.536-61.83-2.485-64.54-25.75-78.45-44.48-17.2-23.14-36.32-42.015-49.79-71.242-16-34.706-18-82.2-21.51-125.588-8.97-52.1,31.07-127.146,79.66-113.838,40.58,11.118,50.99,27.517,78.58,45.909-24.25-44.145-98.12-83.516-142.08-25.417-31.77,42.006-27.82,129.094-12.72,186.39,12.34,46.806,28.13,73.277,57.93,104.323,9.3,9.687,23.81,36.5,39.61,41.824,9.09,5.04,37,11.258,53.02,6.358,4.97-1.525,18.02-15.7,19.08-12.712,4.3,7.474-1.26,22.542-2.12,31.772-2.59,27.93-.36,58.5,8.48,76.25,17.53,35.19,74.71,86.78,106.03,110.14,15.12,11.28,43.8,22.18,44.53,46.6-5.43,8.75.45,26.09-2.12,38.12-4.82,22.48,1.42,53.75-4.24,80.49-5.22,24.61-4.91,59.1-6.37,84.72v42.36c-5,23.84,1.25,52.06-4.24,78.37-0.81,3.9-4.25,19.27-4.24,23.3,0.01,5.72,17.83,35.54,21.21,42.36,14.74,29.78,25.42,60.79,38.17,91.08,5.21-.61,1.02-1.4,6.36,0,12.97,25.19,36.63,43.75,53.01,65.66,57.33,76.68,114.67,124.82,190.84,182.15q68.91,70.95,137.84,141.91c9.57,5.68,29.22,4.57,38.16,8.48,12.76,98.33-40.16,214.41-80.57,268.99-4.77,6.44-12.49,9.95-19.09,14.83-24.24,17.91-45.21,43.43-69.98,61.42-5.72,4.16-16.92,6.53-19.08,8.47,5.57,7.53,4.82,17.51,8.48,27.54,11.67,31.96,17.31,65.3,27.57,101.67,11.47,40.68,10.72,86.44,21.2,131.32C1896.37,2814.66,1901.01,2905.07,1901.47,2985Z"/>
  </g>
</svg>
