<svg id="V2" xmlns="http://www.w3.org/2000/svg" width="3000" height="3000" viewBox="0 0 3000 3000">
  <defs>
    <style>
      .cls-1 {
        fill-rule: evenodd;
      }
    </style>
  </defs>
  <g id="lust">
    <path id="Lv_7" data-name="Lv 7" class="cls-1" d="M2479.65,22q1.665,160.071,3.35,320.174c-3.88,334.094-27.76,642.308-159.28,868.326q-110.64,152.52-221.31,305.09c236.74,175.07,260.08,641.14,155.92,994.04q-279.96,115.665-559.99,231.33-3.345-77.94-6.71-155.89l-333.64,154.22c-59.31-82.22-39.93-200.95,6.7-276.59-337.64-54.66-690.356-372.51-419.152-727.52,119.8-156.82,308.182-254.19,534.842-305.08q88.86-9.225,177.72-18.44-108.135-44.43-216.28-88.85c-407.4-177.94-839.6-503.64-905.377-1007.457L518,117.549c266.983,137.458,524.78,312.211,744.42,499.539,167.8,143.112,286.33,344.583,419.15,523q100.59,127.4,201.2,254.8h3.35q11.745-265.665,23.48-531.385C1992.5,438.852,2254.21,290.983,2479.65,22ZM1314.39,1678.19c-136.21,36.01-136.49,219.71,3.36,214.56C1459.67,1887.53,1444.31,1698.42,1314.39,1678.19Zm943.94,896.82q4.2,46.095,8.39,92.2-279.135,106.425-558.32,212.89l-1.68-1.68v-83.81Q1982.51,2684.825,2258.33,2575.01Zm-625.38,82.14q1.68,160.065,3.36,320.17l-1.68,1.68q-138.315-62.01-276.64-124.05-134.115,61.185-268.26,122.37V2658.83q134.115,61.17,268.26,122.37Q1495.45,2719.175,1632.95,2657.15Z"/>
  </g>
</svg>
