<svg id="V2" xmlns="http://www.w3.org/2000/svg" width="3000" height="3000" viewBox="0 0 3000 3000">
  <defs>
    <style>
      .cls-1 {
        fill-rule: evenodd;
      }
    </style>
  </defs>
  <g id="lust">
    <path id="Lv_9" data-name="Lv 9" class="cls-1" d="M2301.38,10q-436.53,666.564-873.13,1333.26c0.66,0.66,1.33,1.32,1.99,1.99q162.69,74.385,325.43,148.8c141.89-199.39,182.23-252.46,277.3-385.63,23.97-10.1,296.19-102.44,343.81-118.314Q1687.275,1960.192,997.644,2930.48,843.872,2960.24,690.067,2990,1149.4,2332.37,1608.83,1674.59q-157.74-77.37-315.51-154.75c-109.3,129.63-286.2,431.4-331.121,484.28-31.486,4.04-250.575,44.08-286.022,45.45q642.875-955.2,1285.873-1910.609ZM1432.22,456.405l144.86,3.968Q982.825,1329.289,388.443,2198.38c-1.323-.67-2.646-1.33-3.969-1.99C109.468,1406.53,435.767,797.29,1051.22,539.733,1166.5,491.493,1289.42,491.247,1432.22,456.405Zm712.39,188.482q103.17,81.336,206.37,162.689-183.525,57.531-367.1,115.073Q2064.235,783.782,2144.61,644.887ZM2513.7,1011.93c79.74,63.06,122.69,229.02,154.78,337.28,250.77,845.89-576.51,1793.43-1448.59,1519.76Q1866.735,1940.545,2513.7,1011.93ZM1049.24,2162.66q-153.777,239.055-307.579,478.15h-1.985c-118.528-120.68-238.9-217.93-319.483-378.95q2.976-2.97,5.953-5.95Z"/>
  </g>
</svg>
