<svg id="V2" xmlns="http://www.w3.org/2000/svg" width="3000" height="3000" viewBox="0 0 3000 3000">
  <defs>
    <style>
      .cls-1 {
        fill-rule: evenodd;
      }
    </style>
  </defs>
  <g id="lust">
    <path id="Lv_10" data-name="Lv 10" class="cls-1" d="M2048.89,567q178.755,173.957,357.54,347.948Q2579.545,740.992,2752.69,567l4.83,1.611Q2870.26,681.36,2983,794.133c-0.54,1.61-1.07,3.222-1.61,4.832q-173.115,176.373-346.27,352.785Q2809.045,1324.9,2983,1498.08c-0.54,1.61-1.07,3.23-1.61,4.84q-112.725,112.74-225.48,225.52-2.415-.81-4.83-1.61-176.34-173.16-352.71-346.34-173.115,173.955-346.26,347.95-2.415-.81-4.83-1.61-111.93-115.17-223.87-230.36l346.27-352.78q-174.735-173.955-349.49-347.946Q1934.535,681.383,2048.89,567ZM1153.43,919.781l352.71,349.559,351.09-349.559h1.61l227.09,228.739c-0.54,1.62-1.07,3.23-1.61,4.84q-173.115,173.955-346.27,347.95,174.735,175.56,349.49,351.17v1.61q-115.14,113.55-230.31,227.13l-354.31-347.95-351.1,347.95Q1039.1,1966.05,926.343,1850.86q173.921-174.75,347.877-349.55-173.925-177.18-347.877-354.4ZM246.7,1270.95q178.752,173.955,357.54,347.95Q777.351,1444.945,950.5,1270.95h1.611q114.342,114.36,228.7,228.74v1.62q-174.735,175.56-349.489,351.17l1.611,4.83q173.92,173.145,347.878,346.34v1.61q-114.345,114.36-228.7,228.74H950.5q-175.53-174.765-351.1-349.56Q423.872,2259.205,248.307,2434H246.7Q132.36,2318.83,18,2203.65q174.726-175.575,349.487-351.17Q192.761,1676.1,18,1499.69,132.336,1385.33,246.7,1270.95Z"/>
  </g>
</svg>
