<svg id="V2" xmlns="http://www.w3.org/2000/svg" width="3000" height="3000" viewBox="0 0 3000 3000">
  <defs>
    <style>
      .cls-1 {
        fill-rule: evenodd;
      }
    </style>
  </defs>
  <g id="lust">
    <path id="Lv_11" data-name="Lv 11" class="cls-1" d="M1452.93,561.168c210.51-3.585,363.97,46.763,497.59,119.751L2072.9,764.34c4.03,4.037,4.25,1.514,12.1,12.11-10.98-.785-94.36-36.714-145.24-10.764-156.4,79.764,160.02,411.354,203.07,449.4,28.89,25.54,90.72,87.69,151.96,65.93,65.33-23.22,39.97-105.61,47.07-173.57q19.5,49.77,39,99.56c62.04,190.8,53.31,448.92-14.79,627.01-172.82,451.96-771.34,799.07-1331.38,483.04C632.866,2090.32,385.9,1510.1,695.793,1002.5c121.061-198.3,316.4-342.542,564.827-413.076C1319.45,572.719,1387.02,577.172,1452.93,561.168Zm41.69,34.983c-96.16,22.009-396.33,44.9-314.69,185.681,84.84,146.3,615.03,137.832,676.45-20.182C1907.58,629.915,1618.07,594.646,1494.62,596.151ZM1023.93,815.47c-69.027,19.5-116.449,36.033-165.413,72.658-72.592,54.3-293.369,320.642-122.379,422.492,173.372,103.26,382.712-172.07,416.892-287.94C1187.38,906.257,1146.23,813.443,1023.93,815.47Zm484.14,219.32c-144.41,35.17-235.54,81.64-283.76,209.9-83.04,220.89,97.31,468.67,322.76,442.67C1967.86,1638.85,1952.38,1030.29,1508.07,1034.79ZM19.345,1278.33q256.836,0.66,513.724,1.34c-44.474,142.71-30.588,370.29,16.138,497.84-0.9.9-1.793,1.8-2.69,2.69H19.345c-0.448-.45-0.9-0.89-1.345-1.34Q18.672,1528.615,19.345,1278.33Zm2434.135,0h527.17c0.45,0.44.9,0.89,1.35,1.34q-1.35,250.245-2.69,500.53-271.635-.675-543.31-1.34c-0.45-.45-0.9-0.9-1.34-1.35,30.29-86.69,53.37-214.43,40.34-332.34Q2464.245,1361.755,2453.48,1278.33ZM254.69,1375.2c-201.781,57.61-143.809,326.48,43.034,294.67C473.16,1640,464.163,1370.57,254.69,1375.2Zm2448.93,6.73c-33.76,12.21-63.69,20.19-86.07,43.06-91.02,93.01-16.68,279,133.14,251.61C2925.03,1644.72,2914.07,1377.26,2703.62,1381.93Zm-469.34,41.71c-169.7,45.31-249.69,195.53-285.11,372.71-19.91,99.62-15.88,247.91,65.9,274.48,146.67,47.67,303.65-295.16,328.14-409.03C2368.32,1544.98,2344.66,1433.63,2234.28,1423.64ZM851.793,1478.81c-39.884,8.82-68.148,9.64-96.827,26.91C524.788,1644.32,784.6,2151.63,1032,2078.91,1296.34,2001.21,1145.89,1483.82,851.793,1478.81Zm656.277,500.53c-105.15,24.7-377.67,48.37-310.66,200.48,76.87,174.47,604.66,166.04,697.97,9.42C1990.27,2029.95,1650.83,1977.79,1508.07,1979.34Z"/>
  </g>
</svg>
