<svg id="V1" xmlns="http://www.w3.org/2000/svg" width="3000" height="3000" viewBox="0 0 3000 3000">
  <defs>
    <style>
      .cls-1 {
        fill-rule: evenodd;
      }
    </style>
  </defs>
  <g id="block">
    <path id="_69" data-name="69" class="cls-1" d="M1483.85,12.126c246.11-3.381,440.75,54.716,609.77,127.984,368.44,159.716,644.22,437.808,793.19,816.274,40.09,101.856,64.07,209.546,86.68,329.536q4.53,49.365,9.07,98.76c13.47,82.92,9.81,195.23-4.03,274.1-7.57,43.09-7.16,83.43-16.13,123.96-22.91,103.54-49.58,201.44-87.68,291.23-170.81,402.53-479.46,690.25-905.07,838.45-82.26,28.64-167.87,44.24-262.05,61.47q-85.155,7.05-170.33,14.11h-48.38c-51.86.01-101.59-2.2-147.15-10.08-51.95-8.98-101.37-9.11-149.16-21.16-114.52-28.87-221.548-63.08-318.488-107.83-391.574-180.77-665.268-498.56-801.258-936.2-20.323-65.4-32.322-135.01-46.362-209.61q-5.543-68.01-11.086-136.04c-10.336-65.47-4.4-150.23,6.047-210.62l10.079-92.71c20.571-98.58,38.383-188.67,71.559-274.11,165.4-425.949,465.7-735.649,900.029-891.856,92.5-33.268,187.94-51.969,295.31-71.55l136.06-12.093Zm1.01,225.735-96.75,6.047c-64.01,10.732-125.87,13.572-182.43,29.224-84.85,23.484-164.91,51.04-238.864,83.643C907.555,382.9,855.107,421.986,799.51,450.5q2.518,2.52,5.039,5.039Q1588.6,1433.963,2372.8,2412.58c49.17-37.75,96.22-102.17,134.04-152.17,117.93-155.9,196.66-332.1,239.88-565.35,13.23-71.41,26.41-181.42,13.1-263.02-8.84-54.22-5.16-106.11-16.13-156.2-18.29-83.57-38.38-163.77-67.52-237.83-153.3-389.57-473.64-662.682-908.1-771.932C1683.31,244.763,1586.27,237.876,1484.86,237.861ZM623.132,592.588l-41.323,42.325L480.014,756.85c-88.56,123.224-150.528,260.7-200.566,424.26-52.558,171.8-55.641,441.82-4.032,616.74,18.846,63.88,33.013,125.75,57.449,183.41,102.649,242.2,266.467,442.5,478.739,575.42,130.618,81.8,276.166,148.35,453.546,184.42,285.47,58.05,592.19-7.86,786.14-106.82,47.86-24.42,105.12-46.19,144.12-80.62l-2.01-2.01Q1408.345,1572.21,623.132,592.588Z"/>
  </g>
</svg>
