<svg id="V1" xmlns="http://www.w3.org/2000/svg" width="3000" height="3000" viewBox="0 0 3000 3000">
  <defs>
    <style>
      .cls-1 {
        fill-rule: evenodd;
      }
    </style>
  </defs>
  <g id="block">
    <path id="_70" data-name="70" class="cls-1" d="M1483.85,12.126c246.11-3.381,440.75,54.716,609.77,127.984,368.44,159.716,644.22,437.808,793.19,816.274,40.09,101.856,64.07,209.546,86.68,329.536q4.53,49.365,9.07,98.76c13.47,82.92,9.81,195.23-4.03,274.1-7.57,43.09-7.16,83.43-16.13,123.96-22.91,103.54-49.58,201.44-87.68,291.23-170.81,402.53-479.46,690.25-905.07,838.45-82.26,28.64-167.87,44.24-262.05,61.47q-85.155,7.05-170.33,14.11h-48.38c-51.86.01-101.59-2.2-147.15-10.08-51.95-8.98-101.37-9.11-149.16-21.16-114.52-28.87-221.548-63.08-318.488-107.83-391.574-180.77-665.268-498.56-801.258-936.2-20.323-65.4-32.322-135.01-46.362-209.61q-5.543-68.01-11.086-136.04c-10.336-65.47-4.4-150.23,6.047-210.62l10.079-92.71c20.571-98.58,38.383-188.67,71.559-274.11,165.4-425.949,465.7-735.649,900.029-891.856,92.5-33.268,187.94-51.969,295.31-71.55l136.06-12.093Zm1.01,225.735-96.75,6.047c-64.01,10.732-125.87,13.572-182.43,29.224-84.85,23.484-164.91,51.04-238.864,83.643C907.555,382.9,855.107,421.986,799.51,450.5q2.518,2.52,5.039,5.039,307.876,384.921,615.811,769.916l3.02-3.02q205.59-201.525,411.21-403.1L1938.4,717.548c11.62-12.115,29.52-39.5,47.37-43.333,18.33-3.94,32.1,18.074,40.32,26.2q49.89,47.864,99.78,95.736,14.61-14.61,29.23-29.224,46.35-44.841,92.72-89.69c10.47-10.457,30.21-22.017,22.17-33.255-25.32-13.716-44.29-42.679-65.51-61.473-31.82-28.187-70.12-57.717-95.75-91.7,7.4-12.761,23.97-28.28,36.29-36.279q34.77,32.749,69.54,65.5,86.67,82.124,173.35,164.262l96.76,91.7q26.7,25.7,53.42,51.4c-4.9,12.222-25.15,29.844-36.29,36.279-29.18-18.229-51.14-49-76.59-71.55l-91.72-87.674q-74.58,73.054-149.17,146.124l13.11,14.108q46.35,44.337,92.72,88.682c8.58,7.912,27.48,18.593,21.17,37.286-4.19,12.4-34.27,35.273-44.35,45.353q-57.945,56.925-115.9,113.87-220.2,218.16-440.44,436.36v2.01l662.17,824.34c49.17-37.75,96.22-102.17,134.04-152.17,117.93-155.9,196.66-332.1,239.88-565.35,13.23-71.41,26.41-181.42,13.1-263.02-8.84-54.22-5.16-106.11-16.13-156.2-18.29-83.57-38.38-163.77-67.52-237.83-153.3-389.57-473.64-662.682-908.1-771.932C1683.31,244.763,1586.27,237.876,1484.86,237.861ZM623.132,592.588l-41.323,42.325L480.014,756.85c-88.56,123.224-150.528,260.7-200.566,424.26-52.558,171.8-55.641,441.82-4.032,616.74,18.846,63.88,33.013,125.75,57.449,183.41,102.649,242.2,266.467,442.5,478.739,575.42,130.618,81.8,276.166,148.35,453.546,184.42,285.47,58.05,592.19-7.86,786.14-106.82,47.86-24.42,105.12-46.19,144.12-80.62l-2.01-2.01q-329.04-411.12-658.14-822.32-176.865,46.845-353.77,93.72Q994.05,2001.4,806.565,2179.79L667.478,2311.8c-16.985,15.02-32.759,41.23-54.425,50.39,6.378-24.4,30.987-49.37,44.347-69.53q15.62-25.2,31.244-50.39c37.487-43.54,82.409-82.23,122.96-122.95q103.3-106.8,206.616-213.64c35.78-44.75,87.6-77.86,122.96-122.94q24.18-88.68,48.38-177.37,23.175-84.645,46.36-169.3,6.045-20.145,12.09-40.31c3.34-5.63,10.75-6.52,9.07-12.09Q940.145,988.165,623.132,592.588Zm1366.678,130q-271.1,267.53-542.24,535.113v2.02q96.75,120.4,193.51,240.85,35.775,12.585,71.56,25.19,127.485-125.445,254.99-250.93-61.98-60.45-123.97-120.93,0.51-4.02,1.01-8.06,3.03-3.525,6.05-7.05c19.34,0.76,27.43,19.3,38.3,29.22q47.37,44.835,94.74,89.69l5.04-5.04q31.74-31.23,63.49-62.48-47.355-45.84-94.74-91.7c-7.33-7.28-31.45-21.61-28.22-34.27q2.025-4.02,4.03-8.06c18.42-4.12,28.23,16.38,39.31,26.2q47.865,45.855,95.75,91.71h1.01q29.73-29.22,59.46-58.45-12.09-12.6-24.19-25.2l-73.57-70.54c-9.26-8.51-25.27-15.92-26.21-32.246,2.12-3.391,3.23-5.212,7.06-7.054,15.67-3.424,25.86,16.155,34.27,24.19l99.78,93.72c0.33-.68.67-1.35,1-2.02q57.945-56.43,115.91-112.867-5.55-6.046-11.09-12.093Q2120.84,847.056,1989.81,722.587Z"/>
  </g>
</svg>
