<svg id="V1" xmlns="http://www.w3.org/2000/svg" width="3000" height="3000" viewBox="0 0 3000 3000">
  <defs>
    <style>
      .cls-1 {
        fill-rule: evenodd;
      }
    </style>
  </defs>
  <g id="main_setting" data-name="main setting">
    <g id="one_number" data-name="one number">
      <path id="_71" data-name="71" class="cls-1" d="M1399.9,216.421c170.47-.967,295.51,60.023,395.5,131.454,214.81,153.461,343.66,385.718,428.64,669.425,17.84,59.55,25.35,121.38,38.67,185.58,3.78,18.23,38.51,300.79,17.67,435.24-3.78,24.62-4.04,86.21-12.15,128.14-20.52,106.16-37.09,211.71-72.91,302.68h-37.56q-0.555-125.925-1.11-251.87c0-36.24,5.82-65.92-15.47-96.1-35.42-9.36-88.19-4.5-128.15-7.73,1.22-36.89,2.47-74.09,11.05-123.73,6.72-41.86,9.29-100.73,2.21-143.6q-2.2-44.19-4.42-88.38c-9.05-54.32-12.27-108.84-23.2-157.96-62.43-280.484-160.71-499.952-357.94-644.019-87.2-63.7-238.36-109.759-370.09-54.128C1202.97,530,1153.28,572.718,1100.51,615.2c-60.64,48.819-107.333,125.015-148.04,194.42-68.445,116.7-108.541,252.107-142.513,405.407-10.462,47.21-9.378,92.42-17.676,143.61-10.91,67.3-13.64,177.45-2.21,246.34,8.019,48.33,4.6,94.02,13.257,139.19,40.223,209.87,99.96,384.58,203.272,529.13,94.12,131.68,299.81,324.24,539.12,220.93,42.92-18.53,83.33-41.72,118.21-68.49l61.87-54.13,127.04,1.11q0.555,115.98,1.11,231.98l-69.6,54.12c-62.25,43.95-139.12,80.1-222.06,101.63-238.05,61.81-441.88-32.58-576.677-135.87-245.319-187.97-367.432-480.45-438.588-843.96-9.2-46.98-6.25-94.62-14.361-144.71-7.879-48.65-12.876-143.22-4.419-194.42l6.628-125.93c13.252-78.61,17.039-154.28,36.457-226.46,100.017-371.778,240.876-624.4,539.12-798.667,56.16-32.816,122.5-49.233,195.54-65.175ZM1888.2,2336.26q-176.745-1.1-353.53-2.21V2173.88q0.555-34.8,1.11-69.59h232q60.2,0.54,120.42,1.1,1.1-177.84,2.21-355.7h228.68q0.555,132,1.1,264.01,1.11,45.285,2.21,90.59h243.05q54.675,0.54,109.37,1.1v166.8c0,14.4,5.52,52.98-2.21,61.86q-175.635,1.665-351.31,3.32-1.11,176.73-2.21,353.49H1952.27c-14.39,0-52.98,5.52-61.86-2.21Q1889.3,2512.475,1888.2,2336.26Z"/>
    </g>
  </g>
</svg>
