<svg id="V1" xmlns="http://www.w3.org/2000/svg" width="3000" height="3000" viewBox="0 0 3000 3000">
  <defs>
    <style>
      .cls-1 {
        fill-rule: evenodd;
      }
    </style>
  </defs>
  <g id="main_setting" data-name="main setting">
    <g id="one_number" data-name="one number">
      <path id="_72" data-name="72" class="cls-1" d="M2254.97,2068.94h-98.32q-0.555-122.055-1.1-244.13c0-28.9,6.45-78.36-6.63-96.11-17.36-23.54-124.42-14.66-167.92-14.36-39.95-161.36-199.25-272.95-356.84-320.35-93.67-28.17-226.05-21.42-309.33,11.05-179.91,70.13-281.83,157.17-376.722,312.61-45.647,74.78-78.5,146.18-99.428,248.55-15.589,76.27,51.481,211.39,81.752,262.91,81.428,138.57,183.5,225.51,353.518,276.17,58.97,17.57,149.73,34.53,227.58,20.99,38.35-6.68,75.18-10.45,109.37-20.99,63.08-19.45,120.45-48.27,167.93-83.96q28.155-24.855,56.34-49.71l15.46,1.11c1.11,0.73,2.21,1.47,3.32,2.21V2677.6q-48.6,23.76-97.22,47.5c-59.68,25.34-125.84,38.28-197.75,51.92-173.35,32.89-382.87-21.43-494.93-77.32-291-145.15-429.969-381.05-504.872-741.23-9.209-44.28-9.657-94.42-17.676-142.5q-1.105-31.485-2.21-62.97-0.552-39.21-1.105-78.43,1.106-55.77,2.21-111.57c12.138-74.1,8.037-148.69,22.095-218.72,15.347-76.45,25.7-152.14,47.5-222.04,85.028-272.61,232.731-532.023,433.064-688.2C1188.7,320.5,1333.97,262.4,1555.67,223.049c67.78-12.031,188.92-15.371,260.72-3.314,50.04,8.4,102.95,9.716,148.03,20.988,59.36,14.843,113.44,28.269,165.72,48.6,20.28,7.892,53.49,11.928,66.28,27.617q-45.84,115.977-91.69,231.979h-1.11q-70.7-23.748-141.41-47.5c-58.15-17.586-124.43-18.5-192.22-29.826-31.45-5.255-76.74-6.316-108.27-1.1-37.86,6.258-71.85,1.969-106.05,8.837-71.04,14.265-136.21,33.98-195.55,59.651-256.11,110.8-419.667,374.705-505.973,656.169-24.4,79.56-35.755,167.06-48.609,257.39,0.736,0.36,1.473.73,2.209,1.1q13.809-16.575,27.619-33.14c21.9-27.37,50.94-55.55,78.438-77.33,106.806-84.58,227.136-153.48,374.516-197.73,177.56-53.31,383.57-15.78,523.65,45.29,206.69,90.12,349.12,242.86,419.8,469.48,13.44,43.06,20.74,91.02,29.83,140.29q1.665,24.855,3.32,49.71,1.65,32.6,3.31,65.18-1.65,37-3.31,74.01Q2259.94,2029.165,2254.97,2068.94ZM1888.2,2336.26q-176.745-1.1-353.53-2.21V2173.88q0.555-34.8,1.11-69.59h232q60.2,0.54,120.42,1.1,1.1-177.84,2.21-355.7h228.68q0.555,132,1.1,264.01,1.11,45.285,2.21,90.59h243.05q54.675,0.54,109.37,1.1v166.8c0,14.4,5.52,52.98-2.21,61.86q-175.635,1.665-351.31,3.32-1.11,176.73-2.21,353.49H1952.27c-14.39,0-52.98,5.52-61.86-2.21Q1889.3,2512.475,1888.2,2336.26Z"/>
    </g>
  </g>
</svg>
