<svg id="V1" xmlns="http://www.w3.org/2000/svg" width="3000" height="3000" viewBox="0 0 3000 3000">
  <defs>
    <style>
      .cls-1 {
        fill-rule: evenodd;
      }
    </style>
  </defs>
  <g id="main_setting" data-name="main setting">
    <g id="two_number" data-name="two number">
      <path id="_73" data-name="73" class="cls-1" d="M2767.26,2069.73h-98.33q-0.555-122.055-1.1-244.13c0-28.9,6.45-78.36-6.63-96.11-17.35-23.54-124.42-14.66-167.92-14.36-39.95-161.36-199.25-272.95-356.84-320.35-93.67-28.17-226.04-21.42-309.33,11.05-179.91,70.13-281.83,157.17-376.72,312.61-45.65,74.78-78.5,146.18-99.43,248.55-15.59,76.27,51.48,211.4,81.75,262.91,81.43,138.57,183.5,225.51,353.52,276.17,58.97,17.57,149.73,34.53,227.58,20.99,38.35-6.68,75.18-10.45,109.37-20.99,63.08-19.45,120.45-48.27,167.93-83.96q28.17-24.84,56.34-49.71l15.47,1.11c1.1,0.73,2.21,1.47,3.31,2.21v302.67q-48.6,23.76-97.22,47.51c-59.68,25.33-125.84,38.27-197.75,51.91-173.35,32.89-382.87-21.43-494.93-77.32-291-145.15-429.97-381.04-504.87-741.23-9.21-44.28-9.66-94.41-17.68-142.5q-1.1-31.485-2.21-62.97-0.555-39.21-1.1-78.43,1.1-55.77,2.21-111.57c12.14-74.1,8.03-148.69,22.09-218.72,15.35-76.45,25.7-152.13,47.51-222.04,85.02-272.61,232.73-532.023,433.06-688.2,145.64-113.541,290.91-171.641,512.61-210.991,67.78-12.031,188.92-15.37,260.72-3.314,50.04,8.4,102.95,9.716,148.03,20.989,59.36,14.842,113.44,28.269,165.72,48.605,20.28,7.892,53.49,11.927,66.28,27.616q-45.84,115.978-91.69,231.979h-1.11l-141.4-47.5c-58.16-17.587-124.44-18.5-192.23-29.826-31.45-5.256-76.74-6.317-108.27-1.1-37.86,6.259-71.85,1.969-106.05,8.838-71.04,14.264-136.21,33.98-195.55,59.651-256.11,110.8-419.67,374.7-505.97,656.168-24.4,79.56-35.76,167.06-48.61,257.39,0.74,0.36,1.47.73,2.21,1.1q13.8-16.56,27.62-33.14c21.9-27.37,50.94-55.55,78.43-77.32,106.81-84.58,227.14-153.49,374.52-197.74,177.56-53.31,383.57-15.78,523.65,45.29,206.69,90.12,349.12,242.86,419.81,469.48,13.43,43.06,20.73,91.02,29.82,140.29q1.665,24.855,3.32,49.71,1.65,32.6,3.31,65.18-1.65,37-3.31,74.01Q2772.22,2029.955,2767.26,2069.73ZM860.451,231.572q0.552,872.041,1.1,1744.258,0.554,270.615,1.105,541.28-1.1,124.815-2.209,249.66H679.271l-77.333-1.11q-1.1-1115.04-2.209-2230.306L152.3,817.042l-3.315-2.209L13.1,599.424l3.314-4.419L593.1,231.572H860.451ZM2400.48,2337.05q-176.745-1.1-353.52-2.2V2174.67q0.54-34.8,1.1-69.59h232q60.2,0.54,120.42,1.1,1.095-177.825,2.21-355.7h228.68q0.555,132,1.11,264.01,1.095,45.285,2.2,90.59h243.05q54.675,0.54,109.37,1.1v166.8c0,14.4,5.52,52.98-2.21,61.87q-175.635,1.65-351.31,3.31-1.11,176.73-2.21,353.49H2464.55c-14.39,0-52.98,5.52-61.86-2.21Q2401.58,2513.265,2400.48,2337.05Z"/>
    </g>
  </g>
</svg>
