<svg id="V1" xmlns="http://www.w3.org/2000/svg" width="3000" height="3000" viewBox="0 0 3000 3000">
  <defs>
    <style>
      .cls-1 {
        fill-rule: evenodd;
      }
    </style>
  </defs>
  <g id="main_setting" data-name="main setting">
    <g id="two_number" data-name="two number">
      <path id="_74" data-name="74" class="cls-1" d="M1883.45,227.153c86.63-1.233,169.9,2.485,239.73,19.884,238.59,59.447,403.99,213.712,492.72,424.19,38.56,91.455,62.65,227.165,37.57,356.8-9.46,48.89-19.78,94.94-36.46,136.98-40.99,103.28-110.65,196.08-195.54,256.28q-47.5,30.375-95.01,60.76-20.445,11.6-40.88,23.2c0.37,0.73.74,1.47,1.11,2.2q24.855,14.37,49.71,28.73c80.53,48.34,156.48,99.36,206.59,177.85-49.81-.38-160.92-11.56-174.55,22.09-9.37,23.14-2.21,114.37-2.21,146.92l-1.11,36.45v-2.21c-28.92-33.71-42.5-76.1-77.33-103.83-79.97-63.7-177.44-112.93-286.13-146.92l-81.75-25.41q-19.89,5.52-39.77,11.05c-40.29,12.42-77.86,23.19-113.79,37.55-156.17,62.42-295.56,141.29-331.43,324.77C1382.64,2282,1578.21,2461,1769.66,2512.7c74.26,20.05,220.62,18.86,293.87-1.11,61.35-16.73,116.67-42.83,162.4-76.22q34.785-31.485,69.6-62.97l69.59,1.11q0.555,105.48,1.11,210.99c0,12.96,3.09,62.4-2.21,68.49-23.04,23.46-62.47,38.68-92.8,54.13-46.41,23.63-96.25,42-152.46,57.44-112.19,30.81-313.47,26.36-422.01-3.32-221.98-60.69-385.36-202.9-471.73-399.88-44.8-102.17-75.02-242.46-45.3-388.84,32.25-158.76,103.95-286.09,212.12-368.96,32.82-25.15,69-48.05,104.95-69.59q25.41-14.37,50.82-28.72c-0.37-.74-0.74-1.48-1.11-2.21-40.6-12.8-98.65-57.67-132.57-81.75-107.94-76.62-179.51-185.9-222.05-328.08-9.58-32.01-10.48-63.91-16.57-100.527-10.97-65.849-10.68-153.952,4.41-214.3,24.85-99.339,65.32-184.44,117.11-257.386,87.49-123.229,221.95-218.719,383.35-267.328,42.52-12.807,88.63-15.117,136.99-23.2Zm-1021.9,4.419v2536.3H601.938q-1.1-371.13-2.209-742.33V536.458L152.3,818.147l-4.419-3.314L12,598.319l116-74.012L392.035,357.5,590.891,231.572H861.555ZM1901.13,485.644l-55.24,2.209c-37.26,6.276-72.61,7.474-104.95,17.675-140.06,44.179-237.65,143.87-291.66,275.06-10.42,25.335-15.66,52.042-20.99,82.85-8.13,47.069,3.96,120.313,13.26,155.752,40.18,153.11,149.37,225.43,282.82,283.9,43.01,18.85,87.16,34.62,135.88,49.71q28.725,8.28,57.45,16.57c44.83-5.89,95.6-27.43,134.78-43.08,132.06-52.75,254.83-114.64,315.96-238.61,24.85-50.39,49.22-170.005,32.04-247.44-7.46-33.6-20.82-62.667-33.15-90.582C2294.46,584.642,2141.84,484.97,1901.13,485.644ZM2400.48,2337.05q-176.745-1.1-353.52-2.2V2174.67q0.54-34.8,1.1-69.59h232q60.2,0.54,120.42,1.1,1.095-177.825,2.21-355.7h228.68q0.555,132,1.11,264.01,1.095,45.285,2.2,90.59h243.05q54.675,0.54,109.37,1.1v166.8c0,14.4,5.52,52.98-2.21,61.87q-175.635,1.65-351.31,3.31-1.11,176.73-2.21,353.49H2464.55c-14.39,0-52.98,5.52-61.86-2.21Q2401.58,2513.265,2400.48,2337.05Z"/>
    </g>
  </g>
</svg>
