<svg id="V1" xmlns="http://www.w3.org/2000/svg" width="3000" height="3000" viewBox="0 0 3000 3000">
  <defs>
    <style>
      .cls-1 {
        fill-rule: evenodd;
      }
    </style>
  </defs>
  <path id="_75" data-name="75" class="cls-1" d="M2325.93,828.3c26.25-.195,135.21-5.249,144.57,6.065,9.84,11.906,5.05,48.3,5.05,68.737V2083.75c0,29.88,8.59,81.97-16.17,87.94q-78.855-.495-157.71-1.01c-20.76,0-46.2,3.54-54.59-9.09-10.54-15.87-4.05-61.3-4.04-84.91q0.495-110.175,1.01-220.37V915.227c0-16.673-4.32-66.438,2.02-76.824C2258.27,818.421,2302.19,837.257,2325.93,828.3ZM538.6,829.306l157.705,1.011c20.756,0,48.525-3.913,56.612,9.1,8.006,12.879,2.023,51,2.022,68.737V2072.63c0,31.26,9.417,92.67-16.175,99.06q-76.822.51-153.662,1.01c-18.837.01-44.15,4.75-55.6-4.04-11.5-8.83-7.078-41.95-7.076-61.66V931.4C522.425,892.135,513.773,845.587,538.6,829.306ZM2514.98,1046.64h154.67c17.25-.01,47.54-3.97,56.61,5.05,12.48,12.4,6.07,118.73,6.07,147.58v679.28c0,27.98,7.56,76.03-15.17,81.88q-79.845-.51-159.72-1.01c-20.53,0-46.51,3.63-54.59-9.1-6.07-9.56-3.04-32.96-3.04-47.51V1353.93q0.51-111.18,1.01-222.38C2500.83,1097.23,2493.53,1061.32,2514.98,1046.64Zm-2233.154,1.01h157.7c19.5,0,47.616-3.8,55.6,8.08,7.8,11.62,3.034,128.2,3.033,153.65v670.18c0,26.77,7.6,75.23-14.153,80.87q-80.867.51-161.749,1.01c-20.352,0-45.576,3.51-53.58-9.1-8.385-13.2-3.034-134.38-3.033-161.73V1132.56C265.649,1095.72,258.338,1063.05,281.826,1047.65Zm544.892,66.71q488.733,0.51,977.572,1.01h263.85c20.03,0,87.93-5.56,100.09,2.02,19.91,12.44,4.9,70.88,9.1,99.07q0.495,157.665,1.01,315.38v231.48c0,20.97,6.19,75.05-2.03,87.94-10.11,15.87-50.55,10.11-75.82,10.11H1882.13q-403.32.5-806.72,1.01H880.3c-21.307,0-57.836,4.97-66.722-8.09-7.741-11.37-3.033-129.3-3.032-154.66V1280.14q0.5-75.81,1.01-151.63C814.5,1120.86,820.277,1118.59,826.718,1114.36ZM2770.74,1265.99h158.72c21.07,0,48.1-3.79,56.61,9.09,8.41,12.73,3.03,77.58,3.03,99.07v261.8c0.01,30.3,8.95,94.91-12.13,105.13-13.23,7.14-67.25,2.02-86.94,2.02-27.36,0-121.08,5.82-130.41-8.09-9.23-13.76-3.03-55.65-3.03-75.81V1280.14C2758.51,1272.83,2765.16,1269.8,2770.74,1265.99ZM25.049,1267H183.765c21.485,0,48.856-3.95,56.612,10.11,8.012,14.52,2.022,79.21,2.022,101.08v258.77c0,29.06,9.119,97.7-12.131,106.14q-41.951.51-83.907,1.01c-26.581,0-114.878,7.17-128.389-3.03-12.934-9.76-8.088-45.68-8.087-67.73V1283.17C12,1274.73,18.664,1271.33,25.049,1267Z"/>
</svg>
