<svg id="V2" xmlns="http://www.w3.org/2000/svg" width="3000" height="3000" viewBox="0 0 3000 3000">
  <defs>
    <style>
      .cls-1 {
        fill-rule: evenodd;
      }
    </style>
  </defs>
  <g id="dep">
    <path id="_76" data-name="76" class="cls-1" d="M1218.6,12c114.01-1.664,211.5,106.4,162.32,225.712-24.2,58.73-73.75,97.129-151.09,103.153-107.63,8.384-198.69-114.088-155.17-224.69,18.13-46.065,54.59-78.171,101.07-96Zm883.05,273.714c113.22-1.56,211.29,103.143,164.35,222.648-22.35,56.916-68.22,94.175-136.79,105.2-120.73,19.4-214.14-112.634-170.48-223.67,17.64-44.875,53-77.424,98-94.982ZM1720.87,806.587V1433.68q172.5,306.36,345.05,612.79,57.675,101.1,115.35,202.22c6.23,17.37,1.83,62.55,1.02,69.45v505.55c0.01,39.54,9.77,152.98-16.33,162.39q-261.315.525-522.68,1.03H943.994c-17.912,0-46.931,3.7-58.189-4.09-11.406-7.89-9.19-28.68-9.188-48v-680.2q217.925-410.025,435.9-820.12V806.587c-23.85.393-53.36,3.71-62.27-11.234-6.93-11.623-3.06-40.222-3.06-57.194q0.51-76.081,1.02-152.177c3.22-8.89,12.29-15.31,22.46-17.363h375.67c44.92,0,119.76-5.9,135.78,6.128,11.76,8.841,9.19,31.511,9.19,52.088-0.01,31.731,5.68,155.571-5.11,170.56C1776.66,810.654,1743.48,806.934,1720.87,806.587ZM1294.15,615.6V759.606h450.2V615.6h-450.2ZM871.513,723.86c115.612-1.6,216.857,101.167,167.417,223.669-23.33,57.821-69.213,93.061-139.854,104.171-115.852,18.23-210.642-112.512-167.421-222.644,17.872-45.54,52.406-78.176,98-96Zm487.967,82.727q-0.51,320.15-1.02,640.373-168.42,316.575-336.88,633.21,53.085,29.115,106.17,58.22c75.21,37.6,151.24,67.8,249.09,82.73,44.97,6.85,91.23-6.29,125.56-14.3,89.42-20.88,167.75-46.93,254.2-70.47,33.86-9.22,79.58-26.31,124.54-19.41,88.45,13.58,149.88,46.31,216.42,79.66q-211.29-375.285-422.63-750.67-0.51-319.635-1.02-639.343H1359.48Z"/>
  </g>
</svg>
