<svg id="V2" xmlns="http://www.w3.org/2000/svg" width="3000" height="3000" viewBox="0 0 3000 3000">
  <defs>
    <style>
      .cls-1 {
        fill-rule: evenodd;
      }
    </style>
  </defs>
  <g id="dep">
    <path id="Lv5" class="cls-1" d="M1301.59,10l394.02,1.047c7.87,22.342,2.09,62.387,2.09,89V294.8c0,24.86,5.61,81.245-3.14,98.424l-299.7,1.048c-17.43,0-91.76,3.455-97.46-4.189V12.094C1298.8,11.4,1300.19,10.7,1301.59,10Zm52.4,403.121h283.98c-0.6,123.506,15.96,238.374,38.78,341.344,16.08,72.592,24.61,146.259,51.34,207.319,58.44,133.446,151.25,225.026,195.96,374.846,18.64,62.46,23.33,149.08,11.53,219.89l2.1,51.3-2.1,120.42v763.31q0.525,168.555,1.05,337.15-1.05,80.625-2.1,161.25L1337.22,2991q-137.265-1.05-274.55-2.09c0.17-361.95,0-727.85,0-1091.05V1721.95q-1.05-47.625-2.1-95.28l2.1-54.45c-5.36-66.18-10.75-136.9,3.14-199.99,36.91-167.69,135.35-261.19,197.01-401.023,26.75-60.68,36.44-133.56,52.39-206.272C1338.62,658.257,1353.86,542.1,1353.99,413.121ZM1166.41,1674.84v773.78h664.38q0.525-387.9,1.05-775.88Z"/>
  </g>
</svg>
