<svg id="V2" xmlns="http://www.w3.org/2000/svg" width="3000" height="3000" viewBox="0 0 3000 3000">
  <defs>
    <style>
      .cls-1 {
        fill-rule: evenodd;
      }
    </style>
  </defs>
  <g id="dep">
    <path id="Lv6" class="cls-1" d="M2374.48,31h3.27c42.51,31.371,78.16,79.269,121.03,113.377q179.355,168.96,358.74,337.952,63.225,61.044,126.48,122.1c-10.92,18.748-37.47,42.4-56.7,56.688L2726.67,473.608c-13.51-10.661-55.56-60.19-62.15-55.6Q2551.135,529.195,2437.72,640.4q9.27,9.811,18.54,19.623,73.05,69.764,146.11,139.542c12.49,12.428,39.23,26.619,31.62,54.508-5.01,18.362-98.64,103.751-117.76,119.918q-141.735,140.079-283.5,280.176Q1866.4,1615.52,1500,1976.95q-302.55,80.655-605.158,161.34l-75.236,71.95q-49.062,45.8-98.134,91.58c-4.365,4.34-27.941,30.35-30.53,28.34-19.418,16.09-33.039,38.11-54.519,52.33L179.556,2817.47q-59.419,56.685-118.851,113.37C52.367,2939.18,23.6,2969.9,16,2969v-1.09l114.489-178.79q44.157-44.145,88.321-88.3Q400.883,2513.875,583,2326.89,707.285,2201,831.6,2075.06q81.225-295.395,162.466-590.87c11.444-22.69,59.924-59.91,79.594-79.58q91.035-89.385,182.1-178.79,295.995-291.585,592.07-583.236l200.63-197.321c19.87-19.375,58.03-70.484,86.14-76.311,28.19-5.845,45.23,28.751,58.88,40.336q77.955,73.578,155.92,147.172,115.02-112.275,230.07-224.574Q2450.275,209.255,2321.05,86.6c0.73-.727,1.46-1.454,2.18-2.18Q2348.85,57.712,2374.48,31ZM2138.96,443.083Q1596.545,977.212,1054.04,1511.45q21.255,12.525,42.52,25.07c29.73,17.48,63.66,33.31,100.32,42.52,37.04,9.3,76.07,7.45,116.67,14.17,85.08,14.09,174.12,13.2,247.51,35.97q57.24,19.08,114.49,38.16c8.47,3.31,30.47,15.96,37.07,11.99q195.7-192.39,391.45-384.83l-16.36-17.44q-68.145-65.4-136.29-130.82c-12.76-12.74-37.3-24.4-38.17-47.97q1.1-3.27,2.18-6.54c25.41-18.59,47.79,17.4,63.24,32.71q75.24,71.94,150.48,143.9l6.54-6.54q50.145-48.51,100.31-97.03-2.175-2.715-4.36-5.45l-149.38-142.81c-13.7-13.67-42.26-27.349-35.98-53.417,24.55-18.086,46.09,13.392,61.06,28.344q76.32,74.119,152.65,148.263l31.62-31.62,61.06-59.95q-71.415-69.225-142.84-138.456c-14.36-14.255-46.96-31.155-47.97-56.688l6.54-10.9,13.08-3.27c22.7,9.642,35.34,33.352,53.43,47.967q71.955,68.129,143.93,136.269,89.955-89.382,179.91-178.786Q2348.885,643.695,2138.96,443.083Z"/>
  </g>
</svg>
