<svg id="V2" xmlns="http://www.w3.org/2000/svg" width="3000" height="3000" viewBox="0 0 3000 3000">
  <defs>
    <style>
      .cls-1 {
        fill-rule: evenodd;
      }
    </style>
  </defs>
  <g id="dep">
    <g id="mes">
      <g id="lex">
        <path id="Lv_1" data-name="Lv 1" class="cls-1" d="M1487.49,472.091c383.75-3.467,698.87,74.892,951.94,204.324,156.11,79.842,293.86,175.9,395.36,310.081,87.2,115.254,190.64,298.694,146.85,515.434-8.56,42.37-16.36,83.4-30.81,120.13-73,185.58-201.98,318.71-353.25,426.1q-53.91,33.885-107.83,67.77-30.285,16.425-60.59,32.85,5.655,19.515,11.3,39.02,14.88,42.09,29.78,84.2c23.7,56.62,59.08,109.63,89.34,161.2,9.23,15.73,47.14,69.26,34.92,87.27-9.85,14.51-34.5,9.18-53.4,5.13q-65.715-12.825-131.45-25.66c-120.89-28.63-224.95-63.71-328.61-106.79q-82.14-36.435-164.3-72.9-61.62,10.785-123.23,21.56-87.285,8.22-174.58,16.43-27.72,1.035-55.45,2.06c-31.58,4.62-103.5,7.2-137.61,2.05q-75.975-4.11-151.98-8.21c-100.11-15.64-194.08-20.45-285.481-43.13-354.873-88.07-652.434-227.02-842.065-479.49-43.895-58.44-81.6-128.13-107.826-203.3-64.2-184-18.805-390.89,59.561-523.65C276.356,802.564,592.154,644.066,968.9,539.857c105.432-29.164,214.242-38.88,333.742-57.5Zm-2.06,88.3-58.53,2.053-163.28,12.322c-132.73,22.91-252.54,41.411-368.659,77.006C593.419,744.209,301.508,904.965,166.882,1163.1c-55.709,106.81-97.82,260.93-52.372,412.75a654.133,654.133,0,0,0,67.776,151.96c44.878,73.54,107.385,146.53,174.574,198.17,167.741,128.93,339.217,214.65,571.989,280.3,61.742,17.42,128.1,25.9,193.061,40.05,49.94,10.87,102.46,10.79,155.06,19.5q30.81,1.545,61.62,3.08l88.31,4.11c38.34,6.05,117.88,3.81,154.04-2.05q32.34-1.545,64.69-3.08c52.08-8.49,107.28-7.95,156.09-17.46,87.85-17.1,172.2-27.24,252.62-51.33,356.6-106.85,701.91-288.26,821.53-629.41,10.22-29.15,14.23-62.04,20.54-94.46,7.75-39.85,7.38-95.23,0-134.5-5.16-27.41-5.97-52.29-13.35-77.01-30.67-102.72-82.27-177.07-140.69-250.53-82.92-104.271-193.51-173.181-312.18-242.313C2194.06,633.322,1858.2,560.5,1485.43,560.392Zm847.2,377.846c89.26-.563,133.05,67.552,160.2,129.372,74.98,170.72,89.32,461.91-6.16,625.29-30.42,52.06-60.92,104.49-130.42,117.05-34.72,6.28-61.15-11.53-79.07-23.61-56.69-38.23-87.31-106.31-109.88-178.66-66.12-211.99-33.9-538.86,106.8-644.8C2291.59,949.709,2310.01,948.112,2332.63,938.238Zm-874.92,748.5q91.38,0.525,182.79,1.03-0.525,58.005-1.03,116.02l-291.64-1.02V944.4c10.31-2.851,105.37-3.09,108.85,0Q1457.19,1315.53,1457.71,1686.74ZM1045.92,1063.5v222.81q90.87,0.51,181.76,1.03-0.51,58.005-1.03,116.02H1045.92v286.46h181.76q-0.51,58.53-1.03,117.05-145.8-1.02-291.64-2.05,0.513-429.135,1.027-858.368c167.5-.833,285.363-2.247,292.673,1.027,0.21,24.125,5.14,100.151-2.06,116.021H1045.92Zm829.74,624.27h135.55c14.6,0,37.35-2.86,48.27,2.05,0.21,24.13,5.14,100.16-2.06,116.03q-145.8-.51-291.64-1.03V946.452c17.08-.225,101.26-5.652,108.85,1.027Q1875.14,1317.591,1875.66,1687.77ZM716.278,1404.39H538.623q-0.513,203.265-1.027,406.59c-15.665.22-105.139,2.12-108.852-3.08V950.559H538.623V1287.34H716.278q0.514-169.92,1.027-339.861c17.1-.226,102.953-4.164,108.853,1.027V1807.9q-54.935-.51-109.88-1.03V1404.39ZM2334.69,1069.66c-11.39,5.91-21.56,8.07-30.81,15.4-89.1,70.63-102.25,344.71-60.59,481.55,13.44,44.14,45.72,146.44,107.83,134.51,46.24-8.88,65.42-58.36,81.12-98.57,45.62-116.8,44.67-321.62-1.02-437.4C2414.25,1122.16,2394.97,1069,2334.69,1069.66Zm50.32,1099.66c-29.45,21.73-71.21,31.74-106.8,46.2-81.68,33.21-187.82,73.98-283.43,88.3,0.69,0.35,1.37.69,2.05,1.03q53.4,22.59,106.8,45.18c61.14,25.49,123.42,52.7,189.98,72.9,74.87,22.71,154.97,34.22,235.16,52.36-36.66-63.93-77.03-127.58-106.8-197.13Q2403.49,2223.74,2385.01,2169.32Z"/>
      </g>
    </g>
  </g>
</svg>
