<svg id="V2" xmlns="http://www.w3.org/2000/svg" width="3000" height="3000" viewBox="0 0 3000 3000">
  <defs>
    <style>
      .cls-1 {
        fill-rule: evenodd;
      }
    </style>
  </defs>
  <g id="dep">
    <g id="mes">
      <g id="lex">
        <path id="Lv_2" data-name="Lv 2" class="cls-1" d="M1487.49,472.091c383.75-3.467,698.87,74.892,951.94,204.324,156.11,79.842,293.86,175.9,395.36,310.081,87.2,115.254,190.64,298.694,146.85,515.434-8.56,42.37-16.36,83.4-30.81,120.13-73,185.58-201.98,318.71-353.25,426.1q-53.91,33.885-107.83,67.77-30.285,16.425-60.59,32.85,5.655,19.515,11.3,39.02,14.88,42.09,29.78,84.2c23.7,56.62,59.08,109.63,89.34,161.2,9.23,15.73,47.14,69.26,34.92,87.27-9.85,14.51-34.5,9.18-53.4,5.13q-65.715-12.825-131.45-25.66c-120.89-28.63-224.95-63.71-328.61-106.79q-82.14-36.435-164.3-72.9-61.62,10.785-123.23,21.56-87.285,8.22-174.58,16.43-27.72,1.035-55.45,2.06c-31.58,4.62-103.5,7.2-137.61,2.05q-75.975-4.11-151.98-8.21c-100.11-15.64-194.08-20.45-285.481-43.13-354.873-88.07-652.434-227.02-842.065-479.49-43.895-58.44-81.6-128.13-107.826-203.3-64.2-184-18.805-390.89,59.561-523.65C276.356,802.564,592.154,644.066,968.9,539.857c105.432-29.164,214.242-38.88,333.742-57.5Zm-2.06,88.3-58.53,2.053-163.28,12.322c-132.73,22.91-252.54,41.411-368.659,77.006C593.419,744.209,301.508,904.965,166.882,1163.1c-55.709,106.81-97.82,260.93-52.372,412.75a654.133,654.133,0,0,0,67.776,151.96c44.878,73.54,107.385,146.53,174.574,198.17,167.741,128.93,339.217,214.65,571.989,280.3,61.742,17.42,128.1,25.9,193.061,40.05,49.94,10.87,102.46,10.79,155.06,19.5q30.81,1.545,61.62,3.08l88.31,4.11c38.34,6.05,117.88,3.81,154.04-2.05q32.34-1.545,64.69-3.08c52.08-8.49,107.28-7.95,156.09-17.46,87.85-17.1,172.2-27.24,252.62-51.33,356.6-106.85,701.91-288.26,821.53-629.41,10.22-29.15,14.23-62.04,20.54-94.46,7.75-39.85,7.38-95.23,0-134.5-5.16-27.41-5.97-52.29-13.35-77.01-30.67-102.72-82.27-177.07-140.69-250.53-82.92-104.271-193.51-173.181-312.18-242.313C2194.06,633.322,1858.2,560.5,1485.43,560.392ZM936.037,680.522c65.043,3.419,89.483,52.332,78.043,125.265q-0.51,20.532-1.02,41.07-0.525,42.093-1.03,84.194-11.295,461.489-22.594,923.059H885.718v-1.03q-9.754-431.19-19.511-862.477-1.541-92.913-3.081-185.843c-0.027-29.217-4.681-64.35,7.189-84.194,9.441-15.782,26-31.174,45.184-36.963ZM1534.73,1854.11c-18.83.22-92.69,6.83-103.72-1.03q-10.275-449.67-20.54-899.44-0.51-42.606-1.03-85.221-0.51-23.613-1.02-47.231c-11.78-78.555,6.49-133.016,72.91-140.666,39.52-4.552,68.39,27.8,77.01,55.445,5.17,16.542,3.87,50.5,1.03,68.793q-1.545,80.592-3.08,161.2Q1545.505,1409.99,1534.73,1854.11Zm549.39,1.02q-50.82.51-101.66,1.03c-0.69-.34-1.37-0.69-2.06-1.03q-10.26-449.16-20.53-898.41-0.525-42.093-1.03-84.194-1.035-37.986-2.06-75.98c-0.34-70.059,10.28-106,72.92-115,39.51-5.679,69.57,28.6,78.04,55.445,6.69,21.189,1.03,52.127,1.03,75.98q-1.545,77-3.08,154.014Q2094.9,1411.021,2084.12,1855.13ZM903.176,1916.74c32.357-.27,73.064-4.37,100.634,3.08,5.06,13.55,6.02,125.6-2.05,131.42-8.213,5.09-119.954,5.34-127.338,0q-2.053-1.53-4.107-3.08c-0.309-30.94-8.445-108.22,4.107-129.37Q888.8,1917.77,903.176,1916.74Zm544.264,0q49.8,1.02,99.61,2.05c8.46,13.28,7.43,107.29,3.08,130.4-9.24,5.97-119.76,9.76-130.42,2.05q-2.055-1.53-4.11-3.08c-0.39-30.6-8.35-108.37,4.11-129.37Q1433.57,1917.77,1447.44,1916.74Zm548.37,1.02c19.79-.39,96.87-3.01,102.69,6.16,5.15,8.1,2.42,125.04-3.08,128.35-10.17,6.28-122.49,3.02-130.42-2.05-1.98-19.02-4.25-123.06,4.11-129.38C1975.04,1917.29,1988.69,1920.48,1995.81,1917.76Zm389.2,251.56c-29.45,21.73-71.21,31.74-106.8,46.2-81.68,33.21-187.82,73.98-283.43,88.3,0.69,0.35,1.37.69,2.05,1.03q53.4,22.59,106.8,45.18c61.14,25.49,123.42,52.7,189.98,72.9,74.87,22.71,154.97,34.22,235.16,52.36-36.66-63.93-77.03-127.58-106.8-197.13Q2403.49,2223.74,2385.01,2169.32Z"/>
      </g>
    </g>
  </g>
</svg>
