<svg id="V2" xmlns="http://www.w3.org/2000/svg" width="3000" height="3000" viewBox="0 0 3000 3000">
  <defs>
    <style>
      .cls-1 {
        fill-rule: evenodd;
      }
    </style>
  </defs>
  <g id="dep">
    <g id="mes">
      <g id="lex">
        <path id="lv3" class="cls-1" d="M1471,472c415.14-3.094,751.8,75.083,1013,228,139.4,81.608,261.77,164.817,355,292,78.01,106.43,190.65,295.55,146,498-10.12,45.86-17.48,94.75-34,135-72.3,176.18-192.09,309.45-337,413q-60.99,39-122,78l-62,34,42,126c19.62,46.57,46.49,89.2,72,131,15.43,25.29,58.31,74.96,52,113-9.81,10.47-29.78,12.54-49,8q-68.49-13.5-137-27c-116.88-27.86-227.74-63.1-330-107q-80.985-36.495-162-73l-120,21q-87.99,8.505-176,17-25.5.495-51,1c-27.5,4.45-76.75,11.1-108,6q-86.49-4.995-173-10l-251-33c-366.131-80.79-691.171-222.99-884-478-47.448-62.75-84.962-132.3-116-212-68.044-174.73-15.7-406.2,60-530C289.844,790.886,588.438,653.041,975,537c101.94-30.6,222.06-37.3,334-56Zm-3,89-168,11c-91.83,15.018-178.08,22.6-264,44-355.272,88.489-669.307,226.319-840,499-39.467,63.05-68.282,131.7-89,215l-9,69c-3.727,23.29-5.13,59.2-1,84,6.033,36.23,10.081,69.53,20,101,106.868,339.1,465.122,517.97,811,622,57.773,17.38,121.76,22.7,183,37,50.76,11.86,114.66,13.76,169,23l82,3c62.03,9.83,158.56,11.45,219,1,35.55-6.15,71.5-2.62,103-8l103-9c86.24-17.28,180.26-27.26,261-52,173.57-53.19,333.11-118.57,472-206,49.51-31.17,93.31-69.06,138-105,32.93-26.48,62.95-61.54,89-95,84.13-108.04,184.85-267.8,146-468l-9-60c-30.22-99.36-81.42-174.53-137-248-70.16-92.729-168.7-157.18-270-219C2217.64,641.724,1887.9,561.1,1468,561Zm757,1006,291,21q-1.995,33-4,66-102.495-7.005-205-14c-23.24-3.65-60.58-10.5-83-4q-1.995,75.495-4,151-48.495-.495-97-1-1.995-61.5-4-123c-1.54-10.26,3.66-29.55-2-36q-150.48-10.995-301-22v71q72.495,0.495,145,1v108H1816q-0.495,73.5-1,147-54-.495-108-1V1785H1504q-0.495,73.5-1,147-52.995-.495-106-1V1785q-73.5-.495-147-1,0.495-54,1-108h145V1575l-238-15c-0.02,20.41-7.04,38.04-12,54-20.6,66.33-48.79,120.68-109,147-32.79,14.33-107.081,18.15-129-9-14.231-17.63-17.482-41.16-17-74-31.628,24.3-43.425,66.83-83,84-25.672,11.14-67.086,15.57-98,7-80.81-22.4-95.748-61.22-109-150-5.492-36.79,14.863-67.64,20-98l-99-6c-2.539,49.75-17.875,105.61-6,160,16.227,74.32,48.387,138.54,108,169,19.22,9.82,41.777,13.29,64,20,49.528,14.96,113.248,15.79,167,4,40.591-8.91,83.281-17.43,120-32q22.5-11.505,45-23c0.67,0.33,1.33.67,2,1,3.06,13.26,20.66,29.23,16,44-8.02,10.54-45.88,22.79-60,29-77.806,34.22-203,61.19-300,31-27.906-8.69-63.013-15.82-87-30-63.466-37.51-104.283-97.48-128-175-10.082-32.95-23.67-82.22-16-129,4.231-25.8,8.187-50.73,12-74h-2q-82.992-6.495-166-13,2-32.49,4-65h13l176,12c6.535-24.26,24.711-46.28,38-65,54.444-76.7,124.9-126.46,230-153,210.569-53.18,408.81,72.81,408,266q117.99,8.505,236,17,0.495-16.995,1-34-73.5-.495-147-1,0.495-54,1-108h146V1220h107v146h203q0.495-72.99,1-146h108v146q72.495,0.495,145,1c1.24,31.09,9.03,80.07-1,108H1816q0.495,31.995,1,64l300,21q-7.995-326.97-16-654V847c-11.06-70.02-5.44-153.716,58-163,13.41-1.962,28.89,3.517,38,7,67.03,25.611,44.35,126.655,44,212Q2233.005,1234.965,2225,1567Zm-1122-79c2.12-148.1-160.473-249.56-327-213-91.606,20.11-156.105,58.67-203,123-10.895,14.95-24.547,31.12-30,51q55.494,3.495,111,7c20.745-59.31,140.316-108.96,218-73,27.231,12.6,39.419,41.71,62,59q9-30.99,18-62c22.176-.27,45.1-1.68,63,3q-10.5,48.99-21,98Q1048.495,1484.5,1103,1488Zm-303-64c-25.284,14.54-55.247,14.28-72,37v1l174,12C892.182,1436.86,848,1423.65,800,1424Zm704,51v42q101.49,7.005,203,14v-56H1504Zm-596,65q-79.992-5.505-160-11c-11.385-.46-52.713-6.28-58-2-7.644,14.59-8.223,34.17-12,52-14.974,70.69,2.456,126.37,64,139C827.943,1735.64,907.855,1612.64,908,1540Zm70,6c-3.08,36.75-51.063,158.89-4,176,20.836,7.57,42.51-6.21,55-14,43.87-27.35,65-90,73-153Zm526,38v92h203v-79Q1605.51,1590.505,1504,1584Zm610,260c23.26-.41,106.07-5.18,118,4,8.47,6.52,3.25,114.4-1,125q-60-.495-120-1c-1.33-2-2.67-4-4-6-0.18-15.18-1.01-111.37,3-117C2111.33,1847.33,2112.67,1845.67,2114,1844Zm270,326c-21.51,24.06-69.82,31.19-102,44-89.76,35.73-177.32,68.13-284,90v1h2q66.495,27.99,133,56c56.88,24.17,115.33,48.02,178,67,43.46,13.16,88.54,18.76,135,29q40.5,8.505,81,17c-28.71-60.62-70.33-114.05-98-177Q2406.5,2233.505,2384,2170Z"/>
      </g>
    </g>
  </g>
</svg>
