<svg id="V2" xmlns="http://www.w3.org/2000/svg" width="3000" height="3000" viewBox="0 0 3000 3000">
  <defs>
    <style>
      .cls-1 {
        fill-rule: evenodd;
      }
    </style>
  </defs>
  <g id="dep">
    <g id="mes">
      <g id="lex">
        <path id="Lv_4" data-name="Lv 4" class="cls-1" d="M1487.49,472.091c383.75-3.467,698.87,74.892,951.94,204.324,156.11,79.842,293.86,175.9,395.36,310.081,87.2,115.254,190.64,298.694,146.85,515.434-8.56,42.37-16.36,83.4-30.81,120.13-73,185.58-201.98,318.71-353.25,426.1q-53.91,33.885-107.83,67.77-30.285,16.425-60.59,32.85,5.655,19.515,11.3,39.02,14.88,42.09,29.78,84.2c23.7,56.62,59.08,109.63,89.34,161.2,9.23,15.73,47.14,69.26,34.92,87.27-9.85,14.51-34.5,9.18-53.4,5.13q-65.715-12.825-131.45-25.66c-120.89-28.63-224.95-63.71-328.61-106.79q-82.14-36.435-164.3-72.9-61.62,10.785-123.23,21.56-87.285,8.22-174.58,16.43-27.72,1.035-55.45,2.06c-31.58,4.62-103.5,7.2-137.61,2.05q-75.975-4.11-151.98-8.21c-100.11-15.64-194.08-20.45-285.481-43.13-354.873-88.07-652.434-227.02-842.065-479.49-43.895-58.44-81.6-128.13-107.826-203.3-64.2-184-18.805-390.89,59.561-523.65C276.356,802.564,592.154,644.066,968.9,539.857c105.432-29.164,214.242-38.88,333.742-57.5Zm-2.06,88.3-58.53,2.053-163.28,12.322c-132.73,22.91-252.54,41.411-368.659,77.006C593.419,744.209,301.508,904.965,166.882,1163.1c-55.709,106.81-97.82,260.93-52.372,412.75a654.133,654.133,0,0,0,67.776,151.96c44.878,73.54,107.385,146.53,174.574,198.17,167.741,128.93,339.217,214.65,571.989,280.3,61.742,17.42,128.1,25.9,193.061,40.05,49.94,10.87,102.46,10.79,155.06,19.5q30.81,1.545,61.62,3.08l88.31,4.11c38.34,6.05,117.88,3.81,154.04-2.05q32.34-1.545,64.69-3.08c52.08-8.49,107.28-7.95,156.09-17.46,87.85-17.1,172.2-27.24,252.62-51.33,356.6-106.85,701.91-288.26,821.53-629.41,10.22-29.15,14.23-62.04,20.54-94.46,7.75-39.85,7.38-95.23,0-134.5-5.16-27.41-5.97-52.29-13.35-77.01-30.67-102.72-82.27-177.07-140.69-250.53-82.92-104.271-193.51-173.181-312.18-242.313C2194.06,633.322,1858.2,560.5,1485.43,560.392ZM2219.67,1786.34q-48.255-.51-96.53-1.03-10.26-420.93-20.53-841.938-0.525-46.2-1.03-92.408c-11.05-73.549-4.76-176.239,72.91-165.308,59.31,8.347,67.78,43.74,67.78,109.863q-1.035,35.419-2.06,70.846-0.51,44.147-1.03,88.3Q2229.43,1370.457,2219.67,1786.34ZM820,1219.57c139.488-1.91,183.4,24.53,258.784,85.22,22.7,18.28,44.25,44.61,56.48,72.9,8.98,20.77,11.75,42.96,17.45,67.77,9.72,42.28,10.86,100.57,0,143.74-20.41,81.15-49.93,140.81-120.14,172.5-32.962,14.87-93.849,13.5-120.152-7.19-10-7.86-17.569-28.88-20.538-43.12v-35.94c-30.465,28.91-44.2,68.08-86.26,86.25-58.159,25.11-139.109,5.02-168.414-32.86-16.837-21.76-27.1-53.02-32.861-85.22-6.693-37.39,4.772-77.73,13.35-105.76,25.71-84,66.156-140.37,155.063-161.2,23.016-5.39,54.928-7.06,78.046,0,49.705,15.2,51.608,39.59,83.179,66.74q9.242-31.305,18.485-62.63c13.507-.26,52.052-3.88,61.612,3.08q-28.235,126.8-56.478,253.61c-7.545,31.57-13.479,72.58,15.4,84.19,27.724,11.15,63.614-13.46,74.964-27.72,39.87-50.09,71.84-138.97,53.4-236.15-29.56-155.78-198.678-225.89-375.849-170.44-61.751,19.32-115.871,59.17-150.956,105.75-23.017,30.56-39.54,64.72-50.319,107.81-35.736,142.88-.9,280.55,90.368,337.8,19.564,12.28,41.678,17.21,66.749,24.65,35.544,10.54,90.384,19.85,137.606,11.29,25.813-4.68,52.566-9.29,75.992-15.4,43.071-11.24,91.945-21.79,123.229-46.2,1.03,0.68,2.05,1.36,3.08,2.05,3.95,12.21,20.13,33.67,16.43,44.15q-36.45,16.935-72.91,33.88c-52.175,20.58-108.714,26.52-171.493,36.97-50.248,8.36-100.359-8.64-135.552-19.51-26.883-8.31-51.516-14.36-72.911-27.73-95.071-59.41-167.328-209.08-125.283-371.68,12.955-50.1,36.132-94.81,62.642-132.45,46.373-65.85,109.941-116.42,196.139-142.72l67.776-13.35Q803.051,1221.1,820,1219.57ZM1503.92,1366.4h203.33q0.51-72.9,1.02-145.8h106.8v145.8l145.82,1.02c0.19,22.1,4.69,94.16-1.02,106.79h-144.8v202.27l145.82,1.02v106.79H1815.07q-0.51,73.395-1.03,146.82l-106.79-1.02v-145.8H1503.92q-0.51,73.395-1.03,146.82l-105.77-1.02v-145.8q-73.425-.525-146.85-1.03,0.51-53.385,1.03-106.78h144.79q0.51-101.13,1.03-202.27-73.425-.525-146.85-1.03,0.51-53.385,1.03-106.78h145.82V1220.6h106.8v145.8Zm-704.462,57.49c-15.845,6.59-31.8,6.48-45.184,14.38-41.693,24.6-62.711,71.14-75.991,124.24-18.567,74.23-6.607,138.39,56.48,154.01,66.794,16.53,118.679-37,141.713-75.98q13.348-35.415,26.7-70.85c16.616-48.93,7.756-107.96-26.7-131.42C858.165,1425.8,830.291,1423.53,799.458,1423.89Zm704.462,50.32v202.27h203.33V1474.21H1503.92Zm611.01,370.65c20-.33,112.63-3.42,118.09,5.14,3.38,4.63,3.38,113.42,0,118.08q-1.53,2.04-3.08,4.1l-118.09-1.02q-2.055-2.58-4.11-5.14,0.51-57.495,1.03-114.99C2110.62,1847.4,2112.12,1847.24,2114.93,1844.86Zm270.08,324.46c-29.45,21.73-71.21,31.74-106.8,46.2-81.68,33.21-187.82,73.98-283.43,88.3,0.69,0.35,1.37.69,2.05,1.03q53.4,22.59,106.8,45.18c61.14,25.49,123.42,52.7,189.98,72.9,74.87,22.71,154.97,34.22,235.16,52.36-36.66-63.93-77.03-127.58-106.8-197.13Q2403.49,2223.74,2385.01,2169.32Z"/>
      </g>
    </g>
  </g>
</svg>
