<svg id="V2" xmlns="http://www.w3.org/2000/svg" width="3000" height="3000" viewBox="0 0 3000 3000">
  <defs>
    <style>
      .cls-1 {
        fill-rule: evenodd;
      }
    </style>
  </defs>
  <g id="dep">
    <g id="mes">
      <path id="com" class="cls-1" d="M1487.96,471.1c383.88-3.469,699.1,74.929,952.26,204.424,156.16,79.88,293.94,175.987,395.48,310.23,87.22,115.31,190.7,298.84,146.9,515.68-8.56,42.39-16.37,83.44-30.82,120.19-73.03,185.67-202.05,318.87-353.37,426.31q-53.925,33.9-107.86,67.8-30.3,16.425-60.61,32.87,5.655,19.515,11.3,39.04,14.9,42.105,29.79,84.23c23.71,56.65,59.1,109.69,89.37,161.28,9.24,15.74,47.16,69.3,34.93,87.32-9.85,14.51-34.51,9.18-53.42,5.13q-65.73-12.84-131.48-25.68c-120.93-28.64-225.03-63.73-328.72-106.83l-164.36-72.94-123.27,21.57-174.63,16.44q-27.735,1.02-55.47,2.05c-31.59,4.64-103.53,7.21-137.65,2.06l-152.03-8.22c-100.14-15.64-194.15-20.45-285.575-43.14-354.988-88.12-652.644-227.14-842.337-479.73-43.908-58.47-81.622-128.19-107.86-203.4-64.222-184.09-18.811-391.08,59.58-523.9C276.443,801.729,592.342,643.155,969.208,538.9c105.462-29.177,214.312-38.9,333.852-57.526Zm-2.05,88.344-58.55,2.055q-81.66,6.162-163.33,12.327c-132.78,22.921-252.63,41.431-368.784,77.043C593.608,743.346,301.6,904.18,166.933,1162.44c-55.726,106.87-97.851,261.05-52.389,412.95a654.665,654.665,0,0,0,67.8,152.04c44.893,73.56,107.42,146.59,174.631,198.26,167.794,128.99,339.326,214.75,572.172,280.44,61.763,17.42,128.145,25.91,193.125,40.06,49.95,10.88,102.49,10.8,155.11,19.52q30.81,1.53,61.63,3.08l88.35,4.11c38.35,6.05,117.92,3.81,154.08-2.06q32.355-1.53,64.72-3.08c52.1-8.49,107.31-7.95,156.14-17.46,87.88-17.12,172.25-27.26,252.7-51.36,356.72-106.9,702.13-288.4,821.79-629.71,10.23-29.17,14.24-62.07,20.55-94.51,7.75-39.87,7.39-95.27,0-134.57-5.16-27.42-5.97-52.31-13.36-77.04-30.68-102.77-82.29-177.16-140.73-250.65-82.95-104.325-193.57-173.267-312.28-242.433C2194.77,632.406,1858.79,559.549,1485.91,559.44ZM751.433,1109.02c147.1-2.31,236.815,74,280.437,175.66,26.25,61.17,30.32,156.39,3.08,220.86-45.016,106.56-121.7,157.87-252.7,179.77-48.834,8.16-98.308-11.15-129.432-24.66-112.083-48.61-220.788-197.63-156.141-363.64,31.612-81.18,90.894-138.35,171.549-170.53q27.219-7.185,54.444-14.38Q737.051,1110.555,751.433,1109.02Zm719.067,1.03c149.26-2.27,239.37,71.75,283.52,174.63,25.97,60.51,30.48,155.08,4.11,219.83-34.92,85.75-102.41,144.35-195.18,172.58q-31.32,4.62-62.66,9.25c-45.57,7.58-106.04-14.76-133.54-28.77-102.49-52.2-204.16-179.93-153.06-343.1,28.66-91.52,92.48-153.95,178.74-187.99l50.34-13.35Q1456.63,1111.585,1470.5,1110.05Zm723.18,0c148.38-2.26,240.5,71.6,283.52,174.63,28.28,67.76,30.9,157.85,1.02,227.02-35.32,81.78-102.06,137.99-192.09,165.39q-31.335,4.62-62.66,9.25c-45.6,7.59-106.03-14.75-133.54-28.77-102.49-52.21-204.17-179.91-153.06-343.1,28.67-91.55,92.46-153.94,178.74-187.99q25.155-6.675,50.33-13.35Q2179.815,1111.585,2193.68,1110.05Zm192.09,1059.1c-29.46,21.74-71.23,31.75-106.83,46.22-81.71,33.22-187.88,74.01-283.52,88.35,0.69,0.34,1.37.68,2.05,1.02q53.415,22.605,106.84,45.2c61.15,25.51,123.45,52.73,190.04,72.94,74.89,22.72,155.02,34.23,235.24,52.39-36.68-63.97-77.06-127.65-106.84-197.24Q2404.27,2223.595,2385.77,2169.15Z"/>
    </g>
  </g>
</svg>
