<svg id="V2" xmlns="http://www.w3.org/2000/svg" width="3000" height="3000" viewBox="0 0 3000 3000">
  <defs>
    <style>
      .cls-1 {
        fill-rule: evenodd;
      }
    </style>
  </defs>
  <g id="dep">
    <g id="mes">
      <path id="Lv2" class="cls-1" d="M1486.01,474.08c383.37-3.464,698.17,74.82,950.99,204.127,155.96,79.765,293.56,175.732,394.97,309.781,87.1,115.152,190.44,298.4,146.7,514.932-8.55,42.33-16.34,83.32-30.78,120.02-72.93,185.4-201.78,318.4-352.9,425.69q-53.85,33.84-107.72,67.7-30.255,16.41-60.53,32.82,5.64,19.485,11.29,38.98,14.865,42.06,29.75,84.11c23.67,56.57,59.02,109.54,89.25,161.05,9.22,15.72,47.09,69.19,34.88,87.19-9.84,14.49-34.46,9.17-53.35,5.13q-65.64-12.825-131.31-25.65c-120.77-28.6-224.73-63.64-328.28-106.68q-82.065-36.405-164.14-72.82-61.545,10.77-123.11,21.54l-174.4,16.41q-27.69,1.02-55.4,2.05c-31.54,4.62-103.39,7.19-137.46,2.05q-75.915-4.1-151.84-8.2c-100-15.62-193.88-20.43-285.191-43.09-354.519-87.98-651.782-226.8-841.223-479.03-43.851-58.38-81.515-128-107.718-203.1-64.137-183.82-18.786-390.51,59.5-523.14,178.1-301.716,493.581-460.061,869.949-564.169,105.332-29.136,214.032-38.842,333.412-57.443Zm-2.05,88.216-58.48,2.051-163.11,12.31c-132.61,22.888-252.29,41.371-368.3,76.932-301.24,92.346-592.86,252.947-727.351,510.831C111.07,1271.13,69,1425.1,114.4,1576.78a653.721,653.721,0,0,0,67.708,151.81c44.834,73.46,107.278,146.38,174.4,197.97,167.574,128.8,338.878,214.45,571.417,280.04,61.681,17.39,127.972,25.87,192.862,40,49.89,10.87,102.37,10.79,154.91,19.49q30.78,1.545,61.56,3.08,44.1,2.04,88.22,4.1c38.31,6.04,117.77,3.81,153.88-2.05q32.31-1.545,64.63-3.08c52.04-8.48,107.18-7.94,155.94-17.44,87.76-17.09,172.02-27.21,252.37-51.28,356.24-106.75,701.2-287.98,820.7-628.8,10.21-29.12,14.22-61.98,20.52-94.37,7.74-39.81,7.38-95.13,0-134.37-5.15-27.39-5.96-52.24-13.34-76.94-30.64-102.61-82.19-176.9-140.54-250.28-82.84-104.174-193.32-173.017-311.87-242.083C2191.88,635.156,1856.35,562.405,1483.96,562.3ZM2031.78,642.3c13.19,5.953,21.08,20.062,31.8,28.722q37.44,35.385,74.89,70.778l203.12,192.843-6.15,6.155c-3.9,7.935-15.58,17.385-22.57,22.567l-5.13-5.129q-13.845-12.821-27.7-25.644-49.755-47.181-99.51-94.371-58.47,56.925-116.95,113.86l15.39,16.412c13.54,6.43,83.9,74.922,85.15,90.272-8.53,19.96-29.6,32.72-44.12,47.18q-51.285,50.775-102.58,101.55-215.94,212.82-431.9,425.69-153.36,40.515-306.74,81.04-173.865,165.135-347.774,330.29-33.851,32.31-67.709,64.63c-9.339,9.32-19.123,23.25-31.8,28.72v-1.03c71.94-136.26,199.965-217.8,293.405-332.34q26.67-27.18,53.34-54.37,33.855-33.33,67.71-66.67,41.55-151.29,83.1-302.6,152.835-150.27,305.71-300.55,101.04-99.495,202.1-199c15.21-15.211,55.14-66.233,78.99-66.674,35.38,18.07,69.46,69.3,102.59,94.37q58.47-56.41,116.95-112.834-3.585-4.1-7.18-8.206c-28.82-13.73-65.64-65.614-92.33-87.19-9.21-7.443-29.38-21.969-30.77-32.824Q2018.43,655.128,2031.78,642.3ZM1910.72,852.587q-274.9,271.8-549.87,543.653c27.64,10.58,48.41,28.4,82.07,35.9q74.88,8.2,149.78,16.42,51.285,16.41,102.59,32.82l197.99-195.92q-9.735-10.26-19.49-20.52c-11.82-5.7-77.08-70.86-76.94-81.03,1.03-1.37,2.05-2.74,3.08-4.1,2.05-.69,4.1-1.37,6.15-2.06,38.05,26.23,64.1,66.66,100.54,94.37q26.67-26.655,53.35-53.34-48.21-46.665-96.44-93.34c0.01-7.53,1.29-8.33,4.11-12.31h6.15c12.49,4.02,21.03,18.28,29.75,26.67l69.76,65.65q3.6-3.585,7.18-7.18,20.01-18.975,40.01-37.95-5.13-5.64-10.26-11.29-43.59-41.535-87.2-83.08c0.22-7.84,1.96-8.1,5.13-12.31h1.03l6.15,1.02q48.735,46.155,97.46,92.32,13.86-13.845,27.7-27.69,32.31-31.29,64.63-62.58-6.66-7.17-13.33-14.36Q2011.27,947.481,1910.72,852.587ZM2382.63,2169.67c-29.42,21.71-71.14,31.7-106.69,46.16-81.6,33.17-187.63,73.9-283.15,88.21,0.69,0.35,1.37.69,2.06,1.03q53.34,22.56,106.69,45.13c61.07,25.47,123.29,52.66,189.79,72.83,74.79,22.69,154.81,34.19,234.92,52.32-36.62-63.88-76.95-127.46-106.69-196.95Q2401.1,2224.04,2382.63,2169.67Z"/>
    </g>
  </g>
</svg>
