<svg id="V2" xmlns="http://www.w3.org/2000/svg" width="3000" height="3000" viewBox="0 0 3000 3000">
  <defs>
    <style>
      .cls-1 {
        fill-rule: evenodd;
      }
    </style>
  </defs>
  <g id="dis">
    <path id="Lv1" class="cls-1" d="M2021.06,104.031c313.27-4.371,323.85,424.81,33.17,458.3-218.21,25.139-321.61-263.681-177.91-392.97C1917.59,132.222,1955.63,120.276,2021.06,104.031ZM1528.54,449.765c178.83,37.61,263.22,157.662,370.89,265.33,85.98,85.971,330.92,292.265,364.87,402.015,61.51,198.82-76.99,299.1-164.84,386.94l-718.68,709.56Q1145.6,2450.265,910.373,2686.98c-55.277,35.5-157.959,25.33-217.111,4.02-94.821-34.15-149.887-127.16-221.131-186.93Q356.55,2388,240.948,2271.9q-90.454-98.475-180.926-196.99c-23.817-37.99-56.89-88.98-44.226-154.77C36.972,1810.12,277.678,1603,357.544,1523.15Q693.732,1187,1029.99,850.776,1149.075,733.7,1268.2,616.6c60.6-50.715,103.35-112.579,178.92-149.751ZM2076.34,775.4c127.5,8.756,225.05,65.03,266.36,158.8q-20.1,34.671-40.2,69.346-12.57,37.185-25.13,74.37c-0.67-.33-1.34-0.67-2.01-1-23.87-63.26-209.06-243.434-265.36-290.457Zm558.86,27.136c75.87,2.023,134.68,20.619,189.97,55.277,289,181.169,166.1,630.859-172.59,647.269-176.36,5.43-287.62-98.64-337.79-213.39-9.65-62.06-10.92-129.81-24.63-186.59,7.16-74.23,42.1-143.252,96.77-199.047C2453.33,838.291,2559.33,800.511,2635.2,802.534ZM2282.39,1329.17c30.71-46.27-15.78,209.88-47.24,240.21-193.9,185.21-991.69,989.89-1020.22,1017.1q-140.7,142.2-281.438,284.43c-28.5,17.87-81.55,20.43-113.582,24.12-56.441,6.49-121.99-21-155.8-44.23q-110.052-105.51-220.126-211.05L136.413,2327.18c-55.456-66.45-82.719-116.29-105.54-216.08q-2.01-21.615-4.02-43.22c31,82.85,196.177,225.3,261.337,290.46,97.918,97.9,272.74,312.44,400.047,358.79,70.35,25.62,172.027,26.84,236.209-7.03q399.5-398.955,799.085-798l404.07-399C2184.44,1466.52,2253.31,1373,2282.39,1329.17Zm31.16,3.02c22.84,64.95,134.53,143.85,145.26,144.15,11.95,34.64,13.21,79.32,10.51,106.69-14.27,120.38-83.75,189.87-144.56,224.41-57.67,21.19-129.15,70.43-280.58-4.89,15.69-14.91,206.98-188.01,243.24-267.34C2313.73,1477.66,2315.77,1405.28,2313.55,1332.19ZM1862.24,1593.5q-111.045,106.53-222.13,213.07-272.37,267.81-544.79,535.68c-100.4,93.62-192.512,272.16-399.042,210.06-143.209-43.06-362.595-306.27-470.408-414.08q-49.749-47.73-99.509-95.48l-4.02,6.03q83.921,87.435,167.859,174.88c74.634,86.69,257.311,291.2,356.826,337.69,75.023,35.05,182.744,43.57,259.327,3.02q202.51-205.515,405.077-411.06,212.055-212.55,424.17-425.13C1755.82,1707.96,1869.3,1603.26,1862.24,1593.5Z"/>
  </g>
</svg>
