<svg id="V2" xmlns="http://www.w3.org/2000/svg" width="3000" height="3000" viewBox="0 0 3000 3000">
  <defs>
    <style>
      .cls-1 {
        fill-rule: evenodd;
      }
    </style>
  </defs>
  <g id="dis">
    <path id="Lv2" class="cls-1" d="M1031.29,309c58.7-.72,142.3,52.166,127.14,114.139-12.52,51.2-42.82,95.468-29.03,162.2,14.81,71.667,62.87,108.3,121.13,139.17,119.98,63.561,310.42-63.245,283.32-187.229-6.22-28.454-9.5-56.032-23.02-77.094-11.25-17.511-32.77-24.85-38.05-49.06-11.97-54.9,42.54-91.561,92.11-75.091,20.96,6.968,47.6,32.593,45.05,62.076-2.22,25.591-18.82,41.047-28.04,56.068-26.88,43.834-30.65,129.308-19.02,189.231,25.89,133.326,116.29,193.593,222.25,245.3,22.08,10.776,46.28,7.387,73.08,14.017,25.29,6.256,59.38,3.209,84.1-1,138.28-23.558,224.76-94.759,272.3-208.254,27.88-66.567,8.46-142.745,58.06-191.233,91.38-89.324,231.75-31.346,252.29,61.074s-62.95,154.469-86.1,163.2-47.17,3.042-82.09,11.014-64.08,38.716-96.11,58.071c-173.63,118.58-357.23,416.516-254.28,721.876,66.96,198.64,194.38,349.73,379.42,428.53,44.99,19.15,97.28,27.15,145.16,47.05q23.025,3.015,46.05,6.01c103.21,26.69,200.22-30.2,293.33,16.02,73.73,36.61,148.79,145.01,98.11,252.31-60.3,127.66-226.71,162.85-349.39,67.08-25.57-19.96-46-57.12-57.06-91.11q-2.505-21.03-5.01-42.05c-16.72-45.79-61.6-94.9-99.11-121.15-199.21-139.44-439.74-91.2-565.63,83.1-27.58,38.19-35.47,81.59-56.06,130.16q-4.005,31.035-8.01,62.08h-2c-44.8-180.27-174.86-281.98-373.42-309.38-53.05-7.32-118.49,2.35-158.18,19.02-97.83,41.09-160.44,92.06-219.24,171.21-42.22,56.83-65.97,212.78-64.07,228.28s11.34,28.04,17.02,42.05c14.05,36.23.26,90.39-16.02,113.14-39.54,55.25-141.322,100.95-219.245,47.06-67.593-46.75-106.027-146.47-33.037-214.26,56.223-52.22,98.073-49.36,116.632-54.33s46.886-35.45,68.574-52.81c149.886-125.9,232.606-432.53,108.116-648.79-63.623-110.53-147.973-192.11-263.289-245.3q-49.048-16.005-98.109-32.04c-27.452-11.73-62.13-6.48-95.106-11.01-43.71-6-106.566-1.95-144.161,11.01-39.379,13.58-65.26,5-114.127,41.05s-69.944,59.17-139.155,70.09C81.241,1549.12-33.545,1403.94,34.179,1298.21c36.542-57.05,146.379-126.34,235.262-68.09,101.705,66.67,163.41,123.29,316.353,145.18l70.078,5.01c212.27-29.94,291.665-80.41,403.448-209.26,122.89-141.64,133.92-439.739,18.02-594.724-9.53-12.739-23.46-32.284-37.04-41.05q-21.015-5.506-42.046-11.013c-32.149-9.895-56.455-36.267-71.08-64.079-30.955-58.87,19.45-117.126,54.061-138.168C995.816,313.151,1012.97,315.042,1031.29,309Z"/>
  </g>
</svg>
