<svg id="V2" xmlns="http://www.w3.org/2000/svg" width="3000" height="3000" viewBox="0 0 3000 3000">
  <defs>
    <style>
      .cls-1 {
        fill-rule: evenodd;
      }
    </style>
  </defs>
  <g id="dis">
    <path id="Lv3" class="cls-1" d="M1462.66,10.166c712.36-10.04,1218.12,432.567,1419.42,933.44,84.14,209.345,138.29,518.035,86.86,804.175-19.31,107.42-48.54,206.88-83.68,299.85-168.38,445.38-563.95,786.2-1060.33,905.89-86.11,20.76-180.14,23.63-277.52,34.96-50.53,5.88-107.88.33-152.54-5.29q-77.85-8.475-155.71-16.96c-115.69-22.99-224.82-55.78-322.018-97.47C518.789,2697.9,218.058,2384.29,83.5,1950.15c-57.581-185.78-95.442-448.69-54.023-683.39C47.4,1165.2,70.522,1071.02,103.626,982.807,267.807,545.335,586.1,254.02,1024.13,89.63c87.91-32.991,182.75-50.937,288.12-66.75Zm391.93,297.726-58.26,10.6c-75.31,23.733-133.55,79.819-158.89,153.63-56.61,164.923,79.98,348.222,248.93,325.274C2204.09,754.235,2181.82,305.1,1854.59,307.891ZM842.994,490.129l-58.26,10.595c-74.965,23.383-130.689,77.953-157.83,149.393C564.615,814.075,704.223,1002.8,874.772,979.629,1191.93,936.548,1169.48,487.351,842.994,490.129ZM2535.7,1054.85l-61.44,12.72c-74.83,28.46-130.42,82.12-154.65,161.05-49.39,160.91,87.53,336.8,246.81,315.73C2890.88,1501.44,2870.09,1052.05,2535.7,1054.85ZM1391.69,1263.58q-27,4.77-54.02,9.54c-75.63,23.36-132.4,76.7-159.95,148.33-63.65,165.48,76.05,354.82,246.81,331.63C1741.8,1709.98,1720.46,1260.79,1391.69,1263.58Zm-1014.773,3.18q-25.42,4.23-50.845,8.48c-77.2,23.08-135.123,75.96-163.127,148.33-63.571,164.27,73.689,356.06,245.75,332.69C726.892,1713.04,705.061,1263.97,376.917,1266.76ZM2134.24,1962.87q-28.6,4.755-57.2,9.53c-75.39,23.21-131.77,75.7-159.95,146.22-66.37,166.06,74.52,357.29,247.87,333.75C2480.12,2409.56,2456.36,1960.13,2134.24,1962.87ZM991.291,2173.71l-54.022,9.54c-75.4,23.2-132.436,76.1-159.95,147.27-63.481,164.2,73.652,356.05,245.751,332.69C1341.43,2620,1319.46,2170.93,991.291,2173.71Z"/>
  </g>
</svg>
