<svg id="V2" xmlns="http://www.w3.org/2000/svg" width="3000" height="3000" viewBox="0 0 3000 3000">
  <defs>
    <style>
      .cls-1 {
        fill-rule: evenodd;
      }
    </style>
  </defs>
  <g id="dis">
    <path id="Lv4" class="cls-1" d="M1493.58,12q33.81,142.836,67.62,285.7c47.33,194.7,97.58,392.936,165.61,572.779,84.7,223.892,176.34,440.262,289.82,639.032,81.1,142.04,162.09,268.45,212.53,441.66,126.11,433-158.14,845.27-430.58,966.13-81.72,36.25-164.25,50.51-271.88,66.25-128.52,18.8-284.34-42.55-358.82-85.57-243.4-140.6-492.318-459.34-411.268-881.94,35.416-184.66,118.189-310.15,191.832-455.47,94.636-186.74,183.046-378.76,262.216-579.677,83.43-211.72,139.22-443.469,205.63-670.772Q1454.93,161.075,1493.58,12Z"/>
  </g>
</svg>
