<svg id="V2" xmlns="http://www.w3.org/2000/svg" width="3000" height="3000" viewBox="0 0 3000 3000">
  <defs>
    <style>
      .cls-1 {
        fill-rule: evenodd;
      }
    </style>
  </defs>
  <g id="dis">
    <path id="Lv5" class="cls-1" d="M1590.18,11c293.38-2.429,326.35,359.011,428.12,557.194,36.77,71.592,101.14,101.875,147.95,160.548,50.13,62.831,95.36,139.764,129.07,217.211,36.84,84.647,47.14,203.977,23.61,310.077-11.39,51.35-15.61,100.4-33.06,144.81-48.29,122.94-148.35,216.71-256.55,280.17-33.34,19.55-77.91,31-119.62,40.92l-73.98,12.6v1.57c184.12-1.33,295.8-77.98,388.77-174.71q26.76-33.06,53.51-66.11c308.11,72.9,461.58,288.15,576.07,554.04,20.8,48.3,42.78,99.19,56.67,154.26,32.75,129.9-11.65,269.53-59.81,346.28-143.91,229.29-496.64,347.84-809.02,410.81-74.62,15.04-156.29,8.8-236.09,22.03q-36.99.8-73.98,1.58-89.715,2.355-179.43,4.72H1287.98c-104.53-17.08-213.01-5.61-313.216-23.61-309.969-55.68-625-110.22-779.11-321.1-35.3-48.3-63.155-103.64-86.569-163.69-48.683-124.87-36.014-261.02,9.444-376.19,82.481-208.96,213.873-398.95,396.639-508.4,60.693-36.34,138.242-72.14,218.78-84.99,73.005,111.19,313.172,259.33,492.652,262.86v-3.15c-199.7-46.82-442.783-194.78-514.687-368.32-43.371-104.67-53.885-249.44,6.295-346.28C856.45,833.678,1175.36,667.517,1475.28,607.544c48.45-9.688,109.82,3.02,154.25,0,0.53-1.049,1.05-2.1,1.58-3.148l-3.15-4.722-102.31-12.592-94.44,4.722c0.53-1.049,1.05-2.1,1.58-3.148,83.17-32.348,245.83-197.827,188.87-335.261-25.63-61.85-121.41-92.4-190.45-50.368-26.4,16.071-38.46,43.714-59.81,64.534-11.66-14.726-8.59-70.432-4.72-92.866,4.04-23.444,3.21-42.554,11.02-61.386,22.08-53.256,96.61-76.732,155.82-92.865Q1561.855,15.722,1590.18,11Z"/>
  </g>
</svg>
