<svg id="V2" xmlns="http://www.w3.org/2000/svg" width="3000" height="3000" viewBox="0 0 3000 3000">
  <defs>
    <style>
      .cls-1 {
        fill-rule: evenodd;
      }
    </style>
  </defs>
  <g id="edu">
    <g id="head">
      <path id="Lv_-2" data-name="Lv -2" class="cls-1" d="M1384.41,696.908c708.45-11.48,1198.5,359.162,1410.18,839.272,39.62,89.86,61.23,188.68,97.63,285.78q-141-3.615-282.04-7.24-25.3-124.785-50.62-249.6-72.3,14.46-144.63,28.94,18.075,106.7,36.16,213.43l-3.62,3.62c-124.53,1.76-443.72-13.67-527.91-54.27q10.845-104.895,21.69-209.81-74.115-7.245-148.25-14.47-12.645,99.465-25.31,198.96h-3.61c-125.61-24.39-239.35-68.43-339.89-119.38v-10.85q56.04-81.39,112.09-162.79l-122.94-86.82c-2.41,1.21-4.82,2.41-7.23,3.62q-61.47,90.42-122.94,180.88c-109.39-54.66-207.89-132.78-303.73-202.59-30.45-22.18-97.485-51.7-101.243-86.82,35.087-27.79,100.16-98.3,112.091-144.7q-56.04-45.21-112.091-90.44l-21.7,18.09q-52.423,65.115-104.858,130.23c-32.343-21.37-175.966-138.1-169.945-159.17L737.179,895.872,983.056,780.111,1225.32,715ZM2917.53,2408H35.706C3.87,1984.03,61.511,1670.69,223.729,1402.33c53.77-88.96,120.469-173.21,188.024-249.61,19.87-22.47,85.818-62.39,83.165-90.44q101.234,83.19,202.486,166.4-7.23,7.245-14.463,14.48-59.655,75.96-119.323,151.93,1.807,7.23,3.617,14.47c43.832,20.38,67.133,68.86,115.706,83.2q66.887-83.19,133.786-166.4,113.889,83.19,227.8,166.4,93.99,59.685,188.02,119.38-3.615,3.615-7.23,7.24-47.01,74.145-94.01,148.32,63.27,39.78,126.55,79.58,56.04-81.39,112.09-162.79c120.39,55.99,248.24,88.43,386.9,137.47q-9.045,104.895-18.08,209.82,74.115,5.415,148.25,10.85,12.645-95.85,25.31-191.73,177.15,19.89,354.35,39.79,103.035,7.245,206.1,14.47,16.275,90.435,32.54,180.88,74.13-14.475,148.25-28.94-12.645-74.16-25.31-148.32c1.21-1.2,2.41-2.41,3.62-3.62q139.2,1.815,278.42,3.62,9.03,90.435,18.08,180.88C2944.87,2196.74,2922.1,2304.9,2917.53,2408Z"/>
    </g>
  </g>
</svg>
