<svg id="V2" xmlns="http://www.w3.org/2000/svg" width="3000" height="3000" viewBox="0 0 3000 3000">
  <defs>
    <style>
      .cls-1 {
        fill-rule: evenodd;
      }
    </style>
  </defs>
  <g id="edu">
    <g id="head">
      <path id="Lv_1" data-name="Lv 1" class="cls-1" d="M2917.53,2408H35.706c-11.055-150.83-28.967-335.59,0-484.75,103.313-532,397.12-899.55,838.875-1092.493,214.929-93.876,552.329-185.468,867.8-112.144,131.83,30.639,256.98,69.585,365.2,123q-72.3-121.176-144.63-242.374c1.2-2.412,2.41-4.824,3.61-7.235L2476.4,892.255Q2727.68,742.142,2979,592c-14.56,69.659-79.9,139.589-115.71,195.346q-92.19,155.539-184.4,311.1,110.265,188.1,220.56,376.23c21.19,35.44,78.99,96.33,75.93,137.46l-209.72-126.61C2905.51,1725.07,2933.04,2045.84,2917.53,2408ZM2118.43,848.844c4.64,55.3,109.78,197.486,144.63,253.226q-113.88,191.715-227.79,383.46c-16.62,25.92-80.42,104.03-68.71,126.61q3.63-3.615,7.24-7.23,247.65-146.505,495.37-293.02c52.9,12.66,268.23,172.52,289.26,159.17C2647.35,1248.38,2362.91,929.451,2118.43,848.844Z"/>
    </g>
  </g>
</svg>
