<svg id="V2" xmlns="http://www.w3.org/2000/svg" width="3000" height="3000" viewBox="0 0 3000 3000">
  <defs>
    <style>
      .cls-1 {
        fill-rule: evenodd;
      }
    </style>
  </defs>
  <g id="edu">
    <path id="Lv_-1" data-name="Lv -1" class="cls-1" d="M1690.75,15c60.41,7.714,175.43,527.2,202.63,623.273q226.68,833.485,453.4,1667.127c17.98,66.86,154.12,527.66,134.24,557.4q-91.17,26.61-182.37,53.21c-529.13,122.97-1126.36,75.22-1575.483-76.01-62.1-20.91-174.133-35.94-205.167-88.68Q954.887,1715.165,1391.86,678.811C1442.73,561,1608.9,61.253,1690.75,15ZM1239.88,1451.57c-34.85,17.63-262.743,863.59-253.288,957.71,3.4,33.84,17.808,52.4,48.128,58.28C1721.42,2600.57,2113.12,1440.38,1239.88,1451.57Zm58.26,111.48c661.95,73.42,216.89,874.94-187.43,790.49Q1204.415,1958.335,1298.14,1563.05Z"/>
  </g>
</svg>
