<svg id="V2" xmlns="http://www.w3.org/2000/svg" width="3000" height="3000" viewBox="0 0 3000 3000">
  <defs>
    <style>
      .cls-1 {
        fill-rule: evenodd;
      }
    </style>
  </defs>
  <g id="edu">
    <path id="Lv2" class="cls-1" d="M803.143,181Q1439.949,291.795,2076.88,402.61c249.04,54.415,713.39,130.65,747.79,142.975-29.72,12.451-82.42,35.733-221.83,71.487-68.18,11.238-141.88-5.144-196.79-14.3-220.82-36.81-370.34-76.251-533.11-157.272q-44.715,246.606-89.45,493.263c-13.37,61.364-7.24,170.444-42.93,214.464q-67.98-10.725-135.96-21.45v-3.57Q1669,777.953,1733.4,427.631c-307.74,9.369-538.73-25.841-758.517-125.1C920.964,278.177,812.964,234.317,803.143,181ZM1804.96,302.528c42.62,4.553,62.73,19.232,78.72,50.041q-1.8,3.575-3.58,7.149L1751.29,334.7q7.155-8.934,14.31-17.872Q1785.28,309.679,1804.96,302.528Zm-404.3,843.552c56.55-.83,125.92-5.81,171.74,7.15q-1.8,3.57-3.58,7.15c-276.84,107.1-488.3,327.63-597.514,604.06-40.016,101.29-54,226.49-78.715,339.57q-48.3,316.3-96.6,632.66-139.525-25.02-279.078-50.04C340.02,2637.67,160.65,2567.13,16,2479.32c26.621-561.18,499.218-1043.51,915.948-1222.44,86.822-37.27,182.142-63.61,282.652-85.78Q1307.63,1158.59,1400.66,1146.08Zm225.41,10.72c107.97,1.95,181.8,118.01,232.56,182.29,186.81,236.57,225.4,623.12,225.41,1047.29q-3.585,212.655-7.16,425.35c-293.45,11.24-615.35,18.25-890.9-28.59-104.08-17.69-237.9-1.67-325.59-42.89,49.077-412.76,93.919-904.5,289.81-1179.54,87.41-122.74,209.16-227.65,332.75-314.55Q1554.5,1201.49,1626.07,1156.8Zm132.38,17.87c98.62,13.42,190.43,52.33,271.92,85.79,396.77,162.92,654.52,420.74,822.92,811.38,57.04,132.3,144.8,384.28,128.81,564.75q-130.59,32.16-261.19,64.34l-318.43,60.76c-68.7,14.98-187.18,54.69-261.19,35.75,8.12-462.77,23.44-961.14-110.92-1297.5-43.74-109.5-116.83-181.07-196.78-253.78C1809.87,1224.6,1749.55,1194.38,1758.45,1174.67Z"/>
  </g>
</svg>
