<svg id="V2" xmlns="http://www.w3.org/2000/svg" width="3000" height="3000" viewBox="0 0 3000 3000">
  <defs>
    <style>
      .cls-1 {
        fill-rule: evenodd;
      }
    </style>
  </defs>
  <g id="edu">
    <path id="Lv3" class="cls-1" d="M1191.02,811.37c33.87-.425,84.14-6.832,112.29,3.086q-2.955,4.628-5.91,9.256h2.96c11.81-11.841,76.57-12.913,94.55-3.085,12.84,7.017,23.85,24.925,35.46,33.942,47.23,36.672,86.71,76.35,121.16,126.512,180.42,262.729,175.78,664.719,177.29,1104.659-9.94,3.58-27.03,3.3-41.37,3.09-15.98,10.7-65.9,3.5-88.64,3.08-6.42-19.8-3.2-55.11-2.96-80.22-9.08-15.45-3.93-42.97-8.86-61.72-9.36-35.52-22.1-73.47-47.28-92.57-129.5-98.22-505.58-130.77-650.091-21.6-38.56,29.14-80.181,139.83-82.739,206.74-6.179,3.46-5.413,4.43-14.775,6.17-22.93-14.43-66.43-.33-88.648-15.42-3.1-4.78-3.045-12.61-2.955-21.6,9.987-17.66,3.7-45.54,8.865-67.89,10.645-46.08,9.206-96.15,20.685-145.02,38.762-165.03,49.308-346.96,109.333-490.62,56.737-135.8,164.175-274.63,271.855-357.936,37.15-28.74,76.36-57.669,115.24-83.312,21.21-13.99,52.64-23.179,67.97-43.2h-2.96c-16.15,15.787-39.6,21.484-59.1,33.943-36.94,23.6-76.37,47.731-112.29,74.056C985.624,1030.29,879.405,1166.33,812.79,1335.93c-9.6,24.45-9.554,47.68-17.729,74.06-37.5,121-49.772,261.14-79.784,391.87-13,56.62-11.714,115.86-23.639,169.71-4.584,20.7,1.259,41.79-8.866,55.54-4.188,2.97-9.672,3.02-17.729,3.09-9.8-6.14-22.029-2.53-35.46-6.17-40.628-11.01-84.632-15.14-127.062-27.77-106.1-31.58-217.783-57.5-319.134-92.57-40.818-14.12-80.144-23.17-118.2-37.03-17.943-6.54-39.73-3.79-44.324-24.68,12.742-22.45,9.643-71.18,17.729-98.74,17.019-58.03,39.3-112.69,62.054-166.63,112.518-266.73,354.768-523.22,611.674-638.729,93.246-41.925,194.694-67.524,301.408-98.74,38.08-11.139,77.97-12.478,115.24-21.6C1147.62,812.977,1176.39,820.993,1191.02,811.37Zm221.62,12.342c40.25,1.7,79.45,16.4,112.29,27.771,89.31,30.924,170.32,52.907,242.31,98.741,67.99,43.286,135.87,75.836,197.98,123.426,158.79,121.69,260.21,285.24,354.59,475.19,29.96,60.29,55.25,128.07,76.83,197.48,11.81,37.99,11.08,73.34,20.69,114.17,4.52,19.24,20.93,90.58,14.77,104.91-9.55,7.19-21.99,5.01-35.46,9.26-48.61,15.33-101.05,19.13-153.66,33.94-65.82,18.53-141.88,25.44-209.8,43.2q-28.065,3.09-56.14,6.17c-69.32,17.48-150.03,27.12-230.49,27.77-3.42-10.38-3.15-28.23-2.95-43.2,9.12-14.95,2.95-58.72,2.95-80.22,0-69.2-2.77-142.14-2.95-206.74-0.79-283.35-53.38-584.56-162.52-755.986-31.24-49.06-76.2-97.956-121.16-132.682C1444.6,855.079,1413.39,840.309,1412.64,823.712ZM2789.65,1354.44c165.91-2.47,240.68,171.31,174.34,336.34-53.6,133.36-211.47,231.39-330.95,299.31-39.61,22.51-80.92,42.55-124.11,64.8-9.65,4.96-36.15,23.81-44.32,18.51-11.14-16.34-3.73-44.38-8.87-67.88q-11.82-83.31-23.64-166.63c-22.33-86.86-39.35-168.05-70.92-243.77-15.66-37.56-42.27-73.57-53.19-114.16,92.02-51.57,212.86-73.96,322.09-104.92,38.7-10.96,81.03-9.02,121.15-18.51C2764.2,1354.46,2780.66,1360.4,2789.65,1354.44ZM20.865,1866.66c20.781,4.32,40.633,15.14,59.1,21.6,56.46,19.77,114.123,33.76,168.432,52.46,122.12,42.05,250.105,61.22,378.233,95.65q121.14,16.965,242.3,33.94c31.894,7.59,65.719,2.47,94.558,9.26,38.508,9.06,79.668.92,115.248,9.26q73.86,3.075,147.74,6.17c15.58,3.55,42.81-1.29,62.06,3.09,22.14,5.03,56.91-2.77,82.74,3.08,48.68,11.02,117.14,3.08,171.38,3.09h156.61c27.55-6.44,61.43.93,91.61-6.17q124.095-16.98,248.21-33.95c76.95-19.59,158.74-24.48,236.4-46.28q79.77-18.51,159.57-37.03v3.09h2.95q2.955,44.73,5.91,89.48c-2.95,1.03-5.91,2.06-8.86,3.09-24.41,17.07-63.97,14.96-94.56,24.68-85.52,27.18-177.6,36.15-268.9,61.71-103.63,29.02-220.76,32.3-330.96,58.63-44.78,10.7-92.33-1.17-138.88,9.26-42.51,9.52-188.1,9.73-230.48,0h-67.97c-44.68-10.35-101.03-2.25-144.79-12.34l-76.83-3.09c-58.73-13.71-128.658-8.1-186.162-21.6q-41.364-3.09-82.738-6.17c-91.736-22.1-195.067-20.18-283.675-43.2-50.738-13.18-98.063-11.86-144.792-27.77-86.293-29.38-171.913-60.56-251.17-95.66-32.145-14.23-62.364-24.73-91.6-40.11-6.965-3.66-25.994-5.6-29.549-12.34v-43.2C19.821,1911.98,16.228,1881.05,20.865,1866.66ZM1353.55,762c31.99,2.748,60.06,18.26,62.05,52.456h-2.96v3.086c-23.16-7.492-87.2-2.332-103.42-15.429-2.22-3.311-1.78-2.918-2.95-9.257,8.19-8.311,11.31-17.106,23.64-21.6C1335.65,766.783,1347.4,766.41,1353.55,762Z"/>
  </g>
</svg>
