<svg id="V2" xmlns="http://www.w3.org/2000/svg" width="3000" height="3000" viewBox="0 0 3000 3000">
  <defs>
    <style>
      .cls-1 {
        fill-rule: evenodd;
      }
    </style>
  </defs>
  <g id="edu">
    <path id="Lv4" class="cls-1" d="M1492.21,842l389.53,119.528c-0.87,1.732-1.73,3.464-2.6,5.2-127.15,98.185-228.81,224.925-371.35,306.615q-285.63-128.61-571.309-257.25c0.866-.86,1.732-1.73,2.6-2.59Q1215.621,927.756,1492.21,842Zm407.71,124.725,173.99,54.565v2.6q-233.7,100.035-467.44,200.08v-2.6Q1753.185,1094.065,1899.92,966.725ZM855.979,1036.88q294.707,131.2,589.491,262.44-293.415,129.915-586.894,259.85Q435.33,1430.56,12,1301.92l2.6-5.19Q435.245,1166.815,855.979,1036.88Zm1282.851,7.8q424.545,127.3,849.17,254.64v2.6q-407.67,126.015-815.41,252.05c-41.09,6.77-570.87-228.24-605.07-257.24ZM1500,1325.31l576.5,252.05c-0.86,1.73-1.73,3.46-2.59,5.19q-281.745,87.045-563.52,174.1-290.82-87.045-581.7-174.1v-5.19Zm932.27,187.09c24.94,20.43,125.57,329.54,114.26,371.57q-15.57,10.4-31.16,20.79h-31.16c-39.8-38.26-106.8-306.46-106.47-374.18Q2405,1521.49,2432.27,1512.4Zm-314.22,96.14c40.95,42.51,4.4,380.55-18.18,410.55-116.06,154.2-979.94,193.28-1155.6,54.57-76.87-60.71-95.221-323.39-59.728-462.52q301.209,92.235,602.476,184.48C1526.97,1803.88,2065.64,1634.8,2118.05,1608.54Z"/>
  </g>
</svg>
