<svg id="V2" xmlns="http://www.w3.org/2000/svg" width="3000" height="3000" viewBox="0 0 3000 3000">
  <defs>
    <style>
      .cls-1 {
        fill-rule: evenodd;
      }
    </style>
  </defs>
  <g id="edu">
    <path id="Lv5" class="cls-1" d="M1656.45,522Q2321.655,740.579,2987,959.2l-2.67,5.331-626.61,5.332c-43.55-24.879-112.43-67.14-130.66-74.644,7.15,9.291,108.01,80.5,122.66,82.642-1.07,11.078-40.89,339.466-61.33,509.176q41.325,187.935,82.66,375.89c-0.89.89-1.78,1.78-2.66,2.67-472.42,2.1-970.44,9.28-1381.222-66.65Q835.2,1777.635,683.194,1756.3L555.2,1734.97v-2.66q74.654-231.915,149.321-463.87,161.3,17.325,322.635,34.66-113.306-17.325-226.643-34.66v-2.66Q1228.442,893.93,1656.45,522ZM533.873,1692.32h8q2.666,2.655,5.333,5.33-37.327,111.96-74.66,223.93c0.888,2.67,1.777,5.33,2.666,8q177.3,30.66,354.637,61.31,183.966,25.335,367.972,50.66,173.295,13.32,346.63,26.66h509.29q187.98-5.34,375.97-10.67c-0.75-71.79-50.64-146.7-37.33-210.6h2.67c129.36,36.74,282.3,108.09,357.3,202.6,46.45,58.54,75.6,120.11,18.67,194.61-106.84,139.82-396.48,172.81-610.62,210.61l-229.31,18.66q-93.315,1.335-186.65,2.66c-113.12.01-229.16,5.64-330.64-10.66q-161.31-14.655-322.64-29.32c-272.922-50.59-528.636-93.48-751.938-186.62-97.851-40.81-379.715-166.15-317.306-319.9,50.758-125.05,238.115-174.89,378.635-210.6Q467.205,1705.645,533.873,1692.32Z"/>
  </g>
</svg>
