<svg id="V2" xmlns="http://www.w3.org/2000/svg" width="3000" height="3000" viewBox="0 0 3000 3000">
  <defs>
    <style>
      .cls-1 {
        fill-rule: evenodd;
      }
    </style>
  </defs>
  <g id="epi">
    <path id="Lv_2" data-name="Lv 2" class="cls-1" d="M1942.04,124l107.08,319.808q234.045-81.658,468.13-163.335-242.28,109.794-484.6,219.611-56.97-155.772-113.95-311.573l-553.23,264.9q-125.61-131.067-251.23-262.16c0.46-.458.92-0.915,1.37-1.373Q1246.02,293.5,1376.45,397.141ZM504.718,316.159l163.363,520.2-2.745,2.745-474.99,85.1q78.241,299.869,156.5,599.813Q181.44,1549.415,16,1574.8q138.639-39.1,277.306-78.23Q213.692,1191.2,134.061,885.776l488.718-85.1Q563.754,558.443,504.718,316.159ZM1487.64,535.77c669.14-8.674,1226.17,653.38,939,1342.37-120.95,290.2-355.05,505.44-686.4,584.72q-99.525,12.345-199.06,24.7c-110.46,12.8-224.94-20.48-306.13-45.29-448.089-136.97-856.038-664.69-628.745-1271C717.353,875.047,946.824,665.827,1259.76,571.457,1328.83,550.627,1408.18,555.011,1487.64,535.77Zm1155.9,259.416q-31.56,121.459-63.14,242.944,192.165,56.955,384.38,113.92-155.115,181.17-310.25,362.36L2984,1589.9v1.38q-198.345-26.775-396.74-53.53,152.37-179.115,304.76-358.24c-0.91-.46-1.83-0.92-2.74-1.38q-183.255-58.32-366.54-116.67Q2583.13,928.341,2643.54,795.186ZM1493.14,1094.41c-172.58,17.09-302.43,101.83-366.54,275.88-103.14,280.01,132.26,591.77,413.21,560.01C2092.45,1867.83,2072.17,1095.43,1493.14,1094.41Zm981.55,1015.7q173.64,18.525,347.32,37.06v1.37q-157.17,1.365-314.37,2.74-25.395,188.715-50.8,377.46-146.19-37.05-292.4-74.12-59.715,138.615-119.44,277.26,50.1-163.32,100.22-326.67,140.7,33.63,281.42,67.25Q2450.67,2291.305,2474.69,2110.11ZM683.182,2243.25q-15.786,205.17-31.574,410.39,266.984-34.3,534.022-68.62c0.91,1.37,1.83,2.74,2.74,4.11q21.975,143.43,43.93,286.87h-1.37q-37.755-120.09-75.5-240.2-277.284,34.3-554.616,68.63c-0.458-.46-0.915-0.92-1.373-1.37Q620.717,2494.44,642,2285.8q-218.94,24.69-437.924,49.41Z"/>
  </g>
</svg>
