<svg id="V2" xmlns="http://www.w3.org/2000/svg" width="3000" height="3000" viewBox="0 0 3000 3000">
  <defs>
    <style>
      .cls-1 {
        fill-rule: evenodd;
      }
    </style>
  </defs>
  <g id="hor">
    <path id="Lv_1" data-name="Lv 1" class="cls-1" d="M1464.81,25.046c387.63-4.257,677.67,257.808,785.06,531.715,37.84,96.526,46.8,204.6,60.73,327.323,9.12,80.457,18.01,197,1.48,278.446,138.19-1.21,228.16,10.86,288.84,84.42a248.208,248.208,0,0,1,53.32,117.01q0.75,476.865,1.48,953.83c0.01,306.79,59.53,620.27-222.18,654.65H906.386c-249.98,0-464.407,38.91-543.612-140.71-34.9-79.13-19.258-227.1-19.256-336.21V1660.18c0-142.78-16.584-313.28,44.437-395.45,61.541-82.88,152.51-101.81,300.69-100.72-11.38-195.24-17.494-410.174,31.106-573.184C798.468,326.8,1027.52,133.36,1291.51,54.668,1345.81,38.481,1403,39.178,1464.81,25.046ZM1076.73,1164.01h848.74c6.66-362.091-11.24-541.357-232.55-688.709-54.76-36.465-132.95-76.362-231.07-62.206-95.4,13.762-164.99,54.774-226.63,102.195C1040.01,665.461,1069.67,850.018,1076.73,1164.01ZM1491.47,1635c-64.92,15.8-104.66,26.75-146.64,62.21-125.46,105.96-71.55,320.59,56.29,382.12q-46.65,228.81-93.32,457.66h388.08q-45.915-228.06-91.83-456.18C1825.21,1999.69,1760.75,1631.02,1491.47,1635Z"/>
  </g>
</svg>
