<svg xmlns="http://www.w3.org/2000/svg" viewBox="0 0 2994.91 3000">
  <defs>
    <style>
      .a {
        fill-rule: evenodd;
      }
    </style>
  </defs>
  <title>165icon 1</title>
  <path class="a" d="M1491.11,496.44c376-3.4,684.72,73.38,932.67,200.19,152.95,78.23,287.91,172.34,387.36,303.8,85.43,112.93,186.78,292.65,143.88,505-8.39,41.51-16,81.71-30.19,117.7-71.52,181.82-197.89,312.26-346.1,417.47q-52.82,33.21-105.65,66.4l-59.36,32.19,11.07,38.23q14.58,41.24,29.18,82.49c23.22,55.48,57.88,107.41,87.53,157.94,9,15.41,46.19,67.86,34.21,85.5-9.65,14.22-33.8,9-52.32,5l-128.79-25.14c-118.44-28.05-220.39-62.42-322-104.63l-161-71.42-120.74,21.12-171,16.1-54.33,2c-30.94,4.52-101.41,7-134.83,2l-148.9-8c-98.08-15.32-190.15-20-279.7-42.26-347.69-86.28-639.23-222.42-825-469.78-43-57.26-79.95-125.54-105.64-199.19-62.9-180.27-18.43-383,58.35-513.05C304.48,820.22,613.89,664.93,983,562.83c103.3-28.57,209.91-38.09,327-56.33Zm-2,86.51-57.35,2-160,12.08c-130,22.44-247.43,40.57-361.2,75.44-295.44,90.57-581.44,248.07-713.34,501-54.59,104.65-95.85,255.65-51.32,404.4a641.23,641.23,0,0,0,66.41,148.89c44,72,105.21,143.56,171,194.15,164.34,126.33,332.35,210.31,560.41,274.63,60.49,17.07,125.51,25.38,189.16,39.24,48.92,10.65,100.38,10.57,151.92,19.11l60.37,3,86.52,4c37.57,5.93,115.5,3.73,150.93-2l63.38-3c51-8.32,105.1-7.79,152.93-17.11,86.07-16.76,168.71-26.69,247.5-50.29,349.39-104.69,687.71-282.43,804.91-616.67,10-28.56,13.94-60.79,20.12-92.55,7.6-39,7.23-93.31,0-131.78-5.05-26.86-5.85-51.23-13.08-75.45-30-100.64-80.6-173.49-137.84-245.46C2639.35,924.43,2531,856.91,2414.73,789.18,2183.38,654.41,1854.31,583.06,1489.09,583Zm830.05,370.2c87.46-.55,130.36,66.19,157,126.76,73.46,167.26,87.51,452.56-6,612.63-29.8,51-59.68,102.38-127.78,114.68-34,6.16-59.91-11.29-77.47-23.13-55.54-37.46-85.54-104.16-107.65-175-64.78-207.7-33.22-528,104.64-631.75,17.13-12.91,35.18-14.47,57.34-24.15Zm-856.95,733.33,179.28,1q-.51,56.82-1,113.67l-286-1v-841c10.12-2.79,103.35-3,106.77,0q.49,363.63,1,727.32Zm-403.66-610.34v218.43l178.08,1q-.51,56.84-1,113.67H1058.53v280.22h178q-.51,57.32-1,114.62l-285.59-2q.5-420.24,1-840.57c164-.81,279.45-2.2,286.6,1,.21,23.63,5,98.07-2,113.62Zm813.08,611.37h132.81c14.3,0,36.59-2.81,47.29,2,.21,23.64,5,98.13-2,113.68l-285.74-1v-841c16.74-.22,99.21-5.54,106.65,1Q1871.1,1324.83,1871.61,1687.51ZM735.2,1410.23H561.67q-.51,199.15-1,398.37c-15.35.21-103,2.07-106.65-3V965.42H561.79V1295.6H735.2q.51-166.41,1-332.84c16.77-.22,101-4.08,106.77,1v841.64l-107.78-1V1410.23Zm1586-328.31c-11.16,5.79-21.12,7.9-30.19,15.08-87.29,69.2-100.18,337.74-59.36,471.81,13.17,43.24,44.79,143.47,105.65,131.79,45.3-8.7,64.09-57.18,79.48-96.58,44.69-114.44,43.76-315.11-1-428.55C2399.11,1133.35,2380.22,1081.27,2321.16,1081.92Zm49.3,1077.4c-28.85,21.29-69.77,31.1-104.64,45.27-80,32.53-184,72.48-277.69,86.51l2,1,104.64,44.26c59.9,25,120.92,51.64,186.13,71.43,73.36,22.25,151.84,33.52,230.4,51.3-35.92-62.64-75.47-125-104.64-193.14Z"/>
</svg>
