<svg xmlns="http://www.w3.org/2000/svg" viewBox="0 0 2994.91 3000">
  <defs>
    <style>
      .a {
        fill-rule: evenodd;
      }
    </style>
  </defs>
  <title>163icon 1</title>
  <path class="a" d="M1485.67,487.41c376-3.39,684.72,73.38,932.67,200.19,152.95,78.23,287.92,172.34,387.36,303.81,85.44,112.92,186.78,292.65,143.88,505-8.39,41.51-16,81.71-30.19,117.7-71.52,181.82-197.89,312.26-346.1,417.48L2467.64,2098l-59.36,32.18,11.07,38.23,29.18,82.5c23.22,55.47,57.88,107.41,87.53,157.93,9,15.42,46.19,67.86,34.21,85.51-9.65,14.21-33.8,9-52.31,5q-64.39-12.56-128.79-25.14c-118.45-28-220.4-62.42-322-104.62q-80.49-35.7-161-71.43-60.37,10.56-120.74,21.12l-171,16.1-54.33,2c-30.94,4.53-101.4,7.05-134.82,2l-148.91-8.05c-98.08-15.32-190.15-20-279.7-42.25-347.69-86.29-639.23-222.43-825-469.79-43-57.26-79.94-125.54-105.64-199.18-62.9-180.28-18.42-383,58.36-513.06C299.05,811.2,608.45,655.91,977.57,553.81c103.3-28.57,209.91-38.09,327-56.34Zm-2,86.52-57.35,2-160,12.07c-130,22.45-247.43,40.57-361.2,75.45-295.44,90.57-581.44,248.07-713.34,501-54.58,104.65-95.84,255.65-51.32,404.4a641.16,641.16,0,0,0,66.41,148.88c44,72,105.21,143.56,171,194.16,164.35,126.32,332.35,210.31,560.41,274.63,60.5,17.06,125.51,25.37,189.16,39.24,48.93,10.65,100.38,10.57,151.92,19.1l60.37,3,86.52,4c37.57,5.92,115.5,3.73,150.93-2l63.38-3c51-8.32,105.11-7.79,152.93-17.11,86.07-16.75,168.71-26.69,247.51-50.29,349.38-104.69,687.7-282.42,804.9-616.67,10-28.56,13.94-60.78,20.12-92.55,7.6-39,7.23-93.3,0-131.78-5.05-26.85-5.85-51.23-13.08-75.45-30-100.64-80.6-173.48-137.84-245.46-81.24-102.16-189.59-169.67-305.86-237.41C2177.94,645.38,1848.88,574,1483.65,573.93ZM945.63,692c63.72,3.35,87.67,51.27,76.46,122.73q-.5,20.12-1,40.23-.51,41.25-1,82.49-11.07,452.16-22.14,904.38H896.32s-12.74-564.32-19.11-846q-1.51-91-3-182.08c0-28.63-4.59-63.05,7-82.49,9.25-15.46,25.48-30.54,44.27-36.22Zm587.19,1150.92H1430.16c-6.71-293.72-13.25-589.93-20-883.71q-.51-41.75-1-83.5-.51-23.13-1-46.27c-11.54-77,6.36-130.33,71.43-137.82,38.72-4.46,67,27.23,75.45,54.32,5.07,16.21,3.8,49.48,1,67.4q-1.52,79-3,157.94C1546,1261.32,1539.85,1552.84,1532.82,1842.93Zm537.4-.47-101.79-.18q-10-440.07-19.94-880-.51-41.25-1-82.49-1-37.23-2-74.45c-.33-68.64,10.07-103.85,71.44-112.67,38.72-5.56,68.17,28,76.47,54.32,6.55,20.76,1,51.08,1,74.45q-1.5,75.44-3,150.89Q2080.79,1407.35,2070.22,1842.46Zm-1058.44,63.38V2034.6H885V1905.84Zm535.31-1V2034.6H1419.26V1904.84Zm537.29,2v128.82l-130.87-2.05V1906.84ZM2365,2150.29c-28.85,21.3-69.76,31.1-104.63,45.27-80,32.54-184,72.48-277.7,86.51l2,1,104.64,44.27c59.9,25,120.92,51.63,186.13,71.42,73.36,22.25,151.84,33.53,230.4,51.3-35.91-62.63-75.47-125-104.63-193.14Q2383.14,2203.62,2365,2150.29Z"/>
</svg>
