<svg xmlns="http://www.w3.org/2000/svg" viewBox="0 0 2994.91 3000">
  <defs>
    <style>
      .a {
        fill-rule: evenodd;
      }
    </style>
  </defs>
  <title>161icon 1</title>
  <path class="a" d="M1484.34,487.41c376-3.39,684.73,73.38,932.68,200.19,152.95,78.23,287.91,172.34,387.36,303.81,85.43,112.92,186.78,292.65,143.87,505-8.38,41.51-16,81.71-30.18,117.7-71.52,181.82-197.89,312.26-346.1,417.48L2466.32,2098,2407,2130.17,2418,2168.4l29.17,82.5c23.22,55.47,57.89,107.41,87.54,157.93,9,15.42,46.18,67.86,34.21,85.51-9.65,14.21-33.8,9-52.32,5l-128.79-25.14c-118.44-28-220.4-62.42-322-104.62l-161-71.43-120.74,21.12-171.05,16.1-54.32,2c-30.94,4.53-101.41,7.05-134.83,2l-148.9-8.05c-98.09-15.32-190.16-20-279.71-42.25-347.69-86.29-639.23-222.43-825-469.79-43-57.26-79.95-125.54-105.64-199.18-62.9-180.28-18.43-383,58.35-513.06C297.72,811.2,607.13,655.91,976.25,553.81c103.3-28.57,209.91-38.09,327-56.34Zm-2,86.52-57.35,2L1265,588c-130,22.45-247.42,40.57-361.19,75.45-295.44,90.57-581.45,248.07-713.35,501-54.58,104.65-95.84,255.65-51.31,404.4a641.13,641.13,0,0,0,66.4,148.88c44,72,105.22,143.56,171.05,194.16C540.94,2038.2,709,2122.19,937,2186.51c60.49,17.06,125.51,25.37,189.15,39.24,48.93,10.65,100.39,10.57,151.92,19.1l60.38,3,86.52,4c37.56,5.92,115.49,3.73,150.92-2l63.38-3c51-8.32,105.11-7.79,152.93-17.11,86.08-16.75,168.72-26.69,247.51-50.29,349.38-104.69,687.71-282.42,804.91-616.67,10-28.56,13.94-60.78,20.12-92.55,7.59-39,7.23-93.3,0-131.78-5.06-26.85-5.85-51.23-13.08-75.45-30.05-100.64-80.61-173.48-137.84-245.46C2632.59,915.4,2524.23,847.89,2408,780.15,2176.61,645.38,1847.55,574,1482.33,573.93Zm719.38,1201.14-94.58-1q-10.05-412.41-20.12-824.9-.51-45.27-1-90.54c-10.83-72.06-4.67-172.67,71.43-162,58.11,8.18,66.41,42.85,66.41,107.64q-1,34.69-2,69.41-.49,43.24-1,86.51Q2211.26,1367.61,2201.71,1775.07ZM830.45,1219.77c136.67-1.88,171.61,23.06,253.55,83.49,26.93,19.86,70.3,118.19,73.25,141.61,9.84,78.09,9.82,94.75-.82,137.05-20,79.5-48.92,137.95-117.71,169-32.29,14.57-92,13.23-117.72-7-9.8-7.7-17.21-28.3-20.12-42.25l-1-8c-29.85,28.32-42.3,39.5-83.51,57.3-57,24.61-136.29,4.92-165-32.19-16.5-21.32-26.55-52-32.2-83.5-6.55-36.63,4.68-76.15,13.08-103.61,25.19-82.31,64.82-137.54,151.93-157.94,22.55-5.29,53.81-6.92,76.46,0,48.7,14.89,54,28.47,84.9,55.07l14.71-51,60.37,3s-36.89,165.65-55.34,248.48c-7.39,30.93-13.21,71.11,15.09,82.48,27.16,10.93,62.33-13.18,73.45-27.15,39.06-49.08,70.38-136.16,52.32-231.38-29-152.62-194.66-221.31-368.25-167-60.5,18.93-113.52,58-147.9,103.62-22.55,29.94-38.74,63.4-49.3,105.62-35,140-.88,274.88,88.54,331,19.17,12,40.83,16.86,65.4,24.15,34.82,10.32,88.55,19.44,134.82,11.06,25.29-4.59,66.54-13.49,89.49-19.48,42.2-11,105.7-40.87,105.7-40.87l21.7,51.39s-47.62,19.23-87.24,31.93c-52.33,16.78-93.29,21.12-154.8,31.36-49.23,8.19-98.33-8.47-132.81-19.12-26.34-8.14-50.47-14.07-71.44-27.17-93.14-58.2-163.94-204.85-122.74-364.15,12.69-49.09,35.4-92.9,61.37-129.77,45.43-64.52,107.72-114.07,192.17-139.84l66.4-13.08Zm670,144h198.93q.49-71.52,1-143H1805.2v143l143.12,1c.19,21.69,4.6,92.42-1,104.81H1805.2v197.92l143,1v104.81H1805q-.49,72-1,144l-104.59-1v-143H1500.25q-.49,72-1,144l-103.58-1V1773.05q-71.92-.52-143.84-1,.5-52.29,1-104.59h141.82q.49-99.06,1-198.13l-143.84-1q.5-52.29,1-104.59h142.83v-143h104.83v143Zm-742.87,75.76c-30,36.71-53.1,64.26-66.11,116.29-18.19,72.72-6.47,135.58,55.34,150.89,65.44,16.19,118.94-33.1,141.5-71.3,8.72-23.13,17.92-48.81,26.64-72,16.28-47.94,4.46-106.37-29.29-129.36C870.46,1407.29,777.9,1414.67,757.62,1439.48Zm742.87,30v197.92h198.89V1469.53Zm598.6,363.18c19.59-.32,110.35-3.35,115.7,5,3.31,4.53,3.31,111.12,0,115.69l-3,4-115.7-1c-1.34-1.69-2.69-3.37-4-5q.49-56.34,1-112.66c1.81-3.56,3.28-3.72,6-6Zm264.61,317.58c-28.85,21.3-69.77,31.1-104.64,45.27-80,32.54-184,72.48-277.69,86.51.67.35,1.34.68,2,1L2088,2327.35c59.91,25,120.93,51.63,186.14,71.42,73.35,22.25,151.83,33.53,230.4,51.3-35.92-62.63-75.47-125-104.64-193.14l-36.21-106.64Z"/>
</svg>
