<svg xmlns="http://www.w3.org/2000/svg" viewBox="0 0 2994.91 3000">
  <title>19icon 1</title>
  <path d="M2563.66,1367.9c-6.8,268.48-11.26,546.63-111.08,799.65-111.68,266.5-280,504.91-458.44,730.55-38.58,32.4-86.25,54-132.65,73.52-57.16,20.85-119.51,17.36-179.38,22-165.11,2.23-547.76,30-679.16-50.2a225.66,225.66,0,0,1-49.1-40.92c-108-126-192.78-270-271.89-415.33C542.25,2236.29,457.1,1958.3,447.09,1670.61c-15.62-229.83-13.61-460.76,2.07-690.53,9.85-118.33,16-239.9,58.61-351.92C642.81,262.3,1042.86,62.5,1408.93,6.32c431-55.91,899.46,267.16,1069.26,654.75,77.55,225.64,80.76,470.43,84.22,706.82ZM539.5,706.49c272.27,79.74,555,140.24,839.32,156,355,1.77,707.68-90.4,1046.4-185.65C2283.8,345.31,1859.74,38.34,1492.92,55.85,1110.5,76.08,642.91,312,539.5,706.49Zm1198.22,567.57,3.89,87.24L2240,1343.44l-2.32-456.8m-1518,467.5,499.81,9.57,6.71-70.49L718.09,885.86Zm704.62,782.22-2,456.82,171.2,4.07,1.88-460.89Zm-134.39,456.19-6.76-452.65-158.52-.82-6.3,452.47Zm597.56,8.29,1.61-468.24-159.87,1.58,3.11,466.61Zm-421.12-997.16-68,321.39,200.31,1.07L1529,1603.68Z"/>
</svg>
