<svg xmlns="http://www.w3.org/2000/svg" viewBox="0 0 2994.91 3000">
  <title>18icon 1</title>
  <g>
    <path d="M714.64,2509.05c-257.46,186.41-567.67-99.54-459-380C15,2078.12-68.55,1760.86,98.42,1587.26,25.52,1452.9,57,1273.9,176.36,1176.87,53.74,931,277.88,625.88,549.91,726.05c-122.69-326.2,257.35-614.56,508.27-342,107.4-508.92,781.14-467.81,834.62,45.32C1997.64,292.59,2175.67,260.2,2318,362.63c191.9,56.8,272.26,302.52,173.38,470.71,291.94-5.67,426.83,342.73,234.66,551.72,315.72,52.46,359,503.25,64.19,620.44,229.28,284.3-94.1,698.94-410,472.31C2003.59,3087.94,1114.94,3101.71,714.64,2509.05ZM1907.43,1212.11c-183.93,56.2-354-74.83-389.19-251.84-12.67,168.94-167.26,310.06-338.78,289-32.1,123-137.49,213.44-261.57,232.38,18,92.06-18.06,215-82.82,275.36-346.82-20-339.81,514.95,7.34,486.49,1.76,87-33.06,171.76-92.47,234.84,375.59,575.45,1244.19,558.07,1596-32.08-49.93-57.17-84-130.75-85.22-207.33,296.32-57.85,244.46-508.5-61-486.43-67.31-84.12-80.84-196.2-56.7-298.11C2024.3,1428.18,1934.45,1328.8,1907.43,1212.11Z"/>
    <path d="M1507.72,2661c-86.11-.73-187.11-23.69-260.57-75-100.74-77.4-321.45-171.51-216.74-327,51.62-75.72,170.51-73.63,221.33,1.94,32.87,45,68,92.1,119,117.69,73,34,157.63,37.33,236.35,26.46,144.44-22.83,155.84-162.7,268.48-184.89,131.27-27.25,223.38,161.49,100,246.8C1832.27,2564.29,1691.58,2669.75,1507.72,2661Zm24.71-111.74c149.33-.48,291.57-78.55,387.23-191.15,10.47-16.74-11.1-36.9-26.73-23.51-22.42,20.83-43.7,43.07-66.8,63.16-210.21,185.86-510.59,132.52-688.42-70.28-13.08-22.85-50.43-8.71-34.68,16.67,34,36.79,72.08,69.68,111.2,101C1304.58,2516.91,1417.18,2547.76,1532.43,2549.28Z"/>
    <path d="M1512.88,2219.74c-150.77-2.71-260.34-125.72-258.5-263.64,2-149.8,124.52-259.19,261-258.52,146.45.72,261.28,119,261.12,261.05C1776.31,2105.72,1655.61,2221.07,1512.88,2219.74Z"/>
    <path d="M1026.69,1770.25c0-32.37,26.93-59.41,59.24-59.35,26.76,0,58.8,20.26,59.08,59.38.23,32-24.34,59.44-59.09,59.18C1047,1829.18,1026.65,1797.78,1026.69,1770.25Z"/>
    <path d="M1978.67,1739c27.73-.6,58.61,22.4,58.37,59.77a58.71,58.71,0,0,1-60,58.33c-32.53-.39-59-25.87-58.3-60C1919.54,1757,1953.42,1737.27,1978.67,1739Z"/>
  </g>
</svg>
