<svg xmlns="http://www.w3.org/2000/svg" viewBox="0 0 2994.91 3000">
  <title>15icon 1</title>
  <path d="M1865.45,1034.26c18.36,2.76,169.4,4.46,182,2,1.75-16.09,3.53-32.46,5.27-48.5,24.87,11.06,43.5,37.57,71.66,45.49,46.69,17.89,75.16-36.45,116.56-47.1l-29.15-1c-4.08-14-1.16-27.15-1.4-41.64,14.82-3.24,29-1,44.23-1.66-.53-170.24-7.35-341.15-9.56-511.61,2.63-1.82,3.92,0,5.24,1.45,23,24.66,45.9,49.4,69,73.94,12.4,22.84,3.72,53.22,7.45,78.74,3.49,118.83,5.92,237.64,10.82,356.4,12.64,2.29,25.58.84,38.37,1.26,5.11,14.45,2.31,28,2.69,42.86-10.15,2.51-20,.39-30.42,2,39.2,8.47,58.54,46.4,63.63,84.12-1.63,36.38-4.22,72.78-4.55,109.33-8.68,63.43-53.89,82.78-112.61,75.28-40.06-4.18-82.05-2-120.29-16-46.74-21.5-89.89,11.86-131.3,30.62-3.7-12.74,10.17-43.12-10.53-43.14-102.5-6.78-205.37,2.64-307.71-.08-16.44-55.22-31.59-112.25-49.48-167-3.2-.47-3.17,1.48-3.45,2.9q-11,56.16-21.89,112.35c-12.64,78.73-35.7,156.51-42.22,235.88q6,569.86,12.87,1139.75c41.14,9.58,91.17.35,134.58,5.35-33.29,67.71-87.28,128-117.19,198.14,88.7,14.6,186.73,15.85,262.53,73,54.77,35.87,39.07,115.93,19.77,168.33-60,1-124.78,12.44-181.59-11.51a100.59,100.59,0,0,0-33.27-6.69c-60,.38-122.14-4.88-180.6,11-92.34,25.27-188.68,1.71-282-3.35-47.07,0-94.5-3-140.71,7.72-47.86,7.29-97.08,3.14-145.2.89-6.84-84.79,4.22-171.32-9.94-255.28-13.72-59.93-28.95-119.34-41.36-179.58,20.08-2.36,39.63.54,58.81-2.69,7.08-363.08,4.63-728.2,5.42-1091.95-3.55-135.73-38.57-267.81-67.07-399.93-25.46,110.74-55.61,221.32-73.59,333.3,1.85,128.1,2.18,256.15,4.64,384.24,12.41,3.11,25.13,1.34,37.09,4.33-125.89,134.39-17.57,110.41-25.88,244.49-2.79,40.88-46.4,62.28-83.26,63.76C722.14,2092,661.62,2109,632.74,2076c-30.93-49.28-12.38-111.59-3.19-165,9.29-46.6-17.65-89.11-41.46-126.87,6.44-7.21,22.11-3.5,32-6.37,5.63-139.17,1.17-279.47,3.36-419,.09-28,0-28,8.2-54.92q63.45-209.14,126.9-418.29c23-75.73,68.82-227.24,68.82-227.24s218.72-149.75,321.9-229.7c-29.25-73.67-32.41-154.8-28-234-.7-59.84,17.69-121.24,71.62-153.69,99.59-72.53,223.89-45.52,290.43,56.51,43.16,79,35.92,258.21-10.33,335.61C1650,580.11,1749,673.19,1749,673.19S1791.39,801.9,1865.45,1034.26Zm-551.6,1516.13c7.66-128.47,4.49-258.94,8.26-388.07,1.78-127.41,8.24-257.74-29.77-380.85-57.89,250.38-21.67,513-28.94,768.08C1273.38,2551.23,1304.07,2551.69,1313.85,2550.39ZM1484.46,123C1456,52,1369.62-2.81,1292.44,10.42c-64.25,11.78-135.19,49.35-153.51,116.4C1250.05,170.5,1372.49,160.07,1484.46,123Zm-36,40.71c-27,20.11-63.42,48.85-88.44,68.32l1.37,16.69,89.37-3.91c3-22.78-1.28-78.41-.24-78.34C1450.52,166.47,1449.66,165.27,1448.46,163.71Zm-274.93-1c-4,23.75-.35,86.44-1.53,87.07l91.34-1,1.47-12.4ZM1302,392.34l-.3,81.89,29.85.42-.44-82.57Zm-54.8.51-.65,81.71,29.4-.48-2.14-81.3Zm111.2-.82,1.39,84,26-.36-.16-82.84ZM1311,293.94c-4.47,9-13,48.53-12.45,58.06,11.17.86,22.38,2.23,33.44.1-3-18.75-5.91-40.92-13.16-58.16Z"/>
</svg>
