<svg xmlns="http://www.w3.org/2000/svg" viewBox="0 0 2994.91 3000">
  <title>17icon 1</title>
  <g>
    <path d="M2451.9,2874.18c-29.15.36-57.47,5.68-86.38,6.62,19.41-17.94,42.3-31.86,68.63-36.8,21.1-1.71,37.39,18,56.94,24.89-4.38-8.24-26.51-33.79-41.24-47.94-49,3.16-75.59-3.29-116.6,30.29-18.3,11.5-11.09,10.31-32.34,5.86-28.87-6-57.64-12.56-86.51-18.55-15-3.6-21.46-20-32-29.9-13.75-14.25-10-14.09-5.77-31.32,62.68-221.18,110.43-447.31,201.85-659,6.91-4.28,14.58-4.84,20.52-9.46-1.37-14.66-.39-29.18-3.75-43.35-32-11.64-89.77-57.66-121.11-37.81q-147.27,125.16-295.92,248.51c30.07-174.59,98.53-348,133.4-524,7.42-24.89,5.31-57.82,32.34-70.23,4.34-41.09,22.24-73.63,42.42-108.82-16.38-18.84-50.94-28.54-57.08-53.26-2.17-29.83-5-59.62-7.6-89.42-18.83-167.9-26.08-336.32-27.64-505l-56.2-33.07-25,10.83c-126.35-41.79-258.95-47.36-390.29-61.34-8.3-6-13.8-13.1-15.72-23.5-21.75-82.86-36.95-167.19-35.39-253.06,93.91-31.13,154.35-127.26,156-224.12-4.4-88.82-21.59-182-53.89-264.61-31-45.72-92.06,39.3-122.25-12.17-21.92-38.65-28.06-81.81-83.88-57.17-66.65,20.71-113.1,62.79-142,126.31-39.17,89.81-16.47,194.33,10.86,284.52,23.78,83.47,89.45,128,170.61,147.3,14.76,71.8,34.25,125.41,33.24,199.44-4.1,23.9,14.75,82.28-10.81,92-123.57,57.11-248.78,113.71-368.59,177.38,1.7,3,3.24,5.74,5.16,9.16-38.41,7.1-48.49,47.35-70.17,74.86h-8c-41,85.44-104.9,158.38-158.69,236.08-46.06,40.82-125.73,156.88-187.17,153.32-4.54,1.57-5.71,8.76-8.58,12.53-14.06,23-12.17,36.27-7.49,62.43l14.09,2.36c-66.38,204.26-131,412.6-242.14,597.22-38.22,58.56-88.24,110.44-130.78,166.48-13.55,26.57.81,67.33-1.57,97.57,4.5,47.11-.26,97.05,9,142.65C389,2515.39,403,2444,417.27,2370.77a35.77,35.77,0,0,1,9.88-18.83c35.64-35.48,68.45-74,105.32-108,8.16,33.62,15.38,65.48,23.13,98.87,2.81,12.14,2.83,12.14,12.51,19.42,78.57,55.58,154.88,123.46,234.58,172.92-60.83-73-134.65-138.5-189.17-215.24-1.4-22.51-11.45-45.82-8.15-68,18.36-26.6,5.23-51.87-4.28-79.06-3-8.18-2.3-15.4.51-23.4q43.3-123.52,86.22-247.19c27.83-68.45,66.44-132.24,91.09-202.08,7.12-20.19,15.23-40,23.26-59.88,10-24.68,8.52-20.72,29.72-32.24,9.38-34.52,20.22-69.28,43.71-97.58,62.9-78.33,201.36-327.5,290.14-344.92,5-4.62,4.19-11.87,9.62-16.18,32.82,72.23,57.47,149.82,92.59,220,28.55-24.28,61.88-44,80.63-77.51,17.26-28.76,35.76-56.77,53.85-85,1.33-2.07,1.88-5.75,6-4.63-1.68,55.33-6.25,110.59-8.6,165.92a27.29,27.29,0,0,1-7.57,18.28c-27.38,30.47-55.15,60.38-81.76,91.55,26.58,65.91,21.13,140.83,39.16,208.72,25.92-12.48,50.26-28.22,75.78-41.64,5-2.75,7.61-6.89,10-11.63,28.37-48.22,49.27-108.58,81.71-150.75-12.53,61-30.17,155-44,227.09a27.89,27.89,0,0,1-9,16.41c-32.61,29.13-63.36,61-96.82,89,11.54,71.91,17.3,146.64,33.51,216.55,43.29-9.51,86.26-21.52,129.47-31.77,32.11-18.38,47.81-59.57,74.73-85.24,15.54,12.41,16.21,13.61,19.91,30.88,22.16,79.79,27,161.2,28.2,243.62.18,35.82,5,72.11,2.13,107.74-7.41,28.13-15.09,56.18-22.75,84.24-.45,1.67,0,4.24-3.67,4.31-4.59-8.18-6.29-18.7-16.84-21.39-24-8.93-47.23-18.69-71.24-27.8-8.83,4.08-16.28,11.94-25.67,13.16-1.39-3.09-2.67-5.95-4.14-9.21-187.67,19.48-371-48.45-554.44-79-81.86-16.62-63.88-25.32-131.88,28.21-2.23,24.22-3.72,47.42,8.53,69.22l20.89-8c143,64.65,275.86,146.76,406.91,232.66q94.71,60.11,189.32,120.36c10.4,7.52,20.75,7,33.11,8.49l-8.82,14.55c9.52,48.7,19.11,97.78,28.71,146.91-4.94,3.54-10.19,4.22-15.13,5.95-27.24-8.52-53.47-21.88-81.55-26.75-28.28-1.19-56.58-1.79-84.87-2.89-26,6.86-46.28,31.68-68.52,46.84,29.61-9.8,55.64-25,84.13-37.68,25.62,14.9,57,12.29,81.23,30.09-28.15-4.59-52.24-4.89-79.93-7.58-4.79-.42-8.6,1.22-12.47,3.56-30,19.41-68.81,36-88.07,65.49,81-51.93,87.42-50.88,181.5-39.78-30.64,13.16-66.75,9.57-96.93,24.43-24.14,14.79-51,24.62-73.56,41.53,61.06-14.77,121-31.44,184.34-32.15.55,4.85-1.12,8.2-4,11.46-57.42,8.38-115.71,10.19-165.45,43.69,112.81-9.75,227.59-19.15,335.07-56.56,2.47-170.26-25.3-117.92,72.84-262.85-20.53-21.9-41.32-43.26-62.13-65.23l-53.51,12.56c-25.17-10.86-54.74-9.54-81.6-15.34-53.91-19.78-104.74-48.76-157.42-72-115.46-56.15-228.9-120.37-339.38-184.51,145.23,10.32,285.29,55.9,427.45,85.56,16.95,4.91,38.13,8.67,48,24.69,9.61,13.85,12.89,35.72,28.34,43.77,29.32,9.57,58.13,19.35,87.71,29.07l70.79-40.37c19.58,15.63,35.23,35.37,55.65,49.37,68.38-4.92,139.79-16.06,198.65-53.25.36-7.75-5.06-13.34-5.41-20.81,13.15-23.81,35.94-40.7,57.2-57.35,16.93,36.25,33.56,71.54,50,107.33-57.59,64.56-122.74,124.83-177.93,190.1,77.79-58.44,159.27-115.27,233.95-176.51-18.68-55.23-41-109.48-58.94-165,80.83-68.4,155.75-144.18,245.29-201.76C2261,2151,2305,2134.42,2311.87,2104c0-2.1-.4-5.06,3.89-5.73,2.41,4.73,4.93,9.7,7.49,14.75-71.26,207.18-133.66,418.88-227.44,617.09a919.18,919.18,0,0,0-107.69,152.22c13.61,25.43,27.1,50.66,40.83,76.31,39.33-4.18,77.62-13.08,117-14.75,50.64,8,105.35,1.58,151.83,25.6,30.38,13.43,19.72,11.5,52.32,9.87,57.52-4.1,114.63,10.31,171.94,13.17-30.9-24.31-70.1-33.1-109-33.51q-41.1-3.34-82.18-6.82c-1.63-.14-4,.68-5-2.88,69.72-31.43,143.81-2.51,212,18.67-26.5-18.94-55.95-39.17-86.91-49.7-27.73-5.22-54.45-7-81.94-14.34,32.61-3.95,65.46-7.66,98.2-7.3,28.19,5.5,56.18,11.47,82.06,24.7,1.64.49,3.36,2.24,5.37-.48C2527.52,2892.89,2488.93,2882.08,2451.9,2874.18ZM1474.81,475c-12.44,7.3-25.34,23.35-38.75,25.57.58-3.45,3.53-5.81,5.61-8.48,22.09-22.54,21.53-47,23-76.66-18.46,13.89-28.67,31.27-26.86,54.63l-19.32,14.45c-1.06-6.74,5-10.11,4.34-15.47-26.39-4.17-24,9.81-55.62-9.75.28-2.59,1.91-2.7,3.53-2.68,18.42.56,50.18,3.27,55.27-19.72-76.85-10.08-78.68-101.67-88.17-162.19-8.85-123.57,96.17-166.81,135.81-34.25,14,44.16,13.07,91.4,6.28,136.79C1479.53,410.32,1489.74,443.35,1474.81,475Zm69.52-27.77C1532,460.74,1529.56,478,1522,492.93c-8.4-25.55,10.57-46,10.5-71,11.47-63.49-29.29-120.32-22-183.25,6.07-91.93,85.69-164,143.48-58.81,28,63,38.37,246.4-65.89,232.6,18.19,32.77,56.69,36.37,90.6,41.6-10.78,6.83-22,6.67-33.71,10.49-20.45-6.42-39.54-13.22-60-20.8-.35-17.4-16.21-30.92-23.37-46.32-1.87-3-3.74-6.33-8.79-6.25-10.51,33.31.54,39.88,18.39,66.1,15.7,12.12,37.58,12.62,54.86,22.95-19.14,1.28-38.39-2.84-57.83-3.55Zm371.82,1848.7c-7.42.49-13.09-3.76-20.68-3.61-25.35,24-50,51.22-75,76.35-24.73,3.15-49.33,7.5-74.82,10.69-16.52-61.29-29.08-122.16-21.13-185.75,3.08-99.4,5.38-198.8,34.69-294.63,30.27,22.42,59.47,45.11,89.37,67.87,4.29,3.29,8.37,5.74,14.27,4.92,28.53-4.68,57.91-6.27,86.06-12.27-6.14-84.21-20.76-169.75-31.18-254.16-38-14.9-76.16-29.14-114.35-43.47-6-2.22-10.17-5.26-13.29-11.21-35.6-70.89-77.29-141.94-110.48-212.62,45.68,43.58,83.8,101.72,128.36,148.84l86.22-71.72c-7.67-39.81-5.43-79.45-1.48-119.23-34.33-29.54-73.46-53.5-109.71-81a59.8,59.8,0,0,1-15.61-16.56c-28.21-46.52-62.84-90-88-137.9,44.39,32.7,87.44,67.28,131,101,26.28,16,60.33,10.06,90,15.44,13.42-113.91,15.52-229.43,28.25-343.47,21.86,1.85,40.18,6.8,62.2,10.33,9.47,13,26.18,24.43,31.88,40.53,8.27,48.59,16,97.29,24.81,145.78,9.86,70.49,4.1,142.1,7.53,213.06-1.38,66.79,12.88,136.14,3.23,201.75-6.89,17-18.8,32.68-14.16,51.74l-6.86,3c-12.46,27.26-12.88,43.12-2.7,71.75h14.3c-14.8,108.17-38.2,216-55.81,324-29.39,90.86-49,187-89.59,273.41C1906.45,2278.51,1913,2286,1916.15,2295.91Z"/>
    <path d="M1405.49,337.93a14.51,14.51,0,0,1-.65-1.31l2-2.55c-.61-.15-1-.28-1.39-.34-3-.45-5.93-.9-8.9-1.3a2.42,2.42,0,0,1-2-1.34,21.27,21.27,0,0,0-1.2-1.86c-.51.38-.92.65-1.28,1-1.94,1.69-3.84,3.42-5.8,5.08-1.76,1.51-1.28,1.71-3.75,1.1a4.37,4.37,0,0,0-.85.06c-.12,2-.08,3.95-.11,5.92s0,4.12-.06,6c-.69.79-1.64,1-2.12,1.8,2.33,2.27,5,4,7.2,6.18.24,1-.15,1.86.25,2.69,3.41.25,6.73-.55,9.91-.37.85.57.94,1.6,1.81,2,2-2,3.82-4.13,5.72-6,1.26.28,1.6,1.62,2.78,1.85.71-3.16.33-6.4,1.08-9.49.47-.12.81-.21,1.16-.28s.83-.14,1.57-.26c-.42-.74-.67-1.24-1-1.71C1408.4,342.51,1406.93,340.22,1405.49,337.93Zm-10.75,9.79a2.24,2.24,0,0,1-2.09-2.06,2.14,2.14,0,0,1,2.13-2.19,2.06,2.06,0,0,1,2.16,2.13A2.16,2.16,0,0,1,1394.74,347.72Z"/>
    <path d="M1577.86,340c3.42-.22,6.59-1.47,9.77-1.73.92.45,1.15,1.45,2.07,1.77,1.74-2.27,3.22-4.62,4.84-6.74,1.29.11,1.81,1.38,3,1.45.27-3.22-.54-6.39-.23-9.55.45-.18.78-.32,1.11-.43s.8-.26,1.53-.48c-.52-.67-.84-1.13-1.2-1.56-1.76-2.07-3.52-4.13-5.27-6.2a14.27,14.27,0,0,1-.82-1.21l1.61-2.8c-.62-.07-1-.14-1.42-.15-3,0-6-.07-9-.06a2.44,2.44,0,0,1-2.2-1c-.4-.57-.91-1.07-1.44-1.68-.45.45-.82.77-1.14,1.13-1.68,1.95-3.33,3.92-5,5.84-1.54,1.73-1,1.87-3.57,1.61a3.62,3.62,0,0,0-.83.16c.15,2,.47,3.93.71,5.89s.53,4.09.77,5.95c-.58.88-1.5,1.17-1.85,2.08,2.62,1.92,5.53,3.31,8,5.12C1577.62,338.31,1577.35,339.23,1577.86,340Zm5.77-16.51a2.05,2.05,0,0,1,2.43,1.81,2.15,2.15,0,0,1-1.88,2.41,2.25,2.25,0,0,1-2.35-1.75A2.14,2.14,0,0,1,1583.63,323.49Z"/>
  </g>
</svg>
