<svg xmlns="http://www.w3.org/2000/svg" viewBox="0 0 2994.91 3000">
  <title>10icon 1</title>
  <g>
    <path d="M1559.78,547.79c-7.69-22.69-36.54-28.23-52.41-10.22-12.67,16.36-27.63,31.7-49.77,32.3-30.44,3.74-58.82-7.77-74.52-34.76-24.49-31.95-74,7.77-47.9,38.41,29.8,25.68,66.63,55.71,107.18,53.48C1475.16,630.93,1575.54,587.16,1559.78,547.79Zm-180.23,22.07c32.62,27.39,92.09,35,134.85-2.9,6.11-3.35,12.74-17.26,19.95-13.32-3.69,28-60.78,49.21-87.76,48.55C1378,609.32,1308.92,507.43,1379.55,569.86Z"/>
    <path d="M1442.94,526.82c35.44.71,59.79-28.06,60.2-57.94.88-32.12-25.34-59.37-58-60.25-32.08-.86-59.8,25.44-60.2,58C1384.55,499.88,1409.93,526.15,1442.94,526.82Z"/>
    <path d="M1549.35,444.64c6.81-.19,13-6.65,12.9-13.48A13.65,13.65,0,0,0,1549,418.07c-6.79-.15-13.17,6-13.42,12.89C1535.35,438.24,1542,444.86,1549.35,444.64Z"/>
    <path d="M1346.23,438.2A13.65,13.65,0,0,0,1360,425.7c.47-6.59-5.5-13.37-12.34-14s-14.13,5.94-14.29,13.2A13.34,13.34,0,0,0,1346.23,438.2Z"/>
    <path d="M2277.09,919.87c-27-217.73-188.67-90.31-172.7-331.43,6.94-1.41,12.86-1.33,18.74-5.35-6-13.72-15.13-24.87-22.5-37.84,47.2-15.33,82.58-49.8,95.25-98.16,19.37-58,36.51-116.76,51.83-176C2286,142.57,2178-4.68,2042.34.5c-162.89.82-270.3,190.88-180.88,328.72,27.54,42.65,55.36,85.11,84.32,126.81,32.69,51.86,63.19,92.39,130.08,93.85-3.47,15-19.89,36.15,2.12,42.6-10.46,260.67,157,125.15,175.2,344.52-57.68,73.9-120.64,142.65-182.62,212.86-11.55,11.25-23.29,24.31-38.31,31-19,5.47-17-120.14-25.37-141.23-14.39-81.54-20.37-175-96.85-224.35-107.53-75.29-228.21-136.87-361.2-146.48,38.17-20,67.44-47.66,91.7-82.83,68.56,50.78,145.07-44.33,93.1-107.18,65.48-27.72,56.49-127.95-14.25-141.31,42.17-46.33,10.94-125.61-53.11-125.53C1707.2,122.06,1597,49.82,1530,118.81,1514.4,3.28,1365.3-.36,1339.52,109.05c-59.09-58.38-138.22,5.49-116.33,78.28-60.51-20.39-110,48.82-83.28,102.93-22.63,21.94-35.42,52.36-17.72,93.41-37.75,42.94-16.74,109.27,35.43,123.38-23.52,62.9,48.94,127.25,104.87,86C1284,621.56,1307,642.8,1337,662.7c-139.79,28-273.54,83.2-387.4,169.79-96.79,72.83-111.35,201-133.77,311.67-22.9,128.2-66.51,250.95-107.11,374.3-.83,2.85-1.7,5.71-2.6,8.56H600.38V2976.91l-.23.64h.23v.2H1718v-.41l502.32-342.28h0a90.71,90.71,0,0,0,14.33-6c65.85-26.61,92.44-112.83,64.4-175.74-44.81-105.08-173.5-69-261.94-57.17-65.55,7.35-76.49-77.64-38.64-116.37,22-28.12,29.26-65.13,36.15-99.44,11.52-52.32-10.92-103-22.35-153.31-10.15-54-13-109.38-19.56-164-7-75.78-20.65-151.77-13.67-228,19.34-46.71,80.56-62.48,114.82-98,80.49-66.58,164.38-128.85,246.51-193.35,72.92-62.43,164.12-111.81,207.47-201.09C2606,974.42,2429.74,845.83,2277.09,919.87Zm-1005.73-333c9.34-16.59,22.08-32.9,19.38-53.76-44.94,4.23-75.39-47.84-51.57-85.4,29.16-46.62,71.69,1.26,70.37-87.75,28.5-6.38,49.34-24.48,58.5-52.32,36.9,2.35,69.76-24.41,76.24-60.63,15,35.27,45.34,63.29,87.58,52.06,10.1,25.9,26.2,48.12,54.8,54.58-5,22.22-4.66,62.95,21.4,67.49,64.2,2.71,65,101,5.83,110.65-1.4,17.38,8.1,33.34,18.22,46.76C1563.87,710.72,1343.67,713.36,1271.36,586.83Zm403.35,2351.09H638.11V1567.38h1036.6Z"/>
  </g>
</svg>
