<svg xmlns="http://www.w3.org/2000/svg" viewBox="0 0 2994.91 3000">
  <title>13icon 1</title>
  <g>
    <path d="M1544.49,298.84a11.34,11.34,0,0,1-.57-1.16l1.75-2.25c-.53-.14-.87-.25-1.22-.31-2.62-.39-5.24-.79-7.87-1.14a2.15,2.15,0,0,1-1.8-1.18,19.31,19.31,0,0,0-1-1.65c-.46.34-.82.57-1.14.86-1.71,1.49-3.39,3-5.12,4.49-1.56,1.33-1.14,1.51-3.32,1a3.25,3.25,0,0,0-.75,0c-.11,1.75-.07,3.5-.1,5.24s0,3.64,0,5.3c-.61.7-1.45.84-1.88,1.59,2.07,2,4.45,3.58,6.37,5.46.21.87-.13,1.65.22,2.38,3,.23,6-.48,8.76-.32.75.5.83,1.41,1.6,1.79,1.8-1.77,3.38-3.65,5.06-5.31,1.11.26,1.41,1.43,2.45,1.64.63-2.79.3-5.66,1-8.39.41-.1.72-.18,1-.24s.74-.13,1.4-.24c-.37-.65-.6-1.09-.87-1.51C1547.06,302.88,1545.77,300.87,1544.49,298.84Zm-9.51,8.65a2,2,0,0,1-1.84-1.81,1.88,1.88,0,0,1,1.88-1.94,1.81,1.81,0,0,1,1.91,1.88A1.9,1.9,0,0,1,1535,307.49Z"/>
    <path d="M1696.86,300.67c3-.19,5.82-1.3,8.63-1.52.82.39,1,1.28,1.84,1.55,1.53-2,2.84-4.08,4.27-5.95,1.14.09,1.6,1.22,2.66,1.28.24-2.85-.48-5.64-.21-8.44.4-.16.69-.28,1-.38s.71-.23,1.35-.43c-.46-.59-.74-1-1.06-1.38-1.55-1.83-3.11-3.65-4.65-5.48a11.21,11.21,0,0,1-.73-1.07l1.43-2.47c-.55-.06-.91-.13-1.26-.13-2.65,0-5.3-.07-7.95-.06a2.11,2.11,0,0,1-1.94-.92c-.36-.5-.81-.94-1.28-1.48-.4.39-.72.68-1,1-1.49,1.72-3,3.46-4.46,5.16-1.36,1.53-.91,1.65-3.15,1.42a3.07,3.07,0,0,0-.73.15c.13,1.75.4,3.47.62,5.2s.47,3.61.68,5.26c-.51.78-1.32,1-1.64,1.83,2.32,1.71,4.89,2.93,7,4.53C1696.65,299.18,1696.41,300,1696.86,300.67Zm5.1-14.59a1.81,1.81,0,0,1,2.15,1.6,1.89,1.89,0,0,1-1.67,2.12,2,2,0,0,1-2.07-1.54A1.89,1.89,0,0,1,1702,286.08Z"/>
    <path d="M2469.48,2530.52c-25.77.32-50.81,5-76.36,5.83,17.16-15.79,37.39-28,60.67-32.39,18.65-1.5,33.05,15.85,50.33,21.91-3.87-7.25-23.44-29.75-36.46-42.21-43.28,2.78-66.81-2.89-103.07,26.67-16.17,10.13-9.8,9.08-28.59,5.16-25.51-5.32-50.94-11-76.47-16.33-13.22-3.17-19-17.62-28.31-26.33-12.16-12.54-8.81-12.4-5.1-27.57,55.4-194.73,97.61-393.81,178.42-580.2,6.11-3.76,12.89-4.26,18.14-8.33-1.21-12.9-.35-25.69-3.31-38.16-28.28-10.25-79.36-50.76-107.06-33.29q-130.18,110.19-261.58,218.79c26.58-153.71,87.09-306.35,117.92-461.36,6.55-21.91,4.69-50.9,28.58-61.83,3.84-36.18,19.66-64.82,37.5-95.8-14.48-16.59-45-25.13-50.46-46.9-1.91-26.26-4.38-52.48-6.71-78.71-16.65-147.83-23.06-296.1-24.43-444.59l-49.69-29.12-22.07,9.53c-111.69-36.79-228.91-41.69-345-54-7.35-5.27-12.21-11.53-13.9-20.69-19.23-73-32.67-147.19-31.28-222.79,83-27.41,136.44-112,137.85-197.32-3.89-78.19-19.08-160.27-47.64-233C1754,27.28,1700,102.13,1673.34,56.82c-19.38-34-24.81-72-74.15-50.33-58.92,18.23-100,55.28-125.53,111.2-34.62,79.07-14.56,171.08,9.59,250.49,21,73.48,79.08,112.66,150.82,129.68,13,63.21,30.27,110.41,29.38,175.59-3.62,21,13,72.43-9.55,81C1544.67,804.74,1434,854.57,1328.08,910.63c1.5,2.66,2.86,5,4.56,8-34,6.26-42.86,41.69-62,65.91h-7.11c-36.27,75.22-92.72,139.44-140.27,207.84-40.72,35.94-111.14,138.13-165.45,135-4,1.38-5,7.71-7.59,11-12.43,20.29-10.75,31.93-6.62,55L956,1395.5c-14.25,43.66-28.41,87.54-43.09,131.28H601.71V2977.21l-.23.1h.23v.19H1719.33v-.35l812.1-342.39h-812.1V2456.59c7.35-19.76,24.14-42.68,60.73-96.5-18.15-19.28-36.53-38.08-54.92-57.43l-5.81,1.36v-85.46L1752,2200c17.31,13.76,31.15,31.13,49.19,43.47,60.45-4.34,123.58-14.15,175.6-46.88.32-6.83-4.47-11.75-4.78-18.33,11.63-21,31.77-35.83,50.56-50.48,15,31.91,29.67,63,44.21,94.48-50.91,56.84-108.5,109.9-157.28,167.36,68.76-51.44,140.79-101.48,206.8-155.39-16.51-48.63-36.23-96.39-52.1-145.27,71.45-60.23,137.68-126.94,216.82-177.63,19.74-17.49,58.65-32.1,64.71-58.85,0-1.85-.36-4.46,3.43-5l6.63,13c-63,182.41-118.15,368.78-201.05,543.28a809.19,809.19,0,0,0-95.2,134c12,22.39,24,44.6,36.1,67.18,34.76-3.68,68.6-11.51,103.38-13,44.76,7,93.12,1.39,134.21,22.53,26.85,11.82,17.43,10.13,46.24,8.7,50.85-3.62,101.33,9.07,152,11.59-27.31-21.41-62-29.15-96.33-29.51q-36.33-2.94-72.65-6c-1.44-.12-3.57.6-4.4-2.53,61.63-27.68,127.13-2.21,187.42,16.43-23.43-16.67-49.46-34.49-76.82-43.75-24.52-4.6-48.14-6.19-72.44-12.63,28.83-3.48,57.87-6.74,86.8-6.42,24.93,4.84,49.67,10.09,72.55,21.74,1.45.43,3,2,4.74-.42C2536.32,2547,2502.21,2537.48,2469.48,2530.52ZM1605.77,418.29c-11,6.43-22.4,20.56-34.26,22.51.51-3,3.12-5.11,5-7.46,19.53-19.84,19-41.41,20.38-67.49-16.32,12.22-25.35,27.53-23.75,48.09-5.51,4.12-10.88,8.11-17.07,12.72-.94-5.93,4.46-8.9,3.84-13.61-23.34-3.68-21.26,8.63-49.18-8.59.26-2.28,1.7-2.38,3.12-2.36,16.29.49,44.37,2.88,48.86-17.36-67.93-8.88-69.55-89.51-77.94-142.79-7.81-108.79,85-146.86,120.06-30.15,12.36,38.87,11.55,80.47,5.55,120.42C1609.94,361.36,1619,390.44,1605.77,418.29ZM990.62,1497c6.29-17.77,13.47-35.24,20.56-52.72,8.82-21.73,7.53-18.24,26.27-28.38,8.29-30.39,17.88-61,38.64-85.9,55.6-69,178-288.34,256.47-303.68,4.44-4.06,3.7-10.44,8.5-14.24,29,63.6,50.8,131.9,81.85,193.72,25.23-21.39,54.7-38.71,71.27-68.25,15.26-25.31,31.62-50,47.61-74.85,1.17-1.83,1.65-5.07,5.28-4.08-1.48,48.71-5.52,97.36-7.6,146.07a23.94,23.94,0,0,1-6.7,16.1c-24.2,26.83-48.74,53.15-72.26,80.6,23.49,58,18.68,124,34.61,183.75,22.91-11,44.43-24.84,67-36.66,4.41-2.41,6.73-6.06,8.88-10.23,25.08-42.46,43.55-95.6,72.23-132.73-11.08,53.74-26.67,136.48-38.85,199.93a24.56,24.56,0,0,1-7.95,14.45c-2.56,2.27-5.08,4.58-7.62,6.89H979C983.13,1517,987.05,1507.05,990.62,1497ZM1676,2937.67H639.44V1567.13H1676Zm-8.82-2543.83c-10.89,11.91-13.06,27.11-19.78,40.25-7.43-22.49,9.34-40.53,9.28-62.53,10.14-55.9-25.89-105.93-19.45-161.33,5.37-80.93,75.75-144.42,126.83-51.78,24.74,55.48,33.92,216.93-58.25,204.78,16.09,28.85,50.12,32,80.1,36.63-9.53,6-19.42,5.86-29.81,9.23-18.07-5.65-34.94-11.63-53-18.32-.31-15.31-14.33-27.22-20.65-40.77-1.65-2.68-3.31-5.57-7.77-5.5-9.29,29.32.47,35.1,16.25,58.19,13.88,10.68,33.22,11.11,48.49,20.21-16.91,1.12-33.93-2.5-51.12-3.13C1681.31,411.12,1674.37,402.61,1667.22,393.84Zm98.14,1628.56c-6.54,24.76-13.33,49.46-20.1,74.17-.4,1.47,0,3.72-3.25,3.79-4.06-7.2-5.56-16.47-14.88-18.83-2.62-1-5.2-2-7.8-3V1687.47l1.62-1.59c13.74,10.92,14.33,12,17.61,27.18,19.59,70.26,23.9,141.92,24.92,214.49C1763.64,1959.08,1767.91,1991,1765.36,2022.4Zm230.53-1c-6.56.43-11.57-3.31-18.28-3.17-22.4,21.14-44.21,45.09-66.29,67.21-21.85,2.78-43.6,6.6-66.13,9.42-14.61-54-25.71-107.55-18.68-163.54,2.72-87.51,4.76-175,30.67-259.39,26.75,19.74,52.56,39.71,79,59.75,3.8,2.9,7.41,5.06,12.62,4.33,25.22-4.11,51.19-5.52,76.07-10.79-5.43-74.14-18.35-149.45-27.56-223.76-33.57-13.13-67.33-25.66-101.09-38.28-5.27-2-9-4.63-11.74-9.87-31.47-62.41-68.32-125-97.66-187.19,40.38,38.37,74.07,89.56,113.47,131l76.21-63.14c-6.78-35-4.8-69.94-1.31-105-30.34-26-64.94-47.1-97-71.27a52.67,52.67,0,0,1-13.79-14.59c-24.94-41-55.56-79.23-77.76-121.4,39.24,28.78,77.3,59.23,115.83,89,23.24,14.08,53.34,8.86,79.55,13.59,11.86-100.28,13.71-202,25-302.38,19.32,1.62,35.51,6,55,9.09,8.37,11.48,23.14,21.51,28.18,35.69,7.31,42.78,14.13,85.64,21.93,128.34,8.71,62.05,3.63,125.1,6.65,187.58-1.21,58.8,11.39,119.85,2.86,177.61-6.09,14.94-16.62,28.77-12.51,45.55l-6.07,2.67c-11,24-11.38,38-2.38,63.17h12.63c-13.08,95.23-33.77,190.13-49.33,285.25-26,80-43.32,164.61-79.19,240.71C1987.32,2006.1,1993.09,2012.73,1995.89,2021.42Z"/>
  </g>
</svg>
