<svg xmlns="http://www.w3.org/2000/svg" viewBox="0 0 2994.91 3000">
  <title>11icon 1</title>
  <path d="M2488.38,877.7c9.72-1.41,18.85.48,28.29-1.75-.35-13.22,2.26-25.27-2.49-38.1-11.9-.38-23.94.91-35.7-1.12-4.56-105.58-6.81-211.2-10.06-316.83-3.47-22.7,4.6-49.7-6.93-70-21.51-21.81-42.82-43.8-64.21-65.72-1.22-1.26-2.42-2.92-4.87-1.3,2.06,151.54,8.4,303.47,8.89,454.81-14.15.59-27.35-1.4-41.14,1.48.22,12.88-2.49,24.55,1.3,37l27.11.9c-38.5,9.46-65,57.77-108.41,41.86-26.19-7-43.52-30.6-66.65-40.43-1.63,14.26-3.28,28.81-4.9,43.11-11.76,2.15-152.24.64-169.33-1.81-68.88-206.56-108.35-321-108.35-321s-92.06-82.75-256.65-213.5c43-68.8,49.76-228.14,9.61-298.35C1622-3.73,1506.39-27.74,1413.75,36.74c-50.16,28.84-67.27,83.42-66.62,136.63-4.09,70.43-1.15,142.55,26.06,208-96,71.07-299.41,204.2-299.41,204.2s-42.63,134.68-64,202q-59,185.91-118,371.84c-7.59,23.91-7.55,23.92-7.64,48.82-1.73,106.11,1,212.7-1.4,318.74H600.38v1450.4l-.23.13h.23v.2H1718v-.46l381.78-342.23c8.9-58.9,19.48-93-27.74-121.21-74.62-44.56-161.69-51.92-244.19-64.9,27.82-62.35,78-115.95,109-176.14-40.38-4.44-86.91,3.76-125.17-4.75q-5.81-506.58-12-1013.21c6.07-70.56,27.51-139.7,39.27-209.69q10.14-50,20.36-99.88c.26-1.26.23-3,3.21-2.57,16.64,48.71,30.73,99.41,46,148.5,95.19,2.42,190.87-6,286.21.07,19.25,0,6.35,27,9.8,38.35,38.52-16.67,78.65-46.33,122.12-27.22,35.57,12.45,74.63,10.47,111.89,14.19,54.62,6.66,96.67-10.53,104.74-66.92.31-32.5,2.71-64.86,4.23-97.2C2542.83,919,2524.84,885.23,2488.38,877.7ZM1363.52,113.11c17-59.61,83-93,142.79-103.48,71.79-11.76,152.16,37,178.6,100.08C1580.76,142.67,1466.88,151.94,1363.52,113.11Zm206.92,108.36-1.27-14.83c23.27-17.31,57.15-42.87,82.26-60.74,1.11,1.39,1.91,2.45,1.91,2.45-1,0,3,49.4.23,69.65Zm22.72,201.72-24.23.31-1.29-74.63,25.37.67ZM1512,313.28c-.48-8.46,7.43-43.61,11.59-51.61h7.28c6.74,15.33,9.41,35,12.24,51.71C1532.79,315.27,1522.37,314.05,1512,313.28Zm30.7,109L1514.9,422l.29-72.8,27.07-.23ZM1395.7,145l84.91,65.45-1.36,11-85,.92C1395.38,221.82,1392,166.09,1395.7,145Zm68.51,204.62,24.75-.06,2,72.27-27.34.43ZM1144,946.54c26.51,117.45,59.08,234.86,62.39,355.52q-.26,112.41-.17,225H1078.9c-1.43-94.73-1.89-189.44-3.32-284.19C1092.3,1143.29,1120.34,1045,1144,946.54Zm530.69,1991.38H638.11V1567.38h1036.6Z"/>
</svg>
