<svg xmlns="http://www.w3.org/2000/svg" viewBox="0 0 2994.91 3000">
  <title>icon 999</title>
  <g>
    <path d="M617,1337.17c-2.13-44.68,10.64-89.13,13.62-134.08-86.42,20.7-171.8,50.13-257.8,74-13.93,6.66-16.48,27-25.34,39.13-34,65.71-69.15,130.74-102.38,196.81,85.42,83,175.56,160.74,260.81,244-33-8.82-63.86-29.79-96.2-42.87q-150.78-70.93-301.56-141.9c-6.75-2.24-10.13-7.12-12.78-13.63-121.69-315.54-128.9-174.09,9.27-483.45a32.56,32.56,0,0,1,13.64-14.93c98.79-56.09,192.68-123.41,294-173.87,88.64-19.56,176.3-39,265-59,9.44-90,45.68-173.74,71-260.16a22.86,22.86,0,0,1,11-13.74c360.65-211.54,203.43-164.13,618.78-213,55.61-6.38,111.18-13.15,166.82-19.26,86.86,9.8,173,30.39,259.52,44q103.76,18.48,207.51,36.94c78.14,34.74,147.26,91.25,222,133.73,37.25,68.38,51.12,153.48,80.38,227.35,4,13.12,2.26,25.7,2.63,39.43,51.39,18.27,106.08,31.5,158.57,48,143.08,66.34,280.54,145.79,421.82,216.33,6.15,3.17,8.82,7.79,11.09,13.67q37.36,96.56,75,193c4,16.69,19.19,33.27,12.41,50.66q-51.93,133.62-103.27,267.48c-132.08,82.37-290.48,135.42-431.52,207.36,60.8-79,133-153.16,198-230.31,4.76-5.41,6.24-10.34,4.56-17.63-21.71-90.82-40.19-182.42-63.13-272.87-96.58-23.3-193.35-46.59-291.06-69.86-1.41,48.83-2.16,96.87-2.86,145.61-18.71,81-65.62,154.86-95.16,232.83-3.91,8.86-5.43,17.23-4,27.13,14.06,105.27,27.15,210.7,40.6,316,4.47,34.85,9.09,69.68,13.63,104.52,1.77,9.31,1.77,17.42-5.3,24.86C2130.52,2206.93,2012.08,2362.11,1883,2506q-136.35,83.67-272.57,167.57c-20.78,10.44-46.05,1.89-68.62,4.15-52.15-4.37-108,5.84-158.23-7.45q-190.65-109.86-381.49-219.38c-124.87-125-241.86-259-363.74-387.39,16.88-152.11,35.09-304.2,52.13-456.3C674.58,1516,638,1427.73,617.26,1337c74.62,78.75,143.25,164.48,216,245.42,5.32,6.09,7.91,12,6.25,19.82-13.28,111.13-25.06,222.49-38.67,333.6-1.79,9.19,3.54,15.07,9.17,21.34l132.66,159.2c43.21,48.52,81.49,104.4,127.19,149.1,36.83-60.58,70.28-122.85,108.36-182.65,40.8,48.33,75.35,101.9,117.35,148.69,27.76-50.31,48.52-104.3,77.46-153.82,36.72,56.13,69.77,112,107.6,167.24,39.18-52.53,70.42-113.3,111.38-163.1,38.17,54.35,71.12,113.22,111,165.86,28-56.29,52.23-111,81.74-166.63,39.18,57.25,74.4,110.93,113.58,168.18,66.28-108,129.77-217.38,195.52-325.67,12.18-21.25-16.44-97.38-19.07-127.49-12.52-62.66-27.64-124.76-38.68-187.68,86.56-77.65,175.92-152.28,260.93-231.54-73.45,39.35-152.07,76.12-220.6,123.29-49.24,58.9-100.43,116.24-148.9,175.74,15.91,34.91,32.77,68.86,49.65,103.24,3.59,7.18,3.86,13.64,2,21.11-17.69,67.85-32.9,136.06-51.69,203.63-38.09-29.2-72.93-62.39-110-92.94-2.93-2.5-5.25-6.45-10.71-5.94L1726,2041.18c-35.86-45.88-69-91.19-104.62-136.63-39.15,40.07-67.3,92-106.2,132.51-38.88-45.78-73.42-95.59-113.7-139.83-36.42,48.48-66.7,102.5-105.21,148.49-46.51-49-91.32-99.13-138.55-147.54-41.68,43.17-79.35,87.13-122.11,129.19-18.15-88.12-30.69-177.57-47.46-266.09-2.4-27.07,44.94-69.89,56.34-98C901.39,1556.47,762.67,1437.26,617,1337.17Zm164.09-106.62c164.79,68.8,331.22,142.66,497.34,204.72-144.62-121.44-286.86-247.48-433.57-365.42C823.5,1123.65,802,1177,781.08,1230.55ZM2070,1083.89c-103.39,118.69-211.53,234.58-311.43,353.42,126.9-61,258-122.87,383-188C2138,1237.47,2075.7,1093,2070,1083.89Zm-724.74,610.16c48.41-15.64,95.14-39,142.89-57.53,6.55-3.43,12.46-.37,18.56,2.27,40.77,15.94,80.8,34.77,122,49.22-14.64-67.57-29.16-141-50.31-205.79-29.9,35.69-53.21,78.87-85.33,111.53-30-34.31-59.92-68.93-90-103.21-2.21-2.53-3.62-6.6-8.89-6.16C1378.68,1554.2,1358,1624.09,1345.23,1694.05ZM2311.7,802.43c-.73-.28-1.17-.6-1.33.46C2311.09,803.16,2311.54,803.46,2311.7,802.43Z"/>
    <path d="M2311.7,802.43c-.1.26-.2.75-.3.75a3.53,3.53,0,0,1-1-.29c.1-.27.21-.77.3-.77A3.93,3.93,0,0,1,2311.7,802.43Z"/>
  </g>
</svg>
