<svg xmlns="http://www.w3.org/2000/svg" viewBox="0 0 2994.91 3000">
  <title>16icon 1</title>
  <g>
    <path d="M2028.11,317.62c-9.95,21-29.92,39.1-31.88,62.84-.11,38.47-1.07,76.31-1.17,114.86l-11.06,8.8c14.41,10,30,16.14,44.91,25.14,20,8.5,32.38,31.67,54.75,33.65,55.59,7,114,16.88,158.28,53.73,59.61,30.07,139.26,37.67,171.57,105.57,21.13,39.89,37.24,82.94,68.28,116.66C2509,877.19,2600.55,950.8,2587,997.2c38.88,56.28,63.87,121.39,88.06,185.32,40,90.48-27.33,166.9,27.94,245.62,32.13,61.12,64.42,127.67,67.86,197.61-.86,46.14-39.32,77.4-59.35,115.77C2691.82,1777.4,2663,1807,2643.39,1843c-44.56,53-123.86,56.2-186.56,75.36,43.81-44,74.71-97.73,118.46-141.09,43.3-40.77,76.39-126.08,34.2-176.1-35.14,42.34-52.12,99.48-78.16,148.25-28,34-75.95,48.61-111.31,75.11-35.47,14-75.91,13.19-113.52,19.74,21.77-21.1,53.24-29.68,72.67-53.15,22.4-28.86,39.68-65.54,75.79-79.34,49.15-1.83,77.17-191.21,37.26-176.08-81.92,89.59-149.73,191.21-248.36,264.28,17.75-60.43,29.64-126.42,68.7-177.46,33.76-38.6,54.93-87.48,91.53-123.28,5.34-4.55,14.65-13.29,6.57-19.57-88-46.87-76.21-12.59-151.26,18.45-48.17-2.16-59.89,14.3-94.56,44.08-3.15-3-.28-4.84.6-6.5,11.56-21.74,23.31-43.39,35-65.06,23.28-51.68,66.78-95.19,121-113.62,33.89-16.47,74.19-6.85,106.83-23.81-4.79-15.07-16.94-26.46-26.15-39-30-34.7-48.58-75.25-61.83-118.82-155.59-35.39-148.52-149.65-211.11-164.69-15.52,133.34-95.45,253.77-194.71,341.22,2.65,40.76,4.26,81.48-3.74,123,147.34,125.68,274.41,276.7,360.77,450.74,35.72,85,92.58,177,63,271.66-23.92,136-266,511.1-144.9,607.81,36.58,22.19,74.77,44.54,114.87,59.06,49.55,4.34,96.77,11.05,137.29,42.4-11.49,3.14-21.61-.33-33,.72,3.05,10.22,28,18.15,36.84,27.16-1.94,3.24-4.5,1.83-6.61,1.8-15.63-1.09-31.24-4.24-46.92-4.29,10.06,12.64,30.07,20.49,43.37,31.34-.35,3.35-2.73,2.65-4.5,2.56-20.21-1.15-40.21-3.32-60.53-1.48,26.64-.6,48.06,12.49,67,30.42-48.44,5-98.11.44-147.07,2.83-39.45-4.31-63.68-47.4-96.76-67-36.44-27.32-89.41-39-133.09-25.3-40.18,17.25-79.44,10.21-115.27-12.64-57.26-51.86,40.89-113.88,64.3-159.88,11.38-19.94,20.53-41.21,30.79-61.76,80.44-210.16-38.89-339.2,121.3-561.69C1987.11,2002.27,1814,1847.56,1691,1662.29c-47.2,65.39-148.86,64.6-196.69-.09-120,168.3-217.06,305.45-397.22,417.66,70,118.22,93.61,261,42,390.84-27.07,60.55-41.57,126.17-44.85,192.31-.86,39.25,10.71,77.65,20.68,115.22,6,52.68,95.52,144.41,22.74,178.49-37.39,13.59-82,9.23-113.83-15.85-58.3-37.16-131.37-14.86-186,18.78-33.77,18.25-27.36,15.85-69.48,22.91-39,6-76.94,13.09-116.38,17.44,13.39-21.07,30.27-35.72,54.86-40.7-21.18,1.9-41.34,8.92-64.72,13.16,14.75-16.09,30.37-27.55,44.29-43-22.12,3.46-35.12,9.77-57.16,15.39,10.09-14.68,23.82-21.21,35.08-34.87-12.29-1-22.13,5.31-32.89,4.54,42.53-52.61,116-61.43,179-75,55.51-15,155-12,154.24-90.27,9.47-176.72-37.09-348.81-57.94-522.6-11.87-74.85,20.19-141.8,40.78-211.56,69-227.32,183.51-449.11,372.07-599.32-5.19-49.15,15.48-94.08,26.62-141.58-78.7-140.24-116.79-252.73-88.89-414.72-30.44,2.17-61.73-6.74-91-5.25-73.79,29.17-156.78,49.56-231.93,14.06-28.6,33.19-67.46,53.85-101,81.16,5.21,74.92-13.09,156.67-104.07,151,30.53,39,78.19,67.56,125.83,81.17-13.09,12-63.32,8.84-83.6,11.83-40.76,4.87-77.32-23.18-117.78-16-43,4.67,38,66.4,49.55,77.83,31.66,26.05,73.1,36.38,107.4,56.79-94,28.32-252.67-42.67-315.18-116.44-11.9-17.51,45.94-44.77,6.11-48.69-40.63-1.92-84.73-53.68-87.12-93.11-7.16-34,43.91-39,27.65-56.19-39.69-19.76-53.93-74.76-16.33-104.08,32.48-24,68.49-43.1,107.54-54.27,14.06-4.75,32.19-5.83,38.91-21.2,28-44.14-18.15-85.33-57.9-99.45-10.43-5.14-24.94-4.1-32-14.07,56.35-18,121.75-17,175.89,8.77,26-29.75,51.27-60.11,78.71-88.6,27.74-29.47,60.45-50.77,98.73-63.61,11.26-4.31,17.82-16.24,30.18-19.33,65.93-24.81,139.38-20.53,205.41-45.08,56.86-24.39,116.05-61.14,179.6-37.92,23.45.85,45.39-16.05,69.52-17.69,51.74-12,103.89,8.17,154.32,11.38,27.2-10,55.43-14.56,83.7-20.52,9.24-42.07,27-84.2,28.43-127.14-4.45-32.91-13.9-64.83-1.07-97.2-82.08,7.39-69.41,3-114.86,68.54,19.18,24.89,38.37,46.08,58,71.33-32.63-15-61.71-39.6-93.24-57.86-16.85-19.84-15.11-51.64-24.57-76.16,16.53-21.35,25.36-52.09,48.63-66.55,30.22-10.54,58.08-30.32,90.07-34.38,20.8-1.74,41.31-3.06,62.09-5.52,11-23.63,16.3-56.24,37.12-72.54C1738-11.33,1761.42,1.38,1856.48,2.29c42.82,6.35,83.24,25.87,125.14,37,21.77,8.62,36.88,28.58,55.86,41.86,12.48,12.71,17.9,61.18,17.29,79.6,52.79,18.45,94.1,56.76,140.39,86.77,19.37,18.25,15.44,50.13,25.08,74.86q-19.68,35.91-40.15,73.27l-117.35,36.41c11.89-19.89,40.11-35.58,57.86-54.24.12-26.68-3.54-52.8-6.72-79.62l-74.4-28.6c-6.62,15.3-3.45,32.57-11.24,47.43-43.69,3.84-78.9,33.41-109.31,63.38,15.72,41.48,3.54,49.21-12.66,88.05-11.17-9.54-16.74-20.59-28.38-29.43-10,9.95-16.83,22-26.86,31.85-9.24-12.44-14.38-26.61-24.07-38.86-11.73,10.67-19.83,21.11-32.64,30.26-9.82-13.18-15.47-27.6-26.16-40-12.24,11.59-19.77,24.91-33.51,34.55-11-14.28-20.37-29.32-31.76-43.5-11.8,6.64-25.58,26.34-37.6,26.72,1.86-31.64-14.53-70.68,15.14-93.1-6.61-8.78-61-66.81-93.9-96,11.4,24.33,28.31,45.78,42,68.23-8,31.91-15.78,62.8-23.6,93.94,21.11,31.25,38.55,65.67,61.44,94.88,13-13.67,21.93-30,35.71-42.93,9.62,13.81,16.11,28.57,26.05,42.8,10.21-13.68,16-23.64,25.86-38,9.22,16,14.6,32.49,23.86,48.22,12.86-13.41,21.43-26.35,35.24-38.65,10.8,13.73,12.2,35.19,25.65,45.32,9.72-12.15,15.41-27.15,27.17-38,9,16,14.24,31.5,24.29,46.81,66.2-85.41,70.78-56,60.26-165.53C1975.21,350.33,2000.9,331.13,2028.11,317.62ZM1749.5,292.37l1.68-1.76c-34-36.43-66.69-76.59-102.27-110.42-7.18,9.49-19.21,31.31-22.19,40.55Zm133.93,18.44c17.75-4.48,98.59-32.71,107.93-37.68-3.71-14.77-7.52-29.7-12.92-45C1957.77,241.12,1892.44,301.79,1883.43,310.81Zm-123,54.05c48.12-10.8,32.7-14.51,76.32,6.78,1-14.54-1.53-45.7-4.31-53.41-10.64,5.75-17.42,16.38-28.47,22.54-7-7.57-12.2-27.62-21.6-28.52ZM714.77,2957.32c.88.56,1.2.26,1.53-.62C715.63,2956.65,715.06,2956.59,714.77,2957.32Z"/>
    <path d="M714.77,2957.32c.16-.21.27-.53.47-.59a3.72,3.72,0,0,1,1.06,0c-.19.32-.3.78-.58.92S715.1,2957.43,714.77,2957.32Z"/>
  </g>
</svg>
