<svg xmlns="http://www.w3.org/2000/svg" viewBox="0 0 2994.91 3000">
  <title>21icon 1</title>
  <path d="M2587.49,1609.44c-2.35,178.47-2.43,360.62-67.06,529.7-92.78,256.89-244.36,504.26-473.9,659.53C1875.87,2918.29,1677,2992.88,1467.87,3000c-104-23.08-205.16-61.68-301.85-106.6-442.24-181.11-633.3-469.75-704.73-934.94-42-252.4-67.55-508.38-35.63-763.49,13.74-214.55,53.11-430.79,172.78-613.56C842.56,212.27,1060.32,56,1504.28,5.55c123.29-11.32,188-19.26,208.57,124.2,23.91,75.07,61,146.53,95.94,217.14,96.13,183.15,238.72,87.43,391.41,66.86,70.66,3,173.34-40.68,216.67,36.58,52.79,126.47,70.76,264.48,96.61,398.26C2556.26,1100,2596.1,1353.65,2587.49,1609.44ZM1789.7,2183.2l1.75-1.6c214.18,120.86,370.09-88.21,454.28-262.65,116.34-224.71,120.65-756.67,8.85-983.16-193.31-321.26-448.47-292.5-643.15,9.82-67.16,122.53-100.63,260.31-133.79,395.1,3.83,195.3,29.39,391.48,70.72,581.45-17.13,107.8-33,215.83-49.93,323.68-2.1,13.4-2.28,13.37,3,25.52-27.72,60.13-71.32,115.41-90.09,178.73-5.23,53-11.16,106-15.8,159.12-.14,1.79-1.07,4.45,2.65,4.87,45.51-90.76,82.27-191.88,151.68-266,35.42,55.18,69.57,111.39,104.11,167.15,103.23,37.06,230.23,47.47,340.26,71.81-93.46-50.86-192.31-94.33-287.72-142.51-32-26-41.38-73.75-64.1-108-18.2-35-36.31-70-54.75-104.84-3.07-5.79-4.13-11-1.78-17.22,17.46-53.14,29.54-108.36,49-160.57,58.22,57.08,75.38,143.88,114.12,214.35,8.34,23.13,23.72,45.85,26.67,70-6.59,7.65-17.2,6.92-25.55,11.44,97.53,54.7,201.41,101.46,301,153.67,72.51,2.28,148.31-18.65,221.6-25.57-86.66-35.44-189.24-47.38-277.65-83.32q-74.34-58-149-115.51C1821.89,2251.37,1808.81,2214.6,1789.7,2183.2ZM904.33,2601.51l1.5,2c44.34-22.42,87.54-47.09,131.45-70.35,42-22.64,83.86-45.36,125.92-67.78,6.5-3.46,10.89-7.9,13.56-14.78,20-55.09,50-107.5,65.27-163.88,1.48-43.76,3.29-87.51,4.9-131.26,5.7-69.13-1.71-140.63,12.2-208.52,45.11-150.76,66.27-308,72.43-465,1.69-210.82-48.91-551.22-237.74-674.31-130.84-91.58-258.75-68.25-353,60-93.31,113-149.78,251.31-159.13,397.63-16.31,155.7,4.7,312.69,18.78,468,18.59,110.67,17.93,235.84,88.89,328.41,65.83,80.53,156.59,141.65,258,164.13-11.36,21.54-29.34,40.88-43,61.64-6.64,7.61-19,5.19-28,7.89-124.4,28.75-167.37,8.09-286.73-8.42,186.67,131.23,113,86.74,325.15,98.36-17.52,32.84-47.64,62.61-61.09,95.44,42-21.93,82.52-47.49,124.1-70.52,4.72-2.7,6.32-6.42,7.11-11.49,11.68-88.6,13.53-111.91,69.53-184.17,17.78-19.05,45.16-27.08,63.4-46.67,17.92-15.1,31.08-32.13,47.9-48.66-30.06,111.82-45.65,233.64-102,334.84C1010.43,2503.05,957.1,2552,904.33,2601.51Z"/>
</svg>
