<svg xmlns="http://www.w3.org/2000/svg" viewBox="0 0 2994.91 3000">
  <title>14icon 1</title>
  <g>
    <path d="M1358.68,751.25c-34.11-22.57-60.13-46.65-84.56-79-63.44,46.8-145.62-26.19-118.95-97.53-59.17-16-83-91.24-40.18-140-20.07-46.55-5.57-81.06,20.1-105.95-30.28-61.37,25.83-139.88,94.46-116.75-24.83-82.56,64.93-155,132-88.79,29.24-124.1,198.36-120,216,11.07,76-78.25,201,3.69,154.62,105.6,72.65-.1,108.08,89.83,60.24,142.38,80.24,15.15,90.44,128.84,16.17,160.27,59,71.3-27.84,179.18-105.61,121.58-27.52,39.89-60.72,71.3-104,94,150.84,10.9,287.71,80.74,409.68,166.15,86.75,56,93.54,162,109.86,254.46,9.54,23.93,7.27,166.4,28.78,160.2,17-7.53,30.34-22.35,43.46-35.1,70.3-79.64,141.7-157.63,207.12-241.45-20.62-248.81-210.58-95.11-198.71-390.77-25-7.32-6.34-31.34-2.41-48.32-75.86-1.65-110.46-47.63-147.54-106.45-32.85-47.3-64.41-95.46-95.64-143.84C1852.09,216.65,1973.92,1.08,2158.68.15,2312.53-5.73,2435,161.3,2391.62,307.06c-17.38,67.2-36.82,133.8-58.79,199.64-14.36,54.85-54.5,93.95-108,111.34,8.36,14.71,18.78,27.35,25.53,42.92-6.67,4.56-13.38,4.47-21.26,6.06C2211,940.52,2394.3,796,2425,1043c173.14-84,373.09,61.88,307.08,252.71-49.17,101.27-152.62,157.29-235.33,228.09-93.16,73.17-188.31,143.8-279.6,219.32-38.86,40.27-108.3,58.15-130.24,111.14-7.91,86.4,7.57,172.6,15.5,258.55,7.5,61.92,10.68,124.7,22.19,186,13,57.08,38.42,114.55,25.35,173.89-7.82,38.92-16,80.9-41,112.79-42.93,43.94-30.53,140.33,43.83,132C2253,2704,2399,2663.07,2449.84,2782.26c31.8,71.36,1.64,169.16-73.05,199.34-40.92,21.5-86.24,10.31-129.94,6.29-92.45-7.53-185.4-4.17-278-1.67-91.68-2.51-192.13,37.19-277.65-7.81-73.76-42.23-78.28-139.52-54-212.54,19.22-43.86,42.45-91.52,21.29-139.32-34-140.06-267.35-140.33-290.52,6.09-21.18,83.84,36.84,123.8,39.27,203.85,4.54,48.38-25.38,90.11-61.59,119-104,74.14-235.89-16.95-352.16-1.17-35.92,1.23-71.82,3-107.7,5.11-66.49,4.72-129.75,32.1-197.45,19.83-99-12.09-136.53-134-96.52-216C647.77,2635.52,810,2701,914,2714.81c30.8,9.15,56.39-13.38,61.4-43.22,1.85-39.56-40.07-67.75-60.73-98.42-39.94-52-37.65-123-44.41-185.4-4.11-45,22.81-84.68,24-129.3-2.06-27.38,28.32-202.42-5-195.75-141.09,34.07-257.57-43.34-275.92-189.1-7.68-52.4,18.41-102.51,32.65-151.71,46.05-139.91,95.52-279.14,121.5-424.56,25.42-125.49,41.94-270.9,151.73-353.5C1048.41,845.63,1200.12,783,1358.68,751.25Zm283.14-350.59c-32.44-7.32-50.7-32.52-62.16-61.9-47.91,12.74-82.38-19-99.34-59.05-7.35,41.09-44.62,71.44-86.47,68.77-10.39,31.57-34,52.11-66.35,59.34,1.49,101-46.74,46.66-79.82,99.54-27,42.6,7.51,101.67,58.49,96.86,3.06,23.66-11.38,42.17-22,61,82,143.52,331.79,140.53,409.18-9.44-11.48-15.21-22.26-33.32-20.66-53,67.16-10.9,66.21-122.43-6.62-125.5C1636.53,472.07,1636.2,425.88,1641.82,400.66Z"/>
    <path d="M1478.15,710.77c-46,2.52-87.77-31.54-121.57-60.67-29.62-34.76,26.55-79.8,54.33-43.56,17.8,30.61,50,43.67,84.53,39.42,25.11-.68,42.08-18.08,56.44-36.63,18-20.43,50.73-14.14,59.46,11.59C1629.2,665.57,1515.35,715.23,1478.15,710.77Zm4.79-28.15c30.61.76,95.36-23.33,99.55-55.06-8.18-4.47-15.7,11.3-22.63,15.1-48.51,43-116,34.36-153,3.29C1326.8,575.14,1405.13,690.71,1482.94,682.62Z"/>
    <path d="M1547.09,531.41c-.47,33.89-28.09,66.53-68.29,65.72-37.43-.76-66.22-30.55-65.76-68.26.45-36.94,31.89-66.77,68.28-65.79C1518.34,464.08,1548.08,495,1547.09,531.41Z"/>
    <path d="M1614.13,488.64c.11,7.73-6.9,15.06-14.63,15.29-8.35.23-15.88-7.27-15.58-15.53.28-7.84,7.51-14.79,15.22-14.62A15.49,15.49,0,0,1,1614.13,488.64Z"/>
    <path d="M1369.1,496.62c-8.16-.32-14.77-7.17-14.59-15.12.19-8.23,8.3-15.72,16.21-15,7.76.74,14.53,8.43,14,15.9A15.49,15.49,0,0,1,1369.1,496.62Z"/>
  </g>
</svg>
