<svg xmlns="http://www.w3.org/2000/svg" viewBox="0 0 2994.91 3000">
  <title>12icon 1</title>
  <path d="M2501.87,1256.77c-48-69.26,10.47-136.49-24.24-216.08-21-56.25-42.68-113.53-76.41-163,11.8-40.82-67.65-105.58-91.24-139.29-26.93-29.66-40.91-67.54-59.25-102.63-28-59.74-97.14-66.42-148.85-92.88-38.43-32.42-89.11-41.13-137.34-47.26-19.41-1.74-30.1-22.13-47.5-29.61-12.92-7.92-26.46-13.33-39-22.12l9.6-7.73c.09-33.92.92-67.21,1-101.05,1.7-20.89,19-36.81,27.66-55.28-23.6,11.88-45.89,28.77-67.34,44.42,9.13,96.34,5.16,70.48-52.28,145.62-8.72-13.46-13.3-27.13-21.07-41.18-10.21,9.52-15.14,22.72-23.58,33.41-11.66-8.91-12.88-27.79-22.25-39.88-12,10.83-19.42,22.21-30.58,34-8-13.83-12.7-28.31-20.7-42.42-8.58,12.61-13.58,21.37-22.44,33.4-8.62-12.51-14.25-25.5-22.6-37.65-12,11.34-19.74,25.74-31,37.77-19.86-25.7-35-56-53.31-83.48,6.78-27.39,13.52-54.57,20.47-82.64-11.91-19.74-26.58-38.62-36.47-60,28.58,25.67,75.74,76.72,81.47,84.45-25.74,19.72-11.52,54.07-13.14,81.9,10.43-.33,22.39-17.67,32.63-23.5,9.88,12.47,18,25.7,27.56,38.26,11.91-8.48,18.45-20.2,29.07-30.4,9.27,10.92,14.17,23.61,22.7,35.2,11.11-8,18.14-17.23,28.32-26.61,8.41,10.77,12.86,23.23,20.88,34.18,8.7-8.65,14.61-19.26,23.31-28,10.1,7.78,14.93,17.5,24.62,25.89,14.06-34.16,24.62-41,11-77.46,26.39-26.36,56.94-52.38,94.84-55.76,6.77-13.07,4-28.26,9.76-41.72l64.55,25.16c2.77,23.59,5.94,46.57,5.84,70-15.41,16.42-39.89,30.22-50.21,47.72l101.82-32Q2066,315.54,2083.05,284c-8.37-21.76-5-49.8-21.76-65.86-40.16-26.4-76-60.1-121.81-76.33.53-16.2-4.17-58.85-15-70C1908,60.09,1894.9,42.52,1876,35c-36.35-9.81-71.42-27-108.57-32.56-82.48-.81-102.83-12-180,28.38-18.06,14.33-22.63,43-32.21,63.81-18,2.17-35.82,3.33-53.86,4.86-27.76,3.57-51.94,21-78.15,30.24-20.2,12.73-27.85,39.76-42.2,58.55,8.21,21.57,6.7,49.54,21.32,67,27.35,16.06,52.58,37.67,80.9,50.91-17-22.22-33.66-40.86-50.3-62.76,39.43-57.68,28.44-53.8,99.65-60.3-11.13,28.48-2.93,56.56.93,85.52-1.25,37.77-16.65,74.83-24.67,111.85-24.52,5.24-49,9.25-72.62,18.05-43.75-2.83-89-20.6-133.89-10-20.94,1.44-40,16.31-60.32,15.56-55.15-20.43-106.5,11.9-155.83,33.35-57.3,21.61-121,17.84-178.23,39.67-10.72,2.72-16.42,13.22-26.18,17-33.22,11.3-61.6,30-85.67,56C772.32,575.1,750.39,601.8,727.84,628c-47-22.7-103.72-23.53-152.61-7.72C581.38,629,594,628.12,603,632.64c34.49,12.42,74.52,48.66,50.24,87.49-5.84,13.53-21.57,14.47-33.77,18.66-33.87,9.82-65.12,26.63-93.3,47.74-32.63,25.79-20.27,74.18,14.17,91.56,14.11,15.11-30.2,19.56-24,49.44,2.08,34.68,40.34,80.22,75.6,81.9,34.55,3.45-15.63,27.44-5.3,42.84,54.23,64.9,191.91,127.35,273.46,102.43-29.76-18-65.72-27-93.19-50-10-10-80.32-64.36-43-68.47,35.1-6.35,66.82,18.32,102.19,14,17.59-2.64,61.18.16,72.53-10.41-41.33-12-82.69-37.13-109.17-71.41,78.93,5,94.81-66.94,90.29-132.85,29.12-24,62.84-42.2,87.66-71.39,65.2,31.22,137.21,13.29,201.23-12.38,25.39-1.31,52.54,6.53,79,4.62-24.21,142.51,8.84,241.47,77.13,364.85-9.67,41.79-27.6,81.32-23.1,124.56-94.59,76.39-167.66,173.86-224.08,281.12H602.1V2977.75H1719.72v-.25h21.2l547.86-342.4h0c-16.4-15.76-35-27.27-58.08-26.74,17.63-1.62,35,.29,52.52,1.3,1.53.08,3.6.69,3.9-2.25-11.54-9.54-28.9-16.45-37.63-27.58,13.61.05,27.15,2.83,40.71,3.78,1.83,0,4.06,1.26,5.74-1.58-7.64-7.93-29.32-14.91-32-23.9,9.91-.92,18.69,2.13,28.65-.63-35.15-27.58-76.12-33.48-119.12-37.3-34.78-12.77-67.92-32.44-99.66-51.95-105.09-85.09,105-415.11,125.72-534.72,25.65-83.3-23.68-164.22-54.68-239-74.92-153.11-185.18-286-313-396.53,6.94-36.57,5.55-72.39,3.25-108.25,86.12-76.93,155.46-182.88,168.93-300.19,54.31,13.24,48.18,113.76,183.18,144.89,11.49,38.33,27.64,74,53.64,104.53,8,11,18.54,21,22.69,34.3-28.32,14.93-63.29,6.46-92.69,21-47.05,16.21-84.8,54.49-105,100-10.15,19.06-20.35,38.11-30.38,57.24-.76,1.45-3.25,3.09-.52,5.71,30.08-26.2,40.25-40.68,82-38.78,65.12-27.3,54.89-57.46,131.24-16.23,7,5.53-1.06,13.22-5.7,17.22-31.75,31.49-50.12,74.49-79.41,108.45-33.9,44.9-44.21,103-59.61,156.12C2189.11,1519.6,2248,1430.2,2319,1351.39c34.63-13.31,10.31,153.29-32.33,154.9-31.33,12.14-46.32,44.4-65.76,69.79-16.86,20.66-44.16,28.2-63.05,46.77,32.63-5.77,67.72-5,98.49-17.37,30.68-23.31,72.33-36.13,96.59-66.08,22.59-42.9,37.32-93.17,67.81-130.42,36.6,44,7.89,119-29.68,154.93-37.95,38.14-64.77,85.37-102.77,124.12,54.39-16.86,123.2-19.69,161.86-66.3,17-31.71,42-57.7,59.06-89.27,17.38-33.75,50.75-61.26,51.5-101.85C2557.76,1369.09,2529.74,1310.54,2501.87,1256.77ZM1873.25,201.07c4.69,13.46,8,26.59,11.21,39.59-8.1,4.36-78.25,29.2-93.64,33.14C1798.63,265.87,1855.32,212.49,1873.25,201.07Zm-170.08,74c8.16.79,12.69,18.43,18.74,25.09,9.59-5.42,15.47-14.77,24.7-19.83,2.42,6.79,4.57,34.19,3.74,47-37.84-18.72-24.46-15.46-66.21-6ZM1587.33,158.89c30.88,29.76,59.23,65.1,88.74,97.14l-1.46,1.55-106.53-63C1570.66,186.43,1581.11,167.24,1587.33,158.89ZM1453.17,1462.68c41.49,56.92,129.71,57.61,170.66.08q21.53,32.9,45.39,64.26H1407.65C1422.59,1506.17,1437.65,1484.73,1453.17,1462.68Zm223.26,1475.24H639.82V1567.38H1676.43Zm373.09-1081.8c-139,195.74-35.46,309.25-105.24,494.14-8.91,18.08-16.85,36.79-26.72,54.33-20.31,40.47-105.47,95-55.79,140.66,31.09,20.1,65.15,26.3,100,11.12,37.9-12.08,83.86-1.78,115.48,22.26,25.48,15.3,44.92,46.88,72.9,56.43H1719.72v-1046C1813.36,1696.44,1926.51,1787.41,2049.52,1856.12Z"/>
</svg>
