<svg xmlns="http://www.w3.org/2000/svg" viewBox="0 0 2994.91 3000">
  <title>79icon 1</title>
  <path d="M2867.6,906.5,2264.73,443.58l-667-425.46L1468.48,192.38l-69.12,22.79,1.34,68.65-447.3,623L722.12,1224.2l0-.06-9,12.46-4,5.46v0L525,1496.78l-.2.27L320.91,1822.81,118.12,2030.16l225.32-.38,346.82,311.28.13.12,445.72,372.25,207.1,275.17L1460.12,2725l277.12-403.87,317.88-367.82,48.69-55.07,555-711.58,80.38-6.89.35-90.76,64-96.13ZM1602.72,45l650.17,414.7,586.93,450.68-49.88,67.23L2182.68,518.53l-.21-.15L1562.78,98.84Zm-51.87,69.92,620,419.73,607.82,459.5-51.59,77.55L2116.72,624.25l-.15-.12L1488.47,199ZM2088.63,1885.2l-44.28,50.07-199.51-58.11-48.15-14h0l-490.63,26.27-163.43-76.77L1011.47,1751,883.22,1517.51l-150.47-274,236.86-325L1412.9,301.13,2021,760.84l618.15,418.49Zm567.69-718.42L2032.68,744.57l-612-462.64-1-52.39,52.63-17.36,632.78,428.31L2719.57,1091l-.27,70.37Z"/>
</svg>
