<svg xmlns="http://www.w3.org/2000/svg" viewBox="0 0 2994.91 3000">
  <defs>
    <style>
      .a {
        fill-rule: evenodd;
      }
    </style>
  </defs>
  <title>159icon 1</title>
  <path class="a" d="M1483.1,494.31c373.41-3.37,680,72.88,926.27,198.82,151.9,77.69,285.93,171.16,384.7,301.73C2878.9,1107,2979.56,1285.5,2937,1496.4c-8.32,41.23-15.91,81.16-30,116.9-71,180.58-196.54,310.12-343.73,414.62l-104.92,65.94q-29.46,16-59,32,5.51,19,11,38,14.48,41,29,81.92c23.05,55.1,57.48,106.69,86.93,156.86,9,15.32,45.86,67.39,34,84.93-9.58,14.11-33.56,8.93-52,5l-127.9-25c-117.63-27.86-218.89-62-319.74-103.91l-159.88-70.92-119.91,21-169.86,16-54,2c-30.72,4.5-100.7,7-133.89,2l-147.89-8c-97.4-15.22-188.84-19.9-277.78-42-345.3-85.7-634.83-220.91-819.35-466.58-42.71-56.86-79.39-124.67-104.92-197.82-62.46-179-18.29-380.35,58-509.54,173.47-293.87,480.75-448.1,847.33-549.5,102.59-28.38,208.47-37.83,324.74-55.95Zm-1.94,85.92-57,2-158.87,12c-129.17,22.29-245.73,40.3-358.73,74.93-293.41,90-577.44,246.37-708.44,497.55-54.2,103.94-95.18,253.91-51,401.64a637,637,0,0,0,66,147.87C256.82,1787.76,317.64,1858.78,383,1909c163.21,125.45,330.06,208.87,556.56,272.76,60.07,16.94,124.64,25.2,187.84,39,48.6,10.59,99.71,10.51,150.89,19l60,3,85.92,4c37.32,5.89,114.71,3.72,149.88-2q31.47-1.52,63-3c50.69-8.26,104.4-7.74,151.89-17,85.48-16.64,167.54-26.5,245.81-49.95,347-104,683-280.49,799.36-612.45,9.94-28.36,13.85-60.37,20-91.91,7.54-38.78,7.19-92.66,0-130.88-5-26.68-5.8-50.88-13-74.94-29.84-99.94-80.05-172.3-136.88-243.77-80.69-101.47-188.3-168.52-303.77-235.79-229.75-133.85-556.56-204.71-919.26-204.81Zm533.05,77.93c12.85,5.8,20.53,19.54,31,28l73,68.94L2316,942.9l-6,6c-3.79,7.72-15.17,16.93-22,22l-5-5-27-25L2159.09,849,2045.18,959.88l15,16c13.19,6.26,81.72,73,82.94,87.93-8.31,19.44-28.83,31.86-43,46l-99.92,98.91-420.67,414.62-298.76,78.93q-169.35,160.85-338.74,321.71l-65.94,62.95c-9.1,9.07-18.63,22.64-31,28v-1c70.07-132.72,194.77-212.14,285.78-323.7l51.95-53q33-32.46,66-64.94,40.47-147.35,80.94-294.73l297.76-292.73L1824.36,891c14.81-14.82,53.71-64.51,76.94-64.94,34.46,17.6,67.65,67.5,99.92,91.91L2115.13,808l-7-8c-28.07-13.37-63.93-63.91-89.93-84.92-9-7.25-28.61-21.4-30-32Q2001.21,670.65,2014.21,658.16ZM1896.77,863,1361.2,1392.5c26.92,10.3,47.15,27.66,79.93,35l145.89,16,99.92,32,192.84-190.82q-9.48-10-19-20c-11.51-5.55-75.08-69-74.94-78.92l3-4,6-2c37.06,25.54,62.43,64.92,97.93,91.91q26-26,52-51.95l-93.93-90.91c0-7.34,1.25-8.12,4-12.32h6c12.17,4.24,20.48,18.13,29,26.3l67.94,64,7-7,39-37-10-11-84.93-80.92c.21-7.63,1.91-7.89,5-11.83h1l6,.84,94.93,89.92,27-27,63-61q-6.49-7-13-14Zm459.64,1282.84s-69.29,30.87-103.91,45c-79.48,32.3-182.76,72-275.79,85.91l2,1,103.92,44c59.48,24.81,120.08,51.29,184.86,70.94,72.84,22.1,150.78,33.3,228.81,51-35.67-62.22-75-124.15-103.92-191.83Z"/>
</svg>
