<?xml version="1.0" encoding="utf-8"?>
<!-- Generator: Adobe Illustrator 24.2.3, SVG Export Plug-In . SVG Version: 6.00 Build 0)  -->
<svg version="1.1" id="Layer_2" xmlns="http://www.w3.org/2000/svg" xmlns:xlink="http://www.w3.org/1999/xlink" x="0px" y="0px"
	 viewBox="0 0 3000 3000" style="enable-background:new 0 0 3000 3000;" xml:space="preserve">
<g id="f">
	<path d="M2491.3,2064.3c0,145.3-27.5,273.5-82.4,384.7c-55,111.2-128.9,202.9-221.8,274.8c-109.9,86.4-227.7,147.6-353.3,183.5
		c-125.6,36-287.9,54-486.8,54H508.7V38.6h775.4c208.1,0,364.1,6.9,468.2,20.6c104,13.7,203.8,46.1,299.3,97.2
		c104.7,56.3,181.2,129.9,229.7,220.8c48.4,91,72.6,198,72.6,320.9c0,137.4-36.3,260.4-108.9,369
		c-72.6,108.6-173.1,193.7-301.3,255.2v15.7c174,47.1,308.8,133.2,404.4,258.1C2443.5,1721.2,2491.3,1877.2,2491.3,2064.3z
		 M1949.5,753.1c0-70.7-11.8-131.8-35.3-183.5c-23.6-51.7-61.5-92.6-113.9-122.7c-62.8-35.3-132.8-56.9-210-64.8
		c-77.2-7.9-183.9-11.8-320-11.8h-373v855.8H1339c121.7,0,211.3-6.2,268.9-18.6c57.6-12.4,117.1-38.3,178.6-77.5
		c58.9-37.9,100.8-87.7,125.6-149.2C1937.1,919.3,1949.5,843.4,1949.5,753.1z M2086.9,2080c0-109.9-15.7-200.5-47.1-271.9
		c-31.4-71.3-94.9-131.8-190.4-181.6c-61.5-32.7-128.6-53.6-201.2-62.8c-72.6-9.1-175.7-13.7-309.2-13.7H897.4v1079.6h316
		c170.1,0,304.3-7.9,402.4-23.6s184.5-49.1,259.1-100.1c73.3-51,126.9-108.9,161-173.7C2069.9,2267.5,2086.9,2183.4,2086.9,2080z"/>
</g>
</svg>
