<?xml version="1.0" encoding="utf-8"?>
<!-- Generator: Adobe Illustrator 24.2.3, SVG Export Plug-In . SVG Version: 6.00 Build 0)  -->
<svg version="1.1" id="layer" xmlns="http://www.w3.org/2000/svg" xmlns:xlink="http://www.w3.org/1999/xlink" x="0px" y="0px"
	 viewBox="0 0 3000 3000" style="enable-background:new 0 0 3000 3000;" xml:space="preserve">
<g>
	<polygon points="2878.7,0 1988.9,889.8 2068.9,1077.9 3000,146.8 3000,0 	"/>
	<polygon points="1911.2,707 2618.2,0 2350.1,0 1831.2,518.9 	"/>
	<polygon points="606.1,1926.2 750.1,1600 0,2350.1 0,2618.2 532.8,2085.4 	"/>
	<path d="M1095.5,818c22.4-52.8,45.1-106,67.8-159.7L0,1821.5v268.1l956.1-956.1L1095.5,818z"/>
	<polygon points="1753.5,336.1 2089.6,0 1821.5,0 1673.5,148.1 1681.2,166.3 	"/>
	<path d="M1370.7,166.7l27-64.3h60.9L1561,0h-268.1L0,1292.9V1561L1353.6,207.4C1359.3,193.8,1365,180.3,1370.7,166.7z"/>
	<path d="M119.1,2900.6l-74.6-66.3L0,2878.7V3000h146.8l108.4-108.4c-30.6,1.7-61.3,3.6-91.9,5.8L119.1,2900.6z"/>
	<polygon points="235.8,0 0,235.8 0,503.8 503.8,0 	"/>
	<polygon points="764.4,0 0,764.4 0,1032.4 1032.4,0 	"/>
	<polygon points="2965.3,2641.2 2965.3,2824.4 3000,2789.7 3000,2521.7 2922.9,2598.8 	"/>
	<polygon points="2384.4,1819.6 3000,1204 3000,935.9 2304.4,1631.5 	"/>
	<polygon points="1890.2,2045.7 935.9,3000 1204,3000 1967.2,2236.7 	"/>
	<polygon points="2542.1,2190.4 3000,1732.5 3000,1464.5 2462.1,2002.4 	"/>
	<path d="M523.9,2883.4L407.3,3000h268.1l111.4-111.4c-84.2-3.5-161.5-5.3-231-5.3C545.2,2883.3,534.6,2883.3,523.9,2883.4z"/>
	<polygon points="2226.7,1448.7 3000,675.4 3000,407.3 2146.7,1260.6 	"/>
	<polygon points="1784.2,2680.3 1464.5,3000 1732.5,3000 1847.4,2885.1 1784.2,2821.9 	"/>
	<path d="M1993.1,3000h268.1l114.6-114.6c-91.7,2.6-183.8,5.2-275.6,7.6L1993.1,3000z"/>
	<path d="M2654.8,2435.4c35.5,73.3,52.9,101.7,59.5,111.4l285.7-285.7v-268.1l-376.7,376.7C2633.5,2391.1,2643.9,2413,2654.8,2435.4
		z"/>
	<path d="M2637.1,2884.6L2521.7,3000h268.1l97-97l-49.7-5.5C2766.6,2891.5,2699.8,2887.2,2637.1,2884.6z"/>
	<polygon points="1469.8,1677 1654.8,1492 1576,1302.7 1201.7,1677 	"/>
	<polygon points="1278.6,1339.6 1499.4,1118.8 1436.2,966.9 	"/>
	<path d="M962.2,2565.2l39.4,0.4l57.3,50.9l574.7-574.7h-268.1l-519.7,519.7C874.7,2563.3,912.7,2564.8,962.2,2565.2z"/>
	<polygon points="897.3,2249.5 1105,2041.8 985.7,2041.8 	"/>
	<path d="M2860.3,2778.4v-93.7l-14.4-14.4c-76.9-1.2-126.4-5.7-148.6-13.5c-22.2-7.8-40.9-18.9-55.9-33.3
		c-15-14.4-42.1-61.9-81.1-142.3c-39-80.5-73.6-155-103.6-223.4L2354,2016.4l-769.4-1809h-117.1
		c-91.3,217.4-183.2,434.9-275.7,652.3l-490,1109.7l-189.2,410.8c-60.1,129.7-100,206.3-119.8,229.7s-42.3,39-67.6,46.8
		c-25.2,7.8-81.7,12.3-169.4,13.5l-16.2,14.4v93.7l16.2,14.4c134.5-9.6,267.8-14.4,400-14.4c116.5,0,252.3,4.8,407.2,14.4l14.4-14.4
		v-93.7l-16.2-14.4c-130.9-1.2-212.6-9-245-23.4s-48.6-36.6-48.6-66.7c0-38.4,17.4-99.1,52.3-182l196.4-461.3h1043.2l221.6,549.5
		c16.8,43.2,25.2,78.1,25.2,104.5c0,32.4-16.8,53.2-50.5,62.2c-33.6,9-117.7,14.7-252.3,17.1l-14.3,14.6v93.7l14.4,14.4
		c199.4-4.8,398.8-10.2,598.2-16.2c102.1,0,216.8,5.4,344.1,16.2L2860.3,2778.4z M977.5,1782L1437,695.5L1889.2,1782H977.5z"/>
</g>
</svg>
