<?xml version="1.0" encoding="utf-8"?>
<!-- Generator: Adobe Illustrator 24.2.3, SVG Export Plug-In . SVG Version: 6.00 Build 0)  -->
<svg version="1.1" id="drt" xmlns="http://www.w3.org/2000/svg" xmlns:xlink="http://www.w3.org/1999/xlink" x="0px" y="0px"
	 viewBox="0 0 3000 3000" style="enable-background:new 0 0 3000 3000;" xml:space="preserve">
<g id="ddtr">
	<rect x="32.8" y="2728.3" width="2934.3" height="214.1"/>
	<path d="M555.9,2571.2c116.5,0,252.3,4.8,407.2,14.4l14.4-14.4v-93.7l-16.2-14.4c-130.9-1.2-212.6-9-245-23.4
		c-32.4-14.4-48.6-36.6-48.6-66.7c0-38.4,17.4-99.1,52.3-182l196.4-461.3h1043.2l221.6,549.5c16.8,43.2,25.2,78.1,25.2,104.5
		c0,32.4-16.8,53.2-50.5,62.2c-33.6,9-117.7,14.7-252.3,17.1l-14.4,14.4v93.7l14.4,14.4c199.4-4.8,398.8-10.2,598.2-16.2
		c102.1,0,216.8,5.4,344.1,16.2l14.4-14.4v-93.7l-14.4-14.4c-76.9-1.2-126.4-5.7-148.6-13.5c-22.2-7.8-40.9-18.9-55.9-33.3
		c-15-14.4-42.1-61.9-81.1-142.3c-39-80.5-73.6-155-103.6-223.4L2354.1,1809L1584.7,0h-117.1c-91.3,217.4-183.2,434.9-275.7,652.3
		L701.8,1762.2L512.6,2173c-60.1,129.7-100,206.3-119.8,229.7c-19.8,23.4-42.3,39-67.6,46.8c-25.2,7.8-81.7,12.3-169.4,13.5
		l-16.2,14.4v93.7l16.2,14.4C290.4,2576,423.7,2571.2,555.9,2571.2z M1436.9,488.3l452.3,1086.5H977.5L1436.9,488.3z"/>
</g>
</svg>
