<?xml version="1.0" encoding="utf-8"?>
<!-- Generator: Adobe Illustrator 24.2.3, SVG Export Plug-In . SVG Version: 6.00 Build 0)  -->
<svg version="1.1" id="rt" xmlns="http://www.w3.org/2000/svg" xmlns:xlink="http://www.w3.org/1999/xlink" x="0px" y="0px"
	 viewBox="0 0 3000 3000" style="enable-background:new 0 0 3000 3000;" xml:space="preserve">
<g id="drt_3_">
	<g>
		<path d="M155.9,2792.8l-16.2-14.4v-93.7l16.2-14.4c87.7-1.2,144.1-5.7,169.4-13.5c25.2-7.8,47.7-23.4,67.6-46.8
			c19.8-23.4,59.7-100,119.8-229.7l189.2-410.8l490.1-1109.9c92.5-217.4,184.4-434.8,275.7-652.3h117.1l769.4,1809l102.7,241.4
			c30,68.5,64.6,143,103.6,223.4c39,80.5,66,127.9,81.1,142.3c15,14.4,33.6,25.5,55.9,33.3c22.2,7.8,71.8,12.3,148.6,13.5l14.4,14.4
			v93.7l-14.4,14.4c-127.3-10.8-242.1-16.2-344.1-16.2c-199.4,6-398.8,11.4-598.2,16.2l-14.4-14.4v-93.7l14.4-14.4
			c134.5-2.4,218.6-8.1,252.3-17.1c33.6-9,50.5-29.7,50.5-62.2c0-26.4-8.4-61.3-25.2-104.5l-221.6-549.5H916.2l-196.4,461.3
			c-34.9,82.9-52.3,143.6-52.3,182c0,30,16.2,52.3,48.6,66.7c32.4,14.4,114.1,22.2,245,23.4l16.2,14.4v93.7l-14.4,14.4
			c-155-9.6-290.7-14.4-407.2-14.4C423.7,2778.4,290.4,2783.2,155.9,2792.8z M977.5,1782h911.7L1436.9,695.5L977.5,1782z"/>
	</g>
</g>
</svg>
