<?xml version="1.0" encoding="utf-8"?>
<!-- Generator: Adobe Illustrator 24.2.3, SVG Export Plug-In . SVG Version: 6.00 Build 0)  -->
<svg version="1.1" xmlns="http://www.w3.org/2000/svg" xmlns:xlink="http://www.w3.org/1999/xlink" x="0px" y="0px"
	 viewBox="0 0 3000 3000" style="enable-background:new 0 0 3000 3000;" xml:space="preserve">
<style type="text/css">
	.st0{display:none;}
	.st1{display:inline;}
	.st2{fill-rule:evenodd;clip-rule:evenodd;}
</style>
<g id="d" class="st0">
	<g id="V1" class="st1">
	</g>
	<g id="V1_1_" class="st1">
	</g>
</g>
<g id="layer">
</g>
<g id="layer">
</g>
<g id="layer">
</g>
<g id="layer">
	<g>
		<rect x="61.3" y="235.2" class="st2" width="2887.6" height="373.4"/>
		<rect x="61.3" y="2434.3" class="st2" width="2887.6" height="373.4"/>
		<polygon class="st2" points="373.2,2257.9 2948.9,2257.9 2948.9,1884.5 1089.5,1884.5 		"/>
		<path class="st2" d="M1535.9,1437.2c40.1,20.8,65.1,61.9,65.1,107.1c0.1,45.3-24.8,86.5-65,107.4l-108.3,56.5h1521.2v-373.4
			H1339.4L1535.9,1437.2z"/>
		<polygon class="st2" points="1001,1158.4 2948.9,1158.4 2948.9,785 284.8,785 		"/>
		<path class="st2" d="M70.7,2301.7l1418.6-739.5c14.3-7.5,14.3-27.9,0-35.3L70.7,787.3c-13.2-6.9-29.1,2.7-29.1,17.7v1479.1
			C41.5,2299,57.4,2308.7,70.7,2301.7z"/>
	</g>
</g>
</svg>



