<?xml version="1.0" encoding="utf-8"?>
<!-- Generator: Adobe Illustrator 24.2.3, SVG Export Plug-In . SVG Version: 6.00 Build 0)  -->
<svg version="1.1" id="layer_1" xmlns="http://www.w3.org/2000/svg" xmlns:xlink="http://www.w3.org/1999/xlink" x="0px" y="0px"
	 viewBox="0 0 3000 3000" style="enable-background:new 0 0 3000 3000;" xml:space="preserve">
<g id="V1">
</g>
<g>
	<path d="M1641.2,2948.7c-398.5,0-794.4,0-1194,0c7.1-35.1-20.9-123.9,25.2-127.6c136.5-22.7,321.6-36.2,375.8-209.4
		c58.7-187.5,893.4-2251.9,891.8-2318.8c-3.4-144.9-270.1-119.8-377.5-117.4c0,0,0-81.7,0-124.2c397.5,0,793.8,0,1192.3,0
		c0,40.9,0,82.2,0,122.1c-329.5,6.1-346.1,38.1-413.5,141.8c-24.3,37.4-869.5,2207.3-869.5,2341.1c0,178.7,235.4,136.3,369.4,167.6
		C1641.2,2865.8,1641.2,2906.2,1641.2,2948.7z"/>
</g>
</svg>
