<?xml version="1.0" encoding="utf-8"?>
<!-- Generator: Adobe Illustrator 24.2.3, SVG Export Plug-In . SVG Version: 6.00 Build 0)  -->
<svg version="1.1" id="sf" xmlns="http://www.w3.org/2000/svg" xmlns:xlink="http://www.w3.org/1999/xlink" x="0px" y="0px"
	 viewBox="0 0 3000 3000" style="enable-background:new 0 0 3000 3000;" xml:space="preserve">
<g>
	<polygon points="690,235.2 690,235.2 668.3,235.2 668.3,608.6 690,608.6 690,608.6 2948.9,608.6 2948.9,235.2 	"/>
	<path d="M384.2,521.7h-84.1V233.5h-56.4l-4.4,2.4c-19.9,10.7-42.7,17.1-76.2,21.6l-17.4,2.3v64.9h72.4v197h-93.2v74.9h259.3V521.7z
		"/>
	<path d="M178.2,894c21-21.5,42.3-32.5,63.2-32.5c33.6,0,49.9,14,49.9,42.8c0,45.3-61.4,102.8-162.4,192.2l-6.8,6v53.8h267.4v-76
		H263.6c-2.1,0-4.2,0-6.4,0c68.8-65.1,114.5-119.5,114.5-178.1c0-68.9-50.4-115.2-125.3-115.2c-58.5,0-95.4,29.4-121,55l-14.3,14.3
		l53.1,52L178.2,894z"/>
	<path d="M247.7,1709.1c36.4,0,70-10.2,94.6-28.6c27.3-20.5,42.4-50.2,42.4-83.6c0-26.4-10.4-50.3-30.1-68.9
		c-6.5-6.2-14-11.7-22.2-16.4c26.8-18.8,41.2-44.8,41.2-75.8c0-31.2-13.8-58.4-38.8-76.7c-22.6-16.6-53.1-25.3-88-25.3
		c-41.9,0-82.2,15.7-116.4,45.4l-14.9,12.9l48.2,57l15.3-13.5c20.1-17.7,43.6-27.4,66.3-27.4c22.2,0,45.8,8.1,45.8,30.6
		c0,35-53.8,40.3-85.9,40.3h-20v71.9h20c45.7,0,68.7,8.1,79.9,14.9c11.8,7.1,17.1,16.2,17.1,29.5c0,26.8-28.6,38.8-57,38.8
		c-30.1,0-56-10.6-78.9-32.5l-16-15.2l-45.7,58.7l12.5,12.5C150.8,1691.4,195.9,1709.1,247.7,1709.1z"/>
	<path d="M254.5,2252.8H334v-89.1h50.1v-73.9H334v-200.1h-74.8L87.9,2108.9v54.7h166.6V2252.8z M196,2089.7l58.5-73.5v73.5H196z"/>
	<path d="M353,2584c-22.9-19-54.5-29-91.4-29c-14.1,0-26,1.5-37.1,4.2l4.2-46.2h147.6v-76.5H154.8l-12.7,186l42.4,27l10.4-5.8
		c20.8-11.6,33.9-16.7,56.1-16.7c22,0,59,6.5,59,50.4c0,36.7-31.9,53.4-61.5,53.4c-34.7,0-56.2-12.8-77.9-32l-16.3-14.4l-44.7,59.9
		l13.6,12.2c25.5,22.9,63.3,49.2,129.9,49.2c36.3,0,70.3-11.8,95.8-33.2c28.2-23.7,43.7-57.9,43.7-96.2
		C392.5,2637.3,378.9,2605.4,353,2584z"/>
	<polygon points="690,785 668.3,785 668.3,1158.4 690,1158.4 2948.9,1158.4 2948.9,1158.4 2948.9,785 2948.9,785 	"/>
	<polygon points="690,1334.8 668.3,1334.8 668.3,1708.2 690,1708.2 2948.9,1708.2 2948.9,1708.2 2948.9,1334.8 2948.9,1334.8 	"/>
	<polygon points="690,1884.5 668.3,1884.5 668.3,2257.9 690,2257.9 2948.9,2257.9 2948.9,2257.9 2948.9,1884.5 2948.9,1884.5 	"/>
	<polygon points="690,2434.3 668.3,2434.3 668.3,2807.7 690,2807.7 2948.9,2807.7 2948.9,2807.7 2948.9,2434.3 2948.9,2434.3 	"/>
</g>
</svg>
