<?xml version="1.0" encoding="utf-8"?>
<!-- Generator: Adobe Illustrator 24.2.3, SVG Export Plug-In . SVG Version: 6.00 Build 0)  -->
<svg version="1.1" id="layer" xmlns="http://www.w3.org/2000/svg" xmlns:xlink="http://www.w3.org/1999/xlink" x="0px" y="0px"
	 viewBox="0 0 3000 3000" style="enable-background:new 0 0 3000 3000;" xml:space="preserve">
<g id="fdg">
</g>
<g>
	<circle cx="248" cy="421.9" r="186.7"/>
	<circle cx="248" cy="971.7" r="186.7"/>
	<circle cx="248" cy="1521.5" r="186.7"/>
	<circle cx="248" cy="2071.2" r="186.7"/>
	<circle cx="248" cy="2621" r="186.7"/>
	<polygon points="690,235.2 668.3,235.2 668.3,608.6 690,608.6 2948.9,608.6 2948.9,235.2 	"/>
	<polygon points="668.3,785 668.3,1158.4 690,1158.4 2948.9,1158.4 2948.9,785 690,785 	"/>
	<polygon points="668.3,1334.8 668.3,1708.2 690,1708.2 2948.9,1708.2 2948.9,1334.8 690,1334.8 	"/>
	<polygon points="668.3,1884.5 668.3,2257.9 690,2257.9 2948.9,2257.9 2948.9,1884.5 690,1884.5 	"/>
	<polygon points="668.3,2434.3 668.3,2807.7 690,2807.7 2948.9,2807.7 2948.9,2434.3 690,2434.3 	"/>
</g>
</svg>
