<?xml version="1.0" encoding="utf-8"?>
<!-- Generator: Adobe Illustrator 24.2.3, SVG Export Plug-In . SVG Version: 6.00 Build 0)  -->
<svg version="1.1" id="f" xmlns="http://www.w3.org/2000/svg" xmlns:xlink="http://www.w3.org/1999/xlink" x="0px" y="0px"
	 viewBox="0 0 3000 3000" style="enable-background:new 0 0 3000 3000;" xml:space="preserve">
<g>
	<path d="M273.3,1686.7h442.2c-8.7,263-52,464.6-130.1,604.8c-78,140.2-199.4,246.4-364.2,318.7L438.1,2944
		c251.5-109.9,435-265.2,550.6-466.1c115.6-200.9,173.4-464.7,173.4-791.2V797.9H273.3V1686.7z"/>
	<path d="M1889.9,56v888.8h442.2c-8.7,263-52,464.6-130.1,604.8c-78,140.2-199.4,246.4-364.2,318.7l216.8,333.8
		c251.5-109.9,435-265.2,550.6-466.1c115.6-200.9,173.4-464.7,173.4-791.2V56H1889.9z"/>
</g>
</svg>
