<?xml version="1.0" encoding="utf-8"?>
<!-- Generator: Adobe Illustrator 24.2.3, SVG Export Plug-In . SVG Version: 6.00 Build 0)  -->
<svg version="1.1" id="Layer_2" xmlns="http://www.w3.org/2000/svg" xmlns:xlink="http://www.w3.org/1999/xlink" x="0px" y="0px"
	 viewBox="0 0 3000 3000" style="enable-background:new 0 0 3000 3000;" xml:space="preserve">
<g>
	<path d="M553.8,1682.6c-249.9,0-428.6-2.5-535.9-7.4l-8.3,8.3c4.3,45,7.1,141.9,8.3,290.6l7.4,7.4h42.6l8.3-8.3l9.3-85.2
		c5.5-56.1,11.5-89.3,18-99.5s30.4-16.5,71.7-19c41.3-2.5,90.4-3.7,147.2-3.7h137.9c4.9,151.2,7.4,231.7,7.4,241.6v539.6l-1.9,195.3
		c0,66-2.2,108.6-6.5,127.7c-4.3,19.1-9.7,31.6-16.2,37.5c-6.5,5.9-19.1,10.7-38,14.4c-18.8,3.7-57.2,6.8-115.2,9.3l-7.4,5.6v46.3
		l7.4,7.4c156.1-4.9,244.1-7.4,263.8-7.4c18.5,0,106.8,2.5,264.7,7.4l6.5-7.4v-46.3l-6.5-5.6c-66-2.5-107.4-6-124.1-10.7
		c-16.7-4.6-27.9-10.2-33.8-16.7c-5.9-6.5-10.2-20-13-40.7c-2.8-20.7-4.5-65.9-5.1-135.6l-1.9-180.5v-539.6
		c0-21.6,2.5-102.1,7.4-241.6h174.9c42,0,79.9,1.6,113.8,4.6c33.9,3.1,54,6.9,60.2,11.6c6.2,4.6,10.6,12,13.4,22.2
		c2.8,10.2,6.7,38.1,11.6,83.8l10.2,85.2l7.4,8.3h43.5l7.4-7.4c0-138.2,2.8-235.1,8.3-290.6l-8.3-8.3
		C987.6,1680.1,808.6,1682.6,553.8,1682.6z"/>
	<path d="M2971.6,9.5C2738,20.7,2332.5,26.3,1754.9,26.3c-566.5,0-971.3-5.6-1214.6-16.8l-18.9,18.9
		c9.7,102.1,16.1,321.7,18.9,658.7l16.8,16.8h96.5l18.9-18.9l21-193c12.5-127.2,26.2-202.4,40.9-225.5c14.7-23.1,68.9-37.4,162.6-43
		c93.7-5.6,204.9-8.4,333.6-8.4H1543c11.2,342.7,16.8,525.2,16.8,547.5v1223l-4.2,442.7c0,149.6-4.9,246.1-14.7,289.5
		c-9.8,43.4-22,71.7-36.7,84.9c-14.7,13.3-43.4,24.1-86,32.5s-129.7,15.4-261.2,21l-16.8,12.6v104.9l16.8,16.8
		c353.8-11.2,553.1-16.8,597.9-16.8c42,0,241.9,5.6,600,16.8l14.7-16.8v-104.9l-14.7-12.6c-149.7-5.6-243.4-13.6-281.2-24.1
		c-37.8-10.5-63.3-23-76.6-37.8c-13.3-14.7-23-45.4-29.4-92.3c-6.3-46.8-10.2-149.3-11.5-307.3l-4.2-409.1v-1223
		c0-48.9,5.6-231.5,16.8-547.5h396.5c95.1,0,181.1,3.5,258,10.5c76.9,7,122.4,15.7,136.4,26.2c14,10.5,24.1,27.3,30.4,50.3
		c6.3,23.1,15.1,86.3,26.3,189.8l23,193l16.8,18.9h98.6l16.8-16.8c0-313.3,6.3-532.8,18.9-658.7L2971.6,9.5z"/>
</g>
</svg>
