<?xml version="1.0" encoding="utf-8"?>
<!-- Generator: Adobe Illustrator 24.2.3, SVG Export Plug-In . SVG Version: 6.00 Build 0)  -->
<svg version="1.1" xmlns="http://www.w3.org/2000/svg" xmlns:xlink="http://www.w3.org/1999/xlink" x="0px" y="0px"
	 viewBox="0 0 3000 3000" style="enable-background:new 0 0 3000 3000;" xml:space="preserve">
<g id="Layer_2">
</g>
<g id="layer">
</g>
<g id="layer">
	<g>
		<rect x="26" y="1384.2" transform="matrix(0.9937 -0.1119 0.1119 0.9937 -158.7244 177.6445)" width="2953.4" height="236.4"/>
		<path d="M2272.7,1605.1l-585.8,66c81.3,23.6,139.4,42.7,174.3,57.4c99.1,40.7,170.5,90.9,214.3,150.5
			c43.8,59.7,65.8,129.5,65.8,209.4c0,78.8-22.4,151.7-67,218.8c-44.7,67.1-112.8,119.9-204.4,158.4s-197.1,57.7-316.6,57.7
			c-134.6,0-255.8-25.4-363.5-76.1c-107.7-50.7-187.1-117.2-238.3-199.5c-51.2-82.2-83.7-187.5-97.7-315.8l-296.9,27.5
			c4.3,170.7,47.7,323.7,130.1,458.9c82.4,135.3,196.1,236.6,341.1,303.9s324.6,101,539.1,101c169.2,0,321.4-33.4,456.7-100
			c135.3-66.7,239-160,311.2-280c72.2-120,108.3-247.8,108.3-383.4c0-136.8-33-257.6-98.9-362.6
			C2323.9,1664.7,2300,1634,2272.7,1605.1z"/>
		<path d="M888.1,1382.3l728-82c-32.8-8.5-67.2-17.1-103.1-25.9c-254.7-62.2-412.2-122.9-472.5-182.2
			c-61.4-59.2-92.1-134.8-92.1-226.6c0-105.7,43.3-196,130-271c86.7-75,224.8-112.4,414.4-112.4c182,0,319.6,41,412.7,123
			c93.1,82,147.8,203.3,164,363.9l302-24.8c-5.4-149.6-44.2-283.6-116.4-401.8c-72.2-118.3-175.4-207.9-309.6-268.8
			c-134.2-60.9-289.2-91.3-464.8-91.3c-159.6,0-304.6,29.1-435,87.3S816.1,413,748.2,525.3s-101.9,233-101.9,362.1
			c0,117.6,27.7,223.8,83.2,318.6C768.3,1272.3,821.2,1331.1,888.1,1382.3z"/>
	</g>
</g>
</svg>
