<?xml version="1.0" encoding="utf-8"?>
<!-- Generator: Adobe Illustrator 24.2.3, SVG Export Plug-In . SVG Version: 6.00 Build 0)  -->
<svg version="1.1" id="fg" xmlns="http://www.w3.org/2000/svg" xmlns:xlink="http://www.w3.org/1999/xlink" x="0px" y="0px"
	 viewBox="0 0 3000 3000" style="enable-background:new 0 0 3000 3000;" xml:space="preserve">
<g>
	<path d="M1455.3,1463.3l742.4-1180.3c16.9-28.2,26.3-51.8,28.2-70.6s-5.6-33.4-22.6-43.8c-16.9-10.3-42.8-17.4-77.6-21.2
		s-79.5-5.6-134-5.6c-50.9,0-90.9,1.5-120,4.3c-29.1,2.9-51.7,7.6-67.7,14.1c-16,6.6-28.7,14.6-38.1,24c-9.4,9.4-17.8,19.7-25.4,31
		l-587.1,946l-578.6-946c-7.5-13.1-16-24.4-25.4-33.8c-9.4-9.4-23.5-16.9-42.3-22.6s-44.7-9.9-77.6-12.8c-33-2.8-76.7-4.3-131.2-4.3
		c-60.2,0-108.7,1.9-145.4,5.6c-36.7,3.8-64.1,11.8-81.9,24c-17.8,12.3-26.3,27.3-25.4,45.2c0.9,17.9,8.9,40,24,66.4l748.1,1194.5
		L26.9,2717.1c-17,26.3-25.9,48.5-26.8,66.4c-1,17.9,6.6,32.5,22.6,43.8c16,11.3,41.3,19.2,76.2,24c34.8,4.7,79.5,7,134.1,7
		c52.7,0,95-1.5,127-4.3c32-2.9,57.8-7.6,77.6-14.1c19.8-6.6,34.8-15.1,45.2-25.4c10.3-10.3,19.3-22.1,26.8-35.3l606.9-1008.2
		l609.7,1008.2c7.5,13.2,16.4,25,26.8,35.3c10.3,10.4,25.4,18.9,45.2,25.4c19.8,6.5,46.1,11.2,79,14.1c32.9,2.8,77.6,4.3,134.1,4.3
		c58.3,0,105.9-2.4,142.5-7c36.7-4.8,64-12.8,81.9-24c17.8-11.3,26.8-25.9,26.8-43.8c0-17.8-7.5-40-22.6-66.4L1455.3,1463.3z"/>
	<path d="M2598,736.4l150.2-146.1c35.5-34.2,66.2-65.6,92.2-94.2c26-28.7,47.5-56.4,64.6-83.2s29.9-53.7,38.3-80.6
		c8.4-27,12.7-56.3,12.7-87.9c0-37.5-6-71.3-18.1-101.2s-29-55.2-51-75.9s-48-36.5-78.3-47.4S2745,3.4,2708.3,3.4
		c-54.1,0-101.5,9.9-142.2,29.6c-40.8,19.8-76.8,46-108,78.8l60.8,72.5c24.1-24.8,50.5-45,79.2-60.6c28.7-15.6,60.6-23.4,95.7-23.4
		c25.3,0,47.1,4,65.3,12c18.2,8,33,19,44.4,33c11.4,14,19.8,30.1,25.3,48.5s8.3,37.7,8.3,58c0,21.5-2.1,41.5-6.3,60.1
		c-4.2,18.6-12.5,38.3-24.7,59.1s-29.3,44-51.3,69.3s-50.5,55.2-85.5,89.8L2455,742.7v98.7h545v-105H2598z"/>
</g>
</svg>
