<?xml version="1.0" encoding="utf-8"?>
<!-- Generator: Adobe Illustrator 24.2.3, SVG Export Plug-In . SVG Version: 6.00 Build 0)  -->
<svg version="1.1" id="Layer_2" xmlns="http://www.w3.org/2000/svg" xmlns:xlink="http://www.w3.org/1999/xlink" x="0px" y="0px"
	 viewBox="0 0 3000 3000" style="enable-background:new 0 0 3000 3000;" xml:space="preserve">
<g>
	<path d="M2707.8,2825.8c16.4,28.7,24.6,52.8,24.6,72.3c0,19.5-9.8,35.4-29.2,47.7c-19.5,12.3-49.3,21-89.2,26.2
		c-39.9,5.1-91.7,7.7-155.3,7.7c-61.5,0-110.2-1.6-146.1-4.6c-35.8-3.1-64.5-8.3-86.1-15.3c-21.6-7.1-38-16.4-49.2-27.7
		c-11.2-11.2-21-24.1-29.2-38.4l-664.2-1098.3L822.7,2893.6c-8.2,14.4-18,27.2-29.2,38.4c-11.2,11.3-27.6,20.6-49.2,27.7
		c-21.6,7.1-49.7,12.2-84.6,15.3c-34.9,3-80.9,4.6-138.3,4.6c-59.5,0-108.1-2.6-146.1-7.7c-38-5.2-65.6-13.9-83-26.2
		c-17.5-12.3-25.7-28.2-24.6-47.7c1-19.4,10.7-43.6,29.2-72.3l861-1350.4L343,174.2c-16.4-28.7-25.1-52.8-26.1-72.3
		c-1.1-19.4,8.2-35.8,27.6-49.2s49.2-22.1,89.2-26.2c39.9-4.1,92.8-6.2,158.4-6.2c59.4,0,107.1,1.6,143,4.6
		c35.8,3.1,64.1,7.7,84.6,13.9s35.8,14.4,46.1,24.6s19.5,22.6,27.7,36.8l630.3,1030.6l639.6-1030.6c8.2-12.3,17.4-23.5,27.6-33.8
		c10.3-10.3,24.1-19,41.5-26.1s42.1-12.3,73.8-15.4c31.7-3,75.3-4.6,130.7-4.6c59.4,0,108,2.1,146,6.2s66.1,11.8,84.6,23.1
		c18.5,11.3,26.7,27.2,24.6,47.7s-12.3,46.2-30.8,76.9L1852.9,1460L2707.8,2825.8z"/>
</g>
</svg>
