<?xml version="1.0" encoding="utf-8"?>
<!-- Generator: Adobe Illustrator 24.2.3, SVG Export Plug-In . SVG Version: 6.00 Build 0)  -->
<svg version="1.1" xmlns="http://www.w3.org/2000/svg" xmlns:xlink="http://www.w3.org/1999/xlink" x="0px" y="0px"
	 viewBox="0 0 3000 3000" style="enable-background:new 0 0 3000 3000;" xml:space="preserve">
<g id="Layer_2">
	<path d="M1518.6,2607.2c154.9-4.1,391.9-31.7,491.6-62.7c108.1-33.7,197.4-89,268-165.9c70.6-76.8,121.5-167.4,152.8-271.7
		c31.2-104.3,46.8-237.1,46.8-398.3V475.3c0-97.5,3.1-163.4,9.4-197.7c6.2-34.3,15.3-61.5,27.2-81.5c11.8-20,29-37.2,51.5-51.6
		c22.5-14.3,64.4-29.7,125.6-45.9V6.8h-787.1v91.9c70,17.5,118.7,37.2,146.2,59c27.5,21.8,46.2,54.7,56.2,98.4
		c10,43.7,15,116.8,15,219.3v1326.9c0,121.2-12.8,223-38.4,305.5c-25.6,82.5-61.5,146.5-107.8,192.1
		c-46.2,45.6-101.2,78.7-164.9,99.4c-61.2,19.8-214.4,33-310.6,33.2c-96.2-0.2-249.4-13.3-310.6-33.2
		c-63.7-20.6-118.7-53.7-164.9-99.4c-46.2-45.6-82.1-109.6-107.8-192.1c-25.6-82.5-38.4-184.3-38.4-305.5V475.3
		c0-102.5,5-175.5,15-219.3c10-43.7,28.7-76.5,56.2-98.4s76.2-41.6,146.2-59V6.8H308.5v91.9c61.2,16.2,103.1,31.6,125.6,45.9
		c22.5,14.4,39.7,31.6,51.5,51.6s20.9,47.2,27.2,81.5c6.2,34.3,9.4,100.2,9.4,197.7v1233.2c0,161.2,15.6,294,46.8,398.3
		c31.2,104.3,82.1,194.9,152.8,271.7c70.6,76.9,159.9,132.2,268,165.9c99.7,31.1,336.7,58.6,491.6,62.7H1518.6z"/>
</g>
<g id="layer">
	<rect x="106.2" y="2741.4" width="2787.6" height="204.3"/>
</g>
</svg>
