<?xml version="1.0" encoding="utf-8"?>
<!-- Generator: Adobe Illustrator 24.2.3, SVG Export Plug-In . SVG Version: 6.00 Build 0)  -->
<svg version="1.1" id="drt_1_" xmlns="http://www.w3.org/2000/svg" xmlns:xlink="http://www.w3.org/1999/xlink" x="0px" y="0px"
	 viewBox="0 0 3000 3000" style="enable-background:new 0 0 3000 3000;" xml:space="preserve">
<g id="drt_2_">
	<path d="M1889.2,2684.7v93.7l14.4,14.4c199.4-4.8,398.8-10.2,598.2-16.2c102.1,0,216.8,5.4,344.1,16.2l14.4-14.4v-93.7l-14.4-14.4
		c-76.9-1.2-126.4-5.7-148.6-13.5c-22.2-7.8-40.9-18.9-55.9-33.3c-15-14.4-42.1-61.9-81.1-142.3c-39-80.5-73.6-155-103.6-223.4
		l-102.7-241.4l-769.4-1809h-117.1c-91.3,217.4-183.2,434.9-275.7,652.3L701.8,1969.4l-189.2,410.8
		c-60.1,129.7-100,206.3-119.8,229.7c-19.8,23.4-42.3,39-67.6,46.8c-25.2,7.8-81.7,12.3-169.4,13.5l-16.2,14.4v93.7l16.2,14.4
		c134.5-9.6,267.8-14.4,400-14.4c116.5,0,252.3,4.8,407.2,14.4l14.4-14.4v-93.7l-16.2-14.4c-130.9-1.2-212.6-9-245-23.4
		s-48.6-36.6-48.6-66.7c0-38.4,17.4-99.1,52.3-182l196.4-461.3h1043.2l221.6,549.5c16.8,43.2,25.2,78.1,25.2,104.5
		c0,32.4-16.8,53.2-50.5,62.2c-33.6,9-117.7,14.7-252.3,17.1L1889.2,2684.7z M977.5,1782l459.5-1086.5L1889.2,1782H977.5z"/>
	<polygon points="1484.6,1732 1717.3,1499.3 1683.5,1417.9 1369.3,1732 	"/>
	<polygon points="940.8,2006.8 960.7,1986.9 949.3,1986.9 	"/>
	<path d="M354.6,2577.6c7.4-8.8,32.7-46.6,107.5-207.3l-248.5,248.5c66.3-2.6,89.4-7.5,96.8-9.8C326.5,2604,341,2593.8,354.6,2577.6
		z"/>
	<path d="M765.8,2417.7c-8.6,20.4-15.7,38.5-21.6,54.6l485.4-485.4h-115.3l-287.5,287.5L765.8,2417.7z"/>
	<polygon points="1327.8,1081.9 1480.2,929.5 1446.3,848.1 1412.3,882.1 	"/>
	<polygon points="1215.6,1732 1638.3,1309.3 1604.4,1227.9 1100.4,1732 	"/>
	<polygon points="1130.8,1547.9 1559.2,1119.4 1525.4,1038 1215.2,1348.2 	"/>
	<path d="M2154.9,2599.3c0.5-0.7,1.4-3.2,1.4-8.4c0-6.5-0.8-15.7-3.6-28.6l-48.5,48.5c21-2.2,32.4-4.4,38.7-6.1
		C2150.5,2602.8,2154,2600.4,2154.9,2599.3z"/>
	<polygon points="1753.6,1732 1796.4,1689.2 1762.5,1607.8 1638.3,1732 	"/>
	<path d="M1498.6,1986.9h-115.3L762.3,2608c19.7,3.6,52.1,7.4,105.4,9.9L1498.6,1986.9z"/>
	<path d="M804.8,2834.4L639.3,3000h115.3l160-160C876.9,2837.8,840.3,2836,804.8,2834.4z"/>
	<path d="M555.9,2828.4c-4.7,0-9.3,0-14,0L370.3,3000h115.3l170.5-170.5C621.1,2828.7,587.7,2828.4,555.9,2828.4z"/>
	<polygon points="89.6,2800.8 89.6,2742.7 0,2832.4 0,2947.6 119.9,2827.7 	"/>
	<polygon points="2001.7,2175.5 1177.2,3000 1292.5,3000 2034.9,2257.6 	"/>
	<path d="M265.2,2836.1L101.3,3000h115.3l168.9-168.9C345.5,2832.3,305.4,2834,265.2,2836.1z"/>
	<path d="M1904.8,2842.8l-21.4,0.5l-5.8-5.8L1715.1,3000h115.3l159.3-159.3C1961.4,2841.4,1933.1,2842.1,1904.8,2842.8z"/>
	<path d="M2690,2832l-168,168h115.3l160.9-160.9C2761.1,2836.3,2725,2833.9,2690,2832z"/>
	<path d="M2502.5,2826.6c-26.1,0.8-52.2,1.6-78.4,2.3L2253.1,3000h115.3l173.2-173.2C2528.3,2826.7,2515.3,2826.6,2502.5,2826.6z"/>
	<path d="M1839.2,2664l43.3-43.3l20.2-0.4c13.9-0.2,26.9-0.5,39.3-0.8l170.2-170.2l-33.1-82.1L1446.2,3000h115.3l277.8-277.8V2664z"
		/>
	<path d="M2147.5,2836.6L1984.1,3000h115.3l166.6-166.6C2226.5,2834.5,2187,2835.6,2147.5,2836.6z"/>
	<polygon points="656.2,1948.8 689.2,1874.2 0,2563.4 0,2678.7 593.4,2085.3 	"/>
	<polygon points="1925.7,1986.9 1921.3,1986.9 908.2,3000 1023.5,3000 1957.6,2065.9 	"/>
	<polygon points="1767.6,1986.9 1652.3,1986.9 1000.8,2638.5 1027.5,2662.2 1027.5,2727.1 	"/>
	<path d="M1307.4,458.6L0,1766.1v115.3L1222.9,658.4C1251.1,592,1279.3,525.3,1307.4,458.6z"/>
	<polygon points="1106.9,928.2 0,2035.1 0,2150.3 1015.8,1134.6 	"/>
	<polygon points="901.8,1392.6 0,2294.4 0,2409.7 810.7,1599 	"/>
	<path d="M143.9,0l3,5.4L0,152.3v115.3L262.2,5.4h153.7L0,421.3v115.3L531.2,5.4h153.7L0,690.2v115.3L800.1,5.4h153.7L0,959.2v115.3
		L1069.1,5.4h153.7L0,1228.2v115.3L1338.1,5.4h153.7L0,1497.1v115.3L1419.2,193.2c0.7-1.8,1.5-3.5,2.2-5.3l12.9-30.6h20.9L1607,5.4
		h153.7l-151.8,151.8h8.9l31.8,74.7L1876,5.4h153.7l-334.3,334.3l34.4,80.9L2145,5.4h144.1l-516.3,516.3l34.4,80.9L2404.3,5.4H2558
		l-705,705l34.4,80.9L2673.3,5.4H2827l-893.7,893.7l34.4,80.9L2942.3,5.4h54.1v99.5l-982.9,982.9l34.4,80.9l948.5-948.5v153.7
		l-902.6,902.6l34.4,80.9l868.2-868.2v153.7l-822.4,822.4l34.4,80.9l788-788v153.7l-742.1,742.1l34.4,80.9l707.7-707.7v153.7
		l-661.8,661.8l34.4,80.9l627.4-627.4v153.7l-581.6,581.6l34.4,80.9l547.2-547.2v153.7L2495.1,2220l7.6,17.8
		c8.8,20.1,18.1,40.9,27.8,62.1l466-466v153.7l-417.2,417.2c8.5,17.8,17.2,36,26.1,54.4c4,8.3,7.8,16.1,11.4,23.3l379.6-379.6v153.7
		l-324.9,324.9c2.5,3.5,3.9,5.1,4.6,5.8c9.9,9.5,22.2,16.8,37.7,22.2c3.4,1.2,13.3,3.9,38.6,6.3l244-244v153.7l-112.2,112.2
		l26.2,26.2v63l86.1-86.1v153.7L2791,3000h115.3l90.1-90.1l3.6,0.1V0H143.9z"/>
</g>
</svg>
