<?xml version="1.0" encoding="utf-8"?>
<!-- Generator: Adobe Illustrator 24.2.3, SVG Export Plug-In . SVG Version: 6.00 Build 0)  -->
<svg version="1.1" id="fg" xmlns="http://www.w3.org/2000/svg" xmlns:xlink="http://www.w3.org/1999/xlink" x="0px" y="0px"
	 viewBox="0 0 3000 3000" style="enable-background:new 0 0 3000 3000;" xml:space="preserve">
<g>
	<path d="M1824,1463.3l742.4-1180.3c16.9-28.2,26.3-51.8,28.2-70.6s-5.6-33.4-22.6-43.8c-16.9-10.3-42.8-17.4-77.6-21.2
		s-79.5-5.6-134-5.6c-50.9,0-90.9,1.5-120,4.3c-29.1,2.9-51.7,7.6-67.7,14.1c-16,6.6-28.7,14.6-38.1,24c-9.4,9.4-17.8,19.7-25.4,31
		l-587.1,946l-578.6-946c-7.5-13.1-16-24.4-25.4-33.8c-9.4-9.4-23.5-16.9-42.3-22.6s-44.7-9.9-77.6-12.8c-33-2.8-76.7-4.3-131.2-4.3
		c-60.2,0-108.7,1.9-145.4,5.6c-36.7,3.8-64.1,11.8-81.9,24c-17.8,12.3-26.3,27.3-25.4,45.2c0.9,17.9,8.9,40,24,66.4L1186,1477.4
		L395.6,2717.1c-17,26.3-25.9,48.5-26.8,66.4c-1,17.9,6.6,32.5,22.6,43.8c16,11.3,41.3,19.2,76.2,24c34.8,4.7,79.5,7,134.1,7
		c52.7,0,95-1.5,127-4.3c32-2.9,57.8-7.6,77.6-14.1c19.8-6.6,34.8-15.1,45.2-25.4c10.3-10.3,19.3-22.1,26.8-35.3l606.9-1008.2
		L2095,2779.2c7.5,13.2,16.4,25,26.8,35.3c10.3,10.4,25.4,18.9,45.2,25.4c19.8,6.5,46.1,11.2,79,14.1c32.9,2.8,77.6,4.3,134.1,4.3
		c58.3,0,105.9-2.4,142.5-7c36.7-4.8,64-12.8,81.9-24c17.8-11.3,26.8-25.9,26.8-43.8c0-17.8-7.5-40-22.6-66.4L1824,1463.3z"/>
</g>
</svg>
