<svg xmlns="http://www.w3.org/2000/svg" viewBox="0 0 2994.91 3000">
  <defs>
    <style>
      .a {
        fill-rule: evenodd;
      }
    </style>
  </defs>
  <title>151icon 1</title>
  <path class="a" d="M1493.12,18.69q33.68,142.25,67.34,284.51c47.14,193.88,97.18,391.29,164.92,570.39C1809.73,1096.54,1901,1312,2014,1510c80.76,141.45,161.42,267.33,211.65,439.82,125.58,431.19-157.48,841.74-428.79,962.1-81.38,36.1-163.56,50.3-270.74,66-128,18.72-283.16-42.37-357.33-85.21-242.38-140-490.26-457.42-409.55-878.26,35.27-183.89,117.7-308.86,191-453.57,94.24-186,182.29-377.18,261.13-577.26,83.08-210.84,138.63-441.62,204.77-668Q1454.63,167.15,1493.12,18.69Z"/>
</svg>
