<svg xmlns="http://www.w3.org/2000/svg" viewBox="0 0 2994.91 3000">
  <defs>
    <style>
      .a {
        fill-rule: evenodd;
      }
    </style>
  </defs>
  <title>71icon 1</title>
  <g>
    <polygon class="a" points="559.86 2416.71 322.9 2971.8 2661.89 2971.8 2438.02 2416.71 559.86 2416.71"/>
    <path class="a" d="M1500,28.2C767.6,28.2,173.86,621.93,173.86,1354.33c0,378.28,158.4,719.55,412.46,961.15H2413.68c254.07-241.6,412.46-582.87,412.46-961.15C2826.14,621.93,2232.4,28.2,1500,28.2Zm171,704.91a77.7,77.7,0,1,1,77.7-77.7A77.69,77.69,0,0,1,1671,733.11Zm353.9-212.36c-85.18,74.38-196,86.87-247.46,27.9s-24.19-167.06,61-241.44,196-86.87,247.45-27.9S2110,446.37,2024.86,520.75Z"/>
  </g>
</svg>
