<svg xmlns="http://www.w3.org/2000/svg" viewBox="0 0 2994.91 3000">
  <title>81icon 1</title>
  <g>
    <path d="M1901.86,238.79l250.55,139.9L2403,518.59l23.86,13.33s69.33-76.42,84.52-109.32c37.34-80.88,34.7-90.18,2.24-116.13-11.94-9.54-124.58-85.21-237.92-148.5C2150.38,88,2038.8,38.48,2024.41,33.33c-39.12-14-48.42-11.39-97.69,62.83-20,30.19-48.72,129.3-48.72,129.3Z"/>
    <path d="M1620.79,2241.67c42.49-93.65,84.06-297.57,125-391.93,39.4-90.9,135.3-265.61,193.2-346,48.19-66.9,176.81-174.88,222.18-243.73,34-51.53,82.74-166.14,102-224.75,30.73-93.41,52.09-291,81.8-384.73,3.1-9.78,10-26.47,18-44.74L2105.77,462.21,1848.63,318.62c-11.36,16.38-22,31-28.65,38.78-64.21,74.47-221.22,196.31-284.62,271.47C1495.57,676,1423.6,777.7,1397.54,833.63c-34.81,74.75-59.26,240.9-90.94,317-38.06,91.47-136.48,264.77-193.2,346-58.88,84.31-210.67,226.68-268.11,312C789,1892.27,705.68,2077,660.68,2167.26c-51.15,102.6-199.31,413-199.31,413s39.66,69.1,332,232.32,371.95,160.74,371.95,160.74,186.53-289,247-386.36C1465.55,2501.32,1579.14,2333.5,1620.79,2241.67Zm-34.64-246.28L1061.2,1702.26s158.87-228.13,197.07-296.88c34.89-62.78,139.36-305.63,139.36-305.63l525,293.13s-145.2,218.15-181.12,282.31C1703.89,1742.33,1586.15,1995.39,1586.15,1995.39Z"/>
    <path d="M1531.21,1431.34c6,8.09,12.68,19.35,13.27,25.84s.27.26.41.39c13.81-4.52,26.32-3,39.4-1.9l31.76,2.27,31.61,2.81.32-.29-36.41-20,24.31-19.7c-1.45-1.08-11.27.26-13.53.41l-40.09,2q0-16.26,0-32.5l-.23-.13-27.61,16.92q-13-23.43-26-46.84-2.1,15.24-4.18,30.47l-.15.55-36.39-20.32C1501.94,1391.68,1517.63,1411.19,1531.21,1431.34Z"/>
    <path d="M1630.59,1488.25c-21.16-28-56.51-36.47-86.41-27.44-1.41.44-1.46,1-1.79-1-3.52-16-17.7-38.86-39.78-50.69l-8.94-3.9a75.69,75.69,0,0,0-16.94-4.14c-37.38-3.93-83,16.87-99.64,69.41a133.67,133.67,0,0,0-5.77,28.55c-2,22.63,7.25,42,11.2,62.91l31.41,129.59c.1.1.19.21.29.32l126.87-41.37,41.33-12.92c14.32-6.79,27.31-16.56,39.58-30.8C1656.38,1566.87,1652.21,1516.85,1630.59,1488.25Zm-210.16-7.65c-9.2-3.56-10.24-17.91-3.66-25.67,2.35-2.77,5-3.61,7.28-5.48l20-13.4-.15,12.59q-.11,9.18-.22,18.35C1441.13,1479.17,1430,1484.3,1420.43,1480.6Zm6.58,87.72c-8.83-3.74-10-17.76-3.42-25.54,7.45-8.78,19.15-11.75,27.36-19q-.1,6-.19,12.1-.12,9.48-.25,19C1448,1567,1436.59,1572.37,1427,1568.32Zm74.48-65c7-8.75,19.55-12.26,27.56-19.35q0,7.08-.1,14.18-.08,8.27-.14,16.51c-2.52,12.43-13.76,17.68-23.39,13.86C1496.55,1525,1495.24,1511.17,1501.49,1503.33Zm-67.15,152.5c-9.07-3.6-10-17.75-3.61-25.49,7.42-8.94,19.18-11.82,27.42-19.12q-.09,6.21-.2,12.41l-.24,18.64C1455.22,1654.53,1443.9,1659.62,1434.34,1655.83Zm78.1-39.81c-8.84-3.69-10-17.79-3.42-25.54,7.51-8.82,19.11-11.73,27.35-19q-.09,6.21-.2,12.41-.12,9.33-.23,18.65C1533.34,1614.69,1522.08,1620.05,1512.44,1616Zm78.41-39.79c-9.07-3.54-10-17.62-3.93-25.2,7.38-9.19,19.29-12,27.55-19.35,1.56,2.65-.09,9-.06,12.17q-.09,9.26-.17,18.53C1611.78,1574.85,1600.43,1580,1590.85,1576.23Z"/>
  </g>
</svg>
