<svg xmlns="http://www.w3.org/2000/svg" viewBox="0 0 2994.91 3000">
  <title>67icon 1</title>
  <g>
    <path d="M2176.33,978.92l-422.66-143-381.42,143a43.68,43.68,0,0,0-7.58-5.09c-116.84-51.93-467.36-39-467.36-39L468.89,1545.07l212.79,209.67A123.78,123.78,0,0,0,774.06,1961a126.23,126.23,0,0,0,14.1-.8c-23.08,39.43-19.94,92.36,9.84,126,9.11,10.29,28.09,27,39.07,34.35h0a114.66,114.66,0,0,0,56.68,19.21c-28.49,42.28-25.8,102.16,8.39,140.16,9.29,10.31,29.59,29.13,41.85,37.93a116.48,116.48,0,0,0,68,21.64c31.53,0,62.73-12.5,84.61-36.6l21-23.16c.64,74.91,61.77,135.65,136.83,135.65a136,136,0,0,0,75-22.44l22.28,21.95s39,13,77.89-13,39-38.95,39-38.95l-77.46-77.46q.18-3.45.18-7a137,137,0,0,0-3.89-32.42h29.24l176.73,182.82c21.11,2.49,79.92,6.92,121.86-14.05,52.73-26.37,86.21-66.66,98.5-83.26l-280.25-280.25-13-38.94h39l338.82,350.5c11.91-.2,105.92-3.33,154.5-51.91,58.78-58.78,77.9-103.86,77.9-103.86L1832,1908.58l-13-38.95h39L2148.31,2170c19.4,6.6,96.56,26.84,164.07-40.67,74-74,26-168.77,26-168.77s-38.24-39.93-99.55-103.71l250.39-243Zm-422-100.56,393.42,133.13,292.66,593.83-217.28,210.91L1557.06,1124l-93.71,152.71-.68,1.79c-21.42,56.82-85.67,213-125.25,252.55-37.09,37.1-125.84,90-165.16,85.17-.42,0-10.65-1.55-41.56-26-8-6.36-15.44-12.69-21.07-17.64l243.79-543.82ZM690.2,1837.14A83.86,83.86,0,1,1,774.06,1921,83.95,83.95,0,0,1,690.2,1837.14ZM828,2059.69c-20.46-23.12-19.58-64.81,1.88-89.22l78.63-89.39c22.57-25.65,65.23-34.66,95.1-20.07,6.38,3.11,21.66,16.8,28.19,25.25,24.23,31.35,20.72,69.88,4.79,94.45l-99.39,109.54c-22.78,13.61-53.83,13.17-77.79-2.92h0C851.21,2081.87,834.78,2067.4,828,2059.69Zm239,216.32c-24.49,27-69.19,31.18-99.63,9.34-8.87-6.36-27.08-22.91-35.43-32.19-23.9-26.56-23.41-71.77,1.06-98.74L963.29,2121a101.52,101.52,0,0,0,18.76-16.62l78.62-89.38a110.86,110.86,0,0,0,7.45-9.53l10.79-11.89c15.62-17.22,39-26.39,62.13-26.39,14.93,0,29.73,3.83,42.23,11.79,9.73,6.2,27.49,22.25,33.32,30.11,23.36,31.48,21.74,78.07-3.68,106.08Zm90.63,2.53a96.84,96.84,0,1,1,96.84,96.84A96.95,96.95,0,0,1,1157.57,2278.54Z"/>
    <path d="M2531.11,628.55s-192.71,88.66-249.42,130.29c-46.08,33.83-67.88,109.93-47.88,153.63,79.12,172.88,228.8,526.72,348.68,666.74,34.44,40.22,109.84,31.31,139.77,19.27,61.91-24.88,237.16-122.37,237.16-122.37ZM2729,1477a56.22,56.22,0,1,1,63.37-48A56.22,56.22,0,0,1,2729,1477Z"/>
    <path d="M809.94,732c-50.5-49-229.28-163.13-229.28-163.13L40.58,1350s160.29,120.51,218.22,153.61c28,16,101.49,35.14,141.09,0,137.89-122.33,334.5-452.4,436.5-612.86C862.16,850.2,851,771.83,809.94,732ZM268.71,1382.36a56.22,56.22,0,1,1,56.22-56.21A56.21,56.21,0,0,1,268.71,1382.36Z"/>
  </g>
</svg>
