<svg xmlns="http://www.w3.org/2000/svg" viewBox="0 0 2994.91 3000">
  <defs>
    <style>
      .a {
        fill-rule: evenodd;
      }
    </style>
  </defs>
  <title>31icon 1</title>
  <path class="a" d="M269.35,669.28,149.81,850.65c-204.14,309.74-117.75,730.2,192,934.34l82.44,54.34c309.74,204.15,730.2,117.75,934.35-192L1478.13,1466c171.69-260.5,137.86-599.27-61.47-821.86l33-16.72a162.42,162.42,0,0,0,78.76-88.27l59.17-17.33a162.84,162.84,0,0,0,115.88,64.72l52.33,4.65A162.51,162.51,0,0,0,1869.33,558l46.29,13a162.85,162.85,0,0,0,49.83,124.21l37.91,36.38a162.48,162.48,0,0,0,109.34,45.17l52.23,72.92a163.33,163.33,0,0,0-16.79,151.85l19.41,48.83a162.46,162.46,0,0,0,80.75,86.45l8.63,43.93c-312.56-29.94-615.58,163.79-710.23,475.13l-63.18,207.83c-107.9,354.93,94.21,733.61,449.14,841.51l94.46,28.72c354.93,107.9,733.61-94.21,841.52-449.14l63.18-207.83c107.9-354.92-94.21-733.61-449.14-841.51l-12.63-3.84a103.83,103.83,0,0,0,1.3-45.82l-17.07-86.91c46.25-44.66,63.8-114.69,38.68-177.88l-19.41-48.83c-21.06-53-67.23-88.84-119.49-99.49A103.73,103.73,0,0,0,2336,728.78l-51.58-72C2308,597,2294.88,526,2245.81,478.87l-37.91-36.38c-42.26-40.55-101.16-53.7-154.25-39.95a103.73,103.73,0,0,0-40.16-21.65L1928.21,357c-19-61.4-73.68-108.61-141.41-114.63l-52.34-4.66c-60.66-5.39-116.79,23.58-149.11,70.68a103.87,103.87,0,0,0-28.45,4.17l-85,24.89c-48.67-42-120-53.12-180.66-22.36l-46.86,23.76a163.05,163.05,0,0,0-85.52,111.33C854.51,281.85,463.8,374.24,269.35,669.28Zm2148.59,678.14c307,93.34,481.86,420.92,388.52,727.94l-39.23,129c-93.34,307-420.91,481.85-727.94,388.51l-41.51-12.62c-307-93.34-481.86-420.91-388.52-727.93l39.23-129c93.34-307,420.91-481.86,727.94-388.52Zm3-443.6,9.93,23.41a103.77,103.77,0,0,1-8,96.58A104.86,104.86,0,0,0,2326.78,993h0a104.86,104.86,0,0,0-76.73,63.39,111,111,0,0,1-38.62-47.41l-9.93-23.42a103.83,103.83,0,0,1,9.59-99,104.86,104.86,0,0,0,100.73-11.62,103.69,103.69,0,0,0,31.63-36.45C2377.33,847.23,2406.86,870.56,2421,903.82ZM2173.18,493.13l18.75,17.2a103.75,103.75,0,0,1,32.8,91.18,104.44,104.44,0,0,0-143.79,101.31,111.1,111.1,0,0,1-54.82-27.12l-18.74-17.2a103.39,103.39,0,0,1-33.69-72.73c50,5.52,98.4-25.89,112.38-75.8a103.65,103.65,0,0,0,2.34-45.72C2118.92,462.22,2149.86,471.74,2173.18,493.13Zm-434.11-194.2,25.38,1.68a103.73,103.73,0,0,1,82.64,50.61,104.44,104.44,0,0,0-48.78,169,111.09,111.09,0,0,1-59.73,13.14l-25.38-1.68a103.35,103.35,0,0,1-68.32-31.85c36.66-24.85,55-71.56,41.94-116.2a103.87,103.87,0,0,0-34.53-51.74C1675.07,309.71,1706.27,296.76,1739.07,298.93Zm-458.36,89.41,22.42-12a103.76,103.76,0,0,1,96.9-.83,104.45,104.45,0,0,0,48.11,169.18,111,111,0,0,1-43.71,42.78l-22.42,12c-2,1.08-4,2.06-6.08,3a671.73,671.73,0,0,0-89.79-70.85l-65.08-42.89C1221.88,447.7,1243.63,408.21,1280.71,388.34ZM1156.06,596.79l36.23,23.88C1460.23,797.26,1535,1161,1358.37,1428.91l-74.21,112.61c-176.6,267.94-540.31,342.67-808.25,166.08l-36.23-23.88C171.74,1507.13,97,1143.42,273.6,875.48l74.21-112.61C524.41,494.93,888.12,420.19,1156.06,596.79Z"/>
</svg>
