<svg xmlns="http://www.w3.org/2000/svg" viewBox="0 0 2994.91 3000">
  <defs>
    <style>
      .a {
        fill-rule: evenodd;
      }
    </style>
  </defs>
  <title>133icon 1</title>
  <path class="a" d="M1829,133.05l100.37,254.79L2161,241.15l-7.72,262.51L2523.9,301.31l-401.52,333.6S1890.75,519.1,1736.33,480.5s-440.09,0-440.09,0L1137,213.11l1.35-1.36,181.06,207,108.09-154.42,157,49.34ZM534.46,336.59,817.54,743S726.06,849.17,663.12,936c-70.78,97.69-152.49,328.55-177.58,509.58-6.45,46.52,0,193,0,193L30,1715.84,323.4,1507.38l-193-254.79,293.39-169.86L168.05,899.67,431.5,982.36,346.57,773.89,640,712.12ZM1506.1,553.68c661.46-8.58,1212.1,645.88,928.23,1327-119.57,286.88-351,499.65-678.53,578L1559,2483.07c-109.2,12.66-222.36-20.24-302.62-44.77-442.95-135.4-846.22-657.06-621.53-1256.41C744.65,889.06,1018.29,565.43,1506.1,553.68ZM2633.44,810.12l-71,195.4,231.63-46.33-200.75,123.54L2951,1162.89l-257.26,213.23,231.62,46.33L2794.92,1555.6,2970,1595.71v1.37l-392.08,3s9.8-146.88,7.72-200.75c-1.21-31.39-36.54-209.48-46.32-239.34-11.49-35-84.93-131.26-84.93-131.26l179.06-218.56Zm-1121.9,295.79c-170.6,16.89-299,100.66-362.34,272.71-102,276.8,130.75,585,408.47,553.59C2104,1870.45,2083.92,1106.92,1511.54,1105.91Zm996.88,880.16,316.87,160.52v1.35l-139.29,8H2570.19l46.33,239.34H2346.28l-38.6,254.79-193-123.53-57.46,198.05,11.13-298.42s218.78-151.52,270.23-200.75C2391.58,2174.7,2508.42,1986.07,2508.42,1986.07Zm-1853,123.54S839.78,2306,902.47,2356.68c33.33,27,152.82,126.3,208.47,146.7,75.84,27.79,254.79,61.76,254.79,61.76l-112,301.81h-1.35l-126-170.55L856.15,2819.93l61.76-239.34L655.4,2549.7l77.21-193-239.35,92.65,100.37-200.74-356.37,83.77Z"/>
</svg>
