<svg xmlns="http://www.w3.org/2000/svg" viewBox="0 0 2994.91 3000">
  <title>125icon 1</title>
  <g>
    <path d="M2068.67,2689.92c-271.14-118.8-554-331.08-729.24-570.91-88.12-152.56-142.61-327.45-150.93-504,4.71-126.78,32.21-251.58,59.62-374.77A813.36,813.36,0,0,1,1096,1142.65c-87.75-54.11-125.71-415.52-102.19-533.18,45-16.88,95.52,84.36,125.38,112.74,69,93.06,183.65,144.78,234.95,251.84,41.1,81.68,26.21,221-60.5,274-27,121-54.08,243.17-59,367.07,12.46,192.77,72.49,396.2,195.18,548.17,268.14,291.31,623.87,546.45,1030.31,573.8-131.21-264.53-242.51-549.2-314.7-870.55-113.35-40.39-241.55-85.58-311.86-177,104,51.74,234.72,115,355.06,86.41,29.68-16.76-36.81-30.41-17.91-106.42.89-131.72,251.64-59,256-159.11-7.2-24-69.94-56.2-90.62-72.7-151.61-133.35-93-342-115.88-523.7-16.51-79.18-57.32-136.88-86.4-201.26-9.28-59.65-21.44-129.23-49.52-179.12-96-144.18-317.14-273.59-505-275l-.72,1c48.59,147.8,85.13,273.12,233.91,348.76,52,33.16,166.5,69.72,194.91,119.08,37.94.18,71.51,4.86,105.35,6.32,196.62,283.6-63.25,564.86,285.53,785-72.36,38.49-222.93,26.77-249.71,110.63-10.95,34.33-14.58,114.51,14.75,128.55-96.75,18.47-206.56-29.79-285.52-64.27-14.3-6.28-77.75-41.17-82.18-26.35,55.18,71.29,121.62,136.81,206.5,171.76-172.86-37.05-357.39-94.59-449.88-210.74-236.33-298.5-206.57-770,228.63-856.66-155.92-120-286-296.63-263.4-512.1C841.83,332.84,799,891.38,735.64,1453.49c-17.73,290.09-156,510.66-333,720.73-4.77,6.15,55.53,70,66.39,81.14,475.25,523.69,1075.84,594.17,1743.7,704.92-28.49-42.2-65.22-79.19-89.56-125.39C2098.85,2792.59,2083.42,2738.15,2068.67,2689.92Z"/>
    <path d="M1847.15,1329c44.52,16.19,135.27,43,170.7-3.16,24.44-31.84,7.92-70.19-19-86.4-51.11-12.89-108.13,4.29-161.2-34.79-88.39-41.56-137-127.07-200.18-193.87C1643,1141.25,1725.82,1281.59,1847.15,1329Z"/>
    <path d="M1566.14,235.18q-17-50.56-34-101.12c-8.61,21.25-10.48,67.88-10.62,101.5l21.72-.23Z"/>
    <path d="M1785.77,279.66c-14-63.83-19.45-199.82-56.61-242.54C1723,103.43,1689.7,183.49,1704,251.68,1732,258.87,1759.52,267.85,1785.77,279.66Z"/>
  </g>
</svg>
