<svg xmlns="http://www.w3.org/2000/svg" viewBox="0 0 2994.91 3000">
  <defs>
    <style>
      .a {
        fill-rule: evenodd;
      }
    </style>
  </defs>
  <title>43icon 1</title>
  <g>
    <path class="a" d="M1301.48,542.35c75.55,34,168.74,88.15,199,132.4l4.49,1.12C1586.09,588,1682.16,549,1780.43,504.2l237.24-111.08L2256,286.52l1.13-3.36-341.8,2.24,95.57-239c-14.7-1.94-79.91,47.09-95.57,57.23l-279.95,175L1505,45.28h-2.25q-65.22,116.14-130.42,232.27L997.92,45.28Q1044,163.1,1090.1,280.91c.38,1.5.76,3,1.13,4.49H748.31C932.14,374.83,1123.13,452,1301.48,542.35Z"/>
    <path class="a" d="M2239.49,624c-266.76-117.93-572.43-25-730.8,149.52-7.13,8.27-8.06,10.75-14.63,2.4C1455.39,739,1393,687,1371.52,673.45c-96-60.44-211.65-106.31-368.78-104.55-82.58,19.68-152.39,18-218.12,46.09C499.24,737,264.16,1056.28,345,1499.77c15.07,82.61,38.31,159.22,68.59,227.09,82,184,231.85,294.48,354.16,437.33l730.81,789.22,3.37,1.12q372.76-403.08,745.42-806.08c177.85-207.72,340.62-307.21,405.89-638.57C2737.31,1083.07,2512.22,744.55,2239.49,624ZM1748.17,2182.18l-493.58,1.13-1.12-1.13q57.9-287.28,115.8-574.49c-172.58-90.12-238.84-327.58-56.22-492.41,101.82-72.72,142.16-64.85,181-69.7,359.51,12.14,400.87,430.36,138.28,565.49Q1690.28,1896.66,1748.17,2182.18Z"/>
  </g>
</svg>
