<svg xmlns="http://www.w3.org/2000/svg" viewBox="0 0 2994.91 3000">
  <defs>
    <style>
      .a {
        fill-rule: evenodd;
      }
    </style>
  </defs>
  <title>73icon 1</title>
  <g>
    <polygon points="31.14 2928.2 1228.39 2685.24 1195.28 2756.01 713.49 2050.59 671.36 1988.91 748.74 1979.49 1741.96 1858.82 1705.12 1927.39 1297.45 1238.21 1266.84 1186.48 1327.64 1170.89 2333.24 913.32 2307.42 986.81 1931.86 538.98 1888.92 487.76 1952.39 467.13 2968.86 136.65 1988.96 553.36 2009.49 481.54 2385.05 929.4 2431.23 984.44 2359.23 1002.89 1353.63 1260.46 1383.83 1193.14 1791.5 1882.33 1826.88 1942.1 1754.66 1950.9 761.39 2071.56 796.65 2000.46 1278.45 2705.89 1320.4 2767.32 1245.34 2776.67 31.14 2928.2"/>
    <path class="a" d="M534.9,2845.47c94.09-92.21,236.31-234.19,394.15-400.81l-92-134.69c-157.17,235.3-283.6,433.09-355,546.22Z"/>
    <path class="a" d="M1003.12,2064.58q-55.57,81-107.88,158.68l101.82,149.08c101.45-108.66,207.18-225.59,309.2-344.58Z"/>
    <path class="a" d="M1394.2,1923.45c51.33-61.94,101-123.93,147.94-185.13L1403,1503c-113.13,152.16-224.5,308.36-329.34,459.36Z"/>
    <path class="a" d="M2043.16,1005.24q49.42-76.66,96-150.22L2028.46,723c-97.61,114.71-200.08,237.55-301.74,363.29Z"/>
    <path class="a" d="M456.1,2897.43c-24.63,39.25-38.06,61-38.06,61s24.56-23.2,67.31-64.65Z"/>
    <path class="a" d="M1629.89,1207.32c-55.72,70.41-110.61,141.18-163.74,211.44l139.19,235.31q27.36-37.33,53-74c108-154.69,212.25-310,309.89-459.41Z"/>
    <path class="a" d="M2472.54,313.2C2573,145,2631.84,41.58,2631.84,41.58S2518.57,163.28,2350.2,353Z"/>
    <path class="a" d="M2267.61,446.51c-55,62.57-114,130.43-175.65,202.21l101.2,120.68c92.94-148.09,175-282.45,242.25-394.25Z"/>
  </g>
</svg>
