<svg xmlns="http://www.w3.org/2000/svg" viewBox="0 0 2994.91 3000">
  <defs>
    <style>
      .a {
        fill-rule: evenodd;
      }
    </style>
  </defs>
  <title>105icon 1</title>
  <path class="a" d="M2331.56,33.06c77.71-.3,598.78-8.28,613.78,11,18.26,23.53,6,612.79,6,698,0,45.49,10.12,186.73-15,201.58l-686,4c-38.82,0-188.78,8.18-203.59-9-16.38-19-7-162-7-201.58V197.53c0-39.44-12.81-126.09,6-152.44C2066.1,16.59,2278.72,44.59,2331.56,33.06Zm-787.27,2c56.25-.33,377.89-9.11,398.15,6,21.24,15.87,12,161.5,12,204.59,0,83.21,10.61,670.42-7,693-15.46,19.8-160.21,11-201.59,11H1204.31c-37.67,0-124.69,13.19-150.43-5-19.33-13.66-11-156.93-11-196.57V218.59c0-36.91-7.83-162.61,10-176.5C1093.26,10.66,1459.5,54,1544.29,35.07ZM758,37.07c42.65-.37,178.38-9,193.56,13,16.1,23.34,5,171.12,5,212.61q-1,335.44-2,670.94C942.88,962.42,473.08,951.71,392,951.71c-49.28,0-319.28,7.87-337-6C37.08,931.64,45,805.3,45,768.18V238.65C45,195.45,35.55,56,59,42.09ZM2095.88,90.22V891.54h799.31V89.22Zm-997.88,2V893.54h800.31V91.23Zm-996.87,2V895.55h799.3V93.23ZM2838,1039c33.1,1.07,95.95-8.79,111.32,14q2,108.3,4,216.63-.49,331.92-1,663.91c-12.23,36.88-151.59,20.06-200.58,20.06H2202.19c-36.64,0-123.84,13.1-148.43-5-26.59-19.6-12-134.12-12-177.51V1240.54c0-44.34-9.73-182.6,15-196.56Zm-1509.36,3.19c78.31-.3,595.17-11,617.78,7,18.26,14.56,10,157.41,10,196.56v526.52c0,42.64,14.69,157.42-11,177.51-25.25,19.74-606.75,7-694,7-39.19,0-186.45,8.15-200.58-10-18.15-23.33-6-608.36-6-693,0-39.14-9.72-180.49,6-200.58C1072.32,1025.8,1276.73,1053.46,1328.67,1042.15ZM541.4,1044c57.81-.33,387.36-8.78,407.17,7,18.32,14.59,10,160.13,10,199.57,0,83.8,10.17,677.89-7,698-16,18.71-160.93,10-201.58,10H209.44c-37.78,0-124.56,13.17-150.44-5C38.18,1939,47,1798.5,47,1757V1228.51C47,1186,32.33,1071,58,1051,98,1019.9,457.73,1062.62,541.4,1044Zm1556.49,52.15v802.31H2897.2q.5-401.61,1-803.32Zm-1994.76,5v801.32H902.44q.49-401.13,1-802.32Zm2508.24,944.73c60.18,6.25,304.15-18.69,334,9,16.16,15,8,163,8,200.57,0,84.56,12,670.91-6,694-15.45,19.79-160.2,11-201.58,11H2204.2c-37.68,0-124.68,13.19-150.44-5-26.49-18.73-12-133.85-12-176.51V2247.45c0-43.25-9.31-182.55,14-196.57Zm-782.26,2c36.49-.37,106.94-9.13,122.36,13,16.35,23.53,5,177.39,5,219.64q-.49,330.4-1,660.9c-10.89,38-151.47,21.06-200.58,21.06H1207.32c-37.86,0-125.55,13.3-151.44-5-19.09-13.51-11-138.74-11-176.51V2248.45c0-44.31-10.14-184.26,16.05-196.56Zm-1510.36,3c80.75-.3,602.78-13,628.82,6,19.46,14.21,11,156.53,11,196.57V2782c0,43.52,14.59,157.78-12,177.52-25.29,18.74-112,6-150.44,6H253.57c-40.13,0-186.7,8.34-200.58-11-16.44-22.93-6-160.25-6-201.58V2215.36c0-39.53-12.79-126,6-152.44C72.81,2035,268.3,2061.86,318.75,2050.88ZM2097.89,2103v801.32H2897.2q.5-401.11,1-802.32ZM1101,2105v802.32h799.31V2104Zm-997.88,3v801.31H902.44q.49-401.12,1-802.31Z"/>
</svg>
