<svg xmlns="http://www.w3.org/2000/svg" viewBox="0 0 2994.91 3000">
  <defs>
    <style>
      .a {
        fill-rule: evenodd;
      }
    </style>
  </defs>
  <title>157icon 1</title>
  <path class="a" d="M2018.38,116.73c310.51-4.33,321,421.07,32.88,454.26C1750.27,589.22,1725.29,142.89,2018.38,116.73ZM1530.21,459.42c177.25,37.28,260.9,156.27,367.62,263,268.81,250.83,578.49,478.45,198.24,782-312.44,304.48-878.65,869.43-1178.58,1172.5-54.79,35.19-156.56,25.11-215.19,4-94-33.84-148.57-126-219.18-185.28q-114.57-115-229.15-230.12c-83.22-113.84-236.33-185.27-223.18-348.65,21-109.06,259.59-314.35,338.75-393.49,300.56-299.77,599.1-601.7,902.62-898.56C1350.13,555.17,1413.41,466.12,1530.21,459.42Zm543,322.76c126.37,8.68,223.06,64.46,264,157.4C2308.44,984,2286.76,1031,2272.43,1082c-.66-.33-1.32-.67-2-1-23.66-62.7-207.21-241.29-263-287.9Zm553.93,26.9c446.15,0,462.18,674.46,17.21,696.35-174.79,5.38-285.07-97.77-334.8-211.51-9.56-61.51-10.82-128.67-24.41-185,8.19-164,191-307.53,342-299.89Zm-349.7,522c30.44-45.87-15.64,208-46.82,238.09-192.19,183.57-982.95,981.16-1011.23,1008.13L940.41,2859.21c-28.25,17.71-80.83,20.25-112.58,23.91-174.33,6.53-252.57-159.32-372.62-253C334.37,2487.19,35.47,2279.91,41.77,2063.26c30.72,82.12,194.44,223.31,259,287.9,159.62,158.78,374.64,473.14,630.64,348.65,382.08-381.25,805.29-805.9,1192.55-1186.44C2180.32,1467.2,2248.59,1374.51,2277.41,1331.07Zm30.88,3c22.64,64.38,133.35,142.58,144,142.88,60.66,238.85-159,450.24-411,323.33,103.38-100.85,304-245,267-466.21Zm-447.32,259c-256.6,244.07-529.74,473.2-760.16,742.15C691,2813.57,451.4,2309.76,140.4,2038.35l-4,6c210.5,175.41,553.69,722.35,777.09,511.06C1231.15,2255,1563.49,1914.65,1861,1593.06Z"/>
</svg>
