<svg xmlns="http://www.w3.org/2000/svg" viewBox="0 0 2994.91 3000">
  <defs>
    <style>
      .a {
        fill-rule: evenodd;
      }
    </style>
  </defs>
  <title>75icon 1</title>
  <path class="a" d="M2745,39.07H255C135.72,39.07,39.07,135.73,39.07,255V2745c0,119.24,96.65,215.9,215.89,215.9H2745c119.24,0,215.89-96.66,215.89-215.9V255C2960.93,135.73,2864.28,39.07,2745,39.07ZM209,132.74a58.69,58.69,0,1,1-58.68,58.69A58.68,58.68,0,0,1,209,132.74ZM211.06,632a58.69,58.69,0,1,1-58.68,58.7A58.7,58.7,0,0,1,211.06,632Zm63.29,316.93a58.69,58.69,0,1,1-58.7-58.68A58.68,58.68,0,0,1,274.35,948.88Zm-63.29,474a58.69,58.69,0,1,1-58.68,58.7A58.69,58.69,0,0,1,211.06,1422.85Zm-4.45,1290.4a58.69,58.69,0,1,1-58.68,58.69A58.68,58.68,0,0,1,206.61,2713.25Zm-58.73-200.73a58.69,58.69,0,1,1,58.7,58.67A58.7,58.7,0,0,1,147.88,2512.52Zm58.75-472.79a58.69,58.69,0,1,1,58.68-58.7A58.7,58.7,0,0,1,206.63,2039.73Zm-.07-376.81a58.69,58.69,0,1,1-58.68,58.7A58.68,58.68,0,0,1,206.56,1662.92ZM202,2195.56a58.69,58.69,0,1,1-58.68,58.7A58.69,58.69,0,0,1,202,2195.56ZM215.72,1267a58.69,58.69,0,1,1,58.68-58.7A58.69,58.69,0,0,1,215.72,1267ZM209,509.55a58.69,58.69,0,1,1,58.68-58.7A58.7,58.7,0,0,1,209,509.55ZM2762.56,146.39a58.69,58.69,0,1,1-58.68,58.7A58.68,58.68,0,0,1,2762.56,146.39Zm58.75,318.11a58.7,58.7,0,1,1-58.7-58.68A58.7,58.7,0,0,1,2821.31,464.5Zm-343-318.07a58.69,58.69,0,1,1-58.68,58.7A58.69,58.69,0,0,1,2478.26,146.43ZM2537,464.54a58.69,58.69,0,1,1-58.7-58.68A58.69,58.69,0,0,1,2537,464.54ZM2204.62,141.9a58.69,58.69,0,1,1-58.68,58.7A58.7,58.7,0,0,1,2204.62,141.9ZM2263.36,460a58.69,58.69,0,1,1-58.71-58.68A58.69,58.69,0,0,1,2263.36,460ZM1916.21,137.24a58.69,58.69,0,1,1-58.68,58.7A58.68,58.68,0,0,1,1916.21,137.24ZM1975,455.35a58.69,58.69,0,1,1-58.7-58.68A58.69,58.69,0,0,1,1975,455.35ZM1637.2,137.27a58.69,58.69,0,1,1-58.68,58.7A58.69,58.69,0,0,1,1637.2,137.27Zm58.74,318.11a58.69,58.69,0,1,1-58.69-58.68A58.69,58.69,0,0,1,1695.94,455.38ZM1344.4,137.3a58.69,58.69,0,1,1-58.68,58.7A58.69,58.69,0,0,1,1344.4,137.3Zm58.74,318.11a58.69,58.69,0,1,1-58.7-58.68A58.69,58.69,0,0,1,1403.14,455.41ZM1060.09,137.34A58.69,58.69,0,1,1,1001.41,196,58.68,58.68,0,0,1,1060.09,137.34Zm58.74,318.11a58.69,58.69,0,1,1-58.69-58.68A58.69,58.69,0,0,1,1118.83,455.45ZM771.69,132.67A58.69,58.69,0,1,1,713,191.37,58.69,58.69,0,0,1,771.69,132.67Zm58.74,318.11a58.69,58.69,0,1,1-58.7-58.68A58.68,58.68,0,0,1,830.43,450.78ZM2755.87,2466.5a58.69,58.69,0,1,1-58.68,58.7A58.69,58.69,0,0,1,2755.87,2466.5Zm58.75,318.11a58.69,58.69,0,1,1-58.69-58.68A58.69,58.69,0,0,1,2814.62,2784.61Zm-343-318.07a58.69,58.69,0,1,1-58.68,58.7A58.69,58.69,0,0,1,2471.57,2466.54Zm58.75,318.11a58.69,58.69,0,1,1-58.7-58.68A58.7,58.7,0,0,1,2530.32,2784.65ZM2197.93,2462a58.69,58.69,0,1,1-58.68,58.7A58.7,58.7,0,0,1,2197.93,2462Zm58.75,318.11a58.7,58.7,0,1,1-58.71-58.68A58.69,58.69,0,0,1,2256.68,2780.12Zm-347.16-322.77a58.69,58.69,0,1,1-58.68,58.7A58.69,58.69,0,0,1,1909.52,2457.35Zm58.74,318.11a58.69,58.69,0,1,1-58.69-58.68A58.68,58.68,0,0,1,1968.26,2775.46Zm-337.75-318.08a58.69,58.69,0,1,1-58.68,58.7A58.69,58.69,0,0,1,1630.51,2457.38Zm58.75,318.11a58.69,58.69,0,1,1-58.7-58.68A58.69,58.69,0,0,1,1689.26,2775.49Zm-351.55-318.08a58.69,58.69,0,1,1-58.68,58.7A58.69,58.69,0,0,1,1337.71,2457.41Zm58.75,318.11a58.69,58.69,0,1,1-58.7-58.68A58.69,58.69,0,0,1,1396.46,2775.52ZM1053.4,2457.45a58.69,58.69,0,1,1-58.68,58.7A58.68,58.68,0,0,1,1053.4,2457.45Zm58.75,318.11a58.69,58.69,0,1,1-58.7-58.68A58.69,58.69,0,0,1,1112.15,2775.56ZM765,2452.78a58.69,58.69,0,1,1-58.68,58.7A58.69,58.69,0,0,1,765,2452.78Zm58.75,318.11a58.69,58.69,0,1,1-58.7-58.68A58.69,58.69,0,0,1,823.75,2770.89ZM492.68,132.7A58.69,58.69,0,1,1,434,191.4,58.7,58.7,0,0,1,492.68,132.7Zm2.08,499.22a58.69,58.69,0,1,1-58.68,58.7A58.69,58.69,0,0,1,494.76,631.92Zm63.31,316.93a58.69,58.69,0,1,1-58.7-58.68A58.7,58.7,0,0,1,558.07,948.85Zm-63.31,474a58.69,58.69,0,1,1-58.68,58.7A58.69,58.69,0,0,1,494.76,1422.82Zm-4.45,1290.39a58.69,58.69,0,1,1-58.68,58.7A58.7,58.7,0,0,1,490.31,2713.21Zm-58.72-200.73a58.69,58.69,0,1,1,58.7,58.68A58.7,58.7,0,0,1,431.59,2512.48Zm58.74-472.78A58.69,58.69,0,1,1,549,1981,58.7,58.7,0,0,1,490.33,2039.7Zm-.06-376.81a58.69,58.69,0,1,1-58.68,58.7A58.68,58.68,0,0,1,490.27,1662.89Zm-4.6,532.64a58.69,58.69,0,1,1-58.68,58.7A58.69,58.69,0,0,1,485.67,2195.53ZM499.42,1267a58.69,58.69,0,1,1,58.69-58.7A58.71,58.71,0,0,1,499.42,1267Zm1985-628.34a58.69,58.69,0,1,1-58.68,58.7A58.68,58.68,0,0,1,2484.37,638.64Zm63.29,316.93a58.69,58.69,0,1,1-58.7-58.68A58.69,58.69,0,0,1,2547.66,955.57Zm-63.29,474a58.69,58.69,0,1,1-58.68,58.69A58.68,58.68,0,0,1,2484.37,1429.54Zm-4.43,616.87a58.69,58.69,0,1,1,58.68-58.69A58.68,58.68,0,0,1,2479.94,2046.41Zm-.07-376.81a58.69,58.69,0,1,1-58.68,58.7A58.69,58.69,0,0,1,2479.87,1669.6Zm-4.6,532.65a58.69,58.69,0,1,1-58.68,58.7A58.69,58.69,0,0,1,2475.27,2202.25ZM2489,1273.7a58.69,58.69,0,1,1,58.68-58.7A58.69,58.69,0,0,1,2489,1273.7Zm279-635.09a58.69,58.69,0,1,1-58.68,58.7A58.69,58.69,0,0,1,2768.07,638.61Zm63.3,316.93a58.69,58.69,0,1,1-58.7-58.68A58.69,58.69,0,0,1,2831.37,955.54Zm-63.3,474a58.69,58.69,0,1,1-58.68,58.7A58.7,58.7,0,0,1,2768.07,1429.5Zm-4.43,616.88a58.69,58.69,0,1,1,58.69-58.7A58.69,58.69,0,0,1,2763.64,2046.38Zm-.06-376.81a58.69,58.69,0,1,1-58.68,58.7A58.68,58.68,0,0,1,2763.58,1669.57Zm-4.6,532.65a58.69,58.69,0,1,1-58.68,58.7A58.69,58.69,0,0,1,2759,2202.22Zm13.75-928.56a58.69,58.69,0,1,1,58.69-58.69A58.69,58.69,0,0,1,2772.73,1273.66Zm-2280-764.15a58.69,58.69,0,1,1,58.69-58.7A58.69,58.69,0,0,1,492.74,509.51ZM2322.31,2247.89a75.38,75.38,0,0,1-75.38,75.39H749.64a75.39,75.39,0,0,1-75.39-75.39V750.61a75.39,75.39,0,0,1,75.39-75.39H2246.93a75.38,75.38,0,0,1,75.38,75.39Z"/>
</svg>
