<svg xmlns="http://www.w3.org/2000/svg" viewBox="0 0 2994.91 3000">
  <defs>
    <style>
      .a {
        fill-rule: evenodd;
      }
    </style>
  </defs>
  <title>47icon 1</title>
  <g>
    <path class="a" d="M882.37,875.11l4.7-19c-35.21-14-133.33-53.38-169.74-70.45-32.23-15.11-109.41-56.59-148.65-77.85l-10.9,25.82s48.36,30.83,142.59,75.12C790.6,851.18,882.37,875.11,882.37,875.11Z"/>
    <path class="a" d="M2112.93,856.13l4.7,19s91.77-23.93,182-66.34c94.23-44.29,142.59-75.12,142.59-75.12l-10.9-25.82c-39.24,21.26-116.42,62.74-148.65,77.85C2246.26,802.75,2148.14,842.1,2112.93,856.13Z"/>
    <path class="a" d="M2337.61,2765.55a7.27,7.27,0,0,0-7.67-5.17l-6.05.54c-44.39-148.25-144.38-480.64-187.27-610.8-42.47-128.86-180.92-511.66-180.92-511.66l-16-115.9L2051,593.44l63.17,213.9c-4.85,1.75-7.51,2.67-7.51,2.67l-4,4.74,4.87,19.69c16.72-6.48,45.1-17.53,74.38-29.14,6.5-2,23.75-9,25.07-9.35s19.44-8.19,27.38-11.74c15.34-6.29,28.74-11.92,38.07-16.12,11.54-5.19,51.59-24.7,53-25.51,34.51-17.14,74.31-37.48,99.33-50.33l-8.88-21-7.63-4.1s-4.08,2.48-11.67,6.91c-40.05-165.66-91-358.34-129.92-419.79-20.71-32.68-60.29-55.46-95.38-70.22,8.23-8.06,12.93-12.71,12.93-12.71-55.59-46.64-227.16-43.07-297.63-73.15-30-12.8-110.16-69.95-110.16-69.95S1702.55,276.47,1669.24,356c-29.72,70.95-141.35,273.27-141.35,273.27l2-.32a42,42,0,0,1,4.56,53.5c21.06,6,53.21,16.9,100.38,36.34,40,16.47,105.09,83.85,120.15,124.38,28.58,77,46.33,282.69,46.33,282.69s-149.67-49.31-230.08-135.69c-27.67-29.72-47.43-113.66-51.4-154.07-5.82-59.09-6.17-90.12-9.38-114.47-1.57-11.93-10.4-12.88-10.46-12.89h0c-.06,0-8.89,1-10.46,12.89-3.21,24.35-3.56,55.38-9.38,114.47-4,40.41-23.73,124.35-51.4,154.07-80.41,86.38-230.08,135.69-230.08,135.69s17.75-205.74,46.33-282.69c15.06-40.53,80.17-107.91,120.15-124.38,47.17-19.44,79.32-30.29,100.38-36.34a42,42,0,0,1,4.56-53.5l2,.32S1360.48,426.94,1330.76,356C1297.45,276.47,1223.59,28.2,1223.59,28.2s-80.15,57.15-110.16,70c-70.47,30.08-242,26.51-297.63,73.15,0,0,4.7,4.65,12.93,12.71-35.09,14.76-74.67,37.54-95.38,70.22-39,61.45-89.87,254.13-129.92,419.79-7.59-4.43-11.67-6.91-11.67-6.91l-7.63,4.1-8.88,21c25,12.85,64.82,33.19,99.33,50.33,1.37.81,2.72,1.64,4.1,2.44a7.85,7.85,0,0,1,.84,0c19.24,9.53,36.48,17.87,48,23.06,9.33,4.2,22.73,9.83,38.07,16.12,7.94,3.55,32.17,14.65,33,15,6.48,2.08,13,4.08,19.48,6.07,29.28,11.61,57.66,22.66,74.38,29.14l4.87-19.69-4-4.74s-2.66-.92-7.51-2.67L949,593.44l111.31,929.12-16,115.9s-138.45,382.8-180.92,511.66c-42.89,130.16-142.88,462.55-187.27,610.8l-6.05-.54a7.27,7.27,0,0,0-7.67,5.17l-20.85,70.92a2.67,2.67,0,0,0,2.24,3.42c24.09,2.83,181.82,21.35,302.58,34.15,18.43,2.27,34.57,4.15,47.06,5.42,15.2,1.55,36.75,3.34,61.35,5.22h0c11.18.92,24.57,1.9,39.63,2.92,86.56,6.16,187.43,12.25,192.78,12.58v-945.7a15,15,0,1,1,29.92,0v663s4.54,41.79-13.56,173.71c-3.21,23.39-14.79,99.61-16.21,109h.09l-10.18,44.63a8.21,8.21,0,0,0,7.19,10c28.55,2.83,115.18,11.36,147.16,13.84,12.68,1,42.35,2.06,60.69,2.66v.48l7.72-.23,7.72.23v-.48c18.34-.6,48-1.67,60.69-2.66,32-2.48,118.61-11,147.16-13.84a8.21,8.21,0,0,0,7.19-10l-10.18-44.63h.09c-1.42-9.36-13-85.58-16.21-109-18.1-131.92-13.56-173.71-13.56-173.71v-663a15,15,0,0,1,29.92,0v945.7c5.35-.33,106.22-6.42,192.78-12.58,15.06-1,28.45-2,39.63-2.92h0c24.6-1.88,46.15-3.67,61.35-5.22,12.49-1.27,28.63-3.15,47.06-5.42,120.76-12.8,278.49-31.32,302.58-34.15a2.67,2.67,0,0,0,2.24-3.42ZM1724.83,1659.66,1500,1665.35l-224.83-5.69-200.93-18.45,13-115.78c42,4.46,121.74,12.76,154.51,15,63.61,4.41,253.1,10.2,258.22,10.36h.12c5.12-.16,194.61-6,258.22-10.36,32.77-2.27,112.51-10.57,154.51-15l13,115.78Z"/>
  </g>
</svg>
