<svg xmlns="http://www.w3.org/2000/svg" viewBox="0 0 2994.91 3000">
  <defs>
    <style>
      .a {
        fill-rule: evenodd;
      }
    </style>
  </defs>
  <title>173icon 1</title>
  <path class="a" d="M1483.48,22.9C1727.81,19.55,1921,77.22,2088.83,150c365.78,158.56,639.56,434.64,787.45,810.37,39.8,101.12,63.61,208,86,327.15q4.5,49,9,98c13.37,82.32,9.74,193.82-4,272.12-7.52,42.78-7.11,82.83-16,123.06-22.75,102.79-49.23,200-87,289.12-169.57,399.62-476,685.26-898.52,832.38-81.66,28.44-166.65,43.92-260.15,61l-169.1,14h-48c-51.48,0-100.85-2.19-146.08-10-51.58-8.91-100.64-9-148.08-21-113.7-28.66-219.95-62.62-316.19-107-388.74-179.46-660.45-495-795.46-929.42-20.17-64.93-32.08-134-46-208.09q-5.51-67.52-11-135.06c-10.26-65-4.37-149.14,6-209.09l10-92c20.42-97.87,38.11-187.31,71-272.13C276.9,570.48,575,263,1006.21,107.94c91.83-33,186.58-51.59,293.17-71l135.07-12Zm1,223.82-96,6c-63.55,10.66-125,13.48-181.11,29-84.24,23.32-163.72,50.67-237.13,83-58.84,25.94-117.55,51.34-166.1,93.05l5,5L2366,2405.7c48.82-37.48,95.53-101.43,133.07-151.07,117.08-154.77,195.24-329.7,238.15-561.26,13.13-70.89,26.22-180.11,13-261.12-8.77-53.82-5.12-105.34-16-155.07-18.16-83-38.1-162.58-67-236.1C2515,654.33,2197,383.19,1765.64,274.73c-84.15-21.16-180.48-28-281.16-28ZM629,598.88l-41,42L486.91,762C399,884.28,337.47,1020.76,287.79,1183.14c-52.17,170.56-55.24,438.62-4,612.28,18.71,63.41,32.77,124.84,57,182.08C442.73,2218,605.36,2416.8,816.1,2548.75,945.77,2630,1090.26,2696,1266.36,2731.84c283.4,57.63,587.9-7.81,780.45-106.05,47.51-24.24,104.36-45.85,143.08-80l-2-2Q1408.52,1571.42,629,598.88Z"/>
</svg>
