<svg xmlns="http://www.w3.org/2000/svg" viewBox="0 0 2994.91 3000">
  <defs>
    <style>
      .a {
        fill-rule: evenodd;
      }
    </style>
  </defs>
  <title>117icon 1</title>
  <path class="a" d="M1922.21,103.17q76.23,226.14,152.46,452.73h414L2155.45,796.79,2301.85,1235l-1,1L1924.23,964.39,1545.6,1234Q1618.29,1015.9,1691,797.8L1357.81,556.89h415C1822.58,403.39,1872.39,253.29,1922.21,103.17ZM915.43,391.68,1000.18,638h227v2L1046.59,770.3q39.35,120.63,78.7,241.29-103.41-73.68-206.83-147.4l-207.85,147.4Q750,891.47,789.31,771.31L607.7,640.05v-2h227ZM571.06,928.28q73.2,217,146.43,434.14h396.89v2q-159.54,115.1-319.12,230.19l140.37,420-1,1L572.07,1755.17,211.54,2014.64l138.35-421c45.5,31.64-168.21-119.86-319.13-229.19v-2l396.89-4Zm1986.16,229q56.13,164.54,112.15,328.88h299.87c-80.42,59.14-160.86,117-241.32,174.92,31,92.88,98.95,306.41,98.95,306.41s-182.07-121.64-268.57-183.23q-136.29,97.93-272.61,195.86l104-319q-120.64-86.82-241.31-173.93h300.88q54-165.66,108-329.88Zm-529,644.14q74.21,218.55,148.42,436.84h399.83c-107,79.08-214,156.82-321.06,234.56q69.65,212,139.32,424l-364.49-261.49Q1848,2766.06,1665.76,2896.83q70.15-212,140.34-424-161-116.09-322.08-232.58h399.82C1884.58,2236.3,1980.75,1944.81,2028.22,1801.38ZM1066.82,2038q53.52,158.49,107,317l290.78,2L1231.4,2525.63q51,154,102,307.93l-265.54-189.81L805.32,2833.56l-1-1,101-306.92L671,2357v-2l291.79-2Q1014.82,2195.5,1066.82,2038Z"/>
</svg>
