<svg xmlns="http://www.w3.org/2000/svg" viewBox="0 0 2994.91 3000">
  <defs>
    <style>
      .a {
        fill-rule: evenodd;
      }
    </style>
  </defs>
  <title>41icon 1</title>
  <g>
    <path class="a" d="M1301.48,542.35c75.55,34,168.74,88.15,199,132.4l4.49,1.12C1586.09,588,1682.16,549,1780.43,504.2l237.24-111.08L2256,286.52l1.13-3.36-341.8,2.24,95.57-239c-14.7-1.94-79.91,47.09-95.57,57.23l-279.95,175L1505,45.28h-2.25q-65.22,116.14-130.42,232.27L997.92,45.28Q1044,163.1,1090.1,280.91c.38,1.5.76,3,1.13,4.49H748.31C932.14,374.83,1123.13,452,1301.48,542.35Z"/>
    <path class="a" d="M2239.5,624c-266.76-117.93-572.43-25-730.81,149.52-7.13,8.27-8.06,10.75-14.63,2.4C1455.39,739,1393,687,1371.51,673.45c-96-60.44-211.63-106.31-368.76-104.55-82.6,19.68-152.4,18-218.13,46.09C499.25,737,264.16,1056.28,345,1499.77c15.07,82.61,38.31,159.22,68.59,227.09,82.06,184,231.85,294.48,354.16,437.33q365.44,394.65,730.81,789.22l3.37,1.12q372.75-403.08,745.42-806.08c177.86-207.72,340.63-307.21,405.89-638.57C2737.31,1083.07,2512.21,744.55,2239.5,624Zm232.16,926.14c-54.84,278.39-191.59,362-341,536.51l-626.29,677.25-2.84-.95-614-663.08C784.75,1979.84,658.9,1887,590,1732.43c-25.43-57-45-121.4-57.62-190.8C464.41,1169,661.91,900.76,901.69,798.26c55.22-23.6,113.87-22.19,183.25-38.72,132-1.48,229.18,37.06,309.84,87.84,18,11.35,70.47,55.08,103,86.09,5.53,7,6.31,4.93,12.3-2,133.06-146.6,389.88-224.71,614-125.63C2353.16,907.11,2542.28,1191.53,2471.66,1550.13Z"/>
  </g>
</svg>
