<svg xmlns="http://www.w3.org/2000/svg" viewBox="0 0 2994.91 3000">
  <defs>
    <style>
      .a {
        fill-rule: evenodd;
      }
    </style>
  </defs>
  <title>63icon 1</title>
  <g>
    <path class="a" d="M2805.12,1347.88a309.35,309.35,0,0,0-23.32-351.79L942.09,2841.23a309.3,309.3,0,0,0,373.52-61.55,308.93,308.93,0,0,0,190.07,80.2L2912.41,1449A310.58,310.58,0,0,0,2805.12,1347.88Z"/>
    <path class="a" d="M2468,684.86c0-.41-.07-.83-.11-1.24L584.34,2572.72a308.85,308.85,0,0,0,209.16,87.61,307.77,307.77,0,0,0,62.64,112.23L2699.41,923.85a308.08,308.08,0,0,0-30.71-16.26C2644.33,801.78,2566.66,718.87,2468,684.86Z"/>
    <path class="a" d="M2045.14,421.64,166.24,2306.08a309.63,309.63,0,0,0,325.16,24.43A311,311,0,0,0,520,2482.42L2432.84,563.88c-57.61-108.35-177-176.37-306.5-162.35A309.46,309.46,0,0,0,2045.14,421.64Z"/>
    <path class="a" d="M2956.6,1559.56l-1221,1224.59a309.88,309.88,0,0,0,251.8-29.8h0s272.88-142.78,385.84-211.64c100-60.95,294.43-172.18,389.46-240.58,31.4-22.61,89-91.37,127.59-139.56a310.78,310.78,0,0,0,39.21-50l0-.07h0a309.46,309.46,0,0,0-8.34-342,307.86,307.86,0,0,0,39-186.78C2959.32,1575.56,2958.09,1567.51,2956.6,1559.56Z"/>
    <path class="a" d="M1385,238.57a309.7,309.7,0,0,0-299.62,16h0S810.1,424.6,623.82,584.49C441.4,741.06,223.62,956.72,223.62,956.72h0C152,1021,111.25,1117.55,122.4,1220.51a313,313,0,0,0,5.17,32c-72.63,64.22-114,161.5-102.82,265.22A309.72,309.72,0,0,0,40.4,1587.1Z"/>
    <path class="a" d="M1560,313.27a310.8,310.8,0,0,0-65.55,14.38,305.44,305.44,0,0,0-20.3-23.65L97,1685.26a310.75,310.75,0,0,0,125.36,88.4C103,1826.9,26.12,1952.56,41,2089.44a307.79,307.79,0,0,0,49.66,137.62l1765-1770.23C1794.71,359.52,1681.8,300.08,1560,313.27Z"/>
  </g>
</svg>
