<svg xmlns="http://www.w3.org/2000/svg" viewBox="0 0 2994.91 3000">
  <defs>
    <style>
      .a {
        fill-rule: evenodd;
      }
    </style>
  </defs>
  <title>35icon 1</title>
  <path class="a" d="M2927.81,44.72s-762,163.21-1430.36,173.85C829.15,207.93,67.1,44.72,67.1,44.72c-82.6,550,71.69,1232.44,213.33,1683.48,81.41,259.19,165.05,514.56,309.5,712.29,84.21,115.26,203.3,190.67,329.15,265.26,74.52,44.17,475.68,233.57,564.42,254.71l14,3.42,14-3.42c88.74-21.14,489.91-210.54,564.43-254.71,125.85-74.59,244.94-150,329.15-265.26,144.44-197.73,228.09-453.1,309.5-712.29C2856.12,1277.16,3010.41,594.74,2927.81,44.72Zm-2226.54,850L273.25,600l428,107.65,428-66.64Zm796.18,1491.66-553.6,219.57,554.07-376.31,553.13,375.09ZM2293.64,894.71,1865.62,641l428,66.64,428-107.65Z"/>
</svg>
