<svg xmlns="http://www.w3.org/2000/svg" viewBox="0 0 2994.91 3000">
  <defs>
    <style>
      .a {
        fill-rule: evenodd;
      }
    </style>
  </defs>
  <title>51icon 1</title>
  <g>
    <path class="a" d="M1386.51,67.46l92.56,50.08a5.69,5.69,0,0,0,8-2.83l12.48-30.11a6.65,6.65,0,0,0,.49-2.06,6.81,6.81,0,0,0,.49,2L1513,114.66a5.69,5.69,0,0,0,8,2.83l92.56-50.08a4.9,4.9,0,0,0,2-6.49l-16.32-32.63a5.12,5.12,0,0,0-7.09-2.18L1503.46,76a3.8,3.8,0,1,1-6.92,0l-88.67-49.85a5.11,5.11,0,0,0-7.09,2.17L1384.46,61A4.89,4.89,0,0,0,1386.51,67.46Z"/>
    <path class="a" d="M2273.57,2892.74s-.45-442.82-11.35-589.57c-10.43-140.34-49-410.6-86.27-546.3-36.11-131.53-158.86-390.91-227-509.75-105.31-183.7-216.4-266.9-216.4-266.9l-8.17-59.15,56.84-474.43,51.08,173.53s152.27,550.94,164.74,559.63c5.29,3.68,25-6.26,25-6.26s21.13,102.42,28.85,106.28c6.42,3.21,30.87-10.93,41.36-13.94,12.47-3.58,43.92-3.69,50.49-12,3.73-4.72-22.6-101.71-22.6-101.71s23.2-8.62,26.21-15.62c4-9.3-46.95-164.59-64.68-218.81-25-76.44-60.59-168.8-95.22-307.29-14.61-58.46-63-285.73-95.21-336.63-21.64-34.14-83.68-47.13-83.68-47.13s-61.16-9.25-81.12-14.3c-24.1-6.09-71.42-23.7-92-37.63-12.77-8.65-32.9-34-38-48.57-2.92-8.36-2.24-28.92-1.41-42.21l-74.91,40.52a7.7,7.7,0,0,1-10.77-3.82L1500,98.08V98l0,0,0-.1v.2l-9.35,22.57a7.69,7.69,0,0,1-10.77,3.82L1404.94,84c.83,13.29,1.51,33.85-1.41,42.21-5.09,14.55-25.22,39.93-38,48.57-20.58,13.93-67.9,31.55-92,37.63-20,5.05-81.12,14.31-81.12,14.31s-62,13-83.68,47.12c-32.26,50.9-80.6,278.17-95.21,336.63C978.9,749,943.31,841.32,918.31,917.76c-17.73,54.22-68.68,209.51-64.68,218.81,3,7,26.21,15.63,26.21,15.63s-26.33,97-22.6,101.71c6.57,8.33,38,8.44,50.49,12,10.49,3,34.94,17.15,41.36,13.94,7.72-3.86,28.85-106.27,28.85-106.27s19.72,9.93,25,6.25c12.47-8.69,164.74-559.62,164.74-559.62l51.08-173.54,56.84,474.44-8.17,59.15s-111.09,83.19-216.4,266.89c-68.13,118.84-190.88,378.22-227,509.75-37.25,135.71-75.84,406-86.27,546.3-10.9,146.75-11.35,589.57-11.35,589.57s298.61,46.6,395.3,57c85.73,9.21,326.56,21.89,374,24.35l.31.36,3.43-.17,4.45.23-.4-.44c45.72-2.36,288.56-15.12,374.73-24.38C1975,2939.34,2273.57,2892.74,2273.57,2892.74Zm-949.42-1741.2s-32.33,93.58-40.84,124c-33.48,119.63-99.09,355.12-129.36,475.6-18.83,74.92-51.67,226-65.4,302-15.17,83.93-37.14,253.14-49.06,337.59-11.62,82.35-45.14,329.57-45.14,329.57a11.7,11.7,0,1,1-23.4,0c0-.32,0-.64,0-1h0a.24.24,0,0,0,0-.07c0-.29.07-.58.12-.86,2.21-16.56,33.69-251.81,45.29-332,12.37-85.5,36.57-256.64,52.26-341.59,13.95-75.57,46.39-225.87,65.08-300.4,30.1-120.06,95.34-350.91,127.92-470.32,7.85-28.79,37-117.26,39.92-128.58a10.41,10.41,0,0,1,.32-1.28v0h0a11.7,11.7,0,1,1,22.22,7.33ZM1511.7,2881.88a11.7,11.7,0,0,1-11.7,11.7h0a11.7,11.7,0,0,1-11.65-11.7V1147.1h0a11.69,11.69,0,0,1,11.66-11h0a11.67,11.67,0,0,1,11.59,11h0ZM1499,994l-113.71-2.88-102.54-9.42,6.62-59.08c21.43,2.27,62.13,6.5,78.85,7.66,32.9,2.29,131.84,5.29,131.84,5.29v0c2.59-.08,99.32-3,131.78-5.29,16.72-1.16,57.42-5.39,78.85-7.67l6.62,59.09-102.54,9.42Zm217.72,281.51c-8.51-30.42-40.84-124-40.84-124h0a11.7,11.7,0,1,1,22.22-7.33h0v0a11.4,11.4,0,0,1,.32,1.28c2.91,11.33,32.07,99.8,39.92,128.59,32.58,119.41,97.82,350.26,127.92,470.32,18.69,74.53,51.13,224.83,65.08,300.4,15.69,84.95,39.89,256.09,52.26,341.59,11.6,80.2,43.08,315.44,45.29,332,0,.29.09.57.12.87a.24.24,0,0,0,0,.07h0c0,.32,0,.64,0,1a11.7,11.7,0,0,1-23.4,0s-33.52-247.22-45.14-329.57c-11.92-84.45-33.89-253.67-49.06-337.59-13.73-76-46.57-227.08-65.4-302C1815.78,1630.62,1750.17,1395.13,1716.69,1275.49Z"/>
  </g>
</svg>
