<svg xmlns="http://www.w3.org/2000/svg" viewBox="0 0 2994.91 3000">
  <title>27icon 1</title>
  <path d="M2304.41,816c205.7,47,381.09,166.32,568.65,257.94,5.9,3,9,7.19,11.24,13.08,16.39,42.61,33,85.13,49.56,127.68,8.63,34.59,41.8,79.81,35.73,113.53q-45.15,115.88-89.8,231.92c-7.52,13.79-7.29,34.32-22.84,41.73-137.59,62.55-273.82,128.31-411.7,190,62.76-78.61,132.89-152.56,198.1-229.71-10.87-92.23-41.38-187.91-60.8-280.69L2297.72,1213c-2.64,48.14-1.87,96.31-3,144.52-19.23,79.4-65.93,152.09-94.75,229-8.72,34.25,6.75,71.5,7.9,106.62,14.53,111.61,28.46,223.31,43.14,334.9,1.1,7.25-.5,12.8-5.37,18.61-35,41.78-69.62,83.87-104.35,125.87-94.05,104.48-172,226.94-275.68,321.17-86.25,52.48-172.13,105.57-258.14,158.44-36.66,6.25-76.15-.57-113.7.91-34.36-3.55-72.14,5.18-104.58-7q-142.65-82.22-285.46-164.19c-33-20.91-70.26-36.2-100.58-60.69C888.48,2297.71,773.25,2175,658.83,2051.25c16.85-150.07,34.54-300,51.46-450.08-16.1-95.59-63.33-187.3-72.88-283.69,3.89-36.4,12.05-74.12,12.61-110-82.36,21.45-164.1,48-246.23,71.17-10.78,3.17-10.83,3.17-15.84,12.75-37.93,73.06-76.85,145.75-114.18,219.1,81.27,82.69,171.76,158.67,255.51,239.88C399.33,1697.82,271.19,1629,141.84,1570.94c-24.12-9.48-43.7-95.78-59.58-123-16.81-41.15-33.45-82.38-50.54-123.41-2.88-6.9-2.72-12.52.43-19.28q51.86-111,103.14-222.33c90.9-70.69,200.22-128.31,301.24-185.6,87.2-19.18,173.6-38.41,260.82-58.08,8.31-88.59,44.88-170.57,69.45-255.5,62.58-55.28,148-89.45,218.39-137.26,78.51-52.58,92.91-50.92,184.56-59.8q164.76-18.86,329.51-38c94.57-15.09,188.22,23.11,282,34,80.94,17.5,166.07,23.09,244.83,47.22q60,37.88,120.12,75.42c27.28,21.66,67.79,32.45,86.79,61.67C2254.22,650.23,2300.17,729.93,2304.41,816ZM1282.32,2065.83c-53.19-50.44-99.17-113.32-153.63-160-31.89,130.06-65.71,264.52-91.52,394.91,39.48-64.52,74.85-129.59,114.79-193.92,45.06,51.9,82.15,113.33,128.85,162.08,29.82-54.85,53.46-113.2,83.9-167.6,40.63,60.94,76.07,123.29,118.29,183,40.81-59.36,78.18-120.34,119.66-179,44.09,56.53,77.82,127.21,123.09,180.75,30.6-59.15,56.79-121.38,88.48-179.78,44,57.23,80,126,125.54,180.43-29.89-123.07-65.8-249.83-102.58-371.65-31.47,46.06-54.72,100.21-88.19,143.35-38.84-48.94-74.46-100.52-114.55-148.36-38.39,49.82-74.49,97.4-113.17,147-43-51.1-81.24-103.63-124.65-154.25C1356.57,1956.39,1322.46,2012.37,1282.32,2065.83ZM861.57,1076.49c-21.12,53.13-41.94,105.5-62.82,158,161.13,68.29,324.6,138.69,487,201.26C1278,1427.11,872.05,1083.32,861.57,1076.49Zm1202.08,13.66c-100.57,116.07-211.33,230.47-305.86,348,124-62.85,255-119.55,375.19-186.43Zm-663.32,391.42c-15.53,70.57-36.11,139-48.28,207.6,29.72-8.37,57.73-23.63,86.88-34.47,22-5.52,44.49-26.21,67-21.56,41.41,14.83,83.29,38.58,124.57,48.8-15.83-67.3-30.38-135.18-49.13-201.7-29.93,35.28-52.52,78.76-84.77,110.32C1463.87,1554.32,1434.61,1516.68,1400.33,1481.57Z"/>
</svg>
