<svg xmlns="http://www.w3.org/2000/svg" viewBox="0 0 2994.91 3000">
  <defs>
    <style>
      .a {
        fill-rule: evenodd;
      }
    </style>
  </defs>
  <title>129icon 1</title>
  <g>
    <path class="a" d="M2564.12,536.69c-193.14,844.76-529.67,1097.9-1058.19,1203.5C953.21,1631.36,641.72,1352.9,447.75,537.13ZM1296.38,779.29l-142,146.36,208.36,208-210.22,210.5,142.13,138,211.83-208.72,208.7,208.72L1857.36,1344,1647,1133.72l210.9-210.84L1715.12,785.26,1506.78,989.53Z"/>
    <path d="M1886.81,2090.84V1672.65c-114.25,57.24-241.15,95.73-381.62,123.79-145.18-28.58-273.69-68.9-387.82-127.55V2094.8s-844.1,285.74-1081.8,364.51l2928.86,4Z"/>
  </g>
</svg>
