<svg xmlns="http://www.w3.org/2000/svg" viewBox="0 0 2994.91 3000">
  <defs>
    <style>
      .a {
        fill-rule: evenodd;
      }
    </style>
  </defs>
  <title>131icon 1</title>
  <path class="a" d="M1464.09,15.29c390.06-4.29,681.92,259.42,790,535.05,38.07,97.13,47.09,205.89,61.11,329.38,9.17,81,18.12,198.24,1.49,280.19,139.05-1.21,229.59,10.93,290.65,84.95A249.88,249.88,0,0,1,2661,1362.61q.75,479.87,1.49,959.82c0,308.72,59.9,624.16-223.58,658.76H902.16c-251.55,0-467.33,39.15-547-141.59C320,2760,335.75,2611.07,335.75,2501.27V1660.69c0-143.68-16.69-315.25,44.72-397.93,61.93-83.4,153.47-102.45,302.58-101.36-11.45-196.46-17.61-412.75,31.3-576.78,79.21-265.68,309.7-460.34,575.35-539.53C1344.34,28.81,1401.89,29.51,1464.09,15.29ZM1073.71,1161.84h854.07c6.7-364.37-11.31-544.76-234-693C1638.66,432.11,1560,392,1461.25,406.21c-96,13.84-166,55.11-228.06,102.83C1036.76,660.16,1066.6,845.87,1073.71,1161.84Zm417.34,474c-65.33,15.9-105.32,26.92-147.56,62.6-126.25,106.63-72,322.61,56.64,384.52q-46.94,230.25-93.9,460.54h390.52q-46.21-229.5-92.41-459.05C1826.89,2002.78,1762,1631.8,1491.05,1635.8Z"/>
</svg>
