<svg xmlns="http://www.w3.org/2000/svg" viewBox="0 0 2994.91 3000">
  <defs>
    <style>
      .a {
        fill-rule: evenodd;
      }
    </style>
  </defs>
  <title>137icon 1</title>
  <path class="a" d="M2908.55,2401.93H46c-11-149.82-28.78-333.35,0-481.51C148.61,1392,440.45,1026.89,879.25,835.23c213.5-93.25,548.64-184.23,862-111.39C1872.2,754.27,1996.52,793,2104,846q-71.82-120.37-143.66-240.76c1.19-2.39,510,291.06,510,291.06l499.24-298.25c-14.47,69.19-298.11,503.06-298.11,503.06s297.55,469.4,294.51,510.26l-208.32-125.77C2896.61,1723.57,2924,2042.19,2908.55,2401.93ZM2114.79,853.6c62.57,114.3,143.66,251.54,143.66,251.54L1963.93,1611.8l499.25-298.24s119.26,65.8,287.33,158.1C2640.17,1250.47,2357.63,933.67,2114.79,853.6Z"/>
</svg>
