<svg xmlns="http://www.w3.org/2000/svg" viewBox="0 0 2994.91 3000">
  <defs>
    <style>
      .a {
        fill-rule: evenodd;
      }
    </style>
  </defs>
  <title>113icon 1</title>
  <path class="a" d="M2925,16.5c12.58,14.32,20.61,78.84,27.49,110,46.34,209.54-2.8,451.22-51.93,608.07-42.79,136.61-111.07,268.24-180.24,407.92l-105.4,197.09L2512.6,1506.11l-148.16,200.14q-29,35.14-58.05,70.28c-4.43,9.1-27.49,77.92-27.49,77.92-4.77,7.84-36.53,80.35-35.14,82.5-41.44,66.39-60.34,134.07-103.86,203.2-18.22,28.94-55,47.26-79.44,62.64-5.65,3.57-29.15,23.1-33.6,19.86-35.14,26-70.87,55.1-105.39,88.62-38.82,37.67-131,117.47-148.17,163.47-22.85,61,39.56,155.12-21.38,189.45-13.66,7.7-32.46,1.6-41.25-3.05-60-31.76-30.37-66.19-38.18-120.7l-6.11-53.48c-42.72-28.11-95.62-86.61-126.78-126.81q-126.76-126-253.57-252.08c-3.73,20.46-34.72,44-48.87,64.17-46.05,65.45-109.3,125.66-161.92,194-37.35,48.55-85.92,95.57-134.41,132.92-31.35,24.16-50.27,53.17-84,74.87q-51.17,45.06-102.35,90.14L685.74,2707c-20.18,15-32.66,40.58-55,55-135.34,87.37-258.2,166.79-406.31,221.53l-47.35-42.78-110-108.47c-12.2-12.2-31.32-24.41-38.19-41.26q100.82-97,201.63-194c129.65-104,235.75-243.39,366.6-348.34L701,2149.32q101.58-99.3,203.16-198.61c50.33-27.54,107.89-110.07,157.33-149.73q131.34-124.5,262.73-249c36.66-29.41,63.83-69.65,102.33-97.79q51.18-51.17,102.35-102.36c38.81-21.22,68.14-72.51,105.39-100.83l313.14-296.4q25.18-26,50.41-51.94c110.66-88.73,199.81-205.49,313.12-296.4,36.62-29.36,69.32-72.11,103.88-99.3L2518.71,403c42.89-29.08,81.12-73.55,117.62-110q17.55-18.33,35.13-36.66c35.95-19.66,72.3-83.38,106.93-102.36,37.36-20.49,67-69.47,102.33-97.78ZM2737.14,311.37,1174.53,1852.92q12.23,12.22,24.44,24.44c1.79,9.42,108,105.08,126.78,123.76l368.12,357.51L1700,2354c4.18-21.09,42.78-43.55,56.52-62.64,35.46-49.26,84.94-85.64,120.67-136,80.09-112.81,204.66-213.63,281.06-333.06l62.63-74.86c3.91-4.38,22.44-24,19.85-27.51,23.07-28.68,42.08-55.09,65.68-82.5,3.93-4.56,22.62-25.23,19.86-29,4.51-5.78,31.76-32.29,27.5-38.2,66-85.36,91.71-162.14,117.61-265.84q5.34-24.43,10.7-48.88,9.17-44.32,18.32-88.62,3-29,6.11-58,11.46-51.95,22.91-103.9l24.45-62.64a383.21,383.21,0,0,1,106.92-106.94c44.68-29.51,113.64-55.2,145.11-103.9,63-97.48,8.11-247.14-35.13-343.75C2757.6,358.39,2753.54,335.13,2737.14,311.37ZM2153.65,1367.08c49.62,3.61,89.61-5.42,103.86,55q-1.52,19.88-3.05,39.73c-26.43,61.33-75.27,127-161.91,85.56-22.91-11-39.6-20.06-53.47-39.73,5.57-35.53,94.47-65.81,76.38-106.94q2.28-12.23,4.58-24.45a52.48,52.48,0,0,1,7.63-7.64Z"/>
</svg>
