<svg xmlns="http://www.w3.org/2000/svg" viewBox="0 0 2994.91 3000">
  <defs>
    <style>
      .a {
        fill-rule: evenodd;
      }
    </style>
  </defs>
  <title>123icon 1</title>
  <g>
    <path class="a" d="M72.42,2302H2927.57q.61,122.37,1.21,244.76l-1.21,1.2-2856.35-1.2q.6-122.36,1.21-244.76Z"/>
    <g>
      <path class="a" d="M2729.55,828.92q19.39-99.36,38.78-198.72L1885.55,452.05q-19.4,98.76-38.78,197.51Z"/>
      <path class="a" d="M1781.85,1522.82q-37,184.89-73.93,369.72l660,132.11q120-591.36,240-1182.63l-660-133.31Q1910.3,892.37,1872.74,1076l-1.21,1.2L104.77,720.9Q59.32,942.53,13.88,1164.08L1777,1521.61Z"/>
      <path class="a" d="M1594.66,1904.45q-20,99.36-40,198.71l882.78,178.16q19.4-99.37,38.78-198.72Z"/>
    </g>
  </g>
</svg>
