<svg xmlns="http://www.w3.org/2000/svg" viewBox="0 0 2994.91 3000">
  <defs>
    <style>
      .a {
        fill-rule: evenodd;
      }
    </style>
  </defs>
  <title>161Icon_neon 1</title>
  <g>
    <path class="a" d="M2805.21,995.92c-99.44-131.46-234.41-225.58-387.36-303.8-247.94-126.82-556.69-203.59-932.67-200.19L1304.07,502c-117.08,18.24-223.69,27.76-327,56.33C608,660.42,298.56,815.71,123.89,1111.61,47.11,1241.68,2.63,1444.38,65.53,1624.66c25.7,73.65,62.64,141.93,105.65,199.18,185.79,247.36,477.33,383.5,825,469.79,89.55,22.22,181.62,26.93,279.7,42.26q74.47,4,148.91,8c33.42,5.05,103.88,2.52,134.82-2l54.33-2,171-16.09,120.73-21.13,161,71.43c101.56,42.21,203.51,76.58,322,104.63l128.79,25.14c18.51,4,42.66,9.19,52.32-5,12-17.65-25.17-70.09-34.22-85.5-29.65-50.53-64.31-102.47-87.53-157.94q-14.6-41.26-29.18-82.5-5.52-19.11-11.07-38.23l59.37-32.18,105.64-66.4c148.21-105.22,274.58-235.65,346.1-417.48,14.16-36,21.8-76.18,30.19-117.7C2992,1288.57,2890.65,1108.84,2805.21,995.92ZM2505.39,2454.58c-78.57-17.77-157-29-230.41-51.3-65.21-19.79-126.23-46.45-186.13-71.42l-104.64-44.27-2-1c93.68-14,197.67-54,277.7-86.51,34.87-14.17,75.78-24,104.64-45.26l36.21,106.63C2429.91,2329.59,2469.47,2392,2505.39,2454.58Zm360.2-979.82c-6.19,31.77-10.12,64-20.13,92.55-117.2,334.25-455.52,512-804.9,616.67-78.8,23.61-161.44,33.54-247.51,50.3-47.82,9.31-101.91,8.78-152.93,17.1l-63.38,3c-35.43,5.74-113.36,7.94-150.92,2l-86.53-4-60.37-3c-51.54-8.53-103-8.45-151.92-19.1-63.65-13.87-128.66-22.17-189.16-39.24-228.06-64.32-396.06-148.31-560.41-274.63-65.83-50.59-127.07-122.11-171-194.16A640.71,640.71,0,0,1,140,1573.35C95.46,1424.6,136.72,1273.6,191.3,1169,323.2,916,609.2,758.54,904.64,668c113.77-34.87,231.16-53,361.2-75.45l160-12.07,57.34-2h0c365.23.11,694.29,71.45,925.64,206.23,116.27,67.73,224.62,135.24,305.86,237.41,57.24,72,107.8,144.81,137.85,245.45,7.23,24.22,8,48.6,13.08,75.46C2872.82,1381.46,2873.18,1435.72,2865.59,1474.76Z"/>
    <path class="a" d="M2158.28,701.17c-76.1-10.71-82.27,89.9-71.44,162q.49,45.27,1,90.54,10.07,412.49,20.12,824.9l94.57,1q9.57-407.47,19.12-814.85.51-43.26,1-86.51l2-69.41C2224.68,744,2216.39,709.35,2158.28,701.17Z"/>
    <path class="a" d="M1084.83,1307.77c-81.94-60.43-116.88-85.36-253.54-83.49q-16.62,1.5-33.21,3l-66.4,13.08c-84.46,25.76-146.74,75.31-192.17,139.83-26,36.87-48.69,80.68-61.38,129.77-41.19,159.31,29.6,306,122.75,364.16,21,13.09,45.09,19,71.43,27.16,34.49,10.65,83.58,27.31,132.81,19.12,61.51-10.24,102.47-14.58,154.8-31.36,39.63-12.7,87.25-31.93,87.25-31.93l-21.7-51.39S962,1835.6,919.76,1846.61c-23,6-64.19,14.9-89.48,19.48-46.27,8.39-100-.73-134.83-11.06-24.56-7.29-46.23-12.12-65.39-24.15-89.42-56.09-123.56-191-88.54-331,10.56-42.22,26.75-75.69,49.3-105.63,34.37-45.64,87.4-84.68,147.9-103.61C912.3,1236.35,1078,1305,1107,1457.67,1125,1552.88,1093.7,1640,1054.64,1689c-11.12,14-46.28,38.08-73.45,27.16-28.29-11.38-22.48-51.56-15.08-82.49,18.44-82.83,55.33-248.48,55.33-248.48l-60.36-3-14.71,51c-30.94-26.6-36.2-40.18-84.9-55.07-22.65-6.92-53.92-5.28-76.47,0-87.1,20.41-126.73,75.64-151.92,157.94-8.41,27.46-19.64,67-13.08,103.62,5.64,31.54,15.7,62.17,32.19,83.49,28.72,37.11,108,56.8,165,32.2,41.21-17.81,53.66-29,83.51-57.31l1,8c2.91,14,10.33,34.55,20.13,42.25,25.77,20.27,85.42,21.62,117.72,7,68.79-31,97.71-89.5,117.71-169,10.64-42.3,10.66-59,.82-137C1155.14,1426,1111.76,1327.64,1084.83,1307.77Zm-169,260.14c-8.72,23.15-17.92,48.83-26.64,72-22.57,38.19-76.06,87.49-141.5,71.29-61.81-15.3-73.53-78.16-55.34-150.89,13-52,36.08-79.57,66.1-116.29,20.28-24.81,112.85-32.19,128.08-5.44C920.29,1461.54,932.11,1520,915.83,1567.91Z"/>
    <path class="a" d="M1948.15,1474.05c5.61-12.4,1.19-83.13,1-104.82l-143.13-1v-143H1701.25q-.49,71.52-1,143H1501.33v-143H1396.49v143H1253.66q-.51,52.3-1,104.59l143.84,1q-.51,99.08-1,198.13H1253.66q-.51,52.29-1,104.59l143.84,1V1920.8l103.59,1q.51-72,1-144h199.13v143l104.58,1q.51-72,1-144h143.27V1673l-143-1V1474.05ZM1700.22,1672H1501.33V1474.05h198.89Z"/>
    <path class="a" d="M2099.92,1837.22c-2.75,2.34-4.22,2.49-6,6q-.51,56.32-1,112.66l4,5,115.7,1,3-4c3.31-4.57,3.31-111.15,0-115.69C2210.27,1833.87,2119.52,1836.9,2099.92,1837.22Z"/>
  </g>
</svg>
