<svg xmlns="http://www.w3.org/2000/svg" viewBox="0 0 2994.91 3000">
  <defs>
    <style>
      .a {
        fill-rule: evenodd;
      }
    </style>
  </defs>
  <title>103icon 1</title>
  <path class="a" d="M2755.77,70.64c214.79-24.43,259,266.15,200.18,477.44-33.89,116.84-87.14,221.75-133.82,326.51-120.28,271.11-266.89,513.8-444.25,742.94h-1.07c-30.12-68.61-73.08-131.21-129.52-173.42,75.24-76.46,149.87-169.56,191.61-268.7l-7.49-3.21c-64.23,81.56-136.21,176-209.81,250.5-51.25-36.65-133-58.42-202.32-58.89,270-274.49,530.92-641.37,619.8-1025.54l-4.28-3.22-4.28,1.07c-127,349.23-319.31,677.7-570.57,947.41-37.12,47.28-84.24,96.39-148.79,92-69,13.33-126.28,43.28-189.47,68.53,280.47-253.81,485.28-573,671.18-902.45C2506.88,377.81,2540.36,95.13,2755.77,70.64ZM1314,809.48c250.86-16.25,506.55,316.65,466.18,531.41-64.94,75.85-156.21,133-225.61,206.36l-3.21-1.07v-1.07c132.53-220.83-30.44-555.32-307.91-582.72-199.36-23.84-404,62.79-551.72,174.27l-1.07-1.07C838.21,943.61,1067.57,828,1314,809.48ZM1481,820c220.93,21.07,371.2,208.79,393.47,421.28q-35.3,38.48-70.57,77h-1.07C1809.17,1106.41,1648.08,917.34,1481,820Zm529,563.76c291.14-3.66,454,308.3,367.8,608.39-102.8,333.46-382.63,532-691.76,636.18,94-130.11,195.07-249.54,258.75-401,100.8-241.07,155.59-718.29-176.43-780.54v-1.06C1839.21,1408.92,1927,1387.87,2010,1383.75ZM1762,1466c233.72,4.56,276.89,373.5,225.6,549.58-237.42,205.16-503.84,356.62-807.25,455.49l-221.31,73.77c-268-61.45-441.14-94.53-650.07,123l-41.7-129.38,1.07-1.07c200.77-6.47,302.2-153.78,319.69-343.22C845.16,2050.4,1111.23,1910,1352.52,1744l213.84-163.59C1626.12,1527,1676.69,1474,1762,1466Zm627.61,183.91c177.47,67.35,318,253.22,282.27,522.84-16.8,148-17.77,312.49-158.24,384.93-15.61,8-59.9,32-78,11.76,23.11-216.84,125.94-492.21-20.31-691.79C2422.48,1803.24,2400.12,1718.06,2389.63,1649.9ZM228.75,2530.43l59.88,172.15-211.7,69.5c-20.42-56.43-37.39-115-56.66-172.14C88.81,2575.24,159.49,2554,228.75,2530.43Z"/>
</svg>
