<svg xmlns="http://www.w3.org/2000/svg" viewBox="0 0 2994.91 3000">
  <defs>
    <style>
      .a {
        fill-rule: evenodd;
      }
    </style>
  </defs>
  <title>95icon 1</title>
  <path class="a" d="M133.32,754.79C180.22,637.23,269.84,534,383.06,427.32c406.05-382.72,953.63-327,1274.08-156,631.94,337.2,738.82,1189.86,375,1628.36l767.49,657.47-27.54-363.29,161-12.69,45.51,628.72-626.17,50.21q-7.07-80-14.14-160.1l362.48-29.15-764.21-655.36C1359.5,2628.91,331.89,2403.55,72.79,1601-13,1335.18,23,1122.65,76.31,894.35m1534.55,1171c72.22-54.62,143.7-99.62,197.41-156.19,198.16-208.71,272-449.58,265.36-710.38-3.51-138.61-48.76-326.33-166-479.78C1587.19,299.6,1166.51,200.49,684.43,418.34c-171.38,77.43-280.8,219-350.6,328.66C-168.23,1535.69,784.32,2690.44,1610.86,2065.36Z"/>
</svg>
