<svg xmlns="http://www.w3.org/2000/svg" viewBox="0 0 2994.91 3000">
  <defs>
    <style>
      .a {
        fill-rule: evenodd;
      }
    </style>
  </defs>
  <title>153icon 1</title>
  <path class="a" d="M1463,51.83c696.45-9.75,1190.92,420.33,1387.73,907,82.26,203.42,135.2,503.38,84.92,781.42-18.88,104.38-47.46,201-81.82,291.37-164.62,432.78-551.35,764-1036.65,880.26-84.18,20.17-176.11,23-271.32,34-49.4,5.71-105.47.32-149.13-5.14l-152.24-16.48c-113.1-22.34-219.8-54.2-314.82-94.71-389.46-166-683.48-470.77-815-892.63-56.3-180.52-93.31-436-52.82-664,17.53-98.69,40.13-190.2,72.5-275.92C294.84,571.86,606,288.79,1034.27,129.05c86-32.06,178.67-49.5,281.69-64.86Zm383.18,289.31-57,10.3C1715.6,374.5,1658.66,429,1633.89,500.72c-55.35,160.26,78.19,338.37,243.37,316.07,310.63-41.94,288.85-478.37-31.07-475.65Zm-989,177.08-57,10.29c-73.29,22.73-127.77,75.75-154.3,145.17C585,833,721.51,1016.39,888.25,993.87,1198.33,952,1176.38,515.52,857.18,518.22ZM2512.09,1067,2452,1079.32c-73.16,27.66-127.51,79.8-151.19,156.5-48.29,156.35,85.57,327.27,241.29,306.79C2859.34,1500.92,2839,1064.24,2512.09,1067ZM1393.63,1269.79l-52.82,9.27c-73.94,22.7-129.44,74.53-156.38,144.13-62.22,160.8,74.36,344.78,241.3,322.25C1735.92,1703.56,1715.06,1267.08,1393.63,1269.79Zm-992.12,3.09q-24.84,4.11-49.71,8.24c-75.47,22.42-132.1,73.81-159.48,144.13-62.15,159.62,72,346,240.26,323.28,311.09-42,289.75-478.36-31.07-475.65Zm1718.08,676.41-55.92,9.26c-73.7,22.56-128.83,73.56-156.38,142.09-64.88,161.36,72.86,347.18,242.34,324.31C2457.75,2383.35,2434.52,1946.63,2119.59,1949.29ZM1002.17,2154.17l-52.82,9.27C875.64,2186,819.87,2237.39,793,2306.54c-62.07,159.56,72,346,240.26,323.28C1344.49,2587.83,1323,2151.47,1002.17,2154.17Z"/>
</svg>
