<svg xmlns="http://www.w3.org/2000/svg" viewBox="0 0 2994.91 3000">
  <defs>
    <style>
      .a {
        fill-rule: evenodd;
      }
    </style>
  </defs>
  <title>165Icon_neon 1</title>
  <g>
    <path class="a" d="M2805.21,995.92c-99.44-131.46-234.41-225.58-387.36-303.8-247.94-126.82-556.69-203.59-932.67-200.19L1304.07,502c-117.08,18.24-223.69,27.76-327,56.33C608,660.42,298.56,815.71,123.89,1111.61,47.11,1241.68,2.63,1444.38,65.53,1624.66c25.7,73.65,62.64,141.93,105.65,199.18,185.79,247.36,477.33,383.5,825,469.79,89.55,22.22,181.62,26.93,279.7,42.26q74.47,4,148.91,8c33.42,5.05,103.88,2.52,134.82-2l54.33-2,171-16.09,120.73-21.13,161,71.43c101.56,42.21,203.51,76.58,322,104.63l128.79,25.14c18.51,4,42.66,9.19,52.32-5,12-17.65-25.17-70.09-34.22-85.5-29.65-50.53-64.31-102.47-87.53-157.94q-14.6-41.26-29.18-82.5-5.52-19.11-11.07-38.23l59.37-32.18,105.64-66.4c148.21-105.22,274.58-235.65,346.1-417.48,14.16-36,21.8-76.18,30.19-117.7C2992,1288.57,2890.65,1108.84,2805.21,995.92ZM2505.39,2454.58c-78.57-17.77-157-29-230.41-51.3-65.21-19.79-126.23-46.45-186.13-71.42l-104.64-44.27-2-1c93.68-14,197.67-54,277.7-86.51,34.87-14.17,75.78-24,104.64-45.26l36.21,106.63C2429.91,2329.59,2469.47,2392,2505.39,2454.58Zm360.2-979.82c-6.19,31.77-10.12,64-20.13,92.55-117.2,334.25-455.52,512-804.9,616.67-78.8,23.61-161.44,33.54-247.51,50.3-47.82,9.31-101.91,8.78-152.93,17.1l-63.38,3c-35.43,5.74-113.36,7.94-150.92,2l-86.53-4-60.37-3c-51.54-8.53-103-8.45-151.92-19.1-63.65-13.87-128.66-22.17-189.16-39.24-228.06-64.32-396.06-148.31-560.41-274.63-65.83-50.59-127.07-122.11-171-194.16A640.71,640.71,0,0,1,140,1573.35C95.46,1424.6,136.72,1273.6,191.3,1169,323.2,916,609.2,758.54,904.64,668c113.77-34.87,231.16-53,361.2-75.45l160-12.07,57.34-2h0c365.23.11,694.29,71.45,925.64,206.23,116.27,67.73,224.62,135.24,305.86,237.41,57.24,72,107.8,144.81,137.85,245.45,7.23,24.22,8,48.6,13.08,75.46C2872.82,1381.46,2873.18,1435.72,2865.59,1474.76Z"/>
    <path class="a" d="M1455.89,1682.16q-.51-363.69-1-727.31c-3.41-3-96.65-2.8-106.76,0v841l286.05,1q.49-56.83,1-113.67l-179.29-1Z"/>
    <path class="a" d="M1229.21,1071.82c7-15.54,2.22-90,2-113.62-7.16-3.2-122.58-1.82-286.61-1q-.5,420.33-1,840.56l285.59,2q.51-57.3,1-114.62h-178V1404.94H1229.3q.51-56.85,1-113.68l-178.08-1V1071.82Z"/>
    <path class="a" d="M1998.12,1683.19H1865.31q-.51-362.68-1-725.31c-7.43-6.54-89.91-1.23-106.64-1v841l285.73,1c7.06-15.55,2.23-90,2-113.68C2034.71,1680.39,2012.42,1683.19,1998.12,1683.19Z"/>
    <path class="a" d="M729.91,958.44q-.49,166.44-1,332.84H555.49V961.1H447.72v840.16c3.63,5.09,91.3,3.23,106.64,3q.51-199.21,1-398.36H728.91v394.16l107.77,1V959.45C830.89,954.37,746.69,958.22,729.91,958.44Z"/>
    <path class="a" d="M2312.85,948.83h0c-22.17,9.68-40.21,11.24-57.35,24.15-137.85,103.79-169.42,424.05-104.64,631.75,22.11,70.88,52.11,137.59,107.66,175,17.56,11.84,43.45,29.29,77.47,23.13,68.09-12.3,98-63.67,127.78-114.68,93.55-160.07,79.5-445.37,6-612.63C2443.2,1015,2400.3,948.28,2312.85,948.83Zm97.59,650.87c-15.38,39.4-34.17,87.88-79.48,96.58-60.85,11.69-92.48-88.54-105.65-131.79-40.81-134.07-27.93-402.6,59.37-471.8,9.06-7.19,19-9.3,30.18-15.09,59.06-.65,77.95,51.43,94.58,93.55C2454.21,1284.59,2455.14,1485.27,2410.44,1599.7Z"/>
  </g>
</svg>
