<svg xmlns="http://www.w3.org/2000/svg" viewBox="0 0 2994.91 3000">
  <title>29icon 1</title>
  <g>
    <path d="M2563.79,1608.55c-2.06,178-2.94,359.65-68.86,527.79C2352,2562.25,1982.33,2931,1519.6,2965c-152.24,20.28-540.48-183.81-665.88-281.73-277.26-216-358.62-578.91-395.16-911.24-35.34-222.9-25.75-447.35-.28-670.73,17.85-279.89,150.66-536,344.3-735.34,149.2-173.46,334.16-262.32,556.91-302.43,78.4-10.28,271.67-66.91,320.88,9.4,16.36,27.16,19.77,59.34,28,89.42,10.73,45.15,36.08,84.8,53.11,127.68,45.92,117.8,119.67,226.23,262.08,185.67,54.17-11.53,106.72-32.52,162.24-36.41,55.55.82,112.25-18.6,166.83-2.34,70.42,24.51,77.62,155.41,98.25,218.93C2513.55,969.29,2571.7,1287.7,2563.79,1608.55Zm-780.43,561.72,1.65-1.61c209.62,118.14,362-86.15,444.4-256.86,114.46-217.59,123.13-779.45-7.12-989.29-198.18-293.44-434-240-613.28,37-65.73,119.85-98.47,254.63-130.9,386.49,3.19,191.5,29.74,383.78,68.91,570-16.52,105.07-32.18,210.29-48.58,315.39-2.08,13.27-2.26,13.25,3,25-27.12,58.8-69.72,112.89-88.15,174.8-2.33,52.43-17.19,111.11-12.93,160.54,44.59-88.95,80.48-187.17,148.33-260.31,34.76,53.93,68.07,109,101.91,163.53,3.13,5.15,7,8.22,12.87,8.9,106.92,20.74,213.28,41.56,320.3,62.22-92.87-59.36-211.74-89.84-298.18-156.62-31.84-61.78-63.74-123.54-96.41-184.89-5.92-11.11-6.39-20.54-2.75-32.25,17.14-48.35,26.21-101.86,46.35-147.88,56.2,55.84,73.15,140.28,110.81,208.87,8.23,22.64,23.08,44.82,26.17,68.45-6.46,7.54-16.82,6.9-25.94,11.71,103.14,50.11,204.82,112.65,311,152.49,65.31-12,117.44-17.46,178.18-34.46-89.65-29.2-162.19-41.18-249.62-75.38q-71.73-55.92-143.77-111.44C1814.86,2238.17,1802.48,2201.13,1783.36,2170.27ZM916.83,2581.16c88.06-46.85,184.49-90.49,265.6-146.58,19.81-56.25,53.28-109.43,65.3-167.66,1.65-67,5.22-133.91,7.48-200.87-6.29-100.74,31.78-192.94,48.16-290.8,17.29-96.87,29.51-194.57,31.91-293,1-205.79-48.11-536.94-232.22-657.33-126-89.67-254.73-66.88-345.41,58-91.35,110.45-146.71,245.74-156,388.87-16.51,148.16,4.9,297.23,17.07,445.11,17,112.79,17.43,240.64,88.68,335,64.87,77.76,152.31,139.82,253,159.29-38.95,55.59-32.46,68.19-103.93,74-82.64,22.69-142,5-224.46-7,38.29,33,64.66,50,105.93,80.32,59.52,19,127.78.29,190.06,8.79-20.43,34.43-42.76,60.24-62.84,95.46,42-21.7,81-46.65,122.34-69.49,5.3-3,7.75-6.78,8.67-12.86,10.68-85.33,14.43-110.84,68.28-180,38.31-27.37,77-54.21,107.11-92.13a2013.86,2013.86,0,0,1-86.2,310.58C1036.65,2478.51,969.34,2523.79,916.83,2581.16Z"/>
    <path d="M1833.45,1621.56v-15.83l-43.36-36.06c3-5.51,9.1-6.67,12.54-10.75.39-23,.77-45.77,1.22-68.59,0-.72.73-1.43,1.54-2.9,2.92.41,6.22.61,9.38,1.37a11,11,0,0,0,10.56-2.68l11.43-10.08q15.26-13.43,30.53-26.83c1.54-1.34,3.35-2.38,5.75-4.07,2.56,3.9,5.21,7.19,7,10.9,2.54,5.16,6.57,7.27,12,8,12.59,1.66,25.15,3.55,37.7,5.41,7.11,1,14.19,2.23,22.31,3.52-.89,2.26-1.24,4.22-2.31,5.64-2.54,3.34-5.42,6.41-8.43,9.9a81.56,81.56,0,0,0,3.92,8.14c8.55,13.62,17.26,27.15,25.85,40.75,1.76,2.79,3.24,5.76,5.19,9.25-5,3-10.57,1.53-16,5-4,17.46-2.1,36.68-5.91,55.22-4.45.21-5.8-3.57-8.39-5.47-2.33-1.71-4.49-3.65-7-5.74-13.41,11-22.89,25.3-36.19,36.25l-8.43-12C1874.25,1618.08,1854.22,1623.73,1833.45,1621.56Zm48.47-92.08c-7.16,0-13.06,5.94-12.74,12.82a12.94,12.94,0,0,0,12.07,12.36,12.64,12.64,0,0,0,13.29-12.3A12.48,12.48,0,0,0,1881.92,1529.48Z"/>
    <path d="M1050.51,1570.65c-4.41.73-6.9,1.08-9.36,1.56-2.05.41-4.07,1-6.89,1.65-4.39,18.31-2.18,37.55-6.4,56.24-7-1.35-9-9.26-16.45-11-11.27,11.12-21.88,23.73-33.91,35.62-5.18-2.59-5.68-8.68-10.76-12-18.85-1.08-38.49,3.67-58.74,2.18-2.36-4.93,0-10.14-1.5-16-12.87-12.63-28.82-23.16-42.66-36.6,2.83-5,8.48-6,12.58-10.68.1-11.14.15-23.35.34-35.56.17-11.69-.09-23.42.67-35.15,2.57-.18,3.87-.58,5-.3,14.67,3.59,11.79,2.39,22.26-6.53,11.6-9.89,22.89-20.13,34.38-30.15,2.16-1.89,4.58-3.47,7.6-5.73,2.62,4,5.2,7.36,7.09,11,2.6,5.06,6.58,7.17,12.07,7.91,17.61,2.38,35.18,5.06,52.75,7.69,2.35.36,4.63,1.14,8.21,2.05-4.36,5.59-7.9,10.12-11.76,15.08a82.84,82.84,0,0,0,3.84,7.79c8.56,13.61,17.26,27.14,25.85,40.73C1046.49,1563.31,1048,1566.27,1050.51,1570.65Zm-82.36-5.4c0-7.43-5.45-12.78-12.8-12.61a12.66,12.66,0,0,0-12.59,13,13.29,13.29,0,0,0,12.36,12.18A12.76,12.76,0,0,0,968.15,1565.25Z"/>
  </g>
</svg>
