<svg xmlns="http://www.w3.org/2000/svg" viewBox="0 0 2994.91 3000">
  <title>69icon 1</title>
  <g>
    <path d="M657.26,1945.89c19.19,104.07,76.06,415.33,82.13,479.88,9.35,99.57,87.29,244.93,237.43,68.1,218.37-257.17,356.79-350.92,428.12-361.64s329.68-4.24,427.9-64.29c45.54-27.85,100.26-64.63,146.52-118.07l-695.31-598.4a1085.21,1085.21,0,0,0-85.84,76.93s-134.58-84.53-177.58-303.63L763.28,903.28c23.58,142,78.79,354.39,38,534.27C767,1588.85,708,1766.53,657.26,1945.89Z"/>
    <path d="M1999.63,2132.63c-191.83,160.66-445.44,134.25-545,143.6-82.11,7.71-218.73,131-472.54,402-69.72,74.43-326.28,12.56-348.4-115.95-11.61-67.5-29.47-247.93-40.07-360.38-23.5,116.46-36.46,228.45-29.21,328.71,8.65,119.36,125.35,338.13,241.15,398.35,92.43,48.07,332.81,55.13,432,20.87,173.3-59.84,328.42-266.24,451-386.16,164.89-161.39,339.46-207.27,529.82-408.08L2080.93,2037.3C2055.41,2075.74,2027.77,2109.07,1999.63,2132.63Z"/>
    <path d="M2367.15,1969.8c127.84-187.34,244.17-446.57,266.17-790.69,13.35-208.45-29.77-540.24-251.71-798C2133.55,93,1895.79,39.49,1697.66,29.43,1514.12,20.11,1204.47,126,997.83,300.07,926,360.59,846.2,482.63,797.16,618.63L138.59,51.83,35.15,172,2861.41,2604.39l103.44-120.18Zm-428.87-618.94c-94.12-103.66-233.37-129.58-319.48-128.71a498.08,498.08,0,0,0-106.28,12.15l-111.2-95.72c67.54-25.89,149.82-47.14,251.89-42.21,127.14,6.14,308.74,57.4,414.94,204.13,73.53,101.59,145.85,205.28,136.29,403.06-1.58,32.61-8.74,70-20,109L2075.6,1718.9c.66-7.08,1.34-14.13,1.7-21.48C2084.81,1542,2002.05,1421.11,1938.28,1350.86ZM1157.8,506c151.5-205.08,447.63-282.78,621.11-253.2,463.47,79,599.75,482.09,599.75,482.09L2158.1,611s-104.16-189.12-386-216.89c-132.65-13.07-282.55-13.64-504,173.9-70.06,59.32-133,241-143.45,332.45l-98-84.3C1052.22,707,1103.17,580,1157.8,506Z"/>
  </g>
</svg>
