<svg xmlns="http://www.w3.org/2000/svg" viewBox="0 0 2994.91 3000">
  <defs>
    <style>
      .a {
        fill-rule: evenodd;
      }
    </style>
  </defs>
  <title>121icon 1</title>
  <path class="a" d="M1468.88,28.38c409.75-3.75,702.49,124.77,933.76,302.76,793.18,610.44,736.28,1875.05-94.22,2401.35-204.6,129.65-425,198-730.3,233.66-187.84,22-368-25.63-502.56-66.76C389.69,2689.67-205.61,1898.44,131.28,977.13,290.84,540.79,640.06,221.68,1097.15,83.74,1209.22,49.92,1444.38,29,1468.88,28.38ZM888.68,333.1C368.4,589-.76,1269.33,284,1986.37c57.35,144.39,140.72,273.55,225.77,373.06,306.87-291.88,611.87-589.73,918.75-881.61,0-431.93,3.34-1265.83,0-1295.9-37.2-.12-310.38,13.41-539.87,151.18ZM1582,181.92V1479.79l922.68,877.68c137.85-179.31,256.78-369.76,304.29-642.07C2951.05,901,2304,186.6,1582,181.92Zm-155,1508L618.14,2463.49l2,5.9C852,2646.77,1054.36,2761.83,1428.93,2811Q1427.94,2250.51,1427,1689.88Zm155,2V2811c278.65-2.84,708.62-178.84,814.71-345.57L1582,1691.84Z"/>
</svg>
