<svg xmlns="http://www.w3.org/2000/svg" viewBox="0 0 2994.91 3000">
  <title>55icon 1</title>
  <g>
    <circle cx="705.38" cy="2205.83" r="21.98"/>
    <path d="M693,2241.45a23,23,0,0,1-17.42-13.64s-36.62,32.49-47.51,44.61c-22.41,24.92-59.71,68.9-75.85,98.27-7,12.68-21.93,50.2-20.05,64.55,1.65,12.59,20.12,34.91,32,39.46,9.25,3.56,42.29-8.16,42.29-8.16s-4.6,28-5.11,33.3c-3.33,34.63-9.21,76.92-1.22,109.89,2.36,9.72,10.65,50.61,10.65,50.61l24-12.65L642,2707l27,8.42s11.61-292.95,28-389.09c3.75-22.07,22.12-87.77,22.12-87.77A47.07,47.07,0,0,1,693,2241.45ZM586.75,2448.56c-8.82.36-20.52-19.81-20.64-28.63-.23-15.65,13-45.76,22-58.61,9.75-14,40.27-52.51,45.95-50.61,8,2.66-5.78,55.31-10.8,75.92C619.48,2402,602.58,2447.91,586.75,2448.56Zm38,155.51c-2.07-13.06-2.37-49.77,1.5-49.12,0,0,6.88,35.66,7.49,45.12.7,10.84,1,42.29,1,42.29S626.21,2613.55,624.71,2604.07Zm34.63-120.21c-2.12,13.76-11.65,53.94-11.65,53.94s-15.52-38-16.32-51.28c-.88-14.57,6.51-43.49,11.32-57.27,3.95-11.32,11-47.28,22-42.62C670.19,2389,663,2459.8,659.34,2483.86Z"/>
    <circle cx="2293.24" cy="2200.56" r="21.73"/>
    <path d="M2428,2314.67c-6.93-11.23-29.09-26.93-39.3-35.3-16.85-13.82-68.09-53.61-68.09-53.61a37.76,37.76,0,0,1-25.81,15c-15.27,2-29.13-8-29.13-8s-35.19,102.66-51.11,134.86c-12.44,25.14-41.85,87.15-40,122.87,1.05,19.91,37.6,12.61,55.94.67,14.32-9.33,28.74-21.78,37.63-37.3,12.48-21.81,21.72-73.75,21.72-73.75s6.75,55.44-3.41,88.07c-5.11,16.43-22.5,64-32.35,88a20.87,20.87,0,0,0,6.07,24.1l8.13,6.65a11.44,11.44,0,0,0,18.09-5.23c6-17.86,15.26-45.9,18.37-56.54,3.89-13.25,12.42-53.82,12.42-53.82s6.28,42.31,5.56,56.48c-.48,9.69-5.58,32.21-8.71,45.32a11,11,0,0,0,7.43,13l9.81,3a11.61,11.61,0,0,0,14.9-9.35c2.6-17.09,6.7-46.77,6.88-65.29.66-69.6-15.88-166.1-15.88-166.1s22.81,28.6,32.86,37.56c8.86,7.91,31,16.55,42.62,14.32,12.69-2.42,27.14-23.68,30-36.29C2445.57,2351,2435,2326,2428,2314.67Zm-175.15,114.54c-7.18,12-39.63,45-44.62,34-3.54-7.86,18.34-52.2,25.31-69.26,8.7-21.32,38-83.91,38-83.91S2268.32,2403.3,2252.87,2429.21ZM2404,2373.27c-13.59-.26-31.15-29.79-39.69-40.38-10.18-12.62-33.23-50.85-28.74-58.18,3.64-5.92,39.17,24.46,49.95,35.3,9.19,9.24,34.47,28.3,34.46,39.12C2420,2356.25,2411.16,2373.41,2404,2373.27Z"/>
    <path d="M741.13,2188.67s5.1,14.48,3.31,23.93c-.93,4.88-4.54,13-4.54,13l253.43,53.64-27.51-47.75Z"/>
    <path d="M2250.86,2212.57c-1.8-9.46,3.3-23.94,3.3-23.94l-221.58,41.13-27.51,47.75,250.32-52S2251.78,2217.45,2250.86,2212.57Z"/>
    <path d="M1710,2268.9c-53.83,2-159,11.65-212.28,11.66s-159.14-9.67-212.33-11.63c-63-2.32-271.49-31.87-271.49-31.87s173.46,281.34,236.68,424.6c31.85,72.16,135.6,295.69,135.6,295.69,30.18,14.27,83.35,15.49,111.55,15.48s81.39-1.26,111.55-15.51c0,0,103.69-223.54,135.53-295.7C1808,2518.37,1981.44,2237,1981.44,2237S1773,2266.58,1710,2268.9Z"/>
    <path d="M1498.32,1079.71a29.64,29.64,0,1,0-29.64-29.63A29.64,29.64,0,0,0,1498.32,1079.71Z"/>
    <path d="M674.65,1200.71s323.14-78,412.23-90c75.24-10.12,243.1-27.74,325.59-36.23-24.39,20.54-53.37,45.36-65.45,57.37-19.63,19.5-67.75,79.36-67.75,79.36a46.83,46.83,0,0,0,5.26,60.82c14.9,14.59,46.12,27.42,55.91,34.08,24.2,16.46,103.89,42.29,103.89,42.29s31.45,99.44,45,128.53c13.61,29.31,58.69,102.66,73.61,126.74a8.34,8.34,0,0,0,12.15,2.23l15.81-12a6.85,6.85,0,0,0,1.42-9.45c-15.81-22-74.94-105.13-89.33-139.44-11.82-28.18-29.31-127.87-29.31-127.87l5.66-119.87,1.5-108.74s-8.27-4.85-13.65-8.22c-7.29-4.57-13.55-14.94-15.3-20.39a40.67,40.67,0,0,1-1.36-7.15,31.85,31.85,0,0,1,1.09-10.84l-.36.3a33.14,33.14,0,0,1,6-10.82s-9.19,1-67.82,5.18c-16.43-10.38-144.15-91.24-177.3-125.58-50.91-52.72-155.75-200.45-179.81-253.73C1018.58,627,993.13,543,980.38,499.86l78.74-464.59h-31L949,502.35c-25.8,31.77-65.28,81.43-79.52,105-27.86,46.1-78,143.27-89.91,195.8-12.49,55.12-31.91,139.85-17.92,228.76,3.14,20,19.5,62.21,31.33,91.06-69.15,15.84-132.78,36.3-132.78,36.3Zm768.9-129.37c1.09,3.13,4,11.08,5.61,13.88,1.87,3.15,9.32,11.32,9.32,11.32s-3.77,80-8.15,104.72c-5.36,30.18-3,102.89-29.27,112.13-16.82,5.92-56.31-6.24-71-22.48-11.81-13.1-42.24-36.85-43.29-55.68-1.46-26.11,38.32-67.34,55.28-87.24,15.52-18.24,69.18-67.21,79.34-76.44Z"/>
    <path d="M1536.6,1075.84c-1.9,2.69-8.65,7.3-8.65,7.3s9.58,56.8,10.94,79.07c2.09,34.16,7.77,102.81,16.65,135.86,10.07,37.44,41.33,113.88,63.27,145.85,16.53,24.08,68.19,74.87,87.84,92.79a6.05,6.05,0,0,0,9.78-2.44l3.16-8.86a9.33,9.33,0,0,0-2-9.59c-13.85-14.48-57.79-64.14-71.77-84.56-42-61.27-58.27-123.53-58.27-123.53s28.63,17.7,42,20c27.31,4.67,49.83-8.33,58.94-14.65,13.43-9.31,33.85-36.23,41-50.94,3.32-6.88,5.24-23.13,2.92-30.41-9.84-30.86-38.6-88.74-58.86-113.44-9.34-11.39-28.09-26.44-45.62-39.33,89.74,9.33,213.62,23.07,278.63,31.82,89.09,12,412.23,90,412.23,90l14.48-41.46s-63.63-20.46-132.78-36.3c11.83-28.85,28.19-71.07,31.34-91.06,14-88.91-5.43-173.64-17.93-228.76-11.91-52.53-62-149.7-89.91-195.8-14.23-23.55-53.72-73.21-79.52-105L1965.16,35.27h-31l78.73,464.59C2000.18,543,1974.73,627,1961,657.28c-24.06,53.28-128.91,201-179.81,253.73-33.15,34.34-160.51,115.2-176.94,125.58-58.64-4.19-67.46-5.86-67.46-5.86a30.73,30.73,0,0,1,6.9,11.73c1.21,4,1,12-.52,20.86C1542.53,1067.27,1538.73,1072.82,1536.6,1075.84Zm30.26-19.51s62.22,48.91,78.59,67.92c23.21,27,57.75,92.17,58.44,127.87.24,12.74-11.7,32.2-21.81,40-10.85,8.32-49.37,19.49-59.61,9.5-19.74-19.27-60.93-228.6-60.93-228.6Z"/>
  </g>
</svg>
