<svg xmlns="http://www.w3.org/2000/svg" viewBox="0 0 2994.91 3000">
  <title>146Icon_neon 1</title>
  <g>
    <path d="M702,1727.33c41.17,5.77,81.94,12.49,121.42,19,56.93,9.38,115.79,19.08,175.75,25.9,144,16.38,329.53,31.4,522.37,42.28,211.71,12,419.14,18.27,599.87,18.27,72.78,0,141.48-1,204.2-3.07l6.59-.22-74-341.5,64.55-480.22.39-2.82L2187,877.78l211.62,76,.84.29L2889.2,950,1668.1,562.83l-2.91-.92-764.5,653.52-6.38,5.46,189.1,91.82L718.35,1299l-4.19-.15L587.93,1699.76l-1.87,5.93,115.7,21.6Zm433.29-401.67-221-107.33L1667.7,574.24,2820,939.55l-418.61,3.55-260.82-93.71,170.93,159.71-64.32,478.47-.12.87,71.63,330.48c-60.81,1.9-127.14,2.86-197.26,2.86-404.9,0-864.92-31.35-1121-60.48-59.71-6.79-118.45-16.47-175.27-25.83-39.47-6.51-80.28-13.23-121.49-19l-103.36-19.3,121.86-387Z"/>
    <path d="M2696.86,2026.92l-.21-.24c-79.77-87-161.37-123.49-284.06-160.45l-8.62-2.59,37.13,202.1c-33,12.34-147.2,21.26-315.84,24.57-180.32,3.54-399.05.48-615.88-8.63-246.26-10.35-469.93-27.7-646.85-50.16-205.31-26.07-342.94-58-409.24-95L531.15,1704l-8.54.93c-51.77,5.63-161.51,26.29-195.28,38.12-8,2.81-16.66,5.73-25.81,8.81-83.41,28.17-209.47,70.74-255.14,161.85l-.15.33c-12.29,29.78-12,60.4.72,91,19.38,46.47,67.72,93.4,143.67,139.47,68,41.23,141.41,71.37,165.54,81.28,200.45,82.28,428.39,123.59,669.71,167.32l2.4.44q28.07,5.08,56.43,10.25l.45.06,311.91,27.89c61.89,9.77,129.19,11.09,186.86,11.09,22.21,0,44.71-.23,66.48-.44,22-.23,44.8-.45,67.27-.46l180.59-2.53h.16l222-17.79.45-.06c25.83-4.48,52.52-8.81,80.84-13.41,96-15.58,204.84-33.24,298.89-61.28,108.57-32.36,181.28-73.78,222.3-126.61,26.23-33.78,34.57-67.7,25.49-103.69C2740.11,2083.62,2717.69,2052.76,2696.86,2026.92Zm-1298.29,394L1086.4,2393q-28.51-5.2-56.76-10.31l-1.81-.33c-240.73-43.63-468.12-84.83-667.49-166.68-23.93-9.82-96.77-39.72-164-80.51-73.91-44.83-120.75-90-139.21-134.29-11.58-27.76-11.85-55.47-.8-82.38,43.7-86.93,167.08-128.58,248.76-156.16,9.19-3.11,17.88-6,25.89-8.85,31.21-10.93,130.55-29.88,184.28-36.56L440,1941.53l3.86,2.26c66,38.67,206.41,71.86,417.29,98.64,177.21,22.51,401.21,39.88,647.77,50.24,217.06,9.12,436,12.19,616.56,8.64,177.58-3.49,295.76-13.43,324.23-27.29l3.76-1.82-35.42-192.82c115.95,35.5,194.15,71.55,270.36,154.59,40.75,50.56,79.65,110.29,25.84,179.59-39.56,51-110.46,91.13-216.75,122.82-93.37,27.83-201.83,45.43-297.52,61-28.2,4.58-54.85,8.9-80.68,13.39l-221.39,17.73L1717.59,2431c-22.34,0-45.16.23-67.3.46C1564.74,2432.3,1476.28,2433.19,1398.57,2420.91Z"/>
  </g>
</svg>
