<svg xmlns="http://www.w3.org/2000/svg" viewBox="0 0 2994.91 3000">
  <title>142Icon_neon 1</title>
  <g>
    <path d="M273.43,1857.57c102.1,35.27,208.8,56.81,312,77.65q19.17,3.87,38.34,7.77l6.1,1.25.49-6.21c25.19-322,128-894.77,533.33-1113.28l22-11.84-24.9,1.51c-122.65,7.41-246.38,37.8-367.77,90.32-118.6,51.32-229.51,121.33-329.65,208.09-209.21,181.25-349.07,417.35-393.8,664.8l-.8,4.48,4.25,1.63C153.84,1814.71,215.65,1837.48,273.43,1857.57Zm485.7-559.29c-39,95.24-71,202.37-95.09,318.44-20.48,98.81-35.33,204.52-44.16,314.25q-15.71-3.2-31.42-6.36l-.86-.17c-102.84-20.77-209.18-42.24-310.57-77.26-56.65-19.7-117.19-42-195.85-72.08C171.26,1290,641.1,869.74,1136.88,827.19,975.74,921.38,848.72,1079.75,759.13,1298.28Z"/>
    <path d="M2415.49,1999.61c-235.1,61.78-505,106.31-740.39,122.16-102,6.86-204.66,10.34-305.15,10.34-479.81,0-939.34-79.92-1328.9-231.13l-6.8-2.63L29.57,1949l3.46,1.65c69.15,32.87,221.2,96.6,462.72,154C600.08,2129.44,708,2149.75,816.4,2165a3504,3504,0,0,0,361.83,32c44.33,1.58,89.64,2.38,134.64,2.38,184.11,0,373.64-13.25,563.34-39.37,179.53-24.72,357.69-60.21,544.67-108.51l4.41-1.13-3.33-52.45ZM43.86,1913.86c238.62,91.93,502,157.22,783,194.08,177.28,23.25,361.1,35,546.37,35,99.89,0,201.7-3.45,302.6-10.24,233.9-15.75,501.77-59.73,736-120.8l1.91,30c-377.45,97.12-748.07,146.38-1101.6,146.38-44.58,0-89.5-.8-133.52-2.36-496-17.67-921.72-141.94-1137.39-243.67Z"/>
    <path d="M1399,828.49l-1.89-.42c-12.76-2.88-22.68-4.45-32.27-6-7.48-1.18-15.21-2.4-24.15-4.24l-1.85-.38-1.7.83c-105.19,51.91-197,121.18-273,205.9-69.18,77.14-127.56,169.82-173.53,275.44-41.32,94.94-73.12,199.83-97.21,320.66-20.26,101.64-34.73,213.51-44.25,342l-.37,5,4.89.87c27.8,4.93,30.88,5.41,30.89,5.42l5.52.88.8-5.54c11.72-81.94,65.85-147.55,156.53-189.75,81.32-37.84,186.06-54.21,294.92-46.09,103.2,7.69,198.07,36.8,267.15,82,76.59,50.1,116.8,116.8,116.3,192.89l0,5.7,5.7-.16c.09,0,9.12-.27,40.47-2.12l11.11-.79-.06-5.18c-.53-45.54-.44-92.68-.36-138.28v-.22c.29-153.75.59-312.74-21.48-465.07-11.94-82.37-29.21-155.32-52.81-223-26.61-76.35-60.42-143.86-103.36-206.37-30-47.94-66.67-94.72-104.74-142.4Zm272.89,1171.83-.71.06c-18.16,1.07-28.73,1.6-34.44,1.86-1.47-77.61-43.3-145.42-121.25-196.4-70.6-46.18-167.32-75.92-272.34-83.74-18.33-1.37-36.84-2.06-55-2.06-91.41,0-176.25,17-245.36,49.15-92.15,42.88-148,109.39-161.92,192.58-3.77-.66-10-1.76-20.36-3.59C791.14,1550,885.49,1054.52,1340.3,829c8.39,1.68,15.71,2.83,22.8,4,8.94,1.41,18.16,2.87,29.68,5.41,37.45,46.91,73.45,93,102.87,140l.12.18c177,257.57,176.38,578.23,175.79,888.35C1671.48,1910.84,1671.39,1956.26,1671.86,2000.32Z"/>
    <path d="M1561.39,905l.1.12c228.2,276.06,230.82,646.24,233.35,1004.24.2,27.93.4,56.8.72,84.91l.08,6.21,6.15-.83c171.14-22.85,344.19-58.76,511.56-93.5q36.36-7.55,72.67-15l5-1-.68-5.09a1264.76,1264.76,0,0,0-97.85-344.19A1292.46,1292.46,0,0,0,2107,1240.86c-75.35-91.06-161.58-169.63-256.31-233.54-97.37-65.69-201.72-114.49-310.16-145l-16.41-4.62L1534.69,871C1544.23,883,1553,894.1,1561.39,905Zm245.1,1082.92c-.28-25.9-.47-52.41-.65-78.1v-.54c-1.25-176.29-2.54-358.58-32.28-532.35-16.1-94.1-38.88-176.6-69.63-252.22-34.28-84.29-79.34-160.5-133.91-226.54-5.19-6.68-10.48-13.44-16-20.44,422.42,127,759.91,536.94,824.74,1003.65q-33.8,7-67.65,14C2146,1929.61,1975.24,1965,1806.49,1987.87Z"/>
    <path d="M2962.61,1536.52c-2.61-40.44-14.81-77.63-35.27-107.53-33.22-48.55-86.05-74.92-148.45-74l-.45,0A1575.67,1575.67,0,0,0,2567,1390.49c-75.27,18.12-143.21,40.84-201.94,67.53l-5.39,2.45,2.84,5.19c79.24,144.73,129.48,315.12,153.6,520.92l.88,7.55,6.89-3.2c75.34-34.92,162.56-77.79,238.29-131.08,86-60.53,144.5-124.92,178.77-196.85l.12-.27C2957.81,1621.4,2965.26,1577.76,2962.61,1536.52Zm-31.69,121.91c-70,146.71-235.33,240.35-404.8,319.32-24.32-201.39-73.8-369.07-151.12-512.14,109.75-48.9,256.69-85.13,404.28-99.61.9,0,1.8,0,2.7,0,57.37,0,105.68,24.51,136.28,69.22C2958.21,1493.57,2963.05,1579.1,2930.92,1658.43Z"/>
    <path d="M1430.12,774c0-1.11-.23-11.05-8.32-21.09-7.24-9-22.48-19.7-54-19.7-49.54,0-65,33.52-65.1,33.85l-3.29,7.4,130.73,5.26Zm-112.36-9.81c7-8.2,22-20,50-20,27.15,0,39.68,8.46,45.42,15.55a27.89,27.89,0,0,1,4.69,8.46Z"/>
  </g>
</svg>
