<svg xmlns="http://www.w3.org/2000/svg" viewBox="0 0 2994.91 3000">
  <title>140Icon_neon 1</title>
  <g>
    <path d="M1460,1182.34l25.52-10.58h-27.63c-.84,0-85,.11-178.29,10.1-83.28,8.91-102.22,14.31-130.92,22.49-8.47,2.41-18.08,5.15-30.4,8.26-83.8,19.81-159,54.38-231.67,87.82l-4,1.84-.23.11c-86.46,45.21-177.64,107.91-263.67,181.34a1750.79,1750.79,0,0,0-249.45,262.06c-118.14,153.23-262.79,396.07-281,682.74l-.21,3.2,2.7,1.76c112.28,73,265.85,140.44,432.43,189.83l.23.07,235.7,45.28,5.67,1.08.81-5.71c13.58-95.28,27.85-198.37,41.65-298.05,13.82-99.89,28.12-203.18,41.78-299,6.23-30.56,11.74-62.63,17.09-93.69,12.56-73,25.55-148.56,49.06-212.29C1007,1511.86,1226,1279.32,1460,1182.34ZM526,2612.68C361.9,2564,210.56,2497.75,99.45,2426c31.6-472.38,429.06-926.16,787.85-1113.8l3.86-1.77c72.21-33.22,146.87-67.56,229.69-87.13,12.56-3.18,22.25-5.94,30.83-8.38,28.12-8,46.7-13.32,129-22.12,60.72-6.5,117.57-8.79,149.76-9.6-49.43,22.64-98.78,51.57-147,86.21A1088.08,1088.08,0,0,0,1126.89,1407,1127,1127,0,0,0,997,1573.44c-38.37,60.16-69.37,122-92.15,183.76-23.85,64.68-36.93,140.71-49.59,214.25-5.33,31-10.84,63-17.06,93.52l-.05.29c-13.64,95.68-28,199.15-41.82,299.29-13.53,97.72-27.51,198.71-40.81,292.21Z"/>
    <path d="M1025.52,306.88c20.2,7.33,37.64,13.67,49.23,19.12l.24.1c95,38.6,198.76,64,317.3,77.69,96.37,11.12,202.9,15.24,355.31,13.72-37.67,213-117.85,649.8-118.65,654.2l-1,5.51,102.72,16.87,1-5.33c4-20.76,97.12-503.63,124.24-657.75,145.67,67.09,289.23,111.23,478.56,147.2,9.63,1.68,21.71,4.13,35.75,7,54,11,135.55,27.61,184.14,19.27l.45-.1c121.81-32.53,125.82-34.28,151.92-45.66l16.73-7.3L879.77,208.25,872,206.8l1.39,7.82C880.34,254.15,960.84,283.38,1025.52,306.88Zm1660.27,248.7c-17,6.54-41.21,13.44-133.54,38.09-46.55,7.9-126.73-8.43-179.82-19.25-14.08-2.86-26.24-5.34-36-7-191.09-36.31-335.36-81-482.4-149.36l-6.51-3-1.22,7.07c-24.24,139.15-113.71,603.76-124.44,659.43l-81.11-13.32c9.59-52.29,83.8-457,118.8-655.29l1.15-6.52-6.62.07c-271.84,3-479.52-11.12-674.83-90.47-12-5.63-29.62-12-50-19.43-50.82-18.46-125.65-45.64-142.13-75.73Z"/>
    <path d="M1861.22,350q1.21-2.14,2.44-4.28l1.37-2.39-1.1-2.54c-.87-2-1.65-3.89-2.39-5.68-7.35-17.77-12.21-26.49-42.2-30.55-36.23-4.9-50.14,12.71-55.38,19.35l-1.18,1.49v11.47l96.53,16.49Zm-9.16-9L1775,327.77c5.59-6.36,17-15.83,42.86-12.33,25.05,3.39,27.36,9,33.51,23.85Q1851.72,340.1,1852.06,340.94Z"/>
    <path d="M1827.63,1360.06l-.18-.21c-11.12-13.23-22-27.91-33.57-43.44-36.67-49.35-78.24-105.28-139.7-127.9l-1.54-.57-1.6.37c-55.18,12.79-123.26,52.59-163.19,84.18-128.21,95-227.58,193.93-295.33,294.14-39.83,58.9-78.12,153.52-113.81,281.22-28.48,101.88-55.41,225-80.06,366-42.06,240.62-63,451.36-63.2,453.45l-.39,3.88,3.53,1.65c92.06,43.11,336.78,70.66,535.11,82.07,87.33,5,170.9,7.57,248.39,7.57,137,0,241.93-8.08,295.5-22.76l4-1.09.07-4.13s4.21-264,6.33-396.1c0-230.49-12-406.52-37.79-554C1958.36,1602.34,1905.18,1463.51,1827.63,1360.06ZM2017,2338.34c-2,122.24-5.72,357.72-6.26,391.84-86.68,22.17-296.12,27.59-536.39,13.77-194.7-11.2-434.23-37.91-527.54-79.44,3.05-29.7,24-227.17,62.7-448.75,38.59-220.75,103.25-511.49,192.14-643,67.07-99.2,165.59-197.28,292.84-291.52l.13-.1c38.59-30.55,104-69,157.33-81.77,57.55,21.87,97.68,75.87,133.16,123.61,11.6,15.61,22.56,30.36,33.83,43.77C1993.42,1599.68,2017,1988.65,2017,2338.34Z"/>
    <path d="M2786.72,2037.54l-4.07-10.92-.17-.39c-81.07-170.88-170.18-302.93-280.41-415.6-100.78-103-221.66-192.9-392-291.52l-.36-.19c-10.53-5-21.09-10.15-32.27-15.61l-.11-.06c-59.26-28.93-126.43-61.72-196.66-72.77l-17.09-2.69,12.39,12.06q6.83,6.64,13.74,13.32c17.4,16.85,35.4,34.28,51,50.71,65.11,68.45,110.52,121.2,147,226.65,109.7,317.44,112.84,724.64,105.84,1185.37l-.09,6.29,6.24-.74c1.59-.19,161.93-19.45,385.62-75.1,240.94-59.93,315.56-79.89,316.28-80.08l3.77-1,.3-3.89C2918.76,2391.05,2836.11,2169.76,2786.72,2037.54Zm-582,672.2c3.14-209,4.95-429.81-8.63-633.44-14.8-221.83-46.83-401.53-97.91-549.36-37.17-107.55-83.28-161.15-149.39-230.64-15.81-16.61-33.89-34.12-51.38-51l-.36-.35-.3-.29c62.29,13.1,122.34,42.42,175.83,68.53,11.18,5.46,21.74,10.62,32.26,15.61,292.15,169.2,495.06,338.35,667.62,702l4,10.72c48.68,130.32,129.92,347.83,118.59,515.21-18.52,4.89-101.8,26.67-312.31,79C2384.86,2684.9,2235.61,2705.7,2204.69,2709.74Z"/>
  </g>
</svg>
