<svg xmlns="http://www.w3.org/2000/svg" viewBox="0 0 2994.91 3000">
  <title>74Icon_neon 1</title>
  <path d="M2473.9,292.84H523.2c-96.29,0-174.63,80.68-174.63,179.85V2483.57c0,99.16,78.34,179.84,174.63,179.84H2473.9c96.29,0,174.62-80.68,174.62-179.84V472.69C2648.52,373.52,2570.19,292.84,2473.9,292.84Zm0,2359.57H523.2c-90.22,0-163.63-75.74-163.63-168.84V472.69c0-93.11,73.41-168.85,163.63-168.85H2473.9c90.22,0,163.62,75.74,163.62,168.85V2483.57C2637.52,2576.67,2564.12,2652.41,2473.9,2652.41Z"/>
</svg>
