<svg xmlns="http://www.w3.org/2000/svg" viewBox="0 0 2994.91 3000">
  <title>72Icon_neon 1</title>
  <g>
    <polygon points="424.46 2942.81 421.45 2946.77 429.26 2952.89 470.5 2901.52 461.79 2894.66 424.46 2942.81"/>
    <polygon points="2798.69 192.41 2411.43 331.87 2592.09 100.76 2583.9 94.34 2392.01 338.87 1967.23 491.84 1964.44 492.87 1961.82 493.79 1956.22 495.81 1960.03 500.38 1962 503 1963.72 504.8 2132.23 706.8 2133.05 707.66 2134.13 709.08 2340.35 956.29 1836.66 1082.08 2083.09 786.74 2074.64 779.69 1818.56 1086.6 1348.94 1203.88 1346.21 1204.63 1343.24 1205.31 1337.82 1206.66 1340.64 1211.48 1342.36 1214.34 1343.6 1216.56 1534.13 1543.34 1534.98 1544.91 1535.93 1546.42 1745.29 1905.49 1209.96 1969.23 1474.65 1631.48 1466 1624.69 1194.55 1971.07 767.76 2021.89 765 2022.19 762.23 2022.55 755.51 2023.35 759.27 2028.99 761.32 2032.15 762.35 2033.62 939.27 2299.28 939.87 2300.16 941.06 2301.97 1225.27 2728.72 525.17 2842.4 885.55 2382.38 876.89 2375.59 509.16 2845 201.03 2895.04 196.09 2895.84 197.85 2906.7 511.34 2855.79 513.17 2855.51 515.16 2855.17 1231.97 2738.78 1234.66 2738.4 1237.52 2737.87 1243.9 2736.84 1240.32 2731.46 1238.65 2729.06 1237.2 2726.78 952.89 2299.88 1148.53 2055.65 1139.94 2048.78 946.49 2290.27 774.59 2032.16 1196.57 1981.91 1198.71 1983.59 1200.39 1981.45 1751.33 1915.85 1753.93 1915.49 1756.94 1915.18 1763.23 1914.43 1760.04 1908.95 1758.34 1905.87 1757.19 1904.07 1547.1 1543.74 1792.27 1177.9 1783.13 1171.77 1540.94 1533.18 1354.71 1213.78 1820.86 1097.36 1822.66 1098.86 1824.71 1096.4 2348.18 965.67 2351.04 964.97 2353.6 964.32 2360.04 962.71 2355.79 957.62 2353.89 955.25 2352.21 953.33 2146.12 706.28 2351.09 419.6 2342.14 413.2 2138.84 697.55 1974.73 500.83 2394.94 349.23 2396.89 348.56 2399.01 347.76 2802.27 202.28 2798.69 192.41"/>
  </g>
</svg>
