<svg xmlns="http://www.w3.org/2000/svg" viewBox="0 0 2994.91 3000">
  <title>76Icon_neon 1</title>
  <path d="M2864.4,446.19C2843.44,373,2807,310,2756,259.12c-64-64-135.17-108.55-211.39-132.49-61-19.16-125.4-25.19-191.33-17.92-112.1,12.35-191.2,59.74-192,60.25l-.52.31L186.35,2138.41l-.19.19-.53.69c-.55.84-55.18,85.34-74.32,203.24-11.26,69.36-8.26,136.59,8.91,199.84,21.46,79.05,65.21,152,130,216.73,59,59,128.39,99,206.22,119.14a496.31,496.31,0,0,0,124.09,15.26,592.69,592.69,0,0,0,76.92-5.15c120.84-15.89,211.87-64,212.78-64.45l.33-.18.71-.53L2845.47,854.27l.4-.39.71-1.13.19-.53c.33-.92,33.09-93.82,38.26-212.69C2888.07,569.66,2881.13,504.62,2864.4,446.19ZM2874,639c-4.79,110.11-33.45,197.26-37.23,208.35L864.38,2814.56c-9,4.66-94.68,48-208.35,62.88a569.64,569.64,0,0,1-74.1,4.93c-100.09,0-220.62-27.89-323.9-131.06-143.6-143.45-153.15-300.5-135.87-407,18.06-111.33,67.7-191.21,72.38-198.55L2167.54,178c7.48-4.4,81.86-46.79,186.94-58.37,101.22-11.15,251.69,5.34,393.75,147.26C2860.7,379.26,2878.73,531.28,2874,639Z"/>
</svg>
