<svg xmlns="http://www.w3.org/2000/svg" viewBox="0 0 2994.91 3000">
  <title>148Icon_neon 1</title>
  <path d="M2855.82,2191.86c-13.31-52.8-34.06-101-54.14-147.62l-.39-.92c-6.09-14.14-12-28.07-17.79-41.54-48.75-114.21-90.86-212.84-155-289.16a441.67,441.67,0,0,0-117.57-99.06c-48.84-28.48-105.89-50.2-174.38-66.41l-3.36-.8-2.19,2.7c-7.9,9.76-72.1,66.76-166.34,119.93-82.32,46.46-205.75,99.32-326.55,87.52l-90.26-21.59,126.53-24.7.28-.06c1-.26,98.93-25.52,131.14-44.42,55.83-32.75,104.78-71,145.51-113.72,45.88-48.12,80.34-101,102.42-157.27,11.49-29.22,17-60,22.84-92.63,2.73-15.24,5.55-31,9.06-46.84C2308.06,1154.1,2299.27,1039,2262.7,955c-33-75.76-77.11-150.06-124.31-209.22-15.74-19.74-33.83-38.79-53-59-35-36.85-71.16-74.95-93.75-118.93-24.3-47.33-43.7-103.34-64.23-162.64-30.52-88.09-62.07-179.18-112.79-248.78-27.65-37.93-58.19-65.8-93.37-85.21-38.47-21.22-83.09-32-132.62-32h-2.85l-.85.08c-9,1.49-19.38,2.89-29.49,4.26s-20.62,2.77-29.78,4.3l-.49.11c-30.15,8.22-57,16-79.93,28.24-26.7,14.23-44.57,32.94-54.63,57.2-7.51,18.12-9.22,28.06-13,49.84l-.31,1.77c-3.95,22.94-2.2,31.19,9.88,46.45l3.78,4.79,4.38-4.26c6.69-6.53,11.08-11.43,15-15.78,7.83-8.74,12.56-14,29-24,31.39-19.11,74.89-22.44,116.37-8.9,34.67,11.31,61.5,32.87,71.77,57.66l.16.35c59.95,118.08-28.62,256.8-108.09,314.46l-1.56-.12-.93,1.84c-2.66,1.45-9.94,5-14.53,7.29-17.23,8.48-17.74,8.77-18.73,10.7l-16.38,8.87,12.4-1-.52,1,64.65-5.17,194.89,30.4c-76.31,11.43-253.65,38.19-289.59,45.38-149.93,30-283.58,78.32-397.23,143.68-122.73,70.57-217.41,158.59-281.42,261.6-27.38,44.07-41.56,101.45-41,165.91.49,57.41,12.77,118,34.58,170.65,16.75,40.45,44.82,81.57,83.41,122.21,35.51,37.4,79,73.5,129.24,107.3,95,63.91,205.93,113.79,304.26,136.84l.22,0,46.33,6.39-92.33,19.64c-79.81-1.73-202.4-34.42-320.16-85.41-120.9-52.34-212.12-112.58-244-161.15l-2-3-3.51.56C614.4,1548.52,535,1619.74,471.25,1677c-35.81,32.14-66.74,59.89-86.95,72l-.36.21-.76.65-.27.32q-22.26,26.5-39.86,47.27l-.35.41c-100.28,118.62-100.28,118.62-148.63,243-6.27,16.13-13.38,34.4-21.68,55.43-23.09,58.52-36.11,118.54-38.69,178.39-2.83,65.58,7.14,128.09,29.64,185.82,24.53,62.93,51.87,114.61,83.56,158,35.46,48.54,80.2,89.75,136.76,126,50.2,32.16,108.61,59.62,178.55,83.93,129.5,45,279.34,71.92,424.25,97.95l9.75,1.75c49.22,8.84,101.4,10.34,151.89,11.79,48.8,1.41,99.25,2.86,148.12,10.83l.4.07H1550.3l171.74-4.52q35.42-.75,70.9-1.52l.71-.07c36-6,72.84-7.78,108.51-9.54,41-2,79.77-3.94,117.68-11.58,175.6-35.41,326.63-81.62,448.91-137.35,155.15-70.7,265.88-157.66,329.14-258.47,26-41.47,46.76-94.2,58.39-148.46C2870.35,2313.63,2870.19,2248.85,2855.82,2191.86ZM1297.51,2939.74c-49.38-8-100.07-9.49-149.11-10.9-50.07-1.44-101.84-2.93-150.25-11.63l-9.74-1.75c-289.09-51.92-588-105.6-732.63-303.53-31.12-42.6-58-93.46-82.19-155.48-42.15-108.13-38.94-234.62,9-356.18,8.29-21,15.41-39.32,21.7-55.48C252,1922.15,252,1922.15,351.1,1804.93l.31-.37q17.38-20.57,39.34-46.64c21.1-12.87,52.06-40.64,87.85-72.76,61.23-54.94,137.11-123,185.4-133.33,34.7,49.72,126.49,110.09,246.77,162.17,57,24.69,116.51,45.7,172,60.76,58.6,15.91,111.49,24.75,153,25.56h.57l155-33-108.07-14.89c-97-22.78-206.46-72-300.36-135.2C879.63,1547.77,805.54,1468,774.33,1392.67c-39.28-94.82-52.78-232.56,5.62-326.55,121.7-195.87,360.16-338,671.46-400.3,45-9,313.24-48.9,324.69-50.6l35.75-5.31-266.91-41.63-.57-.09-28.47,2.28c6.28-3.14,7.85-4,8.76-4.79,33.8-24.19,80.13-72.28,109-134.91,22.23-48.23,40.94-121.06,3.89-194.21-11.53-27.62-40.83-51.42-78.42-63.69-44.5-14.52-91.41-10.8-125.51,10-17.83,10.86-23.55,17.25-31.47,26.1-2.82,3.14-5.93,6.61-10,10.81-6.61-9.48-6.94-15.44-3.95-32.81l.31-1.77c3.6-20.95,5.25-30.52,12.29-47.5,20.69-49.91,74.7-64.71,127-79,8.88-1.47,19.17-2.86,29.18-4.21s20.33-2.74,29.35-4.23c91.93-.65,163.71,36.2,219.43,112.66,49.75,68.26,81,158.56,111.28,245.91,20.67,59.68,40.2,116.05,64.85,164.06,23.3,45.38,60,84.06,95.58,121.5,19,20,36.91,38.88,52.35,58.24,46.61,58.43,90.23,131.85,122.82,206.74,35.69,82,44.23,194.5,22.28,293.51-3.56,16.06-6.41,31.94-9.17,47.33-5.73,32-11.15,62.29-22.23,90.51-51.8,131.9-160.88,217.2-243.26,265.52-30.22,17.73-123.91,42.11-128.14,43.21L1696,1733.83l139.94,33.46.67.11c54.25,5.35,113.48-1.45,176.05-20.24,50.8-15.25,103.76-38.33,157.4-68.6,89.58-50.55,152.58-104.84,167.1-120,273.23,65.71,338.15,217.75,436.23,447.49l.27.65c5.67,13.28,11.54,27,17.53,40.92l.39.93c19.9,46.21,40.47,94,53.57,145.94,29.46,116.85-7.19,248.58-56.58,327.3-112.23,178.86-371.6,310.37-770.9,390.87-37.11,7.48-75.46,9.38-116.05,11.38-35.86,1.77-72.93,3.6-109.35,9.62q-35.22.75-70.49,1.5l-171.68,4.52Z"/>
</svg>
