<svg xmlns="http://www.w3.org/2000/svg" viewBox="0 0 2994.91 3000">
  <title>134Icon_neon 1</title>
  <path d="M2780.36,959.12a1393.63,1393.63,0,0,0-739.48-739.48c-171.31-72.46-353.29-109.2-540.88-109.2s-369.57,36.74-540.88,109.2A1393.49,1393.49,0,0,0,219.64,959.12C147.17,1130.43,110.43,1312.41,110.43,1500s36.74,369.57,109.21,540.88a1393.61,1393.61,0,0,0,739.48,739.49c171.31,72.46,353.29,109.2,540.88,109.2s369.57-36.74,540.88-109.2a1393.53,1393.53,0,0,0,739.48-739.49c72.47-171.31,109.21-353.29,109.21-540.88S2852.83,1130.43,2780.36,959.12ZM2878.57,1500c0,760.15-618.43,1378.57-1378.57,1378.57S121.43,2260.15,121.43,1500,739.86,121.44,1500,121.44,2878.57,739.86,2878.57,1500Z"/>
</svg>
