<svg xmlns="http://www.w3.org/2000/svg" viewBox="0 0 2994.91 3000">
  <title>156Icon_neon 1</title>
  <g>
    <path d="M191.21,2159.15c26.85,26.59,54.61,54.08,77.54,84.65l.23.31,220.16,215.6.33.3c22.27,18.22,42.52,39.45,64,61.93,42.56,44.63,86.57,90.78,148,112.35,32.44,11.4,74.63,18.2,112.87,18.2,40.87,0,74.88-7.76,98.34-22.46l.24-.15.7-.59q30.95-30.49,66.07-65.08l.13-.13c304.51-300,814.18-802,1080.61-1078.43,57.56-59.73,98.23-113.75,124.35-165.16,24.71-48.64,35.77-93.82,33.83-138.12-2.56-58.15-27.42-113.68-78.25-174.74-45.31-54.45-107.1-108.21-172.53-165.13-28.21-24.54-57.38-49.92-86.63-76.53-17.22-16.79-34-34.15-50.3-50.93-41.83-43.15-81.33-83.9-129.41-118.78-54.69-39.67-110.51-64.37-175.75-77.75l-.7-.13-.64,0c-41.18,2.3-79.33,15.14-116.61,39.23-33,21.33-62.29,49.31-90.63,76.39-14.13,13.5-28.74,27.46-43.66,40.45l-.17.16c-202.92,193.53-417.57,403.24-625.2,606.1-88.67,86.63-180.36,176.21-268,261.4-9.3,9.07-20.58,19.82-33.63,32.26l-.16.16C255,1661.7,84.83,1823.89,66.82,1915.11l-.08.56c-4.18,50.69,6.55,94.79,33.76,138.78C124.31,2092.92,156.8,2125.09,191.21,2159.15Zm623.12,482.36h0c-36.5,0-78.36-6.74-109.25-17.6-58.94-20.7-102-65.87-143.69-109.57-20.67-21.67-42-44.08-64.74-62.67L277.27,2236.84c-23.32-31-51.28-58.73-78.33-85.51-66.79-66.13-129.87-128.6-121.27-234.42,17.63-87.8,185.85-248.18,276.27-334.38l.17-.17c13.07-12.46,24.36-23.22,33.71-32.33,87.26-84.87,178.83-174.34,267.38-260.85l.72-.7C863.42,1085.75,1078,876.12,1280.78,682.7c15.07-13.12,29.75-27.15,44-40.72,57.79-55.23,112.38-107.4,199.52-112.54C1663.53,558.21,1741,638.1,1823,722.7c16.35,16.86,33.25,34.3,50.6,51.22l.12.11c29.39,26.75,58.62,52.18,86.89,76.77,129.67,112.81,241.65,210.24,247,332,3.79,86.39-46.95,182.93-155.12,295.16-266.38,276.38-776,778.41-1080.53,1078.36l-4.88,4.8L906.3,2621C884.58,2634.43,852.8,2641.51,814.33,2641.51Z"/>
    <path d="M2252.57,1415.8c-1.51-6.3-5-8.54-7.58-9.32-4.49-1.32-8.9.85-12.51,3.6l-.17-.18-3.62,3.45-.22.21-3.4,3.24,0,0c-15.4,15.26-30.21,33.58-45.83,52.9-23.22,28.72-47.23,58.42-74.79,79.57l-.48.42C1966,1687,1824.39,1833.88,1687.4,1976c-248,257.25-504.5,523.25-749,742-69.37,62.08-152,64-252.52,5.79-89.19-51.61-181.26-143.8-262.55-225.2-20-20-38.81-38.86-57.51-57.08C296.6,2374,94,2160.67,85.42,2151.6l-27.51-29L76.56,2158c40.37,76.49,92.47,150.49,159.27,226.23,57.52,65.21,115.84,120.43,167.3,169.15,38.95,36.88,72.59,68.73,97.89,97.36,58.11,65.76,103.13,114.85,153.51,147.69,53.3,34.73,111.26,50.22,188,50.22h1.85c36.13-.12,82.71-18.31,97.66-30.3,82.21-65.9,82.75-66.48,110.67-96.57,26.34-28.4,75.38-81.26,238.63-238.4,38.71-37.27,153.83-153.95,287.13-289.06l.16-.16c221-224.05,496.14-502.89,619.36-619.56C2225.31,1548.65,2259.06,1442.82,2252.57,1415.8ZM358.15,2449.35c18.68,18.21,37.52,37.07,57.46,57,81.72,81.82,174.33,174.56,264.78,226.89,52.83,30.58,100,44.91,144.21,43.8,43.86-1.1,84.63-18.23,121.15-50.91,244.79-219,501.4-485.19,749.58-742.58l.07-.08c136.85-141.93,278.35-288.69,416.1-425.71,28.43-21.89,52.78-52,76.34-81.15,16.59-20.52,32.26-39.91,48.44-55.33a20.32,20.32,0,0,1,5.28-4,8.4,8.4,0,0,1,.31,1c2.08,8.66-1.59,35.53-14.55,74.07-8.91,26.5-23.92,61.81-36.93,74.13-123.35,116.79-398.52,395.71-619.63,619.82l-.15.15c-133.25,135.06-248.32,251.7-286.94,288.87-163.44,157.33-212.63,210.36-239.06,238.85-27.38,29.51-27.91,30.07-109.49,95.47-11.87,9.51-56.47,27.77-90.82,27.88h-1.87c-154.71,0-217.28-63-333.16-194.19-25.64-29-59.44-61-98.58-98.07-91.36-86.5-214.14-202.74-303.33-354.71C167.59,2253.86,304,2396.52,358.15,2449.35Z"/>
    <path d="M2852.84,924.82a318.6,318.6,0,1,0,93.31,225.28A316.5,316.5,0,0,0,2852.84,924.82Zm-225.28,532.87c-169.61,0-307.6-138-307.6-307.59s138-307.6,307.6-307.6,307.59,138,307.59,307.6S2797.16,1457.69,2627.56,1457.69Z"/>
    <path d="M2443.47,1481.79l-3.08-1.14c-21.06-7.76-50.28-31.39-65.83-44.79-19.59-16.89-31.87-29.71-35.87-34.77a8.36,8.36,0,0,0-.84-2.53,6.09,6.09,0,0,0-4.76-3.24l-4-5.24-.05,6.24-.86,1.11a6.09,6.09,0,0,0-.95,5.45,9.34,9.34,0,0,0,.79,1.84c0,8.81-5.48,38-18,77.91-8.61,27.37-27,79.5-53.32,121.14-40.34,63.77-184.42,185.65-185.87,186.87l-7.15,6,8.74,3.32c29.51,11.22,54.52,15.39,92.28,15.39a283.21,283.21,0,0,0,283.21-283.21c0-19.14-3.75-46-3.91-47.13Zm-278.84,322.59c-32.52,0-55-3.17-79.56-11.5,31.14-26.76,144.85-126.31,180.86-183.23,28.79-45.51,47.9-101.47,56.73-130.77,7.19-23.89,12.78-47.23,15.11-62.44,19.84,20.68,65.35,60.57,95.69,73.3,1,7.61,3.38,27.54,3.38,42.43C2436.84,1682.27,2314.73,1804.38,2164.63,1804.38Z"/>
    <path d="M2040.68,801.06l-11.45,1.76,61.13,55.11,93.89,90.39,79.12,97.49,5.23,6.42,56.49-105.83-1.4-2.59c-48.65-90.79-141.08-145-247.24-145C2061.89,798.81,2055.25,798.81,2040.68,801.06Zm35.77,8.75c101,0,189.09,51,236.15,136.62l-45.91,86-74.33-91.57-94.45-90.93-43.8-39.49C2061.1,809.81,2067,809.81,2076.45,809.81Z"/>
    <path d="M2035.56,544.77c110.63,0,200.65-90,200.65-200.65s-90-200.65-200.65-200.65-200.65,90-200.65,200.65S1924.92,544.77,2035.56,544.77Zm0-390.3c104.57,0,189.65,85.07,189.65,189.65s-85.08,189.65-189.65,189.65-189.65-85.08-189.65-189.65S1931,154.47,2035.56,154.47Z"/>
  </g>
</svg>
