<svg xmlns="http://www.w3.org/2000/svg" viewBox="0 0 2994.91 3000">
  <title>132Icon_neon 1</title>
  <g>
    <path d="M2191.66,2175.06a924.27,924.27,0,0,0,196.25-294.58c47.75-114.25,72-235.62,72-360.72s-24.22-246.47-72-360.72a924.27,924.27,0,0,0-196.25-294.58,912.22,912.22,0,0,0-291.12-198.62,908.76,908.76,0,0,0-713,0A912.34,912.34,0,0,0,896.41,864.46,924.47,924.47,0,0,0,700.15,1159c-47.75,114.25-72,235.62-72,360.72s24.21,246.47,72,360.72a924.47,924.47,0,0,0,196.26,294.58,912.37,912.37,0,0,0,291.11,198.63,908.88,908.88,0,0,0,713,0A912.41,912.41,0,0,0,2191.66,2175.06ZM1544,2435.53c-498.93,0-904.84-410.81-904.84-915.77S1045.1,604,1544,604s904.85,410.82,904.85,915.77S2043,2435.53,1544,2435.53Z"/>
    <path d="M1870.18,1194.34a465.59,465.59,0,1,0,100.08,148.45A465.57,465.57,0,0,0,1870.18,1194.34ZM1540,1980.57c-251.45,0-456-204.56-456-456s204.56-456,456-456,456,204.56,456,456S1791.4,1980.57,1540,1980.57Z"/>
    <path d="M1307.09,462l3.38-.51c.69-.11,70.72-10.65,159.26-16.39,81.29-5.28,194.78-7.42,273.86,12.35,151.94,38,357.28,144.87,359.34,146l3,1.57,342-247.13-60.12,26.41L2137.4,534.68l5-251,.21-10.32L1924.6,413.67l-97.19-249-2.63-6.73L1587.31,335.14,1438.78,283,1321.19,438.71,1201,297.39l15.2,34.54ZM1442.72,296l146.47,51.43,230.59-172,97,248.51,2.45,6.25,212-136.37-5,250.59-.19,9.91L2301.44,449.6,2105,592.05c-26.09-13.42-215.44-109.48-358.73-145.3-43.28-10.82-100.86-16.31-171.14-16.31-33.13,0-68.83,1.23-106.1,3.65-61,4-114,10.3-141,13.84ZM1316,449.56l-3.78.53-19.89-28.45Z"/>
    <path d="M439,1606l4.17-1,.05-4.28c0-1.13,1.54-114,7.81-159.27,24.34-175.6,109-417.06,181.25-516.72,61.83-85.33,151.33-176.26,152.22-177.16l3.07-3.11-233.37-370L657.61,725.16,372.48,787l89.8,218.07L218.1,927.87l236.69,155.84L159,1253l-5.54,3.17,197.72,250.27L99.81,1687.92Zm-269-346.6,305.74-175L290.31,962.25l191.11,60.44L387.66,795l278.06-60.34,5.79-1.25L587.17,447.21,773.66,742.92c-15.93,16.41-94.39,98.22-150.25,175.32-73.07,100.84-158.69,344.61-183.23,521.66-5.7,41.09-7.52,135.7-7.86,156.37l-280.7,67.81L362.32,1512l4.65-3.36Z"/>
    <path d="M2908.51,1175.54,2579,1081,2742.5,979l-207.26,45.51L2594,892.39l17.47-48-125,188.25,3.09,3.18c.49.51,49.13,51.17,73.1,114.37,20.38,53.75,48.57,183.66,49.46,242.87.8,52.51-1.64,167.13-1.75,172l-.1,5.22,227.05,16.62h44.69L2762,1557.75l120.83-125.87L2658,1389.73l242.75-207.52Zm-275.17,220.77,227.46,42.63L2747.45,1557l-6.66,6.93,29.48,7-148.73-10.89c.47-22.93,2.35-120.38,1.64-167.17-.91-60.19-29.5-192.09-50.18-246.61-21.39-56.4-61-102.3-72.46-114.88l59.9-90.65-44.1,99.12L2682,1003.56l-129.88,81.22,333.7,95.73Z"/>
    <path d="M2516.48,2013.13l-4.65-2.25-2.54,4.51c-1,1.8-101.44,180.66-153.26,230.24-50.32,48.14-263.67,189.39-265.81,190.8l-2.18,1.44L2072,2595l-1.51,50.22,39.26-150.49,173.63,115.21,7.08,4.7,40-240.63,257.93.88-38.52-233.72L2759.06,2130Zm58.88,350.7-254.28-.87-38.71,233.11L2102.92,2477l-13.5,53.51,9-86.33c23.1-15.32,216.65-144.16,265.19-190.6,48.26-46.16,134.85-196.81,152.71-228.31l199.1,95.92L2537,2130.8Z"/>
    <path d="M1085.55,2515.79c-73.3-41.89-174.18-120.07-200.15-142.72-48.17-42-224.19-232.79-226-234.71l-2.78-3-341,167.58,300.82-73.18-93.8,192,233.47-94.27L684.32,2524.8l-2.31,6.33,250.69,37.34L892,2768.38l-2.11,10.43,236.78-104.69,119.71,144.51,6.5,7.85,75.58-245.41-5.94-1.21C1320.6,2579.46,1127.51,2539.77,1085.55,2515.79Zm162.83,288L1132.51,2663.9l-2.65-3.2-224.94,99.44L944.63,2565l1.15-5.67L697,2522.24l78-214.18-229.79,92.78,91.51-187.32-226,55,243.48-119.66c22.7,24.57,178.31,192.66,224,232.53,26.2,22.84,128,101.71,201.92,144,39.25,22.43,198.37,56.54,234.32,64.06Z"/>
  </g>
</svg>
