<svg xmlns="http://www.w3.org/2000/svg" viewBox="0 0 2994.91 3000">
  <title>172Icon_neon 1</title>
  <g>
    <path d="M637.9,547.22l-3.9-4.87-72.51,74.77-.13.14-103.54,124-.22.28c-85.76,119.32-150.75,256.77-204.52,432.55-26.13,85.4-41,196.77-42,313.61-1,117.84,12.5,230.07,37.85,316,5.06,17.11,9.83,34.3,14.47,51,13.22,47.57,25.71,92.49,44.1,135.89C413.65,2241,582.55,2444,796,2577.64c71.81,45,141.59,81.45,213.33,111.5a1316,1316,0,0,0,249.19,76.56c72.13,14.67,149,22.1,228.45,22.1a1334.8,1334.8,0,0,0,207.63-16.5c132.16-20.89,262.16-61.59,366.05-114.59,4.44-2.27,9.17-4.67,14.1-7.17,50.7-25.71,120.13-60.92,156.65-93.16l3.91-3.46-3.24-4.08C2188.46,2494,1159.09,1197.45,637.9,547.22ZM633.21,559c510.5,637,1523.91,1913.22,1586.91,1992.57-36.43,30.41-102,63.68-150.38,88.2-4.95,2.51-9.68,4.9-14.13,7.18-159.6,81.43-372.46,130-569.4,130h0c-77.74,0-153.61-7.41-225.5-22-162.57-33.06-308.38-92.35-458.87-186.6-211.49-132.43-378.91-333.67-484.14-582-18.11-42.73-30.5-87.33-43.63-134.55-4.63-16.67-9.42-33.91-14.51-51.17-51.38-174.11-49.58-447.89,4.08-623.29C317,1002.81,381.44,866.43,466.4,748.17L569.54,624.62Z"/>
    <path d="M2776.33,1356.29c-1.74-29.54-3.39-57.44-9.53-85.51-16.46-75.17-37.5-162.76-68.84-242.42-77.89-197.93-197.55-366.49-355.67-501-158.29-134.66-350.24-231-570.52-286.42-77.07-19.38-171.61-28.81-289-28.83l-98.67,6.16-.52.06c-23.39,3.92-46.7,6.83-69.26,9.64-40.89,5.09-79.52,9.91-116.6,20.17-89.23,24.7-171.12,53.37-243.38,85.23-63.53,28-135.24,70.24-196.74,115.87l-4.7,3.48,3.76,4.48c121,143.92,609.44,755,1081.8,1345.91l1.82,2.28c188.16,235.4,365.89,457.75,516.78,646l3.37,4.2,4.27-3.28c47-36.06,115.83-117.88,160.54-177,61.93-81.86,111.31-166.52,151-258.81,41.23-96,71.89-199.9,93.73-317.77,9.15-49.38,28.76-174.44,13.32-269C2779.18,1404.87,2777.73,1380.19,2776.33,1356.29ZM1769.08,251.61c437.56,110,763.81,387.31,918.64,780.78,31.06,78.94,52,166,68.33,240.74,6,27.24,7.58,54.74,9.3,83.85,1.42,24.15,2.89,49.11,7,74.52,15.15,92.91-4.24,216.47-13.29,265.28-42.05,227-119.15,408.7-242.64,571.94-42.9,56.73-108.27,134.63-154.24,171.57-151.27-188.79-328.07-410-515.18-644-467.64-585-951-1189.8-1078.2-1341.63,59.8-43.83,128.75-84.2,189.93-111.18,71.77-31.64,153.15-60.13,241.87-84.69,36.31-10.05,74.55-14.81,115-19.86,22.58-2.81,45.93-5.72,69.41-9.65l97.84-6.12C1599.34,223.14,1692.94,232.46,1769.08,251.61Z"/>
    <path d="M2950.62,1386.88l-8.84-96.17-.06-.47c-23.19-123-46.48-225-84.81-322.32-72.11-183.2-175.62-344.62-307.65-479.79-130.41-133.51-288.1-240.9-468.72-319.19-94.09-40.79-182.42-70.47-270-90.74-107.08-24.77-214-36.06-326.79-34.51l-48.33,2L1302.42,57.47l-.46.07c-104.54,19.06-198.43,37.49-288.83,70C803.89,202.79,622.49,316.34,474,465,328.69,610.43,213.73,790.55,132.25,1000.37c-30.66,79-48.12,162.88-66.61,251.71l-3.48,16.73-9.83,90.45c-9.74,56.37-16.39,140.22-5.92,206.79l10.8,132.52.07.52q2.23,11.84,4.41,23.52c11.93,63.94,23.19,124.33,41,181.48,66.1,212.72,166.45,398.54,298.27,552.32,131.39,153.27,294.9,275.71,486,363.93,86.56,39.95,188.46,74.46,311.52,105.48,27.63,7,55.17,9.84,84.33,12.88,20,2.08,40.67,4.24,61.52,7.84,39.09,6.76,84.88,9.91,144.1,9.91h47.54l.42,0,166.13-13.76,1.75-.3c89.91-16.45,174.84-32,255.08-59.92,206.89-72,387.35-178.68,536.37-316.95,148.51-137.8,266.07-307.26,349.42-503.67,32.88-77.51,59.35-165.38,85.8-284.93,4.87-22,6.89-43.35,9-66,1.69-17.89,3.45-36.38,6.74-55.15C2961.2,1572.81,2962.84,1462.27,2950.62,1386.88Zm-14.81,267c-3.37,19.21-5.15,37.92-6.86,56-2.11,22.26-4.1,43.29-8.82,64.62-26.3,118.87-52.58,206.15-85.19,283-165.59,390.22-469.64,671.88-879.28,814.52-79.44,27.66-164,43.12-253.45,59.49l-1,.18-165.59,13.72h-47.3c-58.58,0-103.77-3.1-142.22-9.75-21.22-3.66-42.07-5.84-62.26-7.94-28.76-3-55.91-5.83-82.78-12.6-122.4-30.86-223.67-65.14-309.6-104.81-384-177.29-645.91-483.3-778.35-909.52-17.57-56.54-28.78-116.62-40.65-180.24l-.2-1.08q-2.07-11-4.15-22.15L57.36,1564.93l0-.37c-10.32-65.37-3.72-148,5.89-203.61L73,1270.53l3.38-16.23c18.39-88.37,35.76-171.84,66.09-249.95C307.82,578.61,602,287.09,1016.86,137.89c89.53-32.2,182.86-50.53,286.8-69.49L1436,56.65l48-2c6.43-.09,12.76-.13,19.11-.13,255.82,0,449.05,70.68,573.14,124.47,361.58,156.75,628,430.93,770.5,792.92,38,96.5,61.13,197.74,84.19,320q4.39,48,8.82,96.1l.05.34C2951.8,1462.78,2950.19,1571.93,2935.81,1653.88Z"/>
  </g>
</svg>
