<svg xmlns="http://www.w3.org/2000/svg" viewBox="0 0 2994.91 3000">
  <title>30Icon_neon 1</title>
  <path d="M2878,1776.27a647.19,647.19,0,0,0-260.47-406.73A633.08,633.08,0,0,0,2398.78,1270l-6.23-167.8c63.47-26.67,96.68-98,75.76-164l-13.83-43.66A134.24,134.24,0,0,0,2302,803.22l-75.48-120.34c52-54.55,51.23-141.24-2.35-194.82l-24.73-24.72a139.52,139.52,0,0,0-177.71-16.28l-118.53-33.77A143.43,143.43,0,0,0,1766.7,265l-27-1.28a143.7,143.7,0,0,0-144.06,101.55l-116,28.66L1478,390.8c-35.27-64.79-116.69-88.8-181.47-53.52l-40.67,22.14a133.78,133.78,0,0,0-53.53,181.47l2.81,5.15q-7.14-4.15-14.27-8.08L1133,506.21a624.28,624.28,0,0,0-239.14-74.39A638.05,638.05,0,0,0,436.65,564.93,624.15,624.15,0,0,0,274.82,756.06L191.27,908.22a624.28,624.28,0,0,0-74.39,239.14A638.17,638.17,0,0,0,250,1604.59a624.44,624.44,0,0,0,191.13,161.84L499,1798.18a624.24,624.24,0,0,0,239.13,74.39c21.13,2.13,42.56,3.21,63.67,3.21a639.1,639.1,0,0,0,393.57-136.32,624.27,624.27,0,0,0,161.83-191.13l83.55-152.17A624.24,624.24,0,0,0,1515.09,1157,638.22,638.22,0,0,0,1382,699.79c-12.92-16.4-26.76-32.28-41.2-47.28l101.13-47.57.26-.13a133.92,133.92,0,0,0,67.07-144.5L1589.56,441a143.48,143.48,0,0,0,135.7,127l27,1.28c2.31.11,4.66.16,7,.16A143.68,143.68,0,0,0,1890.33,484l74.47,21.6a139.58,139.58,0,0,0,19.29,173.19l24.72,24.72A139.92,139.92,0,0,0,2171.13,729l60.43,97.34a134,134,0,0,0-67.48,160.2l13.84,43.66a134.27,134.27,0,0,0,127.63,93.62,131.3,131.3,0,0,0,16.25-1l4.27,131.25a632.7,632.7,0,0,0-241.72-1.34,647.27,647.27,0,0,0-406.72,260.48,633,633,0,0,0-102.7,232.3l-33.33,152a633.06,633.06,0,0,0-3.88,254,647.14,647.14,0,0,0,260.47,406.72,633.22,633.22,0,0,0,232.31,102.71l46.9,10.28a641.87,641.87,0,0,0,763.4-488.9l33.32-152A633,633,0,0,0,2878,1776.27Zm-13.65,251.82h0l-1-.21-33.33,152c-35.88,163.69-133.92,304-276.05,395-102.35,65.56-219.66,100.2-339.23,100.2h0a631.25,631.25,0,0,1-135-14.69l-46.91-10.28c-163.69-35.88-304-133.92-395-276.05s-121.4-310.55-85.51-474.24l33.32-152c35.88-163.7,133.92-304,276-395,102.35-65.55,219.67-100.2,339.26-100.2a632,632,0,0,1,135,14.69l46.91,10.28c163.69,35.89,304,133.92,395,276.05s121.39,310.56,85.51,474.25ZM2249,1098.89a122.28,122.28,0,0,1-60.63-72.06l-13.83-43.66a123.18,123.18,0,0,1,80.13-154.45l34.84-11A123,123,0,0,1,2444,897.82l13.83,43.66a123.18,123.18,0,0,1-80.13,154.45l-34.83,11a122.3,122.3,0,0,1-93.83-8.08ZM1902.32,432.82l.4-8.24,108.17,30.82q-4.48,3.8-8.62,7.94l-18.18,18.18a140.79,140.79,0,0,0-12.65,14.5l-77-22.34A143.59,143.59,0,0,0,1902.32,432.82Zm73.53,75.93,1.57.46,1.34-4.6a130.35,130.35,0,0,1,13.11-15.32L2010,471.12a128.45,128.45,0,0,1,181.67,0l24.72,24.72a128.59,128.59,0,0,1,0,181.66l-18.18,18.18a128.59,128.59,0,0,1-181.66,0L1991.87,671a128.54,128.54,0,0,1-16-162.21ZM2218.6,690.89l72.11,115c-1.52.42-3,.87-4.5,1.34l-34.83,11c-3.25,1-6.5,2.21-9.71,3.5l-61-98.19A139.71,139.71,0,0,0,2206,703.46Zm166.63,575.95-46.91-10.28-1.16-.25L2332.75,1121a134.08,134.08,0,0,0,13.43-3.5l34.83-11,.68-.22,6,161.18ZM1643.85,309.05a131.5,131.5,0,0,1,88.94-34.49q3.2,0,6.41.15l27,1.28a132.43,132.43,0,0,1,126,138.57l-.84,17.73a132.43,132.43,0,0,1-138.58,126l-27-1.28c-73-3.47-129.47-65.63-126-138.57l.84-17.73A131.61,131.61,0,0,1,1643.85,309.05Zm-212.8,1081.82L1347.51,1543c-79.5,144.81-211.26,250.17-371,296.67S649.05,1868,504.24,1788.53l-57.83-31.75C146.24,1592,36.11,1213.69,200.91,913.52l83.55-152.17c109.06-198.65,318.06-322,545.43-322a620.6,620.6,0,0,1,297.83,76.55l57.83,31.75c10,5.5,20.1,11.41,30,17.58l1.83,3.28,1.82-1C1495.7,742.48,1588.8,1103.55,1431.05,1390.87Zm-98.43-746.68a624.53,624.53,0,0,0-108.82-86.82L1212,535.63a122.77,122.77,0,0,1,49.12-166.55l40.67-22.14a122.77,122.77,0,0,1,166.55,49.12l2.35,4.32,1.64,6.69,1.77-.43,12,21.95c32.36,59.42,10.39,134.07-49,166.47Zm256.12-214.33-82.16,19.77a134.19,134.19,0,0,0-10.88-26.3l-10.58-19.41,107.45-26.56a145,145,0,0,0-2.93,22.82l-.84,17.73C1588.61,421.85,1588.59,425.85,1588.74,429.86Z"/>
</svg>
