<svg xmlns="http://www.w3.org/2000/svg" viewBox="0 0 2994.91 3000">
  <title>94Icon_neon 1</title>
  <path d="M2924.1,2747.87l-.2-1.2-.11-1.67-59.33-546.68-10.93,1.19,58.08,535.16L1941.7,1912.31a1051.76,1051.76,0,0,0,146.54-250.45c53.59-129.67,80.77-267.41,80.77-409.39s-27.18-279.72-80.77-409.39A1050,1050,0,0,0,1868,508.73c-94.41-96.61-204.36-172.46-326.78-225.45a1009.92,1009.92,0,0,0-800.41,0C618.33,336.27,508.39,412.12,414,508.73A1050,1050,0,0,0,193.69,843.08c-53.6,129.67-80.77,267.41-80.77,409.39s27.17,279.72,80.77,409.39A1050.06,1050.06,0,0,0,414,1996.2c94.41,96.61,204.36,172.47,326.78,225.45a1009.92,1009.92,0,0,0,800.41,0c122.42-53,232.37-128.84,326.78-225.45q35.35-36.18,66.89-75.28l969.9,822.34-528.16,37.85.79,11,539.36-38.66,1.56,0,1.27-.15,5.09-.37ZM1141,2293.33c-560.8,0-1017-466.93-1017-1040.86S580.16,211.6,1141,211.6,2158,678.53,2158,1252.47,1701.77,2293.33,1141,2293.33Z"/>
</svg>
