<svg xmlns="http://www.w3.org/2000/svg" viewBox="0 0 2994.91 3000">
  <title>22Icon_neon 1</title>
  <g>
    <circle cx="1091.05" cy="1922.63" r="8.57"/>
    <circle cx="1971.9" cy="1950.15" r="8.57"/>
    <path d="M2921.22,1839.11c-7.47-69.19-36.22-135.38-80.95-186.37-47-53.61-109.83-89.09-182.11-103,45.46-50.14,74.93-111.28,85.41-177.39,10.24-64.63,1.44-132.22-24.77-190.32-23.53-52.16-60.09-95.33-105.75-124.84-47.59-30.76-102.58-45.88-163.65-45a368.13,368.13,0,0,0,41.44-144.77c3.87-53.27-4.11-105.94-23.07-152.3-15.52-37.95-37.77-70.64-66.13-97.17-30-28.11-66.11-48.43-107.22-60.41a260.9,260.9,0,0,0-98.51-45.46,277.64,277.64,0,0,0-105.83-2.92c-42.21,6.78-84.47,23.06-122.2,47.09a350.44,350.44,0,0,0-89.78,82.63c-14.65-115.81-61.18-214.47-135-286-69.46-67.27-160.15-107-255.37-111.87a380.42,380.42,0,0,0-255.38,81.11c-77.76,61.41-132.09,153.12-157.5,265.65-26.17-27.25-54.27-49.41-83.66-66-30.27-17.05-62-28.17-94.18-33.07-60.59-9.22-121.06,3.54-174.87,36.9-59.89,37.11-105.57,96.41-128.65,167-24.06,73.54-22,153.51,5.77,232-61.39-20.72-124.4-23.84-182.89-9a297.36,297.36,0,0,0-148.95,90.45,292.22,292.22,0,0,0-71.81,153.1c-8.57,59.16,1.65,120.26,29.54,177-56.38,46.37-95.51,112.37-110.37,186.31-14.81,73.67-4.45,149.5,29.14,214a316.13,316.13,0,0,0-78.5,148.46,323.5,323.5,0,0,0,6.64,163c15.68,51.62,44,98.21,81.84,134.71,39.4,38,87,63.84,141.61,76.87a354.81,354.81,0,0,0-21.79,133.67c1.5,46.64,12.55,92.7,31.93,133.2,17,35.44,39.82,66.21,67.93,91.46a282.8,282.8,0,0,0,186,71.55,259.38,259.38,0,0,0,40-3.1,255.94,255.94,0,0,0,107.12-43.08c35-24.31,64.7-57.67,85.81-96.46,22.14-40.68,34.68-85.9,37.26-134.39L830,2406l-6.33.56c-89.3,8-163.26-26.92-208.28-98.41-56.2-89.25-57.28-220.81-2.57-312.82,44.74-75.24,119.67-113.45,211-107.58l2.6.17,1.77-1.9c33-35.27,56-78.52,68.23-128.53,10.76-43.86,12.79-92.59,5.92-141.25,58.5-8.84,117.6-38.29,166.94-83.29,48.6-44.32,84.53-100.49,101.52-158.59a219.17,219.17,0,0,0,23.34,1.25c56.27,0,113.87-22,166.55-63.51,42.18-33.25,79.62-77.68,108.3-128.5,22.69-40.2,38.67-82.24,46.88-123,10.75,40.33,30.87,81.45,59,120.3,34.3,47.32,78.1,88.22,126.67,118.27,53.87,33.34,110.15,51,162.75,51a221.32,221.32,0,0,0,61.91-8.64c13.74,56.34,44.64,112.13,87.42,157.66,43.84,46.66,97.93,79.82,152.85,93.81-14,47.39-18.39,99.48-12.34,147.31,6.88,54.51,26.75,101.93,57.45,137.14l1.79,2,2.71-.17c152.32-9.66,238.09,112,253.3,229.08,15.09,116.15-35.68,254.4-182.82,283.46l-4.54.9.12,4.64c1.08,41.27,9.62,79.53,25.38,113.72a241.44,241.44,0,0,0,64.35,84.65c47.16,39.57,108.35,60.48,176.95,60.48a358.11,358.11,0,0,0,52.55-4c101-13.65,174.71-67.79,207.64-152.46,40.58-104.33,12.5-238-71.45-342.42,64.78-27.26,115.82-72.39,147.89-130.88C2916.09,1970.75,2928.43,1906,2921.22,1839.11ZM2726.64,2150l-7.09,2.79,4.88,5.85c85.13,102.18,114.33,234.54,74.4,337.19-31.42,80.77-102,132.46-198.94,145.56-85.64,12.8-164.09-6.39-220.88-54-52.22-43.82-82.55-109.62-85.65-185.64,67.27-14.49,120.3-52.5,153.55-110.14,30.22-52.42,42.1-118,33.45-184.59-8.72-67.1-37.3-127.87-80.47-171.12-48-48.12-110.83-71.49-181.7-67.68-63.8-75.24-65.89-193.3-39.44-277.51l1.78-5.67-5.8-1.34c-112-25.78-212.5-131.05-239.07-250.33l-1.33-5.89-5.73,1.86c-66.73,21.54-145.29,7.53-221.21-39.45-97.28-60.21-172.38-165-186.87-260.68l-6.36-42.07-4.54,42.3c-10.62,98.88-73.19,209-155.71,274.09-59.53,46.94-124,67.49-186.39,59.42l-4.74-.6-1.27,4.6c-33.29,121.11-147.69,223.95-266.1,239.22l-5.6.72.87,5.57c16,103-9.07,199.13-68.74,264.22-94.49-5.24-172,34.86-218.53,113.08C575.9,2036,561,2093.89,561.47,2152.8S577.8,2269,606.12,2314c22.42,35.6,51.6,62.73,86.72,80.61,36.81,18.75,79,26.61,125.48,23.41-6.51,89.93-49.29,168.46-118,216.12-64.55,44.79-142.78,56.06-220.29,31.72-72.44-22.75-130.87-74-164.51-144.26-38.8-81.08-41.56-177.32-7.55-264.06l2.35-6-6.3-1.38c-106.7-23.35-189.5-100.16-221.49-205.46-33-108.76-6.11-222.22,72-303.5l2.78-2.89-1.9-3.53c-70.54-131.21-36.15-300.08,80-392.8l3.52-2.8-2-4c-55.64-109.46-40.82-232.75,38.68-321.75,55.28-61.89,131.82-96,215.52-96,38.53,0,77.36,7.21,115.42,21.43L618,943.18l-4.42-11.42C543.85,751.12,624,599.49,727.92,535.06c87.56-54.27,224.44-64.94,346,67.89l7.25,7.93,2.19-10.52c56-269.46,252.53-356,403.78-348.3,170.21,8.7,354.22,136.39,381.61,402l1.52,14.72,8.46-12.13c51.16-73.29,128.83-123.09,213.08-136.62,71.23-11.44,141.13,5.23,196.81,46.93l.36.27,1,.49.44.13c76.91,22.11,136.28,75.89,167.18,151.44,37.51,91.72,28.93,205.13-22.4,296l-4.87,8.61,9.88-.41c119.87-5,220.26,56,268.58,163.08,54.11,120,27.78,265.84-65.51,363l-7.27,7.56,10.35,1.68c164.22,26.72,250.89,160.61,263.93,281.46C2925.19,1978.44,2853.11,2100,2726.64,2150Z"/>
    <path d="M1514.21,2350.06h2.13a237.89,237.89,0,0,0,91.33-18.17,240.58,240.58,0,0,0,78-51.84c45.84-45.5,71-106.83,70.95-172.69a237.78,237.78,0,0,0-71.06-170c-45.51-45-106.08-69.85-170.55-70.07h-.82a236.53,236.53,0,0,0-89.44,17.57,241.71,241.71,0,0,0-76.57,49.61c-47,45-73.51,106.57-74.55,173.31a243.51,243.51,0,0,0,67.89,168.72C1386.56,2323.34,1447.9,2349.48,1514.21,2350.06Zm-229.62-242.27c2-128.71,102.84-229.54,229.52-229.54h.82c127,.43,230.48,103.22,230.65,229.12.08,62.91-24,121.46-67.69,164.87-43.25,42.92-103,67.38-163.59,66.81C1385.42,2337.93,1284.52,2236.35,1284.59,2107.79Z"/>
    <path d="M1871.71,2408.67h0c-56.13,4.27-89.33,44.14-124.49,86.35-37.49,45-76.26,91.6-146.79,98.3-88,7.14-163.88,2.18-225.56-14.74-30.33-9-73.29-51.4-111.21-88.79-20.15-19.88-39.2-38.66-54.35-50.37-52.91-40.9-102.18-45.76-135.17-13.32-18,17.65-26.91,43.24-24.56,70.2,2.58,29.67,20.07,74.95,88.74,122.24,35.45,24.42,94.69,56.45,138.31,78.29,66.88,33.48,141.54,50,228.25,50.52,6,.16,11.95.25,17.76.25h0c70.58,0,131.79-11.73,192.61-36.9,60.6-25.08,117.07-61.72,182.45-104.14l.43-.27q10.69-6.95,21.75-14.09c26.38-17,45.72-38.11,56-60.92,9.54-21.29,11-43.18,4.23-63.31C1966.65,2428,1924.11,2404.71,1871.71,2408.67ZM1505,2736.35c-85-.5-158.09-16.64-223.45-49.36-43.29-21.67-102-53.41-137-77.5-65.14-44.87-81.65-86.83-84-114.14-2.06-23.69,5.7-46.07,21.31-61.41a60.85,60.85,0,0,1,44-18c22.93,0,49.44,11.13,76.69,32.19,14.63,11.31,33.44,29.86,53.36,49.51,38.85,38.31,82.88,81.73,115.86,91.51l.1,0c62.93,17.27,140.12,22.36,229.49,15.11,75.12-7.14,115.37-55.47,154.29-102.22,33.62-40.37,65.37-78.51,116.87-82.42,47.21-3.59,85.33,16.77,97.14,51.84,10.09,30,.74,75-55.73,111.48-7.54,4.87-14.92,9.66-22.25,14.41-124.59,80.83-214.61,139.23-369.19,139.22-5.72,0-11.57-.08-17.4-.24Z"/>
  </g>
</svg>
