<svg xmlns="http://www.w3.org/2000/svg" viewBox="0 0 2994.91 3000">
  <title>100Icon_neon 1</title>
  <g>
    <path d="M1726.44,2796.6,1723,2798v62.07l521.84-197.71,4.1-1.56-9.57-69.06Zm7.54,47.53v-38.69l496.4-198.28,6.44,46.46Z"/>
    <path d="M1357.73,2797.27l-244.41-106.44-7.69-3.35v261.95l251.06-106.18,263,108.83-4.16-265.83Zm1,34.94-2.13-.88-240,101.51V2704.27l238.89,104,2.18.95,247.14-106.4,3.64,232.67Z"/>
    <path d="M2446.35,276.3c.26-53.78.53-109.4,0-159.72l-.16-14.76-9.54,11.26c-49.78,58.77-98.68,109.91-146,159.38-155.85,163-290.44,303.71-351.5,613.22l-.07.37,0,.38c-6.58,147.49-31.63,487.57-36.93,558.81-30.49-38.17-69.32-86.59-107-133.53l-.37-.46c-42.3-52.74-86-107.28-118.43-147.88C1544.75,969.8,1431.68,811.25,1276,679.85,1058.32,496.16,820.58,307.17,557.12,169.24l-9.52-5L581,396.76l0,.31c23.28,111.68,67.29,218.38,130.8,317.13C768.19,801.87,841.93,886.26,931,965c174.53,154.4,386.1,268.71,550.92,351l.35.16c34.37,14,87.18,37,138.26,59.34,41.9,18.31,85,37.13,118.14,51-66.42,7.19-203.42,23.13-255.18,31.51-108.11,17.51-207.73,52-296.1,102.41-86.31,49.28-159.52,112.42-217.61,187.65-46.31,60-74.78,122-84.6,184.2-9,57.2-2.4,114.53,19.74,170.4,17.39,43.89,44.21,86.5,79.71,126.65,33.4,37.77,73.87,72.73,120.3,103.9,87.29,58.62,190.39,100.25,291.14,117.67-24.87,41.26-40.92,80.39-47.75,116.38-9.54,50.28-1,94.16,25.46,130.42l2.64,3.62L1713.83,2548l6.05,139,.33,7.8,7.23-2.94c3.13-1.27,324-131.75,501.16-204.18l2.36-1,.78-2.41c57.34-174.38,78.43-370.79,57.88-538.87-16.52-135.12-67.79-317.14-217.92-420.62,33.89-46.47,64-91.41,93.1-134.92,30-44.86,61.09-91.26,96.24-139.2l.27-.43c118.82-202,181.07-475.8,185-813.67v-.12C2445.81,386.05,2446.08,330.26,2446.35,276.3Zm-11,160.24c-3.95,335.77-65.64,607.6-183.36,807.91-35.21,48-66.28,94.45-96.34,139.35s-61.05,91.21-96.18,139.13l-3.4,4.63,4.77,3.19c150.31,100.55,201.44,281.74,217.86,416,20.27,165.74-.37,359.39-56.62,531.69-162.39,66.38-443.72,180.81-491.55,200.27l-6.42-147.5-344,156.41c-51.18-74.94-12.39-170.45,29.6-237.85l4.37-7-8.17-1.31c-188.33-30.17-417.38-157.59-490.74-342.75-44.85-113.17-22.94-232.07,63.34-343.82,116-150.26,296-251.81,506.76-285.93,56.53-9.15,219.5-27.91,276.07-33.71l22-2.26-20.45-8.31c-34.31-14-87-37-138-59.23s-103.78-45.33-138.22-59.33C1097.53,1111.74,687,851.47,591.81,395L561.54,184c258.76,137,492.82,323.21,707.34,504.26,154.68,130.53,267.32,288.52,398.51,481.49l.23.31c32.4,40.6,76.21,95.23,118.59,148.07,41.47,51.71,84.35,105.18,116.07,144.92L1911,1474l1-14c1.25-16.62,30.63-408.66,38-572.66,60.47-306,194-445.66,348.58-607.3,44.38-46.41,90.19-94.3,136.88-148.67.35,46.25.1,96.3-.13,144.85C2435.08,330.23,2434.81,386,2435.35,436.54Z"/>
  </g>
</svg>
