<svg xmlns="http://www.w3.org/2000/svg" viewBox="0 0 2994.91 3000">
  <title>102Icon_neon 1</title>
  <g>
    <path d="M2952.19,304.51c-8.37-38.53-29.89-99.54-53.29-136.7-16.9-26.84-49.27-60-107.52-65.63-71.48-6.89-110.09,21.35-138.43,49.88-19,19.15-54.68,58.19-79.66,104.42-20.74,38.37-45.26,87.26-71.24,139.07-35.29,70.39-71.79,143.18-101.52,194.79-51,88.49-173.39,292.3-238.92,385.11-68.19,96.57-304.89,377.09-307.27,379.91l-9.09,10.77,137.23-17.28-1.37-10.92-109.3,13.77c43.24-51.43,238.13-284,298.78-369.9,65.73-93.1,188.4-297.32,239.47-386C2440,543.94,2476.52,471,2511.89,400.48c25.92-51.7,50.4-100.53,71.07-138.77,24.34-45,59.19-83.16,77.8-101.9,26.52-26.7,62.67-53.13,129.56-46.68,53.81,5.18,83.68,35.79,99.27,60.54,22.73,36.1,43.68,95.56,51.86,133.18,8.22,37.83,5.45,114.38-.07,150.46-10.09,66-54.38,193.56-81.14,259-83.36,203.85-311.38,583.29-356.24,657.28-24.79,40.89-112.22,156.47-133.24,184.14l-34.41-56.29-.22-.37-58.78-67.17-8.28,7.25,58.17,66.46,42.51,69.57,4.88-6.38c4.5-5.89,110.4-144.7,138.78-191.5,44.93-74.12,273.34-454.21,357-658.82,27-65.93,71.61-194.63,81.84-261.49C2957.9,422.08,2960.68,343.56,2952.19,304.51Z"/>
    <polygon points="2219.93 1401.29 2225.84 1392.01 2173.25 1358.48 2172.55 1358.04 2081.38 1335.59 2078.76 1346.28 2168.16 1368.28 2219.93 1401.29"/>
    <path d="M944.49,966.76c.33.06.67.11,1,.14l4.87.37.47-4.68c17.59-6.88,94-24.62,187.23-31.05,14.2-1,89.61-5.41,180.16,3.49C1371.61,940.28,1425,971,1477,1026.21c98.2,104.43,130.28,161.14,143.06,252.85,12,86.14,1.86,159,1.75,159.68l-2,13.86,138.81-112.19,2.18-1.76-.14-2.78c-.05-1-4.74-96.89-23.21-140.34-56.59-133.09-128.89-208.85-178.34-254.25-18.6-17.08-56.68-43-107.81-64.5-37.82-15.92-94.59-34.2-150.29-30.9-103,6.1-160,23.81-205.76,38l-5.89,1.83a688.94,688.94,0,0,0-103,41.77c-8.83,4.46-37.56,19.33-44.9,27.67a7.28,7.28,0,0,0-2.71,3.39L920.2,975.07l21.29-9.37A8.81,8.81,0,0,0,944.49,966.76Zm689.69,460.07a663.42,663.42,0,0,0-3.27-149.29c-6.81-48.87-18.64-85.73-39.57-123.24C1570,1116,1537.17,1074.18,1485,1018.67c-53.83-57.25-109.56-89.07-165.66-94.59-37.19-3.65-76-5.51-115.33-5.51-35,0-59.88,1.53-66.66,2a1110.37,1110.37,0,0,0-135.93,18c-6.88,1.37-14.34,2.95-21.58,4.62a670.35,670.35,0,0,1,112.78-47l5.89-1.84c45.2-14,101.45-31.53,203.15-37.56,99-5.87,211.71,57.36,250,92.52,48.7,44.71,119.9,119.33,175.65,250.46,15.91,37.42,21.29,118.12,22.2,133.78Z"/>
    <path d="M2258.84,1525.4c-30.45-36.91-115.55-95.42-164.2-107-47-11.19-190.3,20.69-191.74,21l-11.89,2.67,9.87,7.15c16.38,11.89,61.32,46.16,72.33,61.81,41.28,58.63,86.38,193.63,98.1,257.19,12.46,67.54,12.45,208.06,0,278.44-14.09,79.61-70.31,241.56-115.84,317.06-26.88,44.6-141.67,156.79-142.83,157.92l-36,35.06,42.7-26.44c2.57-1.6,257.69-159.88,328.25-229.89,52.92-52.51,141.19-166,164.72-231.63,13.74-38.3,24.24-101.85,28.81-174.36,4.3-68.19,2.8-134.39-4-177.09C2329.4,1668.86,2293.12,1566.94,2258.84,1525.4Zm-119,767.17c-52.25,51.84-210.07,154.62-284.8,202.19,36.75-37.4,91.81-95.49,109.82-125.35,46.09-76.45,103-240.31,117.24-320.82,12.63-71.36,12.62-213.85,0-282.35-11.89-64.51-57.81-201.72-99.92-261.54-10.82-15.35-46.91-43.44-65.07-57.1,54.48-11.41,142.76-26.16,175-18.5,46.8,11.14,128.83,67.64,158.26,103.3,33.17,40.2,68.37,139.39,75.91,186.63,13.56,84.9,4.84,264.83-24.28,346C2279,2129.18,2192.07,2240.79,2139.88,2292.57Z"/>
    <path d="M2426.92,1687.62l-10.12-7.49,20,180.87,0,.49.35,1.11.23.43c.65,1.19,65.1,120,74.68,168.15,8.6,43.14,18.94,127.4,16,173.38-2.64,41.27-9.18,76.54-16.1,113.93-3.35,18.06-6.81,36.72-9.93,56.7-7.29,46.57-18.11,106.17-23.3,134.81-1,5.34-1.75,9.63-2.28,12.6-.38,2.13-.6,3.34-.71,4.19l-1.35,4.11,1.49.57-.21,1.19,1.56-.59a5.45,5.45,0,0,0,2.82,1.45,5.67,5.67,0,0,0,1.15.12c3,0,4.36-1.89,5.07-3.94,11.26-4.5,52.77-22.79,88.64-60.77,27.79-29.43,47.92-92.2,59.84-186.55,9.2-72.84,10.67-142.24,10.88-168.7.48-61.89-13.14-174.83-44.94-232.14C2539.76,1771.71,2428,1688.44,2426.92,1687.62Zm61.78,829.08c.27-1.49.56-3.07.86-4.74l0-.11c5.2-28.67,16-88.34,23.32-135,3.11-19.82,6.55-38.42,9.89-56.45,7-37.67,13.57-73.25,16.26-115.18,3-46.92-7.47-132.5-16.19-176.23-9.43-47.33-68.9-158.46-75.29-170.3l-17-154.33c28.89,23.2,111.49,94.07,160.54,182.48,30.83,55.56,44,166,43.56,226.71-.16,20.48-1.41,93.06-10.76,167.27-11.44,90.74-31.14,153.16-57,180.51C2537.75,2492.26,2504.25,2509.69,2488.7,2516.7Z"/>
    <path d="M1687,952.37c30.17,35.93,77.43,116.86,96.44,159.91,15.23,34.48,43.12,146,43.4,147.07l2.18,8.74,29.22-25.57-1-3.39c-1.31-4.37-32.08-107.47-47.15-139.31-20.1-42.49-68.37-122.54-108.13-159.4-27.41-25.41-106.16-74.83-107-75.32l-4.17-2.61-5.9,9.08,4.07,2.75C1589.73,874.82,1664.13,925.17,1687,952.37ZM1835.27,1248c-7-27.54-28.77-110.66-41.8-140.14-16.2-36.68-52.65-100.51-82.11-141.71,34.65,39.78,71.83,102.61,88.76,138.4,13.29,28.09,40.12,116.38,45.53,134.37Z"/>
    <path d="M52.05,2610.25l40.22,125.94,1.7,5.28,163.81-54.2L212,2557.42Zm49,117.29L65.84,2617.27l139.32-46,38.52,109.1Z"/>
    <path d="M1957,2019.36l.49-1.58c17.7-58.39,24.3-139.53,17.66-217-3.65-42.6-11-82.4-22-118.32-12.1-39.76-28.29-73.75-48.13-101-37.28-51.25-86.23-77.81-145.52-78.92h-.29l-.27,0c-70.06,6.32-137.86,66.23-192.34,114.37-7.69,6.81-15,13.24-21.89,19.19l-195.86,144c-212.61,140.55-477.46,286.46-732,423.2l-2.58,1.38-.29,2.93c-15.76,164.16-130.51,341.65-312.11,347.28l-8.36.26,3.55,7.57a684.61,684.61,0,0,1,25.4,64.91l2.81,8.43,6.29-6.29c189.67-189.76,379.39-165.83,626.7-111.33l1.44.32,1.41-.45c33.95-10.88,78.78-25.9,122.14-40.42l.26-.09c43-14.42,87.54-29.32,121.16-40.1,135.09-42.3,269.11-100.65,398.34-173.42,121.88-68.64,240.55-150.67,352.71-243.81Zm-60.85-431.5c82.54,113.48,82.81,319.13,51.28,425.15-232.06,192.46-483.05,331.78-746.06,414.15-33.73,10.8-78.26,25.72-121.33,40.15l-.27.09c-42.71,14.31-86.85,29.1-120.58,39.92-110.86-24.41-228.08-47.15-336.51-35.58-111,11.83-204.16,57.65-292.62,144-7.87-22.53-15.47-40.66-19.67-50.29,182-10.69,297.24-188.55,314.27-353.92,254-136.47,518.07-282,730.4-422.4l196.37-144.37.3-.24c7-6,14.3-12.46,22-19.3l.15-.13c53.19-47,119.36-105.49,185.73-111.62C1815.11,1514.6,1861,1539.63,1896.12,1587.86Z"/>
  </g>
</svg>
