<svg xmlns="http://www.w3.org/2000/svg" viewBox="0 0 2994.91 3000">
  <title>98Icon_neon 1</title>
  <g>
    <path d="M1145.3,1499.06l3.9-3.89L960.87,1306.31,609.49,1655.8,263,1317.34l-3.9-3.8-187,187.54,344.05,346.06L80.55,2186.08,76.7,2190l184.42,184.95,3.9,3.9,340.73-341.57,350,348.2,3.89,3.88,184.45-185,3.86-3.88L795.34,1847.14ZM265,2363.23,92.21,2189.93,427.83,1851l3.83-3.88-344-346L259.23,1329l346.45,338.43,3.88,3.79,351.28-349.39,172.79,173.29-350,348.09-3.91,3.88,352.63,353.36-172.8,173.3-350-348.2-3.89-3.88Z"/>
    <path d="M2040.41,1151.22l3.9-3.88-184.45-185-3.87-3.89L1504.6,1308,1158.13,969.51l-3.9-3.8L971.09,1149.38l-3.85,3.87,344,346.06L975.66,1838.25l-3.84,3.88,184.41,184.94,3.9,3.9,340.73-341.56,350,348.2,3.89,3.88,184.45-185,3.86-3.89-352.58-353.32ZM1160.13,2015.4l-172.8-173.3,335.61-338.93,3.83-3.88-344-346,171.59-172.07,346.45,338.43,3.88,3.79L1856,974l172.79,173.29-350,348.09-3.92,3.88,352.63,353.36-172.8,173.3-350-348.2-3.89-3.88Z"/>
    <path d="M2926.93,802.1l3.9-3.88-184.44-185-3.88-3.89L2391.12,958.84,2044.65,620.39l-3.9-3.8-187,187.53,344.05,346.06-335.61,338.94-3.85,3.88,184.41,185,3.9,3.9,340.73-341.57,350,348.2,3.9,3.88,184.44-185,3.87-3.89L2577,1150.19Zm-880.28,864.17L1873.85,1493,2209.46,1154l3.83-3.88-344-346,171.59-172.07L2387.31,970.5l3.88,3.78L2742.47,624.9l172.79,173.29-350,348.08-3.91,3.89L2914,1503.52l-172.8,173.29-350-348.2-3.89-3.87Z"/>
  </g>
</svg>
