<svg xmlns="http://www.w3.org/2000/svg" viewBox="0 0 2994.91 3000">
  <title>96Icon_neon 1</title>
  <g>
    <path d="M2501,1305.46V1753h432.61V1305.46ZM2512,1742V1316.46h410.61V1742Z"/>
    <path d="M54.87,1753H488.12V1303.42H54.87Zm422.25-438.61V1742H65.87V1314.42Z"/>
    <path d="M2376.62,1292.26l-10.75,2.35,1.06,4.88a911.44,911.44,0,0,1,20.79,193.81c0,495.67-400.11,898.92-891.9,898.92S603.92,1989,603.92,1493.3s400.1-898.91,891.9-898.91a884.28,884.28,0,0,1,474.9,137.88l4.22,2.68,5.9-9.28-4.22-2.68A897.41,897.41,0,0,0,857.36,849.91a907.29,907.29,0,0,0-193.49,289.23c-47.08,112.17-71,231.33-71,354.16s23.87,242,71,354.17a909.64,909.64,0,0,0,480.48,484.24,897.62,897.62,0,0,0,989.93-195,907.62,907.62,0,0,0,193.49-289.23c47.07-112.18,70.95-231.34,70.95-354.17a922.25,922.25,0,0,0-21-196.15Z"/>
  </g>
</svg>
