<svg xmlns="http://www.w3.org/2000/svg" viewBox="0 0 2994.91 3000">
  <title>108Icon_neon 1</title>
  <g>
    <path d="M2143.25,1173.34c83.09-31.64,148.41-68.56,194.13-109.74,48-43.24,72.37-89.4,72.37-137.18s-24.35-93.95-72.37-137.19c-45.72-41.17-111-78.09-194.13-109.74-82.8-31.54-179.18-56.29-286.46-73.57C1745.81,588,1627.94,579,1506.45,579s-239.37,9.06-350.34,26.94c-107.28,17.28-203.66,42-286.46,73.57-83.09,31.65-148.41,68.57-194.13,109.74-48,43.24-72.38,89.4-72.38,137.19s24.35,93.94,72.38,137.18c45.72,41.18,111,78.1,194.13,109.74,82.8,31.54,179.18,56.29,286.46,73.57,111,17.88,228.84,26.94,350.34,26.94s239.36-9.06,350.34-26.94C1964.07,1229.63,2060.45,1204.88,2143.25,1173.34ZM2330,1055.43c-44.71,40.26-108.87,76.47-190.69,107.63-169,64.36-393.72,99.79-632.88,99.79s-463.93-35.43-632.89-99.79c-81.82-31.16-146-67.37-190.68-107.63-45.61-41.07-68.74-84.48-68.74-129s23.13-87.95,68.74-129c44.71-40.26,108.86-76.48,190.68-107.64,169-64.35,393.73-99.79,632.89-99.79s463.92,35.44,632.88,99.79c81.82,31.16,146,67.38,190.69,107.64,45.61,41.07,68.73,84.47,68.73,129S2375.63,1014.36,2330,1055.43Z"/>
    <path d="M2950.42,1453a707.49,707.49,0,0,0-71-197.18c-31.76-58.81-71.49-111.18-114.89-151.44-26.35-24.43-93.94-68.48-94.61-68.92l-5.56-3.63-2.53,6.14c-48.09,116.75-111.36,250.86-165.13,350-42.2,77.81-90,166-148.12,230.06-77,85-171.91,164-263.67,240.41-47,39.11-95.52,79.55-139.9,119.43-14.4,13-29.1,25.76-43.32,38.15-52.36,45.63-101.82,88.73-144.74,143.72-54.38,69.65-130.91,217.23-131.68,218.71l-10.47,20.26,18.56-13.26c.28-.21,29-20.73,51.42-35.27,3.65-1.41,32.19-10.67,57.93-18.9l.53-.21c2.52-.94,14.25.3,22.82,1.21,21.36,2.25,48,5.06,63.34-2.89,33.41-17.28,65.05-40,99.61-71.58l54.06-50.62,0-2.42c-.24-23.87,2.34-71.58,5.28-108.46,3.29,15.5,7.12,33.76,10.69,50.8l.16.78c5.4,25.73,10.49,50,12.31,57.91l.18.6c1.42,3.87,2.63,7.46,3.8,10.94,6,17.92,10.81,32.07,35.27,53.52,20.2,17.69,50.8,26.93,82,26.93,22.93,0,46.2-5,65.91-15.26,33.11-17.27,67.24-51.1,93.63-92.82,28-44.29,45-93.42,47.79-138.34l.12-1.87-1-1.55c-10.34-15.33-21.2-49.92-28.34-90.26-5.35-30.17-7.65-58.18-6.76-80.43,4.21,12.67,9.43,27.8,14.29,41.88,3.43,9.94,6.68,19.33,9.26,27,8.77,29.66,29.43,82.4,69.48,103.19,31.29,16,63.63,22,96.11,17.69,53.53-7.12,93.19-30.4,121.26-71.19,27.06-39.33,39.08-89.68,46.52-129.2,6.21-22.72,11.42-118.11,2.51-147.62l-.1-.33-.53-1a116.91,116.91,0,0,1-7.17-14.39,127.31,127.31,0,0,0-7.76-15.5c-14.65-29.18-31.09-104.34-35.29-154.9l3,7.51,0,.13c14.26,35.77,33.8,84.75,52.72,120.87a273.75,273.75,0,0,0,57.33,71.65c27.19,23.93,56.21,38.49,83.94,42.09a108.7,108.7,0,0,0,14.09.93c31.29,0,60.3-14,86.42-41.61,24.8-26.26,41.35-68.66,47.85-122.62C2963.89,1563,2961.2,1506.65,2950.42,1453Zm-139.36,311.18c-55.17-7.18-106.55-59.46-133-108-18.62-35.53-38-84.21-52.21-119.76-5.83-14.6-10.86-27.21-14.54-35.65l-9.22-21.15-1.32,23c-2.55,45,18.78,153.45,37.41,190.31l.24.43a117,117,0,0,1,7.16,14.35,134.73,134.73,0,0,0,7.51,15.12c7.81,27.66,2.8,120.88-2.84,141.06l-.09.42c-17.1,90.93-48.14,177.1-158.47,191.76-30.22,4-60.38-1.56-89.62-16.55-36.44-18.92-55.74-68.67-64-96.64l-.06-.19c-2.64-7.84-6.05-17.7-9.36-27.28-9-26.1-19.22-55.68-21.74-66l-5.62-23-5.09,23.08c-5.56,25.16-4.2,65.27,3.72,110,7.16,40.43,18.2,75.7,29,92.88-6.76,96-75.31,188.94-135.41,220.28-42.86,22.35-103.69,17.77-135.6-10.19-22.23-19.49-26.16-31.13-32.1-48.78-1.16-3.45-2.36-7-3.77-10.84-1.86-8.11-6.95-32.4-12.34-58.11-7.2-34.38-15.37-73.34-18.26-85.39l-7.17-29.83-3.64,30.46c-3.8,31.74-8.75,108-8.68,142.37l-50.49,47.27c-33.78,30.86-64.66,53.06-97.19,69.89-12.46,6.44-39.35,3.6-57.14,1.72-15.2-1.61-23.51-2.37-28.15-.44-57.88,18.51-59.14,19.32-59.9,19.81-10.92,7.08-23.4,15.62-33.45,22.61,22.76-42.55,78.13-143.29,119.91-196.81,42.27-54.16,91.34-96.92,143.3-142.2,14.24-12.41,29-25.24,43.44-38.26,44.2-39.71,92.68-80.09,139.59-119.16,92-76.66,187.21-155.93,264.78-241.47,59-65,107.14-153.84,149.64-232.21,53-97.66,115.19-229.27,163.09-344.87,16.79,11.12,66.36,44.45,87.59,64.13,88.89,82.46,155.46,207.37,182.63,342.71,19.12,95.23,15,216.17-37.48,271.68C2874.72,1755.9,2844.07,1768.46,2811.06,1764.18Z"/>
    <path d="M1239.68,2159.72c-42.92-55-92.38-98.09-144.74-143.72-14.22-12.39-28.92-25.2-43.33-38.15-44.37-39.88-92.93-80.32-139.91-119.45C820,1782,725.08,1703,648,1618,590,1554,542.13,1465.76,499.92,1388c-53.76-99.13-117-233.23-165.12-350l-2.53-6.14-5.56,3.62c-.68.45-68.27,44.5-94.61,68.93C188.7,1144.64,149,1197,117.21,1255.82a707.51,707.51,0,0,0-71,197.18c-10.77,53.65-13.47,110-7.59,158.78,6.51,54,23.06,96.36,47.86,122.62,26.12,27.66,55.13,41.61,86.42,41.61a108.81,108.81,0,0,0,14.09-.93c27.72-3.6,56.75-18.16,83.93-42.09a273.57,273.57,0,0,0,57.37-71.73c18.88-36,38.42-85,52.69-120.79l.05-.13q1.54-3.85,3-7.52c-4.2,50.56-20.63,125.71-35.27,154.87a128.13,128.13,0,0,0-7.78,15.55,117.45,117.45,0,0,1-7.18,14.38l-.18.29-.44,1.07c-8.92,29.51-3.71,124.87,2.5,147.58,7.44,39.54,19.47,89.91,46.53,129.24,28.06,40.79,67.73,64.07,121.26,71.19,32.48,4.31,64.81-1.64,96.13-17.7,40-20.78,60.68-73.5,69.44-103.16,2.6-7.68,5.84-17.07,9.29-27.07,4.85-14,10.07-29.16,14.28-41.82.88,22.25-1.42,50.26-6.76,80.43-7.14,40.34-18,74.93-28.33,90.25l-1.06,1.56.12,1.87c2.8,44.92,19.76,94.05,47.78,138.34,26.4,41.72,60.52,75.55,93.64,92.82,46.54,24.26,112.9,19,147.94-11.68,24.46-21.44,29.23-35.59,35.28-53.55,1.16-3.46,2.37-7,3.81-11l.18-.59c1.8-7.84,6.93-32.28,12.35-58.15l.11-.56c3.57-17,7.39-35.25,10.68-50.72,2.94,36.88,5.52,84.59,5.28,108.47l0,2.41,54.11,50.66c34.51,31.53,66.14,54.26,99.56,71.54,15.38,8,42,5.14,63.35,2.89,8.58-.91,20.33-2.15,22.82-1.2l.57.22c22,7,53.93,17.36,57.87,18.87,22.41,14.55,51.14,35.07,51.43,35.28l18.56,13.26-10.47-20.26C1370.59,2377,1294.05,2229.37,1239.68,2159.72Zm77.77,181c-.58-.37-2.12-1.37-59.83-19.77a21,21,0,0,0-8.09-1.18c-5.13,0-12.07.74-20.12,1.59-17.79,1.88-44.67,4.72-57.13-1.72-32.53-16.83-63.41-39-97.15-69.84l-50.54-47.32c.08-34.41-4.88-110.63-8.67-142.37l-3.65-30.46-7.16,29.83c-2.89,12-11.06,51-18.27,85.38l0,.15c-5.37,25.65-10.45,49.88-12.29,57.91-1.43,3.92-2.63,7.48-3.79,10.92-5.94,17.63-9.86,29.27-32.09,48.76-31.92,28-92.75,32.54-135.61,10.19-60.09-31.34-128.65-124.27-135.4-220.28,10.81-17.18,21.85-52.45,29-92.88,7.92-44.75,9.28-84.86,3.73-110l-5.1-23.08-5.61,23c-2.52,10.29-12.74,39.87-21.77,66-3.29,9.54-6.69,19.39-9.34,27.25l-.06.19c-8.26,28-27.55,77.7-64,96.61-29.27,15-59.43,20.58-89.64,16.56-110.34-14.66-141.37-100.85-158.48-191.8l-.1-.43c-5.63-20.16-10.63-113.34-2.83-141a132.77,132.77,0,0,0,7.53-15.15,118,118,0,0,1,7.17-14.37l.24-.42c18.62-36.85,39.93-145.32,37.38-190.27l-1.31-23-9.22,21.14c-3.69,8.45-8.72,21.06-14.54,35.67-14.18,35.54-33.6,84.22-52.17,119.67-26.46,48.64-77.85,100.92-133,108.1-33,4.28-63.65-8.27-91.1-37.34C42,1671.33,37.83,1550.39,57,1455.16c27.17-135.34,93.73-260.25,182.63-342.71,21.22-19.68,70.79-53,87.59-64.13,47.89,115.6,110.11,247.2,163.08,344.88,42.51,78.36,90.68,167.18,149.65,232.2,77.56,85.54,172.74,164.81,264.81,241.49,46.88,39,95.36,79.43,139.55,119.14,14.48,13,29.21,25.85,43.45,38.26,52,45.28,101,88,143.3,142.2,41.78,53.52,97.15,154.26,119.91,196.81C1340.87,2356.31,1328.38,2347.77,1317.45,2340.68Z"/>
  </g>
</svg>
