<svg xmlns="http://www.w3.org/2000/svg" viewBox="0 0 2994.91 3000">
  <title>106Icon_neon 1</title>
  <path d="M2693.56,766.49a884.55,884.55,0,0,0-99.45-202.43c-41.35-62.31-89.87-117.72-144.23-164.71a717,717,0,0,0-142.6-96.41,654,654,0,0,0-162-57.56c-119.16-25.17-241.83-15.94-364.62,27.44C1716.34,292,1641.73,340,1603,366.94c-36.94,25.65-92.71,68.56-99.2,84.49-.39.46-.75.91-1.11,1.33l-.11.14c-1.25,1.51-2.85,3.45-3.92,4.48a64,64,0,0,1-6.43-8.58l-.23-.33-.27-.3c-33.38-35.67-158.86-128.83-192.47-142.93C1217.79,259.78,1097.39,232,982.75,232L978,232v0l-10,.14v0c-55.21,1.25-111.43,10.43-167.19,27.32-53.67,16.27-107.16,39.72-159,69.73C560.21,376.49,488.25,442,428,523.78c-59.74,81.08-104.83,173.83-134,275.69-30,104.81-41.63,214-34.46,324.64,7.59,117.25,36.17,232.14,84.93,341.47,26.8,60.08,63,118,110.55,177,42.37,52.54,89.78,101.22,135.64,148.31,38.11,39.14,77.53,79.61,114.09,122.31l.13.15,789.08,852.09.95,1,8.27,2.75,732-791.62.12-.14c43.55-50.88,88.87-98.38,132.74-144.37,155.39-162.88,302.15-316.73,357.62-598.35A906.41,906.41,0,0,0,2693.56,766.49ZM1294.16,315l.53.26C1327,328.62,1450,420,1483.33,455.33c5.37,8,9.35,13.26,14.86,13.54,5.17.28,8.47-3.69,12.62-8.71l.21-.25c.57-.69,1.17-1.42,1.82-2.19l.86-1,.27-1.19v-.05c1.91-6.1,35.37-37.89,95.26-79.48,38.24-26.56,111.8-73.92,174.72-92.65l.23-.08c232.11-82,472.12-36.67,658.5,124.44,225.59,195,332.39,518.78,272.1,824.91-54.85,278.48-200.54,431.2-354.85,593-43.9,46-89.29,93.61-133,144.66l-726.69,785.9L713,1906c-36.76-42.92-76.27-83.48-114.5-122.75-91-93.45-185.14-190.09-244-322.1C145.85,993.4,344.06,514.36,647.35,338.74c107-61.95,216.6-94.13,325.79-95.65C1089,241.47,1212,269,1294.16,315Z"/>
</svg>
