<svg xmlns="http://www.w3.org/2000/svg" viewBox="0 0 2994.91 3000">
  <title>90Icon_neon 1</title>
  <g>
    <path d="M689.67,545.5,158.74,738.74l-5.17,1.88,1.71,4.7L952.55,2935.79l1.88,5.17,530.93-193.24,5.17-1.88-799-2195.17ZM961,2926.86,167.67,747.19,683.09,559.6l793.34,2179.67Z"/>
    <path d="M1057.92,859.65,2176.55,452.51l5.16-1.88L2039.55,60l-1.88-5.17L919.05,462l-5.17,1.88L1056,854.48ZM2031.09,69l136.53,375.09L1064.5,845.55,928,470.46Z"/>
    <path d="M1255.6,1402.75,1379.05,1742l1.88,5.17,968.41-352.47,5.17-1.88L2229.17,1048.4l-968.4,352.47Zm967-340.25,117.82,323.69L1387.51,1733l-117.82-323.7Z"/>
    <path d="M2722.07,1904.5l-1.88-5.17L1590.37,2310.55l-5.17,1.88,135.69,372.81,1.88,5.17,1129.82-411.22,5.17-1.88Zm-992.72,771.81-130-357.3,1114.32-405.58,130,357.3Z"/>
  </g>
</svg>
