<svg xmlns="http://www.w3.org/2000/svg" viewBox="0 0 2994.91 3000">
  <title>82Icon_neon 1</title>
  <g>
    <path d="M579.2,608.89,172,757.09,166.86,759l788.8,2169.78,407.17-148.2,5.17-1.88L581.08,614.06Zm383,2305.76L181,765.54,572.62,623l781.28,2149.1Z"/>
    <path d="M935.79,774.29l915.93-333.62,189.25,494-910.58,331.67-5.18,1.89L1213,1508.56l1.88,5.16L2405,1080.44l5.17-1.88-366.53-1007-1.88-5.17L843.55,502.47l-5.15,1.88,95.51,264.76ZM2035.21,80.45,2396.1,1072,1221.41,1499.62l-82.08-224.8L2050,943.12l5.26-1.92L1860.06,431.68l-1.93-5.05L942.39,760.18,852.47,510.93Z"/>
    <path d="M2735.91,2016.27l-.89-2.47L1518.86,1596.44l-1.84-.64-231,84.53-5.16,1.9,85.58,233.28.9,2.46,1216.14,417.35,1.84.64,235.73-85.8Zm71,227.32-221.73,80.7-1209.36-415L1295,1688.77l222.16-81.3,1209.34,415Z"/>
  </g>
</svg>
