<svg xmlns="http://www.w3.org/2000/svg" viewBox="0 0 2994.91 3000">
  <title>86Icon_neon 1</title>
  <g>
    <path d="M2221.91,194.53,2173.62,61.84,1782.44,204.22l-2.58.94L1484.63,1172l-.49,1.6,227.69,625.55,5.57,15.31,504-1618.13ZM2167.05,75.94l43.26,118.86L1716.59,1780l-220.85-606.79,293-959.63Z"/>
    <path d="M2325.73,519.21l-5.44-15-200.63,613.34-.59,1.82L2559.37,2304l367.32-133.7Zm240.14,1770.73L2130.71,1119.17l190.13-581.23,591.75,1625.81Z"/>
    <path d="M462.56,687l-2.31-1.52L71.6,826.91l-5.17,1.89,46.5,127.77,1406,906.46,13.74,8.86-230.4-633ZM122,949.33l-41.47-114,378.3-137.69,834.33,548.4,218,598.85Z"/>
    <path d="M786.07,1622.49,234.19,1260.24,837.92,2919l1.88,5.17,370.89-135-424-1164.94ZM846.37,2910,255.86,1287.63l521.12,342L1196.6,2782.57Z"/>
  </g>
</svg>
