<svg xmlns="http://www.w3.org/2000/svg" viewBox="0 0 2994.91 3000">
  <title>136Icon_neon 1</title>
  <g>
    <path d="M2700.8,1483.67c-1-2.54-4.69-11.27-9.12-15.44l-.23-.22-.91-.61c-154.49-84.17-220.93-120.55-223.73-122.08l-2.75-1.51-565.58,336.11,315.84-562.59,1.53-2.73-1.56-2.71c-2.77-4.85-68.55-120-126.58-225l-.22-.41-.73-.87-.36-.3-11.76-9.89-.25-.2-.88-.53c-93.63-45.85-207.42-83.88-347.88-116.26-136.19-31.4-287.54-33.53-449.85-6.31-159.61,26.77-293.33,75.81-377.4,112.24-211.62,91.69-386.84,225-520.81,396.35-136.45,174.48-230.24,388.64-278.76,636.51-25.21,128.78-13.41,283.29-3,419.67q1.48,19.49,2.89,38.32l.39,5.09H2845.26l.23-5.27c8.13-188.35,2.63-344.94-16.83-478.71C2805.88,1719.7,2764.05,1591.26,2700.8,1483.67Zm133.93,865.63H109.31q-1.22-16.4-2.52-33.31c-10.37-135.62-22.11-289.34,2.81-416.66,95.33-487,369.6-841.36,793.16-1024.88,133.36-57.79,480.27-183.73,820.4-105.3,139.33,32.12,252.15,69.78,344.91,115.12l2.07,1.74,8.44,7.1c54.09,97.83,114.44,203.71,124.62,221.55l-324.37,577.8-10,17.91,595.5-353.9c13.31,7.29,80.43,44,220.28,120.2,2,2.21,4.47,7.21,6.16,11.41l.36.75C2807.07,1685.91,2851.41,1951.41,2834.73,2349.3Z"/>
    <path d="M2867.3,1455.15c-20.86-37.81-50.21-88.29-87.25-150-60.48-100.83-122.38-199.93-135.19-220.4,24.46-35.65,245.77-359.19,256.69-412.11l2.55-12.35-10.78,6.53c-122.39,74-376.23,235.47-406.27,254.59-17.85-10.24-123.57-70.92-228.55-130.92-99.55-56.9-168.1-95.86-203.75-115.8-27.59-15.43-30.88-17.26-33.22-16.86l-10.9-5.37,5.92,10-.53,1.07,1.51,2.56c18.84,32,34.34,57.76,49.33,82.71s30.67,51,49.52,83l.89,1.51,1.6.72c1,.44,5.23,2.11,8.62,3.44l3,1.17-.1.37,4.77,1.39c90.46,26.32,223.64,124.75,365.39,270.05,128.19,131.4,235.14,273.12,272.48,361l.2.45.27.41c.68,1,.68,1,6.23,4.45l.39.25,1.89,1.18,123.37,70,.65-8.67C2906.46,1533.74,2902.45,1518.86,2867.3,1455.15ZM2787.92,1469l-2.35-1.47-3.12-2c-38.39-89.13-145.72-231.26-274-362.77-142.95-146.54-277.8-246-370.06-272.89-1.23-.46-9.69-3.74-13.45-5.25-18.43-31.26-33.74-56.74-48.56-81.41l-.09-.15c-12.27-20.42-24.89-41.42-39.35-65.81,83.08,46.05,443.55,253,447.54,255.29l2.89,1.66,2.8-1.79c2.69-1.71,262.22-167,395.69-248.26-31,70.44-189.28,306.06-252.09,397.27l-2.05,3,1.92,3.06c.65,1,65.69,104.83,131.39,214.11,88.84,147.79,118.28,204.84,126.88,226.35Z"/>
  </g>
</svg>
