<svg xmlns="http://www.w3.org/2000/svg" viewBox="0 0 2994.91 3000">
  <title>54Icon_neon 1</title>
  <g>
    <path d="M2157.31,1137.05l.16,0,3.94.91,143.23,44.17,3.25-10.51-137.68-42.45,6.48-15.83c6-14.74,10.83-27,15.12-38.49,5.93-16,9.81-27.62,12.56-37.77l.25-.95c.28-1.06.6-2.26.83-3.34.33-1.37.59-2.61.77-3.7.19-.83.33-1.91.5-3.19.06-.52.13-1,.2-1.54l.64-4.76c.82-5.28,1.3-10.63,1.77-15.86.12-1.25.23-2.51.36-3.86,1.07-14.11,1.46-27.12,1.18-39.73-.33-24.53-2.8-50.8-7.56-80.31-2.11-12.73-4.61-25.91-7.65-40.34l-4.43-20.27L2188.91,809l-2.27-8.82,0-.16c-7.64-26.13-19.73-53.63-29.42-74.7-11.34-24.39-23.91-49.2-37.38-73.78l-10.08-17.93-5.13-8.79L2102,620.5l-2.45-3.91c-7.21-11.07-15.89-22.78-23.43-32.77-13-17.2-26.34-34-37.79-48.22l-15.48-95-38.93-232.2L1958.12,44.92l-10.87,1.72,25.82,163.53L2012,442.39l15.5,95.14c-6.45,21.15-11.56,37.53-16.52,52.94-5.37,16.61-9.69,29.5-14,41.79-2.7,7.69-5.25,14.61-7.78,21.15a226.34,226.34,0,0,1-9.67,21.85c-7.65,15.08-15.74,28.51-22.65,39.67-7.28,11.81-15.13,24-24,37.2-16.2,24.31-33.13,48.57-50.32,72.12-19.93,27.25-37,49.47-53.87,69.94-9.32,11.47-19.07,22.61-29.82,34.06-11.64,11.72-22.15,19.86-33.29,28.48l-2.65,2c-24.91,19-50.25,36.31-72,51.06-15.2,10.25-31.71,21.11-51.8,34.09l-69.47-3.75-.13-.09h-1.62l-4.84-.26,0,.26h-5.55l-12.84,42.18-8.85,8.63,11.38,90.73v.15l20.9,111c.08.41,8,40.8,12.74,54,7.36,20.6,26.54,58.77,37.52,76.64,10.24,16.69,34.73,48.07,48.46,64.3,8,9.49,32.78,36.89,33,37.16l3.35,3.71,8.16-7.37-3.35-3.71c-.25-.27-25-27.7-32.79-36.89-13.51-16-37.53-46.73-47.49-63-10.7-17.43-29.39-54.59-36.54-74.6-4.39-12.29-12.22-52-12.29-52.36L1558,1180.08l-3.77-30c7.35,42.39,17.59,94.34,27.12,118.16,12.23,30.57,24,48.91,34.94,54.49,3.54,1.8,8.27,2.68,14.46,2.68,10.52,0,23.93-2.72,31.94-5.24,12.75-4,36.79-16.77,45.45-27.59,8.86-11.06,16.77-37.38,16.8-50.36,0-12.43-8.11-31.94-15.76-49.27l-.3-.68c-6.44-14.62-31-54.92-31.25-55.28l-.23-.37-32.83-36.34-.18-.21-37.12-32.87-21.07-15.1,53.87,2.91,252.42,28.83c2.68.34,5.31.63,7.87.9,4.52.49,9.18,1,14.07,1.81l5.08.79.21,0c5.72.87,11.64,1.78,17.22,2.85,13.22,2.3,26.42,4.89,39.25,7.41l4.48.88c59.41,12,117.89,25.17,172.24,37.54ZM1891.43,830.74c17.28-23.67,34.3-48.07,50.58-72.49,8.93-13.32,16.86-25.6,24.22-37.54,7-11.34,15.27-25,23.09-40.44a238.63,238.63,0,0,0,10.13-22.89c2.56-6.63,5.15-13.65,7.9-21.46,4.36-12.41,8.71-25.38,14.11-42.07,4.27-13.27,8.65-27.23,13.9-44.38,10,12.47,21.07,26.53,32,41,7.43,9.84,16,21.36,22.94,32.06l2.3,3.65,7.59,12.94,10,17.79c13.32,24.31,25.78,48.9,37,73.07,9.52,20.68,21.39,47.67,28.82,73.07l2.19,8.5,2.29,10.13,4.41,20.19c3,14.27,5.48,27.3,7.56,39.8,4.66,29,7.09,54.7,7.42,78.74.26,12.28-.11,24.94-1.15,38.6-.12,1.26-.23,2.52-.35,3.81-.46,5-.93,10.24-1.71,15.32l-.64,4.75c-.07.51-.15,1.09-.22,1.66s-.24,1.87-.32,2.21l-.09.4c-.14.9-.37,2-.66,3.17l0,.16c-.17.83-.45,1.87-.72,2.9l-.24.91c-2.65,9.78-6.43,21.12-12.24,36.77-4.24,11.39-9,23.52-15,38.17l-7,17.06h0l-4.1-1c-54.42-12.39-113-25.53-172.54-37.61l-4.51-.88c-12.84-2.53-26.12-5.13-39.39-7.44-5.69-1.09-11.71-2-17.52-2.9l-.1,0-5.12-.79c-5.15-.86-10-1.38-14.65-1.88-2.5-.27-5.08-.55-7.73-.89l-237.4-27.12c15.16-9.85,28.28-18.52,40.61-26.84,21.91-14.83,47.4-32.26,72.58-51.45l2.68-2.07c11.43-8.86,22.24-17.22,34.42-29.5l.1-.1c10.94-11.66,20.88-23,30.37-34.68C1854.13,880.55,1871.37,858.18,1891.43,830.74Zm-325.82,220.35h.35l34.29,24.54,36.43,32.26,31.93,35.35c2.55,4.2,24.51,40.44,30.25,53.46l.3.68c4.44,10.08,14.85,33.66,14.82,44.8,0,11-7.14,34.47-14.39,43.52-7,8.77-28.86,20.4-40.17,24s-31.26,6.73-38.09,3.25c-3.86-2-14.47-10.65-29.73-48.78-15.89-39.72-34.46-164.46-36.51-178.49Z"/>
    <path d="M1848.73,2280.47c-25.31,3.21-47.64,5.91-68.25,8.23l-2,.22c-22.72,2.46-44.17,4.78-68,6-23.2,1-47.5,2.72-71,4.38l-15.31,1.08-6.47.46c-26.5,1.86-53.9,3.79-81.29,5.14-17.32.85-31.65,1.16-45.09,1-14.5-.21-28.38-.82-44.73-1.69-26.54-1.46-53.2-3.35-79-5.17l-8.61-.61-43.4-2.94-43.62-2.4c-29.82-2.14-58.82-5.55-86.87-8.85l-1.39-.16c-31.91-3.85-65.77-8.24-109.79-14.25l-11.37-1.55,5.91,9.83c24.45,40.65,48.2,80.92,70.58,119.67,28,48.5,64.46,112.67,98.49,178.9,6.06,11.55,12,23.62,17.65,35.3q2.61,5.37,5.24,10.72l21.52,46.79,121.48,264.89,1,2.25,2.36.73c3.54,1.08,7.31,2.05,11.18,2.88a234.7,234.7,0,0,0,25.36,3.91,512.35,512.35,0,0,0,53.93,2.42h0a511.59,511.59,0,0,0,53.93-2.45,235.88,235.88,0,0,0,25.36-3.91c3.92-.84,7.68-1.81,11.18-2.89l2.36-.72,122.44-267.13,21.52-46.78,5.22-10.69c5.69-11.66,11.58-23.72,17.69-35.38,34-66.23,70.49-130.36,98.45-178.83,22.41-38.81,46.15-79.05,70.55-119.62l5.9-9.82-11.36,1.54C1895.15,2274.41,1871.65,2277.53,1848.73,2280.47Zm-351.4,656.15a501.44,501.44,0,0,1-52.78-2.36,224.26,224.26,0,0,1-24.19-3.72c-2.73-.58-5.39-1.24-7.93-2L1292,2666l-21.55-46.87,0-.11c-1.76-3.58-3.52-7.18-5.27-10.77-5.73-11.73-11.65-23.87-17.77-35.54-34.12-66.42-70.68-130.72-98.72-179.33-20.59-35.64-42.35-72.6-64.78-110,38.63,5.24,69.39,9.21,98.62,12.73l1.4.17c28.18,3.31,57.31,6.73,87.46,8.9l43.65,2.4,43.31,2.93,8.46.6c25.86,1.83,52.6,3.72,79.29,5.2,16.51.87,30.51,1.49,45.18,1.7,13.69.17,28.23-.14,45.78-1,27.52-1.36,55-3.29,81.61-5.17l6.37-.45c4.57-.31,9.14-.64,13.7-1l1.64-.12c23.42-1.65,47.65-3.37,70.73-4.36,24.18-1.22,45.79-3.56,68.66-6l2-.21c20.66-2.34,43-5,68.43-8.26,19.52-2.5,39.43-5.13,60.58-8-22.38,37.33-44.13,74.27-64.75,110-28,48.58-64.57,112.87-98.68,179.26-6.15,11.73-12.08,23.87-17.81,35.62-1.75,3.58-3.49,7.16-5.25,10.74l-21.6,47-120.38,262.62c-2.52.71-5.19,1.37-7.94,2a224.44,224.44,0,0,1-24.18,3.72A501.06,501.06,0,0,1,1497.33,2936.62Z"/>
    <path d="M1353.52,1055.68l75.1,3.35c-18.47,17.08-63.63,59.2-79.42,77.24-3.18,3.64-7.26,8.06-11.59,12.75-20.64,22.35-48.91,53-53.26,76-1.58,8.38,1,28,5.43,35.21,14.79,23.86,65.06,51.84,67.2,53,20.33,11.25,37.86,17.2,55.18,18.73.07,0,6.89.58,14.52.58,15.68,0,20.17-2.43,22.33-4.54a30.61,30.61,0,0,0,3.29-3.85c3.08,14.68,7.64,36.08,10,45.55.87,3.58,1.87,7.77,3,12.38,5.54,23.34,13.13,55.31,20.25,72.39,6.61,15.84,23,44.27,47.39,82.22,8.38,13,33.15,50.94,35.94,55.22l2.8,4.27,9.22-6-2.75-4.19c-.23-.35-27.12-41.5-36-55.24-24-37.41-40.13-65.25-46.48-80.5-6.79-16.26-14.25-47.73-19.71-70.7-1.09-4.63-2.1-8.86-3-12.45-3.16-12.95-10.62-48.75-12.7-58.79,7.29-20.11,9.58-45.39,9.71-46.86,3.52-40.32,6.67-159.55,6.8-164.61l.06-2.44-1.76-1.68c-3.35-3.22-10.24-10-12.27-12.5-4-5-13.83-20.81-17.22-26.36l.23-5.07-90.71-4.06c-20.54-13.2-37.36-24.22-52.83-34.61-21.92-14.78-47.39-32.12-72.15-50.91l-2-1.56c-11.37-8.74-22.1-17-34-28.9-10.81-11.45-20.61-22.6-30-34.1-16.45-19.95-33.1-41.51-54-69.9-18.16-24.78-34.67-48.35-50.49-72.08-9.12-13.65-17-25.83-24-37.26-6.83-11-14.86-24.39-22.64-39.72a229.59,229.59,0,0,1-9.67-21.88c-2.49-6.43-5-13.16-7.77-21.18-4.32-12.31-8.62-25.22-14-41.84-4.92-15.37-10-31.84-16.51-53.22l13.39-84.08,25-158.25,37.55-220,5.34-32.4-10.86-1.79-5.32,32.37-37.56,220-25,158.31-13.36,83.88c-11.43,14.25-24.75,31-37.74,48.17-7.53,10-16.2,21.67-23.48,32.85l-2.35,3.73-7.81,13.31-10.06,17.9c-13.46,24.56-26,49.36-37.35,73.75-9.69,21-21.78,48.55-29.42,74.7l-2.28,8.83-2.35,10.42L797,839.58c-3,14.37-5.53,27.55-7.65,40.32-4.75,29.5-7.22,55.76-7.55,80.25-.28,12.65.11,25.66,1.19,39.87.12,1.28.24,2.55.35,3.83.47,5.16,1,10.5,1.77,15.79l.64,4.82c.06.39.12.84.18,1.29l0,.15c.18,1.45.32,2.44.49,3.2.19,1.11.45,2.36.78,3.71.23,1.08.53,2.23.83,3.35l.26,1c2.75,10.13,6.63,21.76,12.55,37.72,4.25,11.43,9.06,23.67,15.12,38.49l6.45,15.76-142.86,41.37,3.05,10.57,148.6-43,20-4.62c62-14,122.75-27.63,184.11-39.5,12.68-2.4,29.53-5.49,47.47-8.1Zm95.31,251.82c-2.15,5.33-4.62,9.76-7.39,12.52-2.72,1.56-16.37,2-28.31,1-15.74-1.39-31.89-6.92-50.83-17.39-19.22-10.63-53.37-33.39-63.18-49.2-2.68-4.32-5.12-21.2-4-27.37,3.76-19.93,30.79-49.2,50.53-70.57,4.37-4.73,8.49-9.2,11.79-13,16.4-18.74,65.61-64.42,81.61-79.17,4.32,6.94,11.45,18.22,15.1,22.76,2.32,2.88,8.22,8.7,11.49,11.87-.47,17.26-3.44,124.24-6.7,161.52-1.06,12.18-4,29.75-8.72,43.19l-2.13.44ZM833.14,1126.31l-.08-.26-.06,0-6.89-16.85c-6-14.71-10.78-26.84-15-38.17-5.8-15.62-9.58-27-12.23-36.72l-.28-1c-.26-1-.52-2-.69-2.81l0-.18c-.29-1.18-.52-2.26-.68-3.2l-.08-.39c-.07-.34-.22-1.5-.31-2.21l0-.16c-.07-.51-.13-1-.19-1.4l-.65-4.82v-.1c-.77-5-1.24-10.14-1.69-15.15l-.35-3.77c-1-13.76-1.42-26.42-1.15-38.75.32-24,2.75-49.72,7.41-78.66,2.09-12.6,4.56-25.63,7.55-39.79l4.41-20.19,2.3-10.15,2.18-8.5c7.44-25.42,19.31-52.41,28.82-73.07,11.22-24.15,23.67-48.74,37-73l10-17.77,5.1-8.73,2.53-4.27,2.26-3.59c7-10.8,15.57-22.31,23-32.14,10.91-14.43,22-28.47,31.94-40.91,5.25,17.25,9.63,31.28,13.9,44.61,5.37,16.71,9.71,29.69,14.06,42.12,2.85,8.12,5.36,15,7.88,21.49a243,243,0,0,0,10.14,22.93c8,15.68,16.14,29.27,23.07,40.49,7.08,11.53,15,23.83,24.19,37.59,15.91,23.86,32.51,47.57,50.77,72.49,21,28.57,37.78,50.28,54.34,70.36,9.53,11.71,19.52,23.07,30.55,34.75l.1.1c12.45,12.44,23.47,20.92,35.15,29.9l2.05,1.58c25,19,50.64,36.44,72.69,51.3,12.49,8.39,25.81,17.16,41.27,27.16l-209.2,23.28-46.73,5.22-.17,0c-18.18,2.65-35.22,5.77-48,8.19-61.54,11.91-122.37,25.52-184.49,39.59Z"/>
    <path d="M1497.81,1056.64h.18a6.5,6.5,0,0,0,4.58-1.88,6.62,6.62,0,0,0,2-4.73v-.14a6.53,6.53,0,0,0-6.55-6.35h-.26a6.54,6.54,0,0,0-6.28,6.36v.12A6.54,6.54,0,0,0,1497.81,1056.64Z"/>
    <path d="M2284.74,2200.56a8.5,8.5,0,1,0,8.5-8.5A8.52,8.52,0,0,0,2284.74,2200.56Z"/>
    <path d="M705.38,2195.46a10.37,10.37,0,1,0,10.37,10.37A10.38,10.38,0,0,0,705.38,2195.46Z"/>
    <polygon points="750.92 2204.28 748.66 2215.05 852.65 2236.91 967.7 2258.7 969.75 2247.89 854.86 2226.14 750.92 2204.28"/>
    <path d="M2250.25,2214.32l-2.53-10.71-4.87,1.16c-.77.18-78.31,18.52-102,22.89-28.13,5.19-106.8,17.58-107.59,17.71l-4.94.77,1.72,10.87,5.06-.8c8.19-1.29,80.75-12.75,107.75-17.73,23.91-4.42,101.75-22.82,102.53-23Z"/>
    <path d="M2424.74,2324.46c-6.8-11.35-24.09-26.54-36.72-37.64-2.54-2.24-4.86-4.28-6.8-6-12.59-11.38-52.63-43-53-43.34l-2.75-2.18-20.77,10.39-14.61,4.32-22.08-5.09-1.65,4.6c-.2.56-20.16,56.19-27.34,74.39-3.65,9.25-9.42,21.79-15.53,35.07-10.83,23.55-23.11,50.23-27.78,67.75-.56,2.13-1.42,4.89-2.32,7.8-5,16.21-11.86,38.41-2.74,48.71,2.62,3,6.88,4.39,13,4.39a60.84,60.84,0,0,0,17.14-2.81c12.24-4,34-20,42.32-31.13,7.14-9.52,12.72-29.2,16.79-43.6.8-2.8,1.52-5.34,2.16-7.49,2.9-9.67,7.86-29.15,9.22-39.07.76-5.52,1.39-13.31,1.92-22.19.64,4,1.33,8.26,2,12.6,2.57,15.83,5.23,32.19,6,42.61,1.14,16,2.45,47.05.05,62-1.36,8.47-6.74,23-11.06,34.73-2,5.42-3.9,10.54-5.2,14.5-4.63,14.18-18.64,57.44-18.73,57.73l-1.53,4.76,10.45,3.38,2-6.12c9.09-28.07,15.58-48.08,18.28-56.33,1.23-3.76,3.09-8.79,5.06-14.13,4.72-12.77,10.08-27.25,11.6-36.78,2.56-15.94,1.24-48.07.06-64.54-.78-10.9-3.48-27.5-6.1-43.64-1.81-11.15-3.52-21.68-4.39-29.11-1.6-13.79-4.59-50.46-5.62-63.3l6.39-1.89c3.11,15.91,12.09,62.14,14.79,79.39,2.74,17.5,7.09,53.2,9,71.1,2.15,20.15,6.47,72.27,8.85,101.54.06.75.11,1.31.14,1.67l-6.14,69.23,11,1,6.21-70.16,0-.42c-.07-.77-6.31-78.26-9.06-104-1.92-18-6.3-54-9.07-71.64-1.06-6.72-3-17.61-5.21-29.4,4.58,10.66,9,20.33,12.41,26.08.9,1.55,22.35,38.06,38.93,50.32,6.08,4.49,19.8,10.76,28.34,10.76.38,0,.76,0,1.13,0,6.25-.43,16.25-6.23,20.36-10.76,4.83-5.31,10.12-17.91,10.49-25C2435.06,2348.13,2429.07,2331.68,2424.74,2324.46Zm-43.94,49.16c-11-8.11-27.52-32.56-36-47-7.57-13-22.48-50.21-31.22-73.11l10.5-5.25c9.41,7.47,39.29,31.28,49.73,40.71,2,1.78,4.33,3.85,6.92,6.13,12.08,10.62,28.62,25.16,34.55,35,3.51,5.86,8.62,20.19,8.28,26.78-.23,4.54-4.52,14.71-7.64,18.14-2.56,2.83-10.08,7-13,7.18C2398.06,2382.57,2386.15,2377.58,2380.8,2373.62Zm-176.92,64.13,0-.13c1-3.12,1.8-5.81,2.4-8.09,4.42-16.6,16.49-42.83,27.16-66,6.17-13.42,12-26.09,15.76-35.61,6-15.29,21-56.69,25.8-70.11l9.65,2.23c-.22,16.74-1.25,79.77-4.3,102-1.29,9.38-6,28.07-8.86,37.41-.65,2.2-1.39,4.8-2.2,7.67-3.4,12-9.09,32.1-15,40-7,9.39-26.72,23.92-37,27.28-7.16,2.36-16.62,2.85-18.56,1.52C2193.9,2470.08,2200.64,2448.26,2203.88,2437.75Z"/>
    <path d="M684.54,2249.94l-17-3h0l-4.81-.85-.41,2.34c-5.09,3.39-15.89,13.49-44.6,42.18l-.16.16c-3.81,3.81-6.82,6.81-8.29,8.23-13.85,13.37-34.66,45-45,63.12-14.13,24.8-21.39,43-21.58,54.09-.17,10.22,6.63,28.76,13.24,36.06,6.22,6.87,22,15.25,31.52,15.25H588c5.86-.19,13.87-4.31,20.08-8.78-1.17,12.44-1.69,28.21-2,38.7l-.2,6.07c-.79,23.28-2.25,66.62.14,88.62,1.48,13.64,11.48,52.66,11.9,54.31l1-.25h0l-1,.25,1.25,4.84,10.65-2.74-1.24-4.84c-.11-.4-10.21-39.77-11.63-52.77-2-18.73-1.14-54.29-.37-78.21,1.24,3.49,2.5,6.9,3.7,10.15,2.29,6.2,4.45,12.06,5.79,16.53,1.43,4.76,3.65,11.12,6,17.91,4.69,13.5,10,28.79,11.53,37.91,4,24.26,8.23,98.78,8.28,99.53l.27,5,11-.61-.28-5c0-.75-4.26-75.85-8.41-100.73-1.54-9.2-6.28-23.24-10.8-36.26a23,23,0,0,0,6.79,1.23c5.62,0,9.68-3.15,12.06-9.37,10.59-27.59,13.76-73.7,16.3-110.76l0-.18c.18-2.7.37-5.37.55-8,1.17-16.8,7.52-60.94,13.12-99.89,8-55.52,9.9-69.93,9.2-73.23v0l.68-3.13Zm-42,295.16c-1.14-.42-2.31-.85-3.53-1.27-1-2.84-1.81-5.43-2.47-7.61-1.44-4.81-3.67-10.83-6-17.22-5.29-14.34-11.87-32.16-11.95-42.72,1.46-13.51,18-66.14,37-117.94,15.29-41.62,26.14-66.57,33.13-80.43-1.84,13.81-4.59,32.94-7.14,50.7-5.63,39.13-12,83.49-13.21,100.68-.19,2.63-.37,5.3-.56,8v.19c-2.5,36.31-5.6,81.51-15.6,107.56C651.06,2548,651,2548.21,642.56,2545.1Zm33.89-285.43-3.31,9.71a89.73,89.73,0,0,0,.91-10.13Zm-19.14,36.56c-2.76,14.53-5.36,28.25-5.47,35.84-.1,7-7.45,22.81-12.83,34.39-3.38,7.29-6.3,13.58-7.76,18-1,2.93-2.06,6.49-3.23,10.32-.69,2.27-1.44,4.7-2.23,7.23h-1.3v4.14c-4.69,14.66-10.7,31.33-17.19,38.76-4,4.54-15,11.4-19.68,11.56-5.41.17-18.86-6.45-23.55-11.63s-10.53-21-10.4-28.49c.15-9,7.3-26.31,20.14-48.83,10-17.59,30-48,43.09-60.65,1.58-1.53,4.83-4.78,8.61-8.56,18.07-18.06,30.59-30.23,37.41-36.37C662.14,2270.81,659.24,2286.07,657.31,2296.23Zm-34.88,349,.21-.05.09,0Z"/>
  </g>
</svg>
