<svg xmlns="http://www.w3.org/2000/svg" viewBox="0 0 2994.91 3000">
  <title>158Icon_neon 1</title>
  <g>
    <path d="M2771.31,1005.59c-87-113.43-207.34-206.47-378.56-292.8C2133.34,582,1827.37,517.23,1483.29,520.3L1306.9,530l-.48.06c-30.85,4.73-61.17,8.89-90.49,12.9-79.48,10.89-154.55,21.18-228.08,41.23-198,54-357.33,118.14-487.11,196.12-72.9,43.8-138.2,93.2-194.08,146.83A915.43,915.43,0,0,0,154.94,1117c-39.65,66.23-68.07,147.87-80,229.9-13.65,93.65-5.76,185.84,22.82,266.58,24.46,69.09,60.26,135.64,103.54,192.44a955,955,0,0,0,154.91,159.69c55.73,45.62,119.3,87.64,189,124.9,127.17,68,278.11,122.91,461.44,167.77,56.34,13.78,112.82,20.47,172.63,27.56,32.38,3.84,65.87,7.81,99.87,13.05l.25,0,144.77,7.71c33.55,4.93,103,2.25,132.13-1.92l52.59-1.92,166.83-15.47,105.14-18.13,77,33.69,5.38,2.36c30.79,13.48,61.68,27,88.44,38.71l.1,0q11.61,4.76,23.09,9.49c90.53,37.23,176,72.39,282.63,97.28l.19,0c20.69,4,38.18,8.74,55.1,13.34,17.1,4.64,34.78,9.45,55.75,13.49,3.7.78,8.26,2.05,13.1,3.39,11.28,3.14,24.08,6.7,34.69,6.7,9.18,0,15.75-2.76,19.5-8.22,11.11-16.14-10.88-53.43-32.36-87.12l-.09-.14c-2.32-3.63-4.15-6.5-5.36-8.53-29.44-49.46-57.89-116.46-78.69-165.47-4.68-13-9.38-25.92-13.53-37.28-4.33-11.86-9.24-25.3-14.1-38.85-1.82-6.19-4.29-13.32-6.68-20.21-1.82-5.26-3.7-10.67-5.27-15.62,8.65-4.57,18.58-9.66,28.23-14.61l.24-.12c11.32-5.81,23-11.82,32.73-17l.14-.08,102.89-63.74.23-.16c79-55.26,143.47-112,197.22-173.45,61.64-70.46,107.85-145.44,141.28-229.22,13.11-32.84,20.41-68.6,28.14-106.46l1.49-7.31C2945,1334.48,2897.53,1170.1,2771.31,1005.59Zm-390.22,1139.8.09.28q7.26,20.23,14.17,39.07l.18.49q6.51,17.82,13.4,36.9l.1.26c20.92,49.3,49.58,116.81,79.43,167,1.32,2.21,3.22,5.19,5.62,9,6.88,10.78,17.27,27.08,24.78,42.48,11.28,23.16,9.22,30.43,7.8,32.48-5.14,7.47-27.44,1.27-42.19-2.83-5-1.4-9.73-2.71-13.87-3.58-20.66-4-38.13-8.73-55-13.33-17.09-4.65-34.76-9.45-55.78-13.5-105.67-24.68-190.76-59.67-280.84-96.72l-.79-.32-22.23-9.13c-26.78-11.71-57.7-25.25-88.51-38.74l-8.64-3.79-58.22-25.48c94.87-17.69,254.28-69.82,334-102.2,28.27-11.49,106.62-42.74,134.67-53.92,1.61,5,3.49,10.47,5.32,15.76l.95-.32v0l0,0-.94.35C2376.9,2132.39,2379.33,2139.41,2381.09,2145.39Zm21.88-63.56c-7.73,4-15.67,8-23,11.87l0-.08-4.64,1.85c-1,.4-110.37,44-144.92,58-84.49,34.33-257.24,90.41-348.2,104.37l-.06,0-107.91,18.61-166,15.4-52.75,1.92-.53.05c-28.43,4.11-96.87,6.78-129.54,1.93l-.23,0-144.74-7.7c-34-5.24-67.55-9.21-100-13.05-59.45-7-115.61-13.71-171.29-27.33C625.48,2153.73,371.54,2011.27,210,1799.26c-42.6-55.9-77.84-121.41-101.92-189.44-64.55-182.39-10-376.42,56.28-487.16C312.1,876,574.69,708.2,990.74,594.75c72.84-19.86,147.57-30.1,226.69-40.94,29.26-4,59.52-8.15,90.37-12.89l175.72-9.62c7.67-.07,15.43-.11,23-.11,332.82,0,629.31,64.41,881.23,191.42,169.68,85.56,288.77,177.6,374.78,289.68,124.2,161.87,170.92,323.24,138.88,479.65l-1.5,7.32c-7.63,37.36-14.84,72.65-27.58,104.57-61.76,154.79-168.05,281.15-334.46,397.65l-102.43,63.46c-9.54,5.1-21.12,11-32.32,16.79Z"/>
    <path d="M2004.13,681.79l140.41,133.59L2011.47,946.31,1896.85,837.74l-3.86-3.66L1335.67,1385.2l-1.06,1.06L1253.71,1692l-178.44,175.6-44.89,44.21L971,1970.55c-24.59,24.31-50,49.45-74.92,74.26l7,7.13c25-24.39,50.41-49.27,74.94-73.34l60.09-58.95,44.89-44.2,178.33-175.76,304.58-81.34,1.4-.38,563.11-551.11,4.08-4-115-109L2152.51,823l140.68,133.83,7.58-8-289.06-275Zm-737.7,1005.15,78-295,548.67-542.59L2118.64,1063l-557,545.1Z"/>
  </g>
</svg>
