<svg xmlns="http://www.w3.org/2000/svg" viewBox="0 0 2994.91 3000">
  <title>56Icon_neon 1</title>
  <g>
    <path d="M2265.35,2307c-10.91-31.32-19.61-62.32-27.38-91.14l-1.33-5-5.06,1c-601.38,120-860.57,120.16-1459.66,1.14l-4.59-.91-37.21,100,5,2c322.9,127.81,535.55,406.23,657.09,617.29l1.13,2,2.19.6a399.61,399.61,0,0,0,205.87,0l2.15-.58,1.14-1.91c5.81-9.72,11.76-19.78,17-28.65,23.48-39.68,45.66-77.16,71.9-115,185.25-246.12,365.9-396.68,568.5-473.8l5-1.9Zm-176.53,81.55c-50.84,31.91-101.49,69.9-150.55,112.92-85,74.59-168,166.09-253.51,279.75l-.13.17c-26.49,38.25-48.79,75.92-72.44,115.88-5.15,8.71-10.47,17.7-15.79,26.62a389,389,0,0,1-195.79,0c-81.34-140.88-175.12-263.74-278.78-365.24C1005.68,2445,878.66,2360,744.18,2305.89l30.19-81.13c157,31.12,281.83,52.08,392.47,65.91,121.27,15.16,227.64,22.19,334.87,22.06,202-.21,406.17-25.19,727-89,7,26,14.9,53.69,24.54,81.9A969.26,969.26,0,0,0,2088.82,2388.58Z"/>
    <path d="M1082.62,1265.22c93.63,0,203.51-23.49,317.76-67.94l4.31-1.67-.91-4.54c-34.51-171.63-82.54-301-151.14-407.21-78.82-122-186.22-213.81-328.33-280.7l-5-2.36-2.32,5C883,579.49,847.32,658.18,818.2,739c-73.88,202.93-65.06,357,25.51,445.64C897.56,1237.37,980.18,1265.22,1082.62,1265.22ZM828.54,742.78c28.36-78.74,62.93-155.39,96.1-227.3,256.33,122.4,396.41,324.21,467.44,673.22-113.75,43.77-219.3,65.59-309.55,65.59-98.27,0-178.41-25.89-231.12-77.47C764.15,1091.45,756.24,941.37,828.54,742.78Z"/>
    <path d="M1918.42,1264.12c8.31,0,16.6-.19,24.62-.56,137.78-6.42,229.15-67.22,271.59-180.71l.17-.58c18.89-78.27,15.37-163.68-10.77-261.12-23-85.56-59.79-168.95-95.42-249.61l-.11-.25c-10-22.55-19.37-43.84-28.54-65.32l-2.19-5.13-5.11,2.26c-59.43,26.41-119.45,65.11-183.46,118.29-81.79,62.56-146.54,146.65-198,257.07-39.5,84.81-70.62,183.92-98,311.92l-1,4.64,4.45,1.66C1679.24,1227.45,1802,1264.12,1918.42,1264.12ZM1896,630.06l.17-.14c61.44-51,119-88.53,175.91-114.48,8.56,19.93,17.29,39.7,26.5,60.54,68.81,155.77,146.8,332.3,105.65,503.36-40.79,108.76-128.82,167-261.67,173.23-118.84,5.55-248.38-31.67-337.49-64.55C1645.48,1000.09,1715.39,768.14,1896,630.06Z"/>
  </g>
</svg>
