<svg xmlns="http://www.w3.org/2000/svg" viewBox="0 0 2994.91 3000">
  <title>122Icon_neon 1</title>
  <g>
    <path d="M2892.31,2336.75l0-5.47h-2776l-1.2,182.14,0,5.53,2771.74.87h1.82l4.87-3.62Zm-2765.08,5.53H2881.35l1.1,166.54L126.14,2508Z"/>
    <path d="M2692.19,788.79l5.43,1.09,1.06-5.44,25-128.9,1-5.36L1922.29,489l-5.43-1.09-1,5.43q-12.54,64.05-25,128.11l-1,5.36,5.35,1.08Zm19.64-130-22.89,118.1L1902.6,618.18q11.48-58.65,22.94-117.32Z"/>
    <path d="M1763.47,1842.24l-1.09,5.41L2329,1960.2l5.37,1.07,218-1069.56,1.09-5.4L1985,772.38l-5.39-1.08-72,357.62L141.5,774.88l-5.41-1.09L66.93,1122.21l-1.06,5.36L1835,1488.46Zm777-947.32L2325.73,1948.35,1775.35,1839l71.52-353.76,1.08-5.37L78.79,1119l65.94-332.23,1766.09,354,5.38,1.08,72-357.62Z"/>
    <path d="M1624.31,1939.38l-1.1,5.39q-13.53,66.93-27.06,133.84l-1.09,5.39,816.71,164.12,1.06-5.43,26-133.91,1-5.36-810.15-163Zm-16.29,136q12.43-61.51,24.88-123.06L2427,2112.06l-23.88,123.1Z"/>
  </g>
</svg>
