<svg xmlns="http://www.w3.org/2000/svg" viewBox="0 0 2994.91 3000">
  <title>120Icon_neon 1</title>
  <path d="M2803.55,946.88A1409.29,1409.29,0,0,0,2055.77,199.1c-173.24-73.27-357.26-110.42-546.95-110.42S1135.11,125.83,961.87,199.1A1409.17,1409.17,0,0,0,214.1,946.88c-73.28,173.23-110.43,357.25-110.43,546.94s37.15,373.72,110.43,547a1409.34,1409.34,0,0,0,747.77,747.78c173.24,73.27,357.26,110.42,546.95,110.42s373.71-37.15,547-110.42a1409.29,1409.29,0,0,0,747.78-747.78c73.27-173.23,110.42-357.25,110.42-546.95S2876.82,1120.11,2803.55,946.88ZM1503.32,1524.14l-994.9,939.74c-243.59-251.13-393.75-593.39-393.75-970.06,0-766.9,622.43-1391.15,1388.65-1394.13Zm0,15.13V2888c-385.94-1.5-735.4-160.62-987.21-416.21Zm11-.13,994.57,925.08c-252.34,260-604.85,422.22-994.57,423.74Zm0-15V99.69C2280.54,102.67,2903,726.92,2903,1493.82c0,372.89-147.16,712.06-386.44,962.48Z"/>
</svg>
