<svg xmlns="http://www.w3.org/2000/svg" viewBox="0 0 2994.91 3000">
  <title>84Icon_neon 1</title>
  <path d="M2674.47,2180.25,1308.59,76l-2.38-3.68L433.48,390l-4.09,1.49.51,4.33L726.55,2898.14l.8,6.85,495.4-176.28,4.07-1.45L998.6,545.7,1642.76,1567,1315,1686.27l75.42,429.55,1.13,6.47,514.17-187.15,279.49,429.77,2.4,3.7,484.13-180.21,6.42-2.4Zm-482.39,175L1912.6,1925.48l-2.38-3.66-510.06,185.64-72.69-414L1652.93,1575l6.41-2.33L995.33,519.9,982.75,500,985,521.27l230,2198.52L736.66,2890,441.33,398.81,1301.74,85.65,2661.51,2180.48Z"/>
</svg>
