<svg xmlns="http://www.w3.org/2000/svg" viewBox="0 0 2994.91 3000">
  <title>68Icon_neon 1</title>
  <g>
    <path d="M729.91,1773.77c-16.47,54.89-33.51,111.66-49.56,168.28l-.35,1.24.24,1.24c16.36,88.61,70.19,382.36,75.81,442.08,5.35,56.89,33.84,125.28,83.73,141a74.34,74.34,0,0,0,22.41,3.42c13.61,0,28-3.6,42.68-10.69,25.29-12.2,52.27-35,80.21-67.87,93-109.34,176.43-193.88,248-251.28,58.91-47.27,108.78-75.06,144.2-80.38,17.11-2.56,47.08-4.1,81.78-5.87,98.6-5,247.61-12.66,315.61-54.17,32.49-19.82,94.15-61.35,142.2-116.75l3.62-4.18-639.7-548.95-3.46-3-3.56,2.85c-20.86,16.64-48.31,41.7-81.64,74.52-10.48-9.36-41.24-38.27-75-83.22-38.21-50.93-88-133.33-108.36-236.67l-.36-1.88L793.3,958.74l2.49,15c20.73,124.58,55.42,333.09,17.55,499.79C792.53,1565.16,762.11,1666.49,729.91,1773.77Zm79.22-786.93,189.21,162.55c20.95,104.54,71.33,187.79,110,239.32,42.09,56.09,80.08,88,80.46,88.32l3.84,3.2,3.55-3.51c32.8-32.45,60-57.48,80.86-74.49L1904.88,1941c-46.52,52.22-104.88,91.45-136,110.43-65.62,40-213,47.58-310.48,52.57-35,1.78-65.17,3.33-82.81,6-37.35,5.61-89,34.19-149.46,82.68-72.08,57.84-156,142.87-249.46,252.73-26.93,31.66-52.71,53.56-76.61,65.09-20.52,9.9-39.7,12.15-57,6.69C798,2502.9,772,2439,767,2385.58c-5.65-60-59.09-351.74-75.71-441.78,15.89-56,32.78-112.27,49.1-166.67l.06-.2c32.26-107.46,62.72-209,83.62-301C861.05,1313.11,830,1112.89,809.13,986.84Z"/>
    <path d="M2073.83,2071.69c-29.57,42-97.63,96.28-105.29,102.33-153.62,121.33-346.8,126-462.27,128.73-24.61.59-45.87,1.1-62.87,2.61-73.15,6.48-182.48,118.73-381,322.51l-.19.19c-25.34,26-51.55,52.94-79.51,81.5-28.48,29.1-93.31,33.64-169.19,11.87-80.87-23.2-169.18-77.23-184.19-145.64-10.09-46-28.09-140.72-35.23-258l-2.45-40.16L583.26,2317c-18.18,84.95-15.08,114.47-9.45,168.06,1.53,14.58,3.27,31.1,4.8,51.08,4.24,55.25,34.23,135.84,78.26,210.32C705.29,2828.36,763,2890,815.24,2915.65c42.19,20.69,115.87,33.46,202.15,35,5.75.11,11.59.16,17.37.16,74.51,0,145.25-8.55,189.24-22.88,57.3-18.66,119.84-57.25,191.19-118,61.85-52.63,121.86-114.65,174.8-169.37,35.33-36.5,68.69-71,98.44-98.45,72.72-67.13,142.08-111.93,215.52-159.37,87.84-56.74,178.67-115.41,280.78-217l4.24-4.22-111.67-94.81Zm98.89,90.52c-99.57,98.2-188.6,155.71-274.75,211.35-73.84,47.7-143.59,92.75-217,160.52-30,27.66-63.44,62.25-98.88,98.89-105,108.5-235.65,243.54-361.5,284.52-46.39,15.11-124.18,23.61-203,22.19-84.73-1.54-156.72-13.9-197.51-33.91-50.34-24.69-106.38-84.81-153.74-164.92-43.22-73.13-72.64-151.9-76.76-205.57-1.54-20.1-3.29-36.72-4.83-51.39-4.52-43-7.36-70,1.44-123.77,8.41,98.75,23.53,177.47,32.43,218,16,72.84,107.89,129.77,191.9,153.87,79.77,22.88,148.78,17.23,180.08-14.75,28.17-28.78,54.38-55.69,79.73-81.72,97.36-100,174.27-178.92,235.15-233.12,63.69-56.68,106.52-83.24,138.89-86.1,16.66-1.48,37.77-2,62.22-2.57,115.82-2.78,309-7.41,464.82-128l0,0,3.65-2.89.27-.21,3.92-3.1v0c16.24-13.06,71.27-58.49,100-96.66Z"/>
    <path d="M2929.16,2484.34,2318.6,1958.63l26.68-34.73.14-.19c151.63-218.87,237.64-470.53,255.65-748,7.54-115.92-5.3-243.91-36.16-360.41-40.36-152.34-109.68-285.49-206-395.72-56.69-64.86-116.1-120.64-176.57-165.79-54.56-40.74-111.93-74.26-170.51-99.62-122.46-53-236.26-64.13-311.2-67.88-87.87-4.4-207.67,18.58-328.69,63-129.37,47.52-251.79,116.17-344.72,193.29-33.06,27.45-71.07,77-109.91,143.31a1257.57,1257.57,0,0,0-90,188.68L134.17,77.79,130,74.2,51.41,165.48l3.79,3.26,2795,2406.55,4.17,3.59L2933,2487.6ZM825.8,687.82,2917.44,2488.76l-64.23,74.6L66.93,164.32l64.23-74.6L823.24,685.61l-.41,1.12Zm10.39-5.57c43.53-117.46,127.08-272.28,198-331.16,204.23-169.51,498.94-262.17,665.83-253.82,176.49,8.83,409.93,54.26,650.55,329.55,248.86,284.73,246.23,644.65,239.49,748.17-17.87,275.4-103.21,525.17-253.62,742.33l-26.22,34.12Z"/>
  </g>
</svg>
