<svg xmlns="http://www.w3.org/2000/svg" viewBox="0 0 2994.91 3000">
  <title>26Icon_neon 1</title>
  <path d="M2845.13,1096.76l-.81-2.1-590.21-264-41.7-230.06-.41-2.29-1.95-1.3c-.56-.38-57.18-38.16-82.64-58.18L2105,524.91c-30.43-18.89-61.9-38.42-92.84-57.78l-.28-.17-1-.43c-46.19-14-95.26-21.58-142.72-28.89-30.29-4.67-61.6-9.49-91.75-15.95l-.48-.08c-30.06-3.46-60.75-10-90.44-16.31-58.85-12.52-119.7-25.47-180.48-15.89q-64.59,7.36-129.19,14.78l-1.15.13c-60.45,6.93-123,14.1-184.37,21.06l-15.63,1.48c-74.16,7-91.78,8.61-163.3,56.06-65.82,44.32-207.06,129-208.46,129.81l-1.82,1.09L722.92,868.91l-256.78,54-.82.17L168.69,1100.54,66.93,1301.28l-1.13,2.22L166.39,1555l.77,1.94,269.67,134.83L240.68,1525.27l132.57-255.81,316.63-95.11c-2.5,26.64-10.24,108.87-13.31,137.36l-.05.58.05.53c4.86,48.61,19,85.69,33.9,125,13,34.27,26.52,69.71,33.8,114.39-8.09,75.3-12.35,151.28-16.47,224.77-4.11,73.24-8.35,149-16.39,223.9l-.26,2.42,1.61,1.81c54.06,61.15,105.16,123.55,154.63,183.94,50.75,62,103.23,126,159,188.84l.23.27.28.23c18.39,15.55,39.52,27.53,60,39.15,12.32,7,25.05,14.22,36.92,22.1l51.63,31c72.57,43.64,147.6,88.76,222.16,133.72l.36.21.39.16c20.64,8.13,43.17,7.47,65,6.84,12.23-.35,24.87-.72,36.74.56l.37,0,.38,0c13.74-.56,28.09.12,42,.78,10.31.49,21,1,31.55,1a202.27,202.27,0,0,0,36.13-2.78l.49-.08,1.11-.44.41-.26q32.79-21.09,65.56-42.21l.43-.27c59.35-38.23,120.72-77.76,181.43-116.42l.41-.26.35-.34c80.27-76.3,237.8-283,313.5-382.37l.25-.33c18.46-24.22,31.8-41.73,38.29-49.83,1.83-2.28,2.93-3.66-5.47-70.09-4.39-34.76-10.92-83.14-19.41-143.81-14.57-104.15-30.64-214-34.29-238.88L2261,1349.16l.52-1,9.4-172.58,343.19,74.7,65.14,309.41-161.37,182.11,319.16-151.35,2.06-1,94.21-263.07.69-1.93Zm-283.26,612,127.48-143.86,1.84-2.08-67-318.31-.73-3.49-362.77-79-10,183.19-107.79,217-.76,1.54.25,1.7c30.72,209.34,61.09,427.5,60.82,447.13-6.89,8.67-20,25.85-37.8,49.24-75.42,99-232.24,304.77-311.92,380.68-60.43,38.48-121.66,77.92-180.89,116.06l-1.09.71q-32,20.63-64,41.23c-20.59,3.51-42.74,2.45-64.19,1.43-10.34-.49-21-1-31.57-1-3.89,0-7.47.07-10.93.21-12.42-1.31-25.32-.93-37.8-.57-20.54.59-41.77,1.21-60.16-5.9-73.07-44.06-147.41-88.77-219.32-132l-53.74-32.31c-12.15-8.06-25-15.37-37.5-22.45-19.89-11.29-40.46-23-58-37.68-55.45-62.49-107.78-126.38-158.44-188.23-49-59.84-99.66-121.69-153.26-182.4,7.91-74.44,12.11-149.46,16.18-222.09,4.13-73.58,8.39-149.66,16.51-224.93l.07-.75-.11-.69c-7.43-46.12-21.19-82.3-34.5-117.27-14.61-38.41-28.41-74.7-33.17-121.57,3.72-34.8,13.91-144,14-145l.75-8.12L367.86,1259.6l-2.23.67L228.9,1524.09l-2,3.89,133.31,113.14-184.37-92.18L77.86,1304l99.21-195.69L469.3,933.49l262.23-55.15,78.81-257.26c16.8-10.08,144.52-86.87,207.12-129,69.18-45.9,84.51-47.34,158.21-54.25l.23,0,15.52-1.47c62-7,124.61-14.21,185.11-21.14q64.9-7.44,129.83-14.86l.21,0c58.82-9.29,118.69,3.45,176.6,15.77,29.85,6.36,60.72,12.92,91.19,16.45,30.35,6.49,61.74,11.32,92.1,16,46.83,7.21,95.25,14.67,140.5,28.34,31,19.37,62.12,38.71,92.25,57.4l21.66,13.45C2144.14,566,2192,598.2,2202,604.88l41.79,230.61.52,2.86,591.39,264.51,86.59,221.75-92,256.84Z"/>
</svg>
