<svg xmlns="http://www.w3.org/2000/svg" viewBox="0 0 2994.91 3000">
  <title>50Icon_neon 1</title>
  <g>
    <path d="M2248.11,2311.36c-14.41-210.61-42.66-393.5-86.36-559.12l-.14-.44c-42.54-117.09-100.73-269.61-173.7-410.83-80-154.76-164-271.34-256.9-356.33-.5-4.16-1.65-12-3-20.9-2.47-16.77-6.18-42-6-46.87,1.55-14.9,5.32-53.13,10.1-101.5,13.42-135.83,34.83-352.57,44-431,32.56,107.89,64,219.74,94.37,328.15,41.83,149.05,85.08,303.17,132,449.54l1.74,5.46,5.39-2c3.24-1.19,11.18-5,20.47-9.62l.58-.28q1.69,7.56,3.38,15.18c6.59,29.71,13.41,60.43,22.18,89.4l2,6.5,5.95-3.27c18.7-10.29,41.7-13.85,59.65-15.79l6-.65-1.18-5.89c-5.54-27.75-12.78-56.1-19.79-83.52l-.23-.92q-1.56-6.06-3.09-12.11l1.45-.55c7.73-2.93,17.34-6.57,23.57-10.16l3.62-2.09-1-4c-20.86-81.06-48.42-162.39-75.07-241-20.89-61.67-42.49-125.43-60.65-188.46l-.05-.18c-17.37-53-29.6-109.55-41.43-164.27-19.19-88.84-39.05-180.7-81.54-261.18l-.2-.38-.62-.81-.32-.29c-29-26.67-68.45-32.84-106.58-38.81-14-2.19-28.49-4.46-41.72-7.72-27.77-7.71-63.24-18.87-91.42-36.84-31.23-19.92-48-44.25-51.21-74.35l-.87-8.15-7.21,3.9c-5.55,3-16.32,8.82-25.83,14l-14.86,8-.4.24c-10.38,6.93-20.69,8-27.57,3l-1.5-1.11-8.27.14-1.4,1c-6.88,5.05-17.18,3.93-27.59-3l-.39-.23-23.22-12.56-24.63-13.33-.88,8.15c-3.24,30.12-20,54.45-51.22,74.36-28.16,18-63.62,29.12-91.38,36.82-13.23,3.26-27.7,5.53-41.7,7.72-38.16,6-77.61,12.14-106.62,38.82l-.32.29-.62.82-.2.37c-42.5,80.49-62.35,172.33-81.55,261.15-11.82,54.72-24,111.3-41.44,164.32l0,.17c-18.15,63-39.76,126.78-60.66,188.49-26.65,78.65-54.2,160-75,241l-1,4,3.62,2.09c6.2,3.58,15.88,7.25,23.66,10.19l.1,0,1.35.51q-1.35,5.08-2.72,10.19c-7.61,28.5-15.48,58-21.25,86.95l-1.16,5.83,5.91.7c19.84,2.35,42.58,6.1,60.81,16.08l5.94,3.26.1-.33,4,.6a7,7,0,0,0,.89.07,5.55,5.55,0,0,0,1.73-.28l2.54.29.29-2.41,1.8-2.36-1.21-2.71h0l.29-2.45-2.6-.29a5.79,5.79,0,0,0-2.46-.78l-2.17-.19c8.54-29,15-59.62,21.29-89.32l.12-.53q1.2-5.71,2.4-11.38l.54.27c9.34,4.59,17.33,8.5,20.66,9.72l5.38,2,1.75-5.46c47-146.35,90.21-300.48,132-449.53,30.43-108.44,61.83-220.33,94.39-328.22,9.25,80,31.14,307.44,43.56,436.58l.11,1.15c4.45,46.28,8,82.87,9.38,96.72.14,4.94-3.73,31.39-6.06,47.26v.11c-1.33,9-2.42,16.5-2.9,20.5-212.52,203.3-328.77,489.45-429.63,765.16l-.14.44c-43.71,165.93-72,348.81-86.36,559.1-13,189.48-13.57,383.56-13.07,566.11v4.64l4.58.77c203,33.93,369.17,54.94,523,66.13,86.28,6.27,170,9.45,248.85,9.45,97,0,187.76-4.56,277.59-13.95,115.34-8.06,233.43-26.34,347.66-44l.18,0c38.09-5.9,77.47-12,115.89-17.57l4.69-.69v-4.74C2261.7,2694.74,2261.05,2500.47,2248.11,2311.36ZM1278.56,991.84l.16-2.09c.21-2.56,1.59-12,3-22l0-.12c3.76-25.64,6.4-44.19,6.15-49.49l0-.27c-1.4-13.73-4.93-50.44-9.4-96.91l-.1-1.08c-14.39-149.54-41.16-427.9-46.9-462.56l-3.83-23.15-6.86,22.44c-35.27,115.53-69.14,236.25-101.9,353-41.25,147-83.89,298.92-130.07,443.34-4.23-2-9.82-4.73-14.31-6.94-2.95-1.46-5.5-2.71-7-3.4l-6.27-3-1.46,6.78c-1.32,6.18-2.64,12.41-4,18.65l0,.19c-6.06,28.76-12.32,58.44-20.46,86.46-16.72-7.76-35.62-11.32-52.83-13.58,5.57-26.79,12.86-54,19.91-80.47l.16-.59q1.92-7.2,3.83-14.37l1.26-4.73-4.56-1.8c-1.81-.71-3.87-1.49-6-2.32l-.11,0c-5.91-2.25-13-4.93-18.39-7.52,20.62-79.24,47.61-158.91,73.72-236,20.93-61.77,42.58-125.65,60.79-188.86,17.54-53.51,29.82-110.35,41.7-165.33,19-87.78,38.59-178.53,80.08-257.48,26.52-23.9,64-29.76,100.18-35.43,14.25-2.23,29-4.53,42.72-7.92l.14,0c28.51-7.91,65-19.4,94.43-38.16,31.48-20.08,49.56-44.5,55.08-74.47l11,5.94L1461,140.77c13.65,9,27.87,10.32,38.44,3.6l1.26,0c10.58,6.69,24.76,5.4,38.37-3.61l18.3-9.9,15.23-8.24c5.56,29.66,24,54.68,55.06,74.46,29.42,18.78,65.94,30.27,94.46,38.19l.14,0c13.72,3.39,28.47,5.7,42.75,7.94,36.19,5.66,73.61,11.52,100.14,35.4,41.48,78.95,61.1,169.71,80.07,257.52,11.88,55,24.16,111.79,41.69,165.27,18.21,63.21,39.84,127.06,60.78,188.84,26.12,77.1,53.11,156.77,73.74,236-5.38,2.59-12.43,5.26-18.31,7.49-2.19.83-4.26,1.62-6.09,2.34l-4.52,1.77,1.19,4.7q2.25,8.87,4.54,17.81c6.47,25.33,13.15,51.47,18.46,77.07-15.89,2-34.77,5.4-51.73,13.32-7.76-26.72-14-54.93-20.1-82.31l0-.11q-2.43-11-4.89-21.88l-1.51-6.66-6.19,2.9c-1.4.66-3.93,1.9-6.93,3.37-4.2,2.06-9.85,4.84-14.13,6.84-46.19-144.44-88.82-296.36-130.07-443.35l0-.12c-32.75-116.71-66.62-237.39-101.87-352.85l-7-22.83-3.72,23.58c-5.74,36.43-31.74,299.66-47.28,456.93-4.79,48.54-8.58,86.88-10.1,101.63l0,.26c-.27,5.23,2.36,23.68,6.11,49.18l0,.25c1.48,10.07,2.87,19.58,3.07,22.09l.16,2.19,1.62,1.47c199.51,181.62,328.88,488.07,429.12,763.94,93,352.4,100,714.66,99.08,1117.45-37,5.39-74.7,11.24-111.26,16.89l-.22,0c-114,17.65-231.9,35.9-346.81,43.92l-.19,0c-88.38,9.24-181.94,13.93-278.11,13.93h-.07c-277.54,0-541.64-37.65-763.82-74.7-1-402.14,5.92-764,99-1117.45C949.41,1480.34,1065.37,1195,1277,993.3Zm-332.43,275.1a4.54,4.54,0,0,1-3-2.3l3.41-1.51Zm.5-4.45-2.84-.33h0l2.84.34Zm.5-4.44h0l-.42,3.8-2.31-1.76c.14-.45.26-.91.4-1.36A4.43,4.43,0,0,1,947.13,1258.05Z"/>
    <path d="M1612.9,64.17l-17.37-34.75-92.17,51.82,14.28,34.47Zm-22.05-19.5,7.45,14.89-75.17,40.67-5.88-14.18Z"/>
    <path d="M1497.3,81.36l-5.48-2.94q-4.39-2.36-8.78-4.76l-5.1-2.78c-4.09-2.24-8.32-4.54-12.47-6.87l-17.53-9.72-42.54-24-17,33.72L1483,115.6ZM1403,59.49l7-13.93,32.54,18.33,17.55,9.74c4.17,2.32,8.42,4.65,12.55,6.9l5.08,2.78,5.55,3-5.75,13.78Z"/>
  </g>
</svg>
