<svg xmlns="http://www.w3.org/2000/svg" viewBox="0 0 2994.91 3000">
  <title>64Icon_neon 1</title>
  <g>
    <path d="M939.55,798.6c-96.91-1.1-174.95,13-175.73,13.14l-4,.73-.49,4c-.08.67-7.86,67.45,15.64,143.31,13.84,44.65,35.64,83.73,64.8,116.16,36.43,40.52,84.44,70.64,142.7,89.51,22.3,7.22,59.42,10.88,110.34,10.88,108.24,0,242.27-16.3,243.61-16.47l5.22-.64-.41-5.23a775,775,0,0,0-18.85-112.29c-13.63-55.41-39.44-128.75-85-163.52-37.09-28.31-85.16-49.4-142.87-62.68C1048.6,804.93,996.46,799.25,939.55,798.6ZM769.89,821.87c16.84-2.75,86.77-13.21,169.56-12.27,88,1,209.9,15.23,291.28,77.34,43,32.81,67.78,103.7,81,157.38a785.81,785.81,0,0,1,18.08,105.26c-25.73,3-142.2,15.82-237.22,15.81-43.77,0-83-2.72-106.7-10.4-127.57-41.32-179.37-130.71-200.37-198.43C765.94,893.44,768.61,837.55,769.89,821.87Z"/>
    <path d="M1420.9,1258.31c3.09-18.18,12.68-68.93,19.86-85.16,9.38-21.22,31.47-57.56,45.87-72.62,8.39-8.76,38-38.44,66.78-52.4,6.33-3.07,29.08-11.59,41.55-16.15l4.69-1.71-3.76-10.33-4.69,1.71c-.34.12-33.85,12.34-42.59,16.58-30.45,14.76-61.22,45.6-69.92,54.7-15.16,15.84-38.24,53.74-48,75.77-9.08,20.5-20.18,85-20.65,87.76l-.84,4.93,10.85,1.85Z"/>
    <path d="M2887.51,1960.12c-57.36,14.4-87,27.19-102.39,44.13S2769.79,2041,2770,2068.3c.34,39.27.81,93.06-42.66,179.78-13,25.93-53.88,59.88-115.1,95.59-49.69,29-107.27,55.65-143.28,66.35-28.81,8.56-74.19,2-118.08-4.39-40.61-5.9-79-11.46-106.86-6.26-28.57,5.32-109.22,36.27-164.32,59.59,9.59-18.49,24.48-48.5,35.14-70l.06-.1c4.36-8.8,8.21-16.55,10.3-20.7,28.54-13.53,56.1-34.26,77.78-58.52,24.21-27.09,38.76-55.81,42.1-83.07,4-32.4-7.66-60.36-34.55-83.17,7.13-27.52,23.35-90.47,28.52-122.34,49.31-17.86,88.28-41,115.85-68.67,25.86-26,41.11-55.24,45.33-86.94,3.92-29.39-2.15-60.1-17.55-88.8-14.85-27.7-38-52.94-67-73-39.82-27.58-87.67-43.8-138.37-46.93-55.86-3.45-113.51,9.65-166.78,37.89-51.75-4-111-47.14-141.3-103.21-20.63-38.15-23.29-74.44-7.48-102.21l2.84-5-5.13-2.61c-31.21-15.88-55.36-47.35-64.6-84.19-8.45-33.73-3.12-67.68,14.64-93.15l2.49-3.58-2.92-3.24c-2.64-3-6.08-6.29-9.75-9.86-7.86-7.66-16.78-16.33-20.11-23.16l-1.25-2.58-2.84-.44c-89.49-14.08-157.49,12-229.48,39.71-42.37,16.28-86.18,33.11-135.69,41.7-43.8-7.25-92.76-22.69-140.14-37.62-58-18.27-117.93-37.17-172.52-42.86h-.15c-84.51-6.34-175.7,12.38-256.72,52.73a487.2,487.2,0,0,0-109.92,74.45c-32.07,29-58.67,61.38-79.12,96.34C375,1307.08,304.9,1039.45,437.2,668l357.48,56.39L657.75,540.94l490.73,25.24,12.14.62-7.55-9.53c-87.3-110.33-180-194.39-275.69-249.86S680.74,223.7,577.56,223.7c-79.75,0-162.54,16.86-246.07,50.1-41.34,16.45-81.55,50.42-119.5,101-33.7,44.88-65.37,103.09-91.56,168.34C69.88,669,43.18,809.5,50.73,909.83c16.52,219.49,61,376.24,144.07,508.26,77.55,123.16,182.35,216.09,315,333.75l.23.2c17,15.07,34.54,30.63,52.45,46.64.23,13.22,1.4,79.77,2.87,106.68C496.6,1928.84,447,1981.3,428.92,2049.82c-20.71,78.64,3.61,165.37,65,232,23.72,26.9,60.15,43.2,108.29,48.44a322.06,322.06,0,0,0,72.6-.61c1.78,4,4,9.19,6.59,15,7.83,17.87,18.32,41.81,24.84,54.49a196.15,196.15,0,0,0-45.45,118.38c-1.32,41.7,53.3,70.59,97.21,93.83,12.44,6.58,24.19,12.79,33.23,18.56,70.61,45.05,189.56,65.39,201.86,67.4,43,23.5,106.09,52.3,144.08,60.42,31.3,6.68,96.56,4.28,129.7.07,16.69-2.12,39.17-9.51,63-17.35,29.57-9.73,60.15-19.79,80.18-19.79s50.6,10.06,80.18,19.8c23.74,7.81,46.17,15.19,62.84,17.33a392.57,392.57,0,0,0,64.28,5.34c57.5,0,115.5-12.85,172.4-38.19,67.16-29.91,132.46-76.72,194.1-139.16l11.31-2.46c90.34-19.64,214.07-46.54,266.73-50.62,15.75-1.22,32.49,1,51.92,3.52,38.33,5,86,11.28,150.77-6.86l.15,0c79.86-25.05,160.91-65.07,228.21-112.68,76.86-54.38,135-117.85,168.14-183.54l.25-.59c8.63-24.4-4.06-61.06-16.34-96.52-11.66-33.67-23.72-68.48-16.37-89.25,8.42-23.8,49-63.8,63.92-77.2l16.53-14.84Zm-52.93,179.47c11.61,33.51,23.61,68.16,16.5,88.91-74.57,147.43-256.4,248.51-389.57,290.3-62.52,17.5-109,11.41-146.29,6.52-20-2.63-37.29-4.89-54.19-3.58-53.41,4.13-177.55,31.12-268.21,50.83l-14.52,3.16-1.14,1.17c-92.71,94.25-241.24,200.25-422.4,170l-.2,0c-15.65-2-37.63-9.22-60.9-16.88-30.4-10-61.84-20.35-83.62-20.35s-53.22,10.34-83.62,20.35c-23.28,7.66-45.26,14.89-60.91,16.88-32.38,4.12-95.89,6.51-126,.08-37.16-7.94-99.62-36.54-141.92-59.76l-.41-.22-1-.33-.4-.06c-5.17-.82-127.41-20.54-198.6-66-9.43-6-21.38-12.34-34-19-41.18-21.79-92.44-48.91-91.34-83.75A184.71,184.71,0,0,1,717,2403.52l2.54-2.9-1.85-3.39c-6-10.9-17.68-37.54-26.21-57-3.43-7.83-6.39-14.59-8.33-18.83l-1.72-3.77-4.1.61c-12.37,1.84-122.35,16.27-175.19-43.71l-.08-.08c-58.9-63.88-82.27-146.8-62.52-221.8,17.43-66.19,66-116.54,133.25-138.15l4.09-1.31-.29-4.3c-1.73-25.48-3.13-111.91-3.14-112.79l0-2.4-1.79-1.6q-28.07-25.08-54.51-48.47C254.78,1511,96.43,1370.54,61.7,909c-7.43-98.76,19-237.39,68.93-361.79,25.85-64.37,57-121.71,90.15-165.84,36.73-48.91,75.34-81.67,114.77-97.36,293.26-116.7,562.79-25.69,801.29,270.54L634.92,528.75,769.7,709.26,434.41,656.38l-4.49-.71L428.38,660C404.56,726.18,387.66,786,376.7,842.88c-15,77.85-19,151.85-12,219.93,8.64,83.19,34,160,75.5,228.34,48,79.13,118.71,148.8,210.15,207.07l4.89,3.13,2.86-5.06c80.24-142.23,264.53-236,438.17-223,53.45,5.58,112.83,24.3,170.27,42.4,48.07,15.15,97.77,30.82,142.66,38.15l.81.13.92-.15c51-8.72,95.56-25.86,138.69-42.43,69.86-26.84,135.88-52.21,221.17-39.52,4.68,7.82,13.26,16.16,20.93,23.63,2.24,2.18,4.41,4.28,6.3,6.22-17.57,27.59-22.61,63.19-13.79,98.37,9.51,37.91,33.77,70.69,65.37,88.68-14.79,30.41-11.31,68.5,10,107.9,32.32,59.76,96.17,105.63,151.82,109.07l1.56.09,1.38-.74c118.07-63.27,229.86-37.54,295.1,7.64,56.48,39.11,87.09,97.08,79.87,151.29-8.3,62.33-64.07,114.82-157.05,147.8l-3.12,1.11-.48,3.27c-4.61,31.24-22.82,101.41-29.68,127.83l-.9,3.45,2.77,2.23c25.7,20.67,36.9,46.09,33.29,75.54-6.84,55.91-63.19,109.61-115.33,133.77l-1.7.79-.88,1.69c-1.79,3.51-6.15,12.3-11.25,22.57-14.29,28.8-35.89,72.32-42.33,83.38l-8.44,14.51,15.39-6.7c52.95-23,146.23-59.44,176.41-65.07,26.11-4.86,63.59.58,103.29,6.34,45.06,6.53,91.65,13.3,122.78,4,36.76-10.92,95.31-38,145.68-67.39,36.51-21.3,100.58-62.63,119.39-100.16,44.66-89.09,44.16-146.69,43.83-184.81-.23-25.79-.38-42.83,12.31-56.74,11.93-13.08,34.56-23.65,76.29-35.25-17.4,17.3-44.05,46.11-51.39,66.86C2809.61,2067.47,2822.3,2104.13,2834.58,2139.59Z"/>
  </g>
</svg>
