<svg xmlns="http://www.w3.org/2000/svg" viewBox="0 0 2994.91 3000">
  <title>114Icon_neon 1</title>
  <g>
    <path d="M867.57,477.94c37.92,21.07,81.63,37.34,123.16,52.2,63.5,22.71,139.4,40.52,225.6,52.94C1299,595,1387.21,601.42,1478.58,602.2c6.26.06,12.58.08,18.79.08,84.45,0,167-4.9,245.42-14.56,87.33-10.76,165.2-26.93,231.43-48.05,44.32-14.13,99.48-31.72,146.19-55.91,53.11-27.51,87.22-59.27,104.3-97.1,18-39.79,11.37-78.13-19.59-114-24.86-28.78-61.11-50.83-89.91-66.83-77.57-43.07-176.8-75-294.93-94.76-107.39-18-231.22-26.2-368-24.38h-.15L1254.85,101l-.49.06c-69.81,12-148.93,25.68-219.3,44.72-77,20.82-135.38,45.52-183.79,77.73-41.24,27.44-68.72,55.93-81.7,84.67-13.3,29.46-11.38,58.73,5.72,87C794.61,427.08,824.79,454.16,867.57,477.94Zm-10.2-245.32c105.4-70.14,254.4-95.86,398.56-120.72l196.62-14.18c288.58-3.83,509.72,35.79,657.32,117.76,28,15.55,63.19,36.93,86.93,64.4,27.91,32.31,33.92,66.71,17.88,102.25s-48.5,65.54-99.32,91.86c-45.89,23.76-100.55,41.2-144.48,55.2-126.16,40.23-294.29,62.38-473.43,62.38-192.12,0-375.46-26.17-503-71.79-91.39-32.69-170.25-65.06-209.73-130.33C746,325.52,802.88,268.88,857.37,232.62Z"/>
    <path d="M2314.8,2162.3c-7.84-13.26-21.09-20.89-37.64-21.82l.71-585.08c26.44-10,34-32.14,32.12-50-2.1-19.79-15-35.31-32.12-39.23l-.42-582.45c24.65-4.67,39.87-28.39,40-49.22a41.26,41.26,0,0,0-10.08-27.72c-7.1-8-17.16-13.14-30-15.18L2277.15,565l-1,.38,0-9.53-5.71,11.72-.05,0c-2.1.81-2.8,2.45-3.47,4-5.56,13.23-16.64,27.11-32.92,41.23-30.56,26.19-96.13,66.51-235,109.93-132.52,41.43-307.54,61.93-486.13,61.93-194.76,0-393.74-24.41-546.15-72.68C814.91,664,746.52,617.52,734.36,608.69l-8.63-6.25L724,791.87c-15.67,3.22-27.51,9.67-35.23,19.18a41.19,41.19,0,0,0-8.83,31.22c2.47,20.24,19.51,41.16,44,42.26l1.68,576.54c-17.51.86-31.42,8.68-39.51,22.36a48.32,48.32,0,0,0,.11,48.73c8.15,13.69,22,21.5,39.42,22.31l.31,582.31c-24.56,5.54-34.1,24.71-34.73,41.45-.74,19.65,10.95,42.38,34.71,49.81-.16,24.26-1,53.47-1.92,84.31-1.91,65.33-4.08,139.38-1.11,204.71,3.48,76.62,13.55,125.64,30.78,149.85,52.23,73.38,143.55,108.75,224.12,140,66.63,25.81,146.55,45.8,237.54,59.39,86.61,12.95,179.38,19.58,275.73,19.72h3c192.63,0,380.17-26.85,514.53-73.67,90.3-31.46,182.84-68,235-138.14,44-59.13,39.29-221.76,35.47-352.44-.92-31.63-1.79-61.61-1.93-87.94,16.48-1,29.7-8.63,37.57-21.93C2323.54,2197,2323.56,2177.09,2314.8,2162.3Zm-9.52,44c-6.63,11.19-18.48,17.09-33.46,16.6l-5.68-.17v5.68c0,27.77,1,59.79,2,93.7,3.76,129,8.44,289.47-33.3,345.53-50.34,67.6-141.14,103.42-229.83,134.32-136.38,47.52-317.16,73.7-509,73.7-197.19,0-384.61-28.8-514.2-79C902.63,2766,813,2731.22,762.63,2660.53c-36.33-51.05-31.3-222.59-27.63-347.86,1-32.71,1.86-63.61,1.94-88.83v-4.43l-4.33-1c-20.78-4.59-31-23.5-30.42-39.8.25-6.5,3.14-28,30-31.84l4.72-.68L736.63,1549v-5.72l-5.71.23c-15.87.59-28.39-5.43-35.26-17a37.18,37.18,0,0,1-.09-37.5c6.82-11.53,19.35-17.57,35.37-17l5.7.19-1.73-593.3,0-6-5.94.51c-20.87,1.78-36.05-15.48-38.13-32.51-.92-7.54-.79-32.65,39.45-39l4.6-.72,1.66-177.67c24.31,15.91,94.77,57.19,226.81,99,69.11,21.89,149.94,39.34,240.25,51.88,88.37,12.27,181.29,19.22,276.17,20.66q18.3.27,36.39.27c185.83,0,357.31-21.8,486.07-62.05,141.2-44.13,208-85.41,239.14-112.26,12.16-10.49,19.67-18.59,24.83-25.53l.26,200.94v5l5,.47c32.73,3.06,35.1,25.64,35,32.48-.14,17.47-13.55,37.35-35,39l-5.08.39.44,597v5l5,.46c14.26,1.32,25.43,13.76,27.18,30.24,1.53,14.43-5.11,32.44-28.32,39.71l-3.85,1.2-.73,598.46v5.69l5.69-.18c15.06-.5,26.92,5.36,33.51,16.49A38.68,38.68,0,0,1,2305.28,2206.27Z"/>
  </g>
</svg>
