<svg xmlns="http://www.w3.org/2000/svg" viewBox="0 0 2994.91 3000">
  <title>32Icon_neon 1</title>
  <path d="M2864.86,118.53l-.87-5.78-5.71,1.22c-1.82.39-184.35,39.16-442,78.63-237.9,36.45-590.4,81-918.78,86.2-328.4-5.21-680.89-49.75-918.79-86.19C321,153.13,138.44,114.36,136.62,114l-5.71-1.22-.87,5.78C94.56,354,101.79,635.09,151.54,954.12c47.78,306.44,125.25,584.76,181.82,764.28,39.27,124.58,78.37,245.88,125,360.23,52.31,128.32,108.09,232.09,170.52,317.24,36.81,50.22,83.57,96.49,143,141.46,55.78,42.24,118.08,79.82,172.1,111.73,35.47,21,149,76.54,264.15,129.3,65,29.79,221.88,100.43,274.78,113l14.59,3.57,14.55-3.56c52.94-12.57,209.83-83.21,274.82-113C1901.94,2725.6,2015.5,2670,2051,2649.06c54-31.91,116.32-69.48,172.1-111.73,59.39-45,106.14-91.25,143-141.46,62.42-85.15,118.2-188.92,170.51-317.24,46.63-114.36,85.74-235.65,125-360.23,56.57-179.52,134-457.84,181.83-764.28C2893.11,635.09,2900.34,354,2864.86,118.53ZM1497.45,2883.59l-12-2.93c-52-12.34-208.08-82.65-272.78-112.3-114.82-52.62-228-108-263.14-128.77C830.24,2569.13,716.63,2497,637.75,2389.37,495,2194.64,411.19,1928.75,343.85,1715.1,232.25,1361,57.75,684.58,140.05,125.93c32.26,6.71,204.73,42,437,77.55,238.25,36.5,591.33,81.1,920.38,86.32h.16c329-5.22,682.11-49.82,920.37-86.32,232.21-35.58,404.68-70.84,436.94-77.55,82.3,558.66-92.2,1235-203.8,1589.17-67.34,213.65-151.14,479.55-293.9,674.27-78.88,107.6-192.48,179.76-311.77,250.22-35.19,20.78-148.32,76.15-263.14,128.77-64.7,29.66-220.79,100-272.81,112.31Z"/>
</svg>
