<svg xmlns="http://www.w3.org/2000/svg" viewBox="0 0 2994.91 3000">
  <title>130Icon_neon 1</title>
  <g>
    <path d="M2565.9,2411.09c-1.2-41.08-2.45-83.55-2.45-125.54q-.66-432.87-1.35-865.73v-.41l-.07-.41a231,231,0,0,0-49.64-108.79c-27.19-32.92-61.8-53.74-108.92-65.51-37.76-9.43-84-13.33-153.72-12.91,10.56-63.82,9.75-156.3-2.43-275q-1.86-18.07-3.61-35.72l-.08-.83c-11.07-110.49-20.64-205.91-51.85-293.92-51.46-145.09-144.94-278.16-263.21-374.69C1794.89,142.49,1637.07,85.89,1472.3,87.9h-.3l-1,.16c-25.16,6.36-49.64,9.72-73.32,13-29.42,4-57.2,7.85-84.72,16.92A824.2,824.2,0,0,0,987.5,319a785.21,785.21,0,0,0-120,155.45A758.58,758.58,0,0,0,789.21,661c-43,159.28-39.38,368.93-28.79,572.34-72.3-.31-120.35,4.87-160,17.17-45.4,14.1-79.64,38.28-107.76,76.1-46.9,63.07-44.61,179.8-42.39,292.74.45,23,.92,46.89.92,69.44v758.11c0,22.66-.74,46.85-1.52,72.52-2.55,83.61-5.44,178.38,19.49,234.83,28.62,64.83,77.47,103.31,153.73,121.11,38.76,9,85.45,13.08,151.38,13.08,29.24,0,59-.74,90.41-1.52,33.5-.83,68.13-1.69,103.52-1.69H2356.1l.61,0c53.57-6.53,95.31-23.86,127.58-53,29-26.17,49.71-61.41,63.26-107.71C2572.58,2639,2569.33,2528.32,2565.9,2411.09ZM2537,2721.37c-27,92.39-84.64,141-181.25,152.82H968.23c-35.52,0-70.23.86-103.8,1.7-88.64,2.2-172.37,4.27-239-11.28-72.61-17-119.06-53.44-146.17-114.84-23.92-54.17-21.07-147.62-18.55-230.12.78-25.69,1.52-50,1.52-72.79V1688.75c0-22.66-.47-46.56-.92-69.7-2.18-111-4.43-225.87,40.22-285.92,55.25-74.31,134.25-88.85,252-88.85q6.23,0,12.61,0l5.85.05-.31-5.84c-10.78-204.39-14.83-415.48,28.12-574.72,66.68-247.23,264.63-452.39,516.59-535.41,26.57-8.76,53.87-12.51,82.78-16.48,23.78-3.26,48.36-6.64,73.88-13,2.66,0,5.29,0,7.94,0,353.7,0,606.63,266.76,700.4,531.13,30.76,86.75,40.26,181.57,51.27,291.36q1.8,18.06,3.69,36.55c12.49,121.83,13,215.52,1.41,278.47l-1.22,6.56,6.68-.06c128.18-1.24,207.69,10.24,260.66,74.37a219.83,219.83,0,0,1,47.2,103.11q.67,432.57,1.34,865.23c0,42.17,1.25,84.76,2.46,126C2558.31,2527.75,2561.53,2637.54,2537,2721.37Z"/>
    <path d="M1906.55,527.75c-41.79-54.22-96.27-102.91-166.54-148.86-64.76-42.36-165.89-96.53-296-78.1a548.85,548.85,0,0,0-160.88,48.26c-41.74,19.82-82.49,45.15-128.24,79.72-54.45,41.14-96.21,85-127.65,134.1C998,608.53,977.46,659.28,964.39,718c-24.82,111.56-20.71,239.6-15.51,401.7,1.23,38.17,2.5,77.65,3.45,119.26l.13,5.36h1084l.1-5.39c4.42-235.82-.57-398-39.15-529.34C1977,640,1947.25,580.55,1906.55,527.75Zm119.11,705.58H963.2c-.93-39.54-2.14-77.26-3.32-113.79v-.18c-10.35-322.34-16.6-516.9,201.68-681.82,69-52.11,156.64-107.81,284-125.86,126.4-17.91,225.14,35,288.41,76.41C2008,567.29,2033.85,783.67,2025.66,1233.33Z"/>
  </g>
</svg>
