<svg xmlns="http://www.w3.org/2000/svg" viewBox="0 0 2994.91 3000">
  <title>170Icon_neon 1</title>
  <g>
    <path d="M2357.79,320.81,1854.38,55.55,1850,53.22l-103.82,197-2.56,4.87,61.69,32.51L1452.06,956.74l-864.37,600-1.11.77L215.8,2261.19l-2.55,4.87,1253.49,660.5,4.83,2.55,380.09-710.3.66-1.26-19.7-1060.94,349.6-670.37,69.19,36.46,103.82-197Zm-535.58,832-.64,1.24,19.7,1060.89L1467,2914.29,228.1,2261.45l367-696.39,864.38-600,1.1-.77L1815,292.74l357.48,188.37Zm520.72-827.36-96.12,182.42L1758.44,250.5l96.12-182.42Z"/>
    <path d="M2392.75,989.3h-.5l-36.54,8-.36.14c-41,15.88-70.81,44.85-86.22,83.77-18.46,46.62-9.23,101.48,24.09,143.18,26.85,33.58,65,52.85,104.74,52.85a124.64,124.64,0,0,0,19.08-1.48c30.51-4.76,56.34-14.87,76.77-30.07,20.27-15.08,35.76-35.54,46.06-60.83,18.32-45,14.26-90.52-11.44-128.17C2499.56,1014.35,2447.6,988.55,2392.75,989.3Zm5.21,276.9h0c-36.36,0-71.4-17.76-96.14-48.72-30.87-38.62-39.47-89.3-22.46-132.26,14.2-35.88,41.7-62.64,79.53-77.41l34.56-7.52h1.63c50.31,0,97.92,24,124.26,62.57,23.56,34.51,27.23,76.35,10.34,117.82-19.14,47-57.61,75.34-114.33,84.18A114.06,114.06,0,0,1,2398,1266.2Z"/>
    <path d="M2790.52,95.1c-23-33.44-63.62-54-106.25-54h-2.34l-29.36,6.55-.37.15c-33,13.09-56.93,37-69.32,69.06-15.17,39.27-7.2,85.15,20.79,119.73,21.5,26.56,51.76,41.8,83,41.8a96.93,96.93,0,0,0,15.3-1.22c48.89-7.81,82.11-33,98.75-74.94C2815.75,164.47,2812.12,126.43,2790.52,95.1ZM2686.71,267.38h0c-27.94,0-55.09-13.75-74.49-37.72-25.52-31.53-32.83-73.24-19.08-108.85,11.21-29,32.88-50.68,62.68-62.63l27.34-6.1h1.1c39.06,0,76.19,18.78,97.2,49.27,19.45,28.21,22.67,62.6,9.08,96.82-15.11,38.05-45.48,61-90.26,68.14A86.92,86.92,0,0,1,2686.71,267.38Z"/>
    <path d="M618.79,663.66c15.7,19.17,35.13,34.16,56.2,43.34a125.32,125.32,0,0,0,71.25,9c32.32-5.28,59.67-16.51,81.3-33.38,21.41-16.7,37.78-39.37,48.65-67.37,20-51.5,14.79-103.2-14.66-145.58-30.93-44.5-84.92-71.63-141-70.85H720l-38.72,8.84-.37.15c-43.36,17.61-74.89,49.71-91.17,92.83a158.6,158.6,0,0,0-6.79,86.76A173.8,173.8,0,0,0,618.79,663.66ZM852.5,476c27.3,39.28,32.07,87.34,13.43,135.32-20.36,52.45-61.23,84-121.47,93.88-43.42,7.1-86.12-10.58-117.15-48.5C591.54,613,581.07,554.7,600,504.58c15.13-40.05,44.36-69.9,84.57-86.35l36.66-8.37C773.44,409.27,823.72,434.59,852.5,476Z"/>
  </g>
</svg>
