<svg xmlns="http://www.w3.org/2000/svg" viewBox="0 0 2994.91 3000">
  <title>66Icon_neon 1</title>
  <g>
    <path d="M2166,990.73l-410.2-138.81-1.86-.63-414.84,155.57-62.73-30.59L935.51,964.52l-3-.11L527.19,1545l-2.4,3.43,193.9,194.4A109.33,109.33,0,1,0,831.12,1930.4l-20.43,23.23c-14.55,16.54-22.78,38.51-23.16,61.86s7.2,45.14,21.33,61.1c8.17,9.23,26.48,25.33,36.29,31.92a100,100,0,0,0,67.07,16.35,98,98,0,0,0,16-3.18l-14.16,15.6c-33.43,36.84-33.94,96.48-1.13,132.94,8.57,9.52,28.49,27.93,39.53,35.85a101.12,101.12,0,0,0,59.35,18.86c3.46,0,7-.17,10.42-.51,25-2.47,47.55-13.58,63.61-31.27l55.41-61.08A122.29,122.29,0,0,0,1339,2366.86l41.41,35.16,61.38-33.36-67-68.37a122.4,122.4,0,0,0-10.49-75.45l63-1.35,192.4,191,1.61,1.59h2.26c.4,0,40-.24,80-21.16,19.14-10,72.56-50.76,74.83-52.49l5-3.81-269.58-270.32-30.3-82.75,98.1,10.51,330.64,338.71,1.8,1.86,2.58-.21c3.64-.29,89.47-7.33,116.64-24.94s60.6-84.82,62-87.66l1.71-3.45-292.77-306.71-15.34-63.56h94.83l285.94,281.6,1,.95,1.29.4c.63.2,64.28,19.37,106.94-18.46,37.39-33.16,44.15-69.46,43.23-94.07a117.07,117.07,0,0,0-11.26-46.13l-.35-.65-105-104.82,263.13-255.41,2.87-2.78L2167,992.77ZM851.28,2099.37c-9.06-6.07-26.63-21.53-34.19-30.07-25.42-28.72-24.57-78.36,1.86-108.41l78.62-89.39c27-30.74,76.4-41.08,112.35-23.52,9.84,4.8,26.72,20.91,33.3,29.41a96.28,96.28,0,0,1,4.77,112.28L946.63,2101.38c-28.38,18.07-66.61,17.28-95.35-2Zm102.45,10.55a87.41,87.41,0,0,0,17.43-15.14l78.63-89.39a94.23,94.23,0,0,0,7-9.05l11.38-12.54c17.58-19.38,44.92-31,73.12-31,18.32,0,35.53,4.8,49.77,13.87,10.18,6.49,29.72,23.66,37.18,33.7,27.33,36.84,25.31,91.51-4.59,124.46l-146,160.87c-16.33,18-40.25,28.32-65.64,28.32h0a90.62,90.62,0,0,1-53.18-16.94c-10.52-7.55-29.56-25.15-37.76-34.27-29.14-32.38-28.65-85.4,1.1-118.19Zm300.68,280a111.34,111.34,0,1,1,111.34-111.34A111.46,111.46,0,0,1,1254.41,2389.88Zm127.35-1.13-35.17-29.86a122,122,0,0,0,25.22-45.94l51.91,53ZM774.06,1935.5a98.36,98.36,0,1,1,98.36-98.36A98.47,98.47,0,0,1,774.06,1935.5Zm1423.68-74.39-1.73-1.73-651.57-670-4.83-5-63,98.44-.38.81c-.78,2.07-78.74,207.87-128.56,257.7-18.83,18.83-51.84,42.43-84.09,60.14-39,21.4-72,31.76-93.1,29.16-17.47-2.15-57.46-35.16-78.43-54.32l250.6-559L1754.11,863l404,136.71,300,608.7Zm-1314.32-24a109.48,109.48,0,0,0-109.36-109.35,108,108,0,0,0-45.14,9.76L539.08,1547.21l399-571.6,335.51,11.57,57.82,28.2-251,560-1.61,3.59,2.86,2.68c6.17,5.79,61,56.61,87.48,59.87,23.4,2.88,58.79-7.87,99.63-30.27,33-18.1,67-42.5,86.69-62.18,50.46-50.46,125.62-247.19,130.87-261l55.06-86,651.67,671.33,3.83,4,.74-.72,103.9,103.74a107.34,107.34,0,0,1,9.6,40.65c.82,22.23-5.38,55.09-39.54,85.39-34.89,30.94-86.51,18.85-95.16,16.53l-286.55-282.21-1.61-1.58H1775l19,78.6.36,1.43,289.44,303.23c-7,13.56-35.05,66.06-56.39,79.89-19,12.3-78.22,20.27-109,23L1588.16,1987l-1.38-1.43-119.63-12.82,36.8,100.5.42,1.13,262.41,263.12c-21,15.91-55,40.77-68.25,47.69-32.15,16.81-64.33,19.43-72.74,19.84l-192.38-191-1.66-1.63-73.48,1.58a123,123,0,0,0-103.86-57.77,121.61,121.61,0,0,0-57.26,14.25l34.64-38.17c16.07-17.71,25.53-41.57,26.64-67.18,1.11-25.87-6.47-51.17-21.36-71.23-8.47-11.42-28.86-29.27-40.1-36.43-20.79-13.24-46.54-18.4-72.5-14.53a110.71,110.71,0,0,0-53.8,23.4,108.87,108.87,0,0,0-18.75-95.64c-7.3-9.45-25.41-26.83-37.17-32.58-40.18-19.62-95.28-8.13-125.44,26.15l-15.42,17.53A108.7,108.7,0,0,0,883.42,1837.14Z"/>
    <path d="M2529.85,671l-2.35-4.72-4.82,2.16c-1.67.74-167.24,75-215.79,111.17-19.54,14.56-35.13,39.47-42.75,68.33-7.53,28.47-6.4,56.76,3.1,77.6,10.25,22.5,21.92,48.55,34.27,76.14,77.49,173,194.59,434.52,288.37,549.43,18.42,22.56,46.65,29.52,67.09,31.4,4.68.43,9.48.64,14.27.64,25.68,0,42.91-5.87,47.58-7.66,53.18-20.48,203.39-103.22,204.9-104l4.63-2.55Zm185,894.22c-11.17,4.3-32.78,8.54-56.9,6.33-18.34-1.68-43.56-7.8-59.56-27.4-92.87-113.78-209.61-374.47-286.86-547-12.36-27.6-24-53.67-34.3-76.2-8.57-18.79-9.37-44.63-2.21-70.9s21.18-48.79,38.43-61.64c42.81-31.9,181.81-95.51,208.9-107.78l391.41,783.69c-25.23,13.83-151.72,82.71-198.91,100.88Z"/>
    <path d="M764.19,961.78c15.88-25.67,30.87-49.92,43.95-70.77h0c12.17-19.41,17-47.29,13.35-76.5-3.75-29.62-15.9-56.37-33.35-73.4C744.88,698.9,590.52,603.33,589,602.37l-4.49-2.77L83.65,1338.13l-2.7,4,4.25,3.13c1.38,1,139,102.71,189.33,130.25,11.55,6.31,34.29,14.07,60.38,15.15,2,.08,3.94.12,5.87.12,18.68,0,45.08-3.88,64.78-22.37C513.73,1366.9,664.4,1123.2,764.1,961.94Zm34.64-76.62c-13.11,20.9-28.13,45.19-44,70.9l-.06.1c-99.4,160.76-249.61,403.72-356.7,504.2-18.46,17.32-44.27,20-62.67,19.29-24.2-1-45.06-8.07-55.56-13.81-44.4-24.27-160.64-109.27-183.82-126.31l491.67-725c25.22,15.75,154.58,97.18,192.8,134.48,15.4,15,26.31,39.14,29.94,66.18S809.8,867.67,798.83,885.16Z"/>
  </g>
</svg>
