<svg xmlns="http://www.w3.org/2000/svg" viewBox="0 0 2994.91 3000">
  <title>62Icon_neon 1</title>
  <g>
    <path d="M2862.15,1454.71l-2.23-3.68a230.7,230.7,0,0,0-86.32-82.74c33.43-53.88,49.91-113.49,47.72-172.75-2-53-19.1-101.93-49.54-141.43l-3.83-5L1001.58,2820l-5.44,5.44,6.91,3.38c34.11,16.68,71.59,25.13,111.39,25.13a290.86,290.86,0,0,0,50.85-4.57c69.66-12.43,110.83-50,156.29-98.21,58.73,51.68,114.37,77.87,165.44,77.87h2l2.22,0,1.59-1.58L2859.11,1457.76Zm-95.33-388.86c26.69,36.77,41.71,81.62,43.5,130.1,2.19,58.86-14.81,118.13-49.16,171.43l-3.27,5.08,5.37,2.78a219.94,219.94,0,0,1,85,77.83l-1361.58,1365c-49.37-.15-103.79-26.59-161.76-78.63l-4-3.59-3.67,3.92c-45.55,48.56-85.8,86.66-153.87,98.81-52.52,9.36-103.69,3.71-148.47-16.33Z"/>
    <path d="M2650.27,931l-.06-2.37c-.34-11.07-24.74-58.78-57.75-102-30.85-40.38-78.36-89.28-129.55-92.86l-4.59-.32-.42,2.69c-1,1-2.44,2.39-4.54,4.48L2438,756l-58.18,58.24c-50.11,50.18-121.69,121.87-207.57,207.9C2000.5,1194.17,1771.5,1423.59,1542.51,1653c-458,458.86-915.93,917.73-915.93,917.73l-3.94,3.95,4,3.89c44.89,43.36,107.18,64.6,175.83,60,8,34.46,23.16,65,45.13,90.92l3.87,4.56,4.22-4.23L2648.62,932.67Zm-66.55-97.69c30.72,40.22,52,82.08,55.1,93.61L852.2,2717.82c-19.68-24.67-33.13-53.63-40-86.15l-1-4.75-4.84.4c-65.23,5.45-124.66-13.28-168-52.81C728.55,2484.15,2402.45,806.89,2464.59,745,2510.8,749.66,2554.77,795.41,2583.72,833.31Z"/>
    <path d="M2376,561.55l-1.56-3.47c-20.5-45.48-55.35-80.59-100.78-101.53-45-20.73-97.43-26-152-15.37v0l-9.78,2.07v0A325.15,325.15,0,0,0,2043,467.62l-.38.18-.82.58-1808.67,1813-4.7,4.71,5.52,3.73c38.87,26.25,102.44,53.89,184.52,36.46q6.75-1.43,14.15-2.93c27.55-5.63,61-12.47,87.13-24.5-4.61,17-5.94,36.59-5.92,47.12v5.26c0,25.42,0,32.25,9.29,56.58l3,7.93L2373.27,564.23ZM530.49,2395.84c-5.61-16.09-5.61-22.75-5.62-44.64v-5.27c0-17.2,2.95-41.22,9.67-56.11l7.19-15.91-15,8.92c-25.7,15.29-64.83,23.29-96.27,29.73l-.2,0c-4.83,1-9.53,2-14,2.9-74.57,15.84-133.14-7.36-170.5-31.15L2048.66,477.11A312.83,312.83,0,0,1,2119,452.94c107.18-22.76,202.44,18.9,243.75,106.23Z"/>
    <path d="M2945.68,1633.73c0-6.61-.31-13.48-.89-20.4l-1-11.84L1791.34,2758.26l-6.47,6.49,9.85,2.12c23.38,5,45.68,7.59,66.29,7.59a215.08,215.08,0,0,0,44.6-4.44c38.68-8.21,76-24.08,110.8-47.17l.14-.09c2.41-1.44,242.62-144.79,342.7-212.08,38.18-25.67,95.2-57.5,155.6-91.22,80.57-45,163.89-91.49,213.13-129.28,28.19-21.64,80.89-82.11,120.19-129.09,15-15.46,30.57-34.46,37.93-46.24,21.18-33.9,57-108.5,56.86-173.08-.08-44.12-30.21-120.87-51.19-155.24C2920.06,1742,2945.78,1692.62,2945.68,1633.73ZM1807,2758.12,2934.54,1626.37c.09,2.49.13,5,.14,7.38.1,57.28-25.92,105.84-54,149.79l-1.9,3,1.91,3c20.38,31.74,51.25,108.68,51.32,152.32.12,62.08-34.63,134.33-55.19,167.23-7,11.23-22.09,29.56-36.65,44.57l-.25.27c-39,46.59-91.17,106.55-118.59,127.59-48.6,37.31-131.56,83.62-211.8,128.41-60.58,33.82-117.81,65.76-156.37,91.69-95.35,64.12-318.08,197.36-340.54,210.78l-.17,0-1.73,1.16c-33.78,22.44-69.9,37.85-107.34,45.8l-.07,0C1875.21,2765.22,1842.87,2764.83,1807,2758.12Z"/>
    <path d="M1326.15,243c-42.71-17.64-91.57-22.09-141.62-13v0l-4.8,1-.11,0-4.9,1v0c-39.82,8.63-77.93,25.18-113.38,49.22l-.6.4c-2.51,1.69-253.91,171.2-426.12,322.94C466.75,752.45,260.45,956.8,258.39,958.84l0,0c-37.41,34.2-62.87,64.8-80.09,96.28-19.83,36.24-29.16,74.78-28.53,117.82.14,9.38,5.46,60.92,7,75-62,56.31-118.73,121.55-117.34,215.9a247.58,247.58,0,0,0,8.09,60L50,1533,1333.76,246.1ZM166.25,1254.17l2.13-1.92-.36-2.84c-1-7.87-7.14-67.71-7.27-76.61-1.13-77,29.35-136.68,105.22-206l1.79-1.72V965c20.33-20.11,213.3-210.54,374.14-352.26,162.53-143.21,394.57-301.45,422.35-320.28h0l2.66-1.81c35.84-24.42,74.48-40.89,114.85-49,46.59-9.32,92.2-6.41,132.44,8.38L55.88,1511.53a240.49,240.49,0,0,1-5.44-47.88C49.1,1372.67,105.31,1309.2,166.25,1254.17Z"/>
    <path d="M1796.46,468.3l-2.07-3.64c-22.28-39.07-55.41-66.58-101.27-84.11-37.87-14.48-83.77-22.42-148.84-25.74-11.68-.6-33,.36-50.1,1.13-12,.54-23.36,1.05-27.37.84l-2.46-.14-1.58,1.59L149.32,1674.94l-3.53,3.54,3.19,3.85c22.93,27.64,79.26,74.38,122.38,92.5-57.42,30.7-103.83,65.53-138,103.62-44.65,49.68-66.66,103.3-65.44,159.37,1,43.66,12.69,85.07,33.93,119.73l3.65,5.95L1793.51,471.26ZM107.61,2145.76c-18-31.74-27.88-69-28.74-108.18C76,1907,208.31,1819.42,287.43,1778.83l12.08-6.2-13-4c-40.24-12.26-99.5-59.79-125.82-89.58l1308-1311.28c5.42,0,15-.4,25.94-.89,16.88-.76,37.88-1.7,49-1.13,95.74,4.89,190.81,20.55,239,100.7Z"/>
  </g>
</svg>
