<svg xmlns="http://www.w3.org/2000/svg" viewBox="0 0 2994.91 3000">
  <title>154Icon_neon 1</title>
  <path d="M2853.38,2024.15l-.2-.1c-46.44-23-92.59-18-141.46-12.65-38.2,4.17-77.7,8.49-117.71-1.85l-.64-.12c-34.36-4.19-70.16-13-104.78-21.51-23.2-5.71-45.1-11.09-66.69-15.23-255-48.8-432.07-232.31-473.72-490.88-45.47-282.17,87-570.83,322.24-702,6.63-3.69,12.84-7.19,18.72-10.5l.16-.09c51.5-29,77.35-43.6,135.75-49.53l.42,0,1-.28.39-.19c50.49-24.09,79.73-66.46,80.21-116.26.47-49.21-28.18-96.78-71.29-118.38-28-14-86.05-29-160.86,28.07l-.46.4c-26.74,26.14-29.82,63.7-33.09,103.47-2.21,27-4.5,55-15,78.5-101,225.92-248.74,273.14-327.81,281.18-109.55,11.13-218.77-39.26-285.06-131.51-82.7-115.09-88.47-272.9-15.83-433,11.4-25.13-1.73-38.06-10.58-43.53-27.77-17.18-87.75-8.89-107,14.79-5.83,7.18-12.9,22.1,5.33,41.24,51.39,54,66,121.25,41.19,189.48-29.06,79.83-105.4,141.87-185.65,150.88-69.69,7.81-132.56-25.88-177-94.87-8-12.45-15.56-25.2-22.39-37.9a336.23,336.23,0,0,0-16.3-33.32c-19.8-45.34-23.93-78.83-11.63-94.33,17.93-22.59,29.09-44.18,33.16-64.17,3.66-18,1.65-34.77-6-49.81-19.58-38.67-73.69-57.6-105.18-56.39l-1.09.16c-57.61,14-90.24,38.83-94.36,71.78C935.29,445,973,489.9,1041,525.91c29,15.38,54.11,41.48,74.51,77.59,4.65,10.55,10,21.57,16,32.77a456.66,456.66,0,0,1,23.44,73.07c18.49,78.26,22.7,171.28,11.86,261.92-10.77,90-34.78,164.94-67.6,210.92-55,77-158.54,138.65-291.67,173.62-116,30.47-238.06,35.7-318.53,13.65-58.63-16.07-109.16-48.27-153.74-76.68-46.89-29.88-87.38-55.68-128.73-59.54-46.12-4.3-86.54,20.09-127.23,76.75a100.48,100.48,0,0,0-18.62,64.73c1.15,21.37,8.45,43.37,21.13,63.62,13.54,21.63,32.63,40.09,53.76,52,23,13,47.22,17.73,70,13.8,44.81-7.71,62.81-22.68,90.06-45.35,4.42-3.67,9-7.47,14-11.52,46.91-28.18,147.11-45.54,268.17-46.44,115.4-.85,225.36,13,286.92,36.3,133.13,53.63,227.55,184.09,259,358,25.42,140.36,4.58,290.11-57.19,410.87-6.22,10.31-12.16,21.06-17.67,32-25.48,42.68-55.87,80.29-90.31,111.82-36.2,33.13-60.16,39.57-85.52,46.4-27.34,7.36-55.6,15-101.11,52.38l-.23.2c-26.08,24.22-38.59,54.78-36.18,88.38,2.95,41,28.19,82.6,65.88,108.67l.22.15a145,145,0,0,0,76,21.61c4.1,0,8.26-.18,12.36-.52a153.77,153.77,0,0,0,79.51-30.79c20.78-15.92,36.32-36.45,44.93-59.37,9.31-24.79,10.12-51.8,2.35-78.11l-.12-.38-.41-.86-.22-.32c-16.92-24.52-13.38-70.45-7.42-104.65,7.49-43.09,23.15-92.24,42.95-134.85,1.91-4.11,3.89-8.23,5.9-12.27,7.15-11.85,14-24.22,20.34-36.77,123.86-202.23,331.76-209.77,392.55-207.25,158.89,6.58,292.4,94.75,340.11,224.62l1.33,3.59h11l.13-5.36c2.93-116.88,84.3-202,223.26-233.56,180.52-41,431.67,25.23,523.48,203.56,1.61,45.8,24.26,93.9,56.6,120l.09.08c36.63,28.2,75.26,44.84,114.82,49.47a189.36,189.36,0,0,0,103-16.91,199.67,199.67,0,0,0,79.23-67.65c20.14-29.37,31.35-62.44,32.41-95.63C2957.9,2118.45,2921.52,2061.84,2853.38,2024.15Zm-1753-1462.37c-16.15-19.74-34.33-35-54.32-45.6-31.68-16.77-57.17-35.86-73.69-55.19-16-18.7-23.36-37.34-21.29-53.9,3.49-27.93,33-49.47,85.49-62.32,28.62-.85,77,16.07,94.41,50.38,14.24,28.12,5.5,62.5-26,102.17C1094.22,510.91,1092.69,532.54,1100.41,561.78ZM419.4,1402c-51.13,8.39-90.08,20.52-115.76,36l-.55.39c-5.18,4.16-9.86,8.06-14.45,11.87-25.89,21.53-43,35.76-84.89,43-46.51,8-90.07-24.76-112.62-60.78-25.15-40.2-26.23-83.6-2.89-116.11,35.42-49.32,70.05-72.64,108.26-72.64q4.47,0,9,.43c38.69,3.6,78.15,28.75,123.85,57.87,45.23,28.83,96.51,61.5,156.74,78a374.61,374.61,0,0,0,56.49,10.5C497.93,1392.12,455.88,1396,419.4,1402Zm578.39,988.6c-6.25,35.89-9.76,84.32,8.69,112,13.31,46.21-3.38,94-43.65,124.81-46,35.21-106.9,38.8-155.24,9.15-34.94-24.21-58.32-62.64-61-100.32-2.16-30.11,9.09-57.57,32.55-79.41,43.59-35.8,70.67-43.09,96.85-50.14,26.69-7.18,51.91-14,90.09-48.91a493,493,0,0,0,58.62-64.22C1012.58,2326,1003.15,2359.81,997.79,2390.6Zm495.61-1974c-14.28-15-7.11-23.82-4.76-26.72,10.12-12.47,35.71-19.9,58.89-19.9,13.09,0,25.41,2.37,33.76,7.53,10.4,6.43,12.47,16.13,6.34,29.63q-27,59.55-40,117.75-.59-4.29-1.38-8.56C1539.55,480,1521.75,446.4,1493.4,416.63ZM2944.83,2183.22c-2,63.1-44.34,124.87-105.34,153.69-65.26,30.83-140.48,19.42-206.39-31.3-30.26-24.46-51.35-69.84-52.51-113v-.56l-.33-1.3-.25-.49c-22.47-44.06-55-83.18-96.67-116.29-38.71-30.76-84.29-55.57-135.45-73.76a575.83,575.83,0,0,0-190.74-32.6,513.41,513.41,0,0,0-113.42,12.26c-66.48,15.1-122.67,43.63-162.48,82.53-39.55,38.64-62.38,86-68,140.91-26.48-60.06-71-111.08-129.63-148.39-61.39-39-135-61.38-212.76-64.6-86.08-3.58-170.33,16.5-243.59,58a434.39,434.39,0,0,0-104.82,83.09q-11,11.91-21.29,24.78c7.37-18.94,13.88-38.45,19.45-58.36a684.65,684.65,0,0,0,14-304.82c-15.09-83.34-45.88-160.13-89-222.07-46.88-67.3-106.36-115.79-176.78-144.15l-.1,0c-47.55-18-123.12-30.48-207.79-35.1a849.94,849.94,0,0,0,149.4-25.31c135.61-35.62,241.38-98.79,297.83-177.87,33.88-47.46,58.59-124.17,69.57-216s6.7-186.27-12.07-265.76q-2.91-12.34-6.28-24.11c23.63,34.53,51.69,60,83.5,75.71,30.88,15.27,64.3,21,99.33,17.1,41-4.6,83-23,118.26-52,34.1-27.94,60.87-64.67,75.59-103.65q-.36,18.75.86,37.23c4.75,71.93,28.13,139,67.63,194,33.73,46.95,78.67,84.33,130,108.13a316.54,316.54,0,0,0,165.15,27.91c64.87-6.59,128.4-33.67,183.73-78.31,61.69-49.78,113.17-120.2,153-209.32,11.28-25.24,13.65-54.13,16-82.09,3.08-37.54,6-73,29.55-96.25,69.9-53.19,123.32-39.6,149-26.75,39.44,19.76,65.65,63.34,65.22,108.44s-27.06,83.75-73.1,106c-60,6.22-86.51,21.16-139.07,50.78-5.92,3.34-12.16,6.86-18.83,10.58-122.71,68.41-218.44,175.67-276.84,310.17-54.5,125.51-72.58,268.68-50.91,403.15,19.7,122.31,70.92,232.15,148.11,317.64a561.29,561.29,0,0,0,143.65,114.19c57.27,31.93,121.45,54.84,190.75,68.11,21.31,4.08,43.08,9.43,66.13,15.1,34.83,8.57,70.84,17.42,105.69,21.7,41.77,10.72,82.19,6.3,121.27,2,47.19-5.16,91.76-10,135.26,11.52C2912.44,2069.42,2946.77,2122.47,2944.83,2183.22Z"/>
</svg>
