<svg xmlns="http://www.w3.org/2000/svg" viewBox="0 0 2994.91 3000">
  <title>169Icon_neon 1</title>
  <g>
    <path d="M2771.31,1005.59c-87-113.43-207.34-206.47-378.56-292.8C2133.34,582,1827.37,517.23,1483.29,520.3L1306.9,530l-.48.06c-30.85,4.73-61.17,8.89-90.49,12.9-79.48,10.89-154.55,21.18-228.08,41.23-198,54-357.33,118.14-487.11,196.12-72.9,43.8-138.2,93.2-194.08,146.83A915.43,915.43,0,0,0,154.94,1117c-39.65,66.23-68.07,147.87-80,229.9-13.65,93.65-5.76,185.84,22.82,266.58,24.46,69.09,60.26,135.64,103.54,192.44a955,955,0,0,0,154.91,159.69c55.73,45.62,119.3,87.64,189,124.9,127.17,68,278.11,122.91,461.44,167.77,56.34,13.78,112.82,20.47,172.63,27.56,32.38,3.84,65.87,7.81,99.87,13.05l.25,0,144.77,7.71c33.55,4.93,103,2.25,132.13-1.92l52.59-1.92,166.83-15.47,105.14-18.13,77,33.69,5.38,2.36c30.79,13.48,61.68,27,88.44,38.71l.1,0q11.61,4.76,23.09,9.49c90.53,37.23,176,72.39,282.63,97.28l.19,0c20.69,4,38.18,8.74,55.1,13.34,17.1,4.64,34.78,9.45,55.75,13.49,3.7.78,8.26,2.05,13.1,3.39,11.28,3.14,24.08,6.7,34.69,6.7,9.18,0,15.75-2.76,19.5-8.22,11.11-16.14-10.88-53.43-32.36-87.12l-.09-.14c-2.32-3.63-4.15-6.5-5.36-8.53-29.44-49.46-57.89-116.46-78.69-165.47-4.68-13-9.38-25.92-13.53-37.28-4.33-11.86-9.24-25.3-14.1-38.85-1.82-6.19-4.29-13.32-6.68-20.21-1.82-5.26-3.7-10.67-5.27-15.62,8.65-4.57,18.58-9.66,28.23-14.61l.24-.12c11.32-5.81,23-11.82,32.73-17l.14-.08,102.89-63.74.23-.16c79-55.26,143.47-112,197.22-173.45,61.64-70.46,107.85-145.44,141.28-229.22,13.11-32.84,20.41-68.6,28.14-106.46l1.49-7.31C2945,1334.48,2897.53,1170.1,2771.31,1005.59Zm-390.22,1139.8.09.28q7.26,20.23,14.17,39.07l.18.49q6.51,17.82,13.4,36.9l.1.26c20.92,49.3,49.58,116.81,79.43,167,1.32,2.21,3.22,5.19,5.62,9,6.88,10.78,17.27,27.08,24.78,42.48,11.28,23.16,9.22,30.43,7.8,32.48-5.14,7.47-27.44,1.27-42.19-2.83-5-1.4-9.73-2.71-13.87-3.58-20.66-4-38.13-8.73-55-13.33-17.09-4.65-34.76-9.45-55.78-13.5-105.67-24.68-190.76-59.67-280.84-96.72l-.79-.32-22.23-9.13c-26.78-11.71-57.7-25.25-88.51-38.74l-8.64-3.79-58.22-25.48c94.87-17.69,254.28-69.82,334-102.2,28.27-11.49,106.62-42.74,134.67-53.92,1.61,5,3.49,10.47,5.32,15.76l.95-.32v0l0,0-.94.35C2376.9,2132.39,2379.33,2139.41,2381.09,2145.39Zm21.88-63.56c-7.73,4-15.67,8-23,11.87l0-.08-4.64,1.85c-1,.4-110.37,44-144.92,58-84.49,34.33-257.24,90.41-348.2,104.37l-.06,0-107.91,18.61-166,15.4-52.75,1.92-.53.05c-28.43,4.11-96.87,6.78-129.54,1.93l-.23,0-144.74-7.7c-34-5.24-67.55-9.21-100-13.05-59.45-7-115.61-13.71-171.29-27.33C625.48,2153.73,371.54,2011.27,210,1799.26c-42.6-55.9-77.84-121.41-101.92-189.44-64.55-182.39-10-376.42,56.28-487.16C312.1,876,574.69,708.2,990.74,594.75c72.84-19.86,147.57-30.1,226.69-40.94,29.26-4,59.52-8.15,90.37-12.89l175.72-9.62c7.67-.07,15.43-.11,23-.11,332.82,0,629.31,64.41,881.23,191.42,169.68,85.56,288.77,177.6,374.78,289.68,124.2,161.87,170.92,323.24,138.88,479.65l-1.5,7.32c-7.63,37.36-14.84,72.65-27.58,104.57-61.76,154.79-168.05,281.15-334.46,397.65l-102.43,63.46c-9.54,5.1-21.12,11-32.32,16.79Z"/>
    <path d="M1761.69,1257.42h-11v151.75H1454.14V1257.42h-11v151.75H1296.45v11h146.69V1720H1301.65v11h141.49v131.62h11V1731h296.55v131.62h11V1731h138.62v-11H1761.69V1420.17h143.82v-11H1761.69Zm-11,162.75V1720H1454.14V1420.17Z"/>
    <path d="M1094.21,1346.88c-15.44-21.1-48.7-57.15-74.31-71.24-50.69-27.89-124.5-37.34-152.3-37.55h-1.19c-34.38,0-119.6,9.82-158.46,28.46-38.58,18.51-102,62-125.66,86.23-37.39,38.25-70.65,103.18-80,141.4-10.57,43.07-15.16,130.51-5,174.5,8.78,38.08,46.35,127.38,76.74,154.42,19.2,17.08,56.64,36.21,85.27,48.42,32,13.65,91.68,24.81,123.67,25.66,1.27,0,2.57.06,3.91.06,42.47,0,115.79-16.25,152-26.49,22.47-6.34,61.43-20.37,89.38-33.88l4.51-2.18-4.79-9.9-4.5,2.17c-27.39,13.24-65.57,27-87.59,33.21-40.43,11.42-114.52,27-152.66,26-31-.83-88.75-11.61-119.65-24.79-27.83-11.87-64.06-30.32-82.27-46.52-28.85-25.67-64.82-111.79-73.33-148.67-9.83-42.58-5.32-127.49,5-169.41,9-36.82,41.12-99.41,77.21-136.33,23-23.52,84.84-65.91,122.54-84,37.4-17.94,120.13-27.38,153.63-27.38h1.19c26.89.2,98.23,9.31,147.08,36.19,24.13,13.28,55.89,47.82,70.73,68.1,16,21.86,38.62,88.79,43.8,117.64,5.46,30.43.31,81.35-4.49,108.15-4.51,25.24-21.6,69.34-33.85,91.9-8.15,15-35.1,38-49.35,46.66-14,8.5-50.41,14.7-66,11.24-15.2-3.38-36.3-28.17-43.1-43.24-4.47-9.9-5-29.83-1.53-59.22a18.28,18.28,0,0,0,.69-5.58c.46-3.6.9-6.83,1.28-9.5,7.81-56.35,54.57-212.88,55.05-214.46l1.43-4.79L978.72,1389l-1.43,4.79c-.64,2.16-14.57,48.9-28.41,100.15-11.61-29.32-35.17-67.26-45.12-80.2-8.68-11.3-28.93-19.56-55.57-22.69-34.66-4.06-83.1.87-115.13,26.89-40.66,33-55,59.68-73.6,110.67-24.22,66.39-10.54,112.88,6,149.61,7.44,16.48,14.33,24.62,24.76,37l.23.27c1.35,1.6,2.77,3.27,4.25,5,10.83,12.94,31.64,20.36,58.59,20.87,1,0,2.1,0,3.16,0,40.92,0,83-14.88,102.53-36.21l.06-.06c10.74-8.93,41-34.83,58.81-56.86-1,19.37.48,33.19,4.45,42,8,17.72,31.17,45.1,50.73,49.45,18.26,4,57.72-2.65,74.08-12.58,16-9.71,44-33.74,53.31-50.81,12.66-23.3,30.33-69,35-95.21,4.93-27.59,10.2-80.18,4.48-112C1134.6,1439.28,1111,1369.83,1094.21,1346.88Zm-242.6,350.18-.47.46c-17.91,19.79-59,33.62-97.61,32.88-23.72-.46-41.61-6.47-50.37-16.94-1.57-1.88-3.08-3.66-4.52-5.36-9.82-11.61-16.32-19.29-23.12-34.37-15.66-34.7-28.59-78.63-5.73-141.31,17.87-49,31.58-74.52,70.21-105.9,23.42-19,56.84-25.7,85.87-25.7a181.69,181.69,0,0,1,21,1.2c23,2.7,41.45,9.77,48.13,18.46,12.18,15.85,42.75,66.83,48.63,93-11.8,44.85-19.13,77.29-21.79,96.47-.55,4-1.23,8.89-1.9,14.55-5.05,15.76-39.65,48.66-67.94,72.19Z"/>
    <rect x="2147.36" y="742.53" width="11" height="999.2"/>
    <rect x="2146.66" y="1886.38" width="16" height="16.7"/>
  </g>
</svg>
