<svg xmlns="http://www.w3.org/2000/svg" viewBox="0 0 2994.91 3000">
  <title>52Icon_neon 1</title>
  <g>
    <path d="M2058,1046.5c-39.15,5-73.67,9.14-105.5,12.73l-3.08.33c-35.13,3.81-68.31,7.4-105.21,9.26-35.79,1.54-73.31,4.19-109.6,6.76l-.51,0-23.19,1.63-9.8.69c-41,2.89-83.44,5.88-125.86,8-26.8,1.32-49,1.81-69.85,1.54-22.46-.32-43.93-1.27-69.25-2.61-41.07-2.27-82.32-5.18-122.27-8l-13.1-.93-67-4.54-67.46-3.71c-46.13-3.31-91-8.58-134.36-13.68l-2.15-.26c-49.34-5.94-101.67-12.74-169.69-22l-11.37-1.55,5.91,9.83c37.86,63,74.56,125.19,109.08,185,43.25,75,99.63,174.14,152.23,276.53,9.39,17.91,18.51,36.58,27.33,54.66l.1.21q4,8.19,8,16.35l33.26,72.33,65.24,142.24,122.47,267.06,1,2.25,2.36.73c5.38,1.64,11.11,3.12,17,4.39a363.15,363.15,0,0,0,38.86,6c24.21,2.53,50.59,3.72,83,3.72h0c32.43,0,58.81-1.22,83-3.77a361.4,361.4,0,0,0,38.85-6c6-1.29,11.72-2.77,17-4.41l2.36-.72L1844.54,1645l33.25-72.33q3.82-7.77,7.63-15.58l.48-1c8.8-18,17.91-36.69,27.34-54.67,52.6-102.39,109-201.53,152.19-276.45,34.62-60,71.3-122.15,109-184.87l5.9-9.84-11.36,1.56C2129.68,1037.14,2093.36,1042,2058,1046.5ZM1514.63,2060.37c-32,0-58.05-1.17-81.87-3.66a352.33,352.33,0,0,1-37.69-5.8c-4.76-1-9.38-2.18-13.77-3.46l-121.44-264.81-65.24-142.24-33.3-72.41,0-.11q-4.08-8.3-8.12-16.6c-8.86-18.14-18-36.9-27.46-54.91-52.69-102.57-109.16-201.89-152.47-277-32.74-56.69-67.46-115.62-103.27-175.28,62.63,8.5,111.86,14.87,158.51,20.5l2.18.25c43.5,5.11,88.47,10.4,134.94,13.74l67.48,3.71,66.93,4.54,13.09.92c39.94,2.83,81.25,5.75,122.45,8,25.45,1.34,47,2.3,69.69,2.62,21.07.27,43.49-.22,70.54-1.55,42.53-2.09,85-5.08,126.1-8l9.79-.69q11.6-.79,23.2-1.63l.51,0c36.21-2.57,73.65-5.22,109.33-6.75,37.25-1.88,70.59-5.49,105.88-9.31l3.1-.34c31.93-3.6,66.5-7.77,105.7-12.75,32-4.11,64.74-8.44,99.75-13.19-35.64,59.39-70.34,118.29-103.22,175.21-43.29,75-99.74,174.32-152.42,276.88-9.47,18-18.62,36.79-27.47,54.92l-.11.22q-4,8.21-8,16.41l-33.34,72.51L1648,2047.4c-4.35,1.27-9,2.43-13.79,3.46a350.2,350.2,0,0,1-37.69,5.8C1572.68,2059.17,1546.66,2060.35,1514.63,2060.37Z"/>
    <path d="M2744.43,930.18a10.13,10.13,0,1,0-10.14-10.13A10.14,10.14,0,0,0,2744.43,930.18Z"/>
    <path d="M291,915.18a13,13,0,1,0,13,13A13,13,0,0,0,291,915.18Z"/>
    <polygon points="363.38 929.31 361.12 940.07 519.13 973.29 694.16 1006.43 696.21 995.63 521.33 962.51 363.38 929.31"/>
    <path d="M2674.66,939l-2.54-10.71-4.86,1.16c-1.21.28-121.07,28.63-157.74,35.4-43.45,8-165.1,27.18-166.32,27.37l-4.94.78,1.72,10.86,4.93-.78c1.22-.19,122.86-19.34,166.6-27.42,36.5-6.73,153.33-34.34,158.28-35.51Z"/>
    <path d="M2945,1113c-10.28-17.14-36.79-40.44-56.15-57.46l-.13-.11c-3.83-3.37-7.45-6.55-10.41-9.22-19.59-17.71-81.16-66.36-81.78-66.85l-2.74-2.17-30.63,15.32-23.58,7-32.29-7.45-1.65,4.6c-.31.86-31.19,86.93-42.27,115-5.66,14.35-14.6,33.77-24.07,54.36-16.69,36.27-35.61,77.38-42.74,104.18-.89,3.34-2.15,7.43-3.62,12.18-7.52,24.36-17.83,57.74-4.85,72.39,3.4,3.84,9.21,5.71,17.75,5.71a94.53,94.53,0,0,0,25.68-4.13c18.48-6.07,51.34-30.26,63.93-47.05,10.69-14.27,19.22-44.38,25.45-66.37,1.21-4.28,2.36-8.32,3.35-11.64,4.46-14.84,12.06-44.73,14.15-59.92,2-14.65,3.46-40,4.49-66.6.24,2.21.46,4.24.66,6,1.38,11.84,4,28.29,6.88,45.7,4,24.52,8.1,49.86,9.27,66.11,1.78,24.83,3.8,73.11.05,96.5-2.14,13.38-10.51,36-17.24,54.23-3.09,8.34-6,16.22-8,22.29-6.34,19.44-23.61,72.75-28.75,88.62l-1.73,5.33,10.47,3.39,1.72-5.31c5.14-15.88,22.4-69.18,28.75-88.61,1.91-5.86,4.79-13.65,7.85-21.91,7.25-19.61,15.47-41.85,17.79-56.29,3.9-24.38,1.87-73.72.05-99-1.2-16.72-5.36-42.31-9.38-67.09-2.81-17.29-5.46-33.63-6.81-45.2-2.57-22.12-7.56-83.77-8.89-100.34l15.36-4.54c4.16,21.25,19.12,98,23.51,126,4.25,27.1,11,82.33,13.93,110,3.53,33,10.81,121.54,13.78,158.08.07.8.11,1.38.14,1.75L2803.09,1505l11,1,9.33-105.4,0-.43c-.1-1.19-9.72-120.77-14-160.62-3-27.77-9.73-83.26-14-110.54-2.44-15.57-8.07-45.8-13.34-73.44,10.4,25.52,22.22,53,30,66.32,11.73,20.09,39.24,62,59.35,76.86,8.85,6.54,29.6,16,42,16q.81,0,1.56-.06c8.75-.59,23.51-9.09,29.45-15.64,7.1-7.81,14.88-26.34,15.42-36.72C2960.52,1148.69,2951.39,1123.62,2945,1113ZM2792.49,990.2c11.9,9.44,61.72,49,78.49,64.21,3,2.74,6.72,6,10.65,9.44,18.81,16.53,44.58,39.18,54,54.84,5.59,9.33,13.79,32,13.22,43.09-.4,7.64-7.33,24.12-12.58,29.89-4.49,4.95-16.86,11.72-22.05,12.07-8.29.56-27.43-7.34-36.27-13.87-18.67-13.8-45-54.15-56.39-73.56-14-24-42.31-97.31-49.41-115.93Zm-196.13,357.31c-8.88-10,1.54-43.73,7.15-61.9,1.49-4.84,2.78-9,3.72-12.54,6.89-25.9,25.6-66.56,42.11-102.43l0-.09c9.51-20.67,18.5-40.2,24.26-54.81,9.69-24.56,34.33-92.92,40.74-110.76l19.86,4.59c-.27,22-1.79,124.62-6.7,160.34-2,14.64-9.43,43.74-13.78,58.26-1,3.35-2.14,7.36-3.35,11.61l0,.19c-5.66,20-14.2,50.14-23.67,62.77-11.14,14.85-42.33,37.86-58.56,43.2C2615.89,1350,2599.26,1350.79,2596.36,1347.51Z"/>
    <path d="M258.14,999.29l-26.4-4.68c-.77-.14-2.82-.54-3.08-.54h0l-1.45-.26-.09.47c-4.33,1.35-12.93,10.48-69.55,67.06-6,6-10.73,10.72-13,13-21.19,20.45-53.12,69-69,96.86-21.59,37.88-32.67,65.51-33,82.14-.25,14.93,10.05,43,19.69,53.65,8.93,9.86,33.09,22.59,46.51,22.59l.73,0c10-.33,25.3-9.18,34.85-17.23-2.33,19.78-3.26,48.31-3.86,66.51l-.31,9.36c-1.21,35.92-3.47,102.78.2,136.58,2.31,21.3,18.16,82.89,18.32,83.5l1.25,4.85,10.65-2.75-1.25-4.84c-.16-.61-15.83-61.6-18-82-3.58-33-1.34-99.36-.13-135l.08-2.63c3.4,10.57,7.36,21.31,11,31.06s6.93,18.77,9,25.77c1.31,4.34,3.05,9.58,5,15.3l-.92,2.87,2.13.68,3,8.7c7.29,21,15.55,44.73,17.95,59.07,6.2,37.16,12.56,149.35,12.82,154.11l.28,5,11-.61-.27-5c-.07-1.16-6.61-117.29-13-155.32-2.55-15.25-11-39.48-18.42-60.89-.06-.16-.11-.33-.17-.49,5.63,2.06,10.58,3.74,15.29,3.74,7.36,0,12.71-4.22,15.9-12.54,16.2-42.21,21.08-113.21,25-170.27l.07-1q.4-5.91.8-11.63c1.82-26,11.64-94.32,20.31-154.63,11.15-77.5,15.26-107.24,14.23-112v0l.68-3.14Zm-76.39,440.27c-2.2-7.32-5.62-16.59-9.25-26.43-8.27-22.42-18.55-50.3-18.66-67.13,2.16-21.07,27.29-101.32,57.37-183.19,29.92-81.43,48.91-121.72,59-138.55-2.46,20.55-8,59-13,94.07-8.69,60.42-18.54,128.91-20.39,155.36q-.44,6.21-.88,12.64c-3.87,56.32-8.68,126.41-24.29,167.08-2.66,6.93-4.41,7.1-18.76,1.81-2.17-.79-4.39-1.61-6.77-2.42C184.38,1447.85,182.89,1443.33,181.75,1439.56Zm78.89-428.48,4.51,1A144.35,144.35,0,0,0,254,1030.84Zm-28.44,50c5.05-27,7.75-43.95,7.29-54l10.26,1.82Zm-3.55-53c.24,11.56-5.43,41.43-9,60.32-4.23,22.33-8.24,43.41-8.4,54.88s-11.68,36.21-20.1,54.35c-5.19,11.18-9.67,20.83-11.87,27.54-1.49,4.53-3.18,10-5,15.89-1.26,4.14-2.61,8.52-4,13H169v4.16c-7.48,23.53-16.75,49.31-27.29,61.37-6.69,7.67-24.35,18.62-32.56,18.89-9.87.36-31.54-11-38.72-19-7.93-8.75-17.06-33.73-16.85-46.09.25-14.34,11.44-41.64,31.51-76.87,15.58-27.34,46.7-74.7,67.11-94.39,2.37-2.29,7.09-7,13.06-13l.16-.17C178.6,1055.88,215.62,1018.88,228.65,1008.11Z"/>
  </g>
</svg>
