<svg xmlns="http://www.w3.org/2000/svg" viewBox="0 0 2994.91 3000">
  <title>116Icon_neon 1</title>
  <g>
    <path d="M810,768.93l-65.93,201.3L918.23,846.74l173.34,123.53-5.18-15.88q-30.37-93.12-60.74-186.25l139-100.24,15.26-11.56H986.54L915.73,450.51,848.29,656.34H655.48l14.39,11.29Zm46.22-101.59L916,485.07l61.43,178.57,1.28,3.7h167.92L1016,761.56l-3.27,2.35,1.25,3.82q28.4,87.09,56.81,174.2L921.44,835.51l-3.19-2.27L764.94,942l56.8-173.44,1.25-3.81L688.26,667.34Z"/>
    <path d="M2898.87,1507h-249q-24.39-71.46-48.78-143.06l-4.6-13.49c-11.15-32.71-22-64.69-33.27-97.58l-5.72-16.81-22.88,69.83c-21.65,66-44,134.3-66.06,201.89h-250l13.77,10c62.35,45.08,125.62,90.61,186.83,134.66q-40.34,123.75-80.68,247.49l-5.21,16,225.2-161.8c68.2,48.38,208.39,142.48,209.82,143.43l13.2,8.86-4.9-15.12c-.53-1.63-53.34-164.63-78-238.85,61.29-44.11,124.58-89.68,186.85-135.46Zm-209.72,138.57-3.62,2.61,1.27,3.84c19.72,59.13,59.27,180.9,74.37,227.47-37.44-25.19-144.16-97.21-199.57-136.66l-3.2-2.28-204.29,146.77q38.35-117.64,76.71-235.33l1.25-3.82-5.63-4c-56.88-40.94-115.57-83.17-173.93-125.34h224l1.24-3.8c22.36-68.6,45.09-138,67.08-205l12.83-39.16q14.73,43.2,29.45,86.37l2.59,7.6q25.5,74.82,51,149.54L2642,1518h223.35C2806.42,1561.22,2746.87,1604.08,2689.15,1645.61Z"/>
    <path d="M1072.25,2132.32l-5.28-15.6-85.83,260-243.94,1.69,14.52,11.18L933.3,2520.32,855,2758.25l-3.38,15.57,12.51-8.51.11-.08q101.81-73.61,203.58-147.2l206,147.22,13.73,9.8-5.31-16q-39.54-119.37-79-238.74,90.24-65.22,180.45-130.45l13.61-9.84-241.93-1.68Q1113.78,2255.32,1072.25,2132.32Zm121.2,381.43-3.26,2.36,1.27,3.83q37.5,113.26,75,226.55L1071,2606.78l-3.22-2.29-3.2,2.31L870.19,2747.38,945,2519.94l1.27-3.84L770,2389.2l219.13-1.51,78-236.24q39.53,117,79,234.12l1.26,3.71,216.17,1.5Q1278.52,2452.27,1193.45,2513.75Z"/>
    <path d="M869.51,1927.56l-115-344.62q124.07-89.48,248.1-179l14.49-11.55H690.68L571.35,1038.66,454.44,1389.29l-308.71,3.14h-.41l-16-.13,12.88,11.37.38.3c68.34,49.51,154.34,110.93,205.72,147.63,18.61,13.29,33.74,24.1,42.47,30.36L277.68,1926l294.5-211.94L854.55,1917ZM575.39,1702.84l-3.21-2.31-273.5,196.83,103.49-314.93,1.56-4.56-3-2.16-2.77-2c-1.69-1.24-3.69-2.72-6.46-4.7L355,1542.9l-.45-.32c-48.55-34.68-128-91.45-194.2-139.29l298.11-3,3.92,0,109-327,110.1,326.43,1.26,3.75H984.54l-239.77,173-3.29,2.36,107.07,320.34Z"/>
    <path d="M2034.84,1932.22l-6.25-18.41-5.16,15.57c-35.87,108.37-102.66,310.8-112.57,341.89H1583l13.75,10c84.81,61.43,169,122.12,250.44,180.85q-54.64,165.12-109.27,330.19l-5.32,16.06,13.74-9.86,283.9-203.68,283.91,203.68,13.68,9.82-5.25-16-108.5-330.22c81.68-59.32,166.05-120.63,249.7-182.43l13.43-9.93H2149.5C2111.12,2156.89,2072.35,2042.7,2034.84,1932.22Zm169.53,523.31-3.24,2.35,1.25,3.82q52.23,159,104.49,318l-273.42-196.16-3.2-2.3-2.92,2.09-273.66,196.34q52.61-159,105.23-318l1.27-3.84-4.13-3c-77.85-56.13-158.21-114.06-239.09-172.63h302.51l.83-4.3c2-7.25,64.29-196.11,108.43-329.55,36.57,107.71,74.27,218.75,111.64,328.58l1.26,3.72H2443.8C2363.59,2339.88,2282.71,2398.62,2204.37,2455.53Z"/>
    <path d="M1620.55,1123.08l-5.33,16L1924,919.24l293.46,211.64.35.25,12.36,6.68-3.42-13.75L2112.64,782.55l273-197.35H2046.48c-40.25-119.71-82-243.51-118.85-352.86l-5.25-15.58-5.59,16.84c-38,114.65-77.37,233.17-116.07,352.38H1460.85l273,197.36ZM1494.83,597h313.88l1.24-3.8c37.54-115.72,75.59-230.49,112.51-341.75,37.67,111.75,76.52,227,114.85,341l1.26,3.75h313l-252,182.17,1.28,3.83q55.26,165.38,110.52,330.78L1927.24,908l-3.2-2.31-287.72,204.85L1745.51,783l1.28-3.83Z"/>
  </g>
</svg>
