<svg xmlns="http://www.w3.org/2000/svg" viewBox="0 0 2994.91 3000">
  <title>150Icon_neon 1</title>
  <path d="M2182.77,1952.72c-40.79-140.06-102.49-246.55-167.82-359.3-9.88-17.06-20.11-34.7-30.29-52.53-91.47-160.22-174.46-343.22-269.09-593.36C1652.37,780.45,1605,593.16,1561.8,415.67Q1530.38,282.85,1498.93,150l-5.1-21.6L1416.42,427c-16.25,55.62-32.05,112.36-47.33,167.24-42.58,152.93-86.61,311.07-143.67,455.87-68.93,174.93-148.61,351.07-243.59,538.49-13.66,27-27.86,53.55-41.59,79.28-57,106.68-110.75,207.45-137.26,345.64-18.05,94.14-19.36,187.5-3.89,277.47,14,81.53,41.8,160.43,82.54,234.53a820.48,820.48,0,0,0,139.43,184.89c51.07,51,107.24,94.4,167,128.89,41.29,23.86,97.07,47,149.21,61.86,50.27,14.36,97.67,21.63,140.88,21.63a326.54,326.54,0,0,0,47.07-3.25c99.95-14.61,176.69-27.62,254.22-62,64-28.4,128.87-74.14,187.54-132.27,60.63-60.07,114-132.87,154.23-210.52,44.13-85.1,72.5-174.39,84.32-265.4A722,722,0,0,0,2182.77,1952.72ZM1493.34,174.16q28.88,122,57.77,244.08c43.23,177.84,90.75,365.51,154.17,533.18,94.85,250.71,178.06,434.19,269.83,594.93,10.18,17.82,20.42,35.49,30.32,52.59,65,112.15,126.36,218.08,166.78,356.85,52.51,180.3,30.91,377-60.81,553.89-79.52,153.33-205.31,279.62-336.48,337.81-76.24,33.82-152.26,46.69-251.34,61.18a317.27,317.27,0,0,1-45.62,3.17c-112.41,0-231.69-51.58-284.45-82.05C971,2701.23,738,2410.86,813.79,2015.6,840,1879,893.39,1779,950,1673.06c13.76-25.77,28-52.42,41.7-79.48,95.13-187.72,174.94-364.17,244-539.43,57.27-145.32,101.38-303.74,144-456.95C1395,542.33,1410.76,485.6,1427,430Z"/>
</svg>
