<svg xmlns="http://www.w3.org/2000/svg" viewBox="0 0 2994.91 3000">
  <title>24Icon_neon 1</title>
  <path d="M2738.86,508.19c-16.07-213.75-34.29-386.81-43.3-411.43-5.73-16.43-14.4-24-25.78-22.61-1,.11-2.4.49-23.43,6.45C2342.64,166.64,1788.24,311,1487.58,311c-401.06,0-960.47-141-1200.36-215.68-9.57-3.49-14.87-1.47-19.5,7.43-4.43,8.5-7.44,76.7-13.28,230.39-3.31,87.14-6.73,177.25-10.31,219.13-17.34,241.38-18.73,500.67-4.26,792.76,11.61,180.55,24.12,330.58,69.73,480.45,54.67,179.3,129,356.65,221,527.11a3069.57,3069.57,0,0,0,317.73,475.86l.3.33c30.27,31.08,69.24,55.36,115.83,72.17,39.39,14.21,84.56,23.22,134.23,26.78,91.15,9,184.07,8.41,274,7.8h.28c35.55-.24,72.26-.48,108.42-.12v.71l5.54-.14c33-.84,66.53-1.41,99-2,86.25-1.47,175.45-3,263-9.77,27.73-2.12,52.93-7.52,77-16.51l.25-.1c4.89-2.14,9.89-4.29,15-6.48,56.4-24.31,120.33-51.87,158.51-97.76l.13-.16c112.55-146.73,252.63-329.33,366-517.74,123.13-204.65,202.22-395,241.8-581.94l0-.16c35.72-199,54.05-411.24,56-648.65C2766.12,951.92,2756.86,747.6,2738.86,508.19ZM1492.15,2924.83v-.32l-5.32-.06c-13.86-.16-28.63-.24-45.13-.24-23.11,0-46.33.16-68.78.31h-.33c-89.61.6-182.26,1.23-272.87-7.76h-.14c-106.79-7.63-188.5-39.75-242.85-95.46-243.06-299.41-428.61-644.85-536.6-999-45.26-148.74-57.71-298.12-69.27-477.88-14.44-291.57-13-550.42,4.24-791.27,3.6-42.06,7-132.3,10.34-219.57,3.65-96.22,8.2-215.93,12.08-225.8,1.37-2.62,2-3,2-3s.88-.18,4,1l.24.08c101,31.43,291.2,83.46,494.85,126.7,125.83,26.71,245.44,47.81,355.51,62.7C1265.77,313,1384.67,322,1487.58,322c146.58,0,369.17-34.1,661.58-101.37,230.33-53,433.43-110.52,500.2-129.44,10.89-3.09,20.33-5.76,21.89-6.12,3.87-.46,8.91,1,13.95,15.4,8.65,23.65,26.57,195.49,42.61,408.61,18,239.45,27.29,443.35,24.81,545.49-2,236.83-20.23,448.4-55.83,646.79-89.38,422-363.65,779.6-605.67,1095.09-36.5,43.82-99.09,70.8-154.33,94.61l-.63.27c-4.83,2.08-9.59,4.13-14.23,6.16-23,8.59-47.22,13.76-73.87,15.79-87.25,6.76-176.27,8.28-262.38,9.74C1555,2923.53,1523.38,2924.07,1492.15,2924.83Zm1179-2839.77h0Z"/>
</svg>
