<svg xmlns="http://www.w3.org/2000/svg" viewBox="0 0 2994.91 3000">
  <title>28Icon_neon 1</title>
  <g>
    <path d="M2397.23,693.35l-.15-.56c-4.71-14.59-8.75-33.33-13-53.2-13.49-62.61-30.28-140.54-83.67-159.22l-.22-.07c-34.15-10.22-69.17-6.13-103-2.17-18.71,2.19-38,4.45-56.86,4.18h-.21l-.21,0c-34.5,2.42-68.09,11.81-100.57,20.89-17.73,5-36.06,10.07-54.24,14l-.33.08c-59.41,17-111.08,6.66-153.59-30.76-33.77-29.73-62.74-76.54-88.57-143.15-6-15.06-13-29.87-19.88-44.2-11.77-24.6-24-50-30.29-76.9l0-.16c-2.11-7.74-3.92-15.82-5.68-23.63-4.8-21.38-9.76-43.5-21.5-63.1l-.08-.13c-17.86-27.84-54.7-40.91-112.7-39.94-48,.81-102.07,11.13-145.49,19.43-20.32,3.88-37.87,7.23-51.78,9.07l-.24,0C1243.59,144,1148,175.74,1062.76,221c-91.53,48.53-169.92,111.71-239.63,193.15C728.3,512.27,652,621.07,596.24,737.48c-59,123.24-93.1,251.6-101.36,381.54-13.48,119-20.53,223.85-21.53,320.63-1.19,115,5.94,219.92,21.82,320.62,21.46,196.19,53.93,347.94,102.16,477.6C627.27,2318.33,664,2391,706.41,2454c47,69.67,102.82,130.06,165.93,179.48,63.85,50.12,190.33,123.06,307.57,177.38,75.76,35.1,216.27,94,306.14,94a171.2,171.2,0,0,0,22.33-1.37c209.15-15.49,409.66-104.17,579.86-256.49,79.22-70.9,149.84-153.75,209.89-246.25a1281.42,1281.42,0,0,0,140.7-291.56c61.74-158.39,63.7-330,65.6-496.06l.1-9.33C2512,1298.77,2458,999.09,2397.23,693.35ZM831.37,421.4c132.35-154.67,299.28-245.79,525.31-286.73,14.17-1.87,31.82-5.24,52.27-9.15,44.78-8.55,100.51-19.2,149.17-19.2,50.64,0,82.59,11.37,97.64,34.77,10.8,18.06,15.56,39.26,20.16,59.78,1.77,7.89,3.6,16,5.77,24,6.62,28,19,53.91,31,79,6.77,14.15,13.77,28.78,19.57,43.46,26.47,68.26,56.41,116.47,91.54,147.39,21.66,19.07,45.67,31.72,71.37,37.61,28.24,6.46,59.29,5,92.32-4.47,18.43-3.95,36.87-9.1,54.7-14.09,31.89-8.91,64.85-18.12,98.13-20.49,19.35.26,39-2,57.94-4.24l.11,0c32.72-3.82,66.55-7.78,98.46,1.75,47.47,16.7,63.53,91.22,76.43,151.11,4.31,20,8.38,38.9,13.21,53.93,60.66,305,114.47,603.9,107,907.68l-.1,9.41c-1.89,165.07-3.83,335.75-64.9,492.33l-.08.23c-122.52,366.91-454.84,752.54-921.06,787l-.3,0a160.15,160.15,0,0,1-21,1.3h0c-87.76,0-226.57-58.24-301.5-93-116.57-54-242.15-126.4-305.42-176-269.81-211.32-341.08-573.73-373-865.84l0-.24c-29.23-185.33-29.3-382.27-.23-638.58l0-.25c15.83-249.55,131.37-497.52,325.32-698.24Z"/>
    <path d="M1888.87,1604.61l42.46-28.78,15.61-33.8-24.26-50.37-1-2.09-45.53-15.39L1835,1496.26l-13.36,45.8-.7,2.37,27.12,43.71Zm24.9-106.1,21,43.62-12.16,26.31-35.07,23.77-32.06-12.93-22.63-36.47,11.39-39,32.89-17.64Z"/>
    <path d="M962.18,1620.36l2.05.37,33-20.18,1.88-1.16,9-34-10.78-47.61-39.94-15.53-2.12-.82-45.3,20-2.55,1.13L897,1570.38l-.51,2.3L924,1613.59Zm-31.64-16.78-22.27-33.14,8.74-40.1,38.57-17,32.35,12.57,8.89,39.27-7.19,27.18-27.58,16.85Z"/>
  </g>
</svg>
