<svg xmlns="http://www.w3.org/2000/svg" viewBox="0 0 2994.91 3000">
  <title>144Icon_neon 1</title>
  <g>
    <path d="M1371.37,1226.83l-9.24-4.88L858,955.65l-2.17-1.14-2.3.84L133.93,1219l-2.25.82-5.41,12.81,729.49,263,2.27.82,2.15-1.12,501.94-263.67Zm-23.61,0L857.21,1484.5,143.57,1227.21,855,966.52Z"/>
    <path d="M1498.11,1160l3.74,2.08L1813.7,829.53l5.63-6-331.8-125.36-2,.75L1015.72,878.29l-1.37.53-7.3,8.94,5.76,3.19Zm301.94-332-300.36,320.3-18.52-10.26L1026.49,886l461.06-176Z"/>
    <path d="M1709.1,1060.32l308.68-158.46,3-1.53v-9.27L1898.1,844.92,1680.52,1075Zm295-163.79-271.4,139.33,168.4-178.07Z"/>
    <path d="M2419.46,1501.91,2417,1499l-43.33,16.34v3.79c-.15,42.34,23.61,167.12,45.75,265.14,22.69,100.5,53.31,216.36,71.17,240.18l2.23,3,3.59-1c2.28-.61,22.4-6,26.33-7.54,11.17-4.37,11.74-4.73,20.29-12.65l1.76-1.64.35-1.76c6.31-32.53-37.54-207.07-51.12-259.79C2471,1654.13,2432.25,1516.44,2419.46,1501.91Zm77.85,512.94c-32.68-54.16-110.44-409.54-112.65-491.87l28.45-10.74c10,19.08,37.57,107,70.19,233.63,33.9,131.49,53.78,230,51.23,253.27-6.32,5.84-6.75,6-15.93,9.61C2516.63,2009.52,2506.77,2012.29,2497.31,2014.85Z"/>
    <path d="M2866.93,1219.24,2138,955.34l-2.3-.83-492.58,262.37-6.47,3.45,5.12,5.24c16.46,16.85,145.66,89,258.87,148.23C1954.45,1402,2132.46,1494,2163.49,1494a14.51,14.51,0,0,0,2.76-.25l.4-.08,703.91-262.69v-10.37Zm-961.2,144.82c-117.69-61.63-222.16-120.76-250.19-141.34l481-256.2,716.24,259.3L2163.72,1483c-3.27.34-18.94-1.8-91.14-35.49C2028,1426.7,1968.78,1397.08,1905.73,1364.06Z"/>
    <path d="M1026.69,1554.83l-2.78,1.59v12.48l3.52,1.36,478,185.08,2,.78,465-185.88,2.23-.89,4.7-12.19-477.83-270.28-2.72-1.54Zm9.73,7.12,462.45-264,465.85,263.5L1507.36,1744.3Z"/>
    <path d="M2091.16,1664.08l-2.92-3.39-3.92,2.18c-45.86,25.56-540.05,198.24-572,209.39-31.18-10-398.3-127.8-575.84-188.28l-5.77-2-1.37,6c-16,69.82-17.76,181.58-4.58,291.68,6.5,54.27,16.28,103.69,28.28,142.9,13.48,44.05,29.3,74.28,47,89.85,24.54,21.56,63.8,39.75,116.66,54.06,48.81,13.21,108.12,22.89,176.27,28.76,48.79,4.2,101.17,6.33,155.69,6.33,88.79,0,180.26-5.71,264.53-16.52,95.24-12.22,175.43-29.71,238.33-52,63.61-22.54,105.84-48.73,125.54-77.84,12.1-17.89,24.86-136.17,30.2-240.18,1.42-27.46,3.63-81.22,2.61-132.69C2108.58,1715.78,2102.45,1677.11,2091.16,1664.08Zm-580.45,219.21,1.76.57,1.74-.61c5.12-1.78,501.54-174.92,571-208.46,10.71,20.06,18.73,91.93,11.14,239.64-6.41,124.74-19.82,222-28.33,234.59-18.14,26.8-59.73,52.29-120.29,73.72-62.12,22-141.48,39.26-235.87,51.37-136.75,17.54-289.06,21.24-417.87,10.14-67.5-5.81-126.16-15.38-174.34-28.42-51.24-13.87-89-31.27-112.28-51.71-31.21-27.42-58-111.83-71.63-225.79-12.47-104.1-11.22-213.79,3.07-282C1124.56,1759.51,1506.84,1882.05,1510.71,1883.29Z"/>
  </g>
</svg>
