<svg xmlns="http://www.w3.org/2000/svg" viewBox="0 0 2994.91 3000">
  <title>58Icon_neon 1</title>
  <g>
    <path d="M1561.79,2253.47l-5.07.26a1523.84,1523.84,0,0,1-201.76-3.18l-6.23-.51.29,6.23c7.69,171.43,18.34,353.68,28.63,529.92l.12,2c2.62,45,5.22,89.56,7.75,133.41l.24,4.4,4.35.72c28.9,4.77,67.05,10.25,105.86,10.25,36.46,0,67.94-4.71,96.24-14.4l1.92-.65,18.51-31.42,28.07-4.6,5.26-.87-83.51-626.51Zm-165.54,663.08c-2.46-42.58-5-85.83-7.53-129.47l-.09-1.53c-10.17-174.08-20.67-354-28.34-523.54a1537,1537,0,0,0,191.94,3l81.43,610.92-27.88,4.57-19,32.34C1525.74,2933.05,1456.55,2926.31,1396.25,2916.55Z"/>
    <path d="M2429.7,2601.65q-3.13-5.9-6.25-11.79l-1-1.84c-2.84-5.35-5.68-10.71-8.5-16-62.39-119.89-122.69-244.25-184.34-380.18l-1.78-4-4.27.82c-26.75,5.13-51.28,9.24-75,12.55l-6.4.89,1.91,6.18c16.43,53.05,31.59,107.89,46.27,161,29.83,107.92,60.67,219.51,104.25,323.72l2.62,6.27L2428,2608.75l4-2.79Zm-127.52,80.87c-41.94-101.78-72-210.72-101.21-316.22-14.12-51.06-28.69-103.8-44.44-155.08,20.62-3,41.95-6.57,64.88-10.92,61.12,134.59,120.94,257.88,182.78,376.72l.06.11q4.26,8,8.5,16l.32.6,4.62,8.73Z"/>
    <path d="M2159.18,2529.74c-30.83-105.46-62.7-214.51-93.09-314.23l-1.3-4.24-4.42.37c-52.44,4.38-102.5,4.46-155.5,4.54h-7.11l1.8,6.88c45.29,173.15,98,377.84,145.23,583.11l1.68,7.28,163.22-95.23,3.71-2.16-34-117.05C2172.81,2576.37,2166,2553.21,2159.18,2529.74Zm-105.35,266.69c-46.27-200.42-97.5-399.7-141.83-569.26,49-.09,95.75-.32,144.86-4.21,29.95,98.4,61.36,205.85,91.76,309.87l1.21,4.13c6.45,22.05,12.81,43.82,19.05,65.14l31.56,108.79Z"/>
    <path d="M1827.45,2234.4l-4.75.32c-61,4.24-119.58,4.63-184.41,4.69h-6.57l1.15,6.46c31.55,175.94,72.29,407.51,107.54,638.52l1,6.75,205.45-78.76,4.4-1.69-122.83-571.65ZM1750.25,2876c-34.63-226.26-74.33-452.31-105.39-625.59,60.73-.08,116.2-.55,173.85-4.38l119.84,557.78Z"/>
    <path d="M848.82,2206.22l-6.81-.58c-27.57-2.34-53.64-5.73-79.71-10.35l-4.32-.77-1.71,4.05c-60.07,142.89-122,284.25-184.21,420.14l-2,4.34,124.77,79.87L697,2696c36.69-119,112.3-362.84,149.81-483.26ZM584.05,2618.94c61-133.38,121.72-272,180.66-412.06,22.81,3.92,45.66,6.92,69.55,9.12C797,2335.53,725.37,2566.72,688.6,2685.86Z"/>
    <path d="M927.12,2206.17l-5-1-1.37,4.91c-57.19,205.69-159.08,551.27-160.1,554.73l-1.33,4.52,209.62,75.47,6.79,2.45.56-7.19q2.19-27.6,4.36-55.22c14.36-182.37,29.22-371,49.82-555.84l.6-5.38-5.37-.69C994.17,2218.94,964.6,2213.56,927.12,2206.17Zm42,585.45q-1.59,20.21-3.19,40.41l-168.33-60.59h0l-24.77-8.92C784.91,2721.4,876.26,2410.89,930,2218c33.28,6.51,60.46,11.42,89,15.21-20.31,183.3-35,370.08-49.26,550.84Z"/>
    <path d="M1281.74,2753.81c-1.68-46-3.55-92.47-5.53-141.66l-.06-1.26c-4.9-121.59-10-247.32-11.88-362.86l-.08-4.92-4.91-.46c-48.46-4.48-94.35-11.89-145-20.4l-6.17-1-.23,6.26c-9.88,267-19.49,470.59-31.15,660.1l-.35,5.55,211.8,10.77-1.26-28C1285.08,2835.85,1283.22,2794.49,1281.74,2753.81Zm-28.38-500.67c2,114.2,7,238.09,11.79,358v.22c2,49.57,3.89,96.38,5.59,142.88,1.47,40.72,3.34,82.1,5.15,122.14l.72,15.94L1088,2882.7c11.43-186.62,20.88-387.15,30.59-648.57C1165.33,2242,1208.19,2248.77,1253.36,2253.14Z"/>
    <path d="M832.76,1172.21c24.75,25.39,56.13,46.75,93.33,63.51,2.94,25.73,11.77,99.51,21.59,147.46l1,4.8,4.89-.43,38.1-3.4,1.09-.1c162.55-14.55,330.63-29.6,495.59-30.61,160.73.9,324.5,15.4,482.88,29.44l48.34,4.27,5.22.45.71-5.18c1.52-11,2.87-20.81,4.11-29.73,7-50.92,10.05-72.65,14.36-113.74,119.91-57.53,177.42-145.76,175.79-269.66-1.42-108-48-229.38-89-336.47-12.61-32.88-24.53-64-35.06-94.12-8.47-177.27-1-331.87,22.95-472.65l1-5.95-113.91-8.44-.73,5.08c-25,174-37.11,337.84-36,487.08-73.73,51.75-156.54,113.62-212.08,193.71-84.36,64.85-168.42,124.16-268.51,138.43-100.67-14.15-184.64-73.63-268.84-138.7-54.71-79.29-134.47-139.08-211.77-193.44,1.2-150.75-10.56-310.12-36-487.08l-.73-5.08L857.22,60.1l.94,5.92c23,142.44,31.15,282.8,24.38,417.14-.41,3.66-.48,11.95-.57,22.41-.13,14.86-.39,45.78-2.69,50.31l-.2.3-.15.34c-35.52,77.91-75,170-98.65,262.05C767.31,869.12,760.16,916,759,958c-1.3,48.21,5.29,91.67,19.57,129.17A247.1,247.1,0,0,0,832.76,1172.21Zm56-610.82c3.22-5.68,3.9-22,4.18-55.83.08-9.44.15-18.35.51-21.26l0-.4c6.73-133.31-1.19-272.47-23.55-413.72l91.68-6.79c25,175.5,36.45,333.6,35.1,483.21l0,2.9,2.37,1.66c77.49,54.42,157.67,114.14,211.88,193l.23.32.64.68.3.24C1298,811.82,1383.7,872.6,1487.71,887l.75.08.69-.1c48.11-6.74,96.2-24,147-52.77,45.6-25.8,88.28-57.85,128.09-88.47l.31-.24.64-.68.22-.31c55.07-79.74,138.41-141.6,212.21-193.33l2.36-1.66,0-2.89c-1.3-148,10.51-310.56,35.11-483.22l91.63,6.78c-23.3,140.17-30.51,294-22.06,469.86l0,.36.16.84.12.34c10.64,30.51,22.66,61.88,35.4,95.08l0,.11c40.74,106.23,86.92,226.64,88.32,332.68,1.58,120.1-54.78,205.44-172.3,260.9l-2.79,1.32-.32,3.08c-4.46,42.91-7.44,64.42-14.64,116.45l-.25,1.79c-1,7-2,14.54-3.14,22.75l-43.13-3.81c-158.6-14.05-322.6-28.58-483.85-29.48-165.47,1-333.78,16.08-496.56,30.65l-34.27,3.07c-9.75-49.62-18.37-123-20.83-144.8l-.35-3.15-2.9-1.27c-71.59-31.55-120.22-79.91-144.54-143.73-26.19-68.76-25.51-154.43,2.07-261.91C814.32,730.19,853.51,638.8,888.79,561.39Z"/>
    <path d="M2003.22,2140c59.59-6.45,121.22-13.13,181.77-18.87l6.94-.66-32.81-96.39-1.5-4.38-4.58.73c-436.54,70.14-883.79,70.13-1329.32,0l-4.57-.72-32.06,94.2-2.2,6.49,6.81.74c191.24,20.92,351.78,37.27,513.57,49.07,56.56,4.87,114.52,7.24,177.2,7.24C1657.48,2177.45,1833.24,2158.43,2003.22,2140ZM799.72,2111,826.58,2032a4319.62,4319.62,0,0,0,665.18,52h.09a4192.82,4192.82,0,0,0,658.36-52l26.82,78.81c-58.43,5.6-117.66,12-175.05,18.23-169.67,18.36-345.11,37.35-519.51,37.35-62.36,0-120-2.35-176.33-7.2C1146.27,2147.59,987.8,2131.5,799.72,2111Z"/>
  </g>
</svg>
