<svg xmlns="http://www.w3.org/2000/svg" viewBox="0 0 2994.91 3000">
  <title>112Icon_neon 1</title>
  <g>
    <path d="M2862,137l-1.44-10.89-7.14,7-1758,1718.81L123,2749l-4.25,3.93,147.66,144.43,3,2.89,3.6-2c4.21-2.39,422.62-240.29,541.87-345.47,122.35-107.91,406.62-484.77,443-533.22l431.62,424.08,4,3.89,3.85-4c8.68-9.06,213.34-222.74,277.86-299,132.89-157,377.95-464.57,481.9-626.13,35.52-55.21,128.13-201.66,220.62-368.8,92.41-167,153.18-297.57,180.65-388.16,22.55-74.4,32.92-234.78,33.07-324.91C2891.51,362.36,2862.32,139.29,2862,137Zm-9.49,12.37c5.71,44.65,28,223,27.86,287.06-.15,89.46-10.37,248.41-32.6,321.74-73.86,243.63-366.83,702.66-400,754.2-103.68,161.14-348.33,468.19-481,625-60.18,71.09-244.79,264.37-273.56,294.44L1107.08,1856ZM1249.93,2011.73c-32.65,43.53-319.67,424.55-442.35,532.75C694.75,2644,313.53,2862.42,271.16,2886.59L134.74,2753.15l964.37-889.62Z"/>
    <path d="M2100.86,1514.83c11.52,6.37,28.78,8.63,40.06,8.63,5.51,0,13.26-.48,18.93-2.77,16.4-6.62,35.18-38.94,36-56.7.75-15.37-9.71-55.34-25.39-67.48-4.74-3.66-9.33-4.73-14-3.27l-.4.12c-12.86,4-11.84,22.13-10.85,39.65l0,.47c.57,10.13,1.28,22.73-1.6,27.32s-14.33,9.24-23.58,13.07c-16.34,6.75-33.23,13.73-30.85,27.1C2090.18,1506.43,2094.1,1511.09,2100.86,1514.83Zm52.1-48.18c4.74-7.56,4-20.3,3.26-33.79-.62-11-1.56-27.54,3.22-29a2.93,2.93,0,0,1,.88-.13,6.27,6.27,0,0,1,3.44,1.51c11.94,9.23,21.76,45.63,21.15,58.25-.65,13.34-17.34,42.25-29.17,47-9.89,4-36.19,2.11-49.55-5.28-3.61-2-5.8-4.19-6.15-6.17-.83-4.65,14.85-11.14,24.22-15C2136.61,1478.92,2148.28,1474.1,2153,1466.65Z"/>
  </g>
</svg>
