<svg xmlns="http://www.w3.org/2000/svg" viewBox="0 0 2994.91 3000">
  <title>118Icon_neon 1</title>
  <path d="M2177.23,277.44c18.33,24.07,45.74,41.92,77.17,50.27s64.55,6.57,92.87-5.11c31.58-13,55.44-37.27,69-70.14,20.9-50.65,8.77-102.71-32.45-139.28A151.69,151.69,0,0,0,2304.53,77a144.34,144.34,0,0,0-90.86,17.07c-16.89,9.47-36.09,28.87-45.59,45.7-33.38-12.37-87.79-32.89-98.87-38.37-48.28-23.87-85.31-31.28-152.37-30.51h-.26l-.74.09-2,.28c-48.42,6.53-166,26.15-212,67.34-105.22,94.31-147,191.45-180.8,282.85-12.91,34.93-16.06,53.77-20.84,82.3l-.08.44-63.86-1.14-.44.07c-18.45,3-37,5.32-55,7.58-38.06,4.77-74,9.29-107.78,19.35C1102.3,580.94,962.7,664.18,858.11,777.48c-107.72,116.68-179.31,266.38-212.78,445-8.43,45-7.78,100.83-7.15,154.78.61,52.17,1.23,106.13-6.2,151.2l-.05.34-5.51,219.94-2.75,164.62-5.49,218.21-4.13,164.66-2.73,109.19c-13.22,54.55-13.54,135.91-.85,217.78,12.38,79.8,35.12,145.48,59.36,171.43,44.35,47.46,95.74,79.9,148.63,93.82a247.52,247.52,0,0,0,62.86,8.16c44.44,0,90-12.08,135.51-35.89,51.43-26.93,92.59-78.14,122.32-152.21,18.66-46.5,32.92-102.26,42.48-166.07,6.82,29.66,20,78.7,42,130.65,20.2,47.67,43.79,88.38,70.12,121,33,40.81,70.32,69,111.06,83.81,37,13.44,73.44,20.25,108.42,20.25a262.48,262.48,0,0,0,45.81-4c44.32-7.89,85.35-27.21,122-57.45,47.49-39.21,85-94.48,108.45-159.83A409.68,409.68,0,0,0,1812.86,2566c21.36,80.28,78.08,237.63,204.7,299.94a256.66,256.66,0,0,0,123.11,26.56,269.94,269.94,0,0,0,116-30.9,262.73,262.73,0,0,0,87.67-74.28,233.75,233.75,0,0,0,44.93-107.44c5.95-40.83,17.57-149.26-2.61-274.29q-1.36-54.71-2.74-109.4-2.05-82.33-4.12-164.66-2.76-109.12-5.49-218.16-1.38-82.33-2.75-164.71-1.38-54.9-2.76-109.78T2366,1529.11l-2.76-109.85-.06-.7c-5.22-31.14-5.42-68.76-5.62-105.16-.21-39.72-.44-80.8-7.2-113.81-14.48-70.6-35.38-136.8-62.11-196.76a796.52,796.52,0,0,0-95.84-161.33c-70.9-92.15-163-169.77-281.69-237.29-93.39-53.16-244.59-92.51-369.72-96.48,3.71-23.9,10.19-55.59,20.8-80.9,4.51-10.76,8.94-21.67,13.24-32.26,33.86-83.43,65.85-162.23,157.94-228.75,20.63-14.9,58.09-30.36,100.19-41.35,46.31-12.09,91.9-17.34,128.36-14.79,46.5,3.26,124.23,39,152.54,54.75,9.6,5.36,30.21,15.75,38.35,19.83C2148.85,219.22,2157.38,251.37,2177.23,277.44Zm-648,234.84-.88,6.13,6.2.15c124.71,2.79,277.18,41.94,370.77,95.21,242.3,137.89,380.3,324.74,434.3,588,6.55,31.94,6.77,72.46,7,111.66.2,36.69.41,74.62,5.7,106.5q1.36,54.7,2.74,109.42,1.38,54.9,2.75,109.78t2.75,109.73q1.36,82.32,2.75,164.71,2.73,109.08,5.49,218.21,2.07,82.32,4.13,164.65,1.37,54.89,2.74,109.78l.07.74c20,123.7,8.52,230.95,2.65,271.32-10.54,72.42-58,137.31-126.84,173.56-37.24,19.6-78.45,30-119.21,30h0a247,247,0,0,1-109.89-25.75c-159.38-78.43-205-313.46-209.82-341.2-.65-8.2-1.62-16.33-2.87-24.18l-6.93-43.4-4,43.76c-.32,3.55.75,12.93,2.87,25.14,9.11,114.1-43.37,242.36-127.69,312-36.11,29.82-89.62,59-160.67,59-31.48,0-66.4-5.73-104.76-19.67-88.51-32.17-143.92-125.85-174.81-198.77-33.33-78.66-47-153.17-47.68-160.37l-4.68-52.29-6.26,52.12c-9.21,76.73-24.76,142.72-46.2,196.15-28.73,71.57-68.16,120.88-117.21,146.56-160.21,83.89-277.94-4-333.86-63.85-22.81-24.42-44.47-87.88-56.53-165.6-12.53-80.82-12.23-160.84.81-214.07l.06-.25.09-.92q1.37-54.88,2.75-109.77l4.12-164.66,5.5-218.26,2.75-164.62,5.48-219.13c7.52-45.88,6.89-100.18,6.28-152.72-.63-53.41-1.27-108.64,7-152.61,65.74-350.79,274.34-580.87,620-683.84,32.89-9.8,68.41-14.26,106-19,17.93-2.26,36.48-4.58,54.88-7.55l67.61,1.21,4.74.09,1.64-9.79c4.68-27.91,7.77-46.35,20.32-80.3,33.31-90.12,74.48-185.85,177.82-278.47,43.69-39.16,158.68-58.25,206.09-64.64l2.06-.28c64.83-.72,100.58,6.43,147,29.37,15.41,7.62,103.59,40.18,104.48,40.51l4.73,1.74,2.15-4.56c7.28-15.45,27.13-36.18,43.36-45.28,58.21-32.63,121-14.62,157.48,17.71,37.55,33.31,48.61,80.74,29.58,126.86-27.69,67.09-96.59,82.7-148.88,68.81-53.33-14.16-102.89-61.49-93.4-135.31l.49-3.88-3.52-1.75c-1.2-.61-29.73-14.84-41.33-21.31-29-16.17-108.8-52.74-157.14-56.12-37.62-2.64-84.46,2.73-131.9,15.12-43.35,11.31-82.17,27.42-103.85,43.07a383.7,383.7,0,0,0-103.82,111.48c-24.34,39.43-41.39,81.44-57.89,122.1-4.27,10.52-8.69,21.4-13.17,32.09C1539.72,451.13,1532.87,487.11,1529.23,512.28Z"/>
</svg>
