<svg xmlns="http://www.w3.org/2000/svg" viewBox="0 0 2994.91 3000">
  <title>78Icon_neon 1</title>
  <path d="M2860.62,906.82l-599.4-460.25-.18-.14L1602.47,26.37l-4.32-2.76-127.64,172-67.32,22.2,1.31,66.83L956.31,908.89,715.74,1239l-.06.08L323.82,1825,128.1,2025.08l216.39-.36,794.15,685,202.83,269.5,114-257,277.5-404.44L2051,1949.73l48.7-55.06.1-.12,556-712.78,78.23-6.71.34-88,64.76-97.34Zm-206.23,264-625-423.16-613.86-464-1.13-57.9,57.88-19.09L2106.9,636.25l616.44,451.93-.29,76.78ZM2113.31,627.31l-.07-.06L1481.32,199.54l67.75-91.32,623.63,422.2L2784,992.57l-56.56,85Zm676.81,356.08L2179.21,521.55,1555.63,99.38l45.24-61,653.86,417.05L2845.34,909l-55.15,74.33ZM1411.2,294.21l611.63,462.35.11.08,622,421.11-553.59,709.76-48.62,55-318.37,368.39-.18.22L1446,2716.5l-.26.38L1339,2957.65,1147,2702.6l-.32-.43L350.12,2015l-1.55-1.33-194.28.33,177.78-181.79.32-.33L724.7,1245.41,965.22,915.34Z"/>
</svg>
