<svg xmlns="http://www.w3.org/2000/svg" viewBox="0 0 2994.91 3000">
  <title>46Icon_neon 1</title>
  <g>
    <path d="M2306.06,2793.58c-7.53-26-15.17-52.43-22.77-78.77h0l-21.69-75.4L2235,2549.69l-39.63-133-49.13-161L2037.36,1912l-28.87-88.58-61.08-183.65c-.12-.83-.31-2.18-.54-3.88l-15.26-111-.08-.45a19,19,0,0,1-.12-5.55l.1-.37,0-.38c10.76-90.67,94.78-828.91,112.86-987.83l91.85,258.34,1.85,5.21,5.2-1.87c68.39-24.62,144.34-58.67,225.75-101.21l3.86-2-1.08-4.23c-6.64-25.75-13.15-52.08-19.46-77.54-26.77-108.2-54.46-220.07-99.69-323.09-20.28-45.94-70.11-66.67-114.16-85-4.88-2-9.58-4-14.17-5.94l16.25-16-9-2.62c-36.71-10.66-76-16.5-114-22.15-77.54-11.52-157.71-23.43-219.68-76.88l-6.62-5.71L1789,78.05c-53.13,196.73-129.65,380-227.44,544.82l-.26.45-.92.51.27.57-.62,1,.53,1.07-6.7,11.31,9.49-5.33a66.28,66.28,0,0,1,5.05,28.63l-.23,4.4,4.25,1.18c94.39,26.11,169.55,86,206.25,164.45,29.63,91.71,38.82,188.43,47.71,282,1.58,16.66,3.21,33.81,5,50.93-128-45.28-298.18-108.16-325.9-260.73L1500,873.57l-5.41,29.76c-27.75,152.54-197.91,215.43-325.9,260.73,1.73-17,3.35-34.08,4.93-50.71l0-.29c8.88-93.5,18.07-190.18,47.67-281.86,36.72-78.45,111.89-138.39,206.28-164.5l4.25-1.18-.23-4.4a66.24,66.24,0,0,1,5.06-28.66l9.37,5.18-6.59-11.13.53-1.07-.62-1,.29-.59-1-.53-.24-.41C1340.67,458.08,1264.15,274.78,1211,78.06l-2.28-8.45-6.62,5.71c-62,53.45-142.14,65.36-219.67,76.88-38,5.65-77.33,11.49-114.05,22.15l-9,2.62,15.87,15.6c-45.22,16.9-74.36,32.89-96.54,52.85-27.09,24.35-45.07,56.21-56.6,100.23C685.35,452,658,563.37,631.45,671.11l-4.34,17.65,3.82,2C712.34,733.29,788.29,767.34,856.68,792l5.48,2,1.66-5.59c12.68-43,31.39-92.89,49.48-141.17,14.54-38.8,29.48-78.69,41.3-115,13.35,116.82,62.28,539.27,92.5,800.22,10.56,91.27,18.55,160.2,21.35,184.49l0,.26a18,18,0,0,1,0,5.92l-.12.59c0,.12-2.1,15.16-4.75,34.37-4.41,31.93-10.42,75.37-11.19,80.94-119.1,323.41-220,674-317.62,1013l-.21.71c-13.31,46.23-27.07,94-40.51,140.46l-5.32,23.26,6.13.68c197.83,22,376.36,41.34,557.83,54.66l5,.36.81-11-5-.36c-179.51-13.18-356-32.22-551.3-53.94l2.47-10.8,7.47-25.84c38.56,4,313.88,32.37,539.48,49.14l5,.37.82-11-5-.37c-221.26-16.45-492.55-44.28-537.19-48.9,9.86-34.17,19.8-68.67,29.5-102.37l.61-2.13C843,2316,943.93,1965.41,1063,1642.23l.19-.51,15.43-111.56c.32-2.35.5-3.63.59-4.47a28,28,0,0,0,.17-10.2c-2.81-24.37-10.79-93.23-21.34-184.34-33.46-289-89.47-772.61-95.44-826.16l-3-27.09-7.72,26.15C939.42,546.12,920.9,595.53,903,643.4c-17.37,46.36-35.31,94.25-48,136.24-65.41-23.9-137.73-56.39-215.09-96.64l2.28-9.26C668.59,566.18,695.94,455,732.58,349l.11-.37C755.07,263,801.28,231.32,883.88,201.11c22.65,22.77,192.51,193.24,255.75,247.79,61.81,53.31,255.51,161.65,287,179.12a77.79,77.79,0,0,0-6.08,29.24c-44.86,13-86.83,34-121.58,61-38.58,30-68.11,66.52-87.76,108.63l-.22.57c-30.08,93-39.33,190.37-48.28,284.56l0,.22c-1.85,19.46-3.76,39.57-5.82,59.34l-.91,8.65,8.21-2.9c67.88-24,144.81-51.19,209.61-92.92C1441,1041.13,1482.46,990,1500,928.57c17.52,61.4,59,112.55,126.24,155.84,64.85,41.77,141.75,68.95,209.6,92.92l8.21,2.9-.91-8.66c-2.05-19.64-4-39.65-5.79-59l0-.49c-9-94.23-18.21-191.67-48.31-284.68l-.23-.58c-19.63-42.07-49.15-78.6-87.73-108.57-34.75-27-76.72-48-121.58-61a77.86,77.86,0,0,0-6.09-29.26c37.11-20.91,298.34-169.08,378.22-242.33,42.07-38.58,146.93-163.09,164.68-184.24,5.9,2.55,11.87,5,18.13,7.64,42.06,17.5,89.74,37.34,108.24,79.24,44.84,102.14,72.41,213.55,99.08,321.3l.09.38c5.93,24,12.06,48.73,18.3,73-77.45,40.3-149.85,72.82-215.33,96.72L2038.87,481.82l-2.69,23.62c-1,9.06-103.52,910-115.49,1011a28.91,28.91,0,0,0,.06,10.17c.69,5.07,14.82,108,15.82,115.31l.07.54,1.8,5.21v.07h0L1998,1826.86l28.85,88.51,108.83,343.56,49.11,160.9,39.61,133,26.64,89.66,18.71,65,0,0,1.38,4.79c4.53,15.7,9.08,31.45,13.61,47.13-44.94,4.63-319.31,32.6-542.58,49l-5,.37.82,11,5-.37c226.85-16.7,506-45.26,544.88-49.27q3.78,13.1,7.55,26.09l2,12.58c-171.79,20.11-366,42.71-556.56,51.9l-5,.24.53,11,5-.24c192.91-9.29,389.54-32.31,563-52.62l5.71-.67-3.94-24.29ZM2105.78,196.81c-22.17,26.38-121.49,144-161.62,180.75C1871.53,444.17,1648,573,1581.33,610.86c92-158.75,164.65-334.1,216-521.67,63.31,50.82,142.21,62.54,218.6,73.89,34.49,5.13,70.07,10.41,103.47,19.3l-14.36,14.12ZM880.58,182.38c33.41-8.89,69-14.18,103.49-19.3,76.37-11.35,155.25-23.07,218.58-73.89,51.4,187.65,124,363.08,216.14,521.88-54.5-30.53-216.66-122.79-272-170.5-60.16-51.88-219.43-211.36-251.6-243.67l.1,0Z"/>
    <path d="M1698.18,2917.08c-1.6.16-160.64,16.44-198.19,16.53h-.35c-41.1,0-196.52-16.37-198.09-16.53l-5-.53-1.16,10.94,5,.53c1.56.16,157.21,16.59,199.24,16.59h.37c38.33-.09,197.69-16.43,199.29-16.59l5-.51-1.11-11Z"/>
    <path d="M1495,2899.78c35.83-.09,183.91-13.39,185.4-13.53l5-.45-1-11-5,.45c-1.48.13-149,13.39-184.45,13.48h-.39c-38.6,0-182.55-13.35-184-13.48l-5-.47-1,11,5,.46c6,.55,146.43,13.53,185,13.53Z"/>
    <path d="M2426.55,720.57l-4.4,2.36c-1,.54-101.32,54.26-137.54,70.66-38.42,17.39-153.54,60.28-154.7,60.72l-4.69,1.74,3.84,10.31,4.69-1.75c1.16-.43,116.64-43.45,155.39-61,36.81-16.66,137.19-70.44,138.2-71l4.41-2.37Z"/>
    <path d="M867.12,865.54l4.7,1.69,3.72-10.35-4.7-1.69c-1.26-.45-126.58-45.54-166.09-63.93C672.83,776.4,581.86,724.15,578,721.92l-4.34-2.49L568.18,729l4.33,2.5c.94.54,94.88,54.54,127.6,69.77C740.39,820,865.86,865.09,867.12,865.54Z"/>
  </g>
</svg>
