<svg xmlns="http://www.w3.org/2000/svg" viewBox="0 0 2994.91 3000">
  <title>92Icon_neon 1</title>
  <g>
    <path d="M2401.26,2885l-656.53-683.79a725.41,725.41,0,0,0,219.72-290.95,740,740,0,0,0,0-564,723.07,723.07,0,0,0-152.31-230.32,707.73,707.73,0,0,0-226-155.31,701,701,0,0,0-512-16.36L799.28,145,1107.5,298.05l4.9-9.85-318.21-158-1.23-.65-1.38-.65-4.06-2-2.45,4.28-.71,1-.65,1.4L612.77,432.13l9.55,5.46L788.46,147.36l275.45,800.7q-15.69,5.9-31.17,12.56A707.69,707.69,0,0,0,806.8,1115.93a722.85,722.85,0,0,0-152.31,230.32,740,740,0,0,0,0,564A723.13,723.13,0,0,0,806.8,2140.61a707.85,707.85,0,0,0,225.94,155.31,700.68,700.68,0,0,0,553.45,0A704.59,704.59,0,0,0,1736,2208l657.32,684.61ZM1309.47,2341.88c-385.89,0-699.83-320.13-699.83-713.61s313.94-713.62,699.83-713.62,699.83,320.13,699.83,713.62S1695.36,2341.88,1309.47,2341.88Z"/>
    <g>
      <rect x="1851.65" y="2655.76" width="651.34" height="1" transform="translate(-1244.69 2362.44) rotate(-45.75)"/>
      <rect x="1846.65" y="2650.76" width="661.34" height="11" transform="translate(-1244.69 2362.46) rotate(-45.75)"/>
    </g>
  </g>
</svg>
