<svg xmlns="http://www.w3.org/2000/svg" viewBox="0 0 2994.91 3000">
  <title>48Icon_neon 1</title>
  <g>
    <path d="M2275.19,990.57c-.52-2-53.79-201.14-76.34-290.94-7.08-28.5-13.74-57.2-20.18-85l-.08-.36c-3.93-16.91-8-34.4-12.08-51.59-12.54-53.07-23.17-96.32-33.46-136.1-10.52-40.49-23.27-88.11-38.13-134.41-1.24-3.64-2.47-7.4-3.65-11l-.07-.2c-2.32-7.13-4.71-14.5-7.43-21.45l-5.91-16,0-.1c-1.33-3.37-2.76-6.65-4.16-9.86-.81-1.86-1.62-3.71-2.44-5.65-.39-.89-.77-1.79-1.18-2.76-.69-1.63-1.41-3.32-2.19-5l-3.8-7-3.64-6.82-.1-.17a37,37,0,0,0-2.8-4c-.5-.66-1-1.28-1.42-1.94l-.23-.31a101.52,101.52,0,0,0-22.57-21c-15.7-11.06-35.1-20.44-59.37-28.68-6.15-2-11.25-3.59-16-4.9-2.91-.82-5.71-1.53-8.16-2.13l-3-.7-39.2-6.2-.61-.1c-22.51-3.72-45.8-7.56-69.17-12.42-21.43-4.61-41.39-11.39-59.76-18l-2.61-1-2.31,1.55c-11.49,7.68-26.68,17.75-42.17,27.6-7.68,4.87-16.66,10.52-26,15.93-3.77,2.19-8.75,5-13.94,7.55-4.72,2.33-9.33,4.35-13.82,6.32l-.41.18c-16.93,7.22-34.8,14.28-56.23,22.22-18,6.68-36.51,13.36-56.61,20.42l-12.37,4.34-26.31-64.84-3.4-8.33L1500,163.14l-21.8-25.29-29.71,73.21-12.34-4.37c-20-7.1-38.52-13.82-56.49-20.55-17-6.38-36.75-13.89-56.23-22.2l-.56-.24c-4.44-1.94-9-3.94-13.77-6.28-5.11-2.47-10.12-5.31-13.91-7.52-9.39-5.43-18.34-11.05-26-15.88-15.58-9.87-30.75-19.92-42.22-27.56l-2.31-1.54-2.61.94c-18.33,6.63-38.25,13.4-59.67,18-23.35,4.86-46.57,8.7-69,12.41l-35.6,5.64-4.11.63-3.4.77c-3.15.78-5.71,1.46-8,2.11-4.8,1.31-9.91,2.87-16.11,4.92-24.22,8.21-43.62,17.58-59.33,28.64a101.74,101.74,0,0,0-22.62,21l-.23.31c-.45.66-1,1.34-1.43,1.95a39.37,39.37,0,0,0-2.77,4l-3.72,7-3.7,6.8-.13.25c-.76,1.61-1.46,3.28-2.15,4.89l0,.12c-.39.91-.77,1.81-1.2,2.78-.79,1.88-1.6,3.74-2.41,5.61-1.38,3.18-2.81,6.46-4.15,9.85l-5.92,16c-2.76,7.05-5.16,14.43-7.48,21.57-1.14,3.5-2.43,7.47-3.75,11.31C890.23,338.6,877.47,386.22,867,426.71c-10.28,39.74-20.91,83-33.46,136.09-4.14,17.38-8.22,35-12.16,52-6.45,27.79-13.12,56.52-20.19,85-22.63,90.14-73,298.38-73.5,300.42l-23.57,94.53-1.2,4.85,62.27,22,4.37,1.55c2.49.89,5.32,1.9,8,2.78l12.46,3.53c29.9,8,61,15.51,90.26,22.51l4.88,1.16,7.84-23.14.16-.5c3.3-10.07,6.71-20.49,9.21-29.82l13.72-57.15-9.5-3.24,84.89-303.05,10.16-36.24,74.46-253,14.6-33.09,12.4,35.53,74,692.75.22,1.76-12.45,90-.75,1.75c-7.91,18.39-14.55,37.88-21,56.75-5.22,15.31-10.61,31.14-16.61,46.11-4.9,12.3-8.75,23.09-12.85,34.59l-.13.38c-1.45,4.07-2.93,8.23-4.51,12.59-1,2.83-2.17,5.85-3.31,8.82-2.2,5.75-4.48,11.69-6.05,17.08-1.37,4.65-2.55,9.69-3.69,14.57-.91,3.89-1.84,7.91-2.9,11.77-14.32,56-24.28,113.33-33.91,168.81l0,.24c-2.37,13.69-4.83,27.85-7.33,41.84-6.24,35.13-12,71.18-17,107.15-4.07,29.5-9.06,68.35-11.6,107.32-3.77,68.07-1,138.72,1.74,207.06l.37,9.29c2,44.87,4.39,90.5,6.72,134.64,1.43,27.18,2.91,55.29,4.29,83,2,40.6,3.53,74.71,4.42,109.22,1.11,38,.66,76.44.16,109.5-2.39,138.21-6.78,276.21-11.45,417.21l-.17,5.37,225.61,12.74c9.45.63,19.31,1,30.1,1.25l209.33,5.83,3.79.11,216.94-6.05c10.92-.22,20.78-.63,30.09-1.25l220.3-12.43,5.36-.31-.17-5.37c-4.67-140.95-9.06-278.92-11.45-417.2-.5-33.07-1-71.54.16-109.53.89-34.51,2.41-68.61,4.42-109.2,1.39-28,2.94-57.28,4.3-83.08,2.32-44.1,4.73-89.7,6.72-134.55l.36-9.29c2.71-68.32,5.51-139,1.73-207.09-2.53-38.9-7.52-77.76-11.59-107.28-5-36-10.75-72-17-107.14q-1.5-8.35-3-16.73l-.49-2.73c-11.39-64.1-23.17-130.37-39.42-193.86-.89-3.25-1.7-6.36-2.49-9.4-1.31-5.05-2.55-9.81-4.07-14.93-2.39-8.21-5.24-17.74-8.27-26.2-2.64-7.29-4.93-15-7.14-22.59-2.83-9.6-5.74-19.52-9.54-29.05-12.26-30.58-23.54-61.29-36.61-99.58l-.89-2.12-12.44-90,.22-1.84,72.78-690.82,9.65-29,17.47,27,74.32,252.49,95.06,339.36-9.49,3.24,13.66,56.92,0,.13c2.48,9.28,5.88,19.65,9.17,29.73l8.06,23.81,4.89-1.17c29-7,59.85-14.46,90.15-22.6l12.26-3.46.11,0c2.68-.85,5.4-1.82,8-2.76,1.45-.52,2.91-1,4.38-1.54l62.23-21.9-21.64-108.57Zm-153.14,149.31-4.64-13.69-.18-.54c-3.22-9.87-6.56-20.07-9-29l-11.3-47.1,9.86-3.36-87.7-313.08-10.19-36.37-74.58-253.33-.2-.69L1903.37,395l-17.07,51.35-.19.59-72.9,691.91-.38,3.17,12.83,92.82,1.25,3c13.09,38.35,24.42,69.17,36.73,99.9,3.6,9,6.44,18.69,9.2,28.07,2.26,7.68,4.6,15.62,7.35,23.22,2.92,8.16,5.72,17.49,8.07,25.57,1.47,5,2.68,9.64,4,14.6.8,3.09,1.62,6.23,2.5,9.44,16.12,63,27.87,129.1,39.23,193l.47,2.64c1,5.6,2,11.21,3,16.79,6.21,35,11.9,70.91,16.91,106.73,4.05,29.33,9,67.94,11.51,106.43,3.74,67.55,1,137.93-1.74,206l-.37,9.24c-2,44.65-4.37,90.13-6.69,134.11l0,.32c-1.43,27.22-2.92,55.36-4.29,83.11-2,40.67-3.54,74.84-4.44,109.45-1.11,38.19-.66,76.81-.15,110,2.36,136.71,6.67,272.93,11.26,412l-215,12.13c-9.19.62-18.89,1-29.67,1.24l-216.68,6-212.86-5.93c-10.64-.21-20.34-.61-29.69-1.23l-214.93-12.14c4.59-139.09,8.9-275.32,11.26-412,.51-33.19,1-71.81-.15-110-.9-34.62-2.42-68.79-4.44-109.46-1.39-28-2.93-57.23-4.29-83l0-.65c-2.32-43.9-4.71-89.3-6.68-133.86l-.37-9.29c-2.7-68.06-5.48-138.44-1.75-205.94,2.51-38.55,7.47-77.15,11.52-106.47,5-35.85,10.7-71.77,16.91-106.73,2.54-14.23,5-28.41,7.39-42.17,10-57.79,19.52-112.38,33.71-167.84,1.07-3.94,2-8.08,3-12.08,1.11-4.72,2.24-9.61,3.54-14,1.46-5,3.65-10.75,5.78-16.3l.07-.18c1.12-2.92,2.27-5.94,3.3-8.79,1.56-4.31,3-8.43,4.46-12.47l.2-.53c4-11.34,7.85-22.06,12.7-34.21,6.1-15.22,11.54-31.18,16.82-46.7,6.35-18.64,12.91-37.91,20.65-55.89l1.35-3.12,12.4-89.74.44-3.16-.38-3.1-74-693.31-.06-.57-22-63.12-26.15,59.26L991,696.87l-97.87,349.39,9.86,3.36-11.33,47.2c-2.42,9-5.77,19.27-9,29.12L877.94,1140c-27.7-6.62-56.88-13.7-85-21.24l-12.08-3.43c-2.48-.8-5.08-1.73-7.62-2.64-1.49-.53-3-1.07-4.44-1.57L716,1092.47l22.37-89.72c2.08-8.57,51.06-211,73.5-300.37,7.08-28.53,13.76-57.29,20.22-85.15,3.74-16.11,8-34.38,12.15-51.89,12.54-53.06,23.15-96.24,33.4-135.87,10.48-40.34,23.18-87.77,37.89-133.62,1.29-3.77,2.55-7.62,3.78-11.41,2.27-7,4.62-14.18,7.29-21l5.89-15.94c1.26-3.17,2.64-6.35,4-9.42l0-.1c.82-1.88,1.63-3.75,2.4-5.57.41-.93.81-1.88,1.22-2.84.63-1.5,1.29-3.05,1.95-4.45l3.63-6.69,3.57-6.68a29.9,29.9,0,0,1,2-2.87c.5-.66,1.07-1.4,1.6-2.18A90.88,90.88,0,0,1,973,188.08L973,188c14.85-10.46,33.36-19.38,56.54-27.24,6-2,10.91-3.48,15.56-4.75,2.23-.63,4.69-1.27,7.65-2l2.74-.63,38.79-6.13.8-.13c22.57-3.73,45.91-7.58,69.51-12.49,21.12-4.55,40.58-11,58.52-17.49,11.19,7.45,25.48,16.88,40.13,26.17,7.73,4.89,16.79,10.56,26.35,16.1,4,2.3,9.2,5.28,14.61,7.88,4.93,2.44,9.64,4.5,14.2,6.49l.59.25c19.76,8.43,39.64,16,56.73,22.4,18,6.76,36.57,13.5,56.68,20.62l22.25,7.87,26.89-66.26L1500,180l18.46-21.42,26.87,66.21,22.33-7.84c20.11-7.06,38.66-13.75,56.72-20.45,21.6-8,39.62-15.13,56.77-22.44l.49-.21c4.57-2,9.3-4.08,14.22-6.51,5.48-2.66,10.7-5.63,14.64-7.93,9.49-5.51,18.57-11.22,26.34-16.14,14.62-9.3,28.89-18.74,40.07-26.2,18,6.45,37.47,13,58.6,17.5,23.63,4.91,47,8.78,69.69,12.52l35.49,5.63,3.82.58,2.7.62c2.27.57,5,1.25,7.77,2,4.63,1.27,9.56,2.78,15.49,4.73,23.23,7.89,41.74,16.81,56.57,27.27l.09.07a90.47,90.47,0,0,1,20,18.56c.57.83,1.14,1.58,1.65,2.25a28.86,28.86,0,0,1,2,2.81l3.61,6.75L2058,225c.67,1.43,1.33,3,2,4.53.39.94.79,1.87,1.17,2.73.81,1.92,1.63,3.82,2.46,5.72,1.34,3.07,2.72,6.24,4,9.43l5.93,16c2.63,6.73,5,13.93,7.26,20.94,1.15,3.55,2.45,7.56,3.74,11.3,14.74,45.94,27.43,93.37,37.91,133.71,10.27,39.72,20.89,82.89,33.4,135.88,4.13,17.33,8.21,34.9,12.16,51.9l0,.19c6.45,27.76,13.11,56.46,20.18,84.94,22.36,89,74.56,284.3,76.33,290.93l19.74,99-53.2,18.72c-1.45.5-2.92,1-4.45,1.57-2.51.89-5.11,1.82-7.59,2.61l-12,3.39C2178.45,1126.21,2149.48,1133.28,2122.05,1139.88Z"/>
    <polygon points="698.97 975.97 677.02 1027.06 655.16 1082.69 665.4 1086.71 687.16 1031.31 709.07 980.32 698.97 975.97"/>
    <polygon points="2316.04 1013.81 2293.35 966.77 2283.45 971.55 2305.84 1017.92 2334.01 1093.19 2344.32 1089.34 2316.04 1013.81"/>
    <path d="M1285.48,95.36c8.26,5.22,16.37,10.23,24.15,14.9,7.59,4.52,16.2,9.65,23.81,13.21,15.27,7,33.08,13.47,50.34,19.78l28.41,10.08,17.31,6,1.59-5.61c2.32-8.21,5.13-17.85,8.4-27.12,1.52-4.29,3.22-8.58,4.84-12.61l2.2-5.48-5.63-1.81c-6.94-2.22-14-4.54-21.56-7.08-12.72-4.28-27.13-9.13-41.88-15.29-2.75-1.16-6.87-3-10.9-5.17-3.61-1.9-6.94-3.78-10-5.52-6.77-3.88-13.17-7.75-19.08-11.35-9.81-6-19.13-11.9-27-16.93l-2.92-1.88L1255.3,76l7.28,4.72C1270.71,86,1278.2,90.76,1285.48,95.36ZM1415.82,143l-26.73-9.47-1.58-.58c-17-6.22-34.62-12.65-49.45-19.41-7.08-3.32-15.44-8.3-22.81-12.69-7.65-4.59-15.69-9.55-23.9-14.74-5-3.16-10.13-6.43-15.51-9.89l31.67-19.69c7.22,4.63,15.53,9.9,24.27,15.2,6,3.65,12.47,7.56,19.33,11.49,3.14,1.8,6.56,3.73,10.27,5.69,4.3,2.31,8.68,4.27,11.65,5.53l.18.07c15.12,6.32,29.73,11.24,42.62,15.58,5.61,1.88,10.92,3.64,16.12,5.32-1,2.43-1.92,5-2.83,7.58-2.67,7.56-5,15.23-7,22.18Z"/>
    <path d="M1584.62,157.32c10.47-3.77,21.29-7.67,31.89-11.67,9.39-3.55,18.44-7.07,26.89-10.47,8.12-3.28,17.52-7.17,25.58-11.15l.1,0c7.73-4,16.49-9.38,23.26-13.59,7.5-4.68,15.41-9.73,23.5-15,7-4.58,14.23-9.35,22-14.57l7.1-4.74-52.66-32.74-2.91,1.83c-10.8,6.81-19.14,12-27,16.75-6,3.62-12.44,7.48-19.11,11.26-2.85,1.62-6.27,3.54-10,5.51-4,2.15-8.12,4-10.81,5.08-14.41,5.9-28.38,10.72-41.89,15.38-5.09,1.74-10.24,3.42-15.22,5l-.17.06-6.63,2.17-5.59,1.84L1574.35,161Zm140.05-80.94c-5.13,3.41-10,6.64-14.85,9.79-8,5.23-15.86,10.24-23.3,14.88-6.58,4.09-15.08,9.29-22.47,13.14-7.71,3.82-16.85,7.6-24.76,10.79-8.39,3.37-17.37,6.86-26.67,10.38-10.52,4-21.3,7.86-31.73,11.61l-.33.12-13-32.08,1.2-.38c5-1.64,10.22-3.34,15.35-5.09,13.66-4.71,27.78-9.58,42.54-15.62,2.95-1.24,7.38-3.2,11.74-5.53,3.86-2,7.39-4,10.32-5.66,6.77-3.84,13.31-7.76,19.37-11.42,7.27-4.39,14.85-9.08,24.3-15Z"/>
  </g>
</svg>
