<svg xmlns="http://www.w3.org/2000/svg" viewBox="0 0 2994.91 3000">
  <title>60Icon_neon 1</title>
  <g>
    <path d="M1175.69,708.48c45.7-9,116.24,6.71,162.93,17.1l4.84,1.08c44.33,9.84,56.22,14,60.13,15.39a9.17,9.17,0,0,0,3.81.79l1.95-.1.82.24.08-.29,1.06-.05,62.08-219.56c3.56-1.4,14.06-3.84,26.61-5.82,9.66,1.5,19.48,3.71,22.85,5.09L1585.6,738.9l1.09,3.74,1.07.05h0l2.8.14c1.25.07,2.15-.2,4.56-.91,5.42-1.6,19.84-5.86,62.22-15.27,39.09-8.68,107.2-17.9,170.46-15.33,68.91,2.8,151.46,30.94,152.28,31.22l21.87,7.52-16.14-16.56c-1-1-100.09-102.31-174.79-146.08-28.64-16.78-77.76-30.25-121.11-42.13-24.73-6.78-48.08-13.19-65.82-19.68-24.94-9.12-27.59-14.59-27.81-16-3.32-22.25,24.15-37.27,56-54.65,22.31-12.19,45.39-24.8,62.48-42.16,16.72-17,45.72-53.14,48.39-81,3.48-36.48-15.66-85.15-29.65-120.73-3.38-8.61-6.58-16.74-9-23.55-11-30.93-33.86-74.18-54.66-93.43-43.1-39.89-86.82-56.95-115.9-64.23s-49.51-6.56-53.41-6.34c-2.92-.18-23.8-1.12-53.59,6.34-29.09,7.28-72.8,24.34-115.9,64.23-20.81,19.26-43.7,62.51-54.67,93.43-2.4,6.79-5.59,14.88-9,23.45l-.05.15c-14,35.53-33.12,84.2-29.64,120.68,2.67,27.91,31.68,64.08,48.39,81,18.57,18.85,44.75,32.89,67.85,45.27,29.09,15.6,54.21,29.07,53.38,45.41-1,20.08-51.21,31-99.75,41.62-39.68,8.65-80.71,17.6-107,33C1126,621.79,1016.12,732.37,1015,733.48l-13.54,13.69,18.73-4.47C1021.07,742.49,1107.31,721.94,1175.69,708.48Zm30.49-120.94c24.73-14.49,64.89-23.25,103.73-31.73,57.38-12.51,106.94-23.32,108.39-51.8,1.19-23.3-26.78-38.3-59.16-55.66-22.41-12-47.81-25.63-65.21-43.3-14.62-14.84-42.9-49.49-45.28-74.38-3.23-33.85,15.35-81.1,28.92-115.61,3.42-8.69,6.66-16.91,9.15-23.94,10.53-29.68,32.25-71,51.77-89,41.37-38.29,83.23-54.64,111-61.62,29.25-7.33,49.71-6.08,50.62-6l.34,0,.33,0c.21,0,20.78-1.41,50.46,6,27.83,7,69.68,23.33,111,61.62,19.51,18.06,41.24,59.35,51.77,89,2.49,7,5.72,15.23,9.15,23.94,13.57,34.5,32.15,81.75,28.92,115.61-2.38,24.89-30.66,59.54-45.28,74.38-16,16.2-38.3,28.42-59.92,40.23-17,9.3-33.1,18.09-44.52,28-13.51,11.75-19.08,24.14-17,37.88,2.5,16.75,38.39,27.37,101.61,44.71,42.68,11.7,91.07,25,118.45,41,55.61,32.59,125.94,98.58,156.56,128.46-29.82-8.79-84.89-23.06-133.77-25-64.33-2.62-133.56,6.76-173.29,15.58-37.32,8.29-53.24,12.64-60.37,14.7L1528.7,521.19l-.1-.35-.41-.8-.23-.3c-.93-1.23.18-3.85-27.13-8l-.91-.12-.75.12c-31,4.79-29.83,7.18-30.88,8.57l-.48.62-64.42,209.41c-6.79-2.19-22-6.56-57.54-14.46l-4.84-1.08c-47.58-10.59-119.48-26.59-167.44-17.15-49.22,9.68-107.07,22.9-136.82,29.82C1068.43,696.72,1148.36,621.42,1206.18,587.54Z"/>
    <path d="M2190.08,1840.11l-5.73-7.81c-.23-.32-23.44-32.38-56-101.58C2098,1666.25,2053,1555.42,2011,1393.48c-41.91-161.55-60.22-309.39-68.2-405-8.66-103.86-7.35-169.58-7.34-170.24l.1-4.41-4.29-1c-.91-.22-91.47-22.3-118.55-25-48.88-4.78-93.74,6-129.8,14.64-15.21,3.65-28.34,6.8-39.17,8.13-20.55,2.53-83.14,15.89-90,17.36h-92.35c-6.85-1.47-69.43-14.83-90-17.36-10.83-1.33-24-4.48-39.18-8.13-36-8.65-80.91-19.42-129.8-14.64-27.07,2.66-117.63,24.74-118.54,25l-4.29,1,.09,4.42c0,.65,1.33,66.37-7.34,170.23-8,95.57-26.28,243.41-68.19,405-42,161.91-87,272.73-117.35,337.19-32.57,69.19-55.81,101.31-56,101.62l-5.73,7.82,9.65.91c1,.1,100.68,9.42,222.16,15.8L915.18,2938.23l-.65,5,5,1.05c.89.19,89.37,18.76,123.68,18.81h1c115.94,0,230.23-27.83,231.37-28.11l4.32-1.05L1248.2,1861.81l60.48,1.41h15c13.76,0,27.53,0,41-.1l154.5,979.81.59,3.72,3.68.79c.92.2,93.25,20.35,213.58,63.78,40.21,14.51,125.88,23.83,126.74,23.92l6.43.69-57.79-1073.7h7.21c8.07-.18,16.63-.4,26.26-.68l33.19-1.44,122,1005.3.89,7.32,6.76-2.94c.54-.23,54.32-23.31,90.73-18.56,46.43,6.07,64,3.77,64.7,3.66l5.58-.81-170.51-999.45c102.41-6.11,180.39-13.43,181.21-13.51ZM1268.62,2925.35c-21.39,4.89-122.93,26.78-224.7,26.78h-.77c-28.43,0-97.79-13.76-116.4-17.54l141.08-1077.2,8.05.4,161.31,3.76Zm589.92-1.88c-20.81-2.47-85.09-10.8-117.76-22.59-107.19-38.68-193.31-59.22-211.3-63.35l-153.65-974.44,425.59-.92Zm298.37-79.22c-8.18.25-25.59-.05-56-4-31.43-4.1-73.62,10.44-89.76,16.65l-121-997.34,92.54-4,5.52-.31ZM1372.23,1852.1h-2.86c-20.14.11-40.5.15-60.51.11l-232.51-5.42c-108.62-5.31-202.15-13.28-231.39-15.89,8.84-13.54,27.72-44.48,51.75-95.51,30.55-64.89,75.83-176.4,118.06-339.16,42.1-162.31,60.49-310.82,68.5-406.83,7.44-89.12,7.57-150.18,7.44-166.93,17.77-4.28,89.92-21.43,112.75-23.67,47-4.6,90.91,5.92,126.17,14.38,15.53,3.73,28.95,6.95,40.4,8.36,20.87,2.57,88.91,17.17,89.66,17.33l.51.11h94.36l.89-.12c.69-.15,68.73-14.75,89.6-17.32,11.45-1.41,24.87-4.63,40.41-8.36,35.25-8.46,79.11-19,126.15-14.38,22.84,2.24,95,19.39,112.76,23.67-.14,16.75,0,77.81,7.43,166.93,8,96,26.4,244.52,68.51,406.83,42.22,162.77,87.51,274.28,118.06,339.16,24,51,42.9,82,51.75,95.51-23.66,2.11-90.37,7.81-172.76,12.71v-.08l-.71.12-14.54.85-93.32,4.06-11,.48-32.26,1.41c-9.52.27-18.06.49-26,.67l-445.4,1Z"/>
  </g>
</svg>
