<svg xmlns="http://www.w3.org/2000/svg" viewBox="0 0 2994.91 3000">
  <title>44Icon_neon 1</title>
  <g>
    <path d="M2547.59,1119.74a774.8,774.8,0,0,0-87.08-177.25c-36.21-54.57-78.7-103.1-126.3-144.24a628.38,628.38,0,0,0-124.9-84.44,572.71,572.71,0,0,0-141.9-50.42c-104.37-22-211.81-14-319.34,24-56.37,16.83-121.71,58.86-155.65,82.44-32.25,22.39-80.92,59.86-87,74.11l-.88,1.06-.12.16c-.91,1.09-2,2.45-2.9,3.37a70.39,70.39,0,0,1-5.07-6.91l-.22-.34L1496,841c-29.22-31.24-139.08-112.8-168.58-125.19-72.18-40.3-179.3-64.71-280.72-64.12v0l-5,.07h0l-5,.07v0c-48.17,1.15-97.2,9.19-145.83,23.92-47,14.24-93.85,34.79-139.22,61.06-71.49,41.4-134.52,98.73-187.33,170.4-52.32,71-91.8,152.22-117.35,241.41a833.43,833.43,0,0,0-30.18,284.25c6.65,102.67,31.67,203.25,74.37,299,52.26,117.17,135.25,202.38,215.51,284.79,33.34,34.23,67.81,69.63,99.79,107l.13.14,690.33,745.46,1,1,7.82,2.61L2146.35,2180l.13-.15c38.11-44.52,77.76-86.08,116.1-126.28,136-142.57,264.48-277.23,313.05-523.81A793.69,793.69,0,0,0,2547.59,1119.74ZM1322.85,725.84c28.24,11.65,135.61,91.4,164.75,122.33,4.81,7.15,8.39,11.84,13.52,12.1,4.89.25,7.89-3.38,11.7-8l.16-.19c.47-.58,1-1.19,1.51-1.82l.87-1,.27-1.23c2-5.53,31.39-33.25,83.06-69.14,33.43-23.21,97.72-64.6,152.66-81l.24-.08c202.82-71.67,412.55-32,575.42,108.74,197.17,170.43,290.53,453.46,237.83,721-48,243.44-175.34,377-310.21,518.35-38.43,40.28-78.16,81.93-116.43,126.63L1503,2859.6,814.7,2116.39C782.52,2078.81,748,2043.31,714.51,2009c-79.59-81.72-161.88-166.22-213.34-281.59-182.35-408.83-9.12-827.55,256-981,93.5-54.14,189.28-82.27,284.69-83.59,101.17-1.41,208.69,22.67,280.51,62.83Z"/>
    <path d="M831.31,305.27c2.9,1.33,292,133.72,468.3,223l.2.1c75.85,34.16,166.67,78.86,196,121.74l1.64,2.4,10.66,0,1.56-1.37c72-63.54,162-120.08,267.38-168.07,75.09-35.16,139.85-61.89,233.08-98.92l214-93.32-317.74,4.71,80.25-227.88L1633.44,296.48,1508,71.5l-4.93-8.85-123.88,234.6L1021.31,70.55l93.79,230.29-308-6.64Zm1059.45,1.48,278.76-4.14L2006,373.93c-93.37,37.09-158.27,63.88-233.54,99.12-105.58,48.08-195.9,104.74-268.49,168.44h-.76c-32.44-44.34-123-89-198.74-123.1-146.76-74.32-370.54-178-444.47-212l271.63,5.85L1044.46,98.24l338.89,214.68,120-227.21L1626.69,307l2.86,5.13,336-217.69Z"/>
  </g>
</svg>
