<svg xmlns="http://www.w3.org/2000/svg" viewBox="0 0 2994.91 3000">
  <title>168Icon_neon 1</title>
  <g>
    <path d="M1954.7,476.62l-2.54,4.62c-35.44,64.66-108.52,173.07-177.72,263.62-42.83,56.06-85.26,110-133.29,153.45-43.44,39.31-90.25,68.34-135.53,96.41-68.77,42.65-139.89,86.75-202.64,168.07-44.72,58-72,104.16-94.2,159.44l-25.49,47.33-40,85.81-77,156.4q-75.09,152.51-150.41,305.57l-8.77,17.82c-104.6,212.54-212.77,432.31-318.55,646.93l-2.42,4.89,4.88,2.45,229.9,115.51,507.39,248.64,74.87-147.45,146.73-300.27,334-678.46,54.42-106.28,20.59-46.2c41-58.37,58.36-127.44,71-193.41,17.22-73.33,9.49-144,1.31-218.87-6.41-58.69-13-119.38-8.37-186.25,4.72-57.29,17.19-123.26,38.11-201.7,26.1-97.86,100-288.64,100.72-290.55l1.83-4.7L1959.42,479Zm57.2,598.94c-4.75,67.91,1.94,129.1,8.41,188.3,8.08,73.9,15.71,143.71-1.12,215.25l0,.2c-12.47,65-29.53,132.9-69.58,189.76l-.28.4-20.85,46.78-54.38,106.21L1540,2501l-146.71,300.2-69.92,137.71-497.6-243.85-225-113C706,2368.56,813.36,2150.43,917.21,1939.43q79.53-161.58,158.89-322.81l77-156.45,39.93-85.54,25.56-47.49.24-.51c21.81-54.42,48.7-99.94,92.83-157.12,61.53-79.75,131.79-123.31,199.73-165.44,45.69-28.33,92.93-57.63,137.12-97.6,48.71-44.09,91.49-98.45,134.64-154.93,67.83-88.75,139.55-194.88,176.08-260.41l190.37,93.73c-11.38,29.59-75.28,197-99.28,287C2029.26,950.93,2016.68,1017.54,2011.9,1075.56Z"/>
    <path d="M2103.61,46.91l-1.15-.58h-8.86l-147,298.58-.84,1.68.36,1.82c.62,3.14,1,5.21,48.11,29.59,24.29,12.58,58.28,29.61,101,50.63,75,36.85,154.26,74.84,169.39,82.08l3,1.42,2.65-1.95c1.75-1.29,5.84-4.3,30.52-50.56,13.76-25.8,31.29-60.13,49.35-96.66,7-14.16,68.46-138.8,70.29-155l.43-3.83Zm305,163.41c-5.45,16.8-32.92,76.31-68.39,147.87-39.22,79.14-66.28,129-74.56,140.76-118.48-56.72-284.1-137.81-307.31-153l142-288.44Z"/>
  </g>
</svg>
