<svg xmlns="http://www.w3.org/2000/svg" viewBox="0 0 2994.91 3000">
  <title>80Icon_neon 1</title>
  <g>
    <path d="M2524,346.48c-.64-16.91-11.33-26.52-26.38-38.24-10.48-8.17-117-79.06-225.7-139.76C2152.86,102,2047.05,54.31,2034.54,49.65c-17.87-6.66-31.66-10.72-46.4-2.39-13.69,7.74-27.68,26.13-48.69,57.35-18,26.8-41.72,114.23-42,115.11l-1.12,4.14L2421.8,517.25l2.94-3.12c.63-.66,62.64-66.71,76-96.1C2516.29,383.76,2524.61,362.2,2524,346.48Zm-33.3,67c-10.9,24-59,76.92-71.06,90l-510.39-285c4.79-17.11,24.6-85.84,39.32-107.7,43.78-65.08,49.64-62.9,82.12-50.8,12.38,4.61,117.33,51.94,235.86,118.13,108.22,60.42,213.94,130.74,224.31,138.82C2518.21,338.22,2523.14,342.06,2490.71,413.48Z"/>
    <path d="M1848.61,347.56C1836,366,1826.66,378.76,1821,385.47,1790.65,421.4,1737.83,470,1686.75,517c-53.74,49.43-109.31,100.55-141,138.82-37.74,45.62-109.31,147.52-135.57,203.36-18.49,39.3-34.75,103.6-50.47,165.8-14.29,56.53-27.79,109.92-42.54,144.78-38.25,90.42-136.31,262.43-189.75,339.81-27.73,40.15-77.61,95.41-125.85,148.86C949.74,1715.86,896.11,1775.27,867,1819c-41.76,62.59-98.44,179.83-144,274-14.31,29.61-27.82,57.57-38.79,79.44-49.74,99.14-190.66,394.45-192.07,397.41l-1.22,2.54,1.35,2.47c.39.71,10,18,53.47,53.85,39.53,32.67,116.33,88.19,257.72,167.14s229,115.21,277.5,131.72c48.37,16.45,69.38,17.29,73.1,17.29.53,0,.79,0,.79,0l2.82-.15,1.52-2.37c1.77-2.77,178-277.58,236.64-372.52,12.86-20.8,29.58-47,47.28-74.71,56.31-88.19,126.39-197.95,157.77-266.33,21.89-47.72,44.34-124.56,66.06-198.91,20.19-69.08,41.06-140.52,60.69-185.18,37.84-86.09,132.82-259.81,189.74-339.82,21.94-30.84,60.32-70.34,101-112.17,44.69-46,90.9-93.58,114.67-129.94,33.75-51.65,83-166,102-222.1,16-47,30.33-121.13,44.23-192.84,13.2-68.13,26.85-138.58,41.52-183.27,2.74-8.36,8.73-23,17.79-43.41l2-4.58-489.1-273.11Zm477.83,273.69c-8.09,18.4-13.52,31.79-16.16,39.84-14.88,45.34-28.6,116.14-41.87,184.6-13.82,71.33-28.11,145.08-43.85,191.4-18.86,55.52-67.5,168.68-100.79,219.62-23.18,35.47-69,82.65-113.35,128.29-40.93,42.14-79.6,81.94-102,113.47-58.9,82.8-152.57,254.67-190.85,341.77-19.92,45.32-40.9,117.13-61.2,186.61-21.6,73.91-43.93,150.33-65.48,197.31l-.16.33c-31.13,67.73-100.85,176.91-156.88,264.67-17.74,27.78-34.49,54-47.36,74.85-55.43,89.68-216.2,340.6-234.87,369.74-6.74-.46-27.09-3-67.3-16.67-48.11-16.38-134.95-52.38-275.49-130.85s-216.73-133.52-255.92-165.88c-32.84-27.13-45.54-42.95-49.5-48.55,14-29.27,143.24-300,190.64-394.44,11-22,24.54-49.94,38.87-79.58,45.39-93.91,101.89-210.77,143.22-272.73,28.7-43,82.06-102.13,133.67-159.3,48.46-53.7,98.58-109.22,126.72-150,54.06-78.28,151.24-248.19,190.83-341.78,15.08-35.63,28.68-89.42,43.08-146.38,15.59-61.67,31.71-125.45,49.75-163.8,25.91-55.07,96.72-155.85,134.09-201,31.18-37.7,86.47-88.55,140-137.74,51.32-47.22,104.4-96,135.19-132.49,5.46-6.47,14-18.12,25.44-34.66Z"/>
  </g>
</svg>
