<svg xmlns="http://www.w3.org/2000/svg" viewBox="0 0 2994.91 3000">
  <title>128Icon_neon 1</title>
  <g>
    <path d="M875.41,1385.48c79.18,83.81,169.68,149.61,276.67,201.18,99.1,47.76,213.78,83.79,350.61,110.15l1.13.18,1-.18c133.45-26.1,245-60.5,341-105.18,107.42-50,198.33-113.83,277.91-195.16,84.72-86.59,156.09-192.27,218.19-323.1,64.27-135.41,117.48-295.24,162.66-488.63l1.58-6.75-1997.89.41h-7l1.64,6.79C593.5,958.07,711.87,1212.37,875.41,1385.48ZM2492.25,589c-185.68,788-516,1004.21-988.55,1096.81C953.15,1579.43,684.8,1282,515.24,589.4Z"/>
    <path d="M1836.21,2118.63V1726.72l-8,4.12c-100.64,51.77-195.61,73-326.86,102.19-115.81-17.65-187.77-45.79-278.82-81.4-17.31-6.77-35.21-13.77-54.28-21l-7.49-2.86,1.41,392.19L223.75,2432.66l34,0c6.8,0,700.09-.52,1422.8-.52,422,0,768.38.18,1029.62.52l32.81,0Zm-155.69,302.49c-631.18,0-1235,.39-1388.83.49l877.72-292.5,3.77-1.26-1.37-384.11c16.25,6.23,31.7,12.27,46.7,18.14,92,35.95,164.57,64.35,282.2,82.18l1.14.12.9-.2c129.14-28.74,223.31-49.7,322.46-99.29v381.77l852.13,295.13C2420.18,2421.28,2085.05,2421.12,1680.52,2421.12Z"/>
  </g>
</svg>
