<svg xmlns="http://www.w3.org/2000/svg" viewBox="0 0 2994.91 3000">
  <title>124Icon_neon 1</title>
  <g>
    <path d="M2190.54,1602.25c5.09-4,22-13.24,78-29.58,9.51-2.78,29-5.91,49.71-9.23,21.71-3.48,44.15-7.08,54.93-10.42,21.86-6.77,45.57-29,45.81-29.27l4.6-4.36-5.05-4c-3.53-2.82-34.88-27.78-45.47-36.38-4.16-3.39-9.62-7.63-15.39-12.12-15.43-12-34.62-26.92-44-36.9-16.29-17.31-43.58-57.36-55.1-80.87-14-28.49-29.23-91.81-34-124.66s-6.12-97.68-6.9-136.39l-.21-10.18c-.21-10.05-.2-23.05-.18-36.81,0-40.28.1-90.42-5.12-119.13-4.58-25.23-19.15-75.7-28.33-98.18-5.83-14.26-16.63-32.72-28.07-52.26-11.92-20.37-24.25-41.44-29.87-56.4-4.13-11-8-30.75-11.78-49.85-3.61-18.29-7-35.57-10.75-46.44-9.61-27.94-29.77-77.26-44.49-99.42-19.07-28.7-67.42-69.56-96.32-94l-3.75-3.17c-21.89-18.52-70.73-54.39-97.42-68.43-35.6-18.72-106.43-46.75-143.61-58.37-23.51-7.34-99.6-21.05-100.36-21.19l-8.52-1.53,2.23,8.37c.25.93,25.17,93.78,41.64,121.45,21.86,36.72,83.11,110.37,117,140.72,31.79,28.44,96.39,67,143.57,95.11l.2.12c10.66,6.36,20.73,12.36,29,17.44,23.46,14.32,73.43,38.65,99.16,49.25,13.18,5.44,61.74,14.36,75,16.73,6.31,15.5,18.09,35.63,29.53,55.18,11.23,19.18,21.83,37.3,27.36,50.84,8.8,21.54,23.3,71.78,27.7,96,5,27.73,5,77.31,4.94,117.15,0,13.82,0,26.88.18,37q.1,4.71.21,10.19c.79,38.93,2.1,104.08,7,137.74s20.6,98.46,35,127.91c11.89,24.26,40.11,65.65,57,83.57,10,10.6,29.55,25.81,45.33,38.09,5.71,4.43,11.1,8.63,15.15,11.92,8.55,7,30.18,24.2,40.52,32.44-7.49,6.32-22.84,18.25-36.72,22.55-10,3.1-32.09,6.64-53.42,10.06-21,3.38-40.88,6.56-51,9.53-44.07,12.86-71.56,23.46-81.71,31.52s-25,28.49-29.14,40.27c-7,19.82-8.09,61.15-4.11,81.09,2.19,11,14,33.38,21.07,46.16-18.72,1.25-62.59,4-74,3.55-29.72-1.27-66.74-12-96.49-20.66l-5.25-1.52c-20.38-5.91-54.74-20.07-82.34-31.46l-.22-.09c-10.35-4.27-20.12-8.3-27.72-11.29-16.91-6.67-66-26.4-71.63-28.66l-20.25-8.14,14,16.76c.32.38,32.24,38.7,42.46,49,26,26.2,80.15,63.94,115.44,83.88,26.64,15,84.1,38.75,117.26,52-21.26.66-50.65,1-67-1-54-6.83-158.51-23.51-207.17-42.66-68.89-27.11-195.81-87.55-243.14-134.32-39.07-38.61-96.16-130.41-117.38-180.66-20.72-49.07-46.14-154.81-55.24-209-4.51-26.83-8.25-107.79-8.6-115.47.9-6.23,10.57-73.15,15.91-95.53,5.24-22,26.77-86.84,29.52-95.11,29.8-36.57,89.64-108.2,106.75-122.24,85.32-70,186.71-101.62,187.72-101.94l15.42-4.71-15.08-5.69c-.31-.11-31.06-12-68.07-40.91a355.56,355.56,0,0,1-111.2-148.84c-48.11-121.06-61.84-271.9-62-273.41l-.53-6-5.92,1.06c-1.42.26-143.58,25.93-231.25,60.24-89,34.82-235.37,178.38-239.32,182.26-1.45,1.34-15.91,15-33.12,46.72-18.28,33.66-27,59.17-27.84,61.58-2.82,7-98.9,246.73-120.08,338.82-14.14,61.51-24,182.42-33.53,299.38-8,98.43-15.6,191.41-25.15,243-19.24,103.74-63.58,240.32-113,348-35,76.36-193.29,290.07-194.88,292.21l-2.6,3.5,2.81,3.33c.93,1.1,93.09,110.18,111.24,126.9,89.15,82.11,226.17,194.72,331.35,261.23,96.77,61.2,312.71,144.16,432.81,188.17,116.87,42.81,347.06,94.63,484.59,125.59l29.52,6.66c62.54,14.12,298.45,56.95,300.82,57.38l13.72,2.49-8.33-11.18c-18-24.24-66.49-91.23-74-110-11.16-27.79-36.07-109.92-36.33-110.76l-.74-2.42-2.31-1c-1.57-.68-157.46-69.11-244.69-124.27-91.87-58.1-194.26-125.89-257.08-188.21-6.1-6-12.7-12.56-19.7-19.48l-.79-.78c-87.08-85.94-232.82-229.78-275.93-324.74-44.9-98.94-80.58-300.32-86.39-401.14-5.37-93.21,59.17-382.17,59.82-385.07l1.24-5.49-5.51-1.11c-.6-.12-60.8-13.07-135.79-73C1018.28,1130.41,990.81,1048,978,987c-17.11-81.45-21.71-327.08-22-343.36a385.17,385.17,0,0,1,26.78-61c11.14-20.49,20.92-32.94,26.39-39.13,7.89,12.3,26.74,41.59,40.09,61.54,61.13,91.33,101.54,126.87,144.39,164.56,7.83,6.89,15.93,14,24.15,21.49,49,44.55,181.46,179,200.71,198.51-4.64,14-24,72.65-29,93.79-5.34,22.4-14.47,85.18-16,96-5.35,9.64-50.74,91.4-61.8,115.25-17.27,37.23-27.9,90.88-31.75,125.51-9.21,82.65-7.74,246.57,7.89,326.14,17.17,87.49,72.9,256.5,124.63,333,30.24,44.71,84.22,107.06,152,175.54,62.32,63,126.78,121.25,172.41,155.88,101.46,77,327.23,197.56,440.9,242.25,54.53,21.44,221.71,53.08,223.39,53.4l10.21,1.92-4.15-9.52c-1.74-4-175.07-403.24-221.33-549.93-16.32-51.77-61.93-241-70.26-275.64l14.57-.73-16.66-6.5-.92-1-.14-.59-.36,0-1.16-.46c-1-.4-102.5-39.71-140-60.91-34.66-19.57-87.73-56.51-113.05-82-5.42-5.47-17.81-19.87-27.64-31.46,17.54,7,40.77,16.34,51.26,20.47,7.6,3,17.4,7,27.78,11.32,27.85,11.49,62.51,25.78,83.47,31.85l5.24,1.52c30.32,8.81,68,19.77,99.09,21.09,15.28.65,83.25-4.11,83.93-4.16l8.79-.61-4.41-7.63c-6-10.37-22-39.66-24.13-50.45-3.6-18-2.45-57.8,3.71-75.28C2168.37,1627.83,2182,1609,2190.54,1602.25ZM2045.87,695c-25.37-10.45-74.57-34.4-97.61-48.47-8.47-5.18-18.61-11.22-29.35-17.63-46.78-27.9-110.86-66.11-141.86-93.85-33.33-29.81-93.48-102.12-114.92-138.14-11.24-18.89-28.36-75-38.16-110.27,20.52,3.8,72.24,13.6,90.43,19.29,36.75,11.48,106.68,39.15,141.78,57.61,26,13.7,73.92,48.89,95.44,67.09l3.75,3.17c28.44,24,76.05,64.27,94.25,91.67,14.19,21.35,33.84,69.53,43.26,96.92,3.49,10.15,6.82,27.07,10.36,45,3,15.22,6.08,30.85,9.39,42.61C2089.23,705.7,2055.37,698.92,2045.87,695Zm135.88,1947.7c-113-44.44-337.47-164.27-438.27-240.77-92.1-69.9-258.75-235.36-321.94-328.83-51-75.36-106-242.4-123-329-15.44-78.65-16.87-240.91-7.75-322.81,3.76-33.8,14.09-86.06,30.8-122.09,8.37-18,37.6-71.4,52.57-98.52,1.45,28,4.38,77.52,7.82,98,9.19,54.74,34.93,161.66,56,211.46,21.61,51.17,79.86,144.75,119.79,184.21,48.5,47.93,177.15,109.31,246.84,136.73,49.67,19.55,155.26,36.45,209.82,43.35,24.25,3.06,74.54,1,90.23.26,7.54,31.41,54,224.35,70.71,277.41,42.58,135,191.27,480.55,217.59,541.44C2356.74,2686.5,2227.26,2660.59,2181.75,2642.7ZM1472.92,300c3.06,28.8,19,162.1,62.09,270.49A366.67,366.67,0,0,0,1649.7,724a334.2,334.2,0,0,0,57.91,36.68c-30.5,11.06-109.54,43.07-178.14,99.38-19.9,16.33-87.25,98.08-105,119.82C1400,955,1273,826.38,1225.21,782.89c-8.29-7.53-16.42-14.69-24.35-21.66-42.23-37.15-82.12-72.23-142.45-162.37-14.15-21.14-34.38-52.63-41.32-63.47,21.68-21,151.88-145.27,232.49-176.81C1325.88,328.72,1445.92,305.12,1472.92,300ZM1145.65,1642.13c5.86,101.68,41.93,305,87.36,405,43.94,96.82,190.59,241.56,278.21,328l.52.51c7.1,7,13.78,13.6,20,19.73,63.57,63.06,166.58,131.28,259,189.69,82.15,52,224,115.28,243.84,124,4.14,13.61,25.62,83.64,35.91,109.24,7.57,18.85,48.46,75.7,67.17,101.26-52.77-9.63-233-42.67-286.73-54.81l-29.53-6.66c-137.28-30.9-367-82.62-483.22-125.19-119.7-43.86-334.82-126.49-430.72-187.14-104.6-66.14-241-178.25-329.78-260-15.76-14.52-92.16-104.5-107.48-122.59,20.7-28.08,160.39-218.61,193.46-290.67,49.74-108.39,94.4-246,113.78-350.53C787,1470,794.6,1376.74,802.65,1278c9.5-116.54,19.32-237,33.28-297.78,16.23-70.58,75.53-224.32,107.76-305.62,2.12,71.31,9.33,247,23.54,314.64,13.18,62.76,41.63,147.76,102.29,196.22,64.54,51.57,118.27,69.24,135,73.82C1195.88,1298.67,1140.58,1554.13,1145.65,1642.13Z"/>
    <polygon points="1532.94 164.1 1529.28 224.32 1555.19 223.19 1532.94 164.1"/>
    <path d="M1736.53,75.26l-15.71,157.39,46.48,20.52ZM1753,234.82l-20.41-9,6.89-69.1Z"/>
    <path d="M1696.16,1122.55l.71,11.81c2.16,36.24,19.32,73.87,48.31,106,30,33.2,71.17,58.27,116,70.61,32,8.23,59.59,12.4,81.86,12.4,24.5,0,42.55-5.17,53.65-15.38,8.54-7.84,12.17-17.09,10.51-26.74-2-11.75-12.21-22.84-26.57-29l-.26-.11-.93-.24c-14-2.5-28.15-3-43.08-3.42-26.18-.82-53.25-1.68-78.58-14.84l-.36-.18-.37-.13c-47.39-15.72-80.15-43.94-111.86-71.25-12.65-10.89-25.73-22.16-39.54-32.46Zm293.08,177.3c-17.87,16.42-62.38,16.57-125.23.44-81-22.31-144.15-85.91-154.8-154,9.88,7.86,19.46,16.11,28.81,24.16l0,0c32.41,27.91,65.92,56.78,115.09,73.18,27.37,14.11,55.59,15,82.9,15.86,14.29.45,27.79.87,40.86,3.14,10.5,4.63,18.12,12.61,19.47,20.45C1997.37,1288.93,1995,1294.58,1989.24,1299.85Z"/>
  </g>
</svg>
