<svg xmlns="http://www.w3.org/2000/svg" viewBox="0 0 2994.91 3000">
  <title>126Icon_neon 1</title>
  <path d="M2912.49,1781.52c-12.66-56.79-36.08-110.85-69.62-160.67-72-107-183.25-181.63-305.23-204.85l-.35-.06c-87.44-10.39-183.28-5.24-277.16,14.9-92,19.74-180.6,53.47-256.25,97.54l-.31.2c-46.65,31.91-65.9,54.41-88.19,80.45-15.27,17.85-32.58,38.07-61.74,64.16l-2.1,1.88.29,2.8c9.28,90.26,23.31,226.65,11.35,350.7-13.57,140.66-58,226.93-132,256.66,17.83-54,29.62-133.47,33.33-225.58,3.61-89.23-1-182.46-12.21-249.4-13.35-94.15-27.37-186.14-40.93-275.1v-.1c-20.59-135.11-41.88-274.82-60.36-419.59-2-15.36-4.15-30.08-6.26-44.32-14.56-98.2-26.06-175.76,63.51-285.33,82.23-100.59,172.58-150.89,247.86-138,46.5,8,86.78,39.12,119.71,92.61,5.39,9.75,10.69,19.53,15.81,29l2.78,5.14c6.88,14.21,13.45,29.75,19.56,46.28-114.65,48.7-140.73,164.61-106.81,255.17,17,45.25,47.65,81.66,86.46,102.52a166.14,166.14,0,0,0,79.53,19.71c22.49,0,45.85-4.19,69.42-12.45l.3-.11c53.27-22.55,91.15-59.65,109.56-107.28,16.26-42.11,16.41-90.48.41-136.21-15.79-45.16-45.5-82.92-83.66-106.34-41.38-25.41-89.31-32-138.83-19.25-8.89-15.3-17.43-31-26.79-48.25-5.34-10.88-11-21.25-16.79-30.85-27.61-50.15-61.18-107.34-110.39-151.59-63-56.69-142.42-83-242.62-80.54h-.18c-150.49,8-248.86,46.25-319,123.94-30.87,34.2-57.28,76.79-83.13,134-24,53.06-45.77,115.23-67.85,179.61-67.05,198.06-109.66,424.55-123.2,655-13.79,234.53,3.78,461.49,50.82,657.77-68.15-72.41-126.38-197.6-165-355.42-35.68-145.89-50.8-308.82-39.46-425.2l.3-3-2.41-1.87c-112.15-86.66-222.47-141.63-327.89-163.39-94.65-19.53-183.46-12.19-264,21.8-76.19,32.18-142.76,88.16-192.5,161.9-47.07,69.79-77.12,151.87-86.89,237.36-8.89,77.78-.17,154.68,25.21,222.4a398.4,398.4,0,0,0,53.35,98.32,382.44,382.44,0,0,0,77.71,77.79c-36.39,43.49-54.51,92.46-52.42,141.92,1.91,45.53,20.95,89.29,53.62,123.23,31.68,32.92,73.1,53.43,116.64,57.75,5.76.57,11.61.86,17.36.86,42.17,0,83.66-15.52,120-44.87,41.26-29.44,66.75-69.52,73.7-115.93,6.22-41.44-2.83-85.94-25.48-125.3-23.25-40.4-58.45-71.51-99.11-87.61-44.86-17.75-93.35-16.2-140.35,4.46-47.9-21.74-80.06-94.44-78.43-178,1.27-64.74,25.74-142.55,90.56-166.71,102-35.79,276.59-17.52,418.87,107.19,97.74,85.67,115.33,238.53,132.33,386.36,4.92,42.73,10,86.92,17,127.84l.87,5.08,5.13-.54c41.8-4.37,81.07-8.83,119.11-13.16,140.8-16,262.35-29.82,417.95-28.37,137.31,3.22,257.84,22,385.47,42,37.63,5.87,76.55,11.95,116.56,17.72l3.63.53,1.88-3.16c120.33-202,260-376.26,439.42-548.29,58.26-55.85,168.26-57.15,251.43-33.68,85.56,24.16,145.32,71.71,159.87,127.22,6.27,23.93,2,68.6-11.07,116.58-12.43,45.5-30.07,83.76-46.6,101.34-50.19-24.86-102.57-30.17-151.73-15.33-44.87,13.55-84.11,43.08-110.47,83.15-24,36.45-35,78.62-30.9,118.75,4.51,44.69,27.14,85,65.43,116.46l.14.11c36.61,28.06,77.12,42.9,117.14,42.9h0a165.08,165.08,0,0,0,19.63-1.18c41.33-5,80.94-25.79,111.53-58.66,32.25-34.65,51.71-79,54.79-124.86,3.3-49.26-12.47-95.84-45.65-135,40.76-44.24,99.76-134.26,127-207.43l.14-.37.07-.39C2926.52,1900.61,2925.73,1840.91,2912.49,1781.52ZM2776.22,2163.2l-3.5,3.66,3.36,3.79c72.39,81.61,51.94,187-5.67,248.87-48.79,52.4-139.2,88-233.48,15.77-79.5-65.45-73.48-157.95-32.26-220.61,35.09-53.33,95.31-86.46,157.14-86.46,31.51,0,63.28,8.14,94.43,24.18l3.45,1.78,2.83-2.65c18.68-17.44,38.76-59.27,52.38-109.16,13.58-49.73,17.83-96.58,11.1-122.27-8-30.55-28.84-59.42-60.27-83.48-28.74-22-65.83-39.84-107.25-51.53-47.68-13.46-98.85-18-144.1-12.77-49.63,5.73-90.41,22.71-117.93,49.09-89.45,85.75-168.09,171.17-240.41,261.14a2494.37,2494.37,0,0,0-199,286.31c-38.68-5.61-76.35-11.49-112.81-17.18-128-20-248.86-38.86-387-42.1-156.3-1.45-278.22,12.4-419.44,28.45-36.37,4.13-73.93,8.4-113.81,12.6-6.5-39.21-11.35-81.36-16-122.17-17.24-149.9-35.07-304.9-136-393.36-67.54-59.2-148.07-99.58-232.88-116.76-70.76-14.33-142.53-11.61-197,7.49-30.87,11.51-56.22,35.52-73.31,69.43-15.24,30.24-23.71,67.38-24.49,107.42-.81,41,6.72,82.09,21.18,115.63,15.81,36.69,38.69,62.15,66.14,73.63l2.22.93,2.18-1c99.72-45.17,187.89,8.57,227.62,77.62,39.55,68.72,40.91,165.53-45.21,226.88l-.24.19c-87.74,71-185.56,43.16-239.32-12.7-57.3-59.54-78.59-161.43,3.05-254.81l4-4.55L281,2121c-116.46-84.41-175-230.91-156.6-391.89,20.07-175.65,127.13-328.88,272.74-390.37C514.63,1289.11,710.24,1273,975.62,1477c-5.28,56.71-4.6,124.93,2,197.55a1575.87,1575.87,0,0,0,38,228.31c41.71,170.52,106.32,303.57,181.95,374.64l13.68,12.86-4.58-18.21c-98.88-392.29-72.42-912.66,67.41-1325.69,48.47-141.29,85-239.18,148.73-309.81,68-75.35,164-112.46,311.29-120.32,164.2-4.06,246.85,73.72,304.19,160.91C2014,655.48,1987.05,642,1958,637c-79.31-13.58-173.43,38.13-258.23,141.88-92.65,113.33-80.84,193-65.87,293.95,2.1,14.19,4.28,28.85,6.22,44,18.51,145,39.81,284.77,60.41,420,13.56,89,27.58,181,40.92,275l0,.13c22.68,134.88,18.24,365.34-24.42,480.38l-3.92,10.57,10.74-3.41c46.2-14.67,82.54-48.37,108-100.16,21.33-43.33,35.54-100.45,42.22-169.76,11.95-124-1.76-259.5-11.07-350.1,28.44-25.67,45.54-45.65,60.68-63.34,21.76-25.42,40.55-47.38,85.86-78.4,154.89-90.2,351.55-131.66,526.19-110.94,119,22.72,227.62,95.66,298,200.15,67.68,100.56,92.68,217.5,70.4,329.33C2876.51,2030.26,2816.27,2121.22,2776.22,2163.2ZM2017.49,1072.14C1984.94,985.23,2010.74,873.81,2123,829l1.53-.6.6,1,4.08-1.15C2237,798.17,2315.3,868.09,2342.49,945.8c28.16,80.5,7,182.7-103.7,229.65C2127.26,1214.46,2047.28,1151.68,2017.49,1072.14Z"/>
</svg>
