<svg xmlns="http://www.w3.org/2000/svg" viewBox="0 0 2994.91 3000">
  <title>138Icon_neon 1</title>
  <path d="M2406.35,2725.92c-5.94-31.87-15.78-75.67-29.25-130.19-24.34-98.46-55.23-210.79-73.7-277.92-6.9-25.07-12.35-44.88-15-54.87l-415.61-1577c-4.79-17.45-12.58-49.82-22.44-90.8C1829.12,506.69,1800,385.59,1769.83,283c-16.54-56.31-31.56-100.52-44.62-131.39-21.54-50.9-34.68-58.19-42.7-59.25l-1.87-.24-1.61.94c-26.06,15.2-62.15,78.22-110.32,192.67-40.56,96.35-82.13,211-115.54,303-21,57.79-39.06,107.69-50.44,134.88l-801,1960.43-1,2.48,1.32,2.33c30.08,52.74,130.66,87.69,184.7,106.47,204.52,71.07,446.34,113.76,699.33,123.45,36.63,1.41,73.88,2.12,110.73,2.12,220.11,0,442.64-25.47,643.52-73.64l.28-.08,167.17-50.33,1.92-.58,1.1-1.7C2414,2789.63,2416,2777.6,2406.35,2725.92ZM1715.61,156.74c12.81,30.53,27.6,74.31,44,130.14,29.92,102.13,58.94,222.75,80.13,310.81l.06.24c9.86,41,17.64,73.32,22.45,90.85l415.6,1577c2.6,10,8,29.62,14.84,54.48l.14.53c18.39,66.82,49.15,178.65,73.44,276.72,13.41,54.17,23.24,97.69,29.2,129.35,8,42.68,7.6,56.1,6.66,60.28l-164.5,49.53c-473.95,113.63-1028.5,93.84-1447.24-51.66-51.83-18-147.69-51.32-177.4-99.26l800-1957.85c11.46-27.39,29.6-77.41,50.63-135.38,33.31-91.82,74.76-206.09,115.12-302,45.41-108,80.41-170.76,104.06-186.69C1687.58,105.76,1698.25,115.39,1715.61,156.74Z"/>
</svg>
