<svg xmlns="http://www.w3.org/2000/svg" viewBox="0 0 2994.91 3000">
  <title>70Icon_neon 1</title>
  <g>
    <path d="M2402.71,2444.67H584.43L374,2938.12H2591.68l-187.74-490.24Zm-2012,482.45,201-471.45H2395.14l180.55,471.45Z"/>
    <path d="M2674.64,846.78A1270.53,1270.53,0,0,0,2402,443.62,1274.45,1274.45,0,0,0,1997.64,171.8c-156.84-66.13-323.44-99.67-495.18-99.67s-338.33,33.54-495.17,99.67a1273.26,1273.26,0,0,0-677,675c-66.34,156.37-100,322.48-100,493.71a1273.36,1273.36,0,0,0,27.55,263.77,1260.34,1260.34,0,0,0,203.48,465.26A1279.63,1279.63,0,0,0,626,2259.76l1.6,1.51H2377.35l1.59-1.51a1271,1271,0,0,0,289.23-410.61,1259.08,1259.08,0,0,0,78.9-244.89,1273.36,1273.36,0,0,0,27.55-263.77C2774.62,1169.26,2741,1003.15,2674.64,846.78ZM632,2250.27C380,2010.62,241.31,1687.61,241.31,1340.49c0-693.31,565.75-1257.36,1261.15-1257.36S2763.62,647.18,2763.62,1340.49c0,347.12-138.72,670.13-390.66,909.78Z"/>
  </g>
</svg>
