<svg xmlns="http://www.w3.org/2000/svg" viewBox="0 0 2994.91 3000">
  <title>110Icon_neon 1</title>
  <g>
    <path d="M1444.07,2167c-59.46-104.34-132.26-204-216.37-296.21-83.91-92-177.12-172.61-277-239.6-94.74-63.53-191-112-286.25-143.94-192.2-64.57-356.35-52.9-450.36,32-54.56,49.28-84.63,137.44-84.65,248.23,0,55.23,7.39,114.16,22,175.16,15.3,63.86,38.17,128.49,68,192.1a1165.3,1165.3,0,0,0,117,195.87A1258,1258,0,0,0,505.3,2517,2358.19,2358.19,0,0,0,744.35,2706.6c80,55.3,160.41,103.24,239,142.49,78.06,39,152.37,68.38,220.88,87.44,59.67,16.6,114,25,161.32,25,8,0,16-.24,23.61-.73,64.25-4.06,113.06-25,145.06-62.29q2.09-2.43,4.2-5.06l.07.09,7.18-9.49,0,0c32.32-44.67,50.9-103.91,55.24-176.16,4.43-73.84-6.26-157.28-31.76-248C1542.14,2363.79,1500.06,2265.27,1444.07,2167ZM436.73,1457c68.35,0,143.78,13.69,224.17,40.7,142.48,47.87,287.34,132.66,419.18,245.35L933.52,1972.32c-11-6.23-27.69-1.52-46.56,3.82-17.47,4.94-37.27,10.55-56.28,8.93-51.21-4.37-93.43,4.73-129.07,27.81-33.55,21.74-57.59,53.78-76.69,82.27-4.61,6.88-14.41,14.27-24.79,22.1-21.74,16.41-48.5,36.6-41,64.56L302,2262.19c-102.78-159.62-161.65-339.71-161.62-494.68,0-107.64,28.8-192.9,81-240.07C272.45,1481.36,346.9,1457,436.73,1457ZM934.26,2276.3c-23.57,22.2-102.53,13.75-140.49,9.7l-3.39-.37c-35.77-3.81-85.27-17.23-126.12-34.2-35.55-14.77-80.55-38.58-93-68.19-9.73-23,13.29-40.41,35.55-57.21,11.14-8.4,21.65-16.34,27.3-24.76,36.05-53.77,79-106.27,172.29-106.27,7.53,0,15.4.35,23.39,1,21,1.78,41.82-4.1,60.22-9.31,18.65-5.27,34.76-9.83,40.62-2.73,17.11,20.73,22.74,62.19,27.72,98.8,3,22.26,5.88,43.3,11,58.48,5.76,16.94,5.34,42.87-1.12,69.33C961.42,2238.44,949,2262.38,934.26,2276.3Zm-371-84.25c16.19,30.86,61.15,54.72,96.81,69.54,41.74,17.34,92.45,31.07,129.17,35l3.41.36c20.21,2.17,47.89,5.13,74.71,5.13,33.68,0,56.77-4.71,70.3-14.35l593.21,597.67c-1.66,2.09-3.3,4.09-4.92,6-30,34.94-76.23,54.61-137.42,58.48-102.25,6.47-244.37-32.8-400.2-110.58C827.53,2759,663.06,2644.73,512.67,2508.8c-79.34-71.72-148.09-151.45-204.42-237Zm415.67,21.17c7-28.42,7.27-56.64.86-75.49-4.82-14.19-7.61-34.71-10.57-56.44-4.93-36.34-10.5-77.32-27.65-101.09l147-229.89a1575.93,1575.93,0,0,1,131.07,127.92c162.8,178.47,283.18,386.08,339,584.59,49.28,175.31,41.64,325.42-20.77,413.3l-592-595.82C960.27,2264.67,972.22,2240.56,978.9,2213.22Z"/>
    <path d="M2886.69,411.94h0l-.42-1.31-41.55-40-.54-.52L2773,333.64l-.17-.09-61.87-25.63-56.14-19.28.54-5.07.06-.57-8.9-69.84-.09-.74-28.73-63.26-29.33-44.44-.27-.4-44-44.93L2491,31h-57.06l-53,21.58-.8.33-55.38,50-.72.65L2285.61,182l-.5,1-4.47,82.22-.06,1,26.67,75.7-231,294.73q-6-4.35-11.95-9c-25.74-20.36-47.15-27.85-65.44-22.88-32.28,8.77-49.91,54.1-72.24,111.51-30.06,77.28-67.47,173.46-156.36,229.25-110.66,69.45-273.58,48.72-381.4,35-34.13-4.34-63.62-8.09-84.48-8.1-99.87-4.54-209.06,10.4-324.56,44.41C887.49,1044,791,1083.34,692.87,1133.77c-167.18,86-282.12,175.32-283.26,176.21l-22.72,17.75,27.66-8.14c99.46-29.3,215.56-18.25,345.07,32.83,116.92,46.11,244.15,125.77,367.92,230.37,178.93,151.2,339.42,341.44,451.9,535.66,112.23,193.78,165.48,372.09,150,502.09l-2.75,23,12.8-19.34c.44-.67,45.24-68.46,97.72-161.28,48.4-85.59,113.32-210.42,147.73-319.06,52.64-170.76,81.57-362.84,109.56-548.59,14.18-94.12,28.84-191.45,46.24-282.75,24.3-49.13,73.25-92.67,125-138.76,51.06-45.43,103.86-92.41,135.56-147.86,17.3-30.26,26.76-60.12,28.93-91.26,2-28.77-2.2-57.63-12.85-88.15L2583.45,628l34,14.39,86.89,17.74.88.17,78.12-12.08,51.86-33.66,41-52.52.46-.6,19-50.65,6.41-51.22ZM2705.46,649.12l-84.75-17.29-51-21.58-36.32-24.54-6.17,9.11L2564.47,620l8.53,3.61L2412.82,834.33c-1.12-2.82-2.27-5.6-3.45-8.32l-.15-.32c-34.16-66.84-97.47-88.35-170.77-113.25C2190.12,696,2136.12,677.67,2085.22,643l228.31-291.25,38.45,47,8.51-7-42.19-51.56-26.61-75.55,4.28-78.82,36.91-75.54L2386,62.36,2436,42h52.15l49.12,26.25,42.16,43L2608,154.49l27.68,61,8.62,67.67-5.15,48-7.61,21.73,10.38,3.64,8-22.88,3.63-33.8,53.32,18.3,61.27,25.38,69.56,35.65,38.92,37.45,14.18,44-5.94,47.46-18,47.93-39.27,50.33-48.23,31.36Zm-447,516.45c-52.87,47-102.8,91.46-127.95,142.8l-.14.3-.32,1.09c-17.49,91.69-32.21,189.37-46.45,283.92-27.93,185.34-56.8,377-109.18,546.93-34.11,107.69-98.66,231.78-146.8,316.92-36,63.75-68.43,115.61-85.27,142,4-65.18-7-139.87-33-222.37C1682,2290.15,1639,2197,1581.5,2100.2c-56-94.3-123.19-187.87-199.74-278.1-77.31-91.13-160.46-174.48-247.12-247.71-61.06-51.6-123-97.28-184-135.77-63.68-40.17-126.59-72.61-187-96.43-83.4-32.9-162.18-49.57-234.18-49.57a428,428,0,0,0-90.89,9.49c41.63-30.23,135.7-95,259.33-158.57C851,1064.86,1080.35,973.2,1304,983.4h.22c20.2,0,49.41,3.71,83.25,8,109.36,13.91,274.62,34.94,388.62-36.61,40.92-25.68,74.87-61.77,103.81-110.33,24.84-41.69,41.9-85.55,56.95-124.25,21.2-54.51,38-97.56,64.87-104.87,14.7-4,32.93,2.84,55.73,20.89,58.27,46.11,121.6,67.62,177.48,86.6,71,24.11,132.27,44.94,164.42,107.68C2464.82,982,2359.9,1075.29,2258.43,1165.57Z"/>
  </g>
</svg>
