<svg xmlns="http://www.w3.org/2000/svg" viewBox="0 0 2994.91 3000">
  <title>140Icon_neon 1</title>
  <g>
    <path d="M1467.61,1200.82l118.33-49.06h-128.1c-.85,0-86,.12-180.42,10.21-85,9.09-104.58,14.68-134.27,23.14-8.3,2.37-17.7,5.05-29.72,8.09-85.66,20.27-161.69,55.24-235.23,89.07l-4,1.83-1.13.56c-87.78,45.89-180.24,109.46-267.39,183.85a1771,1771,0,0,0-252.31,265C233.54,1889,86.79,2135.54,68.3,2427.25l-1,14.86,12.5,8.13c113.84,74.05,269.27,142.32,437.64,192.24l1.18.35,236.69,45.47,26.25,5,3.78-26.47c13.59-95.32,27.86-198.42,41.66-298.13S855.11,2166,868.73,2070.4c6.24-30.69,11.75-62.7,17.09-93.71,12.41-72.15,25.24-146.75,48.11-208.76C1024,1523.69,1238.47,1295.79,1467.61,1200.82ZM530.77,2593.23c-157.13-46.69-302.15-109.51-410.5-177.67,36.86-460.67,425-901.71,775.85-1085.4l3.4-1.56c71.31-32.81,145.06-66.73,225.85-85.82l.38-.09c12.85-3.25,22.7-6.06,31.41-8.54,27.13-7.73,45-12.84,125.69-21.47,20.22-2.16,40-3.85,58.56-5.18q-35.09,20.88-69.62,45.66a1108.61,1108.61,0,0,0-159.46,140.14,1148.22,1148.22,0,0,0-132.2,169.38c-39.13,61.37-70.77,124.49-94,187.6-24.48,66.4-37.72,143.35-50.53,217.77-5.3,30.83-10.78,62.71-16.95,92.92l-.25,1.47c-13.64,95.72-28,199.2-41.83,299.37-12.53,90.5-25.44,183.81-37.85,271.35Z"/>
    <path d="M1018.69,325.67c19.74,7.17,36.79,13.37,47.55,18.43l1.22.53c96.67,39.29,202.17,65.14,322.54,79,92.06,10.63,193.1,14.92,333.7,14.05-39.08,219.93-113.65,626.16-114.43,630.4l-4.68,25.55,142,23.33,4.63-23.84.12-.59c3.8-19.74,88.1-456.87,119.78-632.72,139.27,61.89,278.81,103.67,459.57,138l.39.07c9.35,1.62,21.29,4.05,35.18,6.88,44.59,9.08,107.5,21.9,157.63,21.9a202.59,202.59,0,0,0,33.89-2.52l1.12-.19,1.1-.3C2683.26,590.78,2687.45,589,2714.75,577l76.47-33.37L1871.44,372.48l7.19-12.66,2.37-4.15,6.37-11.09-5.09-11.78c-.82-1.88-1.56-3.67-2.26-5.35-8.94-21.64-18.34-37.36-58-42.73-47.53-6.43-67.27,18.56-73.76,26.78l-5.48,6.95v30.09l-859.35-160-36.2-6.73,6.42,36.24C862,265.25,930.28,293.56,1018.69,325.67ZM2600.41,560c-14.43,3.91-31.65,8.53-52.38,14.07-43.09,6.9-123.44-9.46-171.61-19.27-14.14-2.88-26.37-5.38-36.43-7.13-149.07-28.33-269.33-61.78-384.72-107.74Zm-936.29,491.72c18-98.17,83.05-453.54,115.16-635.39l1.56-8.87,46.22,8.61-.44,2.54c-22.39,128.56-100.6,535.61-120.69,640Zm5.27-665c-228.54-1.07-410.67-19.57-582.11-89.11-12.8-6-30.61-12.43-51.18-19.9-15.12-5.5-31.27-11.36-47.09-17.62Z"/>
    <path d="M1843.63,1348.07l-.87-1.1c-10.74-12.77-21.47-27.2-32.83-42.49-38.33-51.59-81.79-110.06-148.87-134.75l-7.13-2.62-7.4,1.72c-58.39,13.53-127.79,53.78-170.83,87.77-129.92,96.27-230.77,196.81-299.75,298.83-41,60.69-80.23,157.26-116.5,287-28.66,102.51-55.74,226.32-80.5,368-42.19,241.36-63.2,452.85-63.41,454.91l-1.79,18L930.1,2691c44.32,20.75,123,39.16,233.86,54.71,89.38,12.54,199,22.91,308.59,29.22,87.71,5,171.67,7.6,249.54,7.6,138.72,0,245.54-8.34,300.76-23.47l18.5-5,.3-19.16s4.21-264,6.32-396v-.4c0-231.68-12.11-408.8-38.09-557.4C1977.5,1595.72,1923.12,1454.1,1843.63,1348.07ZM1997,2338.2c-1.77,110.23-5,312.21-6,376-92.34,18.84-289.85,22.78-515.49,9.8-108.1-6.22-216.07-16.42-304-28.74-91.38-12.8-161-27.75-203.22-43.57,6.09-56.69,26.41-235,60.94-432.46,38.25-218.83,102.09-506.67,189-635.21,65.8-97.32,162.75-193.76,288.18-286.65l.63-.49c36.51-28.89,96.23-63.43,143.52-76.44,49.21,21.28,85.92,70.67,118.51,114.53,11.66,15.69,22.68,30.52,34.21,44.27C1973.9,1607.43,1997,1992,1997,2338.2Z"/>
    <path d="M2805.46,2030.54l-4.45-11.92-.46-1c-82.05-172.94-172.35-306.72-284.19-421-102.1-104.34-224.3-195.27-396.23-294.84l-.88-.51-.93-.44c-10.42-4.95-20.93-10.08-32.06-15.51l-.12-.06c-60.52-29.55-129.12-63-202.33-74.56l-79.21-12.46,57.47,55.93q6.84,6.66,13.76,13.35c17.27,16.71,35.12,34,50.47,50.13,63.3,66.54,107.42,117.76,142.55,219.39,108.64,314.37,111.71,719.73,104.74,1178.54l-.44,29.12,28.93-3.41c1.61-.19,163.21-19.6,388.11-75.55,241.11-60,315.91-80,316.6-80.17l17.46-4.65,1.4-18C2939,2388.18,2855.42,2164.31,2805.46,2030.54ZM2225,2686.74c2.92-202.51,4.12-415-9-611.77-14.92-223.63-47.29-405-99-554.57-37.59-108.75-83.66-163.87-149.05-232.88,33.37,13.13,65.64,28.88,95.77,43.59,11,5.36,21.35,10.43,31.72,15.36,288.13,167,488.4,334,658.51,692l3.7,9.92c46.72,125.08,123.78,331.43,118.1,492.57-34.3,8.93-122.54,31.64-297.92,75.27C2411.92,2657.56,2280.53,2678.72,2225,2686.74Z"/>
  </g>
</svg>
