<svg xmlns="http://www.w3.org/2000/svg" viewBox="0 0 2994.91 3000">
  <title>144Icon_neon 1</title>
  <g>
    <path d="M1414.31,1226.88l-42.83-22.61L867.32,938l-10-5.3-10.67,3.9L127,1200.25l-10.39,3.82-17,40.25L849,1514.48l10.54,3.8,10-5.21,501.93-263.67Zm-109.46-.12L855.71,1462.69,202.12,1227.05,853.53,988.36Z"/>
    <path d="M1488.41,1177.5l17.37,9.64,322.5-343.92,26.11-27.82-366.9-138.62-9,3.45L1008.58,859.61l-6.36,2.43-25.78,31.61,26.67,14.79ZM1765,836.15l-269.24,287.12-4.89-2.72L1073.78,889.31l413.8-158Z"/>
    <path d="M1718.24,1078.11l308.67-158.46,13.86-7.11V877.21L1892.7,821.52l-307,324.63Zm236.53-178.75L1827.49,964.7l79-83.51Z"/>
    <path d="M2513.32,1738.13c-14.29-55.47-30.06-112.33-43.24-156-24.36-80.66-31.13-88.35-35.58-93.4l-11.64-13.3-69.2,26.11,0,17.56c-.16,44.14,23.11,167.22,46.24,269.62,13.26,58.72,26.66,111.91,38.75,153.81,19.34,67.07,29.77,85.74,35.93,94l10.35,13.78,16.63-4.46c15.51-4.14,25.09-6.91,28.46-8.24,13.48-5.27,16.21-7,26.59-16.6l6.56-6.07,1.59-8.19c2.14-11,2.23-32.4-13.32-107.47C2542.29,1855.26,2528.77,1798,2513.32,1738.13Zm-1.79,251.9c-.62.22-1.79.57-3.38,1-4.56-11.26-11.37-30.61-20.83-63.47-11.77-40.89-24.85-92.89-37.82-150.38-20.19-89.47-36.09-174.76-42.19-224.37,12.5,37.12,32.5,104.41,56.63,198,15,58.2,28.18,113.87,37.11,156.74,9.93,47.67,12.77,70.64,13.48,81.25Z"/>
    <path d="M2873.74,1200.44,2144.8,936.54l-10.66-3.86L1633.7,1199.23l-30,16,.72.73-.17.09,3.71,3.55,19.49,20c27.23,27.88,254.24,146.92,263.89,152,61.51,32.21,119.84,61.4,164.23,82.2,75.47,35.35,96.47,40.23,107.91,40.23a34.33,34.33,0,0,0,6.68-.64l2-.39,718.42-268.11v-38.28Zm-800.28,225.37c-43.15-20.34-99.42-48.56-158.45-79.47-103-53.92-179.71-97.26-220.14-121.91L2138.1,988.35l656.72,237.76L2161.38,1462.5C2154.49,1460.84,2133.26,1454,2073.46,1425.81Z"/>
    <path d="M1016.79,1537.46l-12.88,7.33v37.82l16.3,6.3,478,185.09,9.34,3.61,472.33-188.8,10.33-4.12,14-36.44-492.85-278.77-12.61-7.15Zm66.06,21L1498.91,1321l419.69,237.4-411.35,164.42Z"/>
    <path d="M2106.3,1651l-13.57-15.73-18.14,10.12c-33.47,18.66-351.66,132.19-562.53,205.77-58.1-18.64-399.9-128.47-569.1-186.11l-26.78-9.15-6.32,27.58c-16.49,71.91-18.39,186.3-5,298.52,6.64,55.44,16.68,106.06,29,146.38,14.78,48.32,32.1,80.71,52.94,99,26.86,23.6,68.79,43.23,124.64,58.34,50,13.53,110.44,23.41,179.78,29.39,49.35,4.25,102.31,6.4,157.4,6.4,89.63,0,182-5.77,267.07-16.68,116.23-14.91,319.89-52.73,377.89-138.47,3.59-5.3,11-16.32,20.39-92,5.62-45.51,10.32-101.76,13.23-158.4,1.42-27.72,3.66-82,2.62-134.11C2128,1688.42,2116.91,1663.26,2106.3,1651ZM1941,2203.88c-59.93,21.21-140.06,38.63-231.75,50.39-135.4,17.37-286.15,21-413.61,10.06-66.32-5.72-123.79-15.07-170.83-27.8-47.57-12.88-83.64-29.28-104.3-47.43-20.34-17.87-49.56-84.42-65-213.15-10.94-91.35-11.18-186.74-1.18-253.18,192.46,64.88,546.51,178.38,550.21,179.56l8.17,2.63,8-2.82c19.42-6.77,434.51-151.55,551.77-200.05,2,10.52,4.07,26.7,5.37,51.22,2.21,41.39,1.66,96.75-1.6,160.1-2.72,53.11-7.08,106.25-12.26,149.62-6.88,57.67-12.16,73-13.2,75.56C2035,2161.25,1996.08,2184.4,1941,2203.88Z"/>
  </g>
</svg>
