<svg xmlns="http://www.w3.org/2000/svg" viewBox="0 0 2994.91 3000">
  <title>142Icon_neon 1</title>
  <g>
    <path d="M266.9,1876.48c103.36,35.7,210.73,57.38,314.57,78.35q19.15,3.86,38.29,7.75l28.29,5.79,2.25-28.78c24.87-317.92,125.89-883.22,522.88-1097.24l95.4-51.43-.67,1.27,1.68.07-.43,1,181,7.28v-1l.81,0-.81-11.91V774c0-4.18-.92-19-12.75-33.64-10-12.38-30.14-27.15-69.59-27.15-62.41,0-82.56,43.88-83.38,45.73l-5.62,12.65-8.53,16.19-110.71,6.7c-125,7.55-251,38.48-374.5,91.93-120.48,52.13-233.12,123.22-334.81,211.32C237.58,1282,95.39,1522.15,49.85,1774.09l-3.74,20.79,19.71,7.54C146.88,1833.46,208.88,1856.3,266.9,1876.48ZM740.63,1290.7c-39.51,96.37-71.86,204.69-96.17,322-19.25,92.86-33.56,191.72-42.62,294.25l-9.42-1.9-.86-.18c-102.2-20.63-207.87-42-308-76.54C231,1810,175,1789.44,104,1762.42,194.35,1320,604.67,935.82,1054.52,858,923.47,956.52,818.15,1101.58,740.63,1290.7Z"/>
    <path d="M2410.41,1980.27C2176.48,2041.74,1908,2086,1673.76,2101.81c-101.55,6.84-203.77,10.3-303.81,10.3-477.36,0-934.39-79.45-1321.67-229.78l-31.5-12.21L8.36,1961l16.09,7.65c69.85,33.22,223.37,97.58,466.68,155.41,104.93,24.94,213.43,45.37,322.49,60.71A3524.2,3524.2,0,0,0,1177.51,2217c44.58,1.58,90.12,2.39,135.36,2.39,185,0,375.47-13.31,566.07-39.56,180.3-24.82,359.2-60.46,546.93-108.95l20.43-5.26-5.93-93.21ZM824.27,2127.77c178.14,23.37,362.83,35.21,549,35.21,81.71,0,164.7-2.3,247.42-6.83q-156.15,12.2-308.52,12.21c-44.34,0-89-.79-132.81-2.35-319.9-11.39-610.19-67.31-833.06-132.75C498.56,2074.39,658.37,2106,824.27,2127.77Z"/>
    <path d="M1632,2033.46c.37,0,9.44-.27,41-2.14l30.22-2.15-.3-24c-.52-45.41-.43-92.48-.35-138v-.22c.29-154.47.6-314.2-21.69-468-12.12-83.65-29.69-157.82-53.71-226.75-27.16-77.91-61.68-146.86-105.52-210.76-30.53-48.71-67.48-95.87-105.83-143.89l-5.58-7-8.74-2c-13.4-3-23.65-4.64-33.56-6.21-7.26-1.14-14.76-2.33-23.23-4.07l-8.57-1.77-7.87,3.88c-107.49,53-201.37,123.85-279,210.47-70.6,78.75-130.14,173.23-177,280.82-41.89,96.26-74.11,202.48-98.48,324.73-20.42,102.45-35,215.11-44.59,344.45l-1.69,23,22.67,4c27.53,4.88,31,5.44,31.23,5.48L807,1997.4l3.68-25.65c10.72-74.93,60.92-135.25,145.18-174.46,78.27-36.41,179.48-52.14,285-44.28,99.88,7.44,191.39,35.42,257.68,78.77,70.62,46.19,107.7,107.06,107.25,176l-.2,26.43Zm19.61-166.63c0,29.7-.11,60.07,0,90.25a231.92,231.92,0,0,0-28.46-71.32c-22.06-36.61-54.6-69.13-96.69-96.66-73.38-48-173.46-78.88-281.8-86.95-18.83-1.4-37.84-2.11-56.51-2.11-94.31,0-182.07,17.64-253.8,51-49.4,23-89.36,52.73-118.77,88.38A257.31,257.31,0,0,0,787,1881.9c36.72-384.28,143.76-823.73,556.18-1032,6,1.09,11.45,2,16.79,2.8,6.77,1.07,13.7,2.16,21.65,3.74C1417.08,901,1451,944.69,1478.7,989l.59.9C1652.74,1242.28,1652.14,1559.78,1651.56,1866.83Z"/>
    <path d="M1545.59,917.21l.48.6c223.67,270.58,226.26,637.14,228.77,991.64.2,28,.4,56.85.72,85l.35,28.78,28.53-3.81c171.85-23,345.26-58.94,513-93.74q36.35-7.55,72.64-15l23.31-4.81-3.19-23.57a1284.54,1284.54,0,0,0-99.39-349.63,1312.64,1312.64,0,0,0-188.42-304.53c-76.57-92.53-164.22-172.39-260.53-237.37C1762.7,923.85,1656.4,874.16,1545.91,843l-76.07-21.42,49.2,61.85C1528.53,895.39,1537.22,906.43,1545.59,917.21Zm280.68,1047.73c-.17-18.5-.3-37.11-.43-55.31v-.55c-1.26-177.08-2.55-360.2-32.56-535.58-16.35-95.54-39.52-179.4-70.83-256.38-29.53-72.6-66.91-139.39-111.37-199.06,380,142.78,678.74,519.36,745.15,947.5l-49.18,10.19C2149.56,1908.43,1987,1942.16,1826.27,1964.94Z"/>
    <path d="M2982.56,1535.23c-2.83-44-16.22-84.67-38.72-117.54-37.12-54.24-96-83.68-165.24-82.69l-2.11.12a1595.09,1595.09,0,0,0-214.18,35.93c-76.5,18.41-145.65,41.55-205.53,68.76l-25,11.36,13.19,24.1c78,142.42,127.46,310.44,151.27,513.63l4.09,35,32-14.83c76.14-35.29,164.37-78.68,241.39-132.87,88.92-62.56,149.53-129.49,185.31-204.6l.6-1.36C2977.47,1626.15,2985.41,1579.46,2982.56,1535.23Zm-80.81-88.74c36.12,52.78,40.26,130.84,10.86,203.88-64.05,133.69-213.16,222.72-370.12,297.56-24.55-183-70.43-338.15-139.7-472.51,105.22-43.68,241-76,377.58-89.43C2831.62,1385.52,2874.73,1407,2901.75,1446.49Z"/>
  </g>
</svg>
