<svg xmlns="http://www.w3.org/2000/svg" viewBox="0 0 2994.91 3000">
  <title>74Icon_neon 1</title>
  <path d="M2473.9,272.84H523.2c-107.32,0-194.63,89.65-194.63,199.85V2483.57c0,110.19,87.31,199.84,194.63,199.84H2473.9c107.31,0,194.62-89.65,194.62-199.84V472.69C2668.52,362.49,2581.21,272.84,2473.9,272.84Zm0,2359.57H523.2c-79.19,0-143.63-66.77-143.63-148.84V472.69c0-82.08,64.44-148.85,143.63-148.85H2473.9c79.19,0,143.62,66.77,143.62,148.85V2483.57C2617.52,2565.64,2553.09,2632.41,2473.9,2632.41Z"/>
</svg>
