<svg xmlns="http://www.w3.org/2000/svg" viewBox="0 0 2994.91 3000">
  <title>72Icon_neon 1</title>
  <path d="M2400.18,378.74l11-14.12L2827.88,214.3l-17.17-47.48L2469.89,289.56,2620.15,97.34l-39.64-31.07L2379.82,322l-406.2,146.29-28.37,10.21-22.67,8.17L1938,505.18l19.33,23.19L2107,707.74l-3.07,4.3,16.51,11.81,184.16,220.76-413.28,103.21,220-263.62-39.16-32.68-264.71,317.26-448.73,112.06-30,7.48-21.58,5.39,11.21,19.22,15.56,26.67,176.67,303-5,7.51,15.44,10.35,191.7,328.77-457.26,54.45,247.33-315.6-40.13-31.47-278.67,355.58-406.34,48.39L748.75,2004l-27.93,3.33,15.61,23.43,16.08,24.16,162,243.26-4,5,15.6,12.48L1191.41,2714l-618.95,100.5L913.63,2379l-40.15-31.45-375.24,479L173.15,2879.3l8.17,50.34,260.88-42.36-33.55,43.28-15.19,19.68,39,30.59,66.25-82.52-21.25-16.76,28.43-4.61,10.92,8.55,9.27-11.83,696.37-113.08,29-4.71,26.28-4.27L1263,2729.45l-16.3-24.47L977.64,2301l199-248.43-39.82-31.86L948,2256.42l-138.7-208.25,381.45-45.43,11.39,8.93,8.89-11.34,529.65-63.07,29.38-3.51,25.82-3.08-13.11-22.48-14.89-25.53-197.18-338.18L1820,1172.42l-42.35-28.4-235.54,351.47-156.71-268.76,430.44-107.5,9.35,7.8,10.69-12.81,505-126.11,28.33-7.07,26.63-6.65-17.59-21.09-18.7-22.42L2171.38,705.34,2379,415l-36-25.74,48.31-17.43ZM2137.62,664.87,2008.38,510,2331.8,393.27Z"/>
</svg>
