<svg xmlns="http://www.w3.org/2000/svg" viewBox="0 0 2994.91 3000">
  <title>156Icon_neon 1</title>
  <g>
    <path d="M177.13,2173.36c26.34,26.08,53.57,53,75.62,82.44l1.14,1.53,222.05,217.45.87.71c21.31,17.44,41.15,38.23,62.14,60.25,44.19,46.34,89.89,94.26,155.85,117.42,34.45,12.11,79.13,19.33,119.5,19.33,31.12,0,75.29-4.42,109-25.51l1.17-.73,2.23-1.77,1-.95,66.06-65.08.13-.12c304.59-300,814.37-802.2,1081-1078.8,58.95-61.18,100.75-116.78,127.78-170,26.31-51.8,38.08-100.23,36-148.06-2.76-62.74-29.09-122.06-82.85-186.66-46.35-55.68-108.73-110-174.79-167.42-28-24.4-57-49.63-86-76-16.93-16.53-33.56-33.69-49.65-50.29-42.45-43.79-82.54-85.15-132-121-57.07-41.4-115.34-67.18-183.49-81.16l-3.12-.63-3.34.17c-44.74,2.5-86.07,16.38-126.35,42.41-34.59,22.35-64.57,51-93.59,78.72-14,13.34-28.4,27.14-43,39.83l-.83.76c-203,193.62-417.71,403.37-625.38,606.27-88.66,86.63-180.34,176.2-267.93,261.39-9.22,9-20.46,19.7-33.47,32.11l-.17.15c-47,44.79-111.29,106.12-167.88,169.27-70.38,78.55-108.8,138-117.46,181.88l-.27,1.38-.12,1.4c-4.56,55.18,7.1,103.14,36.69,150.95C108.55,2105.46,141.87,2138.44,177.13,2173.36Zm637.2,448.15h0c-41.11,0-80-8.51-102.62-16.47-54.41-19.1-95.8-62.51-135.85-104.5C555,2478.64,533.39,2456,510,2436.77L292.34,2223.6c-24-31.7-52.12-59.54-79.33-86.48-65.85-65.2-122.77-121.57-115.5-217.37,5.19-23.87,27.87-70.19,105.23-156.48,55.22-61.61,118.67-122.1,165-166.27l.17-.16c13.12-12.51,24.45-23.31,33.85-32.47C489,1479.48,580.62,1390,669.18,1303.48l.71-.7c207.35-202.58,421.75-412,624.37-605.3,15.29-13.34,30-27.41,44.29-41,56.82-54.3,106-101.29,184.28-106.86,131.62,28,206.5,105.26,285.77,187,16.44,17,33.45,34.51,51,51.62l.63.59c29.56,26.89,58.87,52.39,87.22,77.06,126.19,109.78,235.18,204.6,240.16,317.84,3.54,80.61-45.37,172.33-149.54,280.4-266.2,276.19-775.73,778.11-1080.17,1078l-4.87,4.8q-31.12,30.66-59,58.18C875.42,2615.84,848,2621.51,814.33,2621.51Z"/>
    <path d="M2256.84,1502.1c8.06-24,20.73-67.83,15.17-91-2.87-12-10.66-20.67-21.37-23.83a29.61,29.61,0,0,0-13.1-.9l-4.55-4.78-36.19,34.51.7.73c-11.29,12.49-22.32,26.14-33.78,40.31-22.48,27.81-45.73,56.57-71.4,76.27l-1.28,1-1.13,1.13C1951.77,1673,1810.06,1819.93,1673,1962.08c-247.77,257-504,522.71-747.93,741-63,56.34-135.78,57.42-229.16,3.38-86.92-50.29-178-141.5-258.42-222-20-20-38.91-39-57.7-57.28-69-67.21-271.26-280.26-279.87-289.32l-58.15-74.57,17.1,104c41.12,77.9,94.1,153.18,162,230.12,58.1,65.88,116.78,121.43,168.54,170.44C428,2604.4,461.32,2636,486,2663.94c59.16,66.95,105.09,117,157.58,151.19,56.74,37,118.07,53.47,198.88,53.47h1.91c37.79-.12,90.22-18.75,110.11-34.69,81.81-65.58,83.91-67.42,112.82-98.58,26.21-28.25,75-80.85,237.84-237.59,38.9-37.45,154.1-154.22,287.49-289.42l.17-.17c220.93-223.94,495.9-502.64,618.87-619.08C2232.11,1569.75,2248.74,1526.29,2256.84,1502.1ZM2210,1481c-.53,1.65-1.08,3.32-1.65,5-11.64,34.61-24.77,59.39-31.73,66-123.6,117-398.91,396.07-620.12,620.29l-.15.15c-133.15,135-248.14,251.52-286.57,288.52-163.85,157.72-213.29,211-239.86,239.64-26.9,29-26.9,29-107.33,93.47-8.64,6.93-48.22,23.39-78.37,23.49h-1.81c-129.39,0-188.9-44.89-280.29-145.07,35.74,30.1,72.05,57.13,108.23,78.07,56.12,32.47,106.72,47.68,154.73,46.47,48.75-1.22,93.82-20.06,134-56,245.34-219.53,502.22-485.95,750.65-743.61l.07-.08c136.48-141.55,277.6-287.91,414.92-424.54,29.84-23.23,54.66-53.92,78.67-83.63Z"/>
    <path d="M2867,910.68a338.59,338.59,0,1,0,99.17,239.42A336.35,336.35,0,0,0,2867,910.68Zm-239.42,527c-158.58,0-287.6-129-287.6-287.59s129-287.6,287.6-287.6,287.59,129,287.59,287.6S2786.14,1437.69,2627.56,1437.69Z"/>
    <path d="M2461.58,1467.16l-14.28-5.27c-13-4.8-35.33-20.2-59.68-41.18-16.21-14-26.71-24.64-31.17-29.6-.32-.71-.66-1.41-1-2.09a26.4,26.4,0,0,0-9.73-10.1l-36.18-47-.47,58.77a25.94,25.94,0,0,0-1.29,16.93c-1.1,10-6.59,36.66-17.66,71.42-14.23,44.66-32.12,85.15-50.37,114-32.09,50.72-142.16,148.77-181.87,182.28l-33.11,27.93,40.49,15.39c31.61,12,59.47,16.7,99.39,16.7a303.22,303.22,0,0,0,303.21-303.21c0-20.18-3.68-46.92-4.11-50Zm-296.95,317.22a289.12,289.12,0,0,1-37.17-2c47.19-42,125.74-115.17,155.37-162,30.06-47.52,49.85-105.41,59-135.69,3-10.1,5.77-19.94,8.11-29.18,19.57,17.3,43.74,36.19,65,47.51,1,9.45,1.94,20.65,1.94,29.19C2416.84,1671.24,2303.7,1784.38,2164.63,1784.38Z"/>
    <path d="M2037.63,781.29l-53.09,8.18,92.18,83.09,92.77,89.32,78.37,96.55,24.21,29.77,75.71-141.85-6.46-12c-52.2-97.4-151.21-155.55-264.87-155.55C2061.79,778.81,2053.71,778.81,2037.63,781.29Zm252.09,165.52-26.49,49.63-56.11-69.13-95.33-91.78-4.38-4C2184.24,840.37,2250.3,881.88,2289.72,946.81Z"/>
    <path d="M2035.56,564.77c121.66,0,220.65-99,220.65-220.65s-99-220.65-220.65-220.65-220.65,99-220.65,220.65S1913.89,564.77,2035.56,564.77Zm0-390.3c93.54,0,169.65,76.1,169.65,169.65s-76.11,169.65-169.65,169.65-169.65-76.11-169.65-169.65S1942,174.47,2035.56,174.47Z"/>
  </g>
</svg>
