<svg xmlns="http://www.w3.org/2000/svg" viewBox="0 0 2994.91 3000">
  <title>154Icon_neon 1</title>
  <path d="M2947.57,2082.52c-19.37-30-47.8-55.57-84.51-75.87l-1-.51c-51.69-25.66-102.95-20.05-152.53-14.63-38.09,4.17-74.06,8.1-110.53-1.32l-1.59-.41-1.64-.2c-33.17-4-68.38-12.71-102.43-21.08-23.45-5.77-45.6-11.22-67.7-15.45-246.36-47.16-417.47-224.51-457.74-474.42-44.15-274,84.25-554.2,312.24-681.32,6.65-3.71,12.89-7.22,18.8-10.55l.16-.09c50.61-28.53,73.71-41.55,127.94-47l2.14-.22,4.32-1.2,1.95-.93c28.23-13.47,50.62-32,66.57-55a140.83,140.83,0,0,0,25-79.09c.54-56.68-32.54-111.52-82.33-136.46a143.7,143.7,0,0,0-73.4-14.65c-36.09,2.25-72.61,17.29-108.54,44.69l-1.22.94-1.1,1.07c-32.09,31.36-35.62,74.46-39,116.14-2.08,25.35-4.23,51.57-13.35,72-96.89,216.72-236.8,261.84-311.57,269.44-102.44,10.42-204.68-36.82-266.8-123.28-78.4-109.12-83.45-259.66-13.86-413,15-33.1.42-57.25-18.26-68.8-17-10.54-42.46-14.46-69.74-10.74-13.18,1.8-45.74,8.31-63.29,29.93-12.91,15.91-18,42,6.38,67.64,46.54,48.87,59.29,107.26,36.88,168.84-26.57,73-96.09,129.66-169.09,137.85-61.74,6.93-117.85-23.55-158-85.82-7.57-11.75-14.69-23.78-21.16-35.76a355.4,355.4,0,0,0-16.4-33.53c-20.06-46.27-17.9-68-13.91-73,19.91-25.09,32.39-49.52,37.1-72.62,4.58-22.53,2-43.68-7.73-62.84-13.89-27.42-39-43.62-57.59-52.37-21.52-10.13-46.29-15.72-66.19-15l-1.23.05-2.58.35-1.24.3C946,334.9,924,374,920.35,403.25c-6.06,48.54,34.48,99.68,111.24,140.33,25.39,13.45,47.59,36.63,66,68.92,4.65,10.47,10,21.35,15.86,32.39a438.75,438.75,0,0,1,22,69.05c18,76,22,166.58,11.46,254.95-10.38,86.75-33.11,158.37-64,201.67-52.25,73.2-151.86,132.11-280.47,165.9-112.8,29.63-230.89,34.88-308.17,13.7-55.71-15.27-104.88-46.61-148.27-74.26-47-30-91.46-58.28-137.62-62.58-26.27-2.45-51.52,3.16-75,16.67-24.31,14-47.3,36.32-70.28,68.32a120.24,120.24,0,0,0-22.35,77.47c1.33,24.74,9.68,50,24.15,73.16,15.28,24.41,36.9,45.3,60.89,58.81,27.06,15.24,55.85,20.8,83.26,16.08,50.08-8.62,71.87-26.74,99.45-49.68,4-3.35,8.19-6.81,12.66-10.43,43.9-25.64,142-42,256.87-42.91,113-.85,220.06,12.54,279.51,34.94,126.51,51.06,216.4,176,246.62,342.87,24.62,135.91,4.57,280.76-55,397.59-6.22,10.35-12.17,21.1-17.7,32C1007,2269,978,2304.88,945.13,2334.94c-32.61,29.84-52.3,35.14-77.22,41.85-28,7.54-59.77,16.08-108.62,56.24l-1.13,1c-30.67,28.49-45.37,64.62-42.51,104.47,3.36,46.86,31.89,94.25,74.44,123.69l1.13.74a165.07,165.07,0,0,0,86.43,24.57h0c4.66,0,9.38-.2,14-.59a174,174,0,0,0,90-34.84c23.76-18.2,41.57-41.79,51.49-68.22C1044,2555,1045,2523.55,1036,2493l-.57-1.92-1.78-3.71-1.12-1.62c-10.06-14.58-11.58-47.33-4.18-89.86,7.21-41.44,22.3-88.77,41.39-129.86,1.72-3.7,3.51-7.42,5.32-11.07,7.11-11.82,13.92-24.14,20.25-36.62,118.21-192.28,316.29-199.44,374.25-197,150.79,6.25,277.25,89.28,322.18,211.57l6.16,16.66h44.42l.59-24.86c2.68-107,78.38-185.2,207.7-214.56,171.94-39,410.26,22.48,499.29,189.44a195.07,195.07,0,0,0,18.08,69.84c11.48,24.61,27.29,45.48,45.72,60.35l.45.36c39.54,30.44,81.49,48.44,124.7,53.49a209.41,209.41,0,0,0,113.91-18.68,219.75,219.75,0,0,0,87.18-74.43c22.3-32.53,34.72-69.29,35.9-106.31A174.13,174.13,0,0,0,2947.57,2082.52ZM1471.65,1970.37q-10.2-.42-20.37-.42c-82.72,0-163.2,21-233.92,61.06a453.9,453.9,0,0,0-71.81,50.46,705.7,705.7,0,0,0,8.75-291.94c-15.6-86.14-47.52-165.65-92.3-229.94-49.14-70.53-111.63-121.43-185.72-151.26l-.5-.19c-19.72-7.46-44-14-71.62-19.48,3.76-.93,7.5-1.89,11.25-2.87,140.11-36.81,249.86-102.72,309-185.6,35.8-50.15,61.77-130.14,73.15-225.24,9.09-76,8-153.81-3-224a212.61,212.61,0,0,0,39.4,25.35c34.38,17,71.53,23.4,110.43,19,44.75-5,90.47-25,128.71-56.37a279.59,279.59,0,0,0,47-49.33c9,63.82,32.24,123.14,68.13,173.09,35.73,49.72,83.38,89.35,137.78,114.59a335.85,335.85,0,0,0,175.6,29.67c41.92-4.26,83.26-16.56,122.38-36.18a709.25,709.25,0,0,0-54.18,101.59c-56,129-74.57,276.11-52.31,414.3,20.32,126.13,73.23,239.5,153,327.86a581.23,581.23,0,0,0,148.76,118.26q25.34,14.12,52.34,25.94a599.52,599.52,0,0,0-114.54-11.15,533.23,533.23,0,0,0-117.84,12.76c-70.09,15.91-129.58,46.24-172,87.72-29.2,28.53-50,61.39-62.29,98.21-27.8-42.62-65.22-79.35-110.66-108.25C1630,1997.16,1553,1973.74,1471.65,1970.37Zm63.1-1579.46c17-2.31,30.57.27,36,3.64l.13.09a19.93,19.93,0,0,1-1.48,4.27q-13.07,28.79-23,57.33a233.92,233.92,0,0,0-38.59-53.4c-.76-.8-1.35-1.5-1.81-2.09C1510.41,397.43,1520.23,392.88,1534.75,390.91Zm865.25,1609q8,1.71,16.07,3.26c20.79,4,42.32,9.28,65.11,14.88,35,8.61,71.15,17.5,106.77,22,44.86,11.22,88.55,6.44,127.15,2.22,46-5,85.65-9.37,123.79,9.36,57.11,31.75,87.64,78.26,86,131-1.78,55.8-39.51,110.55-93.89,136.25-58.18,27.48-125.76,16.94-185.47-28.92-25.46-20.71-43.91-60.87-44.89-97.79l-.08-2.81-1.44-5.62-1.26-2.48c-23.77-46.62-58.1-88-102-122.86A469.73,469.73,0,0,0,2400,1999.88ZM2221.59,773q17.65-30.84,33.06-65.29c12.68-28.35,15.19-59,17.62-88.61,2.84-34.66,5.3-64.67,22.82-82.8,60.71-45.65,105.45-34.66,126.8-24,32.77,16.41,54.54,52.73,54.18,90.37-.35,36.83-21.19,67.49-58.8,86.72-61.63,6.89-91,23.42-143.19,52.86-5.89,3.32-12.11,6.83-18.75,10.53Q2238.11,762.37,2221.59,773ZM108.09,1421.89c-20.7-33.08-22-68.15-3.61-93.83,39.38-54.84,70.34-64.33,91.77-64.33,2.61,0,5.08.14,7.4.36,33.87,3.15,71.44,27.1,115,54.82,32.81,20.91,68.72,43.8,109.25,61.53q-5.93.87-11.69,1.82c-53.66,8.81-95,21.82-122.87,38.68l-1.44.86-1.3,1.06c-5.3,4.26-10.05,8.21-14.7,12.08-25.88,21.52-38.87,32.33-75.49,38.63C163.19,1480,126.47,1451.26,108.09,1421.89ZM1113.17,404.19c10.4,20.53,2.39,47.68-23.82,80.7A62.23,62.23,0,0,0,1077.07,512a178.19,178.19,0,0,0-21.62-13.52C993.51,465.7,968.38,430.2,971,409.57c2.26-18.13,27.08-34.4,68.22-44.83C1062.56,364.89,1100.58,379.34,1113.17,404.19ZM988,2510.78c9.6,37.31-4.5,75.66-37.31,100.78-39.21,30-91,33.25-132.15,8.27-29.83-20.86-49.73-53.37-52-85-1.73-24,7-45.19,25.79-62.93,40-32.72,63.71-39.11,88.86-45.87,27.83-7.5,56.61-15.24,98.39-53.48l1.63-1.49q-1.73,8.16-3.1,16.1C968.47,2442.42,971.8,2484,988,2510.78Z"/>
</svg>
