<svg xmlns="http://www.w3.org/2000/svg" viewBox="0 0 2994.91 3000">
  <title>150Icon_neon 1</title>
  <path d="M2202,1947.12c-41.46-142.39-103.76-249.9-169.72-363.73-9.87-17-20.07-34.64-30.22-52.41-90.93-159.28-173.51-341.4-267.75-590.52-62.79-166-110-352.59-153-529.48q-31.44-132.8-62.85-265.54L1494.72,45.3l-97.58,376.4c-16.26,55.64-32.05,112.35-47.31,167.19-42.45,152.44-86.34,310.07-143,453.9-68.7,174.34-148.12,349.92-242.82,536.78-13.56,26.76-27.71,53.26-41.4,78.9-57.68,108.06-112.18,210.12-139.25,351.29-18.51,96.52-19.84,192.28-4,284.63a770,770,0,0,0,84.73,240.78,840.85,840.85,0,0,0,142.81,189.4c52.31,52.27,109.87,96.7,171.09,132.06,42.63,24.63,100.1,48.47,153.72,63.77,52.06,14.87,101.31,22.4,146.37,22.4a346.61,346.61,0,0,0,50-3.46c101.53-14.85,179.57-28.1,259.43-63.52,66.22-29.38,133.13-76.52,193.5-136.34,62.09-61.52,116.7-136,157.92-215.53,45.2-87.17,74.27-178.69,86.39-272A741.81,741.81,0,0,0,2202,1947.12ZM1446.31,435.26l46.15-178,39.18,165.55,0,.15c43.38,178.45,91.08,366.8,154.91,535.54,95.22,251.72,178.86,436.08,271.16,597.76,10.21,17.88,20.47,35.58,30.39,52.7,64.35,111.07,125.14,216,164.87,352.42,51.07,175.35,30,366.8-59.36,539.09-77.49,149.44-199.67,272.33-326.82,328.73-73.93,32.8-148.65,45.42-246.14,59.68a297.19,297.19,0,0,1-42.72,3c-108.4,0-226.92-51.92-274.44-79.37-216.87-125.27-443.92-408.15-370.09-793.1,25.62-133.58,78.34-232.34,134.16-336.89,13.81-25.87,28.09-52.61,41.9-79.86,95.41-188.29,175.48-365.29,244.77-541.13,57.65-146.3,101.9-305.23,144.7-458.92,15.26-54.81,31-111.48,47.24-167Z"/>
</svg>
