<svg xmlns="http://www.w3.org/2000/svg" viewBox="0 0 2994.91 3000">
  <title>24Icon_neon 1</title>
  <path d="M2758.8,506.69c-10.36-137.78-31.34-380.26-44.41-416.67-12.47-35.56-36.53-36.95-46.79-35.75-2.64.27-3.4.49-26.7,7.09C2338.19,147.12,1785.82,291,1487.58,291c-398.44,0-954.91-140.3-1194-214.65-18.88-6.67-34.35-.6-43.59,17.17-5.73,11-7.7,32.79-15.53,238.86-3.3,86.91-6.71,176.78-10.24,218.12l0,.33c-17.39,242.2-18.8,502.28-4.29,795.11l0,.37c11.7,181.87,24.32,333.06,70.56,485C345.53,2011.87,420.4,2190.45,513,2362.08a3090.5,3090.5,0,0,0,319.81,479l.71.88.79.81c32.4,33.26,73.91,59.18,123.37,77,41,14.81,87.92,24.2,139.31,27.9,92.11,9.1,185.49,8.48,275.79,7.87h.29c29.09-.2,59-.4,88.64-.26l0,1.35,25.68-.65c32.92-.84,66.4-1.41,98.79-2,86.55-1.47,176-3,264.22-9.82,29.64-2.26,56.62-8.06,82.49-17.72l1.25-.5c4.86-2.12,9.84-4.27,14.89-6.44,58.46-25.2,124.72-53.77,166-103.34l.61-.78c112.87-147.12,253.32-330.22,367.27-519.6,124.29-206.59,204.18-399,244.23-588.11l.14-.76c35.92-200.11,54.35-413.34,56.34-651.88C2786.12,951.54,2776.84,746.57,2758.8,506.69ZM2732.63,1054v.4c-1.95,235.56-20.1,445.93-55.46,643.11-88.47,417.31-361.06,772.79-601.66,1086.43-33.49,40-93.58,65.88-146.63,88.74l-.63.27c-4.68,2-9.29,4-13.79,6-21.13,7.82-43.35,12.53-67.93,14.41-86.66,6.72-175.37,8.22-261.18,9.68-27.57.47-55.93.95-84.11,1.6l-14.17-.15c-14-.17-28.79-.25-45.37-.25-23.18,0-46.43.16-68.92.31h-.32c-89.09.6-181.21,1.22-270.77-7.66l-.68-.06c-101.35-7.24-178.5-37.13-229.34-88.83-241.15-297.26-425.25-640.11-532.4-991.53-44.63-146.63-57-294.78-68.44-473.23-14.39-290.59-13-548.56,4.22-788.56,3.63-42.61,7.06-133,10.37-220.34,2.73-71.61,6.27-165,9.41-204.23C399.64,162,581.07,211,774.51,252c126.31,26.82,246.42,48,357,63,132.48,17.92,252.29,27,356.09,27,148.09,0,372.18-34.27,666.06-101.88,230.82-53.1,434.28-110.74,501.17-129.69l11.55-3.26.06.17c1,2.65,6.33,21.5,17.81,132.41,7.69,74.25,16.09,170.55,23.66,271.16C2725.84,749.59,2735.09,952.62,2732.63,1054Z"/>
</svg>
