<svg xmlns="http://www.w3.org/2000/svg" viewBox="0 0 2994.91 3000">
  <title>26Icon_neon 1</title>
  <path d="M2863.77,1089.51l-3.79-9.76-588.07-263L2232.09,597l-1.94-10.63-9-6c-.56-.38-56.53-37.72-81.38-57.26l-1.09-.86-23.13-14.35c-30.41-18.88-61.86-38.4-92.77-57.74l-1.4-.88-3.13-1.42-1.59-.49c-47.55-14.44-97.33-22.1-145.49-29.52-30-4.62-61-9.4-90.61-15.73l-1.17-.26-1.2-.13c-29.12-3.36-59.34-9.79-88.57-16-60.5-12.87-123-26.19-187.32-16.15q-64.4,7.34-128.79,14.73l-1.14.13c-60.39,6.93-122.83,14.08-184.24,21-5.39.52-10.5,1-15.36,1.45-74.35,7-96.78,9.09-172.45,59.29l-.15.1c-65.39,44-206.16,128.4-207.55,129.23l-8.43,5L707.25,851.77,457.93,904.2,153.47,1086.34,49.1,1292.21l-5.24,10.3,104,259.87,3.6,9,424.76,212.38-310.4-263.44,121.34-234.15,280.07-84.13c-3.36,35.6-8.22,86.38-10.48,107.41l-.29,2.63.26,2.72c5.13,51.25,19.69,89.53,35.11,130.07,12.42,32.65,25.26,66.39,32.31,107.87-8,74.91-12.18,150.2-16.26,223.06s-8.32,148.47-16.31,222.89l-1.2,11.21,7.45,8.39c53.81,60.87,104.8,123.13,154.14,183.38,50.88,62.11,103.49,126.34,159.5,189.44l1.19,1.34,1.37,1.16c19.81,16.74,41.76,29.2,63,41.27,12,6.82,24.45,13.87,35.73,21.36l.46.31,51.92,31.22c72.56,43.63,147.59,88.75,222.15,133.7l1.79,1.09,2,.76c24.46,9.64,50.18,8.89,72.88,8.23,11.56-.33,23.51-.68,34,.45l1.85.2,1.86-.07c12.85-.53,26.76.13,40.23.77,10.55.5,21.45,1,32.5,1a221.9,221.9,0,0,0,39.65-3.09l2.44-.43,4.79-1.89,2.08-1.33q32.79-21.09,65.57-42.22l.43-.27c59.33-38.21,120.68-77.73,181.34-116.36l2-1.3,1.76-1.67c81.43-77.41,239.61-285,315.63-384.75l.25-.33c18.38-24.11,31.65-41.53,38-49.45,7.22-9,6.33-17.86,4.38-37.26-1.13-11.18-3-27.28-5.62-47.84-4.4-34.84-11-83.31-19.44-144.07-13.59-97.15-28.49-199.27-33.4-232.82l104.71-210.76,2.36-4.69,8.35-153.31,307.59,67,60.4,286.89L2438,1801.8l407.61-193.29,9.57-4.51,97-270.87,3.19-9Zm-222,559.21,62.51-70.55,8.54-9.61-69.09-328.16-3.38-16.17L2242,1137.52,2231,1340l-106,213.34-3.5,7.1,1.14,7.88c27.49,187.3,56.57,395.08,60.21,437.83-7.54,9.7-18.88,24.58-33.31,43.52-74.67,98-229.46,301.11-308.41,377-59.93,38.17-120.61,77.25-179.32,115.06l-1.09.7q-30.23,19.48-60.47,38.93c-17.49,2.41-37,1.48-56,.58-10.57-.51-21.5-1-32.52-1-3.63,0-7,.06-10.3.17-13.25-1.27-26.33-.89-39-.52-18.75.54-36.49,1.06-50.86-4-72.56-43.75-146.35-88.13-217.74-131.06l-53.36-32.09c-12.61-8.34-25.67-15.75-38.31-22.92-18.68-10.6-38-21.55-53.86-34.69-54.83-61.84-106.7-125.17-156.94-186.5C844,2111.5,795.09,2051.81,743.4,1993c7.38-72,11.43-144.29,15.35-214.34,4.11-73.31,8.36-149.12,16.41-223.84l.38-3.39L775,1548c-7.75-48.15-21.88-85.3-35.54-121.22-13.91-36.56-27.07-71.13-31.76-114.44,3.91-37,13.71-142.12,13.82-143.22l3.48-37.65-362.86,109-10.36,3.1L211.15,1514.88l-9.36,18,19.06,16.18-29.28-14.64L99.79,1305l92.5-182.47L476.7,952.37l270.5-56.88,80-261.22c31.55-19,143.65-86.73,201.36-125.58,64.94-43.08,76.15-44.14,149-51l.23,0,15.47-1.46.43-.05c62.07-7,124.64-14.21,185.14-21.14q64.89-7.44,129.81-14.86l1.07-.14c55.15-8.72,113.19,3.63,169.32,15.57,30,6.39,61,13,92.1,16.64,30.61,6.51,62,11.34,92.31,16,45.26,7,92,14.17,135.22,27,30.25,18.92,60.62,37.77,90,56l20.75,12.87c20.59,16.06,57.24,41.06,74.43,52.65l40.28,222.28,2.4,13.25,593.54,265.47L2901,1324.92l-86.67,242Z"/>
</svg>
