<svg xmlns="http://www.w3.org/2000/svg" viewBox="0 0 2994.91 3000">
  <title>130Icon_neon 1</title>
  <g>
    <path d="M1922.39,515.54c-43.18-56-99.26-106.19-171.43-153.39C1683.5,318,1578,261.61,1441.24,281a569,569,0,0,0-166.66,50c-43,20.42-84.85,46.42-131.71,81.83-56.38,42.6-99.7,88.15-132.44,139.28-30.53,47.66-52,100.51-65.56,161.57-25.37,114-21.23,243.18-16,406.69,1.23,38.13,2.49,77.56,3.44,119.09l.6,24.89H2056.11l.45-25c4.45-237.76-.66-401.58-40-535.35C1995.45,632,1964.63,570.34,1922.39,515.54ZM2006,1213.33H982.71c-.85-32.57-1.86-63.92-2.84-94.43v-.19c-5.69-177-10-310.9,20.68-421.7a465,465,0,0,1,18.34-53.39c29.35-70.42,77.42-131.71,154.72-190.12,66.93-50.57,151.91-104.61,274.78-122,119.73-17,214.09,33.74,274.65,73.35C1984.73,576,2012.91,784.68,2006,1213.33Z"/>
    <path d="M2585.89,2410.51c-1.2-40.94-2.44-83.26-2.44-125q-.66-432.87-1.35-865.73v-2.06l-.34-2a250.91,250.91,0,0,0-54-118.22c-30-36.39-68-59.32-119.49-72.18-35.06-8.76-76.62-13-135.62-13.48,7.31-63.93,5.48-150.2-5.48-257.11q-1.86-18-3.61-35.67l-.08-.82c-11.2-111.78-20.88-208.32-52.9-298.61-52.67-148.5-148.35-284.7-269.42-383.51C1803.85,124,1641.68,65.84,1472.05,67.9l-1.47,0-3,.39-1.43.36c-24.08,6.09-48,9.37-71.14,12.55-30.35,4.17-59,8.11-88.26,17.75a844.31,844.31,0,0,0-333.42,206,805.06,805.06,0,0,0-123,159.41A778.26,778.26,0,0,0,769.9,655.75c-42.2,156.46-40.31,359.17-30.52,557.62-63,.75-107.26,6.33-144.86,18-49.65,15.42-87.11,41.88-117.88,83.27-51,68.55-48.62,188.76-46.33,305.06.45,23,.91,46.69.91,69v758.11c0,22.35-.73,46.39-1.51,71.91-2.62,85.74-5.58,182.92,21.18,243.52,15.79,35.76,37.08,63.85,65.06,85.88,27.63,21.74,61.13,37,102.42,46.63,40.32,9.41,88.4,13.6,155.93,13.6,29.49,0,59.32-.74,90.9-1.52,33.38-.83,67.89-1.69,103-1.69H2357.62l1.51-.19c57.8-7,103.12-26,138.56-58,31.85-28.73,54.43-67,69.06-116.94C2592.66,2641.53,2589.37,2529.36,2585.89,2410.51ZM968.23,2854.19c-35.77,0-70.61.87-104.29,1.7-87.33,2.17-169.82,4.22-234-10.76-66.89-15.61-107.73-47.51-132.42-103.44-22.09-50-19.31-141.06-16.86-221.43.79-25.85,1.53-50.27,1.53-73.4V1688.75c0-22.86-.47-46.85-.93-70.09-2.11-107.68-4.29-219,36.28-273.59,50.49-67.91,121.89-80.79,236-80.79,4.09,0,8.25,0,12.45,0l27.12.23-1.45-27.07C781,1034.75,776.92,825.56,819.14,669c65-240.81,257.89-440.68,503.54-521.63,24.83-8.18,51.26-11.81,79.24-15.65,23.6-3.24,48-6.59,73.69-12.89l5.41,0c343.94,0,590.13,260.07,681.55,517.82,29.95,84.47,39.34,178.17,50.22,286.66q1.8,18.09,3.69,36.6c12.3,119.94,12.85,211.73,1.64,272.79l-5.63,30.45,31-.32c122-1.17,197.18,9.17,245,67.11a199.85,199.85,0,0,1,42.62,92.12q.67,431.73,1.34,863.49c0,42.47,1.26,85.21,2.47,126.54,3.35,114.61,6.52,222.86-17.12,303.65-24.74,84.54-75.14,127.29-163.3,138.44Z"/>
  </g>
</svg>
