<svg xmlns="http://www.w3.org/2000/svg" viewBox="0 0 2994.91 3000">
  <title>28Icon_neon 1</title>
  <g>
    <g>
      <path d="M1486.05,2899.79c-88.22,0-225.89-57.31-304-93.52-116.94-54.17-243-126.86-306.6-176.77-62.7-49.11-118.17-109.11-164.87-178.35-42.22-62.59-78.73-134.93-108.53-215-48.1-129.29-80.48-280.7-101.89-476.52-15.85-100.45-23-205.1-21.78-319.91,1-96.65,8-201.4,21.52-320.24,8.2-129.32,42.14-257.12,100.88-379.82,55.51-116,131.58-224.36,226.08-322.16,69.31-81,147.26-143.85,238.27-192.11,84.82-45,179.89-76.58,290.65-96.63,14-1.85,31.67-5.21,52.07-9.11,43.23-8.26,97-18.54,144.63-19.34,56.14-.93,91.56,11.38,108.41,37.64,11.33,18.91,16.2,40.63,20.92,61.63,1.76,7.86,3.59,16,5.72,23.84,6.47,27.37,18.76,53.06,30.65,77.91,6.81,14.24,13.86,29,19.74,43.88C1764,412.53,1793.42,460,1827.8,490.25c43.87,38.62,97.12,49.32,158.28,31.81,18.33-3.92,36.74-9.06,54.54-14,32.24-9,65.58-18.32,99.57-20.71,19.1.27,38.63-2,57.52-4.21,33.36-3.91,67.86-7.94,101,2,50.74,17.75,67.21,94.16,80.43,155.56,4.31,20,8.37,38.84,13.17,53.68,60.76,305.48,114.67,604.85,107.2,909.28l-.1,9.39c-1.89,165.6-3.85,336.84-65.3,494.42A1276.13,1276.13,0,0,1,2293.93,2398c-59.8,92.14-130.13,174.65-209,245.26-169.41,151.6-368.94,239.86-577,255.23A164.24,164.24,0,0,1,1486.05,2899.79Zm72.07-2798.47c-49.14,0-105.57,10.78-150.11,19.29-20.42,3.9-38.06,7.27-52.1,9.12-227.28,41.14-395.17,132.79-528.34,288.42-194.78,201.59-310.8,450.67-326.71,701.4-29.12,256.79-29,454.14.26,639.93,32.06,293.1,103.64,656.76,374.92,869.23,63.53,49.87,189.52,122.51,306.4,176.66,78,36.16,215.57,93.42,303.6,93.42a164.81,164.81,0,0,0,21.72-1.34c468.52-34.61,802.38-421.9,925.43-790.37,61.4-157.43,63.35-328.58,65.24-494.09l.1-9.41c7.47-304.32-46.43-603.63-107.17-909-4.79-14.83-8.86-33.72-13.17-53.72C2365,579.71,2348.62,503.6,2298.42,486c-32.94-9.86-67.33-5.84-100.6-2-18.92,2.21-38.47,4.5-57.61,4.21-33.84,2.39-67.13,11.69-99.32,20.69-17.82,5-36.25,10.12-54.57,14-32.26,9.24-62.55,10.74-90,4.45-24.88-5.69-48.16-18-69.19-36.48-34.51-30.38-64-78-90.18-145.45-5.87-14.87-12.91-29.58-19.71-43.81-11.91-24.89-24.23-50.63-30.72-78.09-2.13-7.85-4-16-5.73-23.88-4.7-20.92-9.55-42.55-20.79-61.31C1642,110.36,1603.11,101.32,1558.12,101.32Z"/>
      <path d="M1486.05,2924.79c-89,0-220.18-52.11-314.54-95.83-118.49-54.9-246.6-128.83-311.52-179.8-64.74-50.7-122-112.62-170.16-184-43.33-64.23-80.76-138.35-111.24-220.28C529.8,2113.7,497,1960.56,475.34,1762.92c-16-101.67-23.19-207.49-22-323.47,1-97.35,8.07-202.74,21.61-322.19,8.47-132.33,43.21-263,103.24-388.42,56.57-118.18,134-228.6,230.13-328.19,71.27-83.16,151.44-147.73,245.06-197.36,87.13-46.2,184.58-78.63,297.91-99.15l1.19-.18c13.33-1.76,30.62-5.06,50.64-8.89,44.17-8.44,99.15-18.94,148.91-19.77,65.5-1.09,108,15,129.86,49.13l.41.66c13.39,22.36,19,47.13,23.86,69,1.7,7.59,3.46,15.45,5.45,22.75l.21.82c5.85,24.76,17.55,49.22,28.87,72.87,7,14.64,14.24,29.77,20.45,45.49l0,.14c24.63,63.51,51.82,107.78,83.12,135.33,37.59,33.09,81.71,41.77,134.88,26.55l.82-.23.83-.18c17.57-3.76,35.6-8.8,53-13.67,33.44-9.35,68-19,104.54-21.58l1.06-.08,1.06,0c17.48.25,36.18-1.93,54.25-4.05,34.21-4,73-8.53,111.1,2.88l1.08.35c29.64,10.37,52.25,35,69.1,75.38,13,31.12,20.72,66.92,27.52,98.51,4.17,19.36,8.11,37.63,12.51,51.26l.45,1.39.28,1.42c61,306.83,115.19,607.63,107.69,914.57l-.11,9.27c-1.91,167.63-3.89,341-66.77,502.63a1301.71,1301.71,0,0,1-142.75,295.65c-61,94-132.78,178.19-213.33,250.27-173.36,155.15-377.76,245.55-591.15,261.48A191,191,0,0,1,1486.05,2924.79ZM1359.79,154.44c-221,40.11-384.12,129.08-513.22,280l-1,1.11C654.9,632.84,541.34,876.32,525.81,1121.14l-.11,1.23c-28.86,254.45-28.82,449.74.11,633.21l.16,1.18C557.49,2045,627.52,2402.32,891.46,2609c62.2,48.82,186.16,120.22,301.49,173.65,73.43,34,209.16,91.11,293.09,91.11h0a140.7,140.7,0,0,0,18.39-1.12l1.48-.15c457.05-33.76,783.14-412.74,903.56-773.36l.42-1.17c59.74-153.18,61.67-322,63.53-485.29l.11-9.73c7.39-301.31-46.09-598.67-106.42-902.13-5-15.75-9.06-34.7-13.37-54.72-11.19-51.91-26.49-122.91-63.09-136.3-27.83-8.16-58-4.63-89.93-.9h-.11c-19.32,2.26-39.28,4.6-59.66,4.39-31,2.32-62.69,11.17-93.34,19.74-17.92,5-36.44,10.19-55.25,14.24-36.07,10.21-70.25,11.74-101.62,4.55-29-6.64-55.94-20.8-80.13-42.08-37.57-33.08-69.28-83.82-96.93-155.09-5.55-14-12.39-28.33-19-42.15-12.42-26-25.26-52.81-32.39-82.72-2.24-8.28-4.1-16.56-5.89-24.56-4.43-19.72-8.61-38.35-17.63-53.59-11-16.82-38.18-25.34-80.66-25.34-46.77,0-101.46,10.45-145.41,18.84C1392.18,149.09,1374.43,152.48,1359.79,154.44Z"/>
    </g>
    <g>
      <path d="M1888.27,1599l-36.84-14.86-25.08-40.42.06-.21,12.79-43.81,37.4-20.06,41.48,14,.09.19,23.24,48.25-14,30.4Zm-36.16-15.66,36,14.54,38.43-26,13.73-29.72-23-47.64-40.67-13.74L1840,1500.36l-12.61,43.19Z"/>
      <path d="M1891.27,1627.14l-56.77-22.9-35.31-56.89,3.25-11,15.7-53.78,56.19-30.15,61.74,20.87,4.64,9.69,28.34,58.84-21.9,47.42Zm-22.23-64,16.11,6.5L1906.8,1555l5.87-12.7-13.27-27.55-20.45-6.91-17.85,9.58-6.54,22.41Z"/>
    </g>
    <g>
      <path d="M963.24,1615.48l-.18,0L927,1609l-25.11-37.38,0-.21,9.89-45.37.23-.1,43.4-19.18.2.08,37.45,14.56,9.92,43.81-8.18,30.93-.17.11Zm-35.67-7.35,35.47,6.29L994,1595.54l8-30.31-9.75-43-36.76-14.3-42.79,18.91-9.74,44.67Z"/>
      <path d="M968.18,1641.76l-9.53-1.71-46.5-8.25-37-55.07,2.35-10.65,12.57-57.72,11.83-5.24,52.9-23.37,9.85,3.81,49.88,19.39,14.21,62.77-12.31,46.53-8.7,5.34Zm-25.78-56.39,15.69,2.78,14.26-8.71,3.88-14.67-5.46-24.11-14.7-5.72-21.68,9.58-4.76,21.85Z"/>
    </g>
  </g>
</svg>
