<svg xmlns="http://www.w3.org/2000/svg" viewBox="0 0 2994.91 3000">
  <title>100Icon_neon 1</title>
  <g>
    <path d="M1719,2778l-16,6.4V2889l548.94-208,19-7.22-15.26-110.15Zm495.79-137.47L1940,2744.7l274.12-109.49Z"/>
    <path d="M1357.77,2775.47l-236.46-103L1085.63,2657v322.66l271.15-114.68,283.43,117.27-5.1-326.13Zm-221.14,127.2V2734.79L1332.19,2820Zm245.84-82.3L1585.31,2733l2.7,172.37Z"/>
    <path d="M2466.35,276.4c.26-53.86.53-109.56,0-160L2465.6,48l-44.21,52.2c-49.39,58.31-98.08,109.23-145.19,158.49-78,81.55-151.66,158.58-213.5,254.46C1993.47,620.45,1948,737.61,1919.53,881.81l-.37,1.85-.08,1.88c-5.55,124.38-24.28,386.25-33.15,507.43-23.63-29.51-49.67-62-75.17-93.78l-.37-.46c-42.08-52.47-85.59-106.72-117.92-147.23-132.3-194.59-246.11-354-403.6-486.93C1070.34,480.14,831.57,290.34,566.4,151.52L522.25,128.4l38.9,271.2.27,1.56C585.2,515.24,630.14,624.2,695,725c57.39,89.21,132.33,175,222.75,255C1094,1135.94,1307.05,1251.08,1473,1334l.87.43.89.37c34.13,13.87,86.82,36.88,137.78,59.14,16.3,7.12,32.78,14.32,48.79,21.28-66.49,7.71-144.61,17.3-181,23.19-110.49,17.89-212.37,53.14-302.82,104.78-88.62,50.6-163.82,115.46-223.53,192.8-48.38,62.68-78.17,127.71-88.53,193.3-9.6,60.79-2.57,121.65,20.91,180.89,18.24,46.05,46.28,90.64,83.32,132.53,34.52,39,76.29,75.13,124.13,107.26,81.59,54.78,176.69,95.12,271.18,115.4-18.24,34.37-30.41,67.33-36.29,98.31-10.61,55.93-.87,105,28.95,145.93l12.24,16.79,325.3-147.89,4.76,109.4,1.54,36.19,33.54-13.65c3.13-1.28,324-131.76,501.18-204.2l11-4.47,3.63-11.17c58.22-177.08,79.63-376.65,58.73-547.55-16.4-134.17-66.37-313.45-209.86-422.66,29.38-41,56-80.73,81.81-119.32,29.91-44.69,60.85-90.91,95.75-138.51l.74-1,.64-1.09c120.61-205.08,183.79-482.18,187.8-823.58v-.56C2465.81,386,2466.08,330.28,2466.35,276.4Zm-51,160.14c-3.93,331.64-64.52,599.77-180.1,796.91-35.21,48.08-66.22,94.41-96.22,139.22s-60.81,90.86-95.69,138.44l-15.74,21.47,22.12,14.8c144,96.33,193.22,271.69,209.13,401.83,19.58,160.14.28,346.89-52.95,514.27-143.78,58.76-371.74,151.52-456.62,186.05l-6.48-148.75L1388.2,2662c-31.52-64,2.4-143.75,38.46-201.63l20.25-32.57-37.88-6.08c-182.75-29.27-404.7-152.15-475.31-330.37-42.1-106.25-21.15-218.37,60.58-324.23,112.89-146.22,288.37-245.1,494.13-278.41,56.17-9.09,218.52-27.77,274.92-33.56l98.9-10.16,24.4,30.53,40.47,50.71,4.88-64.7c1.25-16.59,30.48-406.57,37.93-571.75,59.47-299.3,190.94-436.76,343.13-595.89,33.45-35,67.7-70.79,102.59-109.64,0,30.34-.15,61.42-.3,91.9C2415.08,330.13,2414.81,385.94,2415.35,436.54ZM1256,703.54c152.74,128.9,264.56,285.77,394.87,477.45l.54.79.6.75c32.41,40.62,76.23,95.27,118.61,148.11,30.92,38.55,62.63,78.08,89.9,112.17l-90.15-36.64c-34.08-13.86-86.62-36.81-137.51-59s-103.29-45.11-138-59.24C1110.44,1095.76,705.17,839,611.51,391.55L587,220.47C830.36,354.58,1052,531.38,1256,703.54Z"/>
  </g>
</svg>
