<svg xmlns="http://www.w3.org/2000/svg" viewBox="0 0 2994.91 3000">
  <title>106Icon_neon 1</title>
  <path d="M2712.48,760a904.37,904.37,0,0,0-101.7-207c-42.36-63.83-92.09-120.62-147.82-168.79a737.09,737.09,0,0,0-146.59-99.1,674,674,0,0,0-166.95-59.31c-122.66-25.9-248.8-16.49-375,28-66.88,20.08-143.26,69.19-182.92,96.72-25.48,17.7-50,36.35-69,52.51a301.88,301.88,0,0,0-24.73,23c-22.06-21.06-59.85-50.86-90.5-73.62-16.86-12.52-73-53.6-99.23-65.09-80.65-44.75-197.44-72.79-310.34-75.09v-.43l-50,.69V213A652,652,0,0,0,795,240.36c-55.14,16.71-110,40.79-163.19,71.56-84,48.65-158,115.94-220,200-61.16,83-107.3,177.89-137.14,282-30.66,107-42.5,218.55-35.19,331.45,7.75,119.62,36.89,236.81,86.63,348.32,27.51,61.68,64.56,121,113.25,181.4,43,53.27,90.69,102.29,136.87,149.71,37.9,38.91,77.08,79.14,113.23,121.36l.65.73,789.12,852.14,4.43,4.75,25.34,8.44,740.74-801.1.64-.72c43.2-50.46,88.33-97.77,132-143.57,79.3-83.12,154.2-161.63,218.22-257.06,34.6-51.58,62.69-103.2,85.86-157.81,25.87-61,45.07-124.24,58.7-193.42A926.49,926.49,0,0,0,2712.48,760ZM1284.4,332.46l1.29.73,1.37.56c26.48,10.93,146.1,98.32,180.61,134.14,6.09,9,14.48,20.19,29.45,20.95,15.28.82,23.92-9.67,29.1-15.93l.21-.26,1.71-2,4-4.76.53-2.4c7.48-8.94,38.48-36.68,88-71,37.27-25.88,108.78-72,169-89.92l1.2-.39c225.14-79.56,458-35.56,638.75,120.72,220.25,190.37,324.48,506.71,265.56,805.92-53.73,272.75-197.46,423.42-349.7,583-44,46.13-89.49,93.82-133.47,145.17l-711.76,769.75-772.33-834c-37.1-43.3-76.74-84-115.11-123.4C523,1677.05,430.16,1581.7,372.73,1453,278.68,1242.09,262.86,1008.79,328.18,796c59.18-192.75,179.16-353.12,329.19-440,104-60.22,210.33-91.49,316-93C1085.91,261.52,1205.08,288.1,1284.4,332.46Z"/>
</svg>
