<svg xmlns="http://www.w3.org/2000/svg" viewBox="0 0 2994.91 3000">
  <title>108Icon_neon 1</title>
  <g>
    <path d="M2150.37,1192c85.41-32.52,152.83-70.73,200.39-113.57,52.42-47.19,79-98.35,79-152s-26.57-104.85-79-152c-47.56-42.83-115-81-200.39-113.57-84.08-32-181.78-57.13-290.4-74.62-112-18-231-27.2-353.52-27.2s-241.5,9.15-353.52,27.2c-108.63,17.49-206.33,42.6-290.4,74.62-85.41,32.53-152.83,70.74-200.4,113.57-52.41,47.2-79,98.35-79,152s26.58,104.85,79,152c47.57,42.84,115,81,200.4,113.57,84.07,32,181.77,57.13,290.4,74.63,112,18,231,27.19,353.52,27.19s241.5-9.14,353.52-27.19C1968.59,1249.16,2066.3,1224.05,2150.37,1192Zm166.27-151.47c-42.87,38.61-104.92,73.53-184.42,103.81-166.75,63.51-389,98.48-625.77,98.48s-459-35-625.77-98.48c-79.5-30.28-141.55-65.2-184.42-103.81-41.22-37.11-62.12-75.51-62.12-114.14s20.9-77,62.12-114.15c42.87-38.6,104.92-73.53,184.42-103.81C1047.42,645,1269.66,610,1506.45,610s459,35,625.77,98.48c79.5,30.28,141.55,65.21,184.42,103.81,41.21,37.11,62.11,75.52,62.11,114.15S2357.85,1003.45,2316.64,1040.56Z"/>
    <path d="M2970,1449.06A727.57,727.57,0,0,0,2897,1246.31c-32.79-60.71-73.91-114.86-118.89-156.59-27.59-25.59-94.47-69.19-97.29-71L2655,1001.89l-11.71,28.46c-47.84,116.15-110.77,249.52-164.22,348.06-41.66,76.83-88.89,163.9-145.35,226.17-76.1,83.92-170.43,162.48-261.66,238.47-30.81,25.66-62.31,51.89-92.9,78.2l-1.33-5.78-.13,1.08v-.06l-.8,6.71c-15.41,13.26-30.57,26.55-45.3,39.78-14.29,12.84-28.93,25.6-43.09,37.94-53.11,46.28-103.27,90-147.37,146.49-55.5,71.11-132.9,220.33-133.68,221.84l-48.55,93.92,86-61.47c.28-.2,27.28-19.47,48.72-33.49,7.36-2.53,31.57-10.37,53.78-17.48,3.46,0,10.88.83,16.47,1.42,25.27,2.66,53.91,5.69,74.63-5,35-18.1,68-41.79,103.86-74.53l53.63-50.21c.15.44.29.88.44,1.31,6.44,19.12,12.52,37.18,41,62.18,41.4,36.27,116.23,42.58,170.37,14.36,36.15-18.85,73.06-55.25,101.29-99.86,29.78-47.09,47.84-99.57,50.84-147.76l.37-5.85a113.66,113.66,0,0,0,27.43,20.27l.11.06c35,17.94,71.28,24.57,107.87,19.71,29.22-3.88,55.32-12.46,77.57-25.5,22.54-13.22,41.9-31.44,57.53-54.17,29-42.19,41.76-94.8,49.57-136.15,6.53-25.62,11.59-114.64,3.58-152.09a283.23,283.23,0,0,0,28.45,29.1c30.18,26.57,62.88,42.8,94.57,46.92a128,128,0,0,0,16.4,1.07c36.75,0,71.46-16.34,101.23-47.86,27.76-29.4,46.15-75.72,53.17-134C2984,1563.38,2981.21,1504.74,2970,1449.06Zm-156.39,295.28c-47.85-6.22-94.65-54.94-117.93-97.64-18.11-34.61-37.26-82.62-51.26-117.71-5.88-14.76-11-27.51-14.78-36.24l-42.75-98.06-.05.73-.9-2.11-2.12,55.31-3,52.88c-2.8,49.31,19,159.85,39.52,200.47l.55,1.08.65,1a107.1,107.1,0,0,1,5.79,11.8c2.06,4.62,4.34,9.74,7.08,14.62,5.52,25.19,1.71,109.7-3.41,128l-.29,1-.2,1.06c-18.16,96.55-49.16,163.37-141.45,175.64-26.08,3.46-52.26-1.42-77.81-14.51-31-16.11-48.07-64.47-54-84.53l-.29-.92c-2.67-7.9-6.08-17.79-9.4-27.41-8.43-24.42-18.93-54.81-21.22-64.19l-26.06-106.48-1.75,8-.69-2.53-11.25,56.64-9.92,45c-6.19,28-4.93,69.88,3.56,117.82,3.47,19.58,12.76,65.23,28.24,94-3.91,38.94-19.29,80.66-43.71,118.33-23.11,35.64-53.2,65.41-80.48,79.64-17.2,9-39.55,13.15-61.33,11.47-21-1.62-39.94-8.54-51.84-19-18.19-15.94-20.91-24-26.34-40.12-1.08-3.21-2.19-6.52-3.5-10.12-2-8.93-6.86-32.1-12-56.55-7.23-34.51-15.43-73.63-18.4-86l-18.6-77.44c36.41-31.82,74.9-63.87,112.39-95.09,92.57-77.1,188.29-156.83,266.79-243.4,60.59-66.81,109.37-156.75,152.41-236.11,49.87-91.93,107.86-213.73,154.55-324.22,23.72,16.21,51.5,36.13,64.95,48.6,85.88,79.67,150.26,200.67,176.62,332,17.52,87.26,14.85,204-32.41,254C2864.5,1737.59,2840.3,1747.81,2813.64,1744.34ZM1967.83,1999l-7,58.71c-3.64,30.45-8.15,97.82-8.75,136l-44.16,41.35c-32.41,29.58-61.89,50.81-92.77,66.78-.15.07-3.88,1.88-16.35,1.78-9.56-.07-20.16-1.19-29.51-2.18-17-1.8-27.68-2.93-37,.61-16,5.13-27.82,8.92-36.56,11.75,25.77-45.52,58.69-100.49,85.62-135,41.09-52.64,89.47-94.79,140.68-139.42,14.3-12.46,29.08-25.34,43.67-38.46Z"/>
    <path d="M1255.45,2147.41c-44.11-56.49-94.27-100.21-147.37-146.49-14.17-12.34-28.81-25.1-43.1-37.94-14.72-13.23-29.89-26.52-45.29-39.78l-.8-6.71,0,.06-.12-1.07-1.33,5.77c-30.6-26.31-62.1-52.54-92.92-78.22-91.22-76-185.54-154.53-261.64-238.45-56.46-62.27-103.69-149.34-145.36-226.17-53.45-98.55-116.37-231.92-164.21-348.05l-11.71-28.47-25.77,16.8c-2.84,1.84-69.72,45.44-97.31,71-45,41.73-86.1,95.88-118.89,156.59a727.59,727.59,0,0,0-73.06,202.75c-11.18,55.68-14,114.32-7.83,165.11,7,58.24,25.41,104.56,53.17,134,29.77,31.52,64.48,47.86,101.23,47.86a128,128,0,0,0,16.4-1.07c31.68-4.12,64.38-20.35,94.57-46.92a284.27,284.27,0,0,0,28.45-29.1c-8,37.44-3,126.44,3.56,152,7.82,41.37,20.56,94,49.58,136.19,15.64,22.73,35,41,57.54,54.17,22.25,13,48.34,21.62,77.57,25.5,36.59,4.86,72.88-1.77,107.87-19.71l.11-.06a113.66,113.66,0,0,0,27.43-20.27l.37,5.82c3,48.22,21,100.7,50.84,147.79,28.22,44.61,65.14,81,101.29,99.86,22.76,11.87,49.16,17.63,75.21,17.63,35.92,0,71.16-11,95.16-32,28.51-25,34.59-43,41-62.21.14-.42.29-.84.43-1.27l53.4,50,.23.21C1090,2305.34,1123,2329,1158,2347.14c20.71,10.7,49.36,7.67,74.64,5,5.59-.59,13-1.37,16.45-1.41,21.71,6.94,46.32,14.92,53.78,17.48,21.45,14,48.45,33.29,48.74,33.5l86,61.46-48.55-93.93C1388.34,2367.74,1311,2218.52,1255.45,2147.41Zm45.41,166.37c-8.73-2.84-20.5-6.61-36.49-11.71a40.55,40.55,0,0,0-14.84-2.34c-6.18,0-13.61.79-22.22,1.7-9.35,1-20,2.1-29.51,2.18-12.49.09-16.19-1.71-16.33-1.78-30.9-16-60.39-37.2-92.79-66.79l-44.15-41.34c-.61-38.17-5.11-105.55-8.75-136l-7-58.71,2.14,1.92c14.6,13.12,29.38,26,43.68,38.46,51.21,44.63,99.58,86.78,140.67,139.42C1242.18,2213.3,1275.09,2268.26,1300.86,2313.78ZM812.28,2255c-27.29-14.23-57.37-44-80.48-79.64-24.43-37.67-39.8-79.39-43.71-118.33,15.48-28.74,24.77-74.39,28.24-94,8.48-47.94,9.75-89.78,3.56-117.82l-9.93-45-11.24-56.64-.69,2.53-1.76-8-26,106.48c-2.3,9.38-12.79,39.77-21.24,64.25-3.3,9.56-6.72,19.45-9.39,27.37l-.29.92c-5.92,20-23,68.39-54,84.51-25.56,13.09-51.74,18-77.83,14.51-92.29-12.27-123.29-79.1-141.45-175.68l-.2-1.07-.3-1c-5.11-18.31-8.91-102.78-3.39-128,2.74-4.89,5-10,7.09-14.65a104.69,104.69,0,0,1,5.81-11.82l.64-1,.55-1.08c20.52-40.6,42.3-151.11,39.5-200.43l-3-52.87-2.13-55.31-.9,2.11,0-.73-42.75,98c-3.82,8.74-8.9,21.49-14.79,36.26-14,35.08-33.15,83.1-51.25,117.69-23.29,42.71-70.08,91.43-117.94,97.65-26.66,3.47-50.86-6.75-74-31.23-47.25-50-49.92-166.75-32.4-254,26.36-131.32,90.74-252.32,176.62-332,13.44-12.47,41.23-32.39,64.94-48.6,46.69,110.48,104.69,232.28,154.55,324.22,43,79.36,91.83,169.3,152.41,236.1,78.51,86.58,174.23,166.31,266.83,243.43,37.46,31.2,75.94,63.26,112.36,95.07l-18.61,77.43c-3,12.32-11.16,51.44-18.39,86l0,.15c-5.11,24.39-10,47.5-11.94,56.36-1.34,3.7-2.49,7.12-3.52,10.19-5.42,16.09-8.14,24.16-26.32,40.1-11.91,10.43-30.81,17.35-51.85,19C851.83,2268.16,829.47,2264,812.28,2255Z"/>
  </g>
</svg>
