<svg xmlns="http://www.w3.org/2000/svg" viewBox="0 0 2994.91 3000">
  <title>82Icon_neon 1</title>
  <g>
    <path d="M599.88,607.23l-8.71-24-426,155-24,8.72,8.54,23.49L935,2930.41l8.71,24,426-155,23.95-8.72-8.54-23.48ZM974.2,2889,206.58,777.5,560.66,648.63l767.61,2111.5Z"/>
    <path d="M923.81,799.94l916.27-333.75L2015,922.86l-891.46,324.71-24,8.72,94.63,259.15,8.75,23.9,1208.94-440.11,23.95-8.72L2062.46,64.68l-8.72-24-1217,443-23.89,8.7L915.11,775.92ZM2023.26,106.09l347.21,954L1233.35,1474,1165,1286.76l891.85-324.85L2081.2,953,1878.74,424.53l-9-23.43L954.39,734.52,878.05,522.91Z"/>
    <path d="M2754.73,2009.49l-4.15-11.5L1525.39,1577.53l-8.57-3-237.7,87-23.93,8.78,92.47,252.08,4.18,11.38,1225.1,420.43,8.55,2.95,261.18-95.07Zm26.58,222.14L2585,2303.08,1391.35,1893.44l-70.71-192.77,196.7-72L2711,2038.31Z"/>
  </g>
</svg>
