<svg xmlns="http://www.w3.org/2000/svg" viewBox="0 0 2994.91 3000">
  <title>16888Icon_neon 1</title>
  <g>
    <path d="M2787.17,993.41h0c-88.94-115.9-211.41-210.75-385.41-298.48-262.3-132.24-571.39-197.74-918.65-194.63l-178.52,9.75-1.21.19c-30.69,4.71-60.92,8.85-90.17,12.86-80.14,11-155.83,21.35-230.63,41.74C782.8,619.32,621.82,684.18,490.44,763.12,416.26,807.69,349.77,858,292.81,912.66a935.62,935.62,0,0,0-155,194.08c-41,68.44-70.33,152.71-82.66,237.28-14.11,96.86-5.9,192.35,23.76,276.14,25.14,71,62,139.46,106.48,197.89a975.59,975.59,0,0,0,158.15,163c56.73,46.44,121.39,89.18,192.19,127.06,128.66,68.84,281.13,124.3,466.12,169.55,57.52,14.07,114.59,20.84,175,28,32.21,3.82,65.52,7.77,99.18,12.95l1.23.19,144.87,7.71c35.66,5,104.61,2.41,135.84-1.89l51.57-1.88,168.73-15.61,100-17.25,71.47,31.29,5.38,2.35c30.79,13.48,61.68,27,88.44,38.71l.54.23,23.06,9.47c91.3,37.55,177.53,73,285.7,98.26l1,.21c19.95,3.84,37.07,8.49,53.63,13,17.39,4.73,35.37,9.62,57.06,13.81,3.07.66,7.25,1.82,11.68,3.05,12.52,3.49,26.71,7.43,40,7.43,20.13,0,30.67-9.18,36-16.88,18.08-26.28-3.79-65-32-109.21l-.09-.14c-2.13-3.35-4-6.24-5-8-28.64-48.11-56.69-114.1-77.25-162.53-4.64-12.91-9.27-25.61-13.37-36.85-4.27-11.68-9.09-24.9-13.87-38.21-1.87-6.26-4.23-13.11-6.54-19.78l12.92-6.64.24-.13c11.4-5.84,23.19-11.89,33-17.16l.7-.37,103.43-64.08,1.17-.77c80.29-56.2,146-114,200.8-176.67,63.16-72.2,110.52-149.06,144.8-235,13.77-34.5,21.25-71.1,29.16-109.87l1.5-7.29C2965.76,1332.56,2917.09,1162.74,2787.17,993.41ZM2489.83,2451.17c-5.32-1.48-10.35-2.88-15-3.86l-.43-.09c-19.91-3.84-37-8.49-53.57-13-17.35-4.72-35.27-9.59-56.86-13.77-103.93-24.31-188.2-59-277.4-95.65l-.79-.32-22.05-9.06c-26.72-11.68-57.55-25.18-88.28-38.63l-8.64-3.79-2.27-1c93.8-23.63,212.23-63.31,277.53-89.84,23.11-9.4,79.8-32,115-46.06,1.82,5.28,3.59,10.5,4.88,14.92l.45,1.38c4.86,13.55,9.62,26.58,14.22,39.18l.17.48q6.5,17.8,13.36,36.81l.52,1.32c21.15,49.82,50.11,118.05,80.65,169.36,1.48,2.48,3.45,5.58,5.95,9.49,5.81,9.12,13.77,21.6,20.4,34.1,2.41,4.55,4.25,8.36,5.65,11.54C2498.3,2453.52,2493.22,2452.11,2489.83,2451.17Zm-96-387.14c-7.2,3.69-14.59,7.48-21.53,11.09l-4.42,1.76c-1,.41-110.45,44-145.05,58-81.92,33.29-247.42,87.19-338.23,102.26l-.18-.08-61.54,10.62-28.58,4.39.87.39-23.62,4.07L1607,2271.85l-52.19,1.91-1.34,0-1.32.19c-27.39,3.95-93.73,6.4-123.74,1.94l-1.17-.18-144.69-7.7c-34-5.21-67.39-9.17-99.66-13-58.84-7-114.41-13.56-168.9-26.9-379-92.72-629.42-232.86-788-441-41.36-54.27-75.58-117.9-99-184-62.24-175.84-9.5-363.2,54.58-470.21,144.9-242,403.71-406.88,814.46-518.89,71.59-19.52,145.69-29.67,224.14-40.42,29-4,59-8.09,89.73-12.79l174.28-9.55c7.47-.06,15-.1,22.42-.1,329.67,0,623.13,63.69,872.23,189.28,166.9,84.15,283.8,174.39,367.91,284,120.51,157.06,166,313,135.15,463.46l-1.5,7.34c-7.44,36.46-14.47,70.9-26.55,101.16-60.2,150.87-164.08,274.28-326.89,388.35q-50.73,31.41-101.42,62.84c-9.29,5-20.55,10.73-31.46,16.32Z"/>
    <path d="M1781.69,1237.42h-51v151.75H1474.14V1237.42h-51v151.75H1276.45v51h146.69V1700H1281.65v51h141.49v131.62h51V1751h256.55v131.62h51V1751h138.62v-51H1781.69V1440.17h143.82v-51H1781.69Zm-51,202.75V1700H1474.14V1440.17Z"/>
    <path d="M1110.35,1335.07c-15.39-21-50.94-60.51-80.81-77-58.38-32.13-138.37-39.85-161.8-40-36.09-.24-125.8,10-168.44,30.43-40.91,19.62-105.95,64.34-131.31,90.28-40.28,41.21-74.93,108.94-85.15,150.61-11.31,46.11-16,136.43-5.06,183.77,9.32,40.41,47.9,133.69,82.94,164.86,26.43,23.51,76.11,45.65,90.71,51.88,35,14.93,97.13,26.35,131,27.26,1.44,0,2.93.06,4.45.06,44.49,0,120.2-16.71,157.47-27.24,23.28-6.58,63.67-21.12,92.65-35.12L1059.5,1844l-22.21-45.92-22.5,10.88c-26.36,12.73-63.12,26-84.33,32-38.08,10.76-111,26.26-146.68,25.28-28.61-.77-83.91-11.07-112.34-23.19-33.15-14.14-63.3-31-76.83-43.08-22.86-20.34-58.56-101.06-67.14-138.22-9-38.9-4.81-120.57,4.9-160.14,8.44-34.41,39.42-93.7,72.09-127.12,21.36-21.85,81.45-62.94,116.89-79.94,32.81-15.74,112.73-25.42,144.95-25.42h1.07c24.24.18,92.53,8.92,137.58,33.71,20.3,11.17,50.35,43.41,64.25,62.39,12.66,17.3,35.13,80.92,40.24,109.37,5,27.64-.12,76.67-4.48,101.09-4.13,23-20.45,65.09-31.75,85.88-5.54,10.2-28.82,31-42.15,39.1-9.57,5.8-40.71,11.16-51.2,8.83-6.72-1.89-23.6-19.37-29.28-32-.45-1-4.24-10.75,0-47.45a38.37,38.37,0,0,0,1-7.92c.39-3,.76-5.67,1.08-8,6.31-45.51,41.41-168.08,54.4-211.47l7.17-24-48.89-14.59-7.15,24c-.43,1.42-6.56,22-14.65,50.52-9.55-16.48-18.81-30.47-23.86-37-16.36-21.29-50.32-28.16-69.1-30.36a216.37,216.37,0,0,0-64.4,2.32c-26.16,5-48.26,14.77-65.67,28.91-44.07,35.8-60.23,65.75-79.78,119.34-26.83,73.56-10.57,126.65,6.59,164.69,8.59,19,17,29,27.72,41.63l.23.28c1.33,1.57,2.72,3.21,4.18,5,14.81,17.7,40.24,27.39,73.55,28,1.18,0,2.35,0,3.54,0,46.18,0,92.57-16.67,116.29-41.65,8.38-7,18.9-16.08,29.46-26q.85,2.48,1.87,4.73c9.39,20.79,36.42,54.48,64.63,60.74,23.23,5.16,68-2.41,88.79-15,15-9.09,48.11-35.54,60.51-58.36,13.41-24.69,32-72.34,37.13-101.24,4.46-25,11.14-82,4.48-119.08C1154.36,1436.16,1130.49,1362.58,1110.35,1335.07ZM837.41,1682.88l-1.1,1.22c-11.89,13.14-44.66,26.33-79.72,26.33l-2.67,0c-20.44-.39-31.85-5.51-35.42-9.77-1.6-1.92-3.13-3.72-4.59-5.45-9.66-11.42-14.51-17.15-20.16-29.67-14.71-32.6-25.52-70.45-5.17-126.23,17.59-48.22,29.31-69,64-97.24,19.43-15.79,48.74-21.19,73.55-21.19a160,160,0,0,1,18.42,1c21,2.46,32.37,8.35,34.65,10.85,11.65,15.18,36.74,57.91,43.76,80.78-11.22,43-18.25,74.49-20.92,93.7-.45,3.26-1,7.52-1.63,12.31-4.64,9.34-28,34.15-61.19,61.8Z"/>
    <rect x="2127.36" y="722.53" width="51" height="1039.2"/>
    <rect x="2126.66" y="1866.38" width="56" height="56.7"/>
  </g>
</svg>
