<svg xmlns="http://www.w3.org/2000/svg" viewBox="0 0 2994.91 3000">
  <title>148Icon_neon 1</title>
  <path d="M2875.21,2187c-13.7-54.35-34.77-103.28-55.15-150.62l-.4-.92c-6.08-14.12-12-28-17.76-41.49-49.39-115.68-92-215.58-158.1-294.18A461.62,461.62,0,0,0,2521,1596.28c-50.58-29.48-109.41-51.92-179.83-68.58l-15.61-3.72-9.9,12.23-.15.18c-8.12,9.57-71.43,64.81-160.69,115.17-79.25,44.73-197.52,95.61-312.37,85.26l35.75-7,1.43-.32c10.36-2.66,102.25-26.58,136.28-46.54,57.43-33.69,107.85-73.11,149.86-117.17,47.68-50,83.54-105.1,106.57-163.76,12.2-31.06,17.88-62.78,23.91-96.41,2.69-15.05,5.48-30.61,8.9-46.05,23.3-105.08,14.06-224.86-24.11-312.58-33.65-77.32-78.76-153.22-127-213.71-16.28-20.41-34.66-39.77-54.14-60.28-34-35.83-69.18-72.87-90.46-114.29-23.65-46.08-42.83-101.44-63.13-160-31-89.48-63-182-115.52-254-29.4-40.35-62.07-70.09-99.87-90.94-42.25-23.31-91.17-34.9-145.29-34.46l-1.07,0-2,.17-1,.16c-8.65,1.44-18.91,2.82-28.87,4.16-10.29,1.39-20.93,2.82-30.4,4.4l-1.24.21-1.22.33c-31.33,8.54-59.29,16.68-84.08,29.89-30.95,16.49-51.79,38.47-63.69,67.19-8.37,20.18-10.45,32.23-14.21,54.1l-.31,1.77c-4.37,25.38-3.4,40.4,13.9,62.26l17.54,22.18,20.27-19.74c7.18-7,12-12.4,15.91-16.76,7.27-8.11,10.58-11.81,24.5-20.29,26.47-16.12,63.76-18.72,99.77-7,28.75,9.39,51.54,27.13,59.49,46.3l.37.89.44.86c53.25,104.89-23.92,229-96.21,284.89l-7.39-.58-4,8c-2.87,1.44-6.19,3.07-8.46,4.19-7.4,3.64-11.24,5.56-13.71,6.85a37.69,37.69,0,0,0-8.89,5.93l-96.48,52.21,71.28-5.7-.52,1.05,97.82-7.82,64,10c-69.94,10.72-140.43,21.78-161.83,26.06-152.06,30.42-287.75,79.52-403.28,146-125.63,72.24-222.67,162.54-288.43,268.38-29.39,47.3-44.62,108.39-44,176.65.51,59.91,13.33,123.17,36.1,178.13,17.7,42.72,47.1,85.89,87.38,128.32,36.52,38.46,81.13,75.51,132.59,110.12,81.08,54.53,173.58,99.07,260.52,126-77.46-3.94-192.2-35.41-303.09-83.42-115.72-50.1-205.85-109-235.24-153.79L678.79,1518l-16.27,2.61c-57.09,9.12-135.47,79.45-204.62,141.51-33.59,30.14-65.31,58.6-83.88,69.72l-1.79,1.07-3.29,2.81-1.34,1.6q-22.25,26.46-39.83,47.22l-.34.41c-101.48,120-102.9,122.36-152,248.63-6.27,16.11-13.36,34.36-21.64,55.34-23.91,60.59-37.4,122.79-40.07,184.87-3,68.36,7.47,133.62,31,193.94,25.17,64.57,53.31,117.73,86,162.52,36.95,50.57,83.44,93.43,142.12,131,51.54,33,111.33,61.14,182.77,86,131,45.53,281.62,72.58,427.29,98.74l9.74,1.75c50.69,9.11,103.64,10.63,154.85,12.1,48.14,1.39,97.93,2.82,145.47,10.58l2,.33h255.84l171.73-4.52q35.37-.73,70.82-1.51l1.78,0,1.76-.3c34.83-5.77,71.12-7.56,106.22-9.3,41.8-2.06,81.27-4,120.66-12,177.08-35.7,329.58-82.38,453.25-138.75,158.76-72.35,272.41-161.86,337.78-266,27.23-43.4,48.9-98.41,61-154.9C2890.54,2314.84,2890.32,2246.92,2875.21,2187Zm-1576.1,732.78c-50.17-8-101-9.48-150.14-10.89-49.33-1.42-100.34-2.89-147.28-11.32l-9.75-1.76c-285.21-51.22-580.12-104.18-720-295.64-30.09-41.18-56.16-90.56-79.7-151-40.31-103.41-37.12-224.72,9-341.57,8.31-21.05,15.44-39.39,21.73-55.57,46.48-119.53,46.48-119.53,143.42-234.2l.31-.37q16.59-19.62,37.35-44.27C426.5,1758.79,457,1731.45,492,1700c31-27.82,66.15-59.36,99.05-84.45,30.87-23.54,51.72-35.11,65.57-40.57,41.9,50.54,130,107,246.24,157.33,57.9,25.07,118.31,46.4,174.71,61.71,60.16,16.33,114.72,25.41,157.79,26.26l3,0,269-57.24L1287,1732.77c-94.51-22.34-201.18-70.45-292.86-132.11C894,1533.34,822.53,1456.76,792.81,1385c-37.33-90.1-50.53-220.38,4.13-308.34,118.75-191.14,352.57-330.08,658.39-391.25,44.51-8.9,312.28-48.73,323.71-50.43l165.73-24.59-373.35-58.24c28.65-27.95,59.08-66.77,80.4-113,24-52.09,44.13-130.92,3.89-211-13.93-32.62-47.63-60.35-90.38-74.3-50-16.31-103.09-11.87-142.11,11.89-4.81,2.93-8.9,5.62-12.43,8.15a128.29,128.29,0,0,1,8.46-28.58c16.83-40.6,63.33-53.57,112.78-67,8.37-1.37,18.1-2.68,27.59-4s19.44-2.62,28.36-4.06h.66c84,0,149.72,34.19,200.93,104.45,48,65.85,78.77,154.71,108.55,240.68,20.9,60.36,40.65,117.38,65.94,166.64,24.62,47.94,62.36,87.68,98.87,126.14,18.68,19.67,36.32,38.25,51.23,57,45.55,57.09,88.2,128.92,120.11,202.24,34.09,78.36,42.18,186.11,21.09,281.2-3.65,16.46-6.53,32.54-9.32,48.14-5.56,31-10.81,60.34-21.17,86.72-49.71,126.58-155.1,208.85-234.76,255.58-20.75,12.17-85.77,31.48-122.44,40.94l-265.93,51.92L1833,1787.14l1.7.16c56.85,5.62,118.68-1.44,183.76-21,52.22-15.68,106.55-39.35,161.48-70.34,80-45.16,138.53-92.62,163.15-115.32C2597.56,1645.19,2657.23,1785,2755,2014l.28.65c5.68,13.3,11.55,27.05,17.54,41l.4.93c19.59,45.49,39.84,92.53,52.55,142.92,28,111.12-7,236.66-54.13,311.77-109.21,174-364.2,302.53-757.91,381.91-35.64,7.18-73.26,9-113.09,11-36,1.77-73.12,3.61-110.2,9.62l-69,1.48h-.13l-171.43,4.51Z"/>
</svg>
