<svg xmlns="http://www.w3.org/2000/svg" viewBox="0 0 2994.91 3000">
  <title>116Icon_neon 1</title>
  <g>
    <path d="M1601.57,1116.77l-24.7,74.16,347.05-247.08,281.87,203.27,17.58,12.64,50.68,43.17-28.29-85.07L2136.27,790.15,2447.4,565.2H2060.85c-38.82-115.45-78.8-234-114.27-339.25l-24.34-72.23-23.55,70.92-.88,2.66c-36.59,110.25-74.36,224.07-111.62,338.68H1399.05l311.13,225ZM1556.63,617h266.61l5.73-17.63c31.18-96.08,62.7-191.53,93.65-284.85,31.62,93.81,63.85,189.5,95.73,284.32l5.83,17.38h265.63L2076,770.76l5.93,17.78,90.86,271.92Q2055.88,976.15,1939,891.81l-14.83-10.72-249.44,177.6,89.8-269.37,5.92-17.76Z"/>
    <path d="M720.29,997.38,917.45,858.81l199.06,141.28-16.75-51.17C1081,891.47,1061.2,827,1042.47,769.55l120.91-87.34,50.6-41.66h-24.56l-193,.34L914.6,414.58,838.36,642.92,654,641.57l-33.64.44,177,129.29Zm29.78-310H870.76l45.69-139.45,42,122.26,5.93,17.19h120.26l-80.4,58-15.14,10.89,5.78,17.72,38,116.47-99.86-71.17L918.29,808.7,802.81,890.59l37.94-115.85,5.78-17.69Z"/>
    <path d="M2053.78,1925.79l-25.43-74.89-23.91,72.19c-26.55,80.24-88.73,268.54-108.13,328.18h-375l63.76,46.15c80.7,58.46,160.82,116.24,238.58,172.3q-52.35,158.15-104.67,316.27l-24.64,74.43,63.71-45.7,272.24-195.31,272.25,195.31,63.44,45.54L2341.58,2786q-52-158.19-103.94-316.36c78-56.67,158.34-115.08,238-174l62.24-46H2163.82C2127,2141.32,2089.78,2031.84,2053.78,1925.79Zm138.83,513.56-15,10.92,5.78,17.67q42.67,129.9,85.36,259.8l-223.62-160.43-14.85-10.66-14.58,10.43L1792,2727.58q42.94-129.78,85.91-259.59l5.88-17.77-16-11.54c-61.76-44.53-125.1-90.19-189-136.41H1915l21-.07,3.75-19.44c4.27-13.78,49.57-151.34,89.23-271.4,30.5,89.81,61.59,181.35,92.45,272.06l5.88,17.29h255.55C2318.92,2347.61,2255,2394.06,2192.61,2439.35Z"/>
    <path d="M2959.82,1487H2664.14q-22.08-64.71-44.16-129.51l-3.86-11.31q-16.51-48.48-33.06-97l-23.87-66.66-43.62,117.12c-20.17,61.56-41,125-61.56,188.12H2156.73l63.84,46.16c58.35,42.19,117.49,84.77,175,126.16q-38.07,116.8-76.14,233.59l-24.16,74.07,263.26-189.14c71,49.87,193,131.78,198.58,135.49l61.18,41-22.71-70.08c-.5-1.53-47.34-146.1-73.45-225,57.59-41.46,116.77-84.12,175.08-127Zm-282.35,142.34-15.57,11.21,5.93,17.8c13.91,41.71,38.3,116.49,56.37,172.06-47.72-32.3-112.09-76.16-151-103.86l-14.86-10.6-166.3,119.48q28.89-88.62,57.77-177.24l5.78-17.72-17.49-12.59c-40.58-29.2-82.09-59.07-123.73-89.1H2491l5.72-17.6c20.4-62.57,41.11-125.79,61.28-187.33l10.14,29.74,2.59,7.6q25.5,74.83,51,149.59l5.91,17.22H2804C2761.49,1568.92,2719,1599.49,2677.47,1629.38Z"/>
    <path d="M860.47,1945.82l43.1,19.26L778.11,1590.56l236.17-170.36,54.68-47.43-44.1-.34H705L571.24,975.75,440,1369.44l-294.45,3-25.25.25-48.45.09,59,47.4c68.4,49.56,154.44,111,205.84,147.72l30.5,21.79L239.5,1978.14l332.69-239.43,270.7,194.49ZM587.06,1686.6l-14.89-10.71L336.86,1845.24,415.8,1605l.3-.3,9.76-34.91-10.08-8-2.35-1.7c-2.36-1.71-5.84-4.2-10.28-7.39-8.77-6.28-21.32-15.24-36.52-26.1l-.45-.32c-36.86-26.33-91.59-65.41-144.74-103.63l237.22-2.42,18.19-.17,94.67-283.93,91,269.9,5.84,17.38H922.62q-94.75,68.37-189.54,136.73l-15.23,11L810,1846.75Z"/>
    <path d="M1091.19,2125.92l-24.44-72.33-100.1,303.25-236.88,1.64-49.11.33L909.72,2528,836,2752l-4.94,14.94-16.85,53.67L876,2781.44l191.93-138.77,194.26,138.85,63.63,45.46-24.6-74.23q-37.24-112.41-74.45-224.82l168.57-121.87,63.11-45.62-288.75-2Q1130.45,2242.17,1091.19,2125.92Zm90.54,371.63-15.13,10.95,5.87,17.72q27.87,84.18,55.74,168.33-72.78-52-145.57-104.05l-14.91-10.64-14.84,10.74L908.46,2695,964,2526.22l5.89-17.77-138.47-99.67,172.19-1.19,63.71-193q29.94,88.66,59.88,177.37l5.82,17.2,169.34,1.17Z"/>
  </g>
</svg>
