<svg xmlns="http://www.w3.org/2000/svg" viewBox="0 0 2994.91 3000">
  <title>56Icon_neon 1</title>
  <g>
    <path d="M2284.24,2300.45c-10.71-30.73-19.28-61.31-26.95-89.75l-6.19-23-23.43,4.66c-300,59.83-514.25,89.7-728.59,89.7-213.08,0-426.19-29.55-723.26-88.57l-21.3-4.23-50,134.33,23.23,9.17c317.54,125.7,527.17,400.38,647.13,608.7l5.25,9.1,10.17,2.76a419.52,419.52,0,0,0,216.3,0l10-2.69,5.29-8.85c5.83-9.76,11.79-19.83,17.05-28.73,23.23-39.24,45.17-76.33,70.91-113.5,182.79-242.8,360.56-391.14,559.4-466.83l23.13-8.8Zm-700.78,606.1a369.49,369.49,0,0,1-169.79,0c-81.25-139.38-174.7-261.19-277.85-362.19C1023,2433.94,899.91,2350,769.66,2294.77l17.53-47.1c149.69,29.41,270,49.45,377.17,62.85,121.18,15.15,227.67,22.21,334.88,22.21h2.49c199.56-.2,400.87-24.35,712.61-85.79,4.26,15.28,8.87,31,14,47.08a996.23,996.23,0,0,0-150.15,77.62c-51.74,32.47-103.25,71.1-153.1,114.82-86.1,75.51-169.94,168-256.31,282.76l-.59.81c-26.9,38.83-49.37,76.81-73.21,117.09C1591.21,2893.49,1587.35,2900,1583.46,2906.55Z"/>
    <path d="M1082.62,1285.22c96.08,0,208.47-24,325-69.29l20-7.77-4.23-21c-35-174.17-83.94-305.76-154-414.12-80.9-125.22-191-219.41-336.6-287.95l-23.25-10.94-10.76,23.32c-34.2,74.07-70,153.21-99.41,234.75-76.77,210.86-66.29,372.27,30.32,466.79C887.39,1255.4,974.84,1285.22,1082.62,1285.22ZM865.39,1162.53c-81.22-79.47-87.47-222.25-18-413,25.67-71.27,56.57-141,86.88-207.09C1168.72,660.71,1300.11,852.38,1369,1176c-103.61,38.2-202,58.21-286.53,58.21q-5.48,0-10.88-.11C982.68,1232.27,911.37,1207.51,865.39,1162.53Z"/>
    <path d="M1918.42,1284.12c8.62,0,17.22-.19,25.55-.58,72.07-3.36,133.12-21.35,181.46-53.46,49-32.55,85.31-79.73,107.93-140.23l.53-1.41.36-1.48c19.69-81.6,16.12-170.24-10.9-271-23.35-87.05-60.51-171.16-96.44-252.51l-.11-.25c-9.94-22.49-19.32-43.73-28.45-65.1l-10.16-23.78-23.65,10.49c-61,27.13-122.48,66.69-187.81,120.93-84.26,64.54-150.87,151-203.63,264.26-40.15,86.22-71.73,186.69-99.38,316.2l-4.58,21.51,20.61,7.7C1673.79,1246.76,1799,1284.12,1918.42,1284.12ZM1908.12,646l.81-.64c53.39-44.37,103.68-78.2,153-102.87,5.95,13.64,12,27.39,18.31,41.63,67.37,152.49,143.69,325.26,104.79,489.39-38.41,101.23-118.06,153.29-243.44,159.13-108.49,5.07-226.91-26.81-313.28-57.42C1668.59,993.82,1738.08,776,1908.12,646Z"/>
  </g>
</svg>
