<svg xmlns="http://www.w3.org/2000/svg" viewBox="0 0 2994.91 3000">
  <title>172Icon_neon 1</title>
  <g>
    <path d="M2796.29,1355.12c-1.79-30.35-3.47-59-10-88.62-16.62-75.94-37.9-164.49-69.76-245.46-79.11-201-200.67-372.25-361.32-508.92s-355.32-234.43-578.61-290.58c-78.68-19.78-174.81-29.41-293.89-29.43H1482l-100.43,6.28-1.28.21c-23,3.86-46.08,6.74-68.43,9.52-41.64,5.19-81,10.09-119.46,20.74-90.17,25-173,54-246.12,86.21-64.83,28.58-137.94,71.63-200.58,118.1L723.9,449.31l17.44,20.76C862.18,613.8,1350.53,1224.76,1822.81,1815.6l1.83,2.28c188.17,235.4,365.9,457.75,516.8,646.06l15.61,19.47,19.81-15.2c48.54-37.27,118.85-120.68,164.32-180.78,62.9-83.17,113.07-169.19,153.38-263,41.82-97.34,72.9-202.67,95-322,9.34-50.41,29.34-178.21,13.4-275.92C2799.09,1402.67,2797.67,1378.51,2796.29,1355.12ZM1764.21,271c431.13,108.42,752.49,381.42,904.9,768.71,30.55,77.64,51.21,163.72,67.4,237.7,5.63,25.7,7.21,52.44,8.87,80.75,1.45,24.65,2.95,50.13,7.26,76.56,14.65,89.81-4.36,210.63-13.21,258.42C2698,1916.93,2622,2096,2500.5,2256.66c-37.63,49.75-92.63,115.91-135.61,155-148.38-185.2-320.44-400.46-502.24-627.9C1410.44,1218,943.47,633.83,798,458.33c54.41-38.15,114.76-72.74,168.87-96.6,70.89-31.25,151.35-59.42,239.14-83.71,34.89-9.66,72.43-14.34,112.17-19.29,22.46-2.8,45.67-5.69,69.21-9.61l96.19-6C1598,243.17,1689.81,252.3,1764.21,271Z"/>
    <path d="M653.52,534.73l-18.07-22.6-89,91.74-104,124.6-.59.69-.52.74C354.29,851,288.39,990.34,234,1168.27c-26.67,87.19-41.89,200.59-42.84,319.3-1,119.76,12.77,234,38.67,321.84,5,17,9.76,34.07,14.38,50.7,13.4,48.21,26.06,93.74,45,138.33,107.72,254.19,279.32,460.33,496.23,596.15,72.74,45.56,143.46,82.52,216.21,113a1336.5,1336.5,0,0,0,252.94,77.71c73.43,14.93,151.63,22.5,232.43,22.5a1353.78,1353.78,0,0,0,210.75-16.75c134.19-21.21,266.3-62.59,372-116.53,4.43-2.26,9.14-4.65,14.06-7.14,51.66-26.2,122.4-62.08,160.85-96l18.11-16-15-18.94C2204.12,2481.53,1174.72,1185,653.52,534.73Zm-21.74,54.43c493.27,615.66,1427.76,1792.3,1560,1958.88-36.17,25.7-90,53-131.12,73.85l-14.17,7.2C1889.6,2709.16,1680.14,2757,1486.21,2757h0c-76.41,0-150.93-7.28-221.51-21.63-160.15-32.56-303.85-91-452.25-184-208-130.24-372.71-328.32-476.34-572.83-17.6-41.53-29.82-85.52-42.77-132.09-4.65-16.75-9.47-34.07-14.6-51.47-50.42-170.89-48.65-439.62,4-611.79s116-306.46,199.5-422.77L584.42,638Z"/>
    <path d="M2970.47,1384.38l-8.88-96.68-.22-1.16c-23.39-124.16-46.95-227.11-85.85-325.95-73.09-185.69-178.05-349.35-311.95-486.44C2431.34,338.78,2271.5,229.92,2088.5,150.59c-95.22-41.28-184.68-71.33-273.5-91.87-108.67-25.14-217.14-36.6-331.58-35l-48.86,2-135.06,12-1.13.21c-105.43,19.23-200.17,37.83-292,70.86C794.33,185,610.44,300.1,459.81,450.88,312.57,598.27,196.09,780.71,113.61,993.13,82.35,1073.64,64.72,1158.34,46.06,1248l-3.68,17.67-9.87,90.8c-9.91,57.73-16.62,143.32-6,211.93l10.74,131.78.11,1.31.24,1.28q2.22,11.84,4.39,23.5c12,64.53,23.42,125.48,41.52,183.75,66.92,215.33,168.58,403.54,302.19,559.4C519,2624.89,684.8,2749.07,878.51,2838.5c87.7,40.48,190.74,75.39,315,106.71,29,7.32,57.25,10.26,87.14,13.38,19.67,2,40,4.17,60.19,7.66,40.25,7,87.12,10.2,147.51,10.2h48.58l1-.09,166.13-13.76,1.23-.1,2.47-.46c90.69-16.59,176.35-32.26,258.06-60.71,209.51-72.95,392.33-181,543.39-321.17,150.59-139.73,269.77-311.49,354.23-510.52,33.38-78.68,60.19-167.63,86.92-288.42,5.13-23.2,7.21-45.15,9.41-68.41,1.66-17.49,3.37-35.58,6.53-53.57C2981.2,1574.57,2982.89,1461.71,2970.47,1384.38Zm-54.36,266c-3.51,20-5.32,39.11-7.07,57.6-2.05,21.62-4,42-8.44,62.18-26,117.63-51.95,203.83-84.07,279.52-163.33,384.89-463.28,662.72-867.44,803.45-78,27.15-161.75,42.48-250.5,58.71l-163.76,13.57h-46.47c-57.4,0-101.52-3-138.82-9.46-21.87-3.78-43.07-6-63.59-8.13-28-2.92-54.48-5.67-80-12.1-121.18-30.55-221.31-64.43-306.1-103.57-378.68-174.81-636.95-476.71-767.64-897.3-17.22-55.42-28.33-114.94-40.09-178l-.2-1.08q-2-10.53-4-21.15L77.29,1563.31l-.08-.94-.14-.93c-9.94-63-3.5-143.09,5.84-197.08l.13-.78,9.78-89.93L96,1258.38c18.21-87.54,35.42-170.23,65.15-246.79,163.13-420.1,453.31-707.72,862.47-854.88,87.84-31.59,180-49.73,282.73-68.47l130.91-11.63,47.2-1.93q9.33-.12,18.54-.12c252.15,0,442.77,69.74,565.21,122.82,356.61,154.59,619.36,425,759.85,781.89,37.32,94.8,60.18,194.72,83,315.5q4.36,47.55,8.74,95.16l.08.86.14.86C2931.74,1464,2930.15,1570.43,2916.11,1650.42Z"/>
  </g>
</svg>
