<svg xmlns="http://www.w3.org/2000/svg" viewBox="0 0 2994.91 3000">
  <title>66Icon_neon 1</title>
  <g>
    <path d="M2180.24,974.44,1762.19,833l-8.61-2.92L1340.11,985.11l-58.82-28.68-345.1-11.9-13.85-.47L498.82,1550.74l189.31,189.81a129.29,129.29,0,0,0,85.93,226c1.56,0,3.1,0,4.64-.09a119.3,119.3,0,0,0-11.16,48.76c-.46,28.44,8.89,55,26.34,74.68,9.35,10.56,28.85,27.7,40.12,35.26a119.57,119.57,0,0,0,50.39,19.24,122,122,0,0,0-15.78,59.33c-.27,30.14,10.19,58.52,29.44,79.91,9.47,10.53,30.2,29.74,42.74,38.73a121,121,0,0,0,71,22.61c4.11,0,8.28-.2,12.4-.61,29.9-3,57-16.36,76.44-37.74l12.17-13.41c7.35,71.64,68,127.71,141.6,127.71a141.53,141.53,0,0,0,84.48-27.86l39,33.11,96.7-52.54L1396,2293.33a142.47,142.47,0,0,0-3.42-49.09l26.71-.58,186.39,185,7.45,7.38h10.49c1.82,0,45-.27,89.29-23.44,20.29-10.61,71.89-49.87,77.73-54.33l23.09-17.67-282.58-283.35-17.73-48.43,59,6.32L1898,2348.67l8.35,8.61,12-1c.23,0,23.14-1.88,49.53-6,37.39-5.8,62.37-13,76.38-22.11,14.19-9.2,29.74-27.8,47.52-56.86,12.44-20.35,21.46-38.56,21.54-38.71l7.93-16-298.73-312.95-8.12-33.64h61.24l280,275.81,4.42,4.39,6,1.86c3,.94,75.14,22.62,126.14-22.61,43.23-38.34,51-80.86,49.94-109.77-1.14-30.64-12.29-52.36-13.56-54.73l-1.81-3.38-92.7-92.55,248.56-241.26,13.29-12.93-311-631Zm17.88,858.43-639.47-657.61-22.28-23-77.16,120.6-1.22,2.42-.46,1.23c-21.32,56.54-85.15,211.77-124,250.61-14.43,14.43-44.63,37.57-79.57,56.76-34.24,18.79-64.47,28.82-80.93,26.86-.84-.18-10.63-2.65-38.07-24.28-6.89-5.42-13.35-10.86-18.64-15.44l241.17-538,397-148.86L2143.86,1016l289.88,588.2Zm60.2,258.49c-23.25,20.62-58.4,16-71.87,13.3l-282.52-278.25-7.45-7.34H1749.56l24.93,103.27,1.65,6.71,283.17,296.66c-14.58,26.44-32.51,53-42.85,59.73-11.56,7.49-52.94,15.09-90.47,18.95L1602.52,1973l-6.42-6.62-158.79-17,47.87,130.71,1.93,5.25,249.21,249.88c-19.7,14.49-38.9,27.92-47.06,32.19-21.94,11.47-43.7,15.48-55.9,16.88l-185.9-184.51-7.68-7.58-71.12,1.53a142.25,142.25,0,0,0-114.25-57.54h-.06c14.48-19.8,22.94-44.3,24.06-70.24,1.31-30.44-7.66-60.27-25.28-84-10-13.49-32.23-33-45.41-41.37-24.86-15.84-55.47-22-86.2-17.45a135.45,135.45,0,0,0-27.09,6.94,129,129,0,0,0-26.68-71.63c-7.24-9.37-27.64-30.22-44.23-38.32-23.46-11.46-51.66-14.58-79.39-8.79a133.6,133.6,0,0,0-41.08,16c-5-66.75-61-119.52-129-119.52a128.76,128.76,0,0,0-40.19,6.4L565.06,1544.94,948.3,996l320.39,11,36.59,17.85-243.1,542.31-7.49,16.62,13.29,12.45c1.68,1.57,16.94,15.81,35.36,30.35,36.31,28.65,53.55,33.57,63.35,34.78,35.28,4.35,80.22-15.32,111.7-32.59,34.5-18.93,70.31-44.66,91.21-65.56,23.49-23.5,52.43-74.12,88.46-154.76,23.56-52.72,41.91-100.11,46.23-111.39l40.34-63,634.07,653.2,17.76,18.33,1-1,87.32,87.19a90.36,90.36,0,0,1,6.39,29.88C2292.1,2047.75,2281.06,2071.2,2258.32,2091.36Zm-874.07,273.27-10.37-8.8q2.4-3.69,4.56-7.53L1390.9,2361ZM774.06,1758.79a78.36,78.36,0,1,1-78.36,78.35A78.44,78.44,0,0,1,774.06,1758.79ZM834,1974.1l78.63-89.39c21-23.91,60.76-32.33,88.55-18.76,5.61,2.74,20.33,16,26.25,23.67,22.52,29.14,19.44,64.83,4.8,87.7L933.62,2086c-20.93,12.14-49.25,11.55-71.2-3.18h0c-7.71-5.18-23.88-19.42-30.35-26.73C813.32,2034.86,814.2,1996.57,834,1974.1Zm103,184,29.89-32.93A107.47,107.47,0,0,0,986.18,2108l78.62-89.39a114,114,0,0,0,7.62-9.72l10.56-11.64c13.86-15.27,35.66-24.39,58.31-24.39,14.51,0,28,3.71,39,10.74,8.35,5.32,26,20.8,31.87,28.75,21.48,29,20,73.41-3.34,99.11l-146,160.86c-12.55,13.83-31.07,21.76-50.83,21.76h0a70.71,70.71,0,0,1-41.52-13.19c-9.16-6.57-27.23-23.26-34.55-31.4C913.87,2224.93,914.35,2183.09,937,2158.11Zm317.4,29.09a91.34,91.34,0,1,1-91.34,91.34A91.45,91.45,0,0,1,1254.41,2187.2Z"/>
    <path d="M2547.75,662.07l-10.92-21.88-22.32,10c-6.89,3.08-169.27,75.91-219.57,113.39-23.1,17.22-41.38,46.11-50.14,79.26-8.69,32.86-7.14,66,4.24,91,10.22,22.44,21.88,48.46,34.22,76,77.92,174,195.67,436.95,291.13,553.9,22.8,27.94,56.5,36.45,80.75,38.67,5.29.49,10.7.73,16.1.73,19.66,0,40.13-3.36,54.77-9,54.44-21,201.15-101.77,207.36-105.2l21.45-11.82Zm112.05,889.57c-14.53-1.33-34.29-5.91-45.9-20.14-91.19-111.72-207.28-371-284.1-542.5-12.38-27.64-24.06-53.74-34.35-76.32h0c-6.56-14.4-7-35.84-1.12-57.35,5.94-21.77,17.56-40.78,31.09-50.87,31.68-23.61,126.82-69.63,187.68-97.61L2887.27,1456c-43.18,23.43-140.29,75.4-179.59,90.54C2700.81,1549.2,2682,1553.67,2659.8,1551.64Z"/>
    <path d="M781.21,972.3c15.85-25.65,30.83-49.87,43.88-70.67,14.58-23.24,20.5-55.91,16.24-89.63-4.3-34-18.59-65.08-39.22-85.2C757.29,683.06,605.9,589.33,599.49,585.36l-20.8-12.86L53.6,1346.8l19.7,14.52c1.4,1,140.07,103.53,191.64,131.72,14.08,7.7,39.64,16.36,69.15,17.58,2.23.09,4.48.14,6.69.14,32,0,59.09-9.61,78.47-27.79,110.09-103.3,261.6-348.35,361.86-510.51ZM384.35,1445.78c-13.39,12.57-33.58,14.48-48.16,13.88-22.19-.91-39.85-7.58-46.79-11.37-37-20.21-126.33-84.57-166-113.5l470-693.08c56.62,35.78,144.83,94,173.11,121.59,12.08,11.79,21.08,32.17,24.08,54.53,3,22.1-.28,43.3-8.69,56.7-13.14,21-28.17,45.27-44.09,71l-.06.1C638.89,1105.51,489.52,1347.11,384.35,1445.78Z"/>
  </g>
</svg>
