<svg xmlns="http://www.w3.org/2000/svg" viewBox="0 0 2994.91 3000">
  <title>146Icon_neon 1</title>
  <g>
    <path d="M699.2,1747.13c40.93,5.75,81.59,12.45,120.95,18.93,57.17,9.42,116.28,19.16,176.74,26,144.38,16.42,330.29,31.47,523.5,42.38,212.08,12,419.9,18.3,601,18.3,73,0,141.91-1,204.85-3.08l30.57-1-78.35-361.52,64.08-476.68,2.29-22.8-128.51-94.13,152,69.62,4.31,1.54,590.59.21L1674.11,543.76l-13.48-4.26-773,660.73-29.58,25.32L1055.38,1311l-325-32.9-19.43-.72-142.14,416.4-8.68,27.46L698.09,1747Zm530.36-397.92L950.44,1213.68l721.81-617,1021.8,324-289.31,2.45L2056,797.76l234.27,218.91-62.94,468.23-.59,4.34L2294,1799.63c-53.91,1.42-111.83,2.15-172.61,2.15-404.12,0-863.2-31.29-1118.72-60.35-59.21-6.74-117.7-16.38-174.28-25.7-39.44-6.5-80.22-13.22-121.51-19l-80.73-15.08,110.49-350.89Z"/>
    <path d="M2712.43,2014.36l-1-1.2c-40.09-43.71-82.21-71-131.78-97.67-42.09-22.65-76.63-34.62-147.83-56.07l-40-12L2430.7,2059c-38.22,7.64-142.48,8.09-305.83,11.3-179.93,3.53-398.22.47-614.65-8.63-245.71-10.32-468.8-27.62-645.17-50-103.49-13.14-190.58-28-258.84-44-54.91-12.93-98-26.72-128.5-41.09L560,1680.78l-39.58,4.31c-53.37,5.8-164,26.59-199.74,39.13-7.91,2.77-16.49,5.67-25.58,8.74-86.52,29.21-217.27,73.36-266.63,171.83l-.41.82-.35.85c-14.38,34.86-14.13,70.64.75,106.33,21.05,50.47,72.1,100.55,151.76,148.87,69.31,42,143.83,72.63,168.32,82.68,202.39,83.09,431.34,124.58,673.74,168.5l2.39.44q28,5.08,56.41,10.24l1.12.21,1.14.1,311.24,27.84c63.07,9.88,131.07,11.22,189.31,11.22,22.31,0,44.86-.23,66.68-.45,22-.22,44.7-.44,67-.45h.35l180.59-2.53h.83l222.68-17.84,1.15-.09,1.14-.2c25.71-4.47,52.35-8.79,80.61-13.38,96.61-15.68,206.12-33.45,301.41-61.85,112.7-33.6,188.71-77.28,232.38-133.52,29.83-38.42,39.62-79.08,29.09-120.84C2758.56,2075,2734.62,2041.89,2712.43,2014.36ZM1401.7,2401.15l-.84-.13-311.63-27.87h-.14Q1061,2368,1033.21,2363l-1.81-.33c-239.67-43.43-466.05-84.46-663.47-165.5-23.57-9.68-95.32-39.13-161.23-79.11-70.22-42.59-114.34-84.61-131.13-124.89-9.5-22.76-9.84-44.49-1-66.38,40.34-79.13,158.58-119.06,236.94-145.51,9.25-3.13,18-6.08,26.1-8.92,24.32-8.52,95.12-22.68,148.41-31l-70.1,209.27L433.75,1961c35.2,20.63,87.64,39,160.3,56.13,70.08,16.53,159.1,31.71,264.58,45.1,177.76,22.58,402.34,40,649.45,50.38,217.46,9.14,436.86,12.21,617.79,8.66,88.55-1.74,162.08-5,218.54-9.7,79.74-6.63,103.29-14.36,114-19.6l17.44-8.47-32.15-175c95.41,31.51,163.55,66.8,229.51,138.5,19,23.66,37.54,49.17,44.58,75.54,7.29,27.3,1.13,52.32-19.37,78.73-36.92,47.55-104.52,85.47-206.67,115.92-92.14,27.47-199.92,45-295,60.39-27.93,4.53-54.34,8.82-80,13.27L1897,2408.48,1717.42,2411c-22.39,0-45.19.24-67.33.46C1565.36,2412.29,1477.75,2413.17,1401.7,2401.15Z"/>
  </g>
</svg>
