<svg xmlns="http://www.w3.org/2000/svg" viewBox="0 0 2994.91 3000">
  <title>112Icon_neon 1</title>
  <g>
    <path d="M2881.85,134.43l-6.67-50.52-35.72,34.92L1081.67,1837.44,109.46,2734.3l-19.73,18.2,162.73,159.16,13.72,13.4,16.68-9.46c4.23-2.4,424.44-241.33,545.23-347.87,113.67-100.26,363.58-427.42,432-518l415.36,408.1,18.41,18.06,17.86-18.62c8.7-9.07,213.77-223.19,278.69-299.88,133.23-157.41,379-465.93,483.45-628.23,35.63-55.38,128.52-202.29,221.3-369.94,93.09-168.21,154.42-300.11,182.29-392,23.14-76.34,33.77-239.33,33.93-330.67C2911.51,361.08,2883.06,143.66,2881.85,134.43Zm-44.17,57.47c8.56,70,22.79,194,22.71,244.54-.15,85.69-10.33,245.37-31.74,316-73.07,241-364.67,697.89-397.67,749.19-103.2,160.38-347.13,466.49-479.49,622.88-53.48,63.18-206.45,224.09-258.74,278.88L1135.65,1856ZM1223.41,2013.71c-26.9,35.65-91.69,120.91-165.33,213.54-121.18,152.43-212.37,256.94-263.73,302.23-102.34,90.27-441.43,287.05-520,332.23L163.77,2753.58l934.9-862.43Z"/>
    <path d="M2091.18,1532.33c18.67,10.33,42.79,11.13,49.74,11.13,10.59,0,19.48-1.42,26.42-4.22,15-6,26.5-21.07,33.54-32.6,4.24-6.94,14.17-24.9,15-41.68.76-15.74-5.6-36.24-7.57-42.15-6.67-20-15.27-34.15-25.57-42.12a41.37,41.37,0,0,0-5.45-3.56L2174,1366.8l-23.81,7.43h0l-23.89,7.45,3.33,10.63a49.88,49.88,0,0,0-4.31,15.35c-1.09,8.69-.57,18-.06,26.94.24,4.26.6,10.65.47,14.89-3.7,1.91-9.47,4.29-13.32,5.88-8.24,3.41-16.76,6.93-24.05,11.66-20.64,13.4-20.06,30.64-18.85,37.43C2071,1512.51,2075.87,1523.86,2091.18,1532.33Z"/>
  </g>
</svg>
