<svg xmlns="http://www.w3.org/2000/svg" viewBox="0 0 2994.91 3000">
  <title>76Icon_neon 1</title>
  <path d="M2883.63,440.69c-21.91-76.53-60.1-142.38-113.49-195.72-66.35-66.28-140.21-112.51-219.54-137.42-63.69-20-130.81-26.29-199.52-18.72-116.44,12.83-199.35,62.5-200.2,63l-2.57,1.56-2.13,2.12L172.23,2124.25l-1,1-1.69,2.1-.67,1c-.57.87-57.52,88.94-77.33,211-11.72,72.19-8.58,142.26,9.34,208.28,22.39,82.46,67.88,158.37,135.21,225.64,61.57,61.5,134,103.35,215.36,124.36a516.8,516.8,0,0,0,129.09,15.89,611.61,611.61,0,0,0,79.53-5.33c124.4-16.35,218.66-66.13,219.59-66.63l1.68-.89,3.06-2.29L2859.6,868.43l2-2,3.1-4.89.94-2.63c.34-1,34.11-96.7,39.41-218.55C2908.15,568.38,2901,501.19,2883.63,440.69Zm-29.57,197.46c-4.27,98.35-28,177.57-34.73,198.41L852.53,2798.14c-16.66,8.26-97.19,46.08-199.11,59.47a547.25,547.25,0,0,1-71.28,4.75c-95.94,0-211.34-26.66-310-125.2C134.55,2599.7,125.37,2449.4,141.9,2347.53c16.29-100.4,60.28-175.92,68.41-189.24L2179.76,194.07c13.69-7.64,83.31-44.23,176.91-54.55,96.86-10.67,241,5.22,377.42,141.53C2841.42,388.27,2858.57,534.42,2854.06,638.15Z"/>
</svg>
