<svg xmlns="http://www.w3.org/2000/svg" viewBox="0 0 2994.91 3000">
  <title>96Icon_neon 1</title>
  <g>
    <path d="M2481,1285.46V1773h472.61V1285.46ZM2532,1722V1336.46h370.61V1722Z"/>
    <path d="M34.87,1773H508.12V1283.42H34.87Zm422.25-438.61V1722H85.87V1334.42Z"/>
    <path d="M2391.9,1268.46l-49.83,10.87,5.32,24.42a891.09,891.09,0,0,1,20.33,189.55c0,484.64-391.14,878.92-871.9,878.92s-871.9-394.28-871.9-878.92,391.13-878.91,871.9-878.91A864.32,864.32,0,0,1,1960,749.15l21.1,13.41,27.34-43-21.1-13.41A917.43,917.43,0,0,0,843.16,835.82,927.32,927.32,0,0,0,645.43,1131.4c-48.12,114.64-72.51,236.4-72.51,361.9s24.39,247.27,72.51,361.91a929.61,929.61,0,0,0,491.08,494.89c113.82,48.52,234.7,73.12,359.31,73.12s245.49-24.6,359.3-73.12a929.67,929.67,0,0,0,491.09-494.89c48.11-114.64,72.51-236.4,72.51-361.91a942.53,942.53,0,0,0-21.5-200.41Z"/>
  </g>
</svg>
