<svg xmlns="http://www.w3.org/2000/svg" viewBox="0 0 2994.91 3000">
  <title>122Icon_neon 1</title>
  <g>
    <path d="M2912.31,2336.63l-.15-25.35H96.44l-1.33,202L95,2538.94l2791.85.88h8.46l18.29-13.63ZM147.1,2362.28H2861.48l.83,126.54-2716-.86Z"/>
    <path d="M2688.23,808.39l25.15,5.08,4.93-25.22q12.51-64.46,25-128.93l4.78-24.84-821.87-165.1-25.16-5-4.88,25.15q-12.53,64.07-25.06,128.14l-4.82,24.86,24.81,5Zm-746.92-284,747.11,150.08q-7.64,39.4-15.28,78.81L1926.05,602.51Q1933.67,563.47,1941.31,524.43Z"/>
    <path d="M1743.87,1838.27l-5.08,25.08,586.26,116.47,24.89,5L2572,895.68l5.07-25L1988.89,752.77l-25-5-72,357.62L145.44,755.28l-25.06-5L47.31,1118.32l-4.93,24.87,1769.06,360.87Zm773-927.68L2310.11,1924.85,1798.93,1823.3l67.54-334.09,5-24.94L102.28,1103.36,160.45,810.3l1746.44,350.1,25,5,72-357.62Z"/>
    <path d="M1608.69,1915.83l-5.08,25q-13.54,66.93-27.07,133.87l-5,25,856,172,4.92-25.19q13-67,26-133.94l4.77-24.83-829.58-166.87Zm778.6,295.75-755.7-151.86q8.48-41.91,17-83.84l755,151.87Z"/>
  </g>
</svg>
