<svg xmlns="http://www.w3.org/2000/svg" viewBox="0 0 2994.91 3000">
  <title>22Icon_neon 1</title>
  <g>
    <circle cx="1091.05" cy="1922.63" r="28.57"/>
    <circle cx="1971.9" cy="1950.15" r="28.57"/>
    <path d="M2941.1,1837c-7.9-73.24-38.37-143.35-85.79-197.41-42.88-48.89-98-83.58-161.27-101.76a361.77,361.77,0,0,0,69.28-162.3c10.84-68.44,1.51-140.06-26.29-201.67-25.11-55.68-64.23-101.81-113.12-133.42-42.61-27.54-90.65-43.37-143.27-47.27a389.45,389.45,0,0,0,30.15-124.23c4.09-56.33-4.39-112.12-24.51-161.32-16.62-40.63-40.5-75.69-71-104.2-31.52-29.49-69.13-51-111.86-64a280.36,280.36,0,0,0-103.12-46.79c-36.62-8.31-74.78-9.37-113.42-3.16-44.88,7.2-89.76,24.48-129.77,49.95a368.61,368.61,0,0,0-66.19,54c-20.43-101.89-66.16-189.21-134-254.86-72.93-70.63-168.2-112.35-268.26-117.47a400.39,400.39,0,0,0-268.8,85.39c-73.42,58-126.82,141.46-156,243.16a366.37,366.37,0,0,0-63-45.2C968.6,486.21,934.63,474.3,900,469c-65.36-9.93-130.51,3.78-188.42,39.68C647.71,548.3,599,611.43,574.47,686.45c-21.77,66.56-23.39,138-5.06,209-53.4-12.25-107.24-12-158,.87a317.24,317.24,0,0,0-158.93,96.5,312.16,312.16,0,0,0-76.7,163.56c-8.43,58.29.15,118.25,24.85,174.59-53.6,48.53-90.78,114.44-105.49,187.63C80.41,1592,89.24,1667.49,120,1733.18a335.74,335.74,0,0,0-74.1,147.48,343.57,343.57,0,0,0,7,173.06C69.58,2108.6,99.7,2158.15,140,2197a319.48,319.48,0,0,0,129.77,76.2,375.23,375.23,0,0,0-16.06,120.59C255.31,2443.19,267,2492,287.6,2535c18.11,37.83,42.53,70.7,72.6,97.71a302.66,302.66,0,0,0,199.34,76.67A279.39,279.39,0,0,0,602.6,2706,275.72,275.72,0,0,0,718,2659.62c37.58-26.08,69.38-61.81,92-103.33,23.57-43.32,36.92-91.4,39.66-142.87l1.59-29.41-29.34,2.64c-81.42,7.32-148.75-24.34-189.57-89.16-52.42-83.24-53.39-206-2.3-291.94,40.7-68.45,109.05-103.2,192.53-97.84l12,.77,8.23-8.79c35.38-37.81,59.95-84,73-137.43,10-40.58,12.84-85,8.54-129.8,56-12.41,111.45-41.94,158.37-84.73s82.76-96.29,102.28-152.3q4.56.18,9.1.18c60.81,0,122.69-23.45,178.93-67.8,44.2-34.85,83.39-81.32,113.34-134.38a471.83,471.83,0,0,0,31.9-68.71,424.87,424.87,0,0,0,40.4,67.93c35.82,49.4,81.58,92.12,132.34,123.54,57,35.3,117,54,173.28,54a245.21,245.21,0,0,0,47.81-4.63c16.41,53,46.7,104.52,86.94,147.35,41.28,43.93,91.33,76.61,143.1,93.8-10.61,44.59-13.42,92.06-7.86,136.12,7.39,58.47,28.91,109.57,62.22,147.78l8.28,9.49,12.56-.79c5.19-.33,10.28-.49,15.31-.49,129.93,0,203.37,108,216.9,212.19,13.93,107.2-32.35,234.69-166.87,261.27l-21.09,4.17.55,21.51c1.16,44,10.32,84.89,27.21,121.56a261.48,261.48,0,0,0,69.67,91.61c50.81,42.62,116.44,65.15,189.8,65.15a376.63,376.63,0,0,0,55.39-4.19c53.43-7.24,99.91-25.13,138.16-53.18,38.79-28.44,67.48-66.06,85.28-111.82,21.73-55.86,25.6-120.18,11.2-186-12-54.83-36.12-108.19-70.35-156,58-29.52,104.15-73.63,134.49-128.94C2935.6,1976.77,2948.76,1907.9,2941.1,1837Zm-221.8,294.41-32.84,13,22.6,27.09c80.54,96.68,108.46,221.16,71.13,317.14-28.66,73.69-93.62,120.91-182.91,133l-.34,0c-79.91,11.94-152.73-5.67-205.07-49.58-44.14-37-71.21-91.5-77.41-154.93,65-18.14,116.46-57.76,149.77-115.53,32.41-56.2,45.18-126.21,36-197.15-9.28-71.45-39.87-136.33-86.15-182.68-49.81-49.89-114.09-75.29-186.55-73.9-53-69.66-53.6-175-29.66-251.17l8.26-26.31-26.87-6.18c-104.84-24.14-199.06-123.05-224-235.22l-6.12-27.3-26.59,8.62c-61,19.7-133.69,6.41-204.54-37.43-92.58-57.3-164-156.42-177.62-246.66l-29.49-195-21.08,196.13c-10.08,93.87-69.64,198.56-148.2,260.51-55.21,43.54-114.5,62.66-171.47,55.3l-22-2.82-5.87,21.35C1111,1475.39,1003.74,1572,892.84,1586.27l-26,3.36,4,25.84c14.49,93.35-6.5,180.36-57.68,240.79-46.33-1.15-88.86,8-126.63,27.31-41.32,21.11-75.09,53.38-100.38,95.91-29.35,49.36-45.24,111-44.75,173.48s17.45,123.63,47.73,171.71c24.37,38.7,56.19,68.23,94.56,87.77,33.67,17.15,71.3,25.95,112.2,26.28-10.91,74.52-49,138.75-107,179-59.36,41.19-131.41,51.52-202.89,29.07C419,2625.72,364.82,2578.19,333.6,2513c-36.42-76.09-39-166.53-7-248.11L337.55,2237l-29.21-6.4c-99.54-21.78-176.78-93.46-206.63-191.73C70.81,1937.16,96,1831.06,169,1755.1l12.93-13.4-8.82-16.38c-66-122.83-33.86-280.92,74.83-367.68l16.29-13-9.43-18.56c-51.82-102-38.12-216.66,35.76-299.37,51.44-57.58,122.68-89.3,200.61-89.3,36.13,0,72.61,6.79,108.42,20.17l53.19,19.89-20.47-53c-65.66-170,9-312.27,106.18-372.5,80.74-50,207.4-59.41,320.73,64.42l33.66,36.73L1103,604.43C1156.4,347.35,1342.78,264.7,1486.14,272c161.69,8.27,336.56,130.25,362.74,384.1l7,68.21,39.25-56.22c48.08-68.87,120.92-115.64,199.85-128.32,65.83-10.57,130.35,4.76,181.65,43.19l1.81,1.36,4.23,2.11,2.2.63c70.9,20.38,125.65,70,154.19,139.79,35.25,86.19,27.08,192.93-21.31,278.56l-22.56,39.93,45.83-1.91c111.38-4.64,204.66,51.93,249.51,151.33,50.78,112.57,26,249.59-61.7,340.94l-33.7,35.07,48,7.77c153.83,25,235,150.56,247.26,263.86C2904.31,1971.38,2837.15,2084.79,2719.3,2131.37Z"/>
    <path d="M1514,2370.06h2.31a257.69,257.69,0,0,0,99-19.69,260.42,260.42,0,0,0,84.41-56.13c49.66-49.29,77-115.67,76.86-186.91a257.61,257.61,0,0,0-77-184.24c-49.25-48.67-114.79-75.6-184.52-75.84h-.9a256.48,256.48,0,0,0-97,19,261.51,261.51,0,0,0-82.89,53.7c-50.92,48.78-79.58,115.32-80.7,187.36v.38a263.4,263.4,0,0,0,73.48,182.59C1375.9,2341.11,1442.3,2369.43,1514,2370.06Zm.08-471.81h.76c116,.4,210.56,94.22,210.71,209.15.08,57.52-21.87,111-61.78,150.65-39.07,38.77-92.85,61-147.55,61h-1.77c-117.7-1-209.86-93.75-209.89-211.11C1306.52,1990.35,1398.52,1898.25,1514.11,1898.25Z"/>
    <path d="M1870.2,2388.73h0c-64.58,4.91-102.08,49.94-138.34,93.5-36.48,43.81-70.94,85.19-133.23,91.17-85.48,6.92-158.9,2.2-218.24-14.05-25.57-7.76-70.13-51.69-102.68-83.8-20.6-20.31-40.06-39.5-56.17-52-29-22.38-57.33-35.19-84.33-38.07-29.7-3.16-56.36,5.94-77.1,26.32-22.22,21.84-33.32,53.26-30.46,86.2,3,33.94,22.24,85.26,97.32,137,36.3,25,96.48,57.56,140.71,79.69,69.62,34.86,147.11,52.08,236.86,52.64,6.09.16,12.17.25,18.09.25h.06c73.3,0,136.93-12.21,200.26-38.42,62.29-25.78,119.48-62.88,185.69-105.84l.43-.28q10.67-6.92,21.71-14.06c29.63-19.15,51.54-43.2,63.35-69.54,11.64-26,13.35-52.89,4.94-77.87C1982.59,2412.65,1932,2384,1870.2,2388.73Zm32.9,177.43-22.27,14.43c-121.71,79-209.65,136-358.31,136-5.53,0-11.2-.07-16.85-.23h-.62c-81.84-.48-152-15.94-214.54-47.24-42.69-21.37-100.47-52.58-134.61-76.1-58.72-40.44-73.43-76.37-75.44-99.4-1.54-17.71,4.07-34.26,15.41-45.4a40.89,40.89,0,0,1,30-12.28c18.46,0,40.75,9.68,64.46,28,13.67,10.57,32.07,28.71,51.55,47.93,42.5,41.91,86.44,85.24,124.22,96.45l.49.14c65.18,17.89,144.7,23.2,236.33,15.76l.34,0c83.33-7.92,128.19-61.8,167.77-109.33,32.17-38.64,60-72,103-75.27,37.8-2.87,67.88,12.15,76.67,38.28C1958.42,2500.7,1950,2535.89,1903.1,2566.16Z"/>
  </g>
</svg>
