<svg xmlns="http://www.w3.org/2000/svg" viewBox="0 0 2994.91 3000">
  <title>46Icon_neon 1</title>
  <g>
    <path d="M1453.14,608.41c-95.66-162.13-170.61-342.28-222.81-535.56l-10.56-39.17-30.71,26.5c-57.6,49.66-134.84,61.14-209.55,72.24-38.68,5.74-78.67,11.68-116.69,22.73L821,167.3l18.4,18.08C813.27,196.72,787,211,765.33,230.55c-30,26.95-49.8,61.69-62.37,109.28C666,446.8,638.58,558.4,612,666.34l-8.09,32.87,17.73,9.27c82.21,43,159,77.37,228.23,102.3l25.43,9.16L883,794c12.48-42.27,31.06-91.86,49-139.81q6.29-16.79,12.59-33.71c19.89,172.62,57.63,498.56,82.61,714.22,10.57,91.27,18.55,160.19,21.35,184.48l.12.88-.12.85c0,.12-2.1,15.17-4.75,34.39-4,29.27-9.43,68.24-10.89,78.8-119,323.52-219.84,673.67-317.33,1012.33l-.21.72c-13.31,46.22-27.07,94-40.5,140.43l-.2.69-10.4,45.55,28.41,3.14c198,22,376.76,41.38,558.58,54.72l24.93,1.83,3.74-50.86-24.94-1.83c-94.14-6.91-187.52-15.44-283.23-25.13,88.38,8.18,187.43,16.82,278.41,23.58l24.92,1.86,3.79-50.86-24.93-1.86c-195.73-14.54-430.67-38-512.83-46.4,7.67-26.59,15.34-53.23,22.87-79.38l.61-2.14c97.5-338.66,198.32-688.85,317.12-1011.36l.93-2.54,15.73-113.7c.23-1.65.39-2.86.52-3.83a49.61,49.61,0,0,0,.26-16.24c-2.85-24.68-10.8-93.31-21.3-184-33.46-288.95-89.47-772.57-95.43-826.07l-14-125.61L932.66,498.38c-12.22,41.39-30.61,90.46-48.42,138-14.75,39.38-29.91,79.85-42,117.13-55.35-21.23-115.43-48.4-179.16-81,25.89-105.24,52.79-213.81,88.44-316.91l.31-.91.25-.94c19.35-74.07,55.46-102,126.77-129.35,42.44,42.56,189.51,189.45,247.76,239.69,57.47,49.56,219,141.55,276.16,173.56-.32,1.49-.61,3-.86,4.47-42.34,13.81-81.86,34.5-115.18,60.38-41.11,31.94-72.61,71-93.61,116l-.66,1.4-.47,1.48c-30.75,95.05-40.11,193.55-49.16,288.81l0,.23c-1.84,19.41-3.75,39.48-5.81,59.15l-4.18,40.15,38-13.46c68.91-24.36,147-52,213.78-95,53.42-34.41,91.62-73.71,115.4-119,23.77,45.27,62,84.57,115.41,119,66.82,43,144.89,70.62,213.77,95l38,13.43L1863,1169.5c-2-19.56-3.94-39.52-5.78-58.82l0-.49c-9.06-95.3-18.42-193.84-49.19-288.94l-.48-1.47-.65-1.4c-21-45-52.48-84-93.59-115.92-33.31-25.88-72.84-46.56-115.18-60.38-.26-1.54-.56-3.08-.89-4.61,66.47-37.78,293.27-168.65,367.87-237.06,38.38-35.2,124.16-135.9,157-174.81l4.65,1.94c40.49,16.84,82.35,34.26,97.6,68.81,44.15,100.57,71.52,211.13,98,318.06l.1.38c4.69,19,9.5,38.41,14.4,57.76-64.05,32.8-124.41,60.07-180,81.33L2028.76,393.7l-12.45,109.47c-1,9.05-103,905.36-115.39,1010.13a49.62,49.62,0,0,0,.06,16.39c1.14,8.27,14.81,107.94,15.77,114.93l.37,2.72,1.13,3c3,8,5.9,16,8.84,24.12,35.24,108.27,175.42,540.31,268.64,848.73q20.3,70,40.32,139.62l.37,1.31c7.4,25.64,14.93,51.76,22.46,77.84-82.78,8.4-320.55,32-518.18,46.56l-25,1.84,3.79,50.86,24.91-1.84c193.33-14.24,424.58-37.07,513.1-46-161.93,18.87-341.45,38.9-517.63,47.39l-25,1.2,2.49,50.94,25-1.2C1936,2882.4,2133,2859.34,2306.75,2839l26.49-3.09-7.55-46.44-.42-1.45c-13.17-45.44-26.66-92.24-39.7-137.5l-.52-1.79c-12.08-41.91-26.09-89.11-41.34-139.57-83-286.59-169.82-577.62-269.35-851l-7.32-22.46-.36-2.57-15.26-111-.11-.8.11-.87c9.4-79.21,74.67-652.24,103.11-902.08l62.9,176.93,8.57,24.13,24.09-8.68c69.24-24.92,146-59.34,228.23-102.29l17.93-9.36-5-19.61c-6.61-25.66-13.11-51.94-19.4-77.36-27-109-54.88-221.73-100.81-326.36-21.19-48-68.88-71.71-111.16-89.68L2179,167.3l-41.82-12.15c-38-11-78-17-116.68-22.73-74.72-11.1-152-22.58-209.55-72.24l-30.72-26.5-10.56,39.16c-52.21,193.32-127.17,373.5-222.87,535.66l-9,17.17L1500,689.49l-37.8-63.82ZM920.68,193.75c21.88-4.28,44.33-7.62,66.33-10.89,69.86-10.38,141.75-21.05,204.08-60.81,44.36,154.7,103.2,301,175.46,436.28-78.63-45.5-170.08-101.34-206.67-132.9-50.78-43.8-173.48-165.62-228.58-220.7l.41-.15Zm1152.58,10.58c-36.62,43.17-110,128.61-142.62,158.49-50.87,46.66-187.78,131.15-296.79,194.75,72.09-135.1,130.78-281.1,175.06-435.52,62.32,39.75,134.23,50.43,204.1,60.82,22,3.27,44.47,6.6,66.36,10.89l-9.29,9.16ZM1499.62,690.14l-1,1.61,1.92-1.08.17.09-.08-.14,47.54-26.7-.85,16.59,19.71,5.47c88.29,24.42,158.52,80,192.94,152.52,28.65,89.29,37.69,184.46,46.44,276.52.61,6.46,1.23,13,1.86,19.58-53.87-19.57-113.87-43.55-164-75.78-68.77-44.16-107.75-96.19-119.17-159.07l-25.09-138-25.09,138c-11.43,62.87-50.42,114.89-119.19,159.06-50.18,32.22-110.16,56.21-164,75.78.62-6.5,1.24-13,1.84-19.34l0-.3c8.74-92,17.78-187.14,46.41-276.39,34.43-72.6,104.67-128.16,193-152.59l19.7-5.46-.86-16.84Z"/>
    <path d="M1706.43,2896.12l-3.88-43-24.89,2.25c-41.09,3.7-154,13.33-182.73,13.4h-.32c-31.27,0-142.09-9.67-182.15-13.4l-24.92-2.32-3.87,42-4.87-.52-5.37,50.71,24.86,2.64c1.58.16,158.27,16.7,201.35,16.7h.42c39.32-.09,194.69-16,201.29-16.7l24.85-2.55-5.18-50.74Z"/>
    <path d="M2434.73,693.49l-22,11.82c-1,.53-100.71,53.93-136.33,70.06-31.36,14.2-121.39,48.26-153.43,60.19l-23.45,8.73,17.83,47.78,23.41-8.71c1.17-.44,117.3-43.7,156.67-61.53,37.41-16.94,138.39-71,139.4-71.58l22-11.81Z"/>
    <path d="M860.36,884.36l23.53,8.46,17.23-48-23.52-8.45c-1.25-.45-125.71-45.23-164.41-63.24-24.93-11.6-92.8-49.91-125.23-68.55l-21.67-12.46-25.4,44.2,21.64,12.47c.94.54,95.11,54.74,129.14,70.57C732.77,838.49,859.09,883.91,860.36,884.36Z"/>
  </g>
</svg>
