<svg xmlns="http://www.w3.org/2000/svg" viewBox="0 0 2994.91 3000">
  <title>104Icon_neon 1</title>
  <g>
    <path d="M51,1954.73H955V1050.66H51ZM904,1101.66v802.07H102V1101.66Z"/>
    <path d="M952.82,42.35H48.74V946.43H952.82ZM99.74,895.43V93.35H901.82V895.43Z"/>
    <path d="M1048.73,942.42h904.08V38.34H1048.73ZM1901.81,89.34V891.42H1099.73V89.34Z"/>
    <path d="M2046,38.34V942.42h904.07V38.34Zm51,853.08V89.34h802.07V891.42Z"/>
    <path d="M1046.12,1954.73H1950.2V1050.66H1046.12Zm853.08-853.07v802.07H1097.12V1101.66Z"/>
    <path d="M48.74,2955.23H952.82V2051.15H48.74Zm853.08-853.08v802.08H99.74V2102.15Z"/>
    <path d="M1046.12,2955.23H1950.2V2051.15H1046.12Zm853.08-853.08v802.08H1097.12V2102.15Z"/>
    <path d="M2043.38,2955.23h904.08V2051.15H2043.38Zm853.08-853.08v802.08H2094.38V2102.15Z"/>
    <path d="M2046,1948.82h904.07V1044.75H2046Zm853.07-853.07v802.07H2097V1095.75Z"/>
  </g>
</svg>
