<svg xmlns="http://www.w3.org/2000/svg" viewBox="0 0 2994.91 3000">
  <title>170Icon_neon 1</title>
  <g>
    <path d="M2259.78,549.71,2372.94,335l11.84-22.55L1841.59,26.2,1728.45,240.91l-11.89,22.56,61.68,32.5L1436.65,943.09,576.34,1540.31l-5.16,3.56-373.08,708-11.85,22.55,1271.17,669.82,22.41,11.81,389.45-727.8,3.13-5.94-19.7-1061,337.95-648Zm-455.33,593.88-3,5.74,19.69,1060.74-362.4,677.26L255.12,2253.08,610.47,1578.7,1470.9,981.4l5.06-3.54,347.4-658.11,322.18,169.77Zm511.46-809.8-77.47,147-453-238.69,77.47-147Z"/>
    <path d="M2392.47,969.3l-2.51,0-40,8.71-1.82.71c-46.32,17.94-80.07,50.82-97.59,95.06-21.09,53.27-10.72,115.73,27.07,163,30.66,38.37,74.53,60.37,120.36,60.37a144.51,144.51,0,0,0,22.16-1.72c33.75-5.26,62.56-16.63,85.63-33.78,23.24-17.29,40.95-40.62,52.64-69.34,20.94-51.41,16.16-103.61-13.45-147C2512.34,997.61,2453.91,968.44,2392.47,969.3Zm5.49,276.9h0c-30.24,0-59.59-15-80.52-41.21-26.4-33-33.86-76.1-19.49-112.41,11.93-30.13,35-52.77,66.79-65.57l30.89-6.73c43.59.18,84.62,20.77,107.19,53.84,19.65,28.79,22.61,64,8.34,99-16.54,40.63-48.89,64.16-98.9,72A92.6,92.6,0,0,1,2398,1246.2Z"/>
    <path d="M2807,83.75c-26.73-38.79-73.61-62.68-122.73-62.68l-2.09,0-2.58,0-32.93,7.35-1.84.73c-38.28,15.21-66.15,43-80.6,80.44-17.73,45.93-8.58,99.39,23.9,139.52,25.32,31.28,61.25,49.22,98.59,49.22a117.73,117.73,0,0,0,18.46-1.47c55.54-8.88,95-39.07,114.18-87.31C2836.88,165.45,2832.49,120.76,2807,83.75ZM2686.71,247.38h0c-21.88,0-43.36-11-58.94-30.3-21-26-27.15-60.12-16-89.07,9-23.24,26.25-40.73,50-50.68l23.53-5.25c32.16.34,62.51,15.75,79.64,40.61,15.75,22.86,18.16,49.87,6.95,78.09-12.49,31.47-37,49.72-74.83,55.77A66.12,66.12,0,0,1,2686.71,247.38Z"/>
    <path d="M603.32,676.33C621,698,643,714.89,667,725.33a146.08,146.08,0,0,0,58.62,12.4,147.78,147.78,0,0,0,23.83-2c35.67-5.83,66.08-18.4,90.38-37.35s42.8-44.49,55-75.89c22.49-57.9,16.49-116.23-16.88-164.25-34.18-49.17-93.39-79.44-155.05-79.44-.9,0-1.8,0-2.69,0l-2.64,0-42.35,9.67-1.87.76C624.69,409.1,589.3,445.16,571,493.62a178.6,178.6,0,0,0-7.7,97.7A193.86,193.86,0,0,0,603.32,676.33ZM836.07,487.4c23.39,33.65,27.37,75.08,11.22,116.67-17.87,46-52.56,72.63-106.06,81.38-36.18,5.91-72.06-9.18-98.45-41.42-31.26-38.2-40.48-88.92-24.07-132.39,12.93-34.23,37.79-59.88,72-74.29l32.85-7.5C768.46,430,811.41,451.92,836.07,487.4Z"/>
  </g>
</svg>
