<svg xmlns="http://www.w3.org/2000/svg" viewBox="0 0 2994.91 3000">
  <title>64Icon_neon 1</title>
  <g>
    <path d="M939.78,778.6C841,777.48,761,791.92,760.23,792.06l-18.49,3.38-2.24,18.61c-.35,2.89-8.37,71.75,16.39,151.66,14.7,47.43,37.92,89,69,123.61,38.82,43.18,89.76,75.19,151.42,95.17,24.63,8,62.74,11.85,116.5,11.85,109.45,0,244.69-16.45,246.05-16.62l24.2-3-1.89-24.26a797.29,797.29,0,0,0-19.36-115.56c-8.62-35-19.25-66.23-31.6-92.73-17.06-36.64-37.48-64.2-60.69-81.91-39.37-30-90-52.34-150.52-66.27C1051.69,785.12,998.11,779.26,939.78,778.6ZM992,1136c-119.41-38.68-167.83-122.13-187.42-185.33-14.17-45.7-15.94-88-15.51-111.44a1042.69,1042.69,0,0,1,150.11-9.6c84.94,1,202.36,14.45,279.38,73.24,29.94,22.84,56.11,74.79,73.7,146.26a764.73,764.73,0,0,1,15.35,82.86C1210.74,1142.46,1047.78,1154,992,1136Z"/>
    <path d="M1440.61,1261.66c4.47-26.18,13.14-68.44,18.44-80.42,8.5-19.21,29.57-53.85,42-66.88,16.07-16.8,40.55-38.3,61.05-48.24,4.61-2.24,23.88-9.57,39.7-15.35l23.43-8.58-17.42-47.88-23.49,8.54c-1.41.52-34.68,12.63-44.47,17.38-32.55,15.78-63.75,46.43-75.66,58.87-17.28,18.07-41.18,57.46-51.82,81.5-9.69,21.91-20.08,80.89-22.07,92.49l-4.22,24.66,50.29,8.55Z"/>
    <path d="M2882.64,1940.72c-62.34,15.66-93.84,29.7-112.33,50.09-20.76,22.88-20.53,49.49-20.28,77.66.34,39.31.77,88.24-40.54,170.65-4.11,8.18-24,38.67-107.3,87.27-48.45,28.27-104.27,54.17-138.9,64.46-24.59,7.31-69.7.76-109.51-5-42.29-6.13-82.24-11.93-113.4-6.12-22.6,4.21-72.31,22.16-118.69,40.5l11.1-22.35.05-.1c2.73-5.5,5.26-10.59,7.27-14.62a273.13,273.13,0,0,0,77.81-60.17c26.94-30.14,43.21-62.63,47-94,4.27-34.91-6.78-66.46-32.06-92.13,7-27.36,18.09-71.23,23.85-101.09,47-18.3,84.78-41.57,112.36-69.29,29-29.15,46.17-62.26,51-98.4,4.47-33.58-2.36-68.46-19.75-100.89-16.35-30.48-41.66-58.14-73.2-80-42.82-29.65-94.18-47.09-148.52-50.45-57.63-3.55-116.9,9.34-171.9,37.34-43.55-6-94-44.51-119.83-92.21-17.22-31.85-20-61.25-7.68-82.81l13.19-23.22-23.8-12.1c-26.13-13.3-46.41-39.93-54.27-71.24-7-28.11-2.8-56.12,11.65-76.85l11.54-16.58-13.5-15c-3.09-3.44-6.76-7-10.68-10.83-5-4.84-14.24-13.85-16.08-17.57l-5.82-12-13.14-2.06c-94.78-14.91-168.48,13.41-239.77,40.8-40.49,15.56-82.33,31.64-128.59,40.07-41.59-7.25-88.56-22.06-134-36.39-58.92-18.58-119.85-37.78-176.46-43.68l-.72-.07c-88.07-6.6-182.94,12.85-267.14,54.77a508,508,0,0,0-114.42,77.52,434.94,434.94,0,0,0-71.8,83.11C395.77,1287.4,332,1035.91,450.57,690.31l389.54,61.44L699.26,563.1l448.2,23,56.31,2.88-35-44.17c-88.86-112.31-183.51-198-281.33-254.75-98.86-57.33-203.11-86.41-309.86-86.41C495.27,203.7,410,221,324.09,255.22c-44.8,17.83-87.9,54-128.1,107.55-34.73,46.26-67.28,106.05-94.12,172.9C50.26,664.2,23,808.14,30.79,911.34c16.77,222.9,62.13,382.48,147.09,517.4C257,1554.32,362.69,1648.09,496.56,1766.8l.23.21c14.9,13.22,30.25,26.82,45.88,40.76.34,19.22,1.11,57.79,2.09,84-67.88,27.79-116.65,82.66-135.18,153-22.44,85.22,3.55,178.84,69.52,250.51,27.13,30.65,67.83,49.13,121,54.92a343.7,343.7,0,0,0,62.3.84l.74,1.68c6.25,14.27,13.54,30.92,19.67,44-25.5,34.55-40.61,77.5-42,120.25-.8,25.25,12.74,49.13,40.24,71,20.27,16.11,45.4,29.41,67.61,41.16,12.07,6.38,23.47,12.41,31.82,17.74,69.92,44.61,180.13,65.32,206,69.72,45.39,24.58,107.2,52.4,146.51,60.8,33.88,7.23,101,4.85,136.39.35,18.6-2.36,42-10,66.69-18.19,26.77-8.81,57.11-18.79,73.93-18.79s47.15,10,73.93,18.79c24.5,8.07,47.66,15.69,66.16,18.13a412.75,412.75,0,0,0,67.21,5.55c60.32,0,121.06-13.44,180.53-39.92,67.91-30.24,133.82-77,196-139.14l5.54-1.21c89.78-19.51,212.73-46.25,264-50.22,13.68-1.06,29.46,1,47.78,3.41,38,5,90.09,11.81,158.76-7.43l.74-.22c81.8-25.66,164.83-66.65,233.78-115.44,79.52-56.26,139.84-122.25,174.45-190.85l.72-1.42.53-1.51c11-31-2.9-71-16.3-109.74-9.05-26.11-21.43-61.86-16.42-76,5.86-16.56,37.7-50.32,58.43-69l76.65-68.81Zm-564.82,564.77c-20.24-2.66-39.35-5.16-58.33-3.69-54.78,4.24-179.7,31.39-270.92,51.23l-20.35,4.42-5.32,5.42c-89.38,90.87-232.17,193.13-404.85,164.32l-1-.14c-13.74-1.75-34.84-8.69-57.17-16-31.9-10.5-64.88-21.35-89.87-21.35s-58,10.85-89.88,21.35c-22.33,7.35-43.43,14.29-57.17,16-30.93,3.93-92.78,6-119.31.36-33.63-7.18-94.11-34.48-136.48-57.73l-2-1.12-4.28-1.4-2-.32c-15.09-2.38-36.8-6.69-60.94-12.81l-26.26-7.13c-36.83-10.73-75.7-25.21-103.77-43.12-10.11-6.45-22.41-13-35.43-19.85-30.44-16.11-81.4-43.07-80.7-65.44A164.38,164.38,0,0,1,732,2416.73l11.8-13.43-8.61-15.71c-5.57-10.11-17.5-37.35-25.41-55.41-3.47-7.9-6.46-14.73-8.45-19.1l-8-17.48-19,2.84c-4.5.67-110.61,15.79-157.25-37.15l-.37-.42c-54.26-58.83-75.9-134.78-57.89-203.15,15.65-59.45,59.4-104.72,120-124.2l19-6.1-1.34-19.9c-1.43-21-2.75-89.41-3.1-111.79l-.2-11.15-8.3-7.41q-28.11-25.12-54.57-48.52C271.83,1499.35,115.76,1361,81.64,907.51c-7.22-95.9,18.67-231.1,67.55-352.84,25.21-62.77,55.49-118.54,87.59-161.28C271.26,347.46,307,316.92,343,302.6c272.34-108.38,524.2-31.1,749.25,229.64L593.42,506.59,724.27,681.85,437.52,636.62l-20.79-3.27-7.17,19.83c-24.17,67.21-41.34,128-52.5,185.91-15.39,79.78-19.5,155.75-12.22,225.79,9,86.15,35.29,165.77,78.29,236.65,49.61,81.77,122.45,153.62,216.49,213.55l22.68,14.48,13.25-23.44c76.58-135.74,252.75-225.23,419-212.92,51.37,5.41,109.66,23.78,166,41.56,48.74,15.36,99.14,31.24,145.41,38.8l4.17.66,4.2-.7c52.91-9,98.45-26.55,142.49-43.47,67.78-26,126.73-48.7,202.72-39.53a174.72,174.72,0,0,0,13.7,14.85c-14,29.64-17.09,64.88-8.39,99.58,9.32,37.16,31.24,70.06,60.33,91.68-9.73,32.9-4,70.94,16.85,109.54,17,31.47,42.88,60.68,72.81,82.25,30.71,22.13,64.58,35.37,95.37,37.27l7.22.44,6.4-3.42c110.12-59,213.88-35.36,274.27,6.45,50.28,34.82,77.65,85.48,71.43,132.21-7.26,54.51-58.37,101.25-143.9,131.59l-14.48,5.12-2.24,15.2c-4.45,30.17-22.46,99.58-29.23,125.67l-4.19,16,12.87,10.35c20.5,16.5,28.75,34.78,26,57.53-5.89,48.14-57.92,96.75-103.92,118.07l-7.89,3.67-4.05,7.84c-1.76,3.43-5.45,10.86-11.36,22.78-13.32,26.82-35.6,71.73-41.71,82.21l-39.14,67.26,71.35-31c60.17-26.16,146.56-59,172.11-63.75,22.85-4.25,58.74.95,96.75,6.47,47.19,6.85,96,13.93,131.34,3.42,38.14-11.33,98.45-39.17,150.07-69.28C2674.83,2343.07,2735,2302,2755.08,2262c36.17-72.15,44.09-124.67,45.65-163.3,3.91,15.57,9.47,31.63,15,47.47,8.79,25.4,20.76,60,16.8,74.79-72.17,141-247.69,238.15-376.67,278.69C2397.39,2515.91,2355.12,2510.38,2317.82,2505.49Z"/>
  </g>
</svg>
