<svg xmlns="http://www.w3.org/2000/svg" viewBox="0 0 2994.91 3000">
  <title>136Icon_neon 1</title>
  <g>
    <path d="M2718.79,1474.8c-2.49-6-7-15.11-13.39-21.13l-1.16-1.09-2.71-2-1.42-.77c-154.47-84.16-220.89-120.53-223.68-122l-12.77-7L1952.5,1624.55l279.26-497.43,7.09-12.64-7.19-12.51c-2.77-4.85-68.48-119.9-126.44-224.75l-1.14-2.06-3.15-3.8-1.8-1.47-11.6-9.76-1.21-1-2.67-1.74-1.35-.66c-95-46.52-210.22-85.05-352.17-117.78-138.77-32-292.75-34.2-457.66-6.54-161.6,27.1-297,76.74-382,113.6-214.72,93-392.57,228.42-528.61,402.39-138.41,177-233.51,394-282.64,645-25.73,131.44-13.81,287.38-3.3,425q1.49,19.45,2.9,38.31l1.79,23.57H2864.38l1.09-24.4c8.19-189.63,2.62-347.44-17-482.46C2825.38,1714.83,2783,1584.4,2718.79,1474.8Zm96.71,854.5H127.86q-.56-7.37-1.13-14.83c-10.27-134.36-21.9-286.64,2.5-411.3,94-480.2,364.23-829.58,781.48-1010.37,131.55-57,473.61-181.25,808-104.16,136.72,31.52,247.46,68.34,338.42,112.53l.18.15,5.6,4.71c47.28,85.45,98.84,176.2,117.35,208.7l-318.84,567.94-46.58,83,649.89-386.22c25.31,13.85,90.23,49.32,205.78,112.28.53,1.07,1.13,2.38,1.69,3.75l.9,2.13.79,1.33C2785.9,1689.38,2829.82,1946.14,2815.5,2329.3Z"/>
    <path d="M2926,1541.06c.77-10.48-1.77-24.16-41.17-95.57-21-38-50.45-88.71-87.61-150.66-53.06-88.46-107.21-175.59-128.45-209.62,20.06-29.35,69.38-101.93,118.78-177.6,125.67-192.52,131.44-220.45,133.61-231l5.22-25.32,7.71-31.42-1.4.85.28-1.33-50,30.25c-113.5,68.66-339.7,212.26-396.44,248.34-33.51-19.23-126.09-72.34-218.1-124.93-99.6-56.93-168.2-95.92-203.91-115.89-13.13-7.34-21.84-12.13-26.61-14.63a41.31,41.31,0,0,0-10.62-4.24l-67.89-33.42,34.46,58.43-.53,1.06,7,11.84c18.89,32,34.4,57.87,49.41,82.86s30.63,51,49.45,82.91l4.13,7,3.09,1.39-.66,2.31,23.86,6.95c42,12.21,96.19,42.31,156.78,87,62.74,46.32,130,106.13,199.88,177.78,126.6,129.76,232,269.07,268.4,354.9l1,2.25,1.38,2c.45.66.89,1.26,1.33,1.81l.15.35.3.2c2.41,2.82,5.06,4.48,10.37,7.8l.4.25,1.62,1,.53.36L2923,1581.23l.09-1.1,4,2.29-1.61-35Zm-127.72-89.19c-41.31-91.47-148.37-232.71-275.51-363-71.83-73.63-141.2-135.28-206.19-183.24-55.83-41.21-105.87-70.37-149.17-87l.46-1.61-13.42-3q-4.91-1.65-9.7-3.06l-6.08-2.36c-16.93-28.65-31.25-52.5-45.15-75.62l-.09-.15-.68-1.13C2200.83,793,2388,900.28,2474.51,949.93l13.39,7.68,13-8.29c2.31-1.47,193.27-123.07,331.7-208.88-19.34,32.55-48.22,78.85-91.29,144.69-62.93,96.22-123.42,184.11-124,185l-9.52,13.82,8.92,14.2c.62,1,63.18,100.82,127.57,207.78,50.07,83.16,81.05,137.14,100.22,172.16Z"/>
  </g>
</svg>
