<svg xmlns="http://www.w3.org/2000/svg" viewBox="0 0 2994.91 3000">
  <title>68Icon_neon 1</title>
  <g>
    <path d="M710.76,1768c-16.5,55-33.56,111.8-49.65,168.56l-1.62,5.82,1.07,5.71v.05c16.32,88.4,70,381.42,75.56,440.33,6.16,65.36,38.73,139.63,97.64,158.21a94.43,94.43,0,0,0,28.42,4.34c16.64,0,33.92-4.27,51.36-12.68,27.82-13.41,57-38,86.76-72.93,92.18-108.37,174.7-192,245.26-248.63,74.69-59.93,116.42-73.47,134.65-76.2,16.14-2.42,45.66-3.93,79.83-5.68,49.74-2.54,111.64-5.7,170.33-13.46,71.51-9.46,122.1-23.72,154.68-43.6,33.48-20.43,97.07-63.28,146.9-120.74l16.77-19.36-654.93-562-16-13.78-16.5,13.18c-18.42,14.7-41.72,35.67-69.43,62.47a606,606,0,0,1-58.72-67.53c-37-49.26-85.14-128.9-104.73-228.51l-1.69-8.68L764.51,907.64,776.06,977c20.49,123.13,54.78,329.21,17.78,492.09C773.17,1560.06,742.86,1661.08,710.76,1768Zm126.81-730.38,142.57,122.49c22.46,105,73.13,188.51,112.21,240.59,43.48,57.93,82,90.32,83.68,91.7l17.8,14.79,16.43-16.27c26-25.71,48.33-46.64,66.67-62.47L1876,1942.56c-42,42.89-90.44,75.24-117.52,91.76-61.29,37.41-211.37,45.09-301.08,49.67-35.5,1.82-66.15,3.38-84.76,6.17-41.42,6.22-94.92,35.44-159,86.86-73.07,58.63-157.92,144.55-252.19,255.37-25.11,29.53-48.68,49.73-70.06,60-15.78,7.61-30,9.5-42.29,5.63-34.44-10.86-57.75-67-62.2-114.35-5.63-59.79-57.55-343.77-75.11-438.94,15.49-54.4,31.88-109,47.75-161.89l.06-.2c32.35-107.8,62.91-209.62,84-302.32C876.43,1335.73,857.07,1163.87,837.57,1037.64Z"/>
    <path d="M2057.48,2060.18c-22.69,32.23-74.38,76.86-101.34,98.15-148.37,117.18-337.37,121.72-450.35,124.43-25,.6-46.51,1.12-64.15,2.68-80.54,7.13-185.13,114.52-393.53,328.48l-.18.19c-25.34,26-51.54,52.91-79.48,81.46-18.83,19.24-72.32,28.75-149.38,6.64-72.73-20.87-157-70.67-170.17-130.71-10-45.44-27.75-139-34.81-254.92l-11.35-186.17-39,182.39c-18.84,88-15.43,120.53-9.78,174.33,1.52,14.45,3.24,30.82,4.75,50.52,4.46,58.11,35.49,142,81,219,50.36,85.19,111.15,149.7,166.78,177,44.73,21.94,121.49,35.45,210.59,37.07,5.87.11,11.84.16,17.74.16,76.5,0,149.55-8.92,195.43-23.86,59.83-19.49,124.59-59.31,198-121.75,62.59-53.26,122.95-115.65,176.22-170.7,35.12-36.3,68.29-70.58,97.63-97.67,71.45-65.95,140.11-110.3,212.8-157.26,88.71-57.3,180.44-116.55,284-219.61l19.67-19.57-144.94-123.06Zm85.5,103c-91.87,87.63-175.14,141.42-255.86,193.56-74.59,48.18-145,93.69-219.71,162.62-30.39,28-64.05,62.83-99.7,99.68-103.45,106.91-232.19,240-353.31,279.42-44.43,14.46-119.71,22.59-196.45,21.2-80.69-1.47-151.37-13.38-189.06-31.87-46.94-23-99.91-80.29-145.33-157.14a715.38,715.38,0,0,1-33.71-64.17,276.25,276.25,0,0,0,27.86,23.43c35.41,26.14,80.62,47.91,127.29,61.3,34.54,9.91,67,14.79,96,14.79,45,0,81.43-11.78,103.94-34.77,28.19-28.8,54.41-55.72,79.76-81.75,97.09-99.68,173.78-178.42,234.13-232.14,58.64-52.19,100.3-78.72,127.35-81.12,16-1.42,36.84-1.92,60.94-2.5,114.42-2.74,302.77-7.26,460.68-120.34l.36.46,19.39-15.31.25-.2,19.6-15.48-.24-.31c20.36-17.07,51.17-44.3,74.75-71.25Z"/>
    <path d="M2942.21,2469.18,2346,1955.82l15.16-19.73.72-1C2515.58,1713.21,2602.78,1458.15,2621,1177c7.68-118-5.39-248.3-36.79-366.83-41.16-155.34-111.91-291.19-210.3-403.76-57.62-65.92-118.07-122.67-179.67-168.66-55.8-41.67-114.52-76-174.52-101.94C1894.3,81.51,1778.09,70.14,1701.6,66.31c-90.45-4.52-213.14,18.89-336.59,64.24-131.44,48.29-256,118.14-350.59,196.68C979.58,356.15,940,407.53,900,475.83A1286.56,1286.56,0,0,0,818.94,641L147.22,62.64,127.9,46,23.21,167.58,2837.15,2590.44l19.32,16.64,104.69-121.58ZM2276.16,1963l-.54.7,12.54,9.64,601.08,517.54-38.14,44.29L95.13,162.21l38.14-44.29Zm294-789.29c-17.63,271.56-101.69,517.78-249.83,731.83l-13,17L859.86,676.23a1266.63,1266.63,0,0,1,81.52-170c37.29-64.57,74.79-114.21,105.61-139.78,200.48-166.39,489-257.39,652.06-249.23,172.54,8.63,400.82,53.11,636.49,322.73C2579.36,718.94,2576.75,1072.1,2570.14,1173.7Z"/>
  </g>
</svg>
