<svg xmlns="http://www.w3.org/2000/svg" viewBox="0 0 2994.91 3000">
  <title>92Icon_neon 1</title>
  <path d="M2440.28,2422.88l-36.53-35.59-228,234L1774.18,2203q27.12-22.82,52.24-48.42A743,743,0,0,0,1982.92,1918a759.93,759.93,0,0,0,0-579.37,743.08,743.08,0,0,0-156.5-236.66,727.93,727.93,0,0,0-232.31-159.67,721.28,721.28,0,0,0-507.17-23.46L840.33,187.71l276.18,137.14,22.71-45.66-322-159.88h0l-16.21-8-21.53-10.68-194,339,44.25,25.35L783.9,195.59l254.86,740.84q-7,2.84-13.94,5.82a727.88,727.88,0,0,0-232.3,159.67A743.11,743.11,0,0,0,636,1338.58,760.06,760.06,0,0,0,636,1918a743,743,0,0,0,156.51,236.66,727.56,727.56,0,0,0,232.3,159.67,720.62,720.62,0,0,0,569.29,0,724,724,0,0,0,139.71-79.64l406.34,423.21-225.81,231.79,36.53,35.59,224.63-230.57,217.25,226.27,36.77-35.33-218.42-227.49Zm-702.68-258L1726,2176.07c-115.15,91.35-259.73,145.81-416.54,145.81-374.86,0-679.83-311.15-679.83-693.61s305-693.62,679.83-693.62,679.83,311.16,679.83,693.62c0,216.61-97.83,410.34-250.77,537.63Z"/>
</svg>
