<svg xmlns="http://www.w3.org/2000/svg" viewBox="0 0 2994.91 3000">
  <title>30Icon_neon 1</title>
  <path d="M2897.66,1772.57a667.19,667.19,0,0,0-268.55-419.33,652.25,652.25,0,0,0-210.9-99L2413,1114.56c64.58-34.4,97-111.1,74.35-182.45l-13.83-43.66A154.27,154.27,0,0,0,2312.1,781.62l-60.76-96.87c48.83-62.52,44.5-153.34-13-210.83l-24.72-24.72a159.59,159.59,0,0,0-195.1-23.86L1923,398.13A163.46,163.46,0,0,0,1767.65,245l-27-1.29a163.71,163.71,0,0,0-160.35,104.72l-90.92,22.47c-43.27-66.64-131.53-89.84-202.47-51.22l-40.66,22.14a154.06,154.06,0,0,0-78.16,160.82l-25.48-14a644.12,644.12,0,0,0-246.75-76.76,658.06,658.06,0,0,0-471.61,137.3,644.16,644.16,0,0,0-167,197.21L173.74,898.6A644.12,644.12,0,0,0,97,1145.35,658.06,658.06,0,0,0,234.28,1617,644.09,644.09,0,0,0,431.5,1784l57.83,31.75a644.12,644.12,0,0,0,246.75,76.76c21.79,2.19,43.89,3.31,65.67,3.31a658.94,658.94,0,0,0,405.94-140.61,644.05,644.05,0,0,0,167-197.22l83.55-152.16A644.11,644.11,0,0,0,1535,1159a658.1,658.1,0,0,0-137.3-471.61Q1386.26,672.92,1374,659l76.45-36,1.32-.67a154,154,0,0,0,79.8-146.86l42.2-10.16A163.57,163.57,0,0,0,1724.31,588l27,1.29c2.63.12,5.29.18,7.92.18a163.93,163.93,0,0,0,141.45-81.67L1935.77,518A159.8,159.8,0,0,0,1970,692.88l24.72,24.72a160.09,160.09,0,0,0,168.62,36.65l40.55,65.32a154.06,154.06,0,0,0-58.82,173l13.83,43.66a153.07,153.07,0,0,0,75.91,90.21,154.76,154.76,0,0,0,67.72,17.34l2.8,86.2a652.1,652.1,0,0,0-224.62,3.07,667.25,667.25,0,0,0-419.34,268.55,653,653,0,0,0-105.93,239.6l-33.32,152a652.87,652.87,0,0,0-4,261.94,667.25,667.25,0,0,0,268.55,419.34,653.13,653.13,0,0,0,239.6,105.93l46.91,10.28a661.83,661.83,0,0,0,787.21-504.15l33.33-152A653.1,653.1,0,0,0,2897.66,1772.57Zm-52.84,251.24h0l-1-.21-33.32,152c-34.74,158.48-129.67,294.3-267.3,382.44-99.13,63.49-212.7,97-328.45,97h0a612,612,0,0,1-130.7-14.22l-46.91-10.29c-158.47-34.73-294.29-129.66-382.43-267.29s-117.56-300.71-82.82-459.18l33.33-152c34.73-158.47,129.66-294.29,267.29-382.44,99.13-63.48,212.72-97,328.48-97a611.5,611.5,0,0,1,130.7,14.23l46.91,10.28c158.47,34.74,294.29,129.67,382.43,267.3s117.56,300.7,82.82,459.18Zm-637.35-1003-13.83-43.66a103.16,103.16,0,0,1,67.11-129.34l34.83-11a103,103,0,0,1,129.35,67.11l13.83,43.66a103.2,103.2,0,0,1-67.11,129.35l-34.83,11a102.42,102.42,0,0,1-78.58-6.76h0A102.35,102.35,0,0,1,2207.47,1020.79ZM1972.16,465.16l-2.21,2.21c-1.88,1.88-3.72,3.82-5.51,5.79L1919,460q1-4.71,1.71-9.48Zm13.12,67.15L1991,534l5.9-20.27a110.77,110.77,0,0,1,9.07-10.27l18.18-18.18a108.43,108.43,0,0,1,153.37,0L2202.29,510a108.57,108.57,0,0,1,0,153.38l-18.18,18.18a108.57,108.57,0,0,1-153.38,0L2006,656.81a108.66,108.66,0,0,1-20.73-124.5Zm229.63,190.33L2260,794.53l-9.75,3.09-42.64-68.69Q2211.34,725.92,2214.91,722.64Zm151.82,519.67-10.09-2.21-3.38-103.91,9.42-3Zm-532-733.12a111.67,111.67,0,0,1-81,29.12l-27-1.28a112.55,112.55,0,0,1-107-117.64l.84-17.73a112.57,112.57,0,0,1,112.2-107.1c1.81,0,3.63,0,5.44.13l27,1.28a112.44,112.44,0,0,1,107,117.64l-.84,17.73A111.71,111.71,0,0,1,1834.69,509.19ZM1515,417.13l54.42-13.45-.5,10.37-49.72,12C1517.94,423,1516.53,420.05,1515,417.13Zm-101.52,964.11L1330,1533.41c-76.93,140.12-204.45,242.08-359.06,287.09s-316.93,27.43-457-49.5L456,1739.25C165.53,1579.75,59,1213.65,218.45,923.14L302,771C407.54,578.73,609.82,459.3,829.89,459.3a600.67,600.67,0,0,1,288.21,74.08l57.83,31.76c8.19,4.49,16.44,9.28,24.59,14.27l17.79,11.3C1478.24,762.35,1564.3,1106.61,1413.52,1381.24Zm-76.84-761.06a645.27,645.27,0,0,0-97.78-76.91l-9.36-17.2a102.81,102.81,0,0,1,41.12-139.43l40.67-22.14a102.79,102.79,0,0,1,139.42,41.12l1.12,2.05,5.79,23.59,6.22-1.53,4.59,8.43A102.89,102.89,0,0,1,1428,577.23Z"/>
</svg>
