<svg xmlns="http://www.w3.org/2000/svg" viewBox="0 0 2994.91 3000">
  <title>90Icon_neon 1</title>
  <g>
    <path d="M701.62,519.86,151.89,720l-23.95,8.72,805.81,2214,8.72,24,549.75-200.09,23.93-8.73-805.81-2214ZM973,2901.23,193.3,759.15,671.14,585.23l779.65,2142.08Z"/>
    <path d="M1046,885.29l1137.42-414,24-8.73-149-409.37-8.71-24-1137.42,414-24,8.72,149,409.39ZM2019.14,94.6,2142,432.1,1076.45,819.92,953.61,482.42Z"/>
    <path d="M1230,1390.79l130.3,358,8.71,24,987.21-359.32,24-8.72-139-382-987.19,359.31Zm980.68-302.66,104.13,286.11-915.31,333.15-104.13-286.12Z"/>
    <path d="M2740.87,1897.66l-8.72-24L1583.53,2291.76l-24,8.72,142.53,391.6,8.72,24L2859.43,2298l24-8.72Zm-999.57,753L1624.94,2331l1076.72-391.89L2818,2258.78Z"/>
  </g>
</svg>
