<svg xmlns="http://www.w3.org/2000/svg" viewBox="0 0 2994.91 3000">
  <title>94Icon_neon 1</title>
  <path d="M2882.19,2176.28l-50.7,5.5,55.56,512-917.94-784.22a1072.43,1072.43,0,0,0,137.61-240.07c54.61-132.1,82.29-272.41,82.29-417s-27.68-284.93-82.29-417a1069.86,1069.86,0,0,0-224.47-340.69C1786,396.28,1673.93,319,1549.12,264.93a1029.89,1029.89,0,0,0-816.31,0C608,319,495.91,396.28,399.68,494.75A1069.86,1069.86,0,0,0,175.21,835.44c-54.61,132.1-82.29,272.41-82.29,417s27.68,284.93,82.29,417a1069.71,1069.71,0,0,0,224.47,340.68C495.91,2108.66,608,2186,732.81,2240a1030,1030,0,0,0,816.31,0c124.81-54,236.9-131.35,333.13-229.83q28.82-29.48,55.13-60.89l917,777.53-499.21,35.78,3.68,50.86,561.52-40.24,26.38-1.89Zm-1741.23,97c-549.77,0-997-457.95-997-1020.86S591.19,231.6,1141,231.6,2138,689.56,2138,1252.47,1690.74,2273.33,1141,2273.33Z"/>
</svg>
