<svg xmlns="http://www.w3.org/2000/svg" viewBox="0 0 2994.91 3000">
  <title>110Icon_neon 1</title>
  <g>
    <g>
      <rect x="293.75" y="2226.47" width="278.74" height="1" transform="translate(-645.81 231.25) rotate(-17.39)"/>
      <polygon points="291.95 2290.09 268.62 2251.68 582.38 2153.58 597.62 2202.25 291.95 2290.09"/>
    </g>
    <g>
      <rect x="1242.08" y="2154.73" width="1" height="864.16" transform="translate(-1462.16 1627.64) rotate(-44.82)"/>
      <polygon points="1534.93 2909.23 902.33 2280.55 938.49 2244.59 1564.13 2880.7 1534.93 2909.23"/>
    </g>
    <g>
      <path d="M1461.45,2157.12c-60.2-105.61-133.87-206.48-219-299.78S1063.05,1682.5,961.8,1614.61c-96.22-64.52-194.13-113.74-291-146.29-97.9-32.89-188.43-46.72-269.07-41.11-40.46,2.81-77.9,10.64-111.26,23.27-34.34,13-64.55,31.16-89.79,54-58.82,53.12-91.23,146.55-91.25,263.07,0,56.79,7.58,117.29,22.55,179.81,15.61,65.18,38.94,131.11,69.33,195.94a1184.36,1184.36,0,0,0,119,199.24,1277.48,1277.48,0,0,0,171.64,189.29A2378.05,2378.05,0,0,0,733,2723.05c80.76,55.84,162,104.26,241.48,143.93,79.2,39.54,154.72,69.42,224.45,88.82,61.42,17.08,117.5,25.74,166.68,25.74,8.45,0,16.82-.26,24.87-.77,59.15-3.74,106.56-21,141.35-51.43l17.63-17.8.18-.21,15.14-19.6c31.37-45.11,50-103.27,55.47-173.3,6.11-78.31-4.6-167.13-31.83-264C1561,2356.81,1518.24,2256.78,1461.45,2157.12ZM234.83,1542.29c47.29-42.71,117.1-65.28,201.9-65.28,66.18,0,139.46,13.34,217.8,39.66,136.36,45.81,273.65,125.46,399.28,230.36L924.39,1949.47a60.65,60.65,0,0,0-9.86.11c-10.34.9-21.36,4-33,7.32-16.6,4.69-33.76,9.55-49.13,8.24-55.81-4.76-102.14,5.37-141.65,31-36.59,23.7-62.19,57.74-82.42,87.91-2.73,4.08-12.43,11.4-20.22,17.28-12.43,9.38-26.53,20-36.56,33.29-18.31,24.21-14.94,46.38-8.88,60.72,13.32,31.53,50.23,60,109.71,84.76,43.38,18,96.26,32.3,134.73,36.4l3.4.36c20.66,2.21,49,5.24,76.84,5.24,43.36,0,71.38-7.37,88.18-23.19C974.82,2280.69,990,2252,998.33,2218c7.93-32.44,8.06-64,.36-86.67-4.2-12.35-6.86-31.95-9.68-52.7-4.55-33.48-9.61-70.64-23.92-98.1l127.7-199.76a1558,1558,0,0,1,112,111c160.73,176.21,279.53,381,334.5,576.53,25.23,89.74,35.64,174.83,30.1,246.09-5.35,68.82-25.63,125.53-58.66,164-26.35,30.69-67.9,48-123.5,51.55q-10.4.66-21.37.66c-96.91,0-226.64-38.3-368.63-109.18C838.07,2741.9,675.15,2628.69,526.09,2494c-269.68-243.75-365.73-535.08-365.69-726.44C160.42,1665.6,186.85,1585.62,234.83,1542.29Zm715.58,605.42c4.45,13.08,3.81,35.91-1.62,58.15-5.82,23.82-16.38,44.71-28.24,55.88-1.56,1.47-11.28,8.84-49.23,9.3-26.28.33-54.67-2.71-75.42-4.93l-3.4-.37c-34-3.62-81.34-16.49-120.57-32.78-44.71-18.58-74.71-39.53-82.3-57.5-.94-2.22-1.82-4.32,2.71-10.27,5.77-7.58,16.29-15.52,26.47-23.19,12.52-9.45,24.34-18.37,31.86-29.59,34.41-51.33,72.21-97.41,155.68-97.41,7,0,14.26.32,21.69,1,24.65,2.09,48.31-4.6,67.36-10,7-2,16.88-4.78,22.46-5.5,11.53,18.14,16.54,55,20.62,85C941.64,2108.73,944.62,2130.69,950.41,2147.71Z"/>
      <path d="M2905.74,405.85l-1.94-6.11-45.18-43.46L2856,353.7l-74.76-38.32-63.33-26.23-43.44-14.91-8.09-63.52-.5-3.85-30.61-67.42-31.53-47.76-47.52-48.48L2496,11h-66L2373.4,34l-4.18,1.71L2311.32,88l-3.64,3.26-40,81.89-2.31,4.68-4.69,86.22-.29,5,24.36,69.15L2072.63,608.83c-29.38-22.18-55.28-29.83-79.05-23.38-42,11.41-61.26,60.9-85.63,123.56-29,74.53-65.07,167.29-148.35,219.56-104.6,65.65-263.25,45.46-368.24,32.1-34.57-4.4-64.46-8.2-86.54-8.26-102-4.58-213.22,10.64-330.68,45.22C880.63,1025.16,782.92,1065,683.73,1116c-168.85,86.82-285.28,177.34-286.44,178.24l-69.23,54.1-33.25,25.38,1.21-.34-4.07,3.18,128.25-37.77c95.08-28,206.81-17.16,332.09,32.25,114.92,45.33,240.21,123.84,362.34,227,177.22,149.76,336.14,338.13,447.51,530.42,110.07,190.05,162.41,364,147.39,489.69l-12.75,106.75,59.33-89.64c.45-.68,45.63-69.06,98.46-162.48C1903.44,2386.37,1969,2260.21,2004,2150l.06-.19c53.07-172.19,82.12-365,110.21-551.5,14-93,28.49-189.11,45.59-279.23,23-44.74,69.79-86.34,119.23-130.32,52.26-46.5,106.3-94.58,139.63-152.88,18.82-32.93,29.13-65.58,31.51-99.8,2-28.17-1.49-56.48-10.51-85.8L2590,652.47l21.51,9.11,88.79,18.12,4.46.9,85.89-13.28,58.28-37.82,43-55.1,2.41-3.1,20.89-55.7,7.26-58Zm-199.8,223-79.28-16.17-47.33-20-51.28-34.65-28.58,42.25,43.73,29.53L2415.78,797.39c-39.54-59.26-103.52-81-170.9-103.89-41.29-14-86.82-29.5-130.32-55.5l199.3-254.25,35.31,43.15,39.46-32.31L2336,330.27l-24.13-68.49,3.85-70.79,33.44-68.42,47.61-43L2440,62h43.23l42,22.45,38.67,39.44,26.61,40.31L2616.23,221l7.94,62.35-4.65,43.41-13.45,38.43L2654.2,382l15.38-43.94L2671,325l28.81,11.85,60,24.84L2826,395.64l33.18,31.92,11.27,35-5.09,40.73-16.07,42.85-35.32,45.28-41.83,27.19ZM1761.36,2531c-4-49.46-15-102.92-33-159.86-27.81-88.46-71.45-183-129.7-281.15-56.56-95.26-124.41-189.74-201.68-280.82-78-92-162-176.11-249.47-250.06-61.76-52.19-124.42-98.42-186.22-137.41-64.73-40.83-128.77-73.84-190.33-98.12-85.75-33.82-167-51-241.52-51q-6.51,0-13,.17a2088.18,2088.18,0,0,1,190.56-111.46c150.88-77.58,376.76-168,596-157.95l1.14,0c18.93,0,47.57,3.64,80.72,7.86,50.12,6.37,111.66,14.2,175.14,14.2,78.62,0,160.22-12,226.64-53.71,43.67-27.4,79.77-65.68,110.36-117,25.7-43.13,43.08-87.81,58.41-127.24,10.7-27.49,19.93-51.24,29.74-68.7,10-17.77,17.33-22.92,21.73-24.12,7.69-2.09,21.57,4.21,38.08,17.27a401.56,401.56,0,0,0,33.52,23.81l4,3.12.33-.42c49.44,30.66,99.95,47.83,145.63,63.35,69.37,23.56,124.22,42.19,152.76,97.29,26.72,62.17,24.66,116.57-6.46,171.12-29,50.88-80.18,96.4-129.65,140.42-54.38,48.38-105.74,94.07-132.62,148.94l-.73,1.51-1.1,3.29-.31,1.64c-17.57,92.08-32.32,190-46.59,284.69-27.81,184.58-56.56,375.44-108.49,544-33.6,106-97.46,228.75-145.12,313C1792.55,2478.87,1775.81,2507.17,1761.36,2531Z"/>
    </g>
  </g>
</svg>
