<svg xmlns="http://www.w3.org/2000/svg" viewBox="0 0 2994.91 3000">
  <title>62Icon_neon 1</title>
  <g>
    <path d="M2887.35,1457.77,2877,1440.68a250.46,250.46,0,0,0-76.27-79.32c28.68-52.58,42.64-109.67,40.53-166.56-2.12-57.21-20.68-110.08-53.69-152.9l-17.73-23-1782.46,1787-25.2,25.25,32,15.67c36.87,18,77.3,27.16,120.17,27.16a309.86,309.86,0,0,0,54.37-4.89c68.33-12.19,112-47.36,154.18-90.47,57.25,46.77,112.35,70.45,164,70.45l2.32,0,10.32-.15,7.36-7.34L2873.26,1471.89Zm-1408.68,1340c-42.28-2.91-89.45-27.5-140.41-73.23l-18.57-16.65-17,18.19c-44.41,47.34-80.65,81.71-142.79,92.8-37.82,6.74-74.79,5.1-108.72-4.65L2763.4,1097.6c16.37,29.34,25.6,63.1,26.94,99.09,2,54.74-13.87,110-46,159.86l-15.18,23.56,24.91,12.9a200.15,200.15,0,0,1,68.27,57.7Z"/>
    <path d="M2670.5,939l-.3-11c-.12-3.8-.42-13.89-18.71-47.35a536.51,536.51,0,0,0-43.14-66.18c-19.72-25.82-39.9-47.12-60-63.29-28.41-22.89-56.7-35.47-84.06-37.38l-23-1.6-2.21,14.33-15.27,15.28c-13.43,13.43-33.12,33.15-58.18,58.24L2158.11,1008c-171.76,172.07-400.76,401.49-629.75,630.92-458,458.86-915.93,917.73-915.93,917.72l-18.3,18.33,18.63,18c45.36,43.81,106.74,67,174.53,66.25a231,231,0,0,0,45.08,83.28l18,21.14L869.87,2744l1793-1797.26ZM854.9,2686.81a188.47,188.47,0,0,1-23.11-59.26l-4.63-22-22.45,1.87c-51.69,4.32-99.25-7.83-136.51-34.45C855.86,2384.9,2342,895.83,2471.4,766.41c28.8,7.15,62.58,34.73,96.42,79,22.7,29.71,39.93,60.32,47.57,76.63Z"/>
    <path d="M2399.87,565.93l-7.24-16.07c-22.51-49.94-60.76-88.48-110.63-111.47-43.42-20-93-26.81-144.73-20l-.2-.95-48.91,10.38.2.93a350.84,350.84,0,0,0-54,20.88l-1.88.91-3.57,2.53L219,2267.23l-21.81,21.87,25.59,17.27c32.91,22.23,82.18,45.37,144.64,45.37a265.87,265.87,0,0,0,55.24-5.91c4.45-.95,9.11-1.9,14-2.9,17.95-3.68,38.29-7.84,57.94-13.64-.7,8.76-.74,15.12-.74,16.68v5.25c0,27.89.46,37.11,10.61,63.71l14.07,36.77L2387.42,578.37ZM544.87,2353.1v-7.2c0-17.52,3.29-37.64,7.9-47.85l33.32-73.77-69.59,41.36c-22.8,13.56-60.09,21.19-90.06,27.32l-.2,0c-4.88,1-9.63,2-14.16,2.94-54.81,11.63-100.17.15-133.58-16.13L2060.36,493.7a292.24,292.24,0,0,1,62.83-21.2c92.48-19.64,175,12.74,215.1,82.91Z"/>
    <path d="M2965.68,1633.69c0-7.15-.34-14.56-1-22l-4.58-54.92L1744.85,2776.58l45.66,9.84c24.76,5.34,48.48,8,70.5,8a235.86,235.86,0,0,0,48.76-4.87c41-8.71,80.46-25.47,117.29-49.81,9.32-5.56,244.33-145.92,343.35-212.51,37.49-25.2,94.16-56.84,154.18-90.35,81.2-45.32,165.17-92.2,215.57-130.88,23.73-18.21,65.07-62.48,122.88-131.57,15.94-16.5,32-36.12,40-49,6.14-9.84,60-98.6,59.89-183.7-.08-44.68-25.78-114.18-47.88-154.78C2942.36,1742.5,2965.79,1693.06,2965.68,1633.69Zm-105.87,464.73c-6.25,10-20.57,27.35-34,41.24l-.65.66-.59.71c-54.17,64.77-95.16,109-115.42,124.56-47.45,36.41-129.77,82.36-209.38,126.81-61,34-118.53,66.16-157.78,92.55-89.29,60.05-291.3,181.29-333.6,206.6l-.71-.1-8,5.35c-31.62,21-65.35,35.43-100.26,42.87l-.17,0a193.14,193.14,0,0,1-49.08,3.51l1058-1062c-9,33-26.21,63.22-44.34,91.54l-8.81,13.76,8.83,13.77c18.9,29.42,48.09,103.46,48.15,141.55C2912.07,1999.49,2877.9,2069.47,2859.81,2098.42Z"/>
    <path d="M1369.07,239l-35.28-14.56c-40.68-16.79-86.34-22.58-133.37-17.06l-.19-1-24.4,4.88-.13,0-24.5,4.9.19.93a343.81,343.81,0,0,0-89.24,39.65l-.2-.1-8.27,5.53-3.5,2.35-.59.39c-2.53,1.71-255,171.94-428.18,324.53C455.82,735.42,253.08,936,244.57,944.38,205.65,980,179,1012.16,160.74,1045.54c-21.54,39.35-31.67,81.13-31,127.71.13,8.84,3.9,46.27,6.06,66.75-25.45,23.58-55.14,53.9-77.48,89.53-26.87,42.84-39.59,86.86-38.89,134.57a268.11,268.11,0,0,0,8.76,64.82l11.4,42.82L1342.11,266.05ZM70.57,1468.49c-.07-1.71-.11-3.42-.14-5.14-1.21-83,51.78-142.46,109.21-194.32l9.88-8.91L187.87,1247c-1.22-9.87-7-67.12-7.12-74.46-1.05-71.53,26.62-125.06,98.71-190.92l8.3-7.94v-.24c38.79-38.25,217.17-213.28,367.36-345.61,149.4-131.64,358.13-276.24,410.68-312.15h0l12.37-8.42c33.61-22.9,69.78-38.34,107.51-45.88,31.14-6.24,61.72-6.57,90.2-1.14Z"/>
    <path d="M1821.37,471.62l-9.61-16.87c-24.66-43.25-61.14-73.64-111.5-92.89-39.91-15.25-87.71-23.59-155-27-12.64-.65-33.54.29-52,1.12-9.43.43-22.35,1-25.38.84l-11.42-.62-8,8.08L135.16,1660.81l-16.4,16.45,14.83,17.84c18.76,22.62,57.36,56.81,96,80.47-44.85,27.17-82.14,57.16-111.2,89.51-48.16,53.59-71.89,111.86-70.55,173.18,1,47.2,13.78,92.06,36.87,129.74l16.92,27.61,1706-1710.24Zm-1707.92,1640a216.35,216.35,0,0,1-14.58-74.45c-2.62-119.67,122.73-202.06,197.7-240.52l56-28.74-60.22-18.33c-30.88-9.41-76-43.4-103.65-70.19L1477.19,387.67c4.81-.15,10.84-.42,18.39-.76,15.58-.7,36.93-1.66,47.12-1.14C1627.26,390.09,1711,402.93,1757,464Z"/>
  </g>
</svg>
