<svg xmlns="http://www.w3.org/2000/svg" viewBox="0 0 2994.91 3000">
  <title>134Icon_neon 1</title>
  <path d="M2798.79,951.33a1413.52,1413.52,0,0,0-750.12-750.11C1874.88,127.71,1690.28,90.44,1500,90.44s-374.88,37.27-548.67,110.78A1413.6,1413.6,0,0,0,201.21,951.33C127.71,1125.12,90.43,1309.72,90.43,1500s37.28,374.88,110.78,548.68a1413.66,1413.66,0,0,0,750.12,750.11c173.79,73.5,358.39,110.78,548.67,110.78s374.88-37.28,548.67-110.78a1413.7,1413.7,0,0,0,750.12-750.11c73.5-173.8,110.78-358.4,110.78-548.68S2872.29,1125.12,2798.79,951.33ZM2858.57,1500c0,749.12-609.45,1358.57-1358.57,1358.57S141.43,2249.12,141.43,1500,750.88,141.44,1500,141.44,2858.57,750.89,2858.57,1500Z"/>
</svg>
