<svg xmlns="http://www.w3.org/2000/svg" viewBox="0 0 2994.91 3000">
  <title>158Icon_neon 1</title>
  <g>
    <path d="M2787.17,993.41h0c-88.94-115.9-211.41-210.75-385.41-298.48-262.3-132.24-571.39-197.74-918.65-194.63l-178.52,9.75-1.21.19c-30.69,4.71-60.92,8.85-90.17,12.86-80.14,11-155.83,21.35-230.63,41.74C782.8,619.32,621.82,684.18,490.44,763.12,416.26,807.69,349.77,858,292.81,912.66a935.62,935.62,0,0,0-155,194.08c-41,68.44-70.33,152.71-82.66,237.28-14.11,96.86-5.9,192.35,23.76,276.14,25.14,71,62,139.46,106.48,197.89a975.59,975.59,0,0,0,158.15,163c56.73,46.44,121.39,89.18,192.19,127.06,128.66,68.84,281.13,124.3,466.12,169.55,57.52,14.07,114.59,20.84,175,28,32.21,3.82,65.52,7.77,99.18,12.95l1.23.19,144.87,7.71c35.66,5,104.61,2.41,135.84-1.89l51.57-1.88,168.73-15.61,100-17.25,71.47,31.29,5.38,2.35c30.79,13.48,61.68,27,88.44,38.71l.54.23,23.06,9.47c91.3,37.55,177.53,73,285.7,98.26l1,.21c19.95,3.84,37.07,8.49,53.63,13,17.39,4.73,35.37,9.62,57.06,13.81,3.07.66,7.25,1.82,11.68,3.05,12.52,3.49,26.71,7.43,40,7.43,20.13,0,30.67-9.18,36-16.88,18.08-26.28-3.79-65-32-109.21l-.09-.14c-2.13-3.35-4-6.24-5-8-28.64-48.11-56.69-114.1-77.25-162.53-4.64-12.91-9.27-25.61-13.37-36.85-4.27-11.68-9.09-24.9-13.87-38.21-1.87-6.26-4.23-13.11-6.54-19.78l12.92-6.64.24-.13c11.4-5.84,23.19-11.89,33-17.16l.7-.37,103.43-64.08,1.17-.77c80.29-56.2,146-114,200.8-176.67,63.16-72.2,110.52-149.06,144.8-235,13.77-34.5,21.25-71.1,29.16-109.87l1.5-7.29C2965.76,1332.56,2917.09,1162.74,2787.17,993.41ZM2489.83,2451.17c-5.32-1.48-10.35-2.88-15-3.86l-.43-.09c-19.91-3.84-37-8.49-53.57-13-17.35-4.72-35.27-9.59-56.86-13.77-103.93-24.31-188.2-59-277.4-95.65l-.79-.32-22.05-9.06c-26.72-11.68-57.55-25.18-88.28-38.63l-8.64-3.79-2.27-1c93.8-23.63,212.23-63.31,277.53-89.84,23.11-9.4,79.8-32,115-46.06,1.82,5.28,3.59,10.5,4.88,14.92l.45,1.38c4.86,13.55,9.62,26.58,14.22,39.18l.17.48q6.5,17.8,13.36,36.81l.52,1.32c21.15,49.82,50.11,118.05,80.65,169.36,1.48,2.48,3.45,5.58,5.95,9.49,5.81,9.12,13.77,21.6,20.4,34.1,2.41,4.55,4.25,8.36,5.65,11.54C2498.3,2453.52,2493.22,2452.11,2489.83,2451.17Zm-96-387.14c-7.2,3.69-14.59,7.48-21.53,11.09l-4.42,1.76c-1,.41-110.45,44-145.05,58-81.92,33.29-247.42,87.19-338.23,102.26l-.18-.08-61.54,10.62-28.58,4.39.87.39-23.62,4.07L1607,2271.85l-52.19,1.91-1.34,0-1.32.19c-27.39,3.95-93.73,6.4-123.74,1.94l-1.17-.18-144.69-7.7c-34-5.21-67.39-9.17-99.66-13-58.84-7-114.41-13.56-168.9-26.9-379-92.72-629.42-232.86-788-441-41.36-54.27-75.58-117.9-99-184-62.24-175.84-9.5-363.2,54.58-470.21,144.9-242,403.71-406.88,814.46-518.89,71.59-19.52,145.69-29.67,224.14-40.42,29-4,59-8.09,89.73-12.79l174.28-9.55c7.47-.06,15-.1,22.42-.1,329.67,0,623.13,63.69,872.23,189.28,166.9,84.15,283.8,174.39,367.91,284,120.51,157.06,166,313,135.15,463.46l-1.5,7.34c-7.44,36.46-14.47,70.9-26.55,101.16-60.2,150.87-164.08,274.28-326.89,388.35q-50.73,31.41-101.42,62.84c-9.29,5-20.55,10.73-31.46,16.32Z"/>
    <path d="M1975.85,682.5l139.93,133.12-104.57,102.9L1910.6,823.21l-17.92-17L1321.6,1371l-4.93,4.88-80.9,305.73-174.53,171.76-44.92,44.24-59.41,58.73c-24.59,24.32-50,49.47-75,74.31L917,2066.27c25.07-24.42,50.45-49.31,75-73.39l60.11-59,44.9-44.21,174.56-172,299.44-80,6.49-1.73,566.88-554.8,18.92-18.52-115.08-109,104.5-102.82,141.14,134.28,35.16-37L2011,645.55Zm-681.27,976.22,67.84-256.37,531-525.13,196.36,186-538.36,526.89Z"/>
  </g>
</svg>
