<svg xmlns="http://www.w3.org/2000/svg" viewBox="0 0 2994.91 3000">
  <title>102Icon_neon 1</title>
  <g>
    <path d="M2971.74,300.27c-9-41.21-31-103.6-55.92-143.11-19.28-30.64-56.2-68.5-122.52-74.89-80.25-7.73-124.74,25.7-154.54,55.7-19.78,19.91-56.89,60.56-83.07,109-20.88,38.64-45.46,87.66-71.52,139.62-35.16,70.13-71.53,142.65-101,193.77-50.82,88.21-172.78,291.28-237.93,383.56-67.69,95.87-303.83,375.72-306.22,378.54l-42.11,49.91,207.88-26.18-6.37-50.6-78.55,9.89c72.48-86.65,215.47-259.12,267-332.15,66.11-93.62,189.23-298.59,240.46-387.52,30.18-52.39,66.88-125.58,102.37-196.36,25.86-51.56,50.28-100.26,70.8-138.23,23.14-42.81,56.54-79.34,74.39-97.31,24.39-24.56,55-46.51,113.45-40.87,36.72,3.53,65.06,20.79,84.27,51.29,20.73,32.92,41.31,90.31,49.23,126.77,7.62,35.08,4.88,109.42-.29,143.19-9.84,64.39-53.49,189.89-79.88,254.44-82.79,202.46-310.11,580.71-354.83,654.48-19.78,32.62-81,114.77-114.38,159l-20.22-33.07-73.07-83.51-38.38,33.59,70.21,80.22,56.85,93,22.62-29.59c4.52-5.92,111-145.57,140-193.27C2575.58,1315.31,2804.7,934,2888.93,728c27.32-66.82,72.63-197.57,83.1-266C2978,422.68,2980.84,342.13,2971.74,300.27Z"/>
    <polygon points="2226.05 1428.9 2253.46 1385.89 2184.04 1341.64 2180.55 1339.41 2066.72 1311.39 2054.57 1360.92 2160.18 1386.92 2226.05 1428.9"/>
    <path d="M944,986.84l25.44-9.15c27.12-7.43,92-20.81,170-26.2,13.92-1,87.86-5.3,176.82,3.44,48.41,4.76,97.57,33.35,146.1,85,96,102,125.58,154,137.82,241.9,11.52,82.69,1.86,153.42,1.76,154.1l-9.2,64.24L1771.16,1356l10.1-8.15-.64-12.89c-.19-4.08-4.93-100.51-24.79-147.22-58.1-136.67-132.39-214.51-183.22-261.17-19.83-18.21-60.08-45.68-113.57-68.2-39.78-16.74-99.7-36-159.23-32.43-105.47,6.25-163.72,24.36-210.52,38.91l-5.87,1.83a710,710,0,0,0-106.05,43c-33,16.68-44.85,26.07-49.61,30.9a27.08,27.08,0,0,0-4.7,5.22l-111.31,98.84,131.51-57.85Zm358.83-110c91.93-5.45,200.3,55.17,235.29,87.29,47.34,43.46,116.54,116,170.78,243.55,11.23,26.42,17.55,82.33,20,116.9l-72.18,58.34a677.87,677.87,0,0,0-6-108.12c-7.17-51.48-19.71-90.42-41.92-130.23s-55.89-82.82-109.25-139.58c-57.24-60.88-117.22-94.79-178.27-100.79-37.84-3.72-77.3-5.61-117.29-5.61-22.16,0-40.13.59-52.55,1.17C1188.47,890,1235.44,880.82,1302.83,876.82Z"/>
    <path d="M2274.27,1512.67c-16.13-19.55-45.86-44.57-79.52-66.93-21.08-14-61.52-38.72-95.47-46.8-22.56-5.36-62.19-3.43-121.13,5.93-42.69,6.78-79.26,15-79.62,15l-55.12,12.35,45.72,33.17c22.7,16.48,59.92,46,67.73,57.13,38.37,54.5,83.25,186.75,94.78,249.31,11.9,64.53,11.89,204,0,271.32-13.79,78-68.77,236.44-113.26,310.23-21.23,35.2-108,123.05-139.67,153.92l-166.75,162.54,198-122.6c10.57-6.54,259.64-161.09,331.81-232.69,53.11-52.7,144-168.16,169.45-239.07,14.35-40,25.27-105.56,29.95-179.86,4.39-69.58,2.8-137.43-4.23-181.51C2348.9,1664.12,2311.87,1558.25,2274.27,1512.67Zm8.9,545.62c-21.74,60.6-107.73,170.82-157.38,220.08-28.79,28.57-91.19,73.46-153.41,115.63,3.79-5.17,7-10,9.64-14.26,30-49.7,58.16-123.13,72.29-162.48,22.57-62.82,40.33-124.57,47.52-165.19,13.19-74.49,13.17-217.87,0-289.46-12.51-67.82-58.94-206.5-103.24-269.42-6.68-9.49-20.26-22.11-34.74-34.25,53.22-9.39,104.41-15,123.65-10.38,41.84,10,121.06,64.58,147.46,96.57,30.65,37.15,64.56,133,71.59,177C2319.6,1804.07,2310.62,1981.76,2283.17,2058.29Z"/>
    <path d="M2438.81,1671.54l-46.91-34.7,25.24,228.77,1.52,4.83,1.16,2.14c17.68,32.54,65.2,125.18,72.64,162.51,8.17,41,18.45,124.5,15.65,168.19-2.56,40.08-9,74.78-15.81,111.57-3.37,18.19-6.85,37-10,57.25-7.26,46.32-18,105.76-23.22,134.33-1,5.36-1.76,9.67-2.29,12.65-.21,1.18-.38,2.14-.52,3l-6.86,20.62,3.93,1.52-3.49,19.62,27.65-10.45a24.65,24.65,0,0,0,3.73.28,25.16,25.16,0,0,0,18.21-7.78c17.33-7.61,56.13-27.3,90-63.2,31.2-33,52.51-97.73,65.14-197.77,9.34-73.9,10.83-144.24,11-171.06.46-59.66-12-178.12-47.45-242C2555.16,1758.25,2440,1672.38,2438.81,1671.54Zm175.83,441.9c-1,134.64-20.71,290.2-62.26,334.2a223.08,223.08,0,0,1-36.47,30.9c5.32-29.82,11.83-67.11,16.75-98.55,3.06-19.56,6.48-38,9.8-55.9,7.09-38.28,13.79-74.43,16.55-117.55,3.25-50.84-7.94-138.31-16.54-181.42-9.42-47.28-62.28-147.86-75.44-172.44l-11-99.87c36,33.3,84.71,84.52,117.58,143.77C2602.34,1948.4,2615.08,2056.61,2614.64,2113.44Z"/>
    <path d="M1671.65,965.23c28.35,33.76,75.09,113.52,93.47,155.13,12.05,27.29,34.61,113.08,42.29,143.84l10.11,40.5,63.49-55.56-4.64-15.72c-1.32-4.43-32.52-109-48.23-142.15-21.38-45.2-70.46-126.43-112.61-165.52-28.78-26.68-106.64-75.54-109.94-77.6l-20.83-13-27.33,42,20.36,13.75C1598,904.54,1654.23,944.48,1671.65,965.23Z"/>
    <path d="M27,2597.47,73.23,2742.3l7.86,24.5,202.34-67-59.14-167.56Zm87,104.74-23-72.16,101.91-33.66,25.2,71.38Z"/>
    <path d="M1974.35,2030.9l2.24-7.32c18.41-60.7,25.3-144.64,18.45-224.55-3.77-44-11.43-85.19-22.76-122.44-12.76-41.9-30-77.89-51.09-107-20.28-27.88-44.19-49.41-71.07-64-27.15-14.74-57.5-22.53-90.27-23.14l-1.38,0-1.34.13c-76.59,6.9-147.11,69.22-203.78,119.3-7.43,6.57-14.46,12.78-21.11,18.51l-194.85,143.25c-211.87,140-476.05,285.55-730,422l-12,6.43-1.35,13.59c-14.95,155.65-122.65,323.93-292.81,329.2L262.49,2536l16.44,35.1a665.63,665.63,0,0,1,24.54,62.77L316.54,2673l29.16-29.16c182.9-183,359.57-160.74,608.28-105.93l6.7,1.46,6.52-2.09c34.08-10.91,79-25.95,122.39-40.5l.26-.09c43-14.38,87.36-29.26,120.88-40,136.39-42.72,271.67-101.62,402.08-175.06,122.93-69.22,242.59-151.93,355.72-245.88Zm-44.47-29.35c-228.72,188.75-475.8,325.5-734.49,406.51l-.16.05c-33.85,10.85-78.45,25.79-121.57,40.24l-.27.08c-40.51,13.58-82.32,27.58-115.22,38.19-89.89-19.7-183.81-38-274.57-38a594,594,0,0,0-63.07,3.22A499.39,499.39,0,0,0,538,2467.56q3-3.49,5.91-7.09c52.63-64.59,88.47-150,99.41-236.26,251.57-135.26,512.33-279.27,722.76-418.39l.52-.34,177.77-130.7,19.67-14.46.72-.62c7.09-6.1,14.45-12.6,22.24-19.48l.15-.13c50.7-44.8,113.69-100.48,173.22-106.59,49.06,1.31,88.19,23,119.59,66.12C1956.18,1704.44,1957.77,1900.2,1929.88,2001.55Z"/>
  </g>
</svg>
