<svg xmlns="http://www.w3.org/2000/svg" viewBox="0 0 2994.91 3000">
  <title>86Icon_neon 1</title>
  <g>
    <path d="M2243,194,2185.58,36.2l-410,149.22-11.95,4.35-300.59,984.35L1693,1806l25.85,71L2240.48,202.2Zm-87.92-92.44,34.12,93.73-474.1,1522.21L1516.82,1172.7,1805,229Z"/>
    <path d="M2344.53,512.37,2319.28,443l-218.65,668.43-2.73,8.43,440.82,1186,8.82,23.75,404.78-147.33Zm233.17,1752L2151.89,1118.75l170-519.57L2887,2151.8Z"/>
    <path d="M1318.78,1225.82,473.53,670.24l-10.69-7L64.76,808.12l-24,8.72L96.44,969.73l1411.63,910.11,63.7,41.06-250.1-687.13ZM138.5,936.17l-32.34-88.85L456.24,719.91l820.4,539.24L1472,1795.91Z"/>
    <path d="M802.61,1609.42l-607.82-399L819.12,2925.8l8.72,24,408.49-148.68L805.5,1617.4Zm55.72,1275-563.06-1547,465.18,305.34L1171,2770.62Z"/>
  </g>
</svg>
