<svg xmlns="http://www.w3.org/2000/svg" viewBox="0 0 2994.91 3000">
  <title>98Icon_neon 1</title>
  <g>
    <path d="M1159.41,1513.23l18.08-18L960.93,1278,609.36,1627.71,277,1303l-18.06-17.6-215,215.64L388,1847.17,66.35,2172,48.5,2190,247,2389,265,2407.12,605.8,2065.51l335.81,334.1,18,18,198.57-199.13,17.93-18L823.64,1847.2ZM265,2334.91l-144.61-145,321.64-324.83,17.78-18-344-346,143.54-143.95,332.3,324.6,18,17.56,351.09-349.2,144.55,145L769.58,1829l-18.13,18,352.69,353.43-144.61,145L623.72,2011.4l-18.05-18Z"/>
    <path d="M2054.52,1165.4l18.08-18L1874,948.25l-18-18-351.58,349.68L1172.09,955.19,1154,937.59,956.91,1135.27l-17.88,18,344.08,346.08L961.44,1824.19l-17.81,18,198.45,199,18.06,18.08,340.77-341.62,335.81,334.11,18,18,198.57-199.13,17.94-18-352.53-353.25Zm-894.39,821.68-144.61-145,321.64-324.82,17.78-18-344-346,143.54-143.95,332.29,324.59,18,17.58,351.1-349.21,144.55,145-335.75,334-18.13,18,352.69,353.43-144.61,145-335.81-334.1-18-18Z"/>
    <path d="M2941,816.27l18.08-18L2760.55,599.12l-18-18L2391,930.76,2058.62,606.07l-18.06-17.62-215,215.65,344.1,346.11L1848,1475l-17.86,18,198.47,199,18.06,18.08,340.77-341.61,335.81,334.1,18.05,18,198.57-199.13,17.94-18-352.52-353.26ZM2046.65,1638l-144.61-145,321.64-324.83,17.78-18-344-346L2041,660.2l332.3,324.61,18,17.55,351.09-349.2,144.55,145-335.75,333.95-18.13,18,352.69,353.43-144.61,145-335.8-334.1-18.06-18Z"/>
  </g>
</svg>
