<svg xmlns="http://www.w3.org/2000/svg" viewBox="0 0 2994.91 3000">
  <title>44Icon_neon 1</title>
  <g>
    <path d="M2566.51,1113.26a794.31,794.31,0,0,0-89.34-181.83c-37.21-56.08-80.91-106-129.89-148.31A647.83,647.83,0,0,0,2218.4,696a593,593,0,0,0-146.85-52.17c-107.86-22.78-218.79-14.51-329.68,24.57-58.92,17.71-126,60.84-160.86,85-22.37,15.53-43.9,31.91-60.63,46.11-8.54,7.26-14.92,13.17-19.7,18.07-38.54-35.86-131.57-105.23-164.44-119.75-70.27-39-171.58-63.5-269.85-66v-.49l-24.92.35h-.08l-25,.35v.59A573.83,573.83,0,0,0,885,656.62c-48.48,14.69-96.74,35.85-143.45,62.89-73.88,42.79-139,102-193.4,175.85-53.73,72.92-94.27,156.28-120.48,247.76a853.26,853.26,0,0,0-30.9,291.06c6.8,105,32.39,207.93,76.05,305.82,53.72,120.43,138,206.94,219.46,290.61,33.11,34,67.36,69.16,98.92,106l.65.72q345.2,372.76,690.34,745.47l4.44,4.79,24.93,8.3L2161,2193.55l.63-.71c37.76-44.11,77.22-85.48,115.39-125.48,69.47-72.83,135.09-141.61,191.25-225.33a823.31,823.31,0,0,0,75.4-138.59c22.72-53.55,39.58-109.1,51.54-169.84A813.76,813.76,0,0,0,2566.51,1113.26ZM1313.85,743.76l1.37.57c22.94,9.46,126.53,85.16,156.74,116.41,5.47,8.07,13.62,18.77,28.13,19.51,15,.77,23.52-9.63,28.14-15.21l.16-.2,1.38-1.66,4-4.77.48-2.12c7.11-8.21,33.42-31.53,75.82-61,32.45-22.53,94.69-62.66,147-78.23l1.2-.39c195.85-69.21,398.39-30.94,555.67,105,191.84,165.82,282.62,441.39,231.28,702.05-46.82,237.71-172.25,369.2-305.06,508.41-38.52,40.38-78.36,82.13-116.9,127.13l-620.31,670.86-673.3-727.07c-32.53-37.95-67.23-73.59-100.81-108.06-78.36-80.47-159.39-163.67-209.4-275.79-82-183.77-95.76-387.08-38.84-572.48,51.55-167.86,156-307.5,286.55-383.1,90.5-52.41,183-79.63,274.95-80.9,97.86-1.38,201.54,21.74,270.47,60.29Z"/>
    <path d="M823,323.46c2.9,1.32,291.64,133.55,467.58,222.64l1,.5c43.15,19.43,167.22,62.88,197.14,106.63l13.84,16.52,15.82-13.46c70.55-62.24,163.34-107.87,266.89-155l.24-.12c74.64-34.94,139.12-61.56,232-98.45l.38-.15,305.5-133.22-388.62,5.76L2000.13,89.5,2025,19,1640.5,268.07l-115-206.3L1502.59,20.7l-131,248.08L979.21,20.2l105.89,260-374.33-8.06Zm1039.38,3.71,207.87-3.08-71.95,31.38c-93.52,37.15-158.62,64-234.25,99.44-100.26,45.65-187.08,99-258.43,158.82-41.08-41.68-119.18-80.35-192.53-113.39-107.84-54.6-256.93-124.9-357.92-171.94l206.45,4.45-75-184.27,304.37,192.81L1503.8,127.64l105.41,189.05,13.26,23.83,304.72-197.44Z"/>
  </g>
</svg>
