<svg xmlns="http://www.w3.org/2000/svg" viewBox="0 0 2994.91 3000">
  <title>84Icon_neon 1</title>
  <path d="M2691.6,2169.9,1325.39,65.13l-11-17.06-887.7,323.1-19,6.89L410,398.13,706.68,2900.48l3.74,31.76,519-184.69,18.89-6.73-220.94-2112,585.2,927.82-320.17,116.53,78.32,446.05,5.24,30,521.66-189.88,270.81,416.42L2179.6,2393l499.17-185.81,29.76-11.1Zm-491.49,161-270.75-416.32-11-17-502.57,182.92-65.67-374,309.69-112.72L1689.5,1583,1012.24,509.23l-58.31-92.5,239.52,2289.5L753.57,2862.76,463.06,412.19l830.57-302.31L2631.15,2170.45Z"/>
</svg>
