<svg xmlns="http://www.w3.org/2000/svg" viewBox="0 0 2994.91 3000">
  <title>70Icon_neon 1</title>
  <g>
    <path d="M571.21,2424.67,343.75,2958.12h2277l-204.28-533.45ZM420.94,2907.12l184-431.45H2381.39l165.22,431.45Z"/>
    <path d="M2693.05,839a1290.43,1290.43,0,0,0-276.92-409.52,1294.49,1294.49,0,0,0-410.72-276.07C1846.1,86.19,1676.88,52.13,1502.46,52.13S1158.83,86.19,999.52,153.38A1293.28,1293.28,0,0,0,311.88,839c-67.4,158.85-101.57,327.59-101.57,501.52a1293.33,1293.33,0,0,0,28,267.92A1280.12,1280.12,0,0,0,445,2081.05a1298.84,1298.84,0,0,0,167.21,193.21l7.38,7H2385.34l7.36-7a1290.78,1290.78,0,0,0,293.78-417.07,1278.77,1278.77,0,0,0,80.15-248.79,1293.33,1293.33,0,0,0,28-267.92C2794.62,1166.56,2760.44,997.83,2693.05,839ZM640,2230.27C395.71,1995,261.31,1679.42,261.31,1340.49c0-682.28,556.78-1237.36,1241.15-1237.36S2743.62,658.21,2743.62,1340.49c0,338.93-134.4,654.51-378.68,889.78Z"/>
  </g>
</svg>
