<svg xmlns="http://www.w3.org/2000/svg" viewBox="0 0 2994.91 3000">
  <title>48Icon_neon 1</title>
  <path d="M1227.3,82.67l-12.08,4.39c-17.65,6.38-36.78,12.89-57,17.26-22.88,4.75-45.84,8.55-68,12.22l-35.43,5.61-5,.77-4.27,1c-3.3.82-6,1.53-8.54,2.24-5.13,1.41-10.54,3.06-17,5.2l-.19.06c-26,8.81-47,19-64.26,31.12a122,122,0,0,0-26.88,25l-.61.76-.54.8c-.14.2-.53.71-.81,1.08a59.73,59.73,0,0,0-4.06,5.91l-4.12,7.66-3.66,6.73-.65,1.28c-.92,2-1.74,3.89-2.46,5.59l-.06.14c-.35.82-.7,1.65-1.06,2.47l-.16.35c-.76,1.81-1.53,3.59-2.32,5.4-1.45,3.32-3,6.77-4.41,10.46l-6,16.33c-2.92,7.51-5.39,15.09-7.78,22.43-1.17,3.6-2.38,7.32-3.62,10.92l-.15.47C871,333,858.19,380.92,847.59,421.7c-10.31,39.88-21,83.26-33.54,136.47-4.16,17.43-8.24,35-12.19,52.05-6.44,27.72-13.09,56.38-20.1,84.62C764.64,763,731.69,898.58,716.39,961.69l-27.9-12-29.85,69.47L629.23,1094l47.47,18.63,6.28-16-3.88,15.66,79.35,28.06.14.05c1.4.48,2.8,1,4.2,1.48,2.62.94,5.59,2,8.58,3l13.1,3.73.35.1c30.15,8.08,61.39,15.61,90.79,22.64l22.62,5.4,13.68-40.37.24-.74c3.38-10.32,6.88-21,9.52-30.86l18.1-75.38-8.83-3,79.78-284.83,10.13-36.15,65.64-223,70.61,661.29-11.73,84.81c-8.08,18.88-14.75,38.48-21.22,57.47-5.13,15.07-10.44,30.64-16.25,45.15-5.05,12.65-9,23.6-13.12,35.29l-.13.37c-1.44,4-2.91,8.17-4.5,12.56-.94,2.62-2.06,5.54-3.16,8.42-2.34,6.1-4.75,12.41-6.56,18.6-1.54,5.2-2.78,10.51-4,15.66-.86,3.7-1.75,7.54-2.69,11l-.1.4c-14.52,56.73-24.55,114.49-34.25,170.35l0,.24c-2.37,13.67-4.83,27.8-7.32,41.76-6.28,35.38-12,71.67-17.1,107.92-4.11,29.83-9.16,69.14-11.74,108.7l0,.24c-3.82,69-1,140.15,1.72,209l.37,9.27v.12c2,45,4.4,90.62,6.73,134.8,1.43,27.17,2.91,55.26,4.28,82.9,2,40.47,3.52,74.45,4.41,108.82,1.1,37.56.65,75.77.15,108.58-2.39,138.06-6.77,276-11.44,416.91l-.79,24.88,245,13.83c9.71.65,19.81,1.06,30.87,1.28l209.22,5.83,4.34.12,217.45-6.05c11.13-.23,21.21-.65,30.81-1.28l220.21-12.44,24.83-1.42-.79-24.88c-4.67-140.87-9-278.75-11.44-416.84-.5-32.86-1-71.07.15-108.71.89-34.31,2.41-68.28,4.41-108.73,1.39-28,2.93-57.23,4.29-83,2.33-44.14,4.73-89.78,6.72-134.69l.38-9.41c2.72-68.79,5.54-139.92,1.71-208.94v-.24c-2.57-39.53-7.62-78.86-11.74-108.75-5.07-36.23-10.82-72.52-17.1-107.89q-1.5-8.34-3-16.71l-.49-2.73c-11.45-64.46-23.3-131.11-39.71-195.24l-.11-.4c-.86-3.17-1.65-6.2-2.42-9.17-1.36-5.19-2.63-10.09-4.24-15.52-2.47-8.48-5.43-18.36-8.66-27.37-2.43-6.71-4.63-14.18-6.76-21.42-2.95-10-6-20.42-10.16-30.85-12.12-30.24-23.29-60.65-36.24-98.6l-.31-.91-.07-.16-11.72-84.82,69.46-659.28,65.61,222.88,89.91,321-8.83,3,17.92,74.65.15.62c2.62,9.81,6.1,20.45,9.47,30.74l14,41.35,22.65-5.43c29.14-7,60.14-14.53,90.62-22.72l12.47-3.52.83-.24c3-1,6-2,8.67-3,1.39-.49,2.78-1,4.16-1.46l78.75-27.72v0l2.4,6.4,47.76-17.88-35.69-95.34-31.7-65.66-17.94,8.66c-16.55-62.14-49.87-187.8-66.47-253.91-7-28.36-13.68-57-20.1-84.65l-.09-.36c-3.93-16.94-8-34.46-12.1-51.67-12.57-53.21-23.23-96.58-33.56-136.53-10.59-40.76-23.43-88.72-38.41-135.4l-.16-.47c-1.19-3.49-2.39-7.18-3.55-10.74l-.07-.2c-2.38-7.33-4.84-14.9-7.76-22.4l-5.84-15.8-.2-.52c-1.46-3.69-3-7.13-4.43-10.5-.77-1.78-1.55-3.56-2.31-5.37l-.13-.31c-.36-.83-.72-1.66-1.1-2.57-.73-1.71-1.56-3.65-2.49-5.64l-4.29-8-3.62-6.77-.48-.86a59.17,59.17,0,0,0-4.15-6.06c-.3-.39-.65-.84-.79-1.05l-.54-.8-.6-.75a121.62,121.62,0,0,0-26.86-25c-17.25-12.12-38.26-22.3-64.24-31.12l-.2-.07c-6.47-2.14-11.88-3.79-17-5.2-3.12-.87-6.05-1.62-8.52-2.23l-4.28-1-39.69-6.27-.5-.08c-22.28-3.68-45.31-7.48-68.28-12.26-20.25-4.35-39.41-10.87-57.11-17.27l-12.12-4.38,9.23-7.11-89.65-55.73-13.5,8.5c-10.7,6.74-18.94,11.85-26.72,16.55-5.86,3.54-12.18,7.32-18.64,11-2.7,1.53-5.94,3.35-9.4,5.16l-.18.1c-3.3,1.75-6.73,3.28-9.06,4.25-13.86,5.67-27.53,10.39-40.68,14.92-5,1.7-10,3.36-15,5l-.17,0-6.68,2.19-25.91,8.53,1.64,4-28,32.52-28-32.5,1.16-4L1447,87.65c-6.86-2.2-13.83-4.49-21.29-7-12.38-4.17-26.42-8.9-40.52-14.78-2.36-1-5.83-2.55-9.12-4.32l-.19-.1c-3.35-1.77-6.5-3.55-9.38-5.19-6.56-3.76-12.82-7.54-18.64-11.08-9.61-5.84-18.8-11.7-26.51-16.66l-13.57-8.72L1218,75.63Zm907.86,1033.46c-2.76-8.46-5.51-17-7.5-24.44l-7-29.13,10.52-3.58-92.8-331.3-10.18-36.32-75.68-257.1-55-85.17L1867.32,440l-.88,2.74-73.11,693.85-.67,5.57,13.55,98,2,4.75c13.1,38.39,24.48,69.33,36.85,100.18,3.25,8.16,6,17.37,8.59,26.31,2.34,8,4.76,16.2,7.7,24.32,2.74,7.65,5.43,16.63,7.69,24.4l0,.1c1.37,4.64,2.55,9.16,3.8,14,.81,3.1,1.63,6.25,2.53,9.55,15.92,62.24,27.58,127.88,38.87,191.35l.47,2.64c1,5.61,2,11.22,3,16.79,6.17,34.76,11.82,70.42,16.79,106,4,29,8.89,67.07,11.36,104.92,3.68,66.57.91,136.42-1.76,204l-.37,9.24c-2,44.54-4.37,89.94-6.68,133.85l0,.32c-1.44,27.24-2.92,55.4-4.3,83.18-2,40.81-3.55,75.12-4.45,109.85-1.12,38.61-.67,77.49-.16,111,2.25,130.43,6.27,260.4,10.63,392.8l-195.44,11-.25,0c-8.88.59-18.27,1-28.71,1.19l-216.31,6L1285.81,2922h-.2c-10.34-.21-19.73-.6-28.71-1.19l-195.68-11.05c4.36-132.42,8.38-262.38,10.63-392.85.51-33.41,1-72.29-.16-110.82-.9-34.81-2.43-69.12-4.45-109.93-1.39-28-2.93-57.28-4.3-83.08l0-.64c-2.31-43.84-4.7-89.16-6.67-133.63l-.37-9.26c-2.67-67.56-5.44-137.41-1.76-204,2.47-37.87,7.37-76,11.35-104.88,5-35.61,10.63-71.28,16.8-106,2.55-14.27,5-28.48,7.41-42.25,9.95-57.33,19.36-111.49,33.34-166.2,1.16-4.24,2.15-8.49,3.11-12.61,1-4.44,2.11-9,3.26-12.92,1.23-4.21,3.27-9.56,5.26-14.73l.07-.19c1.15-3,2.35-6.14,3.42-9.13,1.57-4.34,3.06-8.5,4.5-12.56l.2-.54c4-11.16,7.73-21.71,12.42-33.48,6.3-15.71,11.82-31.93,17.19-47.69,6.23-18.27,12.66-37.17,20.09-54.43l2.42-5.61,13.56-98.14-.66-5.55-74-693.16-.31-2.87-39.47-113.18-47.15,106.85-75,254.89L868.81,1059.08l10.52,3.59-7,29.22c-2,7.43-4.75,16-7.5,24.41-22-5.33-44.66-10.93-66.62-16.81l-11.52-3.27c-2.12-.7-4.45-1.53-6.73-2.34l-4.53-1.61-35.65-12.6,18-72,0-.17c2.08-8.57,51-210.93,73.47-300.26,7.12-28.68,13.81-57.52,20.3-85.44,3.73-16.09,8-34.33,12.13-51.82C876.17,517,886.75,474,897,434.5c10.39-40,23-87,37.53-132.4,1.31-3.83,2.57-7.68,3.8-11.47,2.18-6.7,4.44-13.64,6.87-19.86l6-16.13c1.11-2.81,2.39-5.75,3.63-8.6l0-.1c.82-1.89,1.65-3.78,2.45-5.69l1.24-2.88c.48-1.14,1-2.31,1.42-3.3l3.3-6.07,3.25-6.09.72-.94c.48-.64,1-1.38,1.66-2.25a70.89,70.89,0,0,1,15.27-14.05l.44-.3c13.24-9.33,30-17.38,51.36-24.62,5.6-1.85,10.2-3.26,14.46-4.42l.18-.05c2-.56,4.19-1.14,6.94-1.82l1.84-.43,38.06-6,1-.16c22.77-3.76,46.31-7.65,70.29-12.64l.17,0a438.18,438.18,0,0,0,51.57-14.86c9.66,6.39,20.8,13.68,32.18,20.9,7.9,5,17.15,10.78,27,16.48,4.24,2.47,9.87,5.66,15.89,8.57,5.32,2.62,10.22,4.76,15,6.84l.74.32c20.13,8.58,40.26,16.23,57.56,22.73,18.15,6.8,36.8,13.58,57,20.74L1466,250.17l21.77-53.65,12.16,14.1,12.24-14.2L1533.92,250l40.33-14.15c20.21-7.1,38.88-13.83,57-20.57,21.9-8.11,40.21-15.35,57.63-22.78l.7-.3c4.76-2.09,9.67-4.24,15-6.87,6.06-2.94,11.68-6.15,15.88-8.59,9.8-5.69,19.07-11.52,27-16.56,11.34-7.21,22.45-14.5,32.1-20.9a437.25,437.25,0,0,0,51.61,14.87l.16,0c24,5,47.64,8.9,70.47,12.67l35.62,5.64,3.22.5,1.83.42c2.08.52,4.52,1.14,7,1.82l.16,0c4.27,1.17,8.86,2.57,14.46,4.42,21.34,7.26,38.13,15.31,51.35,24.64l.46.31a70.4,70.4,0,0,1,15.21,14c.66.93,1.27,1.72,1.74,2.34l.64.84,3.19,6,3.36,6.19c.45,1,.94,2.16,1.47,3.39.4.95.8,1.9,1.21,2.83.82,1.94,1.66,3.86,2.49,5.78,1.25,2.85,2.53,5.8,3.64,8.61l5.82,15.73.16.43c2.42,6.19,4.67,13.11,6.86,19.85,1.16,3.54,2.46,7.54,3.8,11.45,14.55,45.4,27.14,92.4,37.52,132.37,10.23,39.59,20.82,82.63,33.31,135.52,4.11,17.27,8.19,34.81,12.13,51.78l0,.19c6.46,27.83,13.14,56.62,20.26,85.29,21.94,87.37,72.53,276.71,76.25,290.6l16.21,81.37-36.77,12.94c-1.5.52-3,1.06-4.58,1.62-2.24.8-4.56,1.62-6.65,2.3l-11.62,3.27C2179.46,1105.22,2157,1110.83,2135.16,1116.13Z"/>
</svg>
