<svg xmlns="http://www.w3.org/2000/svg" viewBox="0 0 2994.91 3000">
  <title>50Icon_neon 1</title>
  <path d="M2268.06,2310c-14.5-211.89-42.95-396-87-562.86l-.29-1.09-.38-1.07c-42.75-117.65-101.24-271-174.74-413.18-79.53-153.92-163.28-270.8-255.79-357-.53-3.7-1.2-8.33-2-14-1.91-13-5.39-36.78-5.77-43.19,1.62-15.77,5.33-53.25,10-100.31,9.48-95.94,23-232.27,33.24-331.5,22.51,77.33,44.46,155.58,65.94,232.12,41.88,149.23,85.18,303.53,132.25,450.22l8.08,25.32,25-9.13.06,0c6.06,27.19,12.45,55,20.53,81.71l9.11,30.15,27.59-15.19c15.59-8.58,36.07-11.68,52.16-13.42l27.74-3-5.47-27.34c-5.37-26.89-12.25-54.09-19-80.5a113.2,113.2,0,0,0,11.29-5.52l16.78-9.69-4.83-18.75c-21-81.79-48.73-163.48-75.49-242.47-20.82-61.45-42.35-125-60.38-187.58l-.27-.87c-17-52-29.16-108.05-40.88-162.27-19.48-90.15-39.63-183.38-83.4-266.29l-1-1.87-2.72-3.54-1.59-1.46c-33.48-30.77-77.86-37.71-117-43.84-13.49-2.11-27.43-4.3-39.76-7.32-26.38-7.33-59.87-17.85-85.71-34.34-26.14-16.68-39.51-35.62-42.08-59.61l-1.88-17.6,39.13-21.17L1604,1.69l-104,58.46c-2.47-1.33-4.94-2.66-7.44-4l-5.11-2.79c-4-2.21-8.23-4.49-12.35-6.79l-17.49-9.71L1397,2.64l-35.2,69.7,38,20.71-2,18.3c-2.58,24-16,43-42.09,59.64-25.83,16.48-59.31,27-85.69,34.33-12.32,3-26.25,5.2-39.72,7.31-39.19,6.13-83.6,13.08-117.07,43.86l-1.58,1.46-2.71,3.52-1,1.88c-43.78,82.92-63.92,176.13-83.4,266.26-11.72,54.22-23.84,110.29-40.9,162.32l-.27.87c-18,62.55-39.55,126.11-60.39,187.61-26.76,79-54.44,160.68-75.47,242.41l-4.83,18.77,16.78,9.68a111.43,111.43,0,0,0,11.2,5.48c-7.1,26.61-14.26,54-19.67,81.19l-5.38,27,27.39,3.25c17.93,2.13,38.33,5.43,53.56,13.77l27.53,15.07,9.12-30c8.18-27,14.44-55,20.3-82.61l24.9,9.14,8.11-25.31c47.07-146.7,90.38-301,132.25-450.24,21.45-76.42,43.38-154.57,65.85-231.78,10.44,102.72,24.09,244.67,32.94,336.66l.11,1.14c4.33,45,7.77,80.77,9.26,95.55-.39,6.58-4,31.43-5.82,43.62v.11c-.82,5.61-1.49,10.18-2,13.83C1036.71,1183.07,920.44,1469.28,819.58,1745l-.4,1.09-.3,1.13c-44,167.16-72.48,351.26-87,562.83-13,190.13-13.62,384.61-13.12,567.51l.05,21.54,21.24,3.55c203.61,34,370.39,55.12,524.85,66.36,86.76,6.31,171,9.5,250.3,9.5,97.54,0,188.91-4.58,279.33-14,116.06-8.13,234.46-26.46,349-44.19l.18,0c38-5.89,77.38-12,115.73-17.54l21.75-3.19.05-22C2281.7,2694.43,2281.05,2499.75,2268.06,2310ZM976.12,1124.55l-29-13.7-6.77,31.42q-2,9.3-4,18.71l0,.2c-4.51,21.35-9.12,43.21-14.5,64.35-5-1.43-10.1-2.63-15.12-3.66,4.63-19.7,9.94-39.58,15.13-59l.16-.59q1.92-7.21,3.83-14.4l5.83-21.93-21.13-8.34c-1.89-.74-4-1.55-6.29-2.41l-.11,0-1.65-.63c19.8-73,44.69-146.5,68.84-217.76,21-61.87,42.64-125.85,61-189.4,17.81-54.39,30.18-111.62,42.14-167,18.42-85.22,37.45-173.27,76.5-249.07,19.79-16.25,47.43-21.92,77.15-26.7l-26.32,86.2c-35.34,115.75-69.25,236.58-102,353.42-39.11,139.36-79.46,283.17-122.86,420.64Zm314.69-116.76,7.1-6.75.75-9.68c.2-2.26,1.7-12.45,2.9-20.66l0-.12c5-34.29,6.64-46.8,6.33-53.34l-.1-1.34c-1.38-13.68-4.91-50.36-9.38-96.81l-.1-1.07c-19.95-207.36-41.68-431.32-47.08-463.92l-10.1-61-4.46-29.86,1.49-.24c14.68-2.29,29.85-4.67,44.42-8.26l.69-.18c29.87-8.29,68.2-20.39,99.85-40.58,26.9-17.16,45.7-38,56.21-62.16l11.38,6.15c16.27,10.47,34.11,13.21,49.34,8.07,15.2,5.08,33,2.33,49.18-8.11l11.53-6.23c10.64,24.19,29.6,45.33,56.07,62.22,31.66,20.2,70,32.3,99.87,40.59l.69.18c14.57,3.6,29.76,6,44.46,8.28l1.07.16-1.49,10.29-12.73,80.82c-5.84,37-31.87,300.58-47.43,458.07-4.79,48.52-8.58,86.84-10.1,101.54l-.1,1.32c-.33,6.49,1.29,19,6.3,53.08l0,.26c1.21,8.23,2.71,18.46,2.92,20.75l.74,10,7.52,6.84c196.09,178.51,324.11,481.77,423.47,755.13,90.79,344.76,98.89,700.06,98.23,1094.19-31.53,4.68-63.37,9.61-94.35,14.41l-.23,0c-113.6,17.59-231.07,35.78-345.14,43.74l-.88.08c-87.69,9.17-180.55,13.82-276,13.82h-.07c-269.18,0-526-35.66-743.86-71.66-.79-393.62,7.21-748.58,98.15-1094.5C967.63,1488.83,1082.51,1206.26,1290.81,1007.79ZM2096,1115.07c-2.28.86-4.43,1.68-6.32,2.42l-20.93,8.21,5.52,21.78c1.5,5.93,3,11.87,4.55,17.86,4.69,18.36,9.49,37.14,13.78,55.75-4.64,1-9.37,2.09-14.11,3.45-5.14-19.89-9.69-40.37-14.14-60.41l0-.1c-1.64-7.36-3.26-14.69-4.92-22l-7-30.9-28.7,13.47-.49.23c-43.4-137.49-83.76-281.3-122.87-420.68l0-.12c-32.78-116.81-66.68-237.6-102-353.29l-26.35-86.19c29.72,4.78,57.37,10.44,77.19,26.7,39,75.78,58.07,163.86,76.49,249.1,12,55.34,24.33,112.56,42.12,166.93,18.32,63.53,40,127.49,61,189.37,24.15,71.28,49.06,144.77,68.86,217.81Z"/>
</svg>
