<svg xmlns="http://www.w3.org/2000/svg" viewBox="0 0 2994.91 3000">
  <title>52Icon_neon 1</title>
  <g>
    <path d="M2055.45,1026.66c-39,5-73.46,9.11-105.21,12.69l-3,.33c-34.81,3.77-67.7,7.33-104,9.17-36,1.55-73.65,4.21-110,6.78l-.5,0-23.18,1.63-9.81.69c-40.91,2.89-83.23,5.87-125.43,7.94-26.38,1.29-48.19,1.78-68.59,1.51-22.13-.31-43.39-1.26-68.42-2.58-40.92-2.26-82.09-5.17-122-8l-13.16-.93-66.94-4.54-67.65-3.72c-45.61-3.29-90.15-8.52-133.26-13.59l-2.09-.24c-49.22-5.94-101.46-12.72-169.38-22l-52.69-7.19,27.39,45.6c37.8,62.86,74.44,125,108.89,184.64,43.14,74.77,99.37,173.66,151.75,275.63l.1.2c9.26,17.64,18.31,36.18,27.07,54.13l.1.21q3.94,8.1,7.91,16.17l33.14,72.08,65.24,142.24,122.45,267,4.76,10.44,11,3.37c5.93,1.81,12.22,3.44,18.65,4.82a384.21,384.21,0,0,0,41,6.33c24.91,2.61,52,3.83,85.09,3.83h0c33.15,0,60.19-1.25,85.11-3.88a381,381,0,0,0,41-6.32c6.54-1.41,12.83-3,18.7-4.84l10.94-3.35,192.36-419.67,33.14-72.08q3.78-7.7,7.54-15.41l.48-1c8.75-17.91,17.78-36.43,27.06-54.11l.1-.19c52.4-102,108.61-200.87,151.72-275.59,34.56-59.84,71.18-121.94,108.85-184.57l27.39-45.6-52.7,7.2C2127,1017.32,2090.76,1022.13,2055.45,1026.66Zm-197.52,516q-4,8.17-8,16.36l-33.57,73-182.63,398.43c-1.25.3-2.52.58-3.81.86a328.38,328.38,0,0,1-35.52,5.45c-23.11,2.44-48.46,3.58-79.77,3.6s-56.68-1.13-79.77-3.55a333.41,333.41,0,0,1-35.59-5.46c-1.26-.27-2.5-.55-3.74-.84L1278,1774.3,1212.79,1632l-33.3-72.4-.27-.58q-4.07-8.26-8.1-16.55c-8.9-18.24-18.1-37.09-27.69-55.36-52.87-102.93-109.47-202.49-152.89-277.74-26.26-45.47-53.78-92.36-82.12-139.93,44.05,5.87,81.63,10.66,117.71,15l2.18.26c43.71,5.13,88.92,10.45,135.75,13.82l67.81,3.72,66.71,4.53,13.08.92c40,2.83,81.42,5.76,122.82,8,25.68,1.35,47.48,2.32,70.48,2.65,21.49.27,44.3-.23,71.78-1.57,42.74-2.1,85.33-5.1,126.53-8l9.77-.68,23.22-1.64.52,0c36.07-2.56,73.37-5.2,108.74-6.72h.18c37.82-1.9,71.44-5.54,107-9.4l3.19-.34c32-3.62,66.67-7.8,106-12.79,19.21-2.47,38.68-5,58.75-7.68-28.23,47.38-55.74,94.25-82.08,139.86-43.4,75.22-100,174.74-152.87,277.7-9.58,18.27-18.78,37.11-27.67,55.33Z"/>
    <path d="M2744.43,950.18a30.13,30.13,0,1,0-30.14-30.13A30.16,30.16,0,0,0,2744.43,950.18Z"/>
    <path d="M291,895.18a33,33,0,1,0,33,33A33.06,33.06,0,0,0,291,895.18Z"/>
    <polygon points="347.91 905.62 337.45 955.53 515.01 992.86 710.1 1029.81 719.57 979.69 525.25 942.9 347.91 905.62"/>
    <path d="M2698.73,953.89,2687,904.26,2662.65,910c-33.42,7.91-126.73,29.66-156.76,35.2-43.2,8-164.58,27.09-165.8,27.28l-24.72,3.89,8,50.37,24.68-3.88c1.23-.19,123.12-19.39,167.12-27.51,37-6.82,154.28-34.54,159.25-35.72Z"/>
    <path d="M2962.19,1102.75c-11-18.32-33.72-39-60.09-62.19l-.13-.11c-3.78-3.32-7.35-6.46-10.21-9-20.07-18.14-82.17-67.21-82.78-67.69l-12.72-10.07-40.43,20.22-16.84,5-44.47-10.27-7.67,21.34c-.31.86-31.08,86.63-42,114.44-5.45,13.84-14.27,33-23.63,53.34-17,37-36.32,78.94-43.9,107.4-.79,3-2,6.87-3.4,11.41-8.92,28.91-21.15,68.49-.71,91.56,7.32,8.26,18.33,12.45,32.72,12.45a114.17,114.17,0,0,0,31.93-5.13c22.2-7.3,58.7-34.07,73.68-54.06,12-15.93,20.07-42.44,28.7-72.92.28-1,.57-2,.85-3,1.24,26.83,1.36,55.84-1,70.57-1.83,11.44-10.16,34-16.25,50.45-3.16,8.53-6.13,16.59-8.24,23-6.35,19.46-23.63,72.79-28.77,88.67l-7.9,24.36,48.53,15.7,7.88-24.33c5.14-15.87,22.4-69.15,28.74-88.56,1.8-5.5,4.61-13.11,7.6-21.18,5.79-15.67,11.72-31.72,15.53-45.62,2.05,24.36,3.93,47.3,5.12,61.91v.06l-10.88,122.7,50.8,4.51,11.26-127-.17-2.11c-.1-1.19-9.75-121-14-161.14-1.7-15.89-4.63-40.8-7.64-64.41,11.55,15.91,25.25,32.48,37.89,41.81,10.89,8,35.55,20,53.87,20,1,0,2,0,2.91-.1,15.84-1.08,35.1-13.56,42.91-22.15,10.19-11.22,19.81-34.18,20.59-49.13C2980.75,1144.83,2970,1115.76,2962.19,1102.75Zm-49.85,80.87c-5.24-.94-17.13-5.84-22.52-9.83-12.7-9.39-35.91-41.73-51-67.56-8.41-14.41-23.63-50.9-36.06-82.26,19.21,15.4,44.11,35.6,54.82,45.28,3.14,2.83,6.87,6.11,10.86,9.62,15.79,13.88,42.23,37.12,50,50.11,4.51,7.53,10.49,25.76,10.4,31.65-.53,4-4.82,14.23-7.38,17.54A40.42,40.42,0,0,1,2912.34,1183.62ZM2713.15,1067.1c-1,39.43-2.78,80.86-5.42,100.09-1.81,13.13-8.86,41-13.13,55.23-1,3.5-2.21,7.58-3.43,11.91l-.05.19c-4.29,15.11-13.19,46.56-20.43,56.22-8.63,11.5-36.45,32.14-48.8,36.2a57.68,57.68,0,0,1-8.62,1.94c.27-2.3.71-5.15,1.44-8.65,2-9.54,5.12-19.7,7.91-28.72,1.55-5,2.9-9.4,3.94-13.3,6.45-24.24,24.78-64.07,41-99.21l0-.09c9.63-20.93,18.73-40.7,24.7-55.84C2697,1111.09,2705.19,1088.87,2713.15,1067.1Z"/>
    <path d="M300,987.87l-.58-8.51-20.07,4-17-3.67-2.24-.4-19.32-6.51-1,2.91-3.38-.6c-.47-.09-.94-.18-1.42-.25h0l-24-4.26-2.47,14c-4.41,3.61-9.52,8.3-15.89,14.31-10.85,10.22-26,25.1-49.19,48.26-5.69,5.69-10.61,10.6-12.81,12.72-23.88,23-57.15,74.4-72.51,101.35-35.06,61.52-35.45,84.23-35.57,91.69-.35,20.17,11.73,52.93,24.86,67.43,12.21,13.48,41.66,29.16,61.33,29.16h0c.48,0,1,0,1.4,0a46.73,46.73,0,0,0,11.51-2c-.26,5.46-.49,11-.69,16.66l-.39,4,.24,0q-.18,5-.34,9.93l-.31,9.35c-1.23,36.41-3.52,104.19.3,139.4,2.47,22.73,18.17,83.76,18.84,86.35l6.24,24.21,42-10.85c1.55,22,2.85,43,3.7,58l1.4,25,50.9-2.83-1.38-25c-.07-1.17-6.57-117.79-13.21-157.5-1.69-10.13-5.49-23.18-9.93-36.78,7.68-3,16.26-9.34,21.48-23,17.27-45,22.27-117.67,26.28-176.06l.07-1q.4-5.89.8-11.61c1.77-25.31,11.54-93.21,20.16-153.18,12.08-84,14.78-105,14.62-113.67l4.25-19.69ZM166,1096.61c2.5-2.41,7.28-7.18,13.32-13.22l.16-.16q11.43-11.43,20.89-20.76l-.43,2.24c-4.25,22.4-8,42-8.64,55.16l-4.61,13.7,1.47.5c-4,11.11-11.15,26.43-15.21,35.17-5.45,11.75-10.16,21.89-12.73,29.72-1.45,4.42-3,9.63-4.74,15.15H149v21c-6.5,20.11-14.69,42.61-22.35,51.38-3.24,3.71-13.57,10.32-18.41,11.91-6-1.22-19.34-8.27-23-12.25-4.48-5.05-11.79-25.29-11.67-32.33,0-2.86,1.67-19.54,28.89-67.31C119.79,1156.05,149.05,1113,166,1096.61Zm32.78,330.67c-2.15-6.42-4.79-13.58-7.55-21.07-6.74-18.26-16.82-45.57-17.4-59.26,2.47-18.64,24.84-92,55.49-175.56-6,42.66-11.23,81.93-12.56,100.91-.28,4.14-.58,8.37-.87,12.66C212.72,1331.7,208.84,1388.14,198.82,1427.28Zm-27.65,94.11c-.63-5.8-1.07-12.75-1.36-20.43,4.06,12.32,7.59,24,8.87,31.68,1.79,10.74,3.68,29,5.46,49.72C179.09,1561.7,172.42,1532.94,171.17,1521.39Z"/>
  </g>
</svg>
