<svg xmlns="http://www.w3.org/2000/svg" viewBox="0 0 2994.91 3000">
  <title>60Icon_neon 1</title>
  <g>
    <path d="M1179.56,728.1c41.58-8.18,109.66,7,154.72,17l4.85,1.08c28.63,6.36,48.09,11.32,57.84,14.74a29.09,29.09,0,0,0,10,1.93l16.94,4.88,1.67-5.82,1.06,0,62.88-218.38c3-.64,6.6-1.33,10.53-2,2.39.41,4.73.85,6.86,1.29l59.55,201.76,5.09,17.33,1.08.06,1.29,4.37,15.61-3.49h.07a31.46,31.46,0,0,0,11.26-1.71c5.25-1.55,19.19-5.66,60.9-14.93,37.91-8.42,104-17.36,165.31-14.87,65.56,2.67,145.81,29.89,146.59,30.15L2075,796.33l-74.82-76.78c-1-1-102-104.26-179-149.38-30.91-18.11-81.39-31.95-125.93-44.16-20.47-5.61-39.81-10.92-55.67-16.19a185.68,185.68,0,0,1-21.53-8.33c6.61-8.67,28.44-20.6,43.82-29,23.58-12.89,48-26.22,67.14-45.67,8.35-8.48,50.19-52.81,54-93.19,3.94-41.25-16.22-92.49-31-130-3.32-8.44-6.46-16.42-8.76-22.92-12.07-34-36.53-79.77-59.93-101.42-46.2-42.76-93.27-61.1-124.62-68.95-28.79-7.21-50-7.28-58-7-6.23-.3-28.37-.66-58.73,7-31.35,7.85-78.42,26.19-124.63,69-23.4,21.66-47.86,67.42-59.92,101.42-2.3,6.47-5.42,14.41-8.73,22.82l-.06.15c-14.71,37.41-34.86,88.65-30.93,129.9,3.87,40.39,45.71,84.71,54,93.19,20.7,21,48.3,35.8,72.65,48.86,12,6.43,23.31,12.5,31.76,18.27a60.41,60.41,0,0,1,9.17,7.36c-3.33,2.15-10,5.6-23,9.71-16.59,5.24-37.24,9.75-59.09,14.52-41.21,9-83.82,18.28-112.8,35.26-76.89,45.05-188.58,157.49-189.71,158.62L938,782.88l86.84-20.73C1025.71,762,1111.56,741.49,1179.56,728.1Zm36.73-123.31c22-12.88,60.57-21.3,97.89-29.44,27.82-6.07,54.11-11.8,75.13-19.7,11.69-4.4,47.29-17.78,49-50.63.9-17.54-7.79-33.62-25.83-47.77-12.11-9.51-27.53-17.77-43.85-26.53-21.16-11.34-45.14-24.2-60.41-39.7-18.33-18.61-38.16-47-39.62-62.25-2.77-29.09,15.52-75.6,27.62-106.38,3.49-8.86,6.78-17.23,9.39-24.59,11.07-31.2,31.93-67.55,46.5-81,38.27-35.42,76.78-50.49,102.34-56.9,26.23-6.58,44.19-5.48,44.37-5.47l1.9.11,1.57-.12c1.08-.06,18.81-.88,44.17,5.48,25.57,6.41,64.07,21.48,102.34,56.9,14.57,13.48,35.43,49.84,46.5,81.05,2.6,7.32,5.9,15.7,9.39,24.57,12.1,30.78,30.4,77.29,27.62,106.39C1730.81,344,1711,372.41,1692.66,391c-13.89,14.09-34.93,25.59-55.27,36.71-18,9.84-35,19.13-48.07,30.5-18.8,16.37-26.76,35.18-23.67,55.92,3.18,21.3,24.25,31.89,46.54,40.15,18.83,7,43.47,13.74,69.56,20.89,41.49,11.38,88.52,24.28,113.63,39,30.79,18,66.49,46.91,97,73.81-20.64-3.82-42.48-6.79-63.32-7.64-66.26-2.69-137.53,7-178.44,16-19,4.23-32.6,7.46-42.36,9.9l-56.87-192.7-2-4.05-1.3-1.77c-5.83-7.94-14.29-12.8-44.28-17.32l-3.94-.58-3.79.59c-33.33,5.14-42,9.89-47.93,17.91l-2.72,3.65-55.78,193.71c-9.28-2.39-22-5.45-39.49-9.33l-4.84-1.08c-49.2-11-123.56-27.51-175.64-17.26-21.18,4.17-43.93,9-65.37,13.67C1139.41,660.3,1182,624.86,1216.29,604.79Z"/>
    <path d="M2022.68,1873.12c91.59-5.8,158.87-12.12,159.63-12.19l44.74-4.23-26.53-36.17c-.22-.3-22.65-31.54-54.1-98.33-30-63.7-74.48-173.3-116.1-333.74-41.56-160.18-59.71-306.81-67.62-401.61-8.51-101.9-7.29-167.49-7.28-168.13l.45-20.48L1936,793.39c-3.78-.92-92.87-22.64-121.35-25.43-52.22-5.11-98.9,6.09-136.42,15.09-14.61,3.51-27.24,6.54-37,7.73-20.11,2.48-75.62,14.21-89.66,17.21h-88.12c-14-3-69.55-14.73-89.67-17.21-9.71-1.19-22.33-4.22-37-7.73-37.51-9-84.19-20.2-136.42-15.09-28.48,2.79-117.56,24.51-121.33,25.43l-19.9,4.85.45,20.47c0,.65,1.22,66.24-7.28,168.14-7.91,94.8-26.07,241.42-67.62,401.61-41.62,160.41-86.1,270-116.08,333.69-31.46,66.81-53.91,98.08-54.08,98.31L788,1856.7l44.76,4.23c1,.1,89.49,8.38,201.4,14.69l-138.83,1060-3,23.35,23.07,4.88c3.71.79,91.41,19.19,127.77,19.24h1c118.35,0,235-28.4,236.13-28.68l20-4.91L1268.82,1882.3l39.39.91h15.45c8,0,16,0,24,0l151.83,962.87,2.73,17.25,17,3.68c.92.2,92.65,20.32,211,63,42.45,15.32,127.78,24.61,131.39,25l29.8,3.21L1833.52,1881.8l12.88-.35,15.06-.66,119.75,986.94,4.14,34,31.3-13.64c13.66-5.88,54.71-20.42,80.21-17.09,47.24,6.18,66.62,4.12,70,3.64l23.94-3.47,1.08-.12v0l1-.14Zm-978.74,1059h-.76c-19.08,0-62.16-7.36-94.16-13.51L1085.3,1878l132.46,3.09,30.38,1028.22C1211.05,2917,1127.54,2932.13,1043.94,2932.13Zm793.34-31.57c-30.89-4.34-68.82-11-89.71-18.49a2018.76,2018.76,0,0,0-200.42-60.9L1399.22,1883l383.25-.83Zm18-1070.68,0,.13-10.56.46c-9.31.27-17.67.49-25.53.66l-428,.93-20.54,0h-1.4c-20,.11-40.25.15-60.13.11l-232.06-5.41q-9.09-.43-18-.91l-18-2.36-.18,1.37c-66.85-3.72-125.19-8.15-162.06-11.18,9.74-17,22.08-40.15,36-69.81,30.92-65.66,76.71-178.4,119.32-342.66,42.47-163.68,61-313.4,69.08-410.18,6-71.46,7.28-125.19,7.49-152.81,33-7.76,78.81-18,94.72-19.55,43.7-4.28,85.75,5.81,119.55,13.92,16.12,3.87,30,7.21,42.62,8.76,16.86,2.07,69.12,13,87.83,17l2.68.57h97.53l2.75-.29,1.3-.28c18.71-4,71-14.95,87.82-17,12.58-1.55,26.5-4.89,42.64-8.76,33.79-8.11,75.84-18.2,119.53-13.92,15.91,1.55,61.75,11.79,94.72,19.55.22,27.62,1.53,81.35,7.49,152.81,8.08,96.78,26.62,246.51,69.08,410.18,42.61,164.26,88.41,277,119.33,342.66,14,29.66,26.3,52.78,36,69.81-29.34,2.41-72.32,5.72-122.25,8.83l-19.69,1.2-13.32.77-74.65,3.26Zm248.19,990.51c-24.7-3.22-53.73,3-75.47,9.55l-115.44-951.37,58.88-2.57,161.64,947.49C2125.2,2822.92,2115.41,2822,2103.47,2820.39Z"/>
  </g>
</svg>
