<svg xmlns="http://www.w3.org/2000/svg" viewBox="0 0 2994.91 3000">
  <title>58Icon_neon 1</title>
  <g>
    <path d="M1579.2,2232.54l-23.53,1.22a1503.73,1503.73,0,0,1-199.07-3.15l-28.9-2.36,1.34,28.92c7.7,171.56,18.35,353.87,28.64,530.19l.12,2c2.63,45,5.23,89.55,7.75,133.37l1.15,20.42,20.15,3.31c29.65,4.9,68.85,10.52,109.12,10.52,38.7,0,72.3-5.06,102.74-15.48l8.9-3.06,17.51-29.71,18.83-3.09,24.41-4-86.07-645.72Zm-44.39,53.19,76.46,573.56-18,3L1573.41,2896c-50.11,14.66-106.65,10.8-158.13,3.26q-3.24-56.06-6.59-113.35l-.09-1.52c-9.72-166.35-19.74-338-27.3-500.84C1432.38,2286.78,1484.62,2287.52,1534.81,2285.73Z"/>
    <path d="M2447.36,2592.27l-6.24-11.77-1-1.83q-4.23-8-8.48-16c-62.2-119.53-122.33-243.54-183.8-379.08l-8.28-18.34-19.76,3.8c-26.42,5.06-50.62,9.12-74,12.38l-29.68,4.16,8.86,28.64c16.34,52.75,31.46,107.45,46.1,160.41,30,108.52,61,220.74,105.08,326.12l12.15,29.06,151-104.63,18.63-12.93Zm-237.68-369.46c59,129.33,116.89,248.37,176.71,363.33l.2.38q2.57,4.82,5.12,9.65l-80.31,55.63c-36.76-94-64.36-193.88-91.15-290.83-12.14-43.89-24.61-89-37.9-133.48C2191.26,2226.05,2200.35,2224.49,2209.68,2222.81Z"/>
    <path d="M2178.38,2524.13c-30.84-105.52-62.73-214.62-93.17-314.47l-6-19.66-20.48,1.71c-51.63,4.31-101.29,4.39-153.87,4.47l-33,.05,8.37,31.9c45.26,173,97.89,377.52,145.09,582.53l7.77,33.77,186.69-108.92,17.2-10-38.32-132.09C2192,2570.75,2185.23,2547.59,2178.38,2524.13Zm-111.2,241.35c-42.41-181.93-88.46-361.84-129.3-518.39,34.95-.18,69.14-.75,104.48-3,28.52,94.08,58.24,195.78,87.06,294.38l1.21,4.13,19,65.1,27.22,93.81Z"/>
    <path d="M1843.33,2213.26l-22,1.51c-60.31,4.19-118.58,4.58-183,4.64l-30.46,0,5.38,30c31.53,175.82,72.23,407.22,107.45,638l4.78,31.29L1954,2831.07l20.4-7.82L1848,2234.81Zm-77.08,635.18c-32.19-208.14-68.25-414.46-97.5-578.1,46-.18,89.53-.83,134-3.31l112.64,524.23Z"/>
    <path d="M875.3,2188.4l-31.6-2.69c-27-2.29-52.44-5.6-77.89-10.11l-20-3.57-7.93,18.79c-60,142.7-121.88,283.86-184,419.57l-9.21,20.14L706.22,2734l9.87-32c36.69-118.95,112.29-362.81,149.8-483.22Zm-265.85,423C666,2487.37,722.25,2359,777,2229.15c10.22,1.57,20.49,3,30.89,4.19-35.94,115.51-94.83,305.48-130.68,421.51Z"/>
    <path d="M931,2186.55,907.81,2182l-6.32,22.75c-57.82,207.93-110.11,389.09-159.84,553.8l-7,23.18,22.8,8.21,29.64,10.67,175.1,63L993.64,2875l2.59-33.33q2.19-27.61,4.35-55.23c14.36-182.21,29.2-370.63,49.76-555.19l2.8-24.94-24.92-3.19C997.26,2199.17,968.06,2193.85,931,2186.55Zm18.16,603.5q-.55,7.14-1.12,14.29l-143.68-51.72h0l-6.89-2.48c45.93-152.83,94.11-319.85,146.86-509.06,18.67,3.55,35.7,6.56,52.64,9.14-19.26,177.41-33.45,357.62-47.21,532.21Z"/>
    <path d="M1301.73,2753.08c-1.69-46-3.56-92.53-5.54-141.73l0-1.26c-4.9-121.48-10-247.09-11.87-362.41l-.4-22.83-22.75-2.11c-47.78-4.42-93.28-11.77-143.56-20.21l-28.6-4.81-1.1,29c-9.87,266.84-19.47,470.27-31.12,659.61l-1.6,25.73,254,12.92-2.25-50C1305.06,2835,1303.2,2793.67,1301.73,2753.08Zm-68-481.88c2.16,109.44,6.89,226.9,11.48,340.71v.23c2,49.54,3.88,96.34,5.58,142.79,1.41,38.76,3.16,78.08,4.89,116.27l-146.45-7.45c10.57-175.63,19.48-364.87,28.55-606.17C1170.39,2262.91,1201.6,2267.62,1233.69,2271.2Z"/>
    <path d="M818.44,1186.17c24.15,24.78,54.07,45.91,89.07,62.93,3.8,32.1,11.78,95.12,20.58,138.1l4.57,22.29,22.67-2,38.11-3.4,1.08-.1c162.09-14.51,329.69-29.51,493.83-30.53,159.86.9,323.17,15.37,481.1,29.36l48.36,4.27,24.2,2.11,3.28-24c1.52-11,2.87-20.8,4.11-29.71,6.43-46.46,9.51-68.73,13.27-103.44,57.49-29.27,101.42-66.56,130.69-111,31.65-48,47.25-105.88,46.38-172-1.47-111.57-48.7-234.72-90.37-343.37-12.18-31.74-23.71-61.79-33.9-90.81-8.19-174.6-.71-326.88,22.83-465.46L2143,41.77,1988.54,30.33l-3.39,23.56c-24.57,170.91-36.75,332.17-36.24,479.59-72.13,51-151.48,111.68-206.64,190.06-80.54,61.82-160.75,118-253.91,132.21-93.68-14.06-173.79-70.44-254.16-132.44-54.43-77.75-131.12-136.59-206.37-189.82.6-148.67-11.27-305.71-36.22-479.59l-3.38-23.56L834,41.76l4.39,27.44c22.69,140.87,30.83,279.64,24.17,412.43-.44,4.52-.52,11.53-.62,23.78-.1,11.85-.3,35.94-1.58,43.57-35.8,78.55-75.55,171.34-99.48,264.62C747.56,865.6,740.2,914,739,957.41c-1.37,50.84,5.65,96.87,20.88,136.83A266.83,266.83,0,0,0,818.44,1186.17Zm-8.13-359.9c22.92-89.31,61.51-179.39,96.34-255.84,5.1-9.6,6-24,6.32-64.7.06-7,.14-16.6.37-19.06l.15-1.76C920,357,913.07,223.77,893,88.53l51.43-3.81c23,167.12,33.61,318.38,32.31,461.65l-.15,13.46,11,7.7c76,53.36,154.56,111.84,206.89,188l1.1,1.6,2.78,2.94,1.54,1.19c88.1,68.1,176.18,130.48,285.09,145.53l3.5.46,3.44-.48c50.64-7.1,101-25.14,154.11-55.17,46.73-26.44,90.06-59,130.43-90l1.56-1.19,2.78-2.94,1.1-1.59c53.18-77,134.85-137.58,207.24-188.32l10.94-7.69-.1-13.4c-1.24-141.72,9.63-297,32.33-461.72l51.24,3.79c-20.78,135.74-26.95,284.11-18.85,452.48l.08,1.8.72,3.67.59,1.7c10.73,30.8,22.81,62.3,35.61,95.66l0,.11c40.14,104.66,85.64,223.3,87,325.77,1.49,113-49.61,190.06-160.85,242.56l-13,6.13-1.49,14.28c-4.42,42.57-7.38,64-14.55,115.78l-.25,1.79c-.18,1.28-.36,2.58-.54,3.89l-24.15-2.13c-159-14.09-323.43-28.66-485.45-29.56h-.29c-166.3,1-335,16.13-498.23,30.73l-16.12,1.44c-8.22-47.2-15.15-106.36-17.31-125.5l-1.65-14.57-13.41-5.9c-66.52-29.32-111.58-73.92-133.92-132.55C782.89,1011.32,783.79,929.61,810.31,826.27Z"/>
    <path d="M2171.08,1997.3l-21.21,3.42c-434.45,69.8-879.59,69.79-1323,0l-21.19-3.34-37.49,110.14L758,2137.56l31.58,3.46c191.38,20.94,352.08,37.3,514.18,49.13,57.09,4.91,115.56,7.3,178.76,7.3,176.09,0,352.4-19.08,522.9-37.54,59.53-6.44,121.09-13.11,181.51-18.84l32.14-3-41-120.39Zm-863.49,142c-152.5-11.12-303.8-26.29-480.9-45.53l13.42-39.43a4336.68,4336.68,0,0,0,651.74,49.72,4213.05,4213.05,0,0,0,644.84-49.63l13.27,39c-50.31,5-100.9,10.46-150.13,15.79-169.14,18.31-344,37.24-517.36,37.24-61.78,0-118.87-2.33-174.54-7.12Z"/>
  </g>
</svg>
