<svg xmlns="http://www.w3.org/2000/svg" viewBox="0 0 2994.91 3000">
  <title>54Icon_neon 1</title>
  <g>
    <path d="M2152.77,1156.53l.16,0,3.27.76,161.66,49.85,15-48.73L2197,1116.54c5.28-13,9.63-24.13,13.56-34.69,6.15-16.57,10.19-28.73,13.1-39.44l.3-1.13c.3-1.14.67-2.53,1-4s.68-3,.92-4.37c.3-1.51.49-2.94.67-4.33l0-.12c.05-.4.1-.8.15-1.16l.65-4.82c.89-5.83,1.42-11.68,1.89-16.92.12-1.23.23-2.46.34-3.7l0-.43c1.12-14.73,1.53-28.35,1.24-41.63-.35-25.49-2.9-52.67-7.81-83.09l0-.11c-2.15-13-4.71-26.48-7.8-41.16L2210.77,815l-2.35-10.43-2.41-9.39-.22-.79c-8-27.38-20.47-55.76-30.48-77.52-11.52-24.79-24.29-50-37.94-74.92L2127.2,623.9l-5.32-9.12-2.67-4.49-2.66-4.26-.23-.36c-7.54-11.58-16.48-23.63-24.24-33.92-11.92-15.76-24.09-31.13-34.84-44.56l-14.63-89.79-38.94-232.23L1974.75,22.05l-50.37,8,28.93,183.24,39,232.41,14.74,90.5c-5.78,18.92-10.49,34-15.06,48.17-5.32,16.44-9.59,29.18-13.85,41.3-2.64,7.49-5.11,14.22-7.58,20.59a207.4,207.4,0,0,1-8.77,19.86l-.08.15c-7.3,14.4-15.12,27.38-21.84,38.21C1932.7,716,1925,728,1916.22,741c-16,24.07-32.8,48.1-49.81,71.4-19.71,26.95-36.6,48.88-53.16,69l-.09.11c-9,11-18.34,21.74-28.68,32.77-10.65,10.69-20.15,18-31.16,26.57l-2.6,2c-24.47,18.66-49.5,35.77-71,50.32-13.84,9.34-28.78,19.19-46.57,30.71l-56.9-2.44h0l-33.6-1.43L1527,1071.53l-12.29,12,12.71,101.37,21,111.58,0,.19c.85,4.31,8.41,42.53,13.53,56.87,7.88,22,27.6,61.31,39.31,80.38,11.26,18.33,36.64,50.67,50.24,66.75,8.23,9.73,33.22,37.38,33.47,37.66l16.75,18.53,37.85-34.18-16.78-18.56c-.24-.27-24.76-27.42-32.35-36.39-12.77-15.09-36.4-45.32-45.72-60.5-9.08-14.78-24.46-45.1-32.3-64.5a56.72,56.72,0,0,0,18.36,2.69c13.57,0,28.92-3.32,38-6.17,12.93-4.07,42.35-18.28,55.06-34.17,12.07-15.08,21.14-45.6,21.18-62.8,0-16.34-8.6-37.3-17.47-57.41l-.29-.66c-7.18-16.3-32.4-57.51-32.64-57.88l-1.15-1.82-34.91-38.66-11.14-9.87,242.79,27.74c2.81.35,5.48.64,8.08.92,4.43.48,8.61.93,12.88,1.64l.24,0,5.15.79.21,0c5.54.85,11.27,1.72,16.4,2.71l.42.07c13,2.26,26.1,4.84,38.82,7.34l4.45.87c59.17,12,117.49,25.08,171.66,37.42Zm-245.19-314c17.45-23.9,34.64-48.53,51-73.14,9.08-13.53,17.13-26,24.61-38.14,7.24-11.69,15.74-25.81,23.9-41.89a255.21,255.21,0,0,0,11-24.76c2.64-6.82,5.29-14,8.12-22.05,4.42-12.57,8.82-25.7,14.27-42.57.88-2.72,1.76-5.47,2.65-8.27q4.13,5.34,8.25,10.78c7.18,9.52,15.41,20.62,22.08,30.84l2,3.21,7.37,12.56,9.85,17.52c13.08,23.89,25.31,48,36.31,71.7,9.19,20,20.63,45.95,27.71,70l2,7.89L2161,826l4.38,20.05c2.94,13.92,5.35,26.62,7.37,38.81,4.51,28,6.85,52.74,7.16,75.73v.21c.25,11.57-.1,23.52-1.09,36.53-.11,1.21-.22,2.42-.33,3.65-.43,4.73-.87,9.61-1.54,14l-.71,5.19c-.08.57-.16,1.2-.24,1.83,0,.25-.06.51-.1.75l-.21,1.2c0,.13-.11.65-.35,1.64l-.18.79c-.07.34-.32,1.27-.49,1.93l-.22.85c-2.49,9.15-6.09,19.94-11.67,34.95-4.14,11.13-8.8,23-14.67,37.36l-1.6-.49-.53,1.7c-50.56-11.47-104.38-23.45-159.08-34.54l-4.67-.92c-12.88-2.53-26.2-5.15-39.7-7.5-6-1.14-12.11-2.08-18-3l-.1,0-5-.77c-5.67-.94-11-1.51-15.67-2-2.41-.26-4.9-.53-7.31-.83l-183.19-20.93c21-14.23,44.83-30.68,68.5-48.72l2.83-2.19c11.44-8.86,23.27-18,36.38-31.22l.48-.5c11.26-12,21.49-23.68,31.28-35.72C1869.86,892.91,1887.3,870.27,1907.58,842.53Zm-277.5,451.91c-2.66-3-9.77-12.4-19.91-37.73-11.46-28.63-26-112.45-33.56-162.33l6.55-6.39,4.61,3.3,34.81,30.83,29.93,33.13c9.27,15.27,24.11,40.59,28,49.51l.31.7c10.64,24.12,13,33.29,13.12,36.68,0,7.3-6.09,26.18-10,31-3.49,4.17-20.5,14.23-30.58,17.41C1645.62,1293,1635.09,1294.57,1630.08,1294.44Z"/>
    <path d="M1846.21,2260.63c-25.2,3.2-47.42,5.88-68,8.2l-1.9.2c-22.39,2.43-43.55,4.72-66.8,5.89-23.44,1-47.84,2.74-71.45,4.41l-15.31,1.08-6.47.45c-26.39,1.87-53.69,3.79-80.86,5.12-16.89.83-30.83,1.14-43.82,1-14.19-.2-27.84-.81-43.92-1.66-26.38-1.45-53-3.33-78.66-5.15l-8.68-.61-43.33-2.94-43.82-2.41c-29.29-2.12-58-5.49-85.75-8.75l-1.33-.16c-31.81-3.83-65.58-8.21-109.48-14.21l-52.7-7.19,27.39,45.6c24.39,40.55,48.08,80.71,70.4,119.35,27.87,48.31,64.19,112.2,98,178l.11.2c5.92,11.29,11.75,23.22,17.38,34.77l5.16,10.55,21.4,46.53,121.46,264.84,4.76,10.44,11,3.37c4.09,1.25,8.41,2.37,12.79,3.31a256.93,256.93,0,0,0,27.52,4.25,532.69,532.69,0,0,0,56,2.53h0a532.15,532.15,0,0,0,56-2.56,257.15,257.15,0,0,0,27.46-4.24c4.48-1,8.8-2.09,12.85-3.33l10.93-3.35,126.18-275.26,21.4-46.55q2.58-5.25,5.14-10.51c5.63-11.53,11.45-23.46,17.4-34.82l.1-.19c33.83-65.85,70.14-129.7,98-178,22.35-38.7,46-78.84,70.37-119.32l27.38-45.56-52.69,7.17C1892.5,2254.59,1869.05,2257.7,1846.21,2260.63Zm-348.88,656a483.46,483.46,0,0,1-50.68-2.25c-7.66-.81-14.24-1.78-20.09-3l-116.41-253.82-21.55-46.86-.27-.58q-2.62-5.36-5.24-10.72c-5.78-11.83-11.75-24.07-18-36-34.3-66.77-71-131.31-99.15-180.09-14.08-24.38-28.71-49.38-43.72-74.71,20.89,2.73,39.69,5.1,57.92,7.3l1.4.16c28.39,3.34,57.75,6.79,88.27,9l44,2.42,43.1,2.92,8.46.6c25.93,1.84,52.75,3.73,79.65,5.22,16.74.88,31,1.51,46,1.73,14.1.18,29-.15,47-1,27.73-1.36,55.32-3.3,82-5.19l6.36-.45,13.72-1,1.64-.12c23.29-1.64,47.37-3.35,70.14-4.33h.19c24.76-1.24,46.64-3.61,69.8-6.12l2.09-.23c20.74-2.34,43.22-5.05,68.73-8.29l19.67-2.55c-15,25.29-29.61,50.27-43.71,74.68-28.13,48.75-64.81,113.27-99.12,180.06-6.27,12-12.25,24.2-18,36.05q-2.6,5.34-5.23,10.68l-21.82,47.46L1568.1,2911.38c-5.82,1.18-12.42,2.15-20.09,3A480.46,480.46,0,0,1,1497.33,2916.62Z"/>
    <path d="M668.91,1205.85l167.29-48.44,19.45-4.49c61.81-14,122.35-27.53,183.41-39.35,12.41-2.35,28.84-5.36,46.26-7.9l268.87-30,26.1,1.17c-17.93,17.06-36.7,35.43-46.14,46.21-3,3.44-7,7.76-11.23,12.35-28.9,31.28-53.22,59.34-58.22,85.85-2.1,11.12,0,36.52,8.08,49.46,16.86,27.19,65,54.74,74.52,60,22.85,12.65,42.91,19.36,63.13,21.15.08,0,7.64.66,16.25.66,3.72,0,7.46-.11,11.12-.44,1.93,8.93,3.78,17.28,5,22.34.86,3.54,1.85,7.7,2.93,12.26,6,25.34,13.5,56.88,21.25,75.47,7.15,17.15,23.65,45.86,49,85.33,8.43,13.1,33.23,51.06,36,55.35l13.73,21,42.72-27.9L1594.79,1575c-.25-.38-27.08-41.43-35.87-55.1-31.15-48.46-41.47-69.28-44.85-77.38-6.15-14.76-13.7-46.57-18.7-67.62-1.11-4.68-2.12-9-3-12.58-2.65-10.84-8.65-39.38-11.44-52.75,6-18.7,8.24-38.31,8.95-46.41,3.57-40.92,6.73-160.75,6.86-165.82l.3-11.31-8.14-7.77c-2.69-2.58-5.47-5.33-7.54-7.44a26.54,26.54,0,0,0,15.86,5.78l.78,0a26.46,26.46,0,0,0,18.64-7.65,26.76,26.76,0,0,0,7.89-19v-.71a26.45,26.45,0,0,0-26.54-25.69l-1.21,0a26.4,26.4,0,0,0-25.32,25.71v.61a26.88,26.88,0,0,0,2.35,11.2c-2.43-3.69-5.33-8.25-8-12.5l.85-18.9-105.3-4.71c-18.39-11.85-33.76-21.93-47.93-31.45-21.68-14.61-46.84-31.75-71.2-50.23l-2-1.52c-11.24-8.64-21-16.11-31.87-27-10.39-11-19.81-21.74-28.78-32.76l-.1-.12c-16.2-19.66-32.64-40.95-53.28-69-18-24.54-34.33-47.88-50-71.37-9-13.44-16.68-25.41-23.59-36.67-6.61-10.69-14.37-23.59-21.8-38.23l0-.09a208.36,208.36,0,0,1-8.78-19.88l0-.1c-2.41-6.23-4.81-12.77-7.55-20.57-4.25-12.15-8.51-24.9-13.79-41.34-4.55-14.19-9.26-29.35-15.09-48.51l12.67-79.56,25-158.16,37.52-219.8,8.61-52.28L1019,18.09l-8.57,52L972.92,290,947.84,448.62l-12.53,78.66c-10.74,13.41-22.87,28.75-34.78,44.49-7.74,10.25-16.67,22.29-24.23,33.9l-2.58,4.1-8.07,13.73-10.27,18.26-.13.24c-13.67,24.94-26.43,50.15-38,75-10,21.67-22.44,50-30.45,77.44l-2.45,9.47-2.48,11-4.51,20.58c-3.09,14.66-5.64,28.12-7.8,41.16l0,.11c-4.9,30.42-7.46,57.6-7.81,83.08-.29,13.28.12,26.91,1.24,41.65l0,.45c.12,1.25.23,2.5.34,3.75.47,5.16,1,11,1.89,16.83l.61,4.58,0,.28c.05.3.09.63.13,1l0,.16c.19,1.43.38,2.9.69,4.42s.55,2.84.92,4.38.69,2.86,1,4l.3,1.16c2.92,10.74,7,22.9,13.11,39.44,3.85,10.37,8.14,21.37,13.38,34.27l-140.69,40.74Zm175.71-104.2c-5.93-14.51-10.62-26.44-14.75-37.56-5.57-15-9.17-25.78-11.67-35l-.25-1c-.15-.58-.38-1.46-.45-1.78l-.2-.87c-.21-.86-.32-1.41-.37-1.72l-.17-1,0-.09c0-.25-.07-.51-.1-.77l0-.16c-.07-.55-.14-1.1-.21-1.6l-.64-4.71-.07-.51c-.67-4.33-1.11-9.18-1.53-13.89-.12-1.24-.23-2.48-.35-3.71-1-13-1.33-25-1.08-36.52v-.21c.31-23,2.65-47.74,7.16-75.7,2-12.27,4.44-25,7.37-38.84L831.65,826l2.21-9.78,2-7.89c7.08-24.08,18.52-50.06,27.67-69.94,11-23.71,23.24-47.86,36.35-71.78l9.86-17.54,5-8.5,2.37-4,2-3.26c6.69-10.25,14.92-21.34,22.08-30.83q4.08-5.38,8.16-10.68c.91,2.86,1.8,5.66,2.69,8.44,5.43,16.88,9.81,30,14.22,42.62,2.92,8.31,5.49,15.31,8.1,22a257.5,257.5,0,0,0,11,24.81c8.29,16.34,16.74,30.39,23.86,41.9,7.21,11.75,15.26,24.26,24.59,38.23,16.07,24.11,32.84,48,51.3,73.24,21.22,28.85,38.18,50.81,55,71.19,9.83,12.07,20.13,23.79,31.48,35.8l.5.52c13.37,13.36,25.43,22.63,37.1,31.61l2.15,1.65c23.65,18,47.69,34.45,68.88,48.77L1126,1049.81l-46.73,5.22-.83.11c-18.56,2.7-35.86,5.87-48.86,8.33l-.11,0c-60.91,11.79-121,25.21-182.32,39.08l-.38-1.3-2,.59Zm570.27,199.44c-12.86-1.14-26.5-5.9-42.91-15-23.25-12.85-48.42-31.73-55.22-41.28a59.94,59.94,0,0,1-1.86-14.49c3.17-14.47,31.7-45.37,45.48-60.29,4.46-4.83,8.68-9.39,12.15-13.36,10.85-12.4,39-39.31,62.75-61.53,1.22,1.72,2.34,3.25,3.32,4.46,1.6,2,4.11,4.68,6.85,7.47-1.27,45.27-3.87,122.8-6.39,151.66-1.47,16.87-5.71,34.23-9.39,42.78A142.65,142.65,0,0,1,1414.89,1301.09Z"/>
    <path d="M735.45,2180.59l-2.58,12.35a30.36,30.36,0,1,0-45.71,37.16l-.64-.11-19.32-6.49-1,2.89-19.73-3.49L644,2237.38c-2.49,2.15-5,4.55-7.78,7.12-7.16,6.72-16.91,16.27-32.6,31.95l-.16.16c-3.59,3.59-6.69,6.69-8,8-16.25,15.68-37.9,49-48.5,67.61-21.36,37.49-24,54.28-24.2,63.65-.26,15.15,8.52,38.89,18.42,49.82,9.33,10.31,29.52,21.33,45.28,21.81l-1.06,11,.68.06-.14,4.24c-1.11,32.93-2.1,69.86.24,91.46,1.58,14.49,10.62,50.13,12.42,57.13l1-.25h0l-1,.25,6.22,24.24,25.49-6.57c.73,10.92,1.31,20.55,1.66,26.78l1.39,25,50.92-2.84-1.39-25c-.18-3.13-4.32-77-8.66-102.91a146.22,146.22,0,0,0-4.53-18.12,35.67,35.67,0,0,0,11.54-15.83c11.66-30.39,14.94-78.15,17.58-116.54v-.19c.18-2.69.37-5.35.55-8,1.12-16.07,7.69-61.74,13-98.44,7.57-52.66,9.61-67.79,9.57-74.8l4.26-19.77-5.89-1.27-.15-4.78a30.62,30.62,0,0,0,5.33-3.75l-.39,1.86,123.55,26,135.1,25.58,9.47-50.11-134.34-25.44Zm-96.81,296.63c.78-4.89,3.73-16.11,8.58-32-1.09,15.37-2.42,32.5-4.41,48.51C640.7,2487.24,639,2481,638.64,2477.22Zm-7.85-155.92,2.2-2.16c-.46,3.26-.8,6.27-1,9l-5.43,16.12.46.15c-2.17,5-4.57,10.21-6.17,13.64-3.65,7.86-6.8,14.65-8.62,20.21-1,3.13-2.15,6.79-3.35,10.71-3.33,10.88-11.11,36.28-16.57,42.72a32.8,32.8,0,0,1-5.77,4.07,38.27,38.27,0,0,1-7.61-4.31c-2.05-3.16-5-11.32-5.27-14.8.15-1.33,1.82-11.66,17.5-39.18C602.16,2358.21,620.69,2331,630.79,2321.3Z"/>
    <path d="M2441.89,2314.17c-7.77-13-23-26.86-40.66-42.38-2.48-2.17-4.72-4.14-6.6-5.84-13.29-12-53.64-43.88-54-44.18l-12.72-10.08-11.83,5.92a28.49,28.49,0,1,0-50.3-24.59l-3.19-13.48-24.33,5.77c-.77.18-78,18.43-101,22.68-27.87,5.15-106.28,17.49-107.07,17.62l-24.71,3.88,8,50.4,24.82-3.92c8.21-1.3,81-12.8,108.26-17.82,24.39-4.51,102.72-23,103.51-23.22l.35-.08-2.84,7.89c-.2.55-20.05,55.89-27.11,73.8-3.45,8.74-9.11,21-15.1,34.05-11.17,24.28-23.83,51.79-28.93,71-.47,1.75-1.26,4.32-2.11,7-6.4,20.75-15.18,49.16,1.4,67.87,4.5,5.08,13,11.13,28,11.13a80.71,80.71,0,0,0,23.39-3.81c15.72-5.16,40.37-23.1,51.45-37.32-2.13,6.54-4.92,14.07-7.05,19.85-2.08,5.61-4,10.9-5.45,15.23-4.63,14.2-18.66,57.51-18.75,57.81l-7.67,23.77,48.47,15.67,8.17-25.13c9.08-28.05,15.57-48,18.26-56.29.08-.23.16-.46.24-.71l-7.29,82.21,50.81,4.49,8.12-91.75-.17-2.1c-.06-.78-6.32-78.54-9.1-104.54-.37-3.45-.83-7.55-1.35-12.06a71.54,71.54,0,0,0,6.64,5.63c8.24,6.1,26.17,14.68,40.22,14.68.82,0,1.65,0,2.48-.08,13.33-.9,27.8-10.64,33.82-17.26,8-8.82,15-25.6,15.65-37.38C2455.3,2343.92,2447.44,2323.42,2441.89,2314.17Zm-40.95,47.33a41.38,41.38,0,0,1-8.25-4c-6.32-4.67-20.33-23.46-30.59-41a210.89,210.89,0,0,1-9.22-19.23c3.1,2.6,5.7,4.83,7.55,6.51,2,1.83,4.46,4,7.13,6.31,9.18,8.07,26.27,23.1,30.6,30.3,1.88,3.14,4.75,11.44,5.35,15.25a35.77,35.77,0,0,1-2.41,5.75Zm-139.41-11.33c-.3,3.56-.61,6.65-1,9.11-1,7.33-5.24,24.5-8.2,34.38-.69,2.28-1.46,5-2.3,8-2.19,7.74-8,28.29-11.76,33.44-3,4-10.51,10.13-17.16,14.64.71-2.44,1.38-4.58,1.84-6.06l0-.13c1-3.32,1.9-6.18,2.61-8.85,4-14.94,16.18-41.45,26-62.79C2255.14,2364.29,2258.53,2356.93,2261.53,2350.17Zm29.18-121.23-1.27.37-16-3.68-1.43-6A28.48,28.48,0,0,0,2290.71,2228.94Z"/>
  </g>
</svg>
