<svg xmlns="http://www.w3.org/2000/svg" viewBox="0 0 2994.91 3000">
  <title>168Icon_neon 1</title>
  <g>
    <path d="M2112.52,29l-5.35-2.66h-10l-16-.07L1928.67,336l-3.87,7.76.33,1.67-1.35,2.75,3,5.23c2.87,11.89,12.51,17.38,24.61,24.27,7.83,4.45,19.15,10.52,33.66,18,24.41,12.64,58.53,29.74,101.4,50.81,75.06,36.9,154.44,74.93,169.59,82.18l13.8,6.6.91-.67.26.12,2.31-2,8.83-6.5c4.89-3.59,9.5-7,36.32-57.26,13.85-26,31.48-60.5,49.63-97.21,17.4-35.19,34.54-70.94,47-98.07,23.89-51.93,24.65-58.63,25.2-63.54l2-17.75Zm270.76,191.1c-10,23.57-30.84,68.25-60.11,127.37-29.55,59.69-52.64,103.59-65.19,125.64-111-53.26-229.82-111.73-273.41-135.17L2109.41,84.38Z"/>
    <path d="M1946.38,450.22l-11.76,21.41c-35,63.88-107.41,171.24-176.07,261.09-42.25,55.29-84,108.43-130.82,150.76-42.09,38.09-88.13,66.64-132.65,94.25-70.29,43.58-143,88.65-207.93,172.84-45.65,59.14-73.68,106.52-96.51,163.16l-25.3,47-40.14,86-76.91,156.2q-75.09,152.52-150.41,305.58l-8.78,17.82c-104.6,212.53-212.76,432.3-318.54,646.91l-11.2,22.7L582,2607.31l229.86,115.47,525.32,257.43,83.75-165L1567.8,2514.7l334-678.37,54.63-106.7,20-44.83c42.24-61,60.13-131.67,73.1-199.11,17.89-76.52,10-148.75,1.63-225.22-6.31-57.77-12.84-117.5-8.31-182.57,4.63-56.06,16.9-120.84,37.5-198.05,25.82-96.82,99.3-286.57,100-288.46l8.47-21.79L1968.26,461ZM1992,1073.85l0,.31c-4.87,69.7,1.91,131.8,8.48,191.88,7.89,72.14,15.33,140.29-.71,208.49l-.21,1c-12,62.76-28.42,128.25-66.29,182l-1.4,2-21.42,48.06-54.11,105.67-.08.17L1522,2492.24l-146.65,300.09-60.91,120L834.6,2677.15,627.49,2573.09c102.42-207.81,206.7-419.69,307.66-624.83q79.53-161.58,158.9-322.8l77-156.46,39.86-85.4,26-48.22.53-1.31c21.07-52.59,47.17-96.72,90.09-152.34,59.32-76.88,128-119.47,194.44-160.66,46.44-28.8,94.47-58.58,140-99.77,50-45.23,93.37-100.37,137.12-157.62C1862,681.35,1928.31,584,1967.29,517.38l157.15,77.37c-20.25,53.29-72.17,192.32-93.41,272C2009.62,946.94,1996.85,1014.7,1992,1073.85Z"/>
  </g>
</svg>
