<svg xmlns="http://www.w3.org/2000/svg" viewBox="0 0 2994.91 3000">
  <title>80Icon_neon 1</title>
  <g>
    <path d="M2544,345.72c-1-27.51-20.13-42.39-34.07-53.26-10.69-8.33-118.67-80.25-228.25-141.44-120-67-227.41-115.36-240.16-120.11-16.56-6.17-39.25-14.62-63.22-1.06-17.25,9.75-32.21,29.07-55.45,63.6-19.52,29-42.15,111.73-44.66,121.06L1873,233.72l552.66,308.6,13.63-14.48c6.63-7,65.18-69.71,79.64-101.55C2536.15,388.4,2544.75,365.53,2544,345.72ZM2003.24,74.15c1.78-1,4.55-1.38,20.48,4.55,12.14,4.52,115.54,51.21,233.09,116.85,105.35,58.82,212,129.5,221.77,137.14,13.4,10.45,14.55,13,14.62,15,.32,9.74-9.76,33.38-20.7,57.48-6.7,14.75-34.2,47.74-56.94,73.05L1932.85,208.72c9.62-32.65,23.28-73.36,32.32-86.8C1979.94,100,1994.78,79,2003.24,74.15Z"/>
    <path d="M1832.12,336.24c-15.29,22.29-22.8,32.06-26.41,36.32-29.53,35-81.87,83.12-132.5,129.69C1619,552.13,1562.9,603.72,1530.37,643,1492,689.46,1419,793.4,1392.12,850.63c-19.31,41-35.8,106.3-51.76,169.42-14.1,55.77-27.42,108.44-41.57,141.89-37.82,89.4-134.87,259.61-187.79,336.23-27,39.08-76.42,93.85-124.24,146.82-52.35,58-106.48,118-136.43,162.86-42.52,63.74-99.54,181.67-145.35,276.44-14.27,29.53-27.76,57.43-38.66,79.17-49.82,99.32-190.83,394.81-192.22,397.73L468.45,2573l6.24,11.43c1.9,3.5,13.65,22.82,58.3,59.72,40.17,33.19,118,89.5,260.71,169.18s231.47,116.41,280.81,133.2c48.69,16.56,71.85,18.35,79.54,18.35,1.18,0,1.82,0,2,0l13-.7,7-11c1.77-2.76,178-277.72,236.82-372.79,12.78-20.68,29.46-46.81,47.12-74.47,56.64-88.71,127.13-199.11,159.08-268.75,22.51-49.05,45.16-126.6,67.09-201.64,20-68.47,40.69-139.27,59.8-182.74,37.46-85.25,131.45-257.16,187.73-336.27,21-29.6,58.91-68.57,99-109.84,45.35-46.68,92.25-95,117.07-132.93,35.11-53.73,84.35-168.2,104.2-226.61,16.41-48.31,30.9-123.1,44.93-195.47,13.08-67.52,26.61-137.34,40.88-180.83,1.75-5.31,6.12-16.83,17.08-41.55l9.4-21.25L1845.28,317.07Zm468.81,293.67c-4.5,10.72-7.69,19-9.65,24.94-15.28,46.54-29.12,118-42.5,187-13.7,70.66-27.85,143.73-43.15,188.77-18.1,53.25-66.65,166.21-98.6,215.11-22.13,33.86-67.28,80.34-111,125.3-41.48,42.7-80.66,83-104,115.8-59.56,83.73-154.21,257.37-192.86,345.32-20.45,46.52-41.61,119-62.09,189-21.39,73.22-43.52,148.93-64.46,194.58l-.16.36c-30.57,66.47-99.86,175-155.56,262.22-17.77,27.84-34.57,54.14-47.52,75.09-51,82.54-191.52,302.08-227.81,358.74-10-1.84-26.42-5.75-50.89-14.08-47.33-16.11-133-51.64-272.18-129.38s-214.4-132-252.94-163.84c-20-16.48-31.92-28.45-38.72-36,28.67-60,141.47-295.86,185-382.63,11.07-22.07,24.63-50.13,39-79.84C796,2013.13,852.19,1897,892.76,1836.15c27.88-41.79,80.74-100.36,131.87-157,48.9-54.17,99.46-110.19,128.33-152,54.6-79.05,152.77-250.72,192.8-345.35,15.67-37,29.45-91.56,44-149.27,15.36-60.76,31.24-123.59,48.46-160.2,24.86-52.86,95.56-153.45,131.4-196.79,30.31-36.65,85.09-87,138.08-135.77,51.78-47.64,105.32-96.89,136.93-134.31,4-4.8,9.39-11.84,16.16-21.3Z"/>
  </g>
</svg>
