<svg xmlns="http://www.w3.org/2000/svg" viewBox="0 0 2994.91 3000">
  <title>78Icon_neon 1</title>
  <path d="M2888.4,902.94l-615-472.24-.87-.66L1613.23,9.52l-20-12.8-135,181.92-75.32,24.84,1.46,74.94L940.09,897.19,699.58,1227.26l-.3.4-391,584.65L80.49,2045.16l256.58-.43L1124,2723.47l195.92,260.31,26.09,34.66,127-286.38,275.83-402,317.33-367.19,49.11-55.53,551-706.39,87.76-7.52.39-100.28,61.15-91.92Zm-228.66,247.37L2041,731.41,1435.29,273.55l-.66-33.43,34.53-11.38L2095.38,652.6l607.93,445.69-.19,48.31Zm-534.6-539.13-.38-.28L1509.83,194.68l43.89-59.16,607.34,411.17,595.87,450.47-34.52,51.89Zm66.13-105.58L1584.13,94.53l21.7-29.24,637.41,406.55,574.31,441-31.47,42.42ZM1415.49,322.52l595.28,450,.52.39L2616,1182.32,2076,1874.73l-48.17,54.47-318.56,368.61-.91,1.05-280.09,408.22-93.73,211.36L1163,2690.6l-1.62-2.16L363.14,1999.87,356,1993.7,201.9,1994,348,1844.58,741.1,1256.87,981.36,927.15Z"/>
</svg>
