<svg xmlns="http://www.w3.org/2000/svg" viewBox="0 0 2994.91 3000">
  <title>166Icon_neon 1</title>
  <path d="M2922.18,658.37l35.38-36.74L2370.7,56.43l-35.37,36.74,268.46,258.56L2362.49,595,2147.33,391.16l-17.91-17L1009.25,1481.92l-4.91,4.89L845.47,2090.42,498.29,2432.25,322.23,2605.78,146.39,2779.49l35.09,35.62,176.39-173.18,176.19-173.39,347.22-342.06L1477.46,1969l6.52-1.71L2609.67,865.6l18.93-18.52-229.07-217,241-243Zm-558.63,8,0-.05,191.47,181.38L1457.94,1921.44,904.19,2067.68l145.93-554.45L2130.19,445.17l231,218.8Z"/>
</svg>
