<svg xmlns="http://www.w3.org/2000/svg" viewBox="0 0 2994.91 3000">
  <title>124Icon_neon 1</title>
  <g>
    <path d="M2204.93,2142.8c-13.83-43.86-49.19-188.62-64.24-250.86l-9.74-40.66-15.62-7.16c-30.17-11.75-105.48-42.13-134.59-58.58-16.43-9.28-37.17-22.66-56.82-36.67,22.85,9.3,46.75,18.65,63.23,23.42l5.24,1.52c31.35,9.1,70.37,20.44,103.82,21.86,16.64.71,83.37-4,86.17-4.19l40.74-2.84-20.42-35.33c-10.4-18-20.61-38.8-21.84-44.38-3-14.85-1.94-50.84,2.95-64.74,2-5.56,13.36-21.67,19.16-26.27,1.1-.87,12.4-8.91,71.13-26.05,8.31-2.43,28.12-5.61,47.28-8.68,23.42-3.75,45.54-7.3,57.68-11.06,25.82-8,50.87-31.23,53.65-33.87l21.3-20.18-22.51-17.92-.54-.43c-3.53-2.81-34.8-27.71-45.31-36.25-4.34-3.52-9.87-7.83-15.74-12.39-14.09-11-33.39-26-41.72-34.82-15-15.9-41.06-54.23-51.71-76-12.91-26.35-27.7-87.93-32.2-118.75-4.63-31.73-5.92-95.66-6.69-133.9l-.21-10.21c-.21-9.82-.2-22.71-.18-36.35.05-41.1.1-92.24-5.44-122.74-4.86-26.73-19.75-78.29-29.5-102.16-6.36-15.58-17.51-34.63-29.31-54.8-11.5-19.65-23.39-40-28.41-53.34-3.55-9.45-7.45-29.22-10.89-46.68-3.74-19-7.28-36.91-11.46-49.08-9.27-26.95-30.16-79-46.74-104-19-28.67-59.87-64.22-100.07-98.19l-3.74-3.16c-23.12-19.57-72.74-56-101-70.87-36.5-19.2-109-47.89-147-59.76-24.69-7.71-99.61-21.21-102.78-21.78l-39.51-7.1,10.36,38.78c2.63,9.84,26.2,97,43.77,126.52,23,38.72,85.19,113.46,120.89,145.4,33.23,29.72,98.79,68.82,146.66,97.37l.2.13c10.62,6.33,20.65,12.31,28.87,17.33,24.6,15,75,39.58,102,50.68,12.41,5.11,46.06,11.85,68.65,16,7,14.65,16.73,31.26,26.22,47.48,10.86,18.56,21.11,36.08,26.11,48.31,8.26,20.21,22.39,69.22,26.53,92,4.72,25.95,4.66,74.53,4.62,113.56,0,13.94,0,27.1.19,37.49.07,3.13.13,6.53.21,10.17.79,39.4,2.12,105.34,7.22,140.23,5,34.12,21,101.41,36.86,133.83,12.79,26.09,42.13,69.09,60.37,88.47,11,11.73,30.44,26.81,47.61,40.16,5.62,4.37,10.93,8.5,14.82,11.66,4.36,3.55,12.08,9.74,20,16.06a51.29,51.29,0,0,1-9.5,4.3c-8.68,2.69-32,6.42-50.67,9.43-22.6,3.62-42.11,6.75-53.48,10.07-62.91,18.35-80.66,28.8-88.55,35.06-13.23,10.5-30.18,34-35.56,49.3-8.32,23.63-9.45,68.66-4.87,91.63,1.29,6.45,4.71,15.14,8.91,24.2-19.35,1.11-35.89,1.85-41.37,1.62-27.31-1.16-63.05-11.55-91.77-19.89l-5.26-1.52c-19.33-5.6-53.12-19.54-80.27-30.74l-.23-.09c-10.42-4.3-20.26-8.36-28-11.41-16.86-6.64-65.9-26.35-71.51-28.6l-93.88-37.75,64.75,77.7c.32.39,32.65,39.23,43.64,50.31,27.55,27.79,82.55,66.16,119.81,87.21,3.65,2.07,7.86,4.29,12.48,6.61-58.47-9.18-120.77-21.93-152.19-34.29-72.39-28.49-193.6-87.64-236.4-129.94-36.47-36-92.62-125.91-113-174.21-19.85-47-45.21-152.56-53.94-204.55-3.48-20.69-6.85-80.42-8.26-111.18,2.94-20.43,10.94-73.56,15.3-91.86,4.23-17.73,20.37-67.33,27.88-89.95,33-40.38,87.3-104.82,101.63-116.58,81.69-67.06,179.94-98,180.88-98.27l71.48-21.85-69.85-26.36c-1.08-.42-29.18-11.64-62.89-38a335.47,335.47,0,0,1-104.94-140.46c-46.78-117.74-60.5-266.31-60.63-267.78l-2.44-27.79-27.45,4.92c-1.45.26-145.54,26.29-235,61.3-39.51,15.46-92.91,51.58-158.72,107.34-47.08,39.89-83.45,75.47-87.12,79.08a134.43,134.43,0,0,0-14.16,16.12h0a271.43,271.43,0,0,0-22.73,35.53c-18.11,33.34-27.31,59.19-29,64.17C920.79,646.27,827,881,805.72,973.24c-14.47,62.92-24.38,184.57-34,302.24-8,97.91-15.52,190.38-24.89,240.93-19,102.26-62.71,237-111.47,343.25C607,1921.47,486.61,2089,442.63,2148.28l-12.07,16.23L443.61,2180c3.83,4.53,93.9,111.14,113,128.7,89.81,82.72,228,196.25,334.21,263.42,98.34,62.19,315.77,145.76,436.62,190,118.09,43.27,349.07,95.27,487.08,126.33l29.51,6.65c62.94,14.22,299.27,57.13,301.65,57.56l63.61,11.53-38.6-51.85c-30.44-40.89-66.44-92.85-71.51-105.48-10.82-26.94-35.49-108.26-35.76-109.14L2060,2686.5l-10.74-4.7c-1.55-.68-156.06-68.5-242-122.86-91-57.52-192.23-124.54-253.69-185.5-6.11-6.06-12.72-12.59-19.73-19.51l-.79-.78c-86.1-85-230.19-227.18-271.76-318.78-44-96.83-78.92-294.76-84.64-394-4.33-75,41.39-299.42,59.36-379.52l5.73-25.44-25.41-5.13c-1.8-.4-57.77-13.39-127.41-69-53.47-42.73-79.16-120.59-91.3-178.38C981.51,906.35,976.7,680,976,645a418.51,418.51,0,0,1,24.33-52.85c2.7-5,5.31-9.42,7.78-13.37,8,12.35,17.09,26.28,24.5,37.35,62.58,93.5,103.94,129.88,147.8,168.46,7.77,6.84,15.81,13.91,23.91,21.27,44.12,40.12,155.72,152.92,191.33,189-7.5,22.85-21.33,65.66-25.67,83.83-5.13,21.52-13.3,76.72-15.84,94.16-10.14,18.27-50,90.37-60.67,113.34-18.28,39.41-29.47,95.58-33.49,131.7-9.36,84-7.81,251,8.14,332.21,9.19,46.83,27.92,111.65,50.08,173.38,18.23,50.78,46.5,121,77.61,167,30.91,45.71,85.73,109.07,154.35,178.41,63,63.6,128.2,122.57,174.54,157.74,102.64,77.9,330.85,199.79,445.67,244.93,56.28,22.13,220.06,53.13,227,54.44l47.34,8.92-19.23-44.14C2423.78,2686.76,2250.87,2288.5,2204.93,2142.8Zm-15.86,481.29c-111.88-44-333.89-162.49-433.5-238.09-90.92-69-255.27-232.11-317.47-324.1-48.82-72.2-103.62-238.71-119.89-321.62-15.12-77-16.47-236.23-7.5-316.74,3.88-34.87,14.37-84.22,29.06-115.89,3.29-7.09,10.28-20.54,19-36.79,1.07,12.47,2.27,23.56,3.54,31.15,9.16,54.52,34.82,162.79,57.26,215.93,22.77,53.94,82,149,124.15,190.66,57,56.34,202.38,121,253.57,141.12,63.43,25,199.35,42.63,214.64,44.57,19.9,2.51,54.36,1.89,77.14,1.09,13.66,56.63,52.19,215,67.24,262.75,37.54,119.07,156.53,399.55,203.24,508.38C2297.83,2653.88,2220.49,2636.44,2189.07,2624.09ZM1045,536.3c55.42-52.41,152.44-135.85,211.85-159.1,61.92-24.23,153.85-44.36,198.66-53.4,6.42,50.88,23.55,160.1,60.9,254.09a386.56,386.56,0,0,0,121,161.84c8.6,6.72,16.9,12.61,24.64,17.71-39.41,17.27-95,45.9-145.25,87.13-17.59,14.44-66,71.92-93.71,105.44-42.63-43.16-142.87-144.14-184.41-181.91-8.4-7.65-16.6-14.86-24.59-21.89-41.22-36.26-80.16-70.51-139-158.47-9.81-14.66-22.58-34.36-31.75-48.59l2.39-2.12ZM1708.44,325c35.2,11,104.8,38.53,138.43,56.22,24.48,12.88,71.48,47.45,91.83,64.67l3.76,3.17c25.82,21.82,73.88,62.43,90.5,87.46,11.83,17.8,30.49,61.8,41,92.35,3.05,8.86,6.41,25.88,9.65,42.36.87,4.41,1.75,8.86,2.64,13.26-16.49-3.41-28.85-6.39-32.76-8-24.56-10.12-73.13-33.82-94.81-47-8.56-5.23-18.74-11.3-29.53-17.73-46.08-27.49-109.2-65.13-138.77-91.58-31.61-28.28-90.77-99.38-111.06-133.47-6.56-11-17.16-41.5-27.07-74.28C1675.09,316.91,1698.28,321.85,1708.44,325ZM1125.68,1643.28c3.13,54.24,14,131.18,29.16,205.81,12.42,61.24,32.9,146.74,60,206.36,45.47,100.19,193.77,246.55,282.37,334l.52.51c7.08,7,13.75,13.57,19.91,19.68,64.94,64.42,169.06,133.42,262.35,192.41,75.75,47.89,200.89,105,238.07,121.69,7.43,24.18,24.6,79.19,33.81,102.12,5.25,13.07,22.73,39.64,40.58,65.19-74.63-13.75-195.73-36.34-237.18-45.7l-29.54-6.66c-136.8-30.79-365.76-82.34-480.73-124.46-119-43.58-332.58-125.6-426.91-185.26-103.54-65.48-238.8-176.67-326.92-257.83-10.75-9.9-59-65.8-95.55-108.76,39.48-53.91,155.32-214.24,186.16-281.45C732.1,1771.18,777.35,1631.74,797,1525.7c9.84-53.08,17.48-146.81,25.57-246.11,9.44-115.83,19.21-235.6,32.85-294.92,11.25-48.94,44.7-141.88,73.24-217.38,3.25,80.66,9.06,178.74,19,226,13.85,66,44.08,155.57,109.38,207.74,51.77,41.37,97.5,62,124.11,71.64C1165.23,1346.44,1120.93,1560.86,1125.68,1643.28Z"/>
    <polygon points="1531.53 137.23 1521.52 235.56 1562.1 233.68 1531.53 137.23"/>
    <polygon points="1732.64 41.51 1704.03 251.68 1779.9 278.01 1732.64 41.51"/>
    <path d="M1673.62,1080.8l3.29,54.74c2.43,40.77,21.4,82.74,53.44,118.18,32.52,36,77.07,63.14,125.43,76.46l.43.12c33.67,8.64,62.89,13,86.83,13,30.08,0,52.06-6.75,67.18-20.65,13.59-12.5,19.52-28.43,16.69-44.87-3.22-18.65-17.59-35.08-38.45-44l-1.3-.56-2.82-.84-1.4-.24c-15.47-2.76-30.27-3.22-46-3.72-25-.79-48.7-1.53-70-12.6l-1.77-.91-1.89-.63c-43.63-14.48-73.47-40.18-105.1-67.42-12.91-11.12-26.25-22.62-40.64-33.35Zm96.62,141.52c21.38,15.5,45.72,29.79,75.13,39.79,30.94,15.49,62.29,16.48,90,17.36,12.54.39,24.45.77,35.42,2.42a19.44,19.44,0,0,1,4.67,3.42c-9.4,8.22-42.74,12-106.38-4.36C1829.93,1270.12,1795.38,1248.92,1770.24,1222.32Z"/>
  </g>
</svg>
