<svg xmlns="http://www.w3.org/2000/svg" viewBox="0 0 2994.91 3000">
  <title>126Icon_neon 1</title>
  <path d="M2932,1777.17c-13.2-59.24-37.61-115.59-72.55-167.49-75-111.35-190.9-189.11-318.08-213.33l-.86-.16-.86-.11c-89.61-10.65-187.72-5.39-283.72,15.2-94,20.18-184.68,54.69-262.13,99.82l-.78.46-.75.51c-48.83,33.41-69.84,58-92.09,84-14.87,17.37-31.72,37.06-59.87,62.24l-9.73,8.69,1.34,13c9.21,89.47,23.11,224.68,11.34,346.74-10,103.56-36.71,175.46-79.67,214.74,10.91-50.2,18.15-112.22,20.93-180.94,3.65-90.41-1-185-12.44-253.26-13.35-94.17-27.36-186.12-40.92-275v-.1c-20.57-135-41.84-274.58-60.29-419.11-2-15.56-4.19-30.39-6.31-44.73-14.38-97-24.77-167,59.21-269.73,38.93-47.63,80.9-84.64,121.39-107,38.76-21.45,75-29.49,107.61-23.9,40.47,6.93,76.07,34.85,105.81,83,5.27,9.54,10.46,19.14,15.49,28.42l2.57,4.73c4.11,8.52,8.11,17.55,12,27-48.62,25.2-83.59,64-101.83,113.4-18.53,50.14-17.93,106.59,1.68,158.94,18.65,49.79,52.64,90,95.72,113.12a186,186,0,0,0,89,22.09c24.75,0,50.33-4.57,76-13.57l.75-.27.73-.31c58.37-24.71,100-65.68,120.41-118.49,18-46.53,18.21-99.81.64-150-17.31-49.48-50-91-92.07-116.78s-89.7-34.21-139.25-24.92c-6.21-11-12.43-22.45-19.07-34.7-5.47-11.14-11.27-21.79-17.24-31.68C2075.77,676,2041.19,617.25,1989.78,571c-67-60.24-150.85-88.26-256.38-85.67l-.86,0C1576.35,493.71,1473.73,534,1399.8,615.9c-32.29,35.79-59.78,80-86.5,139.18-24.33,53.86-46.3,116.51-68.57,181.44-67.62,199.73-110.58,428-124.23,660.22-11.86,201.81-.67,398.18,32.39,574.59-43.06-70.2-80-164.58-107.15-275.82-35.19-143.85-50.12-304.22-39-418.47l1.4-14L997,1454.34c-114.58-88.53-227.66-144.77-336.08-167.14-98.69-20.37-191.48-12.64-275.79,23-79.78,33.69-149.39,92.18-201.3,169.14-48.86,72.44-80.05,157.6-90.18,246.27-9.25,80.9-.14,161,26.35,231.69a418.57,418.57,0,0,0,56,103.25,401.13,401.13,0,0,0,65.78,69.25c-31.18,43.24-46.47,91-44.44,139.35,2.12,50.41,23.15,98.8,59.2,136.26,35,36.34,80.81,59,129.07,63.78,6.42.64,12.93,1,19.35,1,46.6,0,92.26-16.92,132.1-48.94,45.49-32.63,73.63-77.18,81.38-128.9,6.88-45.88-3-95-27.93-138.24-25.49-44.3-64.23-78.47-109.08-96.22-47.05-18.62-97.51-18.24-146.67,1-36.26-22.5-60.84-85.48-59.47-155.49,1.13-58.09,22.07-127.51,77.4-148.31,96.73-33.82,262.71-15.88,398.85,103.44C843.49,1939,860.62,2088,877.19,2232c4.95,43,10.06,87.47,17.14,128.94l4,23.54,23.76-2.49c41.89-4.38,81.2-8.85,119.29-13.18,70-8,135.2-15.36,202.19-20.61l3.72,3.5-.94-3.72c66.23-5.12,134.26-8.11,210.42-7.42,135.93,3.21,255.78,21.92,382.68,41.74,37.69,5.88,76.66,12,116.78,17.75l16.84,2.45,8.72-14.63c119.39-200.45,258-373.34,436.08-544.09,23.39-22.42,59.34-36.6,104-41,40.68-4,86.2.3,128.2,12.15,39.63,11.19,74.19,28,100,48.61,24.11,19.31,40,41.58,46,64.43,4.39,16.73,2.68,56.07-11,106.25-10.14,37.14-22.77,65.26-33.45,81.8-50.22-21.14-102.17-24.52-151.36-9.67-49.35,14.89-92.46,47.32-121.4,91.3-26.5,40.27-38.61,87.06-34.09,131.75,5,50.05,30.17,95,72.63,129.9l.67.54c40.14,30.76,84.85,47,129.31,47h0a186,186,0,0,0,22-1.32c46-5.53,90-28.57,123.79-64.89,35.37-38,56.72-86.72,60.1-137.15,3.28-48.92-10.36-95.39-39.6-135.61,41.55-49.11,93.7-131.23,119.76-201.19l.69-1.86.4-1.95C2946.68,1901.78,2945.86,1839.3,2932,1777.17Zm-176.24,628.72c-45.09,48.44-123,77.44-206.4,13.73-74.4-61.47-61.6-142.87-28-193.95,24.64-37.44,74.47-77.45,140.43-77.45,28.29,0,57,7.39,85.27,22l3.39,1.75,10.65,12C2825.59,2256.61,2807.23,2350.6,2755.77,2405.89Zm129.08-455.06c-12.54,33.1-31.69,69.59-52.45,103.21.61-2.12,1.2-4.25,1.79-6.4,14.67-53.72,18.84-103.3,11.16-132.6-9.15-34.9-32.47-67.51-67.45-94.3-30.74-23.54-70.15-42.53-114-54.9-50.13-14.15-104-18.91-151.82-13.39-54,6.24-98.78,25.09-129.48,54.52-90.08,86.35-169.29,172.4-242.16,263a2510.1,2510.1,0,0,0-193.66,277.12c-34-5-67.19-10.19-99.44-15.22-36.48-5.7-72.38-11.3-108.28-16.49,47.23-17.73,84.47-53.76,110.78-107.21,22.4-45.51,37.27-104.95,44.19-176.68,11.71-121.43-.73-252.89-10.06-344.07,25-23.23,40.79-41.73,55-58.28,21.59-25.23,38.67-45.19,81.36-74.5,151-87.7,342.36-128.07,512.43-108.07,113.55,21.87,217.18,91.65,284.42,191.54C2881.52,1733.78,2905.53,1844.74,2884.85,1950.83ZM1293,952.87c47.65-138.89,83.47-235,144.63-302.8,64.12-71.06,155.8-106.15,297.24-113.74,108.84-2.62,179,31.63,230.26,81.62-1.26-.24-2.52-.48-3.79-.69-44.29-7.59-91.65,2.33-140.76,29.47-46.82,25.87-92.68,66.07-136.33,119.46-98.24,120.18-85.23,207.91-70.16,309.55,2.08,14.08,4.24,28.64,6.16,43.64,18.54,145.23,39.86,285.14,60.48,420.48,13.55,88.93,27.57,180.89,40.88,274.82l.1.64c22.27,132.39,18.12,358-23.44,470.1l-8.6,23.19c-74.51-9.78-150.13-17.11-231.88-19h-.36q-11.46-.1-22.68-.11c-72.24,0-137.4,3.24-201,8.35l-7.69-30.54C1128.05,1878.46,1154.34,1362.53,1293,952.87ZM940.82,2328.73c-5-33.34-9-68.42-13-102.55-17.68-153.67-36-312.57-142.7-406.12-70.16-61.5-153.87-103.45-242.09-121.32-74.19-15-149.82-12-207.49,8.19l-.45.16c-35.68,13.3-64.79,40.68-84.19,79.17-16.58,32.89-25.79,73-26.63,116-.86,43.82,7.24,87.84,22.81,123.94,17.91,41.54,44.47,70.65,76.78,84.15l10.25,4.3,10.13-4.59c88.36-40,166.67,7.91,202,69.38,32.47,56.44,41.62,142.85-39.48,200.63l-1.22.92c-77.94,63-164.7,38.47-212.33-11-47.24-49.08-74.62-138.19,3.68-227.77l18.44-21.06-22.66-16.38c-110.53-80.12-166-219.72-148.46-373.43,19.27-168.6,121.58-315.49,260.65-374.22,40.91-17.27,91.79-30.24,152.37-30.24,104.26,0,237.23,38.41,397.45,159.37-4.33,55.59-3.34,121,2.92,190.11a1595.48,1595.48,0,0,0,38.52,231.25c42.61,174.23,109.26,310.77,187.67,384.46l9.79,9.2c-51.89,4.8-103.55,10.67-158.08,16.87C1005.05,2321.63,973.68,2325.19,940.82,2328.73ZM2134.62,847.54c95.33-26.64,164.79,35.68,189,104.87,23.2,66.31,12.95,159.52-92,204.38-105.18,36.44-171-26.53-195.35-91.67-28.36-75.71-7.33-172.18,86.32-214.2Z"/>
</svg>
