<svg xmlns="http://www.w3.org/2000/svg" viewBox="0 0 2994.91 3000">
  <title>128Icon_neon 1</title>
  <g>
    <path d="M860.88,1399.21c80.88,85.62,173.29,152.82,282.51,205.46,100.68,48.52,217,85.09,355.59,111.79l4.91.9,4.71-.93c135.06-26.4,248.11-61.3,345.61-106.67,109.66-51,202.48-116.22,283.78-199.31,86.29-88.19,158.89-195.64,222-328.5C2424.84,945.23,2478.51,784.08,2524,589.3l7.32-31.32-2023.11.42-32.39,0,7.62,31.5C574.91,966.31,694.84,1223.47,860.88,1399.21ZM2466.89,609c-183.74,755.34-505.51,965.9-963.21,1056.43-532.2-104-795.62-391.78-962.87-1056Z"/>
    <path d="M1856.21,2104.39V1693.93l-37.16,19.13c-97.42,50.11-190.49,71.16-318.38,99.63-111.48-17.35-182-44.91-270.87-79.69-17.35-6.78-35.29-13.8-54.44-21.09l-34.71-13.23,1.45,406.85L100.24,2452.73l157.5-.09c6.8,0,700.08-.52,1422.78-.52,422,0,768.36.18,1029.59.52l152.15.19Zm-175.69,296.73c-518.13,0-1017.85.26-1265.32.41l760.56-253.46,17.47-5.85L1191.92,1773l19.31,7.54c93.11,36.41,166.65,65.17,286.48,83.33l4.9.66,4.48-1c118.07-26.27,207.21-46.11,298.12-87.15V2140.7l752.91,260.77C2319.5,2401.24,2025.2,2401.12,1680.52,2401.12Z"/>
  </g>
</svg>
