<svg xmlns="http://www.w3.org/2000/svg" viewBox="0 0 2994.91 3000">
  <title>138Icon_neon 1</title>
  <path d="M2426,2722.25c-6-32.24-15.94-76.42-29.51-131.31-24.39-98.73-55.34-211.21-73.83-278.44-6.88-25-12.31-44.74-14.89-54.65l-415.6-1577-.07-.25c-4.7-17.15-12.46-49.38-22.28-90.19-21.33-88.63-50.54-210-80.82-313.07-17-57.85-31.84-101.54-45.4-133.56-20.23-47.82-37.18-68.47-58.52-71.28l-8.64-1.13L1669,75.78c-20.72,12.08-52.93,46-118.68,202.19-40.75,96.82-82.42,211.68-115.9,304-20.87,57.55-38.9,107.24-50.07,133.95l-.08.19-801,1960.44L578.53,2688l6.14,10.8c15.33,26.89,45.6,51.21,92.55,74.36,36.57,18,76.52,31.91,103,41.1C986.54,2886,1230.37,2929,1485.3,2938.79c36.88,1.41,74.4,2.13,111.5,2.13,221.66,0,445.8-25.66,648.19-74.2l1.37-.37L2413.54,2816l8.9-2.69,5.14-7.86C2434.77,2794.37,2436.5,2778.46,2426,2722.25Zm-43.81,49.94-149.83,45.11c-202.83,48.58-420.38,72.56-635.63,72.56-283.89,0-563.7-41.74-799.84-123.79-43.08-15-129.28-44.92-161.25-83.07L1431.38,735.5c11.64-27.84,29.85-78,50.95-136.21,33.23-91.61,74.59-205.61,114.75-301.12,21.59-51.33,40.88-92.54,57.35-122.5,11.77-21.42,20.81-34.74,27.37-43,4.92,8.34,12,22.6,21.37,46.72,12.22,31.54,26.2,74.64,41.56,128.11,28.28,98.52,55.59,212,75.53,294.86l0,.24c9.88,41,17.68,73.46,22.59,91.37l415.56,1576.79c2.63,10.11,8.05,29.81,14.9,54.74l.15.54c17.46,63.46,46.68,169.66,70.41,264.58C2373,2706.74,2380.56,2753.5,2382.21,2772.19Z"/>
</svg>
