<svg xmlns="http://www.w3.org/2000/svg" viewBox="0 0 2994.91 3000">
  <title>118Icon_neon 1</title>
  <path d="M2161.32,289.56c21,27.59,52.24,48,87.95,57.48s73.27,7.39,105.63-6c36.61-15.09,64.22-43.1,79.86-81,11.84-28.68,14.61-58.8,8-87.09s-22.38-54.11-45.68-74.78a171.8,171.8,0,0,0-89.86-41,164.1,164.1,0,0,0-103.35,19.44c-15.22,8.53-31.61,23.46-43.55,38.92-37.71-14.08-74.56-28.27-82.27-32.08-50.89-25.17-91.65-33.39-161.46-32.58l-1.29,0-2.69.31-.36.08-1.11.15c-62.42,8.41-174.34,29-222.64,72.27C1579.9,221.11,1537,320.8,1502.31,414.56c-10.82,29.27-15.21,48.34-19,69.36l-48.47-.86-2.21.36c-18.1,2.92-36.53,5.23-54.35,7.47-38.91,4.89-75.66,9.5-111,20-174.21,51.9-316.83,137-423.9,253-110.3,119.48-183.56,272.52-217.73,454.85-8.81,47-8.14,103.77-7.5,158.69.6,51.31,1.22,104.37-5.93,147.71l-.28,1.71-5.54,221.29-2.75,164.78L598.18,2131l-4.12,164.66q-1.35,53.55-2.68,107.1c-13.31,56.93-13.58,140.15-.67,223.44,13.15,84.81,37.27,152.85,64.51,182,46.92,50.23,101.61,84.64,158.15,99.51a267.44,267.44,0,0,0,68,8.82c47.7,0,96.42-12.85,144.79-38.17,55.77-29.2,100-83.87,131.6-162.48a648.84,648.84,0,0,0,27.6-87.57c5.77,17.05,12.4,34.8,19.9,52.5,20.93,49.39,45.48,91.7,73,125.76,35.27,43.69,75.57,74,119.79,90,39.16,14.23,77.93,21.45,115.25,21.45h0a282.22,282.22,0,0,0,49.32-4.31c47.75-8.5,91.89-29.26,131.19-61.72,50.25-41.49,89.85-99.76,114.53-168.49q6.06-16.89,10.7-34.06c7.21,18.51,15.67,37.91,25.56,57.44,43,84.92,98.21,144.44,164.2,176.91a276.49,276.49,0,0,0,132.6,28.6A290.08,290.08,0,0,0,2266,2879.3a282.94,282.94,0,0,0,94.36-80c26.16-34.95,42.55-74.16,48.71-116.55,6.06-41.6,17.89-151.8-2.44-279l-2.7-108.06q-2.05-82.33-4.13-164.66Q2397,2022,2394.28,1912.9q-1.38-82.26-2.74-164.53v-.21q-1.37-54.9-2.75-109.78T2386,1528.6l-2.8-111.6-.29-1.74c-4.94-29.55-5.15-66.36-5.34-102-.22-40.7-.45-82.79-7.61-117.73-14.77-72-36.11-139.61-63.43-200.89a816.27,816.27,0,0,0-98.26-165.37c-72.55-94.3-166.64-173.62-287.64-242.48-90.26-51.37-232.76-90.19-356-98,3.62-18.13,8.68-37.8,15.59-54.28,4.56-10.86,9-21.82,13.33-32.47,34.17-84.19,63.69-156.9,151.12-220.06,18.45-13.32,54.29-28,93.53-38.21,44.27-11.55,87.56-16.59,121.91-14.19,40.78,2.86,114,35.45,144.2,52.27,6.64,3.7,17.94,9.52,27.32,14.28C2130.91,230.91,2141,262.9,2161.32,289.56Zm22.35-105.27.92-7.27,9.19-19.52c5.6-11.88,22.31-29.21,35-36.36,49.64-27.82,103.28-12.4,134.43,15.23,31.35,27.81,40.23,65.82,24.36,104.27-23.09,56-81.12,68.83-125.26,57.11C2220.75,286.7,2175.17,250.36,2183.67,184.29Zm-386.28,2102-18.49,202.91c-.18,2-.74,8.11,2.93,29.44,8.28,107.76-41.2,228.54-120.56,294.08-48.08,39.7-129.76,78.17-245.87,36-81.74-29.71-133.88-118.51-163.23-187.77-31.67-74.75-45.18-146-46.18-154.49l-21.71-242.31-29,241.68c-9,75-24.11,139.27-44.9,191.08-26.91,67-63.22,112.88-107.92,136.29-141,73.85-246.41,8.25-310-59.78-16.32-17.47-38.54-72.17-51.38-155-12.15-78.35-12-155.45.46-206.25l.31-1.26.38-2.77,0-1.4q1.37-54.88,2.74-109.77l4.13-164.66,5.49-218.21,2.75-164.8,5.45-217.65c7.57-47.28,6.93-101.92,6.31-154.8-.61-52.44-1.24-106.67,6.63-148.7C740.05,885.33,944,660.46,1281.87,559.8c31.31-9.33,66-13.69,102.82-18.31,17.54-2.2,35.65-4.48,53.8-7.36l65.83,1.17,1.4,0-.36,2.56,28.75.66c121.73,2.73,270.31,40.81,361.32,92.6C2132.36,766,2267.27,948.59,2320,1205.82c6.15,30,6.37,69.52,6.57,107.75.2,37,.41,75.13,5.74,108.26q1.35,54,2.71,108.05,1.36,54.9,2.74,109.78t2.75,109.64q1.38,82.28,2.75,164.59v.21q2.74,109.1,5.5,218.21,2.07,82.32,4.12,164.65,1.38,54.89,2.75,109.78l0,1,.1.94.19,1.49c19.58,121,8.34,225.78,2.6,265.24-9.62,66.12-53.12,125.46-116.37,158.75-34.86,18.35-71.83,27.65-109.89,27.65h0a227.11,227.11,0,0,1-101.06-23.7c-149-73.31-193.36-295.37-198.79-325.8-.7-8.4-1.7-16.73-3-24.78ZM1911.67,51.46l-.32.07Z"/>
</svg>
