<svg xmlns="http://www.w3.org/2000/svg" viewBox="0 0 2994.91 3000">
  <title>114Icon_neon 1</title>
  <g>
    <g>
      <path d="M1497.37,597.28q-9.36,0-18.74-.08c-91.15-.78-179.16-7.19-261.58-19.07-85.87-12.37-161.45-30.1-224.63-52.7-41.34-14.79-84.84-31-122.42-51.86-42-23.35-71.57-49.85-90.43-81C747,338.74,772.77,281.71,854,227.63c48-31.91,105.88-56.4,182.32-77.08,70.15-19,149.15-32.59,218.85-44.61l197.1-14.22c136.53-1.82,260,6.36,367.14,24.31,117.57,19.71,216.27,51.4,293.34,94.2,28.43,15.8,64.2,37.54,88.55,65.73,29.57,34.23,35.9,70.79,18.81,108.64-16.59,36.77-50,67.75-102,94.72-46.34,24-101.28,41.51-145.42,55.59-65.94,21-143.5,37.12-230.53,47.85C1663.91,592.41,1581.64,597.28,1497.37,597.28Zm-45-504.56-197,14.21c-144.71,24.95-294.39,50.76-400.73,121.53C798.29,265.93,739.72,324.72,780.43,392c40.33,66.68,120,99.44,212.32,132.46,133.89,47.89,319.22,72.08,504.7,72.08,171.75,0,343.62-20.74,475-62.61,44.1-14.07,99-31.57,145.26-55.53,51.85-26.86,85.08-57.69,101.58-94.24,16.91-37.47,10.63-73.66-18.66-107.57-24.24-28.08-59.91-49.76-88.28-65.51-148.41-82.42-370.45-122.25-660-118.39Z"/>
      <path d="M1497.37,622.28c-6.26,0-12.64,0-19-.08-92.27-.79-181.4-7.29-264.93-19.32C1126,590.27,1048.75,572.13,984,549c-42.31-15.14-86.91-31.74-126.15-53.55-45.9-25.52-78.5-54.93-99.67-89.93-23.21-38.37-43.42-115.21,82-198.68,50.26-33.44,110.52-59,189.65-80.39,71.27-19.28,150.88-33,221.12-45.12l1.22-.21L1452,66.72c138-1.84,263,6.46,371.61,24.66,120.38,20.18,221.77,52.81,301.33,97,30.25,16.79,68.42,40.07,95.34,71.24,36,41.65,43.82,88.43,22.68,135.27-19,42.09-56.07,77-113.33,106.62-48.22,25-104.27,42.85-149.31,57.22-67.42,21.49-146.51,37.93-235.07,48.84C1666,617.33,1582.63,622.28,1497.37,622.28Zm-239-490.5c-141.81,24.45-288.26,49.85-389.91,117.49-68.68,45.7-91.09,89.38-66.63,129.83C837.9,438.74,913.45,469.57,1001.17,501c125.48,44.88,306.37,70.62,496.28,70.62,177.13,0,343.11-21.81,467.35-61.43,43.21-13.78,97-30.93,141.36-53.91,46.66-24.17,76.2-51.1,90.29-82.32,12.91-28.61,8.21-54.33-14.79-81-21.67-25.1-54.94-45.25-81.5-60-144.42-80.2-362-119-646.76-115.25Z"/>
    </g>
    <g>
      <path d="M1494.07,2881h-3c-96.11-.14-188.64-6.76-275-19.66-90.62-13.54-170.18-33.43-236.47-59.12-79.91-30.95-170.49-66-221.84-138.2-16.66-23.4-26.43-71.55-29.87-147.18-3-65.12-.79-139.08,1.12-204.34,1-32.51,1.85-63.23,1.94-88.27-23.73-5.44-35.43-27.11-34.73-45.8.59-15.72,10-33.76,34.73-37.49l-.31-591.42c-17.9.55-32.16-6.52-40.13-19.91a43.29,43.29,0,0,1-.1-43.62c7.92-13.38,22.2-20.45,40.23-20l-1.71-586.54c-1,.07-2,.11-2.95.11-22.64,0-38.81-19.08-41.1-37.91-2.23-18.25,8.19-39.78,44-45.63l1.72-183.87.78.57c12.28,8.91,81.24,55.77,233.73,104.06,293,92.79,757.41,97.62,1035.28,10.76,139.72-43.68,205.89-84.42,236.8-110.91,33.47-28.68,33.92-47.25,33.92-47.44h1l.3,226.76c29.7,3,40.17,21.78,40,38.46-.16,20-15.5,42.73-40,44.91l.43,591c16.92,1.81,30.11,16.35,32.14,35.54,1.77,16.72-5.76,37.53-32.14,45.95l-.73,593.55c17-.43,30.68,6.48,38.35,19.44a44.85,44.85,0,0,1-.06,44.48c-7.71,13-21.29,20-38.29,19.57,0,27.54,1,59.34,2,93,3.79,129.9,8.5,291.57-34.49,349.3-51.35,69-143.1,105.2-232.67,136.41C1873,2854.27,1686.21,2881,1494.07,2881ZM731.63,1548.47v.52l.31,592.81-.43.06c-24.41,3.49-33.72,21.19-34.3,36.6-.69,18.38,10.88,39.7,34.33,44.88l.4.08v.41c-.08,25.12-1,56-1.94,88.69-3.69,126-8.75,298.49,28.56,350.91,51.18,71.91,141.61,106.94,221.39,137.85,136.29,52.8,325.25,79.35,516,79.35,183.62,0,368.89-24.58,510.66-74,89.43-31.15,181-67.32,232.2-136.05,42.78-57.46,38.07-218.93,34.29-348.68-1-33.88-1.93-65.88-2-93.55v-.52l.52,0c16.86.55,30.32-6.22,37.91-19.06a43.82,43.82,0,0,0,.06-43.46c-7.55-12.76-21-19.5-38-18.94l-.52,0v-.52l.73-594.79.35-.11c26.09-8.17,33.53-28.61,31.79-45-2-18.88-15-33.14-31.69-34.69l-.45,0v-.46l-.43-592.39.46,0c24.25-1.89,39.42-24.29,39.58-44,.12-16.32-10.21-34.75-39.59-37.5l-.45,0v-.46l-.29-222c-2.24,7.47-9.5,22.52-33.07,42.77-31,26.59-97.25,67.48-237.36,111.28-136.64,42.71-321.64,64.57-520.89,61.55-94.68-1.44-187.39-8.37-275.57-20.61-90-12.5-170.58-29.89-239.42-51.7-149.66-47.39-219-93.44-233.23-103.63L729.91,796.9l-.42.06c-35.49,5.64-45.81,26.73-43.63,44.59,2.35,19.32,19.67,38.92,43.51,36.88l.54,0v.54L731.63,1467l-.52,0c-17.89-.62-32.05,6.29-39.85,19.47a42.26,42.26,0,0,0,.1,42.6c7.85,13.18,21.95,20.07,39.75,19.4Z"/>
      <path d="M2296.12,544.22h1l.3,232.11c27.73,10.85,40.25,35.29,40.07,58.3A73,73,0,0,1,2321,879.4a68.85,68.85,0,0,1-23.5,18.59l.4,554.65c17.41,9.78,29.66,28.34,32,50.63,2.24,21.22-5.39,48.68-32,64.64l-.68,556.15a63.14,63.14,0,0,1,34.83,28.05,69.57,69.57,0,0,1-.05,69.95,63.35,63.35,0,0,1-34.62,28.06c.32,21.93,1,46,1.76,71,4.1,140.74,8.76,300.25-39.43,365-55.58,74.65-151.26,112.6-244.49,145.09-136.39,47.52-326.33,74.78-521.11,74.78h-3c-97.33-.14-191.08-6.85-278.66-19.94-92.45-13.81-173.8-34.18-241.81-60.52-83.19-32.23-177.48-68.76-233.18-147-19.8-27.82-30.76-78.84-34.47-160.54-3-66.07-.83-140.52,1.1-206.21.74-25.36,1.45-49.62,1.77-70.84-23.81-13.84-35.43-40.19-34.55-63.44A65,65,0,0,1,685,2139.62a61.23,61.23,0,0,1,21-16.85l-.29-551.63A64.28,64.28,0,0,1,669,1542.4a68.6,68.6,0,0,1-.13-69.16,64.17,64.17,0,0,1,36.67-28.81L704,900.68a66,66,0,0,1-23.83-15.28,69.66,69.66,0,0,1-20.1-40.71c-3.16-25.93,9.69-54.68,44.05-67.82l2-213.35,40,29C757.83,601,823.88,645.84,972.7,693c288.84,91.48,746.54,96.29,1020.27,10.72,135.66-42.4,198.86-81.06,228-106ZM2221,597.67m0,0M756.63,1522.49V1549l.32,614.48-21.9,3.14c-3.41.48-12.45,1.78-12.86,12.79-.24,6.48,3.48,17,14.75,19.52l20,4.43,0,20.54c-.08,25.49-1,56.52-2,89.37-1.88,64.07-4,136.68-1.11,201.18,3.94,87.6,15.79,121.49,25,134.49,46.83,65.81,133.55,99.4,210.06,129,127.37,49.35,312.16,77.66,507,77.66,189.68,0,368.12-25.78,502.44-72.58,85.76-29.88,173.41-64.33,220.37-127.39,15.79-21.2,25.78-66.2,29.7-133.74,3.63-62.68,1.52-135.24-.35-199.26-1-34-1.94-66.21-2-94.26l-.05-26.34,26.35.82c11.37.38,14.57-5,15.61-6.8a18.9,18.9,0,0,0,.06-18c-1-1.74-4.18-7-15.63-6.68l-26.39.82.05-26.36.75-613.11,17.85-5.6c10.52-3.29,15.36-9.52,14.41-18.52-.72-6.77-4.56-12-9.14-12.43l-23.14-2.14v-23.25l-.45-615.52,23.54-1.83c10.54-.82,16.46-11.89,16.52-19.23,0-2.68.08-10.83-16.92-12.42l-23.07-2.17-.05-23.16-.2-153.61c-35.6,28-104.88,67.87-238.06,109.5-130.66,40.84-304.25,63-492.1,63q-18.24,0-36.63-.27c-95.69-1.46-189.44-8.47-278.62-20.85-91.42-12.69-173.36-30.39-243.54-52.62-98.49-31.19-163.08-61.81-201.1-82.93l-1.49,159.62-21.31,3.38c-9.07,1.44-24.1,5.55-22.72,16.86.69,5.67,6.29,15.89,16.56,15l27.57-2.35.1,27.67,1.79,614.07-26.44-.9c-8.61-.3-14.47,2.12-17.48,7.21a17.16,17.16,0,0,0,.06,17.08c1.13,1.9,4.59,7.69,17.33,7.21ZM2246.35,566.41Z"/>
    </g>
  </g>
</svg>
