<svg xmlns="http://www.w3.org/2000/svg" viewBox="0 0 2994.91 3000">
  <title>120Icon_neon 1</title>
  <path d="M2822,939.08a1429.25,1429.25,0,0,0-758.41-758.4c-175.71-74.32-362.36-112-554.74-112s-379,37.68-554.74,112a1429.21,1429.21,0,0,0-758.4,758.4c-74.32,175.72-112,362.36-112,554.74s37.69,379,112,554.75A1429.21,1429.21,0,0,0,954.08,2807c175.72,74.32,362.36,112,554.74,112s379-37.68,554.74-112A1429.33,1429.33,0,0,0,2822,2048.57c74.32-175.72,112-362.36,112-554.75S2896.29,1114.8,2822,939.08ZM1483.32,1515.52,509.14,2435.69c-232-246.16-374.47-577.68-374.47-941.87,0-749.18,602.66-1360.24,1348.65-1373.88Zm0,70.15v1282c-365.13-6.68-695.92-156.48-938.51-395.55Zm51-.62,945.89,879.81c-243.24,243.33-577,396.11-945.89,402.85Zm0-69.65V119.94C2280.31,133.58,2883,744.64,2883,1493.82c0,360.46-139.51,688.94-367.37,934.3Z"/>
</svg>
