<svg xmlns="http://www.w3.org/2000/svg" viewBox="0 0 2994.91 3000">
  <defs>
    <style>
      .a {
        fill-rule: evenodd;
      }
    </style>
  </defs>
  <title>1818icom 1</title>
  <path class="a" d="M0,0V2994.91H2994.91V0ZM1619.67,2626.89c-9,6.93-32.75,4-47.93,4H1451.11c-18,0-43.58,3.54-49.52-8.79-5.49-11.39-1.6-36.49-1.6-51.11q.79-77.44,1.6-154.92c2.52-6,8-7.29,13.58-10.37h147c16.26,0,46.23-4.12,56.72,3.19,9.94,6.94,6.38,33.06,6.39,49.51v123.77C1625.26,2597,1628.24,2620.28,1619.67,2626.89ZM2046.23,1038.6c-35.75,141.79-126.4,300.36-224.46,379.31l-76.69,68.67c-37.78,30.31-78.53,66.15-104.65,107.8-31,49.45-50.88,105.59-65.49,171.69q-6,46.31-12,92.63v67.88l6.39,84.64,8.79,99q12,94.22,24,188.45l-184.52.8q-12.79-105-25.56-210-3.6-45.11-7.19-90.24c-4.92-30.3.41-63.14-4.8-95.82l.81-62.29c6.65-39.88,7.08-80.4,16-118.18,22.26-94.65,53-176.79,101.44-245.15,31.47-44.37,72.9-85.13,115-119l55.12-50.31,63.11-58.29,38.34-45.52c20-28.36,34.08-60.41,51.93-91,39.68-68.06,66.32-163.09,43.13-268.31-31.07-141-93-234.13-220.47-278.69C1604.2,552.6,1540,540.09,1483.87,549.9l-71.09,12.77c-41.28,11.59-79.24,26.63-111.84,47.12-55.29,34.75-114.41,97.36-141.39,159.7-41.58,96.1-39.4,236.54-39.14,369.73-62-.12-123.82-1.47-182.93,2.4-1.22-153.19.79-308,44.73-420.83,44.42-114,126-206.35,223.67-267.51,47.5-29.74,101.65-50.06,161.36-67.88,31.32-9.34,65.14-11.5,99.85-17.56,63.77-11.14,151.46.5,200.51,15.17,166.94,49.93,273.43,143.18,337.89,294.66,20.25,47.58,31.21,99.87,43.14,156.51C2061.36,894.63,2060.7,981.23,2046.23,1038.6Z"/>
</svg>
