<svg xmlns="http://www.w3.org/2000/svg" viewBox="0 0 2994.91 3000">
  <defs>
    <style>
      .a {
        fill-rule: evenodd;
      }
    </style>
  </defs>
  <title>184icon 1</title>
  <g>
    <polygon class="a" points="1322.23 523.07 1497.69 523.07 1409.98 366.93 1322.23 523.07"/>
    <polygon class="a" points="1322.21 523.1 1234.46 679.26 1409.93 679.26 1322.21 523.1"/>
    <polygon class="a" points="1672.98 1147.62 1848.43 1147.62 1760.72 991.49 1672.98 1147.62"/>
    <polygon class="a" points="1585.2 1303.82 1760.67 1303.82 1672.96 1147.66 1585.2 1303.82"/>
    <polygon class="a" points="971.22 1147.62 1146.67 1147.62 1058.97 991.49 971.22 1147.62"/>
    <polygon class="a" points="971.2 1147.66 883.45 1303.82 1058.91 1303.82 971.2 1147.66"/>
    <polygon class="a" points="2023.88 1772.18 2199.33 1772.18 2111.62 1616.04 2023.88 1772.18"/>
    <polygon class="a" points="2023.86 1772.22 1936.1 1928.37 2111.57 1928.37 2023.86 1772.22"/>
    <polygon class="a" points="2374.78 2396.64 2550.23 2396.64 2462.52 2240.5 2374.78 2396.64"/>
    <polygon class="a" points="2374.76 2396.67 2287 2552.83 2462.47 2552.83 2374.76 2396.67"/>
    <path class="a" d="M2901.26,2709l-350.94-624.77-.06.13L2199.42,1459.8l0,.07L1848.64,835.45h.08L1497.78,210.68,1410,366.88h175.45l-87.77,156.19h175.52L1497.67,835.45l-87.73-156.17-87.76,156.17-87.73-156.18-87.66,156,0,0L1059,991.43h175.45l-87.77,156.19H1322.2L1146.65,1460l-87.72-156.18L971.16,1460l-87.72-156.18-87.68,156v0L708,1616H883.43l-87.77,156.2H971.18L795.64,2084.6H971.16l-87.73-156.19h175.51L971.16,2084.6h175.29l-87.58,155.85h175.45l-87.77,156.19h175.53L1146.53,2709h175.53l-87.74-156.19h175.51L1322.06,2709h175.52l-350.94-624.77-.07.14L795.84,1460H2199.3l-87.65,156H2287.1l-87.77,156.19h175.53l-175.55,312.38-87.73-156.17-87.76,156.17-87.73-156.17-87.76,156.17h.35l-87.66,156h175.45l-87.77,156.19h175.53l-175.55,312.38L1761,2553l-87.77,156.17L1585.47,2553l-87.77,156.17h702l-.05-.1ZM1761,679.26l-87.78,156.19-87.73-156.19ZM1322.18,1460l-87.74-156.19H1410Zm438.5-156.18L1672.92,1460l-87.73-156.18-87.62,155.93L1146.89,835.45h701.52l-87.66,156H1936.2l-87.77,156.19H2024L1848.41,1460ZM2023.94,1460l-87.74-156.19h175.51Zm701.8,1249L2638,2552.83h175.51Zm-263.13-780.65-87.77,156.19-87.74-156.19Zm-613.7,156.19h701.24l-87.6,155.89H2638l-87.77,156.19h175.52L2550.21,2709l-87.73-156.18L2374.72,2709,2287,2552.84l-87.54,155.78Zm175.3,624.56-87.74-156.19H2112Z"/>
    <polygon class="a" points="1673.25 2396.74 1848.7 2396.74 1761 2240.6 1673.25 2396.74"/>
    <polygon class="a" points="1673.23 2396.77 1585.48 2552.93 1760.94 2552.93 1673.23 2396.77"/>
    <polygon class="a" points="620.21 1772.22 795.66 1772.22 707.95 1616.08 620.21 1772.22"/>
    <polygon class="a" points="620.18 1772.25 532.43 1928.41 707.9 1928.41 620.18 1772.25"/>
    <polygon class="a" points="707.91 1928.42 620.15 2084.6 795.64 2084.6 707.91 1928.42"/>
    <polygon class="a" points="269.19 2396.64 444.64 2396.64 356.94 2240.5 269.19 2396.64"/>
    <polygon class="a" points="269.17 2396.67 181.42 2552.83 356.88 2552.83 269.17 2396.67"/>
    <polygon class="a" points="971.1 2396.64 1146.55 2396.64 1058.84 2240.5 971.1 2396.64"/>
    <polygon class="a" points="883.33 2552.83 1058.8 2552.83 971.08 2396.67 883.33 2552.83"/>
    <path class="a" d="M795.61,2708.91,444.93,2084.6H620.15l-87.73-156.18-87.63,155.94-.05-.11L357,2240.45H532.41l-87.77,156.19H620.17L444.62,2709,356.9,2552.84,269.13,2709l-87.72-156.18L93.64,2709H971l-87.72-156.18Zm-175.46.11-87.74-156.19H707.92Z"/>
    <polygon class="a" points="971.04 2709.02 1146.53 2709.02 1058.81 2552.84 971.04 2709.02"/>
  </g>
</svg>
