<svg xmlns="http://www.w3.org/2000/svg" viewBox="0 0 2994.91 3000">
  <defs>
    <style>
      .a {
        fill-rule: evenodd;
      }
    </style>
  </defs>
  <title>187icon 1</title>
  <path class="a" d="M2830.56,66.08H53.41V2949.46h2884V66.08ZM267,2842.65H160.23V2735.83H267Zm0-320.44H160.23V2415.39H267Zm0-320.44H160.23V2095H267Zm0-320.45H160.23V1774.51H267Zm0-320.44H160.23V1454.07H267Zm0-320.44H160.23V1133.63H267Zm0-319.85H160.23V813.78H267Zm0-320.44H160.23V493.34H267Zm0-320.44H160.23V172.9H267ZM480.67,172.9H587.48V279.71H480.67ZM587.48,2842.65H480.67V2735.83H587.48Zm106.81-427.26V2629H373.85V2308.58H694.29ZM587.48,2095v106.82H480.67V2095ZM480.67,1881.32V1774.51H587.48v106.81Zm213.62-427.25V1667.7H373.85V1347.26H694.29ZM587.48,1133.63v106.81H480.67V1133.63Zm-106.81-213V813.78H587.48V920.59ZM694.29,493.34V707H373.85V386.52H694.29ZM907.92,2842.65H801.11V2735.83H907.92Zm0-320.44H801.11V2415.39H907.92Zm0-320.44H801.11V2095H907.92Zm0-320.45H801.11V1774.51H907.92Zm0-320.44H801.11V1454.07H907.92Zm0-320.44H801.11V1133.63H907.92Zm0-319.85H801.11V813.78H907.92Zm0-320.44H801.11V493.34H907.92Zm0-320.44H801.11V172.9H907.92ZM1762.43,172.9h106.81V279.71H1762.43Zm0,320.44h106.81V600.15H1762.43Zm0,320.44h106.81V920.59H1762.43ZM1442,172.9H1548.8V279.71H1442ZM1335.17,600.15V386.52h320.44V707H1335.17ZM1548.8,813.78V920.59H1442V813.78ZM1121.55,172.9h106.81V279.71H1121.55Zm0,320.44h106.81V600.15H1121.55Zm0,320.44h106.81V920.59H1121.55Zm106.81,2028.87H1121.55V2735.83h106.81Zm0-320.44H1121.55V2415.39h106.81Zm0-320.44H1121.55V2095h106.81Zm320.44,640.88H1442V2735.83H1548.8Zm106.81-427.26V2629H1335.17V2308.58h320.44ZM1442,2201.77V2095H1548.8v106.82Zm427.25,640.88H1762.43V2735.83h106.81Zm0-320.44H1762.43V2415.39h106.81Zm0-320.44H1762.43V2095h106.81Zm106.81-1068.14v854.51H1014.73V1026.82h961.32Zm213.63,1709H2082.87V2735.83h106.81Zm0-320.44H2082.87V2415.39h106.81Zm0-320.44H2082.87V2095h106.81Zm0-320.45H2082.87V1774.51h106.81Zm0-320.44H2082.87V1454.07h106.81Zm0-320.44H2082.87V1133.63h106.81Zm0-319.85H2082.87V813.78h106.81Zm0-320.44H2082.87V493.34h106.81Zm0-320.44H2082.87V172.9h106.81ZM2403.31,172.9h106.81V279.71H2403.31Zm106.81,2669.75H2403.31V2735.83h106.81Zm106.81-427.26V2629H2296.49V2308.58h320.44ZM2510.12,2095v106.82H2403.31V2095Zm-106.81-213.63V1774.51h106.81v106.81Zm213.62-427.25V1667.7H2296.49V1347.26h320.44Zm-106.81-320.44v106.81H2403.31V1133.63Zm-106.81-213V813.78h106.81V920.59Zm213.62-427.25V707H2296.49V386.52h320.44Zm213.63,2349.31H2723.75V2735.83h106.81Zm0-320.44H2723.75V2415.39h106.81Zm0-320.44H2723.75V2095h106.81Zm0-320.45H2723.75V1774.51h106.81Zm0-320.44H2723.75V1454.07h106.81Zm0-320.44H2723.75V1133.63h106.81Zm0-319.85H2723.75V813.78h106.81Zm0-320.44H2723.75V493.34h106.81Zm0-320.44H2723.75V172.9h106.81Z"/>
</svg>
