<svg xmlns="http://www.w3.org/2000/svg" viewBox="0 0 2994.91 3000">
  <title>143icon 1</title>
  <g>
    <path d="M1289.62,783.27c27.46-4.47,128.29-2.47,151.12,5.21,3-29.26-20.8-58.89-58.84-61.09C1312.69,723.39,1290.8,763,1289.62,783.27Z"/>
    <path d="M660.14,1975.14c37.07-447.26,166.17-962.26,598.45-1182.32C682.68,798.37,131.8,1225.93,27.14,1802.31c76.67,27.73,153.63,54.93,230.53,80.19C389.07,1925.36,524.68,1949,660.14,1975.14Z"/>
    <path d="M1594.37,2035.53s72-2.48,105.56-4.42l6.34-.44c-4.31-362.21,29.61-762.84-189-1073.59-32.61-50.9-72.7-96.48-111-143.34-20.5-4.94-44.59-5-68.38-11.43-467.3,225.19-580.13,705.35-616.42,1183.84,29.56,5.12,88.69,14.52,88.69,14.52C837,1623.41,1655.45,1728.87,1594.37,2035.53Z"/>
    <path d="M1768,2025.54c220.29-27.92,440-73.41,658.3-116.09-62.27-519.26-441.78-972.3-953.79-1089.54q15.15,18.06,30.14,36.37C1782.39,1177.43,1763.23,1625.38,1768,2025.54Z"/>
    <path d="M15.05,1949.07c218.09,152.59,650.39,240.71,1173.13,258s942.28-58.43,1254.1-152.42l-5.81-67.79c-242.88,45.66-484.73,101.63-731.86,122C1136,2139,554.9,2087.79,20.24,1882.72Z"/>
    <path d="M2786.91,1337.08c-150.42,14.87-320.29,52.3-456.3,114.66,98.2,181,147.32,381.3,171,584.82,172.63-80.73,376.1-187.46,459.34-363.78C3027.13,1508.06,2952.5,1334.62,2786.91,1337.08Z"/>
  </g>
</svg>
