<svg xmlns="http://www.w3.org/2000/svg" viewBox="0 0 2994.91 3000">
  <defs>
    <style>
      .a {
        fill-rule: evenodd;
      }
    </style>
  </defs>
  <title>145icon 1</title>
  <path class="a" d="M1492.32,670.71l374.74,142-359.34,384.44-564.52-314,2.57-3.16Zm574.83,218.91v3.17l-452.09,239L1897.72,824Zm-1203.49,19,582.48,320.31L866.22,1546l-836.5-314,2.56-6.34Zm1267.55,9.52,839.07,310.79v3.18l-805.71,307.63c-40.6,8.27-564.08-278.57-597.87-314Zm-630.92,342.52,569.64,307.63-2.56,6.34-556.82,212.49L935.77,1574.58v-6.34Zm920.91,227.86c24.64,24.94,139.8,467.2,128.62,518.5-10.26,8.46-10.14,12.13-27.38,19.1a86.8,86.8,0,0,1-34.2,6.27c-39.33-46.7-121.25-439-120.92-521.68ZM2110.72,1606.3c40.46,51.88,19,515.62-3.28,552.24-114.68,188.21-968.29,235.91-1141.86,66.6-76-74.09-108.77-445.85-73.7-615.67,198.42,75,617.16,224,617.16,224S2058.93,1638.35,2110.72,1606.3Z"/>
</svg>
