<svg xmlns="http://www.w3.org/2000/svg" viewBox="0 0 2994.91 3000">
  <defs>
    <style>
      .a {
        fill-rule: evenodd;
      }
    </style>
  </defs>
  <title>141icon 1</title>
  <path class="a" d="M1743.69,1113.65l-134.6-21.24S1688.46,661.18,1731,430c-304.68,9.27-533.36-25.59-751-123.86C926.63,282,819.7,238.57,810,185.78l2001.38,361c-29.42,12.32-81.59,35.37-219.62,70.77-67.5,11.13-140.46-5.09-194.82-14.16-218.62-36.44-366.65-75.49-527.8-155.7m-47.55-146.23c45.52,7,46,22.13,58.28,54.22q-1.78,3.54-3.54,7.08L1748.78,338v-8.08C1756.72,318.44,1774.32,294.15,1821.57,301.42Zm-419.93,839.83c56-.82,124.67-5.75,170,7.08q-1.79,3.53-3.54,7.08c-274.08,106-483.44,324.36-591.56,598-39.62,100.28-53.47,224.23-77.93,336.18Q850.82,2402.79,803,2716l-276.3-49.54C351.57,2618,174,2548.14,30.78,2461.2,57.13,1905.61,525,1428.09,937.6,1250.94c86-36.89,180.33-63,279.84-84.92l184.2-24.77ZM866.76,2719.53s93-895.48,286.92-1167.78c86.54-121.52,207.07-225.39,329.43-311.42,45.2-34,120.71-75.33,180.45-88.47,88,30.74,138.43,120.57,191.49,180.47,185,234.22,223.15,616.92,223.16,1036.86-2.36,140.36-7.09,421.11-7.09,421.11C1868.31,2843.06,1056.08,2803.7,866.76,2719.53Zm1268.13,56.62c8-458.16,23.21-951.56-109.81-1284.57-43.31-108.41-113-184.12-192.13-256.11-23.48-21.34-50.77-43.77-77.08-65.92,97.63,13.29,188.53,51.81,269.21,84.94,392.81,161.29,648,416.55,814.72,803.29,56.47,131,143.36,380.45,127.52,559.13,0,0-87.86,20.35-375.39,82.24C2323.47,2756.92,2134.89,2776.15,2134.89,2776.15Z"/>
</svg>
