<svg xmlns="http://www.w3.org/2000/svg" viewBox="0 0 2994.91 3000">
  <defs>
    <style>
      .a {
        fill-rule: evenodd;
      }
    </style>
  </defs>
  <title>147icon 1</title>
  <path class="a" d="M1655.73,526.19,2980.08,961.35l-2.66,4.88h-606l-147.72-68.56,121.15,90s-39.76,330.11-60.11,499q41.13,187.07,82.28,374.14l-2.65,2.66c-470.22,2.09-965.92,9.24-1374.79-66.34L687,1754.74l-127.6-21.23v-2.65c49.74-153.89,148.83-461.71,148.83-461.71l321.13,34.5-191.25-64.87ZM538.38,1690.84h7.82q2.65,2.64,5.31,5.31-37.15,111.46-74.33,222.95c.88,2.66,1.77,5.31,2.65,8q176.54,30.54,353.09,61l366.37,50.44q172.53,13.26,345.11,26.54h507l373.77-10.61-37.11-209.36h2.84c128.75,36.66,281,107.85,355.63,202.15,46.24,58.41,75.25,119.84,18.59,194.18-106.35,139.51-394.64,172.43-607.78,210.14l-228.24,18.62-185.78,2.66c-112.6,0-228.1,5.62-329.1-10.64L1093.07,2433c-271.65-50.47-526.17-93.27-748.44-186.2C247.24,2206.05-33.31,2081,28.81,1927.58c50.52-124.78,237-174.51,376.87-210.14Z"/>
</svg>
