<svg xmlns="http://www.w3.org/2000/svg" viewBox="0 0 2994.91 3000">
  <defs>
    <style>
      .a {
        fill-rule: evenodd;
      }
    </style>
  </defs>
  <title>77icon 1</title>
  <path class="a" d="M2811.49,207.93c-309.22-309.23-654-99.52-654-99.52L135.11,2130.8s-241.69,369.64,71.09,682.42c284.34,284.34,682.42,71.08,682.42,71.08L2911,861.92S3056.73,453.17,2811.49,207.93ZM2696,774.84a62.83,62.83,0,1,1-88.85,0A62.82,62.82,0,0,1,2696,774.84ZM2472.05,998.76a62.83,62.83,0,1,1-88.85,0A62.82,62.82,0,0,1,2472.05,998.76Zm-231,223.92a62.83,62.83,0,1,1-88.86,0A62.84,62.84,0,0,1,2241,1222.68Zm302.11-607.79a62.83,62.83,0,1,1-88.86,0A62.83,62.83,0,0,1,2543.14,614.89ZM2319.22,838.81a62.83,62.83,0,1,1-88.86,0A62.83,62.83,0,0,1,2319.22,838.81Zm-231,223.92a62.83,62.83,0,1,1-88.86,0A62.83,62.83,0,0,1,2088.19,1062.73Zm305.67-597.12a62.83,62.83,0,1,1-88.86,0A62.83,62.83,0,0,1,2393.86,465.61ZM2169.94,689.53a62.83,62.83,0,1,1-88.86,0A62.83,62.83,0,0,1,2169.94,689.53Zm-231,223.92a62.83,62.83,0,1,1-88.86,0A62.83,62.83,0,0,1,1938.91,913.45ZM2241,312.78a62.83,62.83,0,1,1-88.86,0A62.85,62.85,0,0,1,2241,312.78ZM2017.11,536.7a62.83,62.83,0,1,1-88.86,0A62.85,62.85,0,0,1,2017.11,536.7Zm-231,223.92a62.83,62.83,0,1,1-88.86,0A62.85,62.85,0,0,1,1786.08,760.62ZM314.6,2232.09a62.83,62.83,0,1,1,88.86,0A62.83,62.83,0,0,1,314.6,2232.09Zm231-223.92a62.83,62.83,0,1,1,88.86,0A62.82,62.82,0,0,1,545.63,2008.17Zm223.92-223.92a62.83,62.83,0,1,1,88.86,0A62.82,62.82,0,0,1,769.55,1784.25ZM467.44,2384.93a62.83,62.83,0,1,1,88.85,0A62.83,62.83,0,0,1,467.44,2384.93Zm231-223.92a62.83,62.83,0,1,1,88.86,0A62.85,62.85,0,0,1,698.46,2161Zm223.92-223.92a62.83,62.83,0,1,1,88.86,0A62.85,62.85,0,0,1,922.38,1937.09ZM616.72,2534.21a62.83,62.83,0,1,1,88.85,0A62.83,62.83,0,0,1,616.72,2534.21Zm231-223.92a62.83,62.83,0,1,1,88.86,0A62.85,62.85,0,0,1,847.74,2310.29Zm223.92-223.92a62.83,62.83,0,1,1,88.86,0A62.85,62.85,0,0,1,1071.66,2086.37ZM769.55,2694.15a62.83,62.83,0,1,1,88.86,0A62.83,62.83,0,0,1,769.55,2694.15Zm231-223.92a62.83,62.83,0,1,1,88.86,0A62.83,62.83,0,0,1,1000.58,2470.23Zm223.92-223.92a62.83,62.83,0,1,1,88.86,0A62.83,62.83,0,0,1,1224.5,2246.31Zm271.9-168.83L920.61,1501.69l575.79-575.8,575.8,575.8Z"/>
</svg>
