<svg xmlns="http://www.w3.org/2000/svg" viewBox="0 0 2994.91 3000">
  <defs>
    <style>
      .a {
        fill-rule: evenodd;
      }
    </style>
  </defs>
  <title>33icon 1</title>
  <path class="a" d="M2927.81,44.72s-762,163.21-1430.36,173.85C829.15,207.93,67.1,44.72,67.1,44.72c-82.6,550,71.69,1232.44,213.33,1683.48,81.41,259.19,165.05,514.56,309.5,712.29,84.21,115.26,203.3,190.67,329.15,265.26,74.52,44.17,475.68,233.57,564.42,254.71l14,3.42,14-3.42c88.74-21.14,489.91-210.54,564.43-254.71,125.85-74.59,244.94-150,329.15-265.26,144.44-197.73,228.09-453.1,309.5-712.29C2856.12,1277.16,3010.41,594.74,2927.81,44.72ZM839.88,1171.62,655.1,986.83,470.31,1171.61,318.14,1019.44,502.92,834.65,318.14,649.87,470.31,497.7,655.09,682.48,839.88,497.7,992.05,649.87,807.27,834.66l184.79,184.79Zm650.75,1511.21-140.14-249.47,138.43-249.46,155.49,249.46ZM2658,1019.45l-152.17,152.17L2321,986.83l-184.78,184.78-152.18-152.17,184.79-184.79L1984.08,649.87,2136.25,497.7,2321,682.48,2505.82,497.7,2658,649.87,2473.21,834.66Z"/>
</svg>
