<svg xmlns="http://www.w3.org/2000/svg" viewBox="0 0 2994.91 3000">
  <defs>
    <style>
      .a {
        fill-rule: evenodd;
      }
    </style>
  </defs>
  <title>37icon 1</title>
  <path class="a" d="M2927.81,44.72s-762,163.21-1430.36,173.85C829.15,207.93,67.1,44.72,67.1,44.72c-82.6,550,71.69,1232.44,213.33,1683.48,81.41,259.19,165.05,514.56,309.5,712.29,84.21,115.26,203.3,190.67,329.15,265.26,74.52,44.17,475.68,233.57,564.42,254.71l14,3.42,14-3.42c88.74-21.14,489.91-210.54,564.43-254.71,125.85-74.59,244.94-150,329.15-265.26,144.44-197.73,228.09-453.1,309.5-712.29C2856.12,1277.16,3010.41,594.74,2927.81,44.72ZM760.72,1712.09,635,1704.72l-105.09-163,92.77-210.6L701.27,1012l80.43,323,90.93,219ZM701.27,894.71,273.25,600l428,128.15,428-87.14Zm796.18,1589.91-553.6,121.32,554.08-376.32,553.12,375.1Zm862.47-779.9-125.74,7.37L2122.27,1554l90.94-219,80.43-323,78.59,319.09,92.78,210.6Zm-66.28-810L1865.62,641l428,87.14,428-128.15Z"/>
</svg>
