<svg xmlns="http://www.w3.org/2000/svg" viewBox="0 0 2994.91 3000">
  <defs>
    <style>
      .a {
        fill-rule: evenodd;
      }
    </style>
  </defs>
  <title>39icon 1</title>
  <path class="a" d="M2927.81,44.72s-762,163.21-1430.36,173.85C829.15,207.93,67.1,44.72,67.1,44.72c-82.6,550,71.69,1232.44,213.33,1683.48,81.41,259.19,165.05,514.56,309.5,712.29,84.21,115.26,203.3,190.67,329.15,265.26,74.52,44.17,475.68,233.57,564.42,254.71l14,3.42,14-3.42c88.74-21.14,489.91-210.54,564.43-254.71,125.85-74.59,244.94-150,329.15-265.26,144.44-197.73,228.09-453.1,309.5-712.29C2856.12,1277.16,3010.41,594.74,2927.81,44.72ZM308.67,888.36l428.86-355,428.85,333L737.53,745.59ZM1497.45,2788.42,655.51,2127.51l841.94,363.94,842-384.44Zm842-2042.83L1910.55,866.38l428.85-333,428.86,355Z"/>
</svg>
