<svg xmlns="http://www.w3.org/2000/svg" viewBox="0 0 2994.91 3000">
  <defs>
    <style>
      .a {
        fill-rule: evenodd;
      }
    </style>
  </defs>
  <title>155icon 1</title>
  <path class="a" d="M1036.13,318.56c58.24-.71,141.19,51.76,126.15,113.25-12.43,50.8-42.49,94.72-28.81,160.93,99.06,316.11,570.73,82.52,340.69-172.85-20.42-92.95,134.95-107.63,136.09-12.91C1364.6,835,2023.36,1126.13,2210.19,700c27.66-66,8.39-141.62,57.6-189.73,202-154,355.44,131.58,164.88,222.51-74.81,7.59-112.16,14.56-176.79,68.56-394.77,249.78-367.63,941.78,124.18,1141.39,59.44,19.73,125.22,44.78,189.69,52.65,102.4,26.47,198.65-30,291,15.89,268.78,148.64,3.21,511.3-249.32,316.88-36.32-29.33-60.27-83.37-61.57-132.11-173.27-339.83-713.91-214.25-723.11,153h-2c-78.11-344-553.23-416.16-745-118.2-48.77,89-81.67,217.51-46.69,268.2,37.6,127.17-117,230.5-233.42,158.95-67.06-46.39-105.2-145.33-32.78-212.59,100.13-82.31,106.67-22,183.75-106.31,264.61-225.29,206.81-741.81-154-887.07-145.08-54.84-305.59-69.94-447.95,8.92-48.48,35.78-69.39,58.72-138.06,69.55C93.52,1549-20.37,1404.93,46.83,1300c185.56-232,311,65.45,547.29,76.48,212.85,15,360.47-69.69,469.82-202.64,130.72-154.41,138.54-484.84-18.87-630.8C888.11,525,887.57,335.76,1036.13,318.56Z"/>
</svg>
