<svg xmlns="http://www.w3.org/2000/svg" viewBox="0 0 2994.91 3000">
  <defs>
    <style>
      .a {
        fill-rule: evenodd;
      }
    </style>
  </defs>
  <title>93icon 1</title>
  <path class="a" d="M761.35,59.44l386.54,190.21Q1124,299.29,1100,348.94L876.24,238.88l220.2,654.36c555.33-158.85,1081.65,334.63,952.6,898.4-42.74,186.74-138.59,299.3-250.12,415.1l374.58,375.64c4.79-1.6,25-22.44,211.82-208.15l71.81,70.57c-177.13,173-187.43,187-209.43,211.75l208.23,209.34-73,71.78-207-208.15c-4.79,1.59-40.64,36.7-210.63,209.35-4.79-1.6,19.54,23.12-73-74.18l209.43-208.14L1716.35,2269c-85,31-157.92,82.14-262.09,105.28-373.57,82.95-676.63-142.08-805.4-355.3-254-420.48-17.64-960.35,350.64-1091L778.1,271.18,666.81,494.89l-99.33-49.05Zm544.51,918.74c-60.41,14.37-119.62,8.25-171.12,22.73-190,53.4-318,169.41-405.7,325.38-46.59,82.9-85.82,209.38-70.61,340.94,41.57,359.57,254.63,565.63,615.12,606.5,128.15,14.54,242.32-30.47,321.93-70.57C2168.11,1914.73,2016.49,987.53,1305.86,978.18Z"/>
</svg>
