<svg xmlns="http://www.w3.org/2000/svg" viewBox="0 0 2994.91 3000">
  <title>23icon 1</title>
  <g>
    <path d="M850,2389.21c12,196.06-188.8,372-381.21,308.95-173-49.48-262-256.61-197.69-420.69C34.2,2225.62-49.37,1914.22,116,1742.19c-71-132-41.49-310.49,77.29-405.31-123-242.05,101.58-545.15,369.51-445C438.28,569.5,817.86,285,1064.23,554.19,1169,50.35,1836.17,92.74,1888.52,600.36c95.75-137.16,284.63-167.83,418.39-67.64,192.42,55.33,267.12,299,172.78,466,285.89-11.93,421.9,343.9,230.13,543.68,312.49,50.84,355.95,497.15,64.1,612.48,153.89,184.72,62.19,493.79-187,527.47-173.56,25.94-332-125.37-336.49-296.41,292.57-57.8,243.6-500.25-58.56-481.07-63.57-72.91-84.83-198.2-55.08-292.93-117.19-27-208.11-123.53-234.11-240.21-173.14,55.9-356.41-73.89-382.93-249.07-17.66,164.45-162.06,307.39-335.43,285-32.93,119.8-134.86,213.14-258.83,229.11,15,96.87-13,200.66-80.51,272.81C501.36,1887.51,507.63,2420,850,2389.21Z"/>
    <path d="M1507.32,2802.26c-84.72-.85-184-23.24-256.34-73.62-48-30.59-93.88-64.24-139.17-98.68-79.08-47.31-139.45-138.19-76-224,50.86-75.48,169-73.57,219.28,1.64,32.16,44.14,66.75,90.19,116.53,115.5,72.32,34,156.43,37.26,234.53,26.4,143.38-23.37,153.78-161.35,265.11-182.55,128.64-26.9,220.14,159.53,98.87,243.24C1828.73,2706.76,1689.05,2810.81,1507.32,2802.26Zm24.46-110.35c146.27-.1,283.36-76,379.06-183.95,8-7.71,8.46-21.29-.39-28.2-20.86-19.91-67.84,51-88.5,62.64a470.85,470.85,0,0,1-110.48,72.38c-205.67,92.77-422.94,20.06-569.3-141.94-13.74-22.44-49.4-9-34.08,16.64,33.6,36.3,71.18,68.8,109.82,99.68C1306.93,2659.89,1418.44,2690.45,1531.78,2691.91Z"/>
    <path d="M1257.26,2107.66c2.35-150.58,124-257.18,257.68-256.72,141.88.48,257.78,113.59,258,256.32.2,150.2-121.21,260.33-258.73,259.12C1365,2365.07,1257.17,2244.42,1257.26,2107.66Z"/>
    <path d="M1032.63,1923c-.15-32,26.24-58.78,58.18-58.93,26.23-.11,58.14,19.54,58.66,58.32.42,31.23-23.29,58.75-58,58.75C1053.27,1981.17,1032.78,1950.5,1032.63,1923Z"/>
    <path d="M1971.68,1891.87c26.73-1.17,58.15,20.52,58.64,58,.37,29-22.18,58.3-58.28,58.6-31.23.27-58.56-23.61-58.56-58.25C1913.47,1910.68,1946.8,1890.52,1971.68,1891.87Z"/>
  </g>
</svg>
