<svg xmlns="http://www.w3.org/2000/svg" viewBox="0 0 2994.91 3000">
  <title>25icon 1</title>
  <path d="M1489.43,2979.21c-133.32-1.56-267.07,5.24-400-8-92.11-6.63-188.62-33-254.47-101C587.93,2564.08,394.33,2207.91,280.09,1831c-48.84-161.46-61-330-71.72-497.44-13.48-273.67-15.13-548.75,4.39-822.16C221.12,413,228.49,62.45,236.47,47c3.37-6.5,5.89-7.68,13.27-5,164.33,51.44,782.55,224.2,1240.54,224.2,395.28,0,1213.76-245.21,1220.61-245.89,11.56-1.5,17.32,10.23,20.6,19.67,19.3,53.07,75.75,751.15,69.92,992.43-1.86,225.14-18.15,450.66-57.72,672.47-90.66,430.73-364.18,795.69-626.16,1139.23-42.09,50.88-117.26,80.46-176.91,106.6a280.59,280.59,0,0,1-77.91,16.79c-124.2,9.68-248.81,9-373.27,12.16Zm306.9-2110.76-.46,109.44,611.65-22.67s-2.11-371-2.65-559.64m-1240,498.84L542.23,395.76l2.57,573.39,611.56,11.68Zm242.17,1032.69c-.22,186.68-6.88,373.68-2.37,560.19,70.45,2,139.08,5.53,209.57,4.38,1-188,8-377.09,2.36-564.57Zm-165.15,559.08c-.08-184.19-.12-371.08-7.41-554.36-64.07-2.48-130.06-3.71-194.11-1.49-5.5,184.38-6.87,369.7-8.11,554.24C1101.11,2487.29,1173.68,2491.42,1241.92,2486.19Zm732.41,9.8c1-191.2,5.41-382.45,1.94-573.47-65.11-.28-131.15-4.53-195.79,2-1.41,190.38-.42,381.21,3.83,571.46C1847.47,2497.13,1910,2497,1974.33,2496Zm-353.76-826.14L1535,1274.52l-76.37.57-84.31,396.42"/>
</svg>
