<svg xmlns="http://www.w3.org/2000/svg" viewBox="0 0 2994.91 3000">
  <defs>
    <style>
      .a {
        fill-rule: evenodd;
      }
    </style>
  </defs>
  <title>163Icon_neon 1</title>
  <g>
    <path class="a" d="M2805.21,995.92c-99.44-131.46-234.41-225.58-387.36-303.8-247.94-126.82-556.69-203.59-932.67-200.19L1304.07,502c-117.08,18.24-223.69,27.76-327,56.33C608,660.42,298.56,815.71,123.89,1111.61,47.11,1241.68,2.63,1444.38,65.53,1624.66c25.7,73.65,62.64,141.93,105.65,199.18,185.79,247.36,477.33,383.5,825,469.79,89.55,22.22,181.62,26.93,279.7,42.26q74.47,4,148.91,8c33.42,5.05,103.88,2.52,134.82-2l54.33-2,171-16.09,120.73-21.13,161,71.43c101.56,42.21,203.51,76.58,322,104.63l128.79,25.14c18.51,4,42.66,9.19,52.32-5,12-17.65-25.17-70.09-34.22-85.5-29.65-50.53-64.31-102.47-87.53-157.94q-14.6-41.26-29.18-82.5-5.52-19.11-11.07-38.23l59.37-32.18,105.64-66.4c148.21-105.22,274.58-235.65,346.1-417.48,14.16-36,21.8-76.18,30.19-117.7C2992,1288.57,2890.65,1108.84,2805.21,995.92ZM2505.39,2454.58c-78.57-17.77-157-29-230.41-51.3-65.21-19.79-126.23-46.45-186.13-71.42l-104.64-44.27-2-1c93.68-14,197.67-54,277.7-86.51,34.87-14.17,75.78-24,104.64-45.26l36.21,106.63C2429.91,2329.59,2469.47,2392,2505.39,2454.58Zm360.2-979.82c-6.19,31.77-10.12,64-20.13,92.55-117.2,334.25-455.52,512-804.9,616.67-78.8,23.61-161.44,33.54-247.51,50.3-47.82,9.31-101.91,8.78-152.93,17.1l-63.38,3c-35.43,5.74-113.36,7.94-150.92,2l-86.53-4-60.37-3c-51.54-8.53-103-8.45-151.92-19.1-63.65-13.87-128.66-22.17-189.16-39.24-228.06-64.32-396.06-148.31-560.41-274.63-65.83-50.59-127.07-122.11-171-194.16A640.71,640.71,0,0,1,140,1573.35C95.46,1424.6,136.72,1273.6,191.3,1169,323.2,916,609.2,758.54,904.64,668c113.77-34.87,231.16-53,361.2-75.45l160-12.07,57.34-2h0c365.23.11,694.29,71.45,925.64,206.23,116.27,67.73,224.62,135.24,305.86,237.41,57.24,72,107.8,144.81,137.85,245.45,7.23,24.22,8,48.6,13.08,75.46C2872.82,1381.46,2873.18,1435.72,2865.59,1474.76Z"/>
    <path class="a" d="M944.76,696.52l-20.12,3c-18.79,5.67-35,20.75-44.27,36.21-11.63,19.44-7.07,53.87-7,82.49q1.5,91.05,3,182.08c6.37,281.71,19.11,846,19.11,846H997.08q11.07-452.22,22.14-904.37.49-41.25,1-82.49.49-20.13,1-40.24C1032.43,747.79,1008.49,699.87,944.76,696.52Z"/>
    <path class="a" d="M1478.77,696.14c-65.08,7.49-83,60.85-71.43,137.82q.5,23.14,1,46.27.51,41.76,1,83.5c6.71,293.78,13.24,590,20,883.71H1532c7-290.09,13.22-581.61,20.26-871.64q1.51-79,3-157.94c2.78-17.92,4.06-51.19-1-67.4C1545.78,723.38,1517.49,691.68,1478.77,696.14Z"/>
    <path class="a" d="M2016,697.14c-61.37,8.82-71.78,44-71.44,112.68q1,37.21,2,74.44.5,41.25,1,82.49,10,440.16,19.94,880l101.79.19q10.56-435.13,21.13-870.17,1.52-75.46,3-150.9c0-23.37,5.55-53.68-1-74.44C2084.2,725.16,2054.75,691.58,2016,697.14Z"/>
    <rect x="884.14" y="1910.36" width="126.77" height="128.76"/>
    <rect x="1418.4" y="1909.35" width="127.83" height="129.77"/>
    <polygon class="a" points="1952.65 2038.12 2083.52 2040.17 2083.52 1911.36 1952.65 1911.36 1952.65 2038.12"/>
  </g>
</svg>
