<svg xmlns="http://www.w3.org/2000/svg" viewBox="0 0 2994.91 3000">
  <defs>
    <style>
      .a {
        fill-rule: evenodd;
      }
    </style>
  </defs>
  <title>101icon 1</title>
  <path class="a" d="M2478.73,22.76q1.67,160,3.35,320c-3.88,334-27.75,642-159.22,868l-221.21,305c236.64,175,260,640.86,155.85,993.61q-279.84,115.62-559.75,231.23-3.33-77.91-6.7-155.82l-333.5,154.15c-59.28-82.18-39.91-200.86,6.7-276.47-337.5-54.64-690.06-372.35-419-727.2,119.75-156.76,305.45-267.47,534.61-305,58.75-9.61,118.43-12.29,177.64-18.44L1441.35,1323c-407.23-177.86-839.24-503.42-905-1007L517.92,118.27C784.79,255.67,1042.48,430.35,1262,617.6c167.73,143,286.21,344.43,419,522.77q100.54,127.35,201.11,254.69h3.35q11.74-265.55,23.47-531.16C1991.79,439.44,2253.38,291.63,2478.73,22.76ZM1314,1678.67c-140.64,7.32-136.43,219.61,3.36,214.47C1459.19,1887.92,1445.22,1671.84,1314,1678.67Zm943.62,896.43q4.2,46.08,8.39,92.16c-186,70.92-559.76,211.12-559.76,211.12v-83.77Zm-625.12,82.11q1.68,160,3.36,320s-186-81-278.2-122.32l-268.14,122.32V2658.89l268.14,122.31Z"/>
</svg>
