<svg xmlns="http://www.w3.org/2000/svg" viewBox="0 0 2994.91 3000">
  <defs>
    <style>
      .a {
        fill-rule: evenodd;
      }
    </style>
  </defs>
  <title>99icon 1</title>
  <path class="a" d="M2043,575.72l354.1,344.6L2740,575.72l4.78,1.59Q2856.44,689,2968.09,800.67l-1.59,4.78-342.94,349.4,344.53,343-1.59,4.8L2743.19,1726l-4.79-1.6-349.31-343L2046.16,1726l-4.79-1.6-221.72-228.14,342.94-349.39q-173.06-172.27-346.12-344.6ZM1155.65,924.84,1505,1271l347.72-346.2h1.59l224.91,226.54c-.54,1.61-1.06,3.2-1.6,4.8l-342.94,344.6q173.05,173.87,346.13,347.79v1.6l-228.09,224.94-350.9-344.6-347.73,344.6Q1042.42,1961,930.74,1847,1103,1673.9,1275.27,1500.78l-344.53-351Zm27.84,1271.32v1.59Q1070.24,2311,957,2424.28H955.4L607.69,2078.1,260,2424.28H258.4L31.91,2196.16,378,1848.38,31.91,1499q113.22-113.25,226.49-226.53l354.08,344.59L955.4,1272.47H957L1183.49,1499v1.6c-115.37,115.91-233.4,234.51-348.77,350.45Z"/>
</svg>
