<svg xmlns="http://www.w3.org/2000/svg" viewBox="0 0 2994.91 3000">
  <title>65icon 1</title>
  <g>
    <path d="M1434.05,1280.64s8.12-88.82,50.55-138.8c36.89-43.44,77.06-69.67,106.84-75.41,35.53-6.85,38.12-31.83,35-45.91-3.36-15-25.41-35.24-54.65-28.41-43,10-106.7,81.32-131.15,118-64.21,96.45-50.28,170.49-50.28,170.49Z"/>
    <path d="M731.29,797.57s-36.06,295.09,247.55,386.9c94.38,30.54,396.74-6.56,396.74-6.56s-18-232.8-114.76-306.57C1080.42,733.74,731.29,797.57,731.29,797.57Z"/>
    <path d="M2854.86,2029.18c11-32.11,99.87-92,99.87-92-283.31,42.56-174.58,41.66-216.37,268.32-36.37,62-164.28,147.58-233,168.65-57.72,17.69-182.07-19-241.35-7.66-32,6.15-84.95,27.34-138.45,51.34,9.23-16.35,17.41-31.64,24-44.85,87.3-41.73,176.79-175.72,88.72-248.8,7.68-30.5,10.83-51.78,15.53-84.63C2613.32,1908,2300.1,1507,2006.42,1669.32c-96.25-6.14-158.24-119.55-111.5-204.26-66.49-34.9-92.07-132.55-49.08-196.15a140.51,140.51,0,0,1-21.13-32.27c-145.27-23.56-278.84,58.14-415.55,82.26-99.84-16.8-219.37-74.3-321.33-85.25-174.24-13.48-366.52,64.83-452.86,222.66-304.6-271.68-241.18-535.9-165.19-753.83l415.09,60.19L750.12,589.36l462,9.14c-182.33-302-534.13-531.75-906-333.8C140.76,388.79,21,635.55,17.21,841.83,14.53,1351.11,251.93,1551.17,546.63,1815c.63,26.77,1.91,54.38,3.71,81.77-158.46,52.52-200.41,267.42-76.73,405.75,56.26,65.86,172.35,50,184.78,48.14,6.93,15.64,12.69,27.21,21.46,43.64-29,34-46.38,79.33-47.77,124.62-1.61,52.46,103.83,123.5,145.36,150.83,75.28,49.53,205.89,70.62,205.9,70.62,45,25.49,109.14,55.45,147.12,63.81,32,7.05,98.64,4.26,131.15,0,37.86-5,109.37-39.35,147.55-39.35s109.69,34.39,147.54,39.35c170.4,29.32,321.61-74.27,437.23-195.49,91-20.39,212.93-46,270-50.56,49.81-4,120.09,17.62,218.45-10.79,155-50.14,333.21-170.62,405.74-318.85C2904.55,2180.72,2838.47,2077,2854.86,2029.18ZM635.46,2294.64c-.44-1.12-.94-2.43-1.48-3.87.52,1.37,1,2.74,1.57,4.1A2.18,2.18,0,0,1,635.46,2294.64Zm263.68,385c1.92,1.66,3.84,3.33,5.75,5C903.15,2683.13,901.35,2681.55,899.14,2679.6Z"/>
  </g>
</svg>
