<svg xmlns="http://www.w3.org/2000/svg" viewBox="0 0 2994.91 3000">
  <defs>
    <style>
      .a {
        fill-rule: evenodd;
      }
    </style>
  </defs>
  <title>107icon 1</title>
  <path class="a" d="M931,136.82c126.06-1.75,259.28,27.89,349.56,78.39,35.08,14.48,169.88,114.32,206.12,153.06,11.85,17.71,12.53,14.45,22.63,2.43,4.51-19.76,177.63-155,295.58-190.19,615.18-217.4,1136,405.82,1012.68,1031.88-76.64,389.12-316.6,552.12-528.18,799.3q-393.87,426-787.79,852l-3.86-1.28-852-920.09c-134.85-157.49-297.49-278.72-388.11-481.89C41,974.78,223.38,445.27,576.31,240.91,683.85,178.63,805,138.57,931,136.82Z"/>
</svg>
