<svg xmlns="http://www.w3.org/2000/svg" viewBox="0 0 2994.91 3000">
  <defs>
    <style>
      .a {
        fill-rule: evenodd;
      }
    </style>
  </defs>
  <title>97icon 1</title>
  <path class="a" d="M1453.3,568.6C1662.15,565,1814.39,615,1947,687.4l121.41,82.76c4,4,4.22,1.5,12,12-10.9-.78-93.62-36.43-144.1-10.68-155.16,79.13,158.76,408.1,201.47,445.84,28.66,25.34,90,87,150.76,65.41,64.81-23,39.65-104.77,46.69-172.19q19.35,49.37,38.7,98.77c61.55,189.29,52.89,445.37-14.68,622.05C2187.77,2279.77,1594,2624.13,1038.37,2310.6,639.72,2085.66,394.71,1510,702.15,1006.44c120.1-196.73,313.9-339.83,560.36-409.81C1319.45,579.42,1384.81,573.34,1453.3,568.6Zm41.36,34.7C1367.43,610,1091,642.87,1182.46,787.51c84.17,145.15,610.17,136.75,671.1-20C1904.36,636.8,1617.14,601.81,1494.66,603.3Zm-467,217.59c-68.48,19.34-115.52,35.75-164.1,72.08-72,53.87-291.05,318.11-121.41,419.15,172,102.45,379.68-170.71,413.59-285.66C1189.85,911,1149,818.88,1027.69,820.89ZM1508,1038.47c-143.27,34.9-233.68,81-281.52,208.24-82.38,219.15,96.54,465,320.21,439.17,417.46-48.12,402.1-651.87-38.69-647.41Zm-1477,242,509.66,1.33c-44.12,141.58-30.34,367.37,16,493.91l-2.67,2.67h-523l-1.33-1.34Q30.38,1528.82,31.05,1280.51Zm2414.89-.13h523l1.34,1.35q-1.34,248.26-2.66,496.56l-539-1.33-1.2-1.7c30-86,52.8-212.54,39.89-329.35Q2456.63,1363.16,2445.94,1280.38ZM264.53,1376.19c-200.18,57.16-142.67,323.9,42.7,292.34C481.28,1638.9,472.35,1371.6,264.53,1376.19Zm2429.57,6.68c-33.49,12.11-63.18,20-85.38,42.72-90.31,92.27-16.55,276.79,132.08,249.62,173-31.63,162.09-297-46.69-292.34Zm-465.62,41.38c-168.36,45-247.72,194-282.86,369.76-19.75,98.84-15.76,246,65.38,272.31,145.51,47.3,301.25-292.82,325.54-405.79,24.92-115.9,1.44-226.37-108.06-236.28ZM856.92,1479c-39.57,8.75-67.61,9.57-96.06,26.7-228.36,137.5,29.4,640.8,274.84,568.66C1298,1997.25,1148.69,1484,856.92,1479ZM1508,1975.56c-104.32,24.5-374.69,48-308.21,198.89,76.26,173.09,599.88,164.73,692.45,9.35,94.14-158-242.61-209.78-384.24-208.24Z"/>
</svg>
