<svg xmlns="http://www.w3.org/2000/svg" viewBox="0 0 2994.91 3000">
  <defs>
    <style>
      .a {
        fill-rule: evenodd;
      }
    </style>
  </defs>
  <title>109icon 1</title>
  <g>
    <path class="a" d="M1462.62,555.9c326.39-3.61,651.12,47.36,841.56,181.55,72.07,50.78,165.55,138.76,110.21,264.19-48.06,108.92-192.33,168.9-310.58,210.34-365.17,128-922.43,106.92-1266.11-21.29-100.15-37.35-195.84-91-246.71-177.79-52.66-89.82-2.07-191,56.36-237.89C806.26,647.65,977,616,1219.66,572.18l167.82-13.77ZM1467.8,621l-73.89,2.51-164.06,13.77c-181.47,32.77-346.64,61.1-477.13,141.48-50.58,31.15-158.56,109.9-105.2,200.33,51.15,86.66,158.38,133.43,261.74,167.77,314.43,104.5,810.11,116.65,1138.38,13.78,112.27-35.19,273.9-93,311.83-197.83,35-96.87-79-164.31-134-196.57-184.15-108-467.79-144.84-757.67-145.24ZM2656,1017c43.52,5.25,95.09,53.81,122.73,79.66,90.73,84.9,159.31,191.56,189.1,341.24,22,110.8,6.24,263.81-47.59,321.31-94.51,101-225.06-21.9-264.24-98.25q-17.53-48.47-35.06-96.93c7,46.26,22.59,96.71,41.33,134.1Q2671,1712,2679.77,1726c8.85,29.57-2.22,137-8.77,160.66-28.62,103.19-77.18,218.17-234.75,193.88-30.54-4.86-45.65-14.58-60.81-27.92-28.94-25.46-43.79-64.6-56.35-107.54q-5.64-23.23-11.27-46.47c2.51,54.9,19.24,113.8,42.57,148.7-6.16,99.94-81.35,212-150.27,248.29-47.56,25-123.84,16.52-159-14.6-29.44-26-40-61.35-47.58-111.54q-1.26-29.2-2.51-58.42c-.33,33.41-2.85,69.4-2.5,104.9l-48.85,46.47c-31.55,29.07-67.6,59.4-106.44,79.66-23.66,12.33-81.79-3.18-91.42,1.32,0,0-52.37,13.64-53.86,14.61-24,15.7-95.17,86.31-95.17,86.31s73.64-202.72,131.49-277.5c57.67-74.53,133.81-131.22,202.88-193.85,136.83-124,285.58-239.21,409.51-377.07,61.51-68.42,108.18-149.72,154-235,58.76-109.3,116.4-224.09,165.31-343.89Z"/>
    <path class="a" d="M344,1017c48.91,119.8,106.55,234.59,165.31,343.89,45.86,85.29,92.53,166.59,154,235,123.93,137.86,272.68,253,409.51,377.07,69.07,62.63,145.21,119.32,202.88,193.85,57.85,74.78,131.49,277.5,131.49,277.5s-71.17-70.61-95.17-86.31c-1.49-1-53.86-14.61-53.86-14.61-9.63-4.5-67.76,11-91.42-1.32-38.84-20.26-74.89-50.59-106.44-79.66l-48.85-46.47c.35-35.5-2.17-71.49-2.5-104.9q-1.26,29.22-2.51,58.42c-7.55,50.19-18.14,85.5-47.58,111.54-35.21,31.12-111.49,39.62-159,14.6-68.92-36.25-144.11-148.35-150.27-248.29,23.33-34.9,40.06-93.8,42.57-148.7q-5.62,23.24-11.27,46.47c-12.56,42.94-27.41,82.08-56.35,107.54-15.16,13.34-30.27,23.06-60.81,27.92C406.18,2104.8,357.62,1989.82,329,1886.63c-6.55-23.66-17.62-131.09-8.77-160.66q8.77-13.93,17.53-27.88c18.74-37.39,34.33-87.84,41.33-134.1q-17.52,48.46-35.06,96.93c-39.18,76.35-169.73,199.21-264.24,98.25C26,1701.67,10.15,1548.66,32.2,1437.86c29.79-149.68,98.37-256.34,189.1-341.24,27.64-25.85,79.21-74.41,122.73-79.66Z"/>
  </g>
</svg>
