<svg xmlns="http://www.w3.org/2000/svg" viewBox="0 0 2994.91 3000">
  <defs>
    <style>
      .a {
        fill-rule: evenodd;
      }
    </style>
  </defs>
  <title>57icon 1</title>
  <g>
    <path class="a" d="M2246.48,2183.66s-301.5,55.15-402.83,67.93c-85.78,10.82-258.17,29-344.63,29s-259.06-18.17-344.62-29c-101.33-12.78-402.83-67.93-402.83-67.93l-52.69,141.6s147.53,64.57,192.79,93.15c52.8,33.34,150.68,112.15,194.8,156.34,53.73,53.81,154.62,168.34,198.79,230.25,25.2,35.32,90.9,147.84,90.9,147.84,23.48,13.22,91.83,20,122.86,20s99.4-6.76,122.87-20c0,0,65.7-112.52,90.9-147.84,44.17-61.91,145.06-176.44,198.79-230.26,44.12-44.19,142-123,194.79-156.33,45.27-28.58,192.8-93.16,192.8-93.16Z"/>
    <path class="a" d="M908.66,1260.64c57.22,27.11,199.7,35,262.49,26.88,75-9.74,262.95-74.82,262.95-74.82s7.87-3.5,29.22-9.25c8.87-2.38,35.71-3.74,35.71-3.74v0c1.28.07,27,1.42,35.65,3.74,21.35,5.75,29.22,9.24,29.22,9.24s188,65.09,262.95,74.83c62.79,8.15,205.27.23,262.5-26.88,75.92-36,132.45-114.29,148.84-161.82,39.95-115.88-.32-251.71-24-333.65-24.2-83.87-98.53-244-118.1-285.6-.33-64.14-.66-156-.14-197,.77-60.27,6.49-239.5,6.49-239.5l-37.06-2.74s-5.65,144.42-7,231.33c-.69,44.13-1.43,146.86-1.85,211.32-48.55,21.8-143.94,74.52-260.89,189.75C1742,725.62,1658,872,1632.33,953c-32.19,101.67-50.42,175.06-59.84,217.38-11.36-3.37-26.44-7.67-33.57-9-9.86-1.8-40-3.62-40-3.62v0c-1.29.08-30.25,1.85-39.89,3.61-7.13,1.31-22.21,5.61-33.57,9-9.42-42.31-27.65-115.71-59.84-217.38C1340,872,1256,725.64,1202.35,672.77,1085.4,557.53,990,504.81,941.46,483c-.42-64.45-1.16-167.19-1.85-211.32-1.36-86.91-7-231.33-7-231.33L895.54,43.1s5.72,179.23,6.49,239.5c.52,41,.19,132.83-.14,197-19.57,41.58-93.89,201.74-118.1,285.6-23.66,81.94-63.93,217.77-24,333.65C776.2,1146.35,832.74,1224.68,908.66,1260.64Z"/>
  </g>
</svg>
