<svg xmlns="http://www.w3.org/2000/svg" viewBox="0 0 2994.91 3000">
  <title>45icon 1</title>
  <g>
    <path d="M1301.45,542.35c75.56,34,168.75,88.15,199,132.4l4.49,1.12C1586.06,588,1682.13,549,1780.41,504.2l237.24-111.08L2256,286.52c.39-1.12.76-2.24,1.13-3.36l-341.79,2.24,95.56-239c-14.7-1.94-79.91,47.09-95.56,57.23l-280,175Q1570.17,162,1505,45.28h-2.24q-65.24,116.14-130.42,232.27L997.89,45.28Q1044,163.1,1090.08,280.91c.37,1.5.75,3,1.12,4.49H748.29C932.12,374.83,1123.1,452,1301.45,542.35Z"/>
    <path d="M2242.31,624C1978,507.8,1690.09,588.76,1511.5,773.53c-8.35,8.79-6.54,12.91-16.86,0-89.64-101.2-283-208.19-489.08-204.61l-79.84,7.87c-50.34,8.77-96.48,20.32-138.28,38.22-284.33,121.75-528.39,454-437.37,898.27a1098.19,1098.19,0,0,0,73.08,228.22c76.17,170.69,220.6,272.75,332.8,407l745.43,805,3.37,1.12,745.43-806.08,245.1-258.57c75.64-106.25,129.77-228.51,160.78-380C2743,1085.33,2512.38,742.77,2242.31,624ZM702,1412.09c-80.37,11.32-145.47-87.6-129.3-169.76,5.76-29.3,21.35-45.95,30.35-68.57l90-176.51,49.47,91.07q36,66.33,72,132.66C844.91,1318.8,785.42,1400.35,702,1412.09Zm399.12,603.73c-78.44,8.56-143.24-87.39-127-169.77,18.28-92.92,90.46-161.19,120.3-246.21q23.61,43.86,47.23,87.69,37.1,68.6,74.2,137.17C1246.65,1922,1186.15,2006.53,1101.11,2015.82Zm274.34-765.62c15-90.83,91.23-166.52,120.31-249.57q28.1,51.15,56.21,102.3l65.21,119.18c31.72,99.38-28,182.18-112.43,193.36C1426.9,1425.78,1362,1331.61,1375.45,1250.2ZM1504.75,2615c-79.59,10.51-143.32-87.19-128.18-168.63,17.49-94,90.36-161.82,120.31-247.33q24.18,45,48.35,89.93,36.54,67.45,73.07,134.91C1649.53,2521.93,1588.64,2604,1504.75,2615Zm401.39-599.21c-78.29,8.94-143.39-87.56-127.05-169.77,18.59-93.52,90.2-160.94,120.3-246.21q24.16,45,48.34,89.94,36.55,67.47,73.08,134.92C2050.92,1922.38,1991.52,2006.05,1906.14,2015.82Zm403.63-600.35c-79.31,10.92-142.59-86.48-129.3-165.27,16.12-95.65,90.47-163.49,120.3-249.57,21.87,12.84,35.47,65.17,48.34,87.69l73.09,133.79C2454.61,1321.53,2393.62,1403.93,2309.77,1415.47Z"/>
  </g>
</svg>
