<svg xmlns="http://www.w3.org/2000/svg" viewBox="0 0 2994.91 3000">
  <defs>
    <style>
      .a {
        fill-rule: evenodd;
      }
    </style>
  </defs>
  <title>61icon 1</title>
  <g>
    <path class="a" d="M1331.09,743.2c61.23,13.21,90.22,17,91.59,16.91L1489.39,526c2.74-3.61,10.61-5.69,10.61-5.69s7.87,2.08,10.61,5.69l66.71,234.07c1.37.07,30.36-3.7,91.59-16.91,49.9-10.75,131.78-29.21,184.37-19.16,75.12,14.35,168.84,36.07,168.84,36.07s-115.62-132.74-196.91-179c-65.45-37.23-212.38-53.69-219.47-73.23-12.51-34.51,76.94-48.74,122.42-93.56,19.61-19.33,48.17-55.23,50.78-81.82,4.55-46.24-28.24-112.89-41.59-149.4-12.22-33.44-36.49-77-57.71-96.05C1591,7.39,1500,14.32,1500,14.32s-91-6.93-179.64,72.75c-21.22,19.06-45.49,62.61-57.71,96.05-13.35,36.51-46.14,103.16-41.6,149.4,2.62,26.59,31.18,62.49,50.79,81.82,45.48,44.82,134.93,59.05,122.42,93.56-7.09,19.54-154,36-219.47,73.23-81.29,46.24-196.91,179-196.91,179s93.72-21.72,168.84-36.07C1199.31,714,1281.19,732.45,1331.09,743.2Zm18.82-393.6c-5.3-26.32-22.61-82.65-9.09-106,6.32-10.93,47.75-45.53,89.44-60.47,26.29-9.43,69.74-14.23,69.74-14.23s43.45,4.8,69.73,14.23c41.7,14.94,83.13,49.54,89.45,60.47,13.52,23.36-3.79,79.69-9.09,106-4.77,23.65-42.84,65.48-51.55,83.24-22,44.82-98.54,77.55-98.54,77.55s-76.56-32.73-98.54-77.55C1392.75,415.08,1354.68,373.25,1349.91,349.6Z"/>
    <path class="a" d="M2230.42,1869.27s-100.75-134.68-189.32-469.55c-88.34-334-82.25-614.47-82.25-614.47s-98.69-23.65-127.95-26.46c-74.58-7.16-142.11,19.41-182.25,24.25-23.42,2.82-97.85,18.54-97.85,18.54L1500,577l-50.8,224.63s-74.43-15.72-97.85-18.54c-40.14-4.84-107.67-31.41-182.26-24.25-29.25,2.81-127.94,26.46-127.94,26.46s6.09,280.45-82.25,614.47c-88.57,334.87-189.32,469.55-189.32,469.55s118.31,11,261.78,17.85l-151,1081.1s70.82,17.85,142.9,17.61c204.4-.68,261.56-35.75,308.78-11.74l-48-1081.19c23.46,0,45.5,0,65.83-.12l151.14,981s102.52,14.4,192.61,41.08c137.16,40.62,203.78,35.22,203.78,35.22l-58.55-1058.34q14.21-.32,28.4-.72L1984,2899.39c45.56-28.28,74.4-25.41,97.33-26.86,36-2.28,83.67,6,115.57-8.89l-181.15-979C2137.12,1877.92,2230.42,1869.27,2230.42,1869.27Z"/>
  </g>
</svg>
