<svg xmlns="http://www.w3.org/2000/svg" viewBox="0 0 2994.91 3000">
  <title>53icon 1</title>
  <g>
    <path d="M291.78,894.52a34,34,0,1,0,33.94,34A34,34,0,0,0,291.78,894.52Z"/>
    <path d="M272.61,983.49c-20.83-3.86-26.92-21.07-26.92-21.07s-56.55,50.19-73.38,68.9c-34.61,38.5-92.23,106.44-117.16,151.8-10.78,19.6-33.88,77.55-31,99.72,2.55,19.44,31.07,53.91,49.38,61,14.3,5.5,65.32-12.6,65.32-12.6s-7.1,43.24-7.89,51.43c-5.14,53.49-14.23,118.82-1.88,169.74,3.64,15,16.46,78.18,16.46,78.18l37-19.55,11.28,91.68,41.69,13s18-452.51,43.21-601c5.8-34.09,34.17-135.58,34.17-135.58A72.65,72.65,0,0,1,272.61,983.49ZM108.53,1303.41c-13.62.56-31.69-30.6-31.89-44.23-.34-24.17,20.16-70.67,34-90.53,15.06-21.68,62.2-81.1,71-78.18,12.35,4.12-8.94,85.45-16.69,117.28C159.09,1231.53,133,1302.41,108.53,1303.41Zm58.64,240.2c-3.19-20.17-3.66-76.87,2.32-75.86,0,0,10.62,55.08,11.57,69.69,1.08,16.74,1.54,65.32,1.54,65.32S169.49,1558.27,167.17,1543.61Zm53.49-185.68c-3.27,21.26-18,83.33-18,83.33s-24-58.71-25.2-79.21c-1.36-22.51,10.06-67.18,17.48-88.47,6.1-17.49,17-73,33.95-65.83C237.42,1211.36,226.38,1320.77,220.66,1357.93Z"/>
    <path d="M2744.5,953.89a33.57,33.57,0,1,0-33.56-33.56A33.57,33.57,0,0,0,2744.5,953.89Z"/>
    <path d="M2952.68,1096.59c-10.71-17.34-44.93-41.6-60.69-54.52-26-21.35-105.19-82.81-105.19-82.81s-12.6,19.54-39.86,23.14c-23.6,3.12-45-12.34-45-12.34s-54.35,158.57-79,208.31c-19.21,38.83-64.63,134.61-61.72,189.79,1.62,30.76,58.09,19.48,86.41,1,22.12-14.4,44.4-33.63,58.12-57.6,19.29-33.7,33.56-113.93,33.56-113.93s10.42,85.64-5.27,136c-7.9,25.38-34.75,98.94-50,135.87a32.22,32.22,0,0,0,9.38,37.22l12.56,10.27A17.66,17.66,0,0,0,2734,1509c9.21-27.58,23.56-70.91,28.38-87.34,6-20.47,19.18-83.13,19.18-83.13s9.7,65.36,8.59,87.25c-.75,15-8.62,49.74-13.46,70a16.9,16.9,0,0,0,11.48,20.08l15.15,4.66a17.93,17.93,0,0,0,23-14.44c4-26.4,10.35-72.25,10.62-100.87,1-107.49-24.52-256.55-24.52-256.55s35.23,44.17,50.75,58c13.69,12.21,47.83,25.55,65.84,22.11,19.61-3.74,41.92-36.58,46.29-56.06C2979.8,1152.71,2963.45,1114,2952.68,1096.59Zm-270.55,176.93c-11.09,18.6-61.2,69.57-68.92,52.46-5.47-12.12,28.33-80.62,39.09-107,13.44-32.93,58.64-129.61,58.64-129.61S2706,1233.5,2682.13,1273.52Zm233.51-86.41c-21-.4-48.11-46-61.3-62.37-15.73-19.5-51.34-78.56-44.39-89.87,5.61-9.15,60.49,37.78,77.15,54.52,14.2,14.27,53.24,43.72,53.23,60.43C2940.33,1160.82,2926.64,1187.32,2915.64,1187.11Z"/>
    <path d="M347,902s7.88,22.37,5.1,37c-1.43,7.54-7,20.07-7,20.07l391.47,82.85-42.5-73.76Z"/>
    <path d="M2679,938.88c-2.77-14.6,5.12-37,5.12-37l-342.28,63.52-42.49,73.75L2686,959S2680.46,946.42,2679,938.88Z"/>
    <path d="M1515.61,1043.91c-82.32,0-245.82-14.94-328-18-97.39-3.58-419.35-49.23-419.35-49.23s267.93,434.58,365.58,655.86c49.19,111.46,209.47,456.75,209.47,456.75,46.61,22,128.75,23.93,172.3,23.92s125.72-1.95,172.3-24c0,0,160.17-345.29,209.36-456.75,97.65-221.28,365.58-655.87,365.58-655.87s-322,45.65-419.35,49.24C1760.35,1029,1598,1043.89,1515.61,1043.91Z"/>
  </g>
</svg>
