<svg xmlns="http://www.w3.org/2000/svg" viewBox="0 0 2994.91 3000">
  <defs>
    <style>
      .a {
        fill-rule: evenodd;
      }
    </style>
  </defs>
  <title>49icon 1</title>
  <g>
    <path class="a" d="M1433.39,178.72,1465.33,100S1399,79.08,1378,69.26c-18.53-8.68-70.31-41.94-70.31-41.94L1229.8,75.76s69.83,48,95,60.71C1350.73,149.67,1433.39,178.72,1433.39,178.72Z"/>
    <path class="a" d="M2327.84,1019.88c-5.19-13.55-23.58-53-23.58-53a13.14,13.14,0,0,0-5.93-3l-7.19,1.89c-25.51-77-53.28-166.67-80.64-276.1-21.35-85.41-92-417.46-139.12-491.83C2039.77,147.93,1949.13,129,1949.13,129s-89.36-13.52-118.53-20.89c-14.82-3.75-35.66-10.48-57.06-18.54-26.6,17.84-67.61,44.81-86.68,54.49-30.5,15.49-127.51,49.59-127.51,49.59l-33.23-81.88L1500,142.09l-26.07-30.25-33.23,81.88s-97-34.1-127.51-49.59c-19.07-9.69-60.08-36.65-86.68-54.49-21.4,8.06-42.24,14.79-57.06,18.54-29.17,7.37-118.53,20.89-118.53,20.89s-90.64,19-122.25,68.86C881.48,272.29,810.85,604.34,789.5,689.76c-27.36,109.43-55.13,199.12-80.64,276.1L701.67,964a13.12,13.12,0,0,0-5.93,3s-18.39,39.5-23.58,53c-6.33,16.51-21.82,67.28-21.82,67.28,0,2.26,1.28,7,2.85,8.6l15.1,5.63,46-104.7-27.81,111.5s67.92,24.88,86.12,30.43c28.67,8.74,116.23,29.37,116.23,29.37,2,.08,5.61-1.43,6.68-2.92,0,0,16.29-46.73,20.43-63.34,6.45-25.86,14.95-62.42,14.95-62.42a16.59,16.59,0,0,0-4-7.82l-3.57-1.21C972.49,856.85,1014.74,704,1014.74,704l74.63-253.55,83.05,693.19-11.94,86.42s-58,133.86-71.11,180.57c-31.8,113.3-75,346.19-80.66,463.73-6.86,143.25,18.4,429.92,19,573.33.51,126.09-12.62,504.21-12.62,504.21s190.17,11.66,253.62,14.32c50,2.1,184.3,5.32,225.3,6.28v.17l3.7-.08,8.34.19v-.39c41-1,175.32-4.17,225.3-6.27,63.45-2.67,253.62-14.32,253.62-14.32s-13.13-378.12-12.62-504.21c.57-143.42,25.83-430.09,19-573.34-5.64-117.54-48.86-350.43-80.66-463.73-13.12-46.71-71.11-180.57-71.11-180.57l-11.94-86.42,83.05-693.18,74.63,253.55s42.25,152.84,91.42,326.37l-3.57,1.21a16.59,16.59,0,0,0-4,7.82s8.5,36.56,15,62.42c4.14,16.61,20.43,63.35,20.43,63.35,1.07,1.48,4.7,3,6.68,2.91,0,0,87.56-20.63,116.23-29.37,18.2-5.55,86.12-30.43,86.12-30.43l-27.81-111.5,46,104.7,15.1-5.63c1.57-1.63,2.82-6.33,2.85-8.6C2349.66,1087.16,2334.17,1036.39,2327.84,1019.88Zm-660.46,225.89-169.51,4.29-165.25-4.18-149.82-13.76,9.67-86.32c31.32,3.32,90.78,9.5,115.21,11.2,48.08,3.33,192.63,7.73,192.63,7.73v-.13c10.1-.31,145.73-4.5,192-7.71,24.43-1.69,83.89-7.88,115.21-11.2l9.67,86.32Z"/>
    <path class="a" d="M1675.25,136.37c25.12-12.76,95-60.71,95-60.71l-77.93-48.45S1640.49,60.47,1622,69.15c-21,9.82-87.29,30.75-87.29,30.75l31.94,78.71S1649.27,149.56,1675.25,136.37Z"/>
  </g>
</svg>
