<svg xmlns="http://www.w3.org/2000/svg" viewBox="0 0 2994.91 3000">
  <defs>
    <style>
      .a {
        fill-rule: evenodd;
      }
    </style>
  </defs>
  <title>159Icon_neon 1</title>
  <g>
    <path class="a" d="M2805.21,995.92c-99.44-131.46-234.41-225.58-387.36-303.8-247.94-126.82-556.69-203.59-932.67-200.19L1304.07,502c-117.08,18.24-223.69,27.76-327,56.33C608,660.42,298.56,815.71,123.89,1111.61,47.11,1241.68,2.63,1444.38,65.53,1624.66c25.7,73.65,62.64,141.93,105.65,199.18,185.79,247.36,477.33,383.5,825,469.79,89.55,22.22,181.62,26.93,279.7,42.26q74.47,4,148.91,8c33.42,5.05,103.88,2.52,134.82-2l54.33-2,171-16.09,120.73-21.13,161,71.43c101.56,42.21,203.51,76.58,322,104.63l128.79,25.14c18.51,4,42.66,9.19,52.32-5,12-17.65-25.17-70.09-34.22-85.5-29.65-50.53-64.31-102.47-87.53-157.94q-14.6-41.26-29.18-82.5-5.52-19.11-11.07-38.23l59.37-32.18,105.64-66.4c148.21-105.22,274.58-235.65,346.1-417.48,14.16-36,21.8-76.18,30.19-117.7C2992,1288.57,2890.65,1108.84,2805.21,995.92ZM2505.39,2454.58c-78.57-17.77-157-29-230.41-51.3-65.21-19.79-126.23-46.45-186.13-71.42l-104.64-44.27-2-1c93.68-14,197.67-54,277.7-86.51,34.87-14.17,75.78-24,104.64-45.26l36.21,106.63C2429.91,2329.59,2469.47,2392,2505.39,2454.58Zm360.2-979.82c-6.19,31.77-10.12,64-20.13,92.55-117.2,334.25-455.52,512-804.9,616.67-78.8,23.61-161.44,33.54-247.51,50.3-47.82,9.31-101.91,8.78-152.93,17.1l-63.38,3c-35.43,5.74-113.36,7.94-150.92,2l-86.53-4-60.37-3c-51.54-8.53-103-8.45-151.92-19.1-63.65-13.87-128.66-22.17-189.16-39.24-228.06-64.32-396.06-148.31-560.41-274.63-65.83-50.59-127.07-122.11-171-194.16A640.71,640.71,0,0,1,140,1573.35C95.46,1424.6,136.72,1273.6,191.3,1169,323.2,916,609.2,758.54,904.64,668c113.77-34.87,231.16-53,361.2-75.45l160-12.07,57.34-2h0c365.23.11,694.29,71.45,925.64,206.23,116.27,67.73,224.62,135.24,305.86,237.41,57.24,72,107.8,144.81,137.85,245.45,7.23,24.22,8,48.6,13.08,75.46C2872.82,1381.46,2873.18,1435.72,2865.59,1474.76Z"/>
    <path class="a" d="M913.42,2059.15s14-14.68,36-35.66c112.92-107.24,218.69-211.56,331.58-318.79l298.77-78.93q210.35-207.35,420.67-414.63l99.91-98.91c14.14-14.08,47-49.87,47-49.87s-73.8-77.74-87-84l-15-16,113.91-110.9,96.92,91.92,27,25,5,5c6.81-5.05,18.18-14.25,22-22l6-6L2118.34,757.56l-72.94-68.94c-10.44-8.44-18.13-22.18-31-28l-26,25c1.35,10.58,21,24.72,30,32,26,21,61.86,71.55,89.93,84.93l7,8-113.91,109.9c-32.26-24.42-107.18-99.18-107.18-99.18s-57.07,53.89-71.89,68.7l-196.84,193.83q-148.9,146.37-297.76,292.74c-27,98.25-51.75,200-78.73,298.23l-66,64.93-51.95,53C1055.38,1871,889,2035.38,889,2035.38l-57.05,86.94ZM2092.84,1050.29l13,14-63,61q-13.47,13.49-27,27L1921,1062.28l-6-.84h-1c-3.08,4-4.78,4.2-5,11.84l84.93,80.92,10,11q-19.47,18.49-39,37l-7,7-68-63.94c-8.49-8.17-16.81-22.06-29-26.3h-6c-2.75,4.2-4,5-4,12.31l93.94,90.91-52,52c-35.49-27-60.86-66.37-97.92-91.92l-6,2c-1,1.32-2,2.66-3,4-.14,9.91,63.42,73.37,74.94,78.92l19,20-195.94,189.84-96.83-31-145.88-16c-32.79-7.31-55.23-28.16-82.15-38.47L1894.78,862C1960.07,923.58,2027.56,988.69,2092.84,1050.29Z"/>
  </g>
</svg>
