<svg xmlns="http://www.w3.org/2000/svg" viewBox="0 0 2994.91 3000">
  <title>79Icon_neon 1</title>
  <path d="M2267.77,439.61l-.17-.13L1600.45,13.9l-3.93-2.5L1465.41,188.12l-71.12,23.46,1.38,70.68L949.36,903.85l-226.63,311-.05-.09L709,1233.65l-4,5.46-1.84,2.57h0L521,1493.85l-.3.4L317,1819.7,106.22,2035.18l235.31-.4,345.39,310,.2.18,445.34,371.94,211.88,281.51,120.17-271,276.7-403.27,317.65-367.55,48.7-55.07.1-.12,553.79-710,82.76-7.09.36-93.83,63-94.77,66.93-90.21ZM2250,463.8l582.85,447.55-43.94,59.23-603.24-456-.31-.24L1569.9,97.63,1604,51.72ZM2632,1180.47,2084.78,1882l-42.07,47.59-196.47-57.23-49-14.27-490.23,26.25-292-137.16-276.4-503.24,235-322.51L1414,308.21,2018,764.83l.11.08Zm82.61-86.94-.24,63.26-56.66,4.86L2035.6,740.51l-610-461.1-.9-46.28,46.78-15.43,630.67,426.88Zm57.32-98.23-46.09,69.27L2119.68,620.22l-.23-.17L1495.6,197.78l56.41-76,615.9,417Z"/>
</svg>
