<svg xmlns="http://www.w3.org/2000/svg" viewBox="0 0 2994.91 3000">
  <defs>
    <style>
      .a {
        fill-rule: evenodd;
      }
    </style>
  </defs>
  <title>169icon 1</title>
  <path class="a" d="M2090.36,19.66,2444,195c-2.81,23.57-154.63,331.52-170.09,343.09,0,0-353.84-169.18-355.58-178.57l167.29-339.8C2087.23,19.69,2088.79,19.67,2090.36,19.66ZM1941.75,439.9l255.42,125.76s-74.35,187.22-99.42,290c-17.69,72.41-42.64,142.45-45.64,209.21-6.53,145.92,36.39,269.39,10.26,424-10.89,64.44-45,144.43-87,202.9l-20.85,47.06-55.13,107.43-337.9,686.31q-74.18,151.86-148.38,303.75l-73.3,144.12L802,2716.73,556,2593.25c160.45-325.51,322.35-654.73,483.21-981.44l77.91-158.24,40.31-86.64,26-48c24.49-61.9,51-127.9,91.4-178.5,107.47-134.5,237.43-175,354.83-273.48,50.94-42.74,91.93-104,138.49-162.35C1836.41,619,1901.57,521.22,1941.75,439.9ZM1231.36,1457.52,888.63,2153.63l597.69,294.27q172.28-348.74,344.6-697.53Z"/>
</svg>
