<svg xmlns="http://www.w3.org/2000/svg" viewBox="0 0 2994.91 3000">
  <defs>
    <style>
      .a {
        fill-rule: evenodd;
      }
    </style>
  </defs>
  <title>171icon 1</title>
  <path class="a" d="M2684.15,30.31c90.63-1.32,168.13,84.58,129,179.43-19.23,46.68-58.62,77.21-120.1,82-85.56,6.66-157.95-90.69-123.36-178.62,14.42-36.62,43.4-62.14,80.35-76.31Zm-1963,360.6c117.19-1.62,218.69,106.75,170.11,230.44-23.14,58.91-70.61,97.48-141.58,108.89C624.72,750.32,528,613.66,573.22,498.73c18.26-46.44,54.86-80.13,101.44-98.31Zm1471.12,126-335.75,637.18q11.12,403.59,22.25,807.27,4.44,133.59,8.86,267.19c-3,21-31.64,64.54-36.15,71.12L1580.8,2813.32c-21.16,40.19-72,160.67-103.53,156.27Q1211.65,2830.31,946,2691L235.52,2316.6c-18.21-9.59-49.69-21.38-57-35.32-7.37-14.13,6-34.07,16.36-53.7l364.2-691.14q441.06-299.89,882.21-599.83l336.3-638.23c-24.45-12.37-56.22-24.81-57.28-44.77-.82-15.52,18.42-42.5,27.51-59.75l82.52-154.08c8-7.31,20.69-9,32.12-5.61L2244,235.2c45.61,24,124.76,58.08,134.58,78.88,7.21,15.27-7.54,36.93-18.55,57.84-17,32.24-77.53,161.11-96.51,170.57C2246.75,550.86,2215.05,529.33,2192.27,516.88ZM1860.56,94.18l-77.12,146.34,457.34,241,77.11-146.35-457.33-241Zm530.37,883.75c109-1.51,204.46,95.38,157.85,210.88-22,54.51-65.26,87.74-131.86,98.21-109.23,17.19-198.6-106.08-157.85-209.91,16.85-42.94,49.41-73.71,92.4-90.51ZM1825,323.44Q1653,648.53,1481,973.7L799.52,1436.83l76.73,116c56.3,78.49,117.39,149.9,208.84,217.47,42,31,96.09,42.47,135.27,52.71,102.06,26.67,195.61,42.14,296.08,64.51,39.35,8.77,95,15.88,137,47,82.62,61.17,127.53,127.33,177.29,196.86q-13.76-494.55-27.51-989.24Q1973.84,817,2144.52,491.82L1825,323.44Z"/>
</svg>
