<svg xmlns="http://www.w3.org/2000/svg" viewBox="0 0 2994.91 3000">
  <defs>
    <style>
      .a {
        fill-rule: evenodd;
      }
    </style>
  </defs>
  <title>167icon 1</title>
  <path class="a" d="M2368.12,41.68h3.24c42.2,31.15,77.59,78.7,120.15,112.56l356.13,335.49L2973.2,610.94c-10.84,18.61-37.2,42.09-56.29,56.27L2717.74,481.07c-13.41-10.58-55.15-59.75-61.7-55.2L2430.9,646.65q9.2,9.74,18.4,19.48l145,138.52c12.4,12.34,38.94,26.43,31.39,54.12-5,18.22-97.93,103-116.91,119L2227.4,1256,1500,1973.47,899.25,2133.64l-74.69,71.42L727.14,2296c-4.34,4.3-27.74,30.13-30.31,28.13-19.28,16-32.8,37.83-54.12,51.95L189.17,2807.87l-118,112.55c-8.28,8.28-36.83,38.77-44.38,37.88v-1.08l113.66-177.49,87.67-87.66,361.54-371.21q123.39-125,246.79-250,80.64-293.25,161.29-586.57c11.36-22.53,59.49-59.48,79-79l180.78-177.49q293.84-289.47,587.76-579l199.17-195.89c19.72-19.23,57.61-70,85.51-75.75s44.9,28.54,58.45,40l154.79,146.1,228.39-222.94q-128.25-121.74-256.54-243.5c.73-.72,1.45-1.44,2.17-2.17ZM2134.63,451l-1077,1060.59,42.21,24.88c29.51,17.36,63.2,33.07,99.59,42.22,36.77,9.23,75.52,7.39,115.82,14.06,84.46,14,172.85,13.11,245.71,35.71l113.66,37.88c8.4,3.29,30.24,15.85,36.8,11.91l388.6-382-16.24-17.32L1948.46,1149c-12.67-12.65-37-24.23-37.89-47.63.72-2.16,1.45-4.32,2.16-6.49,25.23-18.45,47.44,17.28,62.78,32.47q74.7,71.41,149.39,142.86l6.49-6.5,99.58-96.32-4.33-5.41-148.29-141.77c-13.6-13.57-42-27.15-35.72-53,24.37-18,45.75,13.3,60.61,28.14q75.77,73.58,151.54,147.18l31.39-31.39,60.62-59.51L2205,914.18c-14.26-14.15-46.62-30.93-47.62-56.27l6.49-10.82,13-3.25c22.54,9.57,35.09,33.11,53,47.62q71.43,67.63,142.88,135.27l178.6-177.48Q2343,650.14,2134.63,451Z"/>
</svg>
