<svg xmlns="http://www.w3.org/2000/svg" viewBox="0 0 2994.91 3000">
  <defs>
    <style>
      .a {
        fill-rule: evenodd;
      }
    </style>
  </defs>
  <title>127icon 1</title>
  <path class="a" d="M1717.35,466.75c255-6.34,320.2,132.11,396.88,312.2,270.69-73.7,429.73,326.73,144.21,444.46-295.38,100.8-449-327.33-161.57-439-110.65-207-380.11-48.08-412,152.86-11.43,45.82-3.77,109.1,4.34,155,30.65,239.45,63.82,473,97.58,711.12,22.47,133.56,35.86,267.78-6.5,400h1.08c66.65-171.93,43.65-370.73,25.5-547.24,70.77-63.31,116.85-115.36,195.71-169.31,151.33-88.17,357.74-128.61,536.75-107.33,243.74,46.42,461.87,332.33,413.14,575.64-27.72,74.41-75,132.63-126.88,187.54,180.54,205.71-88.42,517.85-323.14,336-210.12-174.69,5-519.41,265.67-383.74,3.63-49.54,29.63-118.89,6.51-169.11-39.91-86.67-238.65-124-339.4-65-196.67,141.79-317.91,359.39-440.24,564.78-174.79-25.21-345.28-48.93-523.74-53.12-198-1.83-395.39,23.86-592.05,44.45-30.63-179.47-41.28-442.55-168.06-555-78.16-52.6-190.94-107.28-296-93.24-131.09,48.87-133,159.81-98.68,272.11,243.77-113.38,449.41,241.79,233.13,400C337.28,2611,50.62,2314.05,225.3,2109.06c-503.13-374.46,106.59-1203.7,816.14-655.46-22.32,228.91,13.44,491.72,102.31,702.07-150-403.27-42.09-855.42,90-1245.56C1326.17,640.67,1404.5,483.43,1717.35,466.75ZM1143.74,2156.89m1.08,3.26,634.34,44.44-2.17,7.59"/>
</svg>
