<svg xmlns="http://www.w3.org/2000/svg" viewBox="0 0 2994.91 3000">
  <defs>
    <style>
      .a {
        fill-rule: evenodd;
      }
    </style>
  </defs>
  <title>139icon 1</title>
  <path class="a" d="M1688.86,22.76c60,7.66,174.15,523.36,201.16,618.73q225,827.41,450.09,1655c17.85,66.37,153,523.81,133.26,553.33l-181,52.83c-525.27,122.07-1131.7,89.21-1577.54-60.92-61.65-20.76-159.32-50.22-190.12-102.57l867.48-2057.4C1442.65,564.78,1607.61,68.68,1688.86,22.76Zm-447.58,1426.1c-34.59,17.5-260.82,857.29-251.44,950.72,3.38,33.59,17.68,52,47.78,57.86C1719.31,2589.48,2108.15,1437.75,1241.28,1448.86Zm57.84,110.66c657.12,72.89,215.31,868.56-186.07,784.73q93-392.33,186.07-784.73Z"/>
</svg>
