<svg xmlns="http://www.w3.org/2000/svg" viewBox="0 0 2994.91 3000">
  <defs>
    <style>
      .a {
        fill-rule: evenodd;
      }
    </style>
  </defs>
  <title>111icon 1</title>
  <path class="a" d="M2451.89,13.3c120.59-.38,218.51,146.71,217.77,266.41,136.51,33.37,311.4,114.5,227.16,271.11-46.07,113.4-173.51,152.55-307.05,98.73-49.4,51.61-96.64,104-130,167.68,108.59,249.55-192.82,353.41-271.06,512.44-55,287-96.53,615-181.71,890.12-71,223.11-213.86,383.81-329,575.13h-1.57c132.79-608.3-781.31-1669-1425.66-1388.45,317.44-309.4,731-497.57,1196.93-476.4,92.12,0,211.94,22.51,285.13-9.41,137.53-60,114.64-186.19,189.58-297.75,16.22-24.16,57.67-88.8,98.7-83.06,38.77,5.43,51.3,39.17,83,48.58,67.11-79.1,126.41-164.22,188-247.6C2222.43,194.84,2308.28,29.64,2451.89,13.3ZM2447.19,54c-136.85,18.27-195.1,231.15-73.63,326L2372,397.18l-11,9.4h-15.67L2314,378.37c-58.32,79.27-114.46,160.32-178.61,235.07,105.94,111.39,218.89,42,302.37,159.85l3.14-1.57c19.24-58.48,76.68-95.93,111.23-141-15.17-5.19-26.08-17.54-36-28.21q.8-8.61,1.58-17.23c24.6-29.94,64.76,17,89.3,26.64,79.78,32,204,29.71,242.82-58,94.87-157.13-75-191.12-184.86-233.5.05,23.34-6.46,39.14-18.8,50.15L2630.49,369,2618,358C2656.15,241.86,2590.18,62.48,2447.19,54ZM416.32,1404.3C993.12,1350.89,1963.53,2440.12,1535,2943.2c-501.71,216.72-1169.41-425.51-1374-841.51C21.41,1836.82,40.4,1416.2,416.32,1404.3ZM443,1493.62c-273.73,7.48-337.88,364.74-158.23,539.08,49.28,75.83,148,134.87,242.83,105,31.58-14.69,44.13-56.34,62.66-84.63,88.11-144.81,248.57-97.65,350.94-183.35-18.46-57.34-19.23-117.19-47-163C833,1606,607.21,1494.1,443,1493.62Zm646.89,363.57c-121.79,25.16-95,150.53-70.49,250.73v114.41c30.89,114.41,396.83,594.5,524.81,509.32,70.62-209.19-181.34-596.69-302.34-753.79-34.51-43.9-76.23-120.79-152-120.68ZM828.36,2070.31c-194.32,51.72-69.28,173.91,32.9,87.78C885.14,2124.45,882.9,2069.59,828.36,2070.31ZM524.42,2238c-123.23,51.18-71.61,168.53-11,244.47,43.21,54.11,134.94,101.35,195.83,139.48,202.54,111.54,424.72,324.84,678.36,272.7,47.88-61.56-19-141.55-59.53-172.4-130.61-140.62-276.21-267.89-416.73-398C716.29,2388.18,675.44,2252.35,524.42,2238Z"/>
</svg>
