<svg xmlns="http://www.w3.org/2000/svg" viewBox="0 0 2994.91 3000">
  <defs>
    <style>
      .a {
        fill-rule: evenodd;
      }
    </style>
  </defs>
  <title>115icon 1</title>
  <g>
    <path class="a" d="M1450,49.16c286.71-4.18,550.11,34.76,728.17,143,59.4,36.1,161.27,105.22,118.18,209.68-40.93,99.25-167.64,144.47-272.58,181.09-297.41,103.78-795,100.45-1080.82-11.43-93.18-36.48-188.5-77-234.46-160.12-49.09-88.82,33.11-162.67,82-198.25C905.9,129,1063.31,98.27,1232.66,66.32Zm393,387c-7.33,66.74,226.46,58.17,226.84,0C2070.12,389.38,1849.69,375,1843,436.11Z"/>
    <path d="M2315.91,2141.16v-589c46.84-8.74,45.49-77.55,0-85.78V881.13c33.17-9.07,54.26-58,0-87.68V453.13s0,3.07-10.47,28.1c-41.49,99.25-170,144.47-276.33,181.09-301.5,103.78-805.92,100.45-1095.69-11.44-94.46-36.47-191.09-77-237.69-160.12A125.84,125.84,0,0,1,686,468.7V793.49c-43.5,14.35-48.73,74.43,0,87.68v585.2c-65.24-2.29-64.69,90.15,0,87.69v587.1c-51.64,7.42-46.36,77.39,0,87.68-.4,130.82-21.14,421.57,28.59,491.8,52.74,74.47,142.5,111,234.49,146.77,288.62,112.39,791.75,109,1086.62,5.72,94.16-33,191.86-71.9,245.92-144.86,57.13-77.12,34.48-356.45,34.31-499.43C2378.09,2230.86,2378.62,2139.12,2315.91,2141.16ZM2100.08,1521.6c-38.73,47.57-124.08,5.66-146.78-30.49-13.16-21-10.56-61.36-15.25-89.59-.63-1.27-1.26-2.54-1.91-3.81-95.7,21.66-128.36,196.78-217.3,186.8-55.2-6.18-87.58-38-129.62-55.28-5.32-3-140,42.1-165.84,49.56-107.17,31-222.26,55.33-335.49,82L901.08,1697l-9.53-9.54v-1.9c45.64-25.78,116.26-27.17,169.65-41.94,123.81-34.23,252-59.79,367.9-104.84,251.33-97.68,452.94-227.3,650-377.42l17.15,5.72c11.54,44-15.08,97.43-9.53,148.68C2095.12,1393.31,2157,1451.79,2100.08,1521.6Z"/>
  </g>
</svg>
