<svg id="V1" xmlns="http://www.w3.org/2000/svg" width="3000" height="3000" viewBox="0 0 3000 3000">
  <defs>
    <style>
      .cls-1 {
        fill-rule: evenodd;
      }
    </style>
  </defs>
  <path id="_7" data-name="7" class="cls-1" d="M2048.35,654.556c60.48-.567,120.54-5.381,146.66,28.261,23.56,30.348,16.77,96.023,16.76,149.681V1186.29q265.02-109.38,530.07-218.765c37.84-15.943,153.36-78.358,199.04-60.71a75.744,75.744,0,0,1,45.05,49.2c5.04,17.065,2.09,43.355,2.09,63.849v794.46c0.01,69.16,13.46,209.25-16.76,248.07-43.57,55.97-153.9-7.84-202.18-28.26q-278.625-115.125-557.31-230.28v374.73c0.01,65.32,6.03,126.3-31.42,153.86-27.06,19.92-86.73,13.61-133.04,13.61H165.873c-64.595.01-119.075,5.24-143.517-34.54-20.458-33.29-10.478-136.6-10.476-189.46V928.8c0-81.119-16.428-219.967,29.332-255.4,30.225-23.4,95.344-16.751,148.754-16.748H540.9Z"/>
</svg>
