<svg id="V1" xmlns="http://www.w3.org/2000/svg" width="3000" height="3000" viewBox="0 0 3000 3000">
  <defs>
    <style>
      .cls-1 {
        fill-rule: evenodd;
      }
    </style>
  </defs>
  <path id="_10" data-name="10" class="cls-1" d="M2323.52,9c64.75-.767,51.33,66.057,51.33,128.3V2047.42c0,67.47,5.13,140.16-14.38,189.88-49.69,126.7-157.62,216.41-291.51,258.66-108.34,34.18-222.55,8.25-267.91-65.69-45.12-73.55-11.02-169.5,23.6-225.81,56.77-92.32,142.63-154.36,253.54-192.96,32.81-11.42,83.71-25.8,132.42-17.45,28.99,4.97,52.15,15.15,75.96,20.53V561.2q-532.7,219.626-1065.48,439.3V2530.85c0,47.02,5.39,105.98-3.08,144.73-10.15,46.39-28.66,86.65-52.35,120.08-57.27,80.83-141.2,143.8-246.356,176.54-33.039,10.29-81.589,24.51-129.336,16.43-110.446-18.71-197.472-92.77-155-229.92,6.717-21.68,16.7-45.07,27.715-63.63,58.031-97.84,143.606-159.55,256.619-203.23,33.01-12.76,85.886-27.79,135.5-19.5,30.5,5.09,53.06,13.59,78.01,20.53V648.444c0-44.106-9.88-119.863,10.27-146.774,16.21-21.656,59.88-29.916,86.22-41.056l238.14-98.534q301.245-125.208,602.54-250.44Q2196.745,60.325,2323.52,9Zm-37.98,108.8L1222.11,558.122q0.525,173.443,1.03,346.921l1063.43-439.3Q2286.06,291.79,2285.54,117.8Z"/>
</svg>
