<svg id="V1" xmlns="http://www.w3.org/2000/svg" width="3000" height="3000" viewBox="0 0 3000 3000">
  <defs>
    <style>
      .cls-1 {
        fill-rule: evenodd;
      }
    </style>
  </defs>
  <path id="_3" data-name="3" class="cls-1" d="M1043,634q36.495,43,73,86c-1.33,1.666-2.67,3.333-4,5C666.047,1088.35,75.978,1568.99,227,1446c-12.276,9.52-58.273,39.96-62,53q478.452,392.955,957,786-38.49,39-77,78C567.828,1964.44-81.812,1424.87,72,1552c-10.75-8.44-68.785-49.15-48-56Q533.45,1065.05,1043,634Zm696,8c15.22,2.978,107.36,41.59,116,50q-291.975,821.415-584,1643c-0.67.33-1.33,0.67-2,1-20.49-7.82-106.52-38.27-117-50Q1445.475,1464.075,1739,642Zm224,0c2.19,0.678,407.81,339.989,1018,850-0.67,1-1.33,2-2,3q-514.455,435.45-1029,871c-1.33-1-2.67-2-4-3-10.18-20.87-74.05-72.22-63-88q475.455-386.955,951-774v-3q-474.96-386.955-950-774Q1923.5,683,1963,642Z"/>
</svg>
