<svg id="end" xmlns="http://www.w3.org/2000/svg" width="3000" height="3000" viewBox="0 0 3000 3000">
  <defs>
    <style>
      .cls-1 {
        fill-rule: evenodd;
      }
    </style>
  </defs>
  <path id="_181" data-name="181" class="cls-1" d="M372.343,7.675c41.623,3.6,2226.707-2.494,2258.437-1.587,86.66,21.079,93.49,103.255,91.06,135.355-0.91,15.411,2.16,426.315,2.16,527.912V2389.93c0,99.8-1.89,457.4-.8,487.25-0.2,27.45-15.37,108.01-102.06,112.9-18.32.61-2205.114,3.02-2220.96,3.71-18.3,2.03-114.385-11.21-122.457-88.91-0.34-3.69-1.723-881.55-1.723-1492.2-0.187-348.63,2.206-1267.562,2.32-1288.188C276.684,61.63,305.034,10.453,372.343,7.675ZM475.236,204.99V2797.11q1024.656-.87,2049.524-1.73V204.99H1492.2V435.439h251.21v256.44c-0.57.578-1.15,1.155-1.73,1.733H1492.2V936.19h249.48c0.58,0.577,1.16,1.155,1.73,1.733V1194.36l-251.21,1.74v240.84h249.48l1.73,1.73v256.44c-0.57.58-1.15,1.16-1.73,1.74H1485.27V1445.6H1234.06V1187.43h251.21V944.854H1235.8l-1.74-1.733V686.681l1.74-1.733h249.47V444.1H1235.8l-1.74-1.733V204.99H475.236ZM1318.35,1762.57c54.44,1.78,272.99-6.04,324.57,1.08,22.01,1.71,33.26,10.77,31.89,33.44-0.02,60.33,1.04,665.61,1.04,665.61s-7.28,28-47.99,25.94c-56.54.3-287.26-.96-303.74-0.28-9.36-.37-35.67-8.45-34.53-34.3,0.3-6.78-5.21-298.8-3.55-351.76,2.06-66,1.14-276.61,1.65-295.02S1282.57,1771.77,1318.35,1762.57Zm35.26,64.23v268.57h256.4V1826.8h-256.4Z"/>
</svg>
