<svg id="V1" xmlns="http://www.w3.org/2000/svg" width="3000" height="3000" viewBox="0 0 3000 3000">
  <defs>
    <style>
      .cls-1 {
        fill-rule: evenodd;
      }
    </style>
  </defs>
  <path id="_14" data-name="14" class="cls-1" d="M2249.14,30.415h548.31c29.82,0,177.22-7.348,189.79,3.514q0.885,434.757,1.76,869.6V2965.97H2445.97c-35.31,0-177.72,9.89-196.83-3.51q5.28-5.265,10.55-10.54l151.13-172.16q195.06-.885,390.14-1.76-0.885-1292.85-1.76-2585.962H2407.31C2382.97,159.068,2253.42,53.276,2249.14,30.415ZM15.515,37.443L755.371,39.2,720.224,76.091,593.692,199.065,201.8,200.822q0.878,1292.847,1.757,2585.958H593.692q79.953,91.35,159.922,182.71l-1.758,3.51H13.757Q12.879,2116.665,12,1260.15,13.757,648.86,15.515,37.443ZM602.479,237.714c14.666-.524,26.316.728,35.148,5.27,31.624,98.52,143.486,98.386,274.151,98.379H1001.4l520.19,1.757,472.73-1.757h91.39c139.56,0.013,233.75-2.857,274.15-101.892h35.15c-13.05,137.988-44,300.183-19.34,451.489q19.335,144.918,38.67,289.866h-1.76c-0.59-.585-1.17-1.171-1.76-1.757q-29-76.411-57.99-152.838-12.3-45.672-24.6-91.352c-32.13-81.659-81.46-164.208-152.9-207.3-72.22-43.564-287.62-64.363-411.22-43.919l-166.95,5.271V1976.91q0.87,188.835,1.75,377.71c0,75.91-2.36,163.84,28.12,210.81,50.51,77.83,135.82,88.48,247.79,107.16l101.93,8.79c0.59,16.91,5.34,58.88-3.52,68.51H1018.98q0.87-35.13,1.76-70.27c144.11-4.74,282.85-20.93,344.44-108.92,33.01-47.15,31.64-135.09,31.63-214.33q0.885-186.2,1.76-372.43V488.932l-196.82-7.027c-127.6-.036-260.983-7.907-353.238,31.621-164.668,70.556-198.755,299.156-265.364,467.3h-1.757l-1.758-1.757q14.058-91.342,28.118-182.7l19.331-207.3q-1.757-57.088-3.514-114.19-6.15-78.168-12.3-156.352Q606.873,278.124,602.479,237.714Z"/>
</svg>
