<svg id="V1" xmlns="http://www.w3.org/2000/svg" width="3000" height="3000" viewBox="0 0 3000 3000">
  <defs>
    <style>
      .cls-1 {
        fill-rule: evenodd;
      }
    </style>
  </defs>
  <path id="_11" data-name="11" class="cls-1" d="M1491.91,11q733.455,231.308,1467.04,462.661v5.051L1504.04,939.352,39.021,477.7l-1.01-4.04Q764.889,242.354,1491.91,11ZM37,691.859Q704.778,908.52,1372.69,1125.22q-0.51,931.29-1.01,1862.77c-1.01.34-2.02,0.67-3.03,1.01Q702.89,2773.855,37,2558.66V691.859Zm2921.95,0h4.04q0.51,933.316,1.01,1866.8-667.275,214.65-1334.68,429.33l-1.01-1.01q0.51-931.29,1.01-1862.77Q2294.075,908.06,2958.95,691.859Z"/>
</svg>
