<svg xmlns="http://www.w3.org/2000/svg" width="3000" height="3000" viewBox="0 0 3000 3000">
  <defs>
    <style>
      .cls-1 {
        fill-rule: evenodd;
      }
    </style>
  </defs>
  <path id="_98887" data-name="98887" class="cls-1" d="M1984,12q-1.005,256.974-2,514c-3.38,34.293-13.18,118.521,4,144l3,2c20.12,20.016,572.98,8.268,662,8V2990H351V14Zm56,611q1.5-283.972,3-568h2q280.965,281.972,562,564v2ZM466,922v221h816V922H466Zm906,0v221h447V922H1372Zm528,0v221h622V922H1900ZM456,1322v218H990V1322H456Zm634,0v218H2178V1322H1090Zm1180,0v218h242V1322H2270ZM456,1722v218H952V1722H456Zm574,0v218h312V1722H1030Zm379,0v218h732V1722H1409Zm812,0v218h291V1722H2221ZM456,2122v218h784V2122H456Zm886,0v218h574V2122H1342Zm647,0v218h523V2122H1989ZM456,2522v218h699V2522H456Zm826,0v218H2517V2522H1282Z"/>
</svg>
