<svg xmlns="http://www.w3.org/2000/svg" viewBox="0 0 2994.91 3000">
  <title>icon 183</title>
  <g>
    <path d="M1395.29,2753.38c-46.91,2.51-134.24,7.18-268.64-9.18-73.38-8.93-113.6-20.5-184.14-41.88-9.41-2.85-26.73-11.12-39.33-17.47V2452.58l56.48-1.57c3.65,39.67,14.67,121,45.42,162.69,50.92,69,134.19,103.54,254.58,105.5,53.85.92,175.1-18.2,225.85-45.35,65.26-34.91,93.85-117.57,98.51-177.75,4.38-56.8.62-138-82.45-187.56-45.53-27.14-118.92-49.92-189.91-71.94-55.49-17.22-107.9-33.48-142.58-50.27-16.84-8.15-35.15-14.74-54.54-21.72-62.35-22.45-133-47.9-188.47-137.79-29.6-48-42.84-177-24-233.94,7.77-23.52,15.69-41.31,25.67-57.68L891.27,1710C611,2068.75,395.8,2168.53,373.37,2178.24c-34.9,5.19-71,13.77-92.64,25.15-71,37.31-92.68,78.51-105.56,117.47-14.54,44-5.13,133.51,18,171,40,64.81,93.14,83.95,132,97.92,10.79,3.89,21,7.56,29.45,11.66,23.34,11.29,56.2,21.49,91,32.29,40.84,12.67,83.06,25.77,106.89,40,25.9,15.44,35.61,39.32,32.48,79.84-2.21,28.54-15.89,65.32-40.73,78.6-22.59,12.08-88.27,23.53-118.89,23.16-60.78-1-101.84-17.09-125.53-49.19-13.07-17.72-20.1-65.78-21.47-91.92l-1.13-21.65-103.12,2.87v196.25l11.78,6.27c4.06,2.15,24.91,13.1,37.23,16.84,44.49,13.48,69.91,20.79,117.11,26.53a973,973,0,0,0,97.66,7.17l-9.26,6.82,81-8.33,1-.1c7-.43,13.83-1.18,20.6-2.14,70.88-7.38,296.2-31.09,379.56-42.92,147.08-20.88,436.85-75.19,576-118.78l-12.61-42.57A366.18,366.18,0,0,1,1395.29,2753.38Z"/>
    <path d="M2739.82,1309c-145.77-163.16-437.32-291.54-852-389.56C1758.14,888.77,1508,778.9,1576.15,487.12,1639,218.2,1901.26,190.55,2038.61,190.55c542.87,0,537.84,427.27,537.84,427.27h150.81V165.42S2227,47.28,2057.73,44.78c-117.33-1.74-357.6,30.85-461.48,85.45-196,103.05-251.57,210.94-286.52,316.68-13.77,41.68-16.87,105.52-23.41,170.54-14.26,142-193.1,825.53-364.43,1052.65l33.84,28.64c23-24.28,53.34-46.15,92.7-66.84,53.3-28,181.33-45.26,242.43-44.32,76.24,1.13,284.17,47.58,345.3,61.61v208.25h-39.87c-4.11-33-18.78-96.18-71.09-149.11a249.22,249.22,0,0,0-28.58-24.67c-4.54-38.75-5.92-65.54-5.92-65.54l-181,5v.8c-9.48-.49-19.12-.83-29-.83-152.58,0-247.76,62.18-275.23,179.8-35.83,153.32,73.33,236.77,187.42,263.73q62.14,14.68,116.84,30.93v13.16s67.63,36,100.48,45.91c54.65,16.57,99.33,29.88,142.67,41q59.91,35.73,95.82,75.83c45.91,51.39,49.22,207.32,33.57,272.22-19.86,82.35-91,154.26-185.63,187.67l14.09,42.1c247.89-78.58,691.43-232.57,876.86-381,139.28-111.49,236-246.05,300.7-326.16,57-70.48,101.59-142.26,121.9-226.51C2838.73,1723.47,2838.84,1419.82,2739.82,1309Zm-1186.36,570.4-.26,22.47h127.36V1614l-17.1-4c-11.29-2.66-277.76-65.36-371.94-66.75-69-1-202.63,17.29-263.74,49.41q-4.44,2.34-8.74,4.69c122.91-232.1,232.65-632.1,286.87-848.64,11.14,63.78,28.7,121.67,51.6,158.8,140.72,228.12,334.09,245.12,459.92,306,148.63,72,461.35,136.61,603.2,221.17,130.69,77.91,138.26,206.1,130.69,304.11-8.51,110.09-61,239.47-158.34,291.55-83.84,44.85-297,79.46-392.08,77.91-122.28-2-319.19-22.62-432.29-175.93-31.06-42.1-50.1-113.53-61.58-177.65C1553.19,1812.18,1553.47,1878.72,1553.46,1879.38Zm-350.35,144.06C1157.85,2012.74,1013,1966,1048.7,1813c22.56-96.54,100.61-145.49,232-145.49,10,0,19.59.33,29,.87v382.83Q1259.47,2036.76,1203.11,2023.44Zm1156.72,336.38c-146.3,117.11-472.46,241.74-701.47,320.2,32.81-36,56-78.17,67.07-123.92,17-70.38,17-244.38-43.62-312.2-7-7.88-14.68-15.61-22.83-23.2,28.56,5,59.17,9.55,93.83,13.77,243.06,29.58,400,22.15,496.92,17,113-6.05,218.1-38.35,306.6-89.52C2504.66,2226.12,2439.08,2296.39,2359.83,2359.82Z"/>
  </g>
</svg>
