<svg id="V1" xmlns="http://www.w3.org/2000/svg" width="3000" height="3000" viewBox="0 0 3000 3000">
  <defs>
    <style>
      .cls-1 {
        fill-rule: evenodd;
      }
    </style>
  </defs>
  <g id="way">
    <path id="_18" data-name="18" class="cls-1" d="M2984.73,293.005c-0.35,47.839-60.32,127.16-82.14,163.211q-114.66,196.26-229.35,392.559-402.12,688.507-804.33,1377.155-126.93,217.59-253.88,435.23c-23.68,38.78-55.71,133.85-124.81,121.61-62.68-11.1-88.72-93.21-117.35-140.81q-124.785-213.33-249.62-426.7Q736.064,1553.43,348.793,891.444L124.775,508.486q-34.665-59.2-69.339-118.408c-14.457-24.149-33.753-46.642-39.47-78.938-3.383-19.115,3.02-37.028,8.534-48C50.517,211.349,99.612,219.4,174.912,219.4H2789.52c47.9,0,123.71-9.622,155.74,9.6C2971.04,244.47,2972.7,262.65,2984.73,293.005Z"/>
  </g>
</svg>
