<svg id="V1" xmlns="http://www.w3.org/2000/svg" width="3000" height="3000" viewBox="0 0 3000 3000">
  <defs>
    <style>
      .cls-1 {
        fill-rule: evenodd;
      }
    </style>
  </defs>
  <g id="date">
    <path id="_24" data-name="24" class="cls-1" d="M1448.18,12.294c115.53-1.478,225.19,2.137,322.34,23.537,543.14,119.652,924.91,443.378,1111.72,917.958,31.77,80.711,57.28,168.011,77.64,260.091q9.42,67.665,18.83,135.34c8.95,51.55,14.75,150.07,5.88,204.77-10.37,63.95-4.58,125.35-16.47,184.77-23.38,116.87-49.67,226.76-91.76,325.99-154.95,365.33-421.88,641.98-783.5,800.27-74.09,32.44-155.99,55.77-237.64,80.03-70.01,20.81-148.5,23.2-227.05,36.48q-44.7,2.955-89.41,5.89-34.695-.585-69.41-1.18c-46.28-7.5-91.79-2.09-134.11-9.41-49.42-8.56-95.04-8.68-139.99-20.01-111.03-27.99-216.033-61.75-310.579-103.56-342.353-151.41-601.992-419.81-751.735-763.79-23.854-54.8-39.433-111.79-58.821-171.83-54.8-169.67-85.9-434.63-44.7-647.27,18.548-95.73,36.036-185.91,68.233-269.51C268.671,556.806,566.7,268.2,1009.37,95.852c84.81-33.019,175.29-49.532,275.29-68.258Zm11.76,141.224-151.76,14.123c-84.23,15.2-160.35,29.522-232.93,55.313C665,368.732,386.878,646.105,231.756,1047.94c-28.623,74.14-44.569,154.27-61.174,238.9-38.217,194.79-10.093,434.78,40,591.97,125.59,394.11,373.283,686.55,732.912,844.99,87.318,38.47,183.838,70.53,287.048,95.33,42.05,10.1,84.61,10.04,130.58,17.65,39.04,6.46,123.11,16.62,167.06,9.41q36.465-2.34,72.93-4.7c74.25-12.58,148.41-14.54,215.29-32.96,447.34-123.21,756.89-394.62,927.02-794.38,76.77-180.39,133.13-468.5,85.88-719.07-21.26-112.74-47.31-212.32-85.88-305.985C2553.56,528.022,2112.66,153.182,1459.94,153.518Zm329.4,254.2c38.72-1.018,72.47,19.535,63.53,63.551q-28.815,100.023-57.65,200.068-118.8,407.155-237.63,814.389,245.835,245.94,491.74,491.94c23.83,23.83,89.39,77.67,101.17,105.91,15.4,36.91-10.54,69.5-38.82,75.32-44.65,9.19-71.06-39.31-90.58-58.84q-105.87-105.915-211.76-211.84-81.75-80.61-163.52-161.23-38.235-39.42-76.47-78.85c-30.47-24.61-55.91-55.94-83.53-83.56-12.81-12.81-31.47-24.56-38.82-42.36-10.73-26.01,4.26-54.67,10.59-75.32q25.875-91.2,51.76-182.42,93.525-318.3,187.05-636.684,21.18-72.958,42.36-145.931c5.98-19.166,8.01-40.966,18.82-55.313C1765.36,416.224,1777.17,413.988,1789.34,407.722Z"/>
  </g>
</svg>
