<svg id="V1" xmlns="http://www.w3.org/2000/svg" width="3000" height="3000" viewBox="0 0 3000 3000">
  <defs>
    <style>
      .cls-1 {
        fill-rule: evenodd;
      }
    </style>
  </defs>
  <path id="_29" data-name="29" class="cls-1" d="M504.711,523l1987.7,2.141q21.945,44.962,43.91,89.935c38.51,66.19,75.43,131,121.01,189.5,56,71.874,140.83,116.66,221.69,163.809q55.155,26.763,110.31,53.531-0.54,345.78-1.07,691.64v192.71c0,23.33,5.57,63.1-3.21,80.3-40.98,12.45-88.96,48.55-124.23,70.67-61.05,38.28-130.27,78.74-174.57,133.83-38.94,48.42-78.65,97.31-112.45,150.96q-40.155,67.98-80.32,135.97-994.83-1.065-1989.84-2.14C443,2345.09,355.1,2197.17,244.468,2116.12c-48.768-35.73-103.011-68.02-158.5-96.36-14.311-7.3-68.335-27.7-74.967-38.54V1015.5c39.521-18.649,78.505-44.107,113.521-68.524,81.025-56.5,163.748-105.986,223.83-183.081,39.05-50.107,75-103.576,109.238-158.455ZM1498.56,937.34l-426.24,1.071c-56.47-.007-143.349-11.289-132.8,53.532,3.264,20.057,13.444,35.027,29.987,41.757,14.872,6.05,41.194,3.21,61.044,3.21h789.3c51.72,0,201.37,11.08,223.83-13.92,8.44-9.39,16.18-26.471,11.78-44.966-10.77-45.191-52.89-39.62-108.17-39.613Zm-4.29,512.84q-414.945.54-829.987,1.07H520.775c-18.66,0-43.8-3.07-58.9,2.14-23.872,8.24-43.372,43.48-25.7,72.81,17.805,29.55,66.4,23.56,113.521,23.55H2448.5c59.06,0.01,113.73,8.67,123.16-41.76,4.74-25.38-12.79-46.1-27.85-52.46-16.65-7.02-44.8-4.28-67.47-4.28h-151Q1909.84,1450.71,1494.27,1450.18Zm1.08,513.91q-219.525.54-439.1,1.07c-56.719-.01-102.531-6.99-113.518,39.61-3.693,15.67,1.868,31.66,8.568,40.69,22.452,30.26,165.39,18.2,221.69,18.2h795.72c19.89,0,46.11,2.84,61.04-3.21,14.24-5.77,25.75-20.6,28.92-37.47,13.11-69.8-74.28-57.83-132.8-57.82Q1710.635,1964.62,1495.35,1964.09Z"/>
</svg>
