<svg id="V2" xmlns="http://www.w3.org/2000/svg" width="3000" height="3000" viewBox="0 0 3000 3000">
  <defs>
    <style>
      .cls-1 {
        fill-rule: evenodd;
      }
    </style>
  </defs>
  <g id="depende">
    <g id="masage">
      <path id="_213" data-name="213" class="cls-1" d="M1472,471c605.75-6.954,1132.9,187.992,1381,536,284.64,399.26,86.76,780.61-214,1011-60.16,46.08-133.36,102.16-208,130,12.91,89.81,174.59,345.82,164,375-28.07,18.23-83.11-2.57-113-9-141.17-30.36-264.04-64.49-384-113q-89.49-39.99-179-80l-121,21c-90.84,15.56-257.58,34.7-355,23-151.31-18.18-297.8-17.02-433-48-429.671-98.45-887.222-320.98-988-742-23.332-97.47-13.8-228.04,11-315,117.875-413.378,561.99-637.254,997-737l280-43ZM747,1109c-117.274,12.68-217.638,79.75-257,205-67.664,187.93,123.184,383.3,283,373C1172.78,1643,1138.44,1110.58,747,1109Zm719,1c-103.01,9.51-215.61,81.93-254,208-54.16,177.85,88.83,370,279,370C1885.61,1662.64,1855.86,1087.81,1466,1110Zm724,0c-131.54,6.34-218.09,82.81-256,212-51.75,176.34,102.83,375.1,280,366C2607.74,1641.96,2575.1,1100.49,2190,1110Z"/>
    </g>
  </g>
</svg>
