<svg id="V1" xmlns="http://www.w3.org/2000/svg" width="3000" height="3000" viewBox="0 0 3000 3000">
  <defs>
    <style>
      .cls-1 {
        fill-rule: evenodd;
      }
    </style>
  </defs>
  <g id="date">
    <path id="_22" data-name="22" class="cls-1" d="M1488.18,13.471c163.17-.812,310.34,26.749,435.27,64.728,31,9.423,117.3,29.441,135.29,47.075-22.79,41.281-53.81,70.224-72.94,117.686-165.33-76.4-476.45-119.527-704.67-74.142-82.44,16.393-158.41,32.366-229.41,60.02-16.24,6.328-75.82,36.75-87.052,32.952l-78.82-109.449,2.352-3.53,112.94-47.075c67.77-26.371,141.24-44.685,217.64-61.2,56.21-12.15,117.18-13.109,176.46-22.361Zm877.61,281.272c23.34,9.77,43.03,33.213,62.35,48.251,50.87,39.589,106.72,81.8,147.05,131.809q34.11,39.422,68.24,78.851,87.045-40.6,174.11-81.2c16.52-8.156,31.11-20.2,52.94-22.361,28.62,28.3,12.2,51.972,18.82,95.327,8.87,58.089,2.36,128.727,2.35,196.537v255.38c13.05,21.687,19.62,49.1,28.23,76.5,18.05,57.34,31.85,118.76,44.71,183.59q6.465,59.43,12.94,118.87c8.13,50.22,13.23,120.35,4.71,174.17-8.02,50.61.51,152.6-20,187.12-22.97-7.07-121.05-18.7-131.76-29.42q5.3-48.24,10.58-96.5c21.56-130.3-1.78-321.09-31.76-427.2-7.73-27.37-21.5-103.48-35.29-121.22q-85.875-55.305-171.76-110.628-130.575-82.372-261.17-164.761c-24.14-15.155-84.33-33.8-75.29-69.436,69.76-47.6,177.75-61.516,243.52-109.448-0.78-.785-1.57-1.57-2.35-2.354-10.39-21.485-34.84-36.091-49.41-54.136-31.68-39.247-75.14-71.576-115.29-102.388q-27.645-21.769-55.29-43.544v-3.53Q2326.375,348.883,2365.79,294.743ZM584.683,331.226c20.187,16.074,67.624,86.021,81.173,110.625l-1.176,2.354c-17.06,7.709-29.509,24.155-43.528,35.306C580.438,511.9,540.826,547.28,508.215,587.783c-34.823,43.252-74.421,83.768-107.054,129.456C321.845,828.282,250.471,960.184,210.58,1107.96c-10.4,3.68-131.011-5.5-138.818-11.77,48.112-148.245,99.29-275.247,174.111-394.251,47.553-75.633,106.241-141.278,161.17-209.483,34.9-43.334,82.221-85.489,125.877-120.04Zm1212.9,81.2c29.94,3.128,49.66,18.977,52.94,48.251,2.4,21.444-11.08,46.19-16.47,63.551q-19.41,68.84-38.83,137.694Q1702.3,978.471,1609.35,1295.08q-27.645,94.725-55.29,189.48l20,18.83q231.72,232.995,463.51,466.04,52.335,52.95,104.7,105.92c14.97,23.22,5.14,58.67-14.12,70.61-47.29,29.3-83.23-25.59-105.88-48.25L1782.28,1858.8Q1664.65,1740.54,1547,1622.25c-22.7-22.7-87.62-75.91-97.65-103.56-9.62-26.55,6.01-56.63,12.95-78.85q24.1-85.32,48.23-170.65,92.34-314.19,184.7-628.448,21.165-72.958,42.35-145.932c7.01-22.826,10.1-49.382,23.53-65.9C1769.77,418.249,1783.54,418.228,1797.58,412.43ZM18.823,1443.37q66.461,5.88,132.936,11.77v89.44c10.1,62.42,6.986,124.44,18.823,183.59,36.391,181.86,94.876,330.69,175.287,466.04,29.272,49.27,72.492,126.38,114.113,161.23-0.392,1.18-.784,2.35-1.176,3.53q-50.582,43.545-101.173,87.09-3.528-2.94-7.058-5.89-21.174-26.475-42.352-52.95c-29.135-39.48-56.4-81.06-82.349-123.58C135.227,2115.1,76.285,1948.03,36.47,1747c-12.772-64.49-21.044-137.54-21.176-210.66C15.242,1507.83,9.178,1467.41,18.823,1443.37ZM2731.66,2045.92q68.22,13.545,136.46,27.07l1.18,1.18c-121.95,265.78-284.36,476.11-510.57,636.68-51.93,36.87-107.68,66.72-164.7,100.04-16.21,9.47-45.45,31.37-63.53,31.77q-23.52-64.125-47.05-128.28C2383.07,2575.28,2587.58,2341.77,2731.66,2045.92ZM714.09,2596.7q45.288,29.415,90.584,58.84c69.546,41.42,144.642,77.46,223.516,108.27,70.1,27.39,146.64,45.11,224.7,62.38q53.52,6.465,107.06,12.94c38.05,6.44,79.46,1.54,121.17,8.24q13.53,1.185,27.06,2.35l142.34-10.59q50.58-7.05,101.18-14.12c8.15,17.65,49.44,116.26,47.05,129.46-54.17,7.99-115.47,14.06-172.93,24.71q-60,3.525-120,7.06-31.17-1.77-62.35-3.53c-43.7-7.98-87.74-2.83-128.23-10.59l-107.05-15.3c-135.15-33.44-268.667-69.06-375.281-131.81-59.378-34.95-118.842-62.97-172.935-101.21q-24.7-17.655-49.409-35.31,4.7-5.88,9.411-11.76Q667.028,2636.71,714.09,2596.7Z"/>
  </g>
</svg>
