<svg id="V1" xmlns="http://www.w3.org/2000/svg" width="3000" height="3000" viewBox="0 0 3000 3000">
  <defs>
    <style>
      .cls-1 {
        fill-rule: evenodd;
      }
    </style>
  </defs>
  <g id="date">
    <path id="_23" data-name="23" class="cls-1" d="M1448.18,12.294c468.76-5.685,764.73,155.625,1022.31,360.122,45.47,36.1,93.09,80.679,129.41,125.925q21.765,27.654,43.53,55.313,87.045-40.6,174.11-81.2c16.52-8.156,31.11-20.2,52.94-22.361,30.39,29.94,12.63,68.923,18.82,114.157,13.25,96.79-5.49,223.778,3.53,318.931,1.59,16.857-8.28,102.509-1.18,114.156,24.25,39.777,32.92,85.917,48.23,136.517,82.89,273.81,44.56,652.13-47.05,883.83-176.13,445.44-473.47,730.64-931.73,894.42-180.16,64.39-470.22,102.79-702.33,56.49-110.68-22.08-215.38-46.87-310.572-85.91C574.04,2729.2,293.327,2456.7,132.936,2089.47c-23.91-54.75-39.563-111.77-58.821-171.83-48.174-150.23-85.138-403.88-50.586-600.2,15.055-85.54,26.01-162.82,49.41-237.73,47.474-151.968,107.452-292.018,190.581-409.546C454.573,400.05,711.624,188.87,1061.13,78.2c78.75-24.933,160.17-37.3,250.58-54.136Zm11.76,141.224-131.76,11.769c-82.49,15.087-156.66,26.33-228.22,49.429-304.866,98.4-571.3,299.307-727.033,547.243-77.95,124.1-133.405,257.481-179.993,415.431-63.229,214.38-39.95,519.32,21.176,713.19,134.147,425.45,430.03,734.04,842.32,880.29,76.94,27.3,156.1,43.11,243.52,60.02,208.81,40.41,456.79,2.99,617.62-54.13,418.46-148.63,690.72-416.75,848.2-826.16,65.94-171.41,106.75-438.54,62.35-663.76-11.73-59.52-23.61-115.52-39.99-168.29q-7.065-27.645-14.12-55.31-159.975-102.381-319.99-204.777-71.76-44.716-143.52-89.442c-20.29-12.776-52.46-20.185-44.71-50.606,69.76-47.6,177.75-61.516,243.52-109.448-0.78-.785-1.57-1.57-2.35-2.354-6.2-12.78-20.05-17.773-29.41-29.422-39.89-49.651-91.66-90.55-142.35-129.455C2113.51,277.586,1853.53,153.111,1459.94,153.518Zm329.4,254.2c38.72-1.018,72.47,19.535,63.53,63.551q-28.815,100.023-57.65,200.068-118.8,407.155-237.63,814.389,245.835,245.94,491.74,491.94c23.83,23.83,89.39,77.67,101.17,105.91,15.4,36.91-10.54,69.5-38.82,75.32-44.65,9.19-71.06-39.31-90.58-58.84q-105.87-105.915-211.76-211.84-81.75-80.61-163.52-161.23-38.235-39.42-76.47-78.85c-30.47-24.61-55.91-55.94-83.53-83.56-12.81-12.81-31.47-24.56-38.82-42.36-10.73-26.01,4.26-54.67,10.59-75.32q25.875-91.2,51.76-182.42,93.525-318.3,187.05-636.684,21.18-72.958,42.36-145.931c5.98-19.166,8.01-40.966,18.82-55.313C1765.36,416.224,1777.17,413.988,1789.34,407.722Z"/>
  </g>
</svg>
