<svg id="V1" xmlns="http://www.w3.org/2000/svg" width="3000" height="3000" viewBox="0 0 3000 3000">
  <defs>
    <style>
      .cls-1 {
        fill-rule: evenodd;
      }
    </style>
  </defs>
  <g id="way">
    <path id="_19" data-name="19" class="cls-1" d="M15.3,2706.96c0.352-47.83,60.322-127.16,82.14-163.21Q212.1,2347.49,326.791,2151.19q402.125-688.5,804.329-1377.153,126.93-217.593,253.89-435.229c23.68-38.779,55.7-133.845,124.81-121.608,62.67,11.1,88.71,93.212,117.34,140.809q124.8,213.327,249.62,426.695,387.195,661.839,774.46,1323.816,112.005,191.46,224.02,382.96,34.665,59.2,69.34,118.41c14.45,24.15,33.75,46.64,39.47,78.94,3.38,19.11-3.02,37.03-8.54,48-26.01,51.79-75.11,43.74-150.41,43.74H210.515c-47.9,0-123.714,9.62-155.745-9.6C28.993,2755.5,27.332,2737.32,15.3,2706.96Z"/>
  </g>
</svg>
