<svg id="V1" xmlns="http://www.w3.org/2000/svg" width="3000" height="3000" viewBox="0 0 3000 3000">
  <defs>
    <style>
      .cls-1 {
        fill-rule: evenodd;
      }
    </style>
  </defs>
  <g id="download">
    <path id="_53" data-name="53" class="cls-1" d="M1739,1677q136.98,0.495,274,1c18.83,0,86.99-6.17,84,10-6.56,20.8-33.87,39.54-47,56q-58.5,67.995-117,136-213.48,248.475-427,497c-17-2.19-29.93-27.59-39-39q-48.99-57.495-98-115-166.98-195.975-334-392-42.99-50.49-86-101c-10.362-12.98-32.037-26.08-34-46l6-6q174.48,0.495,349,1-0.495-408.465-1-817V662c0-17.4-5.46-58.961,5-67,12.63-7.614,78.73-2,99-2l258,1c20.78,0,98.41-4.337,105,6Q1737.5,1138.446,1739,1677Zm-48,997H2879c26.05,0,84.94-5.65,102,4v235c0,16.43,3.66,70.39-5,76q-1120.89.495-2242,1H78c-18.01,0-45.492,3.21-57-4V2767c0-25.63-6.857-71.59,3-91Q857.417,2675,1691,2674Z"/>
  </g>
</svg>
