<svg id="end" xmlns="http://www.w3.org/2000/svg" width="3000" height="3000" viewBox="0 0 3000 3000">
  <defs>
    <style>
      .cls-1 {
        fill-rule: evenodd;
      }
    </style>
  </defs>
  <path id="_168" data-name="168" class="cls-1" d="M2223.42,62.5c7.29,8.571,690.01,692.534,702.38,703.829,67.24,68.3,7.55,129.022,7.55,129.022s-325.6,329.521-344.15,346.821c-47.5,46.65-97.06,85.39-172.05,7.07-14.17-13.33-520.86-521.555-611.16-611.841-36.36-33.325-98.62-75.747-109.58-131.466-9.9-50.339,67.36-101.491,89.75-127.292,60.18-60.162,301.85-300.675,306.56-306.246C2135.15,17.112,2210.56,45.784,2223.42,62.5ZM1594.14,681.22q359.475,355.756,719.03,711.58Q2107.61,1806.98,1902,2221.25q-523.3,212.3-1046.707,424.65L167.577,2924.48Q689.835,2402.84,1212.2,1881.1c278.63,141.05,501.07-228.31,289.07-405.87-207.51-173.79-519.478,46.06-387.17,307.8Q591.322,2304.145,68.438,2825.36q344.867-862.26,689.8-1724.7Q1176.154,890.96,1594.14,681.22Zm-265.06,815.92c213.25-2.8,222.8,294.9,25.04,321.36-165.81,22.18-228.14-194.21-122.1-281.71C1259.82,1513.85,1286.48,1507.55,1329.08,1497.14Z"/>
</svg>
