<svg id="V1" xmlns="http://www.w3.org/2000/svg" width="3000" height="3000" viewBox="0 0 3000 3000">
  <defs>
    <style>
      .cls-1 {
        fill-rule: evenodd;
      }
    </style>
  </defs>
  <path id="_56" data-name="56" class="cls-1" d="M2155.99,11c30.28,1.892,92.78,77.525,113.86,98.61l288.72,289.733q158.055,158.115,316.17,316.164c21.74,21.736,109.97,98.138,114.88,124.025,5.57,29.38-54.51,74.844-70.15,90.478l-234.84,234.84C2163.26,1686.21,1216.4,2633.06,1264.41,2585.04q-54.375,54.39-108.77,108.78c-14.61,14.6-25.98,36.53-53.89,34.56-496.278,123.6-1162.206,291.65-999.333,250.09-24.213,6.37-60.061,20.04-81.329,4.06-19.137-14.37-8.924-45.8-3.05-68.11q24.4-97.575,48.8-195.19,103.177-414.225,206.374-828.53c5.233-18.06,20.272-24.02,30.5-36.6,27.774-34.15,65.692-59.77,93.529-93.52C265,1893.21,1148.59,1007.8,1722.91,432.891c104.53-104.527,301.51-300.1,293.8-293.8C2064.82,99.782,2096.26,38.095,2155.99,11Zm0,81.328Q1255.87,993.457,355.555,1894.77c0.678,1.01,1.356,2.03,2.034,3.05q89.961,88.935,179.942,177.9Q1438.67,1175.105,2340,274.3q-86.91-86.91-173.84-173.839A16.311,16.311,0,0,0,2155.99,92.328ZM2375.58,310.9Q1474.95,1212.028,574.129,2113.34q78.78,78.78,157.576,157.57Q1632.853,1369.785,2534.17,468.472,2454.88,389.692,2375.58,310.9ZM2570.77,505.07L769.32,2307.51q5.59,5.595,11.183,11.18,84.37,84.885,168.759,169.77Q1850.4,1587.845,2751.73,687.042l-9.15-9.15Q2656.69,591.489,2570.77,505.07Zm216.54,218.57L985.86,2525.06c0.678,1.02,1.356,2.04,2.033,3.05q59.981,59.475,119.957,118.94,901.155-900.615,1802.47-1801.418L2804.59,739.905ZM325.057,1962.88q-86.4,347.64-172.826,695.36l191.125,190.1q347.141-86.4,694.354-172.82Q765.28,2403.09,492.8,2130.62,408.937,2046.755,325.057,1962.88Z"/>
</svg>
