<svg id="V1" xmlns="http://www.w3.org/2000/svg" width="3000" height="3000" viewBox="0 0 3000 3000">
  <defs>
    <style>
      .cls-1 {
        fill-rule: evenodd;
      }
    </style>
  </defs>
  <path id="_25" data-name="25" class="cls-1" d="M1781,0h112V512H1781V0Zm633,1245q-1206.885.495-2414,1V887l2413-1V687c0-22.489-5.13-64.818,19-59,21.48,3.43,92.67,79.153,114,96,97.22,76.779,183.66,166.641,280,244,19.95,16.021,102.96,76.95,105,101-9.23,15.42-23.36,25.08-37,36q-39.99,34.5-80,69-131.49,113.985-263,228c-22.73,17.94-98.39,97.57-125,98-4.74-2.27-7.77-4.15-10-9-7.82-14.68-2-51.74-2-71V1245ZM1893,3000H1780c-0.06-500.55-2.35-988.18,1-1454h112V3000ZM703,2325q-351.465.495-703,1V1967q350.465-.495,701-1,0.5-103.995,1-208c3.166-21.08-5.753-41.65,11-49,18.612-4.76,28.111,14.07,38,22l80,70q147.986,128.985,296,258c18.08,14.51,91.51,68.47,92,92-7.11,13.32-20.63,20.9-32,30l-90,78Q970.01,2369,843,2479l-88,76c-11.65,9.32-18.873,24.31-38,26-21.888-12.43-15-37.88-15-70Q702.5,2418.015,703,2325Z"/>
</svg>
