<svg id="end" xmlns="http://www.w3.org/2000/svg" width="3000" height="3000" viewBox="0 0 3000 3000">
  <defs>
    <style>
      .cls-1 {
        fill-rule: evenodd;
      }
    </style>
  </defs>
  <path id="_172" data-name="172" class="cls-1" d="M359.9,1235.54q264.084,89.235,528.223,178.48,524.9-524.655,1049.9-1049.41-0.945-173.794-1.87-347.624Q2461.52,540.239,2986.99,1063.6c-0.62.62-1.24,1.24-1.87,1.86l-349.65-1.86L1585.57,2114.88q88.8,261.63,177.63,523.3-87.87,87.84-175.76,175.68-343.08-341.97-686.226-684.03c-409.867,409.68-763.837,758.75-763.837,758.75L13.987,2983l94.326-120.29s454.578-459.3,761.115-764.65q-342.143-342.915-684.353-685.91C159.079,1441.02,273.312,1320.94,359.9,1235.54Z"/>
</svg>
