<svg id="V1" xmlns="http://www.w3.org/2000/svg" width="3000" height="3000" viewBox="0 0 3000 3000">
  <defs>
    <style>
      .cls-1 {
        fill-rule: evenodd;
      }
    </style>
  </defs>
  <g id="download">
    <path id="_52" data-name="52" class="cls-1" d="M1743,1292v998c0,25.14,6.08,69.35-4,87H1400c-29.9,0-105.86,6.79-124-5q-1.005-538.95-2-1078-136.98-.495-274-1-41-.495-82-1c-3.061-2.11-2.666-5.94-3-11q226.47-262.98,453-526,53.49-62.495,107-125c7.44-7.977,23.84-38.594,37-35,16.12,8.052,30.95,33.989,42,48l91,107q160.98,187.982,322,376,51,60.495,102,121c4.88,5.35,33.89,33.15,27,43-3.67,5.24-73.31,3-87,3Q1876.01,1292.505,1743,1292Zm-52,1382H2879c26.05,0,84.94-5.65,102,4v235c0,16.43,3.66,70.39-5,76q-1120.89.495-2242,1H78c-18.01,0-45.492,3.21-57-4V2767c0-25.63-6.857-71.59,3-91Q857.417,2675,1691,2674Z"/>
  </g>
</svg>
