<svg id="end" xmlns="http://www.w3.org/2000/svg" width="3000" height="3000" viewBox="0 0 3000 3000">
  <defs>
    <style>
      .cls-1 {
        fill-rule: evenodd;
      }
    </style>
  </defs>
  <path id="_199" data-name="199" class="cls-1" d="M1548.41,457.318c226.89-2.686,492.48,10.277,619.96,113.784q-0.84,2.547-1.7,5.094c-162.24,126.535-654.83,136.479-917.2,84.913-64.44-12.664-241.94-43.87-251.386-91.706,97.166-73.874,250.556-85.461,402.556-105.292ZM998.084,700.169c286.086,136.914,882.836,121.086,1170.286,0V936.227c-166.46,128.593-654.28,135.483-918.9,84.913-66.83-12.77-225.14-39.384-249.687-84.913Q998.934,818.21,998.084,700.169ZM2168.37,1060.2c5.48,5.07,9.86,225.43,3.4,246.25-164.79,129.36-656.97,135.12-920.6,84.91-67.91-12.93-221.76-38.79-247.99-84.91-12.833-22.57-11.029-210.69-3.4-244.55,67.067,17.17,135.467,45.55,212.317,61.14C1451.74,1171.63,2007.4,1167.8,2168.37,1060.2ZM563.26,1099.26c127.147-1.01,265.58-3.01,370.28,27.17v176.62c-191.688,53.29-578.667,29.04-754.148-16.98C131.4,1273.48,21.4,1254.33,12.936,1211.34c97.7-74.28,251.323-85.3,404.25-105.29Q490.217,1102.66,563.26,1099.26ZM12.936,1342.11c144.382,68.69,315.431,65.14,512.956,90.01q81.522,0.84,163.059,1.7l247.986-22.08q-0.849,126.51-1.7,253.04c-241.969,16.81-504.12,41.62-733.765-13.59-50.462-12.13-167.129-36.78-186.838-73.02Q13.786,1460.15,12.936,1342.11Zm2158.834,88.31c5.48,5.07,9.86,225.43,3.4,246.25-164.97,129.46-656.72,135.34-920.61,84.91-69.95-13.37-222.71-38.41-249.68-86.61q-1.7-120.57-3.4-241.15,38.22,13.575,76.44,27.17,78.12,17.835,156.26,35.66C1475.49,1540.78,2012.57,1536.81,2171.77,1430.42Zm193.63,20.38c226.9-2.69,492.49,10.28,619.96,113.78-0.56,1.7-1.13,3.4-1.69,5.1-128.27,99.74-504.98,136.52-743.96,105.29V1457.59Q2302.545,1454.2,2365.4,1450.8Zm618.27,242.85q0.84,118.02,1.69,236.06c-95.85,74.85-426.93,134.32-614.86,110.38q-66.24-3.39-132.49-6.79,0.855-126.51,1.7-253.04C2487.29,1792.91,2823.85,1787.67,2983.67,1693.65ZM12.936,1705.54q77.275,23.775,154.567,47.55c87.476,21.38,182.594,24.62,280.257,37.36,115.243,15.04,260.514,10.03,370.28-5.09l118.9-13.59q-0.849,130.755-1.7,261.53-75.576,9.345-151.169,18.68c-193.238,25-425.269,6.79-587.691-32.26-54.417-13.09-153.878-28.6-178.346-71.33C-0.836,1915.44,12.494,1756.62,12.936,1705.54Zm990.244,95.1c353.84,120.47,816.32,119.84,1171.99,1.7,0.56,0.56,1.13,1.13,1.69,1.7,0.47,77.78,11.4,177.71-5.09,246.24-165.84,126.7-657.66,131.27-918.91,81.52-69.35-13.21-221.28-38.7-247.98-86.61Q1004.025,1922.925,1003.18,1800.64Zm1982.18,253.04c5.49,5.07,9.86,225.44,3.4,246.25-101.44,79.24-265.83,85.78-426.33,106.99q-63.69,1.7-127.39,3.4c-57.53,7.32-148.56,7.69-200.43-6.8V2141.99c0.57-.57,1.14-1.13,1.7-1.7C2468.35,2149.65,2846.27,2146.94,2985.36,2053.68ZM18.032,2074.06c73.108,23.52,151.01,49.03,236.1,66.23q135.02,11.895,270.066,23.78c96.738,12.33,210.977,3.55,298.941-8.49q55.2-5.955,110.4-11.89-0.849,131.595-1.7,263.23c-239.489,16.67-509.306,36.73-732.066-16.98-56.147-13.54-155.059-28.72-180.045-73.03Zm983.448,95.1c298.06,144.11,864.01,106.84,1170.29,5.1l1.7,1.7q-0.855,121.41-1.7,242.85c-199.33,124.12-630.62,139.09-922.3,83.21-69.75-13.36-221.15-38.34-247.99-86.61V2169.16Z"/>
</svg>
