<svg id="end" xmlns="http://www.w3.org/2000/svg" width="3000" height="3000" viewBox="0 0 3000 3000">
  <defs>
    <style>
      .cls-1 {
        fill-rule: evenodd;
      }
    </style>
  </defs>
  <path id="_200" data-name="200" class="cls-1" d="M1728.41,457.318c226.89-2.686,492.48,10.277,619.96,113.784q-0.84,2.547-1.7,5.094c-162.24,126.535-654.83,136.479-917.2,84.913-64.44-12.664-241.94-43.87-251.39-91.706,97.17-73.874,250.56-85.461,402.56-105.292ZM1178.08,700.169c286.09,136.914,882.84,121.086,1170.29,0V936.227c-166.46,128.593-654.28,135.483-918.9,84.913-66.83-12.77-225.14-39.384-249.69-84.913Q1178.94,818.21,1178.08,700.169ZM2348.37,1060.2c5.95,5.48,9.51,199.49,3.4,219.08-79.71-7.6-180.14-24.37-266.67-6.8-86.3,17.53-163.97,45.39-229.3,84.92q-41.61,30.555-83.23,61.13l-100.21-3.39c-132.95-16.95-443.41-28.4-489.18-108.69-12.67-22.23-11.1-211.11-3.4-244.55,67.07,17.17,135.47,45.55,212.32,61.14C1631.74,1171.63,2187.4,1167.8,2348.37,1060.2ZM743.26,1099.26c127.147-1.01,265.58-3.01,370.28,27.17v176.62c-191.688,53.29-578.667,29.04-754.148-16.98-47.993-12.59-157.992-31.74-166.456-74.73,97.7-74.28,251.323-85.3,404.251-105.29Q670.216,1102.66,743.26,1099.26Zm1445.45,225.87c410.18-5.6,745.37,401.29,579.2,830.45-85.4,220.55-262.42,349.21-535.04,385.5-81.6,10.86-162.7-11.13-219.11-30.57-262.16-90.35-528.35-404.61-387.26-777.8,66.94-177.08,197.4-318.9,382.17-377.01C2063.45,1338.47,2125.1,1343.51,2188.71,1325.13ZM192.936,1342.11c144.382,68.69,315.431,65.14,512.957,90.01q81.52,0.84,163.058,1.7l247.989-22.08q-0.855,126.51-1.7,253.04c-241.971,16.81-504.122,41.62-733.767-13.59-50.462-12.13-167.129-36.78-186.838-73.02Q193.786,1460.15,192.936,1342.11Zm988.544,91.71q38.22,13.575,76.44,27.17,67.92,16.125,135.88,32.27c86.45,17.64,185.09,7.69,276.86,28.87v1.69c-55.26,56.73-104.4,159.81-120.6,251.35-76.13,16.23-352.64-63.7-366.88-103.6Q1182.325,1552.71,1181.48,1433.82ZM192.936,1705.54q77.276,23.775,154.567,47.55c87.476,21.38,182.594,24.62,280.257,37.36,115.243,15.04,260.514,10.03,370.28-5.09l118.9-13.59q-0.855,130.755-1.7,261.53-75.585,9.345-151.171,18.68c-193.238,25-425.269,6.79-587.691-32.26-54.417-13.09-153.878-28.6-178.346-71.33C179.164,1915.44,192.494,1756.62,192.936,1705.54Zm990.244,95.1c63.5,21.21,129.82,46.07,203.82,61.14l146.08,22.08c-16.92,96.01,12.23,193.47,32.27,263.23-0.57.56-1.13,1.13-1.7,1.69-97.11-.77-348.05-48.12-378.77-103.59Q1184.025,1922.925,1183.18,1800.64ZM198.032,2074.06c73.108,23.52,151.01,49.03,236.1,66.23q135.019,11.895,270.066,23.78c96.738,12.33,210.977,3.55,298.946-8.49q55.185-5.955,110.4-11.89-0.855,131.595-1.7,263.23c-239.488,16.67-509.3,36.73-732.065-16.98-56.147-13.54-155.059-28.72-180.045-73.03Q198.881,2195.5,198.032,2074.06Zm983.448,95.1c83.04,39.39,184.34,59.06,290.45,76.42q71.325,7.65,142.68,15.29,28.86,43.3,57.75,86.61c53.73,71.92,127.48,130.69,208.92,174.92v1.7l-169.86,3.39c-150.78-18.55-282.89-15.75-404.25-52.64-40.26-12.24-107.12-26.04-125.69-59.44V2169.16Z"/>
</svg>
