<svg id="end" xmlns="http://www.w3.org/2000/svg" width="3000" height="3000" viewBox="0 0 3000 3000">
  <defs>
    <style>
      .cls-1 {
        fill-rule: evenodd;
      }
    </style>
  </defs>
  <path id="_198" data-name="198" class="cls-1" d="M2955.62,318H2987q-97.035,169.653-194.08,339.341c-0.78-.388-1.55-0.775-2.33-1.162q-32.535-51.709-65.08-103.43Q2287.99,822.917,1850.4,1093.14q-318.99-60.42-638.04-120.863-566.5,343.37-1133.116,686.813L13,1551.02q590.906-362.55,1181.93-725.171,317.235,63.91,634.55,127.834,416.595-259.71,833.27-519.47c-10.24-35-44.23-81.361-69.73-103.43ZM2504.7,1216.32c110.88-1.65,254.93,13.22,346.33,39.52,31.37,9.02,85.85,20.87,86,55.78-24.9,38.6-104.75,45.99-155.73,58.1-190.04,45.15-554.92,40.59-677.55-58.1,7.17-58.36,229.58-79.82,301-90.65Zm431.16,166.19c12.02,22.51,8.44,168.98-3.48,187.1-24.45,37.18-99.39,41.14-149.92,52.3-150.97,33.32-384.53,35.98-538.09,2.32-47.64-10.44-113.69-19.97-137.13-54.62-19.07-28.17-3.84-143.91-3.49-185.94,1.55,0.39,3.1.77,4.65,1.16,27.05,16.7,65.21,22.48,98.78,31.38,157.04,41.63,386.16,49.98,556.68,15.11C2825,1418.82,2894.4,1415.07,2935.86,1382.51Zm-834.44,252.18c200.07,79.38,527.9,91.1,762.39,32.54,28.43-7.1,49.43-25.67,73.22-32.54,0.26,48.43,15.18,161.48-6.98,192.91-26.61,37.76-96.97,41.97-149.92,53.46-149.37,32.41-375.29,34.53-528.79,3.49-50.24-10.17-122.72-20.04-147.59-55.79C2086.14,1803.47,2101.06,1674.64,2101.42,1634.69Zm-628.73,92.97c175.4-1.97,343.62,9.95,445.11,82.51-2.46,45.25-115.26,62.2-160.38,72.05-159.45,34.82-392.04,33.47-543.9-6.97-44.55-11.86-116-18.85-129-61.59,73.2-57.97,188-65.76,304.49-82.51Q1430.845,1729.4,1472.69,1727.66Zm445.11,165.02c12.19,23.38,7.53,170.08-4.65,188.27-22.67,33.86-89.12,43.87-135.97,53.45-155.84,31.88-388.6,31.54-541.57-2.32-49.15-10.88-122.09-17.41-147.6-52.3-12.23-16.72-3.75-153.55-3.49-185.94l4.65,1.17C1242.34,1974.58,1777.46,2002.99,1917.8,1892.68Zm181.3,1.16c155.83,68.73,439.24,98.66,649.65,55.79,68.26-13.91,124.45-38.53,185.95-55.79,0.24,45.17,14.05,165.91-6.97,194.08-70.71,94.74-538.67,83.32-683.36,49.97-50.48-11.64-119.55-15.19-142.95-53.46C2082.94,2054.19,2098.68,1936.35,2099.1,1893.84ZM1082.2,2144.86c237.3,90.12,596.2,99.32,835.6,0,0.3,48.25,16.02,162.45-6.97,194.08-23.26,31.99-82.13,36.94-126.68,47.64-154.96,37.24-389.71,42.17-549.71,4.65-46.01-10.78-127.03-18.02-149.92-52.29Q1083.365,2241.9,1082.2,2144.86Zm1849.02,6.98c11.65,18,6.76,177.6-3.49,194.07-22.68,36.46-98,46.27-147.6,55.78-152.74,29.31-381.35,31.18-528.79-3.48-47.16-11.09-128.15-15.94-149.92-52.3-10.66-17.81-9.78-174.04,0-192.91,35.33,37.1,112.7,37.22,173.17,48.81C2446.19,2234.68,2820.77,2238.6,2931.22,2151.84ZM499.95,2247.13c123.088-2.08,255.009,11.21,353.3,40.67,28.246,8.47,87.672,22.21,77.865,59.27-115.836,88.88-479.09,98.11-660.114,58.11-49.146-10.86-160.776-27.77-170.839-72.05,72.6-56.35,185.478-64.85,299.84-81.35Zm581.09,156.89c206.46,98.63,627.75,100.58,834.44,0,0.3,47.63,15.84,164.77-6.98,195.23-68.39,91.35-529.94,83.46-674.06,51.14-48.06-10.78-124.57-17.01-149.92-51.14C1065.17,2573.2,1080.47,2444.57,1081.04,2404.02Zm1853.66,4.65c12.04,23.25,9.32,177.9-3.48,195.23-25.22,34.13-93.84,40.01-141.79,51.14-148.77,34.52-380.88,37.74-536.92,5.81-50.23-10.28-124.21-19.7-148.76-55.79-17.64-25.92-2.66-151.5-2.33-191.75l4.65,1.17c30.86,19.01,75.08,25.44,113.9,34.86,160.52,38.97,392.6,46.49,557.84,6.97C2831.11,2443.56,2902.3,2442.73,2934.7,2408.67Zm-2001.259,3.48c11.99,23.03,7.322,170.04-4.649,188.27-23.514,35.8-101.086,40.97-148.758,52.29-155.086,36.82-377.9,33.18-532.275-1.16-46.743-10.4-122.522-17.68-145.272-52.3q-1.162-92.37-2.324-184.77,64.494,19.755,129,39.51c154.7,37.23,386.933,45.26,546.221,6.97C826.053,2448.78,902.14,2445.05,933.441,2412.15Z"/>
</svg>
