<svg id="end" xmlns="http://www.w3.org/2000/svg" width="3000" height="3000" viewBox="0 0 3000 3000">
  <defs>
    <style>
      .cls-1 {
        fill-rule: evenodd;
      }
    </style>
  </defs>
  <path id="_170" data-name="170" class="cls-1" d="M1537.34,126.208c221.31-7.073,401.27,178.78,365.87,402.617-11.13,57.414-29.48,115.938-64.5,150.146q289.11,276.354,578.28,552.759c27.57-28.57,68.44-46.93,110.09-61.17,235.93-80.65,481.72,115.12,453.73,355.91-20.93,180.08-173.99,342.55-403.68,313.64-80.32-17.67-112.58-49.32-165.7-76.74q-292.455,275.79-584.95,551.65c18.21,44.74,50.06,80.06,62.27,135.68,44.32,201.93-84.91,345.09-216.5,396.22-221.6,77.28-419.19-69.82-459.64-242.73-14.08-60.21-3.58-130.87,7.79-183.52Q935.73,2298.9,651.014,2177.1c-43.059,46.46-79.494,91.89-142.346,119.01-228.055,98.41-437.292-54.49-480.416-238.01-55.382-235.7,122.768-401.08,312.493-423.75,94.88-11.34,151.433,30.11,211.294,52.27q78.95-101.745,157.915-203.53L560.936,1290.68c-49.749,21.26-91.319,46.21-159.027,54.5-224.221,27.46-427.277-193.93-368.1-422.637C85.274,723.668,322.5,567.6,549.815,702.327c56.621,33.558,85.979,80.8,125.664,131.24L1231.52,572.2c-56.33-199.487,57.6-358.355,190.16-417.074C1456.93,139.511,1493.97,137.153,1537.34,126.208Zm16.68,54.5c-120.07,4.31-208.12,66.978-261.34,181.289-81.82,197.216,80,413.37,275.8,401.5C1948.68,740.456,1941.19,181.161,1554.02,180.706ZM1251.53,624.474Q974.66,755.7,697.721,886.953c27.977,56.666,23.123,166.337,1.112,224.667q113.976,47.265,227.975,94.53Q1119.741,959.265,1312.7,712.337C1294.96,683.205,1271.5,654.5,1251.53,624.474ZM362.986,709C251.194,710.69,150.6,772.318,101.649,890.289c-81.825,197.221,80,413.371,275.794,401.5C757.644,1268.75,750.158,709.456,362.986,709Zm1436.8,14.458c-124.92,115.279-296.48,117.087-444.83,25.581q-187.365,240.767-374.772,481.58,130.1,54.5,260.222,109c53.33-62.41,88.88-119.05,171.26-153.49,223.83-93.54,467.21,75.31,475.97,279.17q201.825-.555,403.68-1.12c11.49-76.83,35.69-150.33,83.41-191.29Q2087.285,998.2,1799.79,723.459ZM676.592,1162.78c-13.218,26.19-66.981,79.03-70.061,95.65q69.5,89.52,139.009,179.06,72.278-91.74,144.57-183.51Q783.361,1208.38,676.592,1162.78Zm1950.578,44.49c-102.8-3.22-212.39,63.31-261.34,181.28-81.82,197.22,80,413.37,275.8,401.51C3021.83,1767.02,3028.74,1218.51,2627.17,1207.27Zm-1090.94,7.78c-107.62,3.21-212.4,63.32-261.34,181.29-81.83,197.21,80,413.37,275.79,401.5C1930.89,1774.8,1934.58,1223.08,1536.23,1215.05Zm-592.741,61.17L781.126,1483.09q91.182,116.775,182.381,233.56,125.645-53.37,251.333-106.77s-18.27-99.8-15.57-123.45c4.16-36.46,11.22-65.47,18.9-95.65Q1080.845,1333.51,943.489,1276.22Zm946.381,245.8c-27.95,372.88-502.07,435.02-652.79,141.25q-119.535,50.04-239.1,100.1v1.11q182.368,235.755,364.759,471.57c114.48-90.18,343.9-58.35,424.81,38.93h1.12q291.885-276.36,583.84-552.77c-48.19-46.94-71.48-117.97-82.3-202.42Q2090.065,1520.9,1889.87,1522.02Zm-1145.442,8.9q-73.946,94.515-147.906,189.07,24.463,27.24,48.931,54.5,17.236,30.585,34.475,61.17l226.863-94.54v-3.34Q825.617,1634.37,744.428,1530.92Zm-387,157.93c-118.5,4.42-212.392,63.32-261.338,181.29-81.825,197.21,79.995,413.37,275.795,401.5C752.084,2248.6,750.81,1690.55,357.426,1688.85Zm584.951,96.76q-121.2,51.705-242.432,103.43c13.264,53.24,14.478,130.13,0,183.52q-10.008,27.8-20.017,55.61,281.327,120.66,562.712,241.34l1.11-2.22c11.35-35.43,68.95-76.92,72.28-100.1Q1129.22,2026.425,942.377,1785.61Zm599.413,449.33c-122.02,4.53-212.4,63.32-261.34,181.29-81.83,197.21,79.99,413.37,275.79,401.5C1936.44,2794.69,1942.57,2244.47,1541.79,2234.94Z"/>
</svg>
