<?xml version="1.0" encoding="utf-8"?>
<!-- Generator: Adobe Illustrator 24.0.2, SVG Export Plug-In . SVG Version: 6.00 Build 0)  -->
<svg version="1.1" xmlns="http://www.w3.org/2000/svg" xmlns:xlink="http://www.w3.org/1999/xlink" x="0px" y="0px"
	 viewBox="0 0 3000 3000" style="enable-background:new 0 0 3000 3000;" xml:space="preserve">
<style type="text/css">
	.st0{fill-rule:evenodd;clip-rule:evenodd;}
</style>
<g id="Layer_1">
	<g id="V1">
	</g>
	<polygon class="st0" points="2661.8,1673.2 2976.6,1455.1 2647,1258.9 2916.8,1038.5 2568.1,1022.1 2715.1,669.2 2331.7,681.6 
		2439.5,351.1 2137.4,525 2070.1,149.4 1754.4,366.4 1666.3,30.9 1506.2,339.7 1246.6,60.9 1098.3,413.3 842.8,179.5 875.1,525 
		505.9,431.7 571.7,807.5 230.3,749.7 444.3,1022.1 83.3,1144 341.8,1423.8 23.4,1560.6 350.7,1673.2 112.8,1971.8 481.6,2066.6 
		287.6,2354.6 624,2271.6 585.2,2652.1 946.7,2531.7 939.2,2879.7 1177.3,2627.2 1350.5,2969.1 1589.5,2671.5 1771.3,2969.1 
		1835.1,2627.2 2165.6,2822.1 2205.8,2441.6 2519.6,2594.5 2388.5,2271.6 2771.8,2257.6 2600,1915.1 2946.6,1874.8 	"/>
</g>
<g id="Layer_2">
</g>
</svg>
