<?xml version="1.0" encoding="utf-8"?>
<!-- Generator: Adobe Illustrator 24.0.2, SVG Export Plug-In . SVG Version: 6.00 Build 0)  -->
<svg version="1.1" id="Layer_1" xmlns="http://www.w3.org/2000/svg" xmlns:xlink="http://www.w3.org/1999/xlink" x="0px" y="0px"
	 viewBox="0 0 3000 3000" style="enable-background:new 0 0 3000 3000;" xml:space="preserve">
<style type="text/css">
	.st0{fill-rule:evenodd;clip-rule:evenodd;}
</style>
<g id="Layer_2_1_">
</g>
<g id="Layer_3">
	<g>
		<path class="st0" d="M2661.8,1673.2l314.9-218.2L2647,1258.9l269.8-220.4l-348.6-16.4l146.9-353l-383.4,12.4L2439.5,351
			l-302.1,174l-67.3-375.6l-315.7,216.9l-88-335.5l-160.1,308.8L1246.6,60.9l-148.3,352.4L842.8,179.5L875.1,525l-369.2-93.3
			l65.8,375.8l-341.3-57.8l214,272.4L83.3,1144l258.5,279.8L23.4,1560.6l327.3,112.7l-237.9,298.5l368.8,94.8l-194,288l336.3-83
			l-38.7,380.6l361.5-120.4l-7.5,348l238.1-252.4l173.1,341.9l239.1-297.6l181.8,297.6l63.8-341.9l330.5,194.8l40.3-380.4
			l313.8,152.9l-131.1-322.9l383.3-13.9L2600,1915.1l346.6-40.2L2661.8,1673.2z M1062,1742.6h-88v-279c0-78-29-143-112-143
			c-58,0-103,41-118,90c-4,11-6,26-6,41v291h-88v-353c0-50-1-91-4-131h78l5,80h2c24-46,80-91,160-91c67,0,171,40,171,206V1742.6z
			 M1594,1516.6h-340c2,119,78,168,166,168c63,0,101-11,134-25l15,63c-31,14-84,30-161,30c-149,0-238-98-238-244s86-261,227-261
			c158,0,200,139,200,228C1597,1493.6,1595,1507.6,1594,1516.6z M2198.1,1742.6h-80l-74-231c-17-54-31-102-43-159h-2
			c-12,58-27,108-44,160l-78,230h-80l-146-484h90l64,246c14,54,27,104,36,154h3c11-49,27-101,43-153l79-247h74l75,242
			c18,58,32,109,43,158h3c8-49,21-100,37-157l69-243h87L2198.1,1742.6z"/>
		<path class="st0" d="M1390,1310.6c-89,0-128,82-135,143h257C1513,1397.6,1489,1310.6,1390,1310.6z"/>
	</g>
</g>
</svg>
