<svg id="V1" xmlns="http://www.w3.org/2000/svg" width="3000" height="3000" viewBox="0 0 3000 3000">
  <defs>
    <style>
      .cls-1 {
        fill-rule: evenodd;
      }
    </style>
  </defs>
  <path id="_26" data-name="26" class="cls-1" d="M1488,187c43.53-1.175,72.46,26.292,101,43q112.485,61.494,225,123,416.46,227.477,833,455,122.49,66.993,245,134c30.47,16.5,83.51,31.252,91,70,10.42,53.96-56.01,68.13-85,85q-164.49,89.985-329,180c0.33,0.67.67,1.33,1,2q167.49,91.485,335,183c29.32,17.12,99.3,36.84,73,94-12.35,26.84-68.52,45.5-95,61q-127.485,70.5-255,141h2q138.99,76.485,278,153c26.77,15.7,84.79,28.9,75,79-7.43,38.04-54.91,49.04-84,66Q2780.005,2121,2661,2186q-429.45,234.48-859,469Q1694.015,2714,1586,2773c-19.17,11.18-63.62,45.79-95,39-16.78-3.63-31.55-15.1-45-23q-37.5-20.505-75-41-118.995-64.995-238-130L357,2194q-124.488-67.995-249-136c-31.473-18.45-81.923-29.69-90-71-9.6-49.12,43.882-60.77,70-76q141.486-77.49,283-155-127.488-70.5-255-141c-32.954-19.32-89.18-32.27-98-75-10.52-50.96,60.8-70.58,89-87q161.484-88.995,323-178c-0.667-.33-1.333-0.67-2-1q-151.485-83.49-303-167c-31.527-18.38-99.026-39.45-107-78-10.735-51.9,49.991-66.831,78-82L363,801,732,599,962,473C1134.04,372.369,1311.4,282.651,1488,187Zm9,105L170,1020q67.493,36.99,135,74c92.955,54.7,191.55,100.86,284,155q456.455,248.97,913,498,203.475-111.495,407-223c177.54-96.21,355.47-194.08,530-292q13.005-4.995,26-10,182.985-99.99,366-200c-0.67-1-1.33-2-2-3Q2163.06,655.537,1497,292ZM534,1331L169,1531c0.333,0.67.667,1.33,1,2q56.495,30.99,113,62c81.482,48.25,167.976,88.42,249,136q321.968,174.975,644,350,112.485,61.5,225,123c24.64,14.38,75.19,49.07,102,55q663.435-362.46,1327-725c-0.33-.67-0.67-1.33-1-2q-181.98-98.985-364-198-354.96,193.485-710,387-92.49,50.49-185,101c-19.25,11.24-44.54,36.42-78,30-27.85-5.34-67.08-34.05-91-48q-101.49-55.5-203-111Q866.034,1512.025,534,1331Zm-61,481q-151.485,83.49-303,167c0.333,0.67.667,1.33,1,2q664.934,362.97,1330,726,664.44-362.97,1329-726v-1q-153.48-82.995-307-166-384.96,209.985-770,420-90.495,49.5-181,99c-16,9.44-51.7,37.33-78,32-29.46-5.97-56.2-27.04-80-41q-75-40.995-150-82Q868.54,2027.02,473,1812Z"/>
</svg>
