<svg xmlns="http://www.w3.org/2000/svg" viewBox="0 0 2994.91 3000">
  <defs>
    <style>
      .a {
        fill-rule: evenodd;
      }
    </style>
  </defs>
  <title>2icon 1</title>
  <polygon class="a" points="2246.49 1776.97 1889.98 1776.97 1509.36 1396.36 1889.98 1015.74 2246.49 1015.74 2246.49 1309.5 2991.81 796.7 2246.49 283.9 2246.49 586.18 1978.16 586.18 1712.05 586.18 1282.49 1015.74 1205.62 1092.61 1128.74 1015.74 699.18 586.18 433.08 586.18 8.18 586.18 8.18 1015.74 521.25 1015.74 901.87 1396.36 521.26 1776.97 8.18 1776.97 8.18 2206.53 433.08 2206.53 436.03 2209.49 696.23 2209.49 699.18 2206.53 1128.74 1776.97 1205.62 1700.1 1282.49 1776.97 1712.05 2206.53 1715 2209.49 1975.2 2209.49 1978.16 2206.53 2246.49 2206.53 2246.49 2508.81 2991.81 1996.01 2246.49 1483.21 2246.49 1776.97"/>
</svg>
