<svg id="end" xmlns="http://www.w3.org/2000/svg" width="3000" height="3000" viewBox="0 0 3000 3000">
  <defs>
    <style>
      .cls-1 {
        fill-rule: evenodd;
      }
    </style>
  </defs>
  <path id="_189" data-name="189" class="cls-1" d="M38.427,783.748H915.6c58.963,0,284.267-15,314.247,8.327,22.91,17.834,12.48,225.505,12.48,276.845v833.67c0,55.23,10.87,289.08-13.52,307.03-27.56,20.26-206,7.28-257.018,7.28q-340.223.525-680.514,1.04c-54.164,0-257.149,11.27-275.743-14.57-19.223-26.71-6.245-114.88-6.243-155.07V812.89C12.648,795.364,23.684,790.179,38.427,783.748Zm1751.233,0h877.17c58.96,0,284.27-15,314.24,8.327,22.92,17.834,12.49,225.505,12.49,276.845v833.67c0,55.23,10.87,289.08-13.53,307.03-27.55,20.26-206,7.28-257.01,7.28q-340.215.525-680.51,1.04c-54.17,0-257.15,11.27-275.75-14.57-19.22-26.71-6.24-114.88-6.24-155.07V812.89C1763.88,795.364,1774.91,790.179,1789.66,783.748Zm39.54,68.692V2149.25q547.785-.525,1095.69-1.04V852.44H1829.2Zm-528.6,531.84h421.42V1499.8H1299.56Q1300.085,1442.05,1300.6,1384.28Zm1.04,172.77,422.46,3.12q-1.035,56.715-2.08,113.44-211.2-.51-422.46-1.04C1292.37,1653.04,1290.91,1572.02,1301.64,1557.05Z"/>
</svg>
