<svg id="end" xmlns="http://www.w3.org/2000/svg" width="3000" height="3000" viewBox="0 0 3000 3000">
  <defs>
    <style>
      .cls-1 {
        fill-rule: evenodd;
      }
    </style>
  </defs>
  <path id="_173" data-name="173" class="cls-1" d="M2053,466H312q-0.5,672.933-1,1346c0.333,0.33.667,0.67,1,1,66.086-.38,379.156-8.55,393,7,13.768,15.46,7.317,336.09,7,389q15,0.495,30,1,0.5,64.5,1,129H678c-31.034-31.03-361.05-361.05-495-495q-1-424.455-2-849V524c0-60.19-9.591-146.8,25-174,35.36-27.808,358.785-14,439-14H1752c82.92,0,366.18-14.6,406,16,44.52,34.21,25.24,357.457,25,450-0.33.333-.67,0.667-1,1l-128-1Q2053.505,634.017,2053,466ZM963,875H2306c91.32,0,444.27-15.289,485,17,43.77,34.7,25,339.11,25,430V2471c0,88.17,18.49,354.25-25,390-38.87,31.95-504.69,16-604,16H1314c-147.96-145.52-496.377-485.81-499-498V1291c0-70.21-13.134-347.359,9-384C850.976,862.342,902.737,888.263,963,875Zm-19,129V2351c0.333,0.33.667,0.67,1,1,66.09-.38,379.16-8.55,393,7,13.78,15.47,7.32,337,7,390H2687V1004H944Zm1110,73h129v924c0,82.28,17.9,286.81-25,322-39.02,32-232.48,16-306,16H1016V2210q518.445-.495,1037-1Q2053.5,1643.05,2054,1077Z"/>
</svg>
