<svg id="end" xmlns="http://www.w3.org/2000/svg" width="3000" height="3000" viewBox="0 0 3000 3000">
  <defs>
    <style>
      .cls-1 {
        fill-rule: evenodd;
      }
    </style>
  </defs>
  <path id="_174" data-name="174" class="cls-1" d="M2054,802q-0.495-167.984-1-336H427c-17.766,0-107.6-4.388-115,2V1813q140.486-.495,281-1c23.144-3.59,103.675-1.91,112,8,11.467,13.65,7,78.9,7,105v284c9.351-.42,25.264-1.71,30,3q0.5,63.495,1,127c-20.665-.33-62-1-62-1v-1L182,1840s-0.667-576.7-1-865q0.5-242.476,1-485c10.485-69.655-19.612-124.153,39-149,28.324-12.008,96.743-5,135-5H2036c56.09,0,109.14-4.9,133,27,18.7,25,14,75.287,14,119q-0.495,160.484-1,321ZM963,875H2303l361,1c51.64,7.895,93.35-9.935,127,16,30.04,23.154,22.82,74.5,24,127q0.495,150.99,1,302V2473q-0.495,133.98-1,268c-0.83,51.61,4.94,97.17-24,120-31.91,25.18-117.27,16-172,16H1314c-19.72-7.04-72.35-69.35-90-87-399.868-396.13-407.8-405.54-409-411V1290q0.5-133.485,1-267c0-36.775-6.607-91.967,8-116,18.8-30.937,52.394-31,103-31Zm-19,129q0.5,673.935,1,1348,140.49-.495,281-1c23.14-3.59,103.67-1.91,112,8,11.53,13.72,7,79.74,7,106v284H2687V1004H944Zm1110,73h129V2216c0,49.06,1.94,85.75-25,107-22.85,18.02-61.2,16-103,16H1016V2210q518.445-.495,1037-1Q2053.5,1643.05,2054,1077ZM666,1858q-204.98-.495-410-1,205.479,203.985,411,408Q666.5,2061.525,666,1858Zm633,539q-204.975-.495-410-1l411,408Q1299.505,2600.525,1299,2397Z"/>
</svg>
