<svg id="V1" xmlns="http://www.w3.org/2000/svg" width="3000" height="3000" viewBox="0 0 3000 3000">
  <defs>
    <style>
      .cls-1 {
        fill-rule: evenodd;
      }
    </style>
  </defs>
  <path id="_27" data-name="27" class="cls-1" d="M10.239,624l2394.352,2.159Q2699.265,920.815,2994,1215.53q-0.54,580.68-1.08,1161.47H1873.47l-1283.536-1.08Q298.5,2083.42,7,1790.87,7.539,1208.03,8.079,625.079ZM2118.52,1142.13l-71.25,1.08H1874.55c-25.36-.01-60.87-4.64-80.96,3.24-18.12,7.09-36.43,29.91-30.23,57.21,11.97,52.7,89.2,38.86,152.21,38.86h386.46c45.74,0,124.59,10.27,152.22-10.8,28.8-21.97,16.32-74.5-14.04-85.27-22.07-7.84-59.91-3.25-87.44-3.24ZM575.9,1143.21c-10.3,4.15-20.136,3.84-28.067,9.71-27.733,20.55-20.838,72.14,8.636,85.28,26.049,11.61,121.642,4.32,159.767,4.32q183.5,0.54,367.033,1.07c64.24,0.01,142.63,14.36,154.37-39.93,16.06-74.31-90.63-59.38-150.05-59.37ZM2120.68,1759.56l-264.48,1.08c-48.2,0-102.55,2.97-90.68,59.37,11.28,53.58,87.82,39.95,151.13,39.94h385.38c40.48,0,128.48,8.09,152.22-8.63,30.64-21.6,21.13-74.79-10.8-87.44-21.5-8.51-61.32-3.24-88.52-3.24Zm-1546.938,1.08c-10.255,4.34-20.105,4.73-28.067,10.8-28.877,22-16.33,73.51,12.954,85.27,27.074,10.88,122.059,3.25,159.767,3.24l368.114,1.08c67.91,0.01,144.57,14.66,151.13-48.57,6.94-66.88-93.72-50.74-154.37-50.74Z"/>
</svg>
