<svg id="end" xmlns="http://www.w3.org/2000/svg" width="3000" height="3000" viewBox="0 0 3000 3000">
  <defs>
    <style>
      .cls-1 {
        fill-rule: evenodd;
      }
    </style>
  </defs>
  <path id="_202" data-name="202" class="cls-1" d="M1871.46,1122.78h717.78c119.51,0,251.44-11.5,318.72,40.17,102.28,78.56,83.03,223.32,83.02,400.33v942.58c0.01,158.42,20.36,326.82-53.56,413.72-70.38,82.75-238.1,64.27-391.03,64.27q-467.325.675-934.72,1.34c-158.23,0-350.47,22.51-425.85-61.59-66.39-74.08-58.93-199.22-58.92-342.76V1869.89H418.491c-123.855,0-253.85,16.27-328.089-40.17C-12.564,1751.44,7.37,1593.05,7.375,1416V482.791C7.369,327.658-12.137,161.845,60.941,74.428c68.611-82.073,226.266-63.191,376.3-64.267H1421.51c161.89,19.626,309.72-36.287,393.71,64.267,66.63,79.78,56.24,200.6,56.24,345.435V1122.78ZM1126.9,1798.93q-0.675-237.63-1.34-475.31c-60.16-33.31-131.475-83.95-176.769-133.89q-64.941,48.855-129.9,97.74-109.8,66.27-219.62,132.55l-137.931,77.65q-52.221-58.23-104.453-116.48c0.446-.89.893-1.78,1.339-2.68,179.168-85.44,331.369-169,479.413-282.5v-5.36c-92.134-74.53-242.2-260.42-273.185-390.958l1.339-1.338,187.48,1.338c50.972,120.271,118.264,204.893,194.175,297.235l2.679-1.338C1044.5,872.47,1180.81,757.429,1180.46,543.042H328.769L327.43,541.7V379.7l1.339-1.339H857.73V225.723l1.339-1.339H1022.44c0.45,0.447.9,0.893,1.34,1.339V377.018c0.45,0.447.9,0.893,1.34,1.339h526.29c0.44,0.447.89,0.893,1.33,1.339V541.7c-0.44.446-.89,0.892-1.33,1.339H1342.5c4.5,160.243-98.58,325.474-172.75,417.735q-58.245,65.6-116.51,131.213c45.3,27.46,86.32,62.7,133.92,89.71,24.06-22.43,53.38-42.33,89.72-52.22,47.5-12.93,116.56-6.7,174.09-6.7h349.52V429.236c0-116.738,11.18-239.8-41.52-302.591-56.13-66.885-224.69-45.527-345.5-45.522H488.127c-127.419,0-313.3-24.351-370.943,48.2-57.454,72.317-38.839,239.97-38.835,368.2V1386.55c-0.006,140.04-23.871,322.32,58.923,381.58,61.585,44.08,192.242,30.8,297.289,30.8H1126.9Zm828.93-243.68q-200.85,498.69-401.75,997.47h182.13q39.495-119.145,79.01-238.32,242.355,0.675,484.77,1.34,40.17,117.135,80.34,234.31,87.705,0.66,175.43,1.34-199.515-498.69-399.06-997.48C2137.63,1553.62,2003.86,1554.12,1955.83,1555.25Zm100.43,155.31q93.735,236.955,187.48,473.97c-124.81.68-377.39,1.34-378.98,1.34Q1960.505,1948.24,2056.26,1710.56Z"/>
</svg>
