<svg id="V3" xmlns="http://www.w3.org/2000/svg" width="3000" height="3000" viewBox="0 0 3000 3000">
  <defs>
    <style>
      .cls-1 {
        fill-rule: evenodd;
      }
    </style>
  </defs>
  <g id="group" data-name="group">
    <path id="_133" data-name="133" class="cls-1" d="M1472.96,773.106c233.53-3.7,378.74,128.586,433.5,302.9,33.35,106.13,16.41,264.67-11.97,365.16-36.88,130.57-66.15,270.14-146.1,357.98-37.05,40.72-96.81,66.55-150.89,89.8-26.91,11.57-63.78,33.66-94.6,37.11q-22.155-7.77-44.31-15.56c-46.58-16.8-89.9-35.23-129.34-58.67-27.38-16.27-59.58-32.15-79.03-56.27-88.5-109.67-128.14-276.25-160.47-440.59-13.55-68.86-24.57-172.44-5.99-245.44,39.33-154.523,129.48-254.082,267.05-310.084,24.24-9.869,51.45-16,79.04-21.551ZM440.681,1168.2c284.956-4.5,427.033,240.45,353.273,532.78C765.882,1812.24,735.543,1932.69,673,2011.07c-29.061,36.42-80.232,59.23-125.741,79.02q-40.114,16.155-80.235,32.32c-23.971,5.17-130.16-50.2-148.495-61.06-21.835-12.93-45.732-24.91-62.272-43.1-72.635-79.88-108.645-233.48-134.124-360.37-11.146-55.51-22.057-136.2-8.382-198.75C142.423,1328,216.745,1240.19,329.31,1193.34q34.725-10.17,69.457-20.35Q419.722,1170.59,440.681,1168.2Zm2080.119,0c232.07-3.66,409.41,180.14,366.45,432.21-6.97,40.85-6.05,78.94-16.77,114.94-52.19,175.19-68.08,297.86-229.93,368.75-28.51,12.49-61.69,32.26-94.6,38.31-24.7,4.55-128.36-49.81-147.3-61.06-22.47-13.34-48.64-25.84-64.67-45.49-73.28-89.88-107.03-229.66-132.92-365.17-11.02-57.66-20.28-143.11-4.79-204.73,30.97-123.21,104.44-207.38,213.16-252.62q34.725-10.17,69.46-20.35Q2499.845,1170.59,2520.8,1168.2ZM2162.74,2998.8H837.065V2311.58q0.6-37.71,1.2-75.43,195.178-64.65,390.4-129.3c23.25-8.15,119.14-30.69,128.14-45.5,15.85-40.45-10.72-129.66,1.19-175.99,20.45,9.84,124.71,59.51,146.1,56.27,45.52-6.9,100.3-38.71,140.11-56.27q0.6,88.575,1.2,177.19c6.9,10.97,112.75,38.42,132.93,45.5q193.38,64.035,386.8,128.1v233.47C2165.13,2646.17,2162.9,2825.84,2162.74,2998.8Zm-1340.045,0H-6q0.6-323.22,1.2-646.51,129.92-43.11,259.865-86.21c17.473-6.12,78.867-19.17,86.222-31.13q1.2-72.42,2.395-144.86c17.17,8.34,103.511,49.58,123.347,45.49q56.877-22.14,113.766-44.3c-0.151,46.88-8.5,105.17,0,146.07q87.411,29.925,174.84,59.86c13.174,4.64,57.466,13.83,63.469,22.75Q820.9,2659.35,822.7,2998.8Zm2184.3,0H2180.7q0.6-340.575,1.2-681.24,87.405-29.325,174.84-58.66c16.82-5.92,56-9.79,64.67-23.95q1.185-72.42,2.39-144.86c16.71,8.07,104.14,49.8,123.35,45.49,38.86-8.72,78.68-29.08,112.56-45.49q0.6,72.42,1.2,144.86c14.05,15.74,84.26,30.52,108.98,38.32q118.545,39.495,237.11,79.02V2998.8Z"/>
  </g>
</svg>
