<svg id="V3" xmlns="http://www.w3.org/2000/svg" width="3000" height="3000" viewBox="0 0 3000 3000">
  <defs>
    <style>
      .cls-1 {
        fill-rule: evenodd;
      }
    </style>
  </defs>
  <g id="folder">
    <path id="_143" data-name="143" class="cls-1" d="M49.922,343l897.953,1.552c26.245,8.333,103.455,98.85,127.175,122.579q162.045,161.355,324.13,322.742H2877.16c41.12,0,88.26-5.578,102.35,21.723,13.14,25.452,4.66,83.705,4.66,117.924V2546.33c0,43.95,7.32,96.52-26.37,107.06l-2251.86,1.56H189.5c-49.38,0-153.058,13.69-173.7-17.07-11.95-17.82-4.653-104.79-4.653-135V2144.46Q10.375,1467.225,9.6,789.873,10.375,632.4,11.15,474.889C11.148,400.7-6.7,367.531,49.922,343ZM80.939,792.976V862.8l1305.831-3.1c-26.87-.923-71.97-51.754-85.3-69.823Z"/>
  </g>
</svg>
