<svg id="V3" xmlns="http://www.w3.org/2000/svg" width="3000" height="3000" viewBox="0 0 3000 3000">
  <defs>
    <style>
      .cls-1 {
        fill-rule: evenodd;
      }
    </style>
  </defs>
  <g id="wallet">
    <path id="_150" data-name="150" class="cls-1" d="M2819.59,1353.12c60.91-.88,131.45-7.92,157.31,26.81,28.83,38.72,12.51,498.87,12.52,593.44,0,53.55,12.14,146.26-12.52,178.74-26.1,34.39-96.45,27.66-157.31,26.81,0.51,106.33,18.41,539.47-32.18,573.77-38.73,26.27-407.92,10.73-491.62,10.73H254.218c-86.334.01-214,20.01-239.553-42.9q-2.681-58.98-5.363-117.97V1285.2c0-94.32-20.19-402.731,26.816-437.93,41.147-30.813,459.284-14.318,554.191-14.3h116.2l852.74-445.076c51.92-26.291,272.54-169.316,327.15-153.721,55.15,15.75,136.71,207.369,164.47,264.543,51.1-18.124,261.49-104.137,311.06-84.01,59.55,24.175,145.44,339.169,175.2,418.264,69.42-.712,206.61-18.932,252.07,12.512C2836.5,878.2,2820.3,1255.72,2819.59,1353.12ZM1848.86,362.87L949.639,832.97c80.371,27.84,212.991-38.1,268.161-57.2q361.965-119.746,724.02-239.518Q1895.35,449.569,1848.86,362.87Zm455.86,173.383L1392.99,831.182v1.788H2415.56C2397.64,789.208,2325.63,551.547,2304.72,536.253ZM125.5,949.154V2649.02H2703.38v-470.1q-349.455-.885-698.99-1.79c-62.27.01-224.64,13.73-259.22-12.51-44.89-34.06-25.13-371.47-25.03-459.37,0.08-68.87-17.71-280.32,8.94-321.74,30.89-48.01,170.48-28.61,246.71-28.6q363.75-.9,727.59-1.79V949.154H125.5ZM1834.56,1469.3v593.44H2875.01V1469.3H1834.56Zm284.24,205.56c124.64,21,134.55,180.77,10.73,200.2-98.29,15.42-136.12-110.26-82.24-168.03C2065.67,1687.34,2089.11,1684.34,2118.8,1674.86Z"/>
  </g>
</svg>
