<svg id="V1" xmlns="http://www.w3.org/2000/svg" width="3000" height="3000" viewBox="0 0 3000 3000">
  <defs>
    <style>
      .cls-1 {
        fill-rule: evenodd;
      }
    </style>
  </defs>
  <g id="shadow">
    <path id="_36" data-name="36" class="cls-1" d="M2020.31,21.157c14.53-.225,98.95-0.985,104.61,4.023q1.005,119.664,2.01,239.353c0,21.687-4.7,56.164,3.01,73.415l312.82,4.023c0.17,50.2,7.18,101.822,0,149.847q-0.5,20.615-1,41.233l-311.82,3.017c-0.33,1.006-.67,2.012-1,3.018q-2.01,155.865-4.02,311.762c-50.52.168-102.52,7.227-150.88,0l-41.24-1q-1.515-156.369-3.02-312.769c-1-.335-2.01-0.67-3.02-1.006l-78.45-2.011H1688.38l-73.43-2.011c-0.4-50.107-7.2-101.928,0-149.848,1.68-11.148-4.18-33.119,2.01-40.227l240.4-2.011c21.69,0,56.17,4.693,73.43-3.017q1.5-156.871,3.01-313.774ZM2152.07,3000H556.8q-1.508-348.945-3.017-697.95,0.5-98.535,1.006-197.11c0-21.66-5.148-70.52,2.011-86.49q309.267-102.06,618.6-204.15-0.51-84.975-1.01-169.97c-1.76-14.56-2.74-40.84,0-52.29-18.12-5.78-34.19-18.69-49.28-28.16-25.19-15.8-55.15-32.64-73.43-55.31-108.547-134.61-158.189-336.26-197.147-539.051q-4.023-35.194-8.046-70.4,0.5-21.62,1-43.244c-9.49-58.229-6.41-128.682,7.041-182.03C901.8,486.412,1023.54,354.494,1202.56,298.727c64.97-20.241,160.29-34.665,240.39-17.1,57.07,12.515,102.81,33.629,149.87,52.3V490.813c0,24.877-2.72,50.311,12.07,60.341,12.26,8.311,40.51,5.029,60.35,5.028h145.85A621.566,621.566,0,0,1,1859.37,701c11.37,56.008,7.71,124.426,1.01,183.035-4.39,38.368-2.68,75.882-10.06,112.637-21.04,104.747-45.87,204.337-81.47,295.667-24.8,63.62-46.71,122.86-81.48,174.99-30.79,46.17-96.41,106.29-152.89,124.71v128.73c-3.35,22.63-5.4,74.98,0,94.53q309.78,102.57,619.6,205.16Q2153.075,2510.18,2152.07,3000Z"/>
  </g>
</svg>
