<svg id="V1" xmlns="http://www.w3.org/2000/svg" width="3000" height="3000" viewBox="0 0 3000 3000">
  <defs>
    <style>
      .cls-1 {
        fill-rule: evenodd;
      }
    </style>
  </defs>
  <g id="shadow">
    <path id="_37" data-name="37" class="cls-1" d="M1327.28,282.635c281.58-3.894,451.68,163.37,514.99,378.139,32.91,111.621,11.32,310.245-17.1,412.326-44.62,160.32-82.7,317.08-174.01,429.43-36.88,45.38-115.12,81.48-173,106.61-30.35,13.17-61.74,24.63-94.55,37.21q-13.575,5.025-27.16,10.05-29.16-10.05-58.34-20.11c-52.65-20.56-102.37-40.54-147.86-67.38-34.14-20.15-72.38-40.37-96.56-70.4-102.3-127.05-153.3-333.12-190.1-524.968-17.152-89.4-26.891-223.107-1.006-310.757,51.312-173.75,156.75-286.351,317.85-349.979,27.8-10.981,58.54-17.959,90.52-24.136Q1299.12,285.652,1327.28,282.635ZM2152.07,3000H556.8q-1-344.91-2.011-689.9,0.5-144.3,1-288.63c8.259-9.73,32.215-11.53,45.264-16.09q59.338-19.62,118.689-39.23,227.8-75.4,455.65-150.85-0.51-106.59-1.01-213.2a1285.774,1285.774,0,0,0,133.78,56.31c13.13,4.65,34.46,18.96,52.3,15.09,62.89-13.63,116.75-51.38,174.01-70.4q-0.495,106.1-1,212.2,309.765,102.075,619.6,204.16,0.495,56.8,1,113.64-0.495,109.11-1,218.23Q2152.57,2675.63,2152.07,3000Z"/>
  </g>
</svg>
