<svg id="V1" xmlns="http://www.w3.org/2000/svg" width="3000" height="3000" viewBox="0 0 3000 3000">
  <defs>
    <style>
      .cls-1 {
        fill-rule: evenodd;
      }
    </style>
  </defs>
  <g id="shadow">
    <path id="_38" data-name="38" class="cls-1" d="M2153.08,3000H555.8q-0.5-490.725-1-981.55Q865.064,1916.39,1175.4,1814.3q-1.005-111.12-2.01-222.26c-18.13-5.78-34.19-18.69-49.29-28.16-30.46-19.11-61.67-39.71-83.49-67.38C942.2,1371.69,889.2,1154.87,853.527,966.5q-3.519-32.178-7.04-64.364v-51.29c-11.093-68.215-2.459-149.112,15.087-205.16,55.7-177.931,176.236-298.17,355.066-353,37.46-11.485,78.54-11.754,122.71-19.108,22.47-3.74,50.39.653,69.4,4.023,110.39,19.559,178.75,44.635,251.47,99.563,94.87,71.666,161.49,166.569,195.13,299.694,13.66,54.051,13.66,132.939,6.03,190.075q0.51,16.089,1.01,32.182-7.035,53.3-14.08,106.6c-37.47,176.98-86.03,371.55-181.05,491.78-31.82,40.26-84.66,72.06-132.78,95.54q-0.495,110.625-1,221.26,310.77,102.57,621.61,205.16Q2154.085,2509.675,2153.08,3000Z"/>
  </g>
</svg>
