<svg id="V1" xmlns="http://www.w3.org/2000/svg" width="3000" height="3000" viewBox="0 0 3000 3000">
  <defs>
    <style>
      .cls-1 {
        fill-rule: evenodd;
      }
    </style>
  </defs>
  <g id="plus">
    <path id="_2139" data-name="2139" class="cls-1" d="M7,475l836,1q207.979,208.479,416,417l1462,2c0.33,0.333.67,0.667,1,1q-0.495,832.92-1,1666H6Q6.5,1518.6,7,475Zm1205,701q-0.495,223.485-1,447H765q-1,152.49-2,305,223.977,1.005,448,2v446q152.985,1.005,306,2V1931l1-1q223.98-1.005,448-2-0.495-151.98-1-304H1518l-1-1q-1.005-223.98-2-448Q1363.515,1175.495,1212,1176Z"/>
  </g>
</svg>
